%TF.GenerationSoftware,KiCad,Pcbnew,9.0.1*%
%TF.CreationDate,2025-04-26T18:30:10+02:00*%
%TF.ProjectId,BatteryCharger,42617474-6572-4794-9368-61726765722e,rev?*%
%TF.SameCoordinates,Original*%
%TF.FileFunction,Soldermask,Bot*%
%TF.FilePolarity,Negative*%
%FSLAX46Y46*%
G04 Gerber Fmt 4.6, Leading zero omitted, Abs format (unit mm)*
G04 Created by KiCad (PCBNEW 9.0.1) date 2025-04-26 18:30:10*
%MOMM*%
%LPD*%
G01*
G04 APERTURE LIST*
G04 Aperture macros list*
%AMRoundRect*
0 Rectangle with rounded corners*
0 $1 Rounding radius*
0 $2 $3 $4 $5 $6 $7 $8 $9 X,Y pos of 4 corners*
0 Add a 4 corners polygon primitive as box body*
4,1,4,$2,$3,$4,$5,$6,$7,$8,$9,$2,$3,0*
0 Add four circle primitives for the rounded corners*
1,1,$1+$1,$2,$3*
1,1,$1+$1,$4,$5*
1,1,$1+$1,$6,$7*
1,1,$1+$1,$8,$9*
0 Add four rect primitives between the rounded corners*
20,1,$1+$1,$2,$3,$4,$5,0*
20,1,$1+$1,$4,$5,$6,$7,0*
20,1,$1+$1,$6,$7,$8,$9,0*
20,1,$1+$1,$8,$9,$2,$3,0*%
G04 Aperture macros list end*
%ADD10C,0.500000*%
%ADD11C,0.150000*%
%ADD12C,0.000000*%
%ADD13C,3.500000*%
%ADD14C,1.540000*%
%ADD15C,2.800000*%
%ADD16RoundRect,0.225000X-0.250000X0.225000X-0.250000X-0.225000X0.250000X-0.225000X0.250000X0.225000X0*%
%ADD17RoundRect,0.250000X0.250000X0.475000X-0.250000X0.475000X-0.250000X-0.475000X0.250000X-0.475000X0*%
%ADD18RoundRect,0.200000X0.275000X-0.200000X0.275000X0.200000X-0.275000X0.200000X-0.275000X-0.200000X0*%
%ADD19RoundRect,0.200000X-0.275000X0.200000X-0.275000X-0.200000X0.275000X-0.200000X0.275000X0.200000X0*%
%ADD20RoundRect,0.200000X-0.200000X-0.275000X0.200000X-0.275000X0.200000X0.275000X-0.200000X0.275000X0*%
%ADD21C,3.000000*%
%ADD22C,1.600000*%
%ADD23C,1.800000*%
%ADD24RoundRect,0.225000X0.225000X0.250000X-0.225000X0.250000X-0.225000X-0.250000X0.225000X-0.250000X0*%
%ADD25RoundRect,0.200000X0.200000X0.600000X-0.200000X0.600000X-0.200000X-0.600000X0.200000X-0.600000X0*%
%ADD26RoundRect,0.525000X0.525000X0.975000X-0.525000X0.975000X-0.525000X-0.975000X0.525000X-0.975000X0*%
%ADD27RoundRect,0.150000X0.587500X0.150000X-0.587500X0.150000X-0.587500X-0.150000X0.587500X-0.150000X0*%
%ADD28RoundRect,0.150000X-0.150000X0.587500X-0.150000X-0.587500X0.150000X-0.587500X0.150000X0.587500X0*%
G04 APERTURE END LIST*
D10*
X145300000Y-96500000D02*
X146400000Y-96500000D01*
X146400000Y-99800000D01*
X145300000Y-99800000D01*
X145300000Y-96500000D01*
G36*
X145300000Y-96500000D02*
G01*
X146400000Y-96500000D01*
X146400000Y-99800000D01*
X145300000Y-99800000D01*
X145300000Y-96500000D01*
G37*
D11*
%TO.C,REF\u002A\u002A*%
X141600000Y-83650000D02*
X141600000Y-89950000D01*
X141000000Y-90550000D01*
X137400000Y-90550000D01*
X136800000Y-89950000D01*
X136800000Y-83650000D01*
X137400000Y-83050000D01*
X141000000Y-83050000D01*
X141600000Y-83650000D01*
D12*
G36*
X141000000Y-87550000D02*
G01*
X141000000Y-89950000D01*
X139500000Y-89950000D01*
X139500000Y-89350000D01*
X140400000Y-89350000D01*
X140400000Y-88150000D01*
X140100000Y-87850000D01*
X139800000Y-87850000D01*
X139500000Y-88150000D01*
X139500000Y-87250000D01*
X140700000Y-87250000D01*
X141000000Y-87550000D01*
G37*
G36*
X139500000Y-89950000D02*
G01*
X137400000Y-89950000D01*
X137400000Y-88150000D01*
X138000000Y-88150000D01*
X138000000Y-89350000D01*
X138900000Y-89350000D01*
X138900000Y-88150000D01*
X138600000Y-87850000D01*
X138300000Y-87850000D01*
X138000000Y-88150000D01*
X137400000Y-88150000D01*
X137400000Y-87550000D01*
X137700000Y-87250000D01*
X138900000Y-87250000D01*
X139200000Y-87550000D01*
X139500000Y-87250000D01*
X139500000Y-89350000D01*
X139500000Y-89950000D01*
G37*
G36*
X141000000Y-83950000D02*
G01*
X141000000Y-84250000D01*
X138600000Y-84250000D01*
X138300000Y-84550000D01*
X138600000Y-84850000D01*
X140700000Y-84850000D01*
X141000000Y-85150000D01*
X140700000Y-85450000D01*
X138600000Y-85450000D01*
X138300000Y-85750000D01*
X138600000Y-86050000D01*
X141000000Y-86050000D01*
X141000000Y-86350000D01*
X140700000Y-86650000D01*
X137700000Y-86650000D01*
X137400000Y-86350000D01*
X137400000Y-85450000D01*
X137700000Y-85150000D01*
X137400000Y-84850000D01*
X137400000Y-83950000D01*
X137700000Y-83650000D01*
X140700000Y-83650000D01*
X141000000Y-83950000D01*
G37*
%TD*%
D13*
%TO.C,J5*%
X156000000Y-117500000D03*
%TD*%
%TO.C,J6*%
X144500000Y-84700000D03*
%TD*%
D14*
%TO.C,J2*%
X133440000Y-110900000D03*
D15*
X134700000Y-113000000D03*
X134700000Y-108800000D03*
%TD*%
D16*
%TO.C,C12*%
X143400000Y-102625000D03*
X143400000Y-104175000D03*
%TD*%
D17*
%TO.C,C2*%
X142650000Y-99700000D03*
X140750000Y-99700000D03*
%TD*%
D18*
%TO.C,R12*%
X137000000Y-104725000D03*
X137000000Y-103075000D03*
%TD*%
D19*
%TO.C,R10*%
X137000000Y-99975000D03*
X137000000Y-101625000D03*
%TD*%
D20*
%TO.C,R4*%
X166375000Y-95700000D03*
X168025000Y-95700000D03*
%TD*%
D21*
%TO.C,J1*%
X151350000Y-86400000D03*
X153650000Y-86400000D03*
X159150000Y-86400000D03*
X161450000Y-86400000D03*
D22*
X152750000Y-83025000D03*
X156400000Y-83025000D03*
X160050000Y-83025000D03*
X149150000Y-90200000D03*
D23*
X151100000Y-90200000D03*
X161700000Y-90200000D03*
D22*
X163650000Y-90200000D03*
X149150000Y-81750000D03*
D23*
X151100000Y-81750000D03*
X161700000Y-81750000D03*
D22*
X163650000Y-81750000D03*
%TD*%
D18*
%TO.C,R1*%
X141800000Y-104225000D03*
X141800000Y-102575000D03*
%TD*%
D19*
%TO.C,R9*%
X133800000Y-103075000D03*
X133800000Y-104725000D03*
%TD*%
D21*
%TO.C,J3*%
X164200000Y-111350000D03*
X164200000Y-109050000D03*
X164200000Y-103550000D03*
X164200000Y-101250000D03*
D22*
X160825000Y-109950000D03*
X160825000Y-106300000D03*
X160825000Y-102650000D03*
X168000000Y-113550000D03*
D23*
X168000000Y-111600000D03*
X168000000Y-101000000D03*
D22*
X168000000Y-99050000D03*
X159550000Y-113550000D03*
D23*
X159550000Y-111600000D03*
X159550000Y-101000000D03*
D22*
X159550000Y-99050000D03*
%TD*%
D24*
%TO.C,C18*%
X138907500Y-97575000D03*
X137357500Y-97575000D03*
%TD*%
D25*
%TO.C,J4*%
X143400000Y-114950000D03*
X144650000Y-114950000D03*
X145900000Y-114950000D03*
X147150000Y-114950000D03*
X148400000Y-114950000D03*
D26*
X150950000Y-117850000D03*
X140850000Y-117850000D03*
%TD*%
D19*
%TO.C,R8*%
X135400000Y-99975000D03*
X135400000Y-101625000D03*
%TD*%
%TO.C,R13*%
X141000000Y-96200000D03*
X141000000Y-97850000D03*
%TD*%
D27*
%TO.C,U2*%
X139100000Y-94100000D03*
X139100000Y-96000000D03*
X137225000Y-95050000D03*
%TD*%
D28*
%TO.C,D1*%
X140850000Y-106062500D03*
X142750000Y-106062500D03*
X141800000Y-107937500D03*
%TD*%
D18*
%TO.C,R6*%
X135400000Y-104725000D03*
X135400000Y-103075000D03*
%TD*%
M02*
