%TF.GenerationSoftware,KiCad,Pcbnew,9.0.1*%
%TF.CreationDate,2025-04-26T18:30:10+02:00*%
%TF.ProjectId,BatteryCharger,42617474-6572-4794-9368-61726765722e,rev?*%
%TF.SameCoordinates,Original*%
%TF.FileFunction,Copper,L4,Bot*%
%TF.FilePolarity,Positive*%
%FSLAX46Y46*%
G04 Gerber Fmt 4.6, Leading zero omitted, Abs format (unit mm)*
G04 Created by KiCad (PCBNEW 9.0.1) date 2025-04-26 18:30:10*
%MOMM*%
%LPD*%
G01*
G04 APERTURE LIST*
G04 Aperture macros list*
%AMRoundRect*
0 Rectangle with rounded corners*
0 $1 Rounding radius*
0 $2 $3 $4 $5 $6 $7 $8 $9 X,Y pos of 4 corners*
0 Add a 4 corners polygon primitive as box body*
4,1,4,$2,$3,$4,$5,$6,$7,$8,$9,$2,$3,0*
0 Add four circle primitives for the rounded corners*
1,1,$1+$1,$2,$3*
1,1,$1+$1,$4,$5*
1,1,$1+$1,$6,$7*
1,1,$1+$1,$8,$9*
0 Add four rect primitives between the rounded corners*
20,1,$1+$1,$2,$3,$4,$5,0*
20,1,$1+$1,$4,$5,$6,$7,0*
20,1,$1+$1,$6,$7,$8,$9,0*
20,1,$1+$1,$8,$9,$2,$3,0*%
G04 Aperture macros list end*
%TA.AperFunction,EtchedComponent*%
%ADD10C,0.200000*%
%TD*%
%TA.AperFunction,ComponentPad*%
%ADD11C,3.500000*%
%TD*%
%TA.AperFunction,ComponentPad*%
%ADD12C,2.800000*%
%TD*%
%TA.AperFunction,SMDPad,CuDef*%
%ADD13RoundRect,0.225000X-0.250000X0.225000X-0.250000X-0.225000X0.250000X-0.225000X0.250000X0.225000X0*%
%TD*%
%TA.AperFunction,SMDPad,CuDef*%
%ADD14RoundRect,0.250000X0.250000X0.475000X-0.250000X0.475000X-0.250000X-0.475000X0.250000X-0.475000X0*%
%TD*%
%TA.AperFunction,SMDPad,CuDef*%
%ADD15RoundRect,0.200000X0.275000X-0.200000X0.275000X0.200000X-0.275000X0.200000X-0.275000X-0.200000X0*%
%TD*%
%TA.AperFunction,SMDPad,CuDef*%
%ADD16RoundRect,0.200000X-0.275000X0.200000X-0.275000X-0.200000X0.275000X-0.200000X0.275000X0.200000X0*%
%TD*%
%TA.AperFunction,SMDPad,CuDef*%
%ADD17RoundRect,0.200000X-0.200000X-0.275000X0.200000X-0.275000X0.200000X0.275000X-0.200000X0.275000X0*%
%TD*%
%TA.AperFunction,ComponentPad*%
%ADD18C,3.000000*%
%TD*%
%TA.AperFunction,ComponentPad*%
%ADD19C,1.600000*%
%TD*%
%TA.AperFunction,ComponentPad*%
%ADD20C,1.800000*%
%TD*%
%TA.AperFunction,SMDPad,CuDef*%
%ADD21RoundRect,0.225000X0.225000X0.250000X-0.225000X0.250000X-0.225000X-0.250000X0.225000X-0.250000X0*%
%TD*%
%TA.AperFunction,SMDPad,CuDef*%
%ADD22RoundRect,0.200000X0.200000X0.600000X-0.200000X0.600000X-0.200000X-0.600000X0.200000X-0.600000X0*%
%TD*%
%TA.AperFunction,SMDPad,CuDef*%
%ADD23RoundRect,0.525000X0.525000X0.975000X-0.525000X0.975000X-0.525000X-0.975000X0.525000X-0.975000X0*%
%TD*%
%TA.AperFunction,SMDPad,CuDef*%
%ADD24RoundRect,0.150000X0.587500X0.150000X-0.587500X0.150000X-0.587500X-0.150000X0.587500X-0.150000X0*%
%TD*%
%TA.AperFunction,SMDPad,CuDef*%
%ADD25RoundRect,0.150000X-0.150000X0.587500X-0.150000X-0.587500X0.150000X-0.587500X0.150000X0.587500X0*%
%TD*%
%TA.AperFunction,ViaPad*%
%ADD26C,0.450000*%
%TD*%
%TA.AperFunction,Conductor*%
%ADD27C,0.200000*%
%TD*%
G04 APERTURE END LIST*
D10*
%TO.C,REF\u002A\u002A*%
X141900000Y-83350000D02*
X141900000Y-90250000D01*
X141300000Y-90850000D01*
X137100000Y-90850000D01*
X136500000Y-90250000D01*
X136500000Y-83350000D01*
X137100000Y-82750000D01*
X141300000Y-82750000D01*
X141900000Y-83350000D01*
%TA.AperFunction,EtchedComponent*%
G36*
X141900000Y-83350000D02*
G01*
X141900000Y-90250000D01*
X141300000Y-90850000D01*
X137100000Y-90850000D01*
X136500000Y-90250000D01*
X136500000Y-83350000D01*
X137100000Y-82750000D01*
X141300000Y-82750000D01*
X141900000Y-83350000D01*
G37*
%TD.AperFunction*%
%TD*%
D11*
%TO.P,J5,1,Pin_1*%
%TO.N,GND*%
X156000000Y-117500000D03*
%TD*%
%TO.P,J6,1,Pin_1*%
%TO.N,GND*%
X144500000Y-84700000D03*
%TD*%
D12*
%TO.P,J2,1,Pin_1*%
%TO.N,GND*%
X134700000Y-113000000D03*
%TO.P,J2,2,Pin_2*%
%TO.N,/ADAPTER_IN*%
X134700000Y-108800000D03*
%TD*%
D13*
%TO.P,C12,1*%
%TO.N,/REGN*%
X143400000Y-102625000D03*
%TO.P,C12,2*%
%TO.N,GND*%
X143400000Y-104175000D03*
%TD*%
D14*
%TO.P,C2,1*%
%TO.N,Net-(U1-VCC)*%
X142650000Y-99700000D03*
%TO.P,C2,2*%
%TO.N,GND*%
X140750000Y-99700000D03*
%TD*%
D15*
%TO.P,R12,1*%
%TO.N,GND*%
X137000000Y-104725000D03*
%TO.P,R12,2*%
%TO.N,Net-(U1-ILIM)*%
X137000000Y-103075000D03*
%TD*%
D16*
%TO.P,R10,1*%
%TO.N,+3.3V*%
X137000000Y-99975000D03*
%TO.P,R10,2*%
%TO.N,Net-(U1-ILIM)*%
X137000000Y-101625000D03*
%TD*%
D17*
%TO.P,R4,1*%
%TO.N,Net-(U1-BATDRV)*%
X166375000Y-95700000D03*
%TO.P,R4,2*%
%TO.N,Net-(Q3-G)*%
X168025000Y-95700000D03*
%TD*%
D18*
%TO.P,J1,1,Pin_1*%
%TO.N,GND*%
X151350000Y-86400000D03*
X153650000Y-86400000D03*
%TO.P,J1,2,Pin_2*%
%TO.N,/SYS_PWR*%
X159150000Y-86400000D03*
X161450000Y-86400000D03*
D19*
%TO.P,J1,3,Pin_3*%
%TO.N,unconnected-(J1-Pin_3-Pad3)*%
X152750000Y-83025000D03*
%TO.P,J1,4,Pin_4*%
%TO.N,unconnected-(J1-Pin_4-Pad4)*%
X156400000Y-83025000D03*
%TO.P,J1,5,Pin_5*%
%TO.N,unconnected-(J1-Pin_5-Pad5)*%
X160050000Y-83025000D03*
%TO.P,J1,M*%
%TO.N,N/C*%
X149150000Y-90200000D03*
D20*
X151100000Y-90200000D03*
X161700000Y-90200000D03*
D19*
X163650000Y-90200000D03*
X149150000Y-81750000D03*
D20*
X151100000Y-81750000D03*
X161700000Y-81750000D03*
D19*
X163650000Y-81750000D03*
%TD*%
D15*
%TO.P,R1,1*%
%TO.N,Net-(D1-K)*%
X141800000Y-104225000D03*
%TO.P,R1,2*%
%TO.N,Net-(U1-VCC)*%
X141800000Y-102575000D03*
%TD*%
D16*
%TO.P,R9,1*%
%TO.N,Net-(U1-ACDET)*%
X133800000Y-103075000D03*
%TO.P,R9,2*%
%TO.N,GND*%
X133800000Y-104725000D03*
%TD*%
D18*
%TO.P,J3,1,Pin_1*%
%TO.N,GND*%
X164200000Y-111350000D03*
X164200000Y-109050000D03*
%TO.P,J3,2,Pin_2*%
%TO.N,Net-(D3-K)*%
X164200000Y-103550000D03*
X164200000Y-101250000D03*
D19*
%TO.P,J3,3,Pin_3*%
X160825000Y-109950000D03*
%TO.P,J3,4,Pin_4*%
X160825000Y-106300000D03*
%TO.P,J3,5,Pin_5*%
X160825000Y-102650000D03*
%TO.P,J3,M*%
%TO.N,N/C*%
X168000000Y-113550000D03*
D20*
X168000000Y-111600000D03*
X168000000Y-101000000D03*
D19*
X168000000Y-99050000D03*
X159550000Y-113550000D03*
D20*
X159550000Y-111600000D03*
X159550000Y-101000000D03*
D19*
X159550000Y-99050000D03*
%TD*%
D21*
%TO.P,C18,1*%
%TO.N,+3.3V*%
X138907500Y-97575000D03*
%TO.P,C18,2*%
%TO.N,GND*%
X137357500Y-97575000D03*
%TD*%
D22*
%TO.P,J4,1,Pin_1*%
%TO.N,Net-(J4-Pin_1)*%
X143400000Y-114950000D03*
%TO.P,J4,2,Pin_2*%
%TO.N,Net-(J4-Pin_2)*%
X144650000Y-114950000D03*
%TO.P,J4,3,Pin_3*%
%TO.N,Net-(J4-Pin_3)*%
X145900000Y-114950000D03*
%TO.P,J4,4,Pin_4*%
%TO.N,Net-(J4-Pin_4)*%
X147150000Y-114950000D03*
%TO.P,J4,5,Pin_5*%
%TO.N,GND*%
X148400000Y-114950000D03*
D23*
%TO.P,J4,M*%
%TO.N,N/C*%
X150950000Y-117850000D03*
X140850000Y-117850000D03*
%TD*%
D16*
%TO.P,R8,1*%
%TO.N,+3.3V*%
X135400000Y-99975000D03*
%TO.P,R8,2*%
%TO.N,Net-(U1-ACDET)*%
X135400000Y-101625000D03*
%TD*%
%TO.P,R13,1*%
%TO.N,+3.3V*%
X141000000Y-96200000D03*
%TO.P,R13,2*%
%TO.N,Net-(J4-Pin_3)*%
X141000000Y-97850000D03*
%TD*%
D24*
%TO.P,U2,1,IN*%
%TO.N,/ADAPTER_IN*%
X139100000Y-94100000D03*
%TO.P,U2,2,OUT*%
%TO.N,+3.3V*%
X139100000Y-96000000D03*
%TO.P,U2,3,GND*%
%TO.N,GND*%
X137225000Y-95050000D03*
%TD*%
D25*
%TO.P,D1,1,A*%
%TO.N,/ADAPTER_IN*%
X140850000Y-106062500D03*
%TO.P,D1,2,A*%
%TO.N,Net-(D3-K)*%
X142750000Y-106062500D03*
%TO.P,D1,3,K*%
%TO.N,Net-(D1-K)*%
X141800000Y-107937500D03*
%TD*%
D15*
%TO.P,R6,1*%
%TO.N,/ADAPTER_IN*%
X135400000Y-104725000D03*
%TO.P,R6,2*%
%TO.N,Net-(U1-ACDET)*%
X135400000Y-103075000D03*
%TD*%
D26*
%TO.N,Net-(U1-SRP)*%
X155800000Y-109400000D03*
X153900000Y-106900000D03*
X152000000Y-108400000D03*
X153900000Y-108400000D03*
X152000000Y-109900000D03*
X155800000Y-106800000D03*
X152000000Y-106900000D03*
X153900000Y-112900000D03*
X152000000Y-111400000D03*
X153900000Y-111400000D03*
X155800000Y-108100000D03*
X152000000Y-112900000D03*
X153900000Y-109900000D03*
%TO.N,GND*%
X151205000Y-98585000D03*
X141400000Y-101500000D03*
X140700000Y-100800000D03*
X148000000Y-96600000D03*
X148600000Y-97200000D03*
X150690000Y-96600000D03*
X140700000Y-101500000D03*
X143400000Y-104175000D03*
X143100000Y-109900000D03*
X137600000Y-99000000D03*
X145600000Y-99800000D03*
X140000000Y-101500000D03*
X140000000Y-102200000D03*
X141400000Y-100800000D03*
X148665000Y-98585000D03*
X140000000Y-100800000D03*
X142100000Y-113500000D03*
X139900000Y-106400000D03*
X136925000Y-105400000D03*
X141700000Y-95000000D03*
X144680000Y-112980000D03*
X150600000Y-97900000D03*
X152600000Y-97200000D03*
X150000000Y-97200000D03*
X140700000Y-102200000D03*
X151900000Y-97900000D03*
X149300000Y-97900000D03*
X141460000Y-96980000D03*
X153300000Y-96600000D03*
X149935000Y-98585000D03*
X151300000Y-97200000D03*
X159000000Y-102500000D03*
X143100000Y-107800000D03*
X155000000Y-96750000D03*
X149190000Y-113690000D03*
X151900000Y-96600000D03*
X149300000Y-96600000D03*
X143700000Y-101500000D03*
%TO.N,Net-(Q4-S)*%
X150950000Y-102150000D03*
X145900000Y-111400000D03*
X147800000Y-108400000D03*
X149850000Y-103250000D03*
X150950000Y-103250000D03*
X147800000Y-111400000D03*
X148030000Y-100020000D03*
X147650000Y-103250000D03*
X148750000Y-104350000D03*
X147800000Y-112900000D03*
X155900000Y-104000000D03*
X154700000Y-104000000D03*
X147650000Y-101050000D03*
X148750000Y-101050000D03*
X145900000Y-108400000D03*
X149850000Y-104350000D03*
X153500000Y-104000000D03*
X145900000Y-109900000D03*
X145900000Y-112900000D03*
X148750000Y-102150000D03*
X145900000Y-106900000D03*
X147650000Y-102150000D03*
X147800000Y-109900000D03*
X149850000Y-101050000D03*
X150950000Y-101050000D03*
X147800000Y-106900000D03*
X148750000Y-103250000D03*
X149850000Y-102150000D03*
X150950000Y-104350000D03*
X144600000Y-98625000D03*
X147650000Y-104350000D03*
%TO.N,Net-(Q2-D)*%
X132100000Y-90400000D03*
X132100000Y-89100000D03*
X134700000Y-90400000D03*
X133400000Y-91700000D03*
X133400000Y-90400000D03*
X133400000Y-89100000D03*
X134700000Y-91700000D03*
X132100000Y-91700000D03*
X134700000Y-89100000D03*
%TO.N,/SYS_PWR*%
X146100000Y-94400000D03*
X156400000Y-102700000D03*
X157400000Y-102700000D03*
X164200000Y-95100000D03*
X164200000Y-96100000D03*
X164200000Y-94100000D03*
X154400000Y-100700000D03*
X146600000Y-93700000D03*
X162200000Y-95100000D03*
X163200000Y-94100000D03*
X153400000Y-98700000D03*
X156400000Y-101700000D03*
X155400000Y-102700000D03*
X162200000Y-94100000D03*
X163200000Y-96100000D03*
X165200000Y-93100000D03*
X155400000Y-99700000D03*
X146600000Y-92300000D03*
X154400000Y-99700000D03*
X164200000Y-93100000D03*
X157400000Y-101700000D03*
X162200000Y-93100000D03*
X156400000Y-98700000D03*
X146600000Y-95100000D03*
X154400000Y-98700000D03*
X163200000Y-93100000D03*
X155400000Y-101700000D03*
X154400000Y-101700000D03*
X147100000Y-94400000D03*
X165200000Y-94100000D03*
X156400000Y-99700000D03*
X157400000Y-100700000D03*
X157400000Y-99700000D03*
X156400000Y-100700000D03*
X153400000Y-101700000D03*
X162200000Y-96100000D03*
X157400000Y-98700000D03*
X146100000Y-93000000D03*
X153400000Y-99700000D03*
X153400000Y-100700000D03*
X165200000Y-96100000D03*
X163200000Y-95100000D03*
X155400000Y-100700000D03*
X154400000Y-102700000D03*
X147100000Y-93000000D03*
X155400000Y-98700000D03*
X153400000Y-102700000D03*
X165200000Y-95100000D03*
%TO.N,Net-(Q3-G)*%
X168025000Y-95700000D03*
%TO.N,/REGN*%
X143400000Y-102625000D03*
X145250000Y-103330000D03*
%TO.N,Net-(U1-VCC)*%
X142650000Y-99700000D03*
%TO.N,Net-(J4-Pin_2)*%
X137880000Y-101830000D03*
%TO.N,Net-(J4-Pin_1)*%
X137780000Y-102550000D03*
%TO.N,Net-(J4-Pin_3)*%
X139550000Y-99000000D03*
%TO.N,Net-(J4-Pin_4)*%
X138270000Y-101000000D03*
%TO.N,Net-(U1-ACDET)*%
X136790000Y-100820000D03*
%TO.N,Net-(U1-BATDRV)*%
X139820000Y-103980000D03*
%TO.N,Net-(U1-ILIM)*%
X137000000Y-103075000D03*
%TO.N,/ADAPTER_IN*%
X134300000Y-100300000D03*
X132100000Y-98300000D03*
X134700000Y-98300000D03*
X139990000Y-107250000D03*
X134300000Y-99100000D03*
X133400000Y-99600000D03*
X133400000Y-100900000D03*
X133400000Y-98300000D03*
X132100000Y-100900000D03*
X132100000Y-99600000D03*
%TD*%
D27*
%TO.N,Net-(D1-K)*%
X141800000Y-107937500D02*
X141800000Y-104225000D01*
%TO.N,GND*%
X140700000Y-99820710D02*
X140700000Y-100800000D01*
X136925000Y-105400000D02*
X136925000Y-104906066D01*
X148732340Y-114147660D02*
X149190000Y-113690000D01*
X140750000Y-99700000D02*
G75*
G03*
X140700004Y-99820710I120700J-120700D01*
G01*
X136925000Y-104906066D02*
G75*
G02*
X137000010Y-104725010I256100J-34D01*
G01*
X148400000Y-114950000D02*
G75*
G02*
X148732336Y-114147656I1134700J0D01*
G01*
%TO.N,/REGN*%
X143400000Y-102625000D02*
X144015970Y-102625000D01*
X144919080Y-102999081D02*
X145250000Y-103330000D01*
X144015970Y-102625000D02*
G75*
G02*
X144919097Y-102999064I30J-1277200D01*
G01*
%TO.N,Net-(U1-VCC)*%
X142650000Y-100522919D02*
X142650000Y-99700000D01*
X141800000Y-102575000D02*
G75*
G03*
X142650008Y-100522919I-2052100J2052100D01*
G01*
%TO.N,+3.3V*%
X138907500Y-96196035D02*
X138910000Y-96190000D01*
X138907500Y-97575000D02*
X138907500Y-96196035D01*
X139100000Y-96000000D02*
X138910000Y-96190000D01*
X135400000Y-99975000D02*
X137000000Y-99975000D01*
X140132349Y-97067651D02*
X141000000Y-96200000D01*
X138907500Y-97575000D02*
X138907500Y-98338635D01*
X138530000Y-99250000D02*
X138374222Y-99405778D01*
X138374222Y-99405778D02*
G75*
G02*
X137000000Y-99975012I-1374222J1374178D01*
G01*
X138907500Y-97575000D02*
G75*
G03*
X140132349Y-97067651I0J1732200D01*
G01*
X138907500Y-98338635D02*
G75*
G02*
X138529990Y-99249990I-1288900J35D01*
G01*
%TO.N,Net-(D3-K)*%
X142750000Y-106062500D02*
X160251625Y-106062500D01*
X160251625Y-106062500D02*
G75*
G02*
X160824993Y-106300007I-25J-810900D01*
G01*
%TO.N,Net-(J4-Pin_2)*%
X144650000Y-114950000D02*
X144650000Y-114230833D01*
X137880000Y-101830000D02*
X138183345Y-102133345D01*
X140240000Y-111550000D02*
X140341558Y-111651558D01*
X143090000Y-112790000D02*
X143161889Y-112790000D01*
X138550000Y-103018528D02*
X138550000Y-107469980D01*
X144200000Y-113220000D02*
X144253431Y-113273431D01*
X143161889Y-112790000D02*
G75*
G02*
X144200003Y-113219997I11J-1468100D01*
G01*
X138550000Y-107469980D02*
G75*
G03*
X140239994Y-111550006I5770000J-20D01*
G01*
X140341558Y-111651558D02*
G75*
G03*
X143090000Y-112789995I2748442J2748458D01*
G01*
X138183345Y-102133345D02*
G75*
G02*
X138549991Y-103018528I-885145J-885155D01*
G01*
X144650000Y-114230833D02*
G75*
G03*
X144253454Y-113273408I-1354000J33D01*
G01*
%TO.N,Net-(J4-Pin_1)*%
X137780000Y-102550000D02*
X137949496Y-102719496D01*
X138150000Y-103203555D02*
X138150000Y-107739441D01*
X140300000Y-112930000D02*
X141556325Y-114186325D01*
X138150000Y-107739441D02*
G75*
G03*
X140300012Y-112929988I7340600J41D01*
G01*
X137949496Y-102719496D02*
G75*
G02*
X138150021Y-103203555I-484096J-484104D01*
G01*
X141556325Y-114186325D02*
G75*
G03*
X143400000Y-114949986I1843675J1843725D01*
G01*
%TO.N,Net-(J4-Pin_3)*%
X138062996Y-101413324D02*
X138028154Y-101393364D01*
X138090320Y-101426107D02*
X138062996Y-101413324D01*
X139548332Y-99039815D02*
X139550000Y-99000000D01*
X138133319Y-101443319D02*
X138111453Y-101434262D01*
X137943431Y-101323431D02*
X137900000Y-101280000D01*
X138950000Y-107088264D02*
X138950000Y-102987108D01*
X138435857Y-101745857D02*
X138133319Y-101443319D01*
X137984691Y-101362316D02*
X137943431Y-101323431D01*
X139550000Y-99000000D02*
X140487868Y-98062132D01*
X137938590Y-100649557D02*
X139548332Y-99039815D01*
X138028154Y-101393364D02*
X137984691Y-101362316D01*
X143786325Y-112160000D02*
X142914507Y-112160000D01*
X140772929Y-111272929D02*
X140620000Y-111120000D01*
X145900000Y-114950000D02*
X145900000Y-114655512D01*
X137810000Y-101062721D02*
X137810000Y-100960000D01*
X138111453Y-101434262D02*
X138090320Y-101426107D01*
X142914507Y-112160000D02*
G75*
G02*
X140772935Y-111272923I-7J3028600D01*
G01*
X145090000Y-112700000D02*
G75*
G03*
X143786325Y-112159990I-1303700J-1303700D01*
G01*
X137900000Y-101280000D02*
G75*
G02*
X137809991Y-101062721I217300J217300D01*
G01*
X145900000Y-114655512D02*
G75*
G03*
X145090004Y-112699996I-2765500J12D01*
G01*
X140487868Y-98062132D02*
G75*
G02*
X141000000Y-97850011I512132J-512168D01*
G01*
X137810000Y-100960000D02*
G75*
G02*
X137938597Y-100649564I439000J0D01*
G01*
X140620000Y-111120000D02*
G75*
G02*
X138950015Y-107088264I4031700J4031700D01*
G01*
X138950000Y-102987108D02*
G75*
G03*
X138435862Y-101745852I-1755400J8D01*
G01*
%TO.N,Net-(J4-Pin_4)*%
X147150000Y-114442081D02*
X147150000Y-114950000D01*
X138270000Y-101000000D02*
X138780172Y-101510172D01*
X139360000Y-102910000D02*
X139360000Y-106611695D01*
X142953086Y-111520000D02*
X144199635Y-111520000D01*
X138780172Y-101510172D02*
G75*
G02*
X139359987Y-102910000I-1399872J-1399828D01*
G01*
X146300000Y-112390000D02*
G75*
G02*
X147150008Y-114442081I-2052100J-2052100D01*
G01*
X141070000Y-110740000D02*
G75*
G03*
X142953086Y-111520006I1883100J1883100D01*
G01*
X139360000Y-106611695D02*
G75*
G03*
X141069998Y-110740002I5838300J-5D01*
G01*
X144199635Y-111520000D02*
G75*
G02*
X146299990Y-112390010I-35J-2970400D01*
G01*
%TO.N,Net-(U1-ACDET)*%
X135400000Y-103075000D02*
X135400000Y-101625000D01*
X133800000Y-103075000D02*
X135400000Y-103075000D01*
X135791342Y-101233657D02*
X135400000Y-101625000D01*
X136790000Y-100820000D02*
G75*
G03*
X135791346Y-101233661I0J-1412300D01*
G01*
%TO.N,Net-(U1-BATDRV)*%
X158840000Y-97760000D02*
X159020000Y-97580000D01*
X144130000Y-103390000D02*
X144153812Y-103390997D01*
X141244386Y-103390000D02*
X144130000Y-103390000D01*
X147330000Y-105460000D02*
X154024954Y-105460000D01*
X158200000Y-102390000D02*
X158200000Y-99305096D01*
X166375000Y-96255797D02*
X166375000Y-95700000D01*
X157304892Y-104079282D02*
X157638434Y-103745740D01*
X144558712Y-103558712D02*
X145844817Y-104844817D01*
X160033969Y-97160000D02*
X164177574Y-97160000D01*
X166060000Y-96800000D02*
X166212929Y-96647071D01*
X164177574Y-97160000D02*
X165190884Y-97160000D01*
X157260000Y-104120000D02*
X157304892Y-104079282D01*
X145844817Y-104844817D02*
G75*
G03*
X147330000Y-105459990I1485183J1485217D01*
G01*
X158200000Y-99305096D02*
G75*
G02*
X158840001Y-97760001I2185100J-4D01*
G01*
X165190884Y-97160000D02*
G75*
G03*
X166060005Y-96800005I16J1229100D01*
G01*
X154024954Y-105460000D02*
G75*
G03*
X157260034Y-104120034I46J4575100D01*
G01*
X159020000Y-97580000D02*
G75*
G02*
X160033969Y-97159987I1014000J-1014000D01*
G01*
X139820000Y-103980000D02*
G75*
G02*
X141244386Y-103389994I1424400J-1424400D01*
G01*
X166212929Y-96647071D02*
G75*
G03*
X166375011Y-96255797I-391229J391271D01*
G01*
X157638434Y-103745740D02*
G75*
G03*
X158200002Y-102390000I-1355734J1355740D01*
G01*
X144153812Y-103390997D02*
G75*
G02*
X144558703Y-103558721I-12J-572603D01*
G01*
%TO.N,Net-(U1-ILIM)*%
X137000000Y-101625000D02*
X137000000Y-103075000D01*
%TO.N,/ADAPTER_IN*%
X135400000Y-104725000D02*
X135400000Y-107110051D01*
X136280000Y-94600000D02*
X136199067Y-94680933D01*
X139100000Y-94100000D02*
X137487106Y-94100000D01*
X140618423Y-106621578D02*
X139990000Y-107250000D01*
X135400000Y-107110051D02*
G75*
G02*
X134700014Y-108800014I-2389900J-49D01*
G01*
X137487106Y-94100000D02*
G75*
G03*
X136279998Y-94599998I-6J-1707100D01*
G01*
X140850000Y-106062500D02*
G75*
G02*
X140618432Y-106621587I-790700J0D01*
G01*
X136199067Y-94680933D02*
G75*
G03*
X134699990Y-98300000I3619033J-3619067D01*
G01*
%TD*%
%TA.AperFunction,Conductor*%
%TO.N,GND*%
G36*
X166492610Y-80222174D02*
G01*
X166514183Y-80270627D01*
X166519173Y-80365853D01*
X166519173Y-80365854D01*
X166576483Y-80727693D01*
X166671299Y-81081552D01*
X166736238Y-81250722D01*
X166802591Y-81423578D01*
X166968911Y-81750000D01*
X167168441Y-82057248D01*
X167398993Y-82341957D01*
X167658043Y-82601007D01*
X167942752Y-82831559D01*
X168250000Y-83031089D01*
X168576422Y-83197409D01*
X168918441Y-83328698D01*
X168918443Y-83328698D01*
X168918447Y-83328700D01*
X169154353Y-83391910D01*
X169272309Y-83423517D01*
X169634150Y-83480827D01*
X169729374Y-83485817D01*
X169780492Y-83510199D01*
X169799500Y-83559715D01*
X169799500Y-116440283D01*
X169777826Y-116492609D01*
X169729374Y-116514182D01*
X169634145Y-116519173D01*
X169272306Y-116576483D01*
X168918447Y-116671299D01*
X168576428Y-116802588D01*
X168250001Y-116968910D01*
X167942750Y-117168442D01*
X167658040Y-117398995D01*
X167398995Y-117658040D01*
X167168442Y-117942750D01*
X166968910Y-118250001D01*
X166802588Y-118576428D01*
X166671299Y-118918447D01*
X166576483Y-119272306D01*
X166519173Y-119634145D01*
X166519173Y-119634146D01*
X166514183Y-119729373D01*
X166489800Y-119780493D01*
X166440284Y-119799500D01*
X133559716Y-119799500D01*
X133507390Y-119777826D01*
X133485817Y-119729373D01*
X133480827Y-119634150D01*
X133423517Y-119272309D01*
X133343240Y-118972713D01*
X133328700Y-118918447D01*
X133311386Y-118873341D01*
X133197409Y-118576422D01*
X133031089Y-118250000D01*
X132831559Y-117942752D01*
X132601007Y-117658043D01*
X132341957Y-117398993D01*
X132057248Y-117168441D01*
X131750000Y-116968911D01*
X131470812Y-116826658D01*
X139599500Y-116826658D01*
X139599500Y-118873336D01*
X139599501Y-118873342D01*
X139609651Y-118972708D01*
X139609652Y-118972713D01*
X139662996Y-119133695D01*
X139748494Y-119272309D01*
X139752032Y-119278044D01*
X139871956Y-119397968D01*
X140016303Y-119487003D01*
X140177292Y-119540349D01*
X140276655Y-119550500D01*
X141423344Y-119550499D01*
X141522708Y-119540349D01*
X141683697Y-119487003D01*
X141828044Y-119397968D01*
X141947968Y-119278044D01*
X142037003Y-119133697D01*
X142090349Y-118972708D01*
X142100500Y-118873345D01*
X142100499Y-116826658D01*
X149699500Y-116826658D01*
X149699500Y-118873336D01*
X149699501Y-118873342D01*
X149709651Y-118972708D01*
X149709652Y-118972713D01*
X149762996Y-119133695D01*
X149848494Y-119272309D01*
X149852032Y-119278044D01*
X149971956Y-119397968D01*
X150116303Y-119487003D01*
X150277292Y-119540349D01*
X150376655Y-119550500D01*
X151523344Y-119550499D01*
X151622708Y-119540349D01*
X151783697Y-119487003D01*
X151928044Y-119397968D01*
X152047968Y-119278044D01*
X152137003Y-119133697D01*
X152190349Y-118972708D01*
X152200500Y-118873345D01*
X152200499Y-116826656D01*
X152190349Y-116727292D01*
X152137003Y-116566303D01*
X152047968Y-116421956D01*
X151928044Y-116302032D01*
X151928043Y-116302031D01*
X151783695Y-116212996D01*
X151622710Y-116159651D01*
X151594318Y-116156750D01*
X151523345Y-116149500D01*
X151523340Y-116149500D01*
X150376663Y-116149500D01*
X150376657Y-116149500D01*
X150376656Y-116149501D01*
X150326974Y-116154576D01*
X150277291Y-116159651D01*
X150277286Y-116159652D01*
X150116304Y-116212996D01*
X149971956Y-116302031D01*
X149852031Y-116421956D01*
X149762996Y-116566304D01*
X149709651Y-116727289D01*
X149709651Y-116727291D01*
X149709651Y-116727292D01*
X149701959Y-116802591D01*
X149699500Y-116826658D01*
X142100499Y-116826658D01*
X142100499Y-116826656D01*
X142090349Y-116727292D01*
X142037003Y-116566303D01*
X141947968Y-116421956D01*
X141828044Y-116302032D01*
X141828043Y-116302031D01*
X141683695Y-116212996D01*
X141522710Y-116159651D01*
X141494318Y-116156750D01*
X141423345Y-116149500D01*
X141423340Y-116149500D01*
X140276663Y-116149500D01*
X140276657Y-116149500D01*
X140276656Y-116149501D01*
X140226974Y-116154576D01*
X140177291Y-116159651D01*
X140177286Y-116159652D01*
X140016304Y-116212996D01*
X139871956Y-116302031D01*
X139752031Y-116421956D01*
X139662996Y-116566304D01*
X139609651Y-116727289D01*
X139609651Y-116727291D01*
X139609651Y-116727292D01*
X139601959Y-116802591D01*
X139599500Y-116826658D01*
X131470812Y-116826658D01*
X131423578Y-116802591D01*
X131423573Y-116802589D01*
X131423571Y-116802588D01*
X131081552Y-116671299D01*
X130727693Y-116576483D01*
X130365854Y-116519173D01*
X130270626Y-116514182D01*
X130219507Y-116489798D01*
X130200500Y-116440283D01*
X130200500Y-110804414D01*
X132469500Y-110804414D01*
X132469500Y-110995586D01*
X132481819Y-111057518D01*
X132506794Y-111183078D01*
X132506797Y-111183088D01*
X132579953Y-111359703D01*
X132686162Y-111518657D01*
X132821342Y-111653837D01*
X132980296Y-111760046D01*
X133143869Y-111827800D01*
X133156916Y-111833204D01*
X133344414Y-111870500D01*
X133344416Y-111870500D01*
X133535584Y-111870500D01*
X133535586Y-111870500D01*
X133723084Y-111833204D01*
X133899704Y-111760046D01*
X134058658Y-111653837D01*
X134193837Y-111518658D01*
X134300046Y-111359704D01*
X134373204Y-111183084D01*
X134410500Y-110995586D01*
X134410500Y-110804414D01*
X134373204Y-110616916D01*
X134313733Y-110473339D01*
X134313733Y-110416703D01*
X134353781Y-110376655D01*
X134393675Y-110371933D01*
X134471792Y-110384305D01*
X134574036Y-110400500D01*
X134574038Y-110400500D01*
X134825964Y-110400500D01*
X134925491Y-110384736D01*
X135074785Y-110361090D01*
X135074792Y-110361087D01*
X135074795Y-110361087D01*
X135314373Y-110283243D01*
X135314373Y-110283242D01*
X135314379Y-110283241D01*
X135538845Y-110168870D01*
X135742656Y-110020793D01*
X135920793Y-109842656D01*
X136068870Y-109638845D01*
X136183241Y-109414379D01*
X136261090Y-109174785D01*
X136300500Y-108925962D01*
X136300500Y-108674038D01*
X136261090Y-108425215D01*
X136261088Y-108425210D01*
X136261087Y-108425204D01*
X136183243Y-108185626D01*
X136183241Y-108185623D01*
X136183241Y-108185621D01*
X136134161Y-108089296D01*
X136128797Y-108075510D01*
X135789193Y-106852011D01*
X135703196Y-106542188D01*
X135700500Y-106522396D01*
X135700500Y-105617460D01*
X135713027Y-105576265D01*
X135958826Y-105209526D01*
X135960508Y-105207125D01*
X135963880Y-105202510D01*
X136003050Y-105163342D01*
X136027325Y-105115699D01*
X136030819Y-105110919D01*
X136050328Y-105099038D01*
X136067696Y-105084205D01*
X136073888Y-105084692D01*
X136079193Y-105081462D01*
X136101386Y-105086856D01*
X136124158Y-105088648D01*
X136128620Y-105093475D01*
X136134228Y-105094838D01*
X136142620Y-105108619D01*
X136158931Y-105126264D01*
X136200901Y-105227588D01*
X136297075Y-105352924D01*
X136422412Y-105449099D01*
X136568369Y-105509556D01*
X136685678Y-105524999D01*
X136800000Y-105524999D01*
X136800000Y-103925000D01*
X136685678Y-103925000D01*
X136568371Y-103940443D01*
X136568367Y-103940444D01*
X136422412Y-104000900D01*
X136297075Y-104097075D01*
X136200901Y-104222411D01*
X136158931Y-104323735D01*
X136118882Y-104363783D01*
X136062245Y-104363783D01*
X136024630Y-104329012D01*
X136003050Y-104286658D01*
X135913342Y-104196950D01*
X135800304Y-104139354D01*
X135800302Y-104139353D01*
X135800301Y-104139353D01*
X135706519Y-104124500D01*
X135093480Y-104124500D01*
X134999695Y-104139353D01*
X134999693Y-104139354D01*
X134886657Y-104196950D01*
X134796950Y-104286657D01*
X134775369Y-104329012D01*
X134732302Y-104365794D01*
X134675839Y-104361350D01*
X134641068Y-104323734D01*
X134599099Y-104222412D01*
X134502924Y-104097075D01*
X134377587Y-104000900D01*
X134231630Y-103940443D01*
X134114321Y-103925000D01*
X134000000Y-103925000D01*
X134000000Y-105524999D01*
X134114321Y-105524999D01*
X134231628Y-105509556D01*
X134231632Y-105509555D01*
X134377587Y-105449099D01*
X134502924Y-105352924D01*
X134599099Y-105227587D01*
X134641068Y-105126265D01*
X134681116Y-105086216D01*
X134737753Y-105086216D01*
X134769180Y-105110920D01*
X134772679Y-105115707D01*
X134796950Y-105163342D01*
X134836110Y-105202502D01*
X134839488Y-105207124D01*
X134839613Y-105207640D01*
X134841209Y-105209583D01*
X135086971Y-105576263D01*
X135099500Y-105617460D01*
X135099500Y-106439423D01*
X135077826Y-106491749D01*
X135071473Y-106497410D01*
X133958135Y-107380073D01*
X133945759Y-107388020D01*
X133861150Y-107431132D01*
X133657348Y-107579203D01*
X133479203Y-107757348D01*
X133331129Y-107961154D01*
X133216756Y-108185626D01*
X133138912Y-108425204D01*
X133138909Y-108425217D01*
X133099500Y-108674036D01*
X133099500Y-108925963D01*
X133138909Y-109174782D01*
X133138912Y-109174795D01*
X133216756Y-109414373D01*
X133331129Y-109638845D01*
X133456937Y-109812004D01*
X133470159Y-109867076D01*
X133440566Y-109915367D01*
X133397070Y-109929500D01*
X133344414Y-109929500D01*
X133306388Y-109937064D01*
X133156921Y-109966794D01*
X133156911Y-109966797D01*
X132980296Y-110039953D01*
X132821342Y-110146162D01*
X132821341Y-110146164D01*
X132686164Y-110281341D01*
X132686162Y-110281342D01*
X132579953Y-110440296D01*
X132506797Y-110616911D01*
X132506794Y-110616921D01*
X132482720Y-110737951D01*
X132469500Y-110804414D01*
X130200500Y-110804414D01*
X130200500Y-104964321D01*
X132925001Y-104964321D01*
X132940443Y-105081628D01*
X132940444Y-105081632D01*
X133000900Y-105227587D01*
X133097075Y-105352924D01*
X133222412Y-105449099D01*
X133368369Y-105509556D01*
X133485678Y-105524999D01*
X133600000Y-105524999D01*
X133600000Y-104925000D01*
X132925001Y-104925000D01*
X132925001Y-104964321D01*
X130200500Y-104964321D01*
X130200500Y-104485678D01*
X132925000Y-104485678D01*
X132925000Y-104525000D01*
X133600000Y-104525000D01*
X133600000Y-103925000D01*
X133485678Y-103925000D01*
X133368371Y-103940443D01*
X133368367Y-103940444D01*
X133222412Y-104000900D01*
X133097075Y-104097075D01*
X133000900Y-104222412D01*
X132940443Y-104368369D01*
X132925000Y-104485678D01*
X130200500Y-104485678D01*
X130200500Y-102669771D01*
X130222174Y-102617445D01*
X130274500Y-102595771D01*
X130326824Y-102617444D01*
X130533016Y-102823636D01*
X130599685Y-102868183D01*
X130652011Y-102889857D01*
X130730652Y-102905500D01*
X130730654Y-102905500D01*
X132869346Y-102905500D01*
X132869348Y-102905500D01*
X132947989Y-102889857D01*
X133000315Y-102868183D01*
X133009387Y-102862120D01*
X133064935Y-102851071D01*
X133112028Y-102882535D01*
X133124500Y-102923649D01*
X133124500Y-103306519D01*
X133139353Y-103400304D01*
X133139354Y-103400306D01*
X133191120Y-103501901D01*
X133196950Y-103513342D01*
X133286658Y-103603050D01*
X133399696Y-103660646D01*
X133493481Y-103675500D01*
X134106518Y-103675499D01*
X134106519Y-103675499D01*
X134138184Y-103670484D01*
X134200304Y-103660646D01*
X134229186Y-103645929D01*
X134240769Y-103641214D01*
X134257778Y-103635919D01*
X134564637Y-103468979D01*
X134620957Y-103463013D01*
X134635356Y-103468977D01*
X134942219Y-103635918D01*
X134942223Y-103635920D01*
X134954655Y-103640638D01*
X134973539Y-103647805D01*
X134980848Y-103651042D01*
X134999696Y-103660646D01*
X135093481Y-103675500D01*
X135706518Y-103675499D01*
X135706519Y-103675499D01*
X135800304Y-103660646D01*
X135800306Y-103660645D01*
X135819129Y-103651054D01*
X135913342Y-103603050D01*
X136003050Y-103513342D01*
X136060646Y-103400304D01*
X136075500Y-103306519D01*
X136075499Y-102843482D01*
X136072356Y-102823638D01*
X136060646Y-102749695D01*
X136060645Y-102749693D01*
X136019922Y-102669771D01*
X136003050Y-102636658D01*
X135967933Y-102601541D01*
X135958789Y-102590415D01*
X135958788Y-102590414D01*
X135825266Y-102391197D01*
X135814138Y-102335664D01*
X135825267Y-102308800D01*
X135958787Y-102109584D01*
X135967922Y-102098468D01*
X136003050Y-102063342D01*
X136060646Y-101950304D01*
X136075500Y-101856519D01*
X136075499Y-101796246D01*
X136080139Y-101770455D01*
X136082775Y-101763368D01*
X136181140Y-101498842D01*
X136219693Y-101457353D01*
X136276292Y-101455275D01*
X136317782Y-101493828D01*
X136324500Y-101524635D01*
X136324500Y-101856519D01*
X136339353Y-101950304D01*
X136339354Y-101950306D01*
X136396950Y-102063342D01*
X136432069Y-102098461D01*
X136441213Y-102109588D01*
X136574731Y-102308800D01*
X136585859Y-102364333D01*
X136574731Y-102391196D01*
X136551154Y-102426376D01*
X136441210Y-102590414D01*
X136432068Y-102601538D01*
X136396949Y-102636659D01*
X136339353Y-102749698D01*
X136324500Y-102843480D01*
X136324500Y-103306519D01*
X136339353Y-103400304D01*
X136339354Y-103400306D01*
X136391120Y-103501901D01*
X136396950Y-103513342D01*
X136486658Y-103603050D01*
X136599696Y-103660646D01*
X136693481Y-103675500D01*
X137306518Y-103675499D01*
X137306519Y-103675499D01*
X137400304Y-103660646D01*
X137400306Y-103660645D01*
X137419129Y-103651054D01*
X137513342Y-103603050D01*
X137603050Y-103513342D01*
X137660646Y-103400304D01*
X137675500Y-103306519D01*
X137675499Y-103112969D01*
X137682831Y-103095268D01*
X137685247Y-103076259D01*
X137693283Y-103070034D01*
X137697173Y-103060644D01*
X137714875Y-103053311D01*
X137730025Y-103041578D01*
X137740108Y-103042859D01*
X137749499Y-103038970D01*
X137786207Y-103048717D01*
X137799935Y-103056560D01*
X137831582Y-103092472D01*
X137832691Y-103095147D01*
X137834210Y-103100814D01*
X137834616Y-103101338D01*
X137834530Y-103102008D01*
X137837699Y-103113824D01*
X137848866Y-103198609D01*
X137849500Y-103208272D01*
X137849500Y-104070099D01*
X137827826Y-104122425D01*
X137775500Y-104144099D01*
X137723174Y-104122425D01*
X137716792Y-104115148D01*
X137702924Y-104097075D01*
X137577587Y-104000900D01*
X137431630Y-103940443D01*
X137314321Y-103925000D01*
X137200000Y-103925000D01*
X137200000Y-105524999D01*
X137314321Y-105524999D01*
X137431628Y-105509556D01*
X137431632Y-105509555D01*
X137577587Y-105449099D01*
X137702925Y-105352923D01*
X137716791Y-105334853D01*
X137765840Y-105306533D01*
X137820547Y-105321191D01*
X137848867Y-105370240D01*
X137849500Y-105379900D01*
X137849500Y-107708775D01*
X137849484Y-107708815D01*
X137849485Y-107989577D01*
X137849486Y-107989585D01*
X137878040Y-108425217D01*
X137882209Y-108488811D01*
X137947509Y-108984792D01*
X137947510Y-108984800D01*
X138045110Y-109475461D01*
X138045118Y-109475494D01*
X138174595Y-109958700D01*
X138174597Y-109958707D01*
X138174599Y-109958713D01*
X138335412Y-110432447D01*
X138392206Y-110569559D01*
X138526857Y-110894635D01*
X138717624Y-111281471D01*
X138748135Y-111343341D01*
X138998278Y-111776600D01*
X139162545Y-112022442D01*
X139276225Y-112192576D01*
X139492670Y-112474650D01*
X139580777Y-112589473D01*
X139910638Y-112965607D01*
X140059538Y-113114508D01*
X140059540Y-113114511D01*
X140063632Y-113118603D01*
X140067474Y-113122445D01*
X140077106Y-113132077D01*
X140077108Y-113132080D01*
X140087514Y-113142485D01*
X140087514Y-113142486D01*
X140106292Y-113161263D01*
X141310184Y-114365155D01*
X141310187Y-114365160D01*
X141322885Y-114377857D01*
X141322899Y-114377891D01*
X141343832Y-114398823D01*
X141343832Y-114398824D01*
X141435154Y-114490143D01*
X141444847Y-114499836D01*
X141444855Y-114499844D01*
X141665689Y-114681072D01*
X141665695Y-114681077D01*
X141665703Y-114681083D01*
X141903261Y-114839811D01*
X141903272Y-114839817D01*
X141903274Y-114839818D01*
X142149964Y-114971674D01*
X142155233Y-114974490D01*
X142155238Y-114974492D01*
X142155242Y-114974494D01*
X142274763Y-115024000D01*
X142419193Y-115083824D01*
X142458165Y-115095645D01*
X142485816Y-115111124D01*
X142774633Y-115367568D01*
X142799370Y-115418517D01*
X142799500Y-115422903D01*
X142799500Y-115581519D01*
X142814353Y-115675304D01*
X142814354Y-115675306D01*
X142871950Y-115788342D01*
X142961658Y-115878050D01*
X143074696Y-115935646D01*
X143168481Y-115950500D01*
X143631518Y-115950499D01*
X143631519Y-115950499D01*
X143725304Y-115935646D01*
X143725306Y-115935645D01*
X143727419Y-115934568D01*
X143838342Y-115878050D01*
X143928050Y-115788342D01*
X143959066Y-115727468D01*
X144002131Y-115690687D01*
X144058593Y-115695130D01*
X144090933Y-115727469D01*
X144121950Y-115788342D01*
X144211658Y-115878050D01*
X144324696Y-115935646D01*
X144418481Y-115950500D01*
X144881518Y-115950499D01*
X144881519Y-115950499D01*
X144975304Y-115935646D01*
X144975306Y-115935645D01*
X144977419Y-115934568D01*
X145088342Y-115878050D01*
X145178050Y-115788342D01*
X145209066Y-115727468D01*
X145252131Y-115690687D01*
X145308593Y-115695130D01*
X145340933Y-115727469D01*
X145371950Y-115788342D01*
X145461658Y-115878050D01*
X145574696Y-115935646D01*
X145668481Y-115950500D01*
X146131518Y-115950499D01*
X146131519Y-115950499D01*
X146225304Y-115935646D01*
X146225306Y-115935645D01*
X146227419Y-115934568D01*
X146338342Y-115878050D01*
X146428050Y-115788342D01*
X146459066Y-115727468D01*
X146502131Y-115690687D01*
X146558593Y-115695130D01*
X146590933Y-115727469D01*
X146621950Y-115788342D01*
X146711658Y-115878050D01*
X146824696Y-115935646D01*
X146918481Y-115950500D01*
X147381518Y-115950499D01*
X147381519Y-115950499D01*
X147475304Y-115935646D01*
X147475306Y-115935645D01*
X147477380Y-115934587D01*
X147588342Y-115878050D01*
X147589269Y-115877122D01*
X147590082Y-115876785D01*
X147593055Y-115874626D01*
X147593573Y-115875339D01*
X147641592Y-115855444D01*
X147693920Y-115877113D01*
X147700307Y-115884395D01*
X147772075Y-115977924D01*
X147897412Y-116074099D01*
X148043369Y-116134556D01*
X148160678Y-116149999D01*
X148600000Y-116149999D01*
X148639321Y-116149999D01*
X148756628Y-116134556D01*
X148756632Y-116134555D01*
X148902587Y-116074099D01*
X149027924Y-115977924D01*
X149124099Y-115852587D01*
X149184556Y-115706630D01*
X149200000Y-115589321D01*
X149200000Y-115150000D01*
X148600000Y-115150000D01*
X148600000Y-116149999D01*
X148160678Y-116149999D01*
X148199999Y-116149998D01*
X148200000Y-116149998D01*
X148200000Y-115024000D01*
X148221674Y-114971674D01*
X148274000Y-114950000D01*
X148400000Y-114950000D01*
X148400000Y-114824000D01*
X148421674Y-114771674D01*
X148474000Y-114750000D01*
X149199999Y-114750000D01*
X149199999Y-114310678D01*
X149184556Y-114193371D01*
X149184555Y-114193367D01*
X149124099Y-114047412D01*
X149027924Y-113922075D01*
X148902587Y-113825900D01*
X148759914Y-113766804D01*
X148719865Y-113726756D01*
X148719865Y-113670119D01*
X148747119Y-113636909D01*
X148766984Y-113623636D01*
X148963446Y-113427174D01*
X149015772Y-113405500D01*
X150369346Y-113405500D01*
X150369348Y-113405500D01*
X150447989Y-113389857D01*
X150500315Y-113368183D01*
X150566984Y-113323636D01*
X150768175Y-113122444D01*
X150820500Y-113100771D01*
X150872826Y-113122445D01*
X150894500Y-113174771D01*
X150894500Y-114169348D01*
X150899098Y-114192462D01*
X150910141Y-114247983D01*
X150910144Y-114247993D01*
X150931815Y-114300312D01*
X150943954Y-114318480D01*
X150976364Y-114366984D01*
X151333016Y-114723636D01*
X151399685Y-114768183D01*
X151452011Y-114789857D01*
X151530652Y-114805500D01*
X151530654Y-114805500D01*
X157569346Y-114805500D01*
X157569348Y-114805500D01*
X157647989Y-114789857D01*
X157700315Y-114768183D01*
X157766984Y-114723636D01*
X158123636Y-114366984D01*
X158168183Y-114300315D01*
X158189857Y-114247989D01*
X158205500Y-114169348D01*
X158205500Y-111513388D01*
X158449500Y-111513388D01*
X158449500Y-111686611D01*
X158476597Y-111857698D01*
X158476600Y-111857711D01*
X158530125Y-112022442D01*
X158530127Y-112022446D01*
X158608767Y-112176787D01*
X158646236Y-112228359D01*
X158710586Y-112316928D01*
X158833072Y-112439414D01*
X158833075Y-112439416D01*
X158833076Y-112439417D01*
X158973212Y-112541232D01*
X158973216Y-112541234D01*
X159022788Y-112566492D01*
X159059572Y-112609559D01*
X159055129Y-112666021D01*
X159030307Y-112693955D01*
X158912220Y-112772858D01*
X158912217Y-112772862D01*
X158772862Y-112912217D01*
X158772860Y-112912218D01*
X158663367Y-113076086D01*
X158587950Y-113258160D01*
X158587947Y-113258170D01*
X158561753Y-113389858D01*
X158549500Y-113451459D01*
X158549500Y-113648541D01*
X158560830Y-113705500D01*
X158587947Y-113841829D01*
X158587950Y-113841839D01*
X158663367Y-114023913D01*
X158760544Y-114169348D01*
X158772861Y-114187782D01*
X158912218Y-114327139D01*
X159076086Y-114436632D01*
X159258165Y-114512051D01*
X159451459Y-114550500D01*
X159451461Y-114550500D01*
X159648539Y-114550500D01*
X159648541Y-114550500D01*
X159841835Y-114512051D01*
X160023914Y-114436632D01*
X160187782Y-114327139D01*
X160327139Y-114187782D01*
X160436632Y-114023914D01*
X160512051Y-113841835D01*
X160550500Y-113648541D01*
X160550500Y-113451459D01*
X160512051Y-113258165D01*
X160496574Y-113220801D01*
X160436632Y-113076086D01*
X160327139Y-112912218D01*
X160187781Y-112772860D01*
X160161255Y-112755136D01*
X160069690Y-112693954D01*
X160038226Y-112646865D01*
X160049275Y-112591316D01*
X160077210Y-112566493D01*
X160079561Y-112565295D01*
X160126788Y-112541232D01*
X160266928Y-112439414D01*
X160389414Y-112316928D01*
X160491232Y-112176788D01*
X160569873Y-112022445D01*
X160569874Y-112022442D01*
X160623399Y-111857711D01*
X160623399Y-111857708D01*
X160623402Y-111857701D01*
X160650500Y-111686611D01*
X160650500Y-111513389D01*
X160644345Y-111474531D01*
X160632846Y-111401928D01*
X160623402Y-111342299D01*
X160623400Y-111342294D01*
X160623399Y-111342288D01*
X160569874Y-111177557D01*
X160569872Y-111177553D01*
X160492739Y-111026169D01*
X160488296Y-110969706D01*
X160525079Y-110926639D01*
X160573108Y-110919996D01*
X160726459Y-110950500D01*
X160726461Y-110950500D01*
X160923539Y-110950500D01*
X160923541Y-110950500D01*
X161116835Y-110912051D01*
X161298914Y-110836632D01*
X161462782Y-110727139D01*
X161602139Y-110587782D01*
X161711632Y-110423914D01*
X161787051Y-110241835D01*
X161825500Y-110048541D01*
X161825500Y-109851459D01*
X161787051Y-109658165D01*
X161779048Y-109638845D01*
X161711632Y-109476086D01*
X161602139Y-109312218D01*
X161462781Y-109172860D01*
X161298913Y-109063367D01*
X161125196Y-108991412D01*
X161116839Y-108987950D01*
X161116829Y-108987947D01*
X160987388Y-108962200D01*
X160923541Y-108949500D01*
X160726459Y-108949500D01*
X160671662Y-108960399D01*
X160533170Y-108987947D01*
X160533160Y-108987950D01*
X160351086Y-109063367D01*
X160187218Y-109172860D01*
X160187217Y-109172862D01*
X160047862Y-109312217D01*
X160047860Y-109312218D01*
X159938367Y-109476086D01*
X159862950Y-109658160D01*
X159862947Y-109658170D01*
X159824500Y-109851460D01*
X159824500Y-110048539D01*
X159862947Y-110241829D01*
X159862950Y-110241839D01*
X159938366Y-110423911D01*
X159938367Y-110423913D01*
X159938368Y-110423914D01*
X159943682Y-110431867D01*
X159954732Y-110487415D01*
X159923268Y-110534508D01*
X159867719Y-110545558D01*
X159859288Y-110543358D01*
X159807715Y-110526601D01*
X159807698Y-110526597D01*
X159636612Y-110499500D01*
X159636611Y-110499500D01*
X159463389Y-110499500D01*
X159463388Y-110499500D01*
X159292301Y-110526597D01*
X159292288Y-110526600D01*
X159127557Y-110580125D01*
X159127553Y-110580127D01*
X158973212Y-110658767D01*
X158833076Y-110760582D01*
X158710582Y-110883076D01*
X158608767Y-111023212D01*
X158530127Y-111177553D01*
X158530125Y-111177557D01*
X158476600Y-111342288D01*
X158476597Y-111342301D01*
X158449500Y-111513388D01*
X158205500Y-111513388D01*
X158205500Y-108925468D01*
X162300000Y-108925468D01*
X162300000Y-109174531D01*
X162332507Y-109421460D01*
X162396969Y-109662037D01*
X162396973Y-109662048D01*
X162492281Y-109892143D01*
X162492284Y-109892151D01*
X162616815Y-110107845D01*
X162616819Y-110107851D01*
X162652961Y-110154952D01*
X162667620Y-110209659D01*
X162652961Y-110245048D01*
X162616819Y-110292148D01*
X162616815Y-110292154D01*
X162492284Y-110507848D01*
X162492281Y-110507856D01*
X162396973Y-110737951D01*
X162396969Y-110737962D01*
X162332507Y-110978539D01*
X162300000Y-111225468D01*
X162300000Y-111474531D01*
X162332507Y-111721460D01*
X162396969Y-111962037D01*
X162396973Y-111962048D01*
X162492281Y-112192143D01*
X162492284Y-112192151D01*
X162616815Y-112407845D01*
X162616819Y-112407851D01*
X162722099Y-112545055D01*
X162722100Y-112545056D01*
X163509940Y-111757215D01*
X163578599Y-111859970D01*
X163690030Y-111971401D01*
X163792783Y-112040058D01*
X163004943Y-112827899D01*
X163142148Y-112933180D01*
X163142154Y-112933184D01*
X163357848Y-113057715D01*
X163357856Y-113057718D01*
X163587951Y-113153026D01*
X163587962Y-113153030D01*
X163828540Y-113217492D01*
X163828539Y-113217492D01*
X164075469Y-113250000D01*
X164324531Y-113250000D01*
X164571460Y-113217492D01*
X164812037Y-113153030D01*
X164812048Y-113153026D01*
X165042143Y-113057718D01*
X165042151Y-113057715D01*
X165257852Y-112933180D01*
X165395055Y-112827900D01*
X165395055Y-112827899D01*
X164607216Y-112040058D01*
X164709970Y-111971401D01*
X164821401Y-111859970D01*
X164890059Y-111757215D01*
X165677899Y-112545055D01*
X165677900Y-112545055D01*
X165783180Y-112407852D01*
X165907715Y-112192151D01*
X165907718Y-112192143D01*
X166003026Y-111962048D01*
X166003030Y-111962037D01*
X166067492Y-111721460D01*
X166094885Y-111513388D01*
X166899500Y-111513388D01*
X166899500Y-111686611D01*
X166926597Y-111857698D01*
X166926600Y-111857711D01*
X166980125Y-112022442D01*
X166980127Y-112022446D01*
X167058767Y-112176787D01*
X167096236Y-112228359D01*
X167160586Y-112316928D01*
X167283072Y-112439414D01*
X167283075Y-112439416D01*
X167283076Y-112439417D01*
X167423212Y-112541232D01*
X167423216Y-112541234D01*
X167472788Y-112566492D01*
X167509572Y-112609559D01*
X167505129Y-112666021D01*
X167480307Y-112693955D01*
X167362220Y-112772858D01*
X167362217Y-112772862D01*
X167222862Y-112912217D01*
X167222860Y-112912218D01*
X167113367Y-113076086D01*
X167037950Y-113258160D01*
X167037947Y-113258170D01*
X167011753Y-113389858D01*
X166999500Y-113451459D01*
X166999500Y-113648541D01*
X167010830Y-113705500D01*
X167037947Y-113841829D01*
X167037950Y-113841839D01*
X167113367Y-114023913D01*
X167210544Y-114169348D01*
X167222861Y-114187782D01*
X167362218Y-114327139D01*
X167526086Y-114436632D01*
X167708165Y-114512051D01*
X167901459Y-114550500D01*
X167901461Y-114550500D01*
X168098539Y-114550500D01*
X168098541Y-114550500D01*
X168291835Y-114512051D01*
X168473914Y-114436632D01*
X168637782Y-114327139D01*
X168777139Y-114187782D01*
X168886632Y-114023914D01*
X168962051Y-113841835D01*
X169000500Y-113648541D01*
X169000500Y-113451459D01*
X168962051Y-113258165D01*
X168946574Y-113220801D01*
X168886632Y-113076086D01*
X168777139Y-112912218D01*
X168637781Y-112772860D01*
X168611255Y-112755136D01*
X168519690Y-112693954D01*
X168488226Y-112646865D01*
X168499275Y-112591316D01*
X168527210Y-112566493D01*
X168529561Y-112565295D01*
X168576788Y-112541232D01*
X168716928Y-112439414D01*
X168839414Y-112316928D01*
X168941232Y-112176788D01*
X169019873Y-112022445D01*
X169019874Y-112022442D01*
X169073399Y-111857711D01*
X169073399Y-111857708D01*
X169073402Y-111857701D01*
X169100500Y-111686611D01*
X169100500Y-111513389D01*
X169094345Y-111474531D01*
X169082846Y-111401928D01*
X169073402Y-111342299D01*
X169073400Y-111342294D01*
X169073399Y-111342288D01*
X169019874Y-111177557D01*
X169019872Y-111177553D01*
X168941232Y-111023212D01*
X168839417Y-110883076D01*
X168839416Y-110883075D01*
X168839414Y-110883072D01*
X168716928Y-110760586D01*
X168716925Y-110760583D01*
X168716923Y-110760582D01*
X168576787Y-110658767D01*
X168422446Y-110580127D01*
X168422442Y-110580125D01*
X168257711Y-110526600D01*
X168257698Y-110526597D01*
X168086612Y-110499500D01*
X168086611Y-110499500D01*
X167913389Y-110499500D01*
X167913388Y-110499500D01*
X167742301Y-110526597D01*
X167742288Y-110526600D01*
X167577557Y-110580125D01*
X167577553Y-110580127D01*
X167423212Y-110658767D01*
X167283076Y-110760582D01*
X167160582Y-110883076D01*
X167058767Y-111023212D01*
X166980127Y-111177553D01*
X166980125Y-111177557D01*
X166926600Y-111342288D01*
X166926597Y-111342301D01*
X166899500Y-111513388D01*
X166094885Y-111513388D01*
X166096539Y-111500823D01*
X166096539Y-111500822D01*
X166100000Y-111474532D01*
X166100000Y-111225468D01*
X166067492Y-110978539D01*
X166003030Y-110737962D01*
X166003026Y-110737951D01*
X165907718Y-110507856D01*
X165907715Y-110507848D01*
X165783182Y-110292150D01*
X165747039Y-110245050D01*
X165732379Y-110190343D01*
X165747039Y-110154950D01*
X165783182Y-110107849D01*
X165907715Y-109892151D01*
X165907718Y-109892143D01*
X166003026Y-109662048D01*
X166003030Y-109662037D01*
X166067492Y-109421460D01*
X166100000Y-109174531D01*
X166100000Y-108925468D01*
X166067492Y-108678539D01*
X166003030Y-108437962D01*
X166003026Y-108437951D01*
X165907718Y-108207856D01*
X165907715Y-108207848D01*
X165783184Y-107992154D01*
X165783180Y-107992148D01*
X165677899Y-107854943D01*
X164890058Y-108642783D01*
X164821401Y-108540030D01*
X164709970Y-108428599D01*
X164607214Y-108359940D01*
X165395056Y-107572100D01*
X165395055Y-107572099D01*
X165257851Y-107466819D01*
X165257845Y-107466815D01*
X165042151Y-107342284D01*
X165042143Y-107342281D01*
X164812048Y-107246973D01*
X164812037Y-107246969D01*
X164571459Y-107182507D01*
X164571460Y-107182507D01*
X164324531Y-107150000D01*
X164075469Y-107150000D01*
X163828539Y-107182507D01*
X163587962Y-107246969D01*
X163587951Y-107246973D01*
X163357856Y-107342281D01*
X163357848Y-107342284D01*
X163142154Y-107466815D01*
X163142148Y-107466819D01*
X163004943Y-107572099D01*
X163004943Y-107572100D01*
X163792784Y-108359941D01*
X163690030Y-108428599D01*
X163578599Y-108540030D01*
X163509941Y-108642784D01*
X162722100Y-107854943D01*
X162722099Y-107854943D01*
X162616819Y-107992148D01*
X162616815Y-107992154D01*
X162492284Y-108207848D01*
X162492281Y-108207856D01*
X162396973Y-108437951D01*
X162396969Y-108437962D01*
X162332507Y-108678539D01*
X162300000Y-108925468D01*
X158205500Y-108925468D01*
X158205500Y-106630652D01*
X158189857Y-106552011D01*
X158168183Y-106499685D01*
X158153767Y-106478111D01*
X158142719Y-106422564D01*
X158174185Y-106375471D01*
X158215297Y-106363000D01*
X159176503Y-106363000D01*
X159219956Y-106377101D01*
X159388933Y-106499687D01*
X160250065Y-107124401D01*
X160252808Y-107126350D01*
X160253271Y-107126679D01*
X160253617Y-107126920D01*
X160267807Y-107132968D01*
X160269647Y-107133753D01*
X160281740Y-107140296D01*
X160351086Y-107186632D01*
X160351087Y-107186632D01*
X160351088Y-107186633D01*
X160500698Y-107248603D01*
X160533165Y-107262051D01*
X160726459Y-107300500D01*
X160726461Y-107300500D01*
X160923539Y-107300500D01*
X160923541Y-107300500D01*
X161116835Y-107262051D01*
X161298914Y-107186632D01*
X161462782Y-107077139D01*
X161602139Y-106937782D01*
X161711632Y-106773914D01*
X161787051Y-106591835D01*
X161825500Y-106398541D01*
X161825500Y-106201459D01*
X161787051Y-106008165D01*
X161711632Y-105826086D01*
X161602139Y-105662218D01*
X161462782Y-105522861D01*
X161442869Y-105509555D01*
X161298913Y-105413367D01*
X161116839Y-105337950D01*
X161116829Y-105337947D01*
X160987388Y-105312200D01*
X160923541Y-105299500D01*
X160726459Y-105299500D01*
X160623023Y-105320074D01*
X160620018Y-105320671D01*
X160593724Y-105323679D01*
X160575456Y-105329534D01*
X160571320Y-105330357D01*
X160571311Y-105330360D01*
X160533167Y-105337948D01*
X160533162Y-105337949D01*
X160481072Y-105359526D01*
X160475343Y-105361627D01*
X159237388Y-105758468D01*
X159214799Y-105762000D01*
X156087253Y-105762000D01*
X156034927Y-105740326D01*
X156013253Y-105688000D01*
X156022996Y-105651299D01*
X156033579Y-105632769D01*
X156033581Y-105632764D01*
X156033582Y-105632763D01*
X156053933Y-105543600D01*
X156053933Y-105486963D01*
X156042402Y-105419093D01*
X156042400Y-105419090D01*
X156039802Y-105412281D01*
X156041268Y-105411721D01*
X156033079Y-105363511D01*
X156065856Y-105317322D01*
X156071624Y-105314048D01*
X156409078Y-105142113D01*
X156735744Y-104941939D01*
X157045697Y-104716751D01*
X157337027Y-104467940D01*
X157466042Y-104338926D01*
X157468611Y-104336479D01*
X157477111Y-104328769D01*
X157487686Y-104321059D01*
X157489398Y-104319744D01*
X157489403Y-104319742D01*
X157512204Y-104296940D01*
X157536081Y-104275284D01*
X157540100Y-104269044D01*
X157811172Y-103997972D01*
X157811177Y-103997968D01*
X157817263Y-103991881D01*
X157817265Y-103991881D01*
X157850919Y-103958226D01*
X157878894Y-103930251D01*
X157878896Y-103930247D01*
X157938988Y-103870156D01*
X157944835Y-103862825D01*
X158020532Y-103767903D01*
X158094299Y-103675403D01*
X158226828Y-103464485D01*
X158334908Y-103240055D01*
X158417180Y-103004935D01*
X158472610Y-102762082D01*
X158500500Y-102514549D01*
X158500500Y-102390000D01*
X158500500Y-102342405D01*
X158500500Y-101655517D01*
X158522174Y-101603191D01*
X158574500Y-101581517D01*
X158626826Y-101603191D01*
X158634362Y-101612015D01*
X158710586Y-101716928D01*
X158833072Y-101839414D01*
X158833075Y-101839416D01*
X158833076Y-101839417D01*
X158973212Y-101941232D01*
X159127553Y-102019872D01*
X159127557Y-102019874D01*
X159292288Y-102073399D01*
X159292294Y-102073400D01*
X159292299Y-102073402D01*
X159406359Y-102091467D01*
X159463388Y-102100500D01*
X159463389Y-102100500D01*
X159636612Y-102100500D01*
X159679383Y-102093725D01*
X159807701Y-102073402D01*
X159845612Y-102061084D01*
X159859286Y-102056641D01*
X159915749Y-102061084D01*
X159952532Y-102104151D01*
X159948089Y-102160614D01*
X159943683Y-102168130D01*
X159938368Y-102176083D01*
X159862950Y-102358160D01*
X159862947Y-102358170D01*
X159836502Y-102491120D01*
X159824500Y-102551459D01*
X159824500Y-102748541D01*
X159836033Y-102806519D01*
X159862947Y-102941829D01*
X159862950Y-102941839D01*
X159938367Y-103123913D01*
X160038639Y-103273980D01*
X160047861Y-103287782D01*
X160187218Y-103427139D01*
X160351086Y-103536632D01*
X160533165Y-103612051D01*
X160726459Y-103650500D01*
X160726461Y-103650500D01*
X160923539Y-103650500D01*
X160923541Y-103650500D01*
X161116835Y-103612051D01*
X161298914Y-103536632D01*
X161462782Y-103427139D01*
X161602139Y-103287782D01*
X161711632Y-103123914D01*
X161787051Y-102941835D01*
X161825500Y-102748541D01*
X161825500Y-102551459D01*
X161787051Y-102358165D01*
X161711632Y-102176086D01*
X161602139Y-102012218D01*
X161462782Y-101872861D01*
X161438325Y-101856519D01*
X161298913Y-101763367D01*
X161116839Y-101687950D01*
X161116829Y-101687947D01*
X160987388Y-101662200D01*
X160923541Y-101649500D01*
X160726459Y-101649500D01*
X160628658Y-101668954D01*
X160573111Y-101680003D01*
X160517562Y-101668954D01*
X160486096Y-101621862D01*
X160492739Y-101573830D01*
X160517805Y-101524635D01*
X160569873Y-101422445D01*
X160589690Y-101361455D01*
X160623399Y-101257711D01*
X160623399Y-101257708D01*
X160623402Y-101257701D01*
X160642275Y-101138544D01*
X162499500Y-101138544D01*
X162499500Y-101361455D01*
X162528595Y-101582461D01*
X162586290Y-101797782D01*
X162671591Y-102003717D01*
X162671594Y-102003725D01*
X162783048Y-102196768D01*
X162783050Y-102196770D01*
X162783052Y-102196774D01*
X162823660Y-102249696D01*
X162904425Y-102354952D01*
X162919083Y-102409660D01*
X162904425Y-102445048D01*
X162783048Y-102603231D01*
X162671594Y-102796274D01*
X162671591Y-102796282D01*
X162586290Y-103002217D01*
X162528595Y-103217538D01*
X162511700Y-103345876D01*
X162499500Y-103438543D01*
X162499500Y-103661457D01*
X162505378Y-103706105D01*
X162528595Y-103882461D01*
X162586290Y-104097782D01*
X162671591Y-104303717D01*
X162671594Y-104303725D01*
X162783049Y-104496770D01*
X162783053Y-104496776D01*
X162918747Y-104673618D01*
X163076381Y-104831252D01*
X163253223Y-104966946D01*
X163253229Y-104966950D01*
X163446274Y-105078405D01*
X163652219Y-105163710D01*
X163867537Y-105221404D01*
X164088543Y-105250500D01*
X164088545Y-105250500D01*
X164311455Y-105250500D01*
X164311457Y-105250500D01*
X164532463Y-105221404D01*
X164747781Y-105163710D01*
X164953726Y-105078405D01*
X165146774Y-104966948D01*
X165242309Y-104893641D01*
X165323618Y-104831252D01*
X165323619Y-104831250D01*
X165323624Y-104831247D01*
X165481247Y-104673624D01*
X165616948Y-104496774D01*
X165728405Y-104303726D01*
X165813710Y-104097781D01*
X165871404Y-103882463D01*
X165900500Y-103661457D01*
X165900500Y-103438543D01*
X165871404Y-103217537D01*
X165813710Y-103002219D01*
X165728405Y-102796274D01*
X165701513Y-102749696D01*
X165616950Y-102603229D01*
X165616946Y-102603223D01*
X165495575Y-102445048D01*
X165480916Y-102390341D01*
X165495575Y-102354952D01*
X165576340Y-102249696D01*
X165616948Y-102196774D01*
X165728405Y-102003726D01*
X165813710Y-101797781D01*
X165871404Y-101582463D01*
X165900500Y-101361457D01*
X165900500Y-101138543D01*
X165871404Y-100917537D01*
X165870292Y-100913388D01*
X166899500Y-100913388D01*
X166899500Y-101086611D01*
X166926597Y-101257698D01*
X166926600Y-101257711D01*
X166980125Y-101422442D01*
X166980127Y-101422446D01*
X167058767Y-101576787D01*
X167125730Y-101668954D01*
X167160586Y-101716928D01*
X167283072Y-101839414D01*
X167283075Y-101839416D01*
X167283076Y-101839417D01*
X167423212Y-101941232D01*
X167577553Y-102019872D01*
X167577557Y-102019874D01*
X167742288Y-102073399D01*
X167742294Y-102073400D01*
X167742299Y-102073402D01*
X167856359Y-102091467D01*
X167913388Y-102100500D01*
X167913389Y-102100500D01*
X168086612Y-102100500D01*
X168129383Y-102093725D01*
X168257701Y-102073402D01*
X168257708Y-102073399D01*
X168257711Y-102073399D01*
X168422442Y-102019874D01*
X168422442Y-102019873D01*
X168422445Y-102019873D01*
X168576788Y-101941232D01*
X168716928Y-101839414D01*
X168839414Y-101716928D01*
X168941232Y-101576788D01*
X169019873Y-101422445D01*
X169039690Y-101361455D01*
X169073399Y-101257711D01*
X169073399Y-101257708D01*
X169073402Y-101257701D01*
X169100500Y-101086611D01*
X169100500Y-100913389D01*
X169073402Y-100742299D01*
X169073400Y-100742294D01*
X169073399Y-100742288D01*
X169019874Y-100577557D01*
X169019872Y-100577553D01*
X168941232Y-100423212D01*
X168839417Y-100283076D01*
X168839416Y-100283075D01*
X168839414Y-100283072D01*
X168716928Y-100160586D01*
X168716925Y-100160583D01*
X168716923Y-100160582D01*
X168576788Y-100058767D01*
X168527210Y-100033507D01*
X168490427Y-99990440D01*
X168494870Y-99933977D01*
X168519691Y-99906044D01*
X168637782Y-99827139D01*
X168777139Y-99687782D01*
X168886632Y-99523914D01*
X168962051Y-99341835D01*
X169000500Y-99148541D01*
X169000500Y-98951459D01*
X168962051Y-98758165D01*
X168886632Y-98576086D01*
X168777139Y-98412218D01*
X168637782Y-98272861D01*
X168527990Y-98199500D01*
X168473913Y-98163367D01*
X168291839Y-98087950D01*
X168291829Y-98087947D01*
X168162388Y-98062200D01*
X168098541Y-98049500D01*
X167901459Y-98049500D01*
X167846662Y-98060399D01*
X167708170Y-98087947D01*
X167708160Y-98087950D01*
X167526086Y-98163367D01*
X167362218Y-98272860D01*
X167362217Y-98272862D01*
X167222862Y-98412217D01*
X167222860Y-98412218D01*
X167113367Y-98576086D01*
X167037950Y-98758160D01*
X167037947Y-98758170D01*
X167021337Y-98841678D01*
X166999500Y-98951459D01*
X166999500Y-99148541D01*
X167008720Y-99194892D01*
X167037947Y-99341829D01*
X167037950Y-99341839D01*
X167113367Y-99523913D01*
X167222860Y-99687781D01*
X167362218Y-99827139D01*
X167480306Y-99906043D01*
X167511772Y-99953135D01*
X167500723Y-100008684D01*
X167472789Y-100033506D01*
X167423221Y-100058762D01*
X167423212Y-100058767D01*
X167283076Y-100160582D01*
X167160582Y-100283076D01*
X167058767Y-100423212D01*
X166980127Y-100577553D01*
X166980125Y-100577557D01*
X166926600Y-100742288D01*
X166926597Y-100742301D01*
X166899500Y-100913388D01*
X165870292Y-100913388D01*
X165813710Y-100702219D01*
X165728405Y-100496274D01*
X165693143Y-100435199D01*
X165616950Y-100303229D01*
X165616946Y-100303223D01*
X165481252Y-100126381D01*
X165323618Y-99968747D01*
X165146776Y-99833053D01*
X165146770Y-99833049D01*
X164953725Y-99721594D01*
X164953717Y-99721591D01*
X164747782Y-99636290D01*
X164532461Y-99578595D01*
X164369647Y-99557160D01*
X164311457Y-99549500D01*
X164088543Y-99549500D01*
X164037122Y-99556269D01*
X163867538Y-99578595D01*
X163652217Y-99636290D01*
X163446282Y-99721591D01*
X163446274Y-99721594D01*
X163253229Y-99833049D01*
X163253223Y-99833053D01*
X163076381Y-99968747D01*
X162918747Y-100126381D01*
X162783053Y-100303223D01*
X162783049Y-100303229D01*
X162671594Y-100496274D01*
X162671591Y-100496282D01*
X162586290Y-100702217D01*
X162528595Y-100917538D01*
X162499500Y-101138544D01*
X160642275Y-101138544D01*
X160650500Y-101086611D01*
X160650500Y-100913389D01*
X160623402Y-100742299D01*
X160623400Y-100742294D01*
X160623399Y-100742288D01*
X160569874Y-100577557D01*
X160569872Y-100577553D01*
X160491232Y-100423212D01*
X160389417Y-100283076D01*
X160389416Y-100283075D01*
X160389414Y-100283072D01*
X160266928Y-100160586D01*
X160266925Y-100160583D01*
X160266923Y-100160582D01*
X160126788Y-100058767D01*
X160077210Y-100033507D01*
X160040427Y-99990440D01*
X160044870Y-99933977D01*
X160069691Y-99906044D01*
X160187782Y-99827139D01*
X160327139Y-99687782D01*
X160436632Y-99523914D01*
X160512051Y-99341835D01*
X160550500Y-99148541D01*
X160550500Y-98951459D01*
X160512051Y-98758165D01*
X160436632Y-98576086D01*
X160327139Y-98412218D01*
X160187782Y-98272861D01*
X160077990Y-98199500D01*
X160023913Y-98163367D01*
X159841839Y-98087950D01*
X159841829Y-98087947D01*
X159712388Y-98062200D01*
X159648541Y-98049500D01*
X159451459Y-98049500D01*
X159396662Y-98060399D01*
X159258170Y-98087947D01*
X159258160Y-98087950D01*
X159076082Y-98163369D01*
X159075220Y-98163830D01*
X159074891Y-98163862D01*
X159072727Y-98164759D01*
X159072454Y-98164101D01*
X159059422Y-98165383D01*
X159045186Y-98172405D01*
X159032347Y-98168046D01*
X159018855Y-98169374D01*
X159006585Y-98159301D01*
X158991555Y-98154199D01*
X158985558Y-98142039D01*
X158975079Y-98133437D01*
X158973525Y-98117639D01*
X158966504Y-98103403D01*
X158970862Y-98090564D01*
X158969535Y-98077072D01*
X158984710Y-98049772D01*
X159050903Y-97974293D01*
X159054199Y-97970772D01*
X159086140Y-97938831D01*
X159213976Y-97810995D01*
X159230438Y-97794533D01*
X159234679Y-97790612D01*
X159363313Y-97680747D01*
X159372692Y-97673933D01*
X159514423Y-97587080D01*
X159524762Y-97581811D01*
X159678334Y-97518198D01*
X159689371Y-97514612D01*
X159850999Y-97475805D01*
X159862462Y-97473989D01*
X160030927Y-97460728D01*
X160036734Y-97460500D01*
X165235658Y-97460500D01*
X165235752Y-97460493D01*
X165291137Y-97460494D01*
X165489934Y-97434324D01*
X165683615Y-97382429D01*
X165868866Y-97305697D01*
X166042516Y-97205442D01*
X166152207Y-97121273D01*
X166201587Y-97083383D01*
X166201588Y-97083381D01*
X166201593Y-97083378D01*
X166272486Y-97012486D01*
X166306140Y-96978831D01*
X166453389Y-96831582D01*
X166453390Y-96831579D01*
X166457071Y-96827899D01*
X166457153Y-96827805D01*
X166472908Y-96812052D01*
X166472908Y-96812051D01*
X166472916Y-96812044D01*
X166551919Y-96703315D01*
X166568657Y-96670464D01*
X166581481Y-96653496D01*
X166581141Y-96653195D01*
X166583546Y-96650476D01*
X166583553Y-96650471D01*
X166877612Y-96244204D01*
X166878829Y-96241948D01*
X166891628Y-96224763D01*
X166903050Y-96213342D01*
X166960646Y-96100304D01*
X166975500Y-96006519D01*
X166975499Y-95393482D01*
X166975499Y-95393480D01*
X167424500Y-95393480D01*
X167424500Y-96006519D01*
X167439353Y-96100304D01*
X167439354Y-96100306D01*
X167481619Y-96183253D01*
X167496950Y-96213342D01*
X167586658Y-96303050D01*
X167699696Y-96360646D01*
X167793481Y-96375500D01*
X168256518Y-96375499D01*
X168256519Y-96375499D01*
X168350304Y-96360646D01*
X168350306Y-96360645D01*
X168358476Y-96356482D01*
X168463342Y-96303050D01*
X168553050Y-96213342D01*
X168610646Y-96100304D01*
X168625500Y-96006519D01*
X168625499Y-95393482D01*
X168621302Y-95366984D01*
X168610646Y-95299695D01*
X168610645Y-95299693D01*
X168580770Y-95241061D01*
X168553050Y-95186658D01*
X168463342Y-95096950D01*
X168350304Y-95039354D01*
X168350302Y-95039353D01*
X168350301Y-95039353D01*
X168256519Y-95024500D01*
X167793480Y-95024500D01*
X167699695Y-95039353D01*
X167699693Y-95039354D01*
X167586657Y-95096950D01*
X167496951Y-95186656D01*
X167439353Y-95299698D01*
X167424500Y-95393480D01*
X166975499Y-95393480D01*
X166971302Y-95366984D01*
X166960646Y-95299695D01*
X166960645Y-95299693D01*
X166930770Y-95241061D01*
X166903050Y-95186658D01*
X166813342Y-95096950D01*
X166700304Y-95039354D01*
X166700302Y-95039353D01*
X166700301Y-95039353D01*
X166606520Y-95024500D01*
X166606519Y-95024500D01*
X166279500Y-95024500D01*
X166227174Y-95002826D01*
X166205500Y-94950500D01*
X166205500Y-92030653D01*
X166189858Y-91952016D01*
X166189857Y-91952015D01*
X166189857Y-91952011D01*
X166168183Y-91899685D01*
X166123636Y-91833016D01*
X165766984Y-91476364D01*
X165700315Y-91431817D01*
X165700314Y-91431816D01*
X165700312Y-91431815D01*
X165647993Y-91410144D01*
X165647983Y-91410141D01*
X165595322Y-91399666D01*
X165569348Y-91394500D01*
X162052217Y-91394500D01*
X161999891Y-91372826D01*
X161978217Y-91320500D01*
X161999891Y-91268174D01*
X162029350Y-91250122D01*
X162122442Y-91219874D01*
X162122442Y-91219873D01*
X162122445Y-91219873D01*
X162276788Y-91141232D01*
X162416928Y-91039414D01*
X162539414Y-90916928D01*
X162641232Y-90776788D01*
X162666493Y-90727209D01*
X162709560Y-90690426D01*
X162766022Y-90694869D01*
X162793954Y-90719689D01*
X162872861Y-90837782D01*
X163012218Y-90977139D01*
X163176086Y-91086632D01*
X163358165Y-91162051D01*
X163551459Y-91200500D01*
X163551461Y-91200500D01*
X163748539Y-91200500D01*
X163748541Y-91200500D01*
X163941835Y-91162051D01*
X164123914Y-91086632D01*
X164287782Y-90977139D01*
X164427139Y-90837782D01*
X164536632Y-90673914D01*
X164612051Y-90491835D01*
X164650500Y-90298541D01*
X164650500Y-90101459D01*
X164612051Y-89908165D01*
X164536632Y-89726086D01*
X164427139Y-89562218D01*
X164287782Y-89422861D01*
X164194589Y-89360591D01*
X164123913Y-89313367D01*
X163941839Y-89237950D01*
X163941829Y-89237947D01*
X163812388Y-89212200D01*
X163748541Y-89199500D01*
X163551459Y-89199500D01*
X163496662Y-89210399D01*
X163358170Y-89237947D01*
X163358160Y-89237950D01*
X163176086Y-89313367D01*
X163012218Y-89422860D01*
X163012217Y-89422862D01*
X162872862Y-89562217D01*
X162872858Y-89562220D01*
X162793955Y-89680307D01*
X162746863Y-89711772D01*
X162691314Y-89700722D01*
X162666492Y-89672788D01*
X162641234Y-89623216D01*
X162641232Y-89623212D01*
X162539417Y-89483076D01*
X162539416Y-89483075D01*
X162539414Y-89483072D01*
X162416928Y-89360586D01*
X162416925Y-89360583D01*
X162416923Y-89360582D01*
X162276787Y-89258767D01*
X162122446Y-89180127D01*
X162122442Y-89180125D01*
X161957711Y-89126600D01*
X161957698Y-89126597D01*
X161786612Y-89099500D01*
X161786611Y-89099500D01*
X161613389Y-89099500D01*
X161613388Y-89099500D01*
X161442301Y-89126597D01*
X161442288Y-89126600D01*
X161277557Y-89180125D01*
X161277553Y-89180127D01*
X161123212Y-89258767D01*
X160983076Y-89360582D01*
X160860582Y-89483076D01*
X160758767Y-89623212D01*
X160680127Y-89777553D01*
X160680125Y-89777557D01*
X160626600Y-89942288D01*
X160626597Y-89942301D01*
X160599500Y-90113388D01*
X160599500Y-90286611D01*
X160626597Y-90457698D01*
X160626600Y-90457711D01*
X160680125Y-90622442D01*
X160680127Y-90622446D01*
X160758767Y-90776787D01*
X160803083Y-90837783D01*
X160860586Y-90916928D01*
X160983072Y-91039414D01*
X160983075Y-91039416D01*
X160983076Y-91039417D01*
X161123212Y-91141232D01*
X161277553Y-91219872D01*
X161277557Y-91219874D01*
X161370650Y-91250122D01*
X161413718Y-91286905D01*
X161418161Y-91343367D01*
X161381378Y-91386435D01*
X161347783Y-91394500D01*
X151452217Y-91394500D01*
X151399891Y-91372826D01*
X151378217Y-91320500D01*
X151399891Y-91268174D01*
X151429350Y-91250122D01*
X151522442Y-91219874D01*
X151522442Y-91219873D01*
X151522445Y-91219873D01*
X151676788Y-91141232D01*
X151816928Y-91039414D01*
X151939414Y-90916928D01*
X152041232Y-90776788D01*
X152119873Y-90622445D01*
X152173402Y-90457701D01*
X152200500Y-90286611D01*
X152200500Y-90113389D01*
X152198610Y-90101459D01*
X152173402Y-89942301D01*
X152173399Y-89942288D01*
X152119874Y-89777557D01*
X152119872Y-89777553D01*
X152041232Y-89623212D01*
X151939417Y-89483076D01*
X151939416Y-89483075D01*
X151939414Y-89483072D01*
X151816928Y-89360586D01*
X151816925Y-89360583D01*
X151816923Y-89360582D01*
X151676787Y-89258767D01*
X151522446Y-89180127D01*
X151522442Y-89180125D01*
X151357711Y-89126600D01*
X151357698Y-89126597D01*
X151186612Y-89099500D01*
X151186611Y-89099500D01*
X151013389Y-89099500D01*
X151013388Y-89099500D01*
X150842301Y-89126597D01*
X150842288Y-89126600D01*
X150677557Y-89180125D01*
X150677553Y-89180127D01*
X150523212Y-89258767D01*
X150383076Y-89360582D01*
X150260582Y-89483076D01*
X150158767Y-89623212D01*
X150158762Y-89623221D01*
X150133506Y-89672789D01*
X150090439Y-89709572D01*
X150033977Y-89705128D01*
X150006043Y-89680306D01*
X149927139Y-89562218D01*
X149787781Y-89422860D01*
X149623913Y-89313367D01*
X149441839Y-89237950D01*
X149441829Y-89237947D01*
X149312388Y-89212200D01*
X149248541Y-89199500D01*
X149051459Y-89199500D01*
X148996662Y-89210399D01*
X148858170Y-89237947D01*
X148858160Y-89237950D01*
X148676086Y-89313367D01*
X148512218Y-89422860D01*
X148512217Y-89422862D01*
X148372862Y-89562217D01*
X148372860Y-89562218D01*
X148263367Y-89726086D01*
X148187950Y-89908160D01*
X148187947Y-89908170D01*
X148149500Y-90101460D01*
X148149500Y-90298539D01*
X148187947Y-90491829D01*
X148187950Y-90491839D01*
X148263367Y-90673913D01*
X148332103Y-90776783D01*
X148372861Y-90837782D01*
X148512218Y-90977139D01*
X148676086Y-91086632D01*
X148858165Y-91162051D01*
X149051459Y-91200500D01*
X149051461Y-91200500D01*
X149248539Y-91200500D01*
X149248541Y-91200500D01*
X149441835Y-91162051D01*
X149623914Y-91086632D01*
X149787782Y-90977139D01*
X149927139Y-90837782D01*
X150006043Y-90719692D01*
X150053135Y-90688227D01*
X150108684Y-90699276D01*
X150133507Y-90727210D01*
X150158767Y-90776788D01*
X150260582Y-90916923D01*
X150260586Y-90916928D01*
X150383072Y-91039414D01*
X150383075Y-91039416D01*
X150383076Y-91039417D01*
X150523212Y-91141232D01*
X150677553Y-91219872D01*
X150677557Y-91219874D01*
X150770650Y-91250122D01*
X150813718Y-91286905D01*
X150818161Y-91343367D01*
X150781378Y-91386435D01*
X150747783Y-91394500D01*
X146030652Y-91394500D01*
X146008359Y-91398934D01*
X145952016Y-91410141D01*
X145952006Y-91410144D01*
X145899687Y-91431815D01*
X145833019Y-91476361D01*
X145676361Y-91633019D01*
X145631815Y-91699687D01*
X145610144Y-91752006D01*
X145610141Y-91752016D01*
X145597083Y-91817664D01*
X145594500Y-91830652D01*
X145594500Y-95169348D01*
X145597127Y-95182554D01*
X145610141Y-95247983D01*
X145610144Y-95247993D01*
X145631815Y-95300312D01*
X145631816Y-95300314D01*
X145631817Y-95300315D01*
X145676364Y-95366984D01*
X146433016Y-96123636D01*
X146499685Y-96168183D01*
X146552011Y-96189857D01*
X146630652Y-96205500D01*
X153584228Y-96205500D01*
X153636554Y-96227174D01*
X153872826Y-96463446D01*
X153894500Y-96515772D01*
X153894500Y-96984228D01*
X153872826Y-97036554D01*
X152576361Y-98333019D01*
X152531815Y-98399687D01*
X152510144Y-98452006D01*
X152510141Y-98452016D01*
X152494500Y-98530653D01*
X152494500Y-100344786D01*
X152472826Y-100397112D01*
X152420500Y-100418786D01*
X152368174Y-100397112D01*
X152358971Y-100385899D01*
X152343679Y-100363013D01*
X152323636Y-100333016D01*
X151666984Y-99676364D01*
X151600315Y-99631817D01*
X151600314Y-99631816D01*
X151600312Y-99631815D01*
X151547993Y-99610144D01*
X151547983Y-99610141D01*
X151495322Y-99599666D01*
X151469348Y-99594500D01*
X147130652Y-99594500D01*
X147108359Y-99598934D01*
X147052016Y-99610141D01*
X147052006Y-99610144D01*
X146999687Y-99631815D01*
X146933019Y-99676361D01*
X146176361Y-100433019D01*
X146131815Y-100499687D01*
X146110144Y-100552006D01*
X146110141Y-100552016D01*
X146094500Y-100630653D01*
X146094500Y-104490877D01*
X146072826Y-104543203D01*
X146020500Y-104564877D01*
X145968174Y-104543203D01*
X145297633Y-103872662D01*
X145275959Y-103820336D01*
X145297633Y-103768010D01*
X145330804Y-103748858D01*
X145414237Y-103726503D01*
X145511263Y-103670485D01*
X145590485Y-103591263D01*
X145646503Y-103494237D01*
X145675499Y-103386020D01*
X145675500Y-103386020D01*
X145675500Y-103273980D01*
X145675499Y-103273979D01*
X145672378Y-103262333D01*
X145646503Y-103165763D01*
X145590485Y-103068737D01*
X145511263Y-102989515D01*
X145498072Y-102981899D01*
X145485249Y-102974495D01*
X145475148Y-102967483D01*
X145461091Y-102955882D01*
X145461086Y-102955878D01*
X145461084Y-102955877D01*
X145461081Y-102955875D01*
X145461079Y-102955874D01*
X145252186Y-102843482D01*
X145123866Y-102774440D01*
X145106605Y-102761602D01*
X145058461Y-102713459D01*
X144894374Y-102587555D01*
X144894369Y-102587552D01*
X144715268Y-102484154D01*
X144715264Y-102484152D01*
X144524191Y-102405011D01*
X144457703Y-102387197D01*
X144438386Y-102378933D01*
X144125257Y-102188381D01*
X143915378Y-102060661D01*
X143915378Y-102060662D01*
X143907796Y-102056048D01*
X143903220Y-102051472D01*
X143885124Y-102042252D01*
X143882740Y-102040801D01*
X143882738Y-102040799D01*
X143851842Y-102021998D01*
X143851834Y-102021993D01*
X143825359Y-102011446D01*
X143819153Y-102008636D01*
X143783127Y-101990281D01*
X143683489Y-101974500D01*
X143683488Y-101974500D01*
X143116512Y-101974500D01*
X143116511Y-101974500D01*
X143016874Y-101990280D01*
X143016873Y-101990281D01*
X142896780Y-102051471D01*
X142801471Y-102146780D01*
X142740281Y-102266873D01*
X142740280Y-102266874D01*
X142724500Y-102366511D01*
X142724500Y-102883488D01*
X142740281Y-102983126D01*
X142742081Y-102988667D01*
X142740236Y-102989266D01*
X142744103Y-103038364D01*
X142707322Y-103081433D01*
X142673724Y-103089500D01*
X142485002Y-103089500D01*
X142432676Y-103067826D01*
X142411002Y-103015500D01*
X142419068Y-102981905D01*
X142422844Y-102974495D01*
X142460646Y-102900304D01*
X142475500Y-102806519D01*
X142475499Y-102653146D01*
X142478032Y-102636391D01*
X142477622Y-102636308D01*
X142499890Y-102527460D01*
X142616825Y-101955878D01*
X142624061Y-101935831D01*
X142646503Y-101893847D01*
X142766921Y-101603136D01*
X142771376Y-101588452D01*
X142840235Y-101361457D01*
X142858265Y-101302021D01*
X142919654Y-100993403D01*
X142925294Y-100936140D01*
X142938637Y-100900502D01*
X143239606Y-100477397D01*
X143246901Y-100464513D01*
X143251739Y-100457055D01*
X143302793Y-100387882D01*
X143347646Y-100259699D01*
X143350500Y-100229266D01*
X143350500Y-99170734D01*
X143347646Y-99140301D01*
X143302793Y-99012118D01*
X143302792Y-99012116D01*
X143222153Y-98902853D01*
X143222146Y-98902846D01*
X143112883Y-98822207D01*
X143112881Y-98822206D01*
X142984704Y-98777355D01*
X142984705Y-98777355D01*
X142984700Y-98777354D01*
X142984699Y-98777354D01*
X142954266Y-98774500D01*
X142345734Y-98774500D01*
X142315301Y-98777354D01*
X142315299Y-98777354D01*
X142315295Y-98777355D01*
X142187118Y-98822206D01*
X142187116Y-98822207D01*
X142077853Y-98902846D01*
X142077846Y-98902853D01*
X141997207Y-99012116D01*
X141997206Y-99012118D01*
X141952355Y-99140295D01*
X141952354Y-99140299D01*
X141952354Y-99140301D01*
X141949500Y-99170734D01*
X141949500Y-99170740D01*
X141949500Y-100229261D01*
X141952354Y-100259701D01*
X141952355Y-100259703D01*
X141960534Y-100283076D01*
X141971808Y-100315295D01*
X141972351Y-100318028D01*
X141975019Y-100324474D01*
X141975704Y-100326431D01*
X141997206Y-100387881D01*
X141997207Y-100387883D01*
X142027636Y-100429113D01*
X142029621Y-100431938D01*
X142115593Y-100560646D01*
X142307018Y-100847228D01*
X142318437Y-100900727D01*
X142284966Y-101097720D01*
X142283120Y-101105810D01*
X142204654Y-101378170D01*
X142201913Y-101386003D01*
X142103627Y-101623281D01*
X142072568Y-101658869D01*
X141549186Y-101964407D01*
X141511881Y-101974500D01*
X141493482Y-101974500D01*
X141493479Y-101974501D01*
X141399695Y-101989353D01*
X141399693Y-101989354D01*
X141286657Y-102046950D01*
X141196951Y-102136656D01*
X141139353Y-102249698D01*
X141124500Y-102343480D01*
X141124500Y-102806519D01*
X141139353Y-102900304D01*
X141139354Y-102900305D01*
X141180929Y-102981899D01*
X141185373Y-103038362D01*
X141148591Y-103081429D01*
X141116445Y-103089146D01*
X141116458Y-103089378D01*
X141115184Y-103089449D01*
X141114995Y-103089495D01*
X141114383Y-103089495D01*
X140856015Y-103118608D01*
X140856011Y-103118608D01*
X140856010Y-103118609D01*
X140602536Y-103176463D01*
X140602524Y-103176467D01*
X140357135Y-103262333D01*
X140357126Y-103262337D01*
X140357121Y-103262339D01*
X140241018Y-103318252D01*
X140122868Y-103375150D01*
X140049913Y-103420991D01*
X140032327Y-103429054D01*
X140028997Y-103430079D01*
X139763108Y-103541539D01*
X139706472Y-103541780D01*
X139666254Y-103501901D01*
X139660500Y-103473293D01*
X139660500Y-102865762D01*
X139660486Y-102865546D01*
X139660486Y-102781953D01*
X139659066Y-102769348D01*
X139631813Y-102527460D01*
X139574826Y-102277781D01*
X139490244Y-102036052D01*
X139379128Y-101805313D01*
X139242877Y-101588466D01*
X139238090Y-101582463D01*
X139083209Y-101388241D01*
X139024854Y-101329885D01*
X139024853Y-101329884D01*
X139020633Y-101325664D01*
X139020632Y-101325661D01*
X138992661Y-101297690D01*
X138959007Y-101264035D01*
X138959006Y-101264034D01*
X138956428Y-101261456D01*
X138956417Y-101261446D01*
X138838434Y-101143463D01*
X138825594Y-101126199D01*
X138811667Y-101100315D01*
X138731061Y-100950500D01*
X138644132Y-100788933D01*
X138639484Y-100780748D01*
X138638940Y-100779839D01*
X138632837Y-100773397D01*
X138622479Y-100759513D01*
X138610485Y-100738737D01*
X138531263Y-100659515D01*
X138531262Y-100659514D01*
X138502149Y-100642706D01*
X138467670Y-100597773D01*
X138475062Y-100541621D01*
X138486818Y-100526298D01*
X138772475Y-100240641D01*
X139850000Y-100240641D01*
X139852900Y-100277493D01*
X139898718Y-100435199D01*
X139982317Y-100576556D01*
X140098443Y-100692682D01*
X140239800Y-100776281D01*
X140397508Y-100822099D01*
X140397505Y-100822099D01*
X140434359Y-100825000D01*
X140550000Y-100825000D01*
X140950000Y-100825000D01*
X141065641Y-100825000D01*
X141102493Y-100822099D01*
X141260199Y-100776281D01*
X141401556Y-100692682D01*
X141517682Y-100576556D01*
X141601281Y-100435199D01*
X141647099Y-100277493D01*
X141650000Y-100240641D01*
X141650000Y-99900000D01*
X140950000Y-99900000D01*
X140950000Y-100825000D01*
X140550000Y-100825000D01*
X140550000Y-99900000D01*
X139850000Y-99900000D01*
X139850000Y-100240641D01*
X138772475Y-100240641D01*
X139428521Y-99584595D01*
X139441760Y-99574088D01*
X139736926Y-99390561D01*
X139792807Y-99381339D01*
X139838843Y-99414331D01*
X139850000Y-99453405D01*
X139850000Y-99500000D01*
X141650000Y-99500000D01*
X141650000Y-99159358D01*
X141647099Y-99122506D01*
X141601281Y-98964800D01*
X141517682Y-98823443D01*
X141401556Y-98707317D01*
X141274090Y-98631933D01*
X141160873Y-98594816D01*
X141140281Y-98577134D01*
X141130101Y-98568979D01*
X144174500Y-98568979D01*
X144174500Y-98681020D01*
X144203495Y-98789232D01*
X144203499Y-98789241D01*
X144222532Y-98822207D01*
X144259515Y-98886263D01*
X144338737Y-98965485D01*
X144435763Y-99021503D01*
X144543979Y-99050499D01*
X144543980Y-99050500D01*
X144543982Y-99050500D01*
X144656020Y-99050500D01*
X144656020Y-99050499D01*
X144764237Y-99021503D01*
X144861263Y-98965485D01*
X144940485Y-98886263D01*
X144996503Y-98789237D01*
X145025499Y-98681020D01*
X145025500Y-98681020D01*
X145025500Y-98568980D01*
X145025499Y-98568979D01*
X145015229Y-98530652D01*
X144996503Y-98460763D01*
X144940485Y-98363737D01*
X144861263Y-98284515D01*
X144764241Y-98228499D01*
X144764232Y-98228495D01*
X144656020Y-98199500D01*
X144656018Y-98199500D01*
X144543982Y-98199500D01*
X144543980Y-98199500D01*
X144435767Y-98228495D01*
X144435758Y-98228499D01*
X144338736Y-98284515D01*
X144259515Y-98363736D01*
X144203499Y-98460758D01*
X144203495Y-98460767D01*
X144174500Y-98568979D01*
X141130101Y-98568979D01*
X141119079Y-98560149D01*
X141118930Y-98558802D01*
X141117903Y-98557920D01*
X141115845Y-98530860D01*
X141112864Y-98503854D01*
X141113711Y-98502795D01*
X141113609Y-98501446D01*
X141131290Y-98480854D01*
X141148276Y-98459652D01*
X141149840Y-98459250D01*
X141150505Y-98458476D01*
X141153845Y-98458221D01*
X141183926Y-98450499D01*
X141306519Y-98450499D01*
X141400304Y-98435646D01*
X141400306Y-98435645D01*
X141408321Y-98431561D01*
X141513342Y-98378050D01*
X141603050Y-98288342D01*
X141660646Y-98175304D01*
X141675500Y-98081519D01*
X141675499Y-97618482D01*
X141660646Y-97524699D01*
X141660646Y-97524695D01*
X141660645Y-97524693D01*
X141630770Y-97466061D01*
X141603050Y-97411658D01*
X141513342Y-97321950D01*
X141400304Y-97264354D01*
X141400302Y-97264353D01*
X141400301Y-97264353D01*
X141306519Y-97249500D01*
X140693480Y-97249500D01*
X140599696Y-97264353D01*
X140528543Y-97300608D01*
X140472081Y-97305051D01*
X140429013Y-97268268D01*
X140424570Y-97211806D01*
X140442620Y-97182349D01*
X140511618Y-97113351D01*
X140534490Y-97097793D01*
X141140518Y-96834917D01*
X141205774Y-96806611D01*
X141235222Y-96800499D01*
X141306519Y-96800499D01*
X141400304Y-96785646D01*
X141400306Y-96785645D01*
X141413422Y-96778962D01*
X141513342Y-96728050D01*
X141603050Y-96638342D01*
X141660646Y-96525304D01*
X141675500Y-96431519D01*
X141675499Y-95968482D01*
X141660646Y-95874696D01*
X141660646Y-95874695D01*
X141660645Y-95874693D01*
X141607193Y-95769790D01*
X141603050Y-95761658D01*
X141513342Y-95671950D01*
X141400304Y-95614354D01*
X141400302Y-95614353D01*
X141400301Y-95614353D01*
X141306519Y-95599500D01*
X140693480Y-95599500D01*
X140599695Y-95614353D01*
X140599693Y-95614354D01*
X140486657Y-95671950D01*
X140396951Y-95761656D01*
X140339353Y-95874698D01*
X140324500Y-95968480D01*
X140324500Y-96045677D01*
X140319884Y-96071404D01*
X140099372Y-96666114D01*
X140082314Y-96692712D01*
X139953518Y-96821510D01*
X139953517Y-96821512D01*
X139921579Y-96853449D01*
X139918045Y-96856758D01*
X139782707Y-96975445D01*
X139775028Y-96981338D01*
X139724805Y-97014896D01*
X139669256Y-97025945D01*
X139664374Y-97024801D01*
X139447577Y-96966169D01*
X139402724Y-96931586D01*
X139402560Y-96931299D01*
X139274630Y-96704973D01*
X139272246Y-96685486D01*
X139265064Y-96667216D01*
X139268925Y-96658353D01*
X139267751Y-96648757D01*
X139287684Y-96615295D01*
X139385230Y-96521231D01*
X139436596Y-96500500D01*
X139720754Y-96500500D01*
X139720760Y-96500500D01*
X139788893Y-96490573D01*
X139893983Y-96439198D01*
X139976698Y-96356483D01*
X140028073Y-96251393D01*
X140038000Y-96183260D01*
X140038000Y-95816740D01*
X140028073Y-95748607D01*
X139976698Y-95643517D01*
X139893983Y-95560802D01*
X139893982Y-95560801D01*
X139788894Y-95509427D01*
X139720764Y-95499500D01*
X139720760Y-95499500D01*
X138479240Y-95499500D01*
X138479235Y-95499500D01*
X138411098Y-95509428D01*
X138410942Y-95509477D01*
X138410835Y-95509467D01*
X138405420Y-95510256D01*
X138405228Y-95508943D01*
X138354551Y-95504208D01*
X138318402Y-95460607D01*
X138320267Y-95411624D01*
X138351885Y-95331447D01*
X138361667Y-95250000D01*
X137425000Y-95250000D01*
X137425000Y-95750000D01*
X137855561Y-95750000D01*
X137943943Y-95739385D01*
X138068466Y-95690281D01*
X138125095Y-95691248D01*
X138164454Y-95731975D01*
X138168840Y-95769790D01*
X138162000Y-95816732D01*
X138162000Y-96183264D01*
X138171927Y-96251393D01*
X138171927Y-96251394D01*
X138223301Y-96356482D01*
X138223302Y-96356483D01*
X138306017Y-96439198D01*
X138411107Y-96490573D01*
X138479240Y-96500500D01*
X138496731Y-96500500D01*
X138510831Y-96506340D01*
X138526091Y-96506574D01*
X138535959Y-96516748D01*
X138549057Y-96522174D01*
X138565523Y-96547230D01*
X138578872Y-96580904D01*
X138578006Y-96637534D01*
X138574501Y-96644588D01*
X138305055Y-97121273D01*
X138260438Y-97156160D01*
X138204220Y-97149280D01*
X138169572Y-97105504D01*
X138160654Y-97074808D01*
X138080271Y-96938888D01*
X137968611Y-96827228D01*
X137832691Y-96746845D01*
X137681051Y-96702789D01*
X137645610Y-96700000D01*
X137557500Y-96700000D01*
X137557500Y-98450000D01*
X137645610Y-98450000D01*
X137681051Y-98447210D01*
X137832691Y-98403154D01*
X137968611Y-98322771D01*
X138080271Y-98211111D01*
X138160655Y-98075190D01*
X138170025Y-98042937D01*
X138186675Y-98022152D01*
X138202284Y-98000570D01*
X138204214Y-98000259D01*
X138205436Y-97998735D01*
X138231902Y-97995812D01*
X138258204Y-97991588D01*
X138259683Y-97992745D01*
X138261731Y-97992519D01*
X138304098Y-98024778D01*
X138307116Y-98029679D01*
X138307957Y-98031795D01*
X138317404Y-98046386D01*
X138317848Y-98047106D01*
X138317878Y-98047293D01*
X138320771Y-98052313D01*
X138333971Y-98078219D01*
X138339908Y-98084156D01*
X138349698Y-98096263D01*
X138580800Y-98453191D01*
X138580979Y-98454165D01*
X138581780Y-98454747D01*
X138586076Y-98481876D01*
X138591046Y-98508894D01*
X138590639Y-98510687D01*
X138559978Y-98638386D01*
X138556390Y-98649429D01*
X138501495Y-98781952D01*
X138496223Y-98792298D01*
X138421270Y-98914607D01*
X138414445Y-98924000D01*
X138319268Y-99035437D01*
X138315326Y-99039702D01*
X138299013Y-99056016D01*
X138299011Y-99056018D01*
X138195389Y-99159639D01*
X138163445Y-99191583D01*
X138159911Y-99194892D01*
X138003803Y-99331799D01*
X137996124Y-99337692D01*
X137825507Y-99451698D01*
X137817118Y-99456541D01*
X137808279Y-99460899D01*
X137760184Y-99466914D01*
X137413681Y-99393336D01*
X137406011Y-99390628D01*
X137405841Y-99391153D01*
X137400305Y-99389354D01*
X137400304Y-99389354D01*
X137306519Y-99374500D01*
X136693480Y-99374500D01*
X136599696Y-99389353D01*
X136599696Y-99389354D01*
X136570824Y-99404064D01*
X136559233Y-99408781D01*
X136542224Y-99414077D01*
X136542216Y-99414081D01*
X136235361Y-99581017D01*
X136179039Y-99586984D01*
X136164635Y-99581017D01*
X135857781Y-99414081D01*
X135826458Y-99402193D01*
X135819130Y-99398946D01*
X135800304Y-99389354D01*
X135800302Y-99389353D01*
X135800303Y-99389353D01*
X135706520Y-99374500D01*
X135094770Y-99374500D01*
X135042444Y-99352826D01*
X135020770Y-99300500D01*
X135042442Y-99248177D01*
X136223636Y-98066984D01*
X136268183Y-98000315D01*
X136289857Y-97947989D01*
X136301768Y-97888110D01*
X136507500Y-97888110D01*
X136510289Y-97923551D01*
X136554345Y-98075191D01*
X136634728Y-98211111D01*
X136746388Y-98322771D01*
X136882308Y-98403154D01*
X137033948Y-98447210D01*
X137069390Y-98450000D01*
X137157500Y-98450000D01*
X137157500Y-97775000D01*
X136507500Y-97775000D01*
X136507500Y-97888110D01*
X136301768Y-97888110D01*
X136305500Y-97869348D01*
X136305500Y-97261889D01*
X136507500Y-97261889D01*
X136507500Y-97375000D01*
X137157500Y-97375000D01*
X137157500Y-96700000D01*
X137069390Y-96700000D01*
X137033948Y-96702789D01*
X136882308Y-96746845D01*
X136746388Y-96827228D01*
X136634728Y-96938888D01*
X136554345Y-97074808D01*
X136510289Y-97226448D01*
X136507500Y-97261889D01*
X136305500Y-97261889D01*
X136305500Y-95769025D01*
X136327174Y-95716699D01*
X136379500Y-95695025D01*
X136406647Y-95700184D01*
X136506056Y-95739385D01*
X136594439Y-95750000D01*
X137025000Y-95750000D01*
X137025000Y-95124000D01*
X137046674Y-95071674D01*
X137099000Y-95050000D01*
X137225000Y-95050000D01*
X137225000Y-94924000D01*
X137246674Y-94871674D01*
X137299000Y-94850000D01*
X138361667Y-94850000D01*
X138351885Y-94768552D01*
X138320267Y-94688375D01*
X138321233Y-94631746D01*
X138361959Y-94592387D01*
X138405273Y-94590741D01*
X138405419Y-94589744D01*
X138410821Y-94590531D01*
X138410957Y-94590526D01*
X138411103Y-94590571D01*
X138411107Y-94590573D01*
X138479240Y-94600500D01*
X138479246Y-94600500D01*
X139720754Y-94600500D01*
X139720760Y-94600500D01*
X139788893Y-94590573D01*
X139893983Y-94539198D01*
X139976698Y-94456483D01*
X140028073Y-94351393D01*
X140038000Y-94283260D01*
X140038000Y-93916740D01*
X140028073Y-93848607D01*
X139976698Y-93743517D01*
X139893983Y-93660802D01*
X139893982Y-93660801D01*
X139788894Y-93609427D01*
X139720764Y-93599500D01*
X139720760Y-93599500D01*
X138479240Y-93599500D01*
X138479237Y-93599500D01*
X138444376Y-93604579D01*
X138411107Y-93609427D01*
X138411105Y-93609427D01*
X138411103Y-93609428D01*
X138390780Y-93619362D01*
X138376702Y-93624550D01*
X138361243Y-93628522D01*
X138361235Y-93628525D01*
X138020483Y-93792204D01*
X137988442Y-93799500D01*
X137442633Y-93799500D01*
X137442589Y-93799503D01*
X137374362Y-93799503D01*
X137150291Y-93824749D01*
X137150288Y-93824749D01*
X137150285Y-93824750D01*
X136930463Y-93874922D01*
X136930441Y-93874929D01*
X136717621Y-93949397D01*
X136514464Y-94047232D01*
X136457471Y-94083042D01*
X136418869Y-94107298D01*
X136363033Y-94116785D01*
X136316842Y-94084010D01*
X136305500Y-94044640D01*
X136305500Y-90666194D01*
X136327174Y-90613868D01*
X136379500Y-90592194D01*
X136431826Y-90613868D01*
X136883979Y-91066021D01*
X136894186Y-91075767D01*
X136989641Y-91134870D01*
X137100000Y-91155500D01*
X141300009Y-91155500D01*
X141302346Y-91155445D01*
X141314109Y-91155174D01*
X141423398Y-91129470D01*
X141516021Y-91066021D01*
X142116021Y-90466021D01*
X142125767Y-90455814D01*
X142184870Y-90360359D01*
X142205500Y-90250000D01*
X142205500Y-86275468D01*
X149450000Y-86275468D01*
X149450000Y-86524531D01*
X149482507Y-86771460D01*
X149546969Y-87012037D01*
X149546973Y-87012048D01*
X149642281Y-87242143D01*
X149642284Y-87242151D01*
X149766815Y-87457845D01*
X149766819Y-87457851D01*
X149872099Y-87595055D01*
X149872100Y-87595056D01*
X150659940Y-86807214D01*
X150728599Y-86909970D01*
X150840030Y-87021401D01*
X150942783Y-87090058D01*
X150154943Y-87877899D01*
X150292148Y-87983180D01*
X150292154Y-87983184D01*
X150507848Y-88107715D01*
X150507856Y-88107718D01*
X150737951Y-88203026D01*
X150737962Y-88203030D01*
X150978540Y-88267492D01*
X150978539Y-88267492D01*
X151225469Y-88300000D01*
X151474531Y-88300000D01*
X151721460Y-88267492D01*
X151962037Y-88203030D01*
X151962048Y-88203026D01*
X152192143Y-88107718D01*
X152192151Y-88107715D01*
X152407849Y-87983182D01*
X152454950Y-87947039D01*
X152509657Y-87932379D01*
X152545050Y-87947039D01*
X152592150Y-87983182D01*
X152807848Y-88107715D01*
X152807856Y-88107718D01*
X153037951Y-88203026D01*
X153037962Y-88203030D01*
X153278540Y-88267492D01*
X153278539Y-88267492D01*
X153525469Y-88300000D01*
X153774531Y-88300000D01*
X154021460Y-88267492D01*
X154262037Y-88203030D01*
X154262048Y-88203026D01*
X154492143Y-88107718D01*
X154492151Y-88107715D01*
X154707852Y-87983180D01*
X154845055Y-87877900D01*
X154845055Y-87877899D01*
X154057215Y-87090059D01*
X154159970Y-87021401D01*
X154271401Y-86909970D01*
X154340059Y-86807215D01*
X155127899Y-87595055D01*
X155127900Y-87595055D01*
X155233180Y-87457852D01*
X155357715Y-87242151D01*
X155357718Y-87242143D01*
X155453026Y-87012048D01*
X155453030Y-87012037D01*
X155517492Y-86771460D01*
X155550000Y-86524531D01*
X155550000Y-86288544D01*
X157449500Y-86288544D01*
X157449500Y-86511455D01*
X157478595Y-86732461D01*
X157536290Y-86947782D01*
X157621591Y-87153717D01*
X157621594Y-87153725D01*
X157733049Y-87346770D01*
X157733053Y-87346776D01*
X157868747Y-87523618D01*
X158026381Y-87681252D01*
X158203223Y-87816946D01*
X158203229Y-87816950D01*
X158308797Y-87877900D01*
X158396274Y-87928405D01*
X158602219Y-88013710D01*
X158817537Y-88071404D01*
X159038543Y-88100500D01*
X159038545Y-88100500D01*
X159261455Y-88100500D01*
X159261457Y-88100500D01*
X159482463Y-88071404D01*
X159697781Y-88013710D01*
X159903726Y-87928405D01*
X160096774Y-87816948D01*
X160169085Y-87761461D01*
X160254952Y-87695575D01*
X160309659Y-87680916D01*
X160345048Y-87695575D01*
X160503223Y-87816946D01*
X160503229Y-87816950D01*
X160608797Y-87877900D01*
X160696274Y-87928405D01*
X160902219Y-88013710D01*
X161117537Y-88071404D01*
X161338543Y-88100500D01*
X161338545Y-88100500D01*
X161561455Y-88100500D01*
X161561457Y-88100500D01*
X161782463Y-88071404D01*
X161997781Y-88013710D01*
X162203726Y-87928405D01*
X162396774Y-87816948D01*
X162492309Y-87743641D01*
X162573618Y-87681252D01*
X162573619Y-87681250D01*
X162573624Y-87681247D01*
X162731247Y-87523624D01*
X162866948Y-87346774D01*
X162978405Y-87153726D01*
X163063710Y-86947781D01*
X163121404Y-86732463D01*
X163150500Y-86511457D01*
X163150500Y-86288543D01*
X163121404Y-86067537D01*
X163063710Y-85852219D01*
X162978405Y-85646274D01*
X162866948Y-85453226D01*
X162866946Y-85453223D01*
X162731252Y-85276381D01*
X162573618Y-85118747D01*
X162396776Y-84983053D01*
X162396770Y-84983049D01*
X162203725Y-84871594D01*
X162203717Y-84871591D01*
X161997782Y-84786290D01*
X161782461Y-84728595D01*
X161619647Y-84707160D01*
X161561457Y-84699500D01*
X161338543Y-84699500D01*
X161287122Y-84706269D01*
X161117538Y-84728595D01*
X160902217Y-84786290D01*
X160696282Y-84871591D01*
X160696274Y-84871594D01*
X160503231Y-84983048D01*
X160345048Y-85104425D01*
X160290340Y-85119083D01*
X160254952Y-85104425D01*
X160096775Y-84983053D01*
X160096774Y-84983052D01*
X160096769Y-84983049D01*
X160096768Y-84983048D01*
X159903725Y-84871594D01*
X159903717Y-84871591D01*
X159697782Y-84786290D01*
X159482461Y-84728595D01*
X159319647Y-84707160D01*
X159261457Y-84699500D01*
X159038543Y-84699500D01*
X158987122Y-84706269D01*
X158817538Y-84728595D01*
X158602217Y-84786290D01*
X158396282Y-84871591D01*
X158396274Y-84871594D01*
X158203229Y-84983049D01*
X158203223Y-84983053D01*
X158026381Y-85118747D01*
X157868747Y-85276381D01*
X157733053Y-85453223D01*
X157733049Y-85453229D01*
X157621594Y-85646274D01*
X157621591Y-85646282D01*
X157536290Y-85852217D01*
X157478595Y-86067538D01*
X157449500Y-86288544D01*
X155550000Y-86288544D01*
X155550000Y-86275468D01*
X155517492Y-86028539D01*
X155453030Y-85787962D01*
X155453026Y-85787951D01*
X155357718Y-85557856D01*
X155357715Y-85557848D01*
X155233184Y-85342154D01*
X155233180Y-85342148D01*
X155127899Y-85204943D01*
X154340058Y-85992783D01*
X154271401Y-85890030D01*
X154159970Y-85778599D01*
X154057215Y-85709940D01*
X154845056Y-84922100D01*
X154845055Y-84922099D01*
X154707851Y-84816819D01*
X154707845Y-84816815D01*
X154492151Y-84692284D01*
X154492143Y-84692281D01*
X154262048Y-84596973D01*
X154262037Y-84596969D01*
X154021459Y-84532507D01*
X154021460Y-84532507D01*
X153774531Y-84500000D01*
X153525469Y-84500000D01*
X153278539Y-84532507D01*
X153037962Y-84596969D01*
X153037951Y-84596973D01*
X152807856Y-84692281D01*
X152807848Y-84692284D01*
X152592154Y-84816815D01*
X152592148Y-84816819D01*
X152545048Y-84852961D01*
X152490341Y-84867620D01*
X152454952Y-84852961D01*
X152407851Y-84816819D01*
X152407845Y-84816815D01*
X152192151Y-84692284D01*
X152192143Y-84692281D01*
X151962048Y-84596973D01*
X151962037Y-84596969D01*
X151721459Y-84532507D01*
X151721460Y-84532507D01*
X151474531Y-84500000D01*
X151225469Y-84500000D01*
X150978539Y-84532507D01*
X150737962Y-84596969D01*
X150737951Y-84596973D01*
X150507856Y-84692281D01*
X150507848Y-84692284D01*
X150292154Y-84816815D01*
X150292148Y-84816819D01*
X150154943Y-84922099D01*
X150154943Y-84922100D01*
X150942784Y-85709941D01*
X150840030Y-85778599D01*
X150728599Y-85890030D01*
X150659941Y-85992784D01*
X149872100Y-85204943D01*
X149872099Y-85204943D01*
X149766819Y-85342148D01*
X149766815Y-85342154D01*
X149642284Y-85557848D01*
X149642281Y-85557856D01*
X149546973Y-85787951D01*
X149546969Y-85787962D01*
X149482507Y-86028539D01*
X149450000Y-86275468D01*
X142205500Y-86275468D01*
X142205500Y-83350000D01*
X142205174Y-83335891D01*
X142179470Y-83226602D01*
X142116021Y-83133979D01*
X141516021Y-82533979D01*
X141505814Y-82524233D01*
X141410359Y-82465130D01*
X141300003Y-82444500D01*
X141300000Y-82444500D01*
X137100000Y-82444500D01*
X137099991Y-82444500D01*
X137087301Y-82444793D01*
X137085891Y-82444826D01*
X136999562Y-82465130D01*
X136976602Y-82470530D01*
X136883982Y-82533976D01*
X136883975Y-82533982D01*
X136283978Y-83133979D01*
X136274231Y-83144188D01*
X136215130Y-83239640D01*
X136194500Y-83349996D01*
X136194500Y-86525228D01*
X136172826Y-86577554D01*
X136120500Y-86599228D01*
X136068174Y-86577554D01*
X135969413Y-86478793D01*
X135866984Y-86376364D01*
X135800315Y-86331817D01*
X135800314Y-86331816D01*
X135800312Y-86331815D01*
X135747993Y-86310144D01*
X135747983Y-86310141D01*
X135695322Y-86299666D01*
X135669348Y-86294500D01*
X130730652Y-86294500D01*
X130708359Y-86298934D01*
X130652016Y-86310141D01*
X130652006Y-86310144D01*
X130599687Y-86331815D01*
X130533019Y-86376361D01*
X130326826Y-86582554D01*
X130274500Y-86604228D01*
X130222174Y-86582554D01*
X130200500Y-86530228D01*
X130200500Y-83559715D01*
X130222174Y-83507389D01*
X130270625Y-83485817D01*
X130365850Y-83480827D01*
X130727691Y-83423517D01*
X131054711Y-83335892D01*
X131081552Y-83328700D01*
X131081553Y-83328699D01*
X131081559Y-83328698D01*
X131423578Y-83197409D01*
X131750000Y-83031089D01*
X132057248Y-82831559D01*
X132341957Y-82601007D01*
X132601007Y-82341957D01*
X132831559Y-82057248D01*
X133031089Y-81750000D01*
X133081298Y-81651460D01*
X148149500Y-81651460D01*
X148149500Y-81848539D01*
X148187947Y-82041829D01*
X148187950Y-82041839D01*
X148263367Y-82223913D01*
X148372860Y-82387781D01*
X148512218Y-82527139D01*
X148676086Y-82636632D01*
X148795503Y-82686096D01*
X148858165Y-82712051D01*
X149051459Y-82750500D01*
X149051461Y-82750500D01*
X149248539Y-82750500D01*
X149248541Y-82750500D01*
X149441835Y-82712051D01*
X149623914Y-82636632D01*
X149787782Y-82527139D01*
X149927139Y-82387782D01*
X150006043Y-82269692D01*
X150053135Y-82238227D01*
X150108684Y-82249276D01*
X150133507Y-82277210D01*
X150158767Y-82326788D01*
X150260582Y-82466923D01*
X150260586Y-82466928D01*
X150383072Y-82589414D01*
X150383075Y-82589416D01*
X150383076Y-82589417D01*
X150523212Y-82691232D01*
X150677553Y-82769872D01*
X150677557Y-82769874D01*
X150842288Y-82823399D01*
X150842294Y-82823400D01*
X150842299Y-82823402D01*
X150956359Y-82841467D01*
X151013388Y-82850500D01*
X151013389Y-82850500D01*
X151186612Y-82850500D01*
X151229383Y-82843725D01*
X151357701Y-82823402D01*
X151357708Y-82823399D01*
X151357711Y-82823399D01*
X151522442Y-82769874D01*
X151522442Y-82769873D01*
X151522445Y-82769873D01*
X151673830Y-82692738D01*
X151730292Y-82688296D01*
X151773360Y-82725079D01*
X151780003Y-82773111D01*
X151749500Y-82926459D01*
X151749500Y-83123541D01*
X151751577Y-83133982D01*
X151787947Y-83316829D01*
X151787950Y-83316839D01*
X151863367Y-83498913D01*
X151869031Y-83507389D01*
X151972861Y-83662782D01*
X152112218Y-83802139D01*
X152276086Y-83911632D01*
X152458165Y-83987051D01*
X152651459Y-84025500D01*
X152651461Y-84025500D01*
X152848539Y-84025500D01*
X152848541Y-84025500D01*
X153041835Y-83987051D01*
X153223914Y-83911632D01*
X153387782Y-83802139D01*
X153527139Y-83662782D01*
X153636632Y-83498914D01*
X153712051Y-83316835D01*
X153750500Y-83123541D01*
X153750500Y-82926459D01*
X155399500Y-82926459D01*
X155399500Y-83123541D01*
X155401577Y-83133982D01*
X155437947Y-83316829D01*
X155437950Y-83316839D01*
X155513367Y-83498913D01*
X155519031Y-83507389D01*
X155622861Y-83662782D01*
X155762218Y-83802139D01*
X155926086Y-83911632D01*
X156108165Y-83987051D01*
X156301459Y-84025500D01*
X156301461Y-84025500D01*
X156498539Y-84025500D01*
X156498541Y-84025500D01*
X156691835Y-83987051D01*
X156873914Y-83911632D01*
X157037782Y-83802139D01*
X157177139Y-83662782D01*
X157286632Y-83498914D01*
X157362051Y-83316835D01*
X157400500Y-83123541D01*
X157400500Y-82926459D01*
X159049500Y-82926459D01*
X159049500Y-83123541D01*
X159051577Y-83133982D01*
X159087947Y-83316829D01*
X159087950Y-83316839D01*
X159163367Y-83498913D01*
X159169031Y-83507389D01*
X159272861Y-83662782D01*
X159412218Y-83802139D01*
X159576086Y-83911632D01*
X159758165Y-83987051D01*
X159951459Y-84025500D01*
X159951461Y-84025500D01*
X160148539Y-84025500D01*
X160148541Y-84025500D01*
X160341835Y-83987051D01*
X160523914Y-83911632D01*
X160687782Y-83802139D01*
X160827139Y-83662782D01*
X160936632Y-83498914D01*
X161012051Y-83316835D01*
X161050500Y-83123541D01*
X161050500Y-82926459D01*
X161019996Y-82773108D01*
X161031045Y-82717562D01*
X161078137Y-82686096D01*
X161126169Y-82692739D01*
X161277553Y-82769872D01*
X161277557Y-82769874D01*
X161442288Y-82823399D01*
X161442294Y-82823400D01*
X161442299Y-82823402D01*
X161556359Y-82841467D01*
X161613388Y-82850500D01*
X161613389Y-82850500D01*
X161786612Y-82850500D01*
X161829383Y-82843725D01*
X161957701Y-82823402D01*
X161957708Y-82823399D01*
X161957711Y-82823399D01*
X162122442Y-82769874D01*
X162122442Y-82769873D01*
X162122445Y-82769873D01*
X162276788Y-82691232D01*
X162416928Y-82589414D01*
X162539414Y-82466928D01*
X162641232Y-82326788D01*
X162666493Y-82277209D01*
X162709560Y-82240426D01*
X162766022Y-82244869D01*
X162793954Y-82269689D01*
X162842242Y-82341957D01*
X162872860Y-82387781D01*
X163012218Y-82527139D01*
X163176086Y-82636632D01*
X163295503Y-82686096D01*
X163358165Y-82712051D01*
X163551459Y-82750500D01*
X163551461Y-82750500D01*
X163748539Y-82750500D01*
X163748541Y-82750500D01*
X163941835Y-82712051D01*
X164123914Y-82636632D01*
X164287782Y-82527139D01*
X164427139Y-82387782D01*
X164536632Y-82223914D01*
X164612051Y-82041835D01*
X164650500Y-81848541D01*
X164650500Y-81651459D01*
X164612051Y-81458165D01*
X164536632Y-81276086D01*
X164427139Y-81112218D01*
X164287782Y-80972861D01*
X164194589Y-80910591D01*
X164123913Y-80863367D01*
X163941839Y-80787950D01*
X163941829Y-80787947D01*
X163812388Y-80762200D01*
X163748541Y-80749500D01*
X163551459Y-80749500D01*
X163496662Y-80760399D01*
X163358170Y-80787947D01*
X163358160Y-80787950D01*
X163176086Y-80863367D01*
X163012218Y-80972860D01*
X163012217Y-80972862D01*
X162872862Y-81112217D01*
X162872858Y-81112220D01*
X162793955Y-81230307D01*
X162746863Y-81261772D01*
X162691314Y-81250722D01*
X162666492Y-81222788D01*
X162641234Y-81173216D01*
X162641232Y-81173212D01*
X162539417Y-81033076D01*
X162539416Y-81033075D01*
X162539414Y-81033072D01*
X162416928Y-80910586D01*
X162416925Y-80910583D01*
X162416923Y-80910582D01*
X162276787Y-80808767D01*
X162122446Y-80730127D01*
X162122442Y-80730125D01*
X161957711Y-80676600D01*
X161957698Y-80676597D01*
X161786612Y-80649500D01*
X161786611Y-80649500D01*
X161613389Y-80649500D01*
X161613388Y-80649500D01*
X161442301Y-80676597D01*
X161442288Y-80676600D01*
X161277557Y-80730125D01*
X161277553Y-80730127D01*
X161123212Y-80808767D01*
X160983076Y-80910582D01*
X160860582Y-81033076D01*
X160758767Y-81173212D01*
X160680127Y-81327553D01*
X160680125Y-81327557D01*
X160626600Y-81492288D01*
X160626597Y-81492301D01*
X160599500Y-81663388D01*
X160599500Y-81836611D01*
X160626597Y-82007698D01*
X160626601Y-82007715D01*
X160643358Y-82059288D01*
X160638914Y-82115750D01*
X160595846Y-82152532D01*
X160539384Y-82148088D01*
X160531868Y-82143683D01*
X160523914Y-82138368D01*
X160523913Y-82138367D01*
X160523911Y-82138366D01*
X160341839Y-82062950D01*
X160341829Y-82062947D01*
X160212388Y-82037200D01*
X160148541Y-82024500D01*
X159951459Y-82024500D01*
X159896662Y-82035399D01*
X159758170Y-82062947D01*
X159758160Y-82062950D01*
X159576086Y-82138367D01*
X159412218Y-82247860D01*
X159412217Y-82247862D01*
X159272862Y-82387217D01*
X159272860Y-82387218D01*
X159163367Y-82551086D01*
X159087950Y-82733160D01*
X159087947Y-82733170D01*
X159068377Y-82831557D01*
X159049500Y-82926459D01*
X157400500Y-82926459D01*
X157362051Y-82733165D01*
X157286632Y-82551086D01*
X157177139Y-82387218D01*
X157037782Y-82247861D01*
X157033305Y-82244869D01*
X156873913Y-82138367D01*
X156691839Y-82062950D01*
X156691829Y-82062947D01*
X156562388Y-82037200D01*
X156498541Y-82024500D01*
X156301459Y-82024500D01*
X156246662Y-82035399D01*
X156108170Y-82062947D01*
X156108160Y-82062950D01*
X155926086Y-82138367D01*
X155762218Y-82247860D01*
X155762217Y-82247862D01*
X155622862Y-82387217D01*
X155622860Y-82387218D01*
X155513367Y-82551086D01*
X155437950Y-82733160D01*
X155437947Y-82733170D01*
X155418377Y-82831557D01*
X155399500Y-82926459D01*
X153750500Y-82926459D01*
X153712051Y-82733165D01*
X153636632Y-82551086D01*
X153527139Y-82387218D01*
X153387782Y-82247861D01*
X153383305Y-82244869D01*
X153223913Y-82138367D01*
X153041839Y-82062950D01*
X153041829Y-82062947D01*
X152912388Y-82037200D01*
X152848541Y-82024500D01*
X152651459Y-82024500D01*
X152596662Y-82035399D01*
X152458170Y-82062947D01*
X152458160Y-82062950D01*
X152276083Y-82138368D01*
X152268130Y-82143683D01*
X152212581Y-82154732D01*
X152165490Y-82123265D01*
X152154441Y-82067716D01*
X152156641Y-82059286D01*
X152173400Y-82007707D01*
X152173399Y-82007707D01*
X152173402Y-82007701D01*
X152200500Y-81836611D01*
X152200500Y-81663389D01*
X152198610Y-81651459D01*
X152173402Y-81492301D01*
X152173399Y-81492288D01*
X152119874Y-81327557D01*
X152119872Y-81327553D01*
X152041232Y-81173212D01*
X151939417Y-81033076D01*
X151939416Y-81033075D01*
X151939414Y-81033072D01*
X151816928Y-80910586D01*
X151816925Y-80910583D01*
X151816923Y-80910582D01*
X151676787Y-80808767D01*
X151522446Y-80730127D01*
X151522442Y-80730125D01*
X151357711Y-80676600D01*
X151357698Y-80676597D01*
X151186612Y-80649500D01*
X151186611Y-80649500D01*
X151013389Y-80649500D01*
X151013388Y-80649500D01*
X150842301Y-80676597D01*
X150842288Y-80676600D01*
X150677557Y-80730125D01*
X150677553Y-80730127D01*
X150523212Y-80808767D01*
X150383076Y-80910582D01*
X150260582Y-81033076D01*
X150158767Y-81173212D01*
X150158762Y-81173221D01*
X150133506Y-81222789D01*
X150090439Y-81259572D01*
X150033977Y-81255128D01*
X150006043Y-81230306D01*
X149927139Y-81112218D01*
X149787781Y-80972860D01*
X149623913Y-80863367D01*
X149441839Y-80787950D01*
X149441829Y-80787947D01*
X149312388Y-80762200D01*
X149248541Y-80749500D01*
X149051459Y-80749500D01*
X148996662Y-80760399D01*
X148858170Y-80787947D01*
X148858160Y-80787950D01*
X148676086Y-80863367D01*
X148512218Y-80972860D01*
X148512217Y-80972862D01*
X148372862Y-81112217D01*
X148372860Y-81112218D01*
X148263367Y-81276086D01*
X148187950Y-81458160D01*
X148187947Y-81458170D01*
X148149500Y-81651460D01*
X133081298Y-81651460D01*
X133197409Y-81423578D01*
X133328698Y-81081559D01*
X133423517Y-80727691D01*
X133480827Y-80365850D01*
X133485817Y-80270626D01*
X133510200Y-80219507D01*
X133559716Y-80200500D01*
X166440284Y-80200500D01*
X166492610Y-80222174D01*
G37*
%TD.AperFunction*%
%TA.AperFunction,Conductor*%
G36*
X139555178Y-111234623D02*
G01*
X139568580Y-111252525D01*
X139590247Y-111281470D01*
X139590253Y-111281477D01*
X139757536Y-111474531D01*
X139874208Y-111609178D01*
X139999538Y-111734508D01*
X139999540Y-111734511D01*
X140017106Y-111752077D01*
X140017108Y-111752080D01*
X140047092Y-111782063D01*
X140092829Y-111827800D01*
X140092830Y-111827802D01*
X140109539Y-111844511D01*
X140109544Y-111844522D01*
X140258352Y-111993329D01*
X140538443Y-112228352D01*
X140538446Y-112228354D01*
X140538452Y-112228359D01*
X140744278Y-112372478D01*
X140837971Y-112438083D01*
X140837972Y-112438084D01*
X141152841Y-112619873D01*
X141154639Y-112620911D01*
X141486031Y-112775441D01*
X141486042Y-112775445D01*
X141829615Y-112900495D01*
X141829627Y-112900499D01*
X141829630Y-112900500D01*
X142182821Y-112995137D01*
X142542916Y-113058631D01*
X142542936Y-113058632D01*
X142542938Y-113058633D01*
X142907172Y-113090500D01*
X143114294Y-113090500D01*
X143114297Y-113090501D01*
X143158984Y-113090500D01*
X143164788Y-113090728D01*
X143338743Y-113104417D01*
X143350210Y-113106233D01*
X143517045Y-113146286D01*
X143528078Y-113149871D01*
X143588192Y-113174771D01*
X143686594Y-113215530D01*
X143696935Y-113220798D01*
X143843240Y-113310453D01*
X143852624Y-113317272D01*
X143985252Y-113430547D01*
X143989517Y-113434490D01*
X144006487Y-113451459D01*
X144006489Y-113451460D01*
X144038873Y-113483844D01*
X144042818Y-113488112D01*
X144144508Y-113607181D01*
X144151334Y-113616576D01*
X144231425Y-113747282D01*
X144240283Y-113803222D01*
X144236458Y-113814829D01*
X144089678Y-114161043D01*
X144049299Y-114200758D01*
X143992664Y-114200289D01*
X143955614Y-114165755D01*
X143928049Y-114111657D01*
X143838343Y-114021951D01*
X143838342Y-114021950D01*
X143725304Y-113964354D01*
X143725302Y-113964353D01*
X143725301Y-113964353D01*
X143631519Y-113949500D01*
X143168480Y-113949500D01*
X143074695Y-113964353D01*
X143074693Y-113964354D01*
X142961657Y-114021950D01*
X142871951Y-114111656D01*
X142871950Y-114111658D01*
X142825317Y-114203181D01*
X142814353Y-114224698D01*
X142799500Y-114318480D01*
X142799500Y-114332212D01*
X142777826Y-114384538D01*
X142767207Y-114393338D01*
X142635911Y-114482907D01*
X142580471Y-114494490D01*
X142565891Y-114490143D01*
X142402934Y-114422645D01*
X142395457Y-114419045D01*
X142176308Y-114297928D01*
X142169282Y-114293513D01*
X142020263Y-114187781D01*
X141965078Y-114148626D01*
X141958592Y-114143454D01*
X141923011Y-114111658D01*
X141770545Y-113975409D01*
X141767528Y-113972557D01*
X140530734Y-112735763D01*
X140513428Y-112718456D01*
X140511595Y-112716557D01*
X140171838Y-112351631D01*
X140168379Y-112347639D01*
X139906320Y-112022445D01*
X139856356Y-111960444D01*
X139853194Y-111956220D01*
X139804764Y-111886468D01*
X139569585Y-111547747D01*
X139566734Y-111543310D01*
X139552107Y-111518658D01*
X139432298Y-111316730D01*
X139424238Y-111260669D01*
X139458179Y-111215329D01*
X139514240Y-111207269D01*
X139555178Y-111234623D01*
G37*
%TD.AperFunction*%
%TA.AperFunction,Conductor*%
G36*
X143982909Y-112473387D02*
G01*
X143992490Y-112474649D01*
X144180964Y-112512140D01*
X144190311Y-112514644D01*
X144372280Y-112576416D01*
X144381218Y-112580119D01*
X144553563Y-112665111D01*
X144561927Y-112669940D01*
X144721714Y-112776707D01*
X144729384Y-112782592D01*
X144781048Y-112827900D01*
X144874179Y-112909574D01*
X144880565Y-112915901D01*
X145058941Y-113115505D01*
X145064114Y-113121992D01*
X145219267Y-113340659D01*
X145223683Y-113347686D01*
X145353377Y-113582350D01*
X145356977Y-113589827D01*
X145432168Y-113771358D01*
X145434766Y-113820650D01*
X145338707Y-114145663D01*
X145322183Y-114166093D01*
X145306903Y-114187478D01*
X145304574Y-114187865D01*
X145303091Y-114189700D01*
X145276961Y-114192462D01*
X145251035Y-114196778D01*
X145249260Y-114195390D01*
X145246768Y-114195654D01*
X145204953Y-114163850D01*
X145203261Y-114161137D01*
X145178050Y-114111658D01*
X145163037Y-114096645D01*
X145158559Y-114089465D01*
X145158450Y-114088812D01*
X145156790Y-114086414D01*
X145156658Y-114086238D01*
X145156613Y-114086157D01*
X144837841Y-113625447D01*
X144830326Y-113611659D01*
X144828471Y-113607181D01*
X144783052Y-113497521D01*
X144674620Y-113309696D01*
X144603874Y-113217492D01*
X144542600Y-113137633D01*
X144499984Y-113095015D01*
X144499984Y-113095014D01*
X144499982Y-113095012D01*
X144493891Y-113088921D01*
X144493891Y-113088920D01*
X144462929Y-113057958D01*
X144434161Y-113029188D01*
X144434157Y-113029179D01*
X144330514Y-112925536D01*
X144146589Y-112784407D01*
X144146583Y-112784403D01*
X143945804Y-112668484D01*
X143945801Y-112668483D01*
X143793367Y-112605343D01*
X143753319Y-112565295D01*
X143753319Y-112508657D01*
X143793367Y-112468609D01*
X143826523Y-112463135D01*
X143982909Y-112473387D01*
G37*
%TD.AperFunction*%
%TA.AperFunction,Conductor*%
G36*
X141169780Y-103717107D02*
G01*
X141194830Y-103767903D01*
X141186923Y-103806336D01*
X141154335Y-103870295D01*
X141139353Y-103899698D01*
X141124500Y-103993480D01*
X141124500Y-104456519D01*
X141139353Y-104550304D01*
X141139354Y-104550306D01*
X141196950Y-104663342D01*
X141232069Y-104698461D01*
X141241209Y-104709583D01*
X141486971Y-105076263D01*
X141499500Y-105117460D01*
X141499500Y-106825941D01*
X141492204Y-106857982D01*
X141328503Y-107198780D01*
X141324947Y-107206598D01*
X141324567Y-107207484D01*
X141323229Y-107214471D01*
X141317032Y-107233048D01*
X141309428Y-107248601D01*
X141309427Y-107248604D01*
X141299500Y-107316737D01*
X141299500Y-108558264D01*
X141309427Y-108626393D01*
X141309427Y-108626394D01*
X141360801Y-108731482D01*
X141360802Y-108731483D01*
X141443517Y-108814198D01*
X141548607Y-108865573D01*
X141616740Y-108875500D01*
X141616746Y-108875500D01*
X141983254Y-108875500D01*
X141983260Y-108875500D01*
X142051393Y-108865573D01*
X142156483Y-108814198D01*
X142239198Y-108731483D01*
X142290573Y-108626393D01*
X142300500Y-108558260D01*
X142300500Y-107316740D01*
X142290573Y-107248607D01*
X142290572Y-107248604D01*
X142290572Y-107248603D01*
X142280639Y-107228288D01*
X142275446Y-107214201D01*
X142271472Y-107198730D01*
X142124729Y-106893234D01*
X142107796Y-106857983D01*
X142100500Y-106825942D01*
X142100500Y-105117460D01*
X142113027Y-105076265D01*
X142358839Y-104709506D01*
X142360088Y-104707706D01*
X142363626Y-104702764D01*
X142403050Y-104663342D01*
X142430661Y-104609151D01*
X142433900Y-104604629D01*
X142453574Y-104592384D01*
X142471197Y-104577334D01*
X142477023Y-104577792D01*
X142481986Y-104574704D01*
X142504556Y-104579959D01*
X142527660Y-104581777D01*
X142531456Y-104586221D01*
X142537148Y-104587547D01*
X142549392Y-104607221D01*
X142564443Y-104624844D01*
X142565127Y-104627066D01*
X142571845Y-104650191D01*
X142652228Y-104786111D01*
X142763888Y-104897771D01*
X142899808Y-104978154D01*
X142904227Y-104979438D01*
X142948428Y-105014851D01*
X142954643Y-105071146D01*
X142919230Y-105115347D01*
X142883581Y-105124500D01*
X142566735Y-105124500D01*
X142498606Y-105134427D01*
X142498605Y-105134427D01*
X142393517Y-105185801D01*
X142310801Y-105268517D01*
X142259427Y-105373605D01*
X142259427Y-105373606D01*
X142249500Y-105441735D01*
X142249500Y-106683264D01*
X142259427Y-106751393D01*
X142259427Y-106751394D01*
X142310801Y-106856482D01*
X142310802Y-106856483D01*
X142393517Y-106939198D01*
X142498607Y-106990573D01*
X142566740Y-107000500D01*
X142566746Y-107000500D01*
X142933254Y-107000500D01*
X142933260Y-107000500D01*
X143001393Y-106990573D01*
X143106483Y-106939198D01*
X143189198Y-106856483D01*
X143240573Y-106751393D01*
X143250500Y-106683260D01*
X143250500Y-106515416D01*
X143253415Y-106508377D01*
X143251937Y-106500903D01*
X143263927Y-106482997D01*
X143272174Y-106463090D01*
X143283452Y-106453844D01*
X143401077Y-106375428D01*
X143442125Y-106363000D01*
X144367728Y-106363000D01*
X144420054Y-106384674D01*
X144441728Y-106437000D01*
X144420054Y-106489326D01*
X144176361Y-106733019D01*
X144131815Y-106799687D01*
X144110144Y-106852006D01*
X144110141Y-106852016D01*
X144094500Y-106930653D01*
X144094500Y-111145500D01*
X144072826Y-111197826D01*
X144020500Y-111219500D01*
X142955173Y-111219500D01*
X142951023Y-111219384D01*
X142692703Y-111204875D01*
X142684457Y-111203945D01*
X142431464Y-111160959D01*
X142423374Y-111159113D01*
X142176768Y-111088066D01*
X142168935Y-111085325D01*
X141931834Y-110987114D01*
X141924358Y-110983513D01*
X141699757Y-110859380D01*
X141692730Y-110854965D01*
X141559710Y-110760582D01*
X141483426Y-110706455D01*
X141476947Y-110701288D01*
X141382534Y-110616915D01*
X141285076Y-110529820D01*
X141280046Y-110524874D01*
X140989297Y-110210343D01*
X140985524Y-110205925D01*
X140719931Y-109869022D01*
X140716515Y-109864321D01*
X140578762Y-109658160D01*
X140478163Y-109507603D01*
X140475131Y-109502655D01*
X140459920Y-109475494D01*
X140265503Y-109128337D01*
X140262869Y-109123167D01*
X140235301Y-109063368D01*
X140083253Y-108733548D01*
X140081033Y-108728187D01*
X140061056Y-108674038D01*
X139932547Y-108325698D01*
X139930753Y-108320178D01*
X139814294Y-107907246D01*
X139812947Y-107901630D01*
X139781836Y-107745225D01*
X139792885Y-107689678D01*
X139839977Y-107658212D01*
X139873567Y-107659312D01*
X139933979Y-107675499D01*
X139933980Y-107675500D01*
X139933982Y-107675500D01*
X140046020Y-107675500D01*
X140046020Y-107675499D01*
X140154237Y-107646503D01*
X140251263Y-107590485D01*
X140330485Y-107511263D01*
X140345507Y-107485243D01*
X140352511Y-107475151D01*
X140364122Y-107461084D01*
X140529008Y-107154625D01*
X140561537Y-107123274D01*
X140795957Y-107008085D01*
X140828592Y-107000500D01*
X141033254Y-107000500D01*
X141033260Y-107000500D01*
X141101393Y-106990573D01*
X141206483Y-106939198D01*
X141289198Y-106856483D01*
X141340573Y-106751393D01*
X141350500Y-106683260D01*
X141350500Y-105441740D01*
X141340573Y-105373607D01*
X141289198Y-105268517D01*
X141206483Y-105185802D01*
X141206482Y-105185801D01*
X141101394Y-105134427D01*
X141033264Y-105124500D01*
X141033260Y-105124500D01*
X140666740Y-105124500D01*
X140666735Y-105124500D01*
X140598606Y-105134427D01*
X140598605Y-105134427D01*
X140493517Y-105185801D01*
X140410801Y-105268517D01*
X140359427Y-105373605D01*
X140359427Y-105373606D01*
X140349500Y-105441735D01*
X140349500Y-105919215D01*
X140345844Y-105942187D01*
X140105974Y-106676693D01*
X140070692Y-106718887D01*
X139778142Y-106876292D01*
X139777979Y-106875990D01*
X139722709Y-106882835D01*
X139678042Y-106848013D01*
X139668467Y-106814411D01*
X139667888Y-106799685D01*
X139660557Y-106613068D01*
X139660500Y-106610163D01*
X139660500Y-104474210D01*
X139682174Y-104421884D01*
X139734500Y-104400210D01*
X139753653Y-104402732D01*
X139759938Y-104404416D01*
X139763981Y-104405500D01*
X139763982Y-104405500D01*
X139876020Y-104405500D01*
X139876020Y-104405499D01*
X139984237Y-104376503D01*
X140081263Y-104320485D01*
X140160485Y-104241263D01*
X140166402Y-104231012D01*
X140178116Y-104215731D01*
X140184518Y-104209320D01*
X140361132Y-103944499D01*
X140381569Y-103924042D01*
X140381635Y-103923998D01*
X140383407Y-103922813D01*
X140391770Y-103917983D01*
X140584177Y-103823098D01*
X140593091Y-103819406D01*
X140796216Y-103750453D01*
X140805554Y-103747951D01*
X141015935Y-103706102D01*
X141025501Y-103704842D01*
X141116148Y-103698901D01*
X141169780Y-103717107D01*
G37*
%TD.AperFunction*%
%TA.AperFunction,Conductor*%
G36*
X144396596Y-103821891D02*
G01*
X144400868Y-103825839D01*
X145596090Y-105021061D01*
X145596100Y-105021072D01*
X145598678Y-105023650D01*
X145598679Y-105023651D01*
X145610651Y-105035623D01*
X145610660Y-105035645D01*
X145632327Y-105057311D01*
X145632327Y-105057312D01*
X145689870Y-105114854D01*
X145711545Y-105167179D01*
X145689872Y-105219505D01*
X145689871Y-105219506D01*
X145419016Y-105490362D01*
X145419014Y-105490364D01*
X145374468Y-105557033D01*
X145352794Y-105609359D01*
X145352794Y-105609361D01*
X145337475Y-105676473D01*
X145337271Y-105683763D01*
X145335475Y-105683712D01*
X145324727Y-105730818D01*
X145276773Y-105760954D01*
X145264373Y-105762000D01*
X143442126Y-105762000D01*
X143401078Y-105749572D01*
X143283452Y-105671154D01*
X143251937Y-105624094D01*
X143250500Y-105609582D01*
X143250500Y-105441746D01*
X143250500Y-105441740D01*
X143240573Y-105373607D01*
X143189198Y-105268517D01*
X143106483Y-105185802D01*
X143106482Y-105185801D01*
X143064916Y-105165481D01*
X143027426Y-105123028D01*
X143030935Y-105066500D01*
X143073388Y-105029010D01*
X143097416Y-105025000D01*
X143200000Y-105025000D01*
X143600000Y-105025000D01*
X143713110Y-105025000D01*
X143748551Y-105022210D01*
X143900191Y-104978154D01*
X144036111Y-104897771D01*
X144147771Y-104786111D01*
X144228154Y-104650191D01*
X144272210Y-104498551D01*
X144275000Y-104463110D01*
X144275000Y-104375000D01*
X143600000Y-104375000D01*
X143600000Y-105025000D01*
X143200000Y-105025000D01*
X143200000Y-104249000D01*
X143221674Y-104196674D01*
X143274000Y-104175000D01*
X143400000Y-104175000D01*
X143400000Y-104049000D01*
X143421674Y-103996674D01*
X143474000Y-103975000D01*
X144275000Y-103975000D01*
X144275000Y-103886886D01*
X144274999Y-103886880D01*
X144274771Y-103883977D01*
X144292268Y-103830111D01*
X144342730Y-103804394D01*
X144396596Y-103821891D01*
G37*
%TD.AperFunction*%
%TA.AperFunction,Conductor*%
G36*
X155038374Y-96532521D02*
G01*
X155075505Y-96542469D01*
X155093353Y-96549862D01*
X155126646Y-96569084D01*
X155141972Y-96580844D01*
X155169154Y-96608026D01*
X155180914Y-96623352D01*
X155200135Y-96656644D01*
X155207527Y-96674491D01*
X155216825Y-96709189D01*
X155217475Y-96711613D01*
X155220000Y-96730779D01*
X155220000Y-96769218D01*
X155217478Y-96788371D01*
X155207527Y-96825507D01*
X155200135Y-96843354D01*
X155180914Y-96876646D01*
X155169154Y-96891972D01*
X155141972Y-96919154D01*
X155126646Y-96930914D01*
X155093352Y-96950136D01*
X155075506Y-96957528D01*
X155047707Y-96964977D01*
X155038374Y-96967478D01*
X155019222Y-96970000D01*
X154980778Y-96970000D01*
X154961627Y-96967478D01*
X154935374Y-96960443D01*
X154924490Y-96957527D01*
X154906646Y-96950135D01*
X154873353Y-96930914D01*
X154858026Y-96919154D01*
X154830844Y-96891972D01*
X154819084Y-96876646D01*
X154799863Y-96843354D01*
X154792470Y-96825505D01*
X154782521Y-96788372D01*
X154780000Y-96769221D01*
X154780000Y-96730776D01*
X154782521Y-96711625D01*
X154787588Y-96692712D01*
X154792471Y-96674489D01*
X154799863Y-96656644D01*
X154819087Y-96623346D01*
X154830840Y-96608029D01*
X154858029Y-96580840D01*
X154873346Y-96569087D01*
X154906648Y-96549860D01*
X154924492Y-96542469D01*
X154940950Y-96538060D01*
X154961626Y-96532521D01*
X154980776Y-96530000D01*
X155019223Y-96530000D01*
X155038374Y-96532521D01*
G37*
%TD.AperFunction*%
%TD*%
%TA.AperFunction,Conductor*%
%TO.N,/SYS_PWR*%
G36*
X165621674Y-91621674D02*
G01*
X165978326Y-91978326D01*
X166000000Y-92030652D01*
X166000000Y-95019328D01*
X165978326Y-95071654D01*
X165959596Y-95085262D01*
X165936658Y-95096949D01*
X165846951Y-95186656D01*
X165789353Y-95299698D01*
X165774500Y-95393480D01*
X165774500Y-96006519D01*
X165789353Y-96100303D01*
X165811708Y-96144178D01*
X165813366Y-96147431D01*
X165822399Y-96170541D01*
X165835894Y-96191644D01*
X165837533Y-96194861D01*
X165837538Y-96194870D01*
X165846950Y-96213342D01*
X165849084Y-96215476D01*
X165859101Y-96227935D01*
X165910114Y-96307708D01*
X165920044Y-96363468D01*
X165900097Y-96399901D01*
X165503271Y-96796727D01*
X165468219Y-96816357D01*
X165341814Y-96846703D01*
X165330345Y-96848519D01*
X165193696Y-96859271D01*
X165187891Y-96859499D01*
X165137335Y-96859499D01*
X165137323Y-96859500D01*
X160087524Y-96859500D01*
X160081559Y-96859499D01*
X160081557Y-96859499D01*
X160070124Y-96859499D01*
X160064623Y-96859499D01*
X160064594Y-96859487D01*
X159920282Y-96859489D01*
X159694863Y-96889170D01*
X159694860Y-96889170D01*
X159475242Y-96948020D01*
X159265188Y-97035030D01*
X159265185Y-97035031D01*
X159088301Y-97137157D01*
X159076481Y-97143982D01*
X159068276Y-97148719D01*
X158887899Y-97287129D01*
X158835490Y-97339539D01*
X158835489Y-97339540D01*
X158807514Y-97367514D01*
X158792600Y-97382429D01*
X158661169Y-97513860D01*
X158627513Y-97547515D01*
X158596956Y-97578073D01*
X158596950Y-97578079D01*
X158528811Y-97646220D01*
X158354749Y-97864487D01*
X158206217Y-98100874D01*
X158085086Y-98352404D01*
X157992884Y-98615903D01*
X157992880Y-98615915D01*
X157930759Y-98888084D01*
X157899500Y-99165511D01*
X157899500Y-102387570D01*
X157899342Y-102392410D01*
X157885984Y-102596199D01*
X157884720Y-102605795D01*
X157845355Y-102803699D01*
X157842850Y-102813050D01*
X157777986Y-103004132D01*
X157774282Y-103013074D01*
X157726428Y-103110112D01*
X157719623Y-103123914D01*
X157702454Y-103158729D01*
X157659872Y-103196073D01*
X157636085Y-103200000D01*
X153130652Y-103200000D01*
X153078326Y-103178326D01*
X152721674Y-102821674D01*
X152700000Y-102769348D01*
X152700000Y-98530652D01*
X152721674Y-98478326D01*
X154100000Y-97100000D01*
X154100000Y-96693979D01*
X154574500Y-96693979D01*
X154574500Y-96806020D01*
X154603495Y-96914232D01*
X154603499Y-96914241D01*
X154623002Y-96948021D01*
X154659515Y-97011263D01*
X154738737Y-97090485D01*
X154835763Y-97146503D01*
X154943979Y-97175499D01*
X154943980Y-97175500D01*
X154943982Y-97175500D01*
X155056020Y-97175500D01*
X155056020Y-97175499D01*
X155164237Y-97146503D01*
X155261263Y-97090485D01*
X155340485Y-97011263D01*
X155396503Y-96914237D01*
X155425499Y-96806020D01*
X155425500Y-96806020D01*
X155425500Y-96693980D01*
X155425499Y-96693979D01*
X155415327Y-96656018D01*
X155396503Y-96585763D01*
X155340485Y-96488737D01*
X155261263Y-96409515D01*
X155244611Y-96399901D01*
X155164241Y-96353499D01*
X155164232Y-96353495D01*
X155056020Y-96324500D01*
X155056018Y-96324500D01*
X154943982Y-96324500D01*
X154943980Y-96324500D01*
X154835767Y-96353495D01*
X154835758Y-96353499D01*
X154738736Y-96409515D01*
X154659515Y-96488736D01*
X154603499Y-96585758D01*
X154603495Y-96585767D01*
X154574500Y-96693979D01*
X154100000Y-96693979D01*
X154100000Y-96400000D01*
X153700000Y-96000000D01*
X146630652Y-96000000D01*
X146578326Y-95978326D01*
X145821674Y-95221674D01*
X145800000Y-95169348D01*
X145800000Y-91830652D01*
X145821674Y-91778326D01*
X145978326Y-91621674D01*
X146030652Y-91600000D01*
X165569348Y-91600000D01*
X165621674Y-91621674D01*
G37*
%TD.AperFunction*%
%TD*%
%TA.AperFunction,Conductor*%
%TO.N,/ADAPTER_IN*%
G36*
X135721674Y-95121674D02*
G01*
X136078326Y-95478326D01*
X136100000Y-95530652D01*
X136100000Y-97869348D01*
X136078326Y-97921674D01*
X134600000Y-99400000D01*
X134600000Y-100969348D01*
X134578326Y-101021674D01*
X132921674Y-102678326D01*
X132869348Y-102700000D01*
X130730652Y-102700000D01*
X130678326Y-102678326D01*
X130321674Y-102321674D01*
X130300000Y-102269348D01*
X130300000Y-95530652D01*
X130321674Y-95478326D01*
X130678326Y-95121674D01*
X130730652Y-95100000D01*
X135669348Y-95100000D01*
X135721674Y-95121674D01*
G37*
%TD.AperFunction*%
%TD*%
%TA.AperFunction,Conductor*%
%TO.N,Net-(Q4-S)*%
G36*
X144787981Y-111886468D02*
G01*
X144789629Y-111886748D01*
X144797719Y-111888594D01*
X145077440Y-111969182D01*
X145085265Y-111971920D01*
X145354209Y-112083323D01*
X145361667Y-112086915D01*
X145616451Y-112227730D01*
X145623467Y-112232139D01*
X145860869Y-112400586D01*
X145867357Y-112405760D01*
X146084497Y-112599809D01*
X146090365Y-112605676D01*
X146279152Y-112816929D01*
X146284325Y-112823417D01*
X146448335Y-113054567D01*
X146452750Y-113061594D01*
X146589852Y-113309659D01*
X146593453Y-113317135D01*
X146618044Y-113376503D01*
X146626817Y-113397681D01*
X146626817Y-113454318D01*
X146586769Y-113494367D01*
X146558450Y-113500000D01*
X146023930Y-113500000D01*
X145971604Y-113478326D01*
X145955563Y-113454319D01*
X145946501Y-113432441D01*
X145909471Y-113343043D01*
X145882988Y-113293497D01*
X145767466Y-113077368D01*
X145767465Y-113077366D01*
X145633511Y-112876891D01*
X145600101Y-112826889D01*
X145408992Y-112594021D01*
X145408987Y-112594016D01*
X145408983Y-112594011D01*
X145346553Y-112531582D01*
X145346553Y-112531583D01*
X145336140Y-112521170D01*
X145336140Y-112521169D01*
X145302486Y-112487514D01*
X145268831Y-112453860D01*
X145268802Y-112453844D01*
X145264911Y-112449954D01*
X145217327Y-112402370D01*
X145029052Y-112252225D01*
X145029042Y-112252218D01*
X144825139Y-112124097D01*
X144825138Y-112124096D01*
X144825134Y-112124094D01*
X144608156Y-112019601D01*
X144526893Y-111991165D01*
X144484663Y-111953424D01*
X144481488Y-111896876D01*
X144519229Y-111854646D01*
X144563729Y-111848364D01*
X144787981Y-111886468D01*
G37*
%TD.AperFunction*%
%TA.AperFunction,Conductor*%
G36*
X150778326Y-106384674D02*
G01*
X150800000Y-106437000D01*
X150800000Y-112769348D01*
X150778326Y-112821674D01*
X150421674Y-113178326D01*
X150369348Y-113200000D01*
X148900000Y-113200000D01*
X148621674Y-113478326D01*
X148569348Y-113500000D01*
X147363714Y-113500000D01*
X147311388Y-113478326D01*
X147292901Y-113447483D01*
X147266928Y-113361862D01*
X147146510Y-113071150D01*
X147015947Y-112826885D01*
X146998184Y-112793652D01*
X146998176Y-112793639D01*
X146992007Y-112784406D01*
X146823358Y-112532005D01*
X146623736Y-112288766D01*
X146546141Y-112211171D01*
X146546140Y-112211169D01*
X146512486Y-112177514D01*
X146478831Y-112143860D01*
X146478793Y-112143840D01*
X146474807Y-112139855D01*
X146474806Y-112139853D01*
X146474800Y-112139848D01*
X146398857Y-112063906D01*
X146398853Y-112063902D01*
X146150429Y-111860024D01*
X145883217Y-111681478D01*
X145883212Y-111681475D01*
X145599789Y-111529980D01*
X145302889Y-111406999D01*
X145302882Y-111406996D01*
X145302879Y-111406995D01*
X145302869Y-111406991D01*
X144995352Y-111313704D01*
X144995343Y-111313702D01*
X144680147Y-111251004D01*
X144366746Y-111220133D01*
X144316797Y-111193433D01*
X144300000Y-111146489D01*
X144300000Y-106930652D01*
X144321674Y-106878326D01*
X144815326Y-106384674D01*
X144867652Y-106363000D01*
X150726000Y-106363000D01*
X150778326Y-106384674D01*
G37*
%TD.AperFunction*%
%TA.AperFunction,Conductor*%
G36*
X151521674Y-99821674D02*
G01*
X152178326Y-100478326D01*
X152200000Y-100530652D01*
X152200000Y-103000000D01*
X152800000Y-103600000D01*
X156269348Y-103600000D01*
X156321674Y-103621674D01*
X156478326Y-103778326D01*
X156500000Y-103830652D01*
X156500000Y-104331020D01*
X156478326Y-104383346D01*
X156465759Y-104393432D01*
X156164942Y-104585067D01*
X156159352Y-104588294D01*
X155834321Y-104757489D01*
X155828470Y-104760217D01*
X155489917Y-104900446D01*
X155483850Y-104902654D01*
X155134371Y-105012839D01*
X155128136Y-105014510D01*
X154770375Y-105093819D01*
X154764017Y-105094940D01*
X154400714Y-105142766D01*
X154394283Y-105143329D01*
X154025446Y-105159429D01*
X154022220Y-105159499D01*
X153999054Y-105159499D01*
X153977362Y-105159499D01*
X153977359Y-105159499D01*
X153971393Y-105159500D01*
X153971392Y-105159499D01*
X153971392Y-105159500D01*
X147332429Y-105159500D01*
X147327589Y-105159342D01*
X147099903Y-105144418D01*
X147090307Y-105143154D01*
X146868917Y-105099118D01*
X146859567Y-105096613D01*
X146645812Y-105024054D01*
X146636869Y-105020350D01*
X146434411Y-104920510D01*
X146426028Y-104915670D01*
X146332888Y-104853436D01*
X146301422Y-104806344D01*
X146300000Y-104791907D01*
X146300000Y-100630652D01*
X146321674Y-100578326D01*
X147078326Y-99821674D01*
X147130652Y-99800000D01*
X151469348Y-99800000D01*
X151521674Y-99821674D01*
G37*
%TD.AperFunction*%
%TD*%
%TA.AperFunction,Conductor*%
%TO.N,Net-(Q2-D)*%
G36*
X135721674Y-86521674D02*
G01*
X136078326Y-86878326D01*
X136100000Y-86930652D01*
X136100000Y-94324376D01*
X136078327Y-94376701D01*
X136067515Y-94387513D01*
X136042494Y-94412535D01*
X136020237Y-94434792D01*
X135986581Y-94468447D01*
X135955630Y-94499399D01*
X135955557Y-94499481D01*
X135836047Y-94618992D01*
X135703607Y-94774059D01*
X135653143Y-94799772D01*
X135647337Y-94800000D01*
X130730652Y-94800000D01*
X130678326Y-94778326D01*
X130321674Y-94421674D01*
X130300000Y-94369348D01*
X130300000Y-86930652D01*
X130321674Y-86878326D01*
X130678326Y-86521674D01*
X130730652Y-86500000D01*
X135669348Y-86500000D01*
X135721674Y-86521674D01*
G37*
%TD.AperFunction*%
%TD*%
%TA.AperFunction,Conductor*%
%TO.N,Net-(U1-SRP)*%
G36*
X157784674Y-106384674D02*
G01*
X157978326Y-106578326D01*
X158000000Y-106630652D01*
X158000000Y-114169348D01*
X157978326Y-114221674D01*
X157621674Y-114578326D01*
X157569348Y-114600000D01*
X151530652Y-114600000D01*
X151478326Y-114578326D01*
X151121674Y-114221674D01*
X151100000Y-114169348D01*
X151100000Y-106530652D01*
X151121674Y-106478326D01*
X151215326Y-106384674D01*
X151267652Y-106363000D01*
X157732348Y-106363000D01*
X157784674Y-106384674D01*
G37*
%TD.AperFunction*%
%TD*%
%TA.AperFunction,Conductor*%
%TO.N,Net-(D1-K)*%
G36*
X141807747Y-104230844D02*
G01*
X142192328Y-104570615D01*
X142196259Y-104578661D01*
X142194300Y-104585897D01*
X141903476Y-105019814D01*
X141896023Y-105024778D01*
X141893757Y-105025000D01*
X141706243Y-105025000D01*
X141697970Y-105021573D01*
X141696524Y-105019814D01*
X141405698Y-104585895D01*
X141403940Y-104577117D01*
X141407670Y-104570616D01*
X141792253Y-104230843D01*
X141800722Y-104227934D01*
X141807747Y-104230844D01*
G37*
%TD.AperFunction*%
%TD*%
%TA.AperFunction,Conductor*%
%TO.N,Net-(D1-K)*%
G36*
X141900914Y-106903427D02*
G01*
X141903187Y-106906634D01*
X142086234Y-107287708D01*
X142086728Y-107296649D01*
X142086370Y-107297547D01*
X141810682Y-107914591D01*
X141804179Y-107920746D01*
X141795227Y-107920500D01*
X141789318Y-107914591D01*
X141705123Y-107726148D01*
X141513628Y-107297545D01*
X141513383Y-107288595D01*
X141513752Y-107287736D01*
X141696813Y-106906633D01*
X141703484Y-106900660D01*
X141707359Y-106900000D01*
X141892641Y-106900000D01*
X141900914Y-106903427D01*
G37*
%TD.AperFunction*%
%TD*%
%TA.AperFunction,Conductor*%
%TO.N,GND*%
G36*
X140920677Y-100756105D02*
G01*
X140700000Y-100801000D01*
X140479323Y-100756105D01*
X140600000Y-100354323D01*
X140800000Y-100354323D01*
X140920677Y-100756105D01*
G37*
%TD.AperFunction*%
%TD*%
%TA.AperFunction,Conductor*%
%TO.N,GND*%
G36*
X137145677Y-105356105D02*
G01*
X136925000Y-105401000D01*
X136704323Y-105356105D01*
X136825000Y-104954323D01*
X137025000Y-104954323D01*
X137145677Y-105356105D01*
G37*
%TD.AperFunction*%
%TD*%
%TA.AperFunction,Conductor*%
%TO.N,GND*%
G36*
X149190707Y-113689293D02*
G01*
X149315003Y-113877081D01*
X148945570Y-114075851D01*
X148804149Y-113934430D01*
X149002919Y-113564997D01*
X149190707Y-113689293D01*
G37*
%TD.AperFunction*%
%TD*%
%TA.AperFunction,Conductor*%
%TO.N,/REGN*%
G36*
X143745006Y-102197544D02*
G01*
X144018428Y-102363931D01*
X144337645Y-102558188D01*
X144342931Y-102565416D01*
X144342690Y-102571798D01*
X144285172Y-102748836D01*
X144279733Y-102755445D01*
X143744867Y-103052997D01*
X143735971Y-103054025D01*
X143729945Y-103049958D01*
X143404643Y-102631881D01*
X143402267Y-102623247D01*
X143404646Y-102617508D01*
X143729697Y-102200348D01*
X143737485Y-102195929D01*
X143745006Y-102197544D01*
G37*
%TD.AperFunction*%
%TD*%
%TA.AperFunction,Conductor*%
%TO.N,/REGN*%
G36*
X143456170Y-102408010D02*
G01*
X143485712Y-102416883D01*
X143837344Y-102522497D01*
X143844280Y-102528157D01*
X143845677Y-102533701D01*
X143845677Y-102716298D01*
X143842250Y-102724571D01*
X143837343Y-102727503D01*
X143456170Y-102841989D01*
X143447260Y-102841087D01*
X143441599Y-102834150D01*
X143441341Y-102833127D01*
X143399474Y-102627329D01*
X143399474Y-102622668D01*
X143441340Y-102416881D01*
X143446346Y-102409459D01*
X143455136Y-102407750D01*
X143456170Y-102408010D01*
G37*
%TD.AperFunction*%
%TD*%
%TA.AperFunction,Conductor*%
%TO.N,/REGN*%
G36*
X145013232Y-102948272D02*
G01*
X145282658Y-103093234D01*
X145363716Y-103136846D01*
X145369377Y-103143783D01*
X145368475Y-103152693D01*
X145367928Y-103153607D01*
X145252020Y-103328722D01*
X145248722Y-103332020D01*
X145073607Y-103447928D01*
X145064816Y-103449637D01*
X145057393Y-103444630D01*
X145056846Y-103443716D01*
X144996042Y-103330707D01*
X144868271Y-103093233D01*
X144867370Y-103084324D01*
X144870300Y-103079419D01*
X144999416Y-102950301D01*
X145007688Y-102946875D01*
X145013232Y-102948272D01*
G37*
%TD.AperFunction*%
%TD*%
%TA.AperFunction,Conductor*%
%TO.N,Net-(U1-VCC)*%
G36*
X142656461Y-99709630D02*
G01*
X142658722Y-99712181D01*
X143072410Y-100345097D01*
X143074067Y-100353897D01*
X143072150Y-100358280D01*
X142735346Y-100831764D01*
X142727758Y-100836519D01*
X142724502Y-100836608D01*
X142538010Y-100815594D01*
X142530173Y-100811263D01*
X142529591Y-100810467D01*
X142224621Y-100353897D01*
X142173910Y-100277978D01*
X142172165Y-100269196D01*
X142174687Y-100263948D01*
X142639977Y-99711047D01*
X142647925Y-99706925D01*
X142656461Y-99709630D01*
G37*
%TD.AperFunction*%
%TD*%
%TA.AperFunction,Conductor*%
%TO.N,Net-(U1-VCC)*%
G36*
X142858117Y-99741339D02*
G01*
X142865540Y-99746346D01*
X142867249Y-99755136D01*
X142866989Y-99756170D01*
X142752503Y-100137343D01*
X142746842Y-100144280D01*
X142741298Y-100145677D01*
X142558702Y-100145677D01*
X142550429Y-100142250D01*
X142547497Y-100137343D01*
X142433010Y-99756170D01*
X142433912Y-99747260D01*
X142440849Y-99741599D01*
X142441867Y-99741343D01*
X142647670Y-99699474D01*
X142652330Y-99699474D01*
X142858117Y-99741339D01*
G37*
%TD.AperFunction*%
%TD*%
%TA.AperFunction,Conductor*%
%TO.N,Net-(U1-VCC)*%
G36*
X142246966Y-101800981D02*
G01*
X142247876Y-101801419D01*
X142413344Y-101881105D01*
X142419311Y-101887782D01*
X142419731Y-101893991D01*
X142277021Y-102591555D01*
X142272005Y-102598973D01*
X142264931Y-102600893D01*
X141806314Y-102576262D01*
X141798236Y-102572397D01*
X141796510Y-102569878D01*
X141601052Y-102184835D01*
X141600364Y-102175909D01*
X141605584Y-102169439D01*
X142235996Y-101801418D01*
X142244867Y-101800207D01*
X142246966Y-101800981D01*
G37*
%TD.AperFunction*%
%TD*%
%TA.AperFunction,Conductor*%
%TO.N,+3.3V*%
G36*
X139008947Y-96653427D02*
G01*
X139010859Y-96655943D01*
X139335406Y-97230109D01*
X139336494Y-97238997D01*
X139332410Y-97245097D01*
X138914689Y-97570401D01*
X138906056Y-97572781D01*
X138900311Y-97570401D01*
X138695332Y-97410772D01*
X138482588Y-97245096D01*
X138478167Y-97237310D01*
X138479592Y-97230111D01*
X138804141Y-96655943D01*
X138811195Y-96650427D01*
X138814326Y-96650000D01*
X139000674Y-96650000D01*
X139008947Y-96653427D01*
G37*
%TD.AperFunction*%
%TD*%
%TA.AperFunction,Conductor*%
%TO.N,+3.3V*%
G36*
X139106875Y-96008467D02*
G01*
X139106899Y-96008500D01*
X139312623Y-96291766D01*
X139314712Y-96300473D01*
X139311278Y-96307063D01*
X139170813Y-96442515D01*
X139010898Y-96596722D01*
X139002778Y-96600000D01*
X138815448Y-96600000D01*
X138807175Y-96596573D01*
X138804571Y-96592612D01*
X138691911Y-96308411D01*
X138692048Y-96299457D01*
X138695877Y-96294658D01*
X139090525Y-96005931D01*
X139099224Y-96003813D01*
X139106875Y-96008467D01*
G37*
%TD.AperFunction*%
%TD*%
%TA.AperFunction,Conductor*%
%TO.N,+3.3V*%
G36*
X136654644Y-99596970D02*
G01*
X136993758Y-99967096D01*
X136996820Y-99975511D01*
X136993758Y-99982904D01*
X136654644Y-100353029D01*
X136646528Y-100356814D01*
X136640426Y-100355403D01*
X136131109Y-100078323D01*
X136125479Y-100071359D01*
X136125000Y-100068045D01*
X136125000Y-99881954D01*
X136128427Y-99873681D01*
X136131106Y-99871678D01*
X136640426Y-99594595D01*
X136649331Y-99593653D01*
X136654644Y-99596970D01*
G37*
%TD.AperFunction*%
%TD*%
%TA.AperFunction,Conductor*%
%TO.N,+3.3V*%
G36*
X135759573Y-99594596D02*
G01*
X136268891Y-99871677D01*
X136274521Y-99878640D01*
X136275000Y-99881954D01*
X136275000Y-100068045D01*
X136271573Y-100076318D01*
X136268891Y-100078323D01*
X135759573Y-100355403D01*
X135750668Y-100356346D01*
X135745355Y-100353029D01*
X135406240Y-99982902D01*
X135403179Y-99974489D01*
X135406240Y-99967097D01*
X135745357Y-99596969D01*
X135753471Y-99593185D01*
X135759573Y-99594596D01*
G37*
%TD.AperFunction*%
%TD*%
%TA.AperFunction,Conductor*%
%TO.N,+3.3V*%
G36*
X140994476Y-96198114D02*
G01*
X141001969Y-96203019D01*
X141003121Y-96205156D01*
X141161314Y-96589381D01*
X141161295Y-96598335D01*
X141155151Y-96604569D01*
X140423707Y-96921848D01*
X140414753Y-96921996D01*
X140410778Y-96919387D01*
X140280290Y-96788899D01*
X140276863Y-96780626D01*
X140277592Y-96776562D01*
X140521565Y-96118577D01*
X140527653Y-96112014D01*
X140534707Y-96111151D01*
X140994476Y-96198114D01*
G37*
%TD.AperFunction*%
%TD*%
%TA.AperFunction,Conductor*%
%TO.N,+3.3V*%
G36*
X138914840Y-97579610D02*
G01*
X139287569Y-97869969D01*
X139332097Y-97904657D01*
X139336518Y-97912445D01*
X139334864Y-97920031D01*
X139008524Y-98448940D01*
X139001264Y-98454181D01*
X138996737Y-98454351D01*
X138909733Y-98440570D01*
X138812050Y-98425097D01*
X138804415Y-98420418D01*
X138804060Y-98419900D01*
X138480456Y-97920106D01*
X138478836Y-97911299D01*
X138483088Y-97904516D01*
X138900468Y-97579608D01*
X138909099Y-97577231D01*
X138914840Y-97579610D01*
G37*
%TD.AperFunction*%
%TD*%
%TA.AperFunction,Conductor*%
%TO.N,+3.3V*%
G36*
X137358076Y-99591612D02*
G01*
X137806806Y-99686896D01*
X137814187Y-99691967D01*
X137815185Y-99693864D01*
X137886224Y-99865363D01*
X137886224Y-99874317D01*
X137883300Y-99878484D01*
X137443999Y-100279213D01*
X137435577Y-100282257D01*
X137429352Y-100280117D01*
X137009898Y-99983046D01*
X137005127Y-99975468D01*
X137007112Y-99966736D01*
X137008029Y-99965599D01*
X137347021Y-99595158D01*
X137355133Y-99591369D01*
X137358076Y-99591612D01*
G37*
%TD.AperFunction*%
%TD*%
%TA.AperFunction,Conductor*%
%TO.N,+3.3V*%
G36*
X139226642Y-97119300D02*
G01*
X139721550Y-97253148D01*
X139728641Y-97258616D01*
X139728920Y-97259130D01*
X139813532Y-97425188D01*
X139814234Y-97434115D01*
X139811439Y-97438713D01*
X139336536Y-97920490D01*
X139328288Y-97923977D01*
X139320705Y-97921257D01*
X138914749Y-97582250D01*
X138910595Y-97574317D01*
X138912575Y-97566688D01*
X139213918Y-97124009D01*
X139221406Y-97119101D01*
X139226642Y-97119300D01*
G37*
%TD.AperFunction*%
%TD*%
%TA.AperFunction,Conductor*%
%TO.N,Net-(D3-K)*%
G36*
X143057966Y-105767810D02*
G01*
X143344790Y-105959027D01*
X143349773Y-105966466D01*
X143350000Y-105968761D01*
X143350000Y-106156238D01*
X143346573Y-106164511D01*
X143344790Y-106165973D01*
X143057967Y-106357188D01*
X143049182Y-106358926D01*
X143043218Y-106355740D01*
X142843050Y-106156238D01*
X142757313Y-106070785D01*
X142753873Y-106062519D01*
X142757285Y-106054241D01*
X143043218Y-105769258D01*
X143051496Y-105765846D01*
X143057966Y-105767810D01*
G37*
%TD.AperFunction*%
%TD*%
%TA.AperFunction,Conductor*%
%TO.N,Net-(D3-K)*%
G36*
X160665380Y-105520108D02*
G01*
X160671169Y-105526940D01*
X160671499Y-105528215D01*
X160825045Y-106295232D01*
X160823309Y-106304017D01*
X160823294Y-106304039D01*
X160387302Y-106955083D01*
X160379852Y-106960051D01*
X160371071Y-106958294D01*
X160370725Y-106958053D01*
X160044549Y-106721426D01*
X159278930Y-106166003D01*
X159274245Y-106158371D01*
X159274100Y-106156533D01*
X159274100Y-105971036D01*
X159277527Y-105962763D01*
X159282226Y-105959895D01*
X160656455Y-105519370D01*
X160665380Y-105520108D01*
G37*
%TD.AperFunction*%
%TD*%
%TA.AperFunction,Conductor*%
%TO.N,Net-(J4-Pin_2)*%
G36*
X138072491Y-101715445D02*
G01*
X138073097Y-101716470D01*
X138251175Y-102056085D01*
X138251982Y-102065003D01*
X138248945Y-102069930D01*
X138117509Y-102196986D01*
X138109179Y-102200272D01*
X138103970Y-102198950D01*
X137766515Y-102023083D01*
X137760762Y-102016220D01*
X137761546Y-102007300D01*
X137762158Y-102006261D01*
X137877993Y-101831263D01*
X137881286Y-101827970D01*
X138056279Y-101712146D01*
X138065068Y-101710438D01*
X138072491Y-101715445D01*
G37*
%TD.AperFunction*%
%TD*%
%TA.AperFunction,Conductor*%
%TO.N,Net-(J4-Pin_2)*%
G36*
X144660532Y-113732815D02*
G01*
X144664841Y-113736583D01*
X144987627Y-114203095D01*
X144989517Y-114211848D01*
X144988637Y-114214637D01*
X144659835Y-114930216D01*
X144653267Y-114936303D01*
X144644319Y-114935962D01*
X144639032Y-114931113D01*
X144268080Y-114278488D01*
X144266971Y-114269602D01*
X144267474Y-114268154D01*
X144467593Y-113796130D01*
X144473976Y-113789853D01*
X144474735Y-113789576D01*
X144651606Y-113732113D01*
X144660532Y-113732815D01*
G37*
%TD.AperFunction*%
%TD*%
%TA.AperFunction,Conductor*%
%TO.N,Net-(J4-Pin_1)*%
G36*
X137971867Y-102435859D02*
G01*
X137972758Y-102437468D01*
X138141986Y-102809195D01*
X138142295Y-102818145D01*
X138137188Y-102824175D01*
X137979006Y-102915508D01*
X137970128Y-102916677D01*
X137967352Y-102915535D01*
X137665849Y-102743281D01*
X137660366Y-102736201D01*
X137661494Y-102727318D01*
X137661891Y-102726673D01*
X137778189Y-102551112D01*
X137781477Y-102547825D01*
X137955654Y-102432558D01*
X137964443Y-102430851D01*
X137971867Y-102435859D01*
G37*
%TD.AperFunction*%
%TD*%
%TA.AperFunction,Conductor*%
%TO.N,Net-(J4-Pin_1)*%
G36*
X143006820Y-114491240D02*
G01*
X143393324Y-114941360D01*
X143396113Y-114949869D01*
X143392069Y-114957859D01*
X143392047Y-114957877D01*
X143007747Y-115286237D01*
X142999231Y-115289006D01*
X142992379Y-115286091D01*
X142590339Y-114929114D01*
X142586428Y-114921058D01*
X142586806Y-114917337D01*
X142635576Y-114735321D01*
X142640281Y-114728689D01*
X142991351Y-114489196D01*
X143000115Y-114487365D01*
X143006820Y-114491240D01*
G37*
%TD.AperFunction*%
%TD*%
%TA.AperFunction,Conductor*%
%TO.N,Net-(J4-Pin_3)*%
G36*
X139800583Y-98620302D02*
G01*
X139929697Y-98749416D01*
X139933124Y-98757689D01*
X139931727Y-98763233D01*
X139743153Y-99113716D01*
X139736216Y-99119377D01*
X139727306Y-99118475D01*
X139726392Y-99117928D01*
X139551277Y-99002020D01*
X139547979Y-98998722D01*
X139432071Y-98823607D01*
X139430362Y-98814816D01*
X139435369Y-98807393D01*
X139436271Y-98806852D01*
X139786767Y-98618271D01*
X139795676Y-98617370D01*
X139800583Y-98620302D01*
G37*
%TD.AperFunction*%
%TD*%
%TA.AperFunction,Conductor*%
%TO.N,Net-(J4-Pin_3)*%
G36*
X139372731Y-98881652D02*
G01*
X139374277Y-98882515D01*
X139548722Y-98997979D01*
X139552020Y-99001277D01*
X139668358Y-99177042D01*
X139670067Y-99185833D01*
X139665060Y-99193256D01*
X139664780Y-99193436D01*
X139332528Y-99400022D01*
X139323693Y-99401480D01*
X139318077Y-99398359D01*
X139188995Y-99269277D01*
X139185568Y-99261004D01*
X139186647Y-99256097D01*
X139357202Y-98887357D01*
X139363783Y-98881289D01*
X139372731Y-98881652D01*
G37*
%TD.AperFunction*%
%TD*%
%TA.AperFunction,Conductor*%
%TO.N,Net-(J4-Pin_3)*%
G36*
X145845873Y-113734361D02*
G01*
X145849946Y-113737610D01*
X146202551Y-114180118D01*
X146205027Y-114188723D01*
X146204263Y-114191756D01*
X145909358Y-114928389D01*
X145903102Y-114934796D01*
X145894148Y-114934903D01*
X145888325Y-114929823D01*
X145517681Y-114277786D01*
X145516573Y-114268902D01*
X145516608Y-114268779D01*
X145654297Y-113802918D01*
X145659928Y-113795956D01*
X145661647Y-113795194D01*
X145836935Y-113733859D01*
X145845873Y-113734361D01*
G37*
%TD.AperFunction*%
%TD*%
%TA.AperFunction,Conductor*%
%TO.N,Net-(J4-Pin_3)*%
G36*
X140533983Y-97672956D02*
G01*
X140995141Y-97847190D01*
X141001669Y-97853320D01*
X141002286Y-97855027D01*
X141107642Y-98237425D01*
X141106535Y-98246311D01*
X141099470Y-98251813D01*
X141098231Y-98252083D01*
X140318016Y-98378356D01*
X140309302Y-98376295D01*
X140307874Y-98375079D01*
X140177261Y-98244466D01*
X140173834Y-98236193D01*
X140175605Y-98230003D01*
X140519920Y-97677710D01*
X140527204Y-97672504D01*
X140533983Y-97672956D01*
G37*
%TD.AperFunction*%
%TD*%
%TA.AperFunction,Conductor*%
%TO.N,Net-(J4-Pin_4)*%
G36*
X138462606Y-100885369D02*
G01*
X138463153Y-100886283D01*
X138651727Y-101236766D01*
X138652629Y-101245676D01*
X138649697Y-101250583D01*
X138520583Y-101379697D01*
X138512310Y-101383124D01*
X138506766Y-101381727D01*
X138156283Y-101193153D01*
X138150622Y-101186216D01*
X138151524Y-101177306D01*
X138152061Y-101176407D01*
X138267981Y-101001274D01*
X138271274Y-100997981D01*
X138446394Y-100882070D01*
X138455183Y-100880362D01*
X138462606Y-100885369D01*
G37*
%TD.AperFunction*%
%TD*%
%TA.AperFunction,Conductor*%
%TO.N,Net-(J4-Pin_4)*%
G36*
X147164461Y-113737363D02*
G01*
X147167858Y-113740614D01*
X147193617Y-113777868D01*
X147487630Y-114203096D01*
X147489516Y-114211850D01*
X147488637Y-114214636D01*
X147159751Y-114930240D01*
X147153182Y-114936326D01*
X147144234Y-114935985D01*
X147138948Y-114931134D01*
X146768038Y-114278415D01*
X146766930Y-114269529D01*
X146767382Y-114268204D01*
X146966066Y-113784219D01*
X146972377Y-113777868D01*
X146974283Y-113777256D01*
X147155633Y-113735863D01*
X147164461Y-113737363D01*
G37*
%TD.AperFunction*%
%TD*%
%TA.AperFunction,Conductor*%
%TO.N,Net-(U1-ACDET)*%
G36*
X135502030Y-102278427D02*
G01*
X135503476Y-102280186D01*
X135794300Y-102714101D01*
X135796059Y-102722881D01*
X135792328Y-102729383D01*
X135407747Y-103069155D01*
X135399278Y-103072065D01*
X135392253Y-103069155D01*
X135007671Y-102729383D01*
X135003740Y-102721337D01*
X135005698Y-102714104D01*
X135296524Y-102280185D01*
X135303977Y-102275222D01*
X135306243Y-102275000D01*
X135493757Y-102275000D01*
X135502030Y-102278427D01*
G37*
%TD.AperFunction*%
%TD*%
%TA.AperFunction,Conductor*%
%TO.N,Net-(U1-ACDET)*%
G36*
X135407747Y-101630844D02*
G01*
X135792328Y-101970615D01*
X135796259Y-101978661D01*
X135794300Y-101985897D01*
X135503476Y-102419814D01*
X135496023Y-102424778D01*
X135493757Y-102425000D01*
X135306243Y-102425000D01*
X135297970Y-102421573D01*
X135296524Y-102419814D01*
X135005698Y-101985895D01*
X135003940Y-101977117D01*
X135007670Y-101970616D01*
X135392253Y-101630843D01*
X135400722Y-101627934D01*
X135407747Y-101630844D01*
G37*
%TD.AperFunction*%
%TD*%
%TA.AperFunction,Conductor*%
%TO.N,Net-(U1-ACDET)*%
G36*
X135054644Y-102696970D02*
G01*
X135393758Y-103067096D01*
X135396820Y-103075511D01*
X135393758Y-103082904D01*
X135054644Y-103453029D01*
X135046528Y-103456814D01*
X135040426Y-103455403D01*
X134531109Y-103178323D01*
X134525479Y-103171359D01*
X134525000Y-103168045D01*
X134525000Y-102981954D01*
X134528427Y-102973681D01*
X134531106Y-102971678D01*
X135040426Y-102694595D01*
X135049331Y-102693653D01*
X135054644Y-102696970D01*
G37*
%TD.AperFunction*%
%TD*%
%TA.AperFunction,Conductor*%
%TO.N,Net-(U1-ACDET)*%
G36*
X134159573Y-102694596D02*
G01*
X134668891Y-102971677D01*
X134674521Y-102978640D01*
X134675000Y-102981954D01*
X134675000Y-103168045D01*
X134671573Y-103176318D01*
X134668891Y-103178323D01*
X134159573Y-103455403D01*
X134150668Y-103456346D01*
X134145355Y-103453029D01*
X133806240Y-103082902D01*
X133803179Y-103074489D01*
X133806240Y-103067097D01*
X134145357Y-102696969D01*
X134153471Y-102693185D01*
X134159573Y-102694596D01*
G37*
%TD.AperFunction*%
%TD*%
%TA.AperFunction,Conductor*%
%TO.N,Net-(U1-ACDET)*%
G36*
X136014881Y-100935638D02*
G01*
X136020514Y-100941000D01*
X136104214Y-101105267D01*
X136104916Y-101114194D01*
X136104755Y-101114657D01*
X135878562Y-101722937D01*
X135872467Y-101729497D01*
X135865028Y-101730274D01*
X135405203Y-101626824D01*
X135397884Y-101621665D01*
X135396860Y-101619631D01*
X135248657Y-101235968D01*
X135248873Y-101227019D01*
X135255355Y-101220841D01*
X136005931Y-100935376D01*
X136014881Y-100935638D01*
G37*
%TD.AperFunction*%
%TD*%
%TA.AperFunction,Conductor*%
%TO.N,Net-(U1-ACDET)*%
G36*
X136670627Y-100641267D02*
G01*
X136788209Y-100815626D01*
X136789994Y-100824402D01*
X136789975Y-100824495D01*
X136748310Y-101029810D01*
X136743307Y-101037236D01*
X136735136Y-101039058D01*
X136389350Y-100988035D01*
X136381666Y-100983437D01*
X136379931Y-100980076D01*
X136323544Y-100806537D01*
X136324246Y-100797609D01*
X136329645Y-100792355D01*
X136655904Y-100637241D01*
X136664846Y-100636785D01*
X136670627Y-100641267D01*
G37*
%TD.AperFunction*%
%TD*%
%TA.AperFunction,Conductor*%
%TO.N,Net-(U1-BATDRV)*%
G36*
X166382900Y-95708220D02*
G01*
X166383328Y-95708715D01*
X166710726Y-96109450D01*
X166713306Y-96118024D01*
X166711143Y-96123712D01*
X166417084Y-96529979D01*
X166409457Y-96534672D01*
X166401756Y-96533251D01*
X166240165Y-96439950D01*
X166236158Y-96436121D01*
X165995527Y-96059829D01*
X165993957Y-96051013D01*
X165997486Y-96044894D01*
X166366371Y-95707483D01*
X166374788Y-95704429D01*
X166382900Y-95708220D01*
G37*
%TD.AperFunction*%
%TD*%
%TA.AperFunction,Conductor*%
%TO.N,Net-(U1-BATDRV)*%
G36*
X140123101Y-103624542D02*
G01*
X140214314Y-103782527D01*
X140215483Y-103791405D01*
X140213916Y-103794869D01*
X140013552Y-104095299D01*
X140006111Y-104100280D01*
X139997357Y-104098561D01*
X139901270Y-104034910D01*
X139821115Y-103981812D01*
X139817823Y-103978519D01*
X139702795Y-103804702D01*
X139701087Y-103795911D01*
X139706095Y-103788488D01*
X139708020Y-103787459D01*
X140108447Y-103619601D01*
X140117400Y-103619564D01*
X140123101Y-103624542D01*
G37*
%TD.AperFunction*%
%TD*%
%TA.AperFunction,Conductor*%
%TO.N,Net-(U1-ILIM)*%
G36*
X137007747Y-101630844D02*
G01*
X137392328Y-101970615D01*
X137396259Y-101978661D01*
X137394300Y-101985897D01*
X137103476Y-102419814D01*
X137096023Y-102424778D01*
X137093757Y-102425000D01*
X136906243Y-102425000D01*
X136897970Y-102421573D01*
X136896524Y-102419814D01*
X136605698Y-101985895D01*
X136603940Y-101977117D01*
X136607670Y-101970616D01*
X136992253Y-101630843D01*
X137000722Y-101627934D01*
X137007747Y-101630844D01*
G37*
%TD.AperFunction*%
%TD*%
%TA.AperFunction,Conductor*%
%TO.N,Net-(U1-ILIM)*%
G36*
X137102030Y-102278427D02*
G01*
X137103476Y-102280186D01*
X137394300Y-102714101D01*
X137396059Y-102722881D01*
X137392328Y-102729383D01*
X137007747Y-103069155D01*
X136999278Y-103072065D01*
X136992253Y-103069155D01*
X136607671Y-102729383D01*
X136603740Y-102721337D01*
X136605698Y-102714104D01*
X136896524Y-102280185D01*
X136903977Y-102275222D01*
X136906243Y-102275000D01*
X137093757Y-102275000D01*
X137102030Y-102278427D01*
G37*
%TD.AperFunction*%
%TD*%
%TA.AperFunction,Conductor*%
%TO.N,Net-(U1-ILIM)*%
G36*
X137099571Y-102632750D02*
G01*
X137102503Y-102637657D01*
X137216989Y-103018829D01*
X137216087Y-103027739D01*
X137209150Y-103033400D01*
X137208116Y-103033660D01*
X137002332Y-103075525D01*
X136997668Y-103075525D01*
X136791883Y-103033660D01*
X136784459Y-103028653D01*
X136782750Y-103019863D01*
X136783010Y-103018829D01*
X136897497Y-102637657D01*
X136903158Y-102630720D01*
X136908702Y-102629323D01*
X137091298Y-102629323D01*
X137099571Y-102632750D01*
G37*
%TD.AperFunction*%
%TD*%
%TA.AperFunction,Conductor*%
%TO.N,/ADAPTER_IN*%
G36*
X135407747Y-104730844D02*
G01*
X135792328Y-105070615D01*
X135796259Y-105078661D01*
X135794300Y-105085897D01*
X135503476Y-105519814D01*
X135496023Y-105524778D01*
X135493757Y-105525000D01*
X135306243Y-105525000D01*
X135297970Y-105521573D01*
X135296524Y-105519814D01*
X135005698Y-105085895D01*
X135003940Y-105077117D01*
X135007670Y-105070616D01*
X135392253Y-104730843D01*
X135400722Y-104727934D01*
X135407747Y-104730844D01*
G37*
%TD.AperFunction*%
%TD*%
%TA.AperFunction,Conductor*%
%TO.N,/ADAPTER_IN*%
G36*
X138460034Y-93813624D02*
G01*
X138870047Y-93996813D01*
X139077091Y-94089318D01*
X139083246Y-94095821D01*
X139083000Y-94104773D01*
X139077091Y-94110682D01*
X138460047Y-94386370D01*
X138451095Y-94386616D01*
X138450216Y-94386237D01*
X138297580Y-94312919D01*
X138069134Y-94203186D01*
X138063160Y-94196515D01*
X138062500Y-94192640D01*
X138062500Y-94007359D01*
X138065927Y-93999086D01*
X138069132Y-93996814D01*
X138450211Y-93813764D01*
X138459149Y-93813271D01*
X138460034Y-93813624D01*
G37*
%TD.AperFunction*%
%TD*%
%TA.AperFunction,Conductor*%
%TO.N,/ADAPTER_IN*%
G36*
X140840881Y-106059088D02*
G01*
X140847948Y-106064587D01*
X140849376Y-106071896D01*
X140754275Y-106793789D01*
X140749797Y-106801544D01*
X140747835Y-106802762D01*
X140422728Y-106962514D01*
X140413791Y-106963087D01*
X140409295Y-106960286D01*
X140278872Y-106829863D01*
X140275445Y-106821590D01*
X140276022Y-106817961D01*
X140546535Y-105989619D01*
X140552360Y-105982821D01*
X140560760Y-105981974D01*
X140840881Y-106059088D01*
G37*
%TD.AperFunction*%
%TD*%
%TA.AperFunction,Conductor*%
%TO.N,/ADAPTER_IN*%
G36*
X140240583Y-106870302D02*
G01*
X140369697Y-106999416D01*
X140373124Y-107007689D01*
X140371727Y-107013233D01*
X140183153Y-107363716D01*
X140176216Y-107369377D01*
X140167306Y-107368475D01*
X140166392Y-107367928D01*
X139991277Y-107252020D01*
X139987979Y-107248722D01*
X139872071Y-107073607D01*
X139870362Y-107064816D01*
X139875369Y-107057393D01*
X139876271Y-107056852D01*
X140226767Y-106868271D01*
X140235676Y-106867370D01*
X140240583Y-106870302D01*
G37*
%TD.AperFunction*%
%TD*%
%TA.AperFunction,Conductor*%
%TO.N,/ADAPTER_IN*%
G36*
X135499378Y-106581909D02*
G01*
X135502379Y-106587053D01*
X135941712Y-108169841D01*
X135940622Y-108178729D01*
X135935669Y-108183436D01*
X134710107Y-108795948D01*
X134701174Y-108796581D01*
X134694599Y-108791074D01*
X134040636Y-107589293D01*
X134039692Y-107580388D01*
X134043642Y-107574534D01*
X135296806Y-106581013D01*
X135304075Y-106578482D01*
X135491105Y-106578482D01*
X135499378Y-106581909D01*
G37*
%TD.AperFunction*%
%TD*%
%TA.AperFunction,Conductor*%
%TO.N,/ADAPTER_IN*%
G36*
X134821303Y-97863885D02*
G01*
X134920677Y-98256105D01*
X134699913Y-98300996D01*
X134479323Y-98256105D01*
X134622065Y-97846454D01*
X134821303Y-97863885D01*
G37*
%TD.AperFunction*%
%TD*%
M02*
