%TF.GenerationSoftware,KiCad,Pcbnew,9.0.1*%
%TF.CreationDate,2025-04-26T18:30:10+02:00*%
%TF.ProjectId,BatteryCharger,42617474-6572-4794-9368-61726765722e,rev?*%
%TF.SameCoordinates,Original*%
%TF.FileFunction,Copper,L1,Top*%
%TF.FilePolarity,Positive*%
%FSLAX46Y46*%
G04 Gerber Fmt 4.6, Leading zero omitted, Abs format (unit mm)*
G04 Created by KiCad (PCBNEW 9.0.1) date 2025-04-26 18:30:10*
%MOMM*%
%LPD*%
G01*
G04 APERTURE LIST*
G04 Aperture macros list*
%AMRoundRect*
0 Rectangle with rounded corners*
0 $1 Rounding radius*
0 $2 $3 $4 $5 $6 $7 $8 $9 X,Y pos of 4 corners*
0 Add a 4 corners polygon primitive as box body*
4,1,4,$2,$3,$4,$5,$6,$7,$8,$9,$2,$3,0*
0 Add four circle primitives for the rounded corners*
1,1,$1+$1,$2,$3*
1,1,$1+$1,$4,$5*
1,1,$1+$1,$6,$7*
1,1,$1+$1,$8,$9*
0 Add four rect primitives between the rounded corners*
20,1,$1+$1,$2,$3,$4,$5,0*
20,1,$1+$1,$4,$5,$6,$7,0*
20,1,$1+$1,$6,$7,$8,$9,0*
20,1,$1+$1,$8,$9,$2,$3,0*%
%AMFreePoly0*
4,1,53,0.519509,1.693079,0.555557,1.678147,0.583147,1.650557,0.598079,1.614509,0.600000,1.595000,0.600000,-1.495000,0.598079,-1.514509,0.583147,-1.550557,0.555557,-1.578147,0.519509,-1.593079,0.500000,-1.595000,-0.437500,-1.595000,-0.499686,-1.582630,-0.552405,-1.547405,-0.587630,-1.494686,-0.600000,-1.432500,-0.600000,-1.107500,-0.587630,-1.045314,-0.552405,-0.992595,-0.499686,-0.957370,
-0.437500,-0.945000,-0.100000,-0.945000,-0.100000,-0.325000,-0.437500,-0.325000,-0.499686,-0.312630,-0.552405,-0.277405,-0.587630,-0.224686,-0.600000,-0.162500,-0.600000,0.162500,-0.587630,0.224686,-0.552405,0.277405,-0.499686,0.312630,-0.437500,0.325000,-0.100000,0.325000,-0.100000,0.945000,-0.437500,0.945000,-0.499686,0.957370,-0.552405,0.992595,-0.587630,1.045314,-0.600000,1.107500,
-0.600000,1.432500,-0.587630,1.494686,-0.552405,1.547405,-0.499686,1.582630,-0.437500,1.595000,-0.100000,1.595000,-0.098079,1.614509,-0.083147,1.650557,-0.055557,1.678147,-0.019509,1.693079,0.000000,1.695000,0.500000,1.695000,0.519509,1.693079,0.519509,1.693079,$1*%
G04 Aperture macros list end*
%TA.AperFunction,SMDPad,CuDef*%
%ADD10RoundRect,0.225000X0.225000X0.250000X-0.225000X0.250000X-0.225000X-0.250000X0.225000X-0.250000X0*%
%TD*%
%TA.AperFunction,SMDPad,CuDef*%
%ADD11RoundRect,0.825000X-0.825000X-2.775000X0.825000X-2.775000X0.825000X2.775000X-0.825000X2.775000X0*%
%TD*%
%TA.AperFunction,SMDPad,CuDef*%
%ADD12RoundRect,0.250000X-0.250000X-1.450000X0.250000X-1.450000X0.250000X1.450000X-0.250000X1.450000X0*%
%TD*%
%TA.AperFunction,SMDPad,CuDef*%
%ADD13R,0.610000X1.270000*%
%TD*%
%TA.AperFunction,SMDPad,CuDef*%
%ADD14R,3.910000X3.810000*%
%TD*%
%TA.AperFunction,SMDPad,CuDef*%
%ADD15R,0.610000X1.020000*%
%TD*%
%TA.AperFunction,SMDPad,CuDef*%
%ADD16RoundRect,0.150000X-0.150000X0.350000X-0.150000X-0.350000X0.150000X-0.350000X0.150000X0.350000X0*%
%TD*%
%TA.AperFunction,SMDPad,CuDef*%
%ADD17R,0.626000X0.610000*%
%TD*%
%TA.AperFunction,SMDPad,CuDef*%
%ADD18R,4.061000X4.200000*%
%TD*%
%TA.AperFunction,SMDPad,CuDef*%
%ADD19R,0.500000X0.510000*%
%TD*%
%TA.AperFunction,SMDPad,CuDef*%
%ADD20RoundRect,0.250000X0.250000X0.475000X-0.250000X0.475000X-0.250000X-0.475000X0.250000X-0.475000X0*%
%TD*%
%TA.AperFunction,SMDPad,CuDef*%
%ADD21O,0.240000X0.700000*%
%TD*%
%TA.AperFunction,SMDPad,CuDef*%
%ADD22O,0.700000X0.240000*%
%TD*%
%TA.AperFunction,SMDPad,CuDef*%
%ADD23R,2.049999X2.049999*%
%TD*%
%TA.AperFunction,SMDPad,CuDef*%
%ADD24RoundRect,0.250000X-1.100000X0.325000X-1.100000X-0.325000X1.100000X-0.325000X1.100000X0.325000X0*%
%TD*%
%TA.AperFunction,SMDPad,CuDef*%
%ADD25RoundRect,0.200000X-0.275000X0.200000X-0.275000X-0.200000X0.275000X-0.200000X0.275000X0.200000X0*%
%TD*%
%TA.AperFunction,SMDPad,CuDef*%
%ADD26RoundRect,0.225000X0.250000X-0.225000X0.250000X0.225000X-0.250000X0.225000X-0.250000X-0.225000X0*%
%TD*%
%TA.AperFunction,SMDPad,CuDef*%
%ADD27RoundRect,0.250000X-0.475000X0.250000X-0.475000X-0.250000X0.475000X-0.250000X0.475000X0.250000X0*%
%TD*%
%TA.AperFunction,SMDPad,CuDef*%
%ADD28FreePoly0,90.000000*%
%TD*%
%TA.AperFunction,SMDPad,CuDef*%
%ADD29RoundRect,0.162500X0.162500X-0.437500X0.162500X0.437500X-0.162500X0.437500X-0.162500X-0.437500X0*%
%TD*%
%TA.AperFunction,SMDPad,CuDef*%
%ADD30R,4.700000X4.500000*%
%TD*%
%TA.AperFunction,SMDPad,CuDef*%
%ADD31RoundRect,0.175000X0.175000X-0.325000X0.175000X0.325000X-0.175000X0.325000X-0.175000X-0.325000X0*%
%TD*%
%TA.AperFunction,SMDPad,CuDef*%
%ADD32RoundRect,0.250000X-0.250000X0.250000X-0.250000X-0.250000X0.250000X-0.250000X0.250000X0.250000X0*%
%TD*%
%TA.AperFunction,SMDPad,CuDef*%
%ADD33RoundRect,0.250000X-0.300000X0.300000X-0.300000X-0.300000X0.300000X-0.300000X0.300000X0.300000X0*%
%TD*%
%TA.AperFunction,SMDPad,CuDef*%
%ADD34RoundRect,0.225000X-0.250000X0.225000X-0.250000X-0.225000X0.250000X-0.225000X0.250000X0.225000X0*%
%TD*%
%TA.AperFunction,SMDPad,CuDef*%
%ADD35RoundRect,0.207317X-0.892683X-0.217683X0.892683X-0.217683X0.892683X0.217683X-0.892683X0.217683X0*%
%TD*%
%TA.AperFunction,SMDPad,CuDef*%
%ADD36RoundRect,0.225000X-0.225000X-0.250000X0.225000X-0.250000X0.225000X0.250000X-0.225000X0.250000X0*%
%TD*%
%TA.AperFunction,ComponentPad*%
%ADD37C,3.500000*%
%TD*%
%TA.AperFunction,ComponentPad*%
%ADD38C,2.800000*%
%TD*%
%TA.AperFunction,ComponentPad*%
%ADD39C,3.000000*%
%TD*%
%TA.AperFunction,ComponentPad*%
%ADD40C,1.600000*%
%TD*%
%TA.AperFunction,ComponentPad*%
%ADD41C,1.800000*%
%TD*%
%TA.AperFunction,ViaPad*%
%ADD42C,0.450000*%
%TD*%
%TA.AperFunction,Conductor*%
%ADD43C,0.150000*%
%TD*%
%TA.AperFunction,Conductor*%
%ADD44C,5.000000*%
%TD*%
%TA.AperFunction,Conductor*%
%ADD45C,0.200000*%
%TD*%
%TA.AperFunction,Conductor*%
%ADD46C,1.000000*%
%TD*%
%TA.AperFunction,Conductor*%
%ADD47C,4.500000*%
%TD*%
%TA.AperFunction,Conductor*%
%ADD48C,4.000000*%
%TD*%
%TA.AperFunction,Conductor*%
%ADD49C,0.800000*%
%TD*%
%TA.AperFunction,Conductor*%
%ADD50C,0.500000*%
%TD*%
G04 APERTURE END LIST*
D10*
%TO.P,C9,1*%
%TO.N,/SYS_PWR*%
X142975000Y-98100000D03*
%TO.P,C9,2*%
%TO.N,GND*%
X141425000Y-98100000D03*
%TD*%
D11*
%TO.P,L1,1,1*%
%TO.N,Net-(Q4-S)*%
X146850000Y-109900000D03*
%TO.P,L1,2,2*%
%TO.N,Net-(U1-SRP)*%
X152950000Y-109900000D03*
%TD*%
D10*
%TO.P,C16,1*%
%TO.N,Net-(U1-SRP)*%
X141475000Y-105400000D03*
%TO.P,C16,2*%
%TO.N,Net-(D3-K)*%
X139925000Y-105400000D03*
%TD*%
D12*
%TO.P,R2,1*%
%TO.N,Net-(Q2-D)*%
X144850000Y-93700000D03*
%TO.P,R2,2*%
%TO.N,/SYS_PWR*%
X146350000Y-93700000D03*
%TD*%
D13*
%TO.P,Q2,1,S*%
%TO.N,Net-(C1-Pad2)*%
X131495000Y-93770000D03*
%TO.P,Q2,2,S*%
X132765000Y-93770000D03*
%TO.P,Q2,3,S*%
X134035000Y-93770000D03*
%TO.P,Q2,4,G*%
%TO.N,Net-(Q1-G)*%
X135305000Y-93770000D03*
D14*
%TO.P,Q2,5,D*%
%TO.N,Net-(Q2-D)*%
X133400000Y-90410000D03*
D15*
X131495000Y-88305000D03*
X132765000Y-88305000D03*
X134035000Y-88305000D03*
X135305000Y-88305000D03*
%TD*%
D16*
%TO.P,Q5,1,S*%
%TO.N,GND*%
X151205000Y-98585000D03*
%TO.P,Q5,2,S*%
X149935000Y-98585000D03*
%TO.P,Q5,3,S*%
X148665000Y-98585000D03*
%TO.P,Q5,4,G*%
%TO.N,Net-(Q5-G)*%
X147395000Y-98585000D03*
D17*
%TO.P,Q5,5,D*%
%TO.N,Net-(Q4-S)*%
X151613000Y-101300000D03*
X146987000Y-101300000D03*
D18*
X149300000Y-102690000D03*
D19*
X151550000Y-104170000D03*
X147050000Y-104170000D03*
%TD*%
D20*
%TO.P,C11,1*%
%TO.N,Net-(C11-Pad1)*%
X139150000Y-111200000D03*
%TO.P,C11,2*%
%TO.N,GND*%
X137250000Y-111200000D03*
%TD*%
D21*
%TO.P,U1,1,ACN*%
%TO.N,/SYS_PWR*%
X141700000Y-99800000D03*
%TO.P,U1,2,ACP*%
%TO.N,Net-(Q2-D)*%
X141200000Y-99800000D03*
%TO.P,U1,3,CMSRC*%
%TO.N,Net-(U1-CMSRC)*%
X140700000Y-99800000D03*
%TO.P,U1,4,ACDRV*%
%TO.N,Net-(U1-ACDRV)*%
X140200000Y-99800000D03*
%TO.P,U1,5,ACOK*%
%TO.N,Net-(J4-Pin_3)*%
X139700000Y-99800000D03*
D22*
%TO.P,U1,6,ACDET*%
%TO.N,Net-(U1-ACDET)*%
X139000000Y-100500000D03*
%TO.P,U1,7,IOUT*%
%TO.N,Net-(J4-Pin_4)*%
X139000000Y-101000000D03*
%TO.P,U1,8,SDA*%
%TO.N,Net-(J4-Pin_2)*%
X139000000Y-101500000D03*
%TO.P,U1,9,SCL*%
%TO.N,Net-(J4-Pin_1)*%
X139000000Y-102000000D03*
%TO.P,U1,10,ILIM*%
%TO.N,Net-(U1-ILIM)*%
X139000000Y-102500000D03*
D21*
%TO.P,U1,11,BATDRV*%
%TO.N,Net-(U1-BATDRV)*%
X139700000Y-103200000D03*
%TO.P,U1,12,SRN*%
%TO.N,Net-(D3-K)*%
X140200000Y-103200000D03*
%TO.P,U1,13,SRP*%
%TO.N,Net-(U1-SRP)*%
X140700000Y-103200000D03*
%TO.P,U1,14,GND*%
%TO.N,GND*%
X141200000Y-103200000D03*
%TO.P,U1,15,LODRV*%
%TO.N,Net-(Q5-G)*%
X141700000Y-103200000D03*
D22*
%TO.P,U1,16,REGN*%
%TO.N,/REGN*%
X142400000Y-102500000D03*
%TO.P,U1,17,BTST*%
%TO.N,Net-(D2-K)*%
X142400000Y-102000000D03*
%TO.P,U1,18,HIDRV*%
%TO.N,Net-(Q4-G)*%
X142400000Y-101500000D03*
%TO.P,U1,19,PHASE*%
%TO.N,Net-(Q4-S)*%
X142400000Y-101000000D03*
%TO.P,U1,20,VCC*%
%TO.N,Net-(U1-VCC)*%
X142400000Y-100500000D03*
D23*
%TO.P,U1,21,EP*%
%TO.N,GND*%
X140700000Y-101500000D03*
%TD*%
D24*
%TO.P,C15,1*%
%TO.N,Net-(D3-K)*%
X167500000Y-104825000D03*
%TO.P,C15,2*%
%TO.N,GND*%
X167500000Y-107775000D03*
%TD*%
D10*
%TO.P,C8,1*%
%TO.N,Net-(Q2-D)*%
X142975000Y-96500000D03*
%TO.P,C8,2*%
%TO.N,GND*%
X141425000Y-96500000D03*
%TD*%
D25*
%TO.P,R5,1*%
%TO.N,Net-(C1-Pad2)*%
X140200000Y-93280000D03*
%TO.P,R5,2*%
%TO.N,Net-(U1-CMSRC)*%
X140200000Y-94930000D03*
%TD*%
D26*
%TO.P,C14,1*%
%TO.N,Net-(D2-K)*%
X144600000Y-100175000D03*
%TO.P,C14,2*%
%TO.N,Net-(Q4-S)*%
X144600000Y-98625000D03*
%TD*%
D12*
%TO.P,R11,1*%
%TO.N,Net-(U1-SRP)*%
X155850000Y-108100000D03*
%TO.P,R11,2*%
%TO.N,Net-(D3-K)*%
X157350000Y-108100000D03*
%TD*%
D27*
%TO.P,C5,1*%
%TO.N,/SYS_PWR*%
X155000000Y-94850000D03*
%TO.P,C5,2*%
%TO.N,GND*%
X155000000Y-96750000D03*
%TD*%
D28*
%TO.P,Q4,1,S*%
%TO.N,Net-(Q4-S)*%
X154765000Y-104225000D03*
D29*
%TO.P,Q4,2,G*%
%TO.N,Net-(Q4-G)*%
X157305000Y-104225000D03*
D30*
%TO.P,Q4,3,D*%
%TO.N,/SYS_PWR*%
X155400000Y-100725000D03*
D31*
X153405000Y-98475000D03*
X154735000Y-98475000D03*
X156065000Y-98475000D03*
X157395000Y-98475000D03*
%TD*%
D24*
%TO.P,C6,1*%
%TO.N,/SYS_PWR*%
X149000000Y-93925000D03*
%TO.P,C6,2*%
%TO.N,GND*%
X149000000Y-96875000D03*
%TD*%
D10*
%TO.P,C17,1*%
%TO.N,Net-(D3-K)*%
X138475000Y-105400000D03*
%TO.P,C17,2*%
%TO.N,GND*%
X136925000Y-105400000D03*
%TD*%
D32*
%TO.P,D2,1,K*%
%TO.N,Net-(D2-K)*%
X144600000Y-101750000D03*
%TO.P,D2,2,A*%
%TO.N,/REGN*%
X144600000Y-104250000D03*
%TD*%
D33*
%TO.P,D3,1,K*%
%TO.N,Net-(D3-K)*%
X161400000Y-111600000D03*
%TO.P,D3,2,A*%
%TO.N,GND*%
X161400000Y-114400000D03*
%TD*%
D34*
%TO.P,C4,1*%
%TO.N,Net-(C1-Pad2)*%
X137000000Y-93330000D03*
%TO.P,C4,2*%
%TO.N,Net-(Q1-G)*%
X137000000Y-94880000D03*
%TD*%
D26*
%TO.P,C1,1*%
%TO.N,/ADAPTER_IN*%
X137000000Y-97980000D03*
%TO.P,C1,2*%
%TO.N,Net-(C1-Pad2)*%
X137000000Y-96430000D03*
%TD*%
D34*
%TO.P,C13,1*%
%TO.N,Net-(Q3-G)*%
X167300000Y-95725000D03*
%TO.P,C13,2*%
%TO.N,Net-(D3-K)*%
X167300000Y-97275000D03*
%TD*%
D35*
%TO.P,R3,1*%
%TO.N,/ADAPTER_IN*%
X138200000Y-108175000D03*
%TO.P,R3,2*%
%TO.N,Net-(C11-Pad1)*%
X138200000Y-109425000D03*
%TD*%
D26*
%TO.P,C3,1*%
%TO.N,/ADAPTER_IN*%
X138600000Y-97980000D03*
%TO.P,C3,2*%
%TO.N,Net-(Q1-G)*%
X138600000Y-96430000D03*
%TD*%
D13*
%TO.P,Q1,1,S*%
%TO.N,Net-(C1-Pad2)*%
X135305000Y-96225000D03*
%TO.P,Q1,2,S*%
X134035000Y-96225000D03*
%TO.P,Q1,3,S*%
X132765000Y-96225000D03*
%TO.P,Q1,4,G*%
%TO.N,Net-(Q1-G)*%
X131495000Y-96225000D03*
D14*
%TO.P,Q1,5,D*%
%TO.N,/ADAPTER_IN*%
X133400000Y-99585000D03*
D15*
X135305000Y-101690000D03*
X134035000Y-101690000D03*
X132765000Y-101690000D03*
X131495000Y-101690000D03*
%TD*%
D25*
%TO.P,R7,1*%
%TO.N,Net-(Q1-G)*%
X138600000Y-93280000D03*
%TO.P,R7,2*%
%TO.N,Net-(U1-ACDRV)*%
X138600000Y-94930000D03*
%TD*%
D36*
%TO.P,C10,1*%
%TO.N,Net-(Q2-D)*%
X144825000Y-96500000D03*
%TO.P,C10,2*%
%TO.N,/SYS_PWR*%
X146375000Y-96500000D03*
%TD*%
D37*
%TO.P,J5,1,Pin_1*%
%TO.N,GND*%
X156000000Y-117500000D03*
%TD*%
D13*
%TO.P,Q3,1,S*%
%TO.N,Net-(D3-K)*%
X161795000Y-97970000D03*
%TO.P,Q3,2,S*%
X163065000Y-97970000D03*
%TO.P,Q3,3,S*%
X164335000Y-97970000D03*
%TO.P,Q3,4,G*%
%TO.N,Net-(Q3-G)*%
X165605000Y-97970000D03*
D14*
%TO.P,Q3,5,D*%
%TO.N,/SYS_PWR*%
X163700000Y-94610000D03*
D15*
X161795000Y-92505000D03*
X163065000Y-92505000D03*
X164335000Y-92505000D03*
X165605000Y-92505000D03*
%TD*%
D24*
%TO.P,C7,1*%
%TO.N,/SYS_PWR*%
X152300000Y-93925000D03*
%TO.P,C7,2*%
%TO.N,GND*%
X152300000Y-96875000D03*
%TD*%
D37*
%TO.P,J6,1,Pin_1*%
%TO.N,GND*%
X144500000Y-84700000D03*
%TD*%
D38*
%TO.P,J2,1,Pin_1*%
%TO.N,GND*%
X134700000Y-113000000D03*
%TO.P,J2,2,Pin_2*%
%TO.N,/ADAPTER_IN*%
X134700000Y-108800000D03*
%TD*%
D39*
%TO.P,J1,1,Pin_1*%
%TO.N,GND*%
X151350000Y-86400000D03*
X153650000Y-86400000D03*
%TO.P,J1,2,Pin_2*%
%TO.N,/SYS_PWR*%
X159150000Y-86400000D03*
X161450000Y-86400000D03*
D40*
%TO.P,J1,3,Pin_3*%
%TO.N,unconnected-(J1-Pin_3-Pad3)*%
X152750000Y-83025000D03*
%TO.P,J1,4,Pin_4*%
%TO.N,unconnected-(J1-Pin_4-Pad4)*%
X156400000Y-83025000D03*
%TO.P,J1,5,Pin_5*%
%TO.N,unconnected-(J1-Pin_5-Pad5)*%
X160050000Y-83025000D03*
%TO.P,J1,M*%
%TO.N,N/C*%
X149150000Y-90200000D03*
D41*
X151100000Y-90200000D03*
X161700000Y-90200000D03*
D40*
X163650000Y-90200000D03*
X149150000Y-81750000D03*
D41*
X151100000Y-81750000D03*
X161700000Y-81750000D03*
D40*
X163650000Y-81750000D03*
%TD*%
D39*
%TO.P,J3,1,Pin_1*%
%TO.N,GND*%
X164200000Y-111350000D03*
X164200000Y-109050000D03*
%TO.P,J3,2,Pin_2*%
%TO.N,Net-(D3-K)*%
X164200000Y-103550000D03*
X164200000Y-101250000D03*
D40*
%TO.P,J3,3,Pin_3*%
X160825000Y-109950000D03*
%TO.P,J3,4,Pin_4*%
X160825000Y-106300000D03*
%TO.P,J3,5,Pin_5*%
X160825000Y-102650000D03*
%TO.P,J3,M*%
%TO.N,N/C*%
X168000000Y-113550000D03*
D41*
X168000000Y-111600000D03*
X168000000Y-101000000D03*
D40*
X168000000Y-99050000D03*
X159550000Y-113550000D03*
D41*
X159550000Y-111600000D03*
X159550000Y-101000000D03*
D40*
X159550000Y-99050000D03*
%TD*%
D42*
%TO.N,Net-(U1-SRP)*%
X155800000Y-109400000D03*
X153900000Y-106900000D03*
X152000000Y-108400000D03*
X153900000Y-108400000D03*
X152000000Y-109900000D03*
X155800000Y-106800000D03*
X152000000Y-106900000D03*
X153900000Y-112900000D03*
X152000000Y-111400000D03*
X153900000Y-111400000D03*
X155800000Y-108100000D03*
X152000000Y-112900000D03*
X153900000Y-109900000D03*
%TO.N,GND*%
X151205000Y-98585000D03*
X141400000Y-101500000D03*
X140700000Y-100800000D03*
X148000000Y-96600000D03*
X148600000Y-97200000D03*
X150690000Y-96600000D03*
X140700000Y-101500000D03*
X143400000Y-104175000D03*
X143100000Y-109900000D03*
X137600000Y-99000000D03*
X145600000Y-99800000D03*
X140000000Y-101500000D03*
X140000000Y-102200000D03*
X141400000Y-100800000D03*
X148665000Y-98585000D03*
X140000000Y-100800000D03*
X142100000Y-113500000D03*
X139900000Y-106400000D03*
X136925000Y-105400000D03*
X141700000Y-95000000D03*
X144680000Y-112980000D03*
X150600000Y-97900000D03*
X152600000Y-97200000D03*
X150000000Y-97200000D03*
X140700000Y-102200000D03*
X151900000Y-97900000D03*
X149300000Y-97900000D03*
X141460000Y-96980000D03*
X153300000Y-96600000D03*
X149935000Y-98585000D03*
X151300000Y-97200000D03*
X159000000Y-102500000D03*
X143100000Y-107800000D03*
X155000000Y-96750000D03*
X149190000Y-113690000D03*
X151900000Y-96600000D03*
X149300000Y-96600000D03*
X143700000Y-101500000D03*
%TO.N,Net-(Q4-S)*%
X150950000Y-102150000D03*
X145900000Y-111400000D03*
X147800000Y-108400000D03*
X149850000Y-103250000D03*
X150950000Y-103250000D03*
X147800000Y-111400000D03*
X148030000Y-100020000D03*
X147650000Y-103250000D03*
X148750000Y-104350000D03*
X147800000Y-112900000D03*
X155900000Y-104000000D03*
X154700000Y-104000000D03*
X147650000Y-101050000D03*
X148750000Y-101050000D03*
X145900000Y-108400000D03*
X149850000Y-104350000D03*
X153500000Y-104000000D03*
X145900000Y-109900000D03*
X145900000Y-112900000D03*
X148750000Y-102150000D03*
X145900000Y-106900000D03*
X147650000Y-102150000D03*
X147800000Y-109900000D03*
X149850000Y-101050000D03*
X150950000Y-101050000D03*
X147800000Y-106900000D03*
X148750000Y-103250000D03*
X149850000Y-102150000D03*
X150950000Y-104350000D03*
X144600000Y-98625000D03*
X147650000Y-104350000D03*
%TO.N,Net-(Q2-D)*%
X132100000Y-90400000D03*
X132100000Y-89100000D03*
X134700000Y-90400000D03*
X133400000Y-91700000D03*
X133400000Y-90400000D03*
X133400000Y-89100000D03*
X134700000Y-91700000D03*
X132100000Y-91700000D03*
X134700000Y-89100000D03*
%TO.N,/SYS_PWR*%
X146100000Y-94400000D03*
X156400000Y-102700000D03*
X157400000Y-102700000D03*
X164200000Y-95100000D03*
X164200000Y-96100000D03*
X164200000Y-94100000D03*
X154400000Y-100700000D03*
X146600000Y-93700000D03*
X162200000Y-95100000D03*
X163200000Y-94100000D03*
X153400000Y-98700000D03*
X156400000Y-101700000D03*
X155400000Y-102700000D03*
X162200000Y-94100000D03*
X163200000Y-96100000D03*
X165200000Y-93100000D03*
X155400000Y-99700000D03*
X146600000Y-92300000D03*
X154400000Y-99700000D03*
X164200000Y-93100000D03*
X157400000Y-101700000D03*
X162200000Y-93100000D03*
X156400000Y-98700000D03*
X146600000Y-95100000D03*
X154400000Y-98700000D03*
X163200000Y-93100000D03*
X155400000Y-101700000D03*
X154400000Y-101700000D03*
X147100000Y-94400000D03*
X165200000Y-94100000D03*
X156400000Y-99700000D03*
X157400000Y-100700000D03*
X157400000Y-99700000D03*
X156400000Y-100700000D03*
X153400000Y-101700000D03*
X162200000Y-96100000D03*
X157400000Y-98700000D03*
X146100000Y-93000000D03*
X153400000Y-99700000D03*
X153400000Y-100700000D03*
X165200000Y-96100000D03*
X163200000Y-95100000D03*
X155400000Y-100700000D03*
X154400000Y-102700000D03*
X147100000Y-93000000D03*
X155400000Y-98700000D03*
X153400000Y-102700000D03*
X165200000Y-95100000D03*
%TO.N,Net-(Q3-G)*%
X168025000Y-95700000D03*
%TO.N,/REGN*%
X143400000Y-102625000D03*
X145250000Y-103330000D03*
%TO.N,Net-(U1-VCC)*%
X142650000Y-99700000D03*
%TO.N,Net-(J4-Pin_2)*%
X137880000Y-101830000D03*
%TO.N,Net-(J4-Pin_1)*%
X137780000Y-102550000D03*
%TO.N,Net-(J4-Pin_3)*%
X139550000Y-99000000D03*
%TO.N,Net-(J4-Pin_4)*%
X138270000Y-101000000D03*
%TO.N,Net-(U1-ACDET)*%
X136790000Y-100820000D03*
%TO.N,Net-(U1-BATDRV)*%
X139820000Y-103980000D03*
%TO.N,Net-(U1-ILIM)*%
X137000000Y-103075000D03*
%TO.N,/ADAPTER_IN*%
X134300000Y-100300000D03*
X132100000Y-98300000D03*
X134700000Y-98300000D03*
X139990000Y-107250000D03*
X134300000Y-99100000D03*
X133400000Y-99600000D03*
X133400000Y-100900000D03*
X133400000Y-98300000D03*
X132100000Y-100900000D03*
X132100000Y-99600000D03*
%TD*%
D43*
%TO.N,Net-(U1-SRP)*%
X141475000Y-105400000D02*
X140830000Y-105400000D01*
X140830000Y-105400000D02*
X140830000Y-107175299D01*
X156167383Y-109614632D02*
X156240000Y-109690000D01*
X155850000Y-108748457D02*
X155850000Y-108100000D01*
X140640000Y-103510000D02*
X140633640Y-103516361D01*
X155195114Y-114063688D02*
X155210000Y-114050000D01*
X140700000Y-103200000D02*
X140700000Y-103365148D01*
X142990000Y-112390000D02*
X143240000Y-112640000D01*
X156460000Y-111032234D02*
X156460000Y-110050000D01*
X147802863Y-114530000D02*
X154069338Y-114530000D01*
X140830000Y-104790416D02*
X140830000Y-105400000D01*
X140570000Y-103670000D02*
X140570000Y-104162721D01*
X156359059Y-109806308D02*
X156167383Y-109614632D01*
X154069338Y-114530000D02*
G75*
G03*
X155195098Y-114063672I-38J1592100D01*
G01*
X140633640Y-103516361D02*
G75*
G03*
X140570007Y-103670000I153660J-153639D01*
G01*
X140700000Y-103365148D02*
G75*
G02*
X140639986Y-103509986I-204900J48D01*
G01*
X140660000Y-104380000D02*
G75*
G02*
X140829993Y-104790416I-410400J-410400D01*
G01*
X140830000Y-107175299D02*
G75*
G03*
X142990000Y-112390000I7374700J-1D01*
G01*
X155210000Y-114050000D02*
G75*
G03*
X156460014Y-111032234I-3017800J3017800D01*
G01*
X140570000Y-104162721D02*
G75*
G03*
X140660006Y-104379994I307300J21D01*
G01*
X156240000Y-109690000D02*
G75*
G02*
X155850018Y-108748457I941500J941500D01*
G01*
X143240000Y-112640000D02*
G75*
G03*
X147802863Y-114530015I4562900J4562900D01*
G01*
X156460000Y-110050000D02*
G75*
G03*
X156359052Y-109806315I-344600J0D01*
G01*
D44*
%TO.N,GND*%
X151350000Y-86400000D02*
X148604163Y-86400000D01*
D45*
X141425000Y-98100000D02*
X141425000Y-97064497D01*
X149000000Y-96875000D02*
X147723908Y-96875000D01*
X140700000Y-101500000D02*
X140938370Y-101738370D01*
D46*
X167500000Y-107775000D02*
X167278122Y-107775000D01*
D47*
X153650000Y-86400000D02*
X151350000Y-86400000D01*
D45*
X141425000Y-96500000D02*
X141425000Y-96895503D01*
D48*
X164200000Y-109050000D02*
X164200000Y-111350000D01*
D45*
X149000000Y-96875000D02*
X147222071Y-96875000D01*
X141200000Y-103200000D02*
X141200000Y-102370000D01*
X141200000Y-103200000D02*
X141200000Y-104090000D01*
D49*
X135969670Y-111730330D02*
X134700000Y-113000000D01*
D44*
X148604163Y-86400000D02*
G75*
G02*
X144500011Y-84699989I37J5804200D01*
G01*
D46*
X167278122Y-107775000D02*
G75*
G03*
X164199993Y-109049993I-22J-4353100D01*
G01*
D45*
X141425000Y-96895503D02*
G75*
G03*
X141460001Y-96979999I119500J3D01*
G01*
X140938370Y-101738370D02*
G75*
G02*
X141199988Y-102370000I-631670J-631630D01*
G01*
D49*
X137250000Y-111200000D02*
G75*
G03*
X135969662Y-111730322I0J-1810700D01*
G01*
D45*
X141425000Y-97064497D02*
G75*
G02*
X141460001Y-96980001I119500J-3D01*
G01*
%TO.N,Net-(D2-K)*%
X144600000Y-100175000D02*
X144600000Y-101750000D01*
X142400000Y-102000000D02*
X143996447Y-102000000D01*
X143996447Y-102000000D02*
G75*
G03*
X144599986Y-101749986I-47J853600D01*
G01*
%TO.N,Net-(Q4-S)*%
X143260000Y-100238874D02*
X143260000Y-100130000D01*
X148837817Y-102227817D02*
X149300000Y-102690000D01*
X148030000Y-100020000D02*
X148030000Y-100277574D01*
X142400000Y-101000000D02*
X142484731Y-101000000D01*
X143493345Y-99566655D02*
X144318327Y-98741673D01*
X142484731Y-101000000D02*
G75*
G03*
X143039991Y-100769991I-31J785300D01*
G01*
X143040000Y-100770000D02*
G75*
G03*
X143259989Y-100238874I-531100J531100D01*
G01*
X148030000Y-100277574D02*
G75*
G03*
X148837796Y-102227838I2758100J-26D01*
G01*
X143260000Y-100130000D02*
G75*
G02*
X143493343Y-99566653I796700J0D01*
G01*
X144318327Y-98741673D02*
G75*
G02*
X144600000Y-98624987I281673J-281627D01*
G01*
%TO.N,Net-(Q1-G)*%
X131800000Y-96920000D02*
X131866655Y-96986655D01*
X136303658Y-94183657D02*
X137000000Y-94880000D01*
X138600000Y-93280000D02*
X137000000Y-94880000D01*
X138514644Y-96394645D02*
X137000000Y-94880000D01*
X131770772Y-96890771D02*
X131800000Y-96920000D01*
X132430000Y-97220000D02*
X137442305Y-97220000D01*
X138070000Y-96960000D02*
X138600000Y-96430000D01*
X135305000Y-93770000D02*
G75*
G02*
X136303654Y-94183661I0J-1412300D01*
G01*
X131495000Y-96225000D02*
G75*
G03*
X131770780Y-96890763I941500J0D01*
G01*
X131866655Y-96986655D02*
G75*
G03*
X132430000Y-97219997I563345J563355D01*
G01*
X138600000Y-96430000D02*
G75*
G02*
X138514647Y-96394642I0J120700D01*
G01*
X137442305Y-97220000D02*
G75*
G03*
X138069999Y-96959999I-5J887700D01*
G01*
D43*
%TO.N,Net-(Q2-D)*%
X145093431Y-97160000D02*
X143000000Y-97160000D01*
X145460000Y-95734558D02*
X145460000Y-96500000D01*
X143000000Y-97160000D02*
X142762842Y-97160000D01*
X144825000Y-96500000D02*
X145460000Y-96500000D01*
X145460000Y-96500000D02*
X145460000Y-96764437D01*
X142280000Y-97360000D02*
X142236777Y-97403223D01*
X141930000Y-98680000D02*
X141475772Y-99134228D01*
X144850000Y-93700000D02*
X144850000Y-94261889D01*
X142975000Y-96500000D02*
X142975000Y-97099645D01*
X145350000Y-97030000D02*
X145309498Y-97070502D01*
X142060000Y-97830000D02*
X142060000Y-98366153D01*
X142762842Y-97160000D02*
G75*
G03*
X142279987Y-97359987I-42J-682800D01*
G01*
X144850000Y-94261889D02*
G75*
G03*
X145279997Y-95300003I1468100J-11D01*
G01*
X145460000Y-96764437D02*
G75*
G02*
X145349989Y-97029989I-375600J37D01*
G01*
X142236777Y-97403223D02*
G75*
G03*
X142060014Y-97830000I426823J-426777D01*
G01*
X142975000Y-97099645D02*
G75*
G03*
X143000013Y-97159987I85400J45D01*
G01*
X142060000Y-98366153D02*
G75*
G02*
X141930014Y-98680014I-443800J-47D01*
G01*
X145280000Y-95300000D02*
G75*
G02*
X145460017Y-95734558I-434600J-434600D01*
G01*
X145309498Y-97070502D02*
G75*
G02*
X145093431Y-97160012I-216098J216102D01*
G01*
X141475772Y-99134228D02*
G75*
G03*
X141199987Y-99800000I665728J-665772D01*
G01*
%TO.N,/SYS_PWR*%
X145740000Y-95782842D02*
X145740000Y-96500000D01*
X142330000Y-97864853D02*
X142330000Y-98377158D01*
X142460000Y-97560000D02*
X142453640Y-97566360D01*
X146375000Y-96500000D02*
X145740000Y-96500000D01*
X145550000Y-97220000D02*
X145499706Y-97270294D01*
X145090000Y-97440000D02*
X143000000Y-97440000D01*
X145740000Y-96500000D02*
X145740000Y-96761300D01*
X146350000Y-93700000D02*
X146350000Y-94310173D01*
X142130000Y-98860000D02*
X141770711Y-99219289D01*
X141700000Y-99800000D02*
X141700000Y-99390000D01*
D48*
X159150000Y-86400000D02*
X161450000Y-86400000D01*
D43*
X143000000Y-97440000D02*
X142749705Y-97440000D01*
X142975000Y-98100000D02*
X142975000Y-97500355D01*
X146350000Y-94310173D02*
G75*
G02*
X145940008Y-95300008I-1399800J-27D01*
G01*
X141770711Y-99219289D02*
G75*
G03*
X141699994Y-99390000I170689J-170711D01*
G01*
X142330000Y-98377158D02*
G75*
G02*
X142130013Y-98860013I-682800J-42D01*
G01*
X145499706Y-97270294D02*
G75*
G02*
X145090000Y-97440003I-409706J409694D01*
G01*
X142975000Y-97500355D02*
G75*
G02*
X143000013Y-97440013I85400J-45D01*
G01*
X145740000Y-96761300D02*
G75*
G02*
X145550000Y-97220000I-648700J0D01*
G01*
X145940000Y-95300000D02*
G75*
G03*
X145740018Y-95782842I482800J-482800D01*
G01*
X142749705Y-97440000D02*
G75*
G03*
X142459998Y-97559998I-5J-409700D01*
G01*
X142453640Y-97566360D02*
G75*
G03*
X142329957Y-97864853I298460J-298540D01*
G01*
D45*
%TO.N,Net-(Q3-G)*%
X167300000Y-95725000D02*
X167964645Y-95725000D01*
X167246967Y-95853033D02*
X166034143Y-97065857D01*
X166034143Y-97065857D02*
X165940876Y-97159124D01*
X167300000Y-95725000D02*
G75*
G02*
X167246974Y-95853040I-181100J0D01*
G01*
X165940876Y-97159124D02*
G75*
G03*
X165604985Y-97970000I810824J-810876D01*
G01*
X167964645Y-95725000D02*
G75*
G03*
X168024987Y-95699987I-45J85400D01*
G01*
%TO.N,/REGN*%
X142400000Y-102500000D02*
X143098224Y-102500000D01*
X144600000Y-104250000D02*
X145059081Y-103790919D01*
X145059081Y-103790919D02*
G75*
G03*
X145250011Y-103330000I-460881J460919D01*
G01*
X143098224Y-102500000D02*
G75*
G02*
X143399993Y-102625007I-24J-426800D01*
G01*
%TO.N,Net-(U1-VCC)*%
X142400000Y-100500000D02*
X142400000Y-100303553D01*
X142400000Y-100303553D02*
G75*
G02*
X142650014Y-99700014I853600J-47D01*
G01*
D43*
%TO.N,Net-(D3-K)*%
X140570000Y-105400000D02*
X140570000Y-104815563D01*
X139925000Y-105400000D02*
X140570000Y-105400000D01*
X143050000Y-112850000D02*
X142783245Y-112583245D01*
X156980000Y-109670000D02*
X157065617Y-109580083D01*
X157065617Y-109580083D02*
X156813752Y-109831948D01*
X154072183Y-114810000D02*
X147781858Y-114810000D01*
D50*
X139925000Y-105400000D02*
X138475000Y-105400000D01*
D45*
X166681282Y-98768719D02*
X164200000Y-101250000D01*
D48*
X164200000Y-103550000D02*
X164200000Y-101250000D01*
D43*
X157350000Y-108100000D02*
X157350000Y-108776741D01*
X140310000Y-104187868D02*
X140310000Y-103663137D01*
X140570000Y-107240000D02*
X140570000Y-105400000D01*
X156740000Y-110010000D02*
X156740000Y-111024954D01*
X140200000Y-103200000D02*
X140200000Y-103397574D01*
X157350000Y-108776741D02*
G75*
G02*
X156979988Y-109669988I-1263300J41D01*
G01*
X140310000Y-103663137D02*
G75*
G03*
X140230011Y-103469989I-273100J37D01*
G01*
X155400000Y-114260000D02*
G75*
G02*
X154072183Y-114809993I-1327800J1327800D01*
G01*
X140200000Y-103397574D02*
G75*
G03*
X140229992Y-103470008I102400J-26D01*
G01*
X156813752Y-109831948D02*
G75*
G03*
X156739999Y-110010000I178048J-178052D01*
G01*
X142783245Y-112583245D02*
G75*
G02*
X140570003Y-107240000I5343255J5343245D01*
G01*
X156740000Y-111024954D02*
G75*
G02*
X155400034Y-114260034I-4575100J-46D01*
G01*
X147781858Y-114810000D02*
G75*
G02*
X143050012Y-112849988I42J6691900D01*
G01*
D45*
X167300000Y-97275000D02*
G75*
G02*
X166681274Y-98768711I-2112400J0D01*
G01*
D43*
X140570000Y-104815563D02*
G75*
G03*
X140459989Y-104550011I-375600J-37D01*
G01*
X140460000Y-104550000D02*
G75*
G02*
X140310013Y-104187868I362100J362100D01*
G01*
D45*
%TO.N,Net-(J4-Pin_2)*%
X139000000Y-101500000D02*
X138734974Y-101500000D01*
X138734974Y-101500000D02*
X138676690Y-101500000D01*
X138676690Y-101500000D02*
G75*
G03*
X137880003Y-101830003I10J-1126700D01*
G01*
%TO.N,Net-(J4-Pin_1)*%
X137929276Y-102400724D02*
X137780000Y-102550000D01*
X139000000Y-102000000D02*
X138891857Y-102002010D01*
X138891857Y-102002010D02*
G75*
G03*
X137929299Y-102400747I43J-1361290D01*
G01*
%TO.N,Net-(J4-Pin_3)*%
X139700000Y-99800000D02*
X139700000Y-99362132D01*
X139700000Y-99362132D02*
G75*
G03*
X139550009Y-98999991I-512100J32D01*
G01*
%TO.N,Net-(J4-Pin_4)*%
X139000000Y-101000000D02*
X138270000Y-101000000D01*
%TO.N,Net-(Q4-G)*%
X150212426Y-99790000D02*
X148791126Y-99790000D01*
X147670000Y-97800000D02*
X147383969Y-97800000D01*
X151269879Y-99790000D02*
X150212426Y-99790000D01*
X143432929Y-101017071D02*
X143290000Y-101160000D01*
X152240000Y-102550000D02*
X152240000Y-100731837D01*
X156471447Y-103300000D02*
X153006984Y-103300000D01*
X147920000Y-97920000D02*
X147891924Y-97891924D01*
X146370000Y-98220000D02*
X145377990Y-99212010D01*
X148030000Y-99014731D02*
X148030000Y-98185563D01*
X156930000Y-103510000D02*
X156890305Y-103473497D01*
X143650000Y-100300000D02*
X143650000Y-100493016D01*
X143960000Y-99610000D02*
X143918701Y-99651300D01*
X142469168Y-101500000D02*
X142400000Y-101500000D01*
X152500000Y-103090000D02*
X152437990Y-103027990D01*
X144900000Y-99410000D02*
X144400000Y-99410000D01*
X157064584Y-103644583D02*
X156930000Y-103510000D01*
X143990294Y-99579706D02*
X143960000Y-99610000D01*
X143918701Y-99651300D02*
G75*
G03*
X143650000Y-100300000I648699J-648700D01*
G01*
X153006984Y-103300000D02*
G75*
G02*
X152500004Y-103089996I16J717000D01*
G01*
X151970000Y-100080000D02*
G75*
G03*
X151269879Y-99790009I-700100J-700100D01*
G01*
X148791126Y-99790000D02*
G75*
G02*
X148259992Y-99570008I-26J751100D01*
G01*
X145377990Y-99212010D02*
G75*
G02*
X144900000Y-99409994I-477990J478010D01*
G01*
X156890305Y-103473497D02*
G75*
G03*
X156471447Y-103300022I-418805J-418803D01*
G01*
X148030000Y-98185563D02*
G75*
G03*
X147919989Y-97920011I-375600J-37D01*
G01*
X147891924Y-97891924D02*
G75*
G03*
X147670000Y-97799986I-221924J-221876D01*
G01*
X157305000Y-104225000D02*
G75*
G03*
X157064577Y-103644590I-820800J0D01*
G01*
X152437990Y-103027990D02*
G75*
G02*
X152240006Y-102550000I478010J477990D01*
G01*
X152240000Y-100731837D02*
G75*
G03*
X151970011Y-100079989I-921800J37D01*
G01*
X148260000Y-99570000D02*
G75*
G02*
X148029987Y-99014731I555300J555300D01*
G01*
X144400000Y-99410000D02*
G75*
G03*
X143990296Y-99579708I0J-579400D01*
G01*
X143290000Y-101160000D02*
G75*
G02*
X142469168Y-101499986I-820800J820800D01*
G01*
X143650000Y-100493016D02*
G75*
G02*
X143432916Y-101017058I-741100J16D01*
G01*
X147383969Y-97800000D02*
G75*
G03*
X146370009Y-98220009I31J-1434000D01*
G01*
%TO.N,Net-(Q5-G)*%
X145840000Y-101190000D02*
X145840000Y-101530173D01*
X147296005Y-98823995D02*
X146483468Y-99636532D01*
X145350000Y-102620000D02*
X145415858Y-102554142D01*
X141700000Y-103200000D02*
X143949757Y-103200000D01*
X147395000Y-98585000D02*
G75*
G02*
X147296007Y-98823997I-338000J0D01*
G01*
X146483468Y-99636532D02*
G75*
G03*
X145839990Y-101190000I1553432J-1553468D01*
G01*
X145415858Y-102554142D02*
G75*
G03*
X145839984Y-101530173I-1023958J1023942D01*
G01*
X143949757Y-103200000D02*
G75*
G03*
X145350013Y-102620013I43J1980200D01*
G01*
%TO.N,Net-(U1-ACDET)*%
X137953259Y-100500000D02*
X137562548Y-100500000D01*
X139000000Y-100500000D02*
X137953259Y-100500000D01*
X137562548Y-100500000D02*
G75*
G03*
X136789986Y-100819986I-48J-1092500D01*
G01*
%TO.N,Net-(U1-CMSRC)*%
X140200000Y-97863015D02*
X140200000Y-94930000D01*
X140510000Y-98570000D02*
X140480711Y-98540711D01*
X140700000Y-99800000D02*
X140700000Y-99028700D01*
X140480711Y-98540711D02*
G75*
G02*
X140199987Y-97863015I677689J677711D01*
G01*
X140700000Y-99028700D02*
G75*
G03*
X140510000Y-98570000I-648700J0D01*
G01*
%TO.N,Net-(U1-ACDRV)*%
X139760000Y-98059879D02*
X139760000Y-96934142D01*
X139163101Y-95493102D02*
X138600000Y-94930000D01*
X140200000Y-99800000D02*
X140200000Y-99122132D01*
X140050000Y-98760000D02*
G75*
G02*
X139760009Y-98059879I700100J700100D01*
G01*
X140200000Y-99122132D02*
G75*
G03*
X140050009Y-98759991I-512100J32D01*
G01*
X139760000Y-96934142D02*
G75*
G03*
X139163114Y-95493089I-2037900J42D01*
G01*
%TO.N,Net-(U1-BATDRV)*%
X139700000Y-103200000D02*
X139700000Y-103690295D01*
X139700000Y-103690295D02*
G75*
G03*
X139819998Y-103980002I409700J-5D01*
G01*
%TO.N,Net-(U1-ILIM)*%
X139000000Y-102500000D02*
X138963847Y-102500000D01*
X137000000Y-103075000D02*
X137575675Y-103075000D01*
X138963847Y-102500000D02*
G75*
G03*
X138649986Y-102629986I-47J-443800D01*
G01*
X137575675Y-103075000D02*
G75*
G03*
X138650007Y-102630007I25J1519300D01*
G01*
%TO.N,Net-(C1-Pad2)*%
X137000000Y-93330000D02*
X137512512Y-92817488D01*
X138110000Y-92570000D02*
X139170000Y-92570000D01*
X137000000Y-96430000D02*
X135799913Y-96430000D01*
X134520000Y-92970000D02*
X134257739Y-93232261D01*
X136160000Y-92760000D02*
X135026984Y-92760000D01*
X140200000Y-93280000D02*
X139716275Y-92796275D01*
X137000000Y-93330000D02*
X136620919Y-92950919D01*
X135799913Y-96430000D02*
G75*
G02*
X135304996Y-96225004I-13J699900D01*
G01*
X134257739Y-93232261D02*
G75*
G03*
X134035007Y-93770000I537761J-537739D01*
G01*
X139716275Y-92796275D02*
G75*
G03*
X139170000Y-92569986I-546275J-546225D01*
G01*
X137512512Y-92817488D02*
G75*
G02*
X138110000Y-92570007I597488J-597512D01*
G01*
X136620919Y-92950919D02*
G75*
G03*
X136160000Y-92759989I-460919J-460881D01*
G01*
X135026984Y-92760000D02*
G75*
G03*
X134520004Y-92970004I16J-717000D01*
G01*
D49*
%TO.N,Net-(C11-Pad1)*%
X138566637Y-109791637D02*
X138200000Y-109425000D01*
X139150000Y-111200000D02*
G75*
G03*
X138566632Y-109791642I-1991700J0D01*
G01*
%TO.N,/ADAPTER_IN*%
X138200000Y-108175000D02*
X136208883Y-108175000D01*
D45*
X139990000Y-107250000D02*
X139676648Y-107563352D01*
X133400000Y-99585000D02*
X134831758Y-98153242D01*
X137000000Y-97980000D02*
X135250000Y-97980000D01*
X138600000Y-97980000D02*
X137000000Y-97980000D01*
D49*
X136208883Y-108175000D02*
G75*
G03*
X134700005Y-108800005I17J-2133900D01*
G01*
D45*
X139676648Y-107563352D02*
G75*
G02*
X138200000Y-108174998I-1476648J1476652D01*
G01*
X134831758Y-98153242D02*
G75*
G02*
X135250000Y-97980005I418242J-418258D01*
G01*
%TD*%
%TA.AperFunction,Conductor*%
%TO.N,/ADAPTER_IN*%
G36*
X132219968Y-97500911D02*
G01*
X132343648Y-97520500D01*
X135415944Y-97520500D01*
X135444262Y-97526133D01*
X135492105Y-97545950D01*
X135533892Y-97563258D01*
X135550621Y-97572917D01*
X135642596Y-97643492D01*
X135649874Y-97649874D01*
X135650125Y-97650125D01*
X135656502Y-97657396D01*
X135727084Y-97749380D01*
X135736739Y-97766105D01*
X135736740Y-97766106D01*
X135779234Y-97868696D01*
X135784234Y-97887355D01*
X135799367Y-98002298D01*
X135800000Y-98011957D01*
X135800000Y-106300000D01*
X136450125Y-106950125D01*
X136456502Y-106957396D01*
X136527084Y-107049380D01*
X136536740Y-107066106D01*
X136579234Y-107168696D01*
X136584234Y-107187355D01*
X136599367Y-107302298D01*
X136600000Y-107311957D01*
X136600000Y-109388042D01*
X136599367Y-109397701D01*
X136584234Y-109512644D01*
X136579234Y-109531303D01*
X136536740Y-109633893D01*
X136527081Y-109650624D01*
X136456507Y-109742597D01*
X136450125Y-109749874D01*
X135649874Y-110550125D01*
X135642597Y-110556507D01*
X135550624Y-110627081D01*
X135533893Y-110636740D01*
X135431303Y-110679234D01*
X135412644Y-110684234D01*
X135297701Y-110699367D01*
X135288042Y-110700000D01*
X134450461Y-110700000D01*
X134398135Y-110678326D01*
X134377883Y-110640437D01*
X134373205Y-110616920D01*
X134373203Y-110616913D01*
X134300046Y-110440296D01*
X134193837Y-110281342D01*
X134058657Y-110146162D01*
X133899703Y-110039953D01*
X133723088Y-109966797D01*
X133723078Y-109966794D01*
X133597518Y-109941819D01*
X133535586Y-109929500D01*
X133344414Y-109929500D01*
X133291260Y-109940072D01*
X133156921Y-109966794D01*
X133156911Y-109966797D01*
X133068161Y-110003558D01*
X133011524Y-110003558D01*
X132987517Y-109987517D01*
X131149874Y-108149874D01*
X131143498Y-108142604D01*
X131072914Y-108050617D01*
X131063259Y-108033893D01*
X131020765Y-107931303D01*
X131015765Y-107912644D01*
X131000633Y-107797701D01*
X131000000Y-107788042D01*
X131000000Y-98011957D01*
X131000633Y-98002298D01*
X131015766Y-97887351D01*
X131020765Y-97868696D01*
X131063259Y-97766106D01*
X131072911Y-97749385D01*
X131143504Y-97657387D01*
X131149866Y-97650133D01*
X131150133Y-97649866D01*
X131157387Y-97643504D01*
X131249385Y-97572911D01*
X131266102Y-97563260D01*
X131368698Y-97520764D01*
X131387351Y-97515766D01*
X131502299Y-97500633D01*
X131511958Y-97500000D01*
X132208392Y-97500000D01*
X132219968Y-97500911D01*
G37*
%TD.AperFunction*%
%TD*%
%TA.AperFunction,Conductor*%
%TO.N,Net-(Q2-D)*%
G36*
X141797701Y-86700633D02*
G01*
X141912646Y-86715765D01*
X141931303Y-86720765D01*
X142033893Y-86763259D01*
X142050617Y-86772914D01*
X142142604Y-86843498D01*
X142149874Y-86849874D01*
X145250125Y-89950125D01*
X145256502Y-89957396D01*
X145327084Y-90049380D01*
X145336739Y-90066105D01*
X145336740Y-90066106D01*
X145379234Y-90168696D01*
X145384234Y-90187355D01*
X145399367Y-90302298D01*
X145400000Y-90311957D01*
X145400000Y-95051290D01*
X145398578Y-95065727D01*
X145376882Y-95174798D01*
X145365832Y-95201474D01*
X145308176Y-95287761D01*
X145287761Y-95308176D01*
X145201474Y-95365832D01*
X145174798Y-95376882D01*
X145065728Y-95398578D01*
X145051291Y-95400000D01*
X143811958Y-95400000D01*
X143802299Y-95399367D01*
X143687355Y-95384234D01*
X143668696Y-95379234D01*
X143566106Y-95336740D01*
X143549380Y-95327084D01*
X143457396Y-95256502D01*
X143450125Y-95250125D01*
X140800000Y-92600000D01*
X140592893Y-92600000D01*
X140225199Y-92600000D01*
X140197769Y-92594728D01*
X139660413Y-92380263D01*
X139660403Y-92380260D01*
X139646333Y-92377604D01*
X139626466Y-92370823D01*
X139581917Y-92348123D01*
X139581913Y-92348121D01*
X139581912Y-92348121D01*
X139421276Y-92295924D01*
X139421273Y-92295923D01*
X139421271Y-92295923D01*
X139254453Y-92269500D01*
X139254452Y-92269500D01*
X139209562Y-92269500D01*
X138070438Y-92269500D01*
X138065672Y-92269500D01*
X138065549Y-92269508D01*
X138019849Y-92269508D01*
X137884319Y-92290973D01*
X137853060Y-92295924D01*
X137841764Y-92297713D01*
X137670299Y-92353424D01*
X137649438Y-92364052D01*
X137623710Y-92377160D01*
X137601019Y-92384417D01*
X137592520Y-92385682D01*
X137592513Y-92385684D01*
X137038538Y-92584234D01*
X137006655Y-92595661D01*
X136981688Y-92600000D01*
X136854160Y-92600000D01*
X136837464Y-92598092D01*
X136492088Y-92518103D01*
X136485916Y-92516389D01*
X136455884Y-92506630D01*
X136383009Y-92482951D01*
X136284304Y-92467317D01*
X136234953Y-92459500D01*
X136234952Y-92459500D01*
X136230874Y-92459500D01*
X136225862Y-92458982D01*
X136222297Y-92459500D01*
X136199562Y-92459500D01*
X135080542Y-92459500D01*
X135080530Y-92459499D01*
X135057633Y-92459499D01*
X135057618Y-92459493D01*
X134946899Y-92459495D01*
X134788722Y-92484551D01*
X134788718Y-92484552D01*
X134636403Y-92534045D01*
X134636401Y-92534045D01*
X134636398Y-92534047D01*
X134522792Y-92591934D01*
X134489196Y-92600000D01*
X131611958Y-92600000D01*
X131602299Y-92599367D01*
X131487355Y-92584234D01*
X131468696Y-92579234D01*
X131366106Y-92536740D01*
X131349380Y-92527084D01*
X131257396Y-92456502D01*
X131250125Y-92450125D01*
X131049874Y-92249874D01*
X131043498Y-92242604D01*
X130972914Y-92150617D01*
X130963259Y-92133893D01*
X130920765Y-92031303D01*
X130915765Y-92012644D01*
X130900633Y-91897701D01*
X130900000Y-91888042D01*
X130900000Y-87411957D01*
X130900633Y-87402298D01*
X130915766Y-87287351D01*
X130920765Y-87268696D01*
X130963259Y-87166106D01*
X130972911Y-87149385D01*
X131043504Y-87057387D01*
X131049866Y-87050133D01*
X131250133Y-86849866D01*
X131257387Y-86843504D01*
X131349385Y-86772911D01*
X131366102Y-86763260D01*
X131468698Y-86720764D01*
X131487351Y-86715766D01*
X131602299Y-86700633D01*
X131611958Y-86700000D01*
X141788042Y-86700000D01*
X141797701Y-86700633D01*
G37*
%TD.AperFunction*%
%TD*%
%TA.AperFunction,Conductor*%
%TO.N,Net-(Q4-S)*%
G36*
X151297701Y-100100633D02*
G01*
X151412646Y-100115765D01*
X151431303Y-100120765D01*
X151533893Y-100163259D01*
X151550617Y-100172914D01*
X151642604Y-100243498D01*
X151649874Y-100249874D01*
X151750125Y-100350125D01*
X151756502Y-100357396D01*
X151827084Y-100449380D01*
X151836739Y-100466105D01*
X151836740Y-100466106D01*
X151879234Y-100568696D01*
X151884234Y-100587355D01*
X151899367Y-100702298D01*
X151900000Y-100711957D01*
X151900000Y-103100000D01*
X152400000Y-103600000D01*
X152917930Y-103600000D01*
X152918750Y-103600005D01*
X152924167Y-103600065D01*
X152926901Y-103600498D01*
X152963324Y-103600498D01*
X152963424Y-103600500D01*
X153006977Y-103600500D01*
X153054572Y-103600501D01*
X153054575Y-103600500D01*
X156153805Y-103600500D01*
X156168241Y-103601922D01*
X156221988Y-103612612D01*
X156274797Y-103623117D01*
X156301474Y-103634167D01*
X156387761Y-103691823D01*
X156408176Y-103712238D01*
X156465832Y-103798525D01*
X156476882Y-103825201D01*
X156498578Y-103934272D01*
X156500000Y-103948709D01*
X156500000Y-104688042D01*
X156499367Y-104697701D01*
X156484234Y-104812644D01*
X156479234Y-104831303D01*
X156436740Y-104933893D01*
X156427081Y-104950624D01*
X156356507Y-105042597D01*
X156350125Y-105049874D01*
X155749874Y-105650125D01*
X155742597Y-105656507D01*
X155650624Y-105727081D01*
X155633893Y-105736740D01*
X155531303Y-105779234D01*
X155512644Y-105784234D01*
X155397701Y-105799367D01*
X155388042Y-105800000D01*
X151300000Y-105800000D01*
X150800000Y-106300000D01*
X150800000Y-111273670D01*
X150799288Y-111283911D01*
X150782280Y-111405628D01*
X150776666Y-111425324D01*
X150729049Y-111532965D01*
X150718251Y-111550368D01*
X150639627Y-111644829D01*
X150632529Y-111652245D01*
X148746403Y-113366906D01*
X148739311Y-113372598D01*
X148650305Y-113435450D01*
X148634303Y-113444023D01*
X148536961Y-113481656D01*
X148519354Y-113486076D01*
X148411220Y-113499441D01*
X148402143Y-113500000D01*
X145811958Y-113500000D01*
X145802299Y-113499367D01*
X145687355Y-113484234D01*
X145668696Y-113479234D01*
X145566106Y-113436740D01*
X145549380Y-113427084D01*
X145457396Y-113356502D01*
X145450125Y-113350125D01*
X145349874Y-113249874D01*
X145343498Y-113242604D01*
X145272914Y-113150617D01*
X145263259Y-113133893D01*
X145220765Y-113031303D01*
X145215765Y-113012644D01*
X145200633Y-112897701D01*
X145200000Y-112888042D01*
X145200000Y-106611957D01*
X145200633Y-106602298D01*
X145213165Y-106507107D01*
X145215766Y-106487351D01*
X145220765Y-106468696D01*
X145263259Y-106366106D01*
X145272911Y-106349385D01*
X145343504Y-106257387D01*
X145349866Y-106250133D01*
X146453553Y-105146447D01*
X146600000Y-105000000D01*
X146600000Y-100711957D01*
X146600633Y-100702298D01*
X146615766Y-100587351D01*
X146620765Y-100568696D01*
X146663259Y-100466106D01*
X146672911Y-100449385D01*
X146743504Y-100357387D01*
X146749866Y-100350133D01*
X146850133Y-100249866D01*
X146857387Y-100243504D01*
X146949385Y-100172911D01*
X146966102Y-100163260D01*
X147068698Y-100120764D01*
X147087351Y-100115766D01*
X147202299Y-100100633D01*
X147211958Y-100100000D01*
X151288042Y-100100000D01*
X151297701Y-100100633D01*
G37*
%TD.AperFunction*%
%TD*%
%TA.AperFunction,Conductor*%
%TO.N,Net-(C1-Pad2)*%
G36*
X134165727Y-93001422D02*
G01*
X134232518Y-93014707D01*
X134274797Y-93023117D01*
X134301474Y-93034167D01*
X134387761Y-93091823D01*
X134408176Y-93112238D01*
X134465832Y-93198525D01*
X134476882Y-93225201D01*
X134498578Y-93334272D01*
X134500000Y-93348709D01*
X134500000Y-94300000D01*
X135650125Y-95450125D01*
X135656502Y-95457396D01*
X135727084Y-95549380D01*
X135736740Y-95566106D01*
X135779234Y-95668696D01*
X135784234Y-95687355D01*
X135799367Y-95802298D01*
X135800000Y-95811957D01*
X135800000Y-96651290D01*
X135798578Y-96665726D01*
X135798578Y-96665727D01*
X135776882Y-96774798D01*
X135765833Y-96801473D01*
X135708946Y-96886612D01*
X135661854Y-96918078D01*
X135647417Y-96919500D01*
X132452583Y-96919500D01*
X132400257Y-96897826D01*
X132391054Y-96886612D01*
X132334166Y-96801473D01*
X132323117Y-96774797D01*
X132301422Y-96665726D01*
X132300000Y-96651290D01*
X132300000Y-95700000D01*
X131149874Y-94549874D01*
X131143498Y-94542604D01*
X131072914Y-94450617D01*
X131063259Y-94433893D01*
X131020765Y-94331303D01*
X131015765Y-94312644D01*
X131014100Y-94300000D01*
X131000633Y-94197701D01*
X131000000Y-94188042D01*
X131000000Y-93348709D01*
X131001422Y-93334273D01*
X131023117Y-93225202D01*
X131023118Y-93225201D01*
X131023117Y-93225200D01*
X131034166Y-93198527D01*
X131091823Y-93112238D01*
X131112238Y-93091823D01*
X131135209Y-93076473D01*
X131198527Y-93034166D01*
X131225200Y-93023117D01*
X131294477Y-93009337D01*
X131334273Y-93001422D01*
X131348709Y-93000000D01*
X134151291Y-93000000D01*
X134165727Y-93001422D01*
G37*
%TD.AperFunction*%
%TD*%
%TA.AperFunction,Conductor*%
%TO.N,Net-(U1-SRP)*%
G36*
X155797701Y-106100633D02*
G01*
X155912646Y-106115765D01*
X155931303Y-106120765D01*
X156033893Y-106163259D01*
X156050617Y-106172914D01*
X156142604Y-106243498D01*
X156149874Y-106249874D01*
X156250125Y-106350125D01*
X156256502Y-106357396D01*
X156327084Y-106449380D01*
X156336739Y-106466105D01*
X156336740Y-106466106D01*
X156379234Y-106568696D01*
X156384234Y-106587355D01*
X156399367Y-106702298D01*
X156400000Y-106711957D01*
X156400000Y-109588042D01*
X156399367Y-109597701D01*
X156384234Y-109712644D01*
X156379234Y-109731303D01*
X156336740Y-109833893D01*
X156327081Y-109850624D01*
X156256507Y-109942597D01*
X156250125Y-109949874D01*
X155000000Y-111199999D01*
X155000000Y-112888042D01*
X154999367Y-112897701D01*
X154984234Y-113012644D01*
X154979234Y-113031303D01*
X154936740Y-113133893D01*
X154927081Y-113150624D01*
X154856507Y-113242597D01*
X154850125Y-113249874D01*
X154749874Y-113350125D01*
X154742597Y-113356507D01*
X154650624Y-113427081D01*
X154633893Y-113436740D01*
X154531303Y-113479234D01*
X154512644Y-113484234D01*
X154397701Y-113499367D01*
X154388042Y-113500000D01*
X151711958Y-113500000D01*
X151702299Y-113499367D01*
X151587355Y-113484234D01*
X151568696Y-113479234D01*
X151466106Y-113436740D01*
X151449380Y-113427084D01*
X151357396Y-113356502D01*
X151350125Y-113350125D01*
X151249874Y-113249874D01*
X151243498Y-113242604D01*
X151172914Y-113150617D01*
X151163259Y-113133893D01*
X151120765Y-113031303D01*
X151115765Y-113012644D01*
X151100633Y-112897701D01*
X151100000Y-112888042D01*
X151100000Y-106711957D01*
X151100633Y-106702298D01*
X151115766Y-106587351D01*
X151120765Y-106568696D01*
X151163259Y-106466106D01*
X151172911Y-106449385D01*
X151243504Y-106357387D01*
X151249866Y-106350133D01*
X151350133Y-106249866D01*
X151357387Y-106243504D01*
X151449385Y-106172911D01*
X151466102Y-106163260D01*
X151568698Y-106120764D01*
X151587351Y-106115766D01*
X151702299Y-106100633D01*
X151711958Y-106100000D01*
X155788042Y-106100000D01*
X155797701Y-106100633D01*
G37*
%TD.AperFunction*%
%TD*%
%TA.AperFunction,Conductor*%
%TO.N,/SYS_PWR*%
G36*
X160004808Y-84500633D02*
G01*
X160119753Y-84515765D01*
X160138408Y-84520764D01*
X160240999Y-84563258D01*
X160257728Y-84572917D01*
X160345824Y-84640516D01*
X160359483Y-84654175D01*
X160427082Y-84742271D01*
X160436741Y-84759001D01*
X160479234Y-84861588D01*
X160484234Y-84880248D01*
X160499367Y-84995191D01*
X160500000Y-85004850D01*
X160500000Y-90800000D01*
X161100000Y-91400000D01*
X165788042Y-91400000D01*
X165797701Y-91400633D01*
X165912646Y-91415765D01*
X165931303Y-91420765D01*
X166033893Y-91463259D01*
X166050617Y-91472914D01*
X166142604Y-91543498D01*
X166149874Y-91549874D01*
X166250125Y-91650125D01*
X166256502Y-91657396D01*
X166327084Y-91749380D01*
X166336740Y-91766106D01*
X166379234Y-91868696D01*
X166384234Y-91887355D01*
X166399367Y-92002298D01*
X166400000Y-92011957D01*
X166400000Y-96188040D01*
X166399367Y-96197700D01*
X166392800Y-96247574D01*
X166389867Y-96260610D01*
X166383673Y-96279832D01*
X166365565Y-96309462D01*
X165905243Y-96769784D01*
X165862577Y-96790825D01*
X165804152Y-96798517D01*
X165797700Y-96799367D01*
X165788042Y-96800000D01*
X161000000Y-96800000D01*
X160853553Y-96946447D01*
X160049874Y-97750125D01*
X160042597Y-97756507D01*
X159950624Y-97827081D01*
X159933893Y-97836740D01*
X159831303Y-97879234D01*
X159812644Y-97884234D01*
X159697701Y-97899367D01*
X159688042Y-97900000D01*
X159000000Y-97900000D01*
X158000000Y-98900000D01*
X158000000Y-102388042D01*
X157999367Y-102397701D01*
X157984234Y-102512644D01*
X157979234Y-102531303D01*
X157936740Y-102633893D01*
X157927081Y-102650624D01*
X157856507Y-102742597D01*
X157850125Y-102749874D01*
X157749874Y-102850125D01*
X157742597Y-102856507D01*
X157650624Y-102927081D01*
X157633893Y-102936740D01*
X157531303Y-102979234D01*
X157512644Y-102984234D01*
X157397701Y-102999367D01*
X157388042Y-103000000D01*
X156550709Y-103000000D01*
X156550242Y-102999999D01*
X156544660Y-102999963D01*
X156541693Y-102999494D01*
X156471420Y-102999500D01*
X153501053Y-102999500D01*
X153491394Y-102998867D01*
X153380248Y-102984234D01*
X153361588Y-102979234D01*
X153259001Y-102936741D01*
X153242271Y-102927082D01*
X153154175Y-102859483D01*
X153140516Y-102845824D01*
X153072917Y-102757728D01*
X153063258Y-102740998D01*
X153020765Y-102638411D01*
X153015765Y-102619751D01*
X153000633Y-102504808D01*
X153000000Y-102495149D01*
X153000000Y-98311957D01*
X153000633Y-98302298D01*
X153015766Y-98187351D01*
X153020765Y-98168696D01*
X153063259Y-98066106D01*
X153063260Y-98066105D01*
X153072911Y-98049385D01*
X153143504Y-97957387D01*
X153149866Y-97950133D01*
X153150133Y-97949866D01*
X153157387Y-97943504D01*
X153249385Y-97872911D01*
X153266102Y-97863260D01*
X153368698Y-97820764D01*
X153387351Y-97815766D01*
X153502299Y-97800633D01*
X153511958Y-97800000D01*
X155500000Y-97800000D01*
X156100000Y-97200000D01*
X156100000Y-96300000D01*
X155700000Y-95900000D01*
X155492893Y-95900000D01*
X147511958Y-95900000D01*
X147502299Y-95899367D01*
X147387355Y-95884234D01*
X147368696Y-95879234D01*
X147266106Y-95836740D01*
X147249380Y-95827084D01*
X147157396Y-95756502D01*
X147150125Y-95750125D01*
X146800000Y-95400000D01*
X146592893Y-95400000D01*
X146148709Y-95400000D01*
X146134272Y-95398578D01*
X146025201Y-95376882D01*
X145998525Y-95365832D01*
X145912238Y-95308176D01*
X145891823Y-95287761D01*
X145834167Y-95201474D01*
X145823117Y-95174797D01*
X145801422Y-95065726D01*
X145800000Y-95051290D01*
X145800000Y-92011957D01*
X145800633Y-92002298D01*
X145815766Y-91887351D01*
X145820765Y-91868696D01*
X145863259Y-91766106D01*
X145872911Y-91749385D01*
X145943504Y-91657387D01*
X145949866Y-91650133D01*
X146050133Y-91549866D01*
X146057387Y-91543504D01*
X146149385Y-91472911D01*
X146166102Y-91463260D01*
X146268698Y-91420764D01*
X146287351Y-91415766D01*
X146402299Y-91400633D01*
X146411958Y-91400000D01*
X152600000Y-91400000D01*
X156600000Y-87400000D01*
X156600000Y-85911957D01*
X156600633Y-85902298D01*
X156615766Y-85787351D01*
X156620765Y-85768696D01*
X156663259Y-85666106D01*
X156672911Y-85649385D01*
X156743504Y-85557387D01*
X156749866Y-85550133D01*
X157650133Y-84649866D01*
X157657387Y-84643504D01*
X157749385Y-84572911D01*
X157766102Y-84563260D01*
X157868698Y-84520764D01*
X157887351Y-84515766D01*
X158002299Y-84500633D01*
X158011958Y-84500000D01*
X159995149Y-84500000D01*
X160004808Y-84500633D01*
G37*
%TD.AperFunction*%
%TD*%
%TA.AperFunction,Conductor*%
%TO.N,GND*%
G36*
X155800000Y-96400000D02*
G01*
X155800000Y-97100000D01*
X155400000Y-97500000D01*
X153100000Y-97500000D01*
X151500000Y-99100000D01*
X148400000Y-99100000D01*
X148332211Y-99032211D01*
X148330857Y-99018462D01*
X148330500Y-99011207D01*
X148330500Y-98239113D01*
X148330500Y-98233140D01*
X148330505Y-98233128D01*
X148330503Y-98216183D01*
X148330517Y-98216147D01*
X148330514Y-98185533D01*
X148330515Y-98185533D01*
X148330509Y-98118950D01*
X148308335Y-98007515D01*
X148304521Y-97988348D01*
X148304517Y-97988337D01*
X148253555Y-97865322D01*
X148253554Y-97865320D01*
X148253553Y-97865318D01*
X148179567Y-97754596D01*
X148179564Y-97754593D01*
X148179559Y-97754587D01*
X148132486Y-97707513D01*
X148132486Y-97707514D01*
X148094024Y-97669052D01*
X148094023Y-97669052D01*
X148092632Y-97667661D01*
X148076435Y-97651464D01*
X148076408Y-97651448D01*
X148072905Y-97647948D01*
X148072902Y-97647942D01*
X148072879Y-97647922D01*
X148061644Y-97636684D01*
X148061640Y-97636681D01*
X148061639Y-97636680D01*
X148061638Y-97636679D01*
X147988829Y-97588021D01*
X147961019Y-97569435D01*
X147961017Y-97569434D01*
X147849209Y-97523115D01*
X147816634Y-97516634D01*
X147600000Y-97300000D01*
X147600000Y-96500000D01*
X147900000Y-96200000D01*
X155600000Y-96200000D01*
X155800000Y-96400000D01*
G37*
%TD.AperFunction*%
%TD*%
%TA.AperFunction,Conductor*%
%TO.N,Net-(D3-K)*%
G36*
X164297701Y-97100633D02*
G01*
X164412646Y-97115765D01*
X164431303Y-97120765D01*
X164533893Y-97163259D01*
X164550617Y-97172914D01*
X164642604Y-97243498D01*
X164649874Y-97249874D01*
X164650125Y-97250125D01*
X164656502Y-97257396D01*
X164727084Y-97349380D01*
X164736739Y-97366105D01*
X164736740Y-97366106D01*
X164779234Y-97468696D01*
X164784234Y-97487355D01*
X164799367Y-97602298D01*
X164800000Y-97611957D01*
X164800000Y-98600000D01*
X166650125Y-100450125D01*
X166656502Y-100457396D01*
X166727084Y-100549380D01*
X166736740Y-100566106D01*
X166779234Y-100668696D01*
X166784234Y-100687355D01*
X166799367Y-100802298D01*
X166800000Y-100811957D01*
X166800000Y-102100000D01*
X168750125Y-104050125D01*
X168756502Y-104057396D01*
X168827084Y-104149380D01*
X168836740Y-104166106D01*
X168879234Y-104268696D01*
X168884234Y-104287355D01*
X168899367Y-104402298D01*
X168900000Y-104411957D01*
X168900000Y-105188042D01*
X168899367Y-105197701D01*
X168884234Y-105312644D01*
X168879234Y-105331303D01*
X168836740Y-105433893D01*
X168827081Y-105450624D01*
X168756507Y-105542597D01*
X168750125Y-105549874D01*
X168349874Y-105950125D01*
X168342597Y-105956507D01*
X168250624Y-106027081D01*
X168233893Y-106036740D01*
X168131303Y-106079234D01*
X168112644Y-106084234D01*
X167997701Y-106099367D01*
X167988042Y-106100000D01*
X164000000Y-106100000D01*
X162000000Y-108100000D01*
X162000000Y-108897124D01*
X161999592Y-108903351D01*
X161999658Y-108903356D01*
X161999500Y-108905765D01*
X161999500Y-111494221D01*
X161999659Y-111496647D01*
X161999592Y-111496651D01*
X162000000Y-111502877D01*
X162000000Y-111851290D01*
X161998578Y-111865726D01*
X161998578Y-111865727D01*
X161976882Y-111974798D01*
X161965832Y-112001474D01*
X161908176Y-112087761D01*
X161887761Y-112108176D01*
X161801474Y-112165832D01*
X161774798Y-112176882D01*
X161665728Y-112198578D01*
X161651291Y-112200000D01*
X161148709Y-112200000D01*
X161134272Y-112198578D01*
X161025201Y-112176882D01*
X160998525Y-112165832D01*
X160912238Y-112108176D01*
X160891823Y-112087761D01*
X160834167Y-112001474D01*
X160823117Y-111974797D01*
X160801422Y-111865726D01*
X160800000Y-111851290D01*
X160800000Y-111100000D01*
X160100000Y-110400000D01*
X159892893Y-110400000D01*
X157711958Y-110400000D01*
X157702299Y-110399367D01*
X157587355Y-110384234D01*
X157568696Y-110379234D01*
X157466106Y-110336740D01*
X157449380Y-110327084D01*
X157357396Y-110256502D01*
X157350125Y-110250125D01*
X156949874Y-109849874D01*
X156943498Y-109842604D01*
X156872914Y-109750617D01*
X156863259Y-109733893D01*
X156820765Y-109631303D01*
X156815765Y-109612644D01*
X156800633Y-109497701D01*
X156800000Y-109488042D01*
X156800000Y-106711957D01*
X156800633Y-106702298D01*
X156815766Y-106587351D01*
X156820765Y-106568696D01*
X156863259Y-106466106D01*
X156872911Y-106449385D01*
X156943504Y-106357387D01*
X156949866Y-106350133D01*
X158053553Y-105246447D01*
X158200000Y-105100000D01*
X158200000Y-104311957D01*
X158200633Y-104302298D01*
X158205057Y-104268696D01*
X158215766Y-104187351D01*
X158220765Y-104168696D01*
X158221838Y-104166106D01*
X158263260Y-104066102D01*
X158272911Y-104049385D01*
X158343504Y-103957387D01*
X158349866Y-103950133D01*
X160553553Y-101746447D01*
X160700000Y-101600000D01*
X160700000Y-97811957D01*
X160700633Y-97802298D01*
X160715766Y-97687351D01*
X160720765Y-97668696D01*
X160763259Y-97566106D01*
X160772911Y-97549385D01*
X160843504Y-97457387D01*
X160849866Y-97450133D01*
X161050133Y-97249866D01*
X161057387Y-97243504D01*
X161149385Y-97172911D01*
X161166102Y-97163260D01*
X161268698Y-97120764D01*
X161287351Y-97115766D01*
X161402299Y-97100633D01*
X161411958Y-97100000D01*
X164288042Y-97100000D01*
X164297701Y-97100633D01*
G37*
%TD.AperFunction*%
%TD*%
%TA.AperFunction,Conductor*%
%TO.N,GND*%
G36*
X146412185Y-100482179D02*
G01*
X146417193Y-100532896D01*
X146417544Y-100532978D01*
X146417303Y-100534008D01*
X146417305Y-100534021D01*
X146417272Y-100534143D01*
X146417267Y-100534162D01*
X146412025Y-100560517D01*
X146412022Y-100560538D01*
X146396890Y-100675476D01*
X146395572Y-100688871D01*
X146394939Y-100698521D01*
X146394500Y-100711943D01*
X146394500Y-104884226D01*
X146372826Y-104936552D01*
X145204554Y-106104823D01*
X145195364Y-106114634D01*
X145189007Y-106121882D01*
X145180473Y-106132281D01*
X145109888Y-106224269D01*
X145109883Y-106224275D01*
X145109877Y-106224284D01*
X145102380Y-106235504D01*
X145094932Y-106246652D01*
X145094932Y-106246653D01*
X145085282Y-106263370D01*
X145073409Y-106287449D01*
X145073399Y-106287470D01*
X145030909Y-106390051D01*
X145030902Y-106390070D01*
X145022265Y-106415512D01*
X145017267Y-106434162D01*
X145012025Y-106460517D01*
X145012022Y-106460538D01*
X144996890Y-106575476D01*
X144995572Y-106588871D01*
X144994939Y-106598521D01*
X144994500Y-106611943D01*
X144994500Y-112888055D01*
X144994939Y-112901477D01*
X144995572Y-112911125D01*
X144995573Y-112911140D01*
X144996665Y-112922231D01*
X144996891Y-112924524D01*
X145012021Y-113039452D01*
X145012021Y-113039457D01*
X145012023Y-113039466D01*
X145012024Y-113039472D01*
X145012026Y-113039483D01*
X145017263Y-113065816D01*
X145017272Y-113065852D01*
X145022265Y-113084486D01*
X145030902Y-113109928D01*
X145030909Y-113109947D01*
X145073398Y-113212525D01*
X145073405Y-113212541D01*
X145085278Y-113236618D01*
X145085296Y-113236653D01*
X145094940Y-113253356D01*
X145094947Y-113253368D01*
X145109883Y-113275722D01*
X145180455Y-113367693D01*
X145188999Y-113378105D01*
X145195373Y-113385372D01*
X145195375Y-113385374D01*
X145204564Y-113395184D01*
X145304815Y-113495435D01*
X145314623Y-113504623D01*
X145321894Y-113511000D01*
X145332295Y-113519536D01*
X145332302Y-113519541D01*
X145332315Y-113519552D01*
X145367646Y-113546662D01*
X145424279Y-113590118D01*
X145446636Y-113605056D01*
X145446643Y-113605060D01*
X145446652Y-113605066D01*
X145446656Y-113605068D01*
X145463344Y-113614702D01*
X145463348Y-113614704D01*
X145463362Y-113614712D01*
X145487465Y-113626597D01*
X145590055Y-113669091D01*
X145615505Y-113677731D01*
X145615510Y-113677732D01*
X145615512Y-113677733D01*
X145627600Y-113680972D01*
X145634164Y-113682731D01*
X145660531Y-113687976D01*
X145775475Y-113703109D01*
X145788860Y-113704427D01*
X145798519Y-113705060D01*
X145801038Y-113705142D01*
X145811945Y-113705500D01*
X145811958Y-113705500D01*
X148402142Y-113705500D01*
X148402143Y-113705500D01*
X148414775Y-113705111D01*
X148423852Y-113704552D01*
X148436427Y-113703389D01*
X148515268Y-113693644D01*
X148544546Y-113690026D01*
X148544548Y-113690025D01*
X148544561Y-113690024D01*
X148569389Y-113685392D01*
X148586996Y-113680972D01*
X148611063Y-113673330D01*
X148708405Y-113635697D01*
X148731349Y-113625165D01*
X148747351Y-113616592D01*
X148768844Y-113603315D01*
X148857850Y-113540463D01*
X148867939Y-113532864D01*
X148875031Y-113527172D01*
X148884637Y-113518964D01*
X150770724Y-111804338D01*
X150824020Y-111785179D01*
X150875256Y-111809317D01*
X150894500Y-111859095D01*
X150894500Y-112888055D01*
X150894939Y-112901477D01*
X150895572Y-112911125D01*
X150895573Y-112911140D01*
X150896665Y-112922231D01*
X150896891Y-112924524D01*
X150912021Y-113039452D01*
X150912021Y-113039457D01*
X150912023Y-113039466D01*
X150912024Y-113039472D01*
X150912026Y-113039483D01*
X150917263Y-113065816D01*
X150917272Y-113065852D01*
X150922265Y-113084486D01*
X150930902Y-113109928D01*
X150930909Y-113109947D01*
X150973398Y-113212525D01*
X150973405Y-113212541D01*
X150985278Y-113236618D01*
X150985296Y-113236653D01*
X150994940Y-113253356D01*
X150994947Y-113253368D01*
X151009883Y-113275722D01*
X151080455Y-113367693D01*
X151088999Y-113378105D01*
X151095373Y-113385372D01*
X151095375Y-113385374D01*
X151104564Y-113395184D01*
X151204815Y-113495435D01*
X151214623Y-113504623D01*
X151221894Y-113511000D01*
X151232295Y-113519536D01*
X151232302Y-113519541D01*
X151232315Y-113519552D01*
X151267646Y-113546662D01*
X151324279Y-113590118D01*
X151346636Y-113605056D01*
X151346643Y-113605060D01*
X151346652Y-113605066D01*
X151346656Y-113605068D01*
X151363344Y-113614702D01*
X151363348Y-113614704D01*
X151363362Y-113614712D01*
X151387465Y-113626597D01*
X151490055Y-113669091D01*
X151515505Y-113677731D01*
X151515510Y-113677732D01*
X151515512Y-113677733D01*
X151527600Y-113680972D01*
X151534164Y-113682731D01*
X151560531Y-113687976D01*
X151675475Y-113703109D01*
X151688860Y-113704427D01*
X151698519Y-113705060D01*
X151701038Y-113705142D01*
X151711945Y-113705500D01*
X151711958Y-113705500D01*
X154388055Y-113705500D01*
X154398318Y-113705163D01*
X154401481Y-113705060D01*
X154411140Y-113704427D01*
X154424525Y-113703109D01*
X154539468Y-113687976D01*
X154565835Y-113682731D01*
X154584494Y-113677731D01*
X154609944Y-113669091D01*
X154712534Y-113626597D01*
X154736638Y-113614711D01*
X154753369Y-113605052D01*
X154753382Y-113605043D01*
X154753386Y-113605041D01*
X154767158Y-113595839D01*
X154775725Y-113590115D01*
X154867698Y-113519541D01*
X154878095Y-113511008D01*
X154885372Y-113504626D01*
X154895184Y-113495435D01*
X154995435Y-113395184D01*
X155004626Y-113385372D01*
X155011008Y-113378095D01*
X155019541Y-113367698D01*
X155090115Y-113275725D01*
X155105052Y-113253369D01*
X155114711Y-113236638D01*
X155126597Y-113212534D01*
X155169091Y-113109944D01*
X155177731Y-113084494D01*
X155182731Y-113065835D01*
X155187976Y-113039468D01*
X155203109Y-112924525D01*
X155204427Y-112911140D01*
X155205060Y-112901481D01*
X155205500Y-112888042D01*
X155205500Y-111315771D01*
X155227174Y-111263445D01*
X156058174Y-110432445D01*
X156110500Y-110410771D01*
X156162826Y-110432445D01*
X156184500Y-110484771D01*
X156184500Y-111030607D01*
X156184430Y-111033835D01*
X156169446Y-111376955D01*
X156168883Y-111383386D01*
X156124265Y-111722275D01*
X156123144Y-111728633D01*
X156049158Y-112062353D01*
X156047487Y-112068589D01*
X155944701Y-112394580D01*
X155942493Y-112400646D01*
X155811685Y-112716443D01*
X155808957Y-112722294D01*
X155651117Y-113025498D01*
X155647889Y-113031088D01*
X155464231Y-113319372D01*
X155460528Y-113324660D01*
X155252445Y-113595839D01*
X155248295Y-113600785D01*
X155029188Y-113839896D01*
X155026956Y-113842228D01*
X155005482Y-113863702D01*
X155003241Y-113865850D01*
X154993213Y-113875070D01*
X154991921Y-113876231D01*
X154874469Y-113979238D01*
X154866789Y-113985131D01*
X154731661Y-114075424D01*
X154723279Y-114080264D01*
X154657573Y-114112668D01*
X154577517Y-114152148D01*
X154568577Y-114155851D01*
X154414687Y-114208092D01*
X154405338Y-114210598D01*
X154245934Y-114242309D01*
X154236338Y-114243572D01*
X154072107Y-114254341D01*
X154067265Y-114254500D01*
X147804191Y-114254500D01*
X147801549Y-114254453D01*
X147364816Y-114238852D01*
X147359548Y-114238475D01*
X146926360Y-114191901D01*
X146921131Y-114191149D01*
X146492374Y-114113791D01*
X146487212Y-114112668D01*
X146164244Y-114030234D01*
X146065068Y-114004920D01*
X146060001Y-114003433D01*
X146005013Y-113985131D01*
X145646608Y-113865840D01*
X145641659Y-113863994D01*
X145239147Y-113697267D01*
X145234342Y-113695073D01*
X144882522Y-113518964D01*
X144844729Y-113500046D01*
X144840097Y-113497516D01*
X144670488Y-113396882D01*
X144465409Y-113275202D01*
X144460965Y-113272346D01*
X144440540Y-113258165D01*
X144103085Y-113023865D01*
X144098857Y-113020700D01*
X143759619Y-112747323D01*
X143755627Y-112743864D01*
X143435467Y-112445784D01*
X143433566Y-112443950D01*
X143400457Y-112410841D01*
X143326310Y-112336694D01*
X143229566Y-112239950D01*
X143185737Y-112196121D01*
X143183903Y-112194220D01*
X143023972Y-112022442D01*
X142841288Y-111826225D01*
X142837830Y-111822236D01*
X142823458Y-111804402D01*
X142523150Y-111431741D01*
X142519985Y-111427512D01*
X142460813Y-111342288D01*
X142233976Y-111015581D01*
X142231125Y-111011144D01*
X142214814Y-110983654D01*
X142082460Y-110760582D01*
X141975234Y-110579862D01*
X141972702Y-110575226D01*
X141853572Y-110337235D01*
X141748212Y-110126753D01*
X141746027Y-110121966D01*
X141740180Y-110107851D01*
X141640702Y-109867688D01*
X141554117Y-109658652D01*
X141552271Y-109653703D01*
X141393902Y-109177881D01*
X141392414Y-109172813D01*
X141381179Y-109128793D01*
X141268389Y-108686886D01*
X141267274Y-108681761D01*
X141178226Y-108188206D01*
X141177479Y-108183013D01*
X141123869Y-107684361D01*
X141123495Y-107679129D01*
X141105546Y-107176575D01*
X141105500Y-107173958D01*
X141105500Y-106144560D01*
X141127174Y-106092234D01*
X141179500Y-106070560D01*
X141191070Y-106071470D01*
X141216512Y-106075500D01*
X141216513Y-106075500D01*
X141733489Y-106075500D01*
X141783307Y-106067609D01*
X141833126Y-106059719D01*
X141953220Y-105998528D01*
X142048528Y-105903220D01*
X142109719Y-105783126D01*
X142125500Y-105683488D01*
X142125500Y-105116512D01*
X142109719Y-105016874D01*
X142048528Y-104896780D01*
X141953220Y-104801472D01*
X141953219Y-104801471D01*
X141833126Y-104740281D01*
X141833125Y-104740280D01*
X141733489Y-104724500D01*
X141733488Y-104724500D01*
X141216512Y-104724500D01*
X141216510Y-104724500D01*
X141181522Y-104730041D01*
X141126450Y-104716819D01*
X141096859Y-104668528D01*
X141084422Y-104589994D01*
X141042792Y-104461862D01*
X140981629Y-104341820D01*
X140980522Y-104340297D01*
X140959145Y-104310874D01*
X140902440Y-104232825D01*
X140889158Y-104219543D01*
X140889158Y-104219542D01*
X140867173Y-104197557D01*
X140851338Y-104159327D01*
X140845500Y-104145232D01*
X140845500Y-103953945D01*
X140867174Y-103901619D01*
X140919500Y-103879945D01*
X140956500Y-103889859D01*
X140999287Y-103914562D01*
X140999292Y-103914564D01*
X141131538Y-103949999D01*
X141131539Y-103950000D01*
X141268461Y-103950000D01*
X141268461Y-103949999D01*
X141400707Y-103914564D01*
X141400712Y-103914562D01*
X141519284Y-103846105D01*
X141519289Y-103846101D01*
X141594076Y-103771312D01*
X141646402Y-103749637D01*
X141656066Y-103750271D01*
X141657805Y-103750500D01*
X141742194Y-103750500D01*
X141742195Y-103750500D01*
X141823709Y-103728659D01*
X141896792Y-103686464D01*
X141956464Y-103626792D01*
X141998659Y-103553709D01*
X141998661Y-103553699D01*
X142000513Y-103549231D01*
X142002334Y-103549985D01*
X142032695Y-103510416D01*
X142069698Y-103500500D01*
X143994305Y-103500500D01*
X143994573Y-103500481D01*
X144043295Y-103500482D01*
X144095618Y-103522157D01*
X144117291Y-103574484D01*
X144095616Y-103626809D01*
X144087234Y-103634022D01*
X144027850Y-103677849D01*
X144027846Y-103677853D01*
X143947207Y-103787116D01*
X143947206Y-103787118D01*
X143902355Y-103915295D01*
X143902354Y-103915299D01*
X143902354Y-103915301D01*
X143899500Y-103945734D01*
X143899500Y-104554266D01*
X143902354Y-104584699D01*
X143902354Y-104584701D01*
X143902355Y-104584704D01*
X143947206Y-104712881D01*
X143947207Y-104712883D01*
X144027846Y-104822146D01*
X144027853Y-104822153D01*
X144137116Y-104902792D01*
X144137118Y-104902793D01*
X144265295Y-104947644D01*
X144265301Y-104947646D01*
X144295734Y-104950500D01*
X144295741Y-104950500D01*
X144904258Y-104950500D01*
X144904266Y-104950500D01*
X144934699Y-104947646D01*
X145062882Y-104902793D01*
X145172150Y-104822150D01*
X145252793Y-104712882D01*
X145297646Y-104584699D01*
X145300500Y-104554266D01*
X145300500Y-104476380D01*
X145302657Y-104458644D01*
X145387368Y-104115508D01*
X145474857Y-103761117D01*
X145486930Y-103735226D01*
X145595891Y-103585987D01*
X145597871Y-103583227D01*
X145598122Y-103582871D01*
X145604683Y-103567666D01*
X145608534Y-103560000D01*
X145646503Y-103494237D01*
X145675499Y-103386020D01*
X145675500Y-103386020D01*
X145675500Y-103273980D01*
X145675499Y-103273979D01*
X145667822Y-103245329D01*
X145646503Y-103165763D01*
X145590485Y-103068737D01*
X145511263Y-102989515D01*
X145511260Y-102989513D01*
X145510683Y-102988936D01*
X145489009Y-102936610D01*
X145510681Y-102884288D01*
X145528420Y-102866548D01*
X145528425Y-102866545D01*
X145534510Y-102860460D01*
X145534511Y-102860460D01*
X145540811Y-102854160D01*
X145540816Y-102854157D01*
X145562485Y-102832485D01*
X145562486Y-102832486D01*
X145594689Y-102800281D01*
X145594691Y-102800281D01*
X145607325Y-102787645D01*
X145607363Y-102787630D01*
X145628356Y-102766636D01*
X145628357Y-102766637D01*
X145709398Y-102685594D01*
X145848938Y-102503739D01*
X145963546Y-102305226D01*
X146051263Y-102093452D01*
X146110586Y-101872040D01*
X146140502Y-101644778D01*
X146140500Y-101530167D01*
X146140500Y-101509748D01*
X146140500Y-101192429D01*
X146140658Y-101187589D01*
X146149281Y-101056020D01*
X146156407Y-100947301D01*
X146157671Y-100937705D01*
X146169941Y-100876020D01*
X146204174Y-100703921D01*
X146206678Y-100694577D01*
X146275744Y-100491119D01*
X146313087Y-100448539D01*
X146369603Y-100444835D01*
X146412185Y-100482179D01*
G37*
%TD.AperFunction*%
%TA.AperFunction,Conductor*%
G36*
X162331326Y-109455355D02*
G01*
X162350479Y-109488529D01*
X162396969Y-109662037D01*
X162396973Y-109662048D01*
X162492281Y-109892143D01*
X162492284Y-109892151D01*
X162616815Y-110107845D01*
X162616819Y-110107851D01*
X162652961Y-110154952D01*
X162667620Y-110209659D01*
X162652961Y-110245048D01*
X162616819Y-110292148D01*
X162616815Y-110292154D01*
X162492284Y-110507848D01*
X162492281Y-110507856D01*
X162396973Y-110737951D01*
X162396969Y-110737962D01*
X162350479Y-110911470D01*
X162316000Y-110956404D01*
X162259848Y-110963797D01*
X162214914Y-110929318D01*
X162205000Y-110892318D01*
X162205000Y-109507681D01*
X162226674Y-109455355D01*
X162279000Y-109433681D01*
X162331326Y-109455355D01*
G37*
%TD.AperFunction*%
%TA.AperFunction,Conductor*%
G36*
X162643219Y-107852052D02*
G01*
X162664893Y-107904378D01*
X162649602Y-107949426D01*
X162616814Y-107992156D01*
X162492284Y-108207848D01*
X162492281Y-108207856D01*
X162396973Y-108437951D01*
X162396969Y-108437962D01*
X162350979Y-108609604D01*
X162316500Y-108654538D01*
X162260348Y-108661931D01*
X162215414Y-108627452D01*
X162205500Y-108590452D01*
X162205500Y-108215772D01*
X162227174Y-108163446D01*
X162382540Y-108008080D01*
X162538568Y-107852051D01*
X162590893Y-107830378D01*
X162643219Y-107852052D01*
G37*
%TD.AperFunction*%
%TA.AperFunction,Conductor*%
G36*
X139401826Y-96556122D02*
G01*
X139422078Y-96594013D01*
X139443673Y-96702593D01*
X139444937Y-96712190D01*
X139459341Y-96932015D01*
X139459499Y-96936852D01*
X139459499Y-96960031D01*
X139459499Y-96981730D01*
X139459499Y-96981732D01*
X139459500Y-96987694D01*
X139459500Y-98104166D01*
X139459508Y-98104303D01*
X139459508Y-98161448D01*
X139491249Y-98361878D01*
X139491284Y-98362095D01*
X139514823Y-98434543D01*
X139530889Y-98483992D01*
X139526444Y-98540454D01*
X139483376Y-98577237D01*
X139479663Y-98578336D01*
X139385767Y-98603495D01*
X139385758Y-98603499D01*
X139288736Y-98659515D01*
X139209515Y-98738736D01*
X139153499Y-98835758D01*
X139153495Y-98835767D01*
X139124500Y-98943979D01*
X139124500Y-99056020D01*
X139153495Y-99164232D01*
X139153496Y-99164235D01*
X139153497Y-99164237D01*
X139206625Y-99256258D01*
X139209569Y-99261356D01*
X139211954Y-99264670D01*
X139212818Y-99265952D01*
X139363475Y-99448036D01*
X139380459Y-99495792D01*
X139380433Y-99499090D01*
X139375813Y-99546525D01*
X139378584Y-99605470D01*
X139379500Y-99610206D01*
X139379500Y-100072195D01*
X139384004Y-100089005D01*
X139385603Y-100094972D01*
X139378209Y-100151125D01*
X139333276Y-100185603D01*
X139294972Y-100185603D01*
X139272195Y-100179500D01*
X139272194Y-100179500D01*
X138817304Y-100179500D01*
X138807914Y-100178902D01*
X138806960Y-100178780D01*
X138806955Y-100178779D01*
X138797136Y-100178220D01*
X138749395Y-100175506D01*
X138525795Y-100194321D01*
X138520552Y-100195712D01*
X138515603Y-100197025D01*
X138496628Y-100199500D01*
X137518351Y-100199500D01*
X137518058Y-100199518D01*
X137471255Y-100199517D01*
X137290211Y-100223345D01*
X137290199Y-100223347D01*
X137113819Y-100270602D01*
X137113812Y-100270605D01*
X137074579Y-100286855D01*
X137058180Y-100290938D01*
X137058255Y-100291318D01*
X137054695Y-100292016D01*
X136697102Y-100399469D01*
X136682587Y-100406721D01*
X136668671Y-100411999D01*
X136625766Y-100423495D01*
X136625761Y-100423497D01*
X136528736Y-100479515D01*
X136449515Y-100558736D01*
X136393499Y-100655758D01*
X136393495Y-100655767D01*
X136364500Y-100763979D01*
X136364500Y-100876020D01*
X136393495Y-100984232D01*
X136393496Y-100984235D01*
X136393497Y-100984237D01*
X136449515Y-101081263D01*
X136528737Y-101160485D01*
X136625763Y-101216503D01*
X136733979Y-101245499D01*
X136733980Y-101245500D01*
X136733982Y-101245500D01*
X136846020Y-101245500D01*
X136846020Y-101245499D01*
X136954237Y-101216503D01*
X137051263Y-101160485D01*
X137130485Y-101081263D01*
X137130488Y-101081257D01*
X137133436Y-101077416D01*
X137134164Y-101077975D01*
X137141179Y-101069676D01*
X137140589Y-101069090D01*
X137143145Y-101066513D01*
X137143144Y-101066513D01*
X137143149Y-101066510D01*
X137313104Y-100857725D01*
X137349015Y-100833630D01*
X137401042Y-100817850D01*
X137415267Y-100815020D01*
X137559134Y-100800855D01*
X137566380Y-100800500D01*
X137610129Y-100800502D01*
X137610132Y-100800500D01*
X137616079Y-100800501D01*
X137616104Y-100800500D01*
X137786507Y-100800500D01*
X137838833Y-100822174D01*
X137860507Y-100874500D01*
X137857985Y-100893653D01*
X137844500Y-100943979D01*
X137844500Y-101056020D01*
X137873495Y-101164232D01*
X137873499Y-101164241D01*
X137886979Y-101187589D01*
X137927458Y-101257701D01*
X137929517Y-101261266D01*
X137929526Y-101261278D01*
X137929527Y-101261285D01*
X137931940Y-101265463D01*
X137930819Y-101266109D01*
X137932754Y-101273332D01*
X137940955Y-101282739D01*
X137939797Y-101299632D01*
X137944178Y-101315988D01*
X137937936Y-101326794D01*
X137937084Y-101339244D01*
X137924656Y-101349790D01*
X137915853Y-101365033D01*
X137894392Y-101376462D01*
X137893454Y-101376777D01*
X137785897Y-101409773D01*
X137767172Y-101419228D01*
X137762136Y-101420922D01*
X137761347Y-101420867D01*
X137757709Y-101422257D01*
X137715766Y-101433495D01*
X137715761Y-101433497D01*
X137618736Y-101489515D01*
X137539515Y-101568736D01*
X137483499Y-101665758D01*
X137483495Y-101665767D01*
X137454500Y-101773979D01*
X137454500Y-101886020D01*
X137483495Y-101994232D01*
X137483499Y-101994241D01*
X137539516Y-102091265D01*
X137542468Y-102095112D01*
X137541068Y-102096186D01*
X137560359Y-102142759D01*
X137538685Y-102195085D01*
X137523367Y-102206840D01*
X137518742Y-102209510D01*
X137518737Y-102209514D01*
X137439515Y-102288736D01*
X137383499Y-102385758D01*
X137383495Y-102385767D01*
X137354500Y-102493979D01*
X137354500Y-102606020D01*
X137357163Y-102615960D01*
X137349769Y-102672112D01*
X137304834Y-102706589D01*
X137264397Y-102705982D01*
X137115307Y-102661202D01*
X137106269Y-102658710D01*
X137105252Y-102658454D01*
X137105241Y-102658453D01*
X137096360Y-102658211D01*
X137079228Y-102655718D01*
X137056019Y-102649500D01*
X137056018Y-102649500D01*
X136943982Y-102649500D01*
X136943980Y-102649500D01*
X136835767Y-102678495D01*
X136835758Y-102678499D01*
X136738736Y-102734515D01*
X136659515Y-102813736D01*
X136603499Y-102910758D01*
X136603495Y-102910767D01*
X136574500Y-103018979D01*
X136574500Y-103131020D01*
X136603495Y-103239232D01*
X136603499Y-103239241D01*
X136623555Y-103273979D01*
X136659515Y-103336263D01*
X136738737Y-103415485D01*
X136835763Y-103471503D01*
X136943979Y-103500499D01*
X136943980Y-103500500D01*
X136943982Y-103500500D01*
X137056020Y-103500500D01*
X137066786Y-103497614D01*
X137085039Y-103492723D01*
X137097121Y-103490541D01*
X137115284Y-103488803D01*
X137446109Y-103389439D01*
X137482104Y-103378628D01*
X137503384Y-103375500D01*
X137575670Y-103375500D01*
X137615237Y-103375500D01*
X137615273Y-103375489D01*
X137619419Y-103375489D01*
X137694948Y-103375491D01*
X137931463Y-103344357D01*
X138161891Y-103282616D01*
X138382288Y-103191327D01*
X138588884Y-103072050D01*
X138778143Y-102926827D01*
X138801578Y-102903391D01*
X138834279Y-102884367D01*
X139056909Y-102823147D01*
X139076529Y-102820500D01*
X139272194Y-102820500D01*
X139272195Y-102820500D01*
X139294971Y-102814397D01*
X139351123Y-102821788D01*
X139385602Y-102866721D01*
X139385603Y-102905026D01*
X139379500Y-102927804D01*
X139379500Y-103382695D01*
X139378902Y-103392083D01*
X139378781Y-103393025D01*
X139375506Y-103450603D01*
X139394029Y-103670732D01*
X139394290Y-103677070D01*
X139393958Y-103860986D01*
X139393958Y-103861049D01*
X139393958Y-103861303D01*
X139393840Y-103926154D01*
X139394461Y-103930410D01*
X139394498Y-103935512D01*
X139394466Y-103935589D01*
X139394500Y-103936048D01*
X139394500Y-104036020D01*
X139423495Y-104144232D01*
X139423499Y-104144241D01*
X139443339Y-104178605D01*
X139479515Y-104241263D01*
X139558737Y-104320485D01*
X139655763Y-104376503D01*
X139763979Y-104405499D01*
X139763980Y-104405500D01*
X139763982Y-104405500D01*
X139876020Y-104405500D01*
X139876020Y-104405499D01*
X139978717Y-104377982D01*
X140034870Y-104385374D01*
X140066238Y-104421144D01*
X140109253Y-104525000D01*
X140124141Y-104560946D01*
X140156509Y-104609389D01*
X140167558Y-104664937D01*
X140136092Y-104712029D01*
X140094980Y-104724500D01*
X139666511Y-104724500D01*
X139566874Y-104740280D01*
X139566873Y-104740281D01*
X139446780Y-104801471D01*
X139363762Y-104884489D01*
X139311436Y-104906163D01*
X139287205Y-104902083D01*
X138873406Y-104758680D01*
X138871323Y-104758100D01*
X138857612Y-104752757D01*
X138833126Y-104740281D01*
X138833124Y-104740280D01*
X138833123Y-104740280D01*
X138733489Y-104724500D01*
X138733488Y-104724500D01*
X138216512Y-104724500D01*
X138216511Y-104724500D01*
X138116874Y-104740280D01*
X138116873Y-104740281D01*
X137996780Y-104801471D01*
X137901473Y-104896778D01*
X137875383Y-104947982D01*
X137832315Y-104984764D01*
X137775853Y-104980320D01*
X137739071Y-104937252D01*
X137738387Y-104935030D01*
X137728155Y-104899809D01*
X137647771Y-104763888D01*
X137536111Y-104652228D01*
X137400191Y-104571845D01*
X137248551Y-104527789D01*
X137213110Y-104525000D01*
X137125000Y-104525000D01*
X137125000Y-106275000D01*
X137213110Y-106275000D01*
X137248551Y-106272210D01*
X137400191Y-106228154D01*
X137536111Y-106147771D01*
X137647771Y-106036111D01*
X137728155Y-105900190D01*
X137738387Y-105864969D01*
X137773798Y-105820767D01*
X137830093Y-105814551D01*
X137874295Y-105849962D01*
X137875376Y-105852004D01*
X137901472Y-105903220D01*
X137996780Y-105998528D01*
X138116874Y-106059719D01*
X138216511Y-106075500D01*
X138216512Y-106075500D01*
X138733489Y-106075500D01*
X138783307Y-106067609D01*
X138833126Y-106059719D01*
X138857724Y-106047185D01*
X138870024Y-106042650D01*
X138869975Y-106042508D01*
X139109968Y-105959336D01*
X139287205Y-105897915D01*
X139343742Y-105901260D01*
X139363761Y-105915509D01*
X139446780Y-105998528D01*
X139566874Y-106059719D01*
X139666511Y-106075500D01*
X139666512Y-106075500D01*
X140183487Y-106075500D01*
X140183488Y-106075500D01*
X140208924Y-106071471D01*
X140263995Y-106084692D01*
X140293589Y-106132983D01*
X140294500Y-106144560D01*
X140294500Y-106806305D01*
X140272826Y-106858631D01*
X140220500Y-106880305D01*
X140183501Y-106870392D01*
X140154239Y-106853498D01*
X140154232Y-106853495D01*
X140046020Y-106824500D01*
X140046018Y-106824500D01*
X139933982Y-106824500D01*
X139933980Y-106824500D01*
X139825767Y-106853495D01*
X139825758Y-106853499D01*
X139728736Y-106909515D01*
X139649514Y-106988738D01*
X139649510Y-106988743D01*
X139634177Y-107015300D01*
X139627303Y-107025234D01*
X139615620Y-107039473D01*
X139615610Y-107039488D01*
X139465627Y-107320165D01*
X139421850Y-107356100D01*
X139410802Y-107358549D01*
X138651159Y-107466814D01*
X138103664Y-107544843D01*
X138103623Y-107544849D01*
X138103618Y-107544850D01*
X138099309Y-107545511D01*
X138098838Y-107545588D01*
X138095151Y-107546594D01*
X138094924Y-107545763D01*
X138074911Y-107549500D01*
X137275225Y-107549500D01*
X137179722Y-107564626D01*
X137179720Y-107564626D01*
X137176172Y-107566435D01*
X137142578Y-107574500D01*
X136879500Y-107574500D01*
X136827174Y-107552826D01*
X136805500Y-107500500D01*
X136805500Y-107311943D01*
X136805060Y-107298521D01*
X136805060Y-107298518D01*
X136804427Y-107288859D01*
X136803109Y-107275474D01*
X136787976Y-107160531D01*
X136782731Y-107134164D01*
X136777731Y-107115505D01*
X136769091Y-107090055D01*
X136726597Y-106987465D01*
X136714712Y-106963362D01*
X136705068Y-106946656D01*
X136705066Y-106946652D01*
X136705060Y-106946643D01*
X136705056Y-106946636D01*
X136690118Y-106924279D01*
X136676001Y-106905882D01*
X136619552Y-106832315D01*
X136619536Y-106832295D01*
X136611000Y-106821894D01*
X136604623Y-106814623D01*
X136595435Y-106804815D01*
X136027174Y-106236554D01*
X136005500Y-106184228D01*
X136005500Y-105973960D01*
X136027174Y-105921634D01*
X136079500Y-105899960D01*
X136131826Y-105921634D01*
X136143195Y-105936291D01*
X136202228Y-106036111D01*
X136313888Y-106147771D01*
X136449808Y-106228154D01*
X136601448Y-106272210D01*
X136636890Y-106275000D01*
X136725000Y-106275000D01*
X136725000Y-104525000D01*
X136636890Y-104525000D01*
X136601448Y-104527789D01*
X136449808Y-104571845D01*
X136313888Y-104652228D01*
X136202228Y-104763888D01*
X136143195Y-104863708D01*
X136097903Y-104897714D01*
X136041831Y-104889734D01*
X136007825Y-104844442D01*
X136005500Y-104826039D01*
X136005500Y-98403604D01*
X136027174Y-98351278D01*
X136079500Y-98329604D01*
X136115912Y-98339182D01*
X136370567Y-98483126D01*
X136551982Y-98585671D01*
X136553987Y-98586804D01*
X136579675Y-98596326D01*
X136587542Y-98599773D01*
X136616874Y-98614719D01*
X136680195Y-98624748D01*
X136716511Y-98630500D01*
X136716512Y-98630500D01*
X137283489Y-98630500D01*
X137308397Y-98626554D01*
X137383126Y-98614719D01*
X137418062Y-98596917D01*
X137428494Y-98592572D01*
X137446012Y-98586804D01*
X137763585Y-98407294D01*
X137819803Y-98400415D01*
X137836412Y-98407294D01*
X138153987Y-98586804D01*
X138179675Y-98596326D01*
X138187542Y-98599773D01*
X138216874Y-98614719D01*
X138280195Y-98624748D01*
X138316511Y-98630500D01*
X138316512Y-98630500D01*
X138883489Y-98630500D01*
X138933307Y-98622609D01*
X138983126Y-98614719D01*
X139103220Y-98553528D01*
X139198528Y-98458220D01*
X139259719Y-98338126D01*
X139275500Y-98238488D01*
X139275500Y-97721512D01*
X139275278Y-97720113D01*
X139259719Y-97621874D01*
X139259718Y-97621873D01*
X139259561Y-97621565D01*
X139198528Y-97501780D01*
X139103220Y-97406472D01*
X139103219Y-97406471D01*
X138983126Y-97345281D01*
X138983125Y-97345280D01*
X138883489Y-97329500D01*
X138883488Y-97329500D01*
X138517426Y-97329500D01*
X138465100Y-97307826D01*
X138443426Y-97255500D01*
X138465100Y-97203174D01*
X138495585Y-97184797D01*
X138822539Y-97083797D01*
X138844380Y-97080500D01*
X138883489Y-97080500D01*
X138935564Y-97072252D01*
X138983126Y-97064719D01*
X139103220Y-97003528D01*
X139198528Y-96908220D01*
X139259719Y-96788126D01*
X139275500Y-96688488D01*
X139275500Y-96608448D01*
X139297174Y-96556122D01*
X139349500Y-96534448D01*
X139401826Y-96556122D01*
G37*
%TD.AperFunction*%
%TA.AperFunction,Conductor*%
G36*
X158558715Y-98736556D02*
G01*
X158580389Y-98788882D01*
X158578967Y-98803319D01*
X158549500Y-98951460D01*
X158549500Y-99148539D01*
X158587947Y-99341829D01*
X158587950Y-99341839D01*
X158663367Y-99523913D01*
X158772860Y-99687781D01*
X158912218Y-99827139D01*
X159030306Y-99906043D01*
X159061772Y-99953135D01*
X159050723Y-100008684D01*
X159022789Y-100033506D01*
X158973221Y-100058762D01*
X158973212Y-100058767D01*
X158833076Y-100160582D01*
X158710582Y-100283076D01*
X158608767Y-100423212D01*
X158530127Y-100577553D01*
X158530125Y-100577557D01*
X158476600Y-100742288D01*
X158476597Y-100742301D01*
X158449500Y-100913388D01*
X158449500Y-101086611D01*
X158476597Y-101257698D01*
X158476600Y-101257711D01*
X158530125Y-101422442D01*
X158530127Y-101422446D01*
X158608767Y-101576787D01*
X158697923Y-101699500D01*
X158710586Y-101716928D01*
X158833072Y-101839414D01*
X158833075Y-101839416D01*
X158833076Y-101839417D01*
X158973212Y-101941232D01*
X159127553Y-102019872D01*
X159127557Y-102019874D01*
X159292288Y-102073399D01*
X159292294Y-102073400D01*
X159292299Y-102073402D01*
X159405069Y-102091263D01*
X159463388Y-102100500D01*
X159463389Y-102100500D01*
X159636611Y-102100500D01*
X159735171Y-102084889D01*
X159790243Y-102098110D01*
X159819836Y-102146401D01*
X159806615Y-102201474D01*
X159799073Y-102210304D01*
X158204552Y-103804826D01*
X158195367Y-103814631D01*
X158189007Y-103821883D01*
X158180461Y-103832296D01*
X158109877Y-103924283D01*
X158109859Y-103924309D01*
X158094947Y-103946627D01*
X158085294Y-103963347D01*
X158073396Y-103987475D01*
X158030920Y-104090021D01*
X158030909Y-104090050D01*
X158022266Y-104115508D01*
X158017267Y-104134162D01*
X158012025Y-104160517D01*
X158012022Y-104160538D01*
X157996890Y-104275476D01*
X157995572Y-104288871D01*
X157994939Y-104298521D01*
X157994500Y-104311943D01*
X157994500Y-104984226D01*
X157972826Y-105036552D01*
X156804554Y-106204823D01*
X156795364Y-106214634D01*
X156789007Y-106221882D01*
X156780473Y-106232281D01*
X156709888Y-106324269D01*
X156709885Y-106324274D01*
X156709877Y-106324284D01*
X156702380Y-106335504D01*
X156694932Y-106346652D01*
X156694932Y-106346653D01*
X156685282Y-106363370D01*
X156673409Y-106387449D01*
X156673406Y-106387454D01*
X156668365Y-106399625D01*
X156628314Y-106439671D01*
X156571677Y-106439669D01*
X156531631Y-106399619D01*
X156526605Y-106387484D01*
X156526603Y-106387481D01*
X156526597Y-106387465D01*
X156514712Y-106363362D01*
X156505066Y-106346653D01*
X156505066Y-106346652D01*
X156505060Y-106346643D01*
X156505056Y-106346636D01*
X156490118Y-106324279D01*
X156473874Y-106303109D01*
X156419552Y-106232315D01*
X156419536Y-106232295D01*
X156411000Y-106221894D01*
X156404623Y-106214623D01*
X156395647Y-106205041D01*
X156395438Y-106204818D01*
X156295182Y-106104562D01*
X156285373Y-106095374D01*
X156278105Y-106088999D01*
X156267693Y-106080455D01*
X156175721Y-106009883D01*
X156175722Y-106009883D01*
X156153368Y-105994947D01*
X156153367Y-105994946D01*
X156153362Y-105994943D01*
X156146460Y-105990958D01*
X156136653Y-105985296D01*
X156136642Y-105985290D01*
X156136638Y-105985288D01*
X156113666Y-105973960D01*
X156112541Y-105973405D01*
X156112525Y-105973398D01*
X156053539Y-105948965D01*
X156009944Y-105930908D01*
X156009935Y-105930904D01*
X156009925Y-105930901D01*
X155984508Y-105922273D01*
X155984507Y-105922272D01*
X155984499Y-105922270D01*
X155965842Y-105917270D01*
X155960565Y-105916220D01*
X155941065Y-105912340D01*
X155893975Y-105880871D01*
X155882930Y-105825321D01*
X155903179Y-105787439D01*
X156495435Y-105195184D01*
X156504626Y-105185372D01*
X156511008Y-105178095D01*
X156519541Y-105167698D01*
X156590115Y-105075725D01*
X156605052Y-105053369D01*
X156614711Y-105036638D01*
X156626597Y-105012534D01*
X156669091Y-104909944D01*
X156677731Y-104884494D01*
X156682731Y-104865835D01*
X156684820Y-104855329D01*
X156716282Y-104808236D01*
X156771830Y-104797183D01*
X156818925Y-104828645D01*
X156823879Y-104837259D01*
X156842988Y-104876347D01*
X156928653Y-104962012D01*
X157037491Y-105015220D01*
X157108051Y-105025500D01*
X157501948Y-105025499D01*
X157555181Y-105017744D01*
X157572504Y-105015221D01*
X157572505Y-105015220D01*
X157572509Y-105015220D01*
X157681347Y-104962012D01*
X157767012Y-104876347D01*
X157820220Y-104767509D01*
X157830500Y-104696949D01*
X157830499Y-103753052D01*
X157820799Y-103686464D01*
X157820221Y-103682495D01*
X157820220Y-103682492D01*
X157820220Y-103682491D01*
X157767012Y-103573653D01*
X157681347Y-103487988D01*
X157649042Y-103472195D01*
X157572510Y-103434780D01*
X157501954Y-103424500D01*
X157501949Y-103424500D01*
X157435432Y-103424500D01*
X157401261Y-103416138D01*
X157264881Y-103345138D01*
X157228476Y-103301750D01*
X157233414Y-103245329D01*
X157276802Y-103208924D01*
X157299052Y-103205500D01*
X157388055Y-103205500D01*
X157398318Y-103205163D01*
X157401481Y-103205060D01*
X157411140Y-103204427D01*
X157424525Y-103203109D01*
X157539468Y-103187976D01*
X157565835Y-103182731D01*
X157583408Y-103178021D01*
X157602563Y-103175500D01*
X157769746Y-103175500D01*
X157769748Y-103175500D01*
X157828231Y-103163867D01*
X157894552Y-103119552D01*
X157938867Y-103053231D01*
X157950500Y-102994748D01*
X157950500Y-102970771D01*
X157972174Y-102918445D01*
X157983128Y-102907491D01*
X157995435Y-102895184D01*
X158004626Y-102885372D01*
X158011008Y-102878095D01*
X158019541Y-102867698D01*
X158090115Y-102775725D01*
X158105052Y-102753369D01*
X158114711Y-102736638D01*
X158126597Y-102712534D01*
X158169091Y-102609944D01*
X158177731Y-102584494D01*
X158182731Y-102565835D01*
X158187976Y-102539468D01*
X158203109Y-102424525D01*
X158204427Y-102411140D01*
X158205060Y-102401481D01*
X158205500Y-102388042D01*
X158205500Y-99015771D01*
X158227173Y-98963446D01*
X158454063Y-98736555D01*
X158506389Y-98714882D01*
X158558715Y-98736556D01*
G37*
%TD.AperFunction*%
%TA.AperFunction,Conductor*%
G36*
X141337178Y-103167474D02*
G01*
X141357826Y-103188122D01*
X141379500Y-103240448D01*
X141379500Y-103370552D01*
X141357826Y-103422878D01*
X141305500Y-103444552D01*
X141253174Y-103422878D01*
X141167474Y-103337178D01*
X141145800Y-103284852D01*
X141167474Y-103232526D01*
X141232526Y-103167474D01*
X141284852Y-103145800D01*
X141337178Y-103167474D01*
G37*
%TD.AperFunction*%
%TA.AperFunction,Conductor*%
G36*
X152874891Y-97871674D02*
G01*
X152896565Y-97924000D01*
X152886652Y-97960998D01*
X152885281Y-97963371D01*
X152873410Y-97987447D01*
X152873405Y-97987457D01*
X152830909Y-98090050D01*
X152830905Y-98090063D01*
X152822266Y-98115508D01*
X152817267Y-98134162D01*
X152812025Y-98160517D01*
X152812022Y-98160538D01*
X152796890Y-98275476D01*
X152795572Y-98288871D01*
X152794939Y-98298521D01*
X152794500Y-98311943D01*
X152794500Y-102495162D01*
X152794939Y-102508584D01*
X152795572Y-102518232D01*
X152796891Y-102531631D01*
X152812022Y-102646570D01*
X152812025Y-102646590D01*
X152817265Y-102672930D01*
X152817273Y-102672963D01*
X152822262Y-102691585D01*
X152822267Y-102691599D01*
X152830908Y-102717053D01*
X152843867Y-102748338D01*
X152843867Y-102751063D01*
X152845657Y-102753119D01*
X152849500Y-102776656D01*
X152849500Y-102833491D01*
X152827826Y-102885817D01*
X152775500Y-102907491D01*
X152728556Y-102890695D01*
X152715258Y-102879782D01*
X152709877Y-102874905D01*
X152678831Y-102843860D01*
X152653908Y-102818937D01*
X152647525Y-102811658D01*
X152642936Y-102805677D01*
X152596737Y-102745466D01*
X152587083Y-102728745D01*
X152557026Y-102656179D01*
X152552029Y-102637527D01*
X152541133Y-102554760D01*
X152540500Y-102545102D01*
X152540500Y-100687361D01*
X152540485Y-100687142D01*
X152540488Y-100635648D01*
X152512523Y-100459046D01*
X152510398Y-100445626D01*
X152510396Y-100445616D01*
X152510396Y-100445615D01*
X152450945Y-100262628D01*
X152450944Y-100262626D01*
X152450942Y-100262621D01*
X152365724Y-100095367D01*
X152363599Y-100091196D01*
X152250510Y-99935539D01*
X152221013Y-99906043D01*
X152204164Y-99889192D01*
X152204155Y-99889171D01*
X152110679Y-99795693D01*
X152110673Y-99795688D01*
X152110668Y-99795683D01*
X151946315Y-99676275D01*
X151835324Y-99619724D01*
X151765305Y-99584048D01*
X151765300Y-99584046D01*
X151650807Y-99546847D01*
X151607740Y-99510065D01*
X151603296Y-99453602D01*
X151628961Y-99417505D01*
X151747563Y-99327566D01*
X151838922Y-99207092D01*
X151894385Y-99066443D01*
X151905000Y-98978061D01*
X151905000Y-98785000D01*
X151815000Y-98785000D01*
X152750000Y-97850000D01*
X152822565Y-97850000D01*
X152874891Y-97871674D01*
G37*
%TD.AperFunction*%
%TA.AperFunction,Conductor*%
G36*
X139828962Y-100349687D02*
G01*
X139844290Y-100361448D01*
X140789095Y-101306253D01*
X140810769Y-101358579D01*
X140789095Y-101410905D01*
X140700000Y-101500000D01*
X140789094Y-101589094D01*
X140810768Y-101641420D01*
X140789094Y-101693746D01*
X139844290Y-102638550D01*
X139791964Y-102660224D01*
X139772814Y-102657703D01*
X139742196Y-102649500D01*
X139742195Y-102649500D01*
X139657805Y-102649500D01*
X139635026Y-102655603D01*
X139578874Y-102648209D01*
X139544396Y-102603275D01*
X139544396Y-102564972D01*
X139550500Y-102542195D01*
X139550500Y-102457805D01*
X139550500Y-102457803D01*
X139543538Y-102431821D01*
X139542296Y-102427186D01*
X139549688Y-102371035D01*
X139561448Y-102355708D01*
X140417157Y-101499999D01*
X139561448Y-100644290D01*
X139539774Y-100591964D01*
X139542294Y-100572818D01*
X139550500Y-100542195D01*
X139550500Y-100457805D01*
X139544397Y-100435027D01*
X139551789Y-100378876D01*
X139596722Y-100344397D01*
X139635028Y-100344397D01*
X139657805Y-100350500D01*
X139742195Y-100350500D01*
X139772812Y-100342296D01*
X139828962Y-100349687D01*
G37*
%TD.AperFunction*%
%TA.AperFunction,Conductor*%
G36*
X146883595Y-98302120D02*
G01*
X146894500Y-98340785D01*
X146894500Y-98416223D01*
X146889307Y-98443456D01*
X146657654Y-99028761D01*
X146641173Y-99053854D01*
X146239973Y-99455055D01*
X146239878Y-99455162D01*
X146171815Y-99523225D01*
X145996921Y-99742530D01*
X145847683Y-99980038D01*
X145817049Y-100043649D01*
X145725973Y-100232767D01*
X145725971Y-100232772D01*
X145725967Y-100232781D01*
X145633329Y-100497524D01*
X145633325Y-100497536D01*
X145570907Y-100771000D01*
X145557176Y-100892867D01*
X145539500Y-101049747D01*
X145539500Y-101150438D01*
X145539500Y-101482580D01*
X145539499Y-101482584D01*
X145539499Y-101498283D01*
X145539499Y-101508247D01*
X145539499Y-101527272D01*
X145539271Y-101533077D01*
X145525830Y-101703898D01*
X145524014Y-101715366D01*
X145484696Y-101879152D01*
X145481107Y-101890197D01*
X145442867Y-101982520D01*
X145402819Y-102022569D01*
X145346182Y-102022569D01*
X145306133Y-101982521D01*
X145300500Y-101954202D01*
X145300500Y-101445740D01*
X145300500Y-101445734D01*
X145297646Y-101415301D01*
X145290245Y-101394150D01*
X145252795Y-101287122D01*
X145252794Y-101287121D01*
X145252793Y-101287118D01*
X145244402Y-101275749D01*
X145240002Y-101269054D01*
X145221482Y-101237246D01*
X145057707Y-100955956D01*
X145050110Y-100899831D01*
X145058382Y-100880355D01*
X145192443Y-100659304D01*
X145198528Y-100653220D01*
X145211114Y-100628518D01*
X145220104Y-100613695D01*
X145223230Y-100605596D01*
X145226323Y-100598668D01*
X145259719Y-100533126D01*
X145275500Y-100433488D01*
X145275500Y-99916512D01*
X145274718Y-99911577D01*
X145259719Y-99816875D01*
X145259719Y-99816874D01*
X145223422Y-99745638D01*
X145218979Y-99689178D01*
X145255761Y-99646111D01*
X145266489Y-99641668D01*
X145274834Y-99638957D01*
X145411782Y-99569180D01*
X145536129Y-99478840D01*
X145562498Y-99452471D01*
X145562501Y-99452470D01*
X145605263Y-99409708D01*
X145624126Y-99390846D01*
X145624126Y-99390845D01*
X145630211Y-99384761D01*
X145630218Y-99384751D01*
X146564747Y-98450224D01*
X146580451Y-98434519D01*
X146584679Y-98430612D01*
X146713313Y-98320747D01*
X146722692Y-98313933D01*
X146781836Y-98277689D01*
X146837775Y-98268830D01*
X146883595Y-98302120D01*
G37*
%TD.AperFunction*%
%TA.AperFunction,Conductor*%
G36*
X144053869Y-100735670D02*
G01*
X144141613Y-100880349D01*
X144150215Y-100936329D01*
X144142290Y-100955956D01*
X143987399Y-101221988D01*
X143975608Y-101237246D01*
X143909081Y-101303351D01*
X143864072Y-101370479D01*
X143864068Y-101370487D01*
X143860643Y-101378755D01*
X143860641Y-101378762D01*
X143845000Y-101457398D01*
X143845000Y-101509345D01*
X143842477Y-101528502D01*
X143837637Y-101546561D01*
X143830246Y-101564403D01*
X143820899Y-101580593D01*
X143809139Y-101595920D01*
X143795922Y-101609137D01*
X143780598Y-101620896D01*
X143764401Y-101630248D01*
X143746554Y-101637640D01*
X143728499Y-101642478D01*
X143709348Y-101645000D01*
X143654799Y-101645000D01*
X143576492Y-101660504D01*
X143576490Y-101660505D01*
X143568240Y-101663905D01*
X143533297Y-101687130D01*
X143492337Y-101699500D01*
X143311835Y-101699500D01*
X143259509Y-101677826D01*
X143237835Y-101625500D01*
X143259509Y-101573174D01*
X143274837Y-101561413D01*
X143276094Y-101560686D01*
X143282780Y-101556827D01*
X143434757Y-101440212D01*
X143471046Y-101403921D01*
X143474508Y-101400460D01*
X143474511Y-101400460D01*
X143480819Y-101394152D01*
X143480822Y-101394150D01*
X143502486Y-101372486D01*
X143536140Y-101338831D01*
X143673389Y-101201582D01*
X143673390Y-101201579D01*
X143676889Y-101198081D01*
X143677057Y-101197889D01*
X143678154Y-101196792D01*
X143703362Y-101171587D01*
X143708703Y-101164237D01*
X143771786Y-101077416D01*
X143799737Y-101038948D01*
X143874176Y-100892865D01*
X143920220Y-100751171D01*
X143957002Y-100708108D01*
X144013465Y-100703665D01*
X144053869Y-100735670D01*
G37*
%TD.AperFunction*%
%TA.AperFunction,Conductor*%
G36*
X147089576Y-95963489D02*
G01*
X147124279Y-95990118D01*
X147146636Y-96005056D01*
X147146643Y-96005060D01*
X147146652Y-96005066D01*
X147146656Y-96005068D01*
X147163344Y-96014702D01*
X147163348Y-96014704D01*
X147163362Y-96014712D01*
X147187465Y-96026597D01*
X147290055Y-96069091D01*
X147315399Y-96077695D01*
X147315514Y-96077734D01*
X147316686Y-96078090D01*
X147316500Y-96078699D01*
X147360034Y-96112093D01*
X147367435Y-96168245D01*
X147359649Y-96186772D01*
X147298718Y-96289800D01*
X147252900Y-96447506D01*
X147250000Y-96484358D01*
X147250000Y-96675000D01*
X147600000Y-96675000D01*
X147600000Y-97075000D01*
X147250000Y-97075000D01*
X147250000Y-97265641D01*
X147252900Y-97302493D01*
X147284620Y-97411674D01*
X147278405Y-97467969D01*
X147234203Y-97503381D01*
X147223218Y-97505686D01*
X147044863Y-97529170D01*
X147044860Y-97529170D01*
X146825242Y-97588020D01*
X146615188Y-97675030D01*
X146615185Y-97675031D01*
X146418276Y-97788719D01*
X146237899Y-97927129D01*
X146206881Y-97958148D01*
X146185490Y-97979539D01*
X146185489Y-97979540D01*
X146157514Y-98007514D01*
X146147751Y-98017278D01*
X146138432Y-98026597D01*
X145401826Y-98763202D01*
X145349500Y-98784876D01*
X145297174Y-98763202D01*
X145275500Y-98710876D01*
X145275500Y-98366511D01*
X145259719Y-98266874D01*
X145259718Y-98266873D01*
X145245255Y-98238488D01*
X145198528Y-98146780D01*
X145103220Y-98051472D01*
X145103219Y-98051471D01*
X144983126Y-97990281D01*
X144983125Y-97990280D01*
X144883489Y-97974500D01*
X144883488Y-97974500D01*
X144316512Y-97974500D01*
X144316511Y-97974500D01*
X144216874Y-97990280D01*
X144216873Y-97990281D01*
X144096780Y-98051471D01*
X144001471Y-98146780D01*
X143940281Y-98266873D01*
X143940280Y-98266874D01*
X143926095Y-98356439D01*
X143919059Y-98378225D01*
X143579730Y-99050060D01*
X143566003Y-99069024D01*
X143314514Y-99320514D01*
X143302533Y-99332495D01*
X143302527Y-99332497D01*
X143219794Y-99415231D01*
X143151437Y-99509318D01*
X143103146Y-99538911D01*
X143048074Y-99525689D01*
X143027485Y-99502823D01*
X142990485Y-99438737D01*
X142911263Y-99359515D01*
X142902007Y-99354171D01*
X142814241Y-99303499D01*
X142814232Y-99303495D01*
X142706020Y-99274500D01*
X142706018Y-99274500D01*
X142593982Y-99274500D01*
X142593980Y-99274500D01*
X142485767Y-99303495D01*
X142485758Y-99303499D01*
X142388736Y-99359515D01*
X142309515Y-99438736D01*
X142253497Y-99535761D01*
X142253496Y-99535765D01*
X142238859Y-99590388D01*
X142236337Y-99593673D01*
X142234546Y-99602295D01*
X142226939Y-99618742D01*
X142226936Y-99618752D01*
X142173741Y-99839093D01*
X142173741Y-99839094D01*
X142166433Y-99869363D01*
X142133084Y-99915141D01*
X142077133Y-99923929D01*
X142031355Y-99890580D01*
X142020500Y-99851996D01*
X142020500Y-99572939D01*
X142020774Y-99566578D01*
X142020906Y-99565036D01*
X142021329Y-99560141D01*
X142020788Y-99554029D01*
X142020500Y-99547506D01*
X142020500Y-99527803D01*
X142019128Y-99522684D01*
X142016893Y-99510053D01*
X142016253Y-99502822D01*
X142015040Y-99489119D01*
X141999752Y-99432267D01*
X142007093Y-99376110D01*
X142018883Y-99360730D01*
X142303122Y-99076494D01*
X142303162Y-99076477D01*
X142324819Y-99054819D01*
X142324820Y-99054820D01*
X142378154Y-99001486D01*
X142466821Y-98879443D01*
X142512580Y-98789629D01*
X142555645Y-98752848D01*
X142612104Y-98757288D01*
X142616874Y-98759719D01*
X142639648Y-98763326D01*
X142716511Y-98775500D01*
X142716512Y-98775500D01*
X143233489Y-98775500D01*
X143310352Y-98763326D01*
X143333126Y-98759719D01*
X143453220Y-98698528D01*
X143548528Y-98603220D01*
X143609719Y-98483126D01*
X143625500Y-98383488D01*
X143625500Y-97816512D01*
X143623055Y-97801076D01*
X143636276Y-97746005D01*
X143684567Y-97716411D01*
X143696144Y-97715500D01*
X145041422Y-97715500D01*
X145059345Y-97715500D01*
X145059352Y-97715503D01*
X145090000Y-97715503D01*
X145157286Y-97715503D01*
X145210448Y-97707082D01*
X145290194Y-97694452D01*
X145290201Y-97694449D01*
X145290204Y-97694449D01*
X145418169Y-97652870D01*
X145418169Y-97652869D01*
X145418175Y-97652868D01*
X145538075Y-97591774D01*
X145646941Y-97512677D01*
X145694517Y-97465099D01*
X145711449Y-97448167D01*
X145744808Y-97414808D01*
X145796240Y-97363376D01*
X145881747Y-97245686D01*
X145910777Y-97188711D01*
X145953842Y-97151928D01*
X146010302Y-97156370D01*
X146016874Y-97159719D01*
X146071274Y-97168335D01*
X146116511Y-97175500D01*
X146116512Y-97175500D01*
X146633489Y-97175500D01*
X146683307Y-97167609D01*
X146733126Y-97159719D01*
X146853220Y-97098528D01*
X146948528Y-97003220D01*
X147009719Y-96883126D01*
X147025500Y-96783488D01*
X147025500Y-96216512D01*
X147009719Y-96116874D01*
X146978596Y-96055793D01*
X146974153Y-95999333D01*
X147010935Y-95956266D01*
X147067398Y-95951822D01*
X147089576Y-95963489D01*
G37*
%TD.AperFunction*%
%TA.AperFunction,Conductor*%
G36*
X141001825Y-93092445D02*
G01*
X143304815Y-95395435D01*
X143314623Y-95404623D01*
X143321894Y-95411000D01*
X143332295Y-95419536D01*
X143332302Y-95419541D01*
X143332315Y-95419552D01*
X143389410Y-95463362D01*
X143424279Y-95490118D01*
X143446636Y-95505056D01*
X143446643Y-95505060D01*
X143446652Y-95505066D01*
X143446656Y-95505068D01*
X143463344Y-95514702D01*
X143463348Y-95514704D01*
X143463362Y-95514712D01*
X143487465Y-95526597D01*
X143590055Y-95569091D01*
X143615505Y-95577731D01*
X143615510Y-95577732D01*
X143615512Y-95577733D01*
X143634164Y-95582731D01*
X143660531Y-95587976D01*
X143775475Y-95603109D01*
X143788860Y-95604427D01*
X143798519Y-95605060D01*
X143801038Y-95605142D01*
X143811945Y-95605500D01*
X143811958Y-95605500D01*
X145051279Y-95605500D01*
X145051291Y-95605500D01*
X145071435Y-95604510D01*
X145085872Y-95603088D01*
X145091232Y-95602292D01*
X145091865Y-95602451D01*
X145092433Y-95602124D01*
X145119231Y-95609302D01*
X145146170Y-95616047D01*
X145146507Y-95616609D01*
X145147141Y-95616779D01*
X145161018Y-95640812D01*
X145175294Y-95664623D01*
X145175462Y-95665827D01*
X145183866Y-95729633D01*
X145184500Y-95739296D01*
X145184500Y-95753855D01*
X145162826Y-95806181D01*
X145110500Y-95827855D01*
X145098927Y-95826944D01*
X145083494Y-95824500D01*
X145083488Y-95824500D01*
X144566512Y-95824500D01*
X144566511Y-95824500D01*
X144466874Y-95840280D01*
X144466873Y-95840281D01*
X144346780Y-95901471D01*
X144251471Y-95996780D01*
X144190281Y-96116873D01*
X144190280Y-96116874D01*
X144181627Y-96171512D01*
X144174500Y-96216512D01*
X144174500Y-96783488D01*
X144176605Y-96796780D01*
X144176945Y-96798923D01*
X144163724Y-96853995D01*
X144115433Y-96883589D01*
X144103856Y-96884500D01*
X143696144Y-96884500D01*
X143643818Y-96862826D01*
X143622144Y-96810500D01*
X143623055Y-96798923D01*
X143623395Y-96796780D01*
X143625500Y-96783488D01*
X143625500Y-96216512D01*
X143609719Y-96116874D01*
X143548528Y-95996780D01*
X143453220Y-95901472D01*
X143453219Y-95901471D01*
X143333126Y-95840281D01*
X143333125Y-95840280D01*
X143233489Y-95824500D01*
X143233488Y-95824500D01*
X142716512Y-95824500D01*
X142716511Y-95824500D01*
X142616874Y-95840280D01*
X142616873Y-95840281D01*
X142496780Y-95901471D01*
X142401473Y-95996778D01*
X142375383Y-96047982D01*
X142332315Y-96084764D01*
X142275853Y-96080320D01*
X142239071Y-96037252D01*
X142238387Y-96035030D01*
X142228155Y-95999809D01*
X142147771Y-95863888D01*
X142036111Y-95752228D01*
X141900191Y-95671845D01*
X141748551Y-95627789D01*
X141713110Y-95625000D01*
X141625000Y-95625000D01*
X141625000Y-98026000D01*
X141603326Y-98078326D01*
X141551000Y-98100000D01*
X141299000Y-98100000D01*
X141246674Y-98078326D01*
X141225000Y-98026000D01*
X141225000Y-95625000D01*
X141136890Y-95625000D01*
X141101448Y-95627789D01*
X140949808Y-95671845D01*
X140813888Y-95752228D01*
X140702228Y-95863888D01*
X140638195Y-95972163D01*
X140630505Y-95977936D01*
X140626826Y-95986820D01*
X140608641Y-95994352D01*
X140592903Y-96006169D01*
X140583383Y-96004814D01*
X140574500Y-96008494D01*
X140556316Y-96000962D01*
X140536831Y-95998189D01*
X140531057Y-95990499D01*
X140522174Y-95986820D01*
X140514641Y-95968635D01*
X140502825Y-95952897D01*
X140500500Y-95934494D01*
X140500500Y-95822460D01*
X140513027Y-95781265D01*
X140758792Y-95414577D01*
X140767922Y-95403468D01*
X140803050Y-95368342D01*
X140860646Y-95255304D01*
X140875500Y-95161519D01*
X140875499Y-94698482D01*
X140874976Y-94695182D01*
X140860646Y-94604695D01*
X140860645Y-94604693D01*
X140825976Y-94536653D01*
X140803050Y-94491658D01*
X140713342Y-94401950D01*
X140600304Y-94344354D01*
X140600302Y-94344353D01*
X140600301Y-94344353D01*
X140506519Y-94329500D01*
X139893480Y-94329500D01*
X139799695Y-94344353D01*
X139799693Y-94344354D01*
X139686657Y-94401950D01*
X139596951Y-94491656D01*
X139539353Y-94604698D01*
X139524500Y-94698480D01*
X139524500Y-95152586D01*
X139502826Y-95204912D01*
X139450500Y-95226586D01*
X139398174Y-95204912D01*
X139379125Y-95172119D01*
X139278122Y-94803007D01*
X139275499Y-94783477D01*
X139275499Y-94698480D01*
X139260646Y-94604695D01*
X139260645Y-94604693D01*
X139225976Y-94536653D01*
X139203050Y-94491658D01*
X139113342Y-94401950D01*
X139000304Y-94344354D01*
X139000302Y-94344353D01*
X139000301Y-94344353D01*
X138906519Y-94329500D01*
X138293480Y-94329500D01*
X138199696Y-94344353D01*
X138128543Y-94380608D01*
X138072081Y-94385051D01*
X138029013Y-94348268D01*
X138024570Y-94291806D01*
X138042620Y-94262349D01*
X138111618Y-94193351D01*
X138134490Y-94177793D01*
X138805774Y-93886611D01*
X138835222Y-93880499D01*
X138906519Y-93880499D01*
X139000304Y-93865646D01*
X139000306Y-93865645D01*
X139002419Y-93864568D01*
X139113342Y-93808050D01*
X139203050Y-93718342D01*
X139260646Y-93605304D01*
X139275500Y-93511519D01*
X139275499Y-93166310D01*
X139297173Y-93113985D01*
X139349499Y-93092311D01*
X139401825Y-93113985D01*
X139419104Y-93141188D01*
X139520105Y-93421019D01*
X139524500Y-93446141D01*
X139524500Y-93511519D01*
X139539353Y-93605304D01*
X139539354Y-93605306D01*
X139567478Y-93660501D01*
X139596950Y-93718342D01*
X139686658Y-93808050D01*
X139799696Y-93865646D01*
X139893481Y-93880500D01*
X140506518Y-93880499D01*
X140506519Y-93880499D01*
X140600304Y-93865646D01*
X140600306Y-93865645D01*
X140602419Y-93864568D01*
X140713342Y-93808050D01*
X140803050Y-93718342D01*
X140860646Y-93605304D01*
X140875500Y-93511519D01*
X140875499Y-93144770D01*
X140897173Y-93092445D01*
X140949499Y-93070771D01*
X141001825Y-93092445D01*
G37*
%TD.AperFunction*%
%TA.AperFunction,Conductor*%
G36*
X166492610Y-80222174D02*
G01*
X166514183Y-80270627D01*
X166519173Y-80365853D01*
X166519173Y-80365854D01*
X166576483Y-80727693D01*
X166671299Y-81081552D01*
X166736238Y-81250722D01*
X166802591Y-81423578D01*
X166968911Y-81750000D01*
X167168441Y-82057248D01*
X167398993Y-82341957D01*
X167658043Y-82601007D01*
X167942752Y-82831559D01*
X168250000Y-83031089D01*
X168576422Y-83197409D01*
X168918441Y-83328698D01*
X168918443Y-83328698D01*
X168918447Y-83328700D01*
X169154353Y-83391910D01*
X169272309Y-83423517D01*
X169634150Y-83480827D01*
X169729374Y-83485817D01*
X169780492Y-83510199D01*
X169799500Y-83559715D01*
X169799500Y-116440283D01*
X169777826Y-116492609D01*
X169729374Y-116514182D01*
X169634145Y-116519173D01*
X169272306Y-116576483D01*
X168918447Y-116671299D01*
X168576428Y-116802588D01*
X168250001Y-116968910D01*
X167942750Y-117168442D01*
X167658040Y-117398995D01*
X167398995Y-117658040D01*
X167168442Y-117942750D01*
X166968910Y-118250001D01*
X166802588Y-118576428D01*
X166671299Y-118918447D01*
X166576483Y-119272306D01*
X166519173Y-119634145D01*
X166519173Y-119634146D01*
X166514183Y-119729373D01*
X166489800Y-119780493D01*
X166440284Y-119799500D01*
X133559716Y-119799500D01*
X133507390Y-119777826D01*
X133485817Y-119729373D01*
X133480827Y-119634150D01*
X133423517Y-119272309D01*
X133328698Y-118918441D01*
X133197409Y-118576422D01*
X133031089Y-118250000D01*
X132831559Y-117942752D01*
X132601007Y-117658043D01*
X132341957Y-117398993D01*
X132057248Y-117168441D01*
X131750000Y-116968911D01*
X131423578Y-116802591D01*
X131423573Y-116802589D01*
X131423571Y-116802588D01*
X131081552Y-116671299D01*
X130727693Y-116576483D01*
X130365854Y-116519173D01*
X130270626Y-116514182D01*
X130219507Y-116489798D01*
X130200500Y-116440283D01*
X130200500Y-87411943D01*
X130694500Y-87411943D01*
X130694500Y-91888055D01*
X130694939Y-91901477D01*
X130695572Y-91911125D01*
X130696891Y-91924524D01*
X130712021Y-92039452D01*
X130712026Y-92039483D01*
X130717263Y-92065816D01*
X130717272Y-92065852D01*
X130722265Y-92084486D01*
X130730902Y-92109928D01*
X130730909Y-92109947D01*
X130773398Y-92212525D01*
X130773405Y-92212541D01*
X130785278Y-92236618D01*
X130785296Y-92236653D01*
X130794940Y-92253356D01*
X130794947Y-92253368D01*
X130809883Y-92275722D01*
X130880455Y-92367693D01*
X130888999Y-92378105D01*
X130895374Y-92385373D01*
X130895375Y-92385374D01*
X130904564Y-92395184D01*
X131104815Y-92595435D01*
X131114623Y-92604623D01*
X131121894Y-92611000D01*
X131132295Y-92619536D01*
X131222686Y-92688895D01*
X131251003Y-92737941D01*
X131236345Y-92792649D01*
X131192080Y-92820178D01*
X131185116Y-92821563D01*
X131146553Y-92833261D01*
X131146544Y-92833264D01*
X131119885Y-92844308D01*
X131119869Y-92844315D01*
X131092129Y-92859144D01*
X131084359Y-92863298D01*
X131084356Y-92863299D01*
X131084356Y-92863300D01*
X131084350Y-92863303D01*
X131021982Y-92904976D01*
X131021971Y-92904983D01*
X130998070Y-92920954D01*
X130998065Y-92920957D01*
X130998062Y-92920960D01*
X130977306Y-92937995D01*
X130966924Y-92946516D01*
X130946513Y-92966928D01*
X130946512Y-92966929D01*
X130946511Y-92966929D01*
X130920955Y-92998069D01*
X130863298Y-93084356D01*
X130844320Y-93119860D01*
X130844308Y-93119886D01*
X130833263Y-93146547D01*
X130833258Y-93146562D01*
X130827254Y-93169838D01*
X130823149Y-93181570D01*
X130821568Y-93185103D01*
X130821562Y-93185121D01*
X130799872Y-93294173D01*
X130799870Y-93294185D01*
X130796910Y-93314144D01*
X130795490Y-93328556D01*
X130795490Y-93328564D01*
X130794500Y-93348709D01*
X130794500Y-93348720D01*
X130794500Y-94188055D01*
X130794939Y-94201477D01*
X130795572Y-94211125D01*
X130795573Y-94211140D01*
X130796665Y-94222231D01*
X130796891Y-94224524D01*
X130812021Y-94339452D01*
X130812026Y-94339483D01*
X130817263Y-94365816D01*
X130817272Y-94365852D01*
X130822265Y-94384486D01*
X130830902Y-94409928D01*
X130830909Y-94409947D01*
X130873398Y-94512525D01*
X130873405Y-94512541D01*
X130885278Y-94536618D01*
X130885296Y-94536653D01*
X130890958Y-94546460D01*
X130892743Y-94549552D01*
X130894940Y-94553356D01*
X130894947Y-94553368D01*
X130909883Y-94575722D01*
X130980455Y-94667693D01*
X130988999Y-94678105D01*
X130995374Y-94685373D01*
X131004562Y-94695182D01*
X131572554Y-95263174D01*
X131594228Y-95315500D01*
X131572554Y-95367826D01*
X131520228Y-95389500D01*
X131170252Y-95389500D01*
X131141010Y-95395316D01*
X131111767Y-95401133D01*
X131045449Y-95445447D01*
X131045447Y-95445449D01*
X131001133Y-95511767D01*
X130997407Y-95530499D01*
X130989500Y-95570252D01*
X130989500Y-96879748D01*
X130996640Y-96915641D01*
X131001133Y-96938232D01*
X131030199Y-96981730D01*
X131045448Y-97004552D01*
X131089560Y-97034027D01*
X131111767Y-97048866D01*
X131111768Y-97048866D01*
X131111769Y-97048867D01*
X131170252Y-97060500D01*
X131369135Y-97060500D01*
X131399647Y-97067083D01*
X131565359Y-97142083D01*
X131589664Y-97153083D01*
X131628398Y-97194405D01*
X131626569Y-97251012D01*
X131585247Y-97289746D01*
X131559152Y-97294500D01*
X131511945Y-97294500D01*
X131498522Y-97294939D01*
X131488872Y-97295572D01*
X131488865Y-97295572D01*
X131488860Y-97295573D01*
X131486625Y-97295793D01*
X131475477Y-97296890D01*
X131360541Y-97312022D01*
X131360531Y-97312023D01*
X131360528Y-97312024D01*
X131360525Y-97312024D01*
X131360510Y-97312027D01*
X131334167Y-97317266D01*
X131334160Y-97317268D01*
X131315526Y-97322261D01*
X131315493Y-97322271D01*
X131290076Y-97330899D01*
X131290044Y-97330911D01*
X131187475Y-97373396D01*
X131187467Y-97373399D01*
X131187462Y-97373402D01*
X131163552Y-97385193D01*
X131163347Y-97385294D01*
X131146627Y-97394947D01*
X131124309Y-97409859D01*
X131124283Y-97409877D01*
X131032296Y-97480461D01*
X131021883Y-97489007D01*
X131014631Y-97495367D01*
X131004826Y-97504552D01*
X131004552Y-97504826D01*
X130995367Y-97514631D01*
X130989007Y-97521883D01*
X130980473Y-97532281D01*
X130909888Y-97624269D01*
X130909883Y-97624275D01*
X130909877Y-97624284D01*
X130905453Y-97630906D01*
X130894932Y-97646652D01*
X130894932Y-97646653D01*
X130885282Y-97663370D01*
X130873409Y-97687449D01*
X130873399Y-97687470D01*
X130830909Y-97790051D01*
X130830906Y-97790061D01*
X130822265Y-97815512D01*
X130817267Y-97834162D01*
X130812025Y-97860517D01*
X130812022Y-97860538D01*
X130796890Y-97975476D01*
X130796041Y-97984106D01*
X130795711Y-97987463D01*
X130795572Y-97988871D01*
X130794939Y-97998521D01*
X130794500Y-98011943D01*
X130794500Y-107788055D01*
X130794939Y-107801477D01*
X130795572Y-107811125D01*
X130796891Y-107824524D01*
X130812021Y-107939452D01*
X130812026Y-107939483D01*
X130817263Y-107965816D01*
X130817272Y-107965852D01*
X130822265Y-107984486D01*
X130830902Y-108009928D01*
X130830909Y-108009947D01*
X130873398Y-108112525D01*
X130873405Y-108112541D01*
X130885278Y-108136618D01*
X130885296Y-108136653D01*
X130894940Y-108153356D01*
X130894947Y-108153368D01*
X130909883Y-108175722D01*
X130980455Y-108267693D01*
X130988999Y-108278105D01*
X130995374Y-108285373D01*
X131004562Y-108295182D01*
X132786116Y-110076736D01*
X132807790Y-110129062D01*
X132786116Y-110181388D01*
X132686162Y-110281342D01*
X132579953Y-110440296D01*
X132506797Y-110616911D01*
X132506794Y-110616921D01*
X132483939Y-110731826D01*
X132469500Y-110804414D01*
X132469500Y-110995586D01*
X132477108Y-111033835D01*
X132506794Y-111183078D01*
X132506797Y-111183088D01*
X132579953Y-111359703D01*
X132686162Y-111518657D01*
X132821342Y-111653837D01*
X132980296Y-111760046D01*
X133087393Y-111804407D01*
X133156916Y-111833204D01*
X133344414Y-111870500D01*
X133344416Y-111870500D01*
X133535584Y-111870500D01*
X133535586Y-111870500D01*
X133723084Y-111833204D01*
X133899704Y-111760046D01*
X133928746Y-111740641D01*
X136350000Y-111740641D01*
X136352900Y-111777493D01*
X136398718Y-111935199D01*
X136482317Y-112076556D01*
X136598443Y-112192682D01*
X136739800Y-112276281D01*
X136897508Y-112322099D01*
X136897505Y-112322099D01*
X136934359Y-112325000D01*
X137050000Y-112325000D01*
X137450000Y-112325000D01*
X137565641Y-112325000D01*
X137602493Y-112322099D01*
X137760199Y-112276281D01*
X137901556Y-112192682D01*
X138017682Y-112076556D01*
X138101281Y-111935199D01*
X138147099Y-111777493D01*
X138150000Y-111740641D01*
X138150000Y-111400000D01*
X137450000Y-111400000D01*
X137450000Y-112325000D01*
X137050000Y-112325000D01*
X137050000Y-111400000D01*
X136350000Y-111400000D01*
X136350000Y-111740641D01*
X133928746Y-111740641D01*
X134058658Y-111653837D01*
X134193837Y-111518658D01*
X134300046Y-111359704D01*
X134373204Y-111183084D01*
X134410500Y-110995586D01*
X134410500Y-110979500D01*
X134432174Y-110927174D01*
X134484500Y-110905500D01*
X135288055Y-110905500D01*
X135298318Y-110905163D01*
X135301481Y-110905060D01*
X135311140Y-110904427D01*
X135324525Y-110903109D01*
X135439468Y-110887976D01*
X135465835Y-110882731D01*
X135484494Y-110877731D01*
X135509944Y-110869091D01*
X135612534Y-110826597D01*
X135636638Y-110814711D01*
X135653369Y-110805052D01*
X135653382Y-110805043D01*
X135653386Y-110805041D01*
X135664339Y-110797722D01*
X135675725Y-110790115D01*
X135767698Y-110719541D01*
X135778095Y-110711008D01*
X135785372Y-110704626D01*
X135795184Y-110695435D01*
X136595435Y-109895184D01*
X136604626Y-109885372D01*
X136611008Y-109878095D01*
X136619541Y-109867698D01*
X136690115Y-109775725D01*
X136697722Y-109764339D01*
X136705041Y-109753386D01*
X136705043Y-109753382D01*
X136705052Y-109753369D01*
X136714711Y-109736638D01*
X136726597Y-109712534D01*
X136757134Y-109638809D01*
X136797180Y-109598762D01*
X136853817Y-109598761D01*
X136893867Y-109638809D01*
X136899500Y-109667122D01*
X136899500Y-109674773D01*
X136914626Y-109770276D01*
X136973274Y-109885380D01*
X137036568Y-109948674D01*
X137058242Y-110001000D01*
X137036568Y-110053326D01*
X136984242Y-110075000D01*
X136934359Y-110075000D01*
X136897506Y-110077900D01*
X136739800Y-110123718D01*
X136598443Y-110207317D01*
X136482317Y-110323443D01*
X136398718Y-110464800D01*
X136352900Y-110622506D01*
X136350000Y-110659358D01*
X136350000Y-111000000D01*
X138150000Y-111000000D01*
X138150000Y-110659358D01*
X138147099Y-110622506D01*
X138101281Y-110464800D01*
X138017682Y-110323443D01*
X137901556Y-110207317D01*
X137869220Y-110188194D01*
X137835214Y-110142902D01*
X137843194Y-110086830D01*
X137888486Y-110052824D01*
X137906888Y-110050499D01*
X137945612Y-110050499D01*
X137997938Y-110072173D01*
X138087876Y-110162111D01*
X138087876Y-110162112D01*
X138140309Y-110214545D01*
X138143619Y-110218079D01*
X138248117Y-110337235D01*
X138265129Y-110371948D01*
X138446112Y-111305824D01*
X138446520Y-111307216D01*
X138449500Y-111328003D01*
X138449500Y-111729266D01*
X138452354Y-111759699D01*
X138452354Y-111759701D01*
X138452355Y-111759704D01*
X138497206Y-111887881D01*
X138497207Y-111887883D01*
X138577846Y-111997146D01*
X138577853Y-111997153D01*
X138687116Y-112077792D01*
X138687118Y-112077793D01*
X138815295Y-112122644D01*
X138815301Y-112122646D01*
X138845734Y-112125500D01*
X138845741Y-112125500D01*
X139454258Y-112125500D01*
X139454266Y-112125500D01*
X139484699Y-112122646D01*
X139612882Y-112077793D01*
X139722150Y-111997150D01*
X139802793Y-111887882D01*
X139847646Y-111759699D01*
X139850500Y-111729266D01*
X139850500Y-110670734D01*
X139847646Y-110640301D01*
X139827501Y-110582731D01*
X139802793Y-110512118D01*
X139802792Y-110512116D01*
X139722153Y-110402853D01*
X139722146Y-110402846D01*
X139610467Y-110320424D01*
X139584562Y-110285326D01*
X139556956Y-110206431D01*
X139430627Y-109944112D01*
X139430626Y-109944110D01*
X139430099Y-109943016D01*
X139426922Y-109886468D01*
X139430831Y-109877322D01*
X139485374Y-109770276D01*
X139500500Y-109674775D01*
X139500499Y-109175226D01*
X139485374Y-109079724D01*
X139426726Y-108964620D01*
X139335380Y-108873274D01*
X139320975Y-108865934D01*
X139284193Y-108822868D01*
X139288636Y-108766405D01*
X139320976Y-108734065D01*
X139335380Y-108726726D01*
X139426726Y-108635380D01*
X139485374Y-108520276D01*
X139500500Y-108424775D01*
X139500499Y-108301326D01*
X139515689Y-108256410D01*
X139847074Y-107822541D01*
X139847077Y-107822535D01*
X139848087Y-107821213D01*
X139871875Y-107800942D01*
X140198078Y-107625725D01*
X140254429Y-107620060D01*
X140298284Y-107655900D01*
X140306935Y-107686077D01*
X140320905Y-107899214D01*
X140326997Y-107992156D01*
X140328042Y-108008090D01*
X140394971Y-108516468D01*
X140394972Y-108516476D01*
X140495011Y-109019402D01*
X140495013Y-109019411D01*
X140620712Y-109488529D01*
X140627734Y-109514734D01*
X140792555Y-110000284D01*
X140962679Y-110411000D01*
X140988795Y-110474048D01*
X141215593Y-110933951D01*
X141378163Y-111215530D01*
X141471988Y-111378041D01*
X141471990Y-111378043D01*
X141756877Y-111804407D01*
X142069035Y-112211220D01*
X142241476Y-112407851D01*
X142407140Y-112596755D01*
X142588437Y-112778052D01*
X142588437Y-112778053D01*
X142622787Y-112812403D01*
X142622788Y-112812403D01*
X142734907Y-112924523D01*
X142820841Y-113010457D01*
X142899197Y-113088813D01*
X142899327Y-113088919D01*
X143031160Y-113220752D01*
X143049511Y-113236653D01*
X143407271Y-113546654D01*
X143407276Y-113546658D01*
X143407281Y-113546662D01*
X143586698Y-113680972D01*
X143805683Y-113844903D01*
X143805687Y-113844905D01*
X143805693Y-113844910D01*
X144224366Y-114113976D01*
X144661168Y-114352489D01*
X145113871Y-114559234D01*
X145113884Y-114559239D01*
X145113891Y-114559242D01*
X145580143Y-114733146D01*
X145580157Y-114733150D01*
X145580171Y-114733156D01*
X145580180Y-114733158D01*
X145580184Y-114733160D01*
X146057679Y-114873367D01*
X146057676Y-114873367D01*
X146057686Y-114873369D01*
X146057689Y-114873370D01*
X146543994Y-114979162D01*
X147036607Y-115049991D01*
X147533006Y-115085497D01*
X147533008Y-115085498D01*
X147533017Y-115085498D01*
X147718441Y-115085498D01*
X147718447Y-115085500D01*
X147727058Y-115085500D01*
X154134711Y-115085500D01*
X154134784Y-115085492D01*
X154193108Y-115085493D01*
X154433443Y-115058416D01*
X154669235Y-115004599D01*
X154897519Y-114924721D01*
X155115423Y-114819785D01*
X155320208Y-114691110D01*
X155509299Y-114540316D01*
X155560457Y-114489157D01*
X155560462Y-114489155D01*
X155573111Y-114476506D01*
X155573227Y-114476457D01*
X155594845Y-114454839D01*
X155729603Y-114320078D01*
X155977142Y-114030239D01*
X156201177Y-113721872D01*
X156400327Y-113396878D01*
X156573365Y-113057261D01*
X156691164Y-112772860D01*
X156719216Y-112705134D01*
X156719223Y-112705116D01*
X156722850Y-112693955D01*
X156805551Y-112439417D01*
X156836999Y-112342625D01*
X156836999Y-112342622D01*
X156837004Y-112342609D01*
X156925979Y-111971981D01*
X156985601Y-111595514D01*
X157015502Y-111215531D01*
X157015500Y-111024951D01*
X157015500Y-111003497D01*
X157015500Y-110384772D01*
X157037174Y-110332446D01*
X157089500Y-110310772D01*
X157141826Y-110332446D01*
X157204815Y-110395435D01*
X157214623Y-110404623D01*
X157221894Y-110411000D01*
X157232295Y-110419536D01*
X157232302Y-110419541D01*
X157232315Y-110419552D01*
X157291284Y-110464800D01*
X157324279Y-110490118D01*
X157346636Y-110505056D01*
X157346643Y-110505060D01*
X157346652Y-110505066D01*
X157346656Y-110505068D01*
X157363344Y-110514702D01*
X157363348Y-110514704D01*
X157363362Y-110514712D01*
X157387465Y-110526597D01*
X157490055Y-110569091D01*
X157515505Y-110577731D01*
X157534164Y-110582731D01*
X157560531Y-110587976D01*
X157675475Y-110603109D01*
X157688860Y-110604427D01*
X157698519Y-110605060D01*
X157701038Y-110605142D01*
X157711945Y-110605500D01*
X157711958Y-110605500D01*
X158818781Y-110605500D01*
X158871107Y-110627174D01*
X158892781Y-110679500D01*
X158871107Y-110731826D01*
X158862281Y-110739363D01*
X158847408Y-110750169D01*
X158833070Y-110760587D01*
X158833067Y-110760591D01*
X158710582Y-110883076D01*
X158608767Y-111023212D01*
X158530127Y-111177553D01*
X158530125Y-111177557D01*
X158476600Y-111342288D01*
X158476597Y-111342301D01*
X158449500Y-111513388D01*
X158449500Y-111686611D01*
X158476597Y-111857698D01*
X158476600Y-111857711D01*
X158530125Y-112022442D01*
X158530127Y-112022446D01*
X158608767Y-112176787D01*
X158664492Y-112253486D01*
X158710586Y-112316928D01*
X158833072Y-112439414D01*
X158833075Y-112439416D01*
X158833076Y-112439417D01*
X158973212Y-112541232D01*
X158973216Y-112541234D01*
X159022788Y-112566492D01*
X159059572Y-112609559D01*
X159055129Y-112666021D01*
X159030307Y-112693955D01*
X158912220Y-112772858D01*
X158912217Y-112772862D01*
X158772862Y-112912217D01*
X158772860Y-112912218D01*
X158663367Y-113076086D01*
X158587950Y-113258160D01*
X158587947Y-113258170D01*
X158560694Y-113395182D01*
X158549500Y-113451459D01*
X158549500Y-113648541D01*
X158560753Y-113705111D01*
X158587947Y-113841829D01*
X158587950Y-113841839D01*
X158663367Y-114023913D01*
X158772860Y-114187781D01*
X158912218Y-114327139D01*
X159076086Y-114436632D01*
X159202893Y-114489157D01*
X159258165Y-114512051D01*
X159451459Y-114550500D01*
X159451461Y-114550500D01*
X159648539Y-114550500D01*
X159648541Y-114550500D01*
X159841835Y-114512051D01*
X160023914Y-114436632D01*
X160187782Y-114327139D01*
X160327139Y-114187782D01*
X160436632Y-114023914D01*
X160512051Y-113841835D01*
X160550500Y-113648541D01*
X160550500Y-113451459D01*
X160512051Y-113258165D01*
X160510071Y-113253386D01*
X160436632Y-113076086D01*
X160327139Y-112912218D01*
X160187781Y-112772860D01*
X160161255Y-112755136D01*
X160069690Y-112693954D01*
X160038226Y-112646865D01*
X160049275Y-112591316D01*
X160077210Y-112566493D01*
X160077212Y-112566492D01*
X160126788Y-112541232D01*
X160266928Y-112439414D01*
X160389414Y-112316928D01*
X160491232Y-112176788D01*
X160526792Y-112106995D01*
X160569859Y-112070213D01*
X160626322Y-112074656D01*
X160657990Y-112105709D01*
X160663298Y-112115640D01*
X160663304Y-112115650D01*
X160704155Y-112176787D01*
X160720957Y-112201932D01*
X160746513Y-112233071D01*
X160766928Y-112253486D01*
X160798067Y-112279042D01*
X160884354Y-112336698D01*
X160884358Y-112336700D01*
X160884366Y-112336705D01*
X160895412Y-112342609D01*
X160919881Y-112355688D01*
X160919886Y-112355690D01*
X160919890Y-112355692D01*
X160946542Y-112366732D01*
X160946546Y-112366733D01*
X160946557Y-112366738D01*
X160946563Y-112366740D01*
X160946569Y-112366742D01*
X160985105Y-112378432D01*
X160985113Y-112378434D01*
X161021791Y-112385729D01*
X161094180Y-112400129D01*
X161114128Y-112403088D01*
X161128565Y-112404510D01*
X161148709Y-112405500D01*
X161148721Y-112405500D01*
X161651279Y-112405500D01*
X161651291Y-112405500D01*
X161671435Y-112404510D01*
X161685872Y-112403088D01*
X161705820Y-112400129D01*
X161814890Y-112378433D01*
X161853442Y-112366738D01*
X161880118Y-112355688D01*
X161915645Y-112336698D01*
X162001932Y-112279042D01*
X162033071Y-112253486D01*
X162053486Y-112233071D01*
X162079042Y-112201932D01*
X162136698Y-112115645D01*
X162155688Y-112080118D01*
X162166738Y-112053442D01*
X162178433Y-112014890D01*
X162200129Y-111905819D01*
X162203088Y-111885871D01*
X162204510Y-111871434D01*
X162205500Y-111851290D01*
X162205500Y-111809547D01*
X162227174Y-111757221D01*
X162279500Y-111735547D01*
X162331826Y-111757221D01*
X162350979Y-111790395D01*
X162396969Y-111962037D01*
X162396973Y-111962048D01*
X162492281Y-112192143D01*
X162492284Y-112192151D01*
X162616815Y-112407845D01*
X162616819Y-112407851D01*
X162722099Y-112545055D01*
X162722100Y-112545056D01*
X163509940Y-111757215D01*
X163578599Y-111859970D01*
X163690030Y-111971401D01*
X163792783Y-112040058D01*
X163004943Y-112827899D01*
X163142148Y-112933180D01*
X163142154Y-112933184D01*
X163357848Y-113057715D01*
X163357856Y-113057718D01*
X163587951Y-113153026D01*
X163587962Y-113153030D01*
X163828540Y-113217492D01*
X163828539Y-113217492D01*
X164075469Y-113250000D01*
X164324531Y-113250000D01*
X164571460Y-113217492D01*
X164812037Y-113153030D01*
X164812048Y-113153026D01*
X165042143Y-113057718D01*
X165042151Y-113057715D01*
X165257852Y-112933180D01*
X165395055Y-112827900D01*
X165395055Y-112827899D01*
X164607216Y-112040058D01*
X164709970Y-111971401D01*
X164821401Y-111859970D01*
X164890059Y-111757215D01*
X165677899Y-112545055D01*
X165677900Y-112545055D01*
X165783180Y-112407852D01*
X165907715Y-112192151D01*
X165907718Y-112192143D01*
X166003026Y-111962048D01*
X166003030Y-111962037D01*
X166067492Y-111721460D01*
X166094885Y-111513388D01*
X166899500Y-111513388D01*
X166899500Y-111686611D01*
X166926597Y-111857698D01*
X166926600Y-111857711D01*
X166980125Y-112022442D01*
X166980127Y-112022446D01*
X167058767Y-112176787D01*
X167114492Y-112253486D01*
X167160586Y-112316928D01*
X167283072Y-112439414D01*
X167283075Y-112439416D01*
X167283076Y-112439417D01*
X167423212Y-112541232D01*
X167423216Y-112541234D01*
X167472788Y-112566492D01*
X167509572Y-112609559D01*
X167505129Y-112666021D01*
X167480307Y-112693955D01*
X167362220Y-112772858D01*
X167362217Y-112772862D01*
X167222862Y-112912217D01*
X167222860Y-112912218D01*
X167113367Y-113076086D01*
X167037950Y-113258160D01*
X167037947Y-113258170D01*
X167010694Y-113395182D01*
X166999500Y-113451459D01*
X166999500Y-113648541D01*
X167010753Y-113705111D01*
X167037947Y-113841829D01*
X167037950Y-113841839D01*
X167113367Y-114023913D01*
X167222860Y-114187781D01*
X167362218Y-114327139D01*
X167526086Y-114436632D01*
X167652893Y-114489157D01*
X167708165Y-114512051D01*
X167901459Y-114550500D01*
X167901461Y-114550500D01*
X168098539Y-114550500D01*
X168098541Y-114550500D01*
X168291835Y-114512051D01*
X168473914Y-114436632D01*
X168637782Y-114327139D01*
X168777139Y-114187782D01*
X168886632Y-114023914D01*
X168962051Y-113841835D01*
X169000500Y-113648541D01*
X169000500Y-113451459D01*
X168962051Y-113258165D01*
X168960071Y-113253386D01*
X168886632Y-113076086D01*
X168777139Y-112912218D01*
X168637781Y-112772860D01*
X168611255Y-112755136D01*
X168519690Y-112693954D01*
X168488226Y-112646865D01*
X168499275Y-112591316D01*
X168527210Y-112566493D01*
X168527212Y-112566492D01*
X168576788Y-112541232D01*
X168716928Y-112439414D01*
X168839414Y-112316928D01*
X168941232Y-112176788D01*
X169019873Y-112022445D01*
X169057767Y-111905821D01*
X169073399Y-111857711D01*
X169073399Y-111857708D01*
X169073402Y-111857701D01*
X169100500Y-111686611D01*
X169100500Y-111513389D01*
X169073402Y-111342299D01*
X169073400Y-111342294D01*
X169073399Y-111342288D01*
X169019874Y-111177557D01*
X169019872Y-111177553D01*
X168941232Y-111023212D01*
X168839417Y-110883076D01*
X168839416Y-110883075D01*
X168839414Y-110883072D01*
X168716928Y-110760586D01*
X168716925Y-110760583D01*
X168716923Y-110760582D01*
X168576787Y-110658767D01*
X168422446Y-110580127D01*
X168422442Y-110580125D01*
X168257711Y-110526600D01*
X168257698Y-110526597D01*
X168086612Y-110499500D01*
X168086611Y-110499500D01*
X167913389Y-110499500D01*
X167913388Y-110499500D01*
X167742301Y-110526597D01*
X167742288Y-110526600D01*
X167577557Y-110580125D01*
X167577553Y-110580127D01*
X167423212Y-110658767D01*
X167283076Y-110760582D01*
X167160582Y-110883076D01*
X167058767Y-111023212D01*
X166980127Y-111177553D01*
X166980125Y-111177557D01*
X166926600Y-111342288D01*
X166926597Y-111342301D01*
X166899500Y-111513388D01*
X166094885Y-111513388D01*
X166096539Y-111500823D01*
X166096539Y-111500822D01*
X166100000Y-111474532D01*
X166100000Y-111225468D01*
X166067492Y-110978539D01*
X166003030Y-110737962D01*
X166003026Y-110737951D01*
X165907718Y-110507856D01*
X165907715Y-110507848D01*
X165783182Y-110292150D01*
X165747039Y-110245050D01*
X165732379Y-110190343D01*
X165747039Y-110154950D01*
X165783182Y-110107849D01*
X165907715Y-109892151D01*
X165907718Y-109892143D01*
X166003026Y-109662048D01*
X166003030Y-109662037D01*
X166067492Y-109421460D01*
X166100000Y-109174531D01*
X166100000Y-108925468D01*
X166082517Y-108792673D01*
X166097176Y-108737966D01*
X166146225Y-108709647D01*
X166176529Y-108711952D01*
X166297508Y-108747099D01*
X166297505Y-108747099D01*
X166334359Y-108750000D01*
X167300000Y-108750000D01*
X167700000Y-108750000D01*
X168665641Y-108750000D01*
X168702493Y-108747099D01*
X168860199Y-108701281D01*
X169001556Y-108617682D01*
X169117682Y-108501556D01*
X169201281Y-108360199D01*
X169247099Y-108202493D01*
X169250000Y-108165641D01*
X169250000Y-107975000D01*
X167700000Y-107975000D01*
X167700000Y-108750000D01*
X167300000Y-108750000D01*
X167300000Y-107975000D01*
X165744000Y-107975000D01*
X165691674Y-107953326D01*
X165670000Y-107901000D01*
X165670000Y-107862842D01*
X165669999Y-107862842D01*
X164890058Y-108642783D01*
X164821401Y-108540030D01*
X164709970Y-108428599D01*
X164607215Y-108359940D01*
X165395056Y-107572100D01*
X165395055Y-107572099D01*
X165257851Y-107466819D01*
X165257845Y-107466815D01*
X165223508Y-107446991D01*
X165115025Y-107384358D01*
X165750000Y-107384358D01*
X165750000Y-107575000D01*
X167300000Y-107575000D01*
X167700000Y-107575000D01*
X169250000Y-107575000D01*
X169250000Y-107384358D01*
X169247099Y-107347506D01*
X169201281Y-107189800D01*
X169117682Y-107048443D01*
X169001556Y-106932317D01*
X168860199Y-106848718D01*
X168702491Y-106802900D01*
X168702494Y-106802900D01*
X168665641Y-106800000D01*
X167700000Y-106800000D01*
X167700000Y-107575000D01*
X167300000Y-107575000D01*
X167300000Y-106800000D01*
X166334359Y-106800000D01*
X166297506Y-106802900D01*
X166139800Y-106848718D01*
X165998443Y-106932317D01*
X165882317Y-107048443D01*
X165798718Y-107189800D01*
X165752900Y-107347506D01*
X165750000Y-107384358D01*
X165115025Y-107384358D01*
X165042151Y-107342284D01*
X165042143Y-107342281D01*
X164812048Y-107246973D01*
X164812037Y-107246969D01*
X164571459Y-107182507D01*
X164571460Y-107182507D01*
X164324531Y-107150000D01*
X164075469Y-107150000D01*
X163828539Y-107182507D01*
X163587962Y-107246969D01*
X163587951Y-107246973D01*
X163357856Y-107342281D01*
X163357848Y-107342284D01*
X163142156Y-107466814D01*
X163099426Y-107499602D01*
X163044718Y-107514260D01*
X162995669Y-107485941D01*
X162981011Y-107431233D01*
X163002051Y-107388568D01*
X164063446Y-106327174D01*
X164115772Y-106305500D01*
X167988055Y-106305500D01*
X167998318Y-106305163D01*
X168001481Y-106305060D01*
X168011140Y-106304427D01*
X168024525Y-106303109D01*
X168139468Y-106287976D01*
X168165835Y-106282731D01*
X168184494Y-106277731D01*
X168209944Y-106269091D01*
X168312534Y-106226597D01*
X168336638Y-106214711D01*
X168353369Y-106205052D01*
X168353382Y-106205043D01*
X168353386Y-106205041D01*
X168364339Y-106197722D01*
X168375725Y-106190115D01*
X168467698Y-106119541D01*
X168478095Y-106111008D01*
X168485372Y-106104626D01*
X168495184Y-106095435D01*
X168895435Y-105695184D01*
X168904626Y-105685372D01*
X168911008Y-105678095D01*
X168919541Y-105667698D01*
X168990115Y-105575725D01*
X169005052Y-105553369D01*
X169014711Y-105536638D01*
X169026597Y-105512534D01*
X169069091Y-105409944D01*
X169077731Y-105384494D01*
X169082731Y-105365835D01*
X169087976Y-105339468D01*
X169103109Y-105224525D01*
X169104427Y-105211140D01*
X169105060Y-105201481D01*
X169105500Y-105188042D01*
X169105500Y-104411957D01*
X169105060Y-104398518D01*
X169104427Y-104388859D01*
X169103109Y-104375474D01*
X169087976Y-104260531D01*
X169082731Y-104234164D01*
X169077731Y-104215505D01*
X169069091Y-104190055D01*
X169026597Y-104087465D01*
X169014712Y-104063362D01*
X169005068Y-104046656D01*
X169005066Y-104046652D01*
X169005060Y-104046643D01*
X169005056Y-104046636D01*
X168990118Y-104024279D01*
X168932131Y-103948709D01*
X168919552Y-103932315D01*
X168919536Y-103932295D01*
X168911000Y-103921894D01*
X168904623Y-103914623D01*
X168895435Y-103904815D01*
X167027174Y-102036554D01*
X167005500Y-101984228D01*
X167005500Y-101731218D01*
X167027174Y-101678892D01*
X167079500Y-101657218D01*
X167131826Y-101678892D01*
X167139363Y-101687718D01*
X167160586Y-101716928D01*
X167283072Y-101839414D01*
X167283075Y-101839416D01*
X167283076Y-101839417D01*
X167423212Y-101941232D01*
X167577553Y-102019872D01*
X167577557Y-102019874D01*
X167742288Y-102073399D01*
X167742294Y-102073400D01*
X167742299Y-102073402D01*
X167855069Y-102091263D01*
X167913388Y-102100500D01*
X167913389Y-102100500D01*
X168086612Y-102100500D01*
X168131110Y-102093452D01*
X168257701Y-102073402D01*
X168257708Y-102073399D01*
X168257711Y-102073399D01*
X168422442Y-102019874D01*
X168422442Y-102019873D01*
X168422445Y-102019873D01*
X168576788Y-101941232D01*
X168716928Y-101839414D01*
X168839414Y-101716928D01*
X168941232Y-101576788D01*
X169019873Y-101422445D01*
X169034814Y-101376462D01*
X169073399Y-101257711D01*
X169073399Y-101257708D01*
X169073402Y-101257701D01*
X169100500Y-101086611D01*
X169100500Y-100913389D01*
X169073402Y-100742299D01*
X169073400Y-100742294D01*
X169073399Y-100742288D01*
X169019874Y-100577557D01*
X169019872Y-100577553D01*
X168941232Y-100423212D01*
X168839417Y-100283076D01*
X168839416Y-100283075D01*
X168839414Y-100283072D01*
X168716928Y-100160586D01*
X168716925Y-100160583D01*
X168716923Y-100160582D01*
X168576788Y-100058767D01*
X168527210Y-100033507D01*
X168490427Y-99990440D01*
X168494870Y-99933977D01*
X168519691Y-99906044D01*
X168637782Y-99827139D01*
X168777139Y-99687782D01*
X168886632Y-99523914D01*
X168962051Y-99341835D01*
X169000500Y-99148541D01*
X169000500Y-98951459D01*
X168962051Y-98758165D01*
X168886632Y-98576086D01*
X168777139Y-98412218D01*
X168637782Y-98272861D01*
X168631750Y-98268830D01*
X168473913Y-98163367D01*
X168291839Y-98087950D01*
X168291829Y-98087947D01*
X168147205Y-98059180D01*
X168098541Y-98049500D01*
X167901459Y-98049500D01*
X167879097Y-98053947D01*
X167771147Y-98075420D01*
X167765026Y-98074202D01*
X167759349Y-98076795D01*
X167737975Y-98068822D01*
X167715598Y-98064371D01*
X167712130Y-98059180D01*
X167706284Y-98057000D01*
X167696808Y-98036248D01*
X167684133Y-98017278D01*
X167685350Y-98011157D01*
X167682758Y-98005480D01*
X167690730Y-97984106D01*
X167695182Y-97961729D01*
X167702548Y-97952420D01*
X167786819Y-97861914D01*
X167799046Y-97852698D01*
X167798505Y-97851953D01*
X167803215Y-97848530D01*
X167803220Y-97848528D01*
X167898528Y-97753220D01*
X167959719Y-97633126D01*
X167975500Y-97533488D01*
X167975500Y-97016512D01*
X167973605Y-97004550D01*
X167959719Y-96916874D01*
X167959718Y-96916873D01*
X167959090Y-96915641D01*
X167898528Y-96796780D01*
X167803220Y-96701472D01*
X167803219Y-96701471D01*
X167683126Y-96640281D01*
X167683125Y-96640280D01*
X167583489Y-96624500D01*
X167583488Y-96624500D01*
X167350456Y-96624500D01*
X167298130Y-96602826D01*
X167276456Y-96550500D01*
X167298130Y-96498174D01*
X167319788Y-96483154D01*
X167541579Y-96382154D01*
X167572247Y-96375500D01*
X167583489Y-96375500D01*
X167633307Y-96367609D01*
X167683126Y-96359719D01*
X167803220Y-96298528D01*
X167898528Y-96203220D01*
X167917540Y-96165906D01*
X167960607Y-96129122D01*
X167983475Y-96125500D01*
X168081020Y-96125500D01*
X168081020Y-96125499D01*
X168189237Y-96096503D01*
X168286263Y-96040485D01*
X168365485Y-95961263D01*
X168421503Y-95864237D01*
X168450499Y-95756020D01*
X168450500Y-95756020D01*
X168450500Y-95643980D01*
X168450499Y-95643979D01*
X168449650Y-95640812D01*
X168421503Y-95535763D01*
X168365485Y-95438737D01*
X168286263Y-95359515D01*
X168239117Y-95332295D01*
X168189241Y-95303499D01*
X168189232Y-95303495D01*
X168081020Y-95274500D01*
X168081018Y-95274500D01*
X167968982Y-95274500D01*
X167968977Y-95274500D01*
X167966705Y-95274799D01*
X167965589Y-95274500D01*
X167964132Y-95274500D01*
X167964132Y-95274109D01*
X167911999Y-95260138D01*
X167902824Y-95250719D01*
X167902646Y-95250898D01*
X167803219Y-95151471D01*
X167683126Y-95090281D01*
X167683125Y-95090280D01*
X167583489Y-95074500D01*
X167583488Y-95074500D01*
X167016512Y-95074500D01*
X167016511Y-95074500D01*
X166916874Y-95090280D01*
X166916873Y-95090281D01*
X166796780Y-95151471D01*
X166796779Y-95151472D01*
X166731826Y-95216426D01*
X166679500Y-95238100D01*
X166627174Y-95216426D01*
X166605500Y-95164100D01*
X166605500Y-92011943D01*
X166605060Y-91998521D01*
X166605060Y-91998518D01*
X166604427Y-91988859D01*
X166603109Y-91975474D01*
X166587976Y-91860531D01*
X166582731Y-91834164D01*
X166577731Y-91815505D01*
X166569091Y-91790055D01*
X166526597Y-91687465D01*
X166514712Y-91663362D01*
X166505068Y-91646656D01*
X166505066Y-91646652D01*
X166505060Y-91646643D01*
X166505056Y-91646636D01*
X166490118Y-91624279D01*
X166476001Y-91605882D01*
X166419552Y-91532315D01*
X166419536Y-91532295D01*
X166411000Y-91521894D01*
X166404623Y-91514623D01*
X166395445Y-91504826D01*
X166395438Y-91504818D01*
X166295182Y-91404562D01*
X166285373Y-91395374D01*
X166278105Y-91388999D01*
X166267693Y-91380455D01*
X166175721Y-91309883D01*
X166175722Y-91309883D01*
X166153368Y-91294947D01*
X166153367Y-91294946D01*
X166153362Y-91294943D01*
X166146460Y-91290958D01*
X166136653Y-91285296D01*
X166136642Y-91285290D01*
X166136638Y-91285288D01*
X166136618Y-91285278D01*
X166112541Y-91273405D01*
X166112525Y-91273398D01*
X166009958Y-91230914D01*
X166009944Y-91230908D01*
X166009935Y-91230904D01*
X166009925Y-91230901D01*
X165984508Y-91222273D01*
X165984507Y-91222272D01*
X165984499Y-91222270D01*
X165965842Y-91217270D01*
X165965831Y-91217267D01*
X165939471Y-91212023D01*
X165824528Y-91196891D01*
X165817721Y-91196221D01*
X165811140Y-91195573D01*
X165811125Y-91195572D01*
X165801477Y-91194939D01*
X165788055Y-91194500D01*
X165788042Y-91194500D01*
X164206424Y-91194500D01*
X164154098Y-91172826D01*
X164132424Y-91120500D01*
X164154098Y-91068174D01*
X164165312Y-91058971D01*
X164197151Y-91037696D01*
X164287782Y-90977139D01*
X164427139Y-90837782D01*
X164536632Y-90673914D01*
X164612051Y-90491835D01*
X164650500Y-90298541D01*
X164650500Y-90101459D01*
X164612051Y-89908165D01*
X164536632Y-89726086D01*
X164427139Y-89562218D01*
X164287782Y-89422861D01*
X164194589Y-89360591D01*
X164123913Y-89313367D01*
X163941839Y-89237950D01*
X163941829Y-89237947D01*
X163812388Y-89212200D01*
X163748541Y-89199500D01*
X163551459Y-89199500D01*
X163496662Y-89210399D01*
X163358170Y-89237947D01*
X163358160Y-89237950D01*
X163176086Y-89313367D01*
X163012218Y-89422860D01*
X163012217Y-89422862D01*
X162872862Y-89562217D01*
X162872858Y-89562220D01*
X162793955Y-89680307D01*
X162746863Y-89711772D01*
X162691314Y-89700722D01*
X162666492Y-89672788D01*
X162641234Y-89623216D01*
X162641232Y-89623212D01*
X162539417Y-89483076D01*
X162539416Y-89483075D01*
X162539414Y-89483072D01*
X162416928Y-89360586D01*
X162416925Y-89360583D01*
X162416923Y-89360582D01*
X162276787Y-89258767D01*
X162122446Y-89180127D01*
X162122442Y-89180125D01*
X161957711Y-89126600D01*
X161957698Y-89126597D01*
X161786612Y-89099500D01*
X161786611Y-89099500D01*
X161613389Y-89099500D01*
X161613388Y-89099500D01*
X161442301Y-89126597D01*
X161442288Y-89126600D01*
X161277557Y-89180125D01*
X161277553Y-89180127D01*
X161123212Y-89258767D01*
X160983076Y-89360582D01*
X160860591Y-89483067D01*
X160860587Y-89483070D01*
X160839367Y-89512278D01*
X160791075Y-89541870D01*
X160736003Y-89528648D01*
X160706411Y-89480356D01*
X160705500Y-89468781D01*
X160705500Y-88674500D01*
X160727174Y-88622174D01*
X160779500Y-88600500D01*
X161594226Y-88600500D01*
X161594228Y-88600500D01*
X161880217Y-88562849D01*
X162158845Y-88488191D01*
X162425345Y-88377804D01*
X162675156Y-88233575D01*
X162904004Y-88057974D01*
X163107974Y-87854004D01*
X163283575Y-87625156D01*
X163427804Y-87375345D01*
X163538191Y-87108845D01*
X163612849Y-86830217D01*
X163650500Y-86544228D01*
X163650500Y-86255772D01*
X163612849Y-85969783D01*
X163538191Y-85691155D01*
X163427804Y-85424655D01*
X163283575Y-85174844D01*
X163107974Y-84945996D01*
X162904004Y-84742026D01*
X162839175Y-84692281D01*
X162675158Y-84566426D01*
X162675152Y-84566422D01*
X162425344Y-84422195D01*
X162425336Y-84422192D01*
X162158846Y-84311809D01*
X161880215Y-84237150D01*
X161669528Y-84209413D01*
X161594228Y-84199500D01*
X159005772Y-84199500D01*
X158939232Y-84208260D01*
X158719784Y-84237150D01*
X158515162Y-84291979D01*
X158496009Y-84294500D01*
X158011945Y-84294500D01*
X157998522Y-84294939D01*
X157988872Y-84295572D01*
X157988865Y-84295572D01*
X157988860Y-84295573D01*
X157986625Y-84295793D01*
X157975477Y-84296890D01*
X157860541Y-84312022D01*
X157860531Y-84312023D01*
X157860528Y-84312024D01*
X157860525Y-84312024D01*
X157860510Y-84312027D01*
X157834167Y-84317266D01*
X157834160Y-84317268D01*
X157815526Y-84322261D01*
X157815493Y-84322271D01*
X157790076Y-84330899D01*
X157790044Y-84330911D01*
X157687475Y-84373396D01*
X157687467Y-84373399D01*
X157687462Y-84373402D01*
X157663357Y-84385289D01*
X157663347Y-84385294D01*
X157646627Y-84394947D01*
X157624309Y-84409859D01*
X157624283Y-84409877D01*
X157532296Y-84480461D01*
X157521883Y-84489007D01*
X157514631Y-84495367D01*
X157504826Y-84504552D01*
X156604552Y-85404826D01*
X156595367Y-85414631D01*
X156589007Y-85421883D01*
X156580473Y-85432281D01*
X156509888Y-85524269D01*
X156509883Y-85524275D01*
X156509877Y-85524284D01*
X156502380Y-85535504D01*
X156494932Y-85546652D01*
X156494932Y-85546653D01*
X156485282Y-85563370D01*
X156473409Y-85587449D01*
X156473399Y-85587470D01*
X156430909Y-85690051D01*
X156430902Y-85690070D01*
X156422265Y-85715512D01*
X156417267Y-85734162D01*
X156412025Y-85760517D01*
X156412022Y-85760538D01*
X156396890Y-85875476D01*
X156395572Y-85888871D01*
X156394939Y-85898521D01*
X156394500Y-85911943D01*
X156394500Y-87284228D01*
X156372826Y-87336554D01*
X152536554Y-91172826D01*
X152484228Y-91194500D01*
X151831219Y-91194500D01*
X151778893Y-91172826D01*
X151757219Y-91120500D01*
X151778893Y-91068174D01*
X151787718Y-91060636D01*
X151816928Y-91039414D01*
X151939414Y-90916928D01*
X152041232Y-90776788D01*
X152119873Y-90622445D01*
X152173402Y-90457701D01*
X152200500Y-90286611D01*
X152200500Y-90113389D01*
X152198610Y-90101459D01*
X152191467Y-90056359D01*
X152173402Y-89942299D01*
X152173400Y-89942294D01*
X152173399Y-89942288D01*
X152119874Y-89777557D01*
X152119872Y-89777553D01*
X152041232Y-89623212D01*
X151939417Y-89483076D01*
X151939416Y-89483075D01*
X151939414Y-89483072D01*
X151816928Y-89360586D01*
X151816925Y-89360583D01*
X151816923Y-89360582D01*
X151676787Y-89258767D01*
X151522446Y-89180127D01*
X151522442Y-89180125D01*
X151357711Y-89126600D01*
X151357698Y-89126597D01*
X151186612Y-89099500D01*
X151186611Y-89099500D01*
X151013389Y-89099500D01*
X151013388Y-89099500D01*
X150842301Y-89126597D01*
X150842288Y-89126600D01*
X150677557Y-89180125D01*
X150677553Y-89180127D01*
X150523212Y-89258767D01*
X150383076Y-89360582D01*
X150260582Y-89483076D01*
X150158767Y-89623212D01*
X150158762Y-89623221D01*
X150133506Y-89672789D01*
X150090439Y-89709572D01*
X150033977Y-89705128D01*
X150006043Y-89680306D01*
X149927139Y-89562218D01*
X149787781Y-89422860D01*
X149623913Y-89313367D01*
X149441839Y-89237950D01*
X149441829Y-89237947D01*
X149312388Y-89212200D01*
X149248541Y-89199500D01*
X149051459Y-89199500D01*
X148996662Y-89210399D01*
X148858170Y-89237947D01*
X148858160Y-89237950D01*
X148676086Y-89313367D01*
X148512218Y-89422860D01*
X148512217Y-89422862D01*
X148372862Y-89562217D01*
X148372860Y-89562218D01*
X148263367Y-89726086D01*
X148187950Y-89908160D01*
X148187947Y-89908170D01*
X148172175Y-89987465D01*
X148151766Y-90090070D01*
X148149500Y-90101460D01*
X148149500Y-90298539D01*
X148187947Y-90491829D01*
X148187950Y-90491839D01*
X148263367Y-90673913D01*
X148372860Y-90837781D01*
X148512218Y-90977139D01*
X148634688Y-91058971D01*
X148666154Y-91106063D01*
X148655105Y-91161612D01*
X148608013Y-91193078D01*
X148593576Y-91194500D01*
X146411945Y-91194500D01*
X146398522Y-91194939D01*
X146388872Y-91195572D01*
X146388865Y-91195572D01*
X146388860Y-91195573D01*
X146386625Y-91195793D01*
X146375477Y-91196890D01*
X146260541Y-91212022D01*
X146260531Y-91212023D01*
X146260528Y-91212024D01*
X146260525Y-91212024D01*
X146260510Y-91212027D01*
X146234167Y-91217266D01*
X146234160Y-91217268D01*
X146215526Y-91222261D01*
X146215493Y-91222271D01*
X146190076Y-91230899D01*
X146190044Y-91230911D01*
X146087475Y-91273396D01*
X146087467Y-91273399D01*
X146087462Y-91273402D01*
X146063379Y-91285278D01*
X146063347Y-91285294D01*
X146046627Y-91294947D01*
X146024309Y-91309859D01*
X146024283Y-91309877D01*
X145932296Y-91380461D01*
X145921883Y-91389007D01*
X145914631Y-91395367D01*
X145904826Y-91404552D01*
X145804552Y-91504826D01*
X145795367Y-91514631D01*
X145789007Y-91521883D01*
X145780473Y-91532282D01*
X145738208Y-91587362D01*
X145689158Y-91615680D01*
X145634451Y-91601021D01*
X145606133Y-91551971D01*
X145605500Y-91542313D01*
X145605500Y-90311943D01*
X145605060Y-90298521D01*
X145605060Y-90298518D01*
X145604427Y-90288859D01*
X145603109Y-90275474D01*
X145587976Y-90160531D01*
X145582731Y-90134164D01*
X145577731Y-90115505D01*
X145569091Y-90090055D01*
X145526597Y-89987465D01*
X145514712Y-89963362D01*
X145505068Y-89946656D01*
X145505066Y-89946652D01*
X145505060Y-89946643D01*
X145505056Y-89946636D01*
X145490118Y-89924279D01*
X145476001Y-89905882D01*
X145419552Y-89832315D01*
X145419536Y-89832295D01*
X145411000Y-89821894D01*
X145404623Y-89814623D01*
X145395435Y-89804815D01*
X142295184Y-86704564D01*
X142295175Y-86704556D01*
X142285373Y-86695374D01*
X142278105Y-86688999D01*
X142267693Y-86680455D01*
X142175721Y-86609883D01*
X142175722Y-86609883D01*
X142153368Y-86594947D01*
X142153367Y-86594946D01*
X142153362Y-86594943D01*
X142146460Y-86590958D01*
X142136653Y-86585296D01*
X142136642Y-86585290D01*
X142136638Y-86585288D01*
X142136618Y-86585278D01*
X142112541Y-86573405D01*
X142112525Y-86573398D01*
X142042101Y-86544228D01*
X142009944Y-86530908D01*
X142009935Y-86530904D01*
X142009925Y-86530901D01*
X141984508Y-86522273D01*
X141984507Y-86522272D01*
X141984499Y-86522270D01*
X141965842Y-86517270D01*
X141965831Y-86517267D01*
X141939471Y-86512023D01*
X141824528Y-86496891D01*
X141817721Y-86496221D01*
X141811140Y-86495573D01*
X141811125Y-86495572D01*
X141801477Y-86494939D01*
X141788055Y-86494500D01*
X141788042Y-86494500D01*
X131611958Y-86494500D01*
X131611945Y-86494500D01*
X131598522Y-86494939D01*
X131588872Y-86495572D01*
X131588865Y-86495572D01*
X131588860Y-86495573D01*
X131586625Y-86495793D01*
X131575477Y-86496890D01*
X131460541Y-86512022D01*
X131460531Y-86512023D01*
X131460528Y-86512024D01*
X131460525Y-86512024D01*
X131460510Y-86512027D01*
X131434167Y-86517266D01*
X131434160Y-86517268D01*
X131415526Y-86522261D01*
X131415493Y-86522271D01*
X131390076Y-86530899D01*
X131390044Y-86530911D01*
X131287475Y-86573396D01*
X131287467Y-86573399D01*
X131287462Y-86573402D01*
X131263379Y-86585278D01*
X131263347Y-86585294D01*
X131246627Y-86594947D01*
X131224309Y-86609859D01*
X131224283Y-86609877D01*
X131132296Y-86680461D01*
X131121883Y-86689007D01*
X131114631Y-86695367D01*
X131104826Y-86704552D01*
X130904552Y-86904826D01*
X130895367Y-86914631D01*
X130889007Y-86921883D01*
X130880473Y-86932281D01*
X130809888Y-87024269D01*
X130809883Y-87024275D01*
X130809877Y-87024284D01*
X130802380Y-87035504D01*
X130794932Y-87046652D01*
X130794932Y-87046653D01*
X130785282Y-87063370D01*
X130773409Y-87087449D01*
X130773399Y-87087470D01*
X130730909Y-87190051D01*
X130730902Y-87190070D01*
X130722265Y-87215512D01*
X130717267Y-87234162D01*
X130712025Y-87260517D01*
X130712022Y-87260538D01*
X130696890Y-87375476D01*
X130695572Y-87388871D01*
X130694939Y-87398521D01*
X130694500Y-87411943D01*
X130200500Y-87411943D01*
X130200500Y-86275468D01*
X149450000Y-86275468D01*
X149450000Y-86524531D01*
X149482507Y-86771460D01*
X149546969Y-87012037D01*
X149546973Y-87012048D01*
X149642281Y-87242143D01*
X149642284Y-87242151D01*
X149766815Y-87457845D01*
X149766819Y-87457851D01*
X149872099Y-87595055D01*
X149872100Y-87595056D01*
X150659940Y-86807214D01*
X150728599Y-86909970D01*
X150840030Y-87021401D01*
X150942783Y-87090058D01*
X150154943Y-87877899D01*
X150292148Y-87983180D01*
X150292154Y-87983184D01*
X150507848Y-88107715D01*
X150507856Y-88107718D01*
X150737951Y-88203026D01*
X150737962Y-88203030D01*
X150978540Y-88267492D01*
X150978539Y-88267492D01*
X151225469Y-88300000D01*
X151474531Y-88300000D01*
X151721460Y-88267492D01*
X151962037Y-88203030D01*
X151962048Y-88203026D01*
X152192143Y-88107718D01*
X152192151Y-88107715D01*
X152407849Y-87983182D01*
X152454950Y-87947039D01*
X152509657Y-87932379D01*
X152545050Y-87947039D01*
X152592150Y-87983182D01*
X152807848Y-88107715D01*
X152807856Y-88107718D01*
X153037951Y-88203026D01*
X153037962Y-88203030D01*
X153278540Y-88267492D01*
X153278539Y-88267492D01*
X153525469Y-88300000D01*
X153774531Y-88300000D01*
X154021460Y-88267492D01*
X154262037Y-88203030D01*
X154262048Y-88203026D01*
X154492143Y-88107718D01*
X154492151Y-88107715D01*
X154707852Y-87983180D01*
X154845055Y-87877900D01*
X154845055Y-87877899D01*
X154057215Y-87090059D01*
X154159970Y-87021401D01*
X154271401Y-86909970D01*
X154340059Y-86807215D01*
X155127899Y-87595055D01*
X155127900Y-87595055D01*
X155233180Y-87457852D01*
X155357715Y-87242151D01*
X155357718Y-87242143D01*
X155453026Y-87012048D01*
X155453030Y-87012037D01*
X155517492Y-86771460D01*
X155550000Y-86524531D01*
X155550000Y-86275468D01*
X155517492Y-86028539D01*
X155453030Y-85787962D01*
X155453026Y-85787951D01*
X155357718Y-85557856D01*
X155357715Y-85557848D01*
X155233184Y-85342154D01*
X155233180Y-85342148D01*
X155127899Y-85204943D01*
X154340058Y-85992783D01*
X154271401Y-85890030D01*
X154159970Y-85778599D01*
X154057215Y-85709940D01*
X154845056Y-84922100D01*
X154845055Y-84922099D01*
X154707851Y-84816819D01*
X154707845Y-84816815D01*
X154492151Y-84692284D01*
X154492143Y-84692281D01*
X154262048Y-84596973D01*
X154262037Y-84596969D01*
X154021459Y-84532507D01*
X154021460Y-84532507D01*
X153774531Y-84500000D01*
X153525469Y-84500000D01*
X153278539Y-84532507D01*
X153037962Y-84596969D01*
X153037951Y-84596973D01*
X152807856Y-84692281D01*
X152807848Y-84692284D01*
X152592154Y-84816815D01*
X152592148Y-84816819D01*
X152545048Y-84852961D01*
X152490341Y-84867620D01*
X152454952Y-84852961D01*
X152407851Y-84816819D01*
X152407845Y-84816815D01*
X152192151Y-84692284D01*
X152192143Y-84692281D01*
X151962048Y-84596973D01*
X151962037Y-84596969D01*
X151721459Y-84532507D01*
X151721460Y-84532507D01*
X151474531Y-84500000D01*
X151225469Y-84500000D01*
X150978539Y-84532507D01*
X150737962Y-84596969D01*
X150737951Y-84596973D01*
X150507856Y-84692281D01*
X150507848Y-84692284D01*
X150292154Y-84816815D01*
X150292148Y-84816819D01*
X150154943Y-84922099D01*
X150154943Y-84922100D01*
X150942784Y-85709941D01*
X150840030Y-85778599D01*
X150728599Y-85890030D01*
X150659941Y-85992784D01*
X149872100Y-85204943D01*
X149872099Y-85204943D01*
X149766819Y-85342148D01*
X149766815Y-85342154D01*
X149642284Y-85557848D01*
X149642281Y-85557856D01*
X149546973Y-85787951D01*
X149546969Y-85787962D01*
X149482507Y-86028539D01*
X149450000Y-86275468D01*
X130200500Y-86275468D01*
X130200500Y-83559715D01*
X130222174Y-83507389D01*
X130270625Y-83485817D01*
X130365850Y-83480827D01*
X130727691Y-83423517D01*
X131081559Y-83328698D01*
X131423578Y-83197409D01*
X131750000Y-83031089D01*
X132057248Y-82831559D01*
X132341957Y-82601007D01*
X132601007Y-82341957D01*
X132831559Y-82057248D01*
X133031089Y-81750000D01*
X133081298Y-81651460D01*
X148149500Y-81651460D01*
X148149500Y-81848539D01*
X148187947Y-82041829D01*
X148187950Y-82041839D01*
X148263367Y-82223913D01*
X148372860Y-82387781D01*
X148512218Y-82527139D01*
X148676086Y-82636632D01*
X148795503Y-82686096D01*
X148858165Y-82712051D01*
X149051459Y-82750500D01*
X149051461Y-82750500D01*
X149248539Y-82750500D01*
X149248541Y-82750500D01*
X149441835Y-82712051D01*
X149623914Y-82636632D01*
X149787782Y-82527139D01*
X149927139Y-82387782D01*
X150006043Y-82269692D01*
X150053135Y-82238227D01*
X150108684Y-82249276D01*
X150133507Y-82277210D01*
X150158767Y-82326788D01*
X150260582Y-82466923D01*
X150260586Y-82466928D01*
X150383072Y-82589414D01*
X150383075Y-82589416D01*
X150383076Y-82589417D01*
X150523212Y-82691232D01*
X150677553Y-82769872D01*
X150677557Y-82769874D01*
X150842288Y-82823399D01*
X150842294Y-82823400D01*
X150842299Y-82823402D01*
X150956359Y-82841467D01*
X151013388Y-82850500D01*
X151013389Y-82850500D01*
X151186612Y-82850500D01*
X151229383Y-82843725D01*
X151357701Y-82823402D01*
X151357708Y-82823399D01*
X151357711Y-82823399D01*
X151522442Y-82769874D01*
X151522442Y-82769873D01*
X151522445Y-82769873D01*
X151673830Y-82692738D01*
X151730292Y-82688296D01*
X151773360Y-82725079D01*
X151780003Y-82773111D01*
X151749500Y-82926460D01*
X151749500Y-83123539D01*
X151787947Y-83316829D01*
X151787950Y-83316839D01*
X151863367Y-83498913D01*
X151869031Y-83507389D01*
X151972861Y-83662782D01*
X152112218Y-83802139D01*
X152276086Y-83911632D01*
X152458165Y-83987051D01*
X152651459Y-84025500D01*
X152651461Y-84025500D01*
X152848539Y-84025500D01*
X152848541Y-84025500D01*
X153041835Y-83987051D01*
X153223914Y-83911632D01*
X153387782Y-83802139D01*
X153527139Y-83662782D01*
X153636632Y-83498914D01*
X153712051Y-83316835D01*
X153750500Y-83123541D01*
X153750500Y-82926460D01*
X155399500Y-82926460D01*
X155399500Y-83123539D01*
X155437947Y-83316829D01*
X155437950Y-83316839D01*
X155513367Y-83498913D01*
X155519031Y-83507389D01*
X155622861Y-83662782D01*
X155762218Y-83802139D01*
X155926086Y-83911632D01*
X156108165Y-83987051D01*
X156301459Y-84025500D01*
X156301461Y-84025500D01*
X156498539Y-84025500D01*
X156498541Y-84025500D01*
X156691835Y-83987051D01*
X156873914Y-83911632D01*
X157037782Y-83802139D01*
X157177139Y-83662782D01*
X157286632Y-83498914D01*
X157362051Y-83316835D01*
X157400500Y-83123541D01*
X157400500Y-82926460D01*
X159049500Y-82926460D01*
X159049500Y-83123539D01*
X159087947Y-83316829D01*
X159087950Y-83316839D01*
X159163367Y-83498913D01*
X159169031Y-83507389D01*
X159272861Y-83662782D01*
X159412218Y-83802139D01*
X159576086Y-83911632D01*
X159758165Y-83987051D01*
X159951459Y-84025500D01*
X159951461Y-84025500D01*
X160148539Y-84025500D01*
X160148541Y-84025500D01*
X160341835Y-83987051D01*
X160523914Y-83911632D01*
X160687782Y-83802139D01*
X160827139Y-83662782D01*
X160936632Y-83498914D01*
X161012051Y-83316835D01*
X161050500Y-83123541D01*
X161050500Y-82926459D01*
X161019996Y-82773108D01*
X161031045Y-82717562D01*
X161078137Y-82686096D01*
X161126169Y-82692739D01*
X161277553Y-82769872D01*
X161277557Y-82769874D01*
X161442288Y-82823399D01*
X161442294Y-82823400D01*
X161442299Y-82823402D01*
X161556359Y-82841467D01*
X161613388Y-82850500D01*
X161613389Y-82850500D01*
X161786612Y-82850500D01*
X161829383Y-82843725D01*
X161957701Y-82823402D01*
X161957708Y-82823399D01*
X161957711Y-82823399D01*
X162122442Y-82769874D01*
X162122442Y-82769873D01*
X162122445Y-82769873D01*
X162276788Y-82691232D01*
X162416928Y-82589414D01*
X162539414Y-82466928D01*
X162641232Y-82326788D01*
X162666493Y-82277209D01*
X162709560Y-82240426D01*
X162766022Y-82244869D01*
X162793954Y-82269689D01*
X162842242Y-82341957D01*
X162872860Y-82387781D01*
X163012218Y-82527139D01*
X163176086Y-82636632D01*
X163295503Y-82686096D01*
X163358165Y-82712051D01*
X163551459Y-82750500D01*
X163551461Y-82750500D01*
X163748539Y-82750500D01*
X163748541Y-82750500D01*
X163941835Y-82712051D01*
X164123914Y-82636632D01*
X164287782Y-82527139D01*
X164427139Y-82387782D01*
X164536632Y-82223914D01*
X164612051Y-82041835D01*
X164650500Y-81848541D01*
X164650500Y-81651459D01*
X164612051Y-81458165D01*
X164536632Y-81276086D01*
X164427139Y-81112218D01*
X164287782Y-80972861D01*
X164194589Y-80910591D01*
X164123913Y-80863367D01*
X163941839Y-80787950D01*
X163941829Y-80787947D01*
X163812388Y-80762200D01*
X163748541Y-80749500D01*
X163551459Y-80749500D01*
X163496662Y-80760399D01*
X163358170Y-80787947D01*
X163358160Y-80787950D01*
X163176086Y-80863367D01*
X163012218Y-80972860D01*
X163012217Y-80972862D01*
X162872862Y-81112217D01*
X162872858Y-81112220D01*
X162793955Y-81230307D01*
X162746863Y-81261772D01*
X162691314Y-81250722D01*
X162666492Y-81222788D01*
X162641234Y-81173216D01*
X162641232Y-81173212D01*
X162539417Y-81033076D01*
X162539416Y-81033075D01*
X162539414Y-81033072D01*
X162416928Y-80910586D01*
X162416925Y-80910583D01*
X162416923Y-80910582D01*
X162276787Y-80808767D01*
X162122446Y-80730127D01*
X162122442Y-80730125D01*
X161957711Y-80676600D01*
X161957698Y-80676597D01*
X161786612Y-80649500D01*
X161786611Y-80649500D01*
X161613389Y-80649500D01*
X161613388Y-80649500D01*
X161442301Y-80676597D01*
X161442288Y-80676600D01*
X161277557Y-80730125D01*
X161277553Y-80730127D01*
X161123212Y-80808767D01*
X160983076Y-80910582D01*
X160860582Y-81033076D01*
X160758767Y-81173212D01*
X160680127Y-81327553D01*
X160680125Y-81327557D01*
X160626600Y-81492288D01*
X160626597Y-81492301D01*
X160599500Y-81663388D01*
X160599500Y-81836611D01*
X160626597Y-82007698D01*
X160626601Y-82007715D01*
X160643358Y-82059288D01*
X160638914Y-82115750D01*
X160595846Y-82152532D01*
X160539384Y-82148088D01*
X160531868Y-82143683D01*
X160523914Y-82138368D01*
X160523913Y-82138367D01*
X160523911Y-82138366D01*
X160341839Y-82062950D01*
X160341829Y-82062947D01*
X160212388Y-82037200D01*
X160148541Y-82024500D01*
X159951459Y-82024500D01*
X159896662Y-82035399D01*
X159758170Y-82062947D01*
X159758160Y-82062950D01*
X159576086Y-82138367D01*
X159412218Y-82247860D01*
X159412217Y-82247862D01*
X159272862Y-82387217D01*
X159272860Y-82387218D01*
X159163367Y-82551086D01*
X159087950Y-82733160D01*
X159087947Y-82733170D01*
X159049500Y-82926460D01*
X157400500Y-82926460D01*
X157400500Y-82926459D01*
X157362051Y-82733165D01*
X157286632Y-82551086D01*
X157177139Y-82387218D01*
X157037782Y-82247861D01*
X157033305Y-82244869D01*
X156873913Y-82138367D01*
X156691839Y-82062950D01*
X156691829Y-82062947D01*
X156562388Y-82037200D01*
X156498541Y-82024500D01*
X156301459Y-82024500D01*
X156246662Y-82035399D01*
X156108170Y-82062947D01*
X156108160Y-82062950D01*
X155926086Y-82138367D01*
X155762218Y-82247860D01*
X155762217Y-82247862D01*
X155622862Y-82387217D01*
X155622860Y-82387218D01*
X155513367Y-82551086D01*
X155437950Y-82733160D01*
X155437947Y-82733170D01*
X155399500Y-82926460D01*
X153750500Y-82926460D01*
X153750500Y-82926459D01*
X153712051Y-82733165D01*
X153636632Y-82551086D01*
X153527139Y-82387218D01*
X153387782Y-82247861D01*
X153383305Y-82244869D01*
X153223913Y-82138367D01*
X153041839Y-82062950D01*
X153041829Y-82062947D01*
X152912388Y-82037200D01*
X152848541Y-82024500D01*
X152651459Y-82024500D01*
X152596662Y-82035399D01*
X152458170Y-82062947D01*
X152458160Y-82062950D01*
X152276083Y-82138368D01*
X152268130Y-82143683D01*
X152212581Y-82154732D01*
X152165490Y-82123265D01*
X152154441Y-82067716D01*
X152156641Y-82059286D01*
X152173400Y-82007707D01*
X152173399Y-82007707D01*
X152173402Y-82007701D01*
X152200500Y-81836611D01*
X152200500Y-81663389D01*
X152198610Y-81651459D01*
X152173402Y-81492301D01*
X152173399Y-81492288D01*
X152119874Y-81327557D01*
X152119872Y-81327553D01*
X152041232Y-81173212D01*
X151939417Y-81033076D01*
X151939416Y-81033075D01*
X151939414Y-81033072D01*
X151816928Y-80910586D01*
X151816925Y-80910583D01*
X151816923Y-80910582D01*
X151676787Y-80808767D01*
X151522446Y-80730127D01*
X151522442Y-80730125D01*
X151357711Y-80676600D01*
X151357698Y-80676597D01*
X151186612Y-80649500D01*
X151186611Y-80649500D01*
X151013389Y-80649500D01*
X151013388Y-80649500D01*
X150842301Y-80676597D01*
X150842288Y-80676600D01*
X150677557Y-80730125D01*
X150677553Y-80730127D01*
X150523212Y-80808767D01*
X150383076Y-80910582D01*
X150260582Y-81033076D01*
X150158767Y-81173212D01*
X150158762Y-81173221D01*
X150133506Y-81222789D01*
X150090439Y-81259572D01*
X150033977Y-81255128D01*
X150006043Y-81230306D01*
X149927139Y-81112218D01*
X149787781Y-80972860D01*
X149623913Y-80863367D01*
X149441839Y-80787950D01*
X149441829Y-80787947D01*
X149312388Y-80762200D01*
X149248541Y-80749500D01*
X149051459Y-80749500D01*
X148996662Y-80760399D01*
X148858170Y-80787947D01*
X148858160Y-80787950D01*
X148676086Y-80863367D01*
X148512218Y-80972860D01*
X148512217Y-80972862D01*
X148372862Y-81112217D01*
X148372860Y-81112218D01*
X148263367Y-81276086D01*
X148187950Y-81458160D01*
X148187947Y-81458170D01*
X148149500Y-81651460D01*
X133081298Y-81651460D01*
X133197409Y-81423578D01*
X133328698Y-81081559D01*
X133423517Y-80727691D01*
X133480827Y-80365850D01*
X133485817Y-80270626D01*
X133510200Y-80219507D01*
X133559716Y-80200500D01*
X166440284Y-80200500D01*
X166492610Y-80222174D01*
G37*
%TD.AperFunction*%
%TD*%
%TA.AperFunction,Conductor*%
%TO.N,Net-(U1-SRP)*%
G36*
X156020677Y-108143895D02*
G01*
X155925000Y-108543148D01*
X155775000Y-108543148D01*
X155612919Y-108225003D01*
X155800000Y-108099000D01*
X156020677Y-108143895D01*
G37*
%TD.AperFunction*%
%TD*%
%TA.AperFunction,Conductor*%
%TO.N,Net-(U1-SRP)*%
G36*
X140604311Y-103185079D02*
G01*
X140690607Y-103197630D01*
X140698301Y-103202212D01*
X140700602Y-103208506D01*
X140720708Y-103542850D01*
X140717784Y-103551314D01*
X140717777Y-103551321D01*
X140649898Y-103627748D01*
X140641842Y-103631659D01*
X140640776Y-103631673D01*
X140509979Y-103627492D01*
X140501820Y-103623803D01*
X140498659Y-103615424D01*
X140498853Y-103613647D01*
X140577927Y-103192576D01*
X140582822Y-103185079D01*
X140591110Y-103183159D01*
X140604311Y-103185079D01*
G37*
%TD.AperFunction*%
%TD*%
%TA.AperFunction,Conductor*%
%TO.N,Net-(U1-SRP)*%
G36*
X156102857Y-109395170D02*
G01*
X155969205Y-109463267D01*
X155987081Y-109525003D01*
X155799547Y-109399109D01*
X155987081Y-109274997D01*
X156102857Y-109395170D01*
G37*
%TD.AperFunction*%
%TD*%
%TA.AperFunction,Conductor*%
%TO.N,GND*%
G36*
X141680677Y-97023895D02*
G01*
X141525000Y-97425677D01*
X141325000Y-97425677D01*
X141239323Y-97023895D01*
X141460000Y-96979000D01*
X141680677Y-97023895D01*
G37*
%TD.AperFunction*%
%TD*%
%TA.AperFunction,Conductor*%
%TO.N,GND*%
G36*
X141082242Y-101746244D02*
G01*
X140915946Y-101857354D01*
X140574997Y-101687081D01*
X140699445Y-101499169D01*
X140887081Y-101374997D01*
X141082242Y-101746244D01*
G37*
%TD.AperFunction*%
%TD*%
%TA.AperFunction,Conductor*%
%TO.N,GND*%
G36*
X141680677Y-96936105D02*
G01*
X141460000Y-96981000D01*
X141239323Y-96936105D01*
X141325000Y-96534323D01*
X141525000Y-96534323D01*
X141680677Y-96936105D01*
G37*
%TD.AperFunction*%
%TD*%
%TA.AperFunction,Conductor*%
%TO.N,Net-(D2-K)*%
G36*
X144701547Y-100753427D02*
G01*
X144703385Y-100755813D01*
X145075629Y-101395157D01*
X145076830Y-101404031D01*
X145072359Y-101410535D01*
X144606841Y-101746069D01*
X144598126Y-101748127D01*
X144593159Y-101746069D01*
X144127640Y-101410535D01*
X144122932Y-101402918D01*
X144124370Y-101395157D01*
X144496615Y-100755813D01*
X144503739Y-100750388D01*
X144506726Y-100750000D01*
X144693274Y-100750000D01*
X144701547Y-100753427D01*
G37*
%TD.AperFunction*%
%TD*%
%TA.AperFunction,Conductor*%
%TO.N,Net-(D2-K)*%
G36*
X144606833Y-100178918D02*
G01*
X144903927Y-100392750D01*
X145041223Y-100491569D01*
X145045936Y-100499183D01*
X145044392Y-100507132D01*
X144703416Y-101069367D01*
X144696196Y-101074664D01*
X144693412Y-101075000D01*
X144506588Y-101075000D01*
X144498315Y-101071573D01*
X144496584Y-101069367D01*
X144155607Y-100507132D01*
X144154247Y-100498281D01*
X144158775Y-100491569D01*
X144593165Y-100178918D01*
X144601882Y-100176867D01*
X144606833Y-100178918D01*
G37*
%TD.AperFunction*%
%TD*%
%TA.AperFunction,Conductor*%
%TO.N,Net-(D2-K)*%
G36*
X142856975Y-101899098D02*
G01*
X142864932Y-101903207D01*
X142867694Y-101910757D01*
X142867694Y-102089242D01*
X142864267Y-102097515D01*
X142856975Y-102100901D01*
X142633372Y-102119716D01*
X142626997Y-102118440D01*
X142418987Y-102010383D01*
X142413226Y-102003528D01*
X142413998Y-101994606D01*
X142418987Y-101989617D01*
X142627000Y-101881558D01*
X142633369Y-101880283D01*
X142856975Y-101899098D01*
G37*
%TD.AperFunction*%
%TD*%
%TA.AperFunction,Conductor*%
%TO.N,Net-(D2-K)*%
G36*
X144166800Y-101352682D02*
G01*
X144593319Y-101742972D01*
X144597110Y-101751086D01*
X144594912Y-101758445D01*
X144258732Y-102224860D01*
X144251115Y-102229568D01*
X144246944Y-102229491D01*
X143609561Y-102101882D01*
X143602122Y-102096898D01*
X143600158Y-102090410D01*
X143600158Y-101904867D01*
X143603584Y-101896595D01*
X143646555Y-101853898D01*
X143654799Y-101850500D01*
X143746145Y-101850500D01*
X143746145Y-101850499D01*
X143790716Y-101838557D01*
X143835286Y-101826615D01*
X143835290Y-101826613D01*
X143861929Y-101811232D01*
X143915212Y-101780469D01*
X143980469Y-101715212D01*
X144026614Y-101635288D01*
X144050500Y-101546144D01*
X144050500Y-101457398D01*
X144053926Y-101449127D01*
X144150657Y-101353012D01*
X144158940Y-101349614D01*
X144166800Y-101352682D01*
G37*
%TD.AperFunction*%
%TD*%
%TA.AperFunction,Conductor*%
%TO.N,Net-(Q4-S)*%
G36*
X149140851Y-102389430D02*
G01*
X148999430Y-102530851D01*
X148624997Y-102337081D01*
X148749293Y-102149293D01*
X148937081Y-102024997D01*
X149140851Y-102389430D01*
G37*
%TD.AperFunction*%
%TD*%
%TA.AperFunction,Conductor*%
%TO.N,Net-(Q4-S)*%
G36*
X148212811Y-100056196D02*
G01*
X148237726Y-100061262D01*
X148245151Y-100066268D01*
X148246860Y-100075058D01*
X148246493Y-100076430D01*
X148238628Y-100099998D01*
X148238629Y-100100000D01*
X148131461Y-100421152D01*
X147932719Y-100443542D01*
X147813375Y-100076361D01*
X147814077Y-100067434D01*
X147820885Y-100061618D01*
X147822157Y-100061282D01*
X148027560Y-100019481D01*
X148032220Y-100019481D01*
X148212811Y-100056196D01*
G37*
%TD.AperFunction*%
%TD*%
%TA.AperFunction,Conductor*%
%TO.N,Net-(Q4-S)*%
G36*
X144135036Y-98430483D02*
G01*
X144595852Y-98622272D01*
X144602173Y-98628615D01*
X144602419Y-98629266D01*
X144751798Y-99063178D01*
X144751251Y-99072116D01*
X144744543Y-99078049D01*
X144743803Y-99078277D01*
X143898159Y-99308027D01*
X143889276Y-99306889D01*
X143886818Y-99305009D01*
X143756182Y-99174373D01*
X143752755Y-99166100D01*
X143754009Y-99160830D01*
X144120099Y-98436009D01*
X144126887Y-98430171D01*
X144135036Y-98430483D01*
G37*
%TD.AperFunction*%
%TD*%
%TA.AperFunction,Conductor*%
%TO.N,Net-(Q4-S)*%
G36*
X142759385Y-100844311D02*
G01*
X142762842Y-100848934D01*
X142825578Y-101000382D01*
X142831439Y-101014529D01*
X142831440Y-101023484D01*
X142825108Y-101029816D01*
X142824822Y-101029930D01*
X142733063Y-101065146D01*
X142726583Y-101065696D01*
X142687166Y-101057835D01*
X142407886Y-101002138D01*
X142400443Y-100997159D01*
X142398498Y-100991419D01*
X142392032Y-100891198D01*
X142394919Y-100882724D01*
X142402470Y-100878813D01*
X142750798Y-100841778D01*
X142759385Y-100844311D01*
G37*
%TD.AperFunction*%
%TD*%
%TA.AperFunction,Conductor*%
%TO.N,Net-(Q4-S)*%
G36*
X148875003Y-101962919D02*
G01*
X148750532Y-102150846D01*
X148529323Y-102193895D01*
X148399159Y-101843738D01*
X148568504Y-101737334D01*
X148875003Y-101962919D01*
G37*
%TD.AperFunction*%
%TD*%
%TA.AperFunction,Conductor*%
%TO.N,Net-(Q4-S)*%
G36*
X144420977Y-98505331D02*
G01*
X144596619Y-98621587D01*
X144601626Y-98629010D01*
X144601645Y-98629103D01*
X144641625Y-98834043D01*
X144639845Y-98842819D01*
X144632381Y-98847767D01*
X144632232Y-98847795D01*
X144297820Y-98908534D01*
X144289067Y-98906640D01*
X144287456Y-98905295D01*
X144158555Y-98776394D01*
X144155128Y-98768121D01*
X144158467Y-98759937D01*
X144406159Y-98506902D01*
X144414394Y-98503388D01*
X144420977Y-98505331D01*
G37*
%TD.AperFunction*%
%TD*%
%TA.AperFunction,Conductor*%
%TO.N,Net-(Q1-G)*%
G36*
X136380403Y-94114583D02*
G01*
X137175325Y-94425659D01*
X137181780Y-94431865D01*
X137181956Y-94440818D01*
X137181879Y-94441011D01*
X137002747Y-94875770D01*
X136996427Y-94882114D01*
X136995673Y-94882398D01*
X136535770Y-95037737D01*
X136526835Y-95037138D01*
X136521054Y-95030714D01*
X136236725Y-94262469D01*
X136237068Y-94253522D01*
X136239280Y-94250283D01*
X136367728Y-94117348D01*
X136375939Y-94113781D01*
X136380403Y-94114583D01*
G37*
%TD.AperFunction*%
%TD*%
%TA.AperFunction,Conductor*%
%TO.N,Net-(Q1-G)*%
G36*
X138594476Y-93278114D02*
G01*
X138601969Y-93283019D01*
X138603121Y-93285156D01*
X138761314Y-93669381D01*
X138761295Y-93678335D01*
X138755151Y-93684569D01*
X138023707Y-94001848D01*
X138014753Y-94001996D01*
X138010778Y-93999387D01*
X137880290Y-93868899D01*
X137876863Y-93860626D01*
X137877592Y-93856562D01*
X138121565Y-93198577D01*
X138127653Y-93192014D01*
X138134707Y-93191151D01*
X138594476Y-93278114D01*
G37*
%TD.AperFunction*%
%TD*%
%TA.AperFunction,Conductor*%
%TO.N,Net-(Q1-G)*%
G36*
X137643381Y-94099955D02*
G01*
X137647066Y-94102445D01*
X137777649Y-94233028D01*
X137781076Y-94241301D01*
X137780300Y-94245491D01*
X137479024Y-95030905D01*
X137472861Y-95037402D01*
X137464356Y-95037800D01*
X137004338Y-94882411D01*
X136997596Y-94876516D01*
X136997264Y-94875783D01*
X136818098Y-94440909D01*
X136818115Y-94431954D01*
X136824459Y-94425634D01*
X137634429Y-94099863D01*
X137643381Y-94099955D01*
G37*
%TD.AperFunction*%
%TD*%
%TA.AperFunction,Conductor*%
%TO.N,Net-(Q1-G)*%
G36*
X137473290Y-94722798D02*
G01*
X137479024Y-94729094D01*
X137780299Y-95514508D01*
X137780062Y-95523459D01*
X137777648Y-95526971D01*
X137647065Y-95657554D01*
X137638792Y-95660981D01*
X137634426Y-95660136D01*
X136824550Y-95334402D01*
X136818153Y-95328135D01*
X136818061Y-95319181D01*
X136997265Y-94884214D01*
X137003584Y-94877872D01*
X137004316Y-94877596D01*
X137464357Y-94722199D01*
X137473290Y-94722798D01*
G37*
%TD.AperFunction*%
%TD*%
%TA.AperFunction,Conductor*%
%TO.N,Net-(Q1-G)*%
G36*
X137940406Y-95674537D02*
G01*
X138765922Y-95975893D01*
X138772519Y-95981949D01*
X138772901Y-95990896D01*
X138772805Y-95991150D01*
X138602640Y-96425768D01*
X138596433Y-96432222D01*
X138595718Y-96432507D01*
X138135436Y-96598677D01*
X138126491Y-96598263D01*
X138120685Y-96592222D01*
X137795039Y-95820653D01*
X137794980Y-95811701D01*
X137797544Y-95807835D01*
X137928124Y-95677255D01*
X137936396Y-95673829D01*
X137940406Y-95674537D01*
G37*
%TD.AperFunction*%
%TD*%
%TA.AperFunction,Conductor*%
%TO.N,Net-(Q1-G)*%
G36*
X138136919Y-96272133D02*
G01*
X138595789Y-96427735D01*
X138602524Y-96433637D01*
X138602854Y-96434367D01*
X138781142Y-96868153D01*
X138781117Y-96877108D01*
X138774768Y-96883423D01*
X138773773Y-96883780D01*
X138070858Y-97100919D01*
X138061942Y-97100086D01*
X138057677Y-97096240D01*
X137954324Y-96941563D01*
X137952577Y-96932781D01*
X137952727Y-96932125D01*
X137967000Y-96877108D01*
X138121839Y-96280273D01*
X138127233Y-96273128D01*
X138136101Y-96271889D01*
X138136919Y-96272133D01*
G37*
%TD.AperFunction*%
%TD*%
%TA.AperFunction,Conductor*%
%TO.N,Net-(Q1-G)*%
G36*
X135617356Y-93531402D02*
G01*
X135936260Y-93806332D01*
X135940288Y-93814329D01*
X135939045Y-93820505D01*
X135853820Y-93987765D01*
X135849823Y-93992229D01*
X135618883Y-94144086D01*
X135610088Y-94145768D01*
X135603337Y-94141642D01*
X135340121Y-93814329D01*
X135311461Y-93778690D01*
X135308948Y-93770096D01*
X135313246Y-93762243D01*
X135602412Y-93531124D01*
X135611013Y-93528636D01*
X135617356Y-93531402D01*
G37*
%TD.AperFunction*%
%TD*%
%TA.AperFunction,Conductor*%
%TO.N,Net-(Q1-G)*%
G36*
X131796132Y-96166132D02*
G01*
X131801145Y-96173552D01*
X131801321Y-96174697D01*
X131870141Y-96843756D01*
X131867578Y-96852336D01*
X131866775Y-96853226D01*
X131735011Y-96984985D01*
X131726738Y-96988412D01*
X131721914Y-96987371D01*
X131448018Y-96863408D01*
X131441894Y-96856875D01*
X131441184Y-96851762D01*
X131441862Y-96843756D01*
X131493554Y-96233014D01*
X131497666Y-96225062D01*
X131502866Y-96222541D01*
X131787342Y-96164431D01*
X131796132Y-96166132D01*
G37*
%TD.AperFunction*%
%TD*%
%TA.AperFunction,Conductor*%
%TO.N,Net-(Q2-D)*%
G36*
X141283609Y-99482478D02*
G01*
X141303650Y-99490780D01*
X141321888Y-99498335D01*
X141328220Y-99504667D01*
X141329105Y-99509499D01*
X141320370Y-99797592D01*
X141316694Y-99805757D01*
X141308320Y-99808932D01*
X141307814Y-99808905D01*
X141213079Y-99801916D01*
X141205081Y-99797890D01*
X141202272Y-99789387D01*
X141202511Y-99787745D01*
X141267709Y-99490778D01*
X141272829Y-99483434D01*
X141281645Y-99481861D01*
X141283609Y-99482478D01*
G37*
%TD.AperFunction*%
%TD*%
%TA.AperFunction,Conductor*%
%TO.N,/SYS_PWR*%
G36*
X141644872Y-99318891D02*
G01*
X141765130Y-99368708D01*
X141771462Y-99375040D01*
X141771951Y-99376479D01*
X141816589Y-99542482D01*
X141815902Y-99550447D01*
X141710264Y-99777991D01*
X141703672Y-99784052D01*
X141694725Y-99783676D01*
X141689028Y-99777964D01*
X141583933Y-99550118D01*
X141583114Y-99542788D01*
X141628951Y-99327263D01*
X141634023Y-99319887D01*
X141642828Y-99318256D01*
X141644872Y-99318891D01*
G37*
%TD.AperFunction*%
%TD*%
%TA.AperFunction,Conductor*%
%TO.N,Net-(Q3-G)*%
G36*
X167977301Y-95484346D02*
G01*
X167983342Y-95490956D01*
X167983808Y-95492612D01*
X168025525Y-95697668D01*
X168025525Y-95702332D01*
X167983516Y-95908825D01*
X167978509Y-95916249D01*
X167969719Y-95917958D01*
X167969341Y-95917875D01*
X167588313Y-95827140D01*
X167581058Y-95821890D01*
X167579323Y-95815758D01*
X167579323Y-95633202D01*
X167582750Y-95624929D01*
X167587032Y-95622204D01*
X167968357Y-95483945D01*
X167977301Y-95484346D01*
G37*
%TD.AperFunction*%
%TD*%
%TA.AperFunction,Conductor*%
%TO.N,Net-(Q3-G)*%
G36*
X167295575Y-95722740D02*
G01*
X167302500Y-95728415D01*
X167302880Y-95729193D01*
X167495926Y-96164409D01*
X167496148Y-96173361D01*
X167490080Y-96179801D01*
X166710743Y-96534699D01*
X166701793Y-96535009D01*
X166697621Y-96532324D01*
X166566994Y-96401697D01*
X166563567Y-96393424D01*
X166564131Y-96389835D01*
X166777030Y-95729193D01*
X166821475Y-95591274D01*
X166827274Y-95584452D01*
X166835998Y-95583666D01*
X167295575Y-95722740D01*
G37*
%TD.AperFunction*%
%TD*%
%TA.AperFunction,Conductor*%
%TO.N,Net-(Q3-G)*%
G36*
X165933832Y-97039739D02*
G01*
X166063414Y-97169321D01*
X166066841Y-97177594D01*
X166066650Y-97179702D01*
X165912163Y-98023142D01*
X165907301Y-98030662D01*
X165898546Y-98032543D01*
X165898248Y-98032484D01*
X165612905Y-97972516D01*
X165605513Y-97967461D01*
X165603643Y-97961930D01*
X165557682Y-97341057D01*
X165560489Y-97332553D01*
X165561922Y-97331153D01*
X165918140Y-97038965D01*
X165926709Y-97036369D01*
X165933832Y-97039739D01*
G37*
%TD.AperFunction*%
%TD*%
%TA.AperFunction,Conductor*%
%TO.N,/REGN*%
G36*
X142856975Y-102399098D02*
G01*
X142864932Y-102403207D01*
X142867694Y-102410757D01*
X142867694Y-102589242D01*
X142864267Y-102597515D01*
X142856975Y-102600901D01*
X142633372Y-102619716D01*
X142626997Y-102618440D01*
X142418987Y-102510383D01*
X142413226Y-102503528D01*
X142413998Y-102494606D01*
X142418987Y-102489617D01*
X142627000Y-102381558D01*
X142633369Y-102380283D01*
X142856975Y-102399098D01*
G37*
%TD.AperFunction*%
%TD*%
%TA.AperFunction,Conductor*%
%TO.N,/REGN*%
G36*
X145333339Y-103417601D02*
G01*
X145341525Y-103421227D01*
X145344752Y-103429580D01*
X145344414Y-103432102D01*
X145103061Y-104409736D01*
X145097751Y-104416947D01*
X145088898Y-104418291D01*
X145087913Y-104418002D01*
X144604573Y-104252572D01*
X144597856Y-104246650D01*
X144361179Y-103761070D01*
X144360635Y-103752134D01*
X144366571Y-103745429D01*
X144367088Y-103745193D01*
X145145642Y-103414123D01*
X145150492Y-103413195D01*
X145333339Y-103417601D01*
G37*
%TD.AperFunction*%
%TD*%
%TA.AperFunction,Conductor*%
%TO.N,/REGN*%
G36*
X145254677Y-103331967D02*
G01*
X145254745Y-103332012D01*
X145427013Y-103448212D01*
X145431955Y-103455680D01*
X145430170Y-103464455D01*
X145429919Y-103464811D01*
X145182074Y-103804278D01*
X145174428Y-103808939D01*
X145165726Y-103806828D01*
X145164554Y-103805850D01*
X145033037Y-103680548D01*
X145029411Y-103672360D01*
X145029408Y-103672133D01*
X145029325Y-103383472D01*
X145032749Y-103375200D01*
X145038712Y-103372002D01*
X145245890Y-103330243D01*
X145254677Y-103331967D01*
G37*
%TD.AperFunction*%
%TD*%
%TA.AperFunction,Conductor*%
%TO.N,/REGN*%
G36*
X143429837Y-102404191D02*
G01*
X143438077Y-102407695D01*
X143441426Y-102416000D01*
X143441212Y-102418122D01*
X143401453Y-102622667D01*
X143399672Y-102626971D01*
X143281764Y-102802032D01*
X143274300Y-102806980D01*
X143265524Y-102805200D01*
X143265190Y-102804967D01*
X142987453Y-102603503D01*
X142982768Y-102595871D01*
X142982623Y-102594032D01*
X142982623Y-102411809D01*
X142986050Y-102403536D01*
X142994321Y-102400109D01*
X143429837Y-102404191D01*
G37*
%TD.AperFunction*%
%TD*%
%TA.AperFunction,Conductor*%
%TO.N,Net-(U1-VCC)*%
G36*
X142491212Y-100305529D02*
G01*
X142499409Y-100309134D01*
X142502256Y-100314182D01*
X142518239Y-100373498D01*
X142517083Y-100382378D01*
X142515249Y-100384781D01*
X142408286Y-100492622D01*
X142400027Y-100496083D01*
X142391740Y-100492690D01*
X142391671Y-100492621D01*
X142284658Y-100384705D01*
X142281266Y-100376418D01*
X142281628Y-100373578D01*
X142281649Y-100373498D01*
X142297728Y-100310395D01*
X142303092Y-100303225D01*
X142309317Y-100301588D01*
X142491212Y-100305529D01*
G37*
%TD.AperFunction*%
%TD*%
%TA.AperFunction,Conductor*%
%TO.N,Net-(U1-VCC)*%
G36*
X142645387Y-99698085D02*
G01*
X142652853Y-99703027D01*
X142652903Y-99703100D01*
X142769331Y-99878534D01*
X142771050Y-99887322D01*
X142767272Y-99893822D01*
X142531233Y-100099667D01*
X142522745Y-100102522D01*
X142521260Y-100102324D01*
X142342695Y-100066797D01*
X142335250Y-100061822D01*
X142333503Y-100053039D01*
X142333605Y-100052576D01*
X142373502Y-99887322D01*
X142426698Y-99666976D01*
X142431970Y-99659739D01*
X142440301Y-99658238D01*
X142645387Y-99698085D01*
G37*
%TD.AperFunction*%
%TD*%
%TA.AperFunction,Conductor*%
%TO.N,Net-(D3-K)*%
G36*
X138806122Y-104952854D02*
G01*
X139367132Y-105147273D01*
X139373826Y-105153219D01*
X139375000Y-105158327D01*
X139375000Y-105641672D01*
X139371573Y-105649945D01*
X139367131Y-105652727D01*
X138806122Y-105847145D01*
X138797183Y-105846616D01*
X138792795Y-105842925D01*
X138478919Y-105406835D01*
X138476867Y-105398118D01*
X138478919Y-105393165D01*
X138792795Y-104957073D01*
X138800409Y-104952361D01*
X138806122Y-104952854D01*
G37*
%TD.AperFunction*%
%TD*%
%TA.AperFunction,Conductor*%
%TO.N,Net-(D3-K)*%
G36*
X140317248Y-103188122D02*
G01*
X140321621Y-103195684D01*
X140382406Y-103621316D01*
X140380184Y-103629990D01*
X140372478Y-103634552D01*
X140371133Y-103634666D01*
X140240365Y-103638122D01*
X140232004Y-103634915D01*
X140230691Y-103633439D01*
X140221612Y-103621316D01*
X140164702Y-103545324D01*
X140162439Y-103537023D01*
X140198952Y-103208200D01*
X140203271Y-103200356D01*
X140209161Y-103197878D01*
X140308621Y-103185724D01*
X140317248Y-103188122D01*
G37*
%TD.AperFunction*%
%TD*%
%TA.AperFunction,Conductor*%
%TO.N,Net-(D3-K)*%
G36*
X167307219Y-97281634D02*
G01*
X167664260Y-97676280D01*
X167667269Y-97684714D01*
X167664147Y-97692102D01*
X167206998Y-98183072D01*
X167198852Y-98186792D01*
X167193958Y-98185908D01*
X167021632Y-98114527D01*
X167015300Y-98108195D01*
X167015009Y-98107416D01*
X166844907Y-97594486D01*
X166845555Y-97585556D01*
X166849426Y-97581134D01*
X167291959Y-97279811D01*
X167300725Y-97277988D01*
X167307219Y-97281634D01*
G37*
%TD.AperFunction*%
%TD*%
%TA.AperFunction,Conductor*%
%TO.N,Net-(J4-Pin_2)*%
G36*
X138743170Y-101386200D02*
G01*
X138978668Y-101489973D01*
X138984857Y-101496445D01*
X138984657Y-101505398D01*
X138979351Y-101511059D01*
X138772867Y-101618507D01*
X138766774Y-101619808D01*
X138561504Y-101607647D01*
X138553448Y-101603736D01*
X138550721Y-101598250D01*
X138515943Y-101423415D01*
X138517690Y-101414632D01*
X138525135Y-101409657D01*
X138526071Y-101409509D01*
X138737122Y-101385284D01*
X138743170Y-101386200D01*
G37*
%TD.AperFunction*%
%TD*%
%TA.AperFunction,Conductor*%
%TO.N,Net-(J4-Pin_2)*%
G36*
X138211501Y-101497746D02*
G01*
X138216826Y-101503604D01*
X138260617Y-101609323D01*
X138286640Y-101672147D01*
X138286640Y-101681101D01*
X138284950Y-101683954D01*
X138073767Y-101946684D01*
X138065913Y-101950985D01*
X138058185Y-101949106D01*
X137883161Y-101833089D01*
X137878159Y-101825664D01*
X137838113Y-101619653D01*
X137839898Y-101610880D01*
X137846166Y-101606236D01*
X138202588Y-101496896D01*
X138211501Y-101497746D01*
G37*
%TD.AperFunction*%
%TD*%
%TA.AperFunction,Conductor*%
%TO.N,Net-(J4-Pin_1)*%
G36*
X138694128Y-101913096D02*
G01*
X138992689Y-101997359D01*
X138999719Y-102002903D01*
X139001205Y-102008272D01*
X139004175Y-102108616D01*
X139000994Y-102116987D01*
X138993142Y-102120643D01*
X138575745Y-102144283D01*
X138567291Y-102141330D01*
X138563957Y-102136219D01*
X138508894Y-101966770D01*
X138509596Y-101957846D01*
X138516405Y-101952030D01*
X138517424Y-101951748D01*
X138688366Y-101912947D01*
X138694128Y-101913096D01*
G37*
%TD.AperFunction*%
%TD*%
%TA.AperFunction,Conductor*%
%TO.N,Net-(J4-Pin_1)*%
G36*
X138056504Y-102178515D02*
G01*
X138163800Y-102326186D01*
X138165891Y-102334893D01*
X138164424Y-102338988D01*
X137973334Y-102664355D01*
X137966189Y-102669754D01*
X137957320Y-102668519D01*
X137956785Y-102668185D01*
X137781174Y-102551900D01*
X137777877Y-102548602D01*
X137662369Y-102374059D01*
X137660661Y-102365269D01*
X137665669Y-102357845D01*
X137667004Y-102357083D01*
X138041927Y-102174868D01*
X138050864Y-102174335D01*
X138056504Y-102178515D01*
G37*
%TD.AperFunction*%
%TD*%
%TA.AperFunction,Conductor*%
%TO.N,Net-(J4-Pin_3)*%
G36*
X139797442Y-99363349D02*
G01*
X139801006Y-99370698D01*
X139819672Y-99566561D01*
X139818408Y-99573064D01*
X139710405Y-99781006D01*
X139703551Y-99786768D01*
X139694629Y-99785996D01*
X139689639Y-99781005D01*
X139581606Y-99572968D01*
X139580345Y-99566448D01*
X139599020Y-99374725D01*
X139603233Y-99366824D01*
X139610397Y-99364163D01*
X139789095Y-99360111D01*
X139797442Y-99363349D01*
G37*
%TD.AperFunction*%
%TD*%
%TA.AperFunction,Conductor*%
%TO.N,Net-(J4-Pin_3)*%
G36*
X139766398Y-98960427D02*
G01*
X139771340Y-98967895D01*
X139771531Y-98969375D01*
X139799198Y-99399088D01*
X139796310Y-99407564D01*
X139788274Y-99411516D01*
X139787522Y-99411540D01*
X139605505Y-99411540D01*
X139597232Y-99408113D01*
X139596491Y-99407299D01*
X139371151Y-99134952D01*
X139368517Y-99126393D01*
X139372706Y-99118479D01*
X139373621Y-99117794D01*
X139548032Y-99000325D01*
X139552328Y-98998547D01*
X139757624Y-98958642D01*
X139766398Y-98960427D01*
G37*
%TD.AperFunction*%
%TD*%
%TA.AperFunction,Conductor*%
%TO.N,Net-(J4-Pin_4)*%
G36*
X138773000Y-100881558D02*
G01*
X138889613Y-100942136D01*
X138981012Y-100989617D01*
X138986773Y-100996472D01*
X138986001Y-101005394D01*
X138981012Y-101010383D01*
X138773002Y-101118440D01*
X138766627Y-101119716D01*
X138543025Y-101100901D01*
X138535068Y-101096792D01*
X138532306Y-101089242D01*
X138532306Y-100910757D01*
X138535733Y-100902484D01*
X138543024Y-100899098D01*
X138766629Y-100880283D01*
X138773000Y-100881558D01*
G37*
%TD.AperFunction*%
%TD*%
%TA.AperFunction,Conductor*%
%TO.N,Net-(J4-Pin_4)*%
G36*
X138326170Y-100783010D02*
G01*
X138355712Y-100791883D01*
X138707344Y-100897497D01*
X138714280Y-100903157D01*
X138715677Y-100908701D01*
X138715677Y-101091298D01*
X138712250Y-101099571D01*
X138707343Y-101102503D01*
X138326170Y-101216989D01*
X138317260Y-101216087D01*
X138311599Y-101209150D01*
X138311341Y-101208127D01*
X138269474Y-101002329D01*
X138269474Y-100997668D01*
X138311340Y-100791881D01*
X138316346Y-100784459D01*
X138325136Y-100782750D01*
X138326170Y-100783010D01*
G37*
%TD.AperFunction*%
%TD*%
%TA.AperFunction,Conductor*%
%TO.N,Net-(Q4-G)*%
G36*
X157008318Y-103443250D02*
G01*
X157350504Y-103621395D01*
X157356260Y-103628255D01*
X157356758Y-103632777D01*
X157306429Y-104217318D01*
X157302305Y-104225266D01*
X157297522Y-104227686D01*
X156992222Y-104301523D01*
X156983375Y-104300137D01*
X156978100Y-104292901D01*
X156977931Y-104292076D01*
X156860281Y-103586649D01*
X156862301Y-103577927D01*
X156863543Y-103576459D01*
X156994645Y-103445355D01*
X157002917Y-103441929D01*
X157008318Y-103443250D01*
G37*
%TD.AperFunction*%
%TD*%
%TA.AperFunction,Conductor*%
%TO.N,Net-(Q4-G)*%
G36*
X142819492Y-101343169D02*
G01*
X142822842Y-101347706D01*
X142891036Y-101512347D01*
X142891036Y-101521302D01*
X142884704Y-101527633D01*
X142883413Y-101528082D01*
X142725799Y-101572694D01*
X142720036Y-101572849D01*
X142407719Y-101502333D01*
X142400404Y-101497168D01*
X142398612Y-101491536D01*
X142393349Y-101391203D01*
X142396338Y-101382765D01*
X142403932Y-101378945D01*
X142810935Y-101340535D01*
X142819492Y-101343169D01*
G37*
%TD.AperFunction*%
%TD*%
%TA.AperFunction,Conductor*%
%TO.N,Net-(Q5-G)*%
G36*
X147387607Y-98581541D02*
G01*
X147394337Y-98587446D01*
X147395541Y-98592846D01*
X147386138Y-99077874D01*
X147382551Y-99086079D01*
X147379605Y-99088145D01*
X146980995Y-99284243D01*
X146972059Y-99284820D01*
X146967557Y-99282018D01*
X146837492Y-99151953D01*
X146834065Y-99143680D01*
X146834884Y-99139380D01*
X147090902Y-98492512D01*
X147097133Y-98486082D01*
X147105543Y-98485741D01*
X147387607Y-98581541D01*
G37*
%TD.AperFunction*%
%TD*%
%TA.AperFunction,Conductor*%
%TO.N,Net-(Q5-G)*%
G36*
X141825899Y-103080983D02*
G01*
X141930224Y-103098370D01*
X141937821Y-103103111D01*
X141940000Y-103109911D01*
X141940000Y-103290088D01*
X141936573Y-103298361D01*
X141930223Y-103301629D01*
X141825908Y-103319015D01*
X141817185Y-103316995D01*
X141815746Y-103315781D01*
X141707376Y-103208307D01*
X141703915Y-103200049D01*
X141707308Y-103191761D01*
X141707376Y-103191693D01*
X141815747Y-103084217D01*
X141824034Y-103080825D01*
X141825899Y-103080983D01*
G37*
%TD.AperFunction*%
%TD*%
%TA.AperFunction,Conductor*%
%TO.N,Net-(U1-ACDET)*%
G36*
X138773000Y-100381558D02*
G01*
X138889613Y-100442136D01*
X138981012Y-100489617D01*
X138986773Y-100496472D01*
X138986001Y-100505394D01*
X138981012Y-100510383D01*
X138773002Y-100618440D01*
X138766627Y-100619716D01*
X138543025Y-100600901D01*
X138535068Y-100596792D01*
X138532306Y-100589242D01*
X138532306Y-100410757D01*
X138535733Y-100402484D01*
X138543024Y-100399098D01*
X138766629Y-100380283D01*
X138773000Y-100381558D01*
G37*
%TD.AperFunction*%
%TD*%
%TA.AperFunction,Conductor*%
%TO.N,Net-(U1-ACDET)*%
G36*
X137122733Y-100489727D02*
G01*
X137128000Y-100495554D01*
X137197814Y-100664109D01*
X137197814Y-100673064D01*
X137196079Y-100675972D01*
X136983777Y-100936776D01*
X136975896Y-100941029D01*
X136968239Y-100939142D01*
X136793162Y-100823090D01*
X136788159Y-100815664D01*
X136748125Y-100609714D01*
X136749910Y-100600939D01*
X136756241Y-100596277D01*
X137113825Y-100488826D01*
X137122733Y-100489727D01*
G37*
%TD.AperFunction*%
%TD*%
%TA.AperFunction,Conductor*%
%TO.N,Net-(U1-CMSRC)*%
G36*
X140207747Y-94935844D02*
G01*
X140592328Y-95275615D01*
X140596259Y-95283661D01*
X140594300Y-95290897D01*
X140303476Y-95724814D01*
X140296023Y-95729778D01*
X140293757Y-95730000D01*
X140106243Y-95730000D01*
X140097970Y-95726573D01*
X140096524Y-95724814D01*
X139805698Y-95290895D01*
X139803940Y-95282117D01*
X139807670Y-95275616D01*
X140192253Y-94935843D01*
X140200722Y-94932934D01*
X140207747Y-94935844D01*
G37*
%TD.AperFunction*%
%TD*%
%TA.AperFunction,Conductor*%
%TO.N,Net-(U1-CMSRC)*%
G36*
X140797516Y-99335733D02*
G01*
X140800902Y-99343025D01*
X140819716Y-99566627D01*
X140818440Y-99573002D01*
X140710383Y-99781012D01*
X140703528Y-99786773D01*
X140694606Y-99786001D01*
X140689617Y-99781012D01*
X140581559Y-99573002D01*
X140580283Y-99566629D01*
X140599098Y-99343024D01*
X140603207Y-99335068D01*
X140610757Y-99332306D01*
X140789243Y-99332306D01*
X140797516Y-99335733D01*
G37*
%TD.AperFunction*%
%TD*%
%TA.AperFunction,Conductor*%
%TO.N,Net-(U1-ACDRV)*%
G36*
X139073155Y-94843136D02*
G01*
X139077849Y-94849715D01*
X139233016Y-95416768D01*
X139231894Y-95425652D01*
X139229882Y-95428250D01*
X139096571Y-95557708D01*
X139088248Y-95561013D01*
X139084513Y-95560342D01*
X138445925Y-95334107D01*
X138439271Y-95328115D01*
X138438804Y-95319172D01*
X138438999Y-95318659D01*
X138596890Y-94935145D01*
X138603208Y-94928800D01*
X138605529Y-94928105D01*
X139064391Y-94841307D01*
X139073155Y-94843136D01*
G37*
%TD.AperFunction*%
%TD*%
%TA.AperFunction,Conductor*%
%TO.N,Net-(U1-ACDRV)*%
G36*
X140297516Y-99335733D02*
G01*
X140300902Y-99343025D01*
X140319716Y-99566627D01*
X140318440Y-99573002D01*
X140210383Y-99781012D01*
X140203528Y-99786773D01*
X140194606Y-99786001D01*
X140189617Y-99781012D01*
X140081559Y-99573002D01*
X140080283Y-99566629D01*
X140099098Y-99343024D01*
X140103207Y-99335068D01*
X140110757Y-99332306D01*
X140289243Y-99332306D01*
X140297516Y-99335733D01*
G37*
%TD.AperFunction*%
%TD*%
%TA.AperFunction,Conductor*%
%TO.N,Net-(U1-BATDRV)*%
G36*
X139705394Y-103213998D02*
G01*
X139710383Y-103218987D01*
X139818440Y-103426997D01*
X139819716Y-103433372D01*
X139800902Y-103656975D01*
X139796793Y-103664932D01*
X139789243Y-103667694D01*
X139610757Y-103667694D01*
X139602484Y-103664267D01*
X139599098Y-103656975D01*
X139580283Y-103433369D01*
X139581558Y-103427000D01*
X139689617Y-103218986D01*
X139696472Y-103213226D01*
X139705394Y-103213998D01*
G37*
%TD.AperFunction*%
%TD*%
%TA.AperFunction,Conductor*%
%TO.N,Net-(U1-BATDRV)*%
G36*
X139802209Y-103564969D02*
G01*
X139803495Y-103566495D01*
X139837156Y-103614196D01*
X140000186Y-103845227D01*
X140002156Y-103853963D01*
X139997372Y-103861533D01*
X139997162Y-103861677D01*
X139824065Y-103978261D01*
X139815289Y-103980041D01*
X139815197Y-103980022D01*
X139608708Y-103938014D01*
X139601284Y-103933007D01*
X139599340Y-103926528D01*
X139599458Y-103861677D01*
X139599979Y-103573221D01*
X139603421Y-103564954D01*
X139611679Y-103561542D01*
X139793936Y-103561542D01*
X139802209Y-103564969D01*
G37*
%TD.AperFunction*%
%TD*%
%TA.AperFunction,Conductor*%
%TO.N,Net-(U1-ILIM)*%
G36*
X137056170Y-102858010D02*
G01*
X137085712Y-102866883D01*
X137437344Y-102972497D01*
X137444280Y-102978157D01*
X137445677Y-102983701D01*
X137445677Y-103166298D01*
X137442250Y-103174571D01*
X137437343Y-103177503D01*
X137056170Y-103291989D01*
X137047260Y-103291087D01*
X137041599Y-103284150D01*
X137041341Y-103283127D01*
X136999474Y-103077329D01*
X136999474Y-103072668D01*
X137041340Y-102866881D01*
X137046346Y-102859459D01*
X137055136Y-102857750D01*
X137056170Y-102858010D01*
G37*
%TD.AperFunction*%
%TD*%
%TA.AperFunction,Conductor*%
%TO.N,Net-(U1-ILIM)*%
G36*
X138999016Y-102502745D02*
G01*
X139002345Y-102509173D01*
X139018905Y-102609608D01*
X139016870Y-102618328D01*
X139010463Y-102622792D01*
X138724886Y-102701321D01*
X138716001Y-102700211D01*
X138713370Y-102698170D01*
X138588214Y-102568645D01*
X138584930Y-102560314D01*
X138588498Y-102552101D01*
X138589379Y-102551331D01*
X138649158Y-102504227D01*
X138656312Y-102501718D01*
X138990719Y-102499376D01*
X138999016Y-102502745D01*
G37*
%TD.AperFunction*%
%TD*%
%TA.AperFunction,Conductor*%
%TO.N,Net-(C1-Pad2)*%
G36*
X137670791Y-92579569D02*
G01*
X137676603Y-92585671D01*
X137747118Y-92755917D01*
X137747285Y-92764446D01*
X137479021Y-93491189D01*
X137472941Y-93497763D01*
X137464074Y-93498143D01*
X137004062Y-93332180D01*
X136997443Y-93326149D01*
X136997141Y-93325447D01*
X136826803Y-92891220D01*
X136826972Y-92882266D01*
X136833422Y-92876055D01*
X136833697Y-92875951D01*
X137661847Y-92579134D01*
X137670791Y-92579569D01*
G37*
%TD.AperFunction*%
%TD*%
%TA.AperFunction,Conductor*%
%TO.N,Net-(C1-Pad2)*%
G36*
X136670095Y-96005088D02*
G01*
X136835772Y-96217832D01*
X136995401Y-96422811D01*
X136997781Y-96431444D01*
X136995401Y-96437189D01*
X136670097Y-96854910D01*
X136662310Y-96859332D01*
X136655109Y-96857906D01*
X136080943Y-96533359D01*
X136075427Y-96526305D01*
X136075000Y-96523174D01*
X136075000Y-96336825D01*
X136078427Y-96328552D01*
X136080939Y-96326642D01*
X136655110Y-96002092D01*
X136663997Y-96001005D01*
X136670095Y-96005088D01*
G37*
%TD.AperFunction*%
%TD*%
%TA.AperFunction,Conductor*%
%TO.N,Net-(C1-Pad2)*%
G36*
X140211249Y-92821370D02*
G01*
X140347344Y-92875687D01*
X140353757Y-92881937D01*
X140353897Y-92890831D01*
X140203213Y-93274549D01*
X140197000Y-93280997D01*
X140194798Y-93281707D01*
X139735004Y-93381221D01*
X139726193Y-93379622D01*
X139721524Y-93373759D01*
X139498509Y-92755877D01*
X139498704Y-92747430D01*
X139569091Y-92577510D01*
X139575423Y-92571180D01*
X139584234Y-92571122D01*
X140211249Y-92821370D01*
G37*
%TD.AperFunction*%
%TD*%
%TA.AperFunction,Conductor*%
%TO.N,Net-(C1-Pad2)*%
G36*
X136211769Y-92664121D02*
G01*
X137131543Y-92877140D01*
X137138829Y-92882345D01*
X137140301Y-92891178D01*
X137140054Y-92892079D01*
X137002579Y-93325047D01*
X136996810Y-93331895D01*
X136996238Y-93332171D01*
X136535367Y-93540032D01*
X136526417Y-93540310D01*
X136520032Y-93534477D01*
X136194200Y-92863377D01*
X136193028Y-92857985D01*
X136197433Y-92675235D01*
X136201059Y-92667050D01*
X136209412Y-92663823D01*
X136211769Y-92664121D01*
G37*
%TD.AperFunction*%
%TD*%
%TA.AperFunction,Conductor*%
%TO.N,Net-(C11-Pad1)*%
G36*
X139096562Y-109803679D02*
G01*
X139097699Y-109805480D01*
X139441733Y-110479002D01*
X139442445Y-110487928D01*
X139442142Y-110488757D01*
X139153115Y-111194668D01*
X139146808Y-111201026D01*
X139144065Y-111201799D01*
X138661122Y-111276063D01*
X138652424Y-111273933D01*
X138647859Y-111266726D01*
X138458006Y-110287080D01*
X138459796Y-110278308D01*
X138462364Y-110275578D01*
X139080158Y-109801519D01*
X139088807Y-109799202D01*
X139096562Y-109803679D01*
G37*
%TD.AperFunction*%
%TD*%
%TA.AperFunction,Conductor*%
%TO.N,/ADAPTER_IN*%
G36*
X139812693Y-107131529D02*
G01*
X139813637Y-107132092D01*
X139988731Y-107247989D01*
X139992029Y-107251287D01*
X140107923Y-107426385D01*
X140109632Y-107435176D01*
X140104625Y-107442599D01*
X140103703Y-107443150D01*
X139754034Y-107630972D01*
X139745125Y-107631868D01*
X139740098Y-107628808D01*
X139612986Y-107497677D01*
X139609689Y-107489353D01*
X139611067Y-107484025D01*
X139796861Y-107136332D01*
X139803781Y-107130652D01*
X139812693Y-107131529D01*
G37*
%TD.AperFunction*%
%TD*%
%TA.AperFunction,Conductor*%
%TO.N,/ADAPTER_IN*%
G36*
X134700707Y-98299293D02*
G01*
X134825003Y-98487081D01*
X134448070Y-98678351D01*
X134306649Y-98536930D01*
X134512919Y-98174997D01*
X134700707Y-98299293D01*
G37*
%TD.AperFunction*%
%TD*%
%TA.AperFunction,Conductor*%
%TO.N,/ADAPTER_IN*%
G36*
X133778351Y-99348070D02*
G01*
X133587081Y-99725003D01*
X133399293Y-99600707D01*
X133274997Y-99412919D01*
X133636930Y-99206649D01*
X133778351Y-99348070D01*
G37*
%TD.AperFunction*%
%TD*%
%TA.AperFunction,Conductor*%
%TO.N,/ADAPTER_IN*%
G36*
X136670095Y-97555088D02*
G01*
X136835772Y-97767832D01*
X136995401Y-97972811D01*
X136997781Y-97981444D01*
X136995401Y-97987189D01*
X136670097Y-98404910D01*
X136662310Y-98409332D01*
X136655109Y-98407906D01*
X136080943Y-98083359D01*
X136075427Y-98076305D01*
X136075000Y-98073174D01*
X136075000Y-97886825D01*
X136078427Y-97878552D01*
X136080939Y-97876642D01*
X136655110Y-97552092D01*
X136663997Y-97551005D01*
X136670095Y-97555088D01*
G37*
%TD.AperFunction*%
%TD*%
%TA.AperFunction,Conductor*%
%TO.N,/ADAPTER_IN*%
G36*
X138270095Y-97555088D02*
G01*
X138435772Y-97767832D01*
X138595401Y-97972811D01*
X138597781Y-97981444D01*
X138595401Y-97987189D01*
X138270097Y-98404910D01*
X138262310Y-98409332D01*
X138255109Y-98407906D01*
X137680943Y-98083359D01*
X137675427Y-98076305D01*
X137675000Y-98073174D01*
X137675000Y-97886825D01*
X137678427Y-97878552D01*
X137680939Y-97876642D01*
X138255110Y-97552092D01*
X138263997Y-97551005D01*
X138270095Y-97555088D01*
G37*
%TD.AperFunction*%
%TD*%
%TA.AperFunction,Conductor*%
%TO.N,/ADAPTER_IN*%
G36*
X137344889Y-97552092D02*
G01*
X137919058Y-97876641D01*
X137924573Y-97883694D01*
X137925000Y-97886825D01*
X137925000Y-98073174D01*
X137921573Y-98081447D01*
X137919057Y-98083359D01*
X137344890Y-98407906D01*
X137336002Y-98408994D01*
X137329903Y-98404911D01*
X137004597Y-97987188D01*
X137002218Y-97978556D01*
X137004597Y-97972812D01*
X137329904Y-97555087D01*
X137337689Y-97550667D01*
X137344889Y-97552092D01*
G37*
%TD.AperFunction*%
%TD*%
%TA.AperFunction,Conductor*%
%TO.N,/ADAPTER_IN*%
G36*
X139553448Y-107549258D02*
G01*
X139554826Y-107550473D01*
X139682864Y-107682560D01*
X139686162Y-107690885D01*
X139683761Y-107697805D01*
X139303609Y-108195526D01*
X139295864Y-108200020D01*
X139294050Y-108200121D01*
X138208796Y-108175908D01*
X138200601Y-108172298D01*
X138197553Y-108166338D01*
X138122854Y-107761985D01*
X138124721Y-107753229D01*
X138132234Y-107748357D01*
X138132659Y-107748287D01*
X139544774Y-107547033D01*
X139553448Y-107549258D01*
G37*
%TD.AperFunction*%
%TD*%
%TA.AperFunction,Conductor*%
%TO.N,/ADAPTER_IN*%
G36*
X135064844Y-98114454D02*
G01*
X134887081Y-98425003D01*
X134699035Y-98300258D01*
X134574997Y-98112919D01*
X135013083Y-97921270D01*
X135064844Y-98114454D01*
G37*
%TD.AperFunction*%
%TD*%
M02*
