%TF.GenerationSoftware,KiCad,Pcbnew,8.0.8*%
%TF.CreationDate,2025-03-17T13:27:47+01:00*%
%TF.ProjectId,BatteryCharger,42617474-6572-4794-9368-61726765722e,rev?*%
%TF.SameCoordinates,Original*%
%TF.FileFunction,Legend,Bot*%
%TF.FilePolarity,Positive*%
%FSLAX46Y46*%
G04 Gerber Fmt 4.6, Leading zero omitted, Abs format (unit mm)*
G04 Created by KiCad (PCBNEW 8.0.8) date 2025-03-17 13:27:47*
%MOMM*%
%LPD*%
G01*
G04 APERTURE LIST*
G04 Aperture macros list*
%AMRoundRect*
0 Rectangle with rounded corners*
0 $1 Rounding radius*
0 $2 $3 $4 $5 $6 $7 $8 $9 X,Y pos of 4 corners*
0 Add a 4 corners polygon primitive as box body*
4,1,4,$2,$3,$4,$5,$6,$7,$8,$9,$2,$3,0*
0 Add four circle primitives for the rounded corners*
1,1,$1+$1,$2,$3*
1,1,$1+$1,$4,$5*
1,1,$1+$1,$6,$7*
1,1,$1+$1,$8,$9*
0 Add four rect primitives between the rounded corners*
20,1,$1+$1,$2,$3,$4,$5,0*
20,1,$1+$1,$4,$5,$6,$7,0*
20,1,$1+$1,$6,$7,$8,$9,0*
20,1,$1+$1,$8,$9,$2,$3,0*%
G04 Aperture macros list end*
%ADD10C,0.150000*%
%ADD11C,0.250000*%
%ADD12C,0.120000*%
%ADD13C,0.500000*%
%ADD14C,0.000000*%
%ADD15C,3.500000*%
%ADD16C,1.540000*%
%ADD17C,2.800000*%
%ADD18RoundRect,0.225000X-0.250000X0.225000X-0.250000X-0.225000X0.250000X-0.225000X0.250000X0.225000X0*%
%ADD19RoundRect,0.250000X0.250000X0.475000X-0.250000X0.475000X-0.250000X-0.475000X0.250000X-0.475000X0*%
%ADD20RoundRect,0.200000X0.275000X-0.200000X0.275000X0.200000X-0.275000X0.200000X-0.275000X-0.200000X0*%
%ADD21RoundRect,0.200000X-0.275000X0.200000X-0.275000X-0.200000X0.275000X-0.200000X0.275000X0.200000X0*%
%ADD22RoundRect,0.200000X-0.200000X-0.275000X0.200000X-0.275000X0.200000X0.275000X-0.200000X0.275000X0*%
%ADD23C,3.000000*%
%ADD24C,1.600000*%
%ADD25C,1.800000*%
%ADD26RoundRect,0.225000X0.225000X0.250000X-0.225000X0.250000X-0.225000X-0.250000X0.225000X-0.250000X0*%
%ADD27RoundRect,0.200000X0.200000X0.600000X-0.200000X0.600000X-0.200000X-0.600000X0.200000X-0.600000X0*%
%ADD28RoundRect,0.525000X0.525000X0.975000X-0.525000X0.975000X-0.525000X-0.975000X0.525000X-0.975000X0*%
%ADD29RoundRect,0.150000X0.587500X0.150000X-0.587500X0.150000X-0.587500X-0.150000X0.587500X-0.150000X0*%
%ADD30RoundRect,0.150000X-0.150000X0.587500X-0.150000X-0.587500X0.150000X-0.587500X0.150000X0.587500X0*%
G04 APERTURE END LIST*
D10*
X154900000Y-116000000D02*
X154882000Y-115976000D01*
X154522000Y-115496000D02*
X154504000Y-115472000D01*
X154144000Y-114992000D02*
X154126000Y-114968000D01*
X147200000Y-112900000D02*
X147170000Y-112900030D01*
X146589840Y-112766504D02*
X146562872Y-112753363D01*
X146100209Y-112378718D02*
X146081747Y-112355072D01*
X145830499Y-111815360D02*
X145824291Y-111786010D01*
X157200000Y-91600000D02*
X157200000Y-93250000D01*
X157200000Y-93850000D02*
X157200000Y-95500000D01*
X157200000Y-96100000D02*
X157200000Y-97750000D01*
X145775974Y-111175325D02*
X145774538Y-111145359D01*
X145745817Y-110546047D02*
X145744381Y-110516082D01*
X145715660Y-109916769D02*
X145714224Y-109886804D01*
X145685503Y-109287492D02*
X145684067Y-109257526D01*
X145655346Y-108658214D02*
X145653910Y-108628248D01*
X145625189Y-108028936D02*
X145623753Y-107998970D01*
X145595032Y-107399658D02*
X145593595Y-107369693D01*
X145564874Y-106770380D02*
X145563438Y-106740415D01*
X145534717Y-106141103D02*
X145533281Y-106111137D01*
X145504560Y-105511825D02*
X145503124Y-105481859D01*
X145474403Y-104882547D02*
X145472967Y-104852581D01*
X145444246Y-104253269D02*
X145442810Y-104223304D01*
X145414089Y-103623991D02*
X145412653Y-103594026D01*
X145383932Y-102994714D02*
X145382496Y-102964748D01*
X145353775Y-102365436D02*
X145352339Y-102335470D01*
X145323618Y-101736158D02*
X145322182Y-101706192D01*
X145293461Y-101106880D02*
X145292025Y-101076915D01*
X145263304Y-100477602D02*
X145261868Y-100447637D01*
X147000000Y-111800000D02*
X148650000Y-111800000D01*
X149250000Y-111800000D02*
X150900000Y-111800000D01*
X151500000Y-111800000D02*
X153150000Y-111800000D01*
X153750000Y-111800000D02*
X155400000Y-111800000D01*
X156000000Y-111800000D02*
X157200000Y-111800000D01*
X147000000Y-91600000D02*
X147000000Y-92600000D01*
X145059091Y-96066237D02*
X145057638Y-96036272D01*
X145028573Y-95436977D02*
X145027120Y-95407012D01*
X144998056Y-94807716D02*
X144996602Y-94777751D01*
X144967538Y-94178456D02*
X144966085Y-94148491D01*
X144937020Y-93549195D02*
X144935567Y-93519231D01*
X144906502Y-92919935D02*
X144905049Y-92889970D01*
X144875985Y-92290675D02*
X144874532Y-92260710D01*
X144845467Y-91661414D02*
X144844014Y-91631449D01*
X144814949Y-91032154D02*
X144813496Y-91002189D01*
X144784432Y-90402893D02*
X144782978Y-90372928D01*
X144753914Y-89773633D02*
X144752461Y-89743668D01*
X144723396Y-89144372D02*
X144721943Y-89114408D01*
X144692879Y-88515112D02*
X144691425Y-88485147D01*
X144662361Y-87885852D02*
X144660908Y-87855887D01*
X144631843Y-87256591D02*
X144630390Y-87226626D01*
X144601325Y-86627331D02*
X144600000Y-86600000D01*
X157200000Y-111800000D02*
X157200000Y-110150000D01*
X157200000Y-109550000D02*
X157200000Y-107900000D01*
X157200000Y-107300000D02*
X157200000Y-105650000D01*
X157200000Y-105050000D02*
X157200000Y-103400000D01*
X149700000Y-112900000D02*
X149729999Y-112900022D01*
X150328799Y-112933363D02*
X150358616Y-112936671D01*
X150950165Y-113035375D02*
X150979441Y-113041928D01*
X151556626Y-113204808D02*
X151585008Y-113214527D01*
X152140888Y-113439625D02*
X152168036Y-113452393D01*
X152695928Y-113737003D02*
X152721514Y-113752666D01*
X153215070Y-114093364D02*
X153238787Y-114111735D01*
X153692072Y-114504426D02*
X153713635Y-114525283D01*
X154121198Y-114965243D02*
X154140348Y-114988336D01*
X147000000Y-94800000D02*
X147000000Y-96450000D01*
X147000000Y-97050000D02*
X147000000Y-98700000D01*
X147000000Y-99300000D02*
X147000000Y-100950000D01*
X147000000Y-101550000D02*
X147000000Y-103200000D01*
X147000000Y-103800000D02*
X147000000Y-105450000D01*
X147000000Y-106050000D02*
X147000000Y-107700000D01*
X147000000Y-108300000D02*
X147000000Y-109950000D01*
X147000000Y-110550000D02*
X147000000Y-111800000D01*
X149700000Y-112900000D02*
X149670000Y-112900000D01*
X149070000Y-112900000D02*
X149040000Y-112900000D01*
X148440000Y-112900000D02*
X148410000Y-112900000D01*
X147810000Y-112900000D02*
X147780000Y-112900000D01*
X157200000Y-91600000D02*
X155550000Y-91600000D01*
X154950000Y-91600000D02*
X153300000Y-91600000D01*
X152700000Y-91600000D02*
X151050000Y-91600000D01*
X150450000Y-91600000D02*
X148800000Y-91600000D01*
X148200000Y-91600000D02*
X147000000Y-91600000D01*
G36*
X140112715Y-80964077D02*
G01*
X140143122Y-80994484D01*
X140181615Y-81071471D01*
X140224999Y-81245005D01*
X140224999Y-81464632D01*
X140181615Y-81638166D01*
X140143121Y-81715153D01*
X140112714Y-81745561D01*
X140044199Y-81779819D01*
X139984371Y-81779819D01*
X139915855Y-81745561D01*
X139885448Y-81715153D01*
X139846954Y-81638166D01*
X139803571Y-81464632D01*
X139803571Y-81245005D01*
X139846954Y-81071471D01*
X139885448Y-80994484D01*
X139915855Y-80964077D01*
X139984371Y-80929819D01*
X140044199Y-80929819D01*
X140112715Y-80964077D01*
G37*
G36*
X141065096Y-80964077D02*
G01*
X141095503Y-80994484D01*
X141133996Y-81071471D01*
X141177380Y-81245005D01*
X141177380Y-81464632D01*
X141133996Y-81638166D01*
X141095502Y-81715153D01*
X141065095Y-81745561D01*
X140996580Y-81779819D01*
X140936752Y-81779819D01*
X140868236Y-81745561D01*
X140837829Y-81715153D01*
X140799335Y-81638166D01*
X140755952Y-81464632D01*
X140755952Y-81245005D01*
X140799335Y-81071471D01*
X140837829Y-80994484D01*
X140868236Y-80964077D01*
X140936752Y-80929819D01*
X140996580Y-80929819D01*
X141065096Y-80964077D01*
G37*
G36*
X144280190Y-81546203D02*
G01*
X144282879Y-81546394D01*
X144285368Y-81547425D01*
X144300000Y-81548866D01*
X144520390Y-81548866D01*
X144577431Y-81577386D01*
X144605952Y-81634428D01*
X144605952Y-81694256D01*
X144577431Y-81751298D01*
X144520390Y-81779819D01*
X144317705Y-81779819D01*
X144279762Y-81760847D01*
X144279762Y-81546039D01*
X144280190Y-81546203D01*
G37*
G36*
X146152777Y-82040930D02*
G01*
X138352036Y-82040930D01*
X138352036Y-80857623D01*
X138463147Y-80857623D01*
X138465135Y-80872191D01*
X138703230Y-81872191D01*
X138704959Y-81877210D01*
X138705199Y-81879012D01*
X138706141Y-81880640D01*
X138708020Y-81886091D01*
X138714406Y-81894915D01*
X138719861Y-81904337D01*
X138722918Y-81906677D01*
X138725177Y-81909798D01*
X138734452Y-81915505D01*
X138743099Y-81922124D01*
X138746819Y-81923116D01*
X138750099Y-81925134D01*
X138760853Y-81926858D01*
X138771375Y-81929664D01*
X138775190Y-81929157D01*
X138778994Y-81929767D01*
X138789592Y-81927243D01*
X138800383Y-81925810D01*
X138803714Y-81923881D01*
X138807462Y-81922989D01*
X138816286Y-81916602D01*
X138825708Y-81911148D01*
X138828048Y-81908090D01*
X138831169Y-81905832D01*
X138836876Y-81896556D01*
X138843495Y-81887910D01*
X138845520Y-81882510D01*
X138846505Y-81880910D01*
X138846792Y-81879118D01*
X138848658Y-81874144D01*
X138966665Y-81431613D01*
X139084674Y-81874144D01*
X139086539Y-81879119D01*
X139086827Y-81880910D01*
X139087811Y-81882509D01*
X139089837Y-81887911D01*
X139096457Y-81896559D01*
X139102163Y-81905832D01*
X139105283Y-81908090D01*
X139107624Y-81911148D01*
X139117045Y-81916602D01*
X139125870Y-81922989D01*
X139129617Y-81923881D01*
X139132949Y-81925810D01*
X139143742Y-81927244D01*
X139154338Y-81929767D01*
X139158139Y-81929157D01*
X139161958Y-81929665D01*
X139172489Y-81926856D01*
X139183233Y-81925134D01*
X139186509Y-81923118D01*
X139190233Y-81922125D01*
X139198883Y-81915503D01*
X139208155Y-81909798D01*
X139210413Y-81906677D01*
X139213471Y-81904337D01*
X139218926Y-81894914D01*
X139225312Y-81886091D01*
X139227189Y-81880642D01*
X139228133Y-81879013D01*
X139228372Y-81877209D01*
X139230102Y-81872191D01*
X139381630Y-81235771D01*
X139653571Y-81235771D01*
X139653571Y-81473866D01*
X139653822Y-81476419D01*
X139653660Y-81477512D01*
X139654469Y-81482985D01*
X139655012Y-81488498D01*
X139655434Y-81489519D01*
X139655810Y-81492056D01*
X139703429Y-81682532D01*
X139703814Y-81683611D01*
X139703853Y-81684151D01*
X139706180Y-81690232D01*
X139708376Y-81696378D01*
X139708698Y-81696813D01*
X139709108Y-81697883D01*
X139756727Y-81793121D01*
X139760690Y-81799417D01*
X139761448Y-81801247D01*
X139763137Y-81803305D01*
X139764559Y-81805564D01*
X139766057Y-81806863D01*
X139770775Y-81812612D01*
X139818394Y-81860232D01*
X139824143Y-81864950D01*
X139825444Y-81866450D01*
X139827703Y-81867872D01*
X139829760Y-81869560D01*
X139831587Y-81870317D01*
X139837887Y-81874282D01*
X139933125Y-81921901D01*
X139946856Y-81927156D01*
X139949545Y-81927347D01*
X139952034Y-81928378D01*
X139966666Y-81929819D01*
X140061904Y-81929819D01*
X140076536Y-81928378D01*
X140079025Y-81927346D01*
X140081713Y-81927156D01*
X140095445Y-81921901D01*
X140190683Y-81874282D01*
X140196982Y-81870317D01*
X140198810Y-81869560D01*
X140200866Y-81867872D01*
X140203126Y-81866450D01*
X140204426Y-81864950D01*
X140210176Y-81860232D01*
X140257794Y-81812613D01*
X140262512Y-81806863D01*
X140264011Y-81805564D01*
X140265432Y-81803305D01*
X140267122Y-81801247D01*
X140267879Y-81799417D01*
X140271843Y-81793121D01*
X140319462Y-81697883D01*
X140319871Y-81696813D01*
X140320194Y-81696378D01*
X140322386Y-81690241D01*
X140324717Y-81684152D01*
X140324755Y-81683611D01*
X140325141Y-81682532D01*
X140372760Y-81492056D01*
X140373135Y-81489519D01*
X140373558Y-81488498D01*
X140374100Y-81482985D01*
X140374910Y-81477512D01*
X140374747Y-81476419D01*
X140374999Y-81473866D01*
X140374999Y-81235771D01*
X140605952Y-81235771D01*
X140605952Y-81473866D01*
X140606203Y-81476419D01*
X140606041Y-81477512D01*
X140606850Y-81482985D01*
X140607393Y-81488498D01*
X140607815Y-81489519D01*
X140608191Y-81492056D01*
X140655810Y-81682532D01*
X140656195Y-81683611D01*
X140656234Y-81684151D01*
X140658561Y-81690232D01*
X140660757Y-81696378D01*
X140661079Y-81696813D01*
X140661489Y-81697883D01*
X140709108Y-81793121D01*
X140713071Y-81799417D01*
X140713829Y-81801247D01*
X140715518Y-81803305D01*
X140716940Y-81805564D01*
X140718438Y-81806863D01*
X140723156Y-81812612D01*
X140770775Y-81860232D01*
X140776524Y-81864950D01*
X140777825Y-81866450D01*
X140780084Y-81867872D01*
X140782141Y-81869560D01*
X140783968Y-81870317D01*
X140790268Y-81874282D01*
X140885506Y-81921901D01*
X140899237Y-81927156D01*
X140901926Y-81927347D01*
X140904415Y-81928378D01*
X140919047Y-81929819D01*
X141014285Y-81929819D01*
X141028917Y-81928378D01*
X141031406Y-81927346D01*
X141034094Y-81927156D01*
X141047826Y-81921901D01*
X141143064Y-81874282D01*
X141149363Y-81870317D01*
X141151191Y-81869560D01*
X141153247Y-81867872D01*
X141155507Y-81866450D01*
X141156807Y-81864950D01*
X141162557Y-81860232D01*
X141210175Y-81812613D01*
X141214893Y-81806863D01*
X141216392Y-81805564D01*
X141217813Y-81803305D01*
X141219503Y-81801247D01*
X141220260Y-81799417D01*
X141224224Y-81793121D01*
X141271843Y-81697883D01*
X141272252Y-81696813D01*
X141272575Y-81696378D01*
X141274767Y-81690241D01*
X141277098Y-81684152D01*
X141277136Y-81683611D01*
X141277522Y-81682532D01*
X141321442Y-81506853D01*
X141512155Y-81506853D01*
X141512155Y-81536117D01*
X141523354Y-81563153D01*
X141544046Y-81583845D01*
X141571082Y-81595044D01*
X141585714Y-81596485D01*
X141653571Y-81596485D01*
X141653571Y-81854819D01*
X141655012Y-81869451D01*
X141666211Y-81896487D01*
X141686903Y-81917179D01*
X141713939Y-81928378D01*
X141743203Y-81928378D01*
X141770239Y-81917179D01*
X141790931Y-81896487D01*
X141802130Y-81869451D01*
X141803571Y-81854819D01*
X141803571Y-81596485D01*
X142204761Y-81596485D01*
X142212166Y-81595755D01*
X142214141Y-81595896D01*
X142215566Y-81595420D01*
X142219393Y-81595044D01*
X142230502Y-81590442D01*
X142241903Y-81586642D01*
X142243938Y-81584876D01*
X142246429Y-81583845D01*
X142254931Y-81575342D01*
X142264011Y-81567468D01*
X142265215Y-81565058D01*
X142267121Y-81563153D01*
X142271723Y-81552041D01*
X142277097Y-81541294D01*
X142277287Y-81538608D01*
X142278320Y-81536117D01*
X142278320Y-81524089D01*
X142279172Y-81512104D01*
X142278320Y-81508357D01*
X142278320Y-81506853D01*
X142277561Y-81505022D01*
X142275912Y-81497767D01*
X142174628Y-81193915D01*
X143225222Y-81193915D01*
X143233119Y-81222093D01*
X143241026Y-81234489D01*
X143466522Y-81521485D01*
X143241026Y-81808482D01*
X143233119Y-81820878D01*
X143225222Y-81849056D01*
X143228708Y-81878110D01*
X143243048Y-81903620D01*
X143266059Y-81921700D01*
X143294237Y-81929597D01*
X143323291Y-81926111D01*
X143348801Y-81911771D01*
X143358974Y-81901156D01*
X143561904Y-81642880D01*
X143764835Y-81901156D01*
X143775008Y-81911771D01*
X143800518Y-81926111D01*
X143829572Y-81929597D01*
X143857750Y-81921700D01*
X143880761Y-81903620D01*
X143895101Y-81878110D01*
X143898587Y-81849056D01*
X143890690Y-81820878D01*
X143882783Y-81808482D01*
X143657286Y-81521485D01*
X143806946Y-81331009D01*
X144129762Y-81331009D01*
X144129762Y-81854819D01*
X144131203Y-81869451D01*
X144142402Y-81896487D01*
X144163094Y-81917179D01*
X144190130Y-81928378D01*
X144219394Y-81928378D01*
X144246430Y-81917179D01*
X144249958Y-81913650D01*
X144266459Y-81921901D01*
X144280190Y-81927156D01*
X144282879Y-81927347D01*
X144285368Y-81928378D01*
X144300000Y-81929819D01*
X144538095Y-81929819D01*
X144552727Y-81928378D01*
X144555216Y-81927346D01*
X144557904Y-81927156D01*
X144571636Y-81921901D01*
X144666874Y-81874282D01*
X144669321Y-81872741D01*
X144670475Y-81872357D01*
X144671911Y-81871111D01*
X144679317Y-81866450D01*
X144685478Y-81859345D01*
X144692583Y-81853184D01*
X144697244Y-81845778D01*
X144698490Y-81844342D01*
X144698874Y-81843188D01*
X144700415Y-81840741D01*
X144748034Y-81745502D01*
X144753289Y-81731770D01*
X144753479Y-81729082D01*
X144754511Y-81726593D01*
X144755952Y-81711961D01*
X144755952Y-81616723D01*
X144754511Y-81602091D01*
X144753480Y-81599602D01*
X144753289Y-81596913D01*
X144748034Y-81583182D01*
X144700415Y-81487944D01*
X144698874Y-81485496D01*
X144698490Y-81484343D01*
X144697244Y-81482906D01*
X144692583Y-81475501D01*
X144685478Y-81469339D01*
X144679317Y-81462235D01*
X144671911Y-81457573D01*
X144670475Y-81456328D01*
X144669321Y-81455943D01*
X144666874Y-81454403D01*
X144571636Y-81406784D01*
X144557904Y-81401529D01*
X144555216Y-81401338D01*
X144552727Y-81400307D01*
X144538095Y-81398866D01*
X144317705Y-81398866D01*
X144279762Y-81379894D01*
X144279762Y-81348714D01*
X144288614Y-81331009D01*
X145034523Y-81331009D01*
X145034523Y-81854819D01*
X145035964Y-81869451D01*
X145047163Y-81896487D01*
X145067855Y-81917179D01*
X145094891Y-81928378D01*
X145124155Y-81928378D01*
X145151191Y-81917179D01*
X145171883Y-81896487D01*
X145183082Y-81869451D01*
X145184523Y-81854819D01*
X145184523Y-81348714D01*
X145213043Y-81291672D01*
X145270086Y-81263152D01*
X145377533Y-81263152D01*
X145434574Y-81291672D01*
X145463095Y-81348714D01*
X145463095Y-81854819D01*
X145464536Y-81869451D01*
X145475735Y-81896487D01*
X145496427Y-81917179D01*
X145523463Y-81928378D01*
X145552727Y-81928378D01*
X145579763Y-81917179D01*
X145600455Y-81896487D01*
X145611654Y-81869451D01*
X145613095Y-81854819D01*
X145613095Y-81348714D01*
X145641615Y-81291672D01*
X145698657Y-81263152D01*
X145806104Y-81263152D01*
X145874620Y-81297410D01*
X145891666Y-81314456D01*
X145891666Y-81854819D01*
X145893107Y-81869451D01*
X145904306Y-81896487D01*
X145924998Y-81917179D01*
X145952034Y-81928378D01*
X145981298Y-81928378D01*
X146008334Y-81917179D01*
X146029026Y-81896487D01*
X146040225Y-81869451D01*
X146041666Y-81854819D01*
X146041666Y-81188152D01*
X146040225Y-81173520D01*
X146029026Y-81146484D01*
X146008334Y-81125792D01*
X145981298Y-81114593D01*
X145952034Y-81114593D01*
X145924998Y-81125792D01*
X145905596Y-81145193D01*
X145857350Y-81121070D01*
X145843618Y-81115815D01*
X145840930Y-81115624D01*
X145838441Y-81114593D01*
X145823809Y-81113152D01*
X145680952Y-81113152D01*
X145666320Y-81114593D01*
X145663831Y-81115623D01*
X145661142Y-81115815D01*
X145647411Y-81121070D01*
X145552173Y-81168689D01*
X145549725Y-81170229D01*
X145548572Y-81170614D01*
X145547135Y-81171859D01*
X145539730Y-81176521D01*
X145538095Y-81178406D01*
X145536460Y-81176521D01*
X145529054Y-81171859D01*
X145527618Y-81170614D01*
X145526464Y-81170229D01*
X145524017Y-81168689D01*
X145428779Y-81121070D01*
X145415047Y-81115815D01*
X145412359Y-81115624D01*
X145409870Y-81114593D01*
X145395238Y-81113152D01*
X145252381Y-81113152D01*
X145237749Y-81114593D01*
X145235259Y-81115624D01*
X145232572Y-81115815D01*
X145218840Y-81121070D01*
X145123601Y-81168689D01*
X145121153Y-81170229D01*
X145120000Y-81170614D01*
X145118563Y-81171859D01*
X145111158Y-81176521D01*
X145104996Y-81183625D01*
X145097892Y-81189787D01*
X145093230Y-81197192D01*
X145091985Y-81198629D01*
X145091600Y-81199782D01*
X145090060Y-81202230D01*
X145042441Y-81297468D01*
X145037186Y-81311200D01*
X145036995Y-81313887D01*
X145035964Y-81316377D01*
X145034523Y-81331009D01*
X144288614Y-81331009D01*
X144308282Y-81291672D01*
X144365324Y-81263152D01*
X144520390Y-81263152D01*
X144599792Y-81302853D01*
X144613523Y-81308108D01*
X144642713Y-81310182D01*
X144670475Y-81300928D01*
X144692582Y-81281755D01*
X144705670Y-81255580D01*
X144707744Y-81226390D01*
X144698490Y-81198629D01*
X144679317Y-81176521D01*
X144666874Y-81168689D01*
X144571636Y-81121070D01*
X144557904Y-81115815D01*
X144555216Y-81115624D01*
X144552727Y-81114593D01*
X144538095Y-81113152D01*
X144347619Y-81113152D01*
X144332987Y-81114593D01*
X144330498Y-81115623D01*
X144327809Y-81115815D01*
X144314078Y-81121070D01*
X144218840Y-81168689D01*
X144216392Y-81170229D01*
X144215239Y-81170614D01*
X144213802Y-81171859D01*
X144206397Y-81176521D01*
X144200235Y-81183625D01*
X144193131Y-81189787D01*
X144188469Y-81197192D01*
X144187224Y-81198629D01*
X144186839Y-81199782D01*
X144185299Y-81202230D01*
X144137680Y-81297468D01*
X144132425Y-81311200D01*
X144132234Y-81313887D01*
X144131203Y-81316377D01*
X144129762Y-81331009D01*
X143806946Y-81331009D01*
X143882783Y-81234489D01*
X143890690Y-81222093D01*
X143898587Y-81193915D01*
X143895101Y-81164861D01*
X143880761Y-81139351D01*
X143857750Y-81121271D01*
X143829572Y-81113374D01*
X143800518Y-81116860D01*
X143775008Y-81131200D01*
X143764835Y-81141815D01*
X143561904Y-81400090D01*
X143358974Y-81141815D01*
X143348801Y-81131200D01*
X143323291Y-81116860D01*
X143294237Y-81113374D01*
X143266059Y-81121271D01*
X143243048Y-81139351D01*
X143228708Y-81164861D01*
X143225222Y-81193915D01*
X142174628Y-81193915D01*
X142037817Y-80783483D01*
X142031823Y-80770057D01*
X142012649Y-80747950D01*
X141986476Y-80734864D01*
X141957286Y-80732789D01*
X141929523Y-80742043D01*
X141907416Y-80761217D01*
X141894330Y-80787390D01*
X141892255Y-80816580D01*
X141895515Y-80830917D01*
X142100704Y-81446485D01*
X141803571Y-81446485D01*
X141803571Y-81188152D01*
X141802130Y-81173520D01*
X141790931Y-81146484D01*
X141770239Y-81125792D01*
X141743203Y-81114593D01*
X141713939Y-81114593D01*
X141686903Y-81125792D01*
X141666211Y-81146484D01*
X141655012Y-81173520D01*
X141653571Y-81188152D01*
X141653571Y-81446485D01*
X141585714Y-81446485D01*
X141571082Y-81447926D01*
X141544046Y-81459125D01*
X141523354Y-81479817D01*
X141512155Y-81506853D01*
X141321442Y-81506853D01*
X141325141Y-81492056D01*
X141325516Y-81489519D01*
X141325939Y-81488498D01*
X141326481Y-81482985D01*
X141327291Y-81477512D01*
X141327128Y-81476419D01*
X141327380Y-81473866D01*
X141327380Y-81235771D01*
X141327128Y-81233217D01*
X141327291Y-81232125D01*
X141326481Y-81226651D01*
X141325939Y-81221139D01*
X141325516Y-81220117D01*
X141325141Y-81217581D01*
X141277522Y-81027105D01*
X141277136Y-81026025D01*
X141277098Y-81025485D01*
X141274767Y-81019395D01*
X141272575Y-81013259D01*
X141272252Y-81012823D01*
X141271843Y-81011754D01*
X141224224Y-80916516D01*
X141220259Y-80910216D01*
X141219502Y-80908389D01*
X141217813Y-80906332D01*
X141216392Y-80904073D01*
X141214893Y-80902773D01*
X141210175Y-80897024D01*
X141162556Y-80849405D01*
X141156806Y-80844686D01*
X141155507Y-80843188D01*
X141153247Y-80841766D01*
X141151191Y-80840078D01*
X141149363Y-80839320D01*
X141143064Y-80835356D01*
X141047826Y-80787737D01*
X141034094Y-80782482D01*
X141031406Y-80782291D01*
X141028917Y-80781260D01*
X141014285Y-80779819D01*
X140919047Y-80779819D01*
X140904415Y-80781260D01*
X140901926Y-80782290D01*
X140899237Y-80782482D01*
X140885506Y-80787737D01*
X140790268Y-80835356D01*
X140783968Y-80839320D01*
X140782141Y-80840078D01*
X140780084Y-80841766D01*
X140777825Y-80843188D01*
X140776525Y-80844686D01*
X140770776Y-80849405D01*
X140723157Y-80897024D01*
X140718438Y-80902773D01*
X140716940Y-80904073D01*
X140715518Y-80906332D01*
X140713830Y-80908389D01*
X140713072Y-80910216D01*
X140709108Y-80916516D01*
X140661489Y-81011754D01*
X140661079Y-81012823D01*
X140660757Y-81013259D01*
X140658561Y-81019404D01*
X140656234Y-81025486D01*
X140656195Y-81026025D01*
X140655810Y-81027105D01*
X140608191Y-81217581D01*
X140607815Y-81220117D01*
X140607393Y-81221139D01*
X140606850Y-81226651D01*
X140606041Y-81232125D01*
X140606203Y-81233217D01*
X140605952Y-81235771D01*
X140374999Y-81235771D01*
X140374747Y-81233217D01*
X140374910Y-81232125D01*
X140374100Y-81226651D01*
X140373558Y-81221139D01*
X140373135Y-81220117D01*
X140372760Y-81217581D01*
X140325141Y-81027105D01*
X140324755Y-81026025D01*
X140324717Y-81025485D01*
X140322386Y-81019395D01*
X140320194Y-81013259D01*
X140319871Y-81012823D01*
X140319462Y-81011754D01*
X140271843Y-80916516D01*
X140267878Y-80910216D01*
X140267121Y-80908389D01*
X140265432Y-80906332D01*
X140264011Y-80904073D01*
X140262512Y-80902773D01*
X140257794Y-80897024D01*
X140210175Y-80849405D01*
X140204425Y-80844686D01*
X140203126Y-80843188D01*
X140200866Y-80841766D01*
X140198810Y-80840078D01*
X140196982Y-80839320D01*
X140190683Y-80835356D01*
X140095445Y-80787737D01*
X140081713Y-80782482D01*
X140079025Y-80782291D01*
X140076536Y-80781260D01*
X140061904Y-80779819D01*
X139966666Y-80779819D01*
X139952034Y-80781260D01*
X139949545Y-80782290D01*
X139946856Y-80782482D01*
X139933125Y-80787737D01*
X139837887Y-80835356D01*
X139831587Y-80839320D01*
X139829760Y-80840078D01*
X139827703Y-80841766D01*
X139825444Y-80843188D01*
X139824144Y-80844686D01*
X139818395Y-80849405D01*
X139770776Y-80897024D01*
X139766057Y-80902773D01*
X139764559Y-80904073D01*
X139763137Y-80906332D01*
X139761449Y-80908389D01*
X139760691Y-80910216D01*
X139756727Y-80916516D01*
X139709108Y-81011754D01*
X139708698Y-81012823D01*
X139708376Y-81013259D01*
X139706180Y-81019404D01*
X139703853Y-81025486D01*
X139703814Y-81026025D01*
X139703429Y-81027105D01*
X139655810Y-81217581D01*
X139655434Y-81220117D01*
X139655012Y-81221139D01*
X139654469Y-81226651D01*
X139653660Y-81232125D01*
X139653822Y-81233217D01*
X139653571Y-81235771D01*
X139381630Y-81235771D01*
X139468197Y-80872190D01*
X139470185Y-80857623D01*
X139465552Y-80828728D01*
X139450216Y-80803806D01*
X139426509Y-80786649D01*
X139398041Y-80779871D01*
X139369146Y-80784504D01*
X139344224Y-80799840D01*
X139327067Y-80823547D01*
X139322277Y-80837447D01*
X139153025Y-81548303D01*
X139039134Y-81121208D01*
X139037848Y-81117780D01*
X139037657Y-81116339D01*
X139036665Y-81114626D01*
X139033971Y-81107442D01*
X139027956Y-81099583D01*
X139022995Y-81091015D01*
X139019136Y-81088061D01*
X139016184Y-81084204D01*
X139007619Y-81079245D01*
X138999757Y-81073227D01*
X138995060Y-81071974D01*
X138990859Y-81069542D01*
X138981052Y-81068239D01*
X138971482Y-81065687D01*
X138966663Y-81066327D01*
X138961851Y-81065688D01*
X138952290Y-81068237D01*
X138942473Y-81069542D01*
X138938267Y-81071976D01*
X138933575Y-81073228D01*
X138925715Y-81079243D01*
X138917148Y-81084204D01*
X138914194Y-81088062D01*
X138910337Y-81091015D01*
X138905378Y-81099580D01*
X138899361Y-81107441D01*
X138896664Y-81114630D01*
X138895675Y-81116340D01*
X138895483Y-81117779D01*
X138894198Y-81121208D01*
X138780306Y-81548303D01*
X138611055Y-80837447D01*
X138606265Y-80823547D01*
X138589108Y-80799840D01*
X138564186Y-80784504D01*
X138535291Y-80779871D01*
X138506823Y-80786649D01*
X138483116Y-80803806D01*
X138467780Y-80828728D01*
X138463147Y-80857623D01*
X138352036Y-80857623D01*
X138352036Y-80621678D01*
X146152777Y-80621678D01*
X146152777Y-82040930D01*
G37*
D11*
G36*
X169538010Y-91768630D02*
G01*
X166465016Y-91768630D01*
X166465016Y-89900000D01*
X167163428Y-89900000D01*
X167163428Y-91423810D01*
X167165830Y-91448196D01*
X167184494Y-91493256D01*
X167218982Y-91527744D01*
X167264042Y-91546408D01*
X167312814Y-91546408D01*
X167357874Y-91527744D01*
X167392362Y-91493256D01*
X167411026Y-91448196D01*
X167413428Y-91423810D01*
X167413428Y-90637519D01*
X167546782Y-90637519D01*
X167546782Y-90686291D01*
X167565446Y-90731351D01*
X167599934Y-90765839D01*
X167644994Y-90784503D01*
X167669380Y-90786905D01*
X168306285Y-90786905D01*
X168306285Y-91423810D01*
X168308687Y-91448196D01*
X168327351Y-91493256D01*
X168361839Y-91527744D01*
X168406899Y-91546408D01*
X168455671Y-91546408D01*
X168500731Y-91527744D01*
X168535219Y-91493256D01*
X168553883Y-91448196D01*
X168556285Y-91423810D01*
X168556285Y-90786905D01*
X169193190Y-90786905D01*
X169217576Y-90784503D01*
X169262636Y-90765839D01*
X169297124Y-90731351D01*
X169315788Y-90686291D01*
X169315788Y-90637519D01*
X169297124Y-90592459D01*
X169262636Y-90557971D01*
X169217576Y-90539307D01*
X169193190Y-90536905D01*
X168556285Y-90536905D01*
X168556285Y-89900000D01*
X168553883Y-89875614D01*
X168535219Y-89830554D01*
X168500731Y-89796066D01*
X168455671Y-89777402D01*
X168406899Y-89777402D01*
X168361839Y-89796066D01*
X168327351Y-89830554D01*
X168308687Y-89875614D01*
X168306285Y-89900000D01*
X168306285Y-90536905D01*
X167669380Y-90536905D01*
X167644994Y-90539307D01*
X167599934Y-90557971D01*
X167565446Y-90592459D01*
X167546782Y-90637519D01*
X167413428Y-90637519D01*
X167413428Y-89900000D01*
X167411026Y-89875614D01*
X167392362Y-89830554D01*
X167357874Y-89796066D01*
X167312814Y-89777402D01*
X167264042Y-89777402D01*
X167218982Y-89796066D01*
X167184494Y-89830554D01*
X167165830Y-89875614D01*
X167163428Y-89900000D01*
X166465016Y-89900000D01*
X166465016Y-88280952D01*
X166687238Y-88280952D01*
X166687238Y-88757143D01*
X166688453Y-88769486D01*
X166688220Y-88772777D01*
X166689204Y-88777106D01*
X166689640Y-88781529D01*
X166690903Y-88784580D01*
X166693653Y-88796671D01*
X166788891Y-89082385D01*
X166798881Y-89104760D01*
X166830836Y-89141606D01*
X166874461Y-89163418D01*
X166923110Y-89166875D01*
X166969379Y-89151452D01*
X167006225Y-89119497D01*
X167028037Y-89075872D01*
X167031494Y-89027223D01*
X167026061Y-89003329D01*
X166937238Y-88736860D01*
X166937238Y-88310460D01*
X167010208Y-88164519D01*
X167076758Y-88097970D01*
X167222698Y-88025000D01*
X167354158Y-88025000D01*
X167500098Y-88097970D01*
X167566648Y-88164520D01*
X167646678Y-88324579D01*
X167738589Y-88692222D01*
X167739232Y-88694021D01*
X167739296Y-88694921D01*
X167743178Y-88705067D01*
X167746834Y-88715297D01*
X167747370Y-88716021D01*
X167748054Y-88717807D01*
X167843292Y-88908283D01*
X167849899Y-88918779D01*
X167851162Y-88921827D01*
X167853978Y-88925258D01*
X167856346Y-88929020D01*
X167858840Y-88931183D01*
X167866707Y-88940769D01*
X167961945Y-89036007D01*
X167971530Y-89043873D01*
X167973694Y-89046368D01*
X167977455Y-89048735D01*
X167980887Y-89051552D01*
X167983934Y-89052814D01*
X167994431Y-89059422D01*
X168184908Y-89154661D01*
X168207793Y-89163418D01*
X168212274Y-89163736D01*
X168216423Y-89165455D01*
X168240809Y-89167857D01*
X168431285Y-89167857D01*
X168455671Y-89165455D01*
X168459819Y-89163736D01*
X168464301Y-89163418D01*
X168487187Y-89154660D01*
X168677663Y-89059422D01*
X168688155Y-89052816D01*
X168691207Y-89051553D01*
X168694643Y-89048732D01*
X168698400Y-89046368D01*
X168700560Y-89043876D01*
X168710149Y-89036008D01*
X168805388Y-88940770D01*
X168813257Y-88931181D01*
X168815749Y-88929020D01*
X168818114Y-88925262D01*
X168820933Y-88921828D01*
X168822196Y-88918777D01*
X168828803Y-88908283D01*
X168924042Y-88717806D01*
X168932799Y-88694921D01*
X168933117Y-88690439D01*
X168934836Y-88686291D01*
X168937238Y-88661905D01*
X168937238Y-88185714D01*
X168936022Y-88173370D01*
X168936256Y-88170080D01*
X168935271Y-88165750D01*
X168934836Y-88161328D01*
X168933572Y-88158276D01*
X168930823Y-88146186D01*
X168835585Y-87860472D01*
X168825595Y-87838097D01*
X168793640Y-87801251D01*
X168750015Y-87779439D01*
X168701366Y-87775982D01*
X168655097Y-87791405D01*
X168618251Y-87823360D01*
X168596439Y-87866985D01*
X168592982Y-87915634D01*
X168598415Y-87939528D01*
X168687238Y-88205997D01*
X168687238Y-88632397D01*
X168614269Y-88778334D01*
X168547716Y-88844886D01*
X168401777Y-88917857D01*
X168270317Y-88917857D01*
X168124377Y-88844887D01*
X168057827Y-88778337D01*
X167977797Y-88618277D01*
X167885887Y-88250635D01*
X167885244Y-88248835D01*
X167885180Y-88247935D01*
X167881294Y-88237780D01*
X167877642Y-88227560D01*
X167877105Y-88226835D01*
X167876422Y-88225050D01*
X167781183Y-88034574D01*
X167774575Y-88024077D01*
X167773313Y-88021030D01*
X167770496Y-88017598D01*
X167768129Y-88013837D01*
X167765634Y-88011673D01*
X167757768Y-88002088D01*
X167662530Y-87906850D01*
X167652944Y-87898983D01*
X167650781Y-87896489D01*
X167647019Y-87894121D01*
X167643588Y-87891305D01*
X167640540Y-87890042D01*
X167630044Y-87883435D01*
X167439568Y-87788197D01*
X167416682Y-87779439D01*
X167412200Y-87779120D01*
X167408052Y-87777402D01*
X167383666Y-87775000D01*
X167193190Y-87775000D01*
X167168804Y-87777402D01*
X167164655Y-87779120D01*
X167160174Y-87779439D01*
X167137289Y-87788196D01*
X166946812Y-87883435D01*
X166936315Y-87890042D01*
X166933268Y-87891305D01*
X166929836Y-87894121D01*
X166926075Y-87896489D01*
X166923911Y-87898983D01*
X166914326Y-87906850D01*
X166819088Y-88002088D01*
X166811221Y-88011673D01*
X166808727Y-88013837D01*
X166806359Y-88017598D01*
X166803543Y-88021030D01*
X166802280Y-88024077D01*
X166795673Y-88034574D01*
X166700435Y-88225050D01*
X166691677Y-88247936D01*
X166691358Y-88252417D01*
X166689640Y-88256566D01*
X166687238Y-88280952D01*
X166465016Y-88280952D01*
X166465016Y-85998027D01*
X166687269Y-85998027D01*
X166697849Y-86045639D01*
X166725845Y-86085577D01*
X166745129Y-86100696D01*
X167627028Y-86661903D01*
X166745129Y-87223113D01*
X166725845Y-87238232D01*
X166697849Y-87278170D01*
X166687269Y-87325782D01*
X166695715Y-87373817D01*
X166721899Y-87414964D01*
X166761837Y-87442960D01*
X166809449Y-87453540D01*
X166857484Y-87445094D01*
X166879347Y-87434029D01*
X167896257Y-86786904D01*
X168812238Y-86786904D01*
X168836624Y-86784502D01*
X168881684Y-86765838D01*
X168916172Y-86731350D01*
X168934836Y-86686290D01*
X168934836Y-86637518D01*
X168916172Y-86592458D01*
X168881684Y-86557970D01*
X168836624Y-86539306D01*
X168812238Y-86536904D01*
X167896257Y-86536904D01*
X166879347Y-85889780D01*
X166857484Y-85878715D01*
X166809449Y-85870269D01*
X166761837Y-85880849D01*
X166721899Y-85908845D01*
X166695715Y-85949992D01*
X166687269Y-85998027D01*
X166465016Y-85998027D01*
X166465016Y-84661904D01*
X166687238Y-84661904D01*
X166687238Y-85138095D01*
X166688453Y-85150438D01*
X166688220Y-85153729D01*
X166689204Y-85158058D01*
X166689640Y-85162481D01*
X166690903Y-85165532D01*
X166693653Y-85177623D01*
X166788891Y-85463337D01*
X166798881Y-85485712D01*
X166830836Y-85522558D01*
X166874461Y-85544370D01*
X166923110Y-85547827D01*
X166969379Y-85532404D01*
X167006225Y-85500449D01*
X167028037Y-85456824D01*
X167031494Y-85408175D01*
X167026061Y-85384281D01*
X166937238Y-85117812D01*
X166937238Y-84691412D01*
X167010208Y-84545471D01*
X167076758Y-84478922D01*
X167222698Y-84405952D01*
X167354158Y-84405952D01*
X167500098Y-84478922D01*
X167566648Y-84545472D01*
X167646678Y-84705531D01*
X167738589Y-85073174D01*
X167739232Y-85074973D01*
X167739296Y-85075873D01*
X167743178Y-85086019D01*
X167746834Y-85096249D01*
X167747370Y-85096973D01*
X167748054Y-85098759D01*
X167843292Y-85289235D01*
X167849899Y-85299731D01*
X167851162Y-85302779D01*
X167853978Y-85306210D01*
X167856346Y-85309972D01*
X167858840Y-85312135D01*
X167866707Y-85321721D01*
X167961945Y-85416959D01*
X167971530Y-85424825D01*
X167973694Y-85427320D01*
X167977455Y-85429687D01*
X167980887Y-85432504D01*
X167983934Y-85433766D01*
X167994431Y-85440374D01*
X168184908Y-85535613D01*
X168207793Y-85544370D01*
X168212274Y-85544688D01*
X168216423Y-85546407D01*
X168240809Y-85548809D01*
X168431285Y-85548809D01*
X168455671Y-85546407D01*
X168459819Y-85544688D01*
X168464301Y-85544370D01*
X168487187Y-85535612D01*
X168677663Y-85440374D01*
X168688155Y-85433768D01*
X168691207Y-85432505D01*
X168694643Y-85429684D01*
X168698400Y-85427320D01*
X168700560Y-85424828D01*
X168710149Y-85416960D01*
X168805388Y-85321722D01*
X168813257Y-85312133D01*
X168815749Y-85309972D01*
X168818114Y-85306214D01*
X168820933Y-85302780D01*
X168822196Y-85299729D01*
X168828803Y-85289235D01*
X168924042Y-85098758D01*
X168932799Y-85075873D01*
X168933117Y-85071391D01*
X168934836Y-85067243D01*
X168937238Y-85042857D01*
X168937238Y-84566666D01*
X168936022Y-84554322D01*
X168936256Y-84551032D01*
X168935271Y-84546702D01*
X168934836Y-84542280D01*
X168933572Y-84539228D01*
X168930823Y-84527138D01*
X168835585Y-84241424D01*
X168825595Y-84219049D01*
X168793640Y-84182203D01*
X168750015Y-84160391D01*
X168701366Y-84156934D01*
X168655097Y-84172357D01*
X168618251Y-84204312D01*
X168596439Y-84247937D01*
X168592982Y-84296586D01*
X168598415Y-84320480D01*
X168687238Y-84586949D01*
X168687238Y-85013349D01*
X168614269Y-85159286D01*
X168547716Y-85225838D01*
X168401777Y-85298809D01*
X168270317Y-85298809D01*
X168124377Y-85225839D01*
X168057827Y-85159289D01*
X167977797Y-84999229D01*
X167885887Y-84631587D01*
X167885244Y-84629787D01*
X167885180Y-84628887D01*
X167881294Y-84618732D01*
X167877642Y-84608512D01*
X167877105Y-84607787D01*
X167876422Y-84606002D01*
X167781183Y-84415526D01*
X167774575Y-84405029D01*
X167773313Y-84401982D01*
X167770496Y-84398550D01*
X167768129Y-84394789D01*
X167765634Y-84392625D01*
X167757768Y-84383040D01*
X167662530Y-84287802D01*
X167652944Y-84279935D01*
X167650781Y-84277441D01*
X167647019Y-84275073D01*
X167643588Y-84272257D01*
X167640540Y-84270994D01*
X167630044Y-84264387D01*
X167439568Y-84169149D01*
X167416682Y-84160391D01*
X167412200Y-84160072D01*
X167408052Y-84158354D01*
X167383666Y-84155952D01*
X167193190Y-84155952D01*
X167168804Y-84158354D01*
X167164655Y-84160072D01*
X167160174Y-84160391D01*
X167137289Y-84169148D01*
X166946812Y-84264387D01*
X166936315Y-84270994D01*
X166933268Y-84272257D01*
X166929836Y-84275073D01*
X166926075Y-84277441D01*
X166923911Y-84279935D01*
X166914326Y-84287802D01*
X166819088Y-84383040D01*
X166811221Y-84392625D01*
X166808727Y-84394789D01*
X166806359Y-84398550D01*
X166803543Y-84401982D01*
X166802280Y-84405029D01*
X166795673Y-84415526D01*
X166700435Y-84606002D01*
X166691677Y-84628888D01*
X166691358Y-84633369D01*
X166689640Y-84637518D01*
X166687238Y-84661904D01*
X166465016Y-84661904D01*
X166465016Y-83933730D01*
X169538010Y-83933730D01*
X169538010Y-91768630D01*
G37*
G36*
X165755952Y-118687238D02*
G01*
X165148555Y-118687238D01*
X165002617Y-118614269D01*
X164936065Y-118547716D01*
X164863095Y-118401776D01*
X164863095Y-118175079D01*
X164936065Y-118029138D01*
X164996093Y-117969110D01*
X165234568Y-117889619D01*
X165755952Y-117889619D01*
X165755952Y-118687238D01*
G37*
G36*
X165755952Y-117639619D02*
G01*
X165243793Y-117639619D01*
X165097853Y-117566648D01*
X165031303Y-117500098D01*
X164958333Y-117354157D01*
X164958333Y-117222698D01*
X165031303Y-117076757D01*
X165097853Y-117010208D01*
X165243793Y-116937238D01*
X165755952Y-116937238D01*
X165755952Y-117639619D01*
G37*
G36*
X163802762Y-118115809D02*
G01*
X163197237Y-118115809D01*
X163500000Y-117207521D01*
X163802762Y-118115809D01*
G37*
G36*
X166228174Y-119159460D02*
G01*
X158774227Y-119159460D01*
X158774227Y-118787852D01*
X158996449Y-118787852D01*
X158996449Y-118836624D01*
X159015113Y-118881684D01*
X159049601Y-118916172D01*
X159094661Y-118934836D01*
X159119047Y-118937238D01*
X160642856Y-118937238D01*
X160667242Y-118934836D01*
X160712302Y-118916172D01*
X160746790Y-118881684D01*
X160765454Y-118836624D01*
X160765454Y-118787852D01*
X160746790Y-118742792D01*
X160712302Y-118708304D01*
X160667242Y-118689640D01*
X160642856Y-118687238D01*
X159119047Y-118687238D01*
X159094661Y-118689640D01*
X159049601Y-118708304D01*
X159015113Y-118742792D01*
X158996449Y-118787852D01*
X158774227Y-118787852D01*
X158774227Y-117644994D01*
X158996449Y-117644994D01*
X158996449Y-117693766D01*
X159015113Y-117738826D01*
X159049601Y-117773314D01*
X159094661Y-117791978D01*
X159119047Y-117794380D01*
X159755951Y-117794380D01*
X159755951Y-118431285D01*
X159758353Y-118455671D01*
X159777017Y-118500731D01*
X159811505Y-118535219D01*
X159856565Y-118553883D01*
X159905337Y-118553883D01*
X159950397Y-118535219D01*
X159984885Y-118500731D01*
X160003549Y-118455671D01*
X160005951Y-118431285D01*
X160005951Y-117794380D01*
X160642856Y-117794380D01*
X160667242Y-117791978D01*
X160712302Y-117773314D01*
X160746790Y-117738826D01*
X160765454Y-117693766D01*
X160765454Y-117644994D01*
X160746790Y-117599934D01*
X160712302Y-117565446D01*
X160667242Y-117546782D01*
X160642856Y-117544380D01*
X160005951Y-117544380D01*
X160005951Y-116907476D01*
X160003549Y-116883090D01*
X159984885Y-116838030D01*
X159950397Y-116803542D01*
X159912517Y-116787852D01*
X161186925Y-116787852D01*
X161186925Y-116836624D01*
X161205589Y-116881684D01*
X161240077Y-116916172D01*
X161285137Y-116934836D01*
X161309523Y-116937238D01*
X161755952Y-116937238D01*
X161755952Y-118812238D01*
X161758354Y-118836624D01*
X161777018Y-118881684D01*
X161811506Y-118916172D01*
X161856566Y-118934836D01*
X161905338Y-118934836D01*
X161950398Y-118916172D01*
X161984886Y-118881684D01*
X162003550Y-118836624D01*
X162005952Y-118812238D01*
X162005952Y-118796604D01*
X162709315Y-118796604D01*
X162712772Y-118845253D01*
X162734584Y-118888878D01*
X162771430Y-118920833D01*
X162817699Y-118936256D01*
X162866348Y-118932799D01*
X162909973Y-118910987D01*
X162941928Y-118874141D01*
X162951918Y-118851766D01*
X163113904Y-118365809D01*
X163886095Y-118365809D01*
X164048081Y-118851767D01*
X164058071Y-118874142D01*
X164090026Y-118910987D01*
X164133651Y-118932799D01*
X164182300Y-118936256D01*
X164228569Y-118920833D01*
X164265415Y-118888878D01*
X164287227Y-118845254D01*
X164290684Y-118796604D01*
X164285251Y-118772710D01*
X164076205Y-118145571D01*
X164613095Y-118145571D01*
X164613095Y-118431285D01*
X164615497Y-118455671D01*
X164617215Y-118459819D01*
X164617534Y-118464301D01*
X164626292Y-118487187D01*
X164721530Y-118677663D01*
X164728135Y-118688155D01*
X164729399Y-118691207D01*
X164732219Y-118694643D01*
X164734584Y-118698400D01*
X164737075Y-118700560D01*
X164744944Y-118710149D01*
X164840182Y-118805388D01*
X164849770Y-118813257D01*
X164851932Y-118815749D01*
X164855689Y-118818114D01*
X164859124Y-118820933D01*
X164862174Y-118822196D01*
X164872669Y-118828803D01*
X165063146Y-118924042D01*
X165086031Y-118932799D01*
X165090512Y-118933117D01*
X165094661Y-118934836D01*
X165119047Y-118937238D01*
X165880952Y-118937238D01*
X165905338Y-118934836D01*
X165950398Y-118916172D01*
X165984886Y-118881684D01*
X166003550Y-118836624D01*
X166005952Y-118812238D01*
X166005952Y-116812238D01*
X166003550Y-116787852D01*
X165984886Y-116742792D01*
X165950398Y-116708304D01*
X165905338Y-116689640D01*
X165880952Y-116687238D01*
X165214285Y-116687238D01*
X165189899Y-116689640D01*
X165185750Y-116691358D01*
X165181269Y-116691677D01*
X165158384Y-116700434D01*
X164967907Y-116795673D01*
X164957410Y-116802280D01*
X164954363Y-116803543D01*
X164950931Y-116806359D01*
X164947170Y-116808727D01*
X164945006Y-116811221D01*
X164935421Y-116819088D01*
X164840183Y-116914326D01*
X164832316Y-116923911D01*
X164829822Y-116926075D01*
X164827454Y-116929836D01*
X164824638Y-116933268D01*
X164823375Y-116936315D01*
X164816768Y-116946812D01*
X164721530Y-117137288D01*
X164712772Y-117160174D01*
X164712453Y-117164655D01*
X164710735Y-117168804D01*
X164708333Y-117193190D01*
X164708333Y-117383666D01*
X164710735Y-117408052D01*
X164712453Y-117412200D01*
X164712772Y-117416682D01*
X164721530Y-117439568D01*
X164816768Y-117630044D01*
X164823375Y-117640540D01*
X164824638Y-117643588D01*
X164827454Y-117647019D01*
X164829822Y-117650781D01*
X164832316Y-117652944D01*
X164840183Y-117662530D01*
X164911454Y-117733801D01*
X164889043Y-117741272D01*
X164866668Y-117751262D01*
X164863274Y-117754205D01*
X164859125Y-117755924D01*
X164840183Y-117771469D01*
X164744945Y-117866707D01*
X164737078Y-117876292D01*
X164734584Y-117878456D01*
X164732216Y-117882217D01*
X164729400Y-117885649D01*
X164728137Y-117888696D01*
X164721530Y-117899193D01*
X164626292Y-118089669D01*
X164617534Y-118112555D01*
X164617215Y-118117036D01*
X164615497Y-118121185D01*
X164613095Y-118145571D01*
X164076205Y-118145571D01*
X163618585Y-116772710D01*
X163608595Y-116750335D01*
X163602743Y-116743587D01*
X163598749Y-116735599D01*
X163586911Y-116725332D01*
X163576640Y-116713489D01*
X163568648Y-116709493D01*
X163561903Y-116703643D01*
X163547035Y-116698687D01*
X163533015Y-116691677D01*
X163524105Y-116691043D01*
X163515634Y-116688220D01*
X163500000Y-116689330D01*
X163484366Y-116688220D01*
X163475894Y-116691043D01*
X163466985Y-116691677D01*
X163452964Y-116698687D01*
X163438097Y-116703643D01*
X163431350Y-116709493D01*
X163423360Y-116713489D01*
X163413091Y-116725329D01*
X163401251Y-116735598D01*
X163397255Y-116743588D01*
X163391405Y-116750335D01*
X163381415Y-116772710D01*
X162714748Y-118772710D01*
X162709315Y-118796604D01*
X162005952Y-118796604D01*
X162005952Y-116937238D01*
X162452380Y-116937238D01*
X162476766Y-116934836D01*
X162521826Y-116916172D01*
X162556314Y-116881684D01*
X162574978Y-116836624D01*
X162574978Y-116787852D01*
X162556314Y-116742792D01*
X162521826Y-116708304D01*
X162476766Y-116689640D01*
X162452380Y-116687238D01*
X161309523Y-116687238D01*
X161285137Y-116689640D01*
X161240077Y-116708304D01*
X161205589Y-116742792D01*
X161186925Y-116787852D01*
X159912517Y-116787852D01*
X159905337Y-116784878D01*
X159856565Y-116784878D01*
X159811505Y-116803542D01*
X159777017Y-116838030D01*
X159758353Y-116883090D01*
X159755951Y-116907476D01*
X159755951Y-117544380D01*
X159119047Y-117544380D01*
X159094661Y-117546782D01*
X159049601Y-117565446D01*
X159015113Y-117599934D01*
X158996449Y-117644994D01*
X158774227Y-117644994D01*
X158774227Y-116465016D01*
X166228174Y-116465016D01*
X166228174Y-119159460D01*
G37*
D10*
G36*
X159179382Y-93659105D02*
G01*
X159209789Y-93689512D01*
X159244047Y-93758028D01*
X159244047Y-93960713D01*
X159209789Y-94029229D01*
X159179382Y-94059636D01*
X159110866Y-94093894D01*
X158955800Y-94093894D01*
X158887284Y-94059636D01*
X158856877Y-94029229D01*
X158822619Y-93960713D01*
X158822619Y-93758028D01*
X158856877Y-93689512D01*
X158887284Y-93659105D01*
X158955800Y-93624847D01*
X159110866Y-93624847D01*
X159179382Y-93659105D01*
G37*
G36*
X161647028Y-96345902D02*
G01*
X157609716Y-96345902D01*
X157609716Y-95493124D01*
X159220237Y-95493124D01*
X159220237Y-96159791D01*
X159221678Y-96174423D01*
X159232877Y-96201459D01*
X159253569Y-96222151D01*
X159280605Y-96233350D01*
X159309869Y-96233350D01*
X159336905Y-96222151D01*
X159357597Y-96201459D01*
X159368796Y-96174423D01*
X159370237Y-96159791D01*
X159370237Y-96145159D01*
X159555012Y-96145159D01*
X159555012Y-96174423D01*
X159566211Y-96201459D01*
X159586903Y-96222151D01*
X159613939Y-96233350D01*
X159628571Y-96234791D01*
X160104761Y-96234791D01*
X160119393Y-96233350D01*
X160146429Y-96222151D01*
X160167121Y-96201459D01*
X160178320Y-96174423D01*
X160179761Y-96159791D01*
X160179761Y-95159791D01*
X160178320Y-95145159D01*
X160167121Y-95118123D01*
X160146429Y-95097431D01*
X160119393Y-95086232D01*
X160090129Y-95086232D01*
X160063093Y-95097431D01*
X160042401Y-95118123D01*
X160031202Y-95145159D01*
X160029761Y-95159791D01*
X160029761Y-96084791D01*
X159628571Y-96084791D01*
X159613939Y-96086232D01*
X159586903Y-96097431D01*
X159566211Y-96118123D01*
X159555012Y-96145159D01*
X159370237Y-96145159D01*
X159370237Y-95493124D01*
X159368796Y-95478492D01*
X159357597Y-95451456D01*
X159336905Y-95430764D01*
X159309869Y-95419565D01*
X159280605Y-95419565D01*
X159253569Y-95430764D01*
X159232877Y-95451456D01*
X159221678Y-95478492D01*
X159220237Y-95493124D01*
X157609716Y-95493124D01*
X157609716Y-95192779D01*
X159174059Y-95192779D01*
X159174059Y-95222041D01*
X159185258Y-95249078D01*
X159194585Y-95260443D01*
X159242204Y-95308062D01*
X159253569Y-95317389D01*
X159280605Y-95328588D01*
X159280606Y-95328588D01*
X159309868Y-95328588D01*
X159309869Y-95328588D01*
X159336905Y-95317389D01*
X159348270Y-95308062D01*
X159395889Y-95260443D01*
X159405216Y-95249078D01*
X159416415Y-95222042D01*
X159416415Y-95192779D01*
X159408812Y-95174423D01*
X159405216Y-95165742D01*
X159395889Y-95154377D01*
X159348270Y-95106758D01*
X159336905Y-95097431D01*
X159309869Y-95086232D01*
X159309868Y-95086232D01*
X159280605Y-95086232D01*
X159253569Y-95097431D01*
X159242204Y-95106758D01*
X159194585Y-95154377D01*
X159185258Y-95165742D01*
X159174059Y-95192779D01*
X157609716Y-95192779D01*
X157609716Y-93559227D01*
X157720827Y-93559227D01*
X157724087Y-93573564D01*
X158057420Y-94573564D01*
X158063414Y-94586989D01*
X158066924Y-94591036D01*
X158069321Y-94595830D01*
X158076429Y-94601995D01*
X158082588Y-94609096D01*
X158087377Y-94611490D01*
X158091428Y-94615004D01*
X158100353Y-94617978D01*
X158108761Y-94622183D01*
X158114105Y-94622562D01*
X158119191Y-94624258D01*
X158128571Y-94623591D01*
X158137951Y-94624258D01*
X158143036Y-94622562D01*
X158148381Y-94622183D01*
X158156791Y-94617977D01*
X158165713Y-94615004D01*
X158169760Y-94611493D01*
X158174554Y-94609097D01*
X158180717Y-94601991D01*
X158187821Y-94595830D01*
X158190216Y-94591038D01*
X158193728Y-94586990D01*
X158199722Y-94573564D01*
X158477469Y-93740323D01*
X158672619Y-93740323D01*
X158672619Y-94121275D01*
X158672870Y-94123828D01*
X158672708Y-94124921D01*
X158673517Y-94130394D01*
X158674060Y-94135907D01*
X158674482Y-94136928D01*
X158674858Y-94139465D01*
X158722477Y-94329941D01*
X158725557Y-94338563D01*
X158725917Y-94340380D01*
X158726795Y-94342027D01*
X158727424Y-94343787D01*
X158728527Y-94345275D01*
X158732834Y-94353354D01*
X158828072Y-94496211D01*
X158828105Y-94496251D01*
X158828115Y-94496275D01*
X158832691Y-94501851D01*
X158837388Y-94507586D01*
X158837409Y-94507600D01*
X158837442Y-94507640D01*
X158885061Y-94555260D01*
X158890810Y-94559978D01*
X158892111Y-94561478D01*
X158894370Y-94562900D01*
X158896427Y-94564588D01*
X158898254Y-94565345D01*
X158904554Y-94569310D01*
X158999792Y-94616929D01*
X159013523Y-94622184D01*
X159016212Y-94622375D01*
X159018701Y-94623406D01*
X159033333Y-94624847D01*
X159223809Y-94624847D01*
X159238441Y-94623406D01*
X159265477Y-94612207D01*
X159286169Y-94591515D01*
X159297368Y-94564479D01*
X159297368Y-94535215D01*
X159626441Y-94535215D01*
X159626441Y-94564479D01*
X159637640Y-94591515D01*
X159658332Y-94612207D01*
X159685368Y-94623406D01*
X159700000Y-94624847D01*
X160271428Y-94624847D01*
X160286060Y-94623406D01*
X160313096Y-94612207D01*
X160333788Y-94591515D01*
X160344987Y-94564479D01*
X160344987Y-94535215D01*
X160333788Y-94508179D01*
X160313096Y-94487487D01*
X160286060Y-94476288D01*
X160271428Y-94474847D01*
X160060714Y-94474847D01*
X160060714Y-93778532D01*
X160123157Y-93840975D01*
X160128907Y-93845695D01*
X160130206Y-93847192D01*
X160132460Y-93848611D01*
X160134522Y-93850303D01*
X160136354Y-93851061D01*
X160142649Y-93855024D01*
X160237887Y-93902643D01*
X160251618Y-93907898D01*
X160280808Y-93909972D01*
X160308570Y-93900718D01*
X160330677Y-93881545D01*
X160335924Y-93871052D01*
X160625987Y-93871052D01*
X160626980Y-93900299D01*
X160639089Y-93926939D01*
X160660471Y-93946918D01*
X160673666Y-93953405D01*
X161248303Y-94168894D01*
X160673666Y-94384383D01*
X160660471Y-94390870D01*
X160639089Y-94410849D01*
X160626980Y-94437489D01*
X160625987Y-94466736D01*
X160636262Y-94494137D01*
X160656241Y-94515519D01*
X160682881Y-94527628D01*
X160712128Y-94528621D01*
X160726334Y-94524833D01*
X161488238Y-94239119D01*
X161501433Y-94232632D01*
X161503317Y-94230871D01*
X161505663Y-94229805D01*
X161513948Y-94220938D01*
X161522815Y-94212653D01*
X161523881Y-94210307D01*
X161525642Y-94208423D01*
X161529904Y-94197056D01*
X161534924Y-94186013D01*
X161535011Y-94183436D01*
X161535917Y-94181022D01*
X161535505Y-94168894D01*
X161535917Y-94156766D01*
X161535011Y-94154351D01*
X161534924Y-94151775D01*
X161529904Y-94140731D01*
X161525642Y-94129365D01*
X161523881Y-94127480D01*
X161522815Y-94125135D01*
X161513948Y-94116849D01*
X161505663Y-94107983D01*
X161503317Y-94106916D01*
X161501433Y-94105156D01*
X161488238Y-94098669D01*
X160726334Y-93812955D01*
X160712128Y-93809167D01*
X160682881Y-93810160D01*
X160656241Y-93822269D01*
X160636262Y-93843651D01*
X160625987Y-93871052D01*
X160335924Y-93871052D01*
X160343765Y-93855370D01*
X160345839Y-93826180D01*
X160336585Y-93798419D01*
X160317412Y-93776311D01*
X160304969Y-93768479D01*
X160220617Y-93726303D01*
X160139236Y-93644922D01*
X160048118Y-93508244D01*
X160048083Y-93508201D01*
X160048074Y-93508179D01*
X160048022Y-93508127D01*
X160038802Y-93496869D01*
X160032632Y-93492737D01*
X160027382Y-93487487D01*
X160020592Y-93484674D01*
X160014487Y-93480586D01*
X160007206Y-93479129D01*
X160000346Y-93476288D01*
X159992998Y-93476288D01*
X159985793Y-93474847D01*
X159978509Y-93476288D01*
X159971082Y-93476288D01*
X159964293Y-93479100D01*
X159957085Y-93480526D01*
X159950906Y-93484645D01*
X159944046Y-93487487D01*
X159938850Y-93492682D01*
X159932736Y-93496759D01*
X159928604Y-93502928D01*
X159923354Y-93508179D01*
X159920541Y-93514968D01*
X159916453Y-93521074D01*
X159914996Y-93528354D01*
X159912155Y-93535215D01*
X159910729Y-93549691D01*
X159910714Y-93549768D01*
X159910719Y-93549794D01*
X159910714Y-93549847D01*
X159910714Y-94474847D01*
X159700000Y-94474847D01*
X159685368Y-94476288D01*
X159658332Y-94487487D01*
X159637640Y-94508179D01*
X159626441Y-94535215D01*
X159297368Y-94535215D01*
X159286169Y-94508179D01*
X159265477Y-94487487D01*
X159238441Y-94476288D01*
X159223809Y-94474847D01*
X159051038Y-94474847D01*
X158982522Y-94440589D01*
X158948760Y-94406826D01*
X158864848Y-94280957D01*
X158846324Y-94206861D01*
X158904554Y-94235976D01*
X158918285Y-94241231D01*
X158920974Y-94241422D01*
X158923463Y-94242453D01*
X158938095Y-94243894D01*
X159128571Y-94243894D01*
X159143203Y-94242453D01*
X159145692Y-94241421D01*
X159148380Y-94241231D01*
X159162112Y-94235976D01*
X159257350Y-94188357D01*
X159263649Y-94184392D01*
X159265477Y-94183635D01*
X159267533Y-94181946D01*
X159269793Y-94180525D01*
X159271092Y-94179026D01*
X159276842Y-94174308D01*
X159324461Y-94126689D01*
X159329179Y-94120939D01*
X159330678Y-94119640D01*
X159332099Y-94117380D01*
X159333788Y-94115324D01*
X159334545Y-94113496D01*
X159338510Y-94107197D01*
X159386129Y-94011959D01*
X159391384Y-93998228D01*
X159391575Y-93995538D01*
X159392606Y-93993050D01*
X159394047Y-93978418D01*
X159394047Y-93740323D01*
X159392606Y-93725691D01*
X159391575Y-93723202D01*
X159391384Y-93720513D01*
X159386129Y-93706782D01*
X159338510Y-93611544D01*
X159334545Y-93605244D01*
X159333788Y-93603417D01*
X159332099Y-93601360D01*
X159330678Y-93599101D01*
X159329179Y-93597801D01*
X159324461Y-93592052D01*
X159276842Y-93544433D01*
X159271092Y-93539714D01*
X159269793Y-93538216D01*
X159267533Y-93536794D01*
X159265477Y-93535106D01*
X159263649Y-93534348D01*
X159257350Y-93530384D01*
X159162112Y-93482765D01*
X159148380Y-93477510D01*
X159145692Y-93477319D01*
X159143203Y-93476288D01*
X159128571Y-93474847D01*
X158938095Y-93474847D01*
X158923463Y-93476288D01*
X158920974Y-93477318D01*
X158918285Y-93477510D01*
X158904554Y-93482765D01*
X158809316Y-93530384D01*
X158803016Y-93534348D01*
X158801189Y-93535106D01*
X158799132Y-93536794D01*
X158796873Y-93538216D01*
X158795573Y-93539714D01*
X158789824Y-93544433D01*
X158742205Y-93592052D01*
X158737486Y-93597801D01*
X158735988Y-93599101D01*
X158734566Y-93601360D01*
X158732878Y-93603417D01*
X158732120Y-93605244D01*
X158728156Y-93611544D01*
X158680537Y-93706782D01*
X158675282Y-93720514D01*
X158675091Y-93723201D01*
X158674060Y-93725691D01*
X158672619Y-93740323D01*
X158477469Y-93740323D01*
X158533055Y-93573564D01*
X158536315Y-93559228D01*
X158534240Y-93530038D01*
X158521154Y-93503864D01*
X158499046Y-93484690D01*
X158471284Y-93475436D01*
X158442094Y-93477511D01*
X158415921Y-93490598D01*
X158396747Y-93512705D01*
X158390753Y-93526130D01*
X158128571Y-94312676D01*
X157866389Y-93526130D01*
X157860395Y-93512704D01*
X157841221Y-93490597D01*
X157815048Y-93477511D01*
X157785858Y-93475436D01*
X157758095Y-93484690D01*
X157735988Y-93503864D01*
X157722902Y-93530037D01*
X157720827Y-93559227D01*
X157609716Y-93559227D01*
X157609716Y-93363736D01*
X161647028Y-93363736D01*
X161647028Y-96345902D01*
G37*
D11*
G36*
X143560713Y-112394714D02*
G01*
X143277428Y-112394714D01*
X143067522Y-112324746D01*
X142931302Y-112188527D01*
X142860796Y-112047513D01*
X142782142Y-111732896D01*
X142782142Y-111506530D01*
X142860796Y-111191911D01*
X142931301Y-111050901D01*
X143067522Y-110914681D01*
X143277428Y-110844714D01*
X143560713Y-110844714D01*
X143560713Y-112394714D01*
G37*
G36*
X144010713Y-112844714D02*
G01*
X138391687Y-112844714D01*
X138391687Y-112495328D01*
X138591687Y-112495328D01*
X138591687Y-112544100D01*
X138610351Y-112589160D01*
X138644839Y-112623648D01*
X138689899Y-112642312D01*
X138714285Y-112644714D01*
X140085713Y-112644714D01*
X140110099Y-112642312D01*
X140155159Y-112623648D01*
X140189647Y-112589160D01*
X140208311Y-112544100D01*
X140208311Y-112495328D01*
X140189647Y-112450268D01*
X140155159Y-112415780D01*
X140110099Y-112397116D01*
X140085713Y-112394714D01*
X138714285Y-112394714D01*
X138689899Y-112397116D01*
X138644839Y-112415780D01*
X138610351Y-112450268D01*
X138591687Y-112495328D01*
X138391687Y-112495328D01*
X138391687Y-111466756D01*
X138591687Y-111466756D01*
X138591687Y-111515528D01*
X138610351Y-111560588D01*
X138644839Y-111595076D01*
X138689899Y-111613740D01*
X138714285Y-111616142D01*
X139274999Y-111616142D01*
X139274999Y-112176857D01*
X139277401Y-112201243D01*
X139296065Y-112246303D01*
X139330553Y-112280791D01*
X139375613Y-112299455D01*
X139424385Y-112299455D01*
X139469445Y-112280791D01*
X139503933Y-112246303D01*
X139522597Y-112201243D01*
X139524999Y-112176857D01*
X139524999Y-111616142D01*
X140085713Y-111616142D01*
X140110099Y-111613740D01*
X140155159Y-111595076D01*
X140189647Y-111560588D01*
X140208311Y-111515528D01*
X140208311Y-111466756D01*
X140189647Y-111421696D01*
X140155159Y-111387208D01*
X140110099Y-111368544D01*
X140085713Y-111366142D01*
X139524999Y-111366142D01*
X139524999Y-110866755D01*
X140734544Y-110866755D01*
X140734544Y-110915529D01*
X140753209Y-110960588D01*
X140787696Y-110995075D01*
X140832755Y-111013740D01*
X140881529Y-111013740D01*
X140926588Y-110995075D01*
X140945530Y-110979530D01*
X141010378Y-110914681D01*
X141220285Y-110844714D01*
X141351144Y-110844714D01*
X141561047Y-110914681D01*
X141697267Y-111050902D01*
X141767772Y-111191913D01*
X141846427Y-111506530D01*
X141846427Y-111732896D01*
X141767772Y-112047513D01*
X141697266Y-112188526D01*
X141561047Y-112324746D01*
X141351144Y-112394714D01*
X141220285Y-112394714D01*
X141010380Y-112324746D01*
X140945531Y-112259897D01*
X140926589Y-112244352D01*
X140881529Y-112225687D01*
X140832756Y-112225687D01*
X140787696Y-112244351D01*
X140753209Y-112278838D01*
X140734544Y-112323898D01*
X140734544Y-112372671D01*
X140753208Y-112417731D01*
X140768753Y-112436673D01*
X140854467Y-112522388D01*
X140873409Y-112537933D01*
X140877560Y-112539652D01*
X140880953Y-112542595D01*
X140903328Y-112552585D01*
X141160470Y-112638299D01*
X141172563Y-112641048D01*
X141175613Y-112642312D01*
X141180034Y-112642747D01*
X141184364Y-112643732D01*
X141187655Y-112643498D01*
X141199999Y-112644714D01*
X141371427Y-112644714D01*
X141383770Y-112643498D01*
X141387061Y-112643732D01*
X141391390Y-112642747D01*
X141395813Y-112642312D01*
X141398864Y-112641048D01*
X141410955Y-112638299D01*
X141668098Y-112552586D01*
X141690473Y-112542595D01*
X141693866Y-112539651D01*
X141698016Y-112537933D01*
X141716958Y-112522388D01*
X141888387Y-112350960D01*
X141896256Y-112341371D01*
X141898748Y-112339210D01*
X141901113Y-112335452D01*
X141903932Y-112332018D01*
X141905195Y-112328968D01*
X141911803Y-112318472D01*
X141997516Y-112147044D01*
X141998199Y-112145258D01*
X141998736Y-112144534D01*
X142002391Y-112134304D01*
X142006274Y-112124158D01*
X142006337Y-112123258D01*
X142006981Y-112121459D01*
X142092695Y-111778602D01*
X142093320Y-111774372D01*
X142094025Y-111772671D01*
X142094929Y-111763489D01*
X142096279Y-111754361D01*
X142096007Y-111752539D01*
X142096427Y-111748285D01*
X142096427Y-111491142D01*
X142532142Y-111491142D01*
X142532142Y-111748285D01*
X142532561Y-111752539D01*
X142532290Y-111754361D01*
X142533639Y-111763489D01*
X142534544Y-111772671D01*
X142535248Y-111774372D01*
X142535874Y-111778602D01*
X142621588Y-112121459D01*
X142622231Y-112123258D01*
X142622295Y-112124158D01*
X142626181Y-112134315D01*
X142629833Y-112144534D01*
X142630368Y-112145256D01*
X142631052Y-112147043D01*
X142716766Y-112318472D01*
X142723376Y-112328972D01*
X142724637Y-112332017D01*
X142727449Y-112335443D01*
X142729820Y-112339210D01*
X142732318Y-112341376D01*
X142740182Y-112350959D01*
X142911610Y-112522388D01*
X142930552Y-112537933D01*
X142934703Y-112539652D01*
X142938096Y-112542595D01*
X142960471Y-112552585D01*
X143217613Y-112638299D01*
X143229706Y-112641048D01*
X143232756Y-112642312D01*
X143237177Y-112642747D01*
X143241507Y-112643732D01*
X143244798Y-112643498D01*
X143257142Y-112644714D01*
X143685713Y-112644714D01*
X143710099Y-112642312D01*
X143755159Y-112623648D01*
X143789647Y-112589160D01*
X143808311Y-112544100D01*
X143810713Y-112519714D01*
X143810713Y-110719714D01*
X143808311Y-110695328D01*
X143789647Y-110650268D01*
X143755159Y-110615780D01*
X143710099Y-110597116D01*
X143685713Y-110594714D01*
X143257142Y-110594714D01*
X143244798Y-110595929D01*
X143241507Y-110595696D01*
X143237177Y-110596680D01*
X143232756Y-110597116D01*
X143229706Y-110598379D01*
X143217613Y-110601129D01*
X142960471Y-110686843D01*
X142938096Y-110696833D01*
X142934703Y-110699775D01*
X142930552Y-110701495D01*
X142911610Y-110717040D01*
X142740182Y-110888469D01*
X142732315Y-110898054D01*
X142729821Y-110900218D01*
X142727452Y-110903979D01*
X142724637Y-110907411D01*
X142723375Y-110910457D01*
X142716766Y-110920956D01*
X142631053Y-111092383D01*
X142630369Y-111094168D01*
X142629833Y-111094893D01*
X142626177Y-111105122D01*
X142622295Y-111115269D01*
X142622231Y-111116168D01*
X142621588Y-111117968D01*
X142535874Y-111460825D01*
X142535248Y-111465054D01*
X142534544Y-111466756D01*
X142533639Y-111475937D01*
X142532290Y-111485066D01*
X142532561Y-111486887D01*
X142532142Y-111491142D01*
X142096427Y-111491142D01*
X142096007Y-111486887D01*
X142096279Y-111485066D01*
X142094929Y-111475937D01*
X142094025Y-111466756D01*
X142093320Y-111465054D01*
X142092695Y-111460825D01*
X142006981Y-111117968D01*
X142006337Y-111116168D01*
X142006274Y-111115269D01*
X142002391Y-111105122D01*
X141998736Y-111094893D01*
X141998199Y-111094168D01*
X141997516Y-111092383D01*
X141911802Y-110920955D01*
X141905195Y-110910460D01*
X141903932Y-110907410D01*
X141901113Y-110903975D01*
X141898748Y-110900218D01*
X141896256Y-110898056D01*
X141888387Y-110888468D01*
X141716958Y-110717040D01*
X141698016Y-110701495D01*
X141693866Y-110699776D01*
X141690473Y-110696833D01*
X141668098Y-110686842D01*
X141410955Y-110601129D01*
X141398864Y-110598379D01*
X141395813Y-110597116D01*
X141391390Y-110596680D01*
X141387061Y-110595696D01*
X141383770Y-110595929D01*
X141371427Y-110594714D01*
X141199999Y-110594714D01*
X141187655Y-110595929D01*
X141184364Y-110595696D01*
X141180034Y-110596680D01*
X141175613Y-110597116D01*
X141172563Y-110598379D01*
X141160470Y-110601129D01*
X140903328Y-110686843D01*
X140880953Y-110696833D01*
X140877559Y-110699776D01*
X140873410Y-110701495D01*
X140854468Y-110717040D01*
X140768754Y-110802754D01*
X140753209Y-110821696D01*
X140734544Y-110866755D01*
X139524999Y-110866755D01*
X139524999Y-110805428D01*
X139522597Y-110781042D01*
X139503933Y-110735982D01*
X139469445Y-110701494D01*
X139424385Y-110682830D01*
X139375613Y-110682830D01*
X139330553Y-110701494D01*
X139296065Y-110735982D01*
X139277401Y-110781042D01*
X139274999Y-110805428D01*
X139274999Y-111366142D01*
X138714285Y-111366142D01*
X138689899Y-111368544D01*
X138644839Y-111387208D01*
X138610351Y-111421696D01*
X138591687Y-111466756D01*
X138391687Y-111466756D01*
X138391687Y-110394714D01*
X144010713Y-110394714D01*
X144010713Y-112844714D01*
G37*
D10*
G36*
X131305515Y-107261638D02*
G01*
X131335922Y-107292045D01*
X131370180Y-107360561D01*
X131370180Y-107515627D01*
X131335922Y-107584143D01*
X131305515Y-107614550D01*
X131236999Y-107648808D01*
X131034314Y-107648808D01*
X130965798Y-107614550D01*
X130935391Y-107584143D01*
X130901133Y-107515627D01*
X130901133Y-107360561D01*
X130935391Y-107292045D01*
X130965798Y-107261638D01*
X131034314Y-107227380D01*
X131236999Y-107227380D01*
X131305515Y-107261638D01*
G37*
G36*
X131678322Y-108861711D02*
G01*
X130259069Y-108861711D01*
X130259069Y-108104761D01*
X130370180Y-108104761D01*
X130370180Y-108676189D01*
X130371621Y-108690821D01*
X130382820Y-108717857D01*
X130403512Y-108738549D01*
X130430548Y-108749748D01*
X130459812Y-108749748D01*
X130486848Y-108738549D01*
X130507540Y-108717857D01*
X130518739Y-108690821D01*
X130520180Y-108676189D01*
X130520180Y-108465475D01*
X131216495Y-108465475D01*
X131154052Y-108527918D01*
X131149333Y-108533667D01*
X131147835Y-108534967D01*
X131146413Y-108537226D01*
X131144725Y-108539283D01*
X131143967Y-108541110D01*
X131140003Y-108547410D01*
X131092384Y-108642648D01*
X131087129Y-108656380D01*
X131085055Y-108685570D01*
X131094309Y-108713331D01*
X131113482Y-108735439D01*
X131139657Y-108748526D01*
X131168847Y-108750600D01*
X131196608Y-108741346D01*
X131218716Y-108722173D01*
X131226548Y-108709730D01*
X131268724Y-108625378D01*
X131350103Y-108543999D01*
X131486783Y-108452879D01*
X131486825Y-108452844D01*
X131486848Y-108452835D01*
X131486899Y-108452783D01*
X131498158Y-108443563D01*
X131502289Y-108437393D01*
X131507540Y-108432143D01*
X131510352Y-108425353D01*
X131514441Y-108419248D01*
X131515897Y-108411967D01*
X131518739Y-108405107D01*
X131518739Y-108397758D01*
X131520180Y-108390554D01*
X131518739Y-108383269D01*
X131518739Y-108375843D01*
X131515926Y-108369054D01*
X131514501Y-108361846D01*
X131510381Y-108355666D01*
X131507540Y-108348807D01*
X131502346Y-108343613D01*
X131498269Y-108337497D01*
X131492096Y-108333363D01*
X131486848Y-108328115D01*
X131480060Y-108325303D01*
X131473954Y-108321214D01*
X131466672Y-108319757D01*
X131459812Y-108316916D01*
X131445335Y-108315490D01*
X131445259Y-108315475D01*
X131445232Y-108315480D01*
X131445180Y-108315475D01*
X130520180Y-108315475D01*
X130520180Y-108104761D01*
X130518739Y-108090129D01*
X130507540Y-108063093D01*
X130486848Y-108042401D01*
X130459812Y-108031202D01*
X130430548Y-108031202D01*
X130403512Y-108042401D01*
X130382820Y-108063093D01*
X130371621Y-108090129D01*
X130370180Y-108104761D01*
X130259069Y-108104761D01*
X130259069Y-107438094D01*
X130370180Y-107438094D01*
X130370180Y-107628570D01*
X130371621Y-107643202D01*
X130382820Y-107670238D01*
X130403512Y-107690930D01*
X130430548Y-107702129D01*
X130459812Y-107702129D01*
X130486848Y-107690930D01*
X130507540Y-107670238D01*
X130518739Y-107643202D01*
X130520180Y-107628570D01*
X130520180Y-107455800D01*
X130554438Y-107387283D01*
X130588199Y-107353523D01*
X130714070Y-107269609D01*
X130788166Y-107251085D01*
X130759051Y-107309315D01*
X130753796Y-107323047D01*
X130753605Y-107325734D01*
X130752574Y-107328224D01*
X130751133Y-107342856D01*
X130751133Y-107533332D01*
X130752574Y-107547964D01*
X130753605Y-107550453D01*
X130753796Y-107553141D01*
X130759051Y-107566873D01*
X130806670Y-107662111D01*
X130810634Y-107668410D01*
X130811392Y-107670238D01*
X130813080Y-107672294D01*
X130814502Y-107674554D01*
X130816000Y-107675853D01*
X130820719Y-107681603D01*
X130868338Y-107729222D01*
X130874087Y-107733940D01*
X130875387Y-107735439D01*
X130877646Y-107736860D01*
X130879703Y-107738549D01*
X130881530Y-107739306D01*
X130887830Y-107743271D01*
X130983068Y-107790890D01*
X130996799Y-107796145D01*
X130999488Y-107796336D01*
X131001977Y-107797367D01*
X131016609Y-107798808D01*
X131254704Y-107798808D01*
X131269336Y-107797367D01*
X131271825Y-107796335D01*
X131274513Y-107796145D01*
X131288245Y-107790890D01*
X131383483Y-107743271D01*
X131389782Y-107739306D01*
X131391610Y-107738549D01*
X131393666Y-107736860D01*
X131395926Y-107735439D01*
X131397225Y-107733940D01*
X131402975Y-107729222D01*
X131450594Y-107681603D01*
X131455312Y-107675853D01*
X131456811Y-107674554D01*
X131458232Y-107672294D01*
X131459921Y-107670238D01*
X131460678Y-107668410D01*
X131464643Y-107662111D01*
X131512262Y-107566873D01*
X131517517Y-107553142D01*
X131517708Y-107550452D01*
X131518739Y-107547964D01*
X131520180Y-107533332D01*
X131520180Y-107342856D01*
X131518739Y-107328224D01*
X131517708Y-107325735D01*
X131517517Y-107323046D01*
X131512262Y-107309315D01*
X131464643Y-107214077D01*
X131460678Y-107207777D01*
X131459921Y-107205950D01*
X131458232Y-107203893D01*
X131456811Y-107201634D01*
X131455312Y-107200334D01*
X131450594Y-107194585D01*
X131402975Y-107146966D01*
X131397225Y-107142247D01*
X131395926Y-107140749D01*
X131393666Y-107139327D01*
X131391610Y-107137639D01*
X131389782Y-107136881D01*
X131383483Y-107132917D01*
X131288245Y-107085298D01*
X131274513Y-107080043D01*
X131271825Y-107079852D01*
X131269336Y-107078821D01*
X131254704Y-107077380D01*
X130873752Y-107077380D01*
X130871198Y-107077631D01*
X130870106Y-107077469D01*
X130864632Y-107078278D01*
X130859120Y-107078821D01*
X130858098Y-107079243D01*
X130855562Y-107079619D01*
X130665086Y-107127238D01*
X130656462Y-107130319D01*
X130654648Y-107130678D01*
X130653002Y-107131555D01*
X130651240Y-107132185D01*
X130649748Y-107133290D01*
X130641674Y-107137595D01*
X130498816Y-107232833D01*
X130498773Y-107232867D01*
X130498751Y-107232877D01*
X130493282Y-107237365D01*
X130487441Y-107242149D01*
X130487426Y-107242170D01*
X130487386Y-107242204D01*
X130439767Y-107289823D01*
X130435049Y-107295571D01*
X130433551Y-107296871D01*
X130432128Y-107299130D01*
X130430440Y-107301188D01*
X130429683Y-107303015D01*
X130425718Y-107309314D01*
X130378098Y-107404552D01*
X130372843Y-107418284D01*
X130372651Y-107420973D01*
X130371621Y-107423462D01*
X130370180Y-107438094D01*
X130259069Y-107438094D01*
X130259069Y-106709176D01*
X130371621Y-106709176D01*
X130371621Y-106738439D01*
X130382819Y-106765475D01*
X130382820Y-106765476D01*
X130392148Y-106776842D01*
X130439767Y-106824460D01*
X130451133Y-106833788D01*
X130478169Y-106844986D01*
X130507431Y-106844986D01*
X130507432Y-106844986D01*
X130534468Y-106833787D01*
X130545833Y-106824460D01*
X130593452Y-106776841D01*
X130602779Y-106765476D01*
X130613978Y-106738440D01*
X130613978Y-106709177D01*
X130606375Y-106690821D01*
X130602779Y-106682140D01*
X130593452Y-106670775D01*
X130545833Y-106623156D01*
X130534468Y-106613829D01*
X130534466Y-106613828D01*
X130507432Y-106602630D01*
X130478169Y-106602630D01*
X130451133Y-106613828D01*
X130439767Y-106623156D01*
X130392148Y-106670774D01*
X130382820Y-106682140D01*
X130382819Y-106682141D01*
X130379224Y-106690821D01*
X130371621Y-106709176D01*
X130259069Y-106709176D01*
X130259069Y-105914285D01*
X130370180Y-105914285D01*
X130370180Y-106152380D01*
X130371621Y-106167012D01*
X130372651Y-106169500D01*
X130372843Y-106172190D01*
X130378098Y-106185922D01*
X130425718Y-106281160D01*
X130429683Y-106287458D01*
X130430440Y-106289286D01*
X130432128Y-106291343D01*
X130433551Y-106293603D01*
X130435049Y-106294902D01*
X130439767Y-106300651D01*
X130487386Y-106348270D01*
X130498751Y-106357597D01*
X130525787Y-106368796D01*
X130555050Y-106368796D01*
X130582086Y-106357597D01*
X130602779Y-106336904D01*
X130613978Y-106309868D01*
X130613978Y-106280605D01*
X130602779Y-106253569D01*
X130593452Y-106242204D01*
X130554438Y-106203190D01*
X130520180Y-106134673D01*
X130520180Y-105931991D01*
X130554438Y-105863474D01*
X130584846Y-105833067D01*
X130653362Y-105798809D01*
X130856047Y-105798809D01*
X130924563Y-105833067D01*
X130954970Y-105863474D01*
X130989228Y-105931990D01*
X130989228Y-106134675D01*
X130954970Y-106203191D01*
X130915957Y-106242204D01*
X130906630Y-106253569D01*
X130905184Y-106257057D01*
X130902793Y-106259981D01*
X130899625Y-106270480D01*
X130895431Y-106280606D01*
X130895431Y-106284381D01*
X130894340Y-106287997D01*
X130895431Y-106298906D01*
X130895431Y-106309868D01*
X130896876Y-106313356D01*
X130897252Y-106317116D01*
X130902434Y-106326777D01*
X130906630Y-106336905D01*
X130909301Y-106339576D01*
X130911086Y-106342903D01*
X130919568Y-106349843D01*
X130927322Y-106357597D01*
X130930810Y-106359042D01*
X130933734Y-106361434D01*
X130944233Y-106364601D01*
X130954359Y-106368796D01*
X130958134Y-106368796D01*
X130961750Y-106369887D01*
X130976453Y-106369865D01*
X131452643Y-106322246D01*
X131457975Y-106321177D01*
X131459812Y-106321177D01*
X131461534Y-106320463D01*
X131467059Y-106319356D01*
X131476718Y-106314173D01*
X131486848Y-106309978D01*
X131489519Y-106307306D01*
X131492846Y-106305522D01*
X131499786Y-106297039D01*
X131507540Y-106289286D01*
X131508985Y-106285797D01*
X131511377Y-106282874D01*
X131514544Y-106272376D01*
X131518739Y-106262250D01*
X131519291Y-106256644D01*
X131519830Y-106254858D01*
X131519647Y-106253029D01*
X131520180Y-106247618D01*
X131520180Y-105771428D01*
X131518739Y-105756796D01*
X131507540Y-105729760D01*
X131486848Y-105709068D01*
X131459812Y-105697869D01*
X131430548Y-105697869D01*
X131403512Y-105709068D01*
X131382820Y-105729760D01*
X131371621Y-105756796D01*
X131370180Y-105771428D01*
X131370180Y-106179743D01*
X131121989Y-106204562D01*
X131131310Y-106185921D01*
X131136565Y-106172190D01*
X131136756Y-106169500D01*
X131137787Y-106167012D01*
X131139228Y-106152380D01*
X131139228Y-105914285D01*
X131137787Y-105899653D01*
X131136756Y-105897164D01*
X131136565Y-105894475D01*
X131131310Y-105880744D01*
X131083691Y-105785506D01*
X131079726Y-105779206D01*
X131078969Y-105777379D01*
X131077280Y-105775322D01*
X131075859Y-105773063D01*
X131074360Y-105771763D01*
X131069642Y-105766014D01*
X131022023Y-105718395D01*
X131016273Y-105713676D01*
X131014974Y-105712178D01*
X131012714Y-105710756D01*
X131010658Y-105709068D01*
X131008830Y-105708310D01*
X131002531Y-105704346D01*
X130907293Y-105656727D01*
X130893561Y-105651472D01*
X130890873Y-105651281D01*
X130888384Y-105650250D01*
X130873752Y-105648809D01*
X130635657Y-105648809D01*
X130621025Y-105650250D01*
X130618536Y-105651280D01*
X130615847Y-105651472D01*
X130602116Y-105656727D01*
X130506878Y-105704346D01*
X130500578Y-105708310D01*
X130498751Y-105709068D01*
X130496694Y-105710756D01*
X130494435Y-105712178D01*
X130493135Y-105713676D01*
X130487386Y-105718395D01*
X130439767Y-105766014D01*
X130435049Y-105771762D01*
X130433551Y-105773062D01*
X130432128Y-105775321D01*
X130430440Y-105777379D01*
X130429683Y-105779206D01*
X130425718Y-105785505D01*
X130378098Y-105880743D01*
X130372843Y-105894475D01*
X130372651Y-105897164D01*
X130371621Y-105899653D01*
X130370180Y-105914285D01*
X130259069Y-105914285D01*
X130259069Y-104533333D01*
X130751133Y-104533333D01*
X130751133Y-105295237D01*
X130752574Y-105309869D01*
X130763773Y-105336905D01*
X130784465Y-105357597D01*
X130811501Y-105368796D01*
X130840765Y-105368796D01*
X130867801Y-105357597D01*
X130888493Y-105336905D01*
X130899692Y-105309869D01*
X130901133Y-105295237D01*
X130901133Y-104533333D01*
X130899692Y-104518701D01*
X130888493Y-104491665D01*
X130867801Y-104470973D01*
X130840765Y-104459774D01*
X130811501Y-104459774D01*
X130784465Y-104470973D01*
X130763773Y-104491665D01*
X130752574Y-104518701D01*
X130751133Y-104533333D01*
X130259069Y-104533333D01*
X130259069Y-103533333D01*
X130370180Y-103533333D01*
X130370180Y-104152380D01*
X130371621Y-104167012D01*
X130382820Y-104194048D01*
X130403512Y-104214740D01*
X130430548Y-104225939D01*
X130459812Y-104225939D01*
X130486848Y-104214740D01*
X130498213Y-104205413D01*
X131057122Y-103646504D01*
X131171636Y-103608333D01*
X131236999Y-103608333D01*
X131305515Y-103642591D01*
X131335922Y-103672998D01*
X131370180Y-103741514D01*
X131370180Y-103944199D01*
X131335922Y-104012715D01*
X131296909Y-104051728D01*
X131287582Y-104063093D01*
X131276383Y-104090130D01*
X131276383Y-104119392D01*
X131287582Y-104146429D01*
X131308274Y-104167121D01*
X131335311Y-104178320D01*
X131364573Y-104178320D01*
X131391610Y-104167121D01*
X131402975Y-104157794D01*
X131450594Y-104110175D01*
X131455312Y-104104425D01*
X131456811Y-104103126D01*
X131458232Y-104100866D01*
X131459921Y-104098810D01*
X131460678Y-104096982D01*
X131464643Y-104090683D01*
X131512262Y-103995445D01*
X131517517Y-103981714D01*
X131517708Y-103979024D01*
X131518739Y-103976536D01*
X131520180Y-103961904D01*
X131520180Y-103723809D01*
X131518739Y-103709177D01*
X131517708Y-103706688D01*
X131517517Y-103703999D01*
X131512262Y-103690268D01*
X131464643Y-103595030D01*
X131460678Y-103588730D01*
X131459921Y-103586903D01*
X131458232Y-103584846D01*
X131456811Y-103582587D01*
X131455312Y-103581287D01*
X131450594Y-103575538D01*
X131402975Y-103527919D01*
X131397225Y-103523200D01*
X131395926Y-103521702D01*
X131393666Y-103520280D01*
X131391610Y-103518592D01*
X131389782Y-103517834D01*
X131383483Y-103513870D01*
X131288245Y-103466251D01*
X131274513Y-103460996D01*
X131271825Y-103460805D01*
X131269336Y-103459774D01*
X131254704Y-103458333D01*
X131159466Y-103458333D01*
X131152059Y-103459062D01*
X131150085Y-103458922D01*
X131147487Y-103459512D01*
X131144834Y-103459774D01*
X131143003Y-103460532D01*
X131135748Y-103462182D01*
X130992892Y-103509801D01*
X130979466Y-103515795D01*
X130977431Y-103517559D01*
X130974941Y-103518591D01*
X130963576Y-103527919D01*
X130520180Y-103971314D01*
X130520180Y-103533333D01*
X130518739Y-103518701D01*
X130507540Y-103491665D01*
X130486848Y-103470973D01*
X130459812Y-103459774D01*
X130430548Y-103459774D01*
X130403512Y-103470973D01*
X130382820Y-103491665D01*
X130371621Y-103518701D01*
X130370180Y-103533333D01*
X130259069Y-103533333D01*
X130259069Y-102661558D01*
X130371621Y-102661558D01*
X130371621Y-102690822D01*
X130382820Y-102717858D01*
X130403512Y-102738550D01*
X130430548Y-102749749D01*
X130445180Y-102751190D01*
X130703514Y-102751190D01*
X130703514Y-103152380D01*
X130704243Y-103159785D01*
X130704103Y-103161760D01*
X130704578Y-103163185D01*
X130704955Y-103167012D01*
X130709555Y-103178119D01*
X130713357Y-103189523D01*
X130715123Y-103191559D01*
X130716154Y-103194048D01*
X130724653Y-103202547D01*
X130732531Y-103211630D01*
X130734940Y-103212834D01*
X130736846Y-103214740D01*
X130747954Y-103219341D01*
X130758704Y-103224716D01*
X130761390Y-103224906D01*
X130763882Y-103225939D01*
X130775909Y-103225939D01*
X130787894Y-103226791D01*
X130791641Y-103225939D01*
X130793146Y-103225939D01*
X130794977Y-103225180D01*
X130802231Y-103223531D01*
X131516517Y-102985436D01*
X131529942Y-102979442D01*
X131552049Y-102960268D01*
X131565136Y-102934095D01*
X131567211Y-102904905D01*
X131557957Y-102877143D01*
X131538783Y-102855035D01*
X131512609Y-102841949D01*
X131483419Y-102839874D01*
X131469083Y-102843134D01*
X130853514Y-103048323D01*
X130853514Y-102751190D01*
X131111847Y-102751190D01*
X131126479Y-102749749D01*
X131153515Y-102738550D01*
X131174207Y-102717858D01*
X131185406Y-102690822D01*
X131185406Y-102661558D01*
X131174207Y-102634522D01*
X131153515Y-102613830D01*
X131126479Y-102602631D01*
X131111847Y-102601190D01*
X130853514Y-102601190D01*
X130853514Y-102533333D01*
X130852073Y-102518701D01*
X130840874Y-102491665D01*
X130820182Y-102470973D01*
X130793146Y-102459774D01*
X130763882Y-102459774D01*
X130736846Y-102470973D01*
X130716154Y-102491665D01*
X130704955Y-102518701D01*
X130703514Y-102533333D01*
X130703514Y-102601190D01*
X130445180Y-102601190D01*
X130430548Y-102602631D01*
X130403512Y-102613830D01*
X130382820Y-102634522D01*
X130371621Y-102661558D01*
X130259069Y-102661558D01*
X130259069Y-101952524D01*
X130370769Y-101952524D01*
X130371435Y-101961904D01*
X130370769Y-101971284D01*
X130372464Y-101976369D01*
X130372844Y-101981714D01*
X130377048Y-101990123D01*
X130380023Y-101999047D01*
X130383534Y-102003095D01*
X130385930Y-102007887D01*
X130393034Y-102014049D01*
X130399197Y-102021154D01*
X130403988Y-102023549D01*
X130408037Y-102027061D01*
X130421463Y-102033055D01*
X131421463Y-102366388D01*
X131435799Y-102369648D01*
X131464989Y-102367573D01*
X131491163Y-102354487D01*
X131510337Y-102332379D01*
X131519591Y-102304617D01*
X131517516Y-102275427D01*
X131504429Y-102249254D01*
X131482322Y-102230080D01*
X131468897Y-102224086D01*
X130682350Y-101961904D01*
X131468897Y-101699722D01*
X131482322Y-101693728D01*
X131504429Y-101674554D01*
X131517516Y-101648381D01*
X131519591Y-101619191D01*
X131510337Y-101591429D01*
X131491163Y-101569321D01*
X131464989Y-101556235D01*
X131435799Y-101554160D01*
X131421463Y-101557420D01*
X130421463Y-101890753D01*
X130408037Y-101896747D01*
X130403988Y-101900258D01*
X130399197Y-101902654D01*
X130393034Y-101909758D01*
X130385930Y-101915921D01*
X130383534Y-101920712D01*
X130380023Y-101924761D01*
X130377048Y-101933684D01*
X130372844Y-101942094D01*
X130372464Y-101947438D01*
X130370769Y-101952524D01*
X130259069Y-101952524D01*
X130259069Y-101443049D01*
X131678322Y-101443049D01*
X131678322Y-108861711D01*
G37*
X132250152Y-96319047D02*
X133250152Y-96319047D01*
X133250152Y-96319047D02*
X132535867Y-95985714D01*
X132535867Y-95985714D02*
X133250152Y-95652381D01*
X133250152Y-95652381D02*
X132250152Y-95652381D01*
X132250152Y-95033333D02*
X132297772Y-95128571D01*
X132297772Y-95128571D02*
X132345391Y-95176190D01*
X132345391Y-95176190D02*
X132440629Y-95223809D01*
X132440629Y-95223809D02*
X132726343Y-95223809D01*
X132726343Y-95223809D02*
X132821581Y-95176190D01*
X132821581Y-95176190D02*
X132869200Y-95128571D01*
X132869200Y-95128571D02*
X132916819Y-95033333D01*
X132916819Y-95033333D02*
X132916819Y-94890476D01*
X132916819Y-94890476D02*
X132869200Y-94795238D01*
X132869200Y-94795238D02*
X132821581Y-94747619D01*
X132821581Y-94747619D02*
X132726343Y-94700000D01*
X132726343Y-94700000D02*
X132440629Y-94700000D01*
X132440629Y-94700000D02*
X132345391Y-94747619D01*
X132345391Y-94747619D02*
X132297772Y-94795238D01*
X132297772Y-94795238D02*
X132250152Y-94890476D01*
X132250152Y-94890476D02*
X132250152Y-95033333D01*
X132250152Y-93842857D02*
X133250152Y-93842857D01*
X132297772Y-93842857D02*
X132250152Y-93938095D01*
X132250152Y-93938095D02*
X132250152Y-94128571D01*
X132250152Y-94128571D02*
X132297772Y-94223809D01*
X132297772Y-94223809D02*
X132345391Y-94271428D01*
X132345391Y-94271428D02*
X132440629Y-94319047D01*
X132440629Y-94319047D02*
X132726343Y-94319047D01*
X132726343Y-94319047D02*
X132821581Y-94271428D01*
X132821581Y-94271428D02*
X132869200Y-94223809D01*
X132869200Y-94223809D02*
X132916819Y-94128571D01*
X132916819Y-94128571D02*
X132916819Y-93938095D01*
X132916819Y-93938095D02*
X132869200Y-93842857D01*
X132916819Y-92938095D02*
X132250152Y-92938095D01*
X132916819Y-93366666D02*
X132393010Y-93366666D01*
X132393010Y-93366666D02*
X132297772Y-93319047D01*
X132297772Y-93319047D02*
X132250152Y-93223809D01*
X132250152Y-93223809D02*
X132250152Y-93080952D01*
X132250152Y-93080952D02*
X132297772Y-92985714D01*
X132297772Y-92985714D02*
X132345391Y-92938095D01*
X132250152Y-92319047D02*
X132297772Y-92414285D01*
X132297772Y-92414285D02*
X132393010Y-92461904D01*
X132393010Y-92461904D02*
X133250152Y-92461904D01*
X132250152Y-91509523D02*
X132773962Y-91509523D01*
X132773962Y-91509523D02*
X132869200Y-91557142D01*
X132869200Y-91557142D02*
X132916819Y-91652380D01*
X132916819Y-91652380D02*
X132916819Y-91842856D01*
X132916819Y-91842856D02*
X132869200Y-91938094D01*
X132297772Y-91509523D02*
X132250152Y-91604761D01*
X132250152Y-91604761D02*
X132250152Y-91842856D01*
X132250152Y-91842856D02*
X132297772Y-91938094D01*
X132297772Y-91938094D02*
X132393010Y-91985713D01*
X132393010Y-91985713D02*
X132488248Y-91985713D01*
X132488248Y-91985713D02*
X132583486Y-91938094D01*
X132583486Y-91938094D02*
X132631105Y-91842856D01*
X132631105Y-91842856D02*
X132631105Y-91604761D01*
X132631105Y-91604761D02*
X132678724Y-91509523D01*
X132250152Y-91033332D02*
X132916819Y-91033332D01*
X132726343Y-91033332D02*
X132821581Y-90985713D01*
X132821581Y-90985713D02*
X132869200Y-90938094D01*
X132869200Y-90938094D02*
X132916819Y-90842856D01*
X132916819Y-90842856D02*
X132916819Y-90747618D01*
X132535867Y-89699998D02*
X132535867Y-89223808D01*
X132250152Y-89795236D02*
X133250152Y-89461903D01*
X133250152Y-89461903D02*
X132250152Y-89128570D01*
X132916819Y-88366665D02*
X132250152Y-88366665D01*
X132916819Y-88795236D02*
X132393010Y-88795236D01*
X132393010Y-88795236D02*
X132297772Y-88747617D01*
X132297772Y-88747617D02*
X132250152Y-88652379D01*
X132250152Y-88652379D02*
X132250152Y-88509522D01*
X132250152Y-88509522D02*
X132297772Y-88414284D01*
X132297772Y-88414284D02*
X132345391Y-88366665D01*
X132250152Y-87461903D02*
X133250152Y-87461903D01*
X132297772Y-87461903D02*
X132250152Y-87557141D01*
X132250152Y-87557141D02*
X132250152Y-87747617D01*
X132250152Y-87747617D02*
X132297772Y-87842855D01*
X132297772Y-87842855D02*
X132345391Y-87890474D01*
X132345391Y-87890474D02*
X132440629Y-87938093D01*
X132440629Y-87938093D02*
X132726343Y-87938093D01*
X132726343Y-87938093D02*
X132821581Y-87890474D01*
X132821581Y-87890474D02*
X132869200Y-87842855D01*
X132869200Y-87842855D02*
X132916819Y-87747617D01*
X132916819Y-87747617D02*
X132916819Y-87557141D01*
X132916819Y-87557141D02*
X132869200Y-87461903D01*
X132250152Y-86985712D02*
X132916819Y-86985712D01*
X133250152Y-86985712D02*
X133202533Y-87033331D01*
X133202533Y-87033331D02*
X133154914Y-86985712D01*
X133154914Y-86985712D02*
X133202533Y-86938093D01*
X133202533Y-86938093D02*
X133250152Y-86985712D01*
X133250152Y-86985712D02*
X133154914Y-86985712D01*
X132250152Y-86366665D02*
X132297772Y-86461903D01*
X132297772Y-86461903D02*
X132345391Y-86509522D01*
X132345391Y-86509522D02*
X132440629Y-86557141D01*
X132440629Y-86557141D02*
X132726343Y-86557141D01*
X132726343Y-86557141D02*
X132821581Y-86509522D01*
X132821581Y-86509522D02*
X132869200Y-86461903D01*
X132869200Y-86461903D02*
X132916819Y-86366665D01*
X132916819Y-86366665D02*
X132916819Y-86223808D01*
X132916819Y-86223808D02*
X132869200Y-86128570D01*
X132869200Y-86128570D02*
X132821581Y-86080951D01*
X132821581Y-86080951D02*
X132726343Y-86033332D01*
X132726343Y-86033332D02*
X132440629Y-86033332D01*
X132440629Y-86033332D02*
X132345391Y-86080951D01*
X132345391Y-86080951D02*
X132297772Y-86128570D01*
X132297772Y-86128570D02*
X132250152Y-86223808D01*
X132250152Y-86223808D02*
X132250152Y-86366665D01*
X131164018Y-98509525D02*
X131116399Y-98366668D01*
X131116399Y-98366668D02*
X131068780Y-98319049D01*
X131068780Y-98319049D02*
X130973542Y-98271430D01*
X130973542Y-98271430D02*
X130830685Y-98271430D01*
X130830685Y-98271430D02*
X130735447Y-98319049D01*
X130735447Y-98319049D02*
X130687828Y-98366668D01*
X130687828Y-98366668D02*
X130640208Y-98461906D01*
X130640208Y-98461906D02*
X130640208Y-98842858D01*
X130640208Y-98842858D02*
X131640208Y-98842858D01*
X131640208Y-98842858D02*
X131640208Y-98509525D01*
X131640208Y-98509525D02*
X131592589Y-98414287D01*
X131592589Y-98414287D02*
X131544970Y-98366668D01*
X131544970Y-98366668D02*
X131449732Y-98319049D01*
X131449732Y-98319049D02*
X131354494Y-98319049D01*
X131354494Y-98319049D02*
X131259256Y-98366668D01*
X131259256Y-98366668D02*
X131211637Y-98414287D01*
X131211637Y-98414287D02*
X131164018Y-98509525D01*
X131164018Y-98509525D02*
X131164018Y-98842858D01*
X130640208Y-97414287D02*
X131164018Y-97414287D01*
X131164018Y-97414287D02*
X131259256Y-97461906D01*
X131259256Y-97461906D02*
X131306875Y-97557144D01*
X131306875Y-97557144D02*
X131306875Y-97747620D01*
X131306875Y-97747620D02*
X131259256Y-97842858D01*
X130687828Y-97414287D02*
X130640208Y-97509525D01*
X130640208Y-97509525D02*
X130640208Y-97747620D01*
X130640208Y-97747620D02*
X130687828Y-97842858D01*
X130687828Y-97842858D02*
X130783066Y-97890477D01*
X130783066Y-97890477D02*
X130878304Y-97890477D01*
X130878304Y-97890477D02*
X130973542Y-97842858D01*
X130973542Y-97842858D02*
X131021161Y-97747620D01*
X131021161Y-97747620D02*
X131021161Y-97509525D01*
X131021161Y-97509525D02*
X131068780Y-97414287D01*
X131306875Y-97080953D02*
X131306875Y-96700001D01*
X131640208Y-96938096D02*
X130783066Y-96938096D01*
X130783066Y-96938096D02*
X130687828Y-96890477D01*
X130687828Y-96890477D02*
X130640208Y-96795239D01*
X130640208Y-96795239D02*
X130640208Y-96700001D01*
X131306875Y-96509524D02*
X131306875Y-96128572D01*
X131640208Y-96366667D02*
X130783066Y-96366667D01*
X130783066Y-96366667D02*
X130687828Y-96319048D01*
X130687828Y-96319048D02*
X130640208Y-96223810D01*
X130640208Y-96223810D02*
X130640208Y-96128572D01*
X130687828Y-95414286D02*
X130640208Y-95509524D01*
X130640208Y-95509524D02*
X130640208Y-95700000D01*
X130640208Y-95700000D02*
X130687828Y-95795238D01*
X130687828Y-95795238D02*
X130783066Y-95842857D01*
X130783066Y-95842857D02*
X131164018Y-95842857D01*
X131164018Y-95842857D02*
X131259256Y-95795238D01*
X131259256Y-95795238D02*
X131306875Y-95700000D01*
X131306875Y-95700000D02*
X131306875Y-95509524D01*
X131306875Y-95509524D02*
X131259256Y-95414286D01*
X131259256Y-95414286D02*
X131164018Y-95366667D01*
X131164018Y-95366667D02*
X131068780Y-95366667D01*
X131068780Y-95366667D02*
X130973542Y-95842857D01*
X130640208Y-94938095D02*
X131306875Y-94938095D01*
X131116399Y-94938095D02*
X131211637Y-94890476D01*
X131211637Y-94890476D02*
X131259256Y-94842857D01*
X131259256Y-94842857D02*
X131306875Y-94747619D01*
X131306875Y-94747619D02*
X131306875Y-94652381D01*
X131306875Y-94414285D02*
X130640208Y-94176190D01*
X131306875Y-93938095D02*
X130640208Y-94176190D01*
X130640208Y-94176190D02*
X130402113Y-94271428D01*
X130402113Y-94271428D02*
X130354494Y-94319047D01*
X130354494Y-94319047D02*
X130306875Y-94414285D01*
X130735447Y-92223809D02*
X130687828Y-92271428D01*
X130687828Y-92271428D02*
X130640208Y-92414285D01*
X130640208Y-92414285D02*
X130640208Y-92509523D01*
X130640208Y-92509523D02*
X130687828Y-92652380D01*
X130687828Y-92652380D02*
X130783066Y-92747618D01*
X130783066Y-92747618D02*
X130878304Y-92795237D01*
X130878304Y-92795237D02*
X131068780Y-92842856D01*
X131068780Y-92842856D02*
X131211637Y-92842856D01*
X131211637Y-92842856D02*
X131402113Y-92795237D01*
X131402113Y-92795237D02*
X131497351Y-92747618D01*
X131497351Y-92747618D02*
X131592589Y-92652380D01*
X131592589Y-92652380D02*
X131640208Y-92509523D01*
X131640208Y-92509523D02*
X131640208Y-92414285D01*
X131640208Y-92414285D02*
X131592589Y-92271428D01*
X131592589Y-92271428D02*
X131544970Y-92223809D01*
X130640208Y-91795237D02*
X131640208Y-91795237D01*
X130640208Y-91366666D02*
X131164018Y-91366666D01*
X131164018Y-91366666D02*
X131259256Y-91414285D01*
X131259256Y-91414285D02*
X131306875Y-91509523D01*
X131306875Y-91509523D02*
X131306875Y-91652380D01*
X131306875Y-91652380D02*
X131259256Y-91747618D01*
X131259256Y-91747618D02*
X131211637Y-91795237D01*
X130640208Y-90461904D02*
X131164018Y-90461904D01*
X131164018Y-90461904D02*
X131259256Y-90509523D01*
X131259256Y-90509523D02*
X131306875Y-90604761D01*
X131306875Y-90604761D02*
X131306875Y-90795237D01*
X131306875Y-90795237D02*
X131259256Y-90890475D01*
X130687828Y-90461904D02*
X130640208Y-90557142D01*
X130640208Y-90557142D02*
X130640208Y-90795237D01*
X130640208Y-90795237D02*
X130687828Y-90890475D01*
X130687828Y-90890475D02*
X130783066Y-90938094D01*
X130783066Y-90938094D02*
X130878304Y-90938094D01*
X130878304Y-90938094D02*
X130973542Y-90890475D01*
X130973542Y-90890475D02*
X131021161Y-90795237D01*
X131021161Y-90795237D02*
X131021161Y-90557142D01*
X131021161Y-90557142D02*
X131068780Y-90461904D01*
X130640208Y-89985713D02*
X131306875Y-89985713D01*
X131116399Y-89985713D02*
X131211637Y-89938094D01*
X131211637Y-89938094D02*
X131259256Y-89890475D01*
X131259256Y-89890475D02*
X131306875Y-89795237D01*
X131306875Y-89795237D02*
X131306875Y-89699999D01*
X131306875Y-88938094D02*
X130497351Y-88938094D01*
X130497351Y-88938094D02*
X130402113Y-88985713D01*
X130402113Y-88985713D02*
X130354494Y-89033332D01*
X130354494Y-89033332D02*
X130306875Y-89128570D01*
X130306875Y-89128570D02*
X130306875Y-89271427D01*
X130306875Y-89271427D02*
X130354494Y-89366665D01*
X130687828Y-88938094D02*
X130640208Y-89033332D01*
X130640208Y-89033332D02*
X130640208Y-89223808D01*
X130640208Y-89223808D02*
X130687828Y-89319046D01*
X130687828Y-89319046D02*
X130735447Y-89366665D01*
X130735447Y-89366665D02*
X130830685Y-89414284D01*
X130830685Y-89414284D02*
X131116399Y-89414284D01*
X131116399Y-89414284D02*
X131211637Y-89366665D01*
X131211637Y-89366665D02*
X131259256Y-89319046D01*
X131259256Y-89319046D02*
X131306875Y-89223808D01*
X131306875Y-89223808D02*
X131306875Y-89033332D01*
X131306875Y-89033332D02*
X131259256Y-88938094D01*
X130687828Y-88080951D02*
X130640208Y-88176189D01*
X130640208Y-88176189D02*
X130640208Y-88366665D01*
X130640208Y-88366665D02*
X130687828Y-88461903D01*
X130687828Y-88461903D02*
X130783066Y-88509522D01*
X130783066Y-88509522D02*
X131164018Y-88509522D01*
X131164018Y-88509522D02*
X131259256Y-88461903D01*
X131259256Y-88461903D02*
X131306875Y-88366665D01*
X131306875Y-88366665D02*
X131306875Y-88176189D01*
X131306875Y-88176189D02*
X131259256Y-88080951D01*
X131259256Y-88080951D02*
X131164018Y-88033332D01*
X131164018Y-88033332D02*
X131068780Y-88033332D01*
X131068780Y-88033332D02*
X130973542Y-88509522D01*
X130640208Y-87604760D02*
X131306875Y-87604760D01*
X131116399Y-87604760D02*
X131211637Y-87557141D01*
X131211637Y-87557141D02*
X131259256Y-87509522D01*
X131259256Y-87509522D02*
X131306875Y-87414284D01*
X131306875Y-87414284D02*
X131306875Y-87319046D01*
X131306875Y-86319045D02*
X130640208Y-86080950D01*
X130640208Y-86080950D02*
X131306875Y-85842855D01*
X130640208Y-84938093D02*
X130640208Y-85509521D01*
X130640208Y-85223807D02*
X131640208Y-85223807D01*
X131640208Y-85223807D02*
X131497351Y-85319045D01*
X131497351Y-85319045D02*
X131402113Y-85414283D01*
X131402113Y-85414283D02*
X131354494Y-85509521D01*
X130735447Y-84509521D02*
X130687828Y-84461902D01*
X130687828Y-84461902D02*
X130640208Y-84509521D01*
X130640208Y-84509521D02*
X130687828Y-84557140D01*
X130687828Y-84557140D02*
X130735447Y-84509521D01*
X130735447Y-84509521D02*
X130640208Y-84509521D01*
X130640208Y-83509522D02*
X130640208Y-84080950D01*
X130640208Y-83795236D02*
X131640208Y-83795236D01*
X131640208Y-83795236D02*
X131497351Y-83890474D01*
X131497351Y-83890474D02*
X131402113Y-83985712D01*
X131402113Y-83985712D02*
X131354494Y-84080950D01*
G36*
X136896428Y-119079819D02*
G01*
X136608181Y-119079819D01*
X136539665Y-119045561D01*
X136509258Y-119015153D01*
X136475000Y-118946637D01*
X136475000Y-118839190D01*
X136509258Y-118770674D01*
X136535752Y-118744180D01*
X136650265Y-118706009D01*
X136896428Y-118706009D01*
X136896428Y-119079819D01*
G37*
G36*
X136896428Y-118556009D02*
G01*
X136655800Y-118556009D01*
X136587284Y-118521751D01*
X136556877Y-118491344D01*
X136522619Y-118422828D01*
X136522619Y-118363000D01*
X136556877Y-118294484D01*
X136587284Y-118264077D01*
X136655800Y-118229819D01*
X136896428Y-118229819D01*
X136896428Y-118556009D01*
G37*
G36*
X139300396Y-119340930D02*
G01*
X134499603Y-119340930D01*
X134499603Y-118964342D01*
X134610714Y-118964342D01*
X134610714Y-119011961D01*
X134612155Y-119026593D01*
X134613186Y-119029082D01*
X134613377Y-119031770D01*
X134618632Y-119045502D01*
X134666251Y-119140741D01*
X134667791Y-119143187D01*
X134668176Y-119144342D01*
X134669422Y-119145779D01*
X134674083Y-119153183D01*
X134681185Y-119159342D01*
X134687349Y-119166450D01*
X134694754Y-119171111D01*
X134696191Y-119172357D01*
X134697344Y-119172741D01*
X134699792Y-119174282D01*
X134795030Y-119221901D01*
X134808761Y-119227156D01*
X134811450Y-119227347D01*
X134813939Y-119228378D01*
X134828571Y-119229819D01*
X135019047Y-119229819D01*
X135033679Y-119228378D01*
X135036168Y-119227346D01*
X135038856Y-119227156D01*
X135052588Y-119221901D01*
X135147826Y-119174282D01*
X135160269Y-119166450D01*
X135179442Y-119144342D01*
X135188696Y-119116581D01*
X135186622Y-119087391D01*
X135173534Y-119061216D01*
X135151427Y-119042043D01*
X135123665Y-119032789D01*
X135094475Y-119034863D01*
X135080744Y-119040118D01*
X135001342Y-119079819D01*
X134846276Y-119079819D01*
X134789234Y-119051298D01*
X134760714Y-118994256D01*
X134760714Y-118982047D01*
X134789234Y-118925005D01*
X134846276Y-118896485D01*
X134971428Y-118896485D01*
X134986060Y-118895044D01*
X134988549Y-118894012D01*
X134991237Y-118893822D01*
X135004969Y-118888567D01*
X135100207Y-118840948D01*
X135102654Y-118839407D01*
X135103808Y-118839023D01*
X135105244Y-118837777D01*
X135112650Y-118833116D01*
X135118811Y-118826011D01*
X135125916Y-118819850D01*
X135130577Y-118812444D01*
X135131823Y-118811008D01*
X135132207Y-118809854D01*
X135133748Y-118807407D01*
X135181367Y-118712169D01*
X135186622Y-118698438D01*
X135186813Y-118695748D01*
X135187844Y-118693260D01*
X135189285Y-118678628D01*
X135189285Y-118631009D01*
X135187844Y-118616377D01*
X135186813Y-118613888D01*
X135186622Y-118611199D01*
X135181367Y-118597468D01*
X135133748Y-118502230D01*
X135132207Y-118499782D01*
X135131823Y-118498629D01*
X135130577Y-118497192D01*
X135125916Y-118489787D01*
X135124031Y-118488152D01*
X135467857Y-118488152D01*
X135467857Y-119154819D01*
X135469298Y-119169451D01*
X135480497Y-119196487D01*
X135501189Y-119217179D01*
X135528225Y-119228378D01*
X135557489Y-119228378D01*
X135584525Y-119217179D01*
X135603926Y-119197777D01*
X135652173Y-119221901D01*
X135665904Y-119227156D01*
X135668593Y-119227347D01*
X135671082Y-119228378D01*
X135685714Y-119229819D01*
X135828571Y-119229819D01*
X135843203Y-119228378D01*
X135845692Y-119227346D01*
X135848380Y-119227156D01*
X135862112Y-119221901D01*
X135957350Y-119174282D01*
X135959797Y-119172741D01*
X135960951Y-119172357D01*
X135962387Y-119171111D01*
X135969793Y-119166450D01*
X135975954Y-119159345D01*
X135983059Y-119153184D01*
X135987720Y-119145778D01*
X135988966Y-119144342D01*
X135989350Y-119143188D01*
X135990891Y-119140741D01*
X136038510Y-119045502D01*
X136043765Y-119031770D01*
X136043955Y-119029082D01*
X136044987Y-119026593D01*
X136046428Y-119011961D01*
X136046428Y-118821485D01*
X136325000Y-118821485D01*
X136325000Y-118964342D01*
X136326441Y-118978974D01*
X136327472Y-118981463D01*
X136327663Y-118984151D01*
X136332918Y-118997883D01*
X136380537Y-119093121D01*
X136384500Y-119099417D01*
X136385258Y-119101247D01*
X136386947Y-119103305D01*
X136388369Y-119105564D01*
X136389867Y-119106863D01*
X136394585Y-119112612D01*
X136442204Y-119160232D01*
X136447953Y-119164950D01*
X136449254Y-119166450D01*
X136451513Y-119167872D01*
X136453570Y-119169560D01*
X136455397Y-119170317D01*
X136461697Y-119174282D01*
X136556935Y-119221901D01*
X136570666Y-119227156D01*
X136573355Y-119227347D01*
X136575844Y-119228378D01*
X136590476Y-119229819D01*
X136971428Y-119229819D01*
X136986060Y-119228378D01*
X137013096Y-119217179D01*
X137033788Y-119196487D01*
X137044987Y-119169451D01*
X137046428Y-119154819D01*
X137046428Y-118154819D01*
X137372619Y-118154819D01*
X137372619Y-119154819D01*
X137374060Y-119169451D01*
X137385259Y-119196487D01*
X137405951Y-119217179D01*
X137432987Y-119228378D01*
X137462251Y-119228378D01*
X137489287Y-119217179D01*
X137509979Y-119196487D01*
X137521178Y-119169451D01*
X137522619Y-119154819D01*
X137522619Y-118492886D01*
X137712988Y-118900821D01*
X137716162Y-118906180D01*
X137716822Y-118907993D01*
X137717996Y-118909275D01*
X137720482Y-118913471D01*
X137728891Y-118921171D01*
X137736586Y-118929574D01*
X137739604Y-118930982D01*
X137742063Y-118933234D01*
X137752775Y-118937129D01*
X137763104Y-118941950D01*
X137766432Y-118942096D01*
X137769564Y-118943235D01*
X137780958Y-118942734D01*
X137792340Y-118943234D01*
X137795468Y-118942096D01*
X137798800Y-118941950D01*
X137809135Y-118937126D01*
X137819841Y-118933234D01*
X137822296Y-118930984D01*
X137825318Y-118929575D01*
X137833019Y-118921164D01*
X137841422Y-118913470D01*
X137843905Y-118909277D01*
X137845082Y-118907993D01*
X137845742Y-118906177D01*
X137848916Y-118900820D01*
X138039285Y-118492886D01*
X138039285Y-119154819D01*
X138040726Y-119169451D01*
X138051925Y-119196487D01*
X138072617Y-119217179D01*
X138099653Y-119228378D01*
X138128917Y-119228378D01*
X138155953Y-119217179D01*
X138176645Y-119196487D01*
X138187844Y-119169451D01*
X138189285Y-119154819D01*
X138189285Y-118869104D01*
X138467857Y-118869104D01*
X138467857Y-118964342D01*
X138469298Y-118978974D01*
X138470329Y-118981463D01*
X138470520Y-118984151D01*
X138475775Y-118997883D01*
X138523394Y-119093121D01*
X138527357Y-119099417D01*
X138528115Y-119101247D01*
X138529804Y-119103305D01*
X138531226Y-119105564D01*
X138532724Y-119106863D01*
X138537442Y-119112612D01*
X138585061Y-119160232D01*
X138590810Y-119164950D01*
X138592111Y-119166450D01*
X138594370Y-119167872D01*
X138596427Y-119169560D01*
X138598254Y-119170317D01*
X138604554Y-119174282D01*
X138699792Y-119221901D01*
X138713523Y-119227156D01*
X138716212Y-119227347D01*
X138718701Y-119228378D01*
X138733333Y-119229819D01*
X138971428Y-119229819D01*
X138978833Y-119229089D01*
X138980808Y-119229230D01*
X138983405Y-119228639D01*
X138986060Y-119228378D01*
X138987891Y-119227619D01*
X138995145Y-119225970D01*
X139138002Y-119178351D01*
X139151427Y-119172357D01*
X139173534Y-119153183D01*
X139186621Y-119127010D01*
X139188696Y-119097820D01*
X139179442Y-119070058D01*
X139160268Y-119047950D01*
X139134094Y-119034864D01*
X139104904Y-119032789D01*
X139090567Y-119036049D01*
X138959258Y-119079819D01*
X138751038Y-119079819D01*
X138682522Y-119045561D01*
X138652115Y-119015153D01*
X138617857Y-118946637D01*
X138617857Y-118886809D01*
X138652115Y-118818293D01*
X138682522Y-118787886D01*
X138759509Y-118749392D01*
X138941999Y-118703770D01*
X138943078Y-118703384D01*
X138943618Y-118703346D01*
X138949699Y-118701018D01*
X138955845Y-118698823D01*
X138956280Y-118698500D01*
X138957350Y-118698091D01*
X139052588Y-118650472D01*
X139058887Y-118646507D01*
X139060715Y-118645750D01*
X139062771Y-118644061D01*
X139065031Y-118642640D01*
X139066330Y-118641141D01*
X139072080Y-118636423D01*
X139119699Y-118588804D01*
X139124417Y-118583054D01*
X139125916Y-118581755D01*
X139127337Y-118579495D01*
X139129026Y-118577439D01*
X139129783Y-118575611D01*
X139133748Y-118569312D01*
X139181367Y-118474074D01*
X139186622Y-118460343D01*
X139186813Y-118457653D01*
X139187844Y-118455165D01*
X139189285Y-118440533D01*
X139189285Y-118345295D01*
X139187844Y-118330663D01*
X139186813Y-118328174D01*
X139186622Y-118325485D01*
X139181367Y-118311754D01*
X139133748Y-118216516D01*
X139129783Y-118210216D01*
X139129026Y-118208389D01*
X139127337Y-118206332D01*
X139125916Y-118204073D01*
X139124417Y-118202773D01*
X139119699Y-118197024D01*
X139072080Y-118149405D01*
X139066330Y-118144686D01*
X139065031Y-118143188D01*
X139062771Y-118141766D01*
X139060715Y-118140078D01*
X139058887Y-118139320D01*
X139052588Y-118135356D01*
X138957350Y-118087737D01*
X138943618Y-118082482D01*
X138940930Y-118082291D01*
X138938441Y-118081260D01*
X138923809Y-118079819D01*
X138685714Y-118079819D01*
X138678307Y-118080548D01*
X138676333Y-118080408D01*
X138673735Y-118080998D01*
X138671082Y-118081260D01*
X138669251Y-118082018D01*
X138661996Y-118083668D01*
X138519140Y-118131287D01*
X138505714Y-118137281D01*
X138483607Y-118156455D01*
X138470521Y-118182628D01*
X138468446Y-118211818D01*
X138477700Y-118239581D01*
X138496874Y-118261688D01*
X138523047Y-118274774D01*
X138552237Y-118276849D01*
X138566574Y-118273589D01*
X138697884Y-118229819D01*
X138906104Y-118229819D01*
X138974620Y-118264077D01*
X139005027Y-118294484D01*
X139039285Y-118363000D01*
X139039285Y-118422828D01*
X139005027Y-118491344D01*
X138974620Y-118521751D01*
X138897633Y-118560244D01*
X138715143Y-118605867D01*
X138714063Y-118606252D01*
X138713523Y-118606291D01*
X138707433Y-118608621D01*
X138701297Y-118610814D01*
X138700861Y-118611136D01*
X138699792Y-118611546D01*
X138604554Y-118659165D01*
X138598254Y-118663129D01*
X138596427Y-118663887D01*
X138594370Y-118665575D01*
X138592111Y-118666997D01*
X138590811Y-118668495D01*
X138585062Y-118673214D01*
X138537443Y-118720833D01*
X138532724Y-118726582D01*
X138531226Y-118727882D01*
X138529804Y-118730141D01*
X138528116Y-118732198D01*
X138527358Y-118734025D01*
X138523394Y-118740325D01*
X138475775Y-118835563D01*
X138470520Y-118849295D01*
X138470329Y-118851982D01*
X138469298Y-118854472D01*
X138467857Y-118869104D01*
X138189285Y-118869104D01*
X138189285Y-118154819D01*
X138188337Y-118145197D01*
X138188415Y-118143431D01*
X138188070Y-118142482D01*
X138187844Y-118140187D01*
X138182862Y-118128160D01*
X138178415Y-118115930D01*
X138177285Y-118114696D01*
X138176645Y-118113151D01*
X138167445Y-118103951D01*
X138158651Y-118094348D01*
X138157134Y-118093640D01*
X138155953Y-118092459D01*
X138143940Y-118087482D01*
X138132133Y-118081973D01*
X138130460Y-118081899D01*
X138128917Y-118081260D01*
X138115911Y-118081260D01*
X138102897Y-118080688D01*
X138101324Y-118081260D01*
X138099653Y-118081260D01*
X138087634Y-118086238D01*
X138075396Y-118090689D01*
X138074162Y-118091819D01*
X138072617Y-118092459D01*
X138063418Y-118101657D01*
X138053815Y-118110452D01*
X138052639Y-118112436D01*
X138051925Y-118113151D01*
X138051248Y-118114784D01*
X138046321Y-118123102D01*
X137780951Y-118691750D01*
X137515583Y-118123103D01*
X137510657Y-118114787D01*
X137509979Y-118113151D01*
X137509263Y-118112435D01*
X137508089Y-118110453D01*
X137498492Y-118101664D01*
X137489287Y-118092459D01*
X137487741Y-118091818D01*
X137486508Y-118090689D01*
X137474277Y-118086241D01*
X137462251Y-118081260D01*
X137460577Y-118081260D01*
X137459007Y-118080689D01*
X137446006Y-118081260D01*
X137432987Y-118081260D01*
X137431442Y-118081899D01*
X137429771Y-118081973D01*
X137417972Y-118087479D01*
X137405951Y-118092459D01*
X137404768Y-118093641D01*
X137403253Y-118094349D01*
X137394464Y-118103945D01*
X137385259Y-118113151D01*
X137384618Y-118114696D01*
X137383489Y-118115930D01*
X137379041Y-118128160D01*
X137374060Y-118140187D01*
X137373833Y-118142482D01*
X137373489Y-118143431D01*
X137373566Y-118145197D01*
X137372619Y-118154819D01*
X137046428Y-118154819D01*
X137044987Y-118140187D01*
X137033788Y-118113151D01*
X137013096Y-118092459D01*
X136986060Y-118081260D01*
X136971428Y-118079819D01*
X136638095Y-118079819D01*
X136623463Y-118081260D01*
X136620974Y-118082290D01*
X136618285Y-118082482D01*
X136604554Y-118087737D01*
X136509316Y-118135356D01*
X136503016Y-118139320D01*
X136501189Y-118140078D01*
X136499132Y-118141766D01*
X136496873Y-118143188D01*
X136495573Y-118144686D01*
X136489824Y-118149405D01*
X136442205Y-118197024D01*
X136437486Y-118202773D01*
X136435988Y-118204073D01*
X136434566Y-118206332D01*
X136432878Y-118208389D01*
X136432120Y-118210216D01*
X136428156Y-118216516D01*
X136380537Y-118311754D01*
X136375282Y-118325486D01*
X136375091Y-118328173D01*
X136374060Y-118330663D01*
X136372619Y-118345295D01*
X136372619Y-118440533D01*
X136374060Y-118455165D01*
X136375091Y-118457654D01*
X136375282Y-118460342D01*
X136380537Y-118474074D01*
X136428156Y-118569312D01*
X136432120Y-118575611D01*
X136432878Y-118577439D01*
X136434566Y-118579495D01*
X136435988Y-118581755D01*
X136437486Y-118583054D01*
X136442205Y-118588804D01*
X136464162Y-118610761D01*
X136458095Y-118613471D01*
X136456058Y-118615237D01*
X136453570Y-118616268D01*
X136442205Y-118625595D01*
X136394586Y-118673214D01*
X136389867Y-118678963D01*
X136388369Y-118680263D01*
X136386947Y-118682522D01*
X136385259Y-118684579D01*
X136384501Y-118686406D01*
X136380537Y-118692706D01*
X136332918Y-118787944D01*
X136327663Y-118801676D01*
X136327472Y-118804363D01*
X136326441Y-118806853D01*
X136325000Y-118821485D01*
X136046428Y-118821485D01*
X136046428Y-118488152D01*
X136044987Y-118473520D01*
X136033788Y-118446484D01*
X136013096Y-118425792D01*
X135986060Y-118414593D01*
X135956796Y-118414593D01*
X135929760Y-118425792D01*
X135909068Y-118446484D01*
X135897869Y-118473520D01*
X135896428Y-118488152D01*
X135896428Y-118994256D01*
X135867907Y-119051298D01*
X135810866Y-119079819D01*
X135703419Y-119079819D01*
X135634903Y-119045561D01*
X135617857Y-119028514D01*
X135617857Y-118488152D01*
X135616416Y-118473520D01*
X135605217Y-118446484D01*
X135584525Y-118425792D01*
X135557489Y-118414593D01*
X135528225Y-118414593D01*
X135501189Y-118425792D01*
X135480497Y-118446484D01*
X135469298Y-118473520D01*
X135467857Y-118488152D01*
X135124031Y-118488152D01*
X135118811Y-118483625D01*
X135112650Y-118476521D01*
X135105244Y-118471859D01*
X135103808Y-118470614D01*
X135102654Y-118470229D01*
X135100207Y-118468689D01*
X135004969Y-118421070D01*
X134991237Y-118415815D01*
X134988549Y-118415624D01*
X134986060Y-118414593D01*
X134971428Y-118413152D01*
X134828571Y-118413152D01*
X134813939Y-118414593D01*
X134811450Y-118415623D01*
X134808761Y-118415815D01*
X134795030Y-118421070D01*
X134699792Y-118468689D01*
X134687349Y-118476521D01*
X134668176Y-118498629D01*
X134658922Y-118526390D01*
X134660996Y-118555580D01*
X134674083Y-118581755D01*
X134696191Y-118600928D01*
X134723952Y-118610182D01*
X134753142Y-118608108D01*
X134766874Y-118602853D01*
X134846276Y-118563152D01*
X134953723Y-118563152D01*
X135010764Y-118591672D01*
X135039285Y-118648714D01*
X135039285Y-118660923D01*
X135010764Y-118717964D01*
X134953723Y-118746485D01*
X134828571Y-118746485D01*
X134813939Y-118747926D01*
X134811450Y-118748956D01*
X134808761Y-118749148D01*
X134795030Y-118754403D01*
X134699792Y-118802022D01*
X134697344Y-118803562D01*
X134696191Y-118803947D01*
X134694754Y-118805192D01*
X134687349Y-118809854D01*
X134681187Y-118816958D01*
X134674083Y-118823120D01*
X134669421Y-118830525D01*
X134668176Y-118831962D01*
X134667791Y-118833115D01*
X134666251Y-118835563D01*
X134618632Y-118930801D01*
X134613377Y-118944533D01*
X134613186Y-118947220D01*
X134612155Y-118949710D01*
X134610714Y-118964342D01*
X134499603Y-118964342D01*
X134499603Y-117968708D01*
X139300396Y-117968708D01*
X139300396Y-119340930D01*
G37*
X130662295Y-113733333D02*
X131233723Y-113733333D01*
X131233723Y-113733333D02*
X131348009Y-113695238D01*
X131348009Y-113695238D02*
X131424200Y-113619047D01*
X131424200Y-113619047D02*
X131462295Y-113504762D01*
X131462295Y-113504762D02*
X131462295Y-113428571D01*
X130738485Y-114076190D02*
X130700390Y-114114286D01*
X130700390Y-114114286D02*
X130662295Y-114190476D01*
X130662295Y-114190476D02*
X130662295Y-114380952D01*
X130662295Y-114380952D02*
X130700390Y-114457143D01*
X130700390Y-114457143D02*
X130738485Y-114495238D01*
X130738485Y-114495238D02*
X130814676Y-114533333D01*
X130814676Y-114533333D02*
X130890866Y-114533333D01*
X130890866Y-114533333D02*
X131005152Y-114495238D01*
X131005152Y-114495238D02*
X131462295Y-114038095D01*
X131462295Y-114038095D02*
X131462295Y-114533333D01*
X144986104Y-102885714D02*
X145024200Y-102847618D01*
X145024200Y-102847618D02*
X145062295Y-102733333D01*
X145062295Y-102733333D02*
X145062295Y-102657142D01*
X145062295Y-102657142D02*
X145024200Y-102542856D01*
X145024200Y-102542856D02*
X144948009Y-102466666D01*
X144948009Y-102466666D02*
X144871819Y-102428571D01*
X144871819Y-102428571D02*
X144719438Y-102390475D01*
X144719438Y-102390475D02*
X144605152Y-102390475D01*
X144605152Y-102390475D02*
X144452771Y-102428571D01*
X144452771Y-102428571D02*
X144376580Y-102466666D01*
X144376580Y-102466666D02*
X144300390Y-102542856D01*
X144300390Y-102542856D02*
X144262295Y-102657142D01*
X144262295Y-102657142D02*
X144262295Y-102733333D01*
X144262295Y-102733333D02*
X144300390Y-102847618D01*
X144300390Y-102847618D02*
X144338485Y-102885714D01*
X145062295Y-103647618D02*
X145062295Y-103190475D01*
X145062295Y-103419047D02*
X144262295Y-103419047D01*
X144262295Y-103419047D02*
X144376580Y-103342856D01*
X144376580Y-103342856D02*
X144452771Y-103266666D01*
X144452771Y-103266666D02*
X144490866Y-103190475D01*
X144338485Y-103952380D02*
X144300390Y-103990476D01*
X144300390Y-103990476D02*
X144262295Y-104066666D01*
X144262295Y-104066666D02*
X144262295Y-104257142D01*
X144262295Y-104257142D02*
X144300390Y-104333333D01*
X144300390Y-104333333D02*
X144338485Y-104371428D01*
X144338485Y-104371428D02*
X144414676Y-104409523D01*
X144414676Y-104409523D02*
X144490866Y-104409523D01*
X144490866Y-104409523D02*
X144605152Y-104371428D01*
X144605152Y-104371428D02*
X145062295Y-103914285D01*
X145062295Y-103914285D02*
X145062295Y-104409523D01*
X142833332Y-98386104D02*
X142871428Y-98424200D01*
X142871428Y-98424200D02*
X142985713Y-98462295D01*
X142985713Y-98462295D02*
X143061904Y-98462295D01*
X143061904Y-98462295D02*
X143176190Y-98424200D01*
X143176190Y-98424200D02*
X143252380Y-98348009D01*
X143252380Y-98348009D02*
X143290475Y-98271819D01*
X143290475Y-98271819D02*
X143328571Y-98119438D01*
X143328571Y-98119438D02*
X143328571Y-98005152D01*
X143328571Y-98005152D02*
X143290475Y-97852771D01*
X143290475Y-97852771D02*
X143252380Y-97776580D01*
X143252380Y-97776580D02*
X143176190Y-97700390D01*
X143176190Y-97700390D02*
X143061904Y-97662295D01*
X143061904Y-97662295D02*
X142985713Y-97662295D01*
X142985713Y-97662295D02*
X142871428Y-97700390D01*
X142871428Y-97700390D02*
X142833332Y-97738485D01*
X142528571Y-97738485D02*
X142490475Y-97700390D01*
X142490475Y-97700390D02*
X142414285Y-97662295D01*
X142414285Y-97662295D02*
X142223809Y-97662295D01*
X142223809Y-97662295D02*
X142147618Y-97700390D01*
X142147618Y-97700390D02*
X142109523Y-97738485D01*
X142109523Y-97738485D02*
X142071428Y-97814676D01*
X142071428Y-97814676D02*
X142071428Y-97890866D01*
X142071428Y-97890866D02*
X142109523Y-98005152D01*
X142109523Y-98005152D02*
X142566666Y-98462295D01*
X142566666Y-98462295D02*
X142071428Y-98462295D01*
X138662295Y-103385714D02*
X138281342Y-103119047D01*
X138662295Y-102928571D02*
X137862295Y-102928571D01*
X137862295Y-102928571D02*
X137862295Y-103233333D01*
X137862295Y-103233333D02*
X137900390Y-103309523D01*
X137900390Y-103309523D02*
X137938485Y-103347618D01*
X137938485Y-103347618D02*
X138014676Y-103385714D01*
X138014676Y-103385714D02*
X138128961Y-103385714D01*
X138128961Y-103385714D02*
X138205152Y-103347618D01*
X138205152Y-103347618D02*
X138243247Y-103309523D01*
X138243247Y-103309523D02*
X138281342Y-103233333D01*
X138281342Y-103233333D02*
X138281342Y-102928571D01*
X138662295Y-104147618D02*
X138662295Y-103690475D01*
X138662295Y-103919047D02*
X137862295Y-103919047D01*
X137862295Y-103919047D02*
X137976580Y-103842856D01*
X137976580Y-103842856D02*
X138052771Y-103766666D01*
X138052771Y-103766666D02*
X138090866Y-103690475D01*
X137938485Y-104452380D02*
X137900390Y-104490476D01*
X137900390Y-104490476D02*
X137862295Y-104566666D01*
X137862295Y-104566666D02*
X137862295Y-104757142D01*
X137862295Y-104757142D02*
X137900390Y-104833333D01*
X137900390Y-104833333D02*
X137938485Y-104871428D01*
X137938485Y-104871428D02*
X138014676Y-104909523D01*
X138014676Y-104909523D02*
X138090866Y-104909523D01*
X138090866Y-104909523D02*
X138205152Y-104871428D01*
X138205152Y-104871428D02*
X138662295Y-104414285D01*
X138662295Y-104414285D02*
X138662295Y-104909523D01*
X138662295Y-100185714D02*
X138281342Y-99919047D01*
X138662295Y-99728571D02*
X137862295Y-99728571D01*
X137862295Y-99728571D02*
X137862295Y-100033333D01*
X137862295Y-100033333D02*
X137900390Y-100109523D01*
X137900390Y-100109523D02*
X137938485Y-100147618D01*
X137938485Y-100147618D02*
X138014676Y-100185714D01*
X138014676Y-100185714D02*
X138128961Y-100185714D01*
X138128961Y-100185714D02*
X138205152Y-100147618D01*
X138205152Y-100147618D02*
X138243247Y-100109523D01*
X138243247Y-100109523D02*
X138281342Y-100033333D01*
X138281342Y-100033333D02*
X138281342Y-99728571D01*
X138662295Y-100947618D02*
X138662295Y-100490475D01*
X138662295Y-100719047D02*
X137862295Y-100719047D01*
X137862295Y-100719047D02*
X137976580Y-100642856D01*
X137976580Y-100642856D02*
X138052771Y-100566666D01*
X138052771Y-100566666D02*
X138090866Y-100490475D01*
X137862295Y-101442857D02*
X137862295Y-101519047D01*
X137862295Y-101519047D02*
X137900390Y-101595238D01*
X137900390Y-101595238D02*
X137938485Y-101633333D01*
X137938485Y-101633333D02*
X138014676Y-101671428D01*
X138014676Y-101671428D02*
X138167057Y-101709523D01*
X138167057Y-101709523D02*
X138357533Y-101709523D01*
X138357533Y-101709523D02*
X138509914Y-101671428D01*
X138509914Y-101671428D02*
X138586104Y-101633333D01*
X138586104Y-101633333D02*
X138624200Y-101595238D01*
X138624200Y-101595238D02*
X138662295Y-101519047D01*
X138662295Y-101519047D02*
X138662295Y-101442857D01*
X138662295Y-101442857D02*
X138624200Y-101366666D01*
X138624200Y-101366666D02*
X138586104Y-101328571D01*
X138586104Y-101328571D02*
X138509914Y-101290476D01*
X138509914Y-101290476D02*
X138357533Y-101252380D01*
X138357533Y-101252380D02*
X138167057Y-101252380D01*
X138167057Y-101252380D02*
X138014676Y-101290476D01*
X138014676Y-101290476D02*
X137938485Y-101328571D01*
X137938485Y-101328571D02*
X137900390Y-101366666D01*
X137900390Y-101366666D02*
X137862295Y-101442857D01*
X167333332Y-94762295D02*
X167599999Y-94381342D01*
X167790475Y-94762295D02*
X167790475Y-93962295D01*
X167790475Y-93962295D02*
X167485713Y-93962295D01*
X167485713Y-93962295D02*
X167409523Y-94000390D01*
X167409523Y-94000390D02*
X167371428Y-94038485D01*
X167371428Y-94038485D02*
X167333332Y-94114676D01*
X167333332Y-94114676D02*
X167333332Y-94228961D01*
X167333332Y-94228961D02*
X167371428Y-94305152D01*
X167371428Y-94305152D02*
X167409523Y-94343247D01*
X167409523Y-94343247D02*
X167485713Y-94381342D01*
X167485713Y-94381342D02*
X167790475Y-94381342D01*
X166647618Y-94228961D02*
X166647618Y-94762295D01*
X166838094Y-93924200D02*
X167028571Y-94495628D01*
X167028571Y-94495628D02*
X166533332Y-94495628D01*
X146562295Y-85733333D02*
X147133723Y-85733333D01*
X147133723Y-85733333D02*
X147248009Y-85695238D01*
X147248009Y-85695238D02*
X147324200Y-85619047D01*
X147324200Y-85619047D02*
X147362295Y-85504762D01*
X147362295Y-85504762D02*
X147362295Y-85428571D01*
X147362295Y-86533333D02*
X147362295Y-86076190D01*
X147362295Y-86304762D02*
X146562295Y-86304762D01*
X146562295Y-86304762D02*
X146676580Y-86228571D01*
X146676580Y-86228571D02*
X146752771Y-86152381D01*
X146752771Y-86152381D02*
X146790866Y-86076190D01*
X133745180Y-96309524D02*
X134745180Y-96309524D01*
X134364228Y-96309524D02*
X134411847Y-96214286D01*
X134411847Y-96214286D02*
X134411847Y-96023810D01*
X134411847Y-96023810D02*
X134364228Y-95928572D01*
X134364228Y-95928572D02*
X134316609Y-95880953D01*
X134316609Y-95880953D02*
X134221371Y-95833334D01*
X134221371Y-95833334D02*
X133935657Y-95833334D01*
X133935657Y-95833334D02*
X133840419Y-95880953D01*
X133840419Y-95880953D02*
X133792800Y-95928572D01*
X133792800Y-95928572D02*
X133745180Y-96023810D01*
X133745180Y-96023810D02*
X133745180Y-96214286D01*
X133745180Y-96214286D02*
X133792800Y-96309524D01*
X133745180Y-95261905D02*
X133792800Y-95357143D01*
X133792800Y-95357143D02*
X133888038Y-95404762D01*
X133888038Y-95404762D02*
X134745180Y-95404762D01*
X133745180Y-94738095D02*
X133792800Y-94833333D01*
X133792800Y-94833333D02*
X133840419Y-94880952D01*
X133840419Y-94880952D02*
X133935657Y-94928571D01*
X133935657Y-94928571D02*
X134221371Y-94928571D01*
X134221371Y-94928571D02*
X134316609Y-94880952D01*
X134316609Y-94880952D02*
X134364228Y-94833333D01*
X134364228Y-94833333D02*
X134411847Y-94738095D01*
X134411847Y-94738095D02*
X134411847Y-94595238D01*
X134411847Y-94595238D02*
X134364228Y-94500000D01*
X134364228Y-94500000D02*
X134316609Y-94452381D01*
X134316609Y-94452381D02*
X134221371Y-94404762D01*
X134221371Y-94404762D02*
X133935657Y-94404762D01*
X133935657Y-94404762D02*
X133840419Y-94452381D01*
X133840419Y-94452381D02*
X133792800Y-94500000D01*
X133792800Y-94500000D02*
X133745180Y-94595238D01*
X133745180Y-94595238D02*
X133745180Y-94738095D01*
X133792800Y-93547619D02*
X133745180Y-93642857D01*
X133745180Y-93642857D02*
X133745180Y-93833333D01*
X133745180Y-93833333D02*
X133792800Y-93928571D01*
X133792800Y-93928571D02*
X133840419Y-93976190D01*
X133840419Y-93976190D02*
X133935657Y-94023809D01*
X133935657Y-94023809D02*
X134221371Y-94023809D01*
X134221371Y-94023809D02*
X134316609Y-93976190D01*
X134316609Y-93976190D02*
X134364228Y-93928571D01*
X134364228Y-93928571D02*
X134411847Y-93833333D01*
X134411847Y-93833333D02*
X134411847Y-93642857D01*
X134411847Y-93642857D02*
X134364228Y-93547619D01*
X133745180Y-93119047D02*
X134745180Y-93119047D01*
X134126133Y-93023809D02*
X133745180Y-92738095D01*
X134411847Y-92738095D02*
X134030895Y-93119047D01*
X134411847Y-92404761D02*
X133745180Y-92214285D01*
X133745180Y-92214285D02*
X134221371Y-92023809D01*
X134221371Y-92023809D02*
X133745180Y-91833333D01*
X133745180Y-91833333D02*
X134411847Y-91642857D01*
X133745180Y-91119047D02*
X133792800Y-91214285D01*
X133792800Y-91214285D02*
X133840419Y-91261904D01*
X133840419Y-91261904D02*
X133935657Y-91309523D01*
X133935657Y-91309523D02*
X134221371Y-91309523D01*
X134221371Y-91309523D02*
X134316609Y-91261904D01*
X134316609Y-91261904D02*
X134364228Y-91214285D01*
X134364228Y-91214285D02*
X134411847Y-91119047D01*
X134411847Y-91119047D02*
X134411847Y-90976190D01*
X134411847Y-90976190D02*
X134364228Y-90880952D01*
X134364228Y-90880952D02*
X134316609Y-90833333D01*
X134316609Y-90833333D02*
X134221371Y-90785714D01*
X134221371Y-90785714D02*
X133935657Y-90785714D01*
X133935657Y-90785714D02*
X133840419Y-90833333D01*
X133840419Y-90833333D02*
X133792800Y-90880952D01*
X133792800Y-90880952D02*
X133745180Y-90976190D01*
X133745180Y-90976190D02*
X133745180Y-91119047D01*
X133745180Y-90357142D02*
X134411847Y-90357142D01*
X134221371Y-90357142D02*
X134316609Y-90309523D01*
X134316609Y-90309523D02*
X134364228Y-90261904D01*
X134364228Y-90261904D02*
X134411847Y-90166666D01*
X134411847Y-90166666D02*
X134411847Y-90071428D01*
X133745180Y-89738094D02*
X134745180Y-89738094D01*
X134126133Y-89642856D02*
X133745180Y-89357142D01*
X134411847Y-89357142D02*
X134030895Y-89738094D01*
X133792800Y-88547618D02*
X133745180Y-88642856D01*
X133745180Y-88642856D02*
X133745180Y-88833332D01*
X133745180Y-88833332D02*
X133792800Y-88928570D01*
X133792800Y-88928570D02*
X133888038Y-88976189D01*
X133888038Y-88976189D02*
X134268990Y-88976189D01*
X134268990Y-88976189D02*
X134364228Y-88928570D01*
X134364228Y-88928570D02*
X134411847Y-88833332D01*
X134411847Y-88833332D02*
X134411847Y-88642856D01*
X134411847Y-88642856D02*
X134364228Y-88547618D01*
X134364228Y-88547618D02*
X134268990Y-88499999D01*
X134268990Y-88499999D02*
X134173752Y-88499999D01*
X134173752Y-88499999D02*
X134078514Y-88976189D01*
X133745180Y-88071427D02*
X134411847Y-88071427D01*
X134221371Y-88071427D02*
X134316609Y-88023808D01*
X134316609Y-88023808D02*
X134364228Y-87976189D01*
X134364228Y-87976189D02*
X134411847Y-87880951D01*
X134411847Y-87880951D02*
X134411847Y-87785713D01*
X133840419Y-87452379D02*
X133792800Y-87404760D01*
X133792800Y-87404760D02*
X133745180Y-87452379D01*
X133745180Y-87452379D02*
X133792800Y-87499998D01*
X133792800Y-87499998D02*
X133840419Y-87452379D01*
X133840419Y-87452379D02*
X133745180Y-87452379D01*
X133745180Y-86547618D02*
X134745180Y-86547618D01*
X133792800Y-86547618D02*
X133745180Y-86642856D01*
X133745180Y-86642856D02*
X133745180Y-86833332D01*
X133745180Y-86833332D02*
X133792800Y-86928570D01*
X133792800Y-86928570D02*
X133840419Y-86976189D01*
X133840419Y-86976189D02*
X133935657Y-87023808D01*
X133935657Y-87023808D02*
X134221371Y-87023808D01*
X134221371Y-87023808D02*
X134316609Y-86976189D01*
X134316609Y-86976189D02*
X134364228Y-86928570D01*
X134364228Y-86928570D02*
X134411847Y-86833332D01*
X134411847Y-86833332D02*
X134411847Y-86642856D01*
X134411847Y-86642856D02*
X134364228Y-86547618D01*
X133792800Y-85690475D02*
X133745180Y-85785713D01*
X133745180Y-85785713D02*
X133745180Y-85976189D01*
X133745180Y-85976189D02*
X133792800Y-86071427D01*
X133792800Y-86071427D02*
X133888038Y-86119046D01*
X133888038Y-86119046D02*
X134268990Y-86119046D01*
X134268990Y-86119046D02*
X134364228Y-86071427D01*
X134364228Y-86071427D02*
X134411847Y-85976189D01*
X134411847Y-85976189D02*
X134411847Y-85785713D01*
X134411847Y-85785713D02*
X134364228Y-85690475D01*
X134364228Y-85690475D02*
X134268990Y-85642856D01*
X134268990Y-85642856D02*
X134173752Y-85642856D01*
X134173752Y-85642856D02*
X134078514Y-86119046D01*
X135907085Y-97619048D02*
X135954704Y-97714287D01*
X135954704Y-97714287D02*
X135954704Y-97904763D01*
X135954704Y-97904763D02*
X135907085Y-98000001D01*
X135907085Y-98000001D02*
X135811847Y-98095239D01*
X135811847Y-98095239D02*
X135716609Y-98142858D01*
X135716609Y-98142858D02*
X135526133Y-98142858D01*
X135526133Y-98142858D02*
X135430895Y-98095239D01*
X135430895Y-98095239D02*
X135335657Y-98000001D01*
X135335657Y-98000001D02*
X135288038Y-97904763D01*
X135288038Y-97904763D02*
X135288038Y-97714287D01*
X135288038Y-97714287D02*
X135335657Y-97619048D01*
X136288038Y-97809525D02*
X136240419Y-98047620D01*
X136240419Y-98047620D02*
X136097561Y-98285715D01*
X136097561Y-98285715D02*
X135859466Y-98428572D01*
X135859466Y-98428572D02*
X135621371Y-98476191D01*
X135621371Y-98476191D02*
X135383276Y-98428572D01*
X135383276Y-98428572D02*
X135145180Y-98285715D01*
X135145180Y-98285715D02*
X135002323Y-98047620D01*
X135002323Y-98047620D02*
X134954704Y-97809525D01*
X134954704Y-97809525D02*
X135002323Y-97571429D01*
X135002323Y-97571429D02*
X135145180Y-97333334D01*
X135145180Y-97333334D02*
X135383276Y-97190477D01*
X135383276Y-97190477D02*
X135621371Y-97142858D01*
X135621371Y-97142858D02*
X135859466Y-97190477D01*
X135859466Y-97190477D02*
X136097561Y-97333334D01*
X136097561Y-97333334D02*
X136240419Y-97571429D01*
X136240419Y-97571429D02*
X136288038Y-97809525D01*
X136049942Y-96761905D02*
X136097561Y-96714286D01*
X136097561Y-96714286D02*
X136145180Y-96619048D01*
X136145180Y-96619048D02*
X136145180Y-96380953D01*
X136145180Y-96380953D02*
X136097561Y-96285715D01*
X136097561Y-96285715D02*
X136049942Y-96238096D01*
X136049942Y-96238096D02*
X135954704Y-96190477D01*
X135954704Y-96190477D02*
X135859466Y-96190477D01*
X135859466Y-96190477D02*
X135716609Y-96238096D01*
X135716609Y-96238096D02*
X135145180Y-96809524D01*
X135145180Y-96809524D02*
X135145180Y-96190477D01*
X136145180Y-95571429D02*
X136145180Y-95476191D01*
X136145180Y-95476191D02*
X136097561Y-95380953D01*
X136097561Y-95380953D02*
X136049942Y-95333334D01*
X136049942Y-95333334D02*
X135954704Y-95285715D01*
X135954704Y-95285715D02*
X135764228Y-95238096D01*
X135764228Y-95238096D02*
X135526133Y-95238096D01*
X135526133Y-95238096D02*
X135335657Y-95285715D01*
X135335657Y-95285715D02*
X135240419Y-95333334D01*
X135240419Y-95333334D02*
X135192800Y-95380953D01*
X135192800Y-95380953D02*
X135145180Y-95476191D01*
X135145180Y-95476191D02*
X135145180Y-95571429D01*
X135145180Y-95571429D02*
X135192800Y-95666667D01*
X135192800Y-95666667D02*
X135240419Y-95714286D01*
X135240419Y-95714286D02*
X135335657Y-95761905D01*
X135335657Y-95761905D02*
X135526133Y-95809524D01*
X135526133Y-95809524D02*
X135764228Y-95809524D01*
X135764228Y-95809524D02*
X135954704Y-95761905D01*
X135954704Y-95761905D02*
X136049942Y-95714286D01*
X136049942Y-95714286D02*
X136097561Y-95666667D01*
X136097561Y-95666667D02*
X136145180Y-95571429D01*
X136049942Y-94857143D02*
X136097561Y-94809524D01*
X136097561Y-94809524D02*
X136145180Y-94714286D01*
X136145180Y-94714286D02*
X136145180Y-94476191D01*
X136145180Y-94476191D02*
X136097561Y-94380953D01*
X136097561Y-94380953D02*
X136049942Y-94333334D01*
X136049942Y-94333334D02*
X135954704Y-94285715D01*
X135954704Y-94285715D02*
X135859466Y-94285715D01*
X135859466Y-94285715D02*
X135716609Y-94333334D01*
X135716609Y-94333334D02*
X135145180Y-94904762D01*
X135145180Y-94904762D02*
X135145180Y-94285715D01*
X135811847Y-93428572D02*
X135145180Y-93428572D01*
X136192800Y-93666667D02*
X135478514Y-93904762D01*
X135478514Y-93904762D02*
X135478514Y-93285715D01*
X135668990Y-91809524D02*
X135621371Y-91666667D01*
X135621371Y-91666667D02*
X135573752Y-91619048D01*
X135573752Y-91619048D02*
X135478514Y-91571429D01*
X135478514Y-91571429D02*
X135335657Y-91571429D01*
X135335657Y-91571429D02*
X135240419Y-91619048D01*
X135240419Y-91619048D02*
X135192800Y-91666667D01*
X135192800Y-91666667D02*
X135145180Y-91761905D01*
X135145180Y-91761905D02*
X135145180Y-92142857D01*
X135145180Y-92142857D02*
X136145180Y-92142857D01*
X136145180Y-92142857D02*
X136145180Y-91809524D01*
X136145180Y-91809524D02*
X136097561Y-91714286D01*
X136097561Y-91714286D02*
X136049942Y-91666667D01*
X136049942Y-91666667D02*
X135954704Y-91619048D01*
X135954704Y-91619048D02*
X135859466Y-91619048D01*
X135859466Y-91619048D02*
X135764228Y-91666667D01*
X135764228Y-91666667D02*
X135716609Y-91714286D01*
X135716609Y-91714286D02*
X135668990Y-91809524D01*
X135668990Y-91809524D02*
X135668990Y-92142857D01*
X135145180Y-91000000D02*
X135192800Y-91095238D01*
X135192800Y-91095238D02*
X135288038Y-91142857D01*
X135288038Y-91142857D02*
X136145180Y-91142857D01*
X135145180Y-90476190D02*
X135192800Y-90571428D01*
X135192800Y-90571428D02*
X135240419Y-90619047D01*
X135240419Y-90619047D02*
X135335657Y-90666666D01*
X135335657Y-90666666D02*
X135621371Y-90666666D01*
X135621371Y-90666666D02*
X135716609Y-90619047D01*
X135716609Y-90619047D02*
X135764228Y-90571428D01*
X135764228Y-90571428D02*
X135811847Y-90476190D01*
X135811847Y-90476190D02*
X135811847Y-90333333D01*
X135811847Y-90333333D02*
X135764228Y-90238095D01*
X135764228Y-90238095D02*
X135716609Y-90190476D01*
X135716609Y-90190476D02*
X135621371Y-90142857D01*
X135621371Y-90142857D02*
X135335657Y-90142857D01*
X135335657Y-90142857D02*
X135240419Y-90190476D01*
X135240419Y-90190476D02*
X135192800Y-90238095D01*
X135192800Y-90238095D02*
X135145180Y-90333333D01*
X135145180Y-90333333D02*
X135145180Y-90476190D01*
X135192800Y-89285714D02*
X135145180Y-89380952D01*
X135145180Y-89380952D02*
X135145180Y-89571428D01*
X135145180Y-89571428D02*
X135192800Y-89666666D01*
X135192800Y-89666666D02*
X135240419Y-89714285D01*
X135240419Y-89714285D02*
X135335657Y-89761904D01*
X135335657Y-89761904D02*
X135621371Y-89761904D01*
X135621371Y-89761904D02*
X135716609Y-89714285D01*
X135716609Y-89714285D02*
X135764228Y-89666666D01*
X135764228Y-89666666D02*
X135811847Y-89571428D01*
X135811847Y-89571428D02*
X135811847Y-89380952D01*
X135811847Y-89380952D02*
X135764228Y-89285714D01*
X135145180Y-88857142D02*
X136145180Y-88857142D01*
X135526133Y-88761904D02*
X135145180Y-88476190D01*
X135811847Y-88476190D02*
X135430895Y-88857142D01*
X136145180Y-88142856D02*
X135145180Y-87904761D01*
X135145180Y-87904761D02*
X135859466Y-87714285D01*
X135859466Y-87714285D02*
X135145180Y-87523809D01*
X135145180Y-87523809D02*
X136145180Y-87285714D01*
X135145180Y-86761904D02*
X135192800Y-86857142D01*
X135192800Y-86857142D02*
X135240419Y-86904761D01*
X135240419Y-86904761D02*
X135335657Y-86952380D01*
X135335657Y-86952380D02*
X135621371Y-86952380D01*
X135621371Y-86952380D02*
X135716609Y-86904761D01*
X135716609Y-86904761D02*
X135764228Y-86857142D01*
X135764228Y-86857142D02*
X135811847Y-86761904D01*
X135811847Y-86761904D02*
X135811847Y-86619047D01*
X135811847Y-86619047D02*
X135764228Y-86523809D01*
X135764228Y-86523809D02*
X135716609Y-86476190D01*
X135716609Y-86476190D02*
X135621371Y-86428571D01*
X135621371Y-86428571D02*
X135335657Y-86428571D01*
X135335657Y-86428571D02*
X135240419Y-86476190D01*
X135240419Y-86476190D02*
X135192800Y-86523809D01*
X135192800Y-86523809D02*
X135145180Y-86619047D01*
X135145180Y-86619047D02*
X135145180Y-86761904D01*
X135145180Y-85999999D02*
X135811847Y-85999999D01*
X135621371Y-85999999D02*
X135716609Y-85952380D01*
X135716609Y-85952380D02*
X135764228Y-85904761D01*
X135764228Y-85904761D02*
X135811847Y-85809523D01*
X135811847Y-85809523D02*
X135811847Y-85714285D01*
X135145180Y-85380951D02*
X136145180Y-85380951D01*
X135526133Y-85285713D02*
X135145180Y-84999999D01*
X135811847Y-84999999D02*
X135430895Y-85380951D01*
X135192800Y-84190475D02*
X135145180Y-84285713D01*
X135145180Y-84285713D02*
X135145180Y-84476189D01*
X135145180Y-84476189D02*
X135192800Y-84571427D01*
X135192800Y-84571427D02*
X135288038Y-84619046D01*
X135288038Y-84619046D02*
X135668990Y-84619046D01*
X135668990Y-84619046D02*
X135764228Y-84571427D01*
X135764228Y-84571427D02*
X135811847Y-84476189D01*
X135811847Y-84476189D02*
X135811847Y-84285713D01*
X135811847Y-84285713D02*
X135764228Y-84190475D01*
X135764228Y-84190475D02*
X135668990Y-84142856D01*
X135668990Y-84142856D02*
X135573752Y-84142856D01*
X135573752Y-84142856D02*
X135478514Y-84619046D01*
X135145180Y-83714284D02*
X135811847Y-83714284D01*
X135621371Y-83714284D02*
X135716609Y-83666665D01*
X135716609Y-83666665D02*
X135764228Y-83619046D01*
X135764228Y-83619046D02*
X135811847Y-83523808D01*
X135811847Y-83523808D02*
X135811847Y-83428570D01*
X140962295Y-103266667D02*
X140581342Y-103000000D01*
X140962295Y-102809524D02*
X140162295Y-102809524D01*
X140162295Y-102809524D02*
X140162295Y-103114286D01*
X140162295Y-103114286D02*
X140200390Y-103190476D01*
X140200390Y-103190476D02*
X140238485Y-103228571D01*
X140238485Y-103228571D02*
X140314676Y-103266667D01*
X140314676Y-103266667D02*
X140428961Y-103266667D01*
X140428961Y-103266667D02*
X140505152Y-103228571D01*
X140505152Y-103228571D02*
X140543247Y-103190476D01*
X140543247Y-103190476D02*
X140581342Y-103114286D01*
X140581342Y-103114286D02*
X140581342Y-102809524D01*
X140962295Y-104028571D02*
X140962295Y-103571428D01*
X140962295Y-103800000D02*
X140162295Y-103800000D01*
X140162295Y-103800000D02*
X140276580Y-103723809D01*
X140276580Y-103723809D02*
X140352771Y-103647619D01*
X140352771Y-103647619D02*
X140390866Y-103571428D01*
X132762295Y-102766667D02*
X132381342Y-102500000D01*
X132762295Y-102309524D02*
X131962295Y-102309524D01*
X131962295Y-102309524D02*
X131962295Y-102614286D01*
X131962295Y-102614286D02*
X132000390Y-102690476D01*
X132000390Y-102690476D02*
X132038485Y-102728571D01*
X132038485Y-102728571D02*
X132114676Y-102766667D01*
X132114676Y-102766667D02*
X132228961Y-102766667D01*
X132228961Y-102766667D02*
X132305152Y-102728571D01*
X132305152Y-102728571D02*
X132343247Y-102690476D01*
X132343247Y-102690476D02*
X132381342Y-102614286D01*
X132381342Y-102614286D02*
X132381342Y-102309524D01*
X132762295Y-103147619D02*
X132762295Y-103300000D01*
X132762295Y-103300000D02*
X132724200Y-103376190D01*
X132724200Y-103376190D02*
X132686104Y-103414286D01*
X132686104Y-103414286D02*
X132571819Y-103490476D01*
X132571819Y-103490476D02*
X132419438Y-103528571D01*
X132419438Y-103528571D02*
X132114676Y-103528571D01*
X132114676Y-103528571D02*
X132038485Y-103490476D01*
X132038485Y-103490476D02*
X132000390Y-103452381D01*
X132000390Y-103452381D02*
X131962295Y-103376190D01*
X131962295Y-103376190D02*
X131962295Y-103223809D01*
X131962295Y-103223809D02*
X132000390Y-103147619D01*
X132000390Y-103147619D02*
X132038485Y-103109524D01*
X132038485Y-103109524D02*
X132114676Y-103071428D01*
X132114676Y-103071428D02*
X132305152Y-103071428D01*
X132305152Y-103071428D02*
X132381342Y-103109524D01*
X132381342Y-103109524D02*
X132419438Y-103147619D01*
X132419438Y-103147619D02*
X132457533Y-103223809D01*
X132457533Y-103223809D02*
X132457533Y-103376190D01*
X132457533Y-103376190D02*
X132419438Y-103452381D01*
X132419438Y-103452381D02*
X132381342Y-103490476D01*
X132381342Y-103490476D02*
X132305152Y-103528571D01*
X164041666Y-96462295D02*
X164041666Y-97033723D01*
X164041666Y-97033723D02*
X164079761Y-97148009D01*
X164079761Y-97148009D02*
X164155952Y-97224200D01*
X164155952Y-97224200D02*
X164270237Y-97262295D01*
X164270237Y-97262295D02*
X164346428Y-97262295D01*
X163736904Y-96462295D02*
X163241666Y-96462295D01*
X163241666Y-96462295D02*
X163508332Y-96767057D01*
X163508332Y-96767057D02*
X163394047Y-96767057D01*
X163394047Y-96767057D02*
X163317856Y-96805152D01*
X163317856Y-96805152D02*
X163279761Y-96843247D01*
X163279761Y-96843247D02*
X163241666Y-96919438D01*
X163241666Y-96919438D02*
X163241666Y-97109914D01*
X163241666Y-97109914D02*
X163279761Y-97186104D01*
X163279761Y-97186104D02*
X163317856Y-97224200D01*
X163317856Y-97224200D02*
X163394047Y-97262295D01*
X163394047Y-97262295D02*
X163622618Y-97262295D01*
X163622618Y-97262295D02*
X163698809Y-97224200D01*
X163698809Y-97224200D02*
X163736904Y-97186104D01*
X138646785Y-99086104D02*
X138684881Y-99124200D01*
X138684881Y-99124200D02*
X138799166Y-99162295D01*
X138799166Y-99162295D02*
X138875357Y-99162295D01*
X138875357Y-99162295D02*
X138989643Y-99124200D01*
X138989643Y-99124200D02*
X139065833Y-99048009D01*
X139065833Y-99048009D02*
X139103928Y-98971819D01*
X139103928Y-98971819D02*
X139142024Y-98819438D01*
X139142024Y-98819438D02*
X139142024Y-98705152D01*
X139142024Y-98705152D02*
X139103928Y-98552771D01*
X139103928Y-98552771D02*
X139065833Y-98476580D01*
X139065833Y-98476580D02*
X138989643Y-98400390D01*
X138989643Y-98400390D02*
X138875357Y-98362295D01*
X138875357Y-98362295D02*
X138799166Y-98362295D01*
X138799166Y-98362295D02*
X138684881Y-98400390D01*
X138684881Y-98400390D02*
X138646785Y-98438485D01*
X137884881Y-99162295D02*
X138342024Y-99162295D01*
X138113452Y-99162295D02*
X138113452Y-98362295D01*
X138113452Y-98362295D02*
X138189643Y-98476580D01*
X138189643Y-98476580D02*
X138265833Y-98552771D01*
X138265833Y-98552771D02*
X138342024Y-98590866D01*
X137427738Y-98705152D02*
X137503928Y-98667057D01*
X137503928Y-98667057D02*
X137542023Y-98628961D01*
X137542023Y-98628961D02*
X137580119Y-98552771D01*
X137580119Y-98552771D02*
X137580119Y-98514676D01*
X137580119Y-98514676D02*
X137542023Y-98438485D01*
X137542023Y-98438485D02*
X137503928Y-98400390D01*
X137503928Y-98400390D02*
X137427738Y-98362295D01*
X137427738Y-98362295D02*
X137275357Y-98362295D01*
X137275357Y-98362295D02*
X137199166Y-98400390D01*
X137199166Y-98400390D02*
X137161071Y-98438485D01*
X137161071Y-98438485D02*
X137122976Y-98514676D01*
X137122976Y-98514676D02*
X137122976Y-98552771D01*
X137122976Y-98552771D02*
X137161071Y-98628961D01*
X137161071Y-98628961D02*
X137199166Y-98667057D01*
X137199166Y-98667057D02*
X137275357Y-98705152D01*
X137275357Y-98705152D02*
X137427738Y-98705152D01*
X137427738Y-98705152D02*
X137503928Y-98743247D01*
X137503928Y-98743247D02*
X137542023Y-98781342D01*
X137542023Y-98781342D02*
X137580119Y-98857533D01*
X137580119Y-98857533D02*
X137580119Y-99009914D01*
X137580119Y-99009914D02*
X137542023Y-99086104D01*
X137542023Y-99086104D02*
X137503928Y-99124200D01*
X137503928Y-99124200D02*
X137427738Y-99162295D01*
X137427738Y-99162295D02*
X137275357Y-99162295D01*
X137275357Y-99162295D02*
X137199166Y-99124200D01*
X137199166Y-99124200D02*
X137161071Y-99086104D01*
X137161071Y-99086104D02*
X137122976Y-99009914D01*
X137122976Y-99009914D02*
X137122976Y-98857533D01*
X137122976Y-98857533D02*
X137161071Y-98781342D01*
X137161071Y-98781342D02*
X137199166Y-98743247D01*
X137199166Y-98743247D02*
X137275357Y-98705152D01*
X152562295Y-117733333D02*
X153133723Y-117733333D01*
X153133723Y-117733333D02*
X153248009Y-117695238D01*
X153248009Y-117695238D02*
X153324200Y-117619047D01*
X153324200Y-117619047D02*
X153362295Y-117504762D01*
X153362295Y-117504762D02*
X153362295Y-117428571D01*
X152828961Y-118457143D02*
X153362295Y-118457143D01*
X152524200Y-118266667D02*
X153095628Y-118076190D01*
X153095628Y-118076190D02*
X153095628Y-118571429D01*
X134562295Y-101266667D02*
X134181342Y-101000000D01*
X134562295Y-100809524D02*
X133762295Y-100809524D01*
X133762295Y-100809524D02*
X133762295Y-101114286D01*
X133762295Y-101114286D02*
X133800390Y-101190476D01*
X133800390Y-101190476D02*
X133838485Y-101228571D01*
X133838485Y-101228571D02*
X133914676Y-101266667D01*
X133914676Y-101266667D02*
X134028961Y-101266667D01*
X134028961Y-101266667D02*
X134105152Y-101228571D01*
X134105152Y-101228571D02*
X134143247Y-101190476D01*
X134143247Y-101190476D02*
X134181342Y-101114286D01*
X134181342Y-101114286D02*
X134181342Y-100809524D01*
X134105152Y-101723809D02*
X134067057Y-101647619D01*
X134067057Y-101647619D02*
X134028961Y-101609524D01*
X134028961Y-101609524D02*
X133952771Y-101571428D01*
X133952771Y-101571428D02*
X133914676Y-101571428D01*
X133914676Y-101571428D02*
X133838485Y-101609524D01*
X133838485Y-101609524D02*
X133800390Y-101647619D01*
X133800390Y-101647619D02*
X133762295Y-101723809D01*
X133762295Y-101723809D02*
X133762295Y-101876190D01*
X133762295Y-101876190D02*
X133800390Y-101952381D01*
X133800390Y-101952381D02*
X133838485Y-101990476D01*
X133838485Y-101990476D02*
X133914676Y-102028571D01*
X133914676Y-102028571D02*
X133952771Y-102028571D01*
X133952771Y-102028571D02*
X134028961Y-101990476D01*
X134028961Y-101990476D02*
X134067057Y-101952381D01*
X134067057Y-101952381D02*
X134105152Y-101876190D01*
X134105152Y-101876190D02*
X134105152Y-101723809D01*
X134105152Y-101723809D02*
X134143247Y-101647619D01*
X134143247Y-101647619D02*
X134181342Y-101609524D01*
X134181342Y-101609524D02*
X134257533Y-101571428D01*
X134257533Y-101571428D02*
X134409914Y-101571428D01*
X134409914Y-101571428D02*
X134486104Y-101609524D01*
X134486104Y-101609524D02*
X134524200Y-101647619D01*
X134524200Y-101647619D02*
X134562295Y-101723809D01*
X134562295Y-101723809D02*
X134562295Y-101876190D01*
X134562295Y-101876190D02*
X134524200Y-101952381D01*
X134524200Y-101952381D02*
X134486104Y-101990476D01*
X134486104Y-101990476D02*
X134409914Y-102028571D01*
X134409914Y-102028571D02*
X134257533Y-102028571D01*
X134257533Y-102028571D02*
X134181342Y-101990476D01*
X134181342Y-101990476D02*
X134143247Y-101952381D01*
X134143247Y-101952381D02*
X134105152Y-101876190D01*
X141362295Y-93785714D02*
X140981342Y-93519047D01*
X141362295Y-93328571D02*
X140562295Y-93328571D01*
X140562295Y-93328571D02*
X140562295Y-93633333D01*
X140562295Y-93633333D02*
X140600390Y-93709523D01*
X140600390Y-93709523D02*
X140638485Y-93747618D01*
X140638485Y-93747618D02*
X140714676Y-93785714D01*
X140714676Y-93785714D02*
X140828961Y-93785714D01*
X140828961Y-93785714D02*
X140905152Y-93747618D01*
X140905152Y-93747618D02*
X140943247Y-93709523D01*
X140943247Y-93709523D02*
X140981342Y-93633333D01*
X140981342Y-93633333D02*
X140981342Y-93328571D01*
X141362295Y-94547618D02*
X141362295Y-94090475D01*
X141362295Y-94319047D02*
X140562295Y-94319047D01*
X140562295Y-94319047D02*
X140676580Y-94242856D01*
X140676580Y-94242856D02*
X140752771Y-94166666D01*
X140752771Y-94166666D02*
X140790866Y-94090475D01*
X140562295Y-94814285D02*
X140562295Y-95309523D01*
X140562295Y-95309523D02*
X140867057Y-95042857D01*
X140867057Y-95042857D02*
X140867057Y-95157142D01*
X140867057Y-95157142D02*
X140905152Y-95233333D01*
X140905152Y-95233333D02*
X140943247Y-95271428D01*
X140943247Y-95271428D02*
X141019438Y-95309523D01*
X141019438Y-95309523D02*
X141209914Y-95309523D01*
X141209914Y-95309523D02*
X141286104Y-95271428D01*
X141286104Y-95271428D02*
X141324200Y-95233333D01*
X141324200Y-95233333D02*
X141362295Y-95157142D01*
X141362295Y-95157142D02*
X141362295Y-94928571D01*
X141362295Y-94928571D02*
X141324200Y-94852380D01*
X141324200Y-94852380D02*
X141286104Y-94814285D01*
X138772023Y-92212295D02*
X138772023Y-92859914D01*
X138772023Y-92859914D02*
X138733928Y-92936104D01*
X138733928Y-92936104D02*
X138695833Y-92974200D01*
X138695833Y-92974200D02*
X138619642Y-93012295D01*
X138619642Y-93012295D02*
X138467261Y-93012295D01*
X138467261Y-93012295D02*
X138391071Y-92974200D01*
X138391071Y-92974200D02*
X138352976Y-92936104D01*
X138352976Y-92936104D02*
X138314880Y-92859914D01*
X138314880Y-92859914D02*
X138314880Y-92212295D01*
X137972024Y-92288485D02*
X137933928Y-92250390D01*
X137933928Y-92250390D02*
X137857738Y-92212295D01*
X137857738Y-92212295D02*
X137667262Y-92212295D01*
X137667262Y-92212295D02*
X137591071Y-92250390D01*
X137591071Y-92250390D02*
X137552976Y-92288485D01*
X137552976Y-92288485D02*
X137514881Y-92364676D01*
X137514881Y-92364676D02*
X137514881Y-92440866D01*
X137514881Y-92440866D02*
X137552976Y-92555152D01*
X137552976Y-92555152D02*
X138010119Y-93012295D01*
X138010119Y-93012295D02*
X137514881Y-93012295D01*
X142390475Y-109962295D02*
X142390475Y-109162295D01*
X142390475Y-109162295D02*
X142199999Y-109162295D01*
X142199999Y-109162295D02*
X142085713Y-109200390D01*
X142085713Y-109200390D02*
X142009523Y-109276580D01*
X142009523Y-109276580D02*
X141971428Y-109352771D01*
X141971428Y-109352771D02*
X141933332Y-109505152D01*
X141933332Y-109505152D02*
X141933332Y-109619438D01*
X141933332Y-109619438D02*
X141971428Y-109771819D01*
X141971428Y-109771819D02*
X142009523Y-109848009D01*
X142009523Y-109848009D02*
X142085713Y-109924200D01*
X142085713Y-109924200D02*
X142199999Y-109962295D01*
X142199999Y-109962295D02*
X142390475Y-109962295D01*
X141171428Y-109962295D02*
X141628571Y-109962295D01*
X141399999Y-109962295D02*
X141399999Y-109162295D01*
X141399999Y-109162295D02*
X141476190Y-109276580D01*
X141476190Y-109276580D02*
X141552380Y-109352771D01*
X141552380Y-109352771D02*
X141628571Y-109390866D01*
X132962295Y-104366667D02*
X132581342Y-104100000D01*
X132962295Y-103909524D02*
X132162295Y-103909524D01*
X132162295Y-103909524D02*
X132162295Y-104214286D01*
X132162295Y-104214286D02*
X132200390Y-104290476D01*
X132200390Y-104290476D02*
X132238485Y-104328571D01*
X132238485Y-104328571D02*
X132314676Y-104366667D01*
X132314676Y-104366667D02*
X132428961Y-104366667D01*
X132428961Y-104366667D02*
X132505152Y-104328571D01*
X132505152Y-104328571D02*
X132543247Y-104290476D01*
X132543247Y-104290476D02*
X132581342Y-104214286D01*
X132581342Y-104214286D02*
X132581342Y-103909524D01*
X132162295Y-105052381D02*
X132162295Y-104900000D01*
X132162295Y-104900000D02*
X132200390Y-104823809D01*
X132200390Y-104823809D02*
X132238485Y-104785714D01*
X132238485Y-104785714D02*
X132352771Y-104709524D01*
X132352771Y-104709524D02*
X132505152Y-104671428D01*
X132505152Y-104671428D02*
X132809914Y-104671428D01*
X132809914Y-104671428D02*
X132886104Y-104709524D01*
X132886104Y-104709524D02*
X132924200Y-104747619D01*
X132924200Y-104747619D02*
X132962295Y-104823809D01*
X132962295Y-104823809D02*
X132962295Y-104976190D01*
X132962295Y-104976190D02*
X132924200Y-105052381D01*
X132924200Y-105052381D02*
X132886104Y-105090476D01*
X132886104Y-105090476D02*
X132809914Y-105128571D01*
X132809914Y-105128571D02*
X132619438Y-105128571D01*
X132619438Y-105128571D02*
X132543247Y-105090476D01*
X132543247Y-105090476D02*
X132505152Y-105052381D01*
X132505152Y-105052381D02*
X132467057Y-104976190D01*
X132467057Y-104976190D02*
X132467057Y-104823809D01*
X132467057Y-104823809D02*
X132505152Y-104747619D01*
X132505152Y-104747619D02*
X132543247Y-104709524D01*
X132543247Y-104709524D02*
X132619438Y-104671428D01*
%TO.C,J2*%
X130500000Y-109150000D02*
X130500000Y-112650000D01*
X130500000Y-112650000D02*
X131950000Y-112650000D01*
X131950000Y-105700000D02*
X131950000Y-109150000D01*
X131950000Y-109150000D02*
X130500000Y-109150000D01*
X131950000Y-112650000D02*
X131950000Y-116100000D01*
X131950000Y-116100000D02*
X138050000Y-116100000D01*
X138050000Y-105700000D02*
X131950000Y-105700000D01*
X138050000Y-116100000D02*
X138050000Y-105700000D01*
D12*
%TO.C,C12*%
X142890000Y-103540580D02*
X142890000Y-103259420D01*
X143910000Y-103540580D02*
X143910000Y-103259420D01*
%TO.C,C2*%
X141438748Y-98965000D02*
X141961252Y-98965000D01*
X141438748Y-100435000D02*
X141961252Y-100435000D01*
%TO.C,R12*%
X136477500Y-103662742D02*
X136477500Y-104137258D01*
X137522500Y-103662742D02*
X137522500Y-104137258D01*
%TO.C,R10*%
X136477500Y-101037258D02*
X136477500Y-100562742D01*
X137522500Y-101037258D02*
X137522500Y-100562742D01*
%TO.C,R4*%
X167437258Y-95177500D02*
X166962742Y-95177500D01*
X167437258Y-96222500D02*
X166962742Y-96222500D01*
%TO.C,J1*%
D10*
X158750000Y-91300000D02*
X154050000Y-91300000D01*
X154050000Y-90625000D01*
X158750000Y-90625000D01*
X158750000Y-91300000D01*
G36*
X158750000Y-91300000D02*
G01*
X154050000Y-91300000D01*
X154050000Y-90625000D01*
X158750000Y-90625000D01*
X158750000Y-91300000D01*
G37*
X153650000Y-81900000D02*
X159150000Y-81900000D01*
X159150000Y-80650000D01*
X166000000Y-80650000D01*
X166000000Y-82950000D01*
X165100000Y-82950000D01*
X165100000Y-89000000D01*
X166000000Y-89000000D01*
X166000000Y-91300000D01*
X146800000Y-91300000D01*
X146800000Y-89000000D01*
X147700000Y-89000000D01*
X147700000Y-82950000D01*
X146800000Y-82950000D01*
X146800000Y-80650000D01*
X153650000Y-80650000D01*
X153650000Y-81900000D01*
D12*
%TO.C,R1*%
X141277500Y-103162742D02*
X141277500Y-103637258D01*
X142322500Y-103162742D02*
X142322500Y-103637258D01*
%TO.C,R9*%
X133277500Y-104137258D02*
X133277500Y-103662742D01*
X134322500Y-104137258D02*
X134322500Y-103662742D01*
%TO.C,J3*%
D10*
X169100000Y-103950000D02*
X168425000Y-103950000D01*
X168425000Y-108650000D01*
X169100000Y-108650000D01*
X169100000Y-103950000D01*
G36*
X169100000Y-103950000D02*
G01*
X168425000Y-103950000D01*
X168425000Y-108650000D01*
X169100000Y-108650000D01*
X169100000Y-103950000D01*
G37*
X160750000Y-97600000D02*
X166800000Y-97600000D01*
X166800000Y-96700000D01*
X169100000Y-96700000D01*
X169100000Y-115900000D01*
X166800000Y-115900000D01*
X166800000Y-115000000D01*
X160750000Y-115000000D01*
X160750000Y-115900000D01*
X158450000Y-115900000D01*
X158450000Y-109050000D01*
X159700000Y-109050000D01*
X159700000Y-103550000D01*
X158450000Y-103550000D01*
X158450000Y-96700000D01*
X160750000Y-96700000D01*
X160750000Y-97600000D01*
D12*
%TO.C,C18*%
X137991920Y-97065000D02*
X138273080Y-97065000D01*
X137991920Y-98085000D02*
X138273080Y-98085000D01*
D10*
%TO.C,J4*%
X141725000Y-115387500D02*
X142775000Y-115387500D01*
X141725000Y-116212500D02*
X141725000Y-115387500D01*
X141775000Y-119425000D02*
X150025000Y-119425000D01*
X150075000Y-115387500D02*
X149025000Y-115387500D01*
X150075000Y-116212500D02*
X150075000Y-115387500D01*
D12*
%TO.C,R8*%
X134877500Y-101037258D02*
X134877500Y-100562742D01*
X135922500Y-101037258D02*
X135922500Y-100562742D01*
%TO.C,R13*%
X140477500Y-97262258D02*
X140477500Y-96787742D01*
X141522500Y-97262258D02*
X141522500Y-96787742D01*
%TO.C,U2*%
X137512500Y-93490000D02*
X138162500Y-93490000D01*
X137512500Y-96610000D02*
X138162500Y-96610000D01*
X138812500Y-93490000D02*
X138162500Y-93490000D01*
X138812500Y-96610000D02*
X138162500Y-96610000D01*
X139325000Y-93540000D02*
X139085000Y-93210000D01*
X139565000Y-93210000D01*
X139325000Y-93540000D01*
G36*
X139325000Y-93540000D02*
G01*
X139085000Y-93210000D01*
X139565000Y-93210000D01*
X139325000Y-93540000D01*
G37*
%TO.C,D1*%
X140240000Y-106350000D02*
X140240000Y-107000000D01*
X140240000Y-107650000D02*
X140240000Y-107000000D01*
X143360000Y-106350000D02*
X143360000Y-107000000D01*
X143360000Y-107650000D02*
X143360000Y-107000000D01*
X140290000Y-105837500D02*
X139960000Y-106077500D01*
X139960000Y-105597500D01*
X140290000Y-105837500D01*
G36*
X140290000Y-105837500D02*
G01*
X139960000Y-106077500D01*
X139960000Y-105597500D01*
X140290000Y-105837500D01*
G37*
%TO.C,R6*%
X134877500Y-103662742D02*
X134877500Y-104137258D01*
X135922500Y-103662742D02*
X135922500Y-104137258D01*
%TD*%
%LPC*%
D13*
X145300000Y-96500000D02*
X146400000Y-96500000D01*
X146400000Y-99800000D01*
X145300000Y-99800000D01*
X145300000Y-96500000D01*
G36*
X145300000Y-96500000D02*
G01*
X146400000Y-96500000D01*
X146400000Y-99800000D01*
X145300000Y-99800000D01*
X145300000Y-96500000D01*
G37*
D10*
%TO.C,REF\u002A\u002A*%
X141600000Y-83650000D02*
X141600000Y-89950000D01*
X141000000Y-90550000D01*
X137400000Y-90550000D01*
X136800000Y-89950000D01*
X136800000Y-83650000D01*
X137400000Y-83050000D01*
X141000000Y-83050000D01*
X141600000Y-83650000D01*
D14*
G36*
X141000000Y-87550000D02*
G01*
X141000000Y-89950000D01*
X139500000Y-89950000D01*
X139500000Y-89350000D01*
X140400000Y-89350000D01*
X140400000Y-88150000D01*
X140100000Y-87850000D01*
X139800000Y-87850000D01*
X139500000Y-88150000D01*
X139500000Y-87250000D01*
X140700000Y-87250000D01*
X141000000Y-87550000D01*
G37*
G36*
X139500000Y-89950000D02*
G01*
X137400000Y-89950000D01*
X137400000Y-88150000D01*
X138000000Y-88150000D01*
X138000000Y-89350000D01*
X138900000Y-89350000D01*
X138900000Y-88150000D01*
X138600000Y-87850000D01*
X138300000Y-87850000D01*
X138000000Y-88150000D01*
X137400000Y-88150000D01*
X137400000Y-87550000D01*
X137700000Y-87250000D01*
X138900000Y-87250000D01*
X139200000Y-87550000D01*
X139500000Y-87250000D01*
X139500000Y-89350000D01*
X139500000Y-89950000D01*
G37*
G36*
X141000000Y-83950000D02*
G01*
X141000000Y-84250000D01*
X138600000Y-84250000D01*
X138300000Y-84550000D01*
X138600000Y-84850000D01*
X140700000Y-84850000D01*
X141000000Y-85150000D01*
X140700000Y-85450000D01*
X138600000Y-85450000D01*
X138300000Y-85750000D01*
X138600000Y-86050000D01*
X141000000Y-86050000D01*
X141000000Y-86350000D01*
X140700000Y-86650000D01*
X137700000Y-86650000D01*
X137400000Y-86350000D01*
X137400000Y-85450000D01*
X137700000Y-85150000D01*
X137400000Y-84850000D01*
X137400000Y-83950000D01*
X137700000Y-83650000D01*
X140700000Y-83650000D01*
X141000000Y-83950000D01*
G37*
%TD*%
D15*
%TO.C,J5*%
X156000000Y-117500000D03*
%TD*%
%TO.C,J6*%
X144500000Y-84700000D03*
%TD*%
D16*
%TO.C,J2*%
X133440000Y-110900000D03*
D17*
X134700000Y-113000000D03*
X134700000Y-108800000D03*
%TD*%
D18*
%TO.C,C12*%
X143400000Y-102625000D03*
X143400000Y-104175000D03*
%TD*%
D19*
%TO.C,C2*%
X142650000Y-99700000D03*
X140750000Y-99700000D03*
%TD*%
D20*
%TO.C,R12*%
X137000000Y-104725000D03*
X137000000Y-103075000D03*
%TD*%
D21*
%TO.C,R10*%
X137000000Y-99975000D03*
X137000000Y-101625000D03*
%TD*%
D22*
%TO.C,R4*%
X166375000Y-95700000D03*
X168025000Y-95700000D03*
%TD*%
D23*
%TO.C,J1*%
X151350000Y-86400000D03*
X153650000Y-86400000D03*
X159150000Y-86400000D03*
X161450000Y-86400000D03*
D24*
X152750000Y-83025000D03*
X156400000Y-83025000D03*
X160050000Y-83025000D03*
X149150000Y-90200000D03*
D25*
X151100000Y-90200000D03*
X161700000Y-90200000D03*
D24*
X163650000Y-90200000D03*
X149150000Y-81750000D03*
D25*
X151100000Y-81750000D03*
X161700000Y-81750000D03*
D24*
X163650000Y-81750000D03*
%TD*%
D20*
%TO.C,R1*%
X141800000Y-104225000D03*
X141800000Y-102575000D03*
%TD*%
D21*
%TO.C,R9*%
X133800000Y-103075000D03*
X133800000Y-104725000D03*
%TD*%
D23*
%TO.C,J3*%
X164200000Y-111350000D03*
X164200000Y-109050000D03*
X164200000Y-103550000D03*
X164200000Y-101250000D03*
D24*
X160825000Y-109950000D03*
X160825000Y-106300000D03*
X160825000Y-102650000D03*
X168000000Y-113550000D03*
D25*
X168000000Y-111600000D03*
X168000000Y-101000000D03*
D24*
X168000000Y-99050000D03*
X159550000Y-113550000D03*
D25*
X159550000Y-111600000D03*
X159550000Y-101000000D03*
D24*
X159550000Y-99050000D03*
%TD*%
D26*
%TO.C,C18*%
X138907500Y-97575000D03*
X137357500Y-97575000D03*
%TD*%
D27*
%TO.C,J4*%
X143400000Y-114950000D03*
X144650000Y-114950000D03*
X145900000Y-114950000D03*
X147150000Y-114950000D03*
X148400000Y-114950000D03*
D28*
X150950000Y-117850000D03*
X140850000Y-117850000D03*
%TD*%
D21*
%TO.C,R8*%
X135400000Y-99975000D03*
X135400000Y-101625000D03*
%TD*%
%TO.C,R13*%
X141000000Y-96200000D03*
X141000000Y-97850000D03*
%TD*%
D29*
%TO.C,U2*%
X139100000Y-94100000D03*
X139100000Y-96000000D03*
X137225000Y-95050000D03*
%TD*%
D30*
%TO.C,D1*%
X140850000Y-106062500D03*
X142750000Y-106062500D03*
X141800000Y-107937500D03*
%TD*%
D20*
%TO.C,R6*%
X135400000Y-104725000D03*
X135400000Y-103075000D03*
%TD*%
%LPD*%
M02*
