%TF.GenerationSoftware,KiCad,Pcbnew,9.0.1*%
%TF.CreationDate,2025-04-26T18:30:10+02:00*%
%TF.ProjectId,BatteryCharger,42617474-6572-4794-9368-61726765722e,rev?*%
%TF.SameCoordinates,Original*%
%TF.FileFunction,Legend,Top*%
%TF.FilePolarity,Positive*%
%FSLAX46Y46*%
G04 Gerber Fmt 4.6, Leading zero omitted, Abs format (unit mm)*
G04 Created by KiCad (PCBNEW 9.0.1) date 2025-04-26 18:30:10*
%MOMM*%
%LPD*%
G01*
G04 APERTURE LIST*
G04 Aperture macros list*
%AMRoundRect*
0 Rectangle with rounded corners*
0 $1 Rounding radius*
0 $2 $3 $4 $5 $6 $7 $8 $9 X,Y pos of 4 corners*
0 Add a 4 corners polygon primitive as box body*
4,1,4,$2,$3,$4,$5,$6,$7,$8,$9,$2,$3,0*
0 Add four circle primitives for the rounded corners*
1,1,$1+$1,$2,$3*
1,1,$1+$1,$4,$5*
1,1,$1+$1,$6,$7*
1,1,$1+$1,$8,$9*
0 Add four rect primitives between the rounded corners*
20,1,$1+$1,$2,$3,$4,$5,0*
20,1,$1+$1,$4,$5,$6,$7,0*
20,1,$1+$1,$6,$7,$8,$9,0*
20,1,$1+$1,$8,$9,$2,$3,0*%
%AMFreePoly0*
4,1,53,0.519509,1.693079,0.555557,1.678147,0.583147,1.650557,0.598079,1.614509,0.600000,1.595000,0.600000,-1.495000,0.598079,-1.514509,0.583147,-1.550557,0.555557,-1.578147,0.519509,-1.593079,0.500000,-1.595000,-0.437500,-1.595000,-0.499686,-1.582630,-0.552405,-1.547405,-0.587630,-1.494686,-0.600000,-1.432500,-0.600000,-1.107500,-0.587630,-1.045314,-0.552405,-0.992595,-0.499686,-0.957370,
-0.437500,-0.945000,-0.100000,-0.945000,-0.100000,-0.325000,-0.437500,-0.325000,-0.499686,-0.312630,-0.552405,-0.277405,-0.587630,-0.224686,-0.600000,-0.162500,-0.600000,0.162500,-0.587630,0.224686,-0.552405,0.277405,-0.499686,0.312630,-0.437500,0.325000,-0.100000,0.325000,-0.100000,0.945000,-0.437500,0.945000,-0.499686,0.957370,-0.552405,0.992595,-0.587630,1.045314,-0.600000,1.107500,
-0.600000,1.432500,-0.587630,1.494686,-0.552405,1.547405,-0.499686,1.582630,-0.437500,1.595000,-0.100000,1.595000,-0.098079,1.614509,-0.083147,1.650557,-0.055557,1.678147,-0.019509,1.693079,0.000000,1.695000,0.500000,1.695000,0.519509,1.693079,0.519509,1.693079,$1*%
G04 Aperture macros list end*
%ADD10C,0.150000*%
%ADD11C,0.120000*%
%ADD12C,4.000000*%
%ADD13C,0.100000*%
%ADD14C,3.500000*%
%ADD15C,0.200000*%
%ADD16RoundRect,0.225000X0.225000X0.250000X-0.225000X0.250000X-0.225000X-0.250000X0.225000X-0.250000X0*%
%ADD17RoundRect,0.825000X-0.825000X-2.775000X0.825000X-2.775000X0.825000X2.775000X-0.825000X2.775000X0*%
%ADD18RoundRect,0.250000X-0.250000X-1.450000X0.250000X-1.450000X0.250000X1.450000X-0.250000X1.450000X0*%
%ADD19R,0.610000X1.270000*%
%ADD20R,3.910000X3.810000*%
%ADD21R,0.610000X1.020000*%
%ADD22RoundRect,0.150000X-0.150000X0.350000X-0.150000X-0.350000X0.150000X-0.350000X0.150000X0.350000X0*%
%ADD23R,0.626000X0.610000*%
%ADD24R,4.061000X4.200000*%
%ADD25R,0.500000X0.510000*%
%ADD26RoundRect,0.250000X0.250000X0.475000X-0.250000X0.475000X-0.250000X-0.475000X0.250000X-0.475000X0*%
%ADD27O,0.240000X0.700000*%
%ADD28O,0.700000X0.240000*%
%ADD29R,2.049999X2.049999*%
%ADD30RoundRect,0.250000X-1.100000X0.325000X-1.100000X-0.325000X1.100000X-0.325000X1.100000X0.325000X0*%
%ADD31RoundRect,0.200000X-0.275000X0.200000X-0.275000X-0.200000X0.275000X-0.200000X0.275000X0.200000X0*%
%ADD32RoundRect,0.225000X0.250000X-0.225000X0.250000X0.225000X-0.250000X0.225000X-0.250000X-0.225000X0*%
%ADD33RoundRect,0.250000X-0.475000X0.250000X-0.475000X-0.250000X0.475000X-0.250000X0.475000X0.250000X0*%
%ADD34FreePoly0,90.000000*%
%ADD35RoundRect,0.162500X0.162500X-0.437500X0.162500X0.437500X-0.162500X0.437500X-0.162500X-0.437500X0*%
%ADD36R,4.700000X4.500000*%
%ADD37RoundRect,0.175000X0.175000X-0.325000X0.175000X0.325000X-0.175000X0.325000X-0.175000X-0.325000X0*%
%ADD38RoundRect,0.250000X-0.250000X0.250000X-0.250000X-0.250000X0.250000X-0.250000X0.250000X0.250000X0*%
%ADD39RoundRect,0.250000X-0.300000X0.300000X-0.300000X-0.300000X0.300000X-0.300000X0.300000X0.300000X0*%
%ADD40RoundRect,0.225000X-0.250000X0.225000X-0.250000X-0.225000X0.250000X-0.225000X0.250000X0.225000X0*%
%ADD41RoundRect,0.207317X-0.892683X-0.217683X0.892683X-0.217683X0.892683X0.217683X-0.892683X0.217683X0*%
%ADD42RoundRect,0.225000X-0.225000X-0.250000X0.225000X-0.250000X0.225000X0.250000X-0.225000X0.250000X0*%
%ADD43C,3.500000*%
%ADD44C,1.540000*%
%ADD45C,2.800000*%
%ADD46C,3.000000*%
%ADD47C,1.600000*%
%ADD48C,1.800000*%
G04 APERTURE END LIST*
D10*
X139966667Y-98386104D02*
X139928571Y-98424200D01*
X139928571Y-98424200D02*
X139814286Y-98462295D01*
X139814286Y-98462295D02*
X139738095Y-98462295D01*
X139738095Y-98462295D02*
X139623809Y-98424200D01*
X139623809Y-98424200D02*
X139547619Y-98348009D01*
X139547619Y-98348009D02*
X139509524Y-98271819D01*
X139509524Y-98271819D02*
X139471428Y-98119438D01*
X139471428Y-98119438D02*
X139471428Y-98005152D01*
X139471428Y-98005152D02*
X139509524Y-97852771D01*
X139509524Y-97852771D02*
X139547619Y-97776580D01*
X139547619Y-97776580D02*
X139623809Y-97700390D01*
X139623809Y-97700390D02*
X139738095Y-97662295D01*
X139738095Y-97662295D02*
X139814286Y-97662295D01*
X139814286Y-97662295D02*
X139928571Y-97700390D01*
X139928571Y-97700390D02*
X139966667Y-97738485D01*
X140347619Y-98462295D02*
X140500000Y-98462295D01*
X140500000Y-98462295D02*
X140576190Y-98424200D01*
X140576190Y-98424200D02*
X140614286Y-98386104D01*
X140614286Y-98386104D02*
X140690476Y-98271819D01*
X140690476Y-98271819D02*
X140728571Y-98119438D01*
X140728571Y-98119438D02*
X140728571Y-97814676D01*
X140728571Y-97814676D02*
X140690476Y-97738485D01*
X140690476Y-97738485D02*
X140652381Y-97700390D01*
X140652381Y-97700390D02*
X140576190Y-97662295D01*
X140576190Y-97662295D02*
X140423809Y-97662295D01*
X140423809Y-97662295D02*
X140347619Y-97700390D01*
X140347619Y-97700390D02*
X140309524Y-97738485D01*
X140309524Y-97738485D02*
X140271428Y-97814676D01*
X140271428Y-97814676D02*
X140271428Y-98005152D01*
X140271428Y-98005152D02*
X140309524Y-98081342D01*
X140309524Y-98081342D02*
X140347619Y-98119438D01*
X140347619Y-98119438D02*
X140423809Y-98157533D01*
X140423809Y-98157533D02*
X140576190Y-98157533D01*
X140576190Y-98157533D02*
X140652381Y-98119438D01*
X140652381Y-98119438D02*
X140690476Y-98081342D01*
X140690476Y-98081342D02*
X140728571Y-98005152D01*
X144762295Y-110033333D02*
X144762295Y-110414285D01*
X144762295Y-110414285D02*
X143962295Y-110414285D01*
X144762295Y-109347619D02*
X144762295Y-109804762D01*
X144762295Y-109576190D02*
X143962295Y-109576190D01*
X143962295Y-109576190D02*
X144076580Y-109652381D01*
X144076580Y-109652381D02*
X144152771Y-109728571D01*
X144152771Y-109728571D02*
X144190866Y-109804762D01*
X140685714Y-106986104D02*
X140647618Y-107024200D01*
X140647618Y-107024200D02*
X140533333Y-107062295D01*
X140533333Y-107062295D02*
X140457142Y-107062295D01*
X140457142Y-107062295D02*
X140342856Y-107024200D01*
X140342856Y-107024200D02*
X140266666Y-106948009D01*
X140266666Y-106948009D02*
X140228571Y-106871819D01*
X140228571Y-106871819D02*
X140190475Y-106719438D01*
X140190475Y-106719438D02*
X140190475Y-106605152D01*
X140190475Y-106605152D02*
X140228571Y-106452771D01*
X140228571Y-106452771D02*
X140266666Y-106376580D01*
X140266666Y-106376580D02*
X140342856Y-106300390D01*
X140342856Y-106300390D02*
X140457142Y-106262295D01*
X140457142Y-106262295D02*
X140533333Y-106262295D01*
X140533333Y-106262295D02*
X140647618Y-106300390D01*
X140647618Y-106300390D02*
X140685714Y-106338485D01*
X141447618Y-107062295D02*
X140990475Y-107062295D01*
X141219047Y-107062295D02*
X141219047Y-106262295D01*
X141219047Y-106262295D02*
X141142856Y-106376580D01*
X141142856Y-106376580D02*
X141066666Y-106452771D01*
X141066666Y-106452771D02*
X140990475Y-106490866D01*
X142133333Y-106262295D02*
X141980952Y-106262295D01*
X141980952Y-106262295D02*
X141904761Y-106300390D01*
X141904761Y-106300390D02*
X141866666Y-106338485D01*
X141866666Y-106338485D02*
X141790476Y-106452771D01*
X141790476Y-106452771D02*
X141752380Y-106605152D01*
X141752380Y-106605152D02*
X141752380Y-106909914D01*
X141752380Y-106909914D02*
X141790476Y-106986104D01*
X141790476Y-106986104D02*
X141828571Y-107024200D01*
X141828571Y-107024200D02*
X141904761Y-107062295D01*
X141904761Y-107062295D02*
X142057142Y-107062295D01*
X142057142Y-107062295D02*
X142133333Y-107024200D01*
X142133333Y-107024200D02*
X142171428Y-106986104D01*
X142171428Y-106986104D02*
X142209523Y-106909914D01*
X142209523Y-106909914D02*
X142209523Y-106719438D01*
X142209523Y-106719438D02*
X142171428Y-106643247D01*
X142171428Y-106643247D02*
X142133333Y-106605152D01*
X142133333Y-106605152D02*
X142057142Y-106567057D01*
X142057142Y-106567057D02*
X141904761Y-106567057D01*
X141904761Y-106567057D02*
X141828571Y-106605152D01*
X141828571Y-106605152D02*
X141790476Y-106643247D01*
X141790476Y-106643247D02*
X141752380Y-106719438D01*
X146066667Y-91262295D02*
X145800000Y-90881342D01*
X145609524Y-91262295D02*
X145609524Y-90462295D01*
X145609524Y-90462295D02*
X145914286Y-90462295D01*
X145914286Y-90462295D02*
X145990476Y-90500390D01*
X145990476Y-90500390D02*
X146028571Y-90538485D01*
X146028571Y-90538485D02*
X146066667Y-90614676D01*
X146066667Y-90614676D02*
X146066667Y-90728961D01*
X146066667Y-90728961D02*
X146028571Y-90805152D01*
X146028571Y-90805152D02*
X145990476Y-90843247D01*
X145990476Y-90843247D02*
X145914286Y-90881342D01*
X145914286Y-90881342D02*
X145609524Y-90881342D01*
X146371428Y-90538485D02*
X146409524Y-90500390D01*
X146409524Y-90500390D02*
X146485714Y-90462295D01*
X146485714Y-90462295D02*
X146676190Y-90462295D01*
X146676190Y-90462295D02*
X146752381Y-90500390D01*
X146752381Y-90500390D02*
X146790476Y-90538485D01*
X146790476Y-90538485D02*
X146828571Y-90614676D01*
X146828571Y-90614676D02*
X146828571Y-90690866D01*
X146828571Y-90690866D02*
X146790476Y-90805152D01*
X146790476Y-90805152D02*
X146333333Y-91262295D01*
X146333333Y-91262295D02*
X146828571Y-91262295D01*
X131238485Y-87076190D02*
X131200390Y-87152380D01*
X131200390Y-87152380D02*
X131124200Y-87228571D01*
X131124200Y-87228571D02*
X131009914Y-87342857D01*
X131009914Y-87342857D02*
X130971819Y-87419047D01*
X130971819Y-87419047D02*
X130971819Y-87495238D01*
X131162295Y-87457142D02*
X131124200Y-87533333D01*
X131124200Y-87533333D02*
X131048009Y-87609523D01*
X131048009Y-87609523D02*
X130895628Y-87647619D01*
X130895628Y-87647619D02*
X130628961Y-87647619D01*
X130628961Y-87647619D02*
X130476580Y-87609523D01*
X130476580Y-87609523D02*
X130400390Y-87533333D01*
X130400390Y-87533333D02*
X130362295Y-87457142D01*
X130362295Y-87457142D02*
X130362295Y-87304761D01*
X130362295Y-87304761D02*
X130400390Y-87228571D01*
X130400390Y-87228571D02*
X130476580Y-87152380D01*
X130476580Y-87152380D02*
X130628961Y-87114285D01*
X130628961Y-87114285D02*
X130895628Y-87114285D01*
X130895628Y-87114285D02*
X131048009Y-87152380D01*
X131048009Y-87152380D02*
X131124200Y-87228571D01*
X131124200Y-87228571D02*
X131162295Y-87304761D01*
X131162295Y-87304761D02*
X131162295Y-87457142D01*
X130438485Y-86809524D02*
X130400390Y-86771428D01*
X130400390Y-86771428D02*
X130362295Y-86695238D01*
X130362295Y-86695238D02*
X130362295Y-86504762D01*
X130362295Y-86504762D02*
X130400390Y-86428571D01*
X130400390Y-86428571D02*
X130438485Y-86390476D01*
X130438485Y-86390476D02*
X130514676Y-86352381D01*
X130514676Y-86352381D02*
X130590866Y-86352381D01*
X130590866Y-86352381D02*
X130705152Y-86390476D01*
X130705152Y-86390476D02*
X131162295Y-86847619D01*
X131162295Y-86847619D02*
X131162295Y-86352381D01*
X145438485Y-105776190D02*
X145400390Y-105852380D01*
X145400390Y-105852380D02*
X145324200Y-105928571D01*
X145324200Y-105928571D02*
X145209914Y-106042857D01*
X145209914Y-106042857D02*
X145171819Y-106119047D01*
X145171819Y-106119047D02*
X145171819Y-106195238D01*
X145362295Y-106157142D02*
X145324200Y-106233333D01*
X145324200Y-106233333D02*
X145248009Y-106309523D01*
X145248009Y-106309523D02*
X145095628Y-106347619D01*
X145095628Y-106347619D02*
X144828961Y-106347619D01*
X144828961Y-106347619D02*
X144676580Y-106309523D01*
X144676580Y-106309523D02*
X144600390Y-106233333D01*
X144600390Y-106233333D02*
X144562295Y-106157142D01*
X144562295Y-106157142D02*
X144562295Y-106004761D01*
X144562295Y-106004761D02*
X144600390Y-105928571D01*
X144600390Y-105928571D02*
X144676580Y-105852380D01*
X144676580Y-105852380D02*
X144828961Y-105814285D01*
X144828961Y-105814285D02*
X145095628Y-105814285D01*
X145095628Y-105814285D02*
X145248009Y-105852380D01*
X145248009Y-105852380D02*
X145324200Y-105928571D01*
X145324200Y-105928571D02*
X145362295Y-106004761D01*
X145362295Y-106004761D02*
X145362295Y-106157142D01*
X144562295Y-105090476D02*
X144562295Y-105471428D01*
X144562295Y-105471428D02*
X144943247Y-105509524D01*
X144943247Y-105509524D02*
X144905152Y-105471428D01*
X144905152Y-105471428D02*
X144867057Y-105395238D01*
X144867057Y-105395238D02*
X144867057Y-105204762D01*
X144867057Y-105204762D02*
X144905152Y-105128571D01*
X144905152Y-105128571D02*
X144943247Y-105090476D01*
X144943247Y-105090476D02*
X145019438Y-105052381D01*
X145019438Y-105052381D02*
X145209914Y-105052381D01*
X145209914Y-105052381D02*
X145286104Y-105090476D01*
X145286104Y-105090476D02*
X145324200Y-105128571D01*
X145324200Y-105128571D02*
X145362295Y-105204762D01*
X145362295Y-105204762D02*
X145362295Y-105395238D01*
X145362295Y-105395238D02*
X145324200Y-105471428D01*
X145324200Y-105471428D02*
X145286104Y-105509524D01*
X137685714Y-113166104D02*
X137647618Y-113204200D01*
X137647618Y-113204200D02*
X137533333Y-113242295D01*
X137533333Y-113242295D02*
X137457142Y-113242295D01*
X137457142Y-113242295D02*
X137342856Y-113204200D01*
X137342856Y-113204200D02*
X137266666Y-113128009D01*
X137266666Y-113128009D02*
X137228571Y-113051819D01*
X137228571Y-113051819D02*
X137190475Y-112899438D01*
X137190475Y-112899438D02*
X137190475Y-112785152D01*
X137190475Y-112785152D02*
X137228571Y-112632771D01*
X137228571Y-112632771D02*
X137266666Y-112556580D01*
X137266666Y-112556580D02*
X137342856Y-112480390D01*
X137342856Y-112480390D02*
X137457142Y-112442295D01*
X137457142Y-112442295D02*
X137533333Y-112442295D01*
X137533333Y-112442295D02*
X137647618Y-112480390D01*
X137647618Y-112480390D02*
X137685714Y-112518485D01*
X138447618Y-113242295D02*
X137990475Y-113242295D01*
X138219047Y-113242295D02*
X138219047Y-112442295D01*
X138219047Y-112442295D02*
X138142856Y-112556580D01*
X138142856Y-112556580D02*
X138066666Y-112632771D01*
X138066666Y-112632771D02*
X137990475Y-112670866D01*
X139209523Y-113242295D02*
X138752380Y-113242295D01*
X138980952Y-113242295D02*
X138980952Y-112442295D01*
X138980952Y-112442295D02*
X138904761Y-112556580D01*
X138904761Y-112556580D02*
X138828571Y-112632771D01*
X138828571Y-112632771D02*
X138752380Y-112670866D01*
X137390476Y-103562295D02*
X137390476Y-104209914D01*
X137390476Y-104209914D02*
X137428571Y-104286104D01*
X137428571Y-104286104D02*
X137466666Y-104324200D01*
X137466666Y-104324200D02*
X137542857Y-104362295D01*
X137542857Y-104362295D02*
X137695238Y-104362295D01*
X137695238Y-104362295D02*
X137771428Y-104324200D01*
X137771428Y-104324200D02*
X137809523Y-104286104D01*
X137809523Y-104286104D02*
X137847619Y-104209914D01*
X137847619Y-104209914D02*
X137847619Y-103562295D01*
X138647618Y-104362295D02*
X138190475Y-104362295D01*
X138419047Y-104362295D02*
X138419047Y-103562295D01*
X138419047Y-103562295D02*
X138342856Y-103676580D01*
X138342856Y-103676580D02*
X138266666Y-103752771D01*
X138266666Y-103752771D02*
X138190475Y-103790866D01*
X167185714Y-109686104D02*
X167147618Y-109724200D01*
X167147618Y-109724200D02*
X167033333Y-109762295D01*
X167033333Y-109762295D02*
X166957142Y-109762295D01*
X166957142Y-109762295D02*
X166842856Y-109724200D01*
X166842856Y-109724200D02*
X166766666Y-109648009D01*
X166766666Y-109648009D02*
X166728571Y-109571819D01*
X166728571Y-109571819D02*
X166690475Y-109419438D01*
X166690475Y-109419438D02*
X166690475Y-109305152D01*
X166690475Y-109305152D02*
X166728571Y-109152771D01*
X166728571Y-109152771D02*
X166766666Y-109076580D01*
X166766666Y-109076580D02*
X166842856Y-109000390D01*
X166842856Y-109000390D02*
X166957142Y-108962295D01*
X166957142Y-108962295D02*
X167033333Y-108962295D01*
X167033333Y-108962295D02*
X167147618Y-109000390D01*
X167147618Y-109000390D02*
X167185714Y-109038485D01*
X167947618Y-109762295D02*
X167490475Y-109762295D01*
X167719047Y-109762295D02*
X167719047Y-108962295D01*
X167719047Y-108962295D02*
X167642856Y-109076580D01*
X167642856Y-109076580D02*
X167566666Y-109152771D01*
X167566666Y-109152771D02*
X167490475Y-109190866D01*
X168671428Y-108962295D02*
X168290476Y-108962295D01*
X168290476Y-108962295D02*
X168252380Y-109343247D01*
X168252380Y-109343247D02*
X168290476Y-109305152D01*
X168290476Y-109305152D02*
X168366666Y-109267057D01*
X168366666Y-109267057D02*
X168557142Y-109267057D01*
X168557142Y-109267057D02*
X168633333Y-109305152D01*
X168633333Y-109305152D02*
X168671428Y-109343247D01*
X168671428Y-109343247D02*
X168709523Y-109419438D01*
X168709523Y-109419438D02*
X168709523Y-109609914D01*
X168709523Y-109609914D02*
X168671428Y-109686104D01*
X168671428Y-109686104D02*
X168633333Y-109724200D01*
X168633333Y-109724200D02*
X168557142Y-109762295D01*
X168557142Y-109762295D02*
X168366666Y-109762295D01*
X168366666Y-109762295D02*
X168290476Y-109724200D01*
X168290476Y-109724200D02*
X168252380Y-109686104D01*
X139966667Y-96886104D02*
X139928571Y-96924200D01*
X139928571Y-96924200D02*
X139814286Y-96962295D01*
X139814286Y-96962295D02*
X139738095Y-96962295D01*
X139738095Y-96962295D02*
X139623809Y-96924200D01*
X139623809Y-96924200D02*
X139547619Y-96848009D01*
X139547619Y-96848009D02*
X139509524Y-96771819D01*
X139509524Y-96771819D02*
X139471428Y-96619438D01*
X139471428Y-96619438D02*
X139471428Y-96505152D01*
X139471428Y-96505152D02*
X139509524Y-96352771D01*
X139509524Y-96352771D02*
X139547619Y-96276580D01*
X139547619Y-96276580D02*
X139623809Y-96200390D01*
X139623809Y-96200390D02*
X139738095Y-96162295D01*
X139738095Y-96162295D02*
X139814286Y-96162295D01*
X139814286Y-96162295D02*
X139928571Y-96200390D01*
X139928571Y-96200390D02*
X139966667Y-96238485D01*
X140423809Y-96505152D02*
X140347619Y-96467057D01*
X140347619Y-96467057D02*
X140309524Y-96428961D01*
X140309524Y-96428961D02*
X140271428Y-96352771D01*
X140271428Y-96352771D02*
X140271428Y-96314676D01*
X140271428Y-96314676D02*
X140309524Y-96238485D01*
X140309524Y-96238485D02*
X140347619Y-96200390D01*
X140347619Y-96200390D02*
X140423809Y-96162295D01*
X140423809Y-96162295D02*
X140576190Y-96162295D01*
X140576190Y-96162295D02*
X140652381Y-96200390D01*
X140652381Y-96200390D02*
X140690476Y-96238485D01*
X140690476Y-96238485D02*
X140728571Y-96314676D01*
X140728571Y-96314676D02*
X140728571Y-96352771D01*
X140728571Y-96352771D02*
X140690476Y-96428961D01*
X140690476Y-96428961D02*
X140652381Y-96467057D01*
X140652381Y-96467057D02*
X140576190Y-96505152D01*
X140576190Y-96505152D02*
X140423809Y-96505152D01*
X140423809Y-96505152D02*
X140347619Y-96543247D01*
X140347619Y-96543247D02*
X140309524Y-96581342D01*
X140309524Y-96581342D02*
X140271428Y-96657533D01*
X140271428Y-96657533D02*
X140271428Y-96809914D01*
X140271428Y-96809914D02*
X140309524Y-96886104D01*
X140309524Y-96886104D02*
X140347619Y-96924200D01*
X140347619Y-96924200D02*
X140423809Y-96962295D01*
X140423809Y-96962295D02*
X140576190Y-96962295D01*
X140576190Y-96962295D02*
X140652381Y-96924200D01*
X140652381Y-96924200D02*
X140690476Y-96886104D01*
X140690476Y-96886104D02*
X140728571Y-96809914D01*
X140728571Y-96809914D02*
X140728571Y-96657533D01*
X140728571Y-96657533D02*
X140690476Y-96581342D01*
X140690476Y-96581342D02*
X140652381Y-96543247D01*
X140652381Y-96543247D02*
X140576190Y-96505152D01*
X142962295Y-95133332D02*
X142581342Y-95399999D01*
X142962295Y-95590475D02*
X142162295Y-95590475D01*
X142162295Y-95590475D02*
X142162295Y-95285713D01*
X142162295Y-95285713D02*
X142200390Y-95209523D01*
X142200390Y-95209523D02*
X142238485Y-95171428D01*
X142238485Y-95171428D02*
X142314676Y-95133332D01*
X142314676Y-95133332D02*
X142428961Y-95133332D01*
X142428961Y-95133332D02*
X142505152Y-95171428D01*
X142505152Y-95171428D02*
X142543247Y-95209523D01*
X142543247Y-95209523D02*
X142581342Y-95285713D01*
X142581342Y-95285713D02*
X142581342Y-95590475D01*
X142162295Y-94409523D02*
X142162295Y-94790475D01*
X142162295Y-94790475D02*
X142543247Y-94828571D01*
X142543247Y-94828571D02*
X142505152Y-94790475D01*
X142505152Y-94790475D02*
X142467057Y-94714285D01*
X142467057Y-94714285D02*
X142467057Y-94523809D01*
X142467057Y-94523809D02*
X142505152Y-94447618D01*
X142505152Y-94447618D02*
X142543247Y-94409523D01*
X142543247Y-94409523D02*
X142619438Y-94371428D01*
X142619438Y-94371428D02*
X142809914Y-94371428D01*
X142809914Y-94371428D02*
X142886104Y-94409523D01*
X142886104Y-94409523D02*
X142924200Y-94447618D01*
X142924200Y-94447618D02*
X142962295Y-94523809D01*
X142962295Y-94523809D02*
X142962295Y-94714285D01*
X142962295Y-94714285D02*
X142924200Y-94790475D01*
X142924200Y-94790475D02*
X142886104Y-94828571D01*
X146086104Y-99914285D02*
X146124200Y-99952381D01*
X146124200Y-99952381D02*
X146162295Y-100066666D01*
X146162295Y-100066666D02*
X146162295Y-100142857D01*
X146162295Y-100142857D02*
X146124200Y-100257143D01*
X146124200Y-100257143D02*
X146048009Y-100333333D01*
X146048009Y-100333333D02*
X145971819Y-100371428D01*
X145971819Y-100371428D02*
X145819438Y-100409524D01*
X145819438Y-100409524D02*
X145705152Y-100409524D01*
X145705152Y-100409524D02*
X145552771Y-100371428D01*
X145552771Y-100371428D02*
X145476580Y-100333333D01*
X145476580Y-100333333D02*
X145400390Y-100257143D01*
X145400390Y-100257143D02*
X145362295Y-100142857D01*
X145362295Y-100142857D02*
X145362295Y-100066666D01*
X145362295Y-100066666D02*
X145400390Y-99952381D01*
X145400390Y-99952381D02*
X145438485Y-99914285D01*
X146162295Y-99152381D02*
X146162295Y-99609524D01*
X146162295Y-99380952D02*
X145362295Y-99380952D01*
X145362295Y-99380952D02*
X145476580Y-99457143D01*
X145476580Y-99457143D02*
X145552771Y-99533333D01*
X145552771Y-99533333D02*
X145590866Y-99609524D01*
X145628961Y-98466666D02*
X146162295Y-98466666D01*
X145324200Y-98657142D02*
X145895628Y-98847619D01*
X145895628Y-98847619D02*
X145895628Y-98352380D01*
X156085714Y-111162295D02*
X155819047Y-110781342D01*
X155628571Y-111162295D02*
X155628571Y-110362295D01*
X155628571Y-110362295D02*
X155933333Y-110362295D01*
X155933333Y-110362295D02*
X156009523Y-110400390D01*
X156009523Y-110400390D02*
X156047618Y-110438485D01*
X156047618Y-110438485D02*
X156085714Y-110514676D01*
X156085714Y-110514676D02*
X156085714Y-110628961D01*
X156085714Y-110628961D02*
X156047618Y-110705152D01*
X156047618Y-110705152D02*
X156009523Y-110743247D01*
X156009523Y-110743247D02*
X155933333Y-110781342D01*
X155933333Y-110781342D02*
X155628571Y-110781342D01*
X156847618Y-111162295D02*
X156390475Y-111162295D01*
X156619047Y-111162295D02*
X156619047Y-110362295D01*
X156619047Y-110362295D02*
X156542856Y-110476580D01*
X156542856Y-110476580D02*
X156466666Y-110552771D01*
X156466666Y-110552771D02*
X156390475Y-110590866D01*
X157609523Y-111162295D02*
X157152380Y-111162295D01*
X157380952Y-111162295D02*
X157380952Y-110362295D01*
X157380952Y-110362295D02*
X157304761Y-110476580D01*
X157304761Y-110476580D02*
X157228571Y-110552771D01*
X157228571Y-110552771D02*
X157152380Y-110590866D01*
X153286104Y-95533332D02*
X153324200Y-95571428D01*
X153324200Y-95571428D02*
X153362295Y-95685713D01*
X153362295Y-95685713D02*
X153362295Y-95761904D01*
X153362295Y-95761904D02*
X153324200Y-95876190D01*
X153324200Y-95876190D02*
X153248009Y-95952380D01*
X153248009Y-95952380D02*
X153171819Y-95990475D01*
X153171819Y-95990475D02*
X153019438Y-96028571D01*
X153019438Y-96028571D02*
X152905152Y-96028571D01*
X152905152Y-96028571D02*
X152752771Y-95990475D01*
X152752771Y-95990475D02*
X152676580Y-95952380D01*
X152676580Y-95952380D02*
X152600390Y-95876190D01*
X152600390Y-95876190D02*
X152562295Y-95761904D01*
X152562295Y-95761904D02*
X152562295Y-95685713D01*
X152562295Y-95685713D02*
X152600390Y-95571428D01*
X152600390Y-95571428D02*
X152638485Y-95533332D01*
X152562295Y-94809523D02*
X152562295Y-95190475D01*
X152562295Y-95190475D02*
X152943247Y-95228571D01*
X152943247Y-95228571D02*
X152905152Y-95190475D01*
X152905152Y-95190475D02*
X152867057Y-95114285D01*
X152867057Y-95114285D02*
X152867057Y-94923809D01*
X152867057Y-94923809D02*
X152905152Y-94847618D01*
X152905152Y-94847618D02*
X152943247Y-94809523D01*
X152943247Y-94809523D02*
X153019438Y-94771428D01*
X153019438Y-94771428D02*
X153209914Y-94771428D01*
X153209914Y-94771428D02*
X153286104Y-94809523D01*
X153286104Y-94809523D02*
X153324200Y-94847618D01*
X153324200Y-94847618D02*
X153362295Y-94923809D01*
X153362295Y-94923809D02*
X153362295Y-95114285D01*
X153362295Y-95114285D02*
X153324200Y-95190475D01*
X153324200Y-95190475D02*
X153286104Y-95228571D01*
X156823809Y-105938485D02*
X156747619Y-105900390D01*
X156747619Y-105900390D02*
X156671428Y-105824200D01*
X156671428Y-105824200D02*
X156557142Y-105709914D01*
X156557142Y-105709914D02*
X156480952Y-105671819D01*
X156480952Y-105671819D02*
X156404761Y-105671819D01*
X156442857Y-105862295D02*
X156366666Y-105824200D01*
X156366666Y-105824200D02*
X156290476Y-105748009D01*
X156290476Y-105748009D02*
X156252380Y-105595628D01*
X156252380Y-105595628D02*
X156252380Y-105328961D01*
X156252380Y-105328961D02*
X156290476Y-105176580D01*
X156290476Y-105176580D02*
X156366666Y-105100390D01*
X156366666Y-105100390D02*
X156442857Y-105062295D01*
X156442857Y-105062295D02*
X156595238Y-105062295D01*
X156595238Y-105062295D02*
X156671428Y-105100390D01*
X156671428Y-105100390D02*
X156747619Y-105176580D01*
X156747619Y-105176580D02*
X156785714Y-105328961D01*
X156785714Y-105328961D02*
X156785714Y-105595628D01*
X156785714Y-105595628D02*
X156747619Y-105748009D01*
X156747619Y-105748009D02*
X156671428Y-105824200D01*
X156671428Y-105824200D02*
X156595238Y-105862295D01*
X156595238Y-105862295D02*
X156442857Y-105862295D01*
X157471428Y-105328961D02*
X157471428Y-105862295D01*
X157280952Y-105024200D02*
X157090475Y-105595628D01*
X157090475Y-105595628D02*
X157585714Y-105595628D01*
X148866667Y-95686104D02*
X148828571Y-95724200D01*
X148828571Y-95724200D02*
X148714286Y-95762295D01*
X148714286Y-95762295D02*
X148638095Y-95762295D01*
X148638095Y-95762295D02*
X148523809Y-95724200D01*
X148523809Y-95724200D02*
X148447619Y-95648009D01*
X148447619Y-95648009D02*
X148409524Y-95571819D01*
X148409524Y-95571819D02*
X148371428Y-95419438D01*
X148371428Y-95419438D02*
X148371428Y-95305152D01*
X148371428Y-95305152D02*
X148409524Y-95152771D01*
X148409524Y-95152771D02*
X148447619Y-95076580D01*
X148447619Y-95076580D02*
X148523809Y-95000390D01*
X148523809Y-95000390D02*
X148638095Y-94962295D01*
X148638095Y-94962295D02*
X148714286Y-94962295D01*
X148714286Y-94962295D02*
X148828571Y-95000390D01*
X148828571Y-95000390D02*
X148866667Y-95038485D01*
X149552381Y-94962295D02*
X149400000Y-94962295D01*
X149400000Y-94962295D02*
X149323809Y-95000390D01*
X149323809Y-95000390D02*
X149285714Y-95038485D01*
X149285714Y-95038485D02*
X149209524Y-95152771D01*
X149209524Y-95152771D02*
X149171428Y-95305152D01*
X149171428Y-95305152D02*
X149171428Y-95609914D01*
X149171428Y-95609914D02*
X149209524Y-95686104D01*
X149209524Y-95686104D02*
X149247619Y-95724200D01*
X149247619Y-95724200D02*
X149323809Y-95762295D01*
X149323809Y-95762295D02*
X149476190Y-95762295D01*
X149476190Y-95762295D02*
X149552381Y-95724200D01*
X149552381Y-95724200D02*
X149590476Y-95686104D01*
X149590476Y-95686104D02*
X149628571Y-95609914D01*
X149628571Y-95609914D02*
X149628571Y-95419438D01*
X149628571Y-95419438D02*
X149590476Y-95343247D01*
X149590476Y-95343247D02*
X149552381Y-95305152D01*
X149552381Y-95305152D02*
X149476190Y-95267057D01*
X149476190Y-95267057D02*
X149323809Y-95267057D01*
X149323809Y-95267057D02*
X149247619Y-95305152D01*
X149247619Y-95305152D02*
X149209524Y-95343247D01*
X149209524Y-95343247D02*
X149171428Y-95419438D01*
X137185714Y-106986104D02*
X137147618Y-107024200D01*
X137147618Y-107024200D02*
X137033333Y-107062295D01*
X137033333Y-107062295D02*
X136957142Y-107062295D01*
X136957142Y-107062295D02*
X136842856Y-107024200D01*
X136842856Y-107024200D02*
X136766666Y-106948009D01*
X136766666Y-106948009D02*
X136728571Y-106871819D01*
X136728571Y-106871819D02*
X136690475Y-106719438D01*
X136690475Y-106719438D02*
X136690475Y-106605152D01*
X136690475Y-106605152D02*
X136728571Y-106452771D01*
X136728571Y-106452771D02*
X136766666Y-106376580D01*
X136766666Y-106376580D02*
X136842856Y-106300390D01*
X136842856Y-106300390D02*
X136957142Y-106262295D01*
X136957142Y-106262295D02*
X137033333Y-106262295D01*
X137033333Y-106262295D02*
X137147618Y-106300390D01*
X137147618Y-106300390D02*
X137185714Y-106338485D01*
X137947618Y-107062295D02*
X137490475Y-107062295D01*
X137719047Y-107062295D02*
X137719047Y-106262295D01*
X137719047Y-106262295D02*
X137642856Y-106376580D01*
X137642856Y-106376580D02*
X137566666Y-106452771D01*
X137566666Y-106452771D02*
X137490475Y-106490866D01*
X138214285Y-106262295D02*
X138747619Y-106262295D01*
X138747619Y-106262295D02*
X138404761Y-107062295D01*
X144162295Y-106290475D02*
X143362295Y-106290475D01*
X143362295Y-106290475D02*
X143362295Y-106099999D01*
X143362295Y-106099999D02*
X143400390Y-105985713D01*
X143400390Y-105985713D02*
X143476580Y-105909523D01*
X143476580Y-105909523D02*
X143552771Y-105871428D01*
X143552771Y-105871428D02*
X143705152Y-105833332D01*
X143705152Y-105833332D02*
X143819438Y-105833332D01*
X143819438Y-105833332D02*
X143971819Y-105871428D01*
X143971819Y-105871428D02*
X144048009Y-105909523D01*
X144048009Y-105909523D02*
X144124200Y-105985713D01*
X144124200Y-105985713D02*
X144162295Y-106099999D01*
X144162295Y-106099999D02*
X144162295Y-106290475D01*
X143438485Y-105528571D02*
X143400390Y-105490475D01*
X143400390Y-105490475D02*
X143362295Y-105414285D01*
X143362295Y-105414285D02*
X143362295Y-105223809D01*
X143362295Y-105223809D02*
X143400390Y-105147618D01*
X143400390Y-105147618D02*
X143438485Y-105109523D01*
X143438485Y-105109523D02*
X143514676Y-105071428D01*
X143514676Y-105071428D02*
X143590866Y-105071428D01*
X143590866Y-105071428D02*
X143705152Y-105109523D01*
X143705152Y-105109523D02*
X144162295Y-105566666D01*
X144162295Y-105566666D02*
X144162295Y-105071428D01*
X158462295Y-113290475D02*
X157662295Y-113290475D01*
X157662295Y-113290475D02*
X157662295Y-113099999D01*
X157662295Y-113099999D02*
X157700390Y-112985713D01*
X157700390Y-112985713D02*
X157776580Y-112909523D01*
X157776580Y-112909523D02*
X157852771Y-112871428D01*
X157852771Y-112871428D02*
X158005152Y-112833332D01*
X158005152Y-112833332D02*
X158119438Y-112833332D01*
X158119438Y-112833332D02*
X158271819Y-112871428D01*
X158271819Y-112871428D02*
X158348009Y-112909523D01*
X158348009Y-112909523D02*
X158424200Y-112985713D01*
X158424200Y-112985713D02*
X158462295Y-113099999D01*
X158462295Y-113099999D02*
X158462295Y-113290475D01*
X157662295Y-112566666D02*
X157662295Y-112071428D01*
X157662295Y-112071428D02*
X157967057Y-112338094D01*
X157967057Y-112338094D02*
X157967057Y-112223809D01*
X157967057Y-112223809D02*
X158005152Y-112147618D01*
X158005152Y-112147618D02*
X158043247Y-112109523D01*
X158043247Y-112109523D02*
X158119438Y-112071428D01*
X158119438Y-112071428D02*
X158309914Y-112071428D01*
X158309914Y-112071428D02*
X158386104Y-112109523D01*
X158386104Y-112109523D02*
X158424200Y-112147618D01*
X158424200Y-112147618D02*
X158462295Y-112223809D01*
X158462295Y-112223809D02*
X158462295Y-112452380D01*
X158462295Y-112452380D02*
X158424200Y-112528571D01*
X158424200Y-112528571D02*
X158386104Y-112566666D01*
X136312628Y-95099999D02*
X136341200Y-95128571D01*
X136341200Y-95128571D02*
X136369771Y-95214285D01*
X136369771Y-95214285D02*
X136369771Y-95271428D01*
X136369771Y-95271428D02*
X136341200Y-95357142D01*
X136341200Y-95357142D02*
X136284057Y-95414285D01*
X136284057Y-95414285D02*
X136226914Y-95442856D01*
X136226914Y-95442856D02*
X136112628Y-95471428D01*
X136112628Y-95471428D02*
X136026914Y-95471428D01*
X136026914Y-95471428D02*
X135912628Y-95442856D01*
X135912628Y-95442856D02*
X135855485Y-95414285D01*
X135855485Y-95414285D02*
X135798342Y-95357142D01*
X135798342Y-95357142D02*
X135769771Y-95271428D01*
X135769771Y-95271428D02*
X135769771Y-95214285D01*
X135769771Y-95214285D02*
X135798342Y-95128571D01*
X135798342Y-95128571D02*
X135826914Y-95099999D01*
X135969771Y-94585714D02*
X136369771Y-94585714D01*
X135741200Y-94728571D02*
X136169771Y-94871428D01*
X136169771Y-94871428D02*
X136169771Y-94499999D01*
X136986104Y-99433332D02*
X137024200Y-99471428D01*
X137024200Y-99471428D02*
X137062295Y-99585713D01*
X137062295Y-99585713D02*
X137062295Y-99661904D01*
X137062295Y-99661904D02*
X137024200Y-99776190D01*
X137024200Y-99776190D02*
X136948009Y-99852380D01*
X136948009Y-99852380D02*
X136871819Y-99890475D01*
X136871819Y-99890475D02*
X136719438Y-99928571D01*
X136719438Y-99928571D02*
X136605152Y-99928571D01*
X136605152Y-99928571D02*
X136452771Y-99890475D01*
X136452771Y-99890475D02*
X136376580Y-99852380D01*
X136376580Y-99852380D02*
X136300390Y-99776190D01*
X136300390Y-99776190D02*
X136262295Y-99661904D01*
X136262295Y-99661904D02*
X136262295Y-99585713D01*
X136262295Y-99585713D02*
X136300390Y-99471428D01*
X136300390Y-99471428D02*
X136338485Y-99433332D01*
X137062295Y-98671428D02*
X137062295Y-99128571D01*
X137062295Y-98899999D02*
X136262295Y-98899999D01*
X136262295Y-98899999D02*
X136376580Y-98976190D01*
X136376580Y-98976190D02*
X136452771Y-99052380D01*
X136452771Y-99052380D02*
X136490866Y-99128571D01*
X168986104Y-97614285D02*
X169024200Y-97652381D01*
X169024200Y-97652381D02*
X169062295Y-97766666D01*
X169062295Y-97766666D02*
X169062295Y-97842857D01*
X169062295Y-97842857D02*
X169024200Y-97957143D01*
X169024200Y-97957143D02*
X168948009Y-98033333D01*
X168948009Y-98033333D02*
X168871819Y-98071428D01*
X168871819Y-98071428D02*
X168719438Y-98109524D01*
X168719438Y-98109524D02*
X168605152Y-98109524D01*
X168605152Y-98109524D02*
X168452771Y-98071428D01*
X168452771Y-98071428D02*
X168376580Y-98033333D01*
X168376580Y-98033333D02*
X168300390Y-97957143D01*
X168300390Y-97957143D02*
X168262295Y-97842857D01*
X168262295Y-97842857D02*
X168262295Y-97766666D01*
X168262295Y-97766666D02*
X168300390Y-97652381D01*
X168300390Y-97652381D02*
X168338485Y-97614285D01*
X169062295Y-96852381D02*
X169062295Y-97309524D01*
X169062295Y-97080952D02*
X168262295Y-97080952D01*
X168262295Y-97080952D02*
X168376580Y-97157143D01*
X168376580Y-97157143D02*
X168452771Y-97233333D01*
X168452771Y-97233333D02*
X168490866Y-97309524D01*
X168262295Y-96585714D02*
X168262295Y-96090476D01*
X168262295Y-96090476D02*
X168567057Y-96357142D01*
X168567057Y-96357142D02*
X168567057Y-96242857D01*
X168567057Y-96242857D02*
X168605152Y-96166666D01*
X168605152Y-96166666D02*
X168643247Y-96128571D01*
X168643247Y-96128571D02*
X168719438Y-96090476D01*
X168719438Y-96090476D02*
X168909914Y-96090476D01*
X168909914Y-96090476D02*
X168986104Y-96128571D01*
X168986104Y-96128571D02*
X169024200Y-96166666D01*
X169024200Y-96166666D02*
X169062295Y-96242857D01*
X169062295Y-96242857D02*
X169062295Y-96471428D01*
X169062295Y-96471428D02*
X169024200Y-96547619D01*
X169024200Y-96547619D02*
X168986104Y-96585714D01*
X140462295Y-108933332D02*
X140081342Y-109199999D01*
X140462295Y-109390475D02*
X139662295Y-109390475D01*
X139662295Y-109390475D02*
X139662295Y-109085713D01*
X139662295Y-109085713D02*
X139700390Y-109009523D01*
X139700390Y-109009523D02*
X139738485Y-108971428D01*
X139738485Y-108971428D02*
X139814676Y-108933332D01*
X139814676Y-108933332D02*
X139928961Y-108933332D01*
X139928961Y-108933332D02*
X140005152Y-108971428D01*
X140005152Y-108971428D02*
X140043247Y-109009523D01*
X140043247Y-109009523D02*
X140081342Y-109085713D01*
X140081342Y-109085713D02*
X140081342Y-109390475D01*
X139662295Y-108666666D02*
X139662295Y-108171428D01*
X139662295Y-108171428D02*
X139967057Y-108438094D01*
X139967057Y-108438094D02*
X139967057Y-108323809D01*
X139967057Y-108323809D02*
X140005152Y-108247618D01*
X140005152Y-108247618D02*
X140043247Y-108209523D01*
X140043247Y-108209523D02*
X140119438Y-108171428D01*
X140119438Y-108171428D02*
X140309914Y-108171428D01*
X140309914Y-108171428D02*
X140386104Y-108209523D01*
X140386104Y-108209523D02*
X140424200Y-108247618D01*
X140424200Y-108247618D02*
X140462295Y-108323809D01*
X140462295Y-108323809D02*
X140462295Y-108552380D01*
X140462295Y-108552380D02*
X140424200Y-108628571D01*
X140424200Y-108628571D02*
X140386104Y-108666666D01*
X138186104Y-99433332D02*
X138224200Y-99471428D01*
X138224200Y-99471428D02*
X138262295Y-99585713D01*
X138262295Y-99585713D02*
X138262295Y-99661904D01*
X138262295Y-99661904D02*
X138224200Y-99776190D01*
X138224200Y-99776190D02*
X138148009Y-99852380D01*
X138148009Y-99852380D02*
X138071819Y-99890475D01*
X138071819Y-99890475D02*
X137919438Y-99928571D01*
X137919438Y-99928571D02*
X137805152Y-99928571D01*
X137805152Y-99928571D02*
X137652771Y-99890475D01*
X137652771Y-99890475D02*
X137576580Y-99852380D01*
X137576580Y-99852380D02*
X137500390Y-99776190D01*
X137500390Y-99776190D02*
X137462295Y-99661904D01*
X137462295Y-99661904D02*
X137462295Y-99585713D01*
X137462295Y-99585713D02*
X137500390Y-99471428D01*
X137500390Y-99471428D02*
X137538485Y-99433332D01*
X137462295Y-99166666D02*
X137462295Y-98671428D01*
X137462295Y-98671428D02*
X137767057Y-98938094D01*
X137767057Y-98938094D02*
X137767057Y-98823809D01*
X137767057Y-98823809D02*
X137805152Y-98747618D01*
X137805152Y-98747618D02*
X137843247Y-98709523D01*
X137843247Y-98709523D02*
X137919438Y-98671428D01*
X137919438Y-98671428D02*
X138109914Y-98671428D01*
X138109914Y-98671428D02*
X138186104Y-98709523D01*
X138186104Y-98709523D02*
X138224200Y-98747618D01*
X138224200Y-98747618D02*
X138262295Y-98823809D01*
X138262295Y-98823809D02*
X138262295Y-99052380D01*
X138262295Y-99052380D02*
X138224200Y-99128571D01*
X138224200Y-99128571D02*
X138186104Y-99166666D01*
X131238485Y-103276190D02*
X131200390Y-103352380D01*
X131200390Y-103352380D02*
X131124200Y-103428571D01*
X131124200Y-103428571D02*
X131009914Y-103542857D01*
X131009914Y-103542857D02*
X130971819Y-103619047D01*
X130971819Y-103619047D02*
X130971819Y-103695238D01*
X131162295Y-103657142D02*
X131124200Y-103733333D01*
X131124200Y-103733333D02*
X131048009Y-103809523D01*
X131048009Y-103809523D02*
X130895628Y-103847619D01*
X130895628Y-103847619D02*
X130628961Y-103847619D01*
X130628961Y-103847619D02*
X130476580Y-103809523D01*
X130476580Y-103809523D02*
X130400390Y-103733333D01*
X130400390Y-103733333D02*
X130362295Y-103657142D01*
X130362295Y-103657142D02*
X130362295Y-103504761D01*
X130362295Y-103504761D02*
X130400390Y-103428571D01*
X130400390Y-103428571D02*
X130476580Y-103352380D01*
X130476580Y-103352380D02*
X130628961Y-103314285D01*
X130628961Y-103314285D02*
X130895628Y-103314285D01*
X130895628Y-103314285D02*
X131048009Y-103352380D01*
X131048009Y-103352380D02*
X131124200Y-103428571D01*
X131124200Y-103428571D02*
X131162295Y-103504761D01*
X131162295Y-103504761D02*
X131162295Y-103657142D01*
X131162295Y-102552381D02*
X131162295Y-103009524D01*
X131162295Y-102780952D02*
X130362295Y-102780952D01*
X130362295Y-102780952D02*
X130476580Y-102857143D01*
X130476580Y-102857143D02*
X130552771Y-102933333D01*
X130552771Y-102933333D02*
X130590866Y-103009524D01*
X141862295Y-95133332D02*
X141481342Y-95399999D01*
X141862295Y-95590475D02*
X141062295Y-95590475D01*
X141062295Y-95590475D02*
X141062295Y-95285713D01*
X141062295Y-95285713D02*
X141100390Y-95209523D01*
X141100390Y-95209523D02*
X141138485Y-95171428D01*
X141138485Y-95171428D02*
X141214676Y-95133332D01*
X141214676Y-95133332D02*
X141328961Y-95133332D01*
X141328961Y-95133332D02*
X141405152Y-95171428D01*
X141405152Y-95171428D02*
X141443247Y-95209523D01*
X141443247Y-95209523D02*
X141481342Y-95285713D01*
X141481342Y-95285713D02*
X141481342Y-95590475D01*
X141062295Y-94866666D02*
X141062295Y-94333332D01*
X141062295Y-94333332D02*
X141862295Y-94676190D01*
X145485714Y-97986104D02*
X145447618Y-98024200D01*
X145447618Y-98024200D02*
X145333333Y-98062295D01*
X145333333Y-98062295D02*
X145257142Y-98062295D01*
X145257142Y-98062295D02*
X145142856Y-98024200D01*
X145142856Y-98024200D02*
X145066666Y-97948009D01*
X145066666Y-97948009D02*
X145028571Y-97871819D01*
X145028571Y-97871819D02*
X144990475Y-97719438D01*
X144990475Y-97719438D02*
X144990475Y-97605152D01*
X144990475Y-97605152D02*
X145028571Y-97452771D01*
X145028571Y-97452771D02*
X145066666Y-97376580D01*
X145066666Y-97376580D02*
X145142856Y-97300390D01*
X145142856Y-97300390D02*
X145257142Y-97262295D01*
X145257142Y-97262295D02*
X145333333Y-97262295D01*
X145333333Y-97262295D02*
X145447618Y-97300390D01*
X145447618Y-97300390D02*
X145485714Y-97338485D01*
X146247618Y-98062295D02*
X145790475Y-98062295D01*
X146019047Y-98062295D02*
X146019047Y-97262295D01*
X146019047Y-97262295D02*
X145942856Y-97376580D01*
X145942856Y-97376580D02*
X145866666Y-97452771D01*
X145866666Y-97452771D02*
X145790475Y-97490866D01*
X146742857Y-97262295D02*
X146819047Y-97262295D01*
X146819047Y-97262295D02*
X146895238Y-97300390D01*
X146895238Y-97300390D02*
X146933333Y-97338485D01*
X146933333Y-97338485D02*
X146971428Y-97414676D01*
X146971428Y-97414676D02*
X147009523Y-97567057D01*
X147009523Y-97567057D02*
X147009523Y-97757533D01*
X147009523Y-97757533D02*
X146971428Y-97909914D01*
X146971428Y-97909914D02*
X146933333Y-97986104D01*
X146933333Y-97986104D02*
X146895238Y-98024200D01*
X146895238Y-98024200D02*
X146819047Y-98062295D01*
X146819047Y-98062295D02*
X146742857Y-98062295D01*
X146742857Y-98062295D02*
X146666666Y-98024200D01*
X146666666Y-98024200D02*
X146628571Y-97986104D01*
X146628571Y-97986104D02*
X146590476Y-97909914D01*
X146590476Y-97909914D02*
X146552380Y-97757533D01*
X146552380Y-97757533D02*
X146552380Y-97567057D01*
X146552380Y-97567057D02*
X146590476Y-97414676D01*
X146590476Y-97414676D02*
X146628571Y-97338485D01*
X146628571Y-97338485D02*
X146666666Y-97300390D01*
X146666666Y-97300390D02*
X146742857Y-97262295D01*
X167638485Y-94176190D02*
X167600390Y-94252380D01*
X167600390Y-94252380D02*
X167524200Y-94328571D01*
X167524200Y-94328571D02*
X167409914Y-94442857D01*
X167409914Y-94442857D02*
X167371819Y-94519047D01*
X167371819Y-94519047D02*
X167371819Y-94595238D01*
X167562295Y-94557142D02*
X167524200Y-94633333D01*
X167524200Y-94633333D02*
X167448009Y-94709523D01*
X167448009Y-94709523D02*
X167295628Y-94747619D01*
X167295628Y-94747619D02*
X167028961Y-94747619D01*
X167028961Y-94747619D02*
X166876580Y-94709523D01*
X166876580Y-94709523D02*
X166800390Y-94633333D01*
X166800390Y-94633333D02*
X166762295Y-94557142D01*
X166762295Y-94557142D02*
X166762295Y-94404761D01*
X166762295Y-94404761D02*
X166800390Y-94328571D01*
X166800390Y-94328571D02*
X166876580Y-94252380D01*
X166876580Y-94252380D02*
X167028961Y-94214285D01*
X167028961Y-94214285D02*
X167295628Y-94214285D01*
X167295628Y-94214285D02*
X167448009Y-94252380D01*
X167448009Y-94252380D02*
X167524200Y-94328571D01*
X167524200Y-94328571D02*
X167562295Y-94404761D01*
X167562295Y-94404761D02*
X167562295Y-94557142D01*
X166762295Y-93947619D02*
X166762295Y-93452381D01*
X166762295Y-93452381D02*
X167067057Y-93719047D01*
X167067057Y-93719047D02*
X167067057Y-93604762D01*
X167067057Y-93604762D02*
X167105152Y-93528571D01*
X167105152Y-93528571D02*
X167143247Y-93490476D01*
X167143247Y-93490476D02*
X167219438Y-93452381D01*
X167219438Y-93452381D02*
X167409914Y-93452381D01*
X167409914Y-93452381D02*
X167486104Y-93490476D01*
X167486104Y-93490476D02*
X167524200Y-93528571D01*
X167524200Y-93528571D02*
X167562295Y-93604762D01*
X167562295Y-93604762D02*
X167562295Y-93833333D01*
X167562295Y-93833333D02*
X167524200Y-93909524D01*
X167524200Y-93909524D02*
X167486104Y-93947619D01*
X152086104Y-95533332D02*
X152124200Y-95571428D01*
X152124200Y-95571428D02*
X152162295Y-95685713D01*
X152162295Y-95685713D02*
X152162295Y-95761904D01*
X152162295Y-95761904D02*
X152124200Y-95876190D01*
X152124200Y-95876190D02*
X152048009Y-95952380D01*
X152048009Y-95952380D02*
X151971819Y-95990475D01*
X151971819Y-95990475D02*
X151819438Y-96028571D01*
X151819438Y-96028571D02*
X151705152Y-96028571D01*
X151705152Y-96028571D02*
X151552771Y-95990475D01*
X151552771Y-95990475D02*
X151476580Y-95952380D01*
X151476580Y-95952380D02*
X151400390Y-95876190D01*
X151400390Y-95876190D02*
X151362295Y-95761904D01*
X151362295Y-95761904D02*
X151362295Y-95685713D01*
X151362295Y-95685713D02*
X151400390Y-95571428D01*
X151400390Y-95571428D02*
X151438485Y-95533332D01*
X151362295Y-95266666D02*
X151362295Y-94733332D01*
X151362295Y-94733332D02*
X152162295Y-95076190D01*
D11*
%TO.C,C9*%
X142340580Y-97590000D02*
X142059420Y-97590000D01*
X142340580Y-98610000D02*
X142059420Y-98610000D01*
D10*
%TO.C,L1*%
X145750000Y-105550000D02*
X145750000Y-106150000D01*
X145750000Y-105550000D02*
X154050000Y-105550000D01*
X145750000Y-114250000D02*
X145750000Y-113650000D01*
X145750000Y-114250000D02*
X154050000Y-114250000D01*
X154050000Y-105550000D02*
X154050000Y-106150000D01*
X154050000Y-114250000D02*
X154050000Y-113650000D01*
D11*
%TO.C,C16*%
X140840580Y-104890000D02*
X140559420Y-104890000D01*
X140840580Y-105910000D02*
X140559420Y-105910000D01*
%TO.C,R2*%
X145417017Y-91990000D02*
X145782983Y-91990000D01*
X145417017Y-95410000D02*
X145782983Y-95410000D01*
%TO.C,Q2*%
X130830000Y-94045000D02*
X130830000Y-88155000D01*
X135970000Y-94045000D02*
X135970000Y-88155000D01*
X131715000Y-95005000D02*
X131235000Y-95005000D01*
X131475000Y-94675000D01*
X131715000Y-95005000D01*
G36*
X131715000Y-95005000D02*
G01*
X131235000Y-95005000D01*
X131475000Y-94675000D01*
X131715000Y-95005000D01*
G37*
%TO.C,Q5*%
X146475000Y-99100000D02*
X146475000Y-104635000D01*
X152125000Y-99100000D02*
X152125000Y-104635000D01*
X152125000Y-104635000D02*
X146475000Y-104635000D01*
X152130000Y-98790000D02*
X151800000Y-98550000D01*
X152130000Y-98310000D01*
X152130000Y-98790000D01*
G36*
X152130000Y-98790000D02*
G01*
X151800000Y-98550000D01*
X152130000Y-98310000D01*
X152130000Y-98790000D01*
G37*
%TO.C,C11*%
X138461252Y-110465000D02*
X137938748Y-110465000D01*
X138461252Y-111935000D02*
X137938748Y-111935000D01*
%TO.C,U1*%
X138800000Y-99600000D02*
X139200000Y-99600000D01*
X138800000Y-100000000D02*
X138800000Y-99600000D01*
X138800000Y-103000000D02*
X138800000Y-103400000D01*
X138800000Y-103400000D02*
X139200000Y-103400000D01*
X142100000Y-99600000D02*
X142350000Y-99600000D01*
X142600000Y-100100000D02*
X142600000Y-99900000D01*
X142600000Y-103000000D02*
X142600000Y-103400000D01*
X142600000Y-103400000D02*
X142200000Y-103400000D01*
X142930000Y-99840000D02*
X142600000Y-99600000D01*
X142930000Y-99360000D01*
X142930000Y-99840000D01*
G36*
X142930000Y-99840000D02*
G01*
X142600000Y-99600000D01*
X142930000Y-99360000D01*
X142930000Y-99840000D01*
G37*
%TO.C,C15*%
X166140000Y-105588748D02*
X166140000Y-107011252D01*
X168860000Y-105588748D02*
X168860000Y-107011252D01*
%TO.C,C8*%
X142340580Y-95990000D02*
X142059420Y-95990000D01*
X142340580Y-97010000D02*
X142059420Y-97010000D01*
%TO.C,R5*%
X139677500Y-93867742D02*
X139677500Y-94342258D01*
X140722500Y-93867742D02*
X140722500Y-94342258D01*
%TO.C,C14*%
X144090000Y-99540580D02*
X144090000Y-99259420D01*
X145110000Y-99540580D02*
X145110000Y-99259420D01*
%TO.C,R11*%
X156417017Y-106390000D02*
X156782983Y-106390000D01*
X156417017Y-109810000D02*
X156782983Y-109810000D01*
%TO.C,C5*%
X154265000Y-95538748D02*
X154265000Y-96061252D01*
X155735000Y-95538748D02*
X155735000Y-96061252D01*
%TO.C,Q4*%
X152715000Y-98395000D02*
X152715000Y-104395000D01*
X158040000Y-98395000D02*
X158040000Y-104395000D01*
X153730000Y-105411827D02*
X153250000Y-105411827D01*
X153490000Y-105081827D01*
X153730000Y-105411827D01*
G36*
X153730000Y-105411827D02*
G01*
X153250000Y-105411827D01*
X153490000Y-105081827D01*
X153730000Y-105411827D01*
G37*
%TO.C,C6*%
X147640000Y-94688748D02*
X147640000Y-96111252D01*
X150360000Y-94688748D02*
X150360000Y-96111252D01*
%TO.C,C17*%
X137840580Y-104890000D02*
X137559420Y-104890000D01*
X137840580Y-105910000D02*
X137559420Y-105910000D01*
%TO.C,D2*%
X143750000Y-100990000D02*
X143750000Y-104250000D01*
X145450000Y-100990000D02*
X143750000Y-100990000D01*
X145450000Y-100990000D02*
X145450000Y-104250000D01*
%TO.C,D3*%
X160400000Y-110790000D02*
X160400000Y-114650000D01*
X162400000Y-110790000D02*
X160400000Y-110790000D01*
X162400000Y-110790000D02*
X162400000Y-114650000D01*
%TO.C,C4*%
X136490000Y-93964420D02*
X136490000Y-94245580D01*
X137510000Y-93964420D02*
X137510000Y-94245580D01*
%TO.C,C1*%
X136490000Y-97345580D02*
X136490000Y-97064420D01*
X137510000Y-97345580D02*
X137510000Y-97064420D01*
%TO.C,C13*%
X166790000Y-96359420D02*
X166790000Y-96640580D01*
X167810000Y-96359420D02*
X167810000Y-96640580D01*
%TO.C,R3*%
X137100000Y-108950000D02*
X137100000Y-108650000D01*
X139300000Y-108950000D02*
X139300000Y-108650000D01*
%TO.C,C3*%
X138090000Y-97345580D02*
X138090000Y-97064420D01*
X139110000Y-97345580D02*
X139110000Y-97064420D01*
%TO.C,Q1*%
X130830000Y-95950000D02*
X130830000Y-101840000D01*
X135970000Y-95950000D02*
X135970000Y-101840000D01*
X135325000Y-95320000D02*
X135085000Y-94990000D01*
X135565000Y-94990000D01*
X135325000Y-95320000D01*
G36*
X135325000Y-95320000D02*
G01*
X135085000Y-94990000D01*
X135565000Y-94990000D01*
X135325000Y-95320000D01*
G37*
%TO.C,R7*%
X138077500Y-93867742D02*
X138077500Y-94342258D01*
X139122500Y-93867742D02*
X139122500Y-94342258D01*
%TO.C,C10*%
X145459420Y-95990000D02*
X145740580Y-95990000D01*
X145459420Y-97010000D02*
X145740580Y-97010000D01*
%TO.C,Q3*%
X161130000Y-98245000D02*
X161130000Y-92355000D01*
X166270000Y-98245000D02*
X166270000Y-92355000D01*
X162015000Y-99205000D02*
X161535000Y-99205000D01*
X161775000Y-98875000D01*
X162015000Y-99205000D01*
G36*
X162015000Y-99205000D02*
G01*
X161535000Y-99205000D01*
X161775000Y-98875000D01*
X162015000Y-99205000D01*
G37*
%TO.C,C7*%
X150940000Y-94688748D02*
X150940000Y-96111252D01*
X153660000Y-94688748D02*
X153660000Y-96111252D01*
%TD*%
%LPC*%
D12*
X149200000Y-86400000D02*
G75*
G02*
X144500021Y-84699975I19200J7400000D01*
G01*
X156000000Y-117500000D02*
X141000000Y-117500000D01*
D13*
X160600000Y-87700000D02*
X160100000Y-88300000D01*
X160100000Y-91000000D01*
X160800000Y-91700000D01*
X165800000Y-91600000D01*
X166100000Y-91900000D01*
X166100000Y-96100000D01*
X165700000Y-96500000D01*
X160700000Y-96500000D01*
X159700000Y-97500000D01*
X158800000Y-97500000D01*
X157700000Y-98600000D01*
X155300000Y-98600000D01*
X156500000Y-97400000D01*
X156500000Y-95800000D01*
X155700000Y-94800000D01*
X154400000Y-94800000D01*
X153500000Y-93800000D01*
X148300000Y-93800000D01*
X147100000Y-95000000D01*
X146200000Y-95000000D01*
X146200000Y-92000000D01*
X146400000Y-91800000D01*
X152800000Y-91800000D01*
X157800000Y-86800000D01*
X160600000Y-86800000D01*
X160600000Y-87700000D01*
G36*
X160600000Y-87700000D02*
G01*
X160100000Y-88300000D01*
X160100000Y-91000000D01*
X160800000Y-91700000D01*
X165800000Y-91600000D01*
X166100000Y-91900000D01*
X166100000Y-96100000D01*
X165700000Y-96500000D01*
X160700000Y-96500000D01*
X159700000Y-97500000D01*
X158800000Y-97500000D01*
X157700000Y-98600000D01*
X155300000Y-98600000D01*
X156500000Y-97400000D01*
X156500000Y-95800000D01*
X155700000Y-94800000D01*
X154400000Y-94800000D01*
X153500000Y-93800000D01*
X148300000Y-93800000D01*
X147100000Y-95000000D01*
X146200000Y-95000000D01*
X146200000Y-92000000D01*
X146400000Y-91800000D01*
X152800000Y-91800000D01*
X157800000Y-86800000D01*
X160600000Y-86800000D01*
X160600000Y-87700000D01*
G37*
D14*
X164200000Y-109100000D02*
X164200000Y-113400000D01*
D13*
X166600000Y-113100000D02*
X166600000Y-117800000D01*
X164900000Y-119500000D01*
X155500000Y-119500000D01*
X154200000Y-118200000D01*
X154200000Y-116800000D01*
X155900000Y-115100000D01*
X159800000Y-115100000D01*
X162800000Y-112100000D01*
X165600000Y-112100000D01*
X166600000Y-113100000D01*
G36*
X166600000Y-113100000D02*
G01*
X166600000Y-117800000D01*
X164900000Y-119500000D01*
X155500000Y-119500000D01*
X154200000Y-118200000D01*
X154200000Y-116800000D01*
X155900000Y-115100000D01*
X159800000Y-115100000D01*
X162800000Y-112100000D01*
X165600000Y-112100000D01*
X166600000Y-113100000D01*
G37*
X156000000Y-109600000D02*
X154400000Y-111200000D01*
X153700000Y-111200000D01*
X153700000Y-106500000D01*
X156000000Y-106500000D01*
X156000000Y-109600000D01*
G36*
X156000000Y-109600000D02*
G01*
X154400000Y-111200000D01*
X153700000Y-111200000D01*
X153700000Y-106500000D01*
X156000000Y-106500000D01*
X156000000Y-109600000D01*
G37*
X156100000Y-104700000D02*
X155400000Y-105400000D01*
X147400000Y-105400000D01*
X147000000Y-105000000D01*
X147000000Y-104200000D01*
X147500000Y-103700000D01*
X156100000Y-103700000D01*
X156100000Y-104700000D01*
G36*
X156100000Y-104700000D02*
G01*
X155400000Y-105400000D01*
X147400000Y-105400000D01*
X147000000Y-105000000D01*
X147000000Y-104200000D01*
X147500000Y-103700000D01*
X156100000Y-103700000D01*
X156100000Y-104700000D01*
G37*
X164400000Y-98800000D02*
X166300000Y-100700000D01*
X166300000Y-105200000D01*
X165800000Y-105700000D01*
X163800000Y-105700000D01*
X161600000Y-107900000D01*
X161600000Y-109600000D01*
X161200000Y-110000000D01*
X157700000Y-110000000D01*
X157200000Y-109500000D01*
X157200000Y-106700000D01*
X158600000Y-105300000D01*
X158600000Y-104300000D01*
X161100000Y-101800000D01*
X161100000Y-97800000D01*
X161400000Y-97500000D01*
X164400000Y-97500000D01*
X164400000Y-98800000D01*
G36*
X164400000Y-98800000D02*
G01*
X166300000Y-100700000D01*
X166300000Y-105200000D01*
X165800000Y-105700000D01*
X163800000Y-105700000D01*
X161600000Y-107900000D01*
X161600000Y-109600000D01*
X161200000Y-110000000D01*
X157700000Y-110000000D01*
X157200000Y-109500000D01*
X157200000Y-106700000D01*
X158600000Y-105300000D01*
X158600000Y-104300000D01*
X161100000Y-101800000D01*
X161100000Y-97800000D01*
X161400000Y-97500000D01*
X164400000Y-97500000D01*
X164400000Y-98800000D01*
G37*
D14*
X159200000Y-86400000D02*
X161400000Y-86400000D01*
D12*
X141000000Y-117500000D02*
G75*
G02*
X134900027Y-113499988I32000J6700000D01*
G01*
D13*
X145000000Y-90300000D02*
X145000000Y-94800000D01*
X144800000Y-95000000D01*
X143800000Y-95000000D01*
X140900000Y-92100000D01*
X131500000Y-92100000D01*
X131400000Y-92000000D01*
X131400000Y-87300000D01*
X131600000Y-87100000D01*
X141800000Y-87100000D01*
X145000000Y-90300000D01*
G36*
X145000000Y-90300000D02*
G01*
X145000000Y-94800000D01*
X144800000Y-95000000D01*
X143800000Y-95000000D01*
X140900000Y-92100000D01*
X131500000Y-92100000D01*
X131400000Y-92000000D01*
X131400000Y-87300000D01*
X131600000Y-87100000D01*
X141800000Y-87100000D01*
X145000000Y-90300000D01*
G37*
X135400000Y-106400000D02*
X136000000Y-107000000D01*
X136000000Y-109200000D01*
X135300000Y-109900000D01*
X133400000Y-109900000D01*
X131400000Y-107900000D01*
X131400000Y-101300000D01*
X135400000Y-101300000D01*
X135400000Y-106400000D01*
G36*
X135400000Y-106400000D02*
G01*
X136000000Y-107000000D01*
X136000000Y-109200000D01*
X135300000Y-109900000D01*
X133400000Y-109900000D01*
X131400000Y-107900000D01*
X131400000Y-101300000D01*
X135400000Y-101300000D01*
X135400000Y-106400000D01*
G37*
D15*
X148500000Y-97400000D02*
X152000000Y-97400000D01*
X152000000Y-98200000D01*
X148500000Y-98200000D01*
X148500000Y-97400000D01*
G36*
X148500000Y-97400000D02*
G01*
X152000000Y-97400000D01*
X152000000Y-98200000D01*
X148500000Y-98200000D01*
X148500000Y-97400000D01*
G37*
D12*
X149200000Y-86400000D02*
X153600000Y-86400000D01*
D13*
X134100000Y-94500000D02*
X135400000Y-95800000D01*
X135400000Y-96600000D01*
X132700000Y-96600000D01*
X132700000Y-95500000D01*
X131400000Y-94200000D01*
X131400000Y-93400000D01*
X134100000Y-93400000D01*
X134100000Y-94500000D01*
G36*
X134100000Y-94500000D02*
G01*
X135400000Y-95800000D01*
X135400000Y-96600000D01*
X132700000Y-96600000D01*
X132700000Y-95500000D01*
X131400000Y-94200000D01*
X131400000Y-93400000D01*
X134100000Y-93400000D01*
X134100000Y-94500000D01*
G37*
D16*
%TO.C,C9*%
X142975000Y-98100000D03*
X141425000Y-98100000D03*
%TD*%
D17*
%TO.C,L1*%
X146850000Y-109900000D03*
X152950000Y-109900000D03*
%TD*%
D16*
%TO.C,C16*%
X141475000Y-105400000D03*
X139925000Y-105400000D03*
%TD*%
D18*
%TO.C,R2*%
X144850000Y-93700000D03*
X146350000Y-93700000D03*
%TD*%
D19*
%TO.C,Q2*%
X131495000Y-93770000D03*
X132765000Y-93770000D03*
X134035000Y-93770000D03*
X135305000Y-93770000D03*
D20*
X133400000Y-90410000D03*
D21*
X131495000Y-88305000D03*
X132765000Y-88305000D03*
X134035000Y-88305000D03*
X135305000Y-88305000D03*
%TD*%
D22*
%TO.C,Q5*%
X151205000Y-98585000D03*
X149935000Y-98585000D03*
X148665000Y-98585000D03*
X147395000Y-98585000D03*
D23*
X151613000Y-101300000D03*
X146987000Y-101300000D03*
D24*
X149300000Y-102690000D03*
D25*
X151550000Y-104170000D03*
X147050000Y-104170000D03*
%TD*%
D26*
%TO.C,C11*%
X139150000Y-111200000D03*
X137250000Y-111200000D03*
%TD*%
D27*
%TO.C,U1*%
X141700000Y-99800000D03*
X141200000Y-99800000D03*
X140700000Y-99800000D03*
X140200000Y-99800000D03*
X139700000Y-99800000D03*
D28*
X139000000Y-100500000D03*
X139000000Y-101000000D03*
X139000000Y-101500000D03*
X139000000Y-102000000D03*
X139000000Y-102500000D03*
D27*
X139700000Y-103200000D03*
X140200000Y-103200000D03*
X140700000Y-103200000D03*
X141200000Y-103200000D03*
X141700000Y-103200000D03*
D28*
X142400000Y-102500000D03*
X142400000Y-102000000D03*
X142400000Y-101500000D03*
X142400000Y-101000000D03*
X142400000Y-100500000D03*
D29*
X140700000Y-101500000D03*
%TD*%
D30*
%TO.C,C15*%
X167500000Y-104825000D03*
X167500000Y-107775000D03*
%TD*%
D16*
%TO.C,C8*%
X142975000Y-96500000D03*
X141425000Y-96500000D03*
%TD*%
D31*
%TO.C,R5*%
X140200000Y-93280000D03*
X140200000Y-94930000D03*
%TD*%
D32*
%TO.C,C14*%
X144600000Y-100175000D03*
X144600000Y-98625000D03*
%TD*%
D18*
%TO.C,R11*%
X155850000Y-108100000D03*
X157350000Y-108100000D03*
%TD*%
D33*
%TO.C,C5*%
X155000000Y-94850000D03*
X155000000Y-96750000D03*
%TD*%
D34*
%TO.C,Q4*%
X154765000Y-104225000D03*
D35*
X157305000Y-104225000D03*
D36*
X155400000Y-100725000D03*
D37*
X153405000Y-98475000D03*
X154735000Y-98475000D03*
X156065000Y-98475000D03*
X157395000Y-98475000D03*
%TD*%
D30*
%TO.C,C6*%
X149000000Y-93925000D03*
X149000000Y-96875000D03*
%TD*%
D16*
%TO.C,C17*%
X138475000Y-105400000D03*
X136925000Y-105400000D03*
%TD*%
D38*
%TO.C,D2*%
X144600000Y-101750000D03*
X144600000Y-104250000D03*
%TD*%
D39*
%TO.C,D3*%
X161400000Y-111600000D03*
X161400000Y-114400000D03*
%TD*%
D40*
%TO.C,C4*%
X137000000Y-93330000D03*
X137000000Y-94880000D03*
%TD*%
D32*
%TO.C,C1*%
X137000000Y-97980000D03*
X137000000Y-96430000D03*
%TD*%
D40*
%TO.C,C13*%
X167300000Y-95725000D03*
X167300000Y-97275000D03*
%TD*%
D41*
%TO.C,R3*%
X138200000Y-108175000D03*
X138200000Y-109425000D03*
%TD*%
D32*
%TO.C,C3*%
X138600000Y-97980000D03*
X138600000Y-96430000D03*
%TD*%
D19*
%TO.C,Q1*%
X135305000Y-96225000D03*
X134035000Y-96225000D03*
X132765000Y-96225000D03*
X131495000Y-96225000D03*
D20*
X133400000Y-99585000D03*
D21*
X135305000Y-101690000D03*
X134035000Y-101690000D03*
X132765000Y-101690000D03*
X131495000Y-101690000D03*
%TD*%
D31*
%TO.C,R7*%
X138600000Y-93280000D03*
X138600000Y-94930000D03*
%TD*%
D42*
%TO.C,C10*%
X144825000Y-96500000D03*
X146375000Y-96500000D03*
%TD*%
D43*
%TO.C,J5*%
X156000000Y-117500000D03*
%TD*%
D19*
%TO.C,Q3*%
X161795000Y-97970000D03*
X163065000Y-97970000D03*
X164335000Y-97970000D03*
X165605000Y-97970000D03*
D20*
X163700000Y-94610000D03*
D21*
X161795000Y-92505000D03*
X163065000Y-92505000D03*
X164335000Y-92505000D03*
X165605000Y-92505000D03*
%TD*%
D30*
%TO.C,C7*%
X152300000Y-93925000D03*
X152300000Y-96875000D03*
%TD*%
D43*
%TO.C,J6*%
X144500000Y-84700000D03*
%TD*%
D44*
%TO.C,J2*%
X133440000Y-110900000D03*
D45*
X134700000Y-113000000D03*
X134700000Y-108800000D03*
%TD*%
D46*
%TO.C,J1*%
X151350000Y-86400000D03*
X153650000Y-86400000D03*
X159150000Y-86400000D03*
X161450000Y-86400000D03*
D47*
X152750000Y-83025000D03*
X156400000Y-83025000D03*
X160050000Y-83025000D03*
X149150000Y-90200000D03*
D48*
X151100000Y-90200000D03*
X161700000Y-90200000D03*
D47*
X163650000Y-90200000D03*
X149150000Y-81750000D03*
D48*
X151100000Y-81750000D03*
X161700000Y-81750000D03*
D47*
X163650000Y-81750000D03*
%TD*%
D46*
%TO.C,J3*%
X164200000Y-111350000D03*
X164200000Y-109050000D03*
X164200000Y-103550000D03*
X164200000Y-101250000D03*
D47*
X160825000Y-109950000D03*
X160825000Y-106300000D03*
X160825000Y-102650000D03*
X168000000Y-113550000D03*
D48*
X168000000Y-111600000D03*
X168000000Y-101000000D03*
D47*
X168000000Y-99050000D03*
X159550000Y-113550000D03*
D48*
X159550000Y-111600000D03*
X159550000Y-101000000D03*
D47*
X159550000Y-99050000D03*
%TD*%
%LPD*%
M02*
