%TF.GenerationSoftware,KiCad,Pcbnew,8.0.5*%
%TF.CreationDate,2024-12-28T17:38:17+01:00*%
%TF.ProjectId,12VLDO,3132564c-444f-42e6-9b69-6361645f7063,rev?*%
%TF.SameCoordinates,Original*%
%TF.FileFunction,Legend,Top*%
%TF.FilePolarity,Positive*%
%FSLAX46Y46*%
G04 Gerber Fmt 4.6, Leading zero omitted, Abs format (unit mm)*
G04 Created by KiCad (PCBNEW 8.0.5) date 2024-12-28 17:38:17*
%MOMM*%
%LPD*%
G01*
G04 APERTURE LIST*
G04 Aperture macros list*
%AMRoundRect*
0 Rectangle with rounded corners*
0 $1 Rounding radius*
0 $2 $3 $4 $5 $6 $7 $8 $9 X,Y pos of 4 corners*
0 Add a 4 corners polygon primitive as box body*
4,1,4,$2,$3,$4,$5,$6,$7,$8,$9,$2,$3,0*
0 Add four circle primitives for the rounded corners*
1,1,$1+$1,$2,$3*
1,1,$1+$1,$4,$5*
1,1,$1+$1,$6,$7*
1,1,$1+$1,$8,$9*
0 Add four rect primitives between the rounded corners*
20,1,$1+$1,$2,$3,$4,$5,0*
20,1,$1+$1,$4,$5,$6,$7,0*
20,1,$1+$1,$6,$7,$8,$9,0*
20,1,$1+$1,$8,$9,$2,$3,0*%
%AMFreePoly0*
4,1,19,0.500000,-0.750000,0.000000,-0.750000,0.000000,-0.744911,-0.071157,-0.744911,-0.207708,-0.704816,-0.327430,-0.627875,-0.420627,-0.520320,-0.479746,-0.390866,-0.500000,-0.250000,-0.500000,0.250000,-0.479746,0.390866,-0.420627,0.520320,-0.327430,0.627875,-0.207708,0.704816,-0.071157,0.744911,0.000000,0.744911,0.000000,0.750000,0.500000,0.750000,0.500000,-0.750000,0.500000,-0.750000,
$1*%
%AMFreePoly1*
4,1,19,0.000000,0.744911,0.071157,0.744911,0.207708,0.704816,0.327430,0.627875,0.420627,0.520320,0.479746,0.390866,0.500000,0.250000,0.500000,-0.250000,0.479746,-0.390866,0.420627,-0.520320,0.327430,-0.627875,0.207708,-0.704816,0.071157,-0.744911,0.000000,-0.744911,0.000000,-0.750000,-0.500000,-0.750000,-0.500000,0.750000,0.000000,0.750000,0.000000,0.744911,0.000000,0.744911,
$1*%
G04 Aperture macros list end*
%ADD10C,0.150000*%
%ADD11C,0.120000*%
%ADD12RoundRect,0.350000X0.600000X-0.350000X0.600000X0.350000X-0.600000X0.350000X-0.600000X-0.350000X0*%
%ADD13RoundRect,0.125000X0.525000X-0.125000X0.525000X0.125000X-0.525000X0.125000X-0.525000X-0.125000X0*%
%ADD14RoundRect,0.125000X-0.125000X-0.525000X0.125000X-0.525000X0.125000X0.525000X-0.125000X0.525000X0*%
%ADD15RoundRect,0.350000X-0.350000X-0.600000X0.350000X-0.600000X0.350000X0.600000X-0.350000X0.600000X0*%
%ADD16R,3.150000X3.150000*%
%ADD17RoundRect,0.087500X0.425000X-0.087500X0.425000X0.087500X-0.425000X0.087500X-0.425000X-0.087500X0*%
%ADD18RoundRect,0.087500X0.087500X-0.425000X0.087500X0.425000X-0.087500X0.425000X-0.087500X-0.425000X0*%
%ADD19FreePoly0,90.000000*%
%ADD20FreePoly1,90.000000*%
%ADD21RoundRect,0.250000X0.250000X0.750000X-0.250000X0.750000X-0.250000X-0.750000X0.250000X-0.750000X0*%
%ADD22RoundRect,0.250000X-0.750000X0.250000X-0.750000X-0.250000X0.750000X-0.250000X0.750000X0.250000X0*%
%ADD23RoundRect,0.250000X0.325000X1.100000X-0.325000X1.100000X-0.325000X-1.100000X0.325000X-1.100000X0*%
%ADD24RoundRect,0.250000X-0.475000X0.250000X-0.475000X-0.250000X0.475000X-0.250000X0.475000X0.250000X0*%
%ADD25RoundRect,0.225000X-0.250000X0.225000X-0.250000X-0.225000X0.250000X-0.225000X0.250000X0.225000X0*%
%ADD26RoundRect,0.250000X0.325000X0.650000X-0.325000X0.650000X-0.325000X-0.650000X0.325000X-0.650000X0*%
G04 APERTURE END LIST*
D10*
X145289160Y-102989533D02*
X145898684Y-102989533D01*
X146189160Y-97189533D02*
X146798684Y-97189533D01*
X146493922Y-97494295D02*
X146493922Y-96884771D01*
G36*
X158687590Y-102746262D02*
G01*
X158708472Y-102767144D01*
X158733207Y-102816613D01*
X158733207Y-102933585D01*
X158708472Y-102983053D01*
X158687589Y-103003937D01*
X158638121Y-103028671D01*
X158521150Y-103028671D01*
X158471682Y-103003937D01*
X158450798Y-102983052D01*
X158426064Y-102933584D01*
X158426064Y-102816614D01*
X158450799Y-102767144D01*
X158471682Y-102746262D01*
X158521150Y-102721528D01*
X158638121Y-102721528D01*
X158687590Y-102746262D01*
G37*
G36*
X158687590Y-102403405D02*
G01*
X158708472Y-102424287D01*
X158733207Y-102473756D01*
X158733207Y-102476442D01*
X158708472Y-102525910D01*
X158687589Y-102546794D01*
X158638121Y-102571528D01*
X158521150Y-102571528D01*
X158471682Y-102546794D01*
X158450798Y-102525909D01*
X158426064Y-102476441D01*
X158426064Y-102473757D01*
X158450799Y-102424287D01*
X158471682Y-102403405D01*
X158521150Y-102378671D01*
X158638121Y-102378671D01*
X158687590Y-102403405D01*
G37*
G36*
X159770656Y-103267560D02*
G01*
X158150521Y-103267560D01*
X158150521Y-102456052D01*
X158276064Y-102456052D01*
X158276064Y-102494147D01*
X158277505Y-102508779D01*
X158278535Y-102511267D01*
X158278727Y-102513957D01*
X158283982Y-102527689D01*
X158322078Y-102603878D01*
X158326040Y-102610172D01*
X158326799Y-102612004D01*
X158328492Y-102614067D01*
X158329911Y-102616321D01*
X158331405Y-102617617D01*
X158336126Y-102623369D01*
X158359284Y-102646527D01*
X158336127Y-102669685D01*
X158331406Y-102675437D01*
X158329911Y-102676734D01*
X158328491Y-102678988D01*
X158326800Y-102681050D01*
X158326041Y-102682880D01*
X158322078Y-102689177D01*
X158283982Y-102765368D01*
X158278727Y-102779099D01*
X158278535Y-102781788D01*
X158277505Y-102784277D01*
X158276064Y-102798909D01*
X158276064Y-102951290D01*
X158277505Y-102965922D01*
X158278535Y-102968410D01*
X158278727Y-102971100D01*
X158283982Y-102984832D01*
X158322078Y-103061021D01*
X158326040Y-103067315D01*
X158326799Y-103069147D01*
X158328492Y-103071210D01*
X158329911Y-103073464D01*
X158331405Y-103074760D01*
X158336126Y-103080512D01*
X158374221Y-103118608D01*
X158379972Y-103123328D01*
X158381271Y-103124826D01*
X158383526Y-103126245D01*
X158385586Y-103127936D01*
X158387416Y-103128694D01*
X158393714Y-103132658D01*
X158469904Y-103170753D01*
X158483636Y-103176008D01*
X158486323Y-103176198D01*
X158488813Y-103177230D01*
X158503445Y-103178671D01*
X158655826Y-103178671D01*
X158670458Y-103177230D01*
X158672947Y-103176198D01*
X158675635Y-103176008D01*
X158689367Y-103170753D01*
X158765558Y-103132658D01*
X158771857Y-103128693D01*
X158773685Y-103127936D01*
X158775741Y-103126248D01*
X158778001Y-103124826D01*
X158779301Y-103123326D01*
X158785051Y-103118608D01*
X158823146Y-103080512D01*
X158827863Y-103074763D01*
X158829362Y-103073464D01*
X158830783Y-103071205D01*
X158832473Y-103069147D01*
X158833230Y-103067317D01*
X158837194Y-103061021D01*
X158875289Y-102984831D01*
X158880544Y-102971099D01*
X158880734Y-102968411D01*
X158881766Y-102965922D01*
X158883207Y-102951290D01*
X158883207Y-102827624D01*
X159038558Y-102827624D01*
X159039410Y-102839615D01*
X159039410Y-102851636D01*
X159040440Y-102854124D01*
X159040632Y-102856814D01*
X159046010Y-102867570D01*
X159050609Y-102878672D01*
X159052513Y-102880576D01*
X159053719Y-102882987D01*
X159062801Y-102890864D01*
X159071301Y-102899364D01*
X159073789Y-102900394D01*
X159075826Y-102902161D01*
X159087229Y-102905962D01*
X159098337Y-102910563D01*
X159102163Y-102910939D01*
X159103589Y-102911415D01*
X159105563Y-102911274D01*
X159112969Y-102912004D01*
X159418922Y-102912004D01*
X159418922Y-103103671D01*
X159420363Y-103118303D01*
X159431562Y-103145339D01*
X159452254Y-103166031D01*
X159479290Y-103177230D01*
X159508554Y-103177230D01*
X159535590Y-103166031D01*
X159556282Y-103145339D01*
X159567481Y-103118303D01*
X159568922Y-103103671D01*
X159568922Y-102912004D01*
X159608208Y-102912004D01*
X159622840Y-102910563D01*
X159649876Y-102899364D01*
X159670568Y-102878672D01*
X159681767Y-102851636D01*
X159681767Y-102822372D01*
X159670568Y-102795336D01*
X159649876Y-102774644D01*
X159622840Y-102763445D01*
X159608208Y-102762004D01*
X159568922Y-102762004D01*
X159568922Y-102570337D01*
X159567481Y-102555705D01*
X159556282Y-102528669D01*
X159535590Y-102507977D01*
X159508554Y-102496778D01*
X159479290Y-102496778D01*
X159452254Y-102507977D01*
X159431562Y-102528669D01*
X159420363Y-102555705D01*
X159418922Y-102570337D01*
X159418922Y-102762004D01*
X159217026Y-102762004D01*
X159374597Y-102289293D01*
X159377857Y-102274957D01*
X159375782Y-102245767D01*
X159362696Y-102219593D01*
X159340589Y-102200419D01*
X159312826Y-102191165D01*
X159283636Y-102193240D01*
X159257463Y-102206327D01*
X159238289Y-102228434D01*
X159232295Y-102241859D01*
X159041818Y-102813287D01*
X159040168Y-102820540D01*
X159039410Y-102822372D01*
X159039410Y-102823877D01*
X159038558Y-102827624D01*
X158883207Y-102827624D01*
X158883207Y-102798909D01*
X158881766Y-102784277D01*
X158880734Y-102781787D01*
X158880544Y-102779100D01*
X158875289Y-102765368D01*
X158837194Y-102689177D01*
X158833229Y-102682877D01*
X158832472Y-102681050D01*
X158830783Y-102678993D01*
X158829362Y-102676734D01*
X158827863Y-102675434D01*
X158823145Y-102669685D01*
X158799987Y-102646527D01*
X158823146Y-102623369D01*
X158827863Y-102617620D01*
X158829362Y-102616321D01*
X158830783Y-102614062D01*
X158832473Y-102612004D01*
X158833230Y-102610174D01*
X158837194Y-102603878D01*
X158875289Y-102527688D01*
X158880544Y-102513956D01*
X158880734Y-102511268D01*
X158881766Y-102508779D01*
X158883207Y-102494147D01*
X158883207Y-102456052D01*
X158881766Y-102441420D01*
X158880734Y-102438930D01*
X158880544Y-102436243D01*
X158875289Y-102422511D01*
X158837194Y-102346320D01*
X158833229Y-102340020D01*
X158832472Y-102338193D01*
X158830783Y-102336136D01*
X158829362Y-102333877D01*
X158827863Y-102332577D01*
X158823145Y-102326828D01*
X158785050Y-102288733D01*
X158779300Y-102284014D01*
X158778001Y-102282516D01*
X158775741Y-102281094D01*
X158773685Y-102279406D01*
X158771857Y-102278648D01*
X158765558Y-102274684D01*
X158689367Y-102236589D01*
X158675635Y-102231334D01*
X158672947Y-102231143D01*
X158670458Y-102230112D01*
X158655826Y-102228671D01*
X158503445Y-102228671D01*
X158488813Y-102230112D01*
X158486323Y-102231143D01*
X158483636Y-102231334D01*
X158469904Y-102236589D01*
X158393714Y-102274684D01*
X158387414Y-102278648D01*
X158385587Y-102279406D01*
X158383530Y-102281094D01*
X158381271Y-102282516D01*
X158379971Y-102284014D01*
X158374222Y-102288733D01*
X158336127Y-102326828D01*
X158331406Y-102332580D01*
X158329911Y-102333877D01*
X158328491Y-102336131D01*
X158326800Y-102338193D01*
X158326041Y-102340023D01*
X158322078Y-102346320D01*
X158283982Y-102422511D01*
X158278727Y-102436242D01*
X158278535Y-102438931D01*
X158277505Y-102441420D01*
X158276064Y-102456052D01*
X158150521Y-102456052D01*
X158150521Y-101801084D01*
X158239410Y-101801084D01*
X158239410Y-101830348D01*
X158250609Y-101857384D01*
X158271301Y-101878076D01*
X158298337Y-101889275D01*
X158312969Y-101890716D01*
X158808207Y-101890716D01*
X158822839Y-101889275D01*
X158849875Y-101878076D01*
X158870567Y-101857384D01*
X158881766Y-101830348D01*
X158881766Y-101801084D01*
X158870567Y-101774048D01*
X158849875Y-101753356D01*
X158822839Y-101742157D01*
X158808207Y-101740716D01*
X158494035Y-101740716D01*
X158823145Y-101411606D01*
X158832473Y-101400241D01*
X158833505Y-101397748D01*
X158835269Y-101395715D01*
X158841263Y-101382290D01*
X158879358Y-101268004D01*
X158881007Y-101260750D01*
X158881766Y-101258919D01*
X158882027Y-101256264D01*
X158882618Y-101253667D01*
X158882477Y-101251692D01*
X158883207Y-101244287D01*
X158883207Y-101234906D01*
X159038558Y-101234906D01*
X159040632Y-101264096D01*
X159053719Y-101290271D01*
X159075827Y-101309444D01*
X159103588Y-101318698D01*
X159132778Y-101316624D01*
X159146510Y-101311369D01*
X159222701Y-101273274D01*
X159229000Y-101269309D01*
X159230828Y-101268552D01*
X159232884Y-101266863D01*
X159235144Y-101265442D01*
X159236443Y-101263943D01*
X159242193Y-101259225D01*
X159266541Y-101234876D01*
X159266541Y-101740716D01*
X159112969Y-101740716D01*
X159098337Y-101742157D01*
X159071301Y-101753356D01*
X159050609Y-101774048D01*
X159039410Y-101801084D01*
X159039410Y-101830348D01*
X159050609Y-101857384D01*
X159071301Y-101878076D01*
X159098337Y-101889275D01*
X159112969Y-101890716D01*
X159570112Y-101890716D01*
X159584744Y-101889275D01*
X159611780Y-101878076D01*
X159632472Y-101857384D01*
X159643671Y-101830348D01*
X159643671Y-101801084D01*
X159632472Y-101774048D01*
X159611780Y-101753356D01*
X159584744Y-101742157D01*
X159570112Y-101740716D01*
X159416541Y-101740716D01*
X159416541Y-101015716D01*
X159416535Y-101015663D01*
X159416541Y-101015638D01*
X159416525Y-101015562D01*
X159415100Y-101001084D01*
X159412258Y-100994223D01*
X159410802Y-100986943D01*
X159406713Y-100980837D01*
X159403901Y-100974048D01*
X159398650Y-100968797D01*
X159394519Y-100962628D01*
X159388404Y-100958551D01*
X159383209Y-100953356D01*
X159376348Y-100950514D01*
X159370170Y-100946395D01*
X159362961Y-100944968D01*
X159356173Y-100942157D01*
X159348747Y-100942157D01*
X159341463Y-100940716D01*
X159334258Y-100942157D01*
X159326909Y-100942157D01*
X159320048Y-100944998D01*
X159312768Y-100946455D01*
X159306662Y-100950543D01*
X159299873Y-100953356D01*
X159294622Y-100958606D01*
X159288453Y-100962738D01*
X159279232Y-100973996D01*
X159279181Y-100974048D01*
X159279171Y-100974070D01*
X159279137Y-100974113D01*
X159207064Y-101082221D01*
X159144732Y-101144552D01*
X159079428Y-101177205D01*
X159066985Y-101185037D01*
X159047812Y-101207145D01*
X159038558Y-101234906D01*
X158883207Y-101234906D01*
X158883207Y-101168097D01*
X158881766Y-101153465D01*
X158880734Y-101150975D01*
X158880544Y-101148288D01*
X158875289Y-101134556D01*
X158837194Y-101058365D01*
X158833229Y-101052065D01*
X158832472Y-101050238D01*
X158830783Y-101048181D01*
X158829362Y-101045922D01*
X158827863Y-101044622D01*
X158823145Y-101038873D01*
X158785050Y-101000778D01*
X158779300Y-100996059D01*
X158778001Y-100994561D01*
X158775741Y-100993139D01*
X158773685Y-100991451D01*
X158771857Y-100990693D01*
X158765558Y-100986729D01*
X158689367Y-100948634D01*
X158675635Y-100943379D01*
X158672947Y-100943188D01*
X158670458Y-100942157D01*
X158655826Y-100940716D01*
X158465350Y-100940716D01*
X158450718Y-100942157D01*
X158448228Y-100943188D01*
X158445541Y-100943379D01*
X158431809Y-100948634D01*
X158355619Y-100986729D01*
X158349322Y-100990692D01*
X158347493Y-100991450D01*
X158345434Y-100993139D01*
X158343176Y-100994561D01*
X158341876Y-100996059D01*
X158336128Y-101000777D01*
X158298032Y-101038872D01*
X158288704Y-101050238D01*
X158277505Y-101077274D01*
X158277505Y-101106536D01*
X158288703Y-101133573D01*
X158309396Y-101154266D01*
X158336432Y-101165465D01*
X158365694Y-101165465D01*
X158392731Y-101154267D01*
X158404096Y-101144940D01*
X158433586Y-101115450D01*
X158483055Y-101090716D01*
X158638121Y-101090716D01*
X158687590Y-101115450D01*
X158708472Y-101136332D01*
X158733207Y-101185801D01*
X158733207Y-101232117D01*
X158704559Y-101318059D01*
X158259936Y-101762683D01*
X158250609Y-101774048D01*
X158239410Y-101801084D01*
X158150521Y-101801084D01*
X158150521Y-100851827D01*
X159770656Y-100851827D01*
X159770656Y-103267560D01*
G37*
X140062295Y-101066666D02*
X140633723Y-101066666D01*
X140633723Y-101066666D02*
X140748009Y-101104761D01*
X140748009Y-101104761D02*
X140824200Y-101180952D01*
X140824200Y-101180952D02*
X140862295Y-101295237D01*
X140862295Y-101295237D02*
X140862295Y-101371428D01*
X140328961Y-100342856D02*
X140862295Y-100342856D01*
X140024200Y-100533332D02*
X140595628Y-100723809D01*
X140595628Y-100723809D02*
X140595628Y-100228570D01*
X138033333Y-99962295D02*
X138033333Y-100533723D01*
X138033333Y-100533723D02*
X137995238Y-100648009D01*
X137995238Y-100648009D02*
X137919047Y-100724200D01*
X137919047Y-100724200D02*
X137804762Y-100762295D01*
X137804762Y-100762295D02*
X137728571Y-100762295D01*
X138338095Y-99962295D02*
X138833333Y-99962295D01*
X138833333Y-99962295D02*
X138566667Y-100267057D01*
X138566667Y-100267057D02*
X138680952Y-100267057D01*
X138680952Y-100267057D02*
X138757143Y-100305152D01*
X138757143Y-100305152D02*
X138795238Y-100343247D01*
X138795238Y-100343247D02*
X138833333Y-100419438D01*
X138833333Y-100419438D02*
X138833333Y-100609914D01*
X138833333Y-100609914D02*
X138795238Y-100686104D01*
X138795238Y-100686104D02*
X138757143Y-100724200D01*
X138757143Y-100724200D02*
X138680952Y-100762295D01*
X138680952Y-100762295D02*
X138452381Y-100762295D01*
X138452381Y-100762295D02*
X138376190Y-100724200D01*
X138376190Y-100724200D02*
X138338095Y-100686104D01*
X157162295Y-103209523D02*
X157809914Y-103209523D01*
X157809914Y-103209523D02*
X157886104Y-103171428D01*
X157886104Y-103171428D02*
X157924200Y-103133333D01*
X157924200Y-103133333D02*
X157962295Y-103057142D01*
X157962295Y-103057142D02*
X157962295Y-102904761D01*
X157962295Y-102904761D02*
X157924200Y-102828571D01*
X157924200Y-102828571D02*
X157886104Y-102790476D01*
X157886104Y-102790476D02*
X157809914Y-102752380D01*
X157809914Y-102752380D02*
X157162295Y-102752380D01*
X157962295Y-101952381D02*
X157962295Y-102409524D01*
X157962295Y-102180952D02*
X157162295Y-102180952D01*
X157162295Y-102180952D02*
X157276580Y-102257143D01*
X157276580Y-102257143D02*
X157352771Y-102333333D01*
X157352771Y-102333333D02*
X157390866Y-102409524D01*
X144369771Y-100300000D02*
X144798342Y-100300000D01*
X144798342Y-100300000D02*
X144884057Y-100328571D01*
X144884057Y-100328571D02*
X144941200Y-100385714D01*
X144941200Y-100385714D02*
X144969771Y-100471428D01*
X144969771Y-100471428D02*
X144969771Y-100528571D01*
X144426914Y-100042857D02*
X144398342Y-100014285D01*
X144398342Y-100014285D02*
X144369771Y-99957143D01*
X144369771Y-99957143D02*
X144369771Y-99814285D01*
X144369771Y-99814285D02*
X144398342Y-99757143D01*
X144398342Y-99757143D02*
X144426914Y-99728571D01*
X144426914Y-99728571D02*
X144484057Y-99700000D01*
X144484057Y-99700000D02*
X144541200Y-99700000D01*
X144541200Y-99700000D02*
X144626914Y-99728571D01*
X144626914Y-99728571D02*
X144969771Y-100071428D01*
X144969771Y-100071428D02*
X144969771Y-99700000D01*
X145033333Y-96762295D02*
X145033333Y-97333723D01*
X145033333Y-97333723D02*
X144995238Y-97448009D01*
X144995238Y-97448009D02*
X144919047Y-97524200D01*
X144919047Y-97524200D02*
X144804762Y-97562295D01*
X144804762Y-97562295D02*
X144728571Y-97562295D01*
X145833333Y-97562295D02*
X145376190Y-97562295D01*
X145604762Y-97562295D02*
X145604762Y-96762295D01*
X145604762Y-96762295D02*
X145528571Y-96876580D01*
X145528571Y-96876580D02*
X145452381Y-96952771D01*
X145452381Y-96952771D02*
X145376190Y-96990866D01*
X148666667Y-102186104D02*
X148628571Y-102224200D01*
X148628571Y-102224200D02*
X148514286Y-102262295D01*
X148514286Y-102262295D02*
X148438095Y-102262295D01*
X148438095Y-102262295D02*
X148323809Y-102224200D01*
X148323809Y-102224200D02*
X148247619Y-102148009D01*
X148247619Y-102148009D02*
X148209524Y-102071819D01*
X148209524Y-102071819D02*
X148171428Y-101919438D01*
X148171428Y-101919438D02*
X148171428Y-101805152D01*
X148171428Y-101805152D02*
X148209524Y-101652771D01*
X148209524Y-101652771D02*
X148247619Y-101576580D01*
X148247619Y-101576580D02*
X148323809Y-101500390D01*
X148323809Y-101500390D02*
X148438095Y-101462295D01*
X148438095Y-101462295D02*
X148514286Y-101462295D01*
X148514286Y-101462295D02*
X148628571Y-101500390D01*
X148628571Y-101500390D02*
X148666667Y-101538485D01*
X149352381Y-101728961D02*
X149352381Y-102262295D01*
X149161905Y-101424200D02*
X148971428Y-101995628D01*
X148971428Y-101995628D02*
X149466667Y-101995628D01*
X158166667Y-100586104D02*
X158128571Y-100624200D01*
X158128571Y-100624200D02*
X158014286Y-100662295D01*
X158014286Y-100662295D02*
X157938095Y-100662295D01*
X157938095Y-100662295D02*
X157823809Y-100624200D01*
X157823809Y-100624200D02*
X157747619Y-100548009D01*
X157747619Y-100548009D02*
X157709524Y-100471819D01*
X157709524Y-100471819D02*
X157671428Y-100319438D01*
X157671428Y-100319438D02*
X157671428Y-100205152D01*
X157671428Y-100205152D02*
X157709524Y-100052771D01*
X157709524Y-100052771D02*
X157747619Y-99976580D01*
X157747619Y-99976580D02*
X157823809Y-99900390D01*
X157823809Y-99900390D02*
X157938095Y-99862295D01*
X157938095Y-99862295D02*
X158014286Y-99862295D01*
X158014286Y-99862295D02*
X158128571Y-99900390D01*
X158128571Y-99900390D02*
X158166667Y-99938485D01*
X158433333Y-99862295D02*
X158928571Y-99862295D01*
X158928571Y-99862295D02*
X158661905Y-100167057D01*
X158661905Y-100167057D02*
X158776190Y-100167057D01*
X158776190Y-100167057D02*
X158852381Y-100205152D01*
X158852381Y-100205152D02*
X158890476Y-100243247D01*
X158890476Y-100243247D02*
X158928571Y-100319438D01*
X158928571Y-100319438D02*
X158928571Y-100509914D01*
X158928571Y-100509914D02*
X158890476Y-100586104D01*
X158890476Y-100586104D02*
X158852381Y-100624200D01*
X158852381Y-100624200D02*
X158776190Y-100662295D01*
X158776190Y-100662295D02*
X158547619Y-100662295D01*
X158547619Y-100662295D02*
X158471428Y-100624200D01*
X158471428Y-100624200D02*
X158433333Y-100586104D01*
X151300000Y-97312628D02*
X151271428Y-97341200D01*
X151271428Y-97341200D02*
X151185714Y-97369771D01*
X151185714Y-97369771D02*
X151128571Y-97369771D01*
X151128571Y-97369771D02*
X151042857Y-97341200D01*
X151042857Y-97341200D02*
X150985714Y-97284057D01*
X150985714Y-97284057D02*
X150957143Y-97226914D01*
X150957143Y-97226914D02*
X150928571Y-97112628D01*
X150928571Y-97112628D02*
X150928571Y-97026914D01*
X150928571Y-97026914D02*
X150957143Y-96912628D01*
X150957143Y-96912628D02*
X150985714Y-96855485D01*
X150985714Y-96855485D02*
X151042857Y-96798342D01*
X151042857Y-96798342D02*
X151128571Y-96769771D01*
X151128571Y-96769771D02*
X151185714Y-96769771D01*
X151185714Y-96769771D02*
X151271428Y-96798342D01*
X151271428Y-96798342D02*
X151300000Y-96826914D01*
X151528571Y-96826914D02*
X151557143Y-96798342D01*
X151557143Y-96798342D02*
X151614286Y-96769771D01*
X151614286Y-96769771D02*
X151757143Y-96769771D01*
X151757143Y-96769771D02*
X151814286Y-96798342D01*
X151814286Y-96798342D02*
X151842857Y-96826914D01*
X151842857Y-96826914D02*
X151871428Y-96884057D01*
X151871428Y-96884057D02*
X151871428Y-96941200D01*
X151871428Y-96941200D02*
X151842857Y-97026914D01*
X151842857Y-97026914D02*
X151500000Y-97369771D01*
X151500000Y-97369771D02*
X151871428Y-97369771D01*
X147066667Y-99386104D02*
X147028571Y-99424200D01*
X147028571Y-99424200D02*
X146914286Y-99462295D01*
X146914286Y-99462295D02*
X146838095Y-99462295D01*
X146838095Y-99462295D02*
X146723809Y-99424200D01*
X146723809Y-99424200D02*
X146647619Y-99348009D01*
X146647619Y-99348009D02*
X146609524Y-99271819D01*
X146609524Y-99271819D02*
X146571428Y-99119438D01*
X146571428Y-99119438D02*
X146571428Y-99005152D01*
X146571428Y-99005152D02*
X146609524Y-98852771D01*
X146609524Y-98852771D02*
X146647619Y-98776580D01*
X146647619Y-98776580D02*
X146723809Y-98700390D01*
X146723809Y-98700390D02*
X146838095Y-98662295D01*
X146838095Y-98662295D02*
X146914286Y-98662295D01*
X146914286Y-98662295D02*
X147028571Y-98700390D01*
X147028571Y-98700390D02*
X147066667Y-98738485D01*
X147828571Y-99462295D02*
X147371428Y-99462295D01*
X147600000Y-99462295D02*
X147600000Y-98662295D01*
X147600000Y-98662295D02*
X147523809Y-98776580D01*
X147523809Y-98776580D02*
X147447619Y-98852771D01*
X147447619Y-98852771D02*
X147371428Y-98890866D01*
%TO.C,J4*%
X141600000Y-98250000D02*
X142200000Y-98250000D01*
X141600000Y-99400000D02*
X141600000Y-98250000D01*
X144000000Y-101200000D02*
X144000000Y-99400000D01*
X142200000Y-102350000D02*
X141600000Y-102350000D01*
X141600000Y-102350000D02*
X141600000Y-101200000D01*
%TO.C,J3*%
X136350000Y-97200000D02*
X137500000Y-97200000D01*
X136350000Y-97800000D02*
X136350000Y-97200000D01*
X137500000Y-99600000D02*
X139300000Y-99600000D01*
X139300000Y-97200000D02*
X140450000Y-97200000D01*
X140450000Y-97200000D02*
X140450000Y-97800000D01*
D11*
%TO.C,U1*%
X151690000Y-102810000D02*
X151360000Y-103050000D01*
X151360000Y-102570000D01*
X151690000Y-102810000D01*
G36*
X151690000Y-102810000D02*
G01*
X151360000Y-103050000D01*
X151360000Y-102570000D01*
X151690000Y-102810000D01*
G37*
X156910000Y-97590000D02*
X156035000Y-97590000D01*
X151690000Y-97590000D02*
X152565000Y-97590000D01*
X156910000Y-98465000D02*
X156910000Y-97590000D01*
X151690000Y-98465000D02*
X151690000Y-97590000D01*
X156910000Y-101935000D02*
X156910000Y-102810000D01*
X151690000Y-101935000D02*
X151690000Y-102510000D01*
X156910000Y-102810000D02*
X156035000Y-102810000D01*
X152565000Y-102810000D02*
X151930000Y-102810000D01*
%TO.C,JP4*%
X163900000Y-99700000D02*
X163300000Y-99700000D01*
X162600000Y-99000000D02*
X162600000Y-97600000D01*
X164600000Y-97600000D02*
X164600000Y-99000000D01*
X163300000Y-96900000D02*
X163900000Y-96900000D01*
X163300000Y-99700000D02*
G75*
G02*
X162600000Y-99000000I-1J699999D01*
G01*
X164600000Y-99000000D02*
G75*
G02*
X163900000Y-99700000I-699999J-1D01*
G01*
X162600000Y-97600000D02*
G75*
G02*
X163300000Y-96900000I700000J0D01*
G01*
X163900000Y-96900000D02*
G75*
G02*
X164600000Y-97600000I0J-700000D01*
G01*
%TO.C,JP3*%
X161300000Y-99700000D02*
X160700000Y-99700000D01*
X160000000Y-99000000D02*
X160000000Y-97600000D01*
X162000000Y-97600000D02*
X162000000Y-99000000D01*
X160700000Y-96900000D02*
X161300000Y-96900000D01*
X160700000Y-99700000D02*
G75*
G02*
X160000000Y-99000000I-1J699999D01*
G01*
X162000000Y-99000000D02*
G75*
G02*
X161300000Y-99700000I-699999J-1D01*
G01*
X160000000Y-97600000D02*
G75*
G02*
X160700000Y-96900000I700000J0D01*
G01*
X161300000Y-96900000D02*
G75*
G02*
X162000000Y-97600000I0J-700000D01*
G01*
%TO.C,JP2*%
X163900000Y-100300000D02*
G75*
G02*
X164600000Y-101000000I0J-700000D01*
G01*
X162600000Y-101000000D02*
G75*
G02*
X163300000Y-100300000I700000J0D01*
G01*
X164600000Y-102400000D02*
G75*
G02*
X163900000Y-103100000I-699999J-1D01*
G01*
X163300000Y-103100000D02*
G75*
G02*
X162600000Y-102400000I-1J699999D01*
G01*
X163300000Y-100300000D02*
X163900000Y-100300000D01*
X164600000Y-101000000D02*
X164600000Y-102400000D01*
X162600000Y-102400000D02*
X162600000Y-101000000D01*
X163900000Y-103100000D02*
X163300000Y-103100000D01*
%TO.C,JP1*%
X161300000Y-100300000D02*
G75*
G02*
X162000000Y-101000000I0J-700000D01*
G01*
X160000000Y-101000000D02*
G75*
G02*
X160700000Y-100300000I700000J0D01*
G01*
X162000000Y-102400000D02*
G75*
G02*
X161300000Y-103100000I-699999J-1D01*
G01*
X160700000Y-103100000D02*
G75*
G02*
X160000000Y-102400000I-1J699999D01*
G01*
X160700000Y-100300000D02*
X161300000Y-100300000D01*
X162000000Y-101000000D02*
X162000000Y-102400000D01*
X160000000Y-102400000D02*
X160000000Y-101000000D01*
X161300000Y-103100000D02*
X160700000Y-103100000D01*
%TO.C,C4*%
X149511252Y-103160000D02*
X148088748Y-103160000D01*
X149511252Y-100440000D02*
X148088748Y-100440000D01*
%TO.C,C3*%
X159335000Y-98038748D02*
X159335000Y-98561252D01*
X157865000Y-98038748D02*
X157865000Y-98561252D01*
%TO.C,C2*%
X150810000Y-98359420D02*
X150810000Y-98640580D01*
X149790000Y-98359420D02*
X149790000Y-98640580D01*
%TO.C,C1*%
X147911252Y-99910000D02*
X146488748Y-99910000D01*
X147911252Y-98090000D02*
X146488748Y-98090000D01*
%TD*%
%LPC*%
D12*
%TO.C,J4*%
X143400000Y-98500000D03*
X143400000Y-102100000D03*
D13*
X141800000Y-100700000D03*
X141800000Y-99900000D03*
%TD*%
D14*
%TO.C,J3*%
X138800000Y-97400000D03*
X138000000Y-97400000D03*
D15*
X136600000Y-99000000D03*
X140200000Y-99000000D03*
%TD*%
D16*
%TO.C,U1*%
X154300000Y-100200000D03*
D17*
X151937500Y-101500000D03*
X151937500Y-100850000D03*
X151937500Y-100200000D03*
X151937500Y-99550000D03*
X151937500Y-98900000D03*
D18*
X153000000Y-97837500D03*
X153650000Y-97837500D03*
X154300000Y-97837500D03*
X154950000Y-97837500D03*
X155600000Y-97837500D03*
D17*
X156662500Y-98900000D03*
X156662500Y-99550000D03*
X156662500Y-100200000D03*
X156662500Y-100850000D03*
X156662500Y-101500000D03*
D18*
X155600000Y-102562500D03*
X154950000Y-102562500D03*
X154300000Y-102562500D03*
X153650000Y-102562500D03*
X153000000Y-102562500D03*
%TD*%
D19*
%TO.C,JP4*%
X163600000Y-98950000D03*
D20*
X163600000Y-97650000D03*
%TD*%
D19*
%TO.C,JP3*%
X161000000Y-98950000D03*
D20*
X161000000Y-97650000D03*
%TD*%
%TO.C,JP2*%
X163600000Y-101050000D03*
D19*
X163600000Y-102350000D03*
%TD*%
D20*
%TO.C,JP1*%
X161000000Y-101050000D03*
D19*
X161000000Y-102350000D03*
%TD*%
D21*
%TO.C,J2*%
X145600000Y-101600000D03*
%TD*%
D22*
%TO.C,J1*%
X148100000Y-97200000D03*
%TD*%
D23*
%TO.C,C4*%
X150275000Y-101800000D03*
X147325000Y-101800000D03*
%TD*%
D24*
%TO.C,C3*%
X158600000Y-97350000D03*
X158600000Y-99250000D03*
%TD*%
D25*
%TO.C,C2*%
X150300000Y-97725000D03*
X150300000Y-99275000D03*
%TD*%
D26*
%TO.C,C1*%
X148675000Y-99000000D03*
X145725000Y-99000000D03*
%TD*%
%LPD*%
M02*
