%TF.GenerationSoftware,KiCad,Pcbnew,8.0.5*%
%TF.CreationDate,2024-12-28T17:38:17+01:00*%
%TF.ProjectId,12VLDO,3132564c-444f-42e6-9b69-6361645f7063,rev?*%
%TF.SameCoordinates,Original*%
%TF.FileFunction,Copper,L1,Top*%
%TF.FilePolarity,Positive*%
%FSLAX46Y46*%
G04 Gerber Fmt 4.6, Leading zero omitted, Abs format (unit mm)*
G04 Created by KiCad (PCBNEW 8.0.5) date 2024-12-28 17:38:17*
%MOMM*%
%LPD*%
G01*
G04 APERTURE LIST*
G04 Aperture macros list*
%AMRoundRect*
0 Rectangle with rounded corners*
0 $1 Rounding radius*
0 $2 $3 $4 $5 $6 $7 $8 $9 X,Y pos of 4 corners*
0 Add a 4 corners polygon primitive as box body*
4,1,4,$2,$3,$4,$5,$6,$7,$8,$9,$2,$3,0*
0 Add four circle primitives for the rounded corners*
1,1,$1+$1,$2,$3*
1,1,$1+$1,$4,$5*
1,1,$1+$1,$6,$7*
1,1,$1+$1,$8,$9*
0 Add four rect primitives between the rounded corners*
20,1,$1+$1,$2,$3,$4,$5,0*
20,1,$1+$1,$4,$5,$6,$7,0*
20,1,$1+$1,$6,$7,$8,$9,0*
20,1,$1+$1,$8,$9,$2,$3,0*%
%AMFreePoly0*
4,1,19,0.500000,-0.750000,0.000000,-0.750000,0.000000,-0.744911,-0.071157,-0.744911,-0.207708,-0.704816,-0.327430,-0.627875,-0.420627,-0.520320,-0.479746,-0.390866,-0.500000,-0.250000,-0.500000,0.250000,-0.479746,0.390866,-0.420627,0.520320,-0.327430,0.627875,-0.207708,0.704816,-0.071157,0.744911,0.000000,0.744911,0.000000,0.750000,0.500000,0.750000,0.500000,-0.750000,0.500000,-0.750000,
$1*%
%AMFreePoly1*
4,1,19,0.000000,0.744911,0.071157,0.744911,0.207708,0.704816,0.327430,0.627875,0.420627,0.520320,0.479746,0.390866,0.500000,0.250000,0.500000,-0.250000,0.479746,-0.390866,0.420627,-0.520320,0.327430,-0.627875,0.207708,-0.704816,0.071157,-0.744911,0.000000,-0.744911,0.000000,-0.750000,-0.500000,-0.750000,-0.500000,0.750000,0.000000,0.750000,0.000000,0.744911,0.000000,0.744911,
$1*%
G04 Aperture macros list end*
%TA.AperFunction,SMDPad,CuDef*%
%ADD10RoundRect,0.350000X0.600000X-0.350000X0.600000X0.350000X-0.600000X0.350000X-0.600000X-0.350000X0*%
%TD*%
%TA.AperFunction,SMDPad,CuDef*%
%ADD11RoundRect,0.125000X0.525000X-0.125000X0.525000X0.125000X-0.525000X0.125000X-0.525000X-0.125000X0*%
%TD*%
%TA.AperFunction,SMDPad,CuDef*%
%ADD12RoundRect,0.125000X-0.125000X-0.525000X0.125000X-0.525000X0.125000X0.525000X-0.125000X0.525000X0*%
%TD*%
%TA.AperFunction,SMDPad,CuDef*%
%ADD13RoundRect,0.350000X-0.350000X-0.600000X0.350000X-0.600000X0.350000X0.600000X-0.350000X0.600000X0*%
%TD*%
%TA.AperFunction,HeatsinkPad*%
%ADD14R,3.150000X3.150000*%
%TD*%
%TA.AperFunction,SMDPad,CuDef*%
%ADD15RoundRect,0.087500X0.425000X-0.087500X0.425000X0.087500X-0.425000X0.087500X-0.425000X-0.087500X0*%
%TD*%
%TA.AperFunction,SMDPad,CuDef*%
%ADD16RoundRect,0.087500X0.087500X-0.425000X0.087500X0.425000X-0.087500X0.425000X-0.087500X-0.425000X0*%
%TD*%
%TA.AperFunction,SMDPad,CuDef*%
%ADD17FreePoly0,90.000000*%
%TD*%
%TA.AperFunction,SMDPad,CuDef*%
%ADD18FreePoly1,90.000000*%
%TD*%
%TA.AperFunction,SMDPad,CuDef*%
%ADD19RoundRect,0.250000X0.250000X0.750000X-0.250000X0.750000X-0.250000X-0.750000X0.250000X-0.750000X0*%
%TD*%
%TA.AperFunction,SMDPad,CuDef*%
%ADD20RoundRect,0.250000X-0.750000X0.250000X-0.750000X-0.250000X0.750000X-0.250000X0.750000X0.250000X0*%
%TD*%
%TA.AperFunction,SMDPad,CuDef*%
%ADD21RoundRect,0.250000X0.325000X1.100000X-0.325000X1.100000X-0.325000X-1.100000X0.325000X-1.100000X0*%
%TD*%
%TA.AperFunction,SMDPad,CuDef*%
%ADD22RoundRect,0.250000X-0.475000X0.250000X-0.475000X-0.250000X0.475000X-0.250000X0.475000X0.250000X0*%
%TD*%
%TA.AperFunction,SMDPad,CuDef*%
%ADD23RoundRect,0.225000X-0.250000X0.225000X-0.250000X-0.225000X0.250000X-0.225000X0.250000X0.225000X0*%
%TD*%
%TA.AperFunction,SMDPad,CuDef*%
%ADD24RoundRect,0.250000X0.325000X0.650000X-0.325000X0.650000X-0.325000X-0.650000X0.325000X-0.650000X0*%
%TD*%
%TA.AperFunction,ViaPad*%
%ADD25C,0.450000*%
%TD*%
%TA.AperFunction,Conductor*%
%ADD26C,0.100000*%
%TD*%
%TA.AperFunction,Conductor*%
%ADD27C,0.300000*%
%TD*%
%TA.AperFunction,Conductor*%
%ADD28C,0.500000*%
%TD*%
%TA.AperFunction,Conductor*%
%ADD29C,0.800000*%
%TD*%
%TA.AperFunction,Conductor*%
%ADD30C,0.200000*%
%TD*%
%TA.AperFunction,Conductor*%
%ADD31C,0.150000*%
%TD*%
G04 APERTURE END LIST*
D10*
%TO.P,J4,M*%
%TO.N,N/C*%
X143400000Y-98500000D03*
X143400000Y-102100000D03*
D11*
%TO.P,J4,2,Pin_2*%
%TO.N,GND*%
X141800000Y-100700000D03*
%TO.P,J4,1,Pin_1*%
%TO.N,/OUT*%
X141800000Y-99900000D03*
%TD*%
D12*
%TO.P,J3,1,Pin_1*%
%TO.N,/OUT*%
X138800000Y-97400000D03*
%TO.P,J3,2,Pin_2*%
%TO.N,GND*%
X138000000Y-97400000D03*
D13*
%TO.P,J3,M*%
%TO.N,N/C*%
X136600000Y-99000000D03*
X140200000Y-99000000D03*
%TD*%
D14*
%TO.P,U1,21,EP*%
%TO.N,GND*%
X154300000Y-100200000D03*
D15*
%TO.P,U1,20,OUT*%
%TO.N,/OUT*%
X151937500Y-101500000D03*
%TO.P,U1,19,NC*%
%TO.N,GND*%
X151937500Y-100850000D03*
%TO.P,U1,18,NC*%
X151937500Y-100200000D03*
%TO.P,U1,17,NC*%
X151937500Y-99550000D03*
%TO.P,U1,16,IN*%
%TO.N,/IN*%
X151937500Y-98900000D03*
D16*
%TO.P,U1,15,IN*%
X153000000Y-97837500D03*
%TO.P,U1,14,NR*%
%TO.N,Net-(U1-NR)*%
X153650000Y-97837500D03*
%TO.P,U1,13,EN*%
%TO.N,/IN*%
X154300000Y-97837500D03*
%TO.P,U1,12,0P1V*%
%TO.N,Net-(JP4-B)*%
X154950000Y-97837500D03*
%TO.P,U1,11,0P2V*%
%TO.N,Net-(JP3-B)*%
X155600000Y-97837500D03*
D15*
%TO.P,U1,10,0P4V*%
%TO.N,Net-(JP2-B)*%
X156662500Y-98900000D03*
%TO.P,U1,9,0P8V*%
%TO.N,Net-(JP1-B)*%
X156662500Y-99550000D03*
%TO.P,U1,8,1P6V*%
%TO.N,unconnected-(U1-1P6V-Pad8)*%
X156662500Y-100200000D03*
%TO.P,U1,7,GND*%
%TO.N,GND*%
X156662500Y-100850000D03*
%TO.P,U1,6,3P2V*%
X156662500Y-101500000D03*
D16*
%TO.P,U1,5,6P4V1*%
X155600000Y-102562500D03*
%TO.P,U1,4,6P4V2*%
%TO.N,unconnected-(U1-6P4V2-Pad4)*%
X154950000Y-102562500D03*
%TO.P,U1,3,SENSE/FB*%
%TO.N,/OUT*%
X154300000Y-102562500D03*
%TO.P,U1,2,NC*%
%TO.N,unconnected-(U1-NC-Pad2)*%
X153650000Y-102562500D03*
%TO.P,U1,1,OUT*%
%TO.N,/OUT*%
X153000000Y-102562500D03*
%TD*%
D17*
%TO.P,JP4,1,A*%
%TO.N,GND*%
X163600000Y-98950000D03*
D18*
%TO.P,JP4,2,B*%
%TO.N,Net-(JP4-B)*%
X163600000Y-97650000D03*
%TD*%
D17*
%TO.P,JP3,1,A*%
%TO.N,GND*%
X161000000Y-98950000D03*
D18*
%TO.P,JP3,2,B*%
%TO.N,Net-(JP3-B)*%
X161000000Y-97650000D03*
%TD*%
%TO.P,JP2,2,B*%
%TO.N,Net-(JP2-B)*%
X163600000Y-101050000D03*
D17*
%TO.P,JP2,1,A*%
%TO.N,GND*%
X163600000Y-102350000D03*
%TD*%
D18*
%TO.P,JP1,2,B*%
%TO.N,Net-(JP1-B)*%
X161000000Y-101050000D03*
D17*
%TO.P,JP1,1,A*%
%TO.N,GND*%
X161000000Y-102350000D03*
%TD*%
D19*
%TO.P,J2,1,Pin_1*%
%TO.N,GND*%
X145600000Y-101600000D03*
%TD*%
D20*
%TO.P,J1,1,Pin_1*%
%TO.N,/IN*%
X148100000Y-97200000D03*
%TD*%
D21*
%TO.P,C4,1*%
%TO.N,/OUT*%
X150275000Y-101800000D03*
%TO.P,C4,2*%
%TO.N,GND*%
X147325000Y-101800000D03*
%TD*%
D22*
%TO.P,C3,1*%
%TO.N,Net-(U1-NR)*%
X158600000Y-97350000D03*
%TO.P,C3,2*%
%TO.N,GND*%
X158600000Y-99250000D03*
%TD*%
D23*
%TO.P,C2,1*%
%TO.N,/IN*%
X150300000Y-97725000D03*
%TO.P,C2,2*%
%TO.N,GND*%
X150300000Y-99275000D03*
%TD*%
D24*
%TO.P,C1,1*%
%TO.N,/IN*%
X148675000Y-99000000D03*
%TO.P,C1,2*%
%TO.N,GND*%
X145725000Y-99000000D03*
%TD*%
D25*
%TO.N,GND*%
X138000000Y-98500000D03*
X142900000Y-100700000D03*
X145725000Y-99000000D03*
X145800000Y-101000000D03*
X147325000Y-101800000D03*
X156500000Y-102400000D03*
X163600000Y-102350000D03*
X161000000Y-102350000D03*
X163600000Y-98950000D03*
X161000000Y-98950000D03*
X158600000Y-99250000D03*
X155400000Y-101300000D03*
X153200000Y-101300000D03*
X153200000Y-100200000D03*
X155400000Y-100200000D03*
X155400000Y-99100000D03*
X153200000Y-99100000D03*
X150300000Y-99275000D03*
%TO.N,/OUT*%
X143400000Y-100000000D03*
X142850000Y-99900000D03*
X150300000Y-101200000D03*
X150300000Y-102400000D03*
%TO.N,/IN*%
X153000000Y-96930000D03*
X154300000Y-97380000D03*
%TD*%
D26*
%TO.N,/OUT*%
X154300000Y-102722011D02*
G75*
G02*
X154159997Y-103059997I-478000J11D01*
G01*
X154300000Y-102562500D02*
X154300000Y-102722011D01*
X153701300Y-103250000D02*
G75*
G03*
X154160000Y-103060000I0J648700D01*
G01*
X153000000Y-102744437D02*
G75*
G03*
X153110011Y-103009989I375600J37D01*
G01*
X153560000Y-103250000D02*
X153701300Y-103250000D01*
X153201507Y-103101507D02*
G75*
G03*
X153560000Y-103249996I358493J358507D01*
G01*
X153110000Y-103010000D02*
X153201507Y-103101507D01*
X153000000Y-102562500D02*
X153000000Y-102744437D01*
D27*
%TO.N,GND*%
X155600000Y-101782842D02*
G75*
G03*
X155400013Y-101299987I-682800J42D01*
G01*
X155600000Y-102562500D02*
X155600000Y-101782842D01*
X155882842Y-101500000D02*
G75*
G02*
X155399987Y-101300013I-42J682800D01*
G01*
X156662500Y-101500000D02*
X155882842Y-101500000D01*
X156662500Y-100850000D02*
X155869238Y-100850000D01*
X155869238Y-100850000D02*
G75*
G02*
X154299989Y-100200011I-38J2219200D01*
G01*
D28*
%TO.N,/OUT*%
X140823460Y-97400000D02*
X138800000Y-97400000D01*
X141444248Y-97657139D02*
G75*
G03*
X140823460Y-97400021I-620748J-620761D01*
G01*
X141490000Y-97700000D02*
X141444248Y-97657139D01*
X141800000Y-98448406D02*
G75*
G03*
X141490002Y-97699998I-1058400J6D01*
G01*
X141800000Y-99900000D02*
X141800000Y-98448406D01*
X143158579Y-99900000D02*
X142850000Y-99900000D01*
X143400000Y-100000000D02*
G75*
G03*
X143158579Y-99900009I-241400J-241400D01*
G01*
X142850000Y-99900000D02*
X141800000Y-99900000D01*
%TO.N,GND*%
X151937500Y-99550000D02*
X150963908Y-99550000D01*
X150963908Y-99550000D02*
G75*
G02*
X150299997Y-99275003I-8J938900D01*
G01*
X151937500Y-100200000D02*
X151937500Y-99550000D01*
X151937500Y-100850000D02*
X151937500Y-100200000D01*
X152730762Y-100850000D02*
G75*
G03*
X154300011Y-100200011I38J2219200D01*
G01*
X151937500Y-100850000D02*
X152730762Y-100850000D01*
X151937500Y-100200000D02*
X154300000Y-100200000D01*
X151937500Y-99550000D02*
X152730762Y-99550000D01*
X152730762Y-99550000D02*
G75*
G02*
X154300011Y-100199989I38J-2219200D01*
G01*
D29*
%TO.N,/OUT*%
X150275000Y-101800000D02*
G75*
G03*
X150398741Y-102098746I422500J0D01*
G01*
X150398744Y-102098743D02*
X150670000Y-102370000D01*
X152190000Y-102370000D02*
X150670000Y-102370000D01*
D28*
X151937500Y-101760412D02*
X151937500Y-101500000D01*
X152190000Y-102370000D02*
G75*
G02*
X151937495Y-101760412I609600J609600D01*
G01*
X152654736Y-102562500D02*
G75*
G02*
X152189989Y-102370011I-36J657200D01*
G01*
X153000000Y-102562500D02*
X152654736Y-102562500D01*
D29*
%TO.N,/IN*%
X151491950Y-97725000D02*
G75*
G02*
X152180015Y-98009985I50J-973000D01*
G01*
X150300000Y-97725000D02*
X151491950Y-97725000D01*
D28*
X152596451Y-97837500D02*
X153000000Y-97837500D01*
X152180000Y-98010000D02*
G75*
G02*
X152596451Y-97837521I416400J-416400D01*
G01*
X151937500Y-98595446D02*
G75*
G02*
X152179986Y-98009986I827900J46D01*
G01*
X151937500Y-98900000D02*
X151937500Y-98595446D01*
D29*
X149702512Y-97972488D02*
G75*
G02*
X150300000Y-97725007I597488J-597512D01*
G01*
X148675000Y-99000000D02*
X149702512Y-97972488D01*
X148100000Y-97611828D02*
X148100000Y-97200000D01*
X148675000Y-99000000D02*
G75*
G02*
X148099989Y-97611828I1388200J1388200D01*
G01*
D30*
%TO.N,GND*%
X157661091Y-98861091D02*
G75*
G03*
X158600000Y-99250005I938909J938891D01*
G01*
X157480000Y-98680000D02*
X157661091Y-98861091D01*
X156683310Y-98350000D02*
G75*
G02*
X157479997Y-98680003I-10J-1126700D01*
G01*
X156340000Y-98350000D02*
X156683310Y-98350000D01*
X156015650Y-98484350D02*
G75*
G02*
X156340000Y-98350000I324350J-324350D01*
G01*
X154300000Y-100200000D02*
X156015650Y-98484350D01*
D31*
%TO.N,Net-(JP1-B)*%
X160270000Y-100630000D02*
X160470797Y-100830797D01*
X158140000Y-100280000D02*
X159425026Y-100280000D01*
X157180000Y-99710000D02*
X157474228Y-100004228D01*
X156662500Y-99550000D02*
X156793726Y-99550000D01*
X160470797Y-100830797D02*
G75*
G03*
X161000000Y-101050002I529203J529197D01*
G01*
X159425026Y-100280000D02*
G75*
G02*
X160269993Y-100630007I-26J-1195000D01*
G01*
X157474228Y-100004228D02*
G75*
G03*
X158140000Y-100280013I665772J665728D01*
G01*
X156793726Y-99550000D02*
G75*
G02*
X157179992Y-99710008I-26J-546300D01*
G01*
%TO.N,Net-(JP2-B)*%
X162900000Y-100590000D02*
X163190294Y-100880294D01*
X158327574Y-99990000D02*
X161451472Y-99990000D01*
X158107989Y-99990000D02*
X158327574Y-99990000D01*
X157753137Y-99833137D02*
X157770000Y-99850000D01*
X157370000Y-99140000D02*
X157533934Y-99303934D01*
X156662500Y-98900000D02*
X156790589Y-98900000D01*
X163190294Y-100880294D02*
G75*
G03*
X163600000Y-101050003I409706J409694D01*
G01*
X161451472Y-99990000D02*
G75*
G02*
X162900008Y-100589992I28J-2048500D01*
G01*
X157770000Y-99850000D02*
G75*
G03*
X158107989Y-99990004I338000J338000D01*
G01*
X157640000Y-99560000D02*
G75*
G03*
X157753132Y-99833142I386300J0D01*
G01*
X157533934Y-99303934D02*
G75*
G02*
X157640009Y-99560000I-256034J-256066D01*
G01*
X156790589Y-98900000D02*
G75*
G02*
X157370003Y-99139997I11J-819400D01*
G01*
%TO.N,/IN*%
X153000000Y-96930000D02*
X153000000Y-97837500D01*
X154300000Y-97837500D02*
X154300000Y-97380000D01*
%TO.N,Net-(JP4-B)*%
X154950000Y-97686274D02*
G75*
G02*
X155110008Y-97300008I546300J-26D01*
G01*
X154950000Y-97837500D02*
X154950000Y-97686274D01*
X155918041Y-97140000D02*
X155496274Y-97140000D01*
X159117868Y-98160000D02*
X158120000Y-98160000D01*
X157454228Y-97884228D02*
X157270000Y-97700000D01*
X159640000Y-97551126D02*
X159640000Y-97623726D01*
X158120000Y-98160000D02*
G75*
G02*
X157454237Y-97884219I0J941500D01*
G01*
X157270000Y-97700000D02*
G75*
G03*
X155918041Y-97139983I-1352000J-1352000D01*
G01*
X163070797Y-97430797D02*
X162890000Y-97250000D01*
X161876031Y-96830000D02*
X160318700Y-96830000D01*
X159640000Y-97623726D02*
G75*
G02*
X159479992Y-98009992I-546300J26D01*
G01*
X159860000Y-97020000D02*
G75*
G03*
X159640011Y-97551126I531100J-531100D01*
G01*
X160318700Y-96830000D02*
G75*
G03*
X159860000Y-97020000I0J-648700D01*
G01*
X162890000Y-97250000D02*
G75*
G03*
X161876031Y-96829987I-1014000J-1014000D01*
G01*
X159480000Y-98010000D02*
G75*
G02*
X159117868Y-98159987I-362100J362100D01*
G01*
X155496274Y-97140000D02*
G75*
G03*
X155110008Y-97300008I26J-546300D01*
G01*
X163600000Y-97650000D02*
G75*
G02*
X163070798Y-97430796I0J748400D01*
G01*
%TO.N,Net-(U1-NR)*%
X154512478Y-96775000D02*
X157211828Y-96775000D01*
X154314581Y-96814357D02*
X154512478Y-96775000D01*
X154116196Y-96896526D02*
X154314581Y-96814357D01*
X153860000Y-97090000D02*
X153937656Y-97015820D01*
X153937656Y-97015820D02*
X154116196Y-96896526D01*
X153650000Y-97737500D02*
X153650000Y-97596984D01*
X157211828Y-96775000D02*
G75*
G02*
X158599992Y-97350008I-28J-1963200D01*
G01*
X153650000Y-97596984D02*
G75*
G02*
X153860004Y-97090004I717000J-16D01*
G01*
%TO.N,Net-(JP3-B)*%
X160140000Y-97870000D02*
X160468874Y-97870000D01*
X159877573Y-98022427D02*
X159952218Y-97947782D01*
X159673431Y-98226569D02*
X159877573Y-98022427D01*
X155600000Y-97737500D02*
X156363132Y-97737500D01*
X160468874Y-97870000D02*
G75*
G03*
X161000008Y-97650008I26J751100D01*
G01*
X158059116Y-98440000D02*
X159158163Y-98440000D01*
X159952218Y-97947782D02*
G75*
G02*
X160140000Y-97870011I187782J-187818D01*
G01*
X159158163Y-98440000D02*
G75*
G03*
X159673450Y-98226588I37J728700D01*
G01*
X156363132Y-97737500D02*
G75*
G02*
X157189991Y-98080009I-32J-1169400D01*
G01*
X157190000Y-98080000D02*
G75*
G03*
X158059116Y-98439993I869100J869100D01*
G01*
%TD*%
%TA.AperFunction,Conductor*%
%TO.N,GND*%
G36*
X138335397Y-96722174D02*
G01*
X138357071Y-96774500D01*
X138356438Y-96784158D01*
X138349500Y-96836861D01*
X138349500Y-97963137D01*
X138355740Y-98010543D01*
X138355741Y-98010545D01*
X138404253Y-98114579D01*
X138485421Y-98195747D01*
X138589455Y-98244259D01*
X138636861Y-98250500D01*
X138963138Y-98250499D01*
X139010545Y-98244259D01*
X139114579Y-98195747D01*
X139195747Y-98114579D01*
X139244259Y-98010545D01*
X139250500Y-97963139D01*
X139250500Y-97924500D01*
X139272174Y-97872174D01*
X139324500Y-97850500D01*
X139443505Y-97850500D01*
X139495831Y-97872174D01*
X139517505Y-97924500D01*
X139495831Y-97976826D01*
X139488218Y-97983464D01*
X139457078Y-98007077D01*
X139457077Y-98007078D01*
X139365638Y-98127658D01*
X139310123Y-98268436D01*
X139301298Y-98341928D01*
X139299500Y-98356898D01*
X139299500Y-99643102D01*
X139299500Y-99643104D01*
X139299499Y-99643104D01*
X139306705Y-99703104D01*
X139310123Y-99731564D01*
X139332015Y-99787079D01*
X139365638Y-99872341D01*
X139417468Y-99940688D01*
X139457078Y-99992922D01*
X139577658Y-100084361D01*
X139718436Y-100139877D01*
X139789764Y-100148442D01*
X139806896Y-100150500D01*
X139806898Y-100150500D01*
X140593104Y-100150500D01*
X140608722Y-100148624D01*
X140681564Y-100139877D01*
X140822342Y-100084361D01*
X140839671Y-100071219D01*
X140894459Y-100056871D01*
X140943347Y-100085467D01*
X140955429Y-100109475D01*
X140955740Y-100110543D01*
X140955741Y-100110545D01*
X141004253Y-100214579D01*
X141085421Y-100295747D01*
X141189455Y-100344259D01*
X141236861Y-100350500D01*
X141732070Y-100350499D01*
X141732080Y-100350500D01*
X141740691Y-100350500D01*
X142790691Y-100350500D01*
X143086257Y-100350500D01*
X143123257Y-100360414D01*
X143123387Y-100360489D01*
X143226114Y-100419799D01*
X143226115Y-100419799D01*
X143226117Y-100419800D01*
X143283402Y-100435149D01*
X143340688Y-100450499D01*
X143340689Y-100450500D01*
X143340691Y-100450500D01*
X143459311Y-100450500D01*
X143459311Y-100450499D01*
X143573886Y-100419799D01*
X143676613Y-100360489D01*
X143760489Y-100276613D01*
X143819799Y-100173886D01*
X143850499Y-100059311D01*
X143850500Y-100059311D01*
X143850500Y-99940689D01*
X143850499Y-99940688D01*
X143850390Y-99940283D01*
X143819799Y-99826114D01*
X143760489Y-99723387D01*
X143740230Y-99703127D01*
X143740220Y-99703104D01*
X143663401Y-99626286D01*
X143663397Y-99626282D01*
X143530666Y-99537598D01*
X143531345Y-99536580D01*
X143498027Y-99495977D01*
X143503582Y-99439613D01*
X143547365Y-99403685D01*
X143568842Y-99400500D01*
X144043104Y-99400500D01*
X144058722Y-99398624D01*
X144131564Y-99389877D01*
X144272342Y-99334361D01*
X144392922Y-99242922D01*
X144484361Y-99122342D01*
X144539877Y-98981564D01*
X144550500Y-98893102D01*
X144550500Y-98106898D01*
X144539877Y-98018436D01*
X144484361Y-97877658D01*
X144392922Y-97757078D01*
X144272342Y-97665639D01*
X144272341Y-97665638D01*
X144187079Y-97632015D01*
X144131564Y-97610123D01*
X144102076Y-97606582D01*
X144043104Y-97599500D01*
X144043102Y-97599500D01*
X142756898Y-97599500D01*
X142756896Y-97599500D01*
X142668436Y-97610123D01*
X142527658Y-97665638D01*
X142407078Y-97757077D01*
X142407077Y-97757078D01*
X142315637Y-97877660D01*
X142296355Y-97926556D01*
X142256996Y-97967282D01*
X142200367Y-97968248D01*
X142159641Y-97928889D01*
X142159148Y-97927726D01*
X142158663Y-97926556D01*
X142097794Y-97779603D01*
X142030405Y-97662882D01*
X141998897Y-97608308D01*
X141998893Y-97608302D01*
X141878488Y-97451386D01*
X141878487Y-97451385D01*
X141878484Y-97451381D01*
X141851240Y-97424138D01*
X141844391Y-97415506D01*
X141844359Y-97415533D01*
X141841279Y-97411779D01*
X141804230Y-97377071D01*
X141802526Y-97375422D01*
X141766613Y-97339511D01*
X141766610Y-97339508D01*
X141762768Y-97336560D01*
X141762920Y-97336361D01*
X141752953Y-97328712D01*
X141701246Y-97277006D01*
X141701241Y-97277001D01*
X141585165Y-97187936D01*
X141563089Y-97170997D01*
X141563085Y-97170994D01*
X141490351Y-97129003D01*
X141423280Y-97090281D01*
X141412264Y-97083921D01*
X141412262Y-97083920D01*
X141251384Y-97017289D01*
X141251377Y-97017286D01*
X141251374Y-97017285D01*
X141251371Y-97017284D01*
X141083171Y-96972221D01*
X141083167Y-96972220D01*
X141083166Y-96972220D01*
X141083161Y-96972219D01*
X141083159Y-96972219D01*
X140991212Y-96960118D01*
X140910511Y-96949497D01*
X140910510Y-96949497D01*
X140823438Y-96949500D01*
X139324499Y-96949500D01*
X139272173Y-96927826D01*
X139250499Y-96875500D01*
X139250499Y-96836862D01*
X139243562Y-96784157D01*
X139258222Y-96729450D01*
X139307272Y-96701133D01*
X139316929Y-96700500D01*
X146855727Y-96700500D01*
X146908053Y-96722174D01*
X146929727Y-96774500D01*
X146925574Y-96798941D01*
X146902355Y-96865295D01*
X146902354Y-96865299D01*
X146902354Y-96865301D01*
X146899500Y-96895734D01*
X146899500Y-97504266D01*
X146902354Y-97534699D01*
X146902354Y-97534701D01*
X146902355Y-97534704D01*
X146947206Y-97662881D01*
X146947207Y-97662883D01*
X147027846Y-97772146D01*
X147027853Y-97772153D01*
X147137116Y-97852792D01*
X147137118Y-97852793D01*
X147265295Y-97897644D01*
X147265301Y-97897646D01*
X147295734Y-97900500D01*
X147449665Y-97900500D01*
X147501991Y-97922174D01*
X147523200Y-97966213D01*
X147523429Y-97968248D01*
X147531734Y-98041943D01*
X147531735Y-98041947D01*
X147595808Y-98322662D01*
X147595812Y-98322674D01*
X147690909Y-98594441D01*
X147690920Y-98594465D01*
X147815846Y-98853873D01*
X147888158Y-98968957D01*
X147899500Y-99008327D01*
X147899500Y-99704266D01*
X147902354Y-99734699D01*
X147902354Y-99734701D01*
X147902355Y-99734704D01*
X147947206Y-99862881D01*
X147947207Y-99862883D01*
X148027846Y-99972146D01*
X148027853Y-99972153D01*
X148137116Y-100052792D01*
X148137118Y-100052793D01*
X148265295Y-100097644D01*
X148265301Y-100097646D01*
X148295734Y-100100500D01*
X148295741Y-100100500D01*
X149054258Y-100100500D01*
X149054266Y-100100500D01*
X149084699Y-100097646D01*
X149212882Y-100052793D01*
X149322150Y-99972150D01*
X149402793Y-99862882D01*
X149447646Y-99734699D01*
X149450500Y-99704266D01*
X149450500Y-99104387D01*
X149472174Y-99052061D01*
X149778816Y-98745419D01*
X150123692Y-98400542D01*
X150130957Y-98394172D01*
X150135372Y-98390784D01*
X150180411Y-98375500D01*
X150583489Y-98375500D01*
X150597112Y-98373342D01*
X150683126Y-98359719D01*
X150688663Y-98356898D01*
X150734456Y-98333566D01*
X150768051Y-98325500D01*
X151414508Y-98325500D01*
X151414556Y-98325502D01*
X151419063Y-98325502D01*
X151419067Y-98325503D01*
X151427165Y-98325502D01*
X151479492Y-98347172D01*
X151501170Y-98399496D01*
X151500260Y-98411074D01*
X151490904Y-98470162D01*
X151461315Y-98518454D01*
X151447706Y-98526284D01*
X151445421Y-98527292D01*
X151445420Y-98527293D01*
X151392864Y-98550499D01*
X151346919Y-98570786D01*
X151270786Y-98646919D01*
X151227292Y-98745421D01*
X151227292Y-98745423D01*
X151224500Y-98769495D01*
X151224500Y-99030503D01*
X151227292Y-99054575D01*
X151227293Y-99054578D01*
X151227293Y-99054580D01*
X151270785Y-99153079D01*
X151346921Y-99229215D01*
X151445420Y-99272707D01*
X151469495Y-99275500D01*
X151667057Y-99275499D01*
X151704058Y-99285414D01*
X151763609Y-99319797D01*
X151763617Y-99319800D01*
X151817960Y-99334361D01*
X151878188Y-99350499D01*
X151878189Y-99350500D01*
X151878191Y-99350500D01*
X151996811Y-99350500D01*
X151996811Y-99350499D01*
X152111386Y-99319799D01*
X152170941Y-99285413D01*
X152207942Y-99275499D01*
X152405504Y-99275499D01*
X152429580Y-99272707D01*
X152528079Y-99229215D01*
X152604215Y-99153079D01*
X152647707Y-99054580D01*
X152650500Y-99030505D01*
X152650499Y-98769496D01*
X152647707Y-98745420D01*
X152604215Y-98646921D01*
X152547533Y-98590239D01*
X152525859Y-98537913D01*
X152547533Y-98485587D01*
X152554215Y-98479666D01*
X152596897Y-98446227D01*
X152651452Y-98431018D01*
X152694859Y-98452153D01*
X152746921Y-98504215D01*
X152845420Y-98547707D01*
X152869495Y-98550500D01*
X153130504Y-98550499D01*
X153154580Y-98547707D01*
X153253079Y-98504215D01*
X153272674Y-98484620D01*
X153325000Y-98462946D01*
X153377326Y-98484620D01*
X153396921Y-98504215D01*
X153495420Y-98547707D01*
X153519495Y-98550500D01*
X153525993Y-98550499D01*
X153578320Y-98572167D01*
X153600000Y-98624490D01*
X153600000Y-101775500D01*
X153578326Y-101827826D01*
X153526009Y-101849500D01*
X153519497Y-101849500D01*
X153495424Y-101852292D01*
X153495419Y-101852293D01*
X153396920Y-101895785D01*
X153377326Y-101915380D01*
X153325000Y-101937054D01*
X153272674Y-101915380D01*
X153253080Y-101895786D01*
X153253079Y-101895785D01*
X153154580Y-101852293D01*
X153154579Y-101852292D01*
X153154577Y-101852292D01*
X153134140Y-101849921D01*
X153130505Y-101849500D01*
X153130504Y-101849500D01*
X152869496Y-101849500D01*
X152845424Y-101852292D01*
X152845419Y-101852293D01*
X152746920Y-101895785D01*
X152708297Y-101934409D01*
X152655971Y-101956083D01*
X152603645Y-101934409D01*
X152565591Y-101896355D01*
X152543917Y-101844029D01*
X152565591Y-101791703D01*
X152581794Y-101775500D01*
X152604215Y-101753079D01*
X152647707Y-101654580D01*
X152650500Y-101630505D01*
X152650499Y-101369496D01*
X152647707Y-101345420D01*
X152604215Y-101246921D01*
X152528079Y-101170785D01*
X152429580Y-101127293D01*
X152429579Y-101127292D01*
X152429577Y-101127292D01*
X152405505Y-101124500D01*
X152207942Y-101124500D01*
X152170942Y-101114586D01*
X152111387Y-101080201D01*
X152111382Y-101080199D01*
X151996811Y-101049500D01*
X151996809Y-101049500D01*
X151878191Y-101049500D01*
X151878189Y-101049500D01*
X151763614Y-101080200D01*
X151704055Y-101114586D01*
X151667056Y-101124500D01*
X151469496Y-101124500D01*
X151445424Y-101127292D01*
X151445419Y-101127293D01*
X151346920Y-101170785D01*
X151270786Y-101246919D01*
X151227292Y-101345421D01*
X151227292Y-101345423D01*
X151224500Y-101369495D01*
X151224500Y-101630503D01*
X151227292Y-101654575D01*
X151227293Y-101654578D01*
X151227293Y-101654580D01*
X151232163Y-101665609D01*
X151233473Y-101722230D01*
X151194361Y-101763194D01*
X151164469Y-101769500D01*
X151124500Y-101769500D01*
X151072174Y-101747826D01*
X151050500Y-101695500D01*
X151050500Y-100645740D01*
X151050500Y-100645734D01*
X151047646Y-100615301D01*
X151002793Y-100487118D01*
X150975768Y-100450500D01*
X150922153Y-100377853D01*
X150922146Y-100377846D01*
X150812883Y-100297207D01*
X150812881Y-100297206D01*
X150684704Y-100252355D01*
X150684705Y-100252355D01*
X150684700Y-100252354D01*
X150684699Y-100252354D01*
X150654266Y-100249500D01*
X149895734Y-100249500D01*
X149865301Y-100252354D01*
X149865299Y-100252354D01*
X149865295Y-100252355D01*
X149737118Y-100297206D01*
X149737116Y-100297207D01*
X149627853Y-100377846D01*
X149627846Y-100377853D01*
X149547207Y-100487116D01*
X149547206Y-100487118D01*
X149502355Y-100615295D01*
X149502354Y-100615299D01*
X149502354Y-100615301D01*
X149499500Y-100645734D01*
X149499500Y-102954266D01*
X149502354Y-102984699D01*
X149502354Y-102984701D01*
X149502355Y-102984704D01*
X149547206Y-103112881D01*
X149547207Y-103112883D01*
X149597891Y-103181558D01*
X149611524Y-103236529D01*
X149582293Y-103285040D01*
X149538351Y-103299500D01*
X138559716Y-103299500D01*
X138507390Y-103277826D01*
X138485817Y-103229373D01*
X138485614Y-103225500D01*
X138480827Y-103134150D01*
X138423517Y-102772309D01*
X138348704Y-102493104D01*
X142249499Y-102493104D01*
X142260123Y-102581563D01*
X142315638Y-102722341D01*
X142315639Y-102722342D01*
X142407078Y-102842922D01*
X142527658Y-102934361D01*
X142668436Y-102989877D01*
X142739764Y-102998442D01*
X142756896Y-103000500D01*
X142756898Y-103000500D01*
X144043104Y-103000500D01*
X144058722Y-102998624D01*
X144131564Y-102989877D01*
X144272342Y-102934361D01*
X144392922Y-102842922D01*
X144484361Y-102722342D01*
X144539877Y-102581564D01*
X144550500Y-102493102D01*
X144550500Y-101706898D01*
X144539877Y-101618436D01*
X144484361Y-101477658D01*
X144392922Y-101357078D01*
X144377548Y-101345419D01*
X144272341Y-101265638D01*
X144187079Y-101232015D01*
X144131564Y-101210123D01*
X144102076Y-101206582D01*
X144043104Y-101199500D01*
X144043102Y-101199500D01*
X142756898Y-101199500D01*
X142756896Y-101199500D01*
X142668436Y-101210123D01*
X142527658Y-101265638D01*
X142407078Y-101357077D01*
X142407077Y-101357078D01*
X142315638Y-101477658D01*
X142260123Y-101618436D01*
X142250869Y-101695500D01*
X142249500Y-101706898D01*
X142249500Y-102493102D01*
X142249500Y-102493104D01*
X142249499Y-102493104D01*
X138348704Y-102493104D01*
X138328700Y-102418447D01*
X138197411Y-102076428D01*
X138197409Y-102076422D01*
X138031089Y-101750000D01*
X137831559Y-101442752D01*
X137601007Y-101158043D01*
X137341957Y-100898993D01*
X137057248Y-100668441D01*
X136750000Y-100468911D01*
X136423578Y-100302591D01*
X136423577Y-100302590D01*
X136423574Y-100302589D01*
X136400117Y-100293585D01*
X136359034Y-100254598D01*
X136357552Y-100197980D01*
X136396539Y-100156897D01*
X136426637Y-100150500D01*
X136993104Y-100150500D01*
X137008722Y-100148624D01*
X137081564Y-100139877D01*
X137222342Y-100084361D01*
X137342922Y-99992922D01*
X137434361Y-99872342D01*
X137489877Y-99731564D01*
X137500500Y-99643102D01*
X137500500Y-98356898D01*
X137489877Y-98268436D01*
X137434361Y-98127658D01*
X137342922Y-98007078D01*
X137311783Y-97983464D01*
X137222341Y-97915638D01*
X137112123Y-97872174D01*
X137081564Y-97860123D01*
X137052076Y-97856582D01*
X136993104Y-97849500D01*
X136993102Y-97849500D01*
X136206898Y-97849500D01*
X136206896Y-97849500D01*
X136118436Y-97860123D01*
X135977658Y-97915638D01*
X135857078Y-98007077D01*
X135857077Y-98007078D01*
X135765638Y-98127658D01*
X135710123Y-98268436D01*
X135701298Y-98341928D01*
X135699500Y-98356898D01*
X135699500Y-99643102D01*
X135699500Y-99643104D01*
X135699499Y-99643104D01*
X135706705Y-99703104D01*
X135710123Y-99731564D01*
X135732015Y-99787079D01*
X135765638Y-99872341D01*
X135839097Y-99969211D01*
X135853444Y-100024001D01*
X135824846Y-100072888D01*
X135770056Y-100087235D01*
X135760981Y-100085403D01*
X135755840Y-100084025D01*
X135727691Y-100076483D01*
X135727687Y-100076482D01*
X135727686Y-100076482D01*
X135365854Y-100019173D01*
X135270626Y-100014182D01*
X135219507Y-99989798D01*
X135200500Y-99940283D01*
X135200500Y-97005824D01*
X135201411Y-96994248D01*
X135206817Y-96960118D01*
X135213325Y-96919023D01*
X135220479Y-96897007D01*
X135222534Y-96892974D01*
X135252380Y-96834397D01*
X135265984Y-96815672D01*
X135315672Y-96765984D01*
X135334397Y-96752380D01*
X135397008Y-96720478D01*
X135419023Y-96713325D01*
X135494248Y-96701410D01*
X135505824Y-96700500D01*
X135539882Y-96700500D01*
X138283071Y-96700500D01*
X138335397Y-96722174D01*
G37*
%TD.AperFunction*%
%TD*%
%TA.AperFunction,Conductor*%
%TO.N,GND*%
G36*
X164505751Y-96701410D02*
G01*
X164580974Y-96713325D01*
X164602992Y-96720479D01*
X164665599Y-96752378D01*
X164684330Y-96765987D01*
X164734012Y-96815669D01*
X164747621Y-96834400D01*
X164779520Y-96897007D01*
X164786674Y-96919025D01*
X164798589Y-96994247D01*
X164799500Y-97005824D01*
X164799500Y-102994175D01*
X164798589Y-103005752D01*
X164786674Y-103080974D01*
X164779520Y-103102992D01*
X164747621Y-103165599D01*
X164734012Y-103184330D01*
X164684330Y-103234012D01*
X164665599Y-103247621D01*
X164602992Y-103279520D01*
X164580974Y-103286674D01*
X164523749Y-103295738D01*
X164505750Y-103298589D01*
X164494176Y-103299500D01*
X155311446Y-103299500D01*
X155259120Y-103277826D01*
X155237446Y-103225500D01*
X155259120Y-103173174D01*
X155266695Y-103165599D01*
X155279215Y-103153079D01*
X155322707Y-103054580D01*
X155325500Y-103030505D01*
X155325499Y-102094496D01*
X155322707Y-102070420D01*
X155279215Y-101971921D01*
X155203079Y-101895785D01*
X155104580Y-101852293D01*
X155104579Y-101852292D01*
X155104577Y-101852292D01*
X155080505Y-101849500D01*
X155074000Y-101849500D01*
X155021674Y-101827826D01*
X155000000Y-101775500D01*
X155000000Y-98624499D01*
X155021674Y-98572173D01*
X155073999Y-98550499D01*
X155080504Y-98550499D01*
X155104580Y-98547707D01*
X155203079Y-98504215D01*
X155222674Y-98484620D01*
X155275000Y-98462946D01*
X155327326Y-98484620D01*
X155346921Y-98504215D01*
X155445420Y-98547707D01*
X155469495Y-98550500D01*
X155730504Y-98550499D01*
X155754580Y-98547707D01*
X155853079Y-98504215D01*
X155929215Y-98428079D01*
X155972707Y-98329580D01*
X155975500Y-98305505D01*
X155975500Y-98087000D01*
X155997174Y-98034674D01*
X156049500Y-98013000D01*
X156360212Y-98013000D01*
X156366020Y-98013228D01*
X156497151Y-98023551D01*
X156508619Y-98025368D01*
X156547379Y-98034674D01*
X156633684Y-98055396D01*
X156644713Y-98058979D01*
X156763555Y-98108207D01*
X156773896Y-98113477D01*
X156883561Y-98180681D01*
X156892950Y-98187502D01*
X156953440Y-98239165D01*
X156993023Y-98272972D01*
X156997290Y-98276916D01*
X157064922Y-98344547D01*
X157064926Y-98344551D01*
X157126492Y-98391792D01*
X157154811Y-98440841D01*
X157140152Y-98495548D01*
X157091103Y-98523867D01*
X157081444Y-98524500D01*
X156194496Y-98524500D01*
X156170424Y-98527292D01*
X156170419Y-98527293D01*
X156071920Y-98570785D01*
X155995786Y-98646919D01*
X155952292Y-98745421D01*
X155952292Y-98745423D01*
X155949500Y-98769495D01*
X155949500Y-99030503D01*
X155952292Y-99054575D01*
X155952293Y-99054580D01*
X155995785Y-99153079D01*
X156015380Y-99172674D01*
X156037054Y-99225000D01*
X156015380Y-99277326D01*
X155995786Y-99296919D01*
X155952292Y-99395421D01*
X155952292Y-99395423D01*
X155949500Y-99419495D01*
X155949500Y-99680503D01*
X155952292Y-99704575D01*
X155952293Y-99704580D01*
X155995785Y-99803079D01*
X156015380Y-99822674D01*
X156037054Y-99875000D01*
X156015380Y-99927326D01*
X155995786Y-99946919D01*
X155952292Y-100045421D01*
X155952292Y-100045423D01*
X155949500Y-100069495D01*
X155949500Y-100330503D01*
X155951401Y-100346892D01*
X155952293Y-100354580D01*
X155995785Y-100453079D01*
X156071921Y-100529215D01*
X156170420Y-100572707D01*
X156194495Y-100575500D01*
X157130504Y-100575499D01*
X157154580Y-100572707D01*
X157253079Y-100529215D01*
X157329215Y-100453079D01*
X157358831Y-100386004D01*
X157399794Y-100346892D01*
X157456416Y-100348200D01*
X157470016Y-100356024D01*
X157502129Y-100379357D01*
X157672816Y-100466330D01*
X157855007Y-100525530D01*
X158021455Y-100551894D01*
X158044215Y-100555499D01*
X158044216Y-100555499D01*
X158076580Y-100555499D01*
X158076588Y-100555500D01*
X158085200Y-100555500D01*
X158140000Y-100555500D01*
X158188578Y-100555500D01*
X159422109Y-100555500D01*
X159427916Y-100555728D01*
X159531662Y-100563895D01*
X159563052Y-100566366D01*
X159574522Y-100568183D01*
X159703490Y-100599147D01*
X159714526Y-100602732D01*
X159727491Y-100608103D01*
X159837075Y-100653496D01*
X159847420Y-100658768D01*
X159960505Y-100728067D01*
X159969899Y-100734892D01*
X160043255Y-100797544D01*
X160068968Y-100848008D01*
X160066199Y-100874661D01*
X160052823Y-100920216D01*
X160052823Y-100920219D01*
X160044500Y-100978106D01*
X160044500Y-101549997D01*
X160049652Y-101595728D01*
X160049652Y-101595730D01*
X160089332Y-101678125D01*
X160089335Y-101678128D01*
X160160832Y-101735146D01*
X160160835Y-101735147D01*
X160160837Y-101735149D01*
X160250000Y-101755500D01*
X160694247Y-101755500D01*
X160704778Y-101756253D01*
X160720754Y-101758550D01*
X160720760Y-101758550D01*
X160779239Y-101758550D01*
X160779245Y-101758550D01*
X160795222Y-101756252D01*
X160805752Y-101755500D01*
X161194248Y-101755500D01*
X161204777Y-101756252D01*
X161220755Y-101758550D01*
X161220761Y-101758550D01*
X161279240Y-101758550D01*
X161279246Y-101758550D01*
X161295222Y-101756253D01*
X161305753Y-101755500D01*
X161749997Y-101755500D01*
X161750000Y-101755500D01*
X161795728Y-101750348D01*
X161878127Y-101710666D01*
X161935149Y-101639163D01*
X161955500Y-101550000D01*
X161955500Y-100978111D01*
X161947176Y-100920215D01*
X161906669Y-100782260D01*
X161882371Y-100729055D01*
X161882367Y-100729048D01*
X161804641Y-100608103D01*
X161766335Y-100563896D01*
X161766332Y-100563893D01*
X161657670Y-100469738D01*
X161608474Y-100438122D01*
X161608460Y-100438115D01*
X161560291Y-100416116D01*
X161521698Y-100374663D01*
X161523721Y-100318062D01*
X161565174Y-100279469D01*
X161595869Y-100274962D01*
X161678070Y-100280349D01*
X161687664Y-100281613D01*
X161905618Y-100324963D01*
X161914956Y-100327465D01*
X162125395Y-100398898D01*
X162134335Y-100402601D01*
X162333643Y-100500888D01*
X162342026Y-100505728D01*
X162398534Y-100543485D01*
X162526802Y-100629190D01*
X162534472Y-100635075D01*
X162590340Y-100684070D01*
X162659646Y-100744851D01*
X162684696Y-100795648D01*
X162681857Y-100821334D01*
X162652823Y-100920216D01*
X162652823Y-100920219D01*
X162644500Y-100978106D01*
X162644500Y-101549997D01*
X162649652Y-101595728D01*
X162649652Y-101595730D01*
X162689332Y-101678125D01*
X162689335Y-101678128D01*
X162760832Y-101735146D01*
X162760835Y-101735147D01*
X162760837Y-101735149D01*
X162850000Y-101755500D01*
X163294247Y-101755500D01*
X163304778Y-101756253D01*
X163320754Y-101758550D01*
X163320760Y-101758550D01*
X163379239Y-101758550D01*
X163379245Y-101758550D01*
X163395222Y-101756252D01*
X163405752Y-101755500D01*
X163794248Y-101755500D01*
X163804777Y-101756252D01*
X163820755Y-101758550D01*
X163820761Y-101758550D01*
X163879240Y-101758550D01*
X163879246Y-101758550D01*
X163895222Y-101756253D01*
X163905753Y-101755500D01*
X164349997Y-101755500D01*
X164350000Y-101755500D01*
X164395728Y-101750348D01*
X164478127Y-101710666D01*
X164535149Y-101639163D01*
X164555500Y-101550000D01*
X164555500Y-100978111D01*
X164547176Y-100920215D01*
X164506669Y-100782260D01*
X164482371Y-100729055D01*
X164482367Y-100729048D01*
X164404641Y-100608103D01*
X164366335Y-100563896D01*
X164366332Y-100563893D01*
X164257670Y-100469738D01*
X164208474Y-100438122D01*
X164208466Y-100438118D01*
X164126000Y-100400457D01*
X164077683Y-100378391D01*
X164021561Y-100361912D01*
X164021555Y-100361911D01*
X163879250Y-100341450D01*
X163879246Y-100341450D01*
X163820755Y-100341450D01*
X163820750Y-100341450D01*
X163806429Y-100343509D01*
X163804777Y-100343747D01*
X163794248Y-100344500D01*
X163405752Y-100344500D01*
X163395222Y-100343747D01*
X163393209Y-100343457D01*
X163379249Y-100341450D01*
X163379245Y-100341450D01*
X163320754Y-100341450D01*
X163320749Y-100341450D01*
X163178443Y-100361911D01*
X163178440Y-100361911D01*
X163130203Y-100376075D01*
X163073891Y-100370020D01*
X163057030Y-100357398D01*
X163002527Y-100302895D01*
X162798446Y-100140146D01*
X162577424Y-100001270D01*
X162577423Y-100001269D01*
X162577419Y-100001267D01*
X162342247Y-99888017D01*
X162342248Y-99888017D01*
X162342243Y-99888015D01*
X162095860Y-99801804D01*
X162095856Y-99801803D01*
X162095850Y-99801801D01*
X161841378Y-99743722D01*
X161841376Y-99743721D01*
X161841373Y-99743721D01*
X161581984Y-99714498D01*
X161581979Y-99714498D01*
X161451468Y-99714500D01*
X158112849Y-99714500D01*
X158103188Y-99713867D01*
X158097834Y-99713162D01*
X158065243Y-99708870D01*
X158046584Y-99703869D01*
X158015745Y-99691094D01*
X157999019Y-99681437D01*
X157968636Y-99658124D01*
X157961357Y-99651741D01*
X157951385Y-99641769D01*
X157945000Y-99634487D01*
X157936279Y-99623120D01*
X157926622Y-99606392D01*
X157923010Y-99597671D01*
X157918011Y-99579015D01*
X157916140Y-99564802D01*
X157915508Y-99555167D01*
X157915508Y-99497196D01*
X157891002Y-99374002D01*
X157842930Y-99257957D01*
X157773141Y-99153521D01*
X157736470Y-99116854D01*
X157609566Y-98989950D01*
X157586485Y-98966869D01*
X157586481Y-98966860D01*
X157503883Y-98884260D01*
X157503882Y-98884259D01*
X157503879Y-98884256D01*
X157404490Y-98812046D01*
X157374897Y-98763755D01*
X157374484Y-98760751D01*
X157372707Y-98745420D01*
X157344476Y-98681485D01*
X157343169Y-98624866D01*
X157382281Y-98583902D01*
X157438903Y-98582594D01*
X157440484Y-98583227D01*
X157574435Y-98638711D01*
X157764952Y-98689758D01*
X157960501Y-98715501D01*
X158059120Y-98715500D01*
X159158149Y-98715500D01*
X159212963Y-98715500D01*
X159220405Y-98715500D01*
X159220637Y-98715475D01*
X159237181Y-98715477D01*
X159393299Y-98690758D01*
X159543628Y-98641920D01*
X159684466Y-98570167D01*
X159812345Y-98477265D01*
X159823393Y-98466217D01*
X159823403Y-98466210D01*
X159829486Y-98460126D01*
X159829489Y-98460126D01*
X159857823Y-98431792D01*
X159857824Y-98431792D01*
X159908662Y-98380956D01*
X159908676Y-98380937D01*
X159999265Y-98290348D01*
X160051589Y-98268676D01*
X160097727Y-98284820D01*
X160160837Y-98335149D01*
X160250000Y-98355500D01*
X160694247Y-98355500D01*
X160704778Y-98356253D01*
X160720754Y-98358550D01*
X160720760Y-98358550D01*
X160779239Y-98358550D01*
X160779245Y-98358550D01*
X160795222Y-98356252D01*
X160805752Y-98355500D01*
X161194248Y-98355500D01*
X161204777Y-98356252D01*
X161220755Y-98358550D01*
X161220761Y-98358550D01*
X161279240Y-98358550D01*
X161279246Y-98358550D01*
X161295222Y-98356253D01*
X161305753Y-98355500D01*
X161749997Y-98355500D01*
X161750000Y-98355500D01*
X161795728Y-98350348D01*
X161878127Y-98310666D01*
X161935149Y-98239163D01*
X161955500Y-98150000D01*
X161955500Y-97578111D01*
X161947176Y-97520215D01*
X161906669Y-97382260D01*
X161882371Y-97329055D01*
X161880894Y-97326757D01*
X161812028Y-97219598D01*
X161801972Y-97163861D01*
X161834274Y-97117338D01*
X161880086Y-97105819D01*
X162051446Y-97119309D01*
X162062913Y-97121126D01*
X162228345Y-97160846D01*
X162239388Y-97164434D01*
X162254721Y-97170785D01*
X162396582Y-97229546D01*
X162406915Y-97234811D01*
X162551995Y-97323718D01*
X162561378Y-97330536D01*
X162642569Y-97399880D01*
X162668282Y-97450344D01*
X162665513Y-97476996D01*
X162652824Y-97520212D01*
X162652823Y-97520219D01*
X162644500Y-97578106D01*
X162644500Y-97578111D01*
X162644500Y-98150000D01*
X162648726Y-98187506D01*
X162649652Y-98195728D01*
X162649652Y-98195730D01*
X162689332Y-98278125D01*
X162689335Y-98278128D01*
X162760832Y-98335146D01*
X162760835Y-98335147D01*
X162760837Y-98335149D01*
X162850000Y-98355500D01*
X163294247Y-98355500D01*
X163304778Y-98356253D01*
X163320754Y-98358550D01*
X163320760Y-98358550D01*
X163379239Y-98358550D01*
X163379245Y-98358550D01*
X163395222Y-98356252D01*
X163405752Y-98355500D01*
X163794248Y-98355500D01*
X163804777Y-98356252D01*
X163820755Y-98358550D01*
X163820761Y-98358550D01*
X163879240Y-98358550D01*
X163879246Y-98358550D01*
X163895222Y-98356253D01*
X163905753Y-98355500D01*
X164349997Y-98355500D01*
X164350000Y-98355500D01*
X164395728Y-98350348D01*
X164478127Y-98310666D01*
X164535149Y-98239163D01*
X164555500Y-98150000D01*
X164555500Y-97578111D01*
X164547176Y-97520215D01*
X164506669Y-97382260D01*
X164482371Y-97329055D01*
X164482367Y-97329048D01*
X164404641Y-97208103D01*
X164366335Y-97163896D01*
X164366332Y-97163893D01*
X164257670Y-97069738D01*
X164208474Y-97038122D01*
X164208466Y-97038118D01*
X164113856Y-96994911D01*
X164077683Y-96978391D01*
X164021561Y-96961912D01*
X164021555Y-96961911D01*
X163879250Y-96941450D01*
X163879246Y-96941450D01*
X163820755Y-96941450D01*
X163820750Y-96941450D01*
X163806429Y-96943509D01*
X163804777Y-96943747D01*
X163794248Y-96944500D01*
X163405752Y-96944500D01*
X163395222Y-96943747D01*
X163393209Y-96943457D01*
X163379249Y-96941450D01*
X163379245Y-96941450D01*
X163320754Y-96941450D01*
X163320749Y-96941450D01*
X163178444Y-96961911D01*
X163178442Y-96961911D01*
X163178439Y-96961912D01*
X163122317Y-96978391D01*
X163122315Y-96978391D01*
X163122311Y-96978393D01*
X163090567Y-96992890D01*
X163033966Y-96994911D01*
X163007501Y-96977903D01*
X163005576Y-96975978D01*
X163005572Y-96975974D01*
X162827793Y-96839558D01*
X162826107Y-96838584D01*
X162825866Y-96838271D01*
X162825790Y-96838220D01*
X162825807Y-96838193D01*
X162791630Y-96793654D01*
X162799021Y-96737501D01*
X162843954Y-96703022D01*
X162863108Y-96700500D01*
X164460118Y-96700500D01*
X164494176Y-96700500D01*
X164505751Y-96701410D01*
G37*
%TD.AperFunction*%
%TD*%
M02*
