%TF.GenerationSoftware,KiCad,Pcbnew,8.0.3*%
%TF.CreationDate,2024-07-17T22:09:12+02:00*%
%TF.ProjectId,CleanLVSupply,436c6561-6e4c-4565-9375-70706c792e6b,rev?*%
%TF.SameCoordinates,Original*%
%TF.FileFunction,Copper,L3,Inr*%
%TF.FilePolarity,Positive*%
%FSLAX46Y46*%
G04 Gerber Fmt 4.6, Leading zero omitted, Abs format (unit mm)*
G04 Created by KiCad (PCBNEW 8.0.3) date 2024-07-17 22:09:12*
%MOMM*%
%LPD*%
G01*
G04 APERTURE LIST*
%TA.AperFunction,ComponentPad*%
%ADD10R,1.600000X1.600000*%
%TD*%
%TA.AperFunction,ComponentPad*%
%ADD11C,1.600000*%
%TD*%
%TA.AperFunction,ViaPad*%
%ADD12C,0.450000*%
%TD*%
G04 APERTURE END LIST*
D10*
%TO.N,GND*%
%TO.C,C18*%
X163000000Y-91100000D03*
D11*
%TO.N,-15V*%
X166500000Y-91100000D03*
%TD*%
D10*
%TO.N,+5V*%
%TO.C,C40*%
X164400000Y-116152651D03*
D11*
%TO.N,GND*%
X164400000Y-112652651D03*
%TD*%
D10*
%TO.N,Net-(C41-Pad1)*%
%TO.C,C41*%
X154055113Y-110600000D03*
D11*
%TO.N,GND*%
X152055113Y-110600000D03*
%TD*%
D10*
%TO.N,GND*%
%TO.C,C14*%
X164682380Y-83500000D03*
D11*
%TO.N,Net-(C14-Pad2)*%
X162182380Y-83500000D03*
%TD*%
D10*
%TO.N,Net-(C29-Pad1)*%
%TO.C,C29*%
X153600000Y-102382380D03*
D11*
%TO.N,GND*%
X153600000Y-99882380D03*
%TD*%
D10*
%TO.N,+15V*%
%TO.C,C28*%
X166752651Y-105800000D03*
D11*
%TO.N,GND*%
X163252651Y-105800000D03*
%TD*%
D12*
%TO.N,GND*%
X167500000Y-117100000D03*
X165100000Y-118700000D03*
%TO.N,Net-(J5-Pin_4)*%
X168943164Y-90223422D03*
X168453274Y-89804875D03*
%TO.N,Net-(J5-Pin_1)*%
X168450358Y-106790138D03*
X168945004Y-106371591D03*
%TO.N,/5V Supply/5V_SENSE*%
X166450000Y-117380000D03*
X165960000Y-117760000D03*
%TO.N,/-15V Supply/-17V_SW*%
X151000000Y-86700000D03*
X153720000Y-88080000D03*
X151470000Y-87940000D03*
X137600000Y-88400000D03*
X153760000Y-86100000D03*
X136500000Y-87300000D03*
X135680000Y-94100000D03*
X134200000Y-89500000D03*
X155400000Y-87600000D03*
X131770000Y-86560000D03*
X132700000Y-89600000D03*
X155400000Y-88600000D03*
X136500000Y-88400000D03*
X135300000Y-87300000D03*
X136500000Y-89500000D03*
X134250000Y-87380000D03*
X153740000Y-89230000D03*
X135300000Y-89500000D03*
X133710000Y-83860000D03*
X138800000Y-87100000D03*
X155400000Y-86600000D03*
X137600000Y-89500000D03*
X135300000Y-88400000D03*
X153710000Y-87120000D03*
X134200000Y-88400000D03*
X149600000Y-87080000D03*
X134600000Y-91200000D03*
X137600000Y-87300000D03*
%TO.N,Net-(U1-VCC)*%
X138800000Y-85525000D03*
%TO.N,Net-(U1-RAMP)*%
X132000000Y-85400000D03*
%TO.N,Net-(U1-SS)*%
X132700000Y-91175000D03*
%TO.N,Net-(U1-COMP)*%
X135600000Y-85400000D03*
%TO.N,Net-(U1-FB)*%
X134900000Y-85800000D03*
%TO.N,Net-(U2-EN)*%
X157300000Y-91600000D03*
X156120000Y-92259003D03*
X156120000Y-91630000D03*
X156700000Y-91925000D03*
X157280000Y-92230000D03*
%TO.N,Net-(U1-RT)*%
X134300000Y-85400000D03*
%TO.N,Net-(U4-EN)*%
X155900000Y-102500000D03*
X156400000Y-102200000D03*
X155400000Y-102800000D03*
X155400000Y-102200000D03*
X156400000Y-102800000D03*
%TO.N,Net-(U6-EN)*%
X149800000Y-110600000D03*
X149000000Y-110600000D03*
X149000000Y-109400000D03*
X149800000Y-109400000D03*
X149400000Y-110000000D03*
%TO.N,GND*%
X132800000Y-111300000D03*
X140300000Y-114700000D03*
X146000000Y-85400000D03*
X132800000Y-112120000D03*
X160000000Y-105300000D03*
X133600000Y-91000000D03*
X163200000Y-88900000D03*
X147500000Y-81700000D03*
X143700000Y-85400000D03*
X152300000Y-81600000D03*
X134400000Y-115900000D03*
X147300000Y-110060000D03*
X139700000Y-110500000D03*
X135770000Y-108040000D03*
X156020000Y-115400000D03*
X160400000Y-114500000D03*
X137600000Y-100700000D03*
X146670000Y-99550000D03*
X143480000Y-116880000D03*
X156130000Y-90830000D03*
X158800000Y-107700000D03*
X137920000Y-114030000D03*
X159600000Y-90000000D03*
X160800000Y-90000000D03*
X156000000Y-114700000D03*
X155090000Y-94140000D03*
X157600000Y-105300000D03*
X144690000Y-97570000D03*
X155540000Y-115050000D03*
X160000000Y-106500000D03*
X160800000Y-89400000D03*
X159600000Y-89400000D03*
X156700000Y-95000000D03*
X132160000Y-102880000D03*
X140300000Y-81700000D03*
X153210000Y-96200000D03*
X155100000Y-104790000D03*
X155400000Y-81300000D03*
X155080000Y-114690000D03*
X151000000Y-85125000D03*
X141300000Y-85000000D03*
X139800000Y-83700000D03*
X139300000Y-116500000D03*
X148800000Y-84600000D03*
X135400000Y-96800000D03*
X135580000Y-104390000D03*
X131760000Y-87900000D03*
X153000000Y-83500000D03*
X139700000Y-112600000D03*
X146000000Y-84100000D03*
X157300000Y-84450000D03*
X133580000Y-112110000D03*
X145140000Y-102320000D03*
X155400000Y-83000000D03*
X138900000Y-113900000D03*
X160200000Y-89700000D03*
X142600000Y-81700000D03*
X137250000Y-110600000D03*
X146750000Y-112850000D03*
X139700000Y-113300000D03*
X160000000Y-107700000D03*
X137400000Y-113300000D03*
X138200000Y-102300000D03*
X143700000Y-84100000D03*
X158800000Y-105300000D03*
X146170000Y-105070000D03*
X157600000Y-106500000D03*
X135400000Y-96000000D03*
X145400000Y-116000000D03*
X141410000Y-98310000D03*
X134700000Y-98400000D03*
X158820000Y-80980000D03*
X133600000Y-91600000D03*
X137600000Y-99900000D03*
X157600000Y-107700000D03*
X133570000Y-111300000D03*
X146910000Y-117030000D03*
X145000000Y-81700000D03*
X160800000Y-112700000D03*
X150630000Y-112560000D03*
X136800000Y-117500000D03*
X158800000Y-106500000D03*
X139700000Y-111300000D03*
X146050000Y-107600000D03*
X155080000Y-115410000D03*
X135300000Y-115900000D03*
X135700000Y-101000000D03*
%TO.N,+12V*%
X134300000Y-118600000D03*
X137100000Y-81200000D03*
X137500000Y-82800000D03*
X134800000Y-119200000D03*
X137100000Y-82200000D03*
X132800000Y-96300000D03*
X132200000Y-96700000D03*
X137600000Y-81700000D03*
X131780000Y-113200000D03*
X132800000Y-97200000D03*
X132324898Y-113446592D03*
X135300000Y-118600000D03*
X132830000Y-113130000D03*
X132830000Y-113790000D03*
X132200000Y-95800000D03*
X132300000Y-114100000D03*
X135800000Y-119200000D03*
X131803942Y-113786743D03*
%TO.N,/5V Supply/5V_SENSE*%
X155150000Y-119440000D03*
%TD*%
%TA.AperFunction,Conductor*%
%TO.N,GND*%
G36*
X168110092Y-80322174D02*
G01*
X168131133Y-80364845D01*
X168132015Y-80371552D01*
X168132016Y-80371557D01*
X168196497Y-80612205D01*
X168291834Y-80842369D01*
X168291835Y-80842372D01*
X168416398Y-81058123D01*
X168416402Y-81058129D01*
X168568062Y-81255776D01*
X168744224Y-81431938D01*
X168783239Y-81461875D01*
X168941870Y-81583597D01*
X168941876Y-81583601D01*
X168987114Y-81609719D01*
X169157627Y-81708164D01*
X169387793Y-81803502D01*
X169628435Y-81867982D01*
X169628437Y-81867982D01*
X169628440Y-81867983D01*
X169628439Y-81867983D01*
X169635156Y-81868867D01*
X169684207Y-81897184D01*
X169699500Y-81942234D01*
X169699500Y-118057765D01*
X169677826Y-118110091D01*
X169635163Y-118131131D01*
X169628450Y-118132015D01*
X169628442Y-118132016D01*
X169387794Y-118196497D01*
X169157630Y-118291834D01*
X169157627Y-118291835D01*
X168941876Y-118416398D01*
X168941870Y-118416402D01*
X168744223Y-118568062D01*
X168568062Y-118744223D01*
X168416402Y-118941870D01*
X168416398Y-118941876D01*
X168291835Y-119157627D01*
X168291834Y-119157630D01*
X168196497Y-119387794D01*
X168132016Y-119628442D01*
X168132015Y-119628447D01*
X168131133Y-119635155D01*
X168102817Y-119684206D01*
X168057766Y-119699500D01*
X155616085Y-119699500D01*
X155563759Y-119677826D01*
X155542085Y-119625500D01*
X155550149Y-119591907D01*
X155559719Y-119573126D01*
X155580804Y-119440000D01*
X155559719Y-119306874D01*
X155559719Y-119306873D01*
X155498528Y-119186780D01*
X155403219Y-119091471D01*
X155283126Y-119030281D01*
X155283126Y-119030280D01*
X155150000Y-119009196D01*
X155016873Y-119030280D01*
X155016873Y-119030281D01*
X154896780Y-119091471D01*
X154801471Y-119186780D01*
X154740281Y-119306873D01*
X154740280Y-119306873D01*
X154719196Y-119440000D01*
X154740280Y-119573123D01*
X154740280Y-119573124D01*
X154740281Y-119573126D01*
X154749850Y-119591906D01*
X154754293Y-119648368D01*
X154717510Y-119691435D01*
X154683915Y-119699500D01*
X136065152Y-119699500D01*
X136012826Y-119677826D01*
X135991152Y-119625500D01*
X136012826Y-119573174D01*
X136031554Y-119559567D01*
X136053220Y-119548528D01*
X136148528Y-119453220D01*
X136209719Y-119333126D01*
X136230804Y-119200000D01*
X136209719Y-119066874D01*
X136209719Y-119066873D01*
X136148528Y-118946780D01*
X136053219Y-118851471D01*
X135933126Y-118790281D01*
X135933126Y-118790280D01*
X135800000Y-118769196D01*
X135794176Y-118769196D01*
X135794176Y-118766951D01*
X135747045Y-118755623D01*
X135717466Y-118707324D01*
X135717469Y-118684192D01*
X135718130Y-118680021D01*
X135730804Y-118600000D01*
X135709719Y-118466874D01*
X135709719Y-118466873D01*
X135648528Y-118346780D01*
X135553219Y-118251471D01*
X135433126Y-118190281D01*
X135433126Y-118190280D01*
X135300000Y-118169196D01*
X135166873Y-118190280D01*
X135166873Y-118190281D01*
X135046780Y-118251471D01*
X134951471Y-118346780D01*
X134890281Y-118466873D01*
X134890280Y-118466874D01*
X134873089Y-118575420D01*
X134843496Y-118623711D01*
X134788424Y-118636933D01*
X134740133Y-118607340D01*
X134726911Y-118575420D01*
X134709719Y-118466874D01*
X134709718Y-118466873D01*
X134699895Y-118447595D01*
X134648528Y-118346780D01*
X134553220Y-118251472D01*
X134553219Y-118251471D01*
X134433126Y-118190281D01*
X134433126Y-118190280D01*
X134300000Y-118169196D01*
X134166873Y-118190280D01*
X134166873Y-118190281D01*
X134046780Y-118251471D01*
X133951471Y-118346780D01*
X133890281Y-118466873D01*
X133890280Y-118466873D01*
X133869196Y-118600000D01*
X133890280Y-118733126D01*
X133950581Y-118851472D01*
X133951472Y-118853220D01*
X134046780Y-118948528D01*
X134166873Y-119009718D01*
X134166873Y-119009719D01*
X134300000Y-119030804D01*
X134305824Y-119030804D01*
X134305824Y-119033058D01*
X134352919Y-119044350D01*
X134382526Y-119092632D01*
X134382530Y-119115805D01*
X134369196Y-119199998D01*
X134369196Y-119199999D01*
X134390280Y-119333126D01*
X134444736Y-119440000D01*
X134451472Y-119453220D01*
X134546780Y-119548528D01*
X134568444Y-119559566D01*
X134605226Y-119602633D01*
X134600782Y-119659096D01*
X134557715Y-119695878D01*
X134534848Y-119699500D01*
X131942234Y-119699500D01*
X131889908Y-119677826D01*
X131868867Y-119635155D01*
X131867984Y-119628447D01*
X131867983Y-119628442D01*
X131867982Y-119628441D01*
X131867982Y-119628435D01*
X131803502Y-119387793D01*
X131708164Y-119157627D01*
X131655768Y-119066874D01*
X131583601Y-118941876D01*
X131583597Y-118941870D01*
X131465464Y-118787916D01*
X131431938Y-118744224D01*
X131255776Y-118568062D01*
X131216761Y-118538125D01*
X131058129Y-118416402D01*
X131058123Y-118416398D01*
X130842372Y-118291835D01*
X130842369Y-118291834D01*
X130612205Y-118196497D01*
X130428422Y-118147252D01*
X130371565Y-118132018D01*
X130371563Y-118132017D01*
X130371557Y-118132016D01*
X130371549Y-118132015D01*
X130364837Y-118131131D01*
X130315789Y-118102810D01*
X130300500Y-118057765D01*
X130300500Y-117760000D01*
X165529196Y-117760000D01*
X165550280Y-117893126D01*
X165611471Y-118013219D01*
X165611472Y-118013220D01*
X165706780Y-118108528D01*
X165826873Y-118169718D01*
X165826873Y-118169719D01*
X165845075Y-118172601D01*
X165960000Y-118190804D01*
X166093126Y-118169719D01*
X166213220Y-118108528D01*
X166308528Y-118013220D01*
X166369719Y-117893126D01*
X166372870Y-117873228D01*
X166402462Y-117824938D01*
X166445959Y-117810804D01*
X166450000Y-117810804D01*
X166583126Y-117789719D01*
X166703220Y-117728528D01*
X166798528Y-117633220D01*
X166859719Y-117513126D01*
X166880804Y-117380000D01*
X166859719Y-117246874D01*
X166859719Y-117246873D01*
X166798528Y-117126780D01*
X166703219Y-117031471D01*
X166583126Y-116970281D01*
X166583126Y-116970280D01*
X166450000Y-116949196D01*
X166316873Y-116970280D01*
X166316873Y-116970281D01*
X166196780Y-117031471D01*
X166101471Y-117126780D01*
X166040281Y-117246873D01*
X166037129Y-117266773D01*
X166007535Y-117315064D01*
X165964040Y-117329196D01*
X165960000Y-117329196D01*
X165826873Y-117350280D01*
X165826873Y-117350281D01*
X165706780Y-117411471D01*
X165611471Y-117506780D01*
X165550281Y-117626873D01*
X165550280Y-117626873D01*
X165529196Y-117760000D01*
X130300500Y-117760000D01*
X130300500Y-115332904D01*
X163399500Y-115332904D01*
X163399500Y-116972397D01*
X163411133Y-117030883D01*
X163411527Y-117031472D01*
X163455448Y-117097203D01*
X163499560Y-117126678D01*
X163521767Y-117141517D01*
X163521768Y-117141517D01*
X163521769Y-117141518D01*
X163580252Y-117153151D01*
X163580254Y-117153151D01*
X165219746Y-117153151D01*
X165219748Y-117153151D01*
X165278231Y-117141518D01*
X165344552Y-117097203D01*
X165388867Y-117030882D01*
X165400500Y-116972399D01*
X165400500Y-115332903D01*
X165388867Y-115274420D01*
X165344552Y-115208099D01*
X165322343Y-115193259D01*
X165278232Y-115163784D01*
X165278233Y-115163784D01*
X165248989Y-115157967D01*
X165219748Y-115152151D01*
X163580252Y-115152151D01*
X163551010Y-115157967D01*
X163521767Y-115163784D01*
X163455449Y-115208098D01*
X163455447Y-115208100D01*
X163411133Y-115274418D01*
X163399500Y-115332904D01*
X130300500Y-115332904D01*
X130300500Y-113200000D01*
X131349196Y-113200000D01*
X131370280Y-113333126D01*
X131431471Y-113453219D01*
X131436421Y-113458169D01*
X131458095Y-113510495D01*
X131450030Y-113544090D01*
X131394222Y-113653619D01*
X131373138Y-113786743D01*
X131394222Y-113919869D01*
X131455413Y-114039962D01*
X131455414Y-114039963D01*
X131550722Y-114135271D01*
X131670815Y-114196461D01*
X131670815Y-114196462D01*
X131691374Y-114199718D01*
X131803942Y-114217547D01*
X131823386Y-114214467D01*
X131878459Y-114227688D01*
X131900896Y-114253960D01*
X131951472Y-114353220D01*
X132046780Y-114448528D01*
X132166873Y-114509718D01*
X132166873Y-114509719D01*
X132185075Y-114512601D01*
X132300000Y-114530804D01*
X132433126Y-114509719D01*
X132553220Y-114448528D01*
X132648528Y-114353220D01*
X132700103Y-114251998D01*
X132743169Y-114215217D01*
X132777610Y-114212506D01*
X132830000Y-114220804D01*
X132963126Y-114199719D01*
X133083220Y-114138528D01*
X133178528Y-114043220D01*
X133239719Y-113923126D01*
X133260804Y-113790000D01*
X133239719Y-113656874D01*
X133239719Y-113656873D01*
X133178528Y-113536780D01*
X133154074Y-113512326D01*
X133132400Y-113460000D01*
X133154074Y-113407674D01*
X133178528Y-113383220D01*
X133239719Y-113263126D01*
X133260804Y-113130000D01*
X133239719Y-112996874D01*
X133239719Y-112996873D01*
X133178528Y-112876780D01*
X133083219Y-112781471D01*
X132963126Y-112720281D01*
X132963126Y-112720280D01*
X132830000Y-112699196D01*
X132696873Y-112720280D01*
X132696873Y-112720281D01*
X132576780Y-112781471D01*
X132481473Y-112876778D01*
X132481472Y-112876780D01*
X132432583Y-112972731D01*
X132428649Y-112980451D01*
X132385582Y-113017233D01*
X132351139Y-113019944D01*
X132324898Y-113015788D01*
X132324897Y-113015788D01*
X132228827Y-113031003D01*
X132173755Y-113017781D01*
X132151320Y-112991513D01*
X132128528Y-112946780D01*
X132033220Y-112851472D01*
X132033219Y-112851471D01*
X131913126Y-112790281D01*
X131913126Y-112790280D01*
X131780000Y-112769196D01*
X131646873Y-112790280D01*
X131646873Y-112790281D01*
X131526780Y-112851471D01*
X131431471Y-112946780D01*
X131370281Y-113066873D01*
X131370280Y-113066873D01*
X131349196Y-113200000D01*
X130300500Y-113200000D01*
X130300500Y-112652647D01*
X163194859Y-112652647D01*
X163194859Y-112652654D01*
X163215377Y-112874083D01*
X163215379Y-112874096D01*
X163276237Y-113087993D01*
X163276239Y-113087997D01*
X163375368Y-113287077D01*
X163375370Y-113287080D01*
X163421560Y-113348245D01*
X164013629Y-112756176D01*
X164027259Y-112807045D01*
X164079920Y-112898257D01*
X164154394Y-112972731D01*
X164245606Y-113025392D01*
X164296472Y-113039021D01*
X163703000Y-113632492D01*
X163862817Y-113731445D01*
X163862827Y-113731450D01*
X164070194Y-113811785D01*
X164288800Y-113852650D01*
X164288806Y-113852651D01*
X164511194Y-113852651D01*
X164511199Y-113852650D01*
X164729805Y-113811785D01*
X164937172Y-113731450D01*
X164937182Y-113731445D01*
X165096997Y-113632491D01*
X164503527Y-113039021D01*
X164554394Y-113025392D01*
X164645606Y-112972731D01*
X164720080Y-112898257D01*
X164772741Y-112807045D01*
X164786370Y-112756178D01*
X165378438Y-113348246D01*
X165424629Y-113287079D01*
X165424631Y-113287077D01*
X165523760Y-113087997D01*
X165523762Y-113087993D01*
X165584620Y-112874096D01*
X165584622Y-112874083D01*
X165605141Y-112652654D01*
X165605141Y-112652647D01*
X165584622Y-112431218D01*
X165584620Y-112431205D01*
X165523762Y-112217308D01*
X165523760Y-112217304D01*
X165424631Y-112018224D01*
X165424629Y-112018221D01*
X165378437Y-111957054D01*
X164786370Y-112549122D01*
X164772741Y-112498257D01*
X164720080Y-112407045D01*
X164645606Y-112332571D01*
X164554394Y-112279910D01*
X164503525Y-112266280D01*
X165096998Y-111672808D01*
X164937182Y-111573856D01*
X164937172Y-111573851D01*
X164729805Y-111493516D01*
X164511199Y-111452651D01*
X164288800Y-111452651D01*
X164070194Y-111493516D01*
X163862827Y-111573851D01*
X163862817Y-111573856D01*
X163703000Y-111672808D01*
X164296472Y-112266280D01*
X164245606Y-112279910D01*
X164154394Y-112332571D01*
X164079920Y-112407045D01*
X164027259Y-112498257D01*
X164013629Y-112549123D01*
X163421560Y-111957054D01*
X163375368Y-112018225D01*
X163375367Y-112018228D01*
X163276239Y-112217304D01*
X163276237Y-112217308D01*
X163215379Y-112431205D01*
X163215377Y-112431218D01*
X163194859Y-112652647D01*
X130300500Y-112652647D01*
X130300500Y-109400000D01*
X148569196Y-109400000D01*
X148590280Y-109533126D01*
X148651471Y-109653219D01*
X148651472Y-109653220D01*
X148746780Y-109748528D01*
X148866874Y-109809719D01*
X148923002Y-109818608D01*
X148971293Y-109848200D01*
X148984515Y-109903272D01*
X148969196Y-109999998D01*
X148969196Y-110000000D01*
X148984515Y-110096726D01*
X148971293Y-110151799D01*
X148923002Y-110181391D01*
X148866874Y-110190280D01*
X148866873Y-110190281D01*
X148746780Y-110251471D01*
X148651471Y-110346780D01*
X148590281Y-110466873D01*
X148590280Y-110466873D01*
X148569196Y-110600000D01*
X148590280Y-110733126D01*
X148647592Y-110845606D01*
X148651472Y-110853220D01*
X148746780Y-110948528D01*
X148866873Y-111009718D01*
X148866873Y-111009719D01*
X148885075Y-111012601D01*
X149000000Y-111030804D01*
X149133126Y-111009719D01*
X149253220Y-110948528D01*
X149347674Y-110854074D01*
X149400000Y-110832400D01*
X149452326Y-110854074D01*
X149546780Y-110948528D01*
X149666873Y-111009718D01*
X149666873Y-111009719D01*
X149685075Y-111012601D01*
X149800000Y-111030804D01*
X149933126Y-111009719D01*
X150053220Y-110948528D01*
X150148528Y-110853220D01*
X150209719Y-110733126D01*
X150230804Y-110600000D01*
X150230803Y-110599996D01*
X150849972Y-110599996D01*
X150849972Y-110600003D01*
X150870490Y-110821432D01*
X150870492Y-110821445D01*
X150931350Y-111035342D01*
X150931352Y-111035346D01*
X151030481Y-111234426D01*
X151030483Y-111234429D01*
X151076673Y-111295594D01*
X151668742Y-110703525D01*
X151682372Y-110754394D01*
X151735033Y-110845606D01*
X151809507Y-110920080D01*
X151900719Y-110972741D01*
X151951585Y-110986370D01*
X151358113Y-111579841D01*
X151517930Y-111678794D01*
X151517940Y-111678799D01*
X151725307Y-111759134D01*
X151943913Y-111799999D01*
X151943919Y-111800000D01*
X152166307Y-111800000D01*
X152166312Y-111799999D01*
X152384918Y-111759134D01*
X152592285Y-111678799D01*
X152592295Y-111678794D01*
X152752110Y-111579840D01*
X152158640Y-110986370D01*
X152209507Y-110972741D01*
X152300719Y-110920080D01*
X152375193Y-110845606D01*
X152427854Y-110754394D01*
X152441483Y-110703527D01*
X153032939Y-111294983D01*
X153054613Y-111347309D01*
X153054613Y-111419746D01*
X153066246Y-111478232D01*
X153076459Y-111493516D01*
X153110561Y-111544552D01*
X153154409Y-111573851D01*
X153176880Y-111588866D01*
X153176881Y-111588866D01*
X153176882Y-111588867D01*
X153235365Y-111600500D01*
X153235367Y-111600500D01*
X154874859Y-111600500D01*
X154874861Y-111600500D01*
X154933344Y-111588867D01*
X154999665Y-111544552D01*
X155043980Y-111478231D01*
X155055613Y-111419748D01*
X155055613Y-109780252D01*
X155043980Y-109721769D01*
X154999665Y-109655448D01*
X154977456Y-109640608D01*
X154933345Y-109611133D01*
X154933346Y-109611133D01*
X154904102Y-109605316D01*
X154874861Y-109599500D01*
X153235365Y-109599500D01*
X153206123Y-109605316D01*
X153176880Y-109611133D01*
X153110562Y-109655447D01*
X153110560Y-109655449D01*
X153066246Y-109721767D01*
X153054613Y-109780253D01*
X153054613Y-109852690D01*
X153032939Y-109905016D01*
X152441483Y-110496471D01*
X152427854Y-110445606D01*
X152375193Y-110354394D01*
X152300719Y-110279920D01*
X152209507Y-110227259D01*
X152158638Y-110213629D01*
X152752111Y-109620157D01*
X152592295Y-109521205D01*
X152592285Y-109521200D01*
X152384918Y-109440865D01*
X152166312Y-109400000D01*
X151943913Y-109400000D01*
X151725307Y-109440865D01*
X151517940Y-109521200D01*
X151517930Y-109521205D01*
X151358113Y-109620157D01*
X151951585Y-110213629D01*
X151900719Y-110227259D01*
X151809507Y-110279920D01*
X151735033Y-110354394D01*
X151682372Y-110445606D01*
X151668742Y-110496472D01*
X151076673Y-109904403D01*
X151030481Y-109965574D01*
X151030480Y-109965577D01*
X150931352Y-110164653D01*
X150931350Y-110164657D01*
X150870492Y-110378554D01*
X150870490Y-110378567D01*
X150849972Y-110599996D01*
X150230803Y-110599996D01*
X150209719Y-110466874D01*
X150209719Y-110466873D01*
X150148528Y-110346780D01*
X150053219Y-110251471D01*
X149933126Y-110190281D01*
X149876996Y-110181390D01*
X149828705Y-110151796D01*
X149815484Y-110096725D01*
X149830804Y-110000000D01*
X149815484Y-109903272D01*
X149828706Y-109848201D01*
X149876994Y-109818609D01*
X149933126Y-109809719D01*
X150053220Y-109748528D01*
X150148528Y-109653220D01*
X150209719Y-109533126D01*
X150230804Y-109400000D01*
X150209719Y-109266874D01*
X150209719Y-109266873D01*
X150148528Y-109146780D01*
X150053219Y-109051471D01*
X149933126Y-108990281D01*
X149933126Y-108990280D01*
X149800000Y-108969196D01*
X149666873Y-108990280D01*
X149666873Y-108990281D01*
X149546780Y-109051471D01*
X149546779Y-109051472D01*
X149452326Y-109145926D01*
X149400000Y-109167600D01*
X149347674Y-109145926D01*
X149253219Y-109051471D01*
X149133126Y-108990281D01*
X149133126Y-108990280D01*
X149000000Y-108969196D01*
X148866873Y-108990280D01*
X148866873Y-108990281D01*
X148746780Y-109051471D01*
X148651471Y-109146780D01*
X148590281Y-109266873D01*
X148590280Y-109266873D01*
X148569196Y-109400000D01*
X130300500Y-109400000D01*
X130300500Y-105799996D01*
X162047510Y-105799996D01*
X162047510Y-105800003D01*
X162068028Y-106021432D01*
X162068030Y-106021445D01*
X162128888Y-106235342D01*
X162128890Y-106235346D01*
X162228019Y-106434426D01*
X162228021Y-106434429D01*
X162274211Y-106495594D01*
X162866280Y-105903525D01*
X162879910Y-105954394D01*
X162932571Y-106045606D01*
X163007045Y-106120080D01*
X163098257Y-106172741D01*
X163149123Y-106186370D01*
X162555651Y-106779841D01*
X162715468Y-106878794D01*
X162715478Y-106878799D01*
X162922845Y-106959134D01*
X163141451Y-106999999D01*
X163141457Y-107000000D01*
X163363845Y-107000000D01*
X163363850Y-106999999D01*
X163582456Y-106959134D01*
X163789823Y-106878799D01*
X163789833Y-106878794D01*
X163949648Y-106779840D01*
X163356178Y-106186370D01*
X163407045Y-106172741D01*
X163498257Y-106120080D01*
X163572731Y-106045606D01*
X163625392Y-105954394D01*
X163639021Y-105903527D01*
X164231089Y-106495595D01*
X164277280Y-106434428D01*
X164277282Y-106434426D01*
X164376411Y-106235346D01*
X164376413Y-106235342D01*
X164437271Y-106021445D01*
X164437273Y-106021432D01*
X164457792Y-105800003D01*
X164457792Y-105799996D01*
X164437273Y-105578567D01*
X164437271Y-105578554D01*
X164376413Y-105364657D01*
X164376411Y-105364653D01*
X164277282Y-105165573D01*
X164277280Y-105165570D01*
X164231088Y-105104403D01*
X163639021Y-105696471D01*
X163625392Y-105645606D01*
X163572731Y-105554394D01*
X163498257Y-105479920D01*
X163407045Y-105427259D01*
X163356176Y-105413629D01*
X163789553Y-104980253D01*
X165752151Y-104980253D01*
X165752151Y-106619746D01*
X165763784Y-106678232D01*
X165791773Y-106720119D01*
X165808099Y-106744552D01*
X165852211Y-106774027D01*
X165874418Y-106788866D01*
X165874419Y-106788866D01*
X165874420Y-106788867D01*
X165932903Y-106800500D01*
X165932905Y-106800500D01*
X167572397Y-106800500D01*
X167572399Y-106800500D01*
X167624492Y-106790138D01*
X168019554Y-106790138D01*
X168040638Y-106923264D01*
X168101829Y-107043357D01*
X168101830Y-107043358D01*
X168197138Y-107138666D01*
X168317231Y-107199856D01*
X168317231Y-107199857D01*
X168335433Y-107202739D01*
X168450358Y-107220942D01*
X168583484Y-107199857D01*
X168703578Y-107138666D01*
X168798886Y-107043358D01*
X168860077Y-106923264D01*
X168869333Y-106864819D01*
X168898925Y-106816528D01*
X168939269Y-106803419D01*
X168939252Y-106803306D01*
X168939966Y-106803192D01*
X168942422Y-106802395D01*
X168945004Y-106802395D01*
X169078130Y-106781310D01*
X169198224Y-106720119D01*
X169293532Y-106624811D01*
X169354723Y-106504717D01*
X169375808Y-106371591D01*
X169357605Y-106256666D01*
X169354723Y-106238464D01*
X169293532Y-106118371D01*
X169198223Y-106023062D01*
X169078130Y-105961872D01*
X169078130Y-105961871D01*
X168945004Y-105940787D01*
X168811877Y-105961871D01*
X168811877Y-105961872D01*
X168691784Y-106023062D01*
X168596475Y-106118371D01*
X168535286Y-106238462D01*
X168535284Y-106238468D01*
X168526028Y-106296910D01*
X168496435Y-106345201D01*
X168456092Y-106358309D01*
X168456110Y-106358423D01*
X168455393Y-106358536D01*
X168452939Y-106359334D01*
X168450358Y-106359334D01*
X168317231Y-106380418D01*
X168317231Y-106380419D01*
X168197138Y-106441609D01*
X168101829Y-106536918D01*
X168040639Y-106657011D01*
X168040638Y-106657011D01*
X168019554Y-106790138D01*
X167624492Y-106790138D01*
X167630882Y-106788867D01*
X167697203Y-106744552D01*
X167741518Y-106678231D01*
X167753151Y-106619748D01*
X167753151Y-104980252D01*
X167741518Y-104921769D01*
X167697203Y-104855448D01*
X167674994Y-104840608D01*
X167630883Y-104811133D01*
X167630884Y-104811133D01*
X167601640Y-104805316D01*
X167572399Y-104799500D01*
X165932903Y-104799500D01*
X165903661Y-104805316D01*
X165874418Y-104811133D01*
X165808100Y-104855447D01*
X165808098Y-104855449D01*
X165763784Y-104921767D01*
X165752151Y-104980253D01*
X163789553Y-104980253D01*
X163949649Y-104820157D01*
X163789833Y-104721205D01*
X163789823Y-104721200D01*
X163582456Y-104640865D01*
X163363850Y-104600000D01*
X163141451Y-104600000D01*
X162922845Y-104640865D01*
X162715478Y-104721200D01*
X162715468Y-104721205D01*
X162555651Y-104820157D01*
X163149123Y-105413629D01*
X163098257Y-105427259D01*
X163007045Y-105479920D01*
X162932571Y-105554394D01*
X162879910Y-105645606D01*
X162866280Y-105696472D01*
X162274211Y-105104403D01*
X162228019Y-105165574D01*
X162228018Y-105165577D01*
X162128890Y-105364653D01*
X162128888Y-105364657D01*
X162068030Y-105578554D01*
X162068028Y-105578567D01*
X162047510Y-105799996D01*
X130300500Y-105799996D01*
X130300500Y-101562633D01*
X152599500Y-101562633D01*
X152599500Y-103202126D01*
X152611133Y-103260612D01*
X152640608Y-103304723D01*
X152655448Y-103326932D01*
X152699560Y-103356407D01*
X152721767Y-103371246D01*
X152721768Y-103371246D01*
X152721769Y-103371247D01*
X152780252Y-103382880D01*
X152780254Y-103382880D01*
X154419746Y-103382880D01*
X154419748Y-103382880D01*
X154478231Y-103371247D01*
X154544552Y-103326932D01*
X154588867Y-103260611D01*
X154600500Y-103202128D01*
X154600500Y-102200000D01*
X154969196Y-102200000D01*
X154990280Y-102333126D01*
X155051473Y-102453222D01*
X155053862Y-102456511D01*
X155067078Y-102511585D01*
X155053862Y-102543489D01*
X155051473Y-102546777D01*
X154990281Y-102666873D01*
X154990280Y-102666873D01*
X154969196Y-102800000D01*
X154990280Y-102933126D01*
X155051471Y-103053219D01*
X155051472Y-103053220D01*
X155146780Y-103148528D01*
X155266873Y-103209718D01*
X155266873Y-103209719D01*
X155285075Y-103212601D01*
X155400000Y-103230804D01*
X155533126Y-103209719D01*
X155653220Y-103148528D01*
X155748528Y-103053220D01*
X155793148Y-102965648D01*
X155836214Y-102928867D01*
X155870655Y-102926156D01*
X155900000Y-102930804D01*
X155929342Y-102926156D01*
X155984413Y-102939377D01*
X156006852Y-102965649D01*
X156051472Y-103053220D01*
X156146780Y-103148528D01*
X156266873Y-103209718D01*
X156266873Y-103209719D01*
X156285075Y-103212601D01*
X156400000Y-103230804D01*
X156533126Y-103209719D01*
X156653220Y-103148528D01*
X156748528Y-103053220D01*
X156809719Y-102933126D01*
X156830804Y-102800000D01*
X156809719Y-102666874D01*
X156809719Y-102666873D01*
X156779685Y-102607929D01*
X156748528Y-102546780D01*
X156748523Y-102546775D01*
X156746140Y-102543494D01*
X156732920Y-102488421D01*
X156746140Y-102456506D01*
X156748521Y-102453226D01*
X156748528Y-102453220D01*
X156809719Y-102333126D01*
X156830804Y-102200000D01*
X156810823Y-102073843D01*
X156809719Y-102066873D01*
X156748528Y-101946780D01*
X156653219Y-101851471D01*
X156533126Y-101790281D01*
X156533126Y-101790280D01*
X156400000Y-101769196D01*
X156266873Y-101790280D01*
X156266873Y-101790281D01*
X156146780Y-101851471D01*
X156051473Y-101946778D01*
X156006852Y-102034350D01*
X155963784Y-102071132D01*
X155929343Y-102073843D01*
X155900001Y-102069196D01*
X155899999Y-102069196D01*
X155870656Y-102073843D01*
X155815584Y-102060621D01*
X155793147Y-102034350D01*
X155748528Y-101946780D01*
X155653220Y-101851472D01*
X155653219Y-101851471D01*
X155533126Y-101790281D01*
X155533126Y-101790280D01*
X155400000Y-101769196D01*
X155266873Y-101790280D01*
X155266873Y-101790281D01*
X155146780Y-101851471D01*
X155051471Y-101946780D01*
X154990281Y-102066873D01*
X154990280Y-102066873D01*
X154969196Y-102200000D01*
X154600500Y-102200000D01*
X154600500Y-101562632D01*
X154588867Y-101504149D01*
X154544552Y-101437828D01*
X154522343Y-101422988D01*
X154478232Y-101393513D01*
X154478233Y-101393513D01*
X154448989Y-101387696D01*
X154419748Y-101381880D01*
X152780252Y-101381880D01*
X152751010Y-101387696D01*
X152721767Y-101393513D01*
X152655449Y-101437827D01*
X152655447Y-101437829D01*
X152611133Y-101504147D01*
X152599500Y-101562633D01*
X130300500Y-101562633D01*
X130300500Y-99882376D01*
X152394859Y-99882376D01*
X152394859Y-99882383D01*
X152415377Y-100103812D01*
X152415379Y-100103825D01*
X152476237Y-100317722D01*
X152476239Y-100317726D01*
X152575368Y-100516806D01*
X152575370Y-100516809D01*
X152621560Y-100577974D01*
X153213629Y-99985905D01*
X153227259Y-100036774D01*
X153279920Y-100127986D01*
X153354394Y-100202460D01*
X153445606Y-100255121D01*
X153496472Y-100268750D01*
X152903000Y-100862221D01*
X153062817Y-100961174D01*
X153062827Y-100961179D01*
X153270194Y-101041514D01*
X153488800Y-101082379D01*
X153488806Y-101082380D01*
X153711194Y-101082380D01*
X153711199Y-101082379D01*
X153929805Y-101041514D01*
X154137172Y-100961179D01*
X154137182Y-100961174D01*
X154296997Y-100862220D01*
X153703527Y-100268750D01*
X153754394Y-100255121D01*
X153845606Y-100202460D01*
X153920080Y-100127986D01*
X153972741Y-100036774D01*
X153986370Y-99985907D01*
X154578438Y-100577975D01*
X154624629Y-100516808D01*
X154624631Y-100516806D01*
X154723760Y-100317726D01*
X154723762Y-100317722D01*
X154784620Y-100103825D01*
X154784622Y-100103812D01*
X154805141Y-99882383D01*
X154805141Y-99882376D01*
X154784622Y-99660947D01*
X154784620Y-99660934D01*
X154723762Y-99447037D01*
X154723760Y-99447033D01*
X154624631Y-99247953D01*
X154624629Y-99247950D01*
X154578437Y-99186783D01*
X153986370Y-99778851D01*
X153972741Y-99727986D01*
X153920080Y-99636774D01*
X153845606Y-99562300D01*
X153754394Y-99509639D01*
X153703525Y-99496009D01*
X154296998Y-98902537D01*
X154137182Y-98803585D01*
X154137172Y-98803580D01*
X153929805Y-98723245D01*
X153711199Y-98682380D01*
X153488800Y-98682380D01*
X153270194Y-98723245D01*
X153062827Y-98803580D01*
X153062817Y-98803585D01*
X152903000Y-98902537D01*
X153496472Y-99496009D01*
X153445606Y-99509639D01*
X153354394Y-99562300D01*
X153279920Y-99636774D01*
X153227259Y-99727986D01*
X153213629Y-99778852D01*
X152621560Y-99186783D01*
X152575368Y-99247954D01*
X152575367Y-99247957D01*
X152476239Y-99447033D01*
X152476237Y-99447037D01*
X152415379Y-99660934D01*
X152415377Y-99660947D01*
X152394859Y-99882376D01*
X130300500Y-99882376D01*
X130300500Y-95800000D01*
X131769196Y-95800000D01*
X131790280Y-95933126D01*
X131851471Y-96053219D01*
X131946780Y-96148528D01*
X132016527Y-96184066D01*
X132053310Y-96227133D01*
X132048866Y-96283595D01*
X132016527Y-96315934D01*
X131946780Y-96351471D01*
X131851471Y-96446780D01*
X131790281Y-96566873D01*
X131790280Y-96566873D01*
X131769196Y-96700000D01*
X131790280Y-96833126D01*
X131851471Y-96953219D01*
X131851472Y-96953220D01*
X131946780Y-97048528D01*
X132066873Y-97109718D01*
X132066873Y-97109719D01*
X132087958Y-97113058D01*
X132200000Y-97130804D01*
X132284192Y-97117469D01*
X132339264Y-97130691D01*
X132368857Y-97178982D01*
X132368859Y-97194176D01*
X132369196Y-97194176D01*
X132369196Y-97199999D01*
X132390280Y-97333126D01*
X132451471Y-97453219D01*
X132451472Y-97453220D01*
X132546780Y-97548528D01*
X132666873Y-97609718D01*
X132666873Y-97609719D01*
X132685075Y-97612601D01*
X132800000Y-97630804D01*
X132933126Y-97609719D01*
X133053220Y-97548528D01*
X133148528Y-97453220D01*
X133209719Y-97333126D01*
X133230804Y-97200000D01*
X133209719Y-97066874D01*
X133209719Y-97066873D01*
X133148528Y-96946780D01*
X133053222Y-96851474D01*
X133053220Y-96851472D01*
X132983469Y-96815932D01*
X132946689Y-96772867D01*
X132951132Y-96716405D01*
X132983469Y-96684067D01*
X133053220Y-96648528D01*
X133148528Y-96553220D01*
X133209719Y-96433126D01*
X133230804Y-96300000D01*
X133209719Y-96166874D01*
X133209719Y-96166873D01*
X133148528Y-96046780D01*
X133053219Y-95951471D01*
X132933126Y-95890281D01*
X132933126Y-95890280D01*
X132800000Y-95869196D01*
X132799999Y-95869196D01*
X132715805Y-95882530D01*
X132660733Y-95869308D01*
X132631141Y-95821016D01*
X132631144Y-95805824D01*
X132630804Y-95805824D01*
X132630804Y-95800000D01*
X132609719Y-95666873D01*
X132548528Y-95546780D01*
X132453219Y-95451471D01*
X132333126Y-95390281D01*
X132333126Y-95390280D01*
X132200000Y-95369196D01*
X132066873Y-95390280D01*
X132066873Y-95390281D01*
X131946780Y-95451471D01*
X131851471Y-95546780D01*
X131790281Y-95666873D01*
X131790280Y-95666873D01*
X131769196Y-95800000D01*
X130300500Y-95800000D01*
X130300500Y-94100000D01*
X135249196Y-94100000D01*
X135270280Y-94233126D01*
X135331471Y-94353219D01*
X135331472Y-94353220D01*
X135426780Y-94448528D01*
X135546873Y-94509718D01*
X135546873Y-94509719D01*
X135565075Y-94512601D01*
X135680000Y-94530804D01*
X135813126Y-94509719D01*
X135933220Y-94448528D01*
X136028528Y-94353220D01*
X136089719Y-94233126D01*
X136110804Y-94100000D01*
X136089719Y-93966874D01*
X136089719Y-93966873D01*
X136028528Y-93846780D01*
X135933219Y-93751471D01*
X135813126Y-93690281D01*
X135813126Y-93690280D01*
X135680000Y-93669196D01*
X135546873Y-93690280D01*
X135546873Y-93690281D01*
X135426780Y-93751471D01*
X135331471Y-93846780D01*
X135270281Y-93966873D01*
X135270280Y-93966873D01*
X135249196Y-94100000D01*
X130300500Y-94100000D01*
X130300500Y-91175000D01*
X132269196Y-91175000D01*
X132290280Y-91308126D01*
X132347324Y-91420080D01*
X132351472Y-91428220D01*
X132446780Y-91523528D01*
X132566873Y-91584718D01*
X132566873Y-91584719D01*
X132585075Y-91587601D01*
X132700000Y-91605804D01*
X132833126Y-91584719D01*
X132953220Y-91523528D01*
X133048528Y-91428220D01*
X133109719Y-91308126D01*
X133126844Y-91200000D01*
X134169196Y-91200000D01*
X134190280Y-91333126D01*
X134251471Y-91453219D01*
X134251472Y-91453220D01*
X134346780Y-91548528D01*
X134466873Y-91609718D01*
X134466873Y-91609719D01*
X134485075Y-91612601D01*
X134600000Y-91630804D01*
X134605076Y-91630000D01*
X155689196Y-91630000D01*
X155710280Y-91763126D01*
X155771471Y-91883219D01*
X155780427Y-91892175D01*
X155802101Y-91944501D01*
X155780431Y-91996823D01*
X155771471Y-92005783D01*
X155710280Y-92125879D01*
X155689196Y-92259003D01*
X155710280Y-92392129D01*
X155771471Y-92512222D01*
X155771472Y-92512223D01*
X155866780Y-92607531D01*
X155986873Y-92668721D01*
X155986873Y-92668722D01*
X156005075Y-92671604D01*
X156120000Y-92689807D01*
X156253126Y-92668722D01*
X156373220Y-92607531D01*
X156468528Y-92512223D01*
X156529719Y-92392129D01*
X156529747Y-92392044D01*
X156529786Y-92391998D01*
X156532364Y-92386939D01*
X156533578Y-92387557D01*
X156566527Y-92348975D01*
X156611702Y-92341819D01*
X156700000Y-92355804D01*
X156801012Y-92339805D01*
X156856083Y-92353027D01*
X156878521Y-92379298D01*
X156931472Y-92483220D01*
X157026780Y-92578528D01*
X157146873Y-92639718D01*
X157146873Y-92639719D01*
X157165075Y-92642601D01*
X157280000Y-92660804D01*
X157413126Y-92639719D01*
X157533220Y-92578528D01*
X157628528Y-92483220D01*
X157689719Y-92363126D01*
X157710804Y-92230000D01*
X157689719Y-92096874D01*
X157689719Y-92096873D01*
X157628528Y-91976780D01*
X157625102Y-91972064D01*
X157626479Y-91971063D01*
X157607400Y-91925000D01*
X157629074Y-91872674D01*
X157648528Y-91853220D01*
X157709719Y-91733126D01*
X157730804Y-91600000D01*
X157710541Y-91472063D01*
X157709719Y-91466873D01*
X157648528Y-91346780D01*
X157553219Y-91251471D01*
X157433126Y-91190281D01*
X157433126Y-91190280D01*
X157300000Y-91169196D01*
X157166873Y-91190280D01*
X157166873Y-91190281D01*
X157046780Y-91251471D01*
X156951471Y-91346780D01*
X156887637Y-91472063D01*
X156884555Y-91470492D01*
X156854513Y-91504861D01*
X156810101Y-91511634D01*
X156700000Y-91494196D01*
X156594274Y-91510941D01*
X156539202Y-91497719D01*
X156516764Y-91471448D01*
X156494738Y-91428220D01*
X156468528Y-91376780D01*
X156373220Y-91281472D01*
X156373219Y-91281471D01*
X156253126Y-91220281D01*
X156253126Y-91220280D01*
X156120000Y-91199196D01*
X155986873Y-91220280D01*
X155986873Y-91220281D01*
X155866780Y-91281471D01*
X155771471Y-91376780D01*
X155710281Y-91496873D01*
X155710280Y-91496873D01*
X155689196Y-91630000D01*
X134605076Y-91630000D01*
X134733126Y-91609719D01*
X134853220Y-91548528D01*
X134948528Y-91453220D01*
X135009719Y-91333126D01*
X135030804Y-91200000D01*
X135009719Y-91066874D01*
X135009719Y-91066873D01*
X134948528Y-90946780D01*
X134853219Y-90851471D01*
X134733126Y-90790281D01*
X134733126Y-90790280D01*
X134600000Y-90769196D01*
X134466873Y-90790280D01*
X134466873Y-90790281D01*
X134346780Y-90851471D01*
X134251471Y-90946780D01*
X134190281Y-91066873D01*
X134190280Y-91066873D01*
X134169196Y-91200000D01*
X133126844Y-91200000D01*
X133130804Y-91175000D01*
X133109719Y-91041874D01*
X133109719Y-91041873D01*
X133048528Y-90921780D01*
X132953219Y-90826471D01*
X132833126Y-90765281D01*
X132833126Y-90765280D01*
X132700000Y-90744196D01*
X132566873Y-90765280D01*
X132566873Y-90765281D01*
X132446780Y-90826471D01*
X132351471Y-90921780D01*
X132290281Y-91041873D01*
X132290280Y-91041873D01*
X132269196Y-91175000D01*
X130300500Y-91175000D01*
X130300500Y-90268518D01*
X161800000Y-90268518D01*
X161800000Y-90900000D01*
X162653589Y-90900000D01*
X162627259Y-90945606D01*
X162600000Y-91047339D01*
X162600000Y-91152661D01*
X162627259Y-91254394D01*
X162653590Y-91300000D01*
X161800001Y-91300000D01*
X161800001Y-91931482D01*
X161814834Y-92025148D01*
X161814835Y-92025149D01*
X161872360Y-92138046D01*
X161961953Y-92227639D01*
X162074850Y-92285164D01*
X162168518Y-92299999D01*
X162800000Y-92299999D01*
X162800000Y-91446410D01*
X162845606Y-91472741D01*
X162947339Y-91500000D01*
X163052661Y-91500000D01*
X163154394Y-91472741D01*
X163200000Y-91446410D01*
X163200000Y-92299999D01*
X163831481Y-92299999D01*
X163925148Y-92285165D01*
X163925149Y-92285164D01*
X164038046Y-92227639D01*
X164127639Y-92138046D01*
X164185164Y-92025149D01*
X164185164Y-92025148D01*
X164200000Y-91931481D01*
X164200000Y-91300000D01*
X163346410Y-91300000D01*
X163372741Y-91254394D01*
X163400000Y-91152661D01*
X163400000Y-91100000D01*
X165494659Y-91100000D01*
X165513976Y-91296133D01*
X165571187Y-91484731D01*
X165648836Y-91630000D01*
X165664090Y-91658538D01*
X165789117Y-91810883D01*
X165941462Y-91935910D01*
X165957535Y-91944501D01*
X166115268Y-92028812D01*
X166115270Y-92028812D01*
X166115273Y-92028814D01*
X166303868Y-92086024D01*
X166500000Y-92105341D01*
X166696132Y-92086024D01*
X166884727Y-92028814D01*
X167058538Y-91935910D01*
X167210883Y-91810883D01*
X167335910Y-91658538D01*
X167428814Y-91484727D01*
X167486024Y-91296132D01*
X167505341Y-91100000D01*
X167486024Y-90903868D01*
X167428814Y-90715273D01*
X167428812Y-90715270D01*
X167428812Y-90715268D01*
X167352206Y-90571950D01*
X167335910Y-90541462D01*
X167210883Y-90389117D01*
X167058538Y-90264090D01*
X167011254Y-90238816D01*
X166884731Y-90171187D01*
X166696133Y-90113976D01*
X166500000Y-90094659D01*
X166303866Y-90113976D01*
X166115268Y-90171187D01*
X165941463Y-90264089D01*
X165789117Y-90389117D01*
X165664089Y-90541463D01*
X165571187Y-90715268D01*
X165513976Y-90903866D01*
X165494659Y-91100000D01*
X163400000Y-91100000D01*
X163400000Y-91047339D01*
X163372741Y-90945606D01*
X163346411Y-90900000D01*
X164199999Y-90900000D01*
X164199999Y-90268517D01*
X164185165Y-90174851D01*
X164185164Y-90174850D01*
X164127639Y-90061953D01*
X164038046Y-89972360D01*
X163925149Y-89914835D01*
X163831482Y-89900000D01*
X163200000Y-89900000D01*
X163200000Y-90753589D01*
X163154394Y-90727259D01*
X163052661Y-90700000D01*
X162947339Y-90700000D01*
X162845606Y-90727259D01*
X162800000Y-90753589D01*
X162800000Y-89900000D01*
X162168518Y-89900000D01*
X162074851Y-89914834D01*
X162074850Y-89914835D01*
X161961953Y-89972360D01*
X161872360Y-90061953D01*
X161814835Y-90174850D01*
X161814835Y-90174851D01*
X161800000Y-90268518D01*
X130300500Y-90268518D01*
X130300500Y-89600000D01*
X132269196Y-89600000D01*
X132290280Y-89733126D01*
X132349081Y-89848528D01*
X132351472Y-89853220D01*
X132446780Y-89948528D01*
X132566873Y-90009718D01*
X132566873Y-90009719D01*
X132585075Y-90012601D01*
X132700000Y-90030804D01*
X132833126Y-90009719D01*
X132953220Y-89948528D01*
X133048528Y-89853220D01*
X133109719Y-89733126D01*
X133130804Y-89600000D01*
X133114966Y-89500000D01*
X133769196Y-89500000D01*
X133790280Y-89633126D01*
X133851471Y-89753219D01*
X133851472Y-89753220D01*
X133946780Y-89848528D01*
X134066873Y-89909718D01*
X134066873Y-89909719D01*
X134085075Y-89912601D01*
X134200000Y-89930804D01*
X134333126Y-89909719D01*
X134453220Y-89848528D01*
X134548528Y-89753220D01*
X134609719Y-89633126D01*
X134630804Y-89500000D01*
X134869196Y-89500000D01*
X134890280Y-89633126D01*
X134951471Y-89753219D01*
X134951472Y-89753220D01*
X135046780Y-89848528D01*
X135166873Y-89909718D01*
X135166873Y-89909719D01*
X135185075Y-89912601D01*
X135300000Y-89930804D01*
X135433126Y-89909719D01*
X135553220Y-89848528D01*
X135648528Y-89753220D01*
X135709719Y-89633126D01*
X135730804Y-89500000D01*
X136069196Y-89500000D01*
X136090280Y-89633126D01*
X136151471Y-89753219D01*
X136151472Y-89753220D01*
X136246780Y-89848528D01*
X136366873Y-89909718D01*
X136366873Y-89909719D01*
X136385075Y-89912601D01*
X136500000Y-89930804D01*
X136633126Y-89909719D01*
X136753220Y-89848528D01*
X136848528Y-89753220D01*
X136909719Y-89633126D01*
X136930804Y-89500000D01*
X137169196Y-89500000D01*
X137190280Y-89633126D01*
X137251471Y-89753219D01*
X137251472Y-89753220D01*
X137346780Y-89848528D01*
X137466873Y-89909718D01*
X137466873Y-89909719D01*
X137485075Y-89912601D01*
X137600000Y-89930804D01*
X137733126Y-89909719D01*
X137853220Y-89848528D01*
X137896873Y-89804875D01*
X168022470Y-89804875D01*
X168043554Y-89938001D01*
X168104745Y-90058094D01*
X168104746Y-90058095D01*
X168200054Y-90153403D01*
X168320147Y-90214593D01*
X168320147Y-90214594D01*
X168459026Y-90236590D01*
X168458673Y-90238816D01*
X168503425Y-90257353D01*
X168524187Y-90298102D01*
X168533445Y-90356548D01*
X168594636Y-90476642D01*
X168689944Y-90571950D01*
X168810037Y-90633140D01*
X168810037Y-90633141D01*
X168828239Y-90636023D01*
X168943164Y-90654226D01*
X169076290Y-90633141D01*
X169196384Y-90571950D01*
X169291692Y-90476642D01*
X169352883Y-90356548D01*
X169373968Y-90223422D01*
X169352883Y-90090296D01*
X169352883Y-90090295D01*
X169291692Y-89970202D01*
X169196383Y-89874893D01*
X169076290Y-89813703D01*
X169076290Y-89813702D01*
X168937412Y-89791707D01*
X168937764Y-89789480D01*
X168893013Y-89770944D01*
X168872250Y-89730194D01*
X168862993Y-89671749D01*
X168862992Y-89671748D01*
X168857415Y-89660803D01*
X168801802Y-89551655D01*
X168706494Y-89456347D01*
X168706493Y-89456346D01*
X168586400Y-89395156D01*
X168586400Y-89395155D01*
X168453274Y-89374071D01*
X168320147Y-89395155D01*
X168320147Y-89395156D01*
X168200054Y-89456346D01*
X168104745Y-89551655D01*
X168043555Y-89671748D01*
X168043554Y-89671748D01*
X168022470Y-89804875D01*
X137896873Y-89804875D01*
X137948528Y-89753220D01*
X138009719Y-89633126D01*
X138030804Y-89500000D01*
X138009719Y-89366874D01*
X138009719Y-89366873D01*
X137948528Y-89246780D01*
X137931748Y-89230000D01*
X153309196Y-89230000D01*
X153330280Y-89363126D01*
X153383143Y-89466874D01*
X153391472Y-89483220D01*
X153486780Y-89578528D01*
X153606873Y-89639718D01*
X153606873Y-89639719D01*
X153625075Y-89642601D01*
X153740000Y-89660804D01*
X153873126Y-89639719D01*
X153993220Y-89578528D01*
X154088528Y-89483220D01*
X154149719Y-89363126D01*
X154170804Y-89230000D01*
X154149719Y-89096874D01*
X154149719Y-89096873D01*
X154088528Y-88976780D01*
X153993219Y-88881471D01*
X153873126Y-88820281D01*
X153873126Y-88820280D01*
X153740000Y-88799196D01*
X153606873Y-88820280D01*
X153606873Y-88820281D01*
X153486780Y-88881471D01*
X153391471Y-88976780D01*
X153330281Y-89096873D01*
X153330280Y-89096873D01*
X153309196Y-89230000D01*
X137931748Y-89230000D01*
X137853219Y-89151471D01*
X137733126Y-89090281D01*
X137733126Y-89090280D01*
X137600000Y-89069196D01*
X137466873Y-89090280D01*
X137466873Y-89090281D01*
X137346780Y-89151471D01*
X137251471Y-89246780D01*
X137190281Y-89366873D01*
X137190280Y-89366873D01*
X137169196Y-89500000D01*
X136930804Y-89500000D01*
X136909719Y-89366874D01*
X136909719Y-89366873D01*
X136848528Y-89246780D01*
X136753219Y-89151471D01*
X136633126Y-89090281D01*
X136633126Y-89090280D01*
X136500000Y-89069196D01*
X136366873Y-89090280D01*
X136366873Y-89090281D01*
X136246780Y-89151471D01*
X136151471Y-89246780D01*
X136090281Y-89366873D01*
X136090280Y-89366873D01*
X136069196Y-89500000D01*
X135730804Y-89500000D01*
X135709719Y-89366874D01*
X135709719Y-89366873D01*
X135648528Y-89246780D01*
X135553219Y-89151471D01*
X135433126Y-89090281D01*
X135433126Y-89090280D01*
X135300000Y-89069196D01*
X135166873Y-89090280D01*
X135166873Y-89090281D01*
X135046780Y-89151471D01*
X134951471Y-89246780D01*
X134890281Y-89366873D01*
X134890280Y-89366873D01*
X134869196Y-89500000D01*
X134630804Y-89500000D01*
X134609719Y-89366874D01*
X134609719Y-89366873D01*
X134548528Y-89246780D01*
X134453219Y-89151471D01*
X134333126Y-89090281D01*
X134333126Y-89090280D01*
X134200000Y-89069196D01*
X134066873Y-89090280D01*
X134066873Y-89090281D01*
X133946780Y-89151471D01*
X133851471Y-89246780D01*
X133790281Y-89366873D01*
X133790280Y-89366873D01*
X133769196Y-89500000D01*
X133114966Y-89500000D01*
X133109719Y-89466874D01*
X133109719Y-89466873D01*
X133048528Y-89346780D01*
X132953219Y-89251471D01*
X132833126Y-89190281D01*
X132833126Y-89190280D01*
X132700000Y-89169196D01*
X132566873Y-89190280D01*
X132566873Y-89190281D01*
X132446780Y-89251471D01*
X132351471Y-89346780D01*
X132290281Y-89466873D01*
X132290280Y-89466873D01*
X132269196Y-89600000D01*
X130300500Y-89600000D01*
X130300500Y-88400000D01*
X133769196Y-88400000D01*
X133790280Y-88533126D01*
X133851471Y-88653219D01*
X133851472Y-88653220D01*
X133946780Y-88748528D01*
X134066873Y-88809718D01*
X134066873Y-88809719D01*
X134085075Y-88812601D01*
X134200000Y-88830804D01*
X134333126Y-88809719D01*
X134453220Y-88748528D01*
X134548528Y-88653220D01*
X134609719Y-88533126D01*
X134630804Y-88400000D01*
X134869196Y-88400000D01*
X134890280Y-88533126D01*
X134951471Y-88653219D01*
X134951472Y-88653220D01*
X135046780Y-88748528D01*
X135166873Y-88809718D01*
X135166873Y-88809719D01*
X135185075Y-88812601D01*
X135300000Y-88830804D01*
X135433126Y-88809719D01*
X135553220Y-88748528D01*
X135648528Y-88653220D01*
X135709719Y-88533126D01*
X135730804Y-88400000D01*
X136069196Y-88400000D01*
X136090280Y-88533126D01*
X136151471Y-88653219D01*
X136151472Y-88653220D01*
X136246780Y-88748528D01*
X136366873Y-88809718D01*
X136366873Y-88809719D01*
X136385075Y-88812601D01*
X136500000Y-88830804D01*
X136633126Y-88809719D01*
X136753220Y-88748528D01*
X136848528Y-88653220D01*
X136909719Y-88533126D01*
X136930804Y-88400000D01*
X137169196Y-88400000D01*
X137190280Y-88533126D01*
X137251471Y-88653219D01*
X137251472Y-88653220D01*
X137346780Y-88748528D01*
X137466873Y-88809718D01*
X137466873Y-88809719D01*
X137485075Y-88812601D01*
X137600000Y-88830804D01*
X137733126Y-88809719D01*
X137853220Y-88748528D01*
X137948528Y-88653220D01*
X137975645Y-88600000D01*
X154969196Y-88600000D01*
X154990280Y-88733126D01*
X155040050Y-88830804D01*
X155051472Y-88853220D01*
X155146780Y-88948528D01*
X155266873Y-89009718D01*
X155266873Y-89009719D01*
X155285075Y-89012601D01*
X155400000Y-89030804D01*
X155533126Y-89009719D01*
X155653220Y-88948528D01*
X155748528Y-88853220D01*
X155809719Y-88733126D01*
X155830804Y-88600000D01*
X155809719Y-88466874D01*
X155809719Y-88466873D01*
X155748528Y-88346780D01*
X155653219Y-88251471D01*
X155533126Y-88190281D01*
X155533126Y-88190280D01*
X155433073Y-88174434D01*
X155424578Y-88173088D01*
X155404752Y-88160938D01*
X155375420Y-88173089D01*
X155266874Y-88190280D01*
X155266873Y-88190281D01*
X155146780Y-88251471D01*
X155051471Y-88346780D01*
X154990281Y-88466873D01*
X154990280Y-88466873D01*
X154969196Y-88600000D01*
X137975645Y-88600000D01*
X138009719Y-88533126D01*
X138030804Y-88400000D01*
X138009719Y-88266874D01*
X138009719Y-88266873D01*
X137948528Y-88146780D01*
X137853219Y-88051471D01*
X137733126Y-87990281D01*
X137733126Y-87990280D01*
X137600000Y-87969196D01*
X137466873Y-87990280D01*
X137466873Y-87990281D01*
X137346780Y-88051471D01*
X137251471Y-88146780D01*
X137190281Y-88266873D01*
X137190280Y-88266873D01*
X137169196Y-88400000D01*
X136930804Y-88400000D01*
X136909719Y-88266874D01*
X136909719Y-88266873D01*
X136848528Y-88146780D01*
X136753219Y-88051471D01*
X136633126Y-87990281D01*
X136633126Y-87990280D01*
X136500000Y-87969196D01*
X136366873Y-87990280D01*
X136366873Y-87990281D01*
X136246780Y-88051471D01*
X136151471Y-88146780D01*
X136090281Y-88266873D01*
X136090280Y-88266873D01*
X136069196Y-88400000D01*
X135730804Y-88400000D01*
X135709719Y-88266874D01*
X135709719Y-88266873D01*
X135648528Y-88146780D01*
X135553219Y-88051471D01*
X135433126Y-87990281D01*
X135433126Y-87990280D01*
X135300000Y-87969196D01*
X135166873Y-87990280D01*
X135166873Y-87990281D01*
X135046780Y-88051471D01*
X134951471Y-88146780D01*
X134890281Y-88266873D01*
X134890280Y-88266873D01*
X134869196Y-88400000D01*
X134630804Y-88400000D01*
X134609719Y-88266874D01*
X134609719Y-88266873D01*
X134548528Y-88146780D01*
X134453219Y-88051471D01*
X134333126Y-87990281D01*
X134333126Y-87990280D01*
X134200000Y-87969196D01*
X134066873Y-87990280D01*
X134066873Y-87990281D01*
X133946780Y-88051471D01*
X133851471Y-88146780D01*
X133790281Y-88266873D01*
X133790280Y-88266873D01*
X133769196Y-88400000D01*
X130300500Y-88400000D01*
X130300500Y-87940000D01*
X151039196Y-87940000D01*
X151060280Y-88073126D01*
X151121471Y-88193219D01*
X151121472Y-88193220D01*
X151216780Y-88288528D01*
X151336873Y-88349718D01*
X151336873Y-88349719D01*
X151355075Y-88352601D01*
X151470000Y-88370804D01*
X151603126Y-88349719D01*
X151723220Y-88288528D01*
X151818528Y-88193220D01*
X151879719Y-88073126D01*
X151900804Y-87940000D01*
X151882601Y-87825075D01*
X151879719Y-87806873D01*
X151818528Y-87686780D01*
X151723219Y-87591471D01*
X151603126Y-87530281D01*
X151603126Y-87530280D01*
X151470000Y-87509196D01*
X151336873Y-87530280D01*
X151336873Y-87530281D01*
X151216780Y-87591471D01*
X151121471Y-87686780D01*
X151060281Y-87806873D01*
X151060280Y-87806873D01*
X151039196Y-87940000D01*
X130300500Y-87940000D01*
X130300500Y-87380000D01*
X133819196Y-87380000D01*
X133840280Y-87513126D01*
X133901471Y-87633219D01*
X133901472Y-87633220D01*
X133996780Y-87728528D01*
X134116873Y-87789718D01*
X134116873Y-87789719D01*
X134135075Y-87792601D01*
X134250000Y-87810804D01*
X134383126Y-87789719D01*
X134503220Y-87728528D01*
X134598528Y-87633220D01*
X134659719Y-87513126D01*
X134680804Y-87380000D01*
X134668133Y-87300000D01*
X134869196Y-87300000D01*
X134890280Y-87433126D01*
X134951471Y-87553219D01*
X134951472Y-87553220D01*
X135046780Y-87648528D01*
X135166873Y-87709718D01*
X135166873Y-87709719D01*
X135185075Y-87712601D01*
X135300000Y-87730804D01*
X135433126Y-87709719D01*
X135553220Y-87648528D01*
X135648528Y-87553220D01*
X135709719Y-87433126D01*
X135730804Y-87300000D01*
X136069196Y-87300000D01*
X136090280Y-87433126D01*
X136151471Y-87553219D01*
X136151472Y-87553220D01*
X136246780Y-87648528D01*
X136366873Y-87709718D01*
X136366873Y-87709719D01*
X136385075Y-87712601D01*
X136500000Y-87730804D01*
X136633126Y-87709719D01*
X136753220Y-87648528D01*
X136848528Y-87553220D01*
X136909719Y-87433126D01*
X136930804Y-87300000D01*
X137169196Y-87300000D01*
X137190280Y-87433126D01*
X137251471Y-87553219D01*
X137251472Y-87553220D01*
X137346780Y-87648528D01*
X137466873Y-87709718D01*
X137466873Y-87709719D01*
X137485075Y-87712601D01*
X137600000Y-87730804D01*
X137733126Y-87709719D01*
X137853220Y-87648528D01*
X137948528Y-87553220D01*
X138009719Y-87433126D01*
X138030804Y-87300000D01*
X138009719Y-87166874D01*
X138009719Y-87166873D01*
X137975645Y-87100000D01*
X138369196Y-87100000D01*
X138390280Y-87233126D01*
X138451471Y-87353219D01*
X138451472Y-87353220D01*
X138546780Y-87448528D01*
X138666873Y-87509718D01*
X138666873Y-87509719D01*
X138673718Y-87510803D01*
X138800000Y-87530804D01*
X138933126Y-87509719D01*
X139053220Y-87448528D01*
X139148528Y-87353220D01*
X139209719Y-87233126D01*
X139230804Y-87100000D01*
X139227636Y-87080000D01*
X149169196Y-87080000D01*
X149190280Y-87213126D01*
X149251471Y-87333219D01*
X149251472Y-87333220D01*
X149346780Y-87428528D01*
X149466873Y-87489718D01*
X149466873Y-87489719D01*
X149485075Y-87492601D01*
X149600000Y-87510804D01*
X149733126Y-87489719D01*
X149853220Y-87428528D01*
X149948528Y-87333220D01*
X150009719Y-87213126D01*
X150030804Y-87080000D01*
X150009719Y-86946874D01*
X150009719Y-86946873D01*
X149948528Y-86826780D01*
X149853219Y-86731471D01*
X149791453Y-86700000D01*
X150569196Y-86700000D01*
X150590280Y-86833126D01*
X150650581Y-86951472D01*
X150651472Y-86953220D01*
X150746780Y-87048528D01*
X150866873Y-87109718D01*
X150866873Y-87109719D01*
X150885075Y-87112601D01*
X151000000Y-87130804D01*
X151068214Y-87120000D01*
X153279196Y-87120000D01*
X153300280Y-87253126D01*
X153351281Y-87353220D01*
X153361472Y-87373220D01*
X153456780Y-87468528D01*
X153576874Y-87529719D01*
X153576880Y-87529719D01*
X153581574Y-87531245D01*
X153624642Y-87568028D01*
X153629087Y-87624490D01*
X153592304Y-87667558D01*
X153591833Y-87667754D01*
X153466780Y-87731471D01*
X153371471Y-87826780D01*
X153310281Y-87946873D01*
X153310280Y-87946873D01*
X153289196Y-88080000D01*
X153310280Y-88213126D01*
X153348700Y-88288528D01*
X153371472Y-88333220D01*
X153466780Y-88428528D01*
X153586873Y-88489718D01*
X153586873Y-88489719D01*
X153605075Y-88492601D01*
X153720000Y-88510804D01*
X153853126Y-88489719D01*
X153973220Y-88428528D01*
X154068528Y-88333220D01*
X154129719Y-88213126D01*
X154150804Y-88080000D01*
X154129719Y-87946874D01*
X154129719Y-87946873D01*
X154068528Y-87826780D01*
X153973219Y-87731471D01*
X153853126Y-87670281D01*
X153848421Y-87668752D01*
X153805355Y-87631967D01*
X153802841Y-87600000D01*
X154969196Y-87600000D01*
X154990280Y-87733126D01*
X155038000Y-87826780D01*
X155051472Y-87853220D01*
X155146780Y-87948528D01*
X155266874Y-88009719D01*
X155375420Y-88026911D01*
X155395246Y-88039061D01*
X155424578Y-88026911D01*
X155533126Y-88009719D01*
X155653220Y-87948528D01*
X155748528Y-87853220D01*
X155809719Y-87733126D01*
X155830804Y-87600000D01*
X155809719Y-87466874D01*
X155809719Y-87466873D01*
X155748528Y-87346780D01*
X155653219Y-87251471D01*
X155533126Y-87190281D01*
X155533126Y-87190280D01*
X155433073Y-87174434D01*
X155424578Y-87173088D01*
X155404752Y-87160938D01*
X155375420Y-87173089D01*
X155266874Y-87190280D01*
X155266873Y-87190281D01*
X155146780Y-87251471D01*
X155051471Y-87346780D01*
X154990281Y-87466873D01*
X154990280Y-87466873D01*
X154969196Y-87600000D01*
X153802841Y-87600000D01*
X153800914Y-87575505D01*
X153837699Y-87532439D01*
X153838170Y-87532244D01*
X153843126Y-87529719D01*
X153963220Y-87468528D01*
X154058528Y-87373220D01*
X154119719Y-87253126D01*
X154140804Y-87120000D01*
X154122601Y-87005075D01*
X154119719Y-86986873D01*
X154058528Y-86866780D01*
X153963219Y-86771471D01*
X153843126Y-86710281D01*
X153843126Y-86710280D01*
X153710000Y-86689196D01*
X153576873Y-86710280D01*
X153576873Y-86710281D01*
X153456780Y-86771471D01*
X153361471Y-86866780D01*
X153300281Y-86986873D01*
X153300280Y-86986873D01*
X153279196Y-87120000D01*
X151068214Y-87120000D01*
X151133126Y-87109719D01*
X151253220Y-87048528D01*
X151348528Y-86953220D01*
X151409719Y-86833126D01*
X151430804Y-86700000D01*
X151414966Y-86600000D01*
X154969196Y-86600000D01*
X154990280Y-86733126D01*
X155051471Y-86853219D01*
X155051472Y-86853220D01*
X155146780Y-86948528D01*
X155266874Y-87009719D01*
X155375420Y-87026911D01*
X155395246Y-87039061D01*
X155424578Y-87026911D01*
X155533126Y-87009719D01*
X155653220Y-86948528D01*
X155748528Y-86853220D01*
X155809719Y-86733126D01*
X155830804Y-86600000D01*
X155809719Y-86466874D01*
X155809719Y-86466873D01*
X155748528Y-86346780D01*
X155653219Y-86251471D01*
X155533126Y-86190281D01*
X155533126Y-86190280D01*
X155400000Y-86169196D01*
X155266873Y-86190280D01*
X155266873Y-86190281D01*
X155146780Y-86251471D01*
X155051471Y-86346780D01*
X154990281Y-86466873D01*
X154990280Y-86466873D01*
X154969196Y-86600000D01*
X151414966Y-86600000D01*
X151409719Y-86566874D01*
X151409719Y-86566873D01*
X151348528Y-86446780D01*
X151253219Y-86351471D01*
X151133126Y-86290281D01*
X151133126Y-86290280D01*
X151000000Y-86269196D01*
X150866873Y-86290280D01*
X150866873Y-86290281D01*
X150746780Y-86351471D01*
X150651471Y-86446780D01*
X150590281Y-86566873D01*
X150590280Y-86566873D01*
X150569196Y-86700000D01*
X149791453Y-86700000D01*
X149733126Y-86670281D01*
X149733126Y-86670280D01*
X149600000Y-86649196D01*
X149466873Y-86670280D01*
X149466873Y-86670281D01*
X149346780Y-86731471D01*
X149251471Y-86826780D01*
X149190281Y-86946873D01*
X149190280Y-86946873D01*
X149169196Y-87080000D01*
X139227636Y-87080000D01*
X139210259Y-86970281D01*
X139209719Y-86966873D01*
X139148528Y-86846780D01*
X139053219Y-86751471D01*
X138933126Y-86690281D01*
X138933126Y-86690280D01*
X138800000Y-86669196D01*
X138666873Y-86690280D01*
X138666873Y-86690281D01*
X138546780Y-86751471D01*
X138451471Y-86846780D01*
X138390281Y-86966873D01*
X138390280Y-86966873D01*
X138369196Y-87100000D01*
X137975645Y-87100000D01*
X137948528Y-87046780D01*
X137853219Y-86951471D01*
X137733126Y-86890281D01*
X137733126Y-86890280D01*
X137600000Y-86869196D01*
X137466873Y-86890280D01*
X137466873Y-86890281D01*
X137346780Y-86951471D01*
X137251471Y-87046780D01*
X137190281Y-87166873D01*
X137190280Y-87166873D01*
X137169196Y-87300000D01*
X136930804Y-87300000D01*
X136909719Y-87166874D01*
X136909719Y-87166873D01*
X136848528Y-87046780D01*
X136753219Y-86951471D01*
X136633126Y-86890281D01*
X136633126Y-86890280D01*
X136500000Y-86869196D01*
X136366873Y-86890280D01*
X136366873Y-86890281D01*
X136246780Y-86951471D01*
X136151471Y-87046780D01*
X136090281Y-87166873D01*
X136090280Y-87166873D01*
X136069196Y-87300000D01*
X135730804Y-87300000D01*
X135709719Y-87166874D01*
X135709719Y-87166873D01*
X135648528Y-87046780D01*
X135553219Y-86951471D01*
X135433126Y-86890281D01*
X135433126Y-86890280D01*
X135300000Y-86869196D01*
X135166873Y-86890280D01*
X135166873Y-86890281D01*
X135046780Y-86951471D01*
X134951471Y-87046780D01*
X134890281Y-87166873D01*
X134890280Y-87166873D01*
X134869196Y-87300000D01*
X134668133Y-87300000D01*
X134659719Y-87246874D01*
X134659719Y-87246873D01*
X134598528Y-87126780D01*
X134503219Y-87031471D01*
X134383126Y-86970281D01*
X134383126Y-86970280D01*
X134250000Y-86949196D01*
X134116873Y-86970280D01*
X134116873Y-86970281D01*
X133996780Y-87031471D01*
X133901471Y-87126780D01*
X133840281Y-87246873D01*
X133840280Y-87246873D01*
X133819196Y-87380000D01*
X130300500Y-87380000D01*
X130300500Y-86560000D01*
X131339196Y-86560000D01*
X131360280Y-86693126D01*
X131400200Y-86771472D01*
X131421472Y-86813220D01*
X131516780Y-86908528D01*
X131636873Y-86969718D01*
X131636873Y-86969719D01*
X131640422Y-86970281D01*
X131770000Y-86990804D01*
X131903126Y-86969719D01*
X132023220Y-86908528D01*
X132118528Y-86813220D01*
X132179719Y-86693126D01*
X132200804Y-86560000D01*
X132179719Y-86426874D01*
X132179719Y-86426873D01*
X132118528Y-86306780D01*
X132023219Y-86211471D01*
X131903126Y-86150281D01*
X131903126Y-86150280D01*
X131770000Y-86129196D01*
X131636873Y-86150280D01*
X131636873Y-86150281D01*
X131516780Y-86211471D01*
X131421471Y-86306780D01*
X131360281Y-86426873D01*
X131360280Y-86426873D01*
X131339196Y-86560000D01*
X130300500Y-86560000D01*
X130300500Y-85400000D01*
X131569196Y-85400000D01*
X131590280Y-85533126D01*
X131651471Y-85653219D01*
X131651472Y-85653220D01*
X131746780Y-85748528D01*
X131866873Y-85809718D01*
X131866873Y-85809719D01*
X131885075Y-85812601D01*
X132000000Y-85830804D01*
X132133126Y-85809719D01*
X132253220Y-85748528D01*
X132348528Y-85653220D01*
X132409719Y-85533126D01*
X132430804Y-85400000D01*
X133869196Y-85400000D01*
X133890280Y-85533126D01*
X133951471Y-85653219D01*
X133951472Y-85653220D01*
X134046780Y-85748528D01*
X134166873Y-85809718D01*
X134166873Y-85809719D01*
X134187958Y-85813058D01*
X134300000Y-85830804D01*
X134396725Y-85815484D01*
X134451797Y-85828706D01*
X134481390Y-85876996D01*
X134490281Y-85933126D01*
X134501835Y-85955803D01*
X134551472Y-86053220D01*
X134646780Y-86148528D01*
X134766873Y-86209718D01*
X134766873Y-86209719D01*
X134777942Y-86211472D01*
X134900000Y-86230804D01*
X135033126Y-86209719D01*
X135153220Y-86148528D01*
X135201748Y-86100000D01*
X153329196Y-86100000D01*
X153350280Y-86233126D01*
X153410581Y-86351472D01*
X153411472Y-86353220D01*
X153506780Y-86448528D01*
X153626873Y-86509718D01*
X153626873Y-86509719D01*
X153645075Y-86512601D01*
X153760000Y-86530804D01*
X153893126Y-86509719D01*
X154013220Y-86448528D01*
X154108528Y-86353220D01*
X154169719Y-86233126D01*
X154190804Y-86100000D01*
X154169719Y-85966874D01*
X154169719Y-85966873D01*
X154108528Y-85846780D01*
X154013219Y-85751471D01*
X153893126Y-85690281D01*
X153893126Y-85690280D01*
X153760000Y-85669196D01*
X153626873Y-85690280D01*
X153626873Y-85690281D01*
X153506780Y-85751471D01*
X153411471Y-85846780D01*
X153350281Y-85966873D01*
X153350280Y-85966873D01*
X153329196Y-86100000D01*
X135201748Y-86100000D01*
X135248528Y-86053220D01*
X135309719Y-85933126D01*
X135323607Y-85845435D01*
X135353200Y-85797146D01*
X135408272Y-85783924D01*
X135430290Y-85791078D01*
X135466873Y-85809718D01*
X135466873Y-85809719D01*
X135485075Y-85812601D01*
X135600000Y-85830804D01*
X135733126Y-85809719D01*
X135853220Y-85748528D01*
X135948528Y-85653220D01*
X136009719Y-85533126D01*
X136011006Y-85525000D01*
X138369196Y-85525000D01*
X138390280Y-85658126D01*
X138437843Y-85751472D01*
X138451472Y-85778220D01*
X138546780Y-85873528D01*
X138666873Y-85934718D01*
X138666873Y-85934719D01*
X138685075Y-85937601D01*
X138800000Y-85955804D01*
X138933126Y-85934719D01*
X139053220Y-85873528D01*
X139148528Y-85778220D01*
X139209719Y-85658126D01*
X139230804Y-85525000D01*
X139209719Y-85391874D01*
X139209719Y-85391873D01*
X139148528Y-85271780D01*
X139053219Y-85176471D01*
X138933126Y-85115281D01*
X138933126Y-85115280D01*
X138800000Y-85094196D01*
X138666873Y-85115280D01*
X138666873Y-85115281D01*
X138546780Y-85176471D01*
X138451471Y-85271780D01*
X138390281Y-85391873D01*
X138390280Y-85391873D01*
X138369196Y-85525000D01*
X136011006Y-85525000D01*
X136030804Y-85400000D01*
X136009719Y-85266874D01*
X136009719Y-85266873D01*
X135948528Y-85146780D01*
X135853219Y-85051471D01*
X135733126Y-84990281D01*
X135733126Y-84990280D01*
X135600000Y-84969196D01*
X135466873Y-84990280D01*
X135466873Y-84990281D01*
X135346780Y-85051471D01*
X135251471Y-85146780D01*
X135190281Y-85266873D01*
X135176392Y-85354563D01*
X135146799Y-85402854D01*
X135091726Y-85416075D01*
X135069710Y-85408921D01*
X135033126Y-85390281D01*
X135033124Y-85390280D01*
X135033123Y-85390280D01*
X134900000Y-85369196D01*
X134899999Y-85369196D01*
X134803272Y-85384515D01*
X134748200Y-85371293D01*
X134718608Y-85323002D01*
X134709719Y-85266874D01*
X134648528Y-85146780D01*
X134553220Y-85051472D01*
X134553219Y-85051471D01*
X134433126Y-84990281D01*
X134433126Y-84990280D01*
X134300000Y-84969196D01*
X134166873Y-84990280D01*
X134166873Y-84990281D01*
X134046780Y-85051471D01*
X133951471Y-85146780D01*
X133890281Y-85266873D01*
X133890280Y-85266873D01*
X133869196Y-85400000D01*
X132430804Y-85400000D01*
X132409719Y-85266874D01*
X132409719Y-85266873D01*
X132348528Y-85146780D01*
X132253219Y-85051471D01*
X132133126Y-84990281D01*
X132133126Y-84990280D01*
X132000000Y-84969196D01*
X131866873Y-84990280D01*
X131866873Y-84990281D01*
X131746780Y-85051471D01*
X131651471Y-85146780D01*
X131590281Y-85266873D01*
X131590280Y-85266873D01*
X131569196Y-85400000D01*
X130300500Y-85400000D01*
X130300500Y-83860000D01*
X133279196Y-83860000D01*
X133300280Y-83993126D01*
X133361471Y-84113219D01*
X133361472Y-84113220D01*
X133456780Y-84208528D01*
X133576873Y-84269718D01*
X133576873Y-84269719D01*
X133595075Y-84272601D01*
X133710000Y-84290804D01*
X133843126Y-84269719D01*
X133963220Y-84208528D01*
X134058528Y-84113220D01*
X134119719Y-83993126D01*
X134140804Y-83860000D01*
X134119719Y-83726874D01*
X134119719Y-83726873D01*
X134058528Y-83606780D01*
X133963219Y-83511471D01*
X133940706Y-83500000D01*
X161177039Y-83500000D01*
X161196356Y-83696133D01*
X161253567Y-83884731D01*
X161341156Y-84048597D01*
X161346470Y-84058538D01*
X161471497Y-84210883D01*
X161623842Y-84335910D01*
X161700806Y-84377048D01*
X161797648Y-84428812D01*
X161797650Y-84428812D01*
X161797653Y-84428814D01*
X161986248Y-84486024D01*
X162182380Y-84505341D01*
X162378512Y-84486024D01*
X162567107Y-84428814D01*
X162740918Y-84335910D01*
X162893263Y-84210883D01*
X163018290Y-84058538D01*
X163111194Y-83884727D01*
X163168404Y-83696132D01*
X163187721Y-83500000D01*
X163168404Y-83303868D01*
X163111194Y-83115273D01*
X163111192Y-83115270D01*
X163111192Y-83115268D01*
X163059428Y-83018426D01*
X163018290Y-82941462D01*
X162893263Y-82789117D01*
X162746314Y-82668518D01*
X163482380Y-82668518D01*
X163482380Y-83300000D01*
X164335969Y-83300000D01*
X164309639Y-83345606D01*
X164282380Y-83447339D01*
X164282380Y-83552661D01*
X164309639Y-83654394D01*
X164335970Y-83700000D01*
X163482381Y-83700000D01*
X163482381Y-84331482D01*
X163497214Y-84425148D01*
X163497215Y-84425149D01*
X163554740Y-84538046D01*
X163644333Y-84627639D01*
X163757230Y-84685164D01*
X163850898Y-84699999D01*
X164482380Y-84699999D01*
X164482380Y-83846410D01*
X164527986Y-83872741D01*
X164629719Y-83900000D01*
X164735041Y-83900000D01*
X164836774Y-83872741D01*
X164882380Y-83846410D01*
X164882380Y-84699999D01*
X165513861Y-84699999D01*
X165607528Y-84685165D01*
X165607529Y-84685164D01*
X165720426Y-84627639D01*
X165810019Y-84538046D01*
X165867544Y-84425149D01*
X165867544Y-84425148D01*
X165882380Y-84331481D01*
X165882380Y-83700000D01*
X165028790Y-83700000D01*
X165055121Y-83654394D01*
X165082380Y-83552661D01*
X165082380Y-83447339D01*
X165055121Y-83345606D01*
X165028791Y-83300000D01*
X165882379Y-83300000D01*
X165882379Y-82668517D01*
X165867545Y-82574851D01*
X165867544Y-82574850D01*
X165810019Y-82461953D01*
X165720426Y-82372360D01*
X165607529Y-82314835D01*
X165513862Y-82300000D01*
X164882380Y-82300000D01*
X164882380Y-83153589D01*
X164836774Y-83127259D01*
X164735041Y-83100000D01*
X164629719Y-83100000D01*
X164527986Y-83127259D01*
X164482380Y-83153589D01*
X164482380Y-82300000D01*
X163850898Y-82300000D01*
X163757231Y-82314834D01*
X163757230Y-82314835D01*
X163644333Y-82372360D01*
X163554740Y-82461953D01*
X163497215Y-82574850D01*
X163497215Y-82574851D01*
X163482380Y-82668518D01*
X162746314Y-82668518D01*
X162740918Y-82664090D01*
X162711190Y-82648200D01*
X162567111Y-82571187D01*
X162378513Y-82513976D01*
X162182380Y-82494659D01*
X161986246Y-82513976D01*
X161797648Y-82571187D01*
X161623843Y-82664089D01*
X161471497Y-82789117D01*
X161346469Y-82941463D01*
X161253567Y-83115268D01*
X161196356Y-83303866D01*
X161177039Y-83500000D01*
X133940706Y-83500000D01*
X133843126Y-83450281D01*
X133843126Y-83450280D01*
X133710000Y-83429196D01*
X133576873Y-83450280D01*
X133576873Y-83450281D01*
X133456780Y-83511471D01*
X133361471Y-83606780D01*
X133300281Y-83726873D01*
X133300280Y-83726873D01*
X133279196Y-83860000D01*
X130300500Y-83860000D01*
X130300500Y-81942234D01*
X130322174Y-81889908D01*
X130364844Y-81868867D01*
X130371560Y-81867983D01*
X130371562Y-81867982D01*
X130371565Y-81867982D01*
X130612207Y-81803502D01*
X130842373Y-81708164D01*
X131058127Y-81583599D01*
X131255776Y-81431938D01*
X131431938Y-81255776D01*
X131474736Y-81200000D01*
X136669196Y-81200000D01*
X136690280Y-81333126D01*
X136751471Y-81453219D01*
X136751472Y-81453220D01*
X136846780Y-81548528D01*
X136966874Y-81609719D01*
X137075420Y-81626911D01*
X137123711Y-81656504D01*
X137136933Y-81711576D01*
X137107340Y-81759867D01*
X137075420Y-81773089D01*
X136966874Y-81790280D01*
X136966873Y-81790281D01*
X136846780Y-81851471D01*
X136751471Y-81946780D01*
X136690281Y-82066873D01*
X136690280Y-82066873D01*
X136669196Y-82200000D01*
X136690280Y-82333126D01*
X136750581Y-82451472D01*
X136751472Y-82453220D01*
X136846780Y-82548528D01*
X136966874Y-82609719D01*
X137023002Y-82618608D01*
X137071293Y-82648200D01*
X137084515Y-82703272D01*
X137069196Y-82799998D01*
X137069196Y-82799999D01*
X137090280Y-82933126D01*
X137151471Y-83053219D01*
X137151472Y-83053220D01*
X137246780Y-83148528D01*
X137366873Y-83209718D01*
X137366873Y-83209719D01*
X137385075Y-83212601D01*
X137500000Y-83230804D01*
X137633126Y-83209719D01*
X137753220Y-83148528D01*
X137848528Y-83053220D01*
X137909719Y-82933126D01*
X137930804Y-82800000D01*
X137912601Y-82685075D01*
X137909719Y-82666873D01*
X137848528Y-82546780D01*
X137753219Y-82451471D01*
X137633126Y-82390281D01*
X137576996Y-82381390D01*
X137528705Y-82351796D01*
X137515484Y-82296725D01*
X137531715Y-82194248D01*
X137534963Y-82194762D01*
X137552478Y-82152478D01*
X137594762Y-82134963D01*
X137594248Y-82131715D01*
X137733126Y-82109719D01*
X137853220Y-82048528D01*
X137948528Y-81953220D01*
X138009719Y-81833126D01*
X138030804Y-81700000D01*
X138009719Y-81566874D01*
X138009719Y-81566873D01*
X137948528Y-81446780D01*
X137853219Y-81351471D01*
X137733126Y-81290281D01*
X137733126Y-81290280D01*
X137594248Y-81268285D01*
X137594762Y-81265036D01*
X137552478Y-81247522D01*
X137534963Y-81205237D01*
X137531715Y-81205752D01*
X137509719Y-81066873D01*
X137448528Y-80946780D01*
X137353219Y-80851471D01*
X137233126Y-80790281D01*
X137233126Y-80790280D01*
X137100000Y-80769196D01*
X136966873Y-80790280D01*
X136966873Y-80790281D01*
X136846780Y-80851471D01*
X136751471Y-80946780D01*
X136690281Y-81066873D01*
X136690280Y-81066873D01*
X136669196Y-81200000D01*
X131474736Y-81200000D01*
X131583599Y-81058127D01*
X131708164Y-80842373D01*
X131803502Y-80612207D01*
X131867982Y-80371565D01*
X131868867Y-80364845D01*
X131897183Y-80315794D01*
X131942234Y-80300500D01*
X168057766Y-80300500D01*
X168110092Y-80322174D01*
G37*
%TD.AperFunction*%
%TD*%
M02*
