%TF.GenerationSoftware,KiCad,Pcbnew,8.0.3*%
%TF.CreationDate,2024-07-17T22:09:12+02:00*%
%TF.ProjectId,CleanLVSupply,436c6561-6e4c-4565-9375-70706c792e6b,rev?*%
%TF.SameCoordinates,Original*%
%TF.FileFunction,Copper,L4,Bot*%
%TF.FilePolarity,Positive*%
%FSLAX46Y46*%
G04 Gerber Fmt 4.6, Leading zero omitted, Abs format (unit mm)*
G04 Created by KiCad (PCBNEW 8.0.3) date 2024-07-17 22:09:12*
%MOMM*%
%LPD*%
G01*
G04 APERTURE LIST*
G04 Aperture macros list*
%AMRoundRect*
0 Rectangle with rounded corners*
0 $1 Rounding radius*
0 $2 $3 $4 $5 $6 $7 $8 $9 X,Y pos of 4 corners*
0 Add a 4 corners polygon primitive as box body*
4,1,4,$2,$3,$4,$5,$6,$7,$8,$9,$2,$3,0*
0 Add four circle primitives for the rounded corners*
1,1,$1+$1,$2,$3*
1,1,$1+$1,$4,$5*
1,1,$1+$1,$6,$7*
1,1,$1+$1,$8,$9*
0 Add four rect primitives between the rounded corners*
20,1,$1+$1,$2,$3,$4,$5,0*
20,1,$1+$1,$4,$5,$6,$7,0*
20,1,$1+$1,$6,$7,$8,$9,0*
20,1,$1+$1,$8,$9,$2,$3,0*%
G04 Aperture macros list end*
%TA.AperFunction,NonConductor*%
%ADD10C,0.200000*%
%TD*%
%TA.AperFunction,EtchedComponent*%
%ADD11C,0.200000*%
%TD*%
%TA.AperFunction,SMDPad,CuDef*%
%ADD12RoundRect,0.218750X0.256250X-0.218750X0.256250X0.218750X-0.256250X0.218750X-0.256250X-0.218750X0*%
%TD*%
%TA.AperFunction,SMDPad,CuDef*%
%ADD13RoundRect,0.218750X-0.256250X0.218750X-0.256250X-0.218750X0.256250X-0.218750X0.256250X0.218750X0*%
%TD*%
%TA.AperFunction,ComponentPad*%
%ADD14R,1.600000X1.600000*%
%TD*%
%TA.AperFunction,ComponentPad*%
%ADD15C,1.600000*%
%TD*%
%TA.AperFunction,SMDPad,CuDef*%
%ADD16RoundRect,0.200000X-0.200000X-0.275000X0.200000X-0.275000X0.200000X0.275000X-0.200000X0.275000X0*%
%TD*%
%TA.AperFunction,SMDPad,CuDef*%
%ADD17RoundRect,0.200000X-0.275000X0.200000X-0.275000X-0.200000X0.275000X-0.200000X0.275000X0.200000X0*%
%TD*%
%TA.AperFunction,SMDPad,CuDef*%
%ADD18RoundRect,0.225000X0.250000X-0.225000X0.250000X0.225000X-0.250000X0.225000X-0.250000X-0.225000X0*%
%TD*%
%TA.AperFunction,SMDPad,CuDef*%
%ADD19RoundRect,0.225000X0.225000X0.250000X-0.225000X0.250000X-0.225000X-0.250000X0.225000X-0.250000X0*%
%TD*%
%TA.AperFunction,SMDPad,CuDef*%
%ADD20RoundRect,0.200000X0.275000X-0.200000X0.275000X0.200000X-0.275000X0.200000X-0.275000X-0.200000X0*%
%TD*%
%TA.AperFunction,SMDPad,CuDef*%
%ADD21RoundRect,0.250000X0.650000X-0.325000X0.650000X0.325000X-0.650000X0.325000X-0.650000X-0.325000X0*%
%TD*%
%TA.AperFunction,SMDPad,CuDef*%
%ADD22RoundRect,0.087500X0.425000X0.087500X-0.425000X0.087500X-0.425000X-0.087500X0.425000X-0.087500X0*%
%TD*%
%TA.AperFunction,SMDPad,CuDef*%
%ADD23RoundRect,0.087500X0.087500X0.425000X-0.087500X0.425000X-0.087500X-0.425000X0.087500X-0.425000X0*%
%TD*%
%TA.AperFunction,HeatsinkPad*%
%ADD24R,3.150000X3.150000*%
%TD*%
%TA.AperFunction,SMDPad,CuDef*%
%ADD25RoundRect,0.250000X-0.250000X-0.475000X0.250000X-0.475000X0.250000X0.475000X-0.250000X0.475000X0*%
%TD*%
%TA.AperFunction,SMDPad,CuDef*%
%ADD26RoundRect,0.125000X-0.125000X0.600000X-0.125000X-0.600000X0.125000X-0.600000X0.125000X0.600000X0*%
%TD*%
%TA.AperFunction,HeatsinkPad*%
%ADD27R,1.890000X1.570000*%
%TD*%
%TA.AperFunction,SMDPad,CuDef*%
%ADD28RoundRect,0.250000X2.450000X-0.650000X2.450000X0.650000X-2.450000X0.650000X-2.450000X-0.650000X0*%
%TD*%
%TA.AperFunction,SMDPad,CuDef*%
%ADD29RoundRect,0.200000X0.200000X0.275000X-0.200000X0.275000X-0.200000X-0.275000X0.200000X-0.275000X0*%
%TD*%
%TA.AperFunction,SMDPad,CuDef*%
%ADD30RoundRect,0.225000X-0.250000X0.225000X-0.250000X-0.225000X0.250000X-0.225000X0.250000X0.225000X0*%
%TD*%
%TA.AperFunction,SMDPad,CuDef*%
%ADD31RoundRect,0.250000X-1.500000X-0.550000X1.500000X-0.550000X1.500000X0.550000X-1.500000X0.550000X0*%
%TD*%
%TA.AperFunction,SMDPad,CuDef*%
%ADD32RoundRect,0.225000X-0.225000X-0.250000X0.225000X-0.250000X0.225000X0.250000X-0.225000X0.250000X0*%
%TD*%
%TA.AperFunction,SMDPad,CuDef*%
%ADD33RoundRect,0.087500X0.087500X-0.425000X0.087500X0.425000X-0.087500X0.425000X-0.087500X-0.425000X0*%
%TD*%
%TA.AperFunction,SMDPad,CuDef*%
%ADD34RoundRect,0.087500X0.425000X-0.087500X0.425000X0.087500X-0.425000X0.087500X-0.425000X-0.087500X0*%
%TD*%
%TA.AperFunction,SMDPad,CuDef*%
%ADD35RoundRect,0.250000X-0.325000X-1.100000X0.325000X-1.100000X0.325000X1.100000X-0.325000X1.100000X0*%
%TD*%
%TA.AperFunction,SMDPad,CuDef*%
%ADD36RoundRect,0.250000X-0.475000X0.250000X-0.475000X-0.250000X0.475000X-0.250000X0.475000X0.250000X0*%
%TD*%
%TA.AperFunction,ViaPad*%
%ADD37C,0.450000*%
%TD*%
%TA.AperFunction,Conductor*%
%ADD38C,0.300000*%
%TD*%
%TA.AperFunction,Conductor*%
%ADD39C,0.500000*%
%TD*%
%TA.AperFunction,Conductor*%
%ADD40C,1.000000*%
%TD*%
%TA.AperFunction,Conductor*%
%ADD41C,0.200000*%
%TD*%
%TA.AperFunction,Conductor*%
%ADD42C,0.150000*%
%TD*%
%TA.AperFunction,Conductor*%
%ADD43C,0.250000*%
%TD*%
%TA.AperFunction,Conductor*%
%ADD44C,0.800000*%
%TD*%
%TA.AperFunction,Conductor*%
%ADD45C,2.000000*%
%TD*%
%TA.AperFunction,Conductor*%
%ADD46C,1.500000*%
%TD*%
%TA.AperFunction,Conductor*%
%ADD47C,0.650000*%
%TD*%
G04 APERTURE END LIST*
D10*
X166600000Y-107600000D02*
X169600000Y-107600000D01*
X169600000Y-110000000D01*
X166600000Y-110000000D01*
X166600000Y-107600000D01*
%TA.AperFunction,NonConductor*%
G36*
X166600000Y-107600000D02*
G01*
X169600000Y-107600000D01*
X169600000Y-110000000D01*
X166600000Y-110000000D01*
X166600000Y-107600000D01*
G37*
%TD.AperFunction*%
X166600000Y-92800000D02*
X169600000Y-92800000D01*
X169600000Y-95200000D01*
X166600000Y-95200000D01*
X166600000Y-92800000D01*
%TA.AperFunction,NonConductor*%
G36*
X166600000Y-92800000D02*
G01*
X169600000Y-92800000D01*
X169600000Y-95200000D01*
X166600000Y-95200000D01*
X166600000Y-92800000D01*
G37*
%TD.AperFunction*%
X148600000Y-80400000D02*
X151000000Y-80400000D01*
X151000000Y-83400000D01*
X148600000Y-83400000D01*
X148600000Y-80400000D01*
%TA.AperFunction,NonConductor*%
G36*
X148600000Y-80400000D02*
G01*
X151000000Y-80400000D01*
X151000000Y-83400000D01*
X148600000Y-83400000D01*
X148600000Y-80400000D01*
G37*
%TD.AperFunction*%
X147600000Y-116600000D02*
X150000000Y-116600000D01*
X150000000Y-119600000D01*
X147600000Y-119600000D01*
X147600000Y-116600000D01*
%TA.AperFunction,NonConductor*%
G36*
X147600000Y-116600000D02*
G01*
X150000000Y-116600000D01*
X150000000Y-119600000D01*
X147600000Y-119600000D01*
X147600000Y-116600000D01*
G37*
%TD.AperFunction*%
X130400000Y-105800000D02*
X133400000Y-105800000D01*
X133400000Y-108200000D01*
X130400000Y-108200000D01*
X130400000Y-105800000D01*
%TA.AperFunction,NonConductor*%
G36*
X130400000Y-105800000D02*
G01*
X133400000Y-105800000D01*
X133400000Y-108200000D01*
X130400000Y-108200000D01*
X130400000Y-105800000D01*
G37*
%TD.AperFunction*%
X130400000Y-92700000D02*
X133400000Y-92700000D01*
X133400000Y-95100000D01*
X130400000Y-95100000D01*
X130400000Y-92700000D01*
%TA.AperFunction,NonConductor*%
G36*
X130400000Y-92700000D02*
G01*
X133400000Y-92700000D01*
X133400000Y-95100000D01*
X130400000Y-95100000D01*
X130400000Y-92700000D01*
G37*
%TD.AperFunction*%
D11*
%TO.C,REF\u002A\u002A*%
X151650000Y-88900000D02*
X151650000Y-95900000D01*
X150650000Y-96900000D01*
X139150000Y-96900000D01*
X138150000Y-95900000D01*
X138150000Y-88900000D01*
X139150000Y-87900000D01*
X150650000Y-87900000D01*
X151650000Y-88900000D01*
%TA.AperFunction,EtchedComponent*%
G36*
X151650000Y-88900000D02*
G01*
X151650000Y-95900000D01*
X150650000Y-96900000D01*
X139150000Y-96900000D01*
X138150000Y-95900000D01*
X138150000Y-88900000D01*
X139150000Y-87900000D01*
X150650000Y-87900000D01*
X151650000Y-88900000D01*
G37*
%TD.AperFunction*%
%TD*%
D12*
%TO.P,F3,1*%
%TO.N,-15V*%
X168700000Y-91587500D03*
%TO.P,F3,2*%
%TO.N,Net-(J5-Pin_4)*%
X168700000Y-90012500D03*
%TD*%
D13*
%TO.P,F2,1*%
%TO.N,+15V*%
X168700000Y-105012500D03*
%TO.P,F2,2*%
%TO.N,Net-(J5-Pin_1)*%
X168700000Y-106587500D03*
%TD*%
%TO.P,F1,1*%
%TO.N,+5V*%
X166200000Y-116012500D03*
%TO.P,F1,2*%
%TO.N,/5V Supply/5V_SENSE*%
X166200000Y-117587500D03*
%TD*%
D14*
%TO.P,C18,1*%
%TO.N,GND*%
X163000000Y-91100000D03*
D15*
%TO.P,C18,2*%
%TO.N,-15V*%
X166500000Y-91100000D03*
%TD*%
D14*
%TO.P,C40,1*%
%TO.N,+5V*%
X164400000Y-116152651D03*
D15*
%TO.P,C40,2*%
%TO.N,GND*%
X164400000Y-112652651D03*
%TD*%
D14*
%TO.P,C41,1*%
%TO.N,Net-(C41-Pad1)*%
X154055113Y-110600000D03*
D15*
%TO.P,C41,2*%
%TO.N,GND*%
X152055113Y-110600000D03*
%TD*%
D14*
%TO.P,C14,1*%
%TO.N,GND*%
X164682380Y-83500000D03*
D15*
%TO.P,C14,2*%
%TO.N,Net-(C14-Pad2)*%
X162182380Y-83500000D03*
%TD*%
D14*
%TO.P,C29,1*%
%TO.N,Net-(C29-Pad1)*%
X153600000Y-102382380D03*
D15*
%TO.P,C29,2*%
%TO.N,GND*%
X153600000Y-99882380D03*
%TD*%
D14*
%TO.P,C28,1*%
%TO.N,+15V*%
X166752651Y-105800000D03*
D15*
%TO.P,C28,2*%
%TO.N,GND*%
X163252651Y-105800000D03*
%TD*%
D16*
%TO.P,R1,1*%
%TO.N,GND*%
X131175000Y-87900000D03*
%TO.P,R1,2*%
%TO.N,Net-(U1-FB)*%
X132825000Y-87900000D03*
%TD*%
D17*
%TO.P,R5,1*%
%TO.N,Net-(U1-FB)*%
X134700000Y-86275000D03*
%TO.P,R5,2*%
%TO.N,/-15V Supply/-17V_SW*%
X134700000Y-87925000D03*
%TD*%
D18*
%TO.P,C11,1*%
%TO.N,Net-(U1-SS)*%
X132700000Y-91175000D03*
%TO.P,C11,2*%
%TO.N,/-15V Supply/-17V_SW*%
X132700000Y-89625000D03*
%TD*%
D19*
%TO.P,C42,1*%
%TO.N,Net-(U6-NR)*%
X156575000Y-112200000D03*
%TO.P,C42,2*%
%TO.N,GND*%
X155025000Y-112200000D03*
%TD*%
D20*
%TO.P,R6,1*%
%TO.N,GND*%
X157600000Y-88625000D03*
%TO.P,R6,2*%
%TO.N,Net-(U2-FB)*%
X157600000Y-86975000D03*
%TD*%
D21*
%TO.P,C15,1*%
%TO.N,GND*%
X156700000Y-94875000D03*
%TO.P,C15,2*%
%TO.N,Net-(U2-EN)*%
X156700000Y-91925000D03*
%TD*%
D22*
%TO.P,U4,1,OUT*%
%TO.N,+15V*%
X161162500Y-105200000D03*
%TO.P,U4,2,NC*%
%TO.N,unconnected-(U4-NC-Pad2)*%
X161162500Y-105850000D03*
%TO.P,U4,3,SENSE/FB*%
%TO.N,+15V*%
X161162500Y-106500000D03*
%TO.P,U4,4,6P4V2*%
%TO.N,GND*%
X161162500Y-107150000D03*
%TO.P,U4,5,6P4V1*%
X161162500Y-107800000D03*
D23*
%TO.P,U4,6,3P2V*%
%TO.N,unconnected-(U4-3P2V-Pad6)*%
X160100000Y-108862500D03*
%TO.P,U4,7,GND*%
%TO.N,GND*%
X159450000Y-108862500D03*
%TO.P,U4,8,1P6V*%
%TO.N,unconnected-(U4-1P6V-Pad8)*%
X158800000Y-108862500D03*
%TO.P,U4,9,0P8V*%
%TO.N,GND*%
X158150000Y-108862500D03*
%TO.P,U4,10,0P4V*%
%TO.N,unconnected-(U4-0P4V-Pad10)*%
X157500000Y-108862500D03*
D22*
%TO.P,U4,11,0P2V*%
%TO.N,unconnected-(U4-0P2V-Pad11)*%
X156437500Y-107800000D03*
%TO.P,U4,12,0P1V*%
%TO.N,unconnected-(U4-0P1V-Pad12)*%
X156437500Y-107150000D03*
%TO.P,U4,13,EN*%
%TO.N,Net-(U4-EN)*%
X156437500Y-106500000D03*
%TO.P,U4,14,NR*%
%TO.N,Net-(U4-NR)*%
X156437500Y-105850000D03*
%TO.P,U4,15,IN*%
%TO.N,Net-(U4-EN)*%
X156437500Y-105200000D03*
D23*
%TO.P,U4,16,IN*%
X157500000Y-104137500D03*
%TO.P,U4,17,NC*%
%TO.N,GND*%
X158150000Y-104137500D03*
%TO.P,U4,18,NC*%
X158800000Y-104137500D03*
%TO.P,U4,19,NC*%
X159450000Y-104137500D03*
%TO.P,U4,20,OUT*%
%TO.N,+15V*%
X160100000Y-104137500D03*
D24*
%TO.P,U4,21,EP*%
%TO.N,GND*%
X158800000Y-106500000D03*
%TD*%
D25*
%TO.P,C37,1*%
%TO.N,Net-(U6-EN)*%
X158950000Y-112800000D03*
%TO.P,C37,2*%
%TO.N,GND*%
X160850000Y-112800000D03*
%TD*%
D26*
%TO.P,U2,1,OUT*%
%TO.N,-15V*%
X159225000Y-87350000D03*
%TO.P,U2,2,FB*%
%TO.N,Net-(U2-FB)*%
X159875000Y-87350000D03*
%TO.P,U2,3*%
%TO.N,N/C*%
X160525000Y-87350000D03*
%TO.P,U2,4,GND*%
%TO.N,GND*%
X161175000Y-87350000D03*
%TO.P,U2,5,EN*%
%TO.N,Net-(U2-EN)*%
X161175000Y-91650000D03*
%TO.P,U2,6,NR/SS*%
%TO.N,Net-(U2-NR{slash}SS)*%
X160525000Y-91650000D03*
%TO.P,U2,7*%
%TO.N,N/C*%
X159875000Y-91650000D03*
%TO.P,U2,8,IN*%
%TO.N,Net-(U2-EN)*%
X159225000Y-91650000D03*
D27*
%TO.P,U2,9,EP*%
%TO.N,GND*%
X160200000Y-89500000D03*
%TD*%
D18*
%TO.P,C26,1*%
%TO.N,Net-(U4-EN)*%
X158000000Y-102575000D03*
%TO.P,C26,2*%
%TO.N,GND*%
X158000000Y-101025000D03*
%TD*%
D16*
%TO.P,R2,1*%
%TO.N,Net-(U1-VCC)*%
X131275000Y-84700000D03*
%TO.P,R2,2*%
%TO.N,Net-(U1-RAMP)*%
X132925000Y-84700000D03*
%TD*%
D28*
%TO.P,C27,1*%
%TO.N,+15V*%
X162100000Y-102150000D03*
%TO.P,C27,2*%
%TO.N,GND*%
X162100000Y-97050000D03*
%TD*%
D29*
%TO.P,R4,1*%
%TO.N,Net-(U1-RT)*%
X132925000Y-86300000D03*
%TO.P,R4,2*%
%TO.N,/-15V Supply/-17V_SW*%
X131275000Y-86300000D03*
%TD*%
D17*
%TO.P,R3,1*%
%TO.N,Net-(C8-Pad2)*%
X134600000Y-81275000D03*
%TO.P,R3,2*%
%TO.N,Net-(U1-FB)*%
X134600000Y-82925000D03*
%TD*%
D30*
%TO.P,C9,1*%
%TO.N,Net-(U1-VCC)*%
X138800000Y-85525000D03*
%TO.P,C9,2*%
%TO.N,/-15V Supply/-17V_SW*%
X138800000Y-87075000D03*
%TD*%
D21*
%TO.P,C17,1*%
%TO.N,GND*%
X163200000Y-88900000D03*
%TO.P,C17,2*%
%TO.N,-15V*%
X163200000Y-85950000D03*
%TD*%
D31*
%TO.P,C1,1*%
%TO.N,+12V*%
X133200000Y-113600000D03*
%TO.P,C1,2*%
%TO.N,GND*%
X138600000Y-113600000D03*
%TD*%
D32*
%TO.P,C38,1*%
%TO.N,Net-(U6-EN)*%
X158925000Y-114600000D03*
%TO.P,C38,2*%
%TO.N,GND*%
X160475000Y-114600000D03*
%TD*%
D16*
%TO.P,R8,1*%
%TO.N,Net-(U2-FB)*%
X158475000Y-83900000D03*
%TO.P,R8,2*%
%TO.N,-15V*%
X160125000Y-83900000D03*
%TD*%
D18*
%TO.P,C13,1*%
%TO.N,GND*%
X160300000Y-94975000D03*
%TO.P,C13,2*%
%TO.N,Net-(U2-NR{slash}SS)*%
X160300000Y-93425000D03*
%TD*%
%TO.P,C16,1*%
%TO.N,GND*%
X158700000Y-94975000D03*
%TO.P,C16,2*%
%TO.N,Net-(U2-EN)*%
X158700000Y-93425000D03*
%TD*%
D33*
%TO.P,U6,1,OUT*%
%TO.N,+5V*%
X156300000Y-118462500D03*
%TO.P,U6,2,NC*%
%TO.N,unconnected-(U6-NC-Pad2)*%
X155650000Y-118462500D03*
%TO.P,U6,3,SENSE/FB*%
%TO.N,/5V Supply/5V_SENSE*%
X155000000Y-118462500D03*
%TO.P,U6,4,6P4V2*%
%TO.N,unconnected-(U6-6P4V2-Pad4)*%
X154350000Y-118462500D03*
%TO.P,U6,5,6P4V1*%
%TO.N,unconnected-(U6-6P4V1-Pad5)*%
X153700000Y-118462500D03*
D34*
%TO.P,U6,6,3P2V*%
%TO.N,GND*%
X152637500Y-117400000D03*
%TO.P,U6,7,GND*%
X152637500Y-116750000D03*
%TO.P,U6,8,1P6V*%
%TO.N,unconnected-(U6-1P6V-Pad8)*%
X152637500Y-116100000D03*
%TO.P,U6,9,0P8V*%
%TO.N,unconnected-(U6-0P8V-Pad9)*%
X152637500Y-115450000D03*
%TO.P,U6,10,0P4V*%
%TO.N,GND*%
X152637500Y-114800000D03*
D33*
%TO.P,U6,11,0P2V*%
%TO.N,unconnected-(U6-0P2V-Pad11)*%
X153700000Y-113737500D03*
%TO.P,U6,12,0P1V*%
%TO.N,unconnected-(U6-0P1V-Pad12)*%
X154350000Y-113737500D03*
%TO.P,U6,13,EN*%
%TO.N,Net-(U6-EN)*%
X155000000Y-113737500D03*
%TO.P,U6,14,NR*%
%TO.N,Net-(U6-NR)*%
X155650000Y-113737500D03*
%TO.P,U6,15,IN*%
%TO.N,Net-(U6-EN)*%
X156300000Y-113737500D03*
D34*
%TO.P,U6,16,IN*%
X157362500Y-114800000D03*
%TO.P,U6,17,NC*%
%TO.N,GND*%
X157362500Y-115450000D03*
%TO.P,U6,18,NC*%
X157362500Y-116100000D03*
%TO.P,U6,19,NC*%
X157362500Y-116750000D03*
%TO.P,U6,20,OUT*%
%TO.N,+5V*%
X157362500Y-117400000D03*
D24*
%TO.P,U6,21,EP*%
%TO.N,GND*%
X155000000Y-116100000D03*
%TD*%
D32*
%TO.P,C12,1*%
%TO.N,Net-(U1-FB)*%
X134625000Y-84400000D03*
%TO.P,C12,2*%
%TO.N,Net-(U1-COMP)*%
X136175000Y-84400000D03*
%TD*%
D18*
%TO.P,C8,1*%
%TO.N,Net-(U1-COMP)*%
X136200000Y-82875000D03*
%TO.P,C8,2*%
%TO.N,Net-(C8-Pad2)*%
X136200000Y-81325000D03*
%TD*%
D32*
%TO.P,C19,1*%
%TO.N,Net-(U2-FB)*%
X158525000Y-85500000D03*
%TO.P,C19,2*%
%TO.N,-15V*%
X160075000Y-85500000D03*
%TD*%
D35*
%TO.P,C39,1*%
%TO.N,+5V*%
X159025000Y-117700000D03*
%TO.P,C39,2*%
%TO.N,GND*%
X161975000Y-117700000D03*
%TD*%
D21*
%TO.P,C25,1*%
%TO.N,Net-(U4-EN)*%
X155900000Y-102475000D03*
%TO.P,C25,2*%
%TO.N,GND*%
X155900000Y-99525000D03*
%TD*%
D36*
%TO.P,C30,1*%
%TO.N,Net-(U4-NR)*%
X154500000Y-105850000D03*
%TO.P,C30,2*%
%TO.N,GND*%
X154500000Y-107750000D03*
%TD*%
D37*
%TO.N,GND*%
X167500000Y-117100000D03*
X165100000Y-118700000D03*
%TO.N,Net-(J5-Pin_4)*%
X168943164Y-90223422D03*
X168453274Y-89804875D03*
%TO.N,Net-(J5-Pin_1)*%
X168450358Y-106790138D03*
X168945004Y-106371591D03*
%TO.N,/5V Supply/5V_SENSE*%
X166450000Y-117380000D03*
X165960000Y-117760000D03*
%TO.N,/-15V Supply/-17V_SW*%
X151000000Y-86700000D03*
X153720000Y-88080000D03*
X151470000Y-87940000D03*
X137600000Y-88400000D03*
X153760000Y-86100000D03*
X136500000Y-87300000D03*
X135680000Y-94100000D03*
X134200000Y-89500000D03*
X155400000Y-87600000D03*
X131770000Y-86560000D03*
X132700000Y-89600000D03*
X155400000Y-88600000D03*
X136500000Y-88400000D03*
X135300000Y-87300000D03*
X136500000Y-89500000D03*
X134250000Y-87380000D03*
X153740000Y-89230000D03*
X135300000Y-89500000D03*
X133710000Y-83860000D03*
X138800000Y-87100000D03*
X155400000Y-86600000D03*
X137600000Y-89500000D03*
X135300000Y-88400000D03*
X153710000Y-87120000D03*
X134200000Y-88400000D03*
X149600000Y-87080000D03*
X134600000Y-91200000D03*
X137600000Y-87300000D03*
%TO.N,Net-(U1-VCC)*%
X138800000Y-85525000D03*
%TO.N,Net-(U1-RAMP)*%
X132000000Y-85400000D03*
%TO.N,Net-(U1-SS)*%
X132700000Y-91175000D03*
%TO.N,Net-(U1-COMP)*%
X135600000Y-85400000D03*
%TO.N,Net-(U1-FB)*%
X134900000Y-85800000D03*
%TO.N,Net-(U2-EN)*%
X157300000Y-91600000D03*
X156120000Y-92259003D03*
X156120000Y-91630000D03*
X156700000Y-91925000D03*
X157280000Y-92230000D03*
%TO.N,Net-(U1-RT)*%
X134300000Y-85400000D03*
%TO.N,Net-(U4-EN)*%
X155900000Y-102500000D03*
X156400000Y-102200000D03*
X155400000Y-102800000D03*
X155400000Y-102200000D03*
X156400000Y-102800000D03*
%TO.N,Net-(U6-EN)*%
X149800000Y-110600000D03*
X149000000Y-110600000D03*
X149000000Y-109400000D03*
X149800000Y-109400000D03*
X149400000Y-110000000D03*
%TO.N,GND*%
X132800000Y-111300000D03*
X140300000Y-114700000D03*
X146000000Y-85400000D03*
X132800000Y-112120000D03*
X160000000Y-105300000D03*
X133600000Y-91000000D03*
X163200000Y-88900000D03*
X147500000Y-81700000D03*
X143700000Y-85400000D03*
X152300000Y-81600000D03*
X134400000Y-115900000D03*
X147300000Y-110060000D03*
X139700000Y-110500000D03*
X135770000Y-108040000D03*
X156020000Y-115400000D03*
X160400000Y-114500000D03*
X137600000Y-100700000D03*
X146670000Y-99550000D03*
X143480000Y-116880000D03*
X156130000Y-90830000D03*
X158800000Y-107700000D03*
X137920000Y-114030000D03*
X159600000Y-90000000D03*
X160800000Y-90000000D03*
X156000000Y-114700000D03*
X155090000Y-94140000D03*
X157600000Y-105300000D03*
X144690000Y-97570000D03*
X155540000Y-115050000D03*
X160000000Y-106500000D03*
X160800000Y-89400000D03*
X159600000Y-89400000D03*
X156700000Y-95000000D03*
X132160000Y-102880000D03*
X140300000Y-81700000D03*
X153210000Y-96200000D03*
X155100000Y-104790000D03*
X155400000Y-81300000D03*
X155080000Y-114690000D03*
X151000000Y-85125000D03*
X141300000Y-85000000D03*
X139800000Y-83700000D03*
X139300000Y-116500000D03*
X148800000Y-84600000D03*
X135400000Y-96800000D03*
X135580000Y-104390000D03*
X131760000Y-87900000D03*
X153000000Y-83500000D03*
X139700000Y-112600000D03*
X146000000Y-84100000D03*
X157300000Y-84450000D03*
X133580000Y-112110000D03*
X145140000Y-102320000D03*
X155400000Y-83000000D03*
X138900000Y-113900000D03*
X160200000Y-89700000D03*
X142600000Y-81700000D03*
X137250000Y-110600000D03*
X146750000Y-112850000D03*
X139700000Y-113300000D03*
X160000000Y-107700000D03*
X137400000Y-113300000D03*
X138200000Y-102300000D03*
X143700000Y-84100000D03*
X158800000Y-105300000D03*
X146170000Y-105070000D03*
X157600000Y-106500000D03*
X135400000Y-96000000D03*
X145400000Y-116000000D03*
X141410000Y-98310000D03*
X134700000Y-98400000D03*
X158820000Y-80980000D03*
X133600000Y-91600000D03*
X137600000Y-99900000D03*
X157600000Y-107700000D03*
X133570000Y-111300000D03*
X146910000Y-117030000D03*
X145000000Y-81700000D03*
X160800000Y-112700000D03*
X150630000Y-112560000D03*
X136800000Y-117500000D03*
X158800000Y-106500000D03*
X139700000Y-111300000D03*
X146050000Y-107600000D03*
X155080000Y-115410000D03*
X135300000Y-115900000D03*
X135700000Y-101000000D03*
%TO.N,+12V*%
X134300000Y-118600000D03*
X137100000Y-81200000D03*
X137500000Y-82800000D03*
X134800000Y-119200000D03*
X137100000Y-82200000D03*
X132800000Y-96300000D03*
X132200000Y-96700000D03*
X137600000Y-81700000D03*
X131780000Y-113200000D03*
X132800000Y-97200000D03*
X132324898Y-113446592D03*
X135300000Y-118600000D03*
X132830000Y-113130000D03*
X132830000Y-113790000D03*
X132200000Y-95800000D03*
X132300000Y-114100000D03*
X135800000Y-119200000D03*
X131803942Y-113786743D03*
%TO.N,/5V Supply/5V_SENSE*%
X155150000Y-119440000D03*
%TD*%
D38*
%TO.N,+15V*%
X163700000Y-107080000D02*
X164948457Y-107080000D01*
X163076690Y-107080000D02*
X163700000Y-107080000D01*
X161162500Y-106500000D02*
X161676447Y-106500000D01*
X165890000Y-106690000D02*
X166733312Y-105846688D01*
X166733312Y-105846688D02*
G75*
G03*
X166752644Y-105800000I-46712J46688D01*
G01*
X162280000Y-106750000D02*
G75*
G03*
X163076690Y-107080004I796700J796700D01*
G01*
X164948457Y-107080000D02*
G75*
G03*
X165890013Y-106690013I43J1331500D01*
G01*
X161676447Y-106500000D02*
G75*
G02*
X162279986Y-106750014I-47J-853600D01*
G01*
D39*
%TO.N,-15V*%
X160125000Y-85379290D02*
G75*
G02*
X160075003Y-85500003I-170700J-10D01*
G01*
X160125000Y-83900000D02*
X160125000Y-85379290D01*
D40*
X167676929Y-91587500D02*
X168700000Y-91587500D01*
X166500000Y-91100000D02*
G75*
G03*
X167676929Y-91587488I1176900J1176900D01*
G01*
%TO.N,+15V*%
X168653844Y-105012500D02*
X168700000Y-105012500D01*
X166752651Y-105800000D02*
G75*
G02*
X168653844Y-105012533I1901149J-1901200D01*
G01*
D39*
%TO.N,+5V*%
X164738354Y-116012500D02*
G75*
G03*
X164400024Y-116152675I46J-478500D01*
G01*
X166200000Y-116012500D02*
X164738354Y-116012500D01*
%TO.N,-15V*%
X159440000Y-86135000D02*
X160075000Y-85500000D01*
X159440000Y-86140000D02*
X159440000Y-86135000D01*
%TO.N,/-15V Supply/-17V_SW*%
X132941421Y-89500000D02*
X134200000Y-89500000D01*
X138317158Y-87300000D02*
X137600000Y-87300000D01*
X132700000Y-89600000D02*
G75*
G02*
X132941421Y-89500009I241400J-241400D01*
G01*
X138800000Y-87100000D02*
G75*
G02*
X138317158Y-87299982I-482800J482800D01*
G01*
D41*
%TO.N,Net-(U1-VCC)*%
X136500000Y-80500000D02*
X134382842Y-80500000D01*
X138200000Y-81300000D02*
X138036397Y-81136397D01*
X133900000Y-80700000D02*
X133841422Y-80758578D01*
X138800000Y-85525000D02*
X138800000Y-82748528D01*
X132869150Y-83105851D02*
X131275000Y-84700000D01*
X133700000Y-81100000D02*
G75*
G02*
X132869149Y-83105850I-2836700J0D01*
G01*
X134382842Y-80500000D02*
G75*
G03*
X133899987Y-80699987I-42J-682800D01*
G01*
X138036397Y-81136397D02*
G75*
G03*
X136500000Y-80500002I-1536397J-1536403D01*
G01*
X138800000Y-82748528D02*
G75*
G03*
X138200008Y-81299992I-2048500J28D01*
G01*
X133841422Y-80758578D02*
G75*
G03*
X133699987Y-81100000I341378J-341422D01*
G01*
D42*
%TO.N,Net-(U1-RAMP)*%
X132000000Y-85400000D02*
X132058579Y-85400000D01*
X132342678Y-85282323D02*
X132925000Y-84700000D01*
X132058579Y-85400000D02*
G75*
G03*
X132342693Y-85282338I21J401800D01*
G01*
D41*
%TO.N,Net-(C8-Pad2)*%
X134600000Y-81275000D02*
X136079290Y-81275000D01*
X136079290Y-81275000D02*
G75*
G02*
X136200003Y-81324997I10J-170700D01*
G01*
%TO.N,Net-(U1-COMP)*%
X135600000Y-85400000D02*
X135598006Y-85352375D01*
X135863440Y-84711559D02*
X136175000Y-84400000D01*
X136175000Y-84400000D02*
X136175000Y-82935355D01*
X135598006Y-85352375D02*
G75*
G02*
X135863444Y-84711563I906294J-25D01*
G01*
X136175000Y-82935355D02*
G75*
G02*
X136200013Y-82875013I85400J-45D01*
G01*
%TO.N,Net-(U1-FB)*%
X134700000Y-86275000D02*
X134705545Y-86269455D01*
X134625000Y-84400000D02*
X134625000Y-82985355D01*
X133769627Y-86660373D02*
X133033597Y-87396403D01*
X134900000Y-85063908D02*
X134900000Y-85800000D01*
X134700000Y-86275000D02*
G75*
G03*
X133769637Y-86660383I0J-1315700D01*
G01*
X133033597Y-87396403D02*
G75*
G03*
X132825002Y-87900000I503603J-503597D01*
G01*
X134625000Y-82985355D02*
G75*
G03*
X134599987Y-82925013I-85400J-45D01*
G01*
X134625000Y-84400000D02*
G75*
G02*
X134899996Y-85063908I-663900J-663900D01*
G01*
X134705545Y-86269455D02*
G75*
G03*
X134900003Y-85800000I-469445J469455D01*
G01*
D38*
%TO.N,Net-(U2-EN)*%
X159028916Y-93753916D02*
X158700000Y-93425000D01*
D40*
X157030000Y-92890000D02*
X157324644Y-93184644D01*
D38*
X160677868Y-94210000D02*
X160130000Y-94210000D01*
D40*
X156700000Y-91925000D02*
X156700000Y-92093310D01*
D38*
X161175000Y-91650000D02*
X161175000Y-93734082D01*
D40*
X157904914Y-93425000D02*
X158700000Y-93425000D01*
D39*
X159225000Y-91650000D02*
X159225000Y-92157538D01*
D40*
X156700000Y-92093310D02*
G75*
G03*
X157030003Y-92889997I1126700J10D01*
G01*
D39*
X159225000Y-92157538D02*
G75*
G02*
X158699989Y-93424989I-1792500J38D01*
G01*
D40*
X157324644Y-93184644D02*
G75*
G03*
X157904914Y-93424997I580256J580244D01*
G01*
D38*
X160130000Y-94210000D02*
G75*
G02*
X159028909Y-93753923I0J1557200D01*
G01*
X161040000Y-94060000D02*
G75*
G02*
X160677868Y-94209987I-362100J362100D01*
G01*
X161175000Y-93734082D02*
G75*
G02*
X161040006Y-94060006I-460900J-18D01*
G01*
D39*
%TO.N,Net-(U2-NR{slash}SS)*%
X160525000Y-91650000D02*
X160525000Y-92881802D01*
X160525000Y-92881802D02*
G75*
G02*
X160299999Y-93424999I-768200J2D01*
G01*
D38*
%TO.N,Net-(U2-FB)*%
X158525000Y-84020710D02*
X158525000Y-85500000D01*
D43*
X158541421Y-88211422D02*
X158610000Y-88280000D01*
X157860000Y-87260000D02*
X158350502Y-87750502D01*
X158899705Y-88400000D02*
X159340295Y-88400000D01*
X157600000Y-86975000D02*
X158136091Y-86438909D01*
X159875000Y-87688518D02*
X159875000Y-87350000D01*
X157617678Y-87017677D02*
X157860000Y-87260000D01*
X158136091Y-86438909D02*
G75*
G03*
X158525005Y-85500000I-938891J938909D01*
G01*
X158610000Y-88280000D02*
G75*
G03*
X158899705Y-88399998I289700J289700D01*
G01*
X157600000Y-86975000D02*
G75*
G03*
X157617689Y-87017666I60300J0D01*
G01*
X159340295Y-88400000D02*
G75*
G03*
X159630002Y-88280002I5J409700D01*
G01*
D38*
X158475000Y-83900000D02*
G75*
G02*
X158524996Y-84020710I-120700J-120700D01*
G01*
D43*
X158400000Y-87870000D02*
G75*
G03*
X158541430Y-88211413I482800J0D01*
G01*
X158350502Y-87750502D02*
G75*
G02*
X158399999Y-87870000I-119502J-119498D01*
G01*
X159630000Y-88280000D02*
G75*
G03*
X159875007Y-87688518I-591500J591500D01*
G01*
D41*
%TO.N,Net-(U1-RT)*%
X133489125Y-85735876D02*
X132925000Y-86300000D01*
X134300000Y-85400000D02*
G75*
G03*
X133489135Y-85735886I0J-1146700D01*
G01*
D43*
%TO.N,Net-(U4-EN)*%
X155540000Y-106600000D02*
X155510234Y-106627391D01*
D44*
X158000000Y-102575000D02*
X156141421Y-102575000D01*
D39*
X156437500Y-105200000D02*
X156437500Y-104668167D01*
D40*
X155900000Y-102634193D02*
X155900000Y-102475000D01*
D43*
X156437500Y-106500000D02*
X155781421Y-106500000D01*
X153230000Y-106207574D02*
X153230000Y-105433847D01*
X153422010Y-106552010D02*
X153337782Y-106467782D01*
X155190088Y-106760000D02*
X153924142Y-106760000D01*
X153360000Y-105120000D02*
X153746154Y-104733846D01*
D39*
X156982309Y-104137500D02*
X157500000Y-104137500D01*
D43*
X153746154Y-104733846D02*
G75*
G02*
X156170246Y-103729776I2424046J-2424054D01*
G01*
X153337782Y-106467782D02*
G75*
G02*
X153230022Y-106207574I260218J260182D01*
G01*
X153924142Y-106760000D02*
G75*
G02*
X153421993Y-106552027I-42J710100D01*
G01*
X153230000Y-105433847D02*
G75*
G02*
X153359986Y-105119986I443800J47D01*
G01*
D40*
X156590000Y-104300000D02*
G75*
G02*
X155900003Y-102634193I1665800J1665800D01*
G01*
D43*
X155510234Y-106627391D02*
G75*
G02*
X155190088Y-106759978I-320134J320191D01*
G01*
X155781421Y-106500000D02*
G75*
G03*
X155539994Y-106599994I-21J-341400D01*
G01*
D39*
X156437500Y-104668167D02*
G75*
G02*
X156590009Y-104300009I520700J-33D01*
G01*
X156590000Y-104300000D02*
G75*
G02*
X156982309Y-104137504I392300J-392300D01*
G01*
D44*
X156141421Y-102575000D02*
G75*
G02*
X155899994Y-102475006I-21J341400D01*
G01*
D38*
%TO.N,Net-(U4-NR)*%
X156437500Y-105850000D02*
X154500000Y-105850000D01*
D39*
%TO.N,Net-(U6-EN)*%
X157362500Y-114277184D02*
X157362500Y-114800000D01*
D43*
X156183553Y-111096447D02*
X156444938Y-110835062D01*
D40*
X157071594Y-110730000D02*
X157040000Y-110730000D01*
D43*
X155810000Y-112297158D02*
X155810000Y-111998284D01*
D40*
X157220718Y-113934892D02*
X157935312Y-113220298D01*
D39*
X157180000Y-113890000D02*
X157220718Y-113934892D01*
D44*
X158925000Y-114600000D02*
X158925000Y-112860355D01*
D40*
X158504523Y-111724522D02*
X157820000Y-111040000D01*
X151199827Y-109030000D02*
X150654558Y-109030000D01*
X150220000Y-109210000D02*
X149451214Y-109978786D01*
X156869290Y-110659289D02*
X155740000Y-109530000D01*
X155740000Y-109530000D02*
X155593554Y-109383554D01*
D43*
X155245720Y-113144281D02*
X155610000Y-112780000D01*
D39*
X156300000Y-113737500D02*
X156811833Y-113737500D01*
D40*
X154740000Y-109030000D02*
X151199827Y-109030000D01*
X150654558Y-109030000D02*
G75*
G03*
X150220012Y-109210012I42J-614600D01*
G01*
X155593554Y-109383554D02*
G75*
G03*
X154740000Y-109029998I-853554J-853546D01*
G01*
X157040000Y-110730000D02*
G75*
G02*
X156869294Y-110659285I0J241400D01*
G01*
D39*
X157220718Y-113934892D02*
G75*
G02*
X157362504Y-114277184I-342318J-342308D01*
G01*
D44*
X158925000Y-112860355D02*
G75*
G02*
X158950013Y-112800013I85400J-45D01*
G01*
D45*
X149451214Y-109978786D02*
G75*
G02*
X149400000Y-110000008I-51214J51186D01*
G01*
D43*
X155000000Y-113737500D02*
G75*
G02*
X155245728Y-113144289I838900J0D01*
G01*
X155810000Y-111998284D02*
G75*
G02*
X156183559Y-111096453I1275400J-16D01*
G01*
D39*
X156811833Y-113737500D02*
G75*
G02*
X157179991Y-113890009I-33J-520700D01*
G01*
D43*
X155610000Y-112780000D02*
G75*
G03*
X155809982Y-112297158I-482800J482800D01*
G01*
D40*
X158950000Y-112800000D02*
G75*
G03*
X158504532Y-111724513I-1521000J0D01*
G01*
X157935312Y-113220298D02*
G75*
G02*
X158950000Y-112800005I1014688J-1014702D01*
G01*
X157820000Y-111040000D02*
G75*
G03*
X157071594Y-110730003I-748400J-748400D01*
G01*
D43*
X156444938Y-110835062D02*
G75*
G02*
X156869290Y-110659278I424362J-424338D01*
G01*
%TO.N,Net-(U6-NR)*%
X155924004Y-113075996D02*
X156415901Y-112584099D01*
X156415901Y-112584099D02*
G75*
G03*
X156574999Y-112200000I-384101J384099D01*
G01*
X155650000Y-113737500D02*
G75*
G02*
X155924006Y-113075998I935500J0D01*
G01*
D39*
%TO.N,GND*%
X158800000Y-104137500D02*
X158811312Y-104125030D01*
D40*
X160200000Y-89500000D02*
X160700000Y-89500000D01*
X160700000Y-89500000D02*
X160800000Y-89400000D01*
D38*
X151420000Y-114948822D02*
X151420000Y-115501716D01*
X157130000Y-109600000D02*
X155903346Y-108373346D01*
X158100000Y-109860000D02*
X157757695Y-109860000D01*
D40*
X156076906Y-94616906D02*
X155510000Y-94050000D01*
D39*
X160626776Y-89323223D02*
X160960000Y-88990000D01*
D44*
X160850000Y-112800000D02*
X160800000Y-112700000D01*
D38*
X152637500Y-117400000D02*
X153320000Y-117400000D01*
X159450000Y-108862500D02*
X159450000Y-108069238D01*
D40*
X163000000Y-89382842D02*
X163000000Y-91100000D01*
D38*
X151420000Y-115501716D02*
X151420000Y-115937158D01*
X158577756Y-89030000D02*
X159380000Y-89030000D01*
D44*
X161340000Y-116190000D02*
X161356281Y-116206281D01*
D40*
X155510000Y-94050000D02*
X155457777Y-93994580D01*
D44*
X160475000Y-114600000D02*
X160475000Y-114932367D01*
D40*
X156804264Y-90040000D02*
X158896325Y-90040000D01*
D38*
X160200000Y-89500000D02*
X159977488Y-89277488D01*
D39*
X156924264Y-99949264D02*
X158000000Y-101025000D01*
D40*
X160800000Y-89400000D02*
X162958577Y-89400000D01*
D38*
X161162500Y-107800000D02*
X160490000Y-107800000D01*
D39*
X158824191Y-104093961D02*
X158825000Y-104077145D01*
D38*
X155340000Y-108140000D02*
X155233257Y-108137385D01*
D39*
X160300000Y-94975000D02*
X158700000Y-94975000D01*
D46*
X158800000Y-105300000D02*
X158800000Y-106500000D01*
D38*
X159450000Y-109542721D02*
X159450000Y-108862500D01*
D46*
X158800000Y-104137500D02*
X158800000Y-105300000D01*
D38*
X153968700Y-117131299D02*
X155000000Y-116100000D01*
X152165596Y-113384404D02*
X151998995Y-113551005D01*
X161162500Y-107150000D02*
X160369238Y-107150000D01*
D39*
X158811312Y-104125030D02*
X158824191Y-104093961D01*
D40*
X154830000Y-92478993D02*
X154830000Y-92010000D01*
D38*
X154642817Y-107892817D02*
X154500000Y-107750000D01*
X158150000Y-108862500D02*
X158150000Y-109739290D01*
D39*
X158930000Y-103823653D02*
X158930000Y-101000000D01*
D38*
X152637500Y-114800000D02*
X153320000Y-114800000D01*
D44*
X158328185Y-115700000D02*
X160157036Y-115700000D01*
D46*
X155000000Y-116100000D02*
X157362500Y-116100000D01*
D38*
X159886038Y-107586038D02*
X158800000Y-106500000D01*
X158100000Y-109860000D02*
X159118579Y-109860000D01*
X152416690Y-116750000D02*
X152637500Y-116750000D01*
D40*
X155374472Y-90695528D02*
X155482512Y-90587488D01*
D38*
X158150000Y-108862500D02*
X158150000Y-108069238D01*
D39*
X161704213Y-97050000D02*
X162100000Y-97050000D01*
D40*
X161205731Y-112652651D02*
X164400000Y-112652651D01*
D39*
X161175000Y-87350000D02*
X161175000Y-88470945D01*
X158930000Y-101000000D02*
X158930000Y-98919116D01*
D44*
X160800000Y-112700000D02*
X160850000Y-113694670D01*
D38*
X152637500Y-116750000D02*
X153430762Y-116750000D01*
X153968700Y-115068701D02*
X155000000Y-116100000D01*
D47*
X131175000Y-87900000D02*
X131760000Y-87900000D01*
D39*
X158000000Y-101025000D02*
X158869645Y-101025000D01*
D38*
X160490000Y-107800000D02*
X160397475Y-107797882D01*
D40*
X156941421Y-94975000D02*
X158700000Y-94975000D01*
D38*
X157757695Y-109860000D02*
G75*
G02*
X157130001Y-109599999I5J887700D01*
G01*
D40*
X160850000Y-112800000D02*
G75*
G02*
X161205731Y-112652664I355700J-355700D01*
G01*
X156700000Y-94875000D02*
G75*
G02*
X156076904Y-94616908I0J881200D01*
G01*
D38*
X158150000Y-109739290D02*
G75*
G02*
X158100003Y-109860003I-170700J-10D01*
G01*
X157600000Y-88625000D02*
G75*
G03*
X158577756Y-89030018I977800J977800D01*
G01*
X155000000Y-112200000D02*
G75*
G03*
X152165588Y-113384396I25300J-4044300D01*
G01*
X153430762Y-116750000D02*
G75*
G03*
X155000011Y-116100011I38J2219200D01*
G01*
X160000000Y-107700000D02*
G75*
G02*
X159886027Y-107586045I168000J282000D01*
G01*
D40*
X155482512Y-90587488D02*
G75*
G02*
X156804264Y-90039963I1321788J-1321712D01*
G01*
D38*
X159450000Y-108069238D02*
G75*
G03*
X158800011Y-106499989I-2219200J38D01*
G01*
X151420000Y-115937158D02*
G75*
G03*
X151619987Y-116420013I682800J-42D01*
G01*
X155233257Y-108137385D02*
G75*
G02*
X154642843Y-107892791I43J834985D01*
G01*
D39*
X158869645Y-101025000D02*
G75*
G03*
X158929987Y-100999987I-45J85400D01*
G01*
D38*
X153320000Y-117400000D02*
G75*
G03*
X153968700Y-117131299I0J917400D01*
G01*
X159977488Y-89277488D02*
G75*
G03*
X159600088Y-89399943I-205188J-10412D01*
G01*
D39*
X155900000Y-99525000D02*
G75*
G02*
X156924258Y-99949270I0J-1448500D01*
G01*
D44*
X160850000Y-113694670D02*
G75*
G02*
X160399977Y-114499948I-760600J-103330D01*
G01*
D38*
X155025000Y-112200000D02*
G75*
G03*
X155000000Y-112200000I-12500J-3980959D01*
G01*
D40*
X162958577Y-89400000D02*
G75*
G03*
X163000015Y-89382857I23J58600D01*
G01*
D38*
X159118579Y-109860000D02*
G75*
G03*
X159360006Y-109760006I21J341400D01*
G01*
D40*
X158896325Y-90040000D02*
G75*
G03*
X160199993Y-89499993I-25J1843700D01*
G01*
D38*
X151620000Y-116420000D02*
G75*
G03*
X152416690Y-116750004I796700J796700D01*
G01*
D40*
X155457777Y-93994580D02*
G75*
G02*
X154830016Y-92478993I1515623J1515580D01*
G01*
D44*
X157362500Y-116100000D02*
G75*
G02*
X158328185Y-115699994I965700J-965700D01*
G01*
D40*
X163200000Y-88900000D02*
G75*
G03*
X163000018Y-89382842I482800J-482800D01*
G01*
D38*
X153320000Y-114800000D02*
G75*
G02*
X153968700Y-115068701I0J-917400D01*
G01*
D39*
X159290000Y-98050000D02*
G75*
G02*
X161704213Y-97050006I2414200J-2414200D01*
G01*
X160200000Y-89500000D02*
G75*
G03*
X160626786Y-89323233I0J603600D01*
G01*
D38*
X155903346Y-108373346D02*
G75*
G03*
X155340000Y-108140003I-563346J-563354D01*
G01*
D44*
X160157036Y-115700000D02*
G75*
G02*
X161339990Y-116190010I-36J-1673000D01*
G01*
D39*
X161175000Y-88470945D02*
G75*
G02*
X160959987Y-88989987I-734100J45D01*
G01*
D38*
X160397475Y-107797882D02*
G75*
G02*
X159999995Y-107700011I137225J1413382D01*
G01*
D44*
X161356281Y-116206281D02*
G75*
G02*
X161975011Y-117700000I-1493681J-1493719D01*
G01*
D39*
X158930000Y-98919116D02*
G75*
G02*
X159289995Y-98049995I1229100J16D01*
G01*
D38*
X151998995Y-113551005D02*
G75*
G03*
X151420012Y-114948822I1397805J-1397795D01*
G01*
D44*
X160475000Y-114932367D02*
G75*
G02*
X160157053Y-115700017I-1085600J-33D01*
G01*
D38*
X158150000Y-108069238D02*
G75*
G02*
X158799989Y-106499989I2219200J38D01*
G01*
D39*
X158825000Y-104077145D02*
G75*
G03*
X158929964Y-103823653I-253500J253445D01*
G01*
D40*
X156700000Y-94875000D02*
G75*
G03*
X156941421Y-94974991I241400J241400D01*
G01*
D38*
X159600000Y-89400000D02*
G75*
G03*
X159380031Y-89030040I-85900J199300D01*
G01*
X160369238Y-107150000D02*
G75*
G02*
X158799989Y-106500011I-38J2219200D01*
G01*
D44*
X160400000Y-114500000D02*
G75*
G03*
X160475012Y-114599984I231700J95700D01*
G01*
D40*
X154830000Y-92010000D02*
G75*
G02*
X155374481Y-90695537I1858900J0D01*
G01*
D38*
X159360000Y-109760000D02*
G75*
G03*
X159450009Y-109542721I-217300J217300D01*
G01*
D40*
%TO.N,-15V*%
X162113604Y-85500000D02*
X160075000Y-85500000D01*
X164924178Y-86664178D02*
X165190000Y-86930000D01*
D39*
X159225000Y-87350000D02*
X159225000Y-86659055D01*
D40*
X166500000Y-90092619D02*
X166500000Y-91100000D01*
X163200000Y-85950000D02*
G75*
G02*
X164924187Y-86664169I0J-2438400D01*
G01*
X165190000Y-86930000D02*
G75*
G02*
X166499992Y-90092619I-3162600J-3162600D01*
G01*
X163200000Y-85950000D02*
G75*
G03*
X162113604Y-85499998I-1086400J-1086400D01*
G01*
D39*
X159225000Y-86659055D02*
G75*
G02*
X159440013Y-86140013I734100J-45D01*
G01*
%TO.N,+15V*%
X161010000Y-104290000D02*
X161015649Y-104295649D01*
D40*
X161015649Y-104295649D02*
X161349548Y-103961750D01*
X163811633Y-102858981D02*
X166752651Y-105800000D01*
D39*
X160100000Y-104137500D02*
X160641833Y-104137500D01*
D40*
X162505811Y-102150000D02*
X162100000Y-102150000D01*
D39*
X161162500Y-104650178D02*
X161162500Y-105200000D01*
D40*
X161349548Y-103961750D02*
G75*
G03*
X162100000Y-102150000I-1811748J1811750D01*
G01*
D43*
X166645699Y-105544301D02*
G75*
G02*
X166752651Y-105500021I106901J-106899D01*
G01*
D39*
X160641833Y-104137500D02*
G75*
G02*
X161009991Y-104290009I-33J-520700D01*
G01*
D40*
X162100000Y-102150000D02*
G75*
G02*
X163811630Y-102858984I0J-2420600D01*
G01*
D39*
X161015649Y-104295649D02*
G75*
G02*
X161162509Y-104650178I-354549J-354551D01*
G01*
D40*
%TO.N,+5V*%
X158032548Y-118630000D02*
X158550000Y-118630000D01*
D39*
X158703266Y-118476733D02*
X158550000Y-118630000D01*
X157362500Y-118062544D02*
X157362500Y-117400000D01*
X156300000Y-118462500D02*
X156891833Y-118462500D01*
X156891833Y-118462500D02*
G75*
G03*
X157259991Y-118309991I-33J520700D01*
G01*
X159025000Y-117700000D02*
G75*
G02*
X158703273Y-118476740I-1098500J0D01*
G01*
D40*
X157260000Y-118310000D02*
G75*
G03*
X158032548Y-118629980I772500J772500D01*
G01*
D39*
X157260000Y-118310000D02*
G75*
G03*
X157362518Y-118062544I-247500J247500D01*
G01*
X160239411Y-119450000D02*
G75*
G02*
X159659997Y-119210003I-11J819400D01*
G01*
X164400000Y-117888457D02*
G75*
G02*
X164010013Y-118830013I-1331500J-43D01*
G01*
X159643719Y-119193719D02*
G75*
G02*
X159024989Y-117700000I1493681J1493719D01*
G01*
X163249100Y-119416708D02*
X163081720Y-119450000D01*
X164010000Y-118830000D02*
X163691127Y-119148873D01*
X159660000Y-119210000D02*
X159643719Y-119193719D01*
X163615516Y-119220863D02*
X163441952Y-119336829D01*
X163691127Y-119148873D02*
X163615516Y-119220863D01*
X163441952Y-119336829D02*
X163249100Y-119416708D01*
X163081720Y-119450000D02*
X162050000Y-119450000D01*
X162050000Y-119450000D02*
X160239411Y-119450000D01*
X164400000Y-115852651D02*
X164400000Y-117888457D01*
D41*
%TO.N,/5V Supply/5V_SENSE*%
X155000000Y-118462500D02*
X155000000Y-119077868D01*
X155000000Y-119077868D02*
G75*
G03*
X155149991Y-119440009I512100J-32D01*
G01*
%TD*%
%TA.AperFunction,Conductor*%
%TO.N,GND*%
G36*
X155579765Y-104133516D02*
G01*
X155606983Y-104162104D01*
X155631162Y-104207340D01*
X155631163Y-104207342D01*
X155701428Y-104312500D01*
X155797998Y-104457028D01*
X155869579Y-104544249D01*
X155970200Y-104666856D01*
X155986997Y-104713801D01*
X155986997Y-104732355D01*
X155987000Y-104732400D01*
X155987000Y-104760715D01*
X155965326Y-104813041D01*
X155942892Y-104828409D01*
X155852891Y-104868149D01*
X155846919Y-104870786D01*
X155770786Y-104946919D01*
X155727292Y-105045421D01*
X155727292Y-105045423D01*
X155724500Y-105069495D01*
X155724500Y-105330503D01*
X155727292Y-105354575D01*
X155727293Y-105354578D01*
X155727293Y-105354580D01*
X155731742Y-105364657D01*
X155745410Y-105395610D01*
X155746718Y-105452232D01*
X155707605Y-105493195D01*
X155677715Y-105499500D01*
X155469623Y-105499500D01*
X155417297Y-105477826D01*
X155399776Y-105449940D01*
X155377794Y-105387119D01*
X155377792Y-105387116D01*
X155297153Y-105277853D01*
X155297146Y-105277846D01*
X155187883Y-105197207D01*
X155187881Y-105197206D01*
X155059704Y-105152355D01*
X155059705Y-105152355D01*
X155059700Y-105152354D01*
X155059699Y-105152354D01*
X155029266Y-105149500D01*
X153970734Y-105149500D01*
X153969479Y-105149500D01*
X153917153Y-105127826D01*
X153895479Y-105075500D01*
X153917153Y-105023175D01*
X153975031Y-104965296D01*
X153977640Y-104962810D01*
X154199231Y-104761973D01*
X154204840Y-104757370D01*
X154443578Y-104580311D01*
X154449606Y-104576284D01*
X154704553Y-104423477D01*
X154710921Y-104420073D01*
X154979607Y-104292997D01*
X154986316Y-104290218D01*
X155266168Y-104190088D01*
X155273082Y-104187989D01*
X155523744Y-104125204D01*
X155579765Y-104133516D01*
G37*
%TD.AperFunction*%
%TA.AperFunction,Conductor*%
G36*
X163218867Y-103268864D02*
G01*
X163314536Y-103352765D01*
X163318070Y-103356075D01*
X165730477Y-105768482D01*
X165752151Y-105820808D01*
X165752151Y-106301514D01*
X165730477Y-106353840D01*
X165644212Y-106440105D01*
X165639945Y-106444049D01*
X165529531Y-106538351D01*
X165520136Y-106545177D01*
X165398811Y-106619523D01*
X165388464Y-106624795D01*
X165257001Y-106679246D01*
X165245957Y-106682834D01*
X165107595Y-106716048D01*
X165096126Y-106717864D01*
X164951141Y-106729271D01*
X164945336Y-106729499D01*
X164898357Y-106729498D01*
X164892955Y-106729498D01*
X164892954Y-106729498D01*
X164887004Y-106729498D01*
X164886980Y-106729500D01*
X164203064Y-106729500D01*
X164150738Y-106707826D01*
X164129064Y-106655500D01*
X164144011Y-106610905D01*
X164277280Y-106434428D01*
X164277282Y-106434426D01*
X164376411Y-106235346D01*
X164376413Y-106235342D01*
X164437271Y-106021445D01*
X164437273Y-106021432D01*
X164457792Y-105800003D01*
X164457792Y-105799996D01*
X164437273Y-105578567D01*
X164437271Y-105578554D01*
X164376413Y-105364657D01*
X164376411Y-105364653D01*
X164277282Y-105165573D01*
X164277280Y-105165570D01*
X164231088Y-105104403D01*
X163639021Y-105696470D01*
X163625392Y-105645606D01*
X163572731Y-105554394D01*
X163498257Y-105479920D01*
X163407045Y-105427259D01*
X163356176Y-105413629D01*
X163949649Y-104820157D01*
X163789833Y-104721205D01*
X163789823Y-104721200D01*
X163582456Y-104640865D01*
X163363850Y-104600000D01*
X163141451Y-104600000D01*
X162922845Y-104640865D01*
X162715478Y-104721200D01*
X162715468Y-104721205D01*
X162555651Y-104820157D01*
X163149123Y-105413629D01*
X163098257Y-105427259D01*
X163007045Y-105479920D01*
X162932571Y-105554394D01*
X162879910Y-105645606D01*
X162866280Y-105696472D01*
X162274211Y-105104403D01*
X162228019Y-105165574D01*
X162228018Y-105165577D01*
X162128890Y-105364653D01*
X162128888Y-105364657D01*
X162068030Y-105578554D01*
X162068028Y-105578567D01*
X162047510Y-105799996D01*
X162047510Y-105800003D01*
X162068028Y-106021432D01*
X162068031Y-106021448D01*
X162090649Y-106100945D01*
X162084122Y-106157205D01*
X162039724Y-106192370D01*
X161996605Y-106191573D01*
X161958410Y-106179161D01*
X161958407Y-106179160D01*
X161958406Y-106179160D01*
X161901206Y-106170097D01*
X161852918Y-106140503D01*
X161839699Y-106085430D01*
X161845093Y-106067119D01*
X161861255Y-106030516D01*
X161872707Y-106004580D01*
X161875500Y-105980505D01*
X161875499Y-105719496D01*
X161872707Y-105695420D01*
X161829215Y-105596921D01*
X161809620Y-105577326D01*
X161787946Y-105525000D01*
X161809620Y-105472674D01*
X161829215Y-105453079D01*
X161872707Y-105354580D01*
X161875500Y-105330505D01*
X161875499Y-105069496D01*
X161872707Y-105045420D01*
X161829215Y-104946921D01*
X161753079Y-104870785D01*
X161657108Y-104828409D01*
X161617997Y-104787446D01*
X161613000Y-104760715D01*
X161613000Y-104719606D01*
X161634674Y-104667280D01*
X161807673Y-104494281D01*
X161844877Y-104457078D01*
X161851615Y-104450340D01*
X161958216Y-104343739D01*
X162161585Y-104095933D01*
X162339686Y-103829387D01*
X162490803Y-103546667D01*
X162594558Y-103296180D01*
X162634606Y-103256133D01*
X162662925Y-103250500D01*
X163170075Y-103250500D01*
X163218867Y-103268864D01*
G37*
%TD.AperFunction*%
%TA.AperFunction,Conductor*%
G36*
X148277826Y-80322174D02*
G01*
X148299500Y-80374500D01*
X148299500Y-83439564D01*
X148319977Y-83515985D01*
X148319979Y-83515990D01*
X148339684Y-83550119D01*
X148359540Y-83584511D01*
X148415489Y-83640460D01*
X148484011Y-83680021D01*
X148484012Y-83680021D01*
X148484014Y-83680022D01*
X148522224Y-83690260D01*
X148560435Y-83700499D01*
X148560436Y-83700500D01*
X148560438Y-83700500D01*
X151039564Y-83700500D01*
X151039564Y-83700499D01*
X151115989Y-83680021D01*
X151184511Y-83640460D01*
X151240460Y-83584511D01*
X151280021Y-83515989D01*
X151300499Y-83439564D01*
X151300500Y-83439564D01*
X151300500Y-80374500D01*
X151322174Y-80322174D01*
X151374500Y-80300500D01*
X166445675Y-80300500D01*
X166498001Y-80322174D01*
X166517978Y-80364077D01*
X166518870Y-80363936D01*
X166576483Y-80727693D01*
X166671299Y-81081552D01*
X166788578Y-81387072D01*
X166802591Y-81423578D01*
X166968911Y-81750000D01*
X167168441Y-82057248D01*
X167398993Y-82341957D01*
X167658043Y-82601007D01*
X167942752Y-82831559D01*
X168250000Y-83031089D01*
X168576422Y-83197409D01*
X168918441Y-83328698D01*
X168918443Y-83328698D01*
X168918447Y-83328700D01*
X169047737Y-83363343D01*
X169272309Y-83423517D01*
X169634150Y-83480827D01*
X169634151Y-83480827D01*
X169636064Y-83481130D01*
X169635896Y-83482186D01*
X169682992Y-83507735D01*
X169699500Y-83554325D01*
X169699500Y-92425500D01*
X169677826Y-92477826D01*
X169625500Y-92499500D01*
X166560436Y-92499500D01*
X166484014Y-92519977D01*
X166484009Y-92519979D01*
X166415488Y-92559540D01*
X166359540Y-92615488D01*
X166319979Y-92684009D01*
X166319977Y-92684014D01*
X166299500Y-92760435D01*
X166299500Y-95239564D01*
X166319977Y-95315985D01*
X166319979Y-95315990D01*
X166334107Y-95340460D01*
X166359540Y-95384511D01*
X166415489Y-95440460D01*
X166484011Y-95480021D01*
X166484012Y-95480021D01*
X166484014Y-95480022D01*
X166522224Y-95490260D01*
X166560435Y-95500499D01*
X166560436Y-95500500D01*
X169625500Y-95500500D01*
X169677826Y-95522174D01*
X169699500Y-95574500D01*
X169699500Y-107225500D01*
X169677826Y-107277826D01*
X169625500Y-107299500D01*
X169219901Y-107299500D01*
X169167575Y-107277826D01*
X169145901Y-107225500D01*
X169167575Y-107173174D01*
X169186302Y-107159567D01*
X169205751Y-107149658D01*
X169299658Y-107055751D01*
X169359951Y-106937420D01*
X169375500Y-106839246D01*
X169375500Y-106379361D01*
X169375808Y-106375452D01*
X169375808Y-106367739D01*
X169375500Y-106363824D01*
X169375500Y-106335753D01*
X169370077Y-106301514D01*
X169359951Y-106237580D01*
X169318406Y-106156043D01*
X169299659Y-106119250D01*
X169205751Y-106025342D01*
X169087421Y-105965049D01*
X169084515Y-105964105D01*
X169082734Y-105963367D01*
X169078132Y-105961872D01*
X168945004Y-105940787D01*
X168895744Y-105948589D01*
X168884168Y-105949500D01*
X168410753Y-105949500D01*
X168312579Y-105965048D01*
X168312579Y-105965049D01*
X168194250Y-106025340D01*
X168100340Y-106119250D01*
X168040049Y-106237579D01*
X168040048Y-106237579D01*
X168024500Y-106335753D01*
X168024500Y-106753085D01*
X168023589Y-106764661D01*
X168019554Y-106790137D01*
X168023589Y-106815613D01*
X168024500Y-106827189D01*
X168024500Y-106839246D01*
X168040049Y-106937420D01*
X168100340Y-107055749D01*
X168100342Y-107055751D01*
X168194249Y-107149658D01*
X168213695Y-107159566D01*
X168250477Y-107202632D01*
X168246034Y-107259095D01*
X168202967Y-107295878D01*
X168180099Y-107299500D01*
X166560436Y-107299500D01*
X166484014Y-107319977D01*
X166484009Y-107319979D01*
X166415488Y-107359540D01*
X166359540Y-107415488D01*
X166319979Y-107484009D01*
X166319977Y-107484014D01*
X166299500Y-107560435D01*
X166299500Y-110039564D01*
X166319977Y-110115985D01*
X166319979Y-110115990D01*
X166348075Y-110164653D01*
X166359540Y-110184511D01*
X166415489Y-110240460D01*
X166484011Y-110280021D01*
X166484012Y-110280021D01*
X166484014Y-110280022D01*
X166522224Y-110290260D01*
X166560435Y-110300499D01*
X166560436Y-110300500D01*
X169625500Y-110300500D01*
X169677826Y-110322174D01*
X169699500Y-110374500D01*
X169699500Y-116445674D01*
X169677826Y-116498000D01*
X169635926Y-116518001D01*
X169636064Y-116518870D01*
X169634151Y-116519172D01*
X169634150Y-116519173D01*
X169549714Y-116532546D01*
X169272306Y-116576483D01*
X168918447Y-116671299D01*
X168576428Y-116802588D01*
X168250001Y-116968910D01*
X167942750Y-117168442D01*
X167658040Y-117398995D01*
X167398995Y-117658040D01*
X167168442Y-117942750D01*
X166968910Y-118250001D01*
X166802588Y-118576428D01*
X166671299Y-118918447D01*
X166576483Y-119272306D01*
X166539822Y-119503775D01*
X166523043Y-119609719D01*
X166518870Y-119636064D01*
X166517813Y-119635896D01*
X166492265Y-119682992D01*
X166445675Y-119699500D01*
X163954011Y-119699500D01*
X163901685Y-119677826D01*
X163880011Y-119625500D01*
X163901685Y-119573174D01*
X163912895Y-119563974D01*
X163915106Y-119562497D01*
X163938656Y-119535644D01*
X163943249Y-119530860D01*
X163956489Y-119518253D01*
X163964089Y-119512571D01*
X163963892Y-119512315D01*
X163967738Y-119509364D01*
X163967738Y-119509363D01*
X163967741Y-119509362D01*
X164005168Y-119471933D01*
X164006343Y-119470786D01*
X164044724Y-119434245D01*
X164044727Y-119434239D01*
X164044729Y-119434238D01*
X164047774Y-119430466D01*
X164048024Y-119430667D01*
X164053884Y-119423217D01*
X164306865Y-119170238D01*
X164306907Y-119170220D01*
X164328563Y-119148563D01*
X164328564Y-119148564D01*
X164411157Y-119065972D01*
X164553366Y-118880639D01*
X164670167Y-118678328D01*
X164759561Y-118462502D01*
X164820018Y-118236855D01*
X164850504Y-118005246D01*
X164850500Y-117888442D01*
X164850500Y-117876985D01*
X164850500Y-117335753D01*
X165524500Y-117335753D01*
X165524500Y-117839246D01*
X165540049Y-117937420D01*
X165600340Y-118055749D01*
X165694250Y-118149659D01*
X165732594Y-118169196D01*
X165812579Y-118209950D01*
X165812579Y-118209951D01*
X165910753Y-118225500D01*
X165910754Y-118225500D01*
X166489247Y-118225500D01*
X166587420Y-118209951D01*
X166705751Y-118149658D01*
X166799658Y-118055751D01*
X166859951Y-117937420D01*
X166875500Y-117839246D01*
X166875500Y-117419312D01*
X166876411Y-117407736D01*
X166880804Y-117379999D01*
X166876411Y-117352262D01*
X166875500Y-117340686D01*
X166875500Y-117335753D01*
X166873037Y-117320204D01*
X166859951Y-117237580D01*
X166799658Y-117119249D01*
X166705751Y-117025342D01*
X166705749Y-117025340D01*
X166587420Y-116965049D01*
X166587420Y-116965048D01*
X166489247Y-116949500D01*
X166489246Y-116949500D01*
X166457745Y-116949500D01*
X166453879Y-116949196D01*
X166446121Y-116949196D01*
X166442255Y-116949500D01*
X165910753Y-116949500D01*
X165812579Y-116965048D01*
X165812579Y-116965049D01*
X165694250Y-117025340D01*
X165600340Y-117119250D01*
X165540049Y-117237579D01*
X165540048Y-117237579D01*
X165524500Y-117335753D01*
X164850500Y-117335753D01*
X164850500Y-117227151D01*
X164872174Y-117174825D01*
X164924500Y-117153151D01*
X165219746Y-117153151D01*
X165219748Y-117153151D01*
X165278231Y-117141518D01*
X165344552Y-117097203D01*
X165388867Y-117030882D01*
X165400500Y-116972399D01*
X165400500Y-116537000D01*
X165422174Y-116484674D01*
X165474500Y-116463000D01*
X165551939Y-116463000D01*
X165604265Y-116484674D01*
X165694250Y-116574659D01*
X165753414Y-116604804D01*
X165812579Y-116634950D01*
X165812579Y-116634951D01*
X165910753Y-116650500D01*
X165910754Y-116650500D01*
X166489247Y-116650500D01*
X166587420Y-116634951D01*
X166705751Y-116574658D01*
X166799658Y-116480751D01*
X166859951Y-116362420D01*
X166875500Y-116264246D01*
X166875500Y-115760754D01*
X166859951Y-115662580D01*
X166829804Y-115603414D01*
X166799659Y-115544250D01*
X166705749Y-115450340D01*
X166587420Y-115390049D01*
X166587420Y-115390048D01*
X166489247Y-115374500D01*
X166489246Y-115374500D01*
X165910754Y-115374500D01*
X165910753Y-115374500D01*
X165812579Y-115390048D01*
X165812579Y-115390049D01*
X165694250Y-115450340D01*
X165694249Y-115450341D01*
X165604265Y-115540326D01*
X165551939Y-115562000D01*
X165474500Y-115562000D01*
X165422174Y-115540326D01*
X165400500Y-115488000D01*
X165400500Y-115332904D01*
X165397833Y-115319495D01*
X165388867Y-115274420D01*
X165344552Y-115208099D01*
X165322343Y-115193259D01*
X165278232Y-115163784D01*
X165278233Y-115163784D01*
X165248989Y-115157967D01*
X165219748Y-115152151D01*
X163580252Y-115152151D01*
X163551010Y-115157967D01*
X163521767Y-115163784D01*
X163455449Y-115208098D01*
X163455447Y-115208100D01*
X163411133Y-115274418D01*
X163410918Y-115275500D01*
X163402483Y-115317909D01*
X163399500Y-115332904D01*
X163399500Y-116972397D01*
X163411133Y-117030883D01*
X163423332Y-117049139D01*
X163455448Y-117097203D01*
X163488442Y-117119249D01*
X163521767Y-117141517D01*
X163521768Y-117141517D01*
X163521769Y-117141518D01*
X163580252Y-117153151D01*
X163875500Y-117153151D01*
X163927826Y-117174825D01*
X163949500Y-117227151D01*
X163949500Y-117824609D01*
X163949498Y-117824643D01*
X163949499Y-117885566D01*
X163949271Y-117891371D01*
X163939113Y-118020488D01*
X163937297Y-118031957D01*
X163907746Y-118155061D01*
X163904157Y-118166106D01*
X163855708Y-118283077D01*
X163850437Y-118293424D01*
X163784289Y-118401369D01*
X163777463Y-118410763D01*
X163693496Y-118509076D01*
X163689555Y-118513340D01*
X163671933Y-118530964D01*
X163671930Y-118530967D01*
X163377125Y-118825770D01*
X163375826Y-118827037D01*
X163337589Y-118863443D01*
X163327677Y-118871376D01*
X163234621Y-118933550D01*
X163221833Y-118940385D01*
X163181459Y-118957109D01*
X163124433Y-118980729D01*
X163110552Y-118984939D01*
X163057152Y-118995561D01*
X163044499Y-118998078D01*
X163030064Y-118999500D01*
X163017476Y-118999500D01*
X162965150Y-118977826D01*
X162943476Y-118925500D01*
X162946413Y-118904859D01*
X162947099Y-118902496D01*
X162950000Y-118865641D01*
X162950000Y-117900000D01*
X161000000Y-117900000D01*
X161000000Y-118865641D01*
X161002900Y-118902496D01*
X161003587Y-118904859D01*
X161003490Y-118905730D01*
X161003580Y-118906219D01*
X161003433Y-118906245D01*
X160997368Y-118961154D01*
X160953165Y-118996563D01*
X160932524Y-118999500D01*
X160244254Y-118999500D01*
X160234596Y-118998867D01*
X160153583Y-118988202D01*
X160134925Y-118983203D01*
X160063947Y-118953804D01*
X160047223Y-118944148D01*
X159982429Y-118894430D01*
X159975150Y-118888046D01*
X159971803Y-118884699D01*
X159963979Y-118876875D01*
X159960669Y-118873341D01*
X159941489Y-118851471D01*
X159822122Y-118715362D01*
X159816233Y-118707686D01*
X159812967Y-118702798D01*
X159800500Y-118661692D01*
X159800500Y-116545740D01*
X159800500Y-116545734D01*
X159799433Y-116534358D01*
X161000000Y-116534358D01*
X161000000Y-117500000D01*
X161775000Y-117500000D01*
X162175000Y-117500000D01*
X162950000Y-117500000D01*
X162950000Y-116534358D01*
X162947099Y-116497506D01*
X162901281Y-116339800D01*
X162817682Y-116198443D01*
X162701556Y-116082317D01*
X162560199Y-115998718D01*
X162402491Y-115952900D01*
X162402494Y-115952900D01*
X162365641Y-115950000D01*
X162175000Y-115950000D01*
X162175000Y-117500000D01*
X161775000Y-117500000D01*
X161775000Y-115950000D01*
X161584359Y-115950000D01*
X161547506Y-115952900D01*
X161389800Y-115998718D01*
X161248443Y-116082317D01*
X161132317Y-116198443D01*
X161048718Y-116339800D01*
X161002900Y-116497506D01*
X161000000Y-116534358D01*
X159799433Y-116534358D01*
X159797646Y-116515301D01*
X159789565Y-116492208D01*
X159752793Y-116387118D01*
X159752792Y-116387116D01*
X159672153Y-116277853D01*
X159672146Y-116277846D01*
X159562883Y-116197207D01*
X159562881Y-116197206D01*
X159434704Y-116152355D01*
X159434705Y-116152355D01*
X159434700Y-116152354D01*
X159434699Y-116152354D01*
X159404266Y-116149500D01*
X158645734Y-116149500D01*
X158615301Y-116152354D01*
X158615299Y-116152354D01*
X158615295Y-116152355D01*
X158487118Y-116197206D01*
X158487116Y-116197207D01*
X158373387Y-116281143D01*
X158372552Y-116280012D01*
X158325571Y-116299466D01*
X158273248Y-116277785D01*
X158270610Y-116275000D01*
X157537500Y-116275000D01*
X157537500Y-116851000D01*
X157515826Y-116903326D01*
X157463500Y-116925000D01*
X156454394Y-116925000D01*
X156456242Y-116942193D01*
X156505230Y-117073533D01*
X156589241Y-117185759D01*
X156589242Y-117185760D01*
X156619845Y-117208668D01*
X156648747Y-117257376D01*
X156649500Y-117267909D01*
X156649500Y-117530503D01*
X156652292Y-117554575D01*
X156652293Y-117554580D01*
X156695785Y-117653079D01*
X156758699Y-117715993D01*
X156780373Y-117768319D01*
X156758699Y-117820645D01*
X156720645Y-117858699D01*
X156668319Y-117880373D01*
X156615993Y-117858699D01*
X156553080Y-117795786D01*
X156553079Y-117795785D01*
X156454580Y-117752293D01*
X156454579Y-117752292D01*
X156454577Y-117752292D01*
X156434140Y-117749921D01*
X156430505Y-117749500D01*
X156430504Y-117749500D01*
X156169496Y-117749500D01*
X156145424Y-117752292D01*
X156145419Y-117752293D01*
X156046920Y-117795785D01*
X156027326Y-117815380D01*
X155975000Y-117837054D01*
X155922674Y-117815380D01*
X155903080Y-117795786D01*
X155903079Y-117795785D01*
X155804580Y-117752293D01*
X155804579Y-117752292D01*
X155804577Y-117752292D01*
X155784140Y-117749921D01*
X155780505Y-117749500D01*
X155780504Y-117749500D01*
X155519496Y-117749500D01*
X155495424Y-117752292D01*
X155495419Y-117752293D01*
X155396920Y-117795785D01*
X155377326Y-117815380D01*
X155325000Y-117837054D01*
X155272674Y-117815380D01*
X155253080Y-117795786D01*
X155253079Y-117795785D01*
X155154580Y-117752293D01*
X155154579Y-117752292D01*
X155154577Y-117752292D01*
X155134140Y-117749921D01*
X155130505Y-117749500D01*
X155130504Y-117749500D01*
X154869496Y-117749500D01*
X154845424Y-117752292D01*
X154845419Y-117752293D01*
X154746920Y-117795785D01*
X154727326Y-117815380D01*
X154675000Y-117837054D01*
X154622674Y-117815380D01*
X154603080Y-117795786D01*
X154603079Y-117795785D01*
X154504580Y-117752293D01*
X154504579Y-117752292D01*
X154504577Y-117752292D01*
X154484140Y-117749921D01*
X154480505Y-117749500D01*
X154480504Y-117749500D01*
X154219496Y-117749500D01*
X154195424Y-117752292D01*
X154195419Y-117752293D01*
X154096920Y-117795785D01*
X154077326Y-117815380D01*
X154025000Y-117837054D01*
X153972674Y-117815380D01*
X153953080Y-117795786D01*
X153953079Y-117795785D01*
X153854580Y-117752293D01*
X153854579Y-117752292D01*
X153854577Y-117752292D01*
X153830505Y-117749500D01*
X153591664Y-117749500D01*
X153539338Y-117727826D01*
X153517664Y-117675500D01*
X153522330Y-117649639D01*
X153543757Y-117592191D01*
X153545606Y-117575000D01*
X152812500Y-117575000D01*
X152812500Y-117975000D01*
X153109132Y-117975000D01*
X153167189Y-117968758D01*
X153167192Y-117968757D01*
X153224639Y-117947330D01*
X153281240Y-117949351D01*
X153319834Y-117990803D01*
X153324500Y-118016664D01*
X153324500Y-118930503D01*
X153327203Y-118953807D01*
X153327293Y-118954580D01*
X153370785Y-119053079D01*
X153446921Y-119129215D01*
X153545420Y-119172707D01*
X153569495Y-119175500D01*
X153830504Y-119175499D01*
X153854580Y-119172707D01*
X153953079Y-119129215D01*
X153972674Y-119109620D01*
X154025000Y-119087946D01*
X154077326Y-119109620D01*
X154096921Y-119129215D01*
X154195420Y-119172707D01*
X154219495Y-119175500D01*
X154480504Y-119175499D01*
X154504580Y-119172707D01*
X154603079Y-119129215D01*
X154603080Y-119129213D01*
X154603399Y-119129073D01*
X154660021Y-119127764D01*
X154700984Y-119166876D01*
X154706379Y-119185194D01*
X154719513Y-119268144D01*
X154732109Y-119306915D01*
X154734819Y-119341356D01*
X154719196Y-119439999D01*
X154740280Y-119573123D01*
X154740280Y-119573124D01*
X154740281Y-119573126D01*
X154749850Y-119591906D01*
X154754293Y-119648368D01*
X154717510Y-119691435D01*
X154683915Y-119699500D01*
X150374500Y-119699500D01*
X150322174Y-119677826D01*
X150300500Y-119625500D01*
X150300500Y-117575000D01*
X151729394Y-117575000D01*
X151731242Y-117592193D01*
X151780230Y-117723533D01*
X151864241Y-117835758D01*
X151976466Y-117919769D01*
X152107804Y-117968756D01*
X152107810Y-117968758D01*
X152165868Y-117975000D01*
X152462500Y-117975000D01*
X152462500Y-117575000D01*
X151729394Y-117575000D01*
X150300500Y-117575000D01*
X150300500Y-117224999D01*
X151729394Y-117224999D01*
X151729394Y-117225000D01*
X152462500Y-117225000D01*
X152812500Y-117225000D01*
X153545606Y-117225000D01*
X153545605Y-117224999D01*
X153543757Y-117207808D01*
X153503867Y-117100861D01*
X153503867Y-117049139D01*
X153543757Y-116942191D01*
X153545606Y-116925000D01*
X152812500Y-116925000D01*
X152812500Y-117225000D01*
X152462500Y-117225000D01*
X152462500Y-116925000D01*
X151729394Y-116925000D01*
X151731242Y-116942192D01*
X151771132Y-117049139D01*
X151771132Y-117100861D01*
X151731242Y-117207807D01*
X151729394Y-117224999D01*
X150300500Y-117224999D01*
X150300500Y-116574999D01*
X151729394Y-116574999D01*
X151729394Y-116575000D01*
X153545606Y-116575000D01*
X153545605Y-116574999D01*
X156454394Y-116574999D01*
X156454394Y-116575000D01*
X157187500Y-116575000D01*
X157187500Y-116275000D01*
X156454394Y-116275000D01*
X156456242Y-116292192D01*
X156496132Y-116399139D01*
X156496132Y-116450861D01*
X156456242Y-116557807D01*
X156454394Y-116574999D01*
X153545605Y-116574999D01*
X153543757Y-116557806D01*
X153494769Y-116426466D01*
X153410758Y-116314241D01*
X153380153Y-116291330D01*
X153351252Y-116242621D01*
X153350499Y-116232090D01*
X153350499Y-116230513D01*
X153350500Y-116230505D01*
X153350499Y-115969496D01*
X153347707Y-115945420D01*
X153338690Y-115924999D01*
X156454394Y-115924999D01*
X156454394Y-115925000D01*
X157187500Y-115925000D01*
X157537500Y-115925000D01*
X158270606Y-115925000D01*
X158270605Y-115924999D01*
X158268757Y-115907808D01*
X158228867Y-115800861D01*
X158228867Y-115749139D01*
X158268757Y-115642191D01*
X158270606Y-115625000D01*
X157537500Y-115625000D01*
X157537500Y-115925000D01*
X157187500Y-115925000D01*
X157187500Y-115625000D01*
X156454394Y-115625000D01*
X156456242Y-115642192D01*
X156496132Y-115749139D01*
X156496132Y-115800861D01*
X156456242Y-115907807D01*
X156454394Y-115924999D01*
X153338690Y-115924999D01*
X153304215Y-115846921D01*
X153284620Y-115827326D01*
X153262946Y-115775000D01*
X153284620Y-115722674D01*
X153304215Y-115703079D01*
X153347707Y-115604580D01*
X153350500Y-115580505D01*
X153350499Y-115319496D01*
X153350499Y-115319495D01*
X153350499Y-115317910D01*
X153372173Y-115265584D01*
X153380154Y-115258669D01*
X153410757Y-115235760D01*
X153410758Y-115235759D01*
X153494769Y-115123533D01*
X153543757Y-114992193D01*
X153545606Y-114975000D01*
X151729394Y-114975000D01*
X151731242Y-114992193D01*
X151780230Y-115123533D01*
X151864241Y-115235759D01*
X151864242Y-115235760D01*
X151894845Y-115258668D01*
X151923747Y-115307376D01*
X151924500Y-115317909D01*
X151924500Y-115580503D01*
X151927292Y-115604575D01*
X151927293Y-115604580D01*
X151970785Y-115703079D01*
X151990380Y-115722674D01*
X152012054Y-115775000D01*
X151990380Y-115827326D01*
X151970786Y-115846919D01*
X151927292Y-115945421D01*
X151927292Y-115945423D01*
X151924500Y-115969495D01*
X151924500Y-116232088D01*
X151902826Y-116284414D01*
X151894849Y-116291327D01*
X151864242Y-116314240D01*
X151780230Y-116426466D01*
X151731242Y-116557806D01*
X151729394Y-116574999D01*
X150300500Y-116574999D01*
X150300500Y-116560436D01*
X150300499Y-116560435D01*
X150296561Y-116545740D01*
X150288404Y-116515295D01*
X150280022Y-116484014D01*
X150280020Y-116484009D01*
X150257887Y-116445674D01*
X150240460Y-116415489D01*
X150184511Y-116359540D01*
X150173320Y-116353079D01*
X150115990Y-116319979D01*
X150115985Y-116319977D01*
X150039564Y-116299500D01*
X150039562Y-116299500D01*
X147639562Y-116299500D01*
X147560438Y-116299500D01*
X147560436Y-116299500D01*
X147484014Y-116319977D01*
X147484009Y-116319979D01*
X147415488Y-116359540D01*
X147359540Y-116415488D01*
X147319979Y-116484009D01*
X147319977Y-116484014D01*
X147299500Y-116560435D01*
X147299500Y-119625500D01*
X147277826Y-119677826D01*
X147225500Y-119699500D01*
X136065152Y-119699500D01*
X136012826Y-119677826D01*
X135991152Y-119625500D01*
X136012826Y-119573174D01*
X136031554Y-119559567D01*
X136053220Y-119548528D01*
X136148528Y-119453220D01*
X136209719Y-119333126D01*
X136230804Y-119200000D01*
X136209719Y-119066874D01*
X136209719Y-119066873D01*
X136148528Y-118946780D01*
X136053219Y-118851471D01*
X135933126Y-118790281D01*
X135933126Y-118790280D01*
X135800000Y-118769196D01*
X135794176Y-118769196D01*
X135794176Y-118766951D01*
X135747045Y-118755623D01*
X135717466Y-118707324D01*
X135717469Y-118684192D01*
X135730804Y-118600000D01*
X135709719Y-118466874D01*
X135709719Y-118466873D01*
X135648528Y-118346780D01*
X135553219Y-118251471D01*
X135433126Y-118190281D01*
X135433126Y-118190280D01*
X135300000Y-118169196D01*
X135166873Y-118190280D01*
X135166873Y-118190281D01*
X135046780Y-118251471D01*
X134951471Y-118346780D01*
X134890281Y-118466873D01*
X134890280Y-118466874D01*
X134873089Y-118575420D01*
X134843496Y-118623711D01*
X134788424Y-118636933D01*
X134740133Y-118607340D01*
X134726911Y-118575420D01*
X134709719Y-118466874D01*
X134709718Y-118466873D01*
X134676342Y-118401369D01*
X134648528Y-118346780D01*
X134553220Y-118251472D01*
X134553219Y-118251471D01*
X134433126Y-118190281D01*
X134433126Y-118190280D01*
X134300000Y-118169196D01*
X134166873Y-118190280D01*
X134166873Y-118190281D01*
X134046780Y-118251471D01*
X133951471Y-118346780D01*
X133890281Y-118466873D01*
X133890280Y-118466873D01*
X133869196Y-118600000D01*
X133890280Y-118733126D01*
X133950581Y-118851472D01*
X133951472Y-118853220D01*
X134046780Y-118948528D01*
X134166873Y-119009718D01*
X134166873Y-119009719D01*
X134300000Y-119030804D01*
X134305824Y-119030804D01*
X134305824Y-119033058D01*
X134352919Y-119044350D01*
X134382526Y-119092632D01*
X134382530Y-119115805D01*
X134369196Y-119199998D01*
X134369196Y-119199999D01*
X134390280Y-119333126D01*
X134444736Y-119440000D01*
X134451472Y-119453220D01*
X134546780Y-119548528D01*
X134568444Y-119559566D01*
X134605226Y-119602633D01*
X134600782Y-119659096D01*
X134557715Y-119695878D01*
X134534848Y-119699500D01*
X133554325Y-119699500D01*
X133501999Y-119677826D01*
X133482021Y-119635922D01*
X133481130Y-119636064D01*
X133479457Y-119625500D01*
X133423517Y-119272309D01*
X133381582Y-119115805D01*
X133328700Y-118918447D01*
X133328528Y-118917997D01*
X133197409Y-118576422D01*
X133031089Y-118250000D01*
X132831559Y-117942752D01*
X132601007Y-117658043D01*
X132341957Y-117398993D01*
X132057248Y-117168441D01*
X131750000Y-116968911D01*
X131423578Y-116802591D01*
X131423573Y-116802589D01*
X131423571Y-116802588D01*
X131081552Y-116671299D01*
X130727693Y-116576483D01*
X130461724Y-116534358D01*
X130365850Y-116519173D01*
X130365848Y-116519172D01*
X130363936Y-116518870D01*
X130364099Y-116517839D01*
X130316962Y-116492208D01*
X130300500Y-116445674D01*
X130300500Y-112995734D01*
X131249500Y-112995734D01*
X131249500Y-114204266D01*
X131252354Y-114234699D01*
X131252354Y-114234701D01*
X131252355Y-114234704D01*
X131297206Y-114362881D01*
X131297207Y-114362883D01*
X131377846Y-114472146D01*
X131377853Y-114472153D01*
X131487116Y-114552792D01*
X131487118Y-114552793D01*
X131615295Y-114597644D01*
X131615301Y-114597646D01*
X131645734Y-114600500D01*
X131645741Y-114600500D01*
X134754258Y-114600500D01*
X134754266Y-114600500D01*
X134784699Y-114597646D01*
X134912882Y-114552793D01*
X135022150Y-114472150D01*
X135102793Y-114362882D01*
X135147646Y-114234699D01*
X135149433Y-114215641D01*
X136450000Y-114215641D01*
X136452900Y-114252493D01*
X136498718Y-114410199D01*
X136582317Y-114551556D01*
X136698443Y-114667682D01*
X136839800Y-114751281D01*
X136997508Y-114797099D01*
X136997505Y-114797099D01*
X137034359Y-114800000D01*
X138400000Y-114800000D01*
X138800000Y-114800000D01*
X140165641Y-114800000D01*
X140202493Y-114797099D01*
X140360199Y-114751281D01*
X140501556Y-114667682D01*
X140544239Y-114624999D01*
X151729394Y-114624999D01*
X151729394Y-114625000D01*
X152462500Y-114625000D01*
X152462500Y-114225000D01*
X152165868Y-114225000D01*
X152107810Y-114231241D01*
X152107804Y-114231243D01*
X151976466Y-114280230D01*
X151864241Y-114364241D01*
X151780230Y-114476466D01*
X151731242Y-114607806D01*
X151729394Y-114624999D01*
X140544239Y-114624999D01*
X140617682Y-114551556D01*
X140701281Y-114410199D01*
X140747099Y-114252493D01*
X140750000Y-114215641D01*
X140750000Y-113800000D01*
X138800000Y-113800000D01*
X138800000Y-114800000D01*
X138400000Y-114800000D01*
X138400000Y-113800000D01*
X136450000Y-113800000D01*
X136450000Y-114215641D01*
X135149433Y-114215641D01*
X135150500Y-114204266D01*
X135150500Y-112995734D01*
X135149433Y-112984358D01*
X136450000Y-112984358D01*
X136450000Y-113400000D01*
X138400000Y-113400000D01*
X138800000Y-113400000D01*
X140750000Y-113400000D01*
X140750000Y-112984358D01*
X140747099Y-112947506D01*
X140701281Y-112789800D01*
X140617682Y-112648443D01*
X140501556Y-112532317D01*
X140360199Y-112448718D01*
X140202491Y-112402900D01*
X140202494Y-112402900D01*
X140165641Y-112400000D01*
X138800000Y-112400000D01*
X138800000Y-113400000D01*
X138400000Y-113400000D01*
X138400000Y-112400000D01*
X137034359Y-112400000D01*
X136997506Y-112402900D01*
X136839800Y-112448718D01*
X136698443Y-112532317D01*
X136582317Y-112648443D01*
X136498718Y-112789800D01*
X136452900Y-112947506D01*
X136450000Y-112984358D01*
X135149433Y-112984358D01*
X135147646Y-112965301D01*
X135140339Y-112944420D01*
X135102793Y-112837118D01*
X135102792Y-112837116D01*
X135022153Y-112727853D01*
X135022146Y-112727846D01*
X134912883Y-112647207D01*
X134912881Y-112647206D01*
X134784704Y-112602355D01*
X134784705Y-112602355D01*
X134784700Y-112602354D01*
X134784699Y-112602354D01*
X134754266Y-112599500D01*
X131645734Y-112599500D01*
X131615301Y-112602354D01*
X131615299Y-112602354D01*
X131615295Y-112602355D01*
X131487118Y-112647206D01*
X131487116Y-112647207D01*
X131377853Y-112727846D01*
X131377846Y-112727853D01*
X131297207Y-112837116D01*
X131297206Y-112837118D01*
X131252355Y-112965295D01*
X131252354Y-112965299D01*
X131252354Y-112965301D01*
X131249500Y-112995734D01*
X130300500Y-112995734D01*
X130300500Y-109894966D01*
X148199500Y-109894966D01*
X148199500Y-110105033D01*
X148235975Y-110311898D01*
X148307819Y-110509287D01*
X148307820Y-110509289D01*
X148307821Y-110509291D01*
X148412851Y-110691209D01*
X148547876Y-110852124D01*
X148708791Y-110987149D01*
X148890709Y-111092179D01*
X149088101Y-111164024D01*
X149294970Y-111200500D01*
X149369342Y-111200500D01*
X149369361Y-111200507D01*
X149400000Y-111200506D01*
X149400000Y-111200507D01*
X149500215Y-111200504D01*
X149698175Y-111169139D01*
X149888788Y-111107182D01*
X150067357Y-111016160D01*
X150229482Y-110898315D01*
X150278654Y-110849118D01*
X150278659Y-110849116D01*
X150300327Y-110827435D01*
X150300328Y-110827436D01*
X150374575Y-110753148D01*
X150495014Y-110581044D01*
X150511964Y-110544670D01*
X150583734Y-110390646D01*
X150583737Y-110390640D01*
X150638049Y-110187722D01*
X150656300Y-109978456D01*
X150642042Y-109816014D01*
X150659058Y-109761997D01*
X150663415Y-109757240D01*
X150668492Y-109752163D01*
X150720808Y-109730500D01*
X151059390Y-109730500D01*
X151111716Y-109752174D01*
X151133390Y-109804500D01*
X151118443Y-109849095D01*
X151030483Y-109965571D01*
X151030481Y-109965573D01*
X150931352Y-110164653D01*
X150931350Y-110164657D01*
X150870492Y-110378554D01*
X150870490Y-110378567D01*
X150849972Y-110599996D01*
X150849972Y-110600003D01*
X150870490Y-110821432D01*
X150870492Y-110821445D01*
X150931350Y-111035342D01*
X150931352Y-111035346D01*
X151030481Y-111234426D01*
X151030483Y-111234429D01*
X151076673Y-111295594D01*
X151668742Y-110703525D01*
X151682372Y-110754394D01*
X151735033Y-110845606D01*
X151809507Y-110920080D01*
X151900719Y-110972741D01*
X151951585Y-110986370D01*
X151358113Y-111579841D01*
X151517930Y-111678794D01*
X151517940Y-111678799D01*
X151725307Y-111759134D01*
X151943913Y-111799999D01*
X151943919Y-111800000D01*
X152166307Y-111800000D01*
X152166312Y-111799999D01*
X152384918Y-111759134D01*
X152592285Y-111678799D01*
X152592295Y-111678794D01*
X152752110Y-111579840D01*
X152158640Y-110986370D01*
X152209507Y-110972741D01*
X152300719Y-110920080D01*
X152375193Y-110845606D01*
X152427854Y-110754394D01*
X152441483Y-110703527D01*
X153032939Y-111294983D01*
X153054613Y-111347309D01*
X153054613Y-111419748D01*
X153059919Y-111446423D01*
X153066246Y-111478232D01*
X153095721Y-111522343D01*
X153110561Y-111544552D01*
X153149296Y-111570434D01*
X153176880Y-111588866D01*
X153176881Y-111588866D01*
X153176882Y-111588867D01*
X153235365Y-111600500D01*
X153235367Y-111600500D01*
X154152166Y-111600500D01*
X154204492Y-111622174D01*
X154226166Y-111674500D01*
X154221921Y-111694984D01*
X154223144Y-111695340D01*
X154177789Y-111851448D01*
X154175000Y-111886889D01*
X154175000Y-112000000D01*
X155151000Y-112000000D01*
X155203326Y-112021674D01*
X155225000Y-112074000D01*
X155225000Y-112326000D01*
X155203326Y-112378326D01*
X155151000Y-112400000D01*
X154175000Y-112400000D01*
X154175000Y-112513110D01*
X154177789Y-112548551D01*
X154221845Y-112700191D01*
X154302228Y-112836111D01*
X154364291Y-112898174D01*
X154385965Y-112950500D01*
X154364291Y-113002826D01*
X154311966Y-113024500D01*
X154219496Y-113024500D01*
X154195424Y-113027292D01*
X154195419Y-113027293D01*
X154096920Y-113070785D01*
X154077326Y-113090380D01*
X154025000Y-113112054D01*
X153972674Y-113090380D01*
X153953080Y-113070786D01*
X153953079Y-113070785D01*
X153854580Y-113027293D01*
X153854579Y-113027292D01*
X153854577Y-113027292D01*
X153834140Y-113024921D01*
X153830505Y-113024500D01*
X153830504Y-113024500D01*
X153569496Y-113024500D01*
X153545424Y-113027292D01*
X153545419Y-113027293D01*
X153446920Y-113070785D01*
X153370786Y-113146919D01*
X153327292Y-113245421D01*
X153327292Y-113245423D01*
X153324500Y-113269495D01*
X153324500Y-114183335D01*
X153302826Y-114235661D01*
X153250500Y-114257335D01*
X153224640Y-114252669D01*
X153167195Y-114231243D01*
X153167189Y-114231241D01*
X153109132Y-114225000D01*
X152812500Y-114225000D01*
X152812500Y-114625000D01*
X153545606Y-114625000D01*
X153545605Y-114624999D01*
X153543757Y-114607808D01*
X153522330Y-114550360D01*
X153524351Y-114493759D01*
X153565803Y-114455165D01*
X153591658Y-114450499D01*
X153830504Y-114450499D01*
X153854580Y-114447707D01*
X153953079Y-114404215D01*
X153972674Y-114384620D01*
X154025000Y-114362946D01*
X154077326Y-114384620D01*
X154096921Y-114404215D01*
X154195420Y-114447707D01*
X154219495Y-114450500D01*
X154480504Y-114450499D01*
X154504580Y-114447707D01*
X154603079Y-114404215D01*
X154622674Y-114384620D01*
X154675000Y-114362946D01*
X154727326Y-114384620D01*
X154746921Y-114404215D01*
X154845420Y-114447707D01*
X154869495Y-114450500D01*
X155130504Y-114450499D01*
X155154580Y-114447707D01*
X155253079Y-114404215D01*
X155272674Y-114384620D01*
X155325000Y-114362946D01*
X155377326Y-114384620D01*
X155396921Y-114404215D01*
X155495420Y-114447707D01*
X155519495Y-114450500D01*
X155780504Y-114450499D01*
X155804580Y-114447707D01*
X155903079Y-114404215D01*
X155922674Y-114384620D01*
X155975000Y-114362946D01*
X156027326Y-114384620D01*
X156046921Y-114404215D01*
X156145420Y-114447707D01*
X156169495Y-114450500D01*
X156430504Y-114450499D01*
X156454580Y-114447707D01*
X156553079Y-114404215D01*
X156573905Y-114383388D01*
X156626230Y-114361714D01*
X156678556Y-114383387D01*
X156716611Y-114421442D01*
X156738285Y-114473768D01*
X156716612Y-114526093D01*
X156695786Y-114546919D01*
X156695785Y-114546920D01*
X156695785Y-114546921D01*
X156693193Y-114552792D01*
X156652292Y-114645421D01*
X156652292Y-114645423D01*
X156649500Y-114669495D01*
X156649500Y-114932088D01*
X156627826Y-114984414D01*
X156619849Y-114991327D01*
X156589242Y-115014240D01*
X156505230Y-115126466D01*
X156456242Y-115257806D01*
X156454394Y-115274999D01*
X156454394Y-115275000D01*
X158270606Y-115275000D01*
X158270605Y-115274999D01*
X158268757Y-115257807D01*
X158246477Y-115198072D01*
X158248498Y-115141471D01*
X158289950Y-115102877D01*
X158346551Y-115104898D01*
X158368137Y-115119885D01*
X158446780Y-115198528D01*
X158566874Y-115259719D01*
X158666511Y-115275500D01*
X158666512Y-115275500D01*
X159183489Y-115275500D01*
X159233307Y-115267609D01*
X159283126Y-115259719D01*
X159403220Y-115198528D01*
X159498528Y-115103220D01*
X159559719Y-114983126D01*
X159575500Y-114883488D01*
X159575500Y-114316512D01*
X159559719Y-114216874D01*
X159533565Y-114165543D01*
X159525500Y-114131948D01*
X159525500Y-113616960D01*
X159539960Y-113573017D01*
X159567871Y-113535199D01*
X159602793Y-113487882D01*
X159647646Y-113359699D01*
X159649433Y-113340641D01*
X159950000Y-113340641D01*
X159952900Y-113377493D01*
X159998718Y-113535199D01*
X160082317Y-113676556D01*
X160198443Y-113792682D01*
X160339800Y-113876281D01*
X160497508Y-113922099D01*
X160497505Y-113922099D01*
X160534359Y-113925000D01*
X160650000Y-113925000D01*
X161050000Y-113925000D01*
X161165641Y-113925000D01*
X161202493Y-113922099D01*
X161360199Y-113876281D01*
X161501556Y-113792682D01*
X161617682Y-113676556D01*
X161701281Y-113535199D01*
X161747099Y-113377493D01*
X161750000Y-113340641D01*
X161750000Y-113000000D01*
X161050000Y-113000000D01*
X161050000Y-113925000D01*
X160650000Y-113925000D01*
X160650000Y-113000000D01*
X159950000Y-113000000D01*
X159950000Y-113340641D01*
X159649433Y-113340641D01*
X159650500Y-113329266D01*
X159650500Y-112652647D01*
X163194859Y-112652647D01*
X163194859Y-112652654D01*
X163215377Y-112874083D01*
X163215379Y-112874096D01*
X163276237Y-113087993D01*
X163276239Y-113087997D01*
X163375368Y-113287077D01*
X163375370Y-113287080D01*
X163421560Y-113348245D01*
X164013629Y-112756176D01*
X164027259Y-112807045D01*
X164079920Y-112898257D01*
X164154394Y-112972731D01*
X164245606Y-113025392D01*
X164296472Y-113039021D01*
X163703000Y-113632492D01*
X163862817Y-113731445D01*
X163862827Y-113731450D01*
X164070194Y-113811785D01*
X164288800Y-113852650D01*
X164288806Y-113852651D01*
X164511194Y-113852651D01*
X164511199Y-113852650D01*
X164729805Y-113811785D01*
X164937172Y-113731450D01*
X164937182Y-113731445D01*
X165096997Y-113632491D01*
X164503527Y-113039021D01*
X164554394Y-113025392D01*
X164645606Y-112972731D01*
X164720080Y-112898257D01*
X164772741Y-112807045D01*
X164786370Y-112756178D01*
X165378438Y-113348246D01*
X165424629Y-113287079D01*
X165424631Y-113287077D01*
X165523760Y-113087997D01*
X165523762Y-113087993D01*
X165584620Y-112874096D01*
X165584622Y-112874083D01*
X165605141Y-112652654D01*
X165605141Y-112652647D01*
X165584622Y-112431218D01*
X165584620Y-112431205D01*
X165523762Y-112217308D01*
X165523760Y-112217304D01*
X165424631Y-112018224D01*
X165424629Y-112018221D01*
X165378437Y-111957054D01*
X164786370Y-112549122D01*
X164772741Y-112498257D01*
X164720080Y-112407045D01*
X164645606Y-112332571D01*
X164554394Y-112279910D01*
X164503525Y-112266280D01*
X165096998Y-111672808D01*
X164937182Y-111573856D01*
X164937172Y-111573851D01*
X164729805Y-111493516D01*
X164511199Y-111452651D01*
X164288800Y-111452651D01*
X164070194Y-111493516D01*
X163862827Y-111573851D01*
X163862817Y-111573856D01*
X163703000Y-111672808D01*
X164296472Y-112266280D01*
X164245606Y-112279910D01*
X164154394Y-112332571D01*
X164079920Y-112407045D01*
X164027259Y-112498257D01*
X164013629Y-112549123D01*
X163421560Y-111957054D01*
X163375368Y-112018225D01*
X163375367Y-112018228D01*
X163276239Y-112217304D01*
X163276237Y-112217308D01*
X163215379Y-112431205D01*
X163215377Y-112431218D01*
X163194859Y-112652647D01*
X159650500Y-112652647D01*
X159650500Y-112270734D01*
X159649433Y-112259358D01*
X159950000Y-112259358D01*
X159950000Y-112600000D01*
X160650000Y-112600000D01*
X161050000Y-112600000D01*
X161750000Y-112600000D01*
X161750000Y-112259358D01*
X161747099Y-112222506D01*
X161701281Y-112064800D01*
X161617682Y-111923443D01*
X161501556Y-111807317D01*
X161360199Y-111723718D01*
X161202491Y-111677900D01*
X161202494Y-111677900D01*
X161165641Y-111675000D01*
X161050000Y-111675000D01*
X161050000Y-112600000D01*
X160650000Y-112600000D01*
X160650000Y-111675000D01*
X160534359Y-111675000D01*
X160497506Y-111677900D01*
X160339800Y-111723718D01*
X160198443Y-111807317D01*
X160082317Y-111923443D01*
X159998718Y-112064800D01*
X159952900Y-112222506D01*
X159950000Y-112259358D01*
X159649433Y-112259358D01*
X159647646Y-112240301D01*
X159602793Y-112112118D01*
X159522150Y-112002850D01*
X159522149Y-112002849D01*
X159522144Y-112002845D01*
X159515541Y-111997971D01*
X159489638Y-111962873D01*
X159487033Y-111955429D01*
X159484629Y-111948556D01*
X159469197Y-111916511D01*
X159454933Y-111886889D01*
X159376375Y-111723758D01*
X159358519Y-111695340D01*
X159243630Y-111512489D01*
X159088077Y-111317425D01*
X159088076Y-111317424D01*
X159088073Y-111317420D01*
X159051222Y-111280567D01*
X159051208Y-111280551D01*
X159023482Y-111252825D01*
X158971165Y-111200507D01*
X158944052Y-111173393D01*
X158944051Y-111173392D01*
X158941479Y-111170820D01*
X158941456Y-111170799D01*
X158342115Y-110571458D01*
X158342113Y-110571454D01*
X158315329Y-110544670D01*
X158315330Y-110544670D01*
X158233811Y-110463151D01*
X158210946Y-110445606D01*
X158050889Y-110322790D01*
X158050883Y-110322786D01*
X157851206Y-110207503D01*
X157851198Y-110207500D01*
X157638187Y-110119269D01*
X157638186Y-110119268D01*
X157415471Y-110059593D01*
X157261622Y-110039338D01*
X157218955Y-110018297D01*
X156186543Y-108985886D01*
X156040097Y-108839440D01*
X156040093Y-108839437D01*
X156037822Y-108837166D01*
X156037797Y-108837143D01*
X156000477Y-108799823D01*
X156000473Y-108799819D01*
X155802085Y-108647589D01*
X155630946Y-108548781D01*
X155585524Y-108522556D01*
X155585521Y-108522555D01*
X155354503Y-108426863D01*
X155354499Y-108426862D01*
X155354497Y-108426861D01*
X155233705Y-108394495D01*
X157124500Y-108394495D01*
X157124500Y-109330503D01*
X157127292Y-109354575D01*
X157127293Y-109354578D01*
X157127293Y-109354580D01*
X157170785Y-109453079D01*
X157246921Y-109529215D01*
X157345420Y-109572707D01*
X157369495Y-109575500D01*
X157630504Y-109575499D01*
X157632089Y-109575499D01*
X157684415Y-109597173D01*
X157691328Y-109605152D01*
X157714240Y-109635758D01*
X157826466Y-109719769D01*
X157957806Y-109768757D01*
X157974999Y-109770605D01*
X157975000Y-109770605D01*
X157975000Y-107954393D01*
X158325000Y-107954393D01*
X158325000Y-109770605D01*
X158342193Y-109768757D01*
X158473533Y-109719769D01*
X158585759Y-109635758D01*
X158608667Y-109605155D01*
X158657375Y-109576253D01*
X158667909Y-109575499D01*
X158669486Y-109575499D01*
X158669495Y-109575500D01*
X158930504Y-109575499D01*
X158932089Y-109575499D01*
X158984415Y-109597173D01*
X158991328Y-109605152D01*
X159014240Y-109635758D01*
X159126466Y-109719769D01*
X159257806Y-109768757D01*
X159274999Y-109770605D01*
X159275000Y-109770605D01*
X159625000Y-109770605D01*
X159642193Y-109768757D01*
X159773533Y-109719769D01*
X159885759Y-109635758D01*
X159908667Y-109605155D01*
X159957375Y-109576253D01*
X159967909Y-109575499D01*
X159969486Y-109575499D01*
X159969495Y-109575500D01*
X160230504Y-109575499D01*
X160254580Y-109572707D01*
X160353079Y-109529215D01*
X160429215Y-109453079D01*
X160472707Y-109354580D01*
X160475500Y-109330505D01*
X160475499Y-108416663D01*
X160497173Y-108364338D01*
X160549499Y-108342664D01*
X160575360Y-108347330D01*
X160632807Y-108368757D01*
X160632810Y-108368758D01*
X160690868Y-108375000D01*
X160987500Y-108375000D01*
X161337500Y-108375000D01*
X161634132Y-108375000D01*
X161692189Y-108368758D01*
X161692195Y-108368756D01*
X161823533Y-108319769D01*
X161935758Y-108235758D01*
X162019769Y-108123533D01*
X162068757Y-107992193D01*
X162070606Y-107975000D01*
X161337500Y-107975000D01*
X161337500Y-108375000D01*
X160987500Y-108375000D01*
X160987500Y-107975000D01*
X160254394Y-107975000D01*
X160256242Y-107992193D01*
X160277669Y-108049640D01*
X160275648Y-108106241D01*
X160234195Y-108144834D01*
X160208335Y-108149500D01*
X159967910Y-108149500D01*
X159915584Y-108127826D01*
X159908670Y-108119846D01*
X159885760Y-108089242D01*
X159885759Y-108089241D01*
X159773534Y-108005230D01*
X159642192Y-107956242D01*
X159625000Y-107954393D01*
X159625000Y-109770605D01*
X159275000Y-109770605D01*
X159275000Y-107954393D01*
X159257807Y-107956242D01*
X159126465Y-108005230D01*
X159014237Y-108089244D01*
X158991328Y-108119847D01*
X158942619Y-108148747D01*
X158932089Y-108149500D01*
X158667910Y-108149500D01*
X158615584Y-108127826D01*
X158608670Y-108119846D01*
X158585760Y-108089242D01*
X158585759Y-108089241D01*
X158473534Y-108005230D01*
X158342192Y-107956242D01*
X158325000Y-107954393D01*
X157975000Y-107954393D01*
X157957807Y-107956242D01*
X157826465Y-108005230D01*
X157714237Y-108089244D01*
X157691328Y-108119847D01*
X157642619Y-108148747D01*
X157632089Y-108149500D01*
X157369496Y-108149500D01*
X157345424Y-108152292D01*
X157345419Y-108152293D01*
X157246920Y-108195785D01*
X157170786Y-108271919D01*
X157127292Y-108370421D01*
X157127292Y-108370423D01*
X157124500Y-108394495D01*
X155233705Y-108394495D01*
X155112955Y-108362140D01*
X155112950Y-108362139D01*
X155112945Y-108362138D01*
X154933976Y-108338576D01*
X154865031Y-108329500D01*
X154865029Y-108329500D01*
X150737617Y-108329500D01*
X150737526Y-108329495D01*
X150733438Y-108329495D01*
X150733437Y-108329495D01*
X150694629Y-108329497D01*
X150685180Y-108329498D01*
X150685138Y-108329481D01*
X150568316Y-108329487D01*
X150397420Y-108351997D01*
X150230917Y-108396619D01*
X150230911Y-108396621D01*
X150071661Y-108462591D01*
X150071651Y-108462596D01*
X149922381Y-108548781D01*
X149922379Y-108548782D01*
X149785617Y-108653726D01*
X149785615Y-108653728D01*
X149763052Y-108676288D01*
X149763048Y-108676294D01*
X149672806Y-108766536D01*
X149620480Y-108788210D01*
X149614051Y-108787930D01*
X149450888Y-108773700D01*
X149450886Y-108773700D01*
X149450884Y-108773700D01*
X149346256Y-108782882D01*
X149241625Y-108792065D01*
X149038738Y-108846488D01*
X148969083Y-108878992D01*
X148963102Y-108881471D01*
X148890709Y-108907821D01*
X148708791Y-109012851D01*
X148547876Y-109147876D01*
X148412851Y-109308791D01*
X148307819Y-109490712D01*
X148235975Y-109688101D01*
X148199500Y-109894966D01*
X130300500Y-109894966D01*
X130300500Y-108574500D01*
X130322174Y-108522174D01*
X130374500Y-108500500D01*
X133439564Y-108500500D01*
X133439564Y-108500499D01*
X133515989Y-108480021D01*
X133584511Y-108440460D01*
X133640460Y-108384511D01*
X133680021Y-108315989D01*
X133700499Y-108239564D01*
X133700500Y-108239564D01*
X133700500Y-105760436D01*
X133700499Y-105760435D01*
X133680022Y-105684014D01*
X133680020Y-105684009D01*
X133651696Y-105634951D01*
X133640460Y-105615489D01*
X133584511Y-105559540D01*
X133575598Y-105554394D01*
X133515990Y-105519979D01*
X133515985Y-105519977D01*
X133439564Y-105499500D01*
X133439562Y-105499500D01*
X130439562Y-105499500D01*
X130374500Y-105499500D01*
X130322174Y-105477826D01*
X130300500Y-105425500D01*
X130300500Y-105358100D01*
X152904493Y-105358100D01*
X152904500Y-105433813D01*
X152904500Y-106255061D01*
X152904518Y-106255352D01*
X152904518Y-106275853D01*
X152931156Y-106409825D01*
X152931160Y-106409838D01*
X152983423Y-106536039D01*
X152983424Y-106536041D01*
X152983425Y-106536042D01*
X153059310Y-106649629D01*
X153074240Y-106664562D01*
X153074286Y-106664613D01*
X153077317Y-106667644D01*
X153111512Y-106701839D01*
X153124256Y-106714585D01*
X153148258Y-106738589D01*
X153148285Y-106738612D01*
X153170161Y-106760488D01*
X153170184Y-106760544D01*
X153191835Y-106782193D01*
X153191835Y-106782194D01*
X153249471Y-106839827D01*
X153381356Y-106935642D01*
X153526606Y-107009644D01*
X153526608Y-107009644D01*
X153526609Y-107009645D01*
X153681637Y-107060009D01*
X153681638Y-107060009D01*
X153681644Y-107060011D01*
X153842654Y-107085504D01*
X153924161Y-107085500D01*
X155190079Y-107085500D01*
X155232941Y-107085500D01*
X155237854Y-107085500D01*
X155238150Y-107085479D01*
X155266727Y-107085481D01*
X155417078Y-107055581D01*
X155558708Y-106996925D01*
X155609392Y-106963063D01*
X155664941Y-106952018D01*
X155712031Y-106983487D01*
X155724500Y-107024595D01*
X155724500Y-107280503D01*
X155727292Y-107304575D01*
X155727293Y-107304580D01*
X155770785Y-107403079D01*
X155790380Y-107422674D01*
X155812054Y-107475000D01*
X155790380Y-107527326D01*
X155770786Y-107546919D01*
X155727292Y-107645421D01*
X155727292Y-107645423D01*
X155724500Y-107669495D01*
X155724500Y-107930503D01*
X155727292Y-107954575D01*
X155727293Y-107954578D01*
X155727293Y-107954580D01*
X155770785Y-108053079D01*
X155846921Y-108129215D01*
X155945420Y-108172707D01*
X155969495Y-108175500D01*
X156905504Y-108175499D01*
X156929580Y-108172707D01*
X157028079Y-108129215D01*
X157104215Y-108053079D01*
X157147707Y-107954580D01*
X157150500Y-107930505D01*
X157150499Y-107669496D01*
X157147707Y-107645420D01*
X157138690Y-107624999D01*
X160254394Y-107624999D01*
X160254394Y-107625000D01*
X160987500Y-107625000D01*
X161337500Y-107625000D01*
X162070606Y-107625000D01*
X162070605Y-107624999D01*
X162068757Y-107607808D01*
X162028867Y-107500861D01*
X162028867Y-107449139D01*
X162068757Y-107342191D01*
X162070606Y-107325000D01*
X161337500Y-107325000D01*
X161337500Y-107625000D01*
X160987500Y-107625000D01*
X160987500Y-107325000D01*
X160254394Y-107325000D01*
X160256242Y-107342192D01*
X160296132Y-107449139D01*
X160296132Y-107500861D01*
X160256242Y-107607807D01*
X160254394Y-107624999D01*
X157138690Y-107624999D01*
X157104215Y-107546921D01*
X157084620Y-107527326D01*
X157062946Y-107475000D01*
X157084620Y-107422674D01*
X157091806Y-107415488D01*
X157104215Y-107403079D01*
X157147707Y-107304580D01*
X157150500Y-107280505D01*
X157150499Y-107019496D01*
X157147707Y-106995420D01*
X157104215Y-106896921D01*
X157084620Y-106877326D01*
X157062946Y-106825000D01*
X157084620Y-106772674D01*
X157092633Y-106764661D01*
X157104215Y-106753079D01*
X157147707Y-106654580D01*
X157150500Y-106630505D01*
X157150499Y-106369496D01*
X157147707Y-106345420D01*
X157104215Y-106246921D01*
X157084620Y-106227326D01*
X157062946Y-106175000D01*
X157084620Y-106122674D01*
X157088045Y-106119249D01*
X157104215Y-106103079D01*
X157147707Y-106004580D01*
X157150500Y-105980505D01*
X157150499Y-105719496D01*
X157147707Y-105695420D01*
X157104215Y-105596921D01*
X157084620Y-105577326D01*
X157062946Y-105525000D01*
X157084620Y-105472674D01*
X157104215Y-105453079D01*
X157147707Y-105354580D01*
X157150500Y-105330505D01*
X157150499Y-105069496D01*
X157147707Y-105045420D01*
X157104215Y-104946921D01*
X157071301Y-104914007D01*
X157049627Y-104861681D01*
X157071301Y-104809355D01*
X157109355Y-104771301D01*
X157161681Y-104749627D01*
X157214007Y-104771301D01*
X157246921Y-104804215D01*
X157345420Y-104847707D01*
X157369495Y-104850500D01*
X157630504Y-104850499D01*
X157632089Y-104850499D01*
X157684415Y-104872173D01*
X157691328Y-104880152D01*
X157714240Y-104910758D01*
X157826466Y-104994769D01*
X157957806Y-105043757D01*
X157974999Y-105045605D01*
X157975000Y-105045605D01*
X158325000Y-105045605D01*
X158342191Y-105043757D01*
X158449139Y-105003867D01*
X158500861Y-105003867D01*
X158607808Y-105043757D01*
X158624999Y-105045605D01*
X158625000Y-105045605D01*
X158975000Y-105045605D01*
X158992191Y-105043757D01*
X159099139Y-105003867D01*
X159150861Y-105003867D01*
X159257808Y-105043757D01*
X159274999Y-105045605D01*
X159275000Y-105045605D01*
X159275000Y-104312500D01*
X158975000Y-104312500D01*
X158975000Y-105045605D01*
X158625000Y-105045605D01*
X158625000Y-104312500D01*
X158325000Y-104312500D01*
X158325000Y-105045605D01*
X157975000Y-105045605D01*
X157975000Y-104036500D01*
X157996674Y-103984174D01*
X158049000Y-103962500D01*
X158625000Y-103962500D01*
X158625000Y-103229393D01*
X158975000Y-103229393D01*
X158975000Y-103962500D01*
X159551000Y-103962500D01*
X159603326Y-103984174D01*
X159625000Y-104036500D01*
X159625000Y-105045605D01*
X159642193Y-105043757D01*
X159773533Y-104994769D01*
X159885759Y-104910758D01*
X159908667Y-104880155D01*
X159957375Y-104851253D01*
X159967909Y-104850499D01*
X159969486Y-104850499D01*
X159969495Y-104850500D01*
X160230504Y-104850499D01*
X160254580Y-104847707D01*
X160353079Y-104804215D01*
X160390992Y-104766301D01*
X160443317Y-104744627D01*
X160495643Y-104766300D01*
X160533698Y-104804355D01*
X160555373Y-104856680D01*
X160533700Y-104909006D01*
X160533699Y-104909007D01*
X160495786Y-104946919D01*
X160452292Y-105045421D01*
X160452292Y-105045423D01*
X160449500Y-105069495D01*
X160449500Y-105330503D01*
X160452292Y-105354575D01*
X160452293Y-105354580D01*
X160495785Y-105453079D01*
X160515380Y-105472674D01*
X160537054Y-105525000D01*
X160515380Y-105577326D01*
X160495786Y-105596919D01*
X160452292Y-105695421D01*
X160452292Y-105695423D01*
X160449500Y-105719495D01*
X160449500Y-105980503D01*
X160452292Y-106004575D01*
X160452293Y-106004580D01*
X160495785Y-106103079D01*
X160515380Y-106122674D01*
X160537054Y-106175000D01*
X160515380Y-106227326D01*
X160495786Y-106246919D01*
X160495785Y-106246920D01*
X160495785Y-106246921D01*
X160494237Y-106250427D01*
X160452292Y-106345421D01*
X160452292Y-106345423D01*
X160449500Y-106369495D01*
X160449500Y-106632088D01*
X160427826Y-106684414D01*
X160419849Y-106691327D01*
X160389242Y-106714240D01*
X160305230Y-106826466D01*
X160256242Y-106957806D01*
X160254394Y-106974999D01*
X160254394Y-106975000D01*
X161977819Y-106975000D01*
X162024763Y-106991796D01*
X162029493Y-106995678D01*
X162034868Y-107000550D01*
X162076103Y-107041785D01*
X162076138Y-107041814D01*
X162100623Y-107066300D01*
X162254248Y-107184181D01*
X162421944Y-107281001D01*
X162600843Y-107355104D01*
X162787884Y-107405223D01*
X162979867Y-107430500D01*
X162979869Y-107430500D01*
X164999435Y-107430500D01*
X164999683Y-107430483D01*
X165058693Y-107430485D01*
X165277302Y-107401711D01*
X165490285Y-107344647D01*
X165693997Y-107260271D01*
X165884953Y-107150025D01*
X166059884Y-107015797D01*
X166137841Y-106937841D01*
X166177095Y-106898587D01*
X166177095Y-106898586D01*
X166253509Y-106822173D01*
X166305834Y-106800500D01*
X167572397Y-106800500D01*
X167572399Y-106800500D01*
X167630882Y-106788867D01*
X167697203Y-106744552D01*
X167741518Y-106678231D01*
X167753151Y-106619748D01*
X167753151Y-105975114D01*
X167774825Y-105922788D01*
X167798830Y-105906748D01*
X167993347Y-105826180D01*
X168001160Y-105823446D01*
X168207443Y-105764021D01*
X168215496Y-105762182D01*
X168427133Y-105726227D01*
X168435373Y-105725299D01*
X168652381Y-105713115D01*
X168656510Y-105713000D01*
X168732760Y-105713001D01*
X168732764Y-105713000D01*
X168768993Y-105713000D01*
X168904328Y-105686080D01*
X168982748Y-105653596D01*
X168999477Y-105648878D01*
X169087420Y-105634951D01*
X169205751Y-105574658D01*
X169299658Y-105480751D01*
X169359951Y-105362420D01*
X169375500Y-105264246D01*
X169375500Y-105214463D01*
X169376922Y-105200026D01*
X169383776Y-105165570D01*
X169400500Y-105081493D01*
X169400500Y-104943507D01*
X169393986Y-104910758D01*
X169376922Y-104824971D01*
X169375500Y-104810535D01*
X169375500Y-104760753D01*
X169370325Y-104728079D01*
X169359951Y-104662580D01*
X169299658Y-104544249D01*
X169205751Y-104450342D01*
X169205749Y-104450340D01*
X169087420Y-104390049D01*
X168999480Y-104376120D01*
X168982739Y-104371398D01*
X168904332Y-104338921D01*
X168904322Y-104338918D01*
X168813694Y-104320891D01*
X168768993Y-104312000D01*
X168584851Y-104312000D01*
X168581578Y-104312000D01*
X168580902Y-104312032D01*
X168487356Y-104312032D01*
X168155953Y-104344666D01*
X167829362Y-104409624D01*
X167510702Y-104506283D01*
X167510700Y-104506284D01*
X167203036Y-104633717D01*
X166909215Y-104790763D01*
X166874333Y-104799500D01*
X166773460Y-104799500D01*
X166721134Y-104777826D01*
X164986551Y-103043242D01*
X164964877Y-102990916D01*
X164969028Y-102966480D01*
X164997646Y-102884699D01*
X165000500Y-102854266D01*
X165000500Y-101445734D01*
X164997646Y-101415301D01*
X164952793Y-101287118D01*
X164952792Y-101287116D01*
X164872153Y-101177853D01*
X164872146Y-101177846D01*
X164762883Y-101097207D01*
X164762881Y-101097206D01*
X164634704Y-101052355D01*
X164634705Y-101052355D01*
X164634700Y-101052354D01*
X164634699Y-101052354D01*
X164604266Y-101049500D01*
X159595734Y-101049500D01*
X159565301Y-101052354D01*
X159565299Y-101052354D01*
X159565295Y-101052355D01*
X159437118Y-101097206D01*
X159437116Y-101097207D01*
X159327853Y-101177846D01*
X159327846Y-101177853D01*
X159247207Y-101287116D01*
X159247206Y-101287118D01*
X159202355Y-101415295D01*
X159202354Y-101415299D01*
X159202354Y-101415301D01*
X159199500Y-101445734D01*
X159199500Y-102854266D01*
X159202354Y-102884699D01*
X159202354Y-102884701D01*
X159202355Y-102884704D01*
X159246326Y-103010364D01*
X159247207Y-103012882D01*
X159320734Y-103112508D01*
X159334367Y-103167480D01*
X159305137Y-103215991D01*
X159269108Y-103230027D01*
X159257808Y-103231242D01*
X159257807Y-103231242D01*
X159150861Y-103271132D01*
X159099139Y-103271132D01*
X158992192Y-103231242D01*
X158975000Y-103229393D01*
X158625000Y-103229393D01*
X158624999Y-103229392D01*
X158606506Y-103231382D01*
X158552163Y-103215427D01*
X158525017Y-103165719D01*
X158540972Y-103111376D01*
X158546268Y-103105480D01*
X158598525Y-103053223D01*
X158598528Y-103053220D01*
X158659719Y-102933126D01*
X158675500Y-102833488D01*
X158675500Y-102316512D01*
X158659719Y-102216874D01*
X158598528Y-102096780D01*
X158503220Y-102001472D01*
X158452016Y-101975382D01*
X158415235Y-101932316D01*
X158419679Y-101875853D01*
X158462746Y-101839071D01*
X158464969Y-101838387D01*
X158500190Y-101828155D01*
X158636111Y-101747771D01*
X158747771Y-101636111D01*
X158828154Y-101500191D01*
X158872210Y-101348551D01*
X158875000Y-101313110D01*
X158875000Y-101225000D01*
X157125000Y-101225000D01*
X157125000Y-101313110D01*
X157127789Y-101348551D01*
X157171845Y-101500191D01*
X157252228Y-101636111D01*
X157363888Y-101747771D01*
X157499808Y-101828154D01*
X157504227Y-101829438D01*
X157548428Y-101864851D01*
X157554643Y-101921146D01*
X157519230Y-101965347D01*
X157483581Y-101974500D01*
X157017139Y-101974500D01*
X156964813Y-101952826D01*
X156956364Y-101941376D01*
X156956087Y-101941581D01*
X156872150Y-101827850D01*
X156872146Y-101827846D01*
X156762883Y-101747207D01*
X156762881Y-101747206D01*
X156634704Y-101702355D01*
X156634705Y-101702355D01*
X156634700Y-101702354D01*
X156634699Y-101702354D01*
X156604266Y-101699500D01*
X155195734Y-101699500D01*
X155165301Y-101702354D01*
X155165299Y-101702354D01*
X155165295Y-101702355D01*
X155037118Y-101747206D01*
X155037116Y-101747207D01*
X154927853Y-101827846D01*
X154927846Y-101827853D01*
X154847207Y-101937116D01*
X154847206Y-101937118D01*
X154802355Y-102065295D01*
X154802354Y-102065299D01*
X154802354Y-102065301D01*
X154799500Y-102095734D01*
X154799500Y-102854266D01*
X154802354Y-102884699D01*
X154802354Y-102884701D01*
X154802355Y-102884704D01*
X154847206Y-103012881D01*
X154847207Y-103012883D01*
X154927846Y-103122146D01*
X154927853Y-103122153D01*
X155037116Y-103202792D01*
X155037118Y-103202793D01*
X155165295Y-103247644D01*
X155165301Y-103247646D01*
X155195734Y-103250500D01*
X155201487Y-103250500D01*
X155253813Y-103272174D01*
X155274065Y-103310064D01*
X155287517Y-103377700D01*
X155287520Y-103377711D01*
X155301981Y-103425385D01*
X155296428Y-103481749D01*
X155252646Y-103517678D01*
X155250320Y-103518343D01*
X155040411Y-103574587D01*
X155040404Y-103574589D01*
X154732411Y-103686687D01*
X154435358Y-103825202D01*
X154435343Y-103825209D01*
X154151469Y-103989101D01*
X154151468Y-103989102D01*
X153882976Y-104177102D01*
X153882972Y-104177105D01*
X153859490Y-104196809D01*
X153631878Y-104387796D01*
X153546293Y-104473380D01*
X153546292Y-104473381D01*
X153151523Y-104868149D01*
X153151478Y-104868167D01*
X153076238Y-104943408D01*
X153076237Y-104943410D01*
X152992045Y-105069420D01*
X152992038Y-105069433D01*
X152934049Y-105209448D01*
X152934049Y-105209449D01*
X152904493Y-105358100D01*
X130300500Y-105358100D01*
X130300500Y-101562632D01*
X152599500Y-101562632D01*
X152599500Y-103202128D01*
X152605291Y-103231242D01*
X152611133Y-103260612D01*
X152640608Y-103304723D01*
X152655448Y-103326932D01*
X152694109Y-103352765D01*
X152721767Y-103371246D01*
X152721768Y-103371246D01*
X152721769Y-103371247D01*
X152780252Y-103382880D01*
X152780254Y-103382880D01*
X154419746Y-103382880D01*
X154419748Y-103382880D01*
X154478231Y-103371247D01*
X154544552Y-103326932D01*
X154588867Y-103260611D01*
X154600500Y-103202128D01*
X154600500Y-101562632D01*
X154588867Y-101504149D01*
X154586222Y-101500191D01*
X154574027Y-101481940D01*
X154544552Y-101437828D01*
X154510830Y-101415295D01*
X154478232Y-101393513D01*
X154478233Y-101393513D01*
X154448989Y-101387696D01*
X154419748Y-101381880D01*
X152780252Y-101381880D01*
X152751010Y-101387696D01*
X152721767Y-101393513D01*
X152655449Y-101437827D01*
X152655447Y-101437829D01*
X152611133Y-101504147D01*
X152611133Y-101504149D01*
X152599500Y-101562632D01*
X130300500Y-101562632D01*
X130300500Y-99882376D01*
X152394859Y-99882376D01*
X152394859Y-99882383D01*
X152415377Y-100103812D01*
X152415379Y-100103825D01*
X152476237Y-100317722D01*
X152476239Y-100317726D01*
X152575368Y-100516806D01*
X152575370Y-100516809D01*
X152621560Y-100577974D01*
X153213629Y-99985905D01*
X153227259Y-100036774D01*
X153279920Y-100127986D01*
X153354394Y-100202460D01*
X153445606Y-100255121D01*
X153496472Y-100268750D01*
X152903000Y-100862221D01*
X153062817Y-100961174D01*
X153062827Y-100961179D01*
X153270194Y-101041514D01*
X153488800Y-101082379D01*
X153488806Y-101082380D01*
X153711194Y-101082380D01*
X153711199Y-101082379D01*
X153929805Y-101041514D01*
X154137172Y-100961179D01*
X154137182Y-100961174D01*
X154296997Y-100862220D01*
X154171666Y-100736889D01*
X157125000Y-100736889D01*
X157125000Y-100825000D01*
X157800000Y-100825000D01*
X158200000Y-100825000D01*
X158875000Y-100825000D01*
X158875000Y-100736889D01*
X158872210Y-100701448D01*
X158828154Y-100549808D01*
X158747771Y-100413888D01*
X158636111Y-100302228D01*
X158500191Y-100221845D01*
X158348551Y-100177789D01*
X158313110Y-100175000D01*
X158200000Y-100175000D01*
X158200000Y-100825000D01*
X157800000Y-100825000D01*
X157800000Y-100175000D01*
X157686890Y-100175000D01*
X157651448Y-100177789D01*
X157499808Y-100221845D01*
X157363888Y-100302228D01*
X157252228Y-100413888D01*
X157171845Y-100549808D01*
X157127789Y-100701448D01*
X157125000Y-100736889D01*
X154171666Y-100736889D01*
X153703527Y-100268750D01*
X153754394Y-100255121D01*
X153845606Y-100202460D01*
X153920080Y-100127986D01*
X153972741Y-100036774D01*
X153986370Y-99985907D01*
X154578438Y-100577975D01*
X154624629Y-100516808D01*
X154624631Y-100516806D01*
X154702758Y-100359906D01*
X154745483Y-100322727D01*
X154801985Y-100326649D01*
X154821326Y-100340565D01*
X154848443Y-100367682D01*
X154989800Y-100451281D01*
X155147508Y-100497099D01*
X155147505Y-100497099D01*
X155184359Y-100500000D01*
X155700000Y-100500000D01*
X156100000Y-100500000D01*
X156615641Y-100500000D01*
X156652493Y-100497099D01*
X156810199Y-100451281D01*
X156951556Y-100367682D01*
X157067682Y-100251556D01*
X157151281Y-100110199D01*
X157197099Y-99952493D01*
X157200000Y-99915641D01*
X157200000Y-99725000D01*
X156100000Y-99725000D01*
X156100000Y-100500000D01*
X155700000Y-100500000D01*
X155700000Y-99325000D01*
X156100000Y-99325000D01*
X157200000Y-99325000D01*
X157200000Y-99134358D01*
X157197099Y-99097506D01*
X157151281Y-98939800D01*
X157067682Y-98798443D01*
X156951556Y-98682317D01*
X156810199Y-98598718D01*
X156652491Y-98552900D01*
X156652494Y-98552900D01*
X156615641Y-98550000D01*
X156100000Y-98550000D01*
X156100000Y-99325000D01*
X155700000Y-99325000D01*
X155700000Y-98550000D01*
X155184359Y-98550000D01*
X155147506Y-98552900D01*
X154989800Y-98598718D01*
X154848443Y-98682317D01*
X154732317Y-98798443D01*
X154648718Y-98939801D01*
X154602900Y-99097505D01*
X154599504Y-99140645D01*
X154578058Y-99187163D01*
X153986370Y-99778851D01*
X153972741Y-99727986D01*
X153920080Y-99636774D01*
X153845606Y-99562300D01*
X153754394Y-99509639D01*
X153703525Y-99496009D01*
X154296998Y-98902537D01*
X154137182Y-98803585D01*
X154137172Y-98803580D01*
X153929805Y-98723245D01*
X153711199Y-98682380D01*
X153488800Y-98682380D01*
X153270194Y-98723245D01*
X153062827Y-98803580D01*
X153062817Y-98803585D01*
X152903000Y-98902537D01*
X153496472Y-99496009D01*
X153445606Y-99509639D01*
X153354394Y-99562300D01*
X153279920Y-99636774D01*
X153227259Y-99727986D01*
X153213629Y-99778852D01*
X152621560Y-99186783D01*
X152575368Y-99247954D01*
X152575367Y-99247957D01*
X152476239Y-99447033D01*
X152476237Y-99447037D01*
X152415379Y-99660934D01*
X152415377Y-99660947D01*
X152394859Y-99882376D01*
X130300500Y-99882376D01*
X130300500Y-97765641D01*
X159000000Y-97765641D01*
X159002900Y-97802493D01*
X159048718Y-97960199D01*
X159132317Y-98101556D01*
X159248443Y-98217682D01*
X159389800Y-98301281D01*
X159547508Y-98347099D01*
X159547505Y-98347099D01*
X159584359Y-98350000D01*
X161900000Y-98350000D01*
X162300000Y-98350000D01*
X164615641Y-98350000D01*
X164652493Y-98347099D01*
X164810199Y-98301281D01*
X164951556Y-98217682D01*
X165067682Y-98101556D01*
X165151281Y-97960199D01*
X165197099Y-97802493D01*
X165200000Y-97765641D01*
X165200000Y-97250000D01*
X162300000Y-97250000D01*
X162300000Y-98350000D01*
X161900000Y-98350000D01*
X161900000Y-97250000D01*
X159000000Y-97250000D01*
X159000000Y-97765641D01*
X130300500Y-97765641D01*
X130300500Y-95474500D01*
X130322174Y-95422174D01*
X130374500Y-95400500D01*
X130439562Y-95400500D01*
X131819100Y-95400500D01*
X131871426Y-95422174D01*
X131893100Y-95474500D01*
X131871426Y-95526826D01*
X131851472Y-95546779D01*
X131851471Y-95546780D01*
X131790281Y-95666873D01*
X131790280Y-95666873D01*
X131769196Y-95800000D01*
X131790280Y-95933126D01*
X131851471Y-96053219D01*
X131946780Y-96148528D01*
X132016527Y-96184066D01*
X132053310Y-96227133D01*
X132048866Y-96283595D01*
X132016527Y-96315934D01*
X131946780Y-96351471D01*
X131851471Y-96446780D01*
X131790281Y-96566873D01*
X131790280Y-96566873D01*
X131769196Y-96700000D01*
X131790280Y-96833126D01*
X131851471Y-96953219D01*
X131851472Y-96953220D01*
X131946780Y-97048528D01*
X132066873Y-97109718D01*
X132066873Y-97109719D01*
X132087958Y-97113058D01*
X132200000Y-97130804D01*
X132284192Y-97117469D01*
X132339264Y-97130691D01*
X132368857Y-97178982D01*
X132368859Y-97194176D01*
X132369196Y-97194176D01*
X132369196Y-97199999D01*
X132369196Y-97200000D01*
X132370067Y-97205499D01*
X132390280Y-97333126D01*
X132451471Y-97453219D01*
X132451472Y-97453220D01*
X132546780Y-97548528D01*
X132666873Y-97609718D01*
X132666873Y-97609719D01*
X132685075Y-97612601D01*
X132800000Y-97630804D01*
X132933126Y-97609719D01*
X133053220Y-97548528D01*
X133148528Y-97453220D01*
X133209719Y-97333126D01*
X133230804Y-97200000D01*
X133209719Y-97066874D01*
X133209719Y-97066873D01*
X133148528Y-96946780D01*
X133053222Y-96851474D01*
X133053220Y-96851472D01*
X132983469Y-96815932D01*
X132946689Y-96772867D01*
X132951132Y-96716405D01*
X132983469Y-96684067D01*
X133053220Y-96648528D01*
X133148528Y-96553220D01*
X133209719Y-96433126D01*
X133230804Y-96300000D01*
X133209719Y-96166874D01*
X133209719Y-96166873D01*
X133148528Y-96046780D01*
X133053219Y-95951471D01*
X132933126Y-95890281D01*
X132933126Y-95890280D01*
X132800000Y-95869196D01*
X132799999Y-95869196D01*
X132715805Y-95882530D01*
X132660733Y-95869308D01*
X132631141Y-95821016D01*
X132631144Y-95805824D01*
X132630804Y-95805824D01*
X132630804Y-95800000D01*
X132609719Y-95666873D01*
X132548528Y-95546780D01*
X132528574Y-95526826D01*
X132506900Y-95474500D01*
X132528574Y-95422174D01*
X132580900Y-95400500D01*
X133439564Y-95400500D01*
X133439564Y-95400499D01*
X133515989Y-95380021D01*
X133584511Y-95340460D01*
X133640460Y-95284511D01*
X133680021Y-95215989D01*
X133700499Y-95139564D01*
X133700500Y-95139564D01*
X133700500Y-94100000D01*
X135249196Y-94100000D01*
X135270280Y-94233126D01*
X135331066Y-94352424D01*
X135331472Y-94353220D01*
X135426780Y-94448528D01*
X135546873Y-94509718D01*
X135546873Y-94509719D01*
X135565075Y-94512601D01*
X135680000Y-94530804D01*
X135813126Y-94509719D01*
X135933220Y-94448528D01*
X136028528Y-94353220D01*
X136089719Y-94233126D01*
X136110804Y-94100000D01*
X136089719Y-93966874D01*
X136089719Y-93966873D01*
X136028528Y-93846780D01*
X135933219Y-93751471D01*
X135813126Y-93690281D01*
X135813126Y-93690280D01*
X135680000Y-93669196D01*
X135546873Y-93690280D01*
X135546873Y-93690281D01*
X135426780Y-93751471D01*
X135331471Y-93846780D01*
X135270281Y-93966873D01*
X135270280Y-93966873D01*
X135249196Y-94100000D01*
X133700500Y-94100000D01*
X133700500Y-92660436D01*
X133700499Y-92660435D01*
X133680022Y-92584014D01*
X133680020Y-92584009D01*
X133640459Y-92515488D01*
X133584511Y-92459540D01*
X133515990Y-92419979D01*
X133515985Y-92419977D01*
X133439564Y-92399500D01*
X133439562Y-92399500D01*
X130439562Y-92399500D01*
X130374500Y-92399500D01*
X130322174Y-92377826D01*
X130300500Y-92325500D01*
X130300500Y-90916511D01*
X132024500Y-90916511D01*
X132024500Y-91433488D01*
X132040280Y-91533125D01*
X132040281Y-91533126D01*
X132079306Y-91609718D01*
X132101472Y-91653220D01*
X132196780Y-91748528D01*
X132316874Y-91809719D01*
X132416511Y-91825500D01*
X132416512Y-91825500D01*
X132983489Y-91825500D01*
X133033307Y-91817609D01*
X133083126Y-91809719D01*
X133203220Y-91748528D01*
X133298528Y-91653220D01*
X133359719Y-91533126D01*
X133375500Y-91433488D01*
X133375500Y-91200000D01*
X134169196Y-91200000D01*
X134190280Y-91333126D01*
X134251471Y-91453219D01*
X134251472Y-91453220D01*
X134346780Y-91548528D01*
X134466873Y-91609718D01*
X134466873Y-91609719D01*
X134485075Y-91612601D01*
X134600000Y-91630804D01*
X134733126Y-91609719D01*
X134853220Y-91548528D01*
X134948528Y-91453220D01*
X135009719Y-91333126D01*
X135030804Y-91200000D01*
X135009719Y-91066874D01*
X135009719Y-91066873D01*
X134948528Y-90946780D01*
X134853219Y-90851471D01*
X134733126Y-90790281D01*
X134733126Y-90790280D01*
X134600000Y-90769196D01*
X134466873Y-90790280D01*
X134466873Y-90790281D01*
X134346780Y-90851471D01*
X134251471Y-90946780D01*
X134190281Y-91066873D01*
X134190280Y-91066873D01*
X134169196Y-91200000D01*
X133375500Y-91200000D01*
X133375500Y-90916512D01*
X133375089Y-90913920D01*
X133359719Y-90816874D01*
X133359718Y-90816873D01*
X133346168Y-90790280D01*
X133298528Y-90696780D01*
X133203220Y-90601472D01*
X133203219Y-90601471D01*
X133083126Y-90540281D01*
X133083125Y-90540280D01*
X132983489Y-90524500D01*
X132983488Y-90524500D01*
X132416512Y-90524500D01*
X132416511Y-90524500D01*
X132316874Y-90540280D01*
X132316873Y-90540281D01*
X132196780Y-90601471D01*
X132101471Y-90696780D01*
X132040281Y-90816873D01*
X132040280Y-90816874D01*
X132024500Y-90916511D01*
X130300500Y-90916511D01*
X130300500Y-83554325D01*
X130322174Y-83501999D01*
X130364077Y-83482021D01*
X130363936Y-83481130D01*
X130365848Y-83480827D01*
X130365850Y-83480827D01*
X130727691Y-83423517D01*
X131081559Y-83328698D01*
X131423578Y-83197409D01*
X131750000Y-83031089D01*
X132057248Y-82831559D01*
X132341957Y-82601007D01*
X132601007Y-82341957D01*
X132831559Y-82057248D01*
X133031089Y-81750000D01*
X133197409Y-81423578D01*
X133243359Y-81303872D01*
X133282345Y-81262790D01*
X133338963Y-81261307D01*
X133380046Y-81300293D01*
X133386328Y-81334541D01*
X133383785Y-81379822D01*
X133382855Y-81388068D01*
X133336609Y-81660254D01*
X133334763Y-81668345D01*
X133258327Y-81933661D01*
X133255586Y-81941494D01*
X133149927Y-82196575D01*
X133146327Y-82204051D01*
X133012770Y-82445706D01*
X133008354Y-82452733D01*
X132848589Y-82677900D01*
X132843416Y-82684388D01*
X132658041Y-82891823D01*
X132655191Y-82894837D01*
X132630043Y-82919987D01*
X132630041Y-82919989D01*
X131547202Y-84002826D01*
X131494876Y-84024500D01*
X131043480Y-84024500D01*
X130949695Y-84039353D01*
X130949693Y-84039354D01*
X130836657Y-84096950D01*
X130746951Y-84186656D01*
X130689353Y-84299698D01*
X130674500Y-84393480D01*
X130674500Y-85006519D01*
X130689353Y-85100304D01*
X130689354Y-85100306D01*
X130731539Y-85183096D01*
X130746950Y-85213342D01*
X130836658Y-85303050D01*
X130949696Y-85360646D01*
X131043481Y-85375500D01*
X131502113Y-85375499D01*
X131554439Y-85397173D01*
X131575202Y-85437923D01*
X131591192Y-85538878D01*
X131587962Y-85539389D01*
X131584360Y-85585069D01*
X131541288Y-85621846D01*
X131509449Y-85624349D01*
X131509420Y-85624728D01*
X131507026Y-85624539D01*
X131506857Y-85624553D01*
X131506522Y-85624500D01*
X131043480Y-85624500D01*
X130949695Y-85639353D01*
X130949693Y-85639354D01*
X130836657Y-85696950D01*
X130746951Y-85786656D01*
X130689353Y-85899698D01*
X130674500Y-85993480D01*
X130674500Y-86606519D01*
X130689353Y-86700304D01*
X130689354Y-86700306D01*
X130737349Y-86794500D01*
X130746950Y-86813342D01*
X130836658Y-86903050D01*
X130949696Y-86960646D01*
X131043481Y-86975500D01*
X131506518Y-86975499D01*
X131506519Y-86975499D01*
X131590871Y-86962140D01*
X131631142Y-86968518D01*
X131631337Y-86967920D01*
X131635116Y-86969148D01*
X131636041Y-86969294D01*
X131636874Y-86969719D01*
X131770000Y-86990804D01*
X131903126Y-86969719D01*
X132023220Y-86908528D01*
X132118528Y-86813220D01*
X132179719Y-86693126D01*
X132185879Y-86654230D01*
X132215471Y-86605940D01*
X132270544Y-86592718D01*
X132318835Y-86622310D01*
X132332057Y-86654231D01*
X132339354Y-86700304D01*
X132339354Y-86700306D01*
X132387349Y-86794500D01*
X132396950Y-86813342D01*
X132486658Y-86903050D01*
X132599696Y-86960646D01*
X132693481Y-86975500D01*
X132850877Y-86975499D01*
X132903202Y-86997173D01*
X132924876Y-87049499D01*
X132903202Y-87101824D01*
X132854766Y-87150261D01*
X132854766Y-87150262D01*
X132847897Y-87157131D01*
X132847893Y-87157132D01*
X132802199Y-87202826D01*
X132749874Y-87224500D01*
X132593480Y-87224500D01*
X132499695Y-87239353D01*
X132499693Y-87239354D01*
X132386657Y-87296950D01*
X132296951Y-87386656D01*
X132296950Y-87386658D01*
X132258045Y-87463014D01*
X132239353Y-87499698D01*
X132224500Y-87593480D01*
X132224500Y-88206519D01*
X132239353Y-88300304D01*
X132239354Y-88300306D01*
X132288427Y-88396615D01*
X132296950Y-88413342D01*
X132386658Y-88503050D01*
X132499696Y-88560646D01*
X132593481Y-88575500D01*
X133056518Y-88575499D01*
X133056519Y-88575499D01*
X133150304Y-88560646D01*
X133150306Y-88560645D01*
X133157407Y-88557027D01*
X133263342Y-88503050D01*
X133353050Y-88413342D01*
X133410646Y-88300304D01*
X133425500Y-88206519D01*
X133425499Y-87593482D01*
X133420667Y-87562974D01*
X133409735Y-87493943D01*
X133411661Y-87493637D01*
X133415523Y-87444569D01*
X133429132Y-87425838D01*
X133521751Y-87333219D01*
X133568174Y-87286795D01*
X133620500Y-87265122D01*
X133672826Y-87286796D01*
X133694500Y-87339122D01*
X133694500Y-88975500D01*
X133672826Y-89027826D01*
X133620500Y-89049500D01*
X133217117Y-89049500D01*
X133183522Y-89041435D01*
X133083126Y-88990280D01*
X132983489Y-88974500D01*
X132983488Y-88974500D01*
X132416512Y-88974500D01*
X132416511Y-88974500D01*
X132316874Y-88990280D01*
X132316873Y-88990281D01*
X132196780Y-89051471D01*
X132101471Y-89146780D01*
X132040281Y-89266873D01*
X132040280Y-89266874D01*
X132024500Y-89366511D01*
X132024500Y-89883488D01*
X132040280Y-89983125D01*
X132040281Y-89983126D01*
X132101344Y-90102970D01*
X132101472Y-90103220D01*
X132196780Y-90198528D01*
X132316874Y-90259719D01*
X132416511Y-90275500D01*
X132416512Y-90275500D01*
X132983489Y-90275500D01*
X133054543Y-90264246D01*
X133083126Y-90259719D01*
X133203220Y-90198528D01*
X133298528Y-90103220D01*
X133355756Y-89990904D01*
X133398823Y-89954122D01*
X133421690Y-89950500D01*
X133699519Y-89950500D01*
X133751845Y-89972174D01*
X133759386Y-89981004D01*
X133774556Y-90001883D01*
X133798797Y-90029628D01*
X133877307Y-90076536D01*
X133935498Y-90095443D01*
X133989459Y-90103989D01*
X133998999Y-90105500D01*
X133999000Y-90105500D01*
X137745498Y-90105500D01*
X137745500Y-90105500D01*
X137764693Y-90103989D01*
X137818558Y-90121490D01*
X137844272Y-90171953D01*
X137844500Y-90177761D01*
X137844500Y-95900000D01*
X137844826Y-95914109D01*
X137870530Y-96023398D01*
X137933979Y-96116021D01*
X138933979Y-97116021D01*
X138944186Y-97125767D01*
X139039641Y-97184870D01*
X139150000Y-97205500D01*
X150650009Y-97205500D01*
X150652346Y-97205445D01*
X150664109Y-97205174D01*
X150773398Y-97179470D01*
X150866021Y-97116021D01*
X151647684Y-96334358D01*
X159000000Y-96334358D01*
X159000000Y-96850000D01*
X161900000Y-96850000D01*
X162300000Y-96850000D01*
X165200000Y-96850000D01*
X165200000Y-96334358D01*
X165197099Y-96297506D01*
X165151281Y-96139800D01*
X165067682Y-95998443D01*
X164951556Y-95882317D01*
X164810199Y-95798718D01*
X164652491Y-95752900D01*
X164652494Y-95752900D01*
X164615641Y-95750000D01*
X162300000Y-95750000D01*
X162300000Y-96850000D01*
X161900000Y-96850000D01*
X161900000Y-95750000D01*
X159584359Y-95750000D01*
X159547506Y-95752900D01*
X159389800Y-95798718D01*
X159248443Y-95882317D01*
X159132317Y-95998443D01*
X159048718Y-96139800D01*
X159002900Y-96297506D01*
X159000000Y-96334358D01*
X151647684Y-96334358D01*
X151866021Y-96116021D01*
X151875767Y-96105814D01*
X151934870Y-96010359D01*
X151955500Y-95900000D01*
X151955500Y-95265641D01*
X155400000Y-95265641D01*
X155402900Y-95302493D01*
X155448718Y-95460199D01*
X155532317Y-95601556D01*
X155648443Y-95717682D01*
X155789800Y-95801281D01*
X155947508Y-95847099D01*
X155947505Y-95847099D01*
X155984359Y-95850000D01*
X156500000Y-95850000D01*
X156900000Y-95850000D01*
X157415641Y-95850000D01*
X157452493Y-95847099D01*
X157610199Y-95801281D01*
X157751556Y-95717682D01*
X157867682Y-95601556D01*
X157951281Y-95460199D01*
X157997099Y-95302493D01*
X158000000Y-95265641D01*
X158000000Y-95075000D01*
X156900000Y-95075000D01*
X156900000Y-95850000D01*
X156500000Y-95850000D01*
X156500000Y-95075000D01*
X155400000Y-95075000D01*
X155400000Y-95265641D01*
X151955500Y-95265641D01*
X151955500Y-94484358D01*
X155400000Y-94484358D01*
X155400000Y-94675000D01*
X156500000Y-94675000D01*
X156500000Y-93900000D01*
X155984359Y-93900000D01*
X155947506Y-93902900D01*
X155789800Y-93948718D01*
X155648443Y-94032317D01*
X155532317Y-94148443D01*
X155448718Y-94289800D01*
X155402900Y-94447506D01*
X155400000Y-94484358D01*
X151955500Y-94484358D01*
X151955500Y-91545734D01*
X155599500Y-91545734D01*
X155599500Y-92304266D01*
X155602354Y-92334699D01*
X155602354Y-92334701D01*
X155602355Y-92334704D01*
X155647206Y-92462881D01*
X155647207Y-92462883D01*
X155727846Y-92572146D01*
X155727853Y-92572153D01*
X155837116Y-92652792D01*
X155837118Y-92652793D01*
X155965295Y-92697644D01*
X155965301Y-92697646D01*
X155995734Y-92700500D01*
X156051015Y-92700500D01*
X156103341Y-92722174D01*
X156119381Y-92746179D01*
X156125286Y-92760435D01*
X156184416Y-92903189D01*
X156184417Y-92903191D01*
X156268301Y-93048480D01*
X156304178Y-93110621D01*
X156449989Y-93300645D01*
X156449993Y-93300649D01*
X156484022Y-93334678D01*
X156484029Y-93334686D01*
X156812416Y-93663073D01*
X156812419Y-93663079D01*
X156899807Y-93750468D01*
X156921732Y-93767292D01*
X156950050Y-93816342D01*
X156935391Y-93871049D01*
X156920154Y-93879845D01*
X156900000Y-93900000D01*
X156900000Y-94675000D01*
X158000000Y-94675000D01*
X158000000Y-94484358D01*
X157997099Y-94447506D01*
X157951281Y-94289800D01*
X157920155Y-94237169D01*
X157912175Y-94181097D01*
X157946181Y-94135805D01*
X157983850Y-94125500D01*
X158768991Y-94125500D01*
X158768993Y-94125500D01*
X158852468Y-94108895D01*
X158908017Y-94119944D01*
X158911952Y-94122764D01*
X158945419Y-94148443D01*
X159067882Y-94242409D01*
X159284450Y-94367442D01*
X159515485Y-94463138D01*
X159757034Y-94527860D01*
X160004965Y-94560500D01*
X160004967Y-94560500D01*
X160729094Y-94560500D01*
X160729252Y-94560488D01*
X160745738Y-94560490D01*
X160879852Y-94539255D01*
X161008993Y-94497300D01*
X161129980Y-94435658D01*
X161239833Y-94355847D01*
X161243257Y-94352422D01*
X161243273Y-94352411D01*
X161243272Y-94352410D01*
X161266162Y-94329520D01*
X161266179Y-94329512D01*
X161287845Y-94307845D01*
X161287846Y-94307846D01*
X161333003Y-94262689D01*
X161408076Y-94159358D01*
X161466060Y-94045555D01*
X161505526Y-93924082D01*
X161505527Y-93924076D01*
X161505529Y-93924068D01*
X161525501Y-93797934D01*
X161525502Y-93797930D01*
X161525500Y-93734068D01*
X161525500Y-93722500D01*
X161525500Y-92515478D01*
X161547174Y-92463152D01*
X161550786Y-92459540D01*
X161570747Y-92439579D01*
X161619259Y-92335545D01*
X161625500Y-92288139D01*
X161625499Y-91011862D01*
X161619259Y-90964455D01*
X161570747Y-90860421D01*
X161489579Y-90779253D01*
X161385545Y-90730741D01*
X161385543Y-90730740D01*
X161350619Y-90726142D01*
X161338139Y-90724500D01*
X161338137Y-90724500D01*
X161011862Y-90724500D01*
X160964456Y-90730740D01*
X160964451Y-90730742D01*
X160881272Y-90769529D01*
X160824689Y-90771999D01*
X160818732Y-90769532D01*
X160735545Y-90730741D01*
X160735543Y-90730740D01*
X160700619Y-90726142D01*
X160688139Y-90724500D01*
X160688137Y-90724500D01*
X160361862Y-90724500D01*
X160314456Y-90730740D01*
X160314451Y-90730742D01*
X160231272Y-90769529D01*
X160174689Y-90771999D01*
X160168732Y-90769532D01*
X160085545Y-90730741D01*
X160085543Y-90730740D01*
X160050619Y-90726142D01*
X160038139Y-90724500D01*
X160038137Y-90724500D01*
X159711862Y-90724500D01*
X159664456Y-90730740D01*
X159664451Y-90730742D01*
X159581272Y-90769529D01*
X159524689Y-90771999D01*
X159518732Y-90769532D01*
X159435545Y-90730741D01*
X159435543Y-90730740D01*
X159400619Y-90726142D01*
X159388139Y-90724500D01*
X159388137Y-90724500D01*
X159061862Y-90724500D01*
X159014456Y-90730740D01*
X159014454Y-90730741D01*
X158910420Y-90779253D01*
X158829253Y-90860420D01*
X158780740Y-90964456D01*
X158774500Y-91011862D01*
X158774500Y-92155112D01*
X158774341Y-92159953D01*
X158763333Y-92327845D01*
X158762070Y-92337442D01*
X158729713Y-92500102D01*
X158727207Y-92509448D01*
X158701897Y-92584009D01*
X158673902Y-92666475D01*
X158670202Y-92675410D01*
X158666350Y-92683223D01*
X158623771Y-92720571D01*
X158599978Y-92724500D01*
X157988374Y-92724500D01*
X157988358Y-92724499D01*
X157909750Y-92724499D01*
X157900092Y-92723866D01*
X157883478Y-92721679D01*
X157864818Y-92716679D01*
X157853850Y-92712136D01*
X157837120Y-92702477D01*
X157823840Y-92692287D01*
X157816562Y-92685905D01*
X157730197Y-92599540D01*
X157708523Y-92547214D01*
X157722982Y-92503273D01*
X157752793Y-92462882D01*
X157797646Y-92334699D01*
X157800500Y-92304266D01*
X157800500Y-91545734D01*
X157797646Y-91515301D01*
X157752793Y-91387118D01*
X157751625Y-91385535D01*
X157672153Y-91277853D01*
X157672146Y-91277846D01*
X157562883Y-91197207D01*
X157562881Y-91197206D01*
X157434704Y-91152355D01*
X157434705Y-91152355D01*
X157434700Y-91152354D01*
X157434699Y-91152354D01*
X157404266Y-91149500D01*
X155995734Y-91149500D01*
X155965301Y-91152354D01*
X155965299Y-91152354D01*
X155965295Y-91152355D01*
X155837118Y-91197206D01*
X155837116Y-91197207D01*
X155727853Y-91277846D01*
X155727846Y-91277853D01*
X155647207Y-91387116D01*
X155647206Y-91387118D01*
X155602355Y-91515295D01*
X155602354Y-91515299D01*
X155602354Y-91515301D01*
X155599500Y-91545734D01*
X151955500Y-91545734D01*
X151955500Y-90268518D01*
X161800000Y-90268518D01*
X161800000Y-90900000D01*
X162653589Y-90900000D01*
X162627259Y-90945606D01*
X162600000Y-91047339D01*
X162600000Y-91152661D01*
X162627259Y-91254394D01*
X162653590Y-91300000D01*
X161800001Y-91300000D01*
X161800001Y-91931482D01*
X161814834Y-92025148D01*
X161814835Y-92025149D01*
X161872360Y-92138046D01*
X161961953Y-92227639D01*
X162074850Y-92285164D01*
X162168518Y-92299999D01*
X162800000Y-92299999D01*
X162800000Y-91446410D01*
X162845606Y-91472741D01*
X162947339Y-91500000D01*
X163052661Y-91500000D01*
X163154394Y-91472741D01*
X163200000Y-91446410D01*
X163200000Y-92299999D01*
X163831481Y-92299999D01*
X163925148Y-92285165D01*
X163925149Y-92285164D01*
X164038046Y-92227639D01*
X164127639Y-92138046D01*
X164185164Y-92025149D01*
X164185164Y-92025148D01*
X164200000Y-91931481D01*
X164200000Y-91300000D01*
X163346410Y-91300000D01*
X163372741Y-91254394D01*
X163400000Y-91152661D01*
X163400000Y-91047339D01*
X163372741Y-90945606D01*
X163346411Y-90900000D01*
X164199999Y-90900000D01*
X164199999Y-90268517D01*
X164185165Y-90174851D01*
X164185164Y-90174850D01*
X164127639Y-90061953D01*
X164038046Y-89972360D01*
X164037239Y-89971774D01*
X164036889Y-89971203D01*
X164033927Y-89968241D01*
X164034637Y-89967530D01*
X164007642Y-89923485D01*
X164020859Y-89868412D01*
X164060085Y-89840841D01*
X164110199Y-89826281D01*
X164251556Y-89742682D01*
X164367682Y-89626556D01*
X164451281Y-89485199D01*
X164497099Y-89327493D01*
X164500000Y-89290641D01*
X164500000Y-89100000D01*
X161900000Y-89100000D01*
X161900000Y-89290641D01*
X161902900Y-89327493D01*
X161948718Y-89485199D01*
X162032317Y-89626556D01*
X162148444Y-89742683D01*
X162185582Y-89764646D01*
X162219589Y-89809937D01*
X162211609Y-89866009D01*
X162166318Y-89900016D01*
X162159490Y-89901430D01*
X162074851Y-89914835D01*
X162074850Y-89914835D01*
X161961953Y-89972360D01*
X161872360Y-90061953D01*
X161814835Y-90174850D01*
X161814835Y-90174851D01*
X161800000Y-90268518D01*
X151955500Y-90268518D01*
X151955500Y-89230000D01*
X153309196Y-89230000D01*
X153330280Y-89363126D01*
X153391471Y-89483219D01*
X153391472Y-89483220D01*
X153486780Y-89578528D01*
X153606873Y-89639718D01*
X153606873Y-89639719D01*
X153625075Y-89642601D01*
X153740000Y-89660804D01*
X153873126Y-89639719D01*
X153993220Y-89578528D01*
X154088528Y-89483220D01*
X154149719Y-89363126D01*
X154170804Y-89230000D01*
X154149719Y-89096874D01*
X154149719Y-89096873D01*
X154088528Y-88976780D01*
X153993219Y-88881471D01*
X153873126Y-88820281D01*
X153873126Y-88820280D01*
X153740000Y-88799196D01*
X153606873Y-88820280D01*
X153606873Y-88820281D01*
X153486780Y-88881471D01*
X153391471Y-88976780D01*
X153330281Y-89096873D01*
X153330280Y-89096873D01*
X153309196Y-89230000D01*
X151955500Y-89230000D01*
X151955500Y-88900000D01*
X151955174Y-88885891D01*
X151929470Y-88776602D01*
X151866021Y-88683979D01*
X151782042Y-88600000D01*
X154969196Y-88600000D01*
X154990280Y-88733126D01*
X155051471Y-88853219D01*
X155051472Y-88853220D01*
X155146780Y-88948528D01*
X155266873Y-89009718D01*
X155266873Y-89009719D01*
X155285075Y-89012601D01*
X155400000Y-89030804D01*
X155533126Y-89009719D01*
X155653220Y-88948528D01*
X155748528Y-88853220D01*
X155809719Y-88733126D01*
X155830804Y-88600000D01*
X155810098Y-88469268D01*
X155809719Y-88466873D01*
X155748528Y-88346780D01*
X155653219Y-88251471D01*
X155533126Y-88190281D01*
X155533126Y-88190280D01*
X155433073Y-88174434D01*
X155424578Y-88173088D01*
X155404752Y-88160938D01*
X155375420Y-88173089D01*
X155266874Y-88190280D01*
X155266873Y-88190281D01*
X155146780Y-88251471D01*
X155051471Y-88346780D01*
X154990281Y-88466873D01*
X154990280Y-88466873D01*
X154969196Y-88600000D01*
X151782042Y-88600000D01*
X151627870Y-88445828D01*
X151606196Y-88393502D01*
X151627870Y-88341176D01*
X151646600Y-88327568D01*
X151671658Y-88314800D01*
X151723220Y-88288528D01*
X151818528Y-88193220D01*
X151879719Y-88073126D01*
X151900804Y-87940000D01*
X151879719Y-87806874D01*
X151879719Y-87806873D01*
X151818528Y-87686780D01*
X151723219Y-87591471D01*
X151603126Y-87530281D01*
X151603126Y-87530280D01*
X151470000Y-87509196D01*
X151336873Y-87530280D01*
X151336873Y-87530281D01*
X151216780Y-87591471D01*
X151121473Y-87686778D01*
X151082432Y-87763400D01*
X151039365Y-87800182D01*
X150982902Y-87795738D01*
X150964172Y-87782130D01*
X150866020Y-87683978D01*
X150865513Y-87683494D01*
X150855814Y-87674233D01*
X150845663Y-87667948D01*
X150760359Y-87615130D01*
X150650003Y-87594500D01*
X150650000Y-87594500D01*
X149835713Y-87594500D01*
X149783387Y-87572826D01*
X149761713Y-87520500D01*
X149783387Y-87468174D01*
X149802115Y-87454567D01*
X149853220Y-87428528D01*
X149948528Y-87333220D01*
X150009719Y-87213126D01*
X150030804Y-87080000D01*
X150009719Y-86946874D01*
X150009719Y-86946873D01*
X149948528Y-86826780D01*
X149853219Y-86731471D01*
X149791453Y-86700000D01*
X150569196Y-86700000D01*
X150590280Y-86833126D01*
X150649081Y-86948528D01*
X150651472Y-86953220D01*
X150746780Y-87048528D01*
X150866873Y-87109718D01*
X150866873Y-87109719D01*
X150885075Y-87112601D01*
X151000000Y-87130804D01*
X151068214Y-87120000D01*
X153279196Y-87120000D01*
X153300280Y-87253126D01*
X153361471Y-87373219D01*
X153456780Y-87468528D01*
X153558472Y-87520343D01*
X153576874Y-87529719D01*
X153576880Y-87529719D01*
X153581574Y-87531245D01*
X153624642Y-87568028D01*
X153629087Y-87624490D01*
X153592304Y-87667558D01*
X153591833Y-87667754D01*
X153466780Y-87731471D01*
X153371471Y-87826780D01*
X153310281Y-87946873D01*
X153310280Y-87946873D01*
X153289196Y-88080000D01*
X153310280Y-88213126D01*
X153368592Y-88327568D01*
X153371472Y-88333220D01*
X153466780Y-88428528D01*
X153586873Y-88489718D01*
X153586873Y-88489719D01*
X153605075Y-88492601D01*
X153720000Y-88510804D01*
X153853126Y-88489719D01*
X153973220Y-88428528D01*
X154068528Y-88333220D01*
X154129719Y-88213126D01*
X154150804Y-88080000D01*
X154129719Y-87946874D01*
X154129719Y-87946873D01*
X154068528Y-87826780D01*
X153973219Y-87731471D01*
X153853126Y-87670281D01*
X153848421Y-87668752D01*
X153805355Y-87631967D01*
X153802841Y-87600000D01*
X154969196Y-87600000D01*
X154990280Y-87733126D01*
X155051471Y-87853219D01*
X155051472Y-87853220D01*
X155146780Y-87948528D01*
X155266874Y-88009719D01*
X155375420Y-88026911D01*
X155395246Y-88039061D01*
X155424578Y-88026911D01*
X155533126Y-88009719D01*
X155653220Y-87948528D01*
X155748528Y-87853220D01*
X155809719Y-87733126D01*
X155830804Y-87600000D01*
X155809719Y-87466874D01*
X155809719Y-87466873D01*
X155748528Y-87346780D01*
X155653219Y-87251471D01*
X155533126Y-87190281D01*
X155533126Y-87190280D01*
X155433073Y-87174434D01*
X155424578Y-87173088D01*
X155404752Y-87160938D01*
X155375420Y-87173089D01*
X155266874Y-87190280D01*
X155266873Y-87190281D01*
X155146780Y-87251471D01*
X155051471Y-87346780D01*
X154990281Y-87466873D01*
X154990280Y-87466873D01*
X154969196Y-87600000D01*
X153802841Y-87600000D01*
X153800914Y-87575505D01*
X153837699Y-87532439D01*
X153838170Y-87532244D01*
X153843126Y-87529719D01*
X153963220Y-87468528D01*
X154058528Y-87373220D01*
X154119719Y-87253126D01*
X154140804Y-87120000D01*
X154121350Y-86997173D01*
X154119719Y-86986873D01*
X154058528Y-86866780D01*
X153963219Y-86771471D01*
X153843126Y-86710281D01*
X153843126Y-86710280D01*
X153710000Y-86689196D01*
X153576873Y-86710280D01*
X153576873Y-86710281D01*
X153456780Y-86771471D01*
X153361471Y-86866780D01*
X153300281Y-86986873D01*
X153300280Y-86986873D01*
X153279196Y-87120000D01*
X151068214Y-87120000D01*
X151133126Y-87109719D01*
X151253220Y-87048528D01*
X151348528Y-86953220D01*
X151409719Y-86833126D01*
X151430804Y-86700000D01*
X151414966Y-86600000D01*
X154969196Y-86600000D01*
X154990280Y-86733126D01*
X155051471Y-86853219D01*
X155051472Y-86853220D01*
X155146780Y-86948528D01*
X155266874Y-87009719D01*
X155375420Y-87026911D01*
X155395246Y-87039061D01*
X155424578Y-87026911D01*
X155533126Y-87009719D01*
X155653220Y-86948528D01*
X155748528Y-86853220D01*
X155804443Y-86743480D01*
X156924500Y-86743480D01*
X156924500Y-87206519D01*
X156939353Y-87300304D01*
X156939354Y-87300306D01*
X156983353Y-87386656D01*
X156996950Y-87413342D01*
X157086658Y-87503050D01*
X157199696Y-87560646D01*
X157293481Y-87575500D01*
X157684520Y-87575499D01*
X157736846Y-87597173D01*
X158057710Y-87918036D01*
X158078473Y-87958785D01*
X158094393Y-88059292D01*
X158133717Y-88180309D01*
X158191486Y-88293676D01*
X158191487Y-88293678D01*
X158230073Y-88346780D01*
X158266284Y-88396615D01*
X158311272Y-88441600D01*
X158358160Y-88488486D01*
X158358162Y-88488492D01*
X158431038Y-88561368D01*
X158551455Y-88641827D01*
X158685245Y-88697244D01*
X158685250Y-88697245D01*
X158685256Y-88697248D01*
X158827297Y-88725500D01*
X159388059Y-88725500D01*
X159388103Y-88725497D01*
X159412703Y-88725497D01*
X159554744Y-88697245D01*
X159688543Y-88641824D01*
X159808960Y-88561365D01*
X159813292Y-88557032D01*
X159813303Y-88557027D01*
X159813301Y-88557025D01*
X159823709Y-88546617D01*
X159860163Y-88510163D01*
X159860968Y-88509358D01*
X161900000Y-88509358D01*
X161900000Y-88700000D01*
X163000000Y-88700000D01*
X163400000Y-88700000D01*
X164500000Y-88700000D01*
X164500000Y-88509358D01*
X164497099Y-88472506D01*
X164451281Y-88314800D01*
X164367682Y-88173443D01*
X164251556Y-88057317D01*
X164110199Y-87973718D01*
X163952491Y-87927900D01*
X163952494Y-87927900D01*
X163915641Y-87925000D01*
X163400000Y-87925000D01*
X163400000Y-88700000D01*
X163000000Y-88700000D01*
X163000000Y-87925000D01*
X162484359Y-87925000D01*
X162447506Y-87927900D01*
X162289800Y-87973718D01*
X162148443Y-88057317D01*
X162032317Y-88173443D01*
X161948718Y-88314800D01*
X161902900Y-88472506D01*
X161900000Y-88509358D01*
X159860968Y-88509358D01*
X159896617Y-88473709D01*
X159896617Y-88473707D01*
X159901057Y-88469268D01*
X159901115Y-88469200D01*
X159905448Y-88464867D01*
X159924822Y-88445494D01*
X160030721Y-88299736D01*
X160079012Y-88270144D01*
X160080920Y-88269867D01*
X160085545Y-88269259D01*
X160085547Y-88269258D01*
X160085548Y-88269258D01*
X160168726Y-88230471D01*
X160225309Y-88228000D01*
X160231255Y-88230462D01*
X160314455Y-88269259D01*
X160361861Y-88275500D01*
X160601197Y-88275499D01*
X160653523Y-88297173D01*
X160660160Y-88304784D01*
X160675279Y-88324721D01*
X160790273Y-88411924D01*
X160924529Y-88464867D01*
X160975000Y-88470929D01*
X160975000Y-88470928D01*
X161375000Y-88470928D01*
X161425470Y-88464867D01*
X161559726Y-88411924D01*
X161674720Y-88324721D01*
X161674721Y-88324720D01*
X161761924Y-88209726D01*
X161814867Y-88075470D01*
X161825000Y-87991103D01*
X161825000Y-87550000D01*
X161375000Y-87550000D01*
X161375000Y-88470928D01*
X160975000Y-88470928D01*
X160975000Y-87996788D01*
X160975407Y-87990562D01*
X160975341Y-87990558D01*
X160975497Y-87988160D01*
X160975500Y-87988139D01*
X160975499Y-87223999D01*
X160997173Y-87171674D01*
X161049499Y-87150000D01*
X161825000Y-87150000D01*
X161825000Y-86708896D01*
X161814867Y-86624529D01*
X161761924Y-86490273D01*
X161674721Y-86375279D01*
X161674719Y-86375277D01*
X161619579Y-86333463D01*
X161590982Y-86284576D01*
X161605330Y-86229786D01*
X161654217Y-86201189D01*
X161664293Y-86200500D01*
X162025500Y-86200500D01*
X162077826Y-86222174D01*
X162099500Y-86274500D01*
X162099500Y-86329266D01*
X162102354Y-86359699D01*
X162102354Y-86359701D01*
X162102355Y-86359704D01*
X162147206Y-86487881D01*
X162147207Y-86487883D01*
X162227846Y-86597146D01*
X162227853Y-86597153D01*
X162337116Y-86677792D01*
X162337118Y-86677793D01*
X162465295Y-86722644D01*
X162465301Y-86722646D01*
X162495734Y-86725500D01*
X163684076Y-86725500D01*
X163707861Y-86729426D01*
X163860463Y-86781227D01*
X163869401Y-86784929D01*
X163926769Y-86813219D01*
X164064587Y-86881182D01*
X164072970Y-86886022D01*
X164253918Y-87006925D01*
X164261597Y-87012817D01*
X164302319Y-87048528D01*
X164418327Y-87150262D01*
X164426889Y-87157770D01*
X164430424Y-87161081D01*
X164693518Y-87424175D01*
X164695737Y-87426493D01*
X164876156Y-87623385D01*
X164914814Y-87665573D01*
X164918960Y-87670516D01*
X165070865Y-87868481D01*
X165115349Y-87926454D01*
X165119052Y-87931742D01*
X165292392Y-88203833D01*
X165295620Y-88209424D01*
X165444585Y-88495585D01*
X165447313Y-88501435D01*
X165570773Y-88799493D01*
X165572981Y-88805560D01*
X165669991Y-89113238D01*
X165671662Y-89119474D01*
X165741487Y-89434440D01*
X165742608Y-89440798D01*
X165784715Y-89760648D01*
X165785278Y-89767078D01*
X165799430Y-90091215D01*
X165799500Y-90094443D01*
X165799500Y-90349987D01*
X165782703Y-90396932D01*
X165664089Y-90541463D01*
X165571187Y-90715268D01*
X165513976Y-90903866D01*
X165494659Y-91100000D01*
X165513976Y-91296133D01*
X165571187Y-91484731D01*
X165649265Y-91630803D01*
X165664090Y-91658538D01*
X165789117Y-91810883D01*
X165941462Y-91935910D01*
X166018426Y-91977048D01*
X166115268Y-92028812D01*
X166115270Y-92028812D01*
X166115273Y-92028814D01*
X166303868Y-92086024D01*
X166500000Y-92105341D01*
X166693401Y-92086292D01*
X166732758Y-92093265D01*
X166770476Y-92111429D01*
X166770478Y-92111429D01*
X166770485Y-92111433D01*
X167021206Y-92199161D01*
X167280172Y-92258265D01*
X167544128Y-92288002D01*
X167676941Y-92288000D01*
X168768993Y-92288000D01*
X168904328Y-92261080D01*
X168982748Y-92228596D01*
X168999477Y-92223878D01*
X169087420Y-92209951D01*
X169205751Y-92149658D01*
X169299658Y-92055751D01*
X169359951Y-91937420D01*
X169375500Y-91839246D01*
X169375500Y-91789463D01*
X169376922Y-91775026D01*
X169400093Y-91658538D01*
X169400500Y-91656493D01*
X169400500Y-91518507D01*
X169387514Y-91453220D01*
X169376922Y-91399971D01*
X169375500Y-91385535D01*
X169375500Y-91335753D01*
X169369837Y-91300000D01*
X169359951Y-91237580D01*
X169329804Y-91178414D01*
X169299659Y-91119250D01*
X169205749Y-91025340D01*
X169087420Y-90965049D01*
X168999480Y-90951120D01*
X168982739Y-90946398D01*
X168904332Y-90913921D01*
X168904322Y-90913918D01*
X168813694Y-90895891D01*
X168768993Y-90887000D01*
X168768991Y-90887000D01*
X167760389Y-90887000D01*
X167760373Y-90886999D01*
X167679823Y-90886999D01*
X167674018Y-90886771D01*
X167531929Y-90875591D01*
X167520458Y-90873774D01*
X167514702Y-90872392D01*
X167468882Y-90839101D01*
X167461164Y-90821918D01*
X167448222Y-90779253D01*
X167428814Y-90715273D01*
X167428812Y-90715270D01*
X167428812Y-90715268D01*
X167367986Y-90601472D01*
X167335910Y-90541462D01*
X167217297Y-90396932D01*
X167200500Y-90349987D01*
X167200500Y-90020142D01*
X167200491Y-90019956D01*
X167200491Y-89889370D01*
X167195526Y-89826281D01*
X167193841Y-89804873D01*
X168022470Y-89804873D01*
X168022470Y-89804874D01*
X168023589Y-89811939D01*
X168024500Y-89823516D01*
X168024500Y-90264246D01*
X168040049Y-90362420D01*
X168100340Y-90480749D01*
X168194250Y-90574659D01*
X168246872Y-90601471D01*
X168312579Y-90634950D01*
X168312579Y-90634951D01*
X168410753Y-90650500D01*
X168410754Y-90650500D01*
X168913815Y-90650500D01*
X168925390Y-90651410D01*
X168943164Y-90654226D01*
X168960937Y-90651410D01*
X168972513Y-90650500D01*
X168989247Y-90650500D01*
X169087420Y-90634951D01*
X169205751Y-90574658D01*
X169299658Y-90480751D01*
X169359951Y-90362420D01*
X169375500Y-90264246D01*
X169375500Y-89760754D01*
X169359951Y-89662580D01*
X169299658Y-89544249D01*
X169205751Y-89450342D01*
X169205749Y-89450340D01*
X169087420Y-89390049D01*
X169087420Y-89390048D01*
X168989247Y-89374500D01*
X168989246Y-89374500D01*
X168461805Y-89374500D01*
X168456352Y-89374071D01*
X168450196Y-89374071D01*
X168444743Y-89374500D01*
X168410753Y-89374500D01*
X168312579Y-89390048D01*
X168312579Y-89390049D01*
X168194250Y-89450340D01*
X168100340Y-89544250D01*
X168040049Y-89662579D01*
X168040048Y-89662579D01*
X168024500Y-89760753D01*
X168024500Y-89786233D01*
X168023589Y-89797808D01*
X168022470Y-89804873D01*
X167193841Y-89804873D01*
X167168599Y-89484118D01*
X167105009Y-89082618D01*
X167105007Y-89082613D01*
X167105005Y-89082599D01*
X167010118Y-88687360D01*
X167010117Y-88687357D01*
X167010114Y-88687344D01*
X166884498Y-88300735D01*
X166728936Y-87925173D01*
X166544387Y-87562974D01*
X166544384Y-87562969D01*
X166544382Y-87562965D01*
X166544381Y-87562964D01*
X166436339Y-87386656D01*
X166331989Y-87216372D01*
X166151479Y-86967920D01*
X166093053Y-86887503D01*
X166000521Y-86779162D01*
X165829049Y-86578394D01*
X165738337Y-86487682D01*
X165738325Y-86487668D01*
X165441183Y-86190526D01*
X165441170Y-86190495D01*
X165407465Y-86156791D01*
X165310471Y-86059798D01*
X165310469Y-86059796D01*
X165310461Y-86059788D01*
X165072083Y-85864162D01*
X165072067Y-85864150D01*
X165046070Y-85846780D01*
X164815640Y-85692814D01*
X164815626Y-85692806D01*
X164543656Y-85547438D01*
X164543649Y-85547435D01*
X164287478Y-85441327D01*
X164258441Y-85414840D01*
X164256086Y-85416579D01*
X164172153Y-85302853D01*
X164172146Y-85302846D01*
X164062883Y-85222207D01*
X164062881Y-85222206D01*
X163934704Y-85177355D01*
X163934705Y-85177355D01*
X163934700Y-85177354D01*
X163934699Y-85177354D01*
X163904266Y-85174500D01*
X163904260Y-85174500D01*
X163376168Y-85174500D01*
X163336798Y-85163158D01*
X163269018Y-85120569D01*
X163197338Y-85075529D01*
X163197337Y-85075528D01*
X163197333Y-85075526D01*
X163033815Y-84996780D01*
X162970976Y-84966518D01*
X162970972Y-84966516D01*
X162970963Y-84966512D01*
X162733840Y-84883540D01*
X162733828Y-84883536D01*
X162488893Y-84827631D01*
X162390315Y-84816524D01*
X162239227Y-84799500D01*
X162239222Y-84799500D01*
X160649500Y-84799500D01*
X160597174Y-84777826D01*
X160575500Y-84725500D01*
X160575500Y-84521544D01*
X160597174Y-84469218D01*
X160653050Y-84413342D01*
X160710646Y-84300304D01*
X160725500Y-84206519D01*
X160725499Y-83593482D01*
X160724942Y-83589967D01*
X160710694Y-83500000D01*
X161177039Y-83500000D01*
X161196356Y-83696133D01*
X161253567Y-83884731D01*
X161324200Y-84016874D01*
X161346470Y-84058538D01*
X161471497Y-84210883D01*
X161623842Y-84335910D01*
X161666640Y-84358786D01*
X161797648Y-84428812D01*
X161797650Y-84428812D01*
X161797653Y-84428814D01*
X161986248Y-84486024D01*
X162182380Y-84505341D01*
X162378512Y-84486024D01*
X162567107Y-84428814D01*
X162740918Y-84335910D01*
X162893263Y-84210883D01*
X163018290Y-84058538D01*
X163111194Y-83884727D01*
X163168404Y-83696132D01*
X163187721Y-83500000D01*
X163168404Y-83303868D01*
X163111194Y-83115273D01*
X163111192Y-83115270D01*
X163111192Y-83115268D01*
X163034119Y-82971076D01*
X163018290Y-82941462D01*
X162893263Y-82789117D01*
X162746314Y-82668518D01*
X163482380Y-82668518D01*
X163482380Y-83300000D01*
X164335969Y-83300000D01*
X164309639Y-83345606D01*
X164282380Y-83447339D01*
X164282380Y-83552661D01*
X164309639Y-83654394D01*
X164335970Y-83700000D01*
X163482381Y-83700000D01*
X163482381Y-84331482D01*
X163497214Y-84425148D01*
X163497215Y-84425149D01*
X163554740Y-84538046D01*
X163644333Y-84627639D01*
X163757230Y-84685164D01*
X163850898Y-84699999D01*
X164482380Y-84699999D01*
X164482380Y-83846410D01*
X164527986Y-83872741D01*
X164629719Y-83900000D01*
X164735041Y-83900000D01*
X164836774Y-83872741D01*
X164882380Y-83846410D01*
X164882380Y-84699999D01*
X165513861Y-84699999D01*
X165607528Y-84685165D01*
X165607529Y-84685164D01*
X165720426Y-84627639D01*
X165810019Y-84538046D01*
X165867544Y-84425149D01*
X165867544Y-84425148D01*
X165882380Y-84331481D01*
X165882380Y-83700000D01*
X165028790Y-83700000D01*
X165055121Y-83654394D01*
X165082380Y-83552661D01*
X165082380Y-83447339D01*
X165055121Y-83345606D01*
X165028791Y-83300000D01*
X165882379Y-83300000D01*
X165882379Y-82668517D01*
X165867545Y-82574851D01*
X165867544Y-82574850D01*
X165810019Y-82461953D01*
X165720426Y-82372360D01*
X165607529Y-82314835D01*
X165513862Y-82300000D01*
X164882380Y-82300000D01*
X164882380Y-83153589D01*
X164836774Y-83127259D01*
X164735041Y-83100000D01*
X164629719Y-83100000D01*
X164527986Y-83127259D01*
X164482380Y-83153589D01*
X164482380Y-82300000D01*
X163850898Y-82300000D01*
X163757231Y-82314834D01*
X163757230Y-82314835D01*
X163644333Y-82372360D01*
X163554740Y-82461953D01*
X163497215Y-82574850D01*
X163497215Y-82574851D01*
X163482380Y-82668518D01*
X162746314Y-82668518D01*
X162740918Y-82664090D01*
X162711190Y-82648200D01*
X162567111Y-82571187D01*
X162378513Y-82513976D01*
X162182380Y-82494659D01*
X161986246Y-82513976D01*
X161797648Y-82571187D01*
X161623843Y-82664089D01*
X161471497Y-82789117D01*
X161346469Y-82941463D01*
X161253567Y-83115268D01*
X161196356Y-83303866D01*
X161177039Y-83500000D01*
X160710694Y-83500000D01*
X160710646Y-83499695D01*
X160710645Y-83499693D01*
X160653049Y-83386657D01*
X160563343Y-83296951D01*
X160563342Y-83296950D01*
X160450304Y-83239354D01*
X160450302Y-83239353D01*
X160450301Y-83239353D01*
X160356519Y-83224500D01*
X159893480Y-83224500D01*
X159799695Y-83239353D01*
X159799693Y-83239354D01*
X159686657Y-83296950D01*
X159596951Y-83386656D01*
X159539353Y-83499698D01*
X159524500Y-83593480D01*
X159524500Y-84206519D01*
X159539353Y-84300304D01*
X159539354Y-84300306D01*
X159596950Y-84413342D01*
X159652826Y-84469218D01*
X159674500Y-84521544D01*
X159674500Y-84816524D01*
X159652826Y-84868850D01*
X159634096Y-84882458D01*
X159596780Y-84901471D01*
X159501471Y-84996780D01*
X159440281Y-85116873D01*
X159440280Y-85116874D01*
X159424500Y-85216511D01*
X159424500Y-85225232D01*
X159418867Y-85253550D01*
X159401421Y-85295667D01*
X159401418Y-85295677D01*
X159374500Y-85431008D01*
X159374500Y-85532744D01*
X159352826Y-85585070D01*
X159301826Y-85636070D01*
X159249500Y-85657744D01*
X159197174Y-85636070D01*
X159175500Y-85583744D01*
X159175500Y-85216511D01*
X159159719Y-85116874D01*
X159159718Y-85116873D01*
X159142747Y-85083566D01*
X159098528Y-84996780D01*
X159003220Y-84901472D01*
X158939196Y-84868850D01*
X158915904Y-84856982D01*
X158879122Y-84813915D01*
X158875500Y-84791048D01*
X158875500Y-84567678D01*
X158897174Y-84515352D01*
X158908895Y-84506838D01*
X158908630Y-84506474D01*
X158913340Y-84503051D01*
X158913339Y-84503051D01*
X158913342Y-84503050D01*
X159003050Y-84413342D01*
X159060646Y-84300304D01*
X159075500Y-84206519D01*
X159075499Y-83593482D01*
X159074942Y-83589967D01*
X159060646Y-83499695D01*
X159060645Y-83499693D01*
X159003049Y-83386657D01*
X158913343Y-83296951D01*
X158913342Y-83296950D01*
X158800304Y-83239354D01*
X158800302Y-83239353D01*
X158800301Y-83239353D01*
X158706519Y-83224500D01*
X158243480Y-83224500D01*
X158149695Y-83239353D01*
X158149693Y-83239354D01*
X158036657Y-83296950D01*
X157946951Y-83386656D01*
X157889353Y-83499698D01*
X157874500Y-83593480D01*
X157874500Y-84206519D01*
X157889353Y-84300304D01*
X157889354Y-84300306D01*
X157907496Y-84335910D01*
X157946950Y-84413342D01*
X158036658Y-84503050D01*
X158134096Y-84552697D01*
X158170878Y-84595764D01*
X158174500Y-84618631D01*
X158174500Y-84791048D01*
X158152826Y-84843374D01*
X158134096Y-84856982D01*
X158046778Y-84901473D01*
X157951471Y-84996780D01*
X157890281Y-85116873D01*
X157890280Y-85116874D01*
X157874500Y-85216511D01*
X157874500Y-85783488D01*
X157890280Y-85883125D01*
X157890281Y-85883126D01*
X157951471Y-86003219D01*
X157973210Y-86024958D01*
X157994884Y-86077284D01*
X157977153Y-86125344D01*
X157907777Y-86206571D01*
X157903834Y-86210837D01*
X157761845Y-86352826D01*
X157709519Y-86374500D01*
X157293480Y-86374500D01*
X157199695Y-86389353D01*
X157199693Y-86389354D01*
X157086657Y-86446950D01*
X156996951Y-86536656D01*
X156939353Y-86649698D01*
X156924500Y-86743480D01*
X155804443Y-86743480D01*
X155809719Y-86733126D01*
X155830804Y-86600000D01*
X155809719Y-86466874D01*
X155809719Y-86466873D01*
X155748528Y-86346780D01*
X155653219Y-86251471D01*
X155533126Y-86190281D01*
X155533126Y-86190280D01*
X155400000Y-86169196D01*
X155266873Y-86190280D01*
X155266873Y-86190281D01*
X155146780Y-86251471D01*
X155051471Y-86346780D01*
X154990281Y-86466873D01*
X154990280Y-86466873D01*
X154969196Y-86600000D01*
X151414966Y-86600000D01*
X151409719Y-86566874D01*
X151409719Y-86566873D01*
X151348528Y-86446780D01*
X151253219Y-86351471D01*
X151133126Y-86290281D01*
X151133126Y-86290280D01*
X151000000Y-86269196D01*
X150866873Y-86290280D01*
X150866873Y-86290281D01*
X150746780Y-86351471D01*
X150651471Y-86446780D01*
X150590281Y-86566873D01*
X150590280Y-86566873D01*
X150569196Y-86700000D01*
X149791453Y-86700000D01*
X149733126Y-86670281D01*
X149733126Y-86670280D01*
X149600000Y-86649196D01*
X149466873Y-86670280D01*
X149466873Y-86670281D01*
X149346780Y-86731471D01*
X149251471Y-86826780D01*
X149190281Y-86946873D01*
X149190280Y-86946873D01*
X149169196Y-87080000D01*
X149190280Y-87213126D01*
X149232991Y-87296950D01*
X149251472Y-87333220D01*
X149346780Y-87428528D01*
X149397883Y-87454566D01*
X149434665Y-87497633D01*
X149430221Y-87554096D01*
X149387154Y-87590878D01*
X149364287Y-87594500D01*
X139498251Y-87594500D01*
X139445925Y-87572826D01*
X139424251Y-87520500D01*
X139432316Y-87486906D01*
X139459719Y-87433126D01*
X139475500Y-87333488D01*
X139475500Y-86816512D01*
X139474978Y-86813219D01*
X139459719Y-86716874D01*
X139459718Y-86716873D01*
X139456359Y-86710281D01*
X139398528Y-86596780D01*
X139303220Y-86501472D01*
X139303219Y-86501471D01*
X139183126Y-86440281D01*
X139183125Y-86440280D01*
X139083489Y-86424500D01*
X139083488Y-86424500D01*
X138516512Y-86424500D01*
X138516511Y-86424500D01*
X138416874Y-86440280D01*
X138416873Y-86440281D01*
X138296780Y-86501471D01*
X138201471Y-86596780D01*
X138140281Y-86716873D01*
X138140280Y-86716874D01*
X138129162Y-86787076D01*
X138099569Y-86835367D01*
X138056073Y-86849500D01*
X137986692Y-86849500D01*
X137948738Y-86839025D01*
X137922693Y-86823464D01*
X137922690Y-86823463D01*
X137864507Y-86804558D01*
X137864503Y-86804557D01*
X137864502Y-86804557D01*
X137828442Y-86798846D01*
X137801001Y-86794500D01*
X137801000Y-86794500D01*
X135382455Y-86794500D01*
X135330129Y-86772826D01*
X135308455Y-86720500D01*
X135316520Y-86686905D01*
X135321163Y-86677793D01*
X135360646Y-86600304D01*
X135375500Y-86506519D01*
X135375499Y-86043482D01*
X135372565Y-86024958D01*
X135360646Y-85949695D01*
X135360645Y-85949694D01*
X135357167Y-85942868D01*
X135330708Y-85890941D01*
X135323563Y-85845715D01*
X135323616Y-85845382D01*
X135353245Y-85797113D01*
X135408327Y-85783933D01*
X135430290Y-85791078D01*
X135466873Y-85809718D01*
X135466873Y-85809719D01*
X135485075Y-85812601D01*
X135600000Y-85830804D01*
X135733126Y-85809719D01*
X135853220Y-85748528D01*
X135948528Y-85653220D01*
X136009719Y-85533126D01*
X136030804Y-85400000D01*
X136009719Y-85266874D01*
X135967030Y-85183093D01*
X135962587Y-85126633D01*
X135999369Y-85083566D01*
X136032965Y-85075500D01*
X136433489Y-85075500D01*
X136512511Y-85062984D01*
X136533126Y-85059719D01*
X136653220Y-84998528D01*
X136748528Y-84903220D01*
X136809719Y-84783126D01*
X136825500Y-84683488D01*
X136825500Y-84116512D01*
X136809719Y-84016874D01*
X136748528Y-83896780D01*
X136653220Y-83801472D01*
X136653219Y-83801471D01*
X136533126Y-83740281D01*
X136527584Y-83738480D01*
X136528602Y-83735346D01*
X136489593Y-83711392D01*
X136475500Y-83667951D01*
X136475500Y-83589967D01*
X136497174Y-83537641D01*
X136537923Y-83516878D01*
X136583126Y-83509719D01*
X136703220Y-83448528D01*
X136798528Y-83353220D01*
X136859719Y-83233126D01*
X136875500Y-83133488D01*
X136875500Y-82681882D01*
X136897174Y-82629556D01*
X136949500Y-82607882D01*
X136960978Y-82609706D01*
X136961121Y-82608808D01*
X136975394Y-82611068D01*
X137023002Y-82618608D01*
X137071293Y-82648200D01*
X137084515Y-82703272D01*
X137069196Y-82799998D01*
X137069196Y-82799999D01*
X137090280Y-82933126D01*
X137151471Y-83053219D01*
X137151472Y-83053220D01*
X137246780Y-83148528D01*
X137366873Y-83209718D01*
X137366873Y-83209719D01*
X137385075Y-83212601D01*
X137500000Y-83230804D01*
X137633126Y-83209719D01*
X137753220Y-83148528D01*
X137848528Y-83053220D01*
X137909719Y-82933126D01*
X137930804Y-82800000D01*
X137911465Y-82677900D01*
X137909719Y-82666873D01*
X137848528Y-82546780D01*
X137753219Y-82451471D01*
X137633126Y-82390281D01*
X137576996Y-82381390D01*
X137528705Y-82351796D01*
X137515484Y-82296725D01*
X137516309Y-82291521D01*
X137530804Y-82200000D01*
X137530803Y-82199999D01*
X137531715Y-82194248D01*
X137534963Y-82194762D01*
X137552478Y-82152478D01*
X137594762Y-82134963D01*
X137594248Y-82131715D01*
X137733126Y-82109719D01*
X137853220Y-82048528D01*
X137948528Y-81953220D01*
X138009719Y-81833126D01*
X138023818Y-81744103D01*
X138053411Y-81695814D01*
X138108483Y-81682592D01*
X138156774Y-81712185D01*
X138158436Y-81714569D01*
X138262610Y-81870479D01*
X138267450Y-81878862D01*
X138364290Y-82075236D01*
X138367994Y-82084179D01*
X138438372Y-82291511D01*
X138440877Y-82300861D01*
X138483588Y-82515600D01*
X138484852Y-82525197D01*
X138499341Y-82746285D01*
X138499499Y-82751124D01*
X138499499Y-82802075D01*
X138499500Y-82802088D01*
X138499500Y-84813992D01*
X138477826Y-84866318D01*
X138437077Y-84887081D01*
X138416877Y-84890280D01*
X138416871Y-84890282D01*
X138296780Y-84951471D01*
X138201471Y-85046780D01*
X138140281Y-85166873D01*
X138140280Y-85166874D01*
X138124500Y-85266511D01*
X138124500Y-85783488D01*
X138140280Y-85883125D01*
X138140281Y-85883126D01*
X138196509Y-85993481D01*
X138201472Y-86003220D01*
X138296780Y-86098528D01*
X138416874Y-86159719D01*
X138516511Y-86175500D01*
X138516512Y-86175500D01*
X139083489Y-86175500D01*
X139133307Y-86167609D01*
X139183126Y-86159719D01*
X139300331Y-86100000D01*
X153329196Y-86100000D01*
X153350280Y-86233126D01*
X153410581Y-86351472D01*
X153411472Y-86353220D01*
X153506780Y-86448528D01*
X153626873Y-86509718D01*
X153626873Y-86509719D01*
X153645075Y-86512601D01*
X153760000Y-86530804D01*
X153893126Y-86509719D01*
X154013220Y-86448528D01*
X154108528Y-86353220D01*
X154169719Y-86233126D01*
X154190804Y-86100000D01*
X154169719Y-85966874D01*
X154169719Y-85966873D01*
X154108528Y-85846780D01*
X154013219Y-85751471D01*
X153893126Y-85690281D01*
X153893126Y-85690280D01*
X153760000Y-85669196D01*
X153626873Y-85690280D01*
X153626873Y-85690281D01*
X153506780Y-85751471D01*
X153411471Y-85846780D01*
X153350281Y-85966873D01*
X153350280Y-85966873D01*
X153329196Y-86100000D01*
X139300331Y-86100000D01*
X139303220Y-86098528D01*
X139398528Y-86003220D01*
X139459719Y-85883126D01*
X139475500Y-85783488D01*
X139475500Y-85266512D01*
X139472245Y-85245963D01*
X139459719Y-85166874D01*
X139459718Y-85166873D01*
X139457825Y-85163158D01*
X139398528Y-85046780D01*
X139303220Y-84951472D01*
X139303219Y-84951471D01*
X139183128Y-84890282D01*
X139183127Y-84890281D01*
X139183126Y-84890281D01*
X139183124Y-84890280D01*
X139183122Y-84890280D01*
X139162923Y-84887081D01*
X139114633Y-84857488D01*
X139100500Y-84813992D01*
X139100500Y-82704122D01*
X139100488Y-82703942D01*
X139100488Y-82664089D01*
X139100489Y-82616613D01*
X139070952Y-82354435D01*
X139042048Y-82227795D01*
X139016940Y-82117782D01*
X139012245Y-82097212D01*
X138925107Y-81848180D01*
X138810634Y-81610470D01*
X138670265Y-81387072D01*
X138505766Y-81180795D01*
X138505761Y-81180790D01*
X138505758Y-81180786D01*
X138450869Y-81125898D01*
X138450868Y-81125896D01*
X138450868Y-81125897D01*
X138447448Y-81122477D01*
X138447446Y-81122473D01*
X138378831Y-81053860D01*
X138282538Y-80957567D01*
X138282537Y-80957565D01*
X138270557Y-80945585D01*
X138270555Y-80945580D01*
X138206827Y-80881853D01*
X138150668Y-80825694D01*
X137933480Y-80652493D01*
X137698264Y-80504698D01*
X137566350Y-80441171D01*
X137528612Y-80398940D01*
X137531787Y-80342392D01*
X137574019Y-80304653D01*
X137598459Y-80300500D01*
X148225500Y-80300500D01*
X148277826Y-80322174D01*
G37*
%TD.AperFunction*%
%TD*%
%TA.AperFunction,Conductor*%
%TO.N,/-15V Supply/-17V_SW*%
G36*
X137859191Y-87018907D02*
G01*
X137895155Y-87068407D01*
X137900000Y-87099000D01*
X137900000Y-88705155D01*
X137885172Y-88757271D01*
X137865129Y-88789642D01*
X137844500Y-88899999D01*
X137844500Y-89801000D01*
X137825593Y-89859191D01*
X137776093Y-89895155D01*
X137745500Y-89900000D01*
X133999000Y-89900000D01*
X133940809Y-89881093D01*
X133904845Y-89831593D01*
X133900000Y-89801000D01*
X133900000Y-87099000D01*
X133918907Y-87040809D01*
X133968407Y-87004845D01*
X133999000Y-87000000D01*
X137801000Y-87000000D01*
X137859191Y-87018907D01*
G37*
%TD.AperFunction*%
%TD*%
M02*
