%TF.GenerationSoftware,KiCad,Pcbnew,8.0.3*%
%TF.CreationDate,2024-07-14T14:44:16+02:00*%
%TF.ProjectId,CleanLVSupply,436c6561-6e4c-4565-9375-70706c792e6b,rev?*%
%TF.SameCoordinates,Original*%
%TF.FileFunction,Legend,Top*%
%TF.FilePolarity,Positive*%
%FSLAX46Y46*%
G04 Gerber Fmt 4.6, Leading zero omitted, Abs format (unit mm)*
G04 Created by KiCad (PCBNEW 8.0.3) date 2024-07-14 14:44:16*
%MOMM*%
%LPD*%
G01*
G04 APERTURE LIST*
G04 Aperture macros list*
%AMRoundRect*
0 Rectangle with rounded corners*
0 $1 Rounding radius*
0 $2 $3 $4 $5 $6 $7 $8 $9 X,Y pos of 4 corners*
0 Add a 4 corners polygon primitive as box body*
4,1,4,$2,$3,$4,$5,$6,$7,$8,$9,$2,$3,0*
0 Add four circle primitives for the rounded corners*
1,1,$1+$1,$2,$3*
1,1,$1+$1,$4,$5*
1,1,$1+$1,$6,$7*
1,1,$1+$1,$8,$9*
0 Add four rect primitives between the rounded corners*
20,1,$1+$1,$2,$3,$4,$5,0*
20,1,$1+$1,$4,$5,$6,$7,0*
20,1,$1+$1,$6,$7,$8,$9,0*
20,1,$1+$1,$8,$9,$2,$3,0*%
%AMFreePoly0*
4,1,45,1.289454,2.598348,1.362356,2.568151,1.418152,2.512354,1.448348,2.439452,1.450000,2.399998,1.450000,1.899998,1.322087,1.829913,1.084748,1.660379,0.872545,1.460277,0.689384,1.233290,0.538637,0.983598,0.423079,0.715797,0.344837,0.434817,0.305353,0.145833,0.305353,-0.145837,0.344837,-0.434821,0.423079,-0.715801,0.538637,-0.983602,0.689384,-1.233294,0.872545,-1.460281,
1.084748,-1.660383,1.322087,-1.829917,1.450000,-1.900002,1.450000,-2.400002,1.448080,-2.439402,1.417924,-2.512205,1.362203,-2.567925,1.289400,-2.598080,1.250000,-2.600002,-0.050000,-2.600002,-0.050102,-2.599997,-0.125000,-2.599997,-0.172835,-2.590482,-0.213388,-2.563385,-0.240485,-2.522832,-0.250000,-2.474997,-0.250000,2.474997,-0.240485,2.522832,-0.213388,2.563385,-0.172835,2.590482,
-0.125000,2.599997,-0.050020,2.599997,-0.050000,2.599998,1.250000,2.599998,1.289454,2.598348,1.289454,2.598348,$1*%
G04 Aperture macros list end*
%ADD10C,0.200000*%
%ADD11C,0.150000*%
%ADD12C,0.120000*%
%ADD13C,0.100000*%
%ADD14RoundRect,0.250000X-0.325000X-0.650000X0.325000X-0.650000X0.325000X0.650000X-0.325000X0.650000X0*%
%ADD15RoundRect,0.400000X-0.400000X-0.700000X0.400000X-0.700000X0.400000X0.700000X-0.400000X0.700000X0*%
%ADD16RoundRect,0.200000X-0.275000X0.200000X-0.275000X-0.200000X0.275000X-0.200000X0.275000X0.200000X0*%
%ADD17RoundRect,0.150000X-0.150000X0.512500X-0.150000X-0.512500X0.150000X-0.512500X0.150000X0.512500X0*%
%ADD18RoundRect,0.250000X0.250000X0.475000X-0.250000X0.475000X-0.250000X-0.475000X0.250000X-0.475000X0*%
%ADD19RoundRect,0.250000X-0.550000X1.500000X-0.550000X-1.500000X0.550000X-1.500000X0.550000X1.500000X0*%
%ADD20FreePoly0,90.000000*%
%ADD21FreePoly0,270.000000*%
%ADD22RoundRect,0.125000X-0.525000X0.125000X-0.525000X-0.125000X0.525000X-0.125000X0.525000X0.125000X0*%
%ADD23RoundRect,0.350000X-0.600000X0.350000X-0.600000X-0.350000X0.600000X-0.350000X0.600000X0.350000X0*%
%ADD24RoundRect,0.225000X-0.250000X0.225000X-0.250000X-0.225000X0.250000X-0.225000X0.250000X0.225000X0*%
%ADD25RoundRect,0.125000X0.125000X0.525000X-0.125000X0.525000X-0.125000X-0.525000X0.125000X-0.525000X0*%
%ADD26RoundRect,0.350000X0.350000X0.600000X-0.350000X0.600000X-0.350000X-0.600000X0.350000X-0.600000X0*%
%ADD27RoundRect,0.180000X-0.720000X-2.670000X0.720000X-2.670000X0.720000X2.670000X-0.720000X2.670000X0*%
%ADD28RoundRect,0.200000X-0.200000X-0.275000X0.200000X-0.275000X0.200000X0.275000X-0.200000X0.275000X0*%
%ADD29RoundRect,0.225000X0.225000X0.250000X-0.225000X0.250000X-0.225000X-0.250000X0.225000X-0.250000X0*%
%ADD30RoundRect,0.225000X-0.225000X-0.250000X0.225000X-0.250000X0.225000X0.250000X-0.225000X0.250000X0*%
%ADD31RoundRect,0.250000X0.325000X0.650000X-0.325000X0.650000X-0.325000X-0.650000X0.325000X-0.650000X0*%
%ADD32RoundRect,0.100000X-0.100000X0.637500X-0.100000X-0.637500X0.100000X-0.637500X0.100000X0.637500X0*%
%ADD33R,4.000000X2.850000*%
%ADD34RoundRect,0.150000X0.512500X0.150000X-0.512500X0.150000X-0.512500X-0.150000X0.512500X-0.150000X0*%
%ADD35RoundRect,0.250000X-0.262500X-0.450000X0.262500X-0.450000X0.262500X0.450000X-0.262500X0.450000X0*%
%ADD36RoundRect,0.225000X0.250000X-0.225000X0.250000X0.225000X-0.250000X0.225000X-0.250000X-0.225000X0*%
%ADD37R,1.600000X1.600000*%
%ADD38C,1.600000*%
%ADD39RoundRect,0.793750X1.706250X-0.793750X1.706250X0.793750X-1.706250X0.793750X-1.706250X-0.793750X0*%
%ADD40RoundRect,0.250000X0.400000X0.450000X-0.400000X0.450000X-0.400000X-0.450000X0.400000X-0.450000X0*%
%ADD41RoundRect,0.250000X-0.450000X0.262500X-0.450000X-0.262500X0.450000X-0.262500X0.450000X0.262500X0*%
%ADD42RoundRect,0.250000X0.650000X-0.325000X0.650000X0.325000X-0.650000X0.325000X-0.650000X-0.325000X0*%
%ADD43RoundRect,0.200000X0.200000X0.275000X-0.200000X0.275000X-0.200000X-0.275000X0.200000X-0.275000X0*%
%ADD44RoundRect,0.200000X0.275000X-0.200000X0.275000X0.200000X-0.275000X0.200000X-0.275000X-0.200000X0*%
%ADD45RoundRect,0.250000X-0.450000X0.400000X-0.450000X-0.400000X0.450000X-0.400000X0.450000X0.400000X0*%
G04 APERTURE END LIST*
D10*
G36*
X162638897Y-119763330D02*
G01*
X159505096Y-119763330D01*
X159505096Y-119151757D01*
X159616207Y-119151757D01*
X159616207Y-119190775D01*
X159631139Y-119226823D01*
X159658729Y-119254413D01*
X159694777Y-119269345D01*
X159714286Y-119271266D01*
X159996418Y-119270572D01*
X159997159Y-119571728D01*
X160012091Y-119607776D01*
X160039681Y-119635366D01*
X160075729Y-119650298D01*
X160114747Y-119650298D01*
X160150795Y-119635366D01*
X160178385Y-119607776D01*
X160193317Y-119571728D01*
X160195238Y-119552219D01*
X160194544Y-119270085D01*
X160495700Y-119269345D01*
X160531748Y-119254413D01*
X160559338Y-119226823D01*
X160574270Y-119190775D01*
X160574270Y-119151757D01*
X160559338Y-119115709D01*
X160531748Y-119088119D01*
X160495700Y-119073187D01*
X160476191Y-119071266D01*
X160194057Y-119071959D01*
X160193974Y-119038062D01*
X160805229Y-119038062D01*
X160806683Y-119042880D01*
X160806683Y-119047918D01*
X160812279Y-119061427D01*
X160816500Y-119075417D01*
X160819687Y-119079313D01*
X160821615Y-119083966D01*
X160831951Y-119094302D01*
X160841207Y-119105615D01*
X160845644Y-119107995D01*
X160849205Y-119111556D01*
X160862710Y-119117150D01*
X160875591Y-119124060D01*
X160880600Y-119124560D01*
X160885253Y-119126488D01*
X160899874Y-119126488D01*
X160914415Y-119127942D01*
X160919234Y-119126488D01*
X160924271Y-119126488D01*
X160937780Y-119120891D01*
X160951770Y-119116671D01*
X160955666Y-119113483D01*
X160960319Y-119111556D01*
X160975473Y-119099120D01*
X161009039Y-119064035D01*
X161068787Y-119033013D01*
X161259650Y-119031589D01*
X161319548Y-119060405D01*
X161345325Y-119085067D01*
X161376347Y-119144815D01*
X161377771Y-119335678D01*
X161348955Y-119395576D01*
X161324293Y-119421354D01*
X161264544Y-119452376D01*
X161073682Y-119453800D01*
X161013782Y-119424983D01*
X160960320Y-119373833D01*
X160924272Y-119358902D01*
X160885254Y-119358901D01*
X160849205Y-119373832D01*
X160821615Y-119401422D01*
X160806684Y-119437470D01*
X160806683Y-119476488D01*
X160821614Y-119512537D01*
X160834051Y-119527690D01*
X160884151Y-119575623D01*
X160891069Y-119583600D01*
X160895218Y-119586211D01*
X160896823Y-119587747D01*
X160899263Y-119588757D01*
X160907660Y-119594043D01*
X160990677Y-119633981D01*
X160992062Y-119635366D01*
X161002811Y-119639818D01*
X161021206Y-119648668D01*
X161024789Y-119648922D01*
X161028110Y-119650298D01*
X161047619Y-119652219D01*
X161270574Y-119650556D01*
X161273207Y-119651434D01*
X161287312Y-119650431D01*
X161305223Y-119650298D01*
X161308543Y-119648922D01*
X161312127Y-119648668D01*
X161330435Y-119641662D01*
X161425463Y-119592322D01*
X161436510Y-119587747D01*
X161440356Y-119584589D01*
X161442263Y-119583600D01*
X161443993Y-119581605D01*
X161451663Y-119575310D01*
X161499596Y-119525207D01*
X161507571Y-119518292D01*
X161510182Y-119514142D01*
X161511719Y-119512537D01*
X161512730Y-119510095D01*
X161518014Y-119501701D01*
X161557952Y-119418683D01*
X161559337Y-119417299D01*
X161563789Y-119406549D01*
X161572639Y-119388155D01*
X161572893Y-119384571D01*
X161574269Y-119381251D01*
X161576190Y-119361742D01*
X161574527Y-119138786D01*
X161575405Y-119136154D01*
X161574402Y-119122048D01*
X161574269Y-119104138D01*
X161572893Y-119100817D01*
X161572639Y-119097234D01*
X161565633Y-119078925D01*
X161516290Y-118983891D01*
X161511718Y-118972851D01*
X161508562Y-118969005D01*
X161507571Y-118967097D01*
X161505573Y-118965364D01*
X161499281Y-118957698D01*
X161449180Y-118909766D01*
X161442263Y-118901790D01*
X161438113Y-118899177D01*
X161436509Y-118897643D01*
X161434069Y-118896632D01*
X161425673Y-118891347D01*
X161342655Y-118851408D01*
X161341271Y-118850024D01*
X161330521Y-118845571D01*
X161312127Y-118836722D01*
X161308543Y-118836467D01*
X161305223Y-118835092D01*
X161285714Y-118833171D01*
X161062758Y-118834833D01*
X161060126Y-118833956D01*
X161046020Y-118834958D01*
X161028110Y-118835092D01*
X161024789Y-118836467D01*
X161023661Y-118836547D01*
X161041408Y-118651873D01*
X161448080Y-118650298D01*
X161484128Y-118635366D01*
X161511718Y-118607776D01*
X161526650Y-118571728D01*
X161526650Y-118564726D01*
X161662690Y-118564726D01*
X161667037Y-118583842D01*
X161998298Y-119571734D01*
X161998789Y-119578632D01*
X162004322Y-119589699D01*
X162008361Y-119601742D01*
X162013044Y-119607141D01*
X162016239Y-119613531D01*
X162025710Y-119621746D01*
X162033926Y-119631218D01*
X162040314Y-119634412D01*
X162045715Y-119639096D01*
X162057616Y-119643063D01*
X162068825Y-119648667D01*
X162075949Y-119649173D01*
X162082731Y-119651434D01*
X162095240Y-119650544D01*
X162107745Y-119651434D01*
X162114523Y-119649174D01*
X162121651Y-119648668D01*
X162132867Y-119643059D01*
X162144761Y-119639095D01*
X162150158Y-119634414D01*
X162156550Y-119631218D01*
X162164768Y-119621742D01*
X162174237Y-119613530D01*
X162177430Y-119607143D01*
X162182115Y-119601742D01*
X162190106Y-119583842D01*
X162527786Y-118564727D01*
X162525020Y-118525807D01*
X162507570Y-118490908D01*
X162478094Y-118465343D01*
X162441078Y-118453004D01*
X162402158Y-118455771D01*
X162367259Y-118473220D01*
X162341694Y-118502696D01*
X162333703Y-118520597D01*
X162095671Y-119238973D01*
X161848782Y-118502696D01*
X161823217Y-118473220D01*
X161788318Y-118455770D01*
X161749398Y-118453004D01*
X161712382Y-118465342D01*
X161682906Y-118490907D01*
X161665456Y-118525806D01*
X161662690Y-118564726D01*
X161526650Y-118564726D01*
X161526650Y-118532710D01*
X161511718Y-118496662D01*
X161484128Y-118469072D01*
X161448080Y-118454140D01*
X161428571Y-118452219D01*
X160956359Y-118454048D01*
X160942728Y-118452686D01*
X160937974Y-118454120D01*
X160932872Y-118454140D01*
X160919362Y-118459736D01*
X160905373Y-118463957D01*
X160901476Y-118467144D01*
X160896824Y-118469072D01*
X160886487Y-118479408D01*
X160875175Y-118488664D01*
X160872794Y-118493101D01*
X160869234Y-118496662D01*
X160863639Y-118510167D01*
X160856730Y-118523048D01*
X160855253Y-118530412D01*
X160854302Y-118532710D01*
X160854302Y-118535160D01*
X160852877Y-118542269D01*
X160808439Y-119004660D01*
X160806683Y-119008900D01*
X160806683Y-119022932D01*
X160805229Y-119038062D01*
X160193974Y-119038062D01*
X160193317Y-118770805D01*
X160178385Y-118734757D01*
X160150795Y-118707167D01*
X160114747Y-118692235D01*
X160075729Y-118692235D01*
X160039681Y-118707167D01*
X160012091Y-118734757D01*
X159997159Y-118770805D01*
X159995238Y-118790314D01*
X159995931Y-119072446D01*
X159694777Y-119073187D01*
X159658729Y-119088119D01*
X159631139Y-119115709D01*
X159616207Y-119151757D01*
X159505096Y-119151757D01*
X159505096Y-118341108D01*
X162638897Y-118341108D01*
X162638897Y-119763330D01*
G37*
G36*
X132063330Y-110371094D02*
G01*
X130641108Y-110371094D01*
X130641108Y-109761443D01*
X130992235Y-109761443D01*
X130992235Y-109800461D01*
X131007167Y-109836509D01*
X131034757Y-109864099D01*
X131070805Y-109879031D01*
X131090314Y-109880952D01*
X131372446Y-109880258D01*
X131373187Y-110181413D01*
X131388119Y-110217461D01*
X131415709Y-110245051D01*
X131451757Y-110259983D01*
X131490775Y-110259983D01*
X131526823Y-110245051D01*
X131554413Y-110217461D01*
X131569345Y-110181413D01*
X131571266Y-110161904D01*
X131570572Y-109879771D01*
X131871728Y-109879031D01*
X131907776Y-109864099D01*
X131935366Y-109836509D01*
X131950298Y-109800461D01*
X131950298Y-109761443D01*
X131935366Y-109725395D01*
X131907776Y-109697805D01*
X131871728Y-109682873D01*
X131852219Y-109680952D01*
X131570085Y-109681645D01*
X131569345Y-109380491D01*
X131554413Y-109344443D01*
X131526823Y-109316853D01*
X131490775Y-109301921D01*
X131451757Y-109301921D01*
X131415709Y-109316853D01*
X131388119Y-109344443D01*
X131373187Y-109380491D01*
X131371266Y-109400000D01*
X131371959Y-109682132D01*
X131070805Y-109682873D01*
X131034757Y-109697805D01*
X131007167Y-109725395D01*
X130992235Y-109761443D01*
X130641108Y-109761443D01*
X130641108Y-108685819D01*
X130752219Y-108685819D01*
X130754140Y-108695424D01*
X130754140Y-108705223D01*
X130757929Y-108714371D01*
X130759871Y-108724079D01*
X130765322Y-108732219D01*
X130769072Y-108741271D01*
X130776071Y-108748270D01*
X130781582Y-108756499D01*
X130796588Y-108768787D01*
X130796662Y-108768861D01*
X130796694Y-108768874D01*
X130796749Y-108768919D01*
X130925892Y-108853152D01*
X131006524Y-108931799D01*
X131058933Y-109032739D01*
X131088410Y-109058304D01*
X131125426Y-109070642D01*
X131164346Y-109067877D01*
X131199244Y-109050428D01*
X131224809Y-109020951D01*
X131237148Y-108983935D01*
X131234382Y-108945015D01*
X131227376Y-108926706D01*
X131178033Y-108831672D01*
X131173461Y-108820633D01*
X131170305Y-108816788D01*
X131169314Y-108814878D01*
X131167316Y-108813145D01*
X131161025Y-108805479D01*
X131140204Y-108785171D01*
X131753467Y-108784015D01*
X131754140Y-108990937D01*
X131769072Y-109026985D01*
X131796662Y-109054575D01*
X131832710Y-109069507D01*
X131871728Y-109069507D01*
X131907776Y-109054575D01*
X131935366Y-109026985D01*
X131950298Y-108990937D01*
X131952219Y-108971428D01*
X131950298Y-108380491D01*
X131935366Y-108344443D01*
X131907776Y-108316853D01*
X131871728Y-108301921D01*
X131832710Y-108301921D01*
X131796662Y-108316853D01*
X131769072Y-108344443D01*
X131754140Y-108380491D01*
X131752219Y-108400000D01*
X131752823Y-108585901D01*
X130861550Y-108587580D01*
X130852114Y-108585714D01*
X130842602Y-108587616D01*
X130832710Y-108587635D01*
X130823561Y-108591424D01*
X130813854Y-108593366D01*
X130805713Y-108598817D01*
X130796662Y-108602567D01*
X130789662Y-108609566D01*
X130781434Y-108615077D01*
X130775998Y-108623230D01*
X130769072Y-108630157D01*
X130765283Y-108639303D01*
X130759791Y-108647542D01*
X130757889Y-108657152D01*
X130754140Y-108666205D01*
X130754140Y-108676108D01*
X130752219Y-108685819D01*
X130641108Y-108685819D01*
X130641108Y-107638095D01*
X130752219Y-107638095D01*
X130753881Y-107861050D01*
X130753004Y-107863683D01*
X130754006Y-107877788D01*
X130754140Y-107895699D01*
X130755515Y-107899019D01*
X130755770Y-107902603D01*
X130762776Y-107920911D01*
X130812116Y-108015940D01*
X130816691Y-108026985D01*
X130819847Y-108030831D01*
X130820838Y-108032739D01*
X130822832Y-108034468D01*
X130829127Y-108042139D01*
X130891899Y-108102194D01*
X130927948Y-108117125D01*
X130966966Y-108117125D01*
X131003014Y-108102194D01*
X131030604Y-108074604D01*
X131045535Y-108038556D01*
X131045535Y-107999538D01*
X131030604Y-107963489D01*
X131018167Y-107948336D01*
X130983085Y-107914772D01*
X130952061Y-107855020D01*
X130950637Y-107664158D01*
X130979453Y-107604260D01*
X131004115Y-107578483D01*
X131064254Y-107547258D01*
X131118357Y-107546352D01*
X131224652Y-107580455D01*
X131796662Y-108149813D01*
X131832710Y-108164745D01*
X131871728Y-108164745D01*
X131907776Y-108149813D01*
X131935366Y-108122223D01*
X131950298Y-108086175D01*
X131952219Y-108066666D01*
X131950298Y-107428110D01*
X131935366Y-107392062D01*
X131907776Y-107364472D01*
X131871728Y-107349540D01*
X131832710Y-107349540D01*
X131796662Y-107364472D01*
X131769072Y-107392062D01*
X131754140Y-107428110D01*
X131752219Y-107447619D01*
X131753360Y-107827171D01*
X131361280Y-107436908D01*
X131359789Y-107433926D01*
X131348087Y-107423777D01*
X131336347Y-107412091D01*
X131333028Y-107410716D01*
X131330313Y-107408361D01*
X131312412Y-107400370D01*
X131169332Y-107354465D01*
X131157442Y-107349540D01*
X131152448Y-107349048D01*
X131150440Y-107348404D01*
X131147806Y-107348591D01*
X131137933Y-107347619D01*
X131056915Y-107348975D01*
X131055202Y-107348404D01*
X131044157Y-107349188D01*
X131023186Y-107349540D01*
X131019865Y-107350915D01*
X131016282Y-107351170D01*
X130997973Y-107358176D01*
X130902939Y-107407518D01*
X130891899Y-107412091D01*
X130888053Y-107415246D01*
X130886145Y-107416238D01*
X130884412Y-107418235D01*
X130876746Y-107424528D01*
X130828814Y-107474628D01*
X130820838Y-107481546D01*
X130818225Y-107485695D01*
X130816691Y-107487300D01*
X130815680Y-107489739D01*
X130810395Y-107498136D01*
X130770456Y-107581153D01*
X130769072Y-107582538D01*
X130764619Y-107593287D01*
X130755770Y-107611682D01*
X130755515Y-107615265D01*
X130754140Y-107618586D01*
X130752219Y-107638095D01*
X130641108Y-107638095D01*
X130641108Y-106482731D01*
X130753004Y-106482731D01*
X130755770Y-106521651D01*
X130773220Y-106556550D01*
X130802696Y-106582115D01*
X130820596Y-106590106D01*
X131538972Y-106828137D01*
X130802696Y-107075027D01*
X130773220Y-107100592D01*
X130755770Y-107135491D01*
X130753004Y-107174411D01*
X130765342Y-107211427D01*
X130790907Y-107240903D01*
X130825806Y-107258353D01*
X130864726Y-107261119D01*
X130883842Y-107256772D01*
X131871734Y-106925510D01*
X131878631Y-106925020D01*
X131889696Y-106919487D01*
X131901742Y-106915448D01*
X131907143Y-106910763D01*
X131913530Y-106907570D01*
X131921742Y-106898101D01*
X131931218Y-106889883D01*
X131934413Y-106883491D01*
X131939095Y-106878094D01*
X131943061Y-106866196D01*
X131948667Y-106854984D01*
X131949173Y-106847859D01*
X131951434Y-106841078D01*
X131950544Y-106828571D01*
X131951434Y-106816064D01*
X131949173Y-106809282D01*
X131948667Y-106802158D01*
X131943061Y-106790945D01*
X131939095Y-106779048D01*
X131934413Y-106773650D01*
X131931218Y-106767259D01*
X131921742Y-106759040D01*
X131913530Y-106749572D01*
X131907143Y-106746378D01*
X131901742Y-106741694D01*
X131883841Y-106733703D01*
X130864726Y-106396023D01*
X130825806Y-106398789D01*
X130790907Y-106416239D01*
X130765342Y-106445715D01*
X130753004Y-106482731D01*
X130641108Y-106482731D01*
X130641108Y-106284912D01*
X132063330Y-106284912D01*
X132063330Y-110371094D01*
G37*
G36*
X164987164Y-97985198D02*
G01*
X165054305Y-98050685D01*
X165089925Y-98119289D01*
X165133404Y-98286856D01*
X165134810Y-98405664D01*
X165094570Y-98572936D01*
X165058648Y-98647606D01*
X164991339Y-98716614D01*
X164888157Y-98752307D01*
X164761718Y-98753250D01*
X164760207Y-97951485D01*
X164879319Y-97950597D01*
X164987164Y-97985198D01*
G37*
G36*
X166015087Y-100673274D02*
G01*
X161928905Y-100673274D01*
X161928905Y-100061701D01*
X162040016Y-100061701D01*
X162040016Y-100100719D01*
X162054948Y-100136767D01*
X162082538Y-100164357D01*
X162118586Y-100179289D01*
X162138095Y-100181210D01*
X162420227Y-100180516D01*
X162420968Y-100481672D01*
X162435900Y-100517720D01*
X162463490Y-100545310D01*
X162499538Y-100560242D01*
X162538556Y-100560242D01*
X162574604Y-100545310D01*
X162602194Y-100517720D01*
X162617126Y-100481672D01*
X162619047Y-100462163D01*
X162618353Y-100180029D01*
X162919509Y-100179289D01*
X162955557Y-100164357D01*
X162983147Y-100136767D01*
X162998079Y-100100719D01*
X162998079Y-100061701D01*
X162983147Y-100025653D01*
X162955557Y-99998063D01*
X162919509Y-99983131D01*
X162900000Y-99981210D01*
X162617866Y-99981903D01*
X162617260Y-99735370D01*
X163229356Y-99735370D01*
X163232122Y-99774290D01*
X163249571Y-99809189D01*
X163279048Y-99834753D01*
X163316064Y-99847092D01*
X163354984Y-99844326D01*
X163373292Y-99837320D01*
X163468321Y-99787979D01*
X163479366Y-99783405D01*
X163483212Y-99780248D01*
X163485120Y-99779258D01*
X163486849Y-99777263D01*
X163494520Y-99770969D01*
X163514827Y-99750148D01*
X163515983Y-100363411D01*
X163309062Y-100364084D01*
X163273014Y-100379016D01*
X163245424Y-100406606D01*
X163230492Y-100442654D01*
X163230492Y-100481672D01*
X163245424Y-100517720D01*
X163273014Y-100545310D01*
X163309062Y-100560242D01*
X163328571Y-100562163D01*
X163919508Y-100560242D01*
X163955556Y-100545310D01*
X163983146Y-100517720D01*
X163998078Y-100481672D01*
X163998078Y-100442654D01*
X163983146Y-100406606D01*
X163955556Y-100379016D01*
X163919508Y-100364084D01*
X163899999Y-100362163D01*
X163714097Y-100362767D01*
X163713316Y-99948006D01*
X164181419Y-99948006D01*
X164182873Y-99952824D01*
X164182873Y-99957862D01*
X164188469Y-99971371D01*
X164192690Y-99985361D01*
X164195877Y-99989257D01*
X164197805Y-99993910D01*
X164208141Y-100004246D01*
X164217397Y-100015559D01*
X164221834Y-100017939D01*
X164225395Y-100021500D01*
X164238900Y-100027094D01*
X164251781Y-100034004D01*
X164256790Y-100034504D01*
X164261443Y-100036432D01*
X164276064Y-100036432D01*
X164290605Y-100037886D01*
X164295424Y-100036432D01*
X164300461Y-100036432D01*
X164313970Y-100030835D01*
X164327960Y-100026615D01*
X164331856Y-100023427D01*
X164336509Y-100021500D01*
X164351663Y-100009064D01*
X164385229Y-99973979D01*
X164444977Y-99942957D01*
X164635840Y-99941533D01*
X164695738Y-99970349D01*
X164721515Y-99995011D01*
X164752537Y-100054759D01*
X164753961Y-100245622D01*
X164725145Y-100305520D01*
X164700483Y-100331298D01*
X164640734Y-100362320D01*
X164449872Y-100363744D01*
X164389972Y-100334927D01*
X164336510Y-100283777D01*
X164300462Y-100268846D01*
X164261444Y-100268845D01*
X164225395Y-100283776D01*
X164197805Y-100311366D01*
X164182874Y-100347414D01*
X164182873Y-100386432D01*
X164197804Y-100422481D01*
X164210241Y-100437634D01*
X164260341Y-100485567D01*
X164267259Y-100493544D01*
X164271408Y-100496155D01*
X164273013Y-100497691D01*
X164275453Y-100498701D01*
X164283850Y-100503987D01*
X164366867Y-100543925D01*
X164368252Y-100545310D01*
X164379001Y-100549762D01*
X164397396Y-100558612D01*
X164400979Y-100558866D01*
X164404300Y-100560242D01*
X164423809Y-100562163D01*
X164646764Y-100560500D01*
X164649397Y-100561378D01*
X164663502Y-100560375D01*
X164681413Y-100560242D01*
X164684733Y-100558866D01*
X164688317Y-100558612D01*
X164706625Y-100551606D01*
X164801653Y-100502266D01*
X164812700Y-100497691D01*
X164816546Y-100494533D01*
X164818453Y-100493544D01*
X164820183Y-100491549D01*
X164827853Y-100485254D01*
X164875786Y-100435151D01*
X164883761Y-100428236D01*
X164886372Y-100424086D01*
X164887909Y-100422481D01*
X164888920Y-100420039D01*
X164894204Y-100411645D01*
X164934142Y-100328627D01*
X164935527Y-100327243D01*
X164939979Y-100316493D01*
X164948829Y-100298099D01*
X164949083Y-100294515D01*
X164950459Y-100291195D01*
X164952380Y-100271686D01*
X164950717Y-100048730D01*
X164951595Y-100046098D01*
X164950592Y-100031992D01*
X164950459Y-100014082D01*
X164949083Y-100010761D01*
X164948829Y-100007178D01*
X164941823Y-99988869D01*
X164892480Y-99893835D01*
X164887908Y-99882795D01*
X164884752Y-99878949D01*
X164883761Y-99877041D01*
X164881763Y-99875308D01*
X164875471Y-99867642D01*
X164825370Y-99819710D01*
X164818453Y-99811734D01*
X164814303Y-99809121D01*
X164812699Y-99807587D01*
X164810259Y-99806576D01*
X164801863Y-99801291D01*
X164718845Y-99761352D01*
X164717461Y-99759968D01*
X164706711Y-99755515D01*
X164688317Y-99746666D01*
X164684733Y-99746411D01*
X164681413Y-99745036D01*
X164661904Y-99743115D01*
X164438948Y-99744777D01*
X164436316Y-99743900D01*
X164422210Y-99744902D01*
X164404300Y-99745036D01*
X164400979Y-99746411D01*
X164399851Y-99746491D01*
X164417598Y-99561817D01*
X164824270Y-99560242D01*
X164860318Y-99545310D01*
X164887908Y-99517720D01*
X164902840Y-99481672D01*
X164902840Y-99474670D01*
X165038880Y-99474670D01*
X165043227Y-99493786D01*
X165374488Y-100481678D01*
X165374979Y-100488576D01*
X165380512Y-100499643D01*
X165384551Y-100511686D01*
X165389234Y-100517085D01*
X165392429Y-100523475D01*
X165401900Y-100531690D01*
X165410116Y-100541162D01*
X165416504Y-100544356D01*
X165421905Y-100549040D01*
X165433806Y-100553007D01*
X165445015Y-100558611D01*
X165452139Y-100559117D01*
X165458921Y-100561378D01*
X165471430Y-100560488D01*
X165483935Y-100561378D01*
X165490713Y-100559118D01*
X165497841Y-100558612D01*
X165509057Y-100553003D01*
X165520951Y-100549039D01*
X165526348Y-100544358D01*
X165532740Y-100541162D01*
X165540958Y-100531686D01*
X165550427Y-100523474D01*
X165553620Y-100517087D01*
X165558305Y-100511686D01*
X165566296Y-100493786D01*
X165903976Y-99474671D01*
X165901210Y-99435751D01*
X165883760Y-99400852D01*
X165854284Y-99375287D01*
X165817268Y-99362948D01*
X165778348Y-99365715D01*
X165743449Y-99383164D01*
X165717884Y-99412640D01*
X165709893Y-99430541D01*
X165471861Y-100148917D01*
X165224972Y-99412640D01*
X165199407Y-99383164D01*
X165164508Y-99365714D01*
X165125588Y-99362948D01*
X165088572Y-99375286D01*
X165059096Y-99400851D01*
X165041646Y-99435750D01*
X165038880Y-99474670D01*
X164902840Y-99474670D01*
X164902840Y-99442654D01*
X164887908Y-99406606D01*
X164860318Y-99379016D01*
X164824270Y-99364084D01*
X164804761Y-99362163D01*
X164332549Y-99363992D01*
X164318918Y-99362630D01*
X164314164Y-99364064D01*
X164309062Y-99364084D01*
X164295552Y-99369680D01*
X164281563Y-99373901D01*
X164277666Y-99377088D01*
X164273014Y-99379016D01*
X164262677Y-99389352D01*
X164251365Y-99398608D01*
X164248984Y-99403045D01*
X164245424Y-99406606D01*
X164239829Y-99420111D01*
X164232920Y-99432992D01*
X164231443Y-99440356D01*
X164230492Y-99442654D01*
X164230492Y-99445104D01*
X164229067Y-99452213D01*
X164184629Y-99914604D01*
X164182873Y-99918844D01*
X164182873Y-99932876D01*
X164181419Y-99948006D01*
X163713316Y-99948006D01*
X163712418Y-99471494D01*
X163714285Y-99462058D01*
X163712382Y-99452546D01*
X163712364Y-99442654D01*
X163708574Y-99433505D01*
X163706633Y-99423798D01*
X163701181Y-99415657D01*
X163697432Y-99406606D01*
X163690432Y-99399606D01*
X163684922Y-99391378D01*
X163676767Y-99385941D01*
X163669842Y-99379016D01*
X163660698Y-99375228D01*
X163652457Y-99369734D01*
X163642843Y-99367832D01*
X163633794Y-99364084D01*
X163623893Y-99364084D01*
X163614181Y-99362163D01*
X163604576Y-99364084D01*
X163594776Y-99364084D01*
X163585627Y-99367873D01*
X163575920Y-99369815D01*
X163567779Y-99375266D01*
X163558728Y-99379016D01*
X163551728Y-99386015D01*
X163543500Y-99391526D01*
X163531211Y-99406532D01*
X163531138Y-99406606D01*
X163531124Y-99406638D01*
X163531080Y-99406693D01*
X163446846Y-99535836D01*
X163368200Y-99616467D01*
X163267259Y-99668877D01*
X163241695Y-99698354D01*
X163229356Y-99735370D01*
X162617260Y-99735370D01*
X162617126Y-99680749D01*
X162602194Y-99644701D01*
X162574604Y-99617111D01*
X162538556Y-99602179D01*
X162499538Y-99602179D01*
X162463490Y-99617111D01*
X162435900Y-99644701D01*
X162420968Y-99680749D01*
X162419047Y-99700258D01*
X162419740Y-99982390D01*
X162118586Y-99983131D01*
X162082538Y-99998063D01*
X162054948Y-100025653D01*
X162040016Y-100061701D01*
X161928905Y-100061701D01*
X161928905Y-98280790D01*
X162466667Y-98280790D01*
X162468294Y-98418363D01*
X162466785Y-98428508D01*
X162468556Y-98440486D01*
X162468588Y-98443156D01*
X162469152Y-98444519D01*
X162469653Y-98447901D01*
X162517157Y-98630980D01*
X162517837Y-98640536D01*
X162523428Y-98655148D01*
X162523867Y-98656837D01*
X162524297Y-98657417D01*
X162524843Y-98658844D01*
X162574179Y-98753866D01*
X162578757Y-98764918D01*
X162581915Y-98768766D01*
X162582905Y-98770672D01*
X162584899Y-98772401D01*
X162591194Y-98780071D01*
X162677139Y-98863902D01*
X162678144Y-98865912D01*
X162687668Y-98874172D01*
X162701585Y-98887747D01*
X162704904Y-98889122D01*
X162707620Y-98891477D01*
X162725520Y-98899468D01*
X162868604Y-98945374D01*
X162880491Y-98950298D01*
X162885483Y-98950789D01*
X162887492Y-98951434D01*
X162890126Y-98951246D01*
X162900000Y-98952219D01*
X162996142Y-98950609D01*
X163007745Y-98951434D01*
X163012581Y-98950334D01*
X163014747Y-98950298D01*
X163017189Y-98949286D01*
X163026861Y-98947087D01*
X163155238Y-98902678D01*
X163157605Y-98902678D01*
X163169597Y-98897710D01*
X163187618Y-98891477D01*
X163190333Y-98889122D01*
X163193653Y-98887747D01*
X163208806Y-98875310D01*
X163268862Y-98812537D01*
X163283793Y-98776488D01*
X163285714Y-98756980D01*
X163283793Y-98404138D01*
X163268861Y-98368090D01*
X163241271Y-98340500D01*
X163205223Y-98325568D01*
X163185714Y-98323647D01*
X162975729Y-98325568D01*
X162939681Y-98340500D01*
X162912091Y-98368090D01*
X162897159Y-98404138D01*
X162897159Y-98443156D01*
X162912091Y-98479204D01*
X162939681Y-98506794D01*
X162975729Y-98521726D01*
X162995238Y-98523647D01*
X163086253Y-98522814D01*
X163087301Y-98715224D01*
X163085672Y-98716927D01*
X162983061Y-98752422D01*
X162919574Y-98753485D01*
X162812834Y-98719240D01*
X162745695Y-98653752D01*
X162710074Y-98585145D01*
X162666595Y-98417580D01*
X162665189Y-98298773D01*
X162705429Y-98131500D01*
X162741351Y-98056830D01*
X162808658Y-97987824D01*
X162911997Y-97952077D01*
X163017198Y-97950832D01*
X163111682Y-97996287D01*
X163150602Y-97999053D01*
X163187618Y-97986714D01*
X163217095Y-97961149D01*
X163234544Y-97926251D01*
X163237309Y-97887331D01*
X163225606Y-97852219D01*
X163514286Y-97852219D01*
X163516207Y-98871728D01*
X163531139Y-98907776D01*
X163558729Y-98935366D01*
X163594777Y-98950298D01*
X163633795Y-98950298D01*
X163669843Y-98935366D01*
X163697433Y-98907776D01*
X163712365Y-98871728D01*
X163714286Y-98852219D01*
X163713105Y-98225475D01*
X164097603Y-98895793D01*
X164102567Y-98907776D01*
X164107046Y-98912255D01*
X164110237Y-98917818D01*
X164120753Y-98925962D01*
X164130157Y-98935366D01*
X164136044Y-98937804D01*
X164141086Y-98941709D01*
X164153918Y-98945208D01*
X164166205Y-98950298D01*
X164172581Y-98950298D01*
X164178730Y-98951975D01*
X164191923Y-98950298D01*
X164205223Y-98950298D01*
X164211111Y-98947858D01*
X164217436Y-98947055D01*
X164228985Y-98940454D01*
X164241271Y-98935366D01*
X164245778Y-98930858D01*
X164251313Y-98927696D01*
X164259457Y-98917179D01*
X164268861Y-98907776D01*
X164271299Y-98901888D01*
X164275204Y-98896847D01*
X164278703Y-98884014D01*
X164283793Y-98871728D01*
X164284775Y-98861750D01*
X164285470Y-98859204D01*
X164285219Y-98857236D01*
X164285714Y-98852219D01*
X164283830Y-97852219D01*
X164561905Y-97852219D01*
X164563826Y-98871728D01*
X164578758Y-98907776D01*
X164606348Y-98935366D01*
X164642396Y-98950298D01*
X164661905Y-98952219D01*
X164898705Y-98950453D01*
X164912507Y-98951434D01*
X164917434Y-98950313D01*
X164919509Y-98950298D01*
X164921951Y-98949286D01*
X164931623Y-98947087D01*
X165060000Y-98902678D01*
X165062367Y-98902678D01*
X165074359Y-98897710D01*
X165092380Y-98891477D01*
X165095095Y-98889122D01*
X165098415Y-98887747D01*
X165113568Y-98875310D01*
X165207585Y-98778920D01*
X165217095Y-98770673D01*
X165219761Y-98766437D01*
X165221243Y-98764918D01*
X165222254Y-98762476D01*
X165227538Y-98754082D01*
X165270966Y-98663810D01*
X165276133Y-98656837D01*
X165281361Y-98642202D01*
X165282163Y-98640536D01*
X165282214Y-98639815D01*
X165282728Y-98638377D01*
X165327307Y-98453064D01*
X165331412Y-98443156D01*
X165332604Y-98431046D01*
X165333215Y-98428508D01*
X165332997Y-98427049D01*
X165333333Y-98423647D01*
X165331705Y-98286073D01*
X165333215Y-98275929D01*
X165331443Y-98263950D01*
X165331412Y-98261281D01*
X165330847Y-98259917D01*
X165330347Y-98256536D01*
X165282842Y-98073456D01*
X165282163Y-98063901D01*
X165276570Y-98049285D01*
X165276133Y-98047600D01*
X165275703Y-98047020D01*
X165275157Y-98045592D01*
X165225814Y-97950558D01*
X165221242Y-97939519D01*
X165218086Y-97935674D01*
X165217095Y-97933764D01*
X165215097Y-97932031D01*
X165208806Y-97924365D01*
X165122861Y-97840536D01*
X165121856Y-97838526D01*
X165112326Y-97830260D01*
X165098414Y-97816691D01*
X165095095Y-97815316D01*
X165092380Y-97812961D01*
X165074479Y-97804970D01*
X164931399Y-97759065D01*
X164919509Y-97754140D01*
X164914515Y-97753648D01*
X164912507Y-97753004D01*
X164909873Y-97753191D01*
X164900000Y-97752219D01*
X164642396Y-97754140D01*
X164606348Y-97769072D01*
X164578758Y-97796662D01*
X164563826Y-97832710D01*
X164561905Y-97852219D01*
X164283830Y-97852219D01*
X164283793Y-97832710D01*
X164268861Y-97796662D01*
X164241271Y-97769072D01*
X164205223Y-97754140D01*
X164166205Y-97754140D01*
X164130157Y-97769072D01*
X164102567Y-97796662D01*
X164087635Y-97832710D01*
X164085714Y-97852219D01*
X164086894Y-98478962D01*
X163702396Y-97808644D01*
X163697433Y-97796662D01*
X163692953Y-97792182D01*
X163689763Y-97786620D01*
X163679248Y-97778477D01*
X163669843Y-97769072D01*
X163663952Y-97766632D01*
X163658914Y-97762730D01*
X163646085Y-97759231D01*
X163633795Y-97754140D01*
X163627420Y-97754140D01*
X163621271Y-97752463D01*
X163608078Y-97754140D01*
X163594777Y-97754140D01*
X163588888Y-97756579D01*
X163582564Y-97757383D01*
X163571014Y-97763983D01*
X163558729Y-97769072D01*
X163554221Y-97773579D01*
X163548687Y-97776742D01*
X163540544Y-97787256D01*
X163531139Y-97796662D01*
X163528699Y-97802552D01*
X163524797Y-97807591D01*
X163521298Y-97820419D01*
X163516207Y-97832710D01*
X163515224Y-97842687D01*
X163514530Y-97845234D01*
X163514780Y-97847201D01*
X163514286Y-97852219D01*
X163225606Y-97852219D01*
X163224971Y-97850315D01*
X163199406Y-97820838D01*
X163182816Y-97810395D01*
X163099798Y-97770456D01*
X163098414Y-97769072D01*
X163087664Y-97764619D01*
X163069270Y-97755770D01*
X163065686Y-97755515D01*
X163062366Y-97754140D01*
X163042857Y-97752219D01*
X162900196Y-97753906D01*
X162887492Y-97753004D01*
X162882606Y-97754114D01*
X162880491Y-97754140D01*
X162878049Y-97755151D01*
X162868377Y-97757351D01*
X162740003Y-97801759D01*
X162737634Y-97801759D01*
X162725637Y-97806728D01*
X162707620Y-97812961D01*
X162704904Y-97815316D01*
X162701586Y-97816691D01*
X162686432Y-97829127D01*
X162592415Y-97925516D01*
X162582905Y-97933765D01*
X162580238Y-97938001D01*
X162578758Y-97939519D01*
X162577747Y-97941958D01*
X162572462Y-97950355D01*
X162529033Y-98040626D01*
X162523867Y-98047600D01*
X162518639Y-98062232D01*
X162517837Y-98063901D01*
X162517785Y-98064623D01*
X162517272Y-98066061D01*
X162472692Y-98251371D01*
X162468588Y-98261281D01*
X162467395Y-98273390D01*
X162466785Y-98275929D01*
X162467002Y-98277387D01*
X162466667Y-98280790D01*
X161928905Y-98280790D01*
X161928905Y-96841813D01*
X162040016Y-96841813D01*
X162040016Y-96880831D01*
X162054948Y-96916879D01*
X162082538Y-96944469D01*
X162118586Y-96959401D01*
X162138095Y-96961322D01*
X162919509Y-96959401D01*
X162955557Y-96944469D01*
X162983147Y-96916879D01*
X162998079Y-96880831D01*
X162998079Y-96841813D01*
X162983147Y-96805765D01*
X162955557Y-96778175D01*
X162919509Y-96763243D01*
X162900000Y-96761322D01*
X162118586Y-96763243D01*
X162082538Y-96778175D01*
X162054948Y-96805765D01*
X162040016Y-96841813D01*
X161928905Y-96841813D01*
X161928905Y-96515482D01*
X163229356Y-96515482D01*
X163232122Y-96554402D01*
X163249571Y-96589301D01*
X163279048Y-96614865D01*
X163316064Y-96627204D01*
X163354984Y-96624438D01*
X163373292Y-96617432D01*
X163468321Y-96568091D01*
X163479366Y-96563517D01*
X163483212Y-96560360D01*
X163485120Y-96559370D01*
X163486849Y-96557375D01*
X163494520Y-96551081D01*
X163514827Y-96530260D01*
X163515983Y-97143523D01*
X163309062Y-97144196D01*
X163273014Y-97159128D01*
X163245424Y-97186718D01*
X163230492Y-97222766D01*
X163230492Y-97261784D01*
X163245424Y-97297832D01*
X163273014Y-97325422D01*
X163309062Y-97340354D01*
X163328571Y-97342275D01*
X163919508Y-97340354D01*
X163955556Y-97325422D01*
X163983146Y-97297832D01*
X163998078Y-97261784D01*
X163998078Y-97222766D01*
X163983146Y-97186718D01*
X163955556Y-97159128D01*
X163919508Y-97144196D01*
X163899999Y-97142275D01*
X163714097Y-97142879D01*
X163713316Y-96728118D01*
X164181419Y-96728118D01*
X164182873Y-96732936D01*
X164182873Y-96737974D01*
X164188469Y-96751483D01*
X164192690Y-96765473D01*
X164195877Y-96769369D01*
X164197805Y-96774022D01*
X164208141Y-96784358D01*
X164217397Y-96795671D01*
X164221834Y-96798051D01*
X164225395Y-96801612D01*
X164238900Y-96807206D01*
X164251781Y-96814116D01*
X164256790Y-96814616D01*
X164261443Y-96816544D01*
X164276064Y-96816544D01*
X164290605Y-96817998D01*
X164295424Y-96816544D01*
X164300461Y-96816544D01*
X164313970Y-96810947D01*
X164327960Y-96806727D01*
X164331856Y-96803539D01*
X164336509Y-96801612D01*
X164351663Y-96789176D01*
X164385229Y-96754091D01*
X164444977Y-96723069D01*
X164635840Y-96721645D01*
X164695738Y-96750461D01*
X164721515Y-96775123D01*
X164752537Y-96834871D01*
X164753961Y-97025734D01*
X164725145Y-97085632D01*
X164700483Y-97111410D01*
X164640734Y-97142432D01*
X164449872Y-97143856D01*
X164389972Y-97115039D01*
X164336510Y-97063889D01*
X164300462Y-97048958D01*
X164261444Y-97048957D01*
X164225395Y-97063888D01*
X164197805Y-97091478D01*
X164182874Y-97127526D01*
X164182873Y-97166544D01*
X164197804Y-97202593D01*
X164210241Y-97217746D01*
X164260341Y-97265679D01*
X164267259Y-97273656D01*
X164271408Y-97276267D01*
X164273013Y-97277803D01*
X164275453Y-97278813D01*
X164283850Y-97284099D01*
X164366867Y-97324037D01*
X164368252Y-97325422D01*
X164379001Y-97329874D01*
X164397396Y-97338724D01*
X164400979Y-97338978D01*
X164404300Y-97340354D01*
X164423809Y-97342275D01*
X164646764Y-97340612D01*
X164649397Y-97341490D01*
X164663502Y-97340487D01*
X164681413Y-97340354D01*
X164684733Y-97338978D01*
X164688317Y-97338724D01*
X164706625Y-97331718D01*
X164801653Y-97282378D01*
X164812700Y-97277803D01*
X164816546Y-97274645D01*
X164818453Y-97273656D01*
X164820183Y-97271661D01*
X164827853Y-97265366D01*
X164875786Y-97215263D01*
X164883761Y-97208348D01*
X164886372Y-97204198D01*
X164887909Y-97202593D01*
X164888920Y-97200151D01*
X164894204Y-97191757D01*
X164934142Y-97108739D01*
X164935527Y-97107355D01*
X164939979Y-97096605D01*
X164948829Y-97078211D01*
X164949083Y-97074627D01*
X164950459Y-97071307D01*
X164952380Y-97051798D01*
X164950717Y-96828842D01*
X164951595Y-96826210D01*
X164950592Y-96812104D01*
X164950459Y-96794194D01*
X164949083Y-96790873D01*
X164948829Y-96787290D01*
X164941823Y-96768981D01*
X164892480Y-96673947D01*
X164887908Y-96662907D01*
X164884752Y-96659061D01*
X164883761Y-96657153D01*
X164881763Y-96655420D01*
X164875471Y-96647754D01*
X164825370Y-96599822D01*
X164818453Y-96591846D01*
X164814303Y-96589233D01*
X164812699Y-96587699D01*
X164810259Y-96586688D01*
X164801863Y-96581403D01*
X164718845Y-96541464D01*
X164717461Y-96540080D01*
X164706711Y-96535627D01*
X164688317Y-96526778D01*
X164684733Y-96526523D01*
X164681413Y-96525148D01*
X164661904Y-96523227D01*
X164438948Y-96524889D01*
X164436316Y-96524012D01*
X164422210Y-96525014D01*
X164404300Y-96525148D01*
X164400979Y-96526523D01*
X164399851Y-96526603D01*
X164417598Y-96341929D01*
X164824270Y-96340354D01*
X164860318Y-96325422D01*
X164887908Y-96297832D01*
X164902840Y-96261784D01*
X164902840Y-96254782D01*
X165038880Y-96254782D01*
X165043227Y-96273898D01*
X165374488Y-97261790D01*
X165374979Y-97268688D01*
X165380512Y-97279755D01*
X165384551Y-97291798D01*
X165389234Y-97297197D01*
X165392429Y-97303587D01*
X165401900Y-97311802D01*
X165410116Y-97321274D01*
X165416504Y-97324468D01*
X165421905Y-97329152D01*
X165433806Y-97333119D01*
X165445015Y-97338723D01*
X165452139Y-97339229D01*
X165458921Y-97341490D01*
X165471430Y-97340600D01*
X165483935Y-97341490D01*
X165490713Y-97339230D01*
X165497841Y-97338724D01*
X165509057Y-97333115D01*
X165520951Y-97329151D01*
X165526348Y-97324470D01*
X165532740Y-97321274D01*
X165540958Y-97311798D01*
X165550427Y-97303586D01*
X165553620Y-97297199D01*
X165558305Y-97291798D01*
X165566296Y-97273898D01*
X165903976Y-96254783D01*
X165901210Y-96215863D01*
X165883760Y-96180964D01*
X165854284Y-96155399D01*
X165817268Y-96143060D01*
X165778348Y-96145827D01*
X165743449Y-96163276D01*
X165717884Y-96192752D01*
X165709893Y-96210653D01*
X165471861Y-96929029D01*
X165224972Y-96192752D01*
X165199407Y-96163276D01*
X165164508Y-96145826D01*
X165125588Y-96143060D01*
X165088572Y-96155398D01*
X165059096Y-96180963D01*
X165041646Y-96215862D01*
X165038880Y-96254782D01*
X164902840Y-96254782D01*
X164902840Y-96222766D01*
X164887908Y-96186718D01*
X164860318Y-96159128D01*
X164824270Y-96144196D01*
X164804761Y-96142275D01*
X164332549Y-96144104D01*
X164318918Y-96142742D01*
X164314164Y-96144176D01*
X164309062Y-96144196D01*
X164295552Y-96149792D01*
X164281563Y-96154013D01*
X164277666Y-96157200D01*
X164273014Y-96159128D01*
X164262677Y-96169464D01*
X164251365Y-96178720D01*
X164248984Y-96183157D01*
X164245424Y-96186718D01*
X164239829Y-96200223D01*
X164232920Y-96213104D01*
X164231443Y-96220468D01*
X164230492Y-96222766D01*
X164230492Y-96225216D01*
X164229067Y-96232325D01*
X164184629Y-96694716D01*
X164182873Y-96698956D01*
X164182873Y-96712988D01*
X164181419Y-96728118D01*
X163713316Y-96728118D01*
X163712418Y-96251606D01*
X163714285Y-96242170D01*
X163712382Y-96232658D01*
X163712364Y-96222766D01*
X163708574Y-96213617D01*
X163706633Y-96203910D01*
X163701181Y-96195769D01*
X163697432Y-96186718D01*
X163690432Y-96179718D01*
X163684922Y-96171490D01*
X163676767Y-96166053D01*
X163669842Y-96159128D01*
X163660698Y-96155340D01*
X163652457Y-96149846D01*
X163642843Y-96147944D01*
X163633794Y-96144196D01*
X163623893Y-96144196D01*
X163614181Y-96142275D01*
X163604576Y-96144196D01*
X163594776Y-96144196D01*
X163585627Y-96147985D01*
X163575920Y-96149927D01*
X163567779Y-96155378D01*
X163558728Y-96159128D01*
X163551728Y-96166127D01*
X163543500Y-96171638D01*
X163531211Y-96186644D01*
X163531138Y-96186718D01*
X163531124Y-96186750D01*
X163531080Y-96186805D01*
X163446846Y-96315948D01*
X163368200Y-96396579D01*
X163267259Y-96448989D01*
X163241695Y-96478466D01*
X163229356Y-96515482D01*
X161928905Y-96515482D01*
X161928905Y-96031164D01*
X166015087Y-96031164D01*
X166015087Y-100673274D01*
G37*
D11*
X131359580Y-96942857D02*
X131407200Y-96990476D01*
X131407200Y-96990476D02*
X131454819Y-97133333D01*
X131454819Y-97133333D02*
X131454819Y-97228571D01*
X131454819Y-97228571D02*
X131407200Y-97371428D01*
X131407200Y-97371428D02*
X131311961Y-97466666D01*
X131311961Y-97466666D02*
X131216723Y-97514285D01*
X131216723Y-97514285D02*
X131026247Y-97561904D01*
X131026247Y-97561904D02*
X130883390Y-97561904D01*
X130883390Y-97561904D02*
X130692914Y-97514285D01*
X130692914Y-97514285D02*
X130597676Y-97466666D01*
X130597676Y-97466666D02*
X130502438Y-97371428D01*
X130502438Y-97371428D02*
X130454819Y-97228571D01*
X130454819Y-97228571D02*
X130454819Y-97133333D01*
X130454819Y-97133333D02*
X130502438Y-96990476D01*
X130502438Y-96990476D02*
X130550057Y-96942857D01*
X130550057Y-96561904D02*
X130502438Y-96514285D01*
X130502438Y-96514285D02*
X130454819Y-96419047D01*
X130454819Y-96419047D02*
X130454819Y-96180952D01*
X130454819Y-96180952D02*
X130502438Y-96085714D01*
X130502438Y-96085714D02*
X130550057Y-96038095D01*
X130550057Y-96038095D02*
X130645295Y-95990476D01*
X130645295Y-95990476D02*
X130740533Y-95990476D01*
X130740533Y-95990476D02*
X130883390Y-96038095D01*
X130883390Y-96038095D02*
X131454819Y-96609523D01*
X131454819Y-96609523D02*
X131454819Y-95990476D01*
X131454819Y-95038095D02*
X131454819Y-95609523D01*
X131454819Y-95323809D02*
X130454819Y-95323809D01*
X130454819Y-95323809D02*
X130597676Y-95419047D01*
X130597676Y-95419047D02*
X130692914Y-95514285D01*
X130692914Y-95514285D02*
X130740533Y-95609523D01*
X146233333Y-105854819D02*
X145757143Y-105854819D01*
X145757143Y-105854819D02*
X145757143Y-104854819D01*
X146995238Y-104854819D02*
X146804762Y-104854819D01*
X146804762Y-104854819D02*
X146709524Y-104902438D01*
X146709524Y-104902438D02*
X146661905Y-104950057D01*
X146661905Y-104950057D02*
X146566667Y-105092914D01*
X146566667Y-105092914D02*
X146519048Y-105283390D01*
X146519048Y-105283390D02*
X146519048Y-105664342D01*
X146519048Y-105664342D02*
X146566667Y-105759580D01*
X146566667Y-105759580D02*
X146614286Y-105807200D01*
X146614286Y-105807200D02*
X146709524Y-105854819D01*
X146709524Y-105854819D02*
X146900000Y-105854819D01*
X146900000Y-105854819D02*
X146995238Y-105807200D01*
X146995238Y-105807200D02*
X147042857Y-105759580D01*
X147042857Y-105759580D02*
X147090476Y-105664342D01*
X147090476Y-105664342D02*
X147090476Y-105426247D01*
X147090476Y-105426247D02*
X147042857Y-105331009D01*
X147042857Y-105331009D02*
X146995238Y-105283390D01*
X146995238Y-105283390D02*
X146900000Y-105235771D01*
X146900000Y-105235771D02*
X146709524Y-105235771D01*
X146709524Y-105235771D02*
X146614286Y-105283390D01*
X146614286Y-105283390D02*
X146566667Y-105331009D01*
X146566667Y-105331009D02*
X146519048Y-105426247D01*
X143154819Y-97466666D02*
X142678628Y-97799999D01*
X143154819Y-98038094D02*
X142154819Y-98038094D01*
X142154819Y-98038094D02*
X142154819Y-97657142D01*
X142154819Y-97657142D02*
X142202438Y-97561904D01*
X142202438Y-97561904D02*
X142250057Y-97514285D01*
X142250057Y-97514285D02*
X142345295Y-97466666D01*
X142345295Y-97466666D02*
X142488152Y-97466666D01*
X142488152Y-97466666D02*
X142583390Y-97514285D01*
X142583390Y-97514285D02*
X142631009Y-97561904D01*
X142631009Y-97561904D02*
X142678628Y-97657142D01*
X142678628Y-97657142D02*
X142678628Y-98038094D01*
X143154819Y-96990475D02*
X143154819Y-96799999D01*
X143154819Y-96799999D02*
X143107200Y-96704761D01*
X143107200Y-96704761D02*
X143059580Y-96657142D01*
X143059580Y-96657142D02*
X142916723Y-96561904D01*
X142916723Y-96561904D02*
X142726247Y-96514285D01*
X142726247Y-96514285D02*
X142345295Y-96514285D01*
X142345295Y-96514285D02*
X142250057Y-96561904D01*
X142250057Y-96561904D02*
X142202438Y-96609523D01*
X142202438Y-96609523D02*
X142154819Y-96704761D01*
X142154819Y-96704761D02*
X142154819Y-96895237D01*
X142154819Y-96895237D02*
X142202438Y-96990475D01*
X142202438Y-96990475D02*
X142250057Y-97038094D01*
X142250057Y-97038094D02*
X142345295Y-97085713D01*
X142345295Y-97085713D02*
X142583390Y-97085713D01*
X142583390Y-97085713D02*
X142678628Y-97038094D01*
X142678628Y-97038094D02*
X142726247Y-96990475D01*
X142726247Y-96990475D02*
X142773866Y-96895237D01*
X142773866Y-96895237D02*
X142773866Y-96704761D01*
X142773866Y-96704761D02*
X142726247Y-96609523D01*
X142726247Y-96609523D02*
X142678628Y-96561904D01*
X142678628Y-96561904D02*
X142583390Y-96514285D01*
X144433333Y-104854819D02*
X143957143Y-104854819D01*
X143957143Y-104854819D02*
X143957143Y-103854819D01*
X145195238Y-104188152D02*
X145195238Y-104854819D01*
X144957143Y-103807200D02*
X144719048Y-104521485D01*
X144719048Y-104521485D02*
X145338095Y-104521485D01*
X136290476Y-115662295D02*
X136290476Y-116309914D01*
X136290476Y-116309914D02*
X136328571Y-116386104D01*
X136328571Y-116386104D02*
X136366666Y-116424200D01*
X136366666Y-116424200D02*
X136442857Y-116462295D01*
X136442857Y-116462295D02*
X136595238Y-116462295D01*
X136595238Y-116462295D02*
X136671428Y-116424200D01*
X136671428Y-116424200D02*
X136709523Y-116386104D01*
X136709523Y-116386104D02*
X136747619Y-116309914D01*
X136747619Y-116309914D02*
X136747619Y-115662295D01*
X137509523Y-115662295D02*
X137128571Y-115662295D01*
X137128571Y-115662295D02*
X137090475Y-116043247D01*
X137090475Y-116043247D02*
X137128571Y-116005152D01*
X137128571Y-116005152D02*
X137204761Y-115967057D01*
X137204761Y-115967057D02*
X137395237Y-115967057D01*
X137395237Y-115967057D02*
X137471428Y-116005152D01*
X137471428Y-116005152D02*
X137509523Y-116043247D01*
X137509523Y-116043247D02*
X137547618Y-116119438D01*
X137547618Y-116119438D02*
X137547618Y-116309914D01*
X137547618Y-116309914D02*
X137509523Y-116386104D01*
X137509523Y-116386104D02*
X137471428Y-116424200D01*
X137471428Y-116424200D02*
X137395237Y-116462295D01*
X137395237Y-116462295D02*
X137204761Y-116462295D01*
X137204761Y-116462295D02*
X137128571Y-116424200D01*
X137128571Y-116424200D02*
X137090475Y-116386104D01*
X134533333Y-82059580D02*
X134485714Y-82107200D01*
X134485714Y-82107200D02*
X134342857Y-82154819D01*
X134342857Y-82154819D02*
X134247619Y-82154819D01*
X134247619Y-82154819D02*
X134104762Y-82107200D01*
X134104762Y-82107200D02*
X134009524Y-82011961D01*
X134009524Y-82011961D02*
X133961905Y-81916723D01*
X133961905Y-81916723D02*
X133914286Y-81726247D01*
X133914286Y-81726247D02*
X133914286Y-81583390D01*
X133914286Y-81583390D02*
X133961905Y-81392914D01*
X133961905Y-81392914D02*
X134009524Y-81297676D01*
X134009524Y-81297676D02*
X134104762Y-81202438D01*
X134104762Y-81202438D02*
X134247619Y-81154819D01*
X134247619Y-81154819D02*
X134342857Y-81154819D01*
X134342857Y-81154819D02*
X134485714Y-81202438D01*
X134485714Y-81202438D02*
X134533333Y-81250057D01*
X135438095Y-81154819D02*
X134961905Y-81154819D01*
X134961905Y-81154819D02*
X134914286Y-81631009D01*
X134914286Y-81631009D02*
X134961905Y-81583390D01*
X134961905Y-81583390D02*
X135057143Y-81535771D01*
X135057143Y-81535771D02*
X135295238Y-81535771D01*
X135295238Y-81535771D02*
X135390476Y-81583390D01*
X135390476Y-81583390D02*
X135438095Y-81631009D01*
X135438095Y-81631009D02*
X135485714Y-81726247D01*
X135485714Y-81726247D02*
X135485714Y-81964342D01*
X135485714Y-81964342D02*
X135438095Y-82059580D01*
X135438095Y-82059580D02*
X135390476Y-82107200D01*
X135390476Y-82107200D02*
X135295238Y-82154819D01*
X135295238Y-82154819D02*
X135057143Y-82154819D01*
X135057143Y-82154819D02*
X134961905Y-82107200D01*
X134961905Y-82107200D02*
X134914286Y-82059580D01*
X151433333Y-81659580D02*
X151385714Y-81707200D01*
X151385714Y-81707200D02*
X151242857Y-81754819D01*
X151242857Y-81754819D02*
X151147619Y-81754819D01*
X151147619Y-81754819D02*
X151004762Y-81707200D01*
X151004762Y-81707200D02*
X150909524Y-81611961D01*
X150909524Y-81611961D02*
X150861905Y-81516723D01*
X150861905Y-81516723D02*
X150814286Y-81326247D01*
X150814286Y-81326247D02*
X150814286Y-81183390D01*
X150814286Y-81183390D02*
X150861905Y-80992914D01*
X150861905Y-80992914D02*
X150909524Y-80897676D01*
X150909524Y-80897676D02*
X151004762Y-80802438D01*
X151004762Y-80802438D02*
X151147619Y-80754819D01*
X151147619Y-80754819D02*
X151242857Y-80754819D01*
X151242857Y-80754819D02*
X151385714Y-80802438D01*
X151385714Y-80802438D02*
X151433333Y-80850057D01*
X151766667Y-80754819D02*
X152433333Y-80754819D01*
X152433333Y-80754819D02*
X152004762Y-81754819D01*
X146333333Y-117354819D02*
X145857143Y-117354819D01*
X145857143Y-117354819D02*
X145857143Y-116354819D01*
X147142857Y-116354819D02*
X146666667Y-116354819D01*
X146666667Y-116354819D02*
X146619048Y-116831009D01*
X146619048Y-116831009D02*
X146666667Y-116783390D01*
X146666667Y-116783390D02*
X146761905Y-116735771D01*
X146761905Y-116735771D02*
X147000000Y-116735771D01*
X147000000Y-116735771D02*
X147095238Y-116783390D01*
X147095238Y-116783390D02*
X147142857Y-116831009D01*
X147142857Y-116831009D02*
X147190476Y-116926247D01*
X147190476Y-116926247D02*
X147190476Y-117164342D01*
X147190476Y-117164342D02*
X147142857Y-117259580D01*
X147142857Y-117259580D02*
X147095238Y-117307200D01*
X147095238Y-117307200D02*
X147000000Y-117354819D01*
X147000000Y-117354819D02*
X146761905Y-117354819D01*
X146761905Y-117354819D02*
X146666667Y-117307200D01*
X146666667Y-117307200D02*
X146619048Y-117259580D01*
X154466666Y-113154819D02*
X154466666Y-113869104D01*
X154466666Y-113869104D02*
X154419047Y-114011961D01*
X154419047Y-114011961D02*
X154323809Y-114107200D01*
X154323809Y-114107200D02*
X154180952Y-114154819D01*
X154180952Y-114154819D02*
X154085714Y-114154819D01*
X154847619Y-113154819D02*
X155466666Y-113154819D01*
X155466666Y-113154819D02*
X155133333Y-113535771D01*
X155133333Y-113535771D02*
X155276190Y-113535771D01*
X155276190Y-113535771D02*
X155371428Y-113583390D01*
X155371428Y-113583390D02*
X155419047Y-113631009D01*
X155419047Y-113631009D02*
X155466666Y-113726247D01*
X155466666Y-113726247D02*
X155466666Y-113964342D01*
X155466666Y-113964342D02*
X155419047Y-114059580D01*
X155419047Y-114059580D02*
X155371428Y-114107200D01*
X155371428Y-114107200D02*
X155276190Y-114154819D01*
X155276190Y-114154819D02*
X154990476Y-114154819D01*
X154990476Y-114154819D02*
X154895238Y-114107200D01*
X154895238Y-114107200D02*
X154847619Y-114059580D01*
X143585714Y-117186104D02*
X143547618Y-117224200D01*
X143547618Y-117224200D02*
X143433333Y-117262295D01*
X143433333Y-117262295D02*
X143357142Y-117262295D01*
X143357142Y-117262295D02*
X143242856Y-117224200D01*
X143242856Y-117224200D02*
X143166666Y-117148009D01*
X143166666Y-117148009D02*
X143128571Y-117071819D01*
X143128571Y-117071819D02*
X143090475Y-116919438D01*
X143090475Y-116919438D02*
X143090475Y-116805152D01*
X143090475Y-116805152D02*
X143128571Y-116652771D01*
X143128571Y-116652771D02*
X143166666Y-116576580D01*
X143166666Y-116576580D02*
X143242856Y-116500390D01*
X143242856Y-116500390D02*
X143357142Y-116462295D01*
X143357142Y-116462295D02*
X143433333Y-116462295D01*
X143433333Y-116462295D02*
X143547618Y-116500390D01*
X143547618Y-116500390D02*
X143585714Y-116538485D01*
X143852380Y-116462295D02*
X144347618Y-116462295D01*
X144347618Y-116462295D02*
X144080952Y-116767057D01*
X144080952Y-116767057D02*
X144195237Y-116767057D01*
X144195237Y-116767057D02*
X144271428Y-116805152D01*
X144271428Y-116805152D02*
X144309523Y-116843247D01*
X144309523Y-116843247D02*
X144347618Y-116919438D01*
X144347618Y-116919438D02*
X144347618Y-117109914D01*
X144347618Y-117109914D02*
X144309523Y-117186104D01*
X144309523Y-117186104D02*
X144271428Y-117224200D01*
X144271428Y-117224200D02*
X144195237Y-117262295D01*
X144195237Y-117262295D02*
X143966666Y-117262295D01*
X143966666Y-117262295D02*
X143890475Y-117224200D01*
X143890475Y-117224200D02*
X143852380Y-117186104D01*
X145109523Y-117262295D02*
X144652380Y-117262295D01*
X144880952Y-117262295D02*
X144880952Y-116462295D01*
X144880952Y-116462295D02*
X144804761Y-116576580D01*
X144804761Y-116576580D02*
X144728571Y-116652771D01*
X144728571Y-116652771D02*
X144652380Y-116690866D01*
X141059580Y-93866666D02*
X141107200Y-93914285D01*
X141107200Y-93914285D02*
X141154819Y-94057142D01*
X141154819Y-94057142D02*
X141154819Y-94152380D01*
X141154819Y-94152380D02*
X141107200Y-94295237D01*
X141107200Y-94295237D02*
X141011961Y-94390475D01*
X141011961Y-94390475D02*
X140916723Y-94438094D01*
X140916723Y-94438094D02*
X140726247Y-94485713D01*
X140726247Y-94485713D02*
X140583390Y-94485713D01*
X140583390Y-94485713D02*
X140392914Y-94438094D01*
X140392914Y-94438094D02*
X140297676Y-94390475D01*
X140297676Y-94390475D02*
X140202438Y-94295237D01*
X140202438Y-94295237D02*
X140154819Y-94152380D01*
X140154819Y-94152380D02*
X140154819Y-94057142D01*
X140154819Y-94057142D02*
X140202438Y-93914285D01*
X140202438Y-93914285D02*
X140250057Y-93866666D01*
X140250057Y-93485713D02*
X140202438Y-93438094D01*
X140202438Y-93438094D02*
X140154819Y-93342856D01*
X140154819Y-93342856D02*
X140154819Y-93104761D01*
X140154819Y-93104761D02*
X140202438Y-93009523D01*
X140202438Y-93009523D02*
X140250057Y-92961904D01*
X140250057Y-92961904D02*
X140345295Y-92914285D01*
X140345295Y-92914285D02*
X140440533Y-92914285D01*
X140440533Y-92914285D02*
X140583390Y-92961904D01*
X140583390Y-92961904D02*
X141154819Y-93533332D01*
X141154819Y-93533332D02*
X141154819Y-92914285D01*
X130966666Y-114554819D02*
X130966666Y-115269104D01*
X130966666Y-115269104D02*
X130919047Y-115411961D01*
X130919047Y-115411961D02*
X130823809Y-115507200D01*
X130823809Y-115507200D02*
X130680952Y-115554819D01*
X130680952Y-115554819D02*
X130585714Y-115554819D01*
X131966666Y-115554819D02*
X131395238Y-115554819D01*
X131680952Y-115554819D02*
X131680952Y-114554819D01*
X131680952Y-114554819D02*
X131585714Y-114697676D01*
X131585714Y-114697676D02*
X131490476Y-114792914D01*
X131490476Y-114792914D02*
X131395238Y-114840533D01*
X142259580Y-81866666D02*
X142307200Y-81914285D01*
X142307200Y-81914285D02*
X142354819Y-82057142D01*
X142354819Y-82057142D02*
X142354819Y-82152380D01*
X142354819Y-82152380D02*
X142307200Y-82295237D01*
X142307200Y-82295237D02*
X142211961Y-82390475D01*
X142211961Y-82390475D02*
X142116723Y-82438094D01*
X142116723Y-82438094D02*
X141926247Y-82485713D01*
X141926247Y-82485713D02*
X141783390Y-82485713D01*
X141783390Y-82485713D02*
X141592914Y-82438094D01*
X141592914Y-82438094D02*
X141497676Y-82390475D01*
X141497676Y-82390475D02*
X141402438Y-82295237D01*
X141402438Y-82295237D02*
X141354819Y-82152380D01*
X141354819Y-82152380D02*
X141354819Y-82057142D01*
X141354819Y-82057142D02*
X141402438Y-81914285D01*
X141402438Y-81914285D02*
X141450057Y-81866666D01*
X141354819Y-81533332D02*
X141354819Y-80914285D01*
X141354819Y-80914285D02*
X141735771Y-81247618D01*
X141735771Y-81247618D02*
X141735771Y-81104761D01*
X141735771Y-81104761D02*
X141783390Y-81009523D01*
X141783390Y-81009523D02*
X141831009Y-80961904D01*
X141831009Y-80961904D02*
X141926247Y-80914285D01*
X141926247Y-80914285D02*
X142164342Y-80914285D01*
X142164342Y-80914285D02*
X142259580Y-80961904D01*
X142259580Y-80961904D02*
X142307200Y-81009523D01*
X142307200Y-81009523D02*
X142354819Y-81104761D01*
X142354819Y-81104761D02*
X142354819Y-81390475D01*
X142354819Y-81390475D02*
X142307200Y-81485713D01*
X142307200Y-81485713D02*
X142259580Y-81533332D01*
X132254819Y-104866666D02*
X132254819Y-105342856D01*
X132254819Y-105342856D02*
X131254819Y-105342856D01*
X131254819Y-104628570D02*
X131254819Y-104009523D01*
X131254819Y-104009523D02*
X131635771Y-104342856D01*
X131635771Y-104342856D02*
X131635771Y-104199999D01*
X131635771Y-104199999D02*
X131683390Y-104104761D01*
X131683390Y-104104761D02*
X131731009Y-104057142D01*
X131731009Y-104057142D02*
X131826247Y-104009523D01*
X131826247Y-104009523D02*
X132064342Y-104009523D01*
X132064342Y-104009523D02*
X132159580Y-104057142D01*
X132159580Y-104057142D02*
X132207200Y-104104761D01*
X132207200Y-104104761D02*
X132254819Y-104199999D01*
X132254819Y-104199999D02*
X132254819Y-104485713D01*
X132254819Y-104485713D02*
X132207200Y-104580951D01*
X132207200Y-104580951D02*
X132159580Y-104628570D01*
X134785714Y-114962295D02*
X134519047Y-114581342D01*
X134328571Y-114962295D02*
X134328571Y-114162295D01*
X134328571Y-114162295D02*
X134633333Y-114162295D01*
X134633333Y-114162295D02*
X134709523Y-114200390D01*
X134709523Y-114200390D02*
X134747618Y-114238485D01*
X134747618Y-114238485D02*
X134785714Y-114314676D01*
X134785714Y-114314676D02*
X134785714Y-114428961D01*
X134785714Y-114428961D02*
X134747618Y-114505152D01*
X134747618Y-114505152D02*
X134709523Y-114543247D01*
X134709523Y-114543247D02*
X134633333Y-114581342D01*
X134633333Y-114581342D02*
X134328571Y-114581342D01*
X135547618Y-114962295D02*
X135090475Y-114962295D01*
X135319047Y-114962295D02*
X135319047Y-114162295D01*
X135319047Y-114162295D02*
X135242856Y-114276580D01*
X135242856Y-114276580D02*
X135166666Y-114352771D01*
X135166666Y-114352771D02*
X135090475Y-114390866D01*
X135814285Y-114162295D02*
X136309523Y-114162295D01*
X136309523Y-114162295D02*
X136042857Y-114467057D01*
X136042857Y-114467057D02*
X136157142Y-114467057D01*
X136157142Y-114467057D02*
X136233333Y-114505152D01*
X136233333Y-114505152D02*
X136271428Y-114543247D01*
X136271428Y-114543247D02*
X136309523Y-114619438D01*
X136309523Y-114619438D02*
X136309523Y-114809914D01*
X136309523Y-114809914D02*
X136271428Y-114886104D01*
X136271428Y-114886104D02*
X136233333Y-114924200D01*
X136233333Y-114924200D02*
X136157142Y-114962295D01*
X136157142Y-114962295D02*
X135928571Y-114962295D01*
X135928571Y-114962295D02*
X135852380Y-114924200D01*
X135852380Y-114924200D02*
X135814285Y-114886104D01*
X142685714Y-102986104D02*
X142647618Y-103024200D01*
X142647618Y-103024200D02*
X142533333Y-103062295D01*
X142533333Y-103062295D02*
X142457142Y-103062295D01*
X142457142Y-103062295D02*
X142342856Y-103024200D01*
X142342856Y-103024200D02*
X142266666Y-102948009D01*
X142266666Y-102948009D02*
X142228571Y-102871819D01*
X142228571Y-102871819D02*
X142190475Y-102719438D01*
X142190475Y-102719438D02*
X142190475Y-102605152D01*
X142190475Y-102605152D02*
X142228571Y-102452771D01*
X142228571Y-102452771D02*
X142266666Y-102376580D01*
X142266666Y-102376580D02*
X142342856Y-102300390D01*
X142342856Y-102300390D02*
X142457142Y-102262295D01*
X142457142Y-102262295D02*
X142533333Y-102262295D01*
X142533333Y-102262295D02*
X142647618Y-102300390D01*
X142647618Y-102300390D02*
X142685714Y-102338485D01*
X142990475Y-102338485D02*
X143028571Y-102300390D01*
X143028571Y-102300390D02*
X143104761Y-102262295D01*
X143104761Y-102262295D02*
X143295237Y-102262295D01*
X143295237Y-102262295D02*
X143371428Y-102300390D01*
X143371428Y-102300390D02*
X143409523Y-102338485D01*
X143409523Y-102338485D02*
X143447618Y-102414676D01*
X143447618Y-102414676D02*
X143447618Y-102490866D01*
X143447618Y-102490866D02*
X143409523Y-102605152D01*
X143409523Y-102605152D02*
X142952380Y-103062295D01*
X142952380Y-103062295D02*
X143447618Y-103062295D01*
X143714285Y-102262295D02*
X144209523Y-102262295D01*
X144209523Y-102262295D02*
X143942857Y-102567057D01*
X143942857Y-102567057D02*
X144057142Y-102567057D01*
X144057142Y-102567057D02*
X144133333Y-102605152D01*
X144133333Y-102605152D02*
X144171428Y-102643247D01*
X144171428Y-102643247D02*
X144209523Y-102719438D01*
X144209523Y-102719438D02*
X144209523Y-102909914D01*
X144209523Y-102909914D02*
X144171428Y-102986104D01*
X144171428Y-102986104D02*
X144133333Y-103024200D01*
X144133333Y-103024200D02*
X144057142Y-103062295D01*
X144057142Y-103062295D02*
X143828571Y-103062295D01*
X143828571Y-103062295D02*
X143752380Y-103024200D01*
X143752380Y-103024200D02*
X143714285Y-102986104D01*
X158866666Y-113154819D02*
X158866666Y-113869104D01*
X158866666Y-113869104D02*
X158819047Y-114011961D01*
X158819047Y-114011961D02*
X158723809Y-114107200D01*
X158723809Y-114107200D02*
X158580952Y-114154819D01*
X158580952Y-114154819D02*
X158485714Y-114154819D01*
X159295238Y-113250057D02*
X159342857Y-113202438D01*
X159342857Y-113202438D02*
X159438095Y-113154819D01*
X159438095Y-113154819D02*
X159676190Y-113154819D01*
X159676190Y-113154819D02*
X159771428Y-113202438D01*
X159771428Y-113202438D02*
X159819047Y-113250057D01*
X159819047Y-113250057D02*
X159866666Y-113345295D01*
X159866666Y-113345295D02*
X159866666Y-113440533D01*
X159866666Y-113440533D02*
X159819047Y-113583390D01*
X159819047Y-113583390D02*
X159247619Y-114154819D01*
X159247619Y-114154819D02*
X159866666Y-114154819D01*
X159754819Y-93566666D02*
X159754819Y-94042856D01*
X159754819Y-94042856D02*
X158754819Y-94042856D01*
X158850057Y-93280951D02*
X158802438Y-93233332D01*
X158802438Y-93233332D02*
X158754819Y-93138094D01*
X158754819Y-93138094D02*
X158754819Y-92899999D01*
X158754819Y-92899999D02*
X158802438Y-92804761D01*
X158802438Y-92804761D02*
X158850057Y-92757142D01*
X158850057Y-92757142D02*
X158945295Y-92709523D01*
X158945295Y-92709523D02*
X159040533Y-92709523D01*
X159040533Y-92709523D02*
X159183390Y-92757142D01*
X159183390Y-92757142D02*
X159754819Y-93328570D01*
X159754819Y-93328570D02*
X159754819Y-92709523D01*
X160266666Y-93754819D02*
X160266666Y-94469104D01*
X160266666Y-94469104D02*
X160219047Y-94611961D01*
X160219047Y-94611961D02*
X160123809Y-94707200D01*
X160123809Y-94707200D02*
X159980952Y-94754819D01*
X159980952Y-94754819D02*
X159885714Y-94754819D01*
X161171428Y-93754819D02*
X160980952Y-93754819D01*
X160980952Y-93754819D02*
X160885714Y-93802438D01*
X160885714Y-93802438D02*
X160838095Y-93850057D01*
X160838095Y-93850057D02*
X160742857Y-93992914D01*
X160742857Y-93992914D02*
X160695238Y-94183390D01*
X160695238Y-94183390D02*
X160695238Y-94564342D01*
X160695238Y-94564342D02*
X160742857Y-94659580D01*
X160742857Y-94659580D02*
X160790476Y-94707200D01*
X160790476Y-94707200D02*
X160885714Y-94754819D01*
X160885714Y-94754819D02*
X161076190Y-94754819D01*
X161076190Y-94754819D02*
X161171428Y-94707200D01*
X161171428Y-94707200D02*
X161219047Y-94659580D01*
X161219047Y-94659580D02*
X161266666Y-94564342D01*
X161266666Y-94564342D02*
X161266666Y-94326247D01*
X161266666Y-94326247D02*
X161219047Y-94231009D01*
X161219047Y-94231009D02*
X161171428Y-94183390D01*
X161171428Y-94183390D02*
X161076190Y-94135771D01*
X161076190Y-94135771D02*
X160885714Y-94135771D01*
X160885714Y-94135771D02*
X160790476Y-94183390D01*
X160790476Y-94183390D02*
X160742857Y-94231009D01*
X160742857Y-94231009D02*
X160695238Y-94326247D01*
X140833333Y-84259580D02*
X140785714Y-84307200D01*
X140785714Y-84307200D02*
X140642857Y-84354819D01*
X140642857Y-84354819D02*
X140547619Y-84354819D01*
X140547619Y-84354819D02*
X140404762Y-84307200D01*
X140404762Y-84307200D02*
X140309524Y-84211961D01*
X140309524Y-84211961D02*
X140261905Y-84116723D01*
X140261905Y-84116723D02*
X140214286Y-83926247D01*
X140214286Y-83926247D02*
X140214286Y-83783390D01*
X140214286Y-83783390D02*
X140261905Y-83592914D01*
X140261905Y-83592914D02*
X140309524Y-83497676D01*
X140309524Y-83497676D02*
X140404762Y-83402438D01*
X140404762Y-83402438D02*
X140547619Y-83354819D01*
X140547619Y-83354819D02*
X140642857Y-83354819D01*
X140642857Y-83354819D02*
X140785714Y-83402438D01*
X140785714Y-83402438D02*
X140833333Y-83450057D01*
X141690476Y-83688152D02*
X141690476Y-84354819D01*
X141452381Y-83307200D02*
X141214286Y-84021485D01*
X141214286Y-84021485D02*
X141833333Y-84021485D01*
X142685714Y-101886104D02*
X142647618Y-101924200D01*
X142647618Y-101924200D02*
X142533333Y-101962295D01*
X142533333Y-101962295D02*
X142457142Y-101962295D01*
X142457142Y-101962295D02*
X142342856Y-101924200D01*
X142342856Y-101924200D02*
X142266666Y-101848009D01*
X142266666Y-101848009D02*
X142228571Y-101771819D01*
X142228571Y-101771819D02*
X142190475Y-101619438D01*
X142190475Y-101619438D02*
X142190475Y-101505152D01*
X142190475Y-101505152D02*
X142228571Y-101352771D01*
X142228571Y-101352771D02*
X142266666Y-101276580D01*
X142266666Y-101276580D02*
X142342856Y-101200390D01*
X142342856Y-101200390D02*
X142457142Y-101162295D01*
X142457142Y-101162295D02*
X142533333Y-101162295D01*
X142533333Y-101162295D02*
X142647618Y-101200390D01*
X142647618Y-101200390D02*
X142685714Y-101238485D01*
X142990475Y-101238485D02*
X143028571Y-101200390D01*
X143028571Y-101200390D02*
X143104761Y-101162295D01*
X143104761Y-101162295D02*
X143295237Y-101162295D01*
X143295237Y-101162295D02*
X143371428Y-101200390D01*
X143371428Y-101200390D02*
X143409523Y-101238485D01*
X143409523Y-101238485D02*
X143447618Y-101314676D01*
X143447618Y-101314676D02*
X143447618Y-101390866D01*
X143447618Y-101390866D02*
X143409523Y-101505152D01*
X143409523Y-101505152D02*
X142952380Y-101962295D01*
X142952380Y-101962295D02*
X143447618Y-101962295D01*
X144133333Y-101428961D02*
X144133333Y-101962295D01*
X143942857Y-101124200D02*
X143752380Y-101695628D01*
X143752380Y-101695628D02*
X144247619Y-101695628D01*
X151359580Y-83466666D02*
X151407200Y-83514285D01*
X151407200Y-83514285D02*
X151454819Y-83657142D01*
X151454819Y-83657142D02*
X151454819Y-83752380D01*
X151454819Y-83752380D02*
X151407200Y-83895237D01*
X151407200Y-83895237D02*
X151311961Y-83990475D01*
X151311961Y-83990475D02*
X151216723Y-84038094D01*
X151216723Y-84038094D02*
X151026247Y-84085713D01*
X151026247Y-84085713D02*
X150883390Y-84085713D01*
X150883390Y-84085713D02*
X150692914Y-84038094D01*
X150692914Y-84038094D02*
X150597676Y-83990475D01*
X150597676Y-83990475D02*
X150502438Y-83895237D01*
X150502438Y-83895237D02*
X150454819Y-83752380D01*
X150454819Y-83752380D02*
X150454819Y-83657142D01*
X150454819Y-83657142D02*
X150502438Y-83514285D01*
X150502438Y-83514285D02*
X150550057Y-83466666D01*
X150454819Y-82609523D02*
X150454819Y-82799999D01*
X150454819Y-82799999D02*
X150502438Y-82895237D01*
X150502438Y-82895237D02*
X150550057Y-82942856D01*
X150550057Y-82942856D02*
X150692914Y-83038094D01*
X150692914Y-83038094D02*
X150883390Y-83085713D01*
X150883390Y-83085713D02*
X151264342Y-83085713D01*
X151264342Y-83085713D02*
X151359580Y-83038094D01*
X151359580Y-83038094D02*
X151407200Y-82990475D01*
X151407200Y-82990475D02*
X151454819Y-82895237D01*
X151454819Y-82895237D02*
X151454819Y-82704761D01*
X151454819Y-82704761D02*
X151407200Y-82609523D01*
X151407200Y-82609523D02*
X151359580Y-82561904D01*
X151359580Y-82561904D02*
X151264342Y-82514285D01*
X151264342Y-82514285D02*
X151026247Y-82514285D01*
X151026247Y-82514285D02*
X150931009Y-82561904D01*
X150931009Y-82561904D02*
X150883390Y-82609523D01*
X150883390Y-82609523D02*
X150835771Y-82704761D01*
X150835771Y-82704761D02*
X150835771Y-82895237D01*
X150835771Y-82895237D02*
X150883390Y-82990475D01*
X150883390Y-82990475D02*
X150931009Y-83038094D01*
X150931009Y-83038094D02*
X151026247Y-83085713D01*
X131029819Y-92061904D02*
X131839342Y-92061904D01*
X131839342Y-92061904D02*
X131934580Y-92014285D01*
X131934580Y-92014285D02*
X131982200Y-91966666D01*
X131982200Y-91966666D02*
X132029819Y-91871428D01*
X132029819Y-91871428D02*
X132029819Y-91680952D01*
X132029819Y-91680952D02*
X131982200Y-91585714D01*
X131982200Y-91585714D02*
X131934580Y-91538095D01*
X131934580Y-91538095D02*
X131839342Y-91490476D01*
X131839342Y-91490476D02*
X131029819Y-91490476D01*
X132029819Y-90490476D02*
X132029819Y-91061904D01*
X132029819Y-90776190D02*
X131029819Y-90776190D01*
X131029819Y-90776190D02*
X131172676Y-90871428D01*
X131172676Y-90871428D02*
X131267914Y-90966666D01*
X131267914Y-90966666D02*
X131315533Y-91061904D01*
X130638095Y-100754819D02*
X130638095Y-101564342D01*
X130638095Y-101564342D02*
X130685714Y-101659580D01*
X130685714Y-101659580D02*
X130733333Y-101707200D01*
X130733333Y-101707200D02*
X130828571Y-101754819D01*
X130828571Y-101754819D02*
X131019047Y-101754819D01*
X131019047Y-101754819D02*
X131114285Y-101707200D01*
X131114285Y-101707200D02*
X131161904Y-101659580D01*
X131161904Y-101659580D02*
X131209523Y-101564342D01*
X131209523Y-101564342D02*
X131209523Y-100754819D01*
X131590476Y-100754819D02*
X132209523Y-100754819D01*
X132209523Y-100754819D02*
X131876190Y-101135771D01*
X131876190Y-101135771D02*
X132019047Y-101135771D01*
X132019047Y-101135771D02*
X132114285Y-101183390D01*
X132114285Y-101183390D02*
X132161904Y-101231009D01*
X132161904Y-101231009D02*
X132209523Y-101326247D01*
X132209523Y-101326247D02*
X132209523Y-101564342D01*
X132209523Y-101564342D02*
X132161904Y-101659580D01*
X132161904Y-101659580D02*
X132114285Y-101707200D01*
X132114285Y-101707200D02*
X132019047Y-101754819D01*
X132019047Y-101754819D02*
X131733333Y-101754819D01*
X131733333Y-101754819D02*
X131638095Y-101707200D01*
X131638095Y-101707200D02*
X131590476Y-101659580D01*
X154857142Y-107254819D02*
X154523809Y-106778628D01*
X154285714Y-107254819D02*
X154285714Y-106254819D01*
X154285714Y-106254819D02*
X154666666Y-106254819D01*
X154666666Y-106254819D02*
X154761904Y-106302438D01*
X154761904Y-106302438D02*
X154809523Y-106350057D01*
X154809523Y-106350057D02*
X154857142Y-106445295D01*
X154857142Y-106445295D02*
X154857142Y-106588152D01*
X154857142Y-106588152D02*
X154809523Y-106683390D01*
X154809523Y-106683390D02*
X154761904Y-106731009D01*
X154761904Y-106731009D02*
X154666666Y-106778628D01*
X154666666Y-106778628D02*
X154285714Y-106778628D01*
X155809523Y-107254819D02*
X155238095Y-107254819D01*
X155523809Y-107254819D02*
X155523809Y-106254819D01*
X155523809Y-106254819D02*
X155428571Y-106397676D01*
X155428571Y-106397676D02*
X155333333Y-106492914D01*
X155333333Y-106492914D02*
X155238095Y-106540533D01*
X156666666Y-106588152D02*
X156666666Y-107254819D01*
X156428571Y-106207200D02*
X156190476Y-106921485D01*
X156190476Y-106921485D02*
X156809523Y-106921485D01*
X169312231Y-87942857D02*
X169359851Y-87990476D01*
X169359851Y-87990476D02*
X169407470Y-88133333D01*
X169407470Y-88133333D02*
X169407470Y-88228571D01*
X169407470Y-88228571D02*
X169359851Y-88371428D01*
X169359851Y-88371428D02*
X169264612Y-88466666D01*
X169264612Y-88466666D02*
X169169374Y-88514285D01*
X169169374Y-88514285D02*
X168978898Y-88561904D01*
X168978898Y-88561904D02*
X168836041Y-88561904D01*
X168836041Y-88561904D02*
X168645565Y-88514285D01*
X168645565Y-88514285D02*
X168550327Y-88466666D01*
X168550327Y-88466666D02*
X168455089Y-88371428D01*
X168455089Y-88371428D02*
X168407470Y-88228571D01*
X168407470Y-88228571D02*
X168407470Y-88133333D01*
X168407470Y-88133333D02*
X168455089Y-87990476D01*
X168455089Y-87990476D02*
X168502708Y-87942857D01*
X169407470Y-86990476D02*
X169407470Y-87561904D01*
X169407470Y-87276190D02*
X168407470Y-87276190D01*
X168407470Y-87276190D02*
X168550327Y-87371428D01*
X168550327Y-87371428D02*
X168645565Y-87466666D01*
X168645565Y-87466666D02*
X168693184Y-87561904D01*
X168836041Y-86419047D02*
X168788422Y-86514285D01*
X168788422Y-86514285D02*
X168740803Y-86561904D01*
X168740803Y-86561904D02*
X168645565Y-86609523D01*
X168645565Y-86609523D02*
X168597946Y-86609523D01*
X168597946Y-86609523D02*
X168502708Y-86561904D01*
X168502708Y-86561904D02*
X168455089Y-86514285D01*
X168455089Y-86514285D02*
X168407470Y-86419047D01*
X168407470Y-86419047D02*
X168407470Y-86228571D01*
X168407470Y-86228571D02*
X168455089Y-86133333D01*
X168455089Y-86133333D02*
X168502708Y-86085714D01*
X168502708Y-86085714D02*
X168597946Y-86038095D01*
X168597946Y-86038095D02*
X168645565Y-86038095D01*
X168645565Y-86038095D02*
X168740803Y-86085714D01*
X168740803Y-86085714D02*
X168788422Y-86133333D01*
X168788422Y-86133333D02*
X168836041Y-86228571D01*
X168836041Y-86228571D02*
X168836041Y-86419047D01*
X168836041Y-86419047D02*
X168883660Y-86514285D01*
X168883660Y-86514285D02*
X168931279Y-86561904D01*
X168931279Y-86561904D02*
X169026517Y-86609523D01*
X169026517Y-86609523D02*
X169216993Y-86609523D01*
X169216993Y-86609523D02*
X169312231Y-86561904D01*
X169312231Y-86561904D02*
X169359851Y-86514285D01*
X169359851Y-86514285D02*
X169407470Y-86419047D01*
X169407470Y-86419047D02*
X169407470Y-86228571D01*
X169407470Y-86228571D02*
X169359851Y-86133333D01*
X169359851Y-86133333D02*
X169312231Y-86085714D01*
X169312231Y-86085714D02*
X169216993Y-86038095D01*
X169216993Y-86038095D02*
X169026517Y-86038095D01*
X169026517Y-86038095D02*
X168931279Y-86085714D01*
X168931279Y-86085714D02*
X168883660Y-86133333D01*
X168883660Y-86133333D02*
X168836041Y-86228571D01*
X168466666Y-93754819D02*
X168466666Y-94469104D01*
X168466666Y-94469104D02*
X168419047Y-94611961D01*
X168419047Y-94611961D02*
X168323809Y-94707200D01*
X168323809Y-94707200D02*
X168180952Y-94754819D01*
X168180952Y-94754819D02*
X168085714Y-94754819D01*
X169419047Y-93754819D02*
X168942857Y-93754819D01*
X168942857Y-93754819D02*
X168895238Y-94231009D01*
X168895238Y-94231009D02*
X168942857Y-94183390D01*
X168942857Y-94183390D02*
X169038095Y-94135771D01*
X169038095Y-94135771D02*
X169276190Y-94135771D01*
X169276190Y-94135771D02*
X169371428Y-94183390D01*
X169371428Y-94183390D02*
X169419047Y-94231009D01*
X169419047Y-94231009D02*
X169466666Y-94326247D01*
X169466666Y-94326247D02*
X169466666Y-94564342D01*
X169466666Y-94564342D02*
X169419047Y-94659580D01*
X169419047Y-94659580D02*
X169371428Y-94707200D01*
X169371428Y-94707200D02*
X169276190Y-94754819D01*
X169276190Y-94754819D02*
X169038095Y-94754819D01*
X169038095Y-94754819D02*
X168942857Y-94707200D01*
X168942857Y-94707200D02*
X168895238Y-94659580D01*
X144833333Y-82654819D02*
X144357143Y-82654819D01*
X144357143Y-82654819D02*
X144357143Y-81654819D01*
X145690476Y-82654819D02*
X145119048Y-82654819D01*
X145404762Y-82654819D02*
X145404762Y-81654819D01*
X145404762Y-81654819D02*
X145309524Y-81797676D01*
X145309524Y-81797676D02*
X145214286Y-81892914D01*
X145214286Y-81892914D02*
X145119048Y-81940533D01*
X131461905Y-94054819D02*
X131461905Y-93054819D01*
X131461905Y-93054819D02*
X131700000Y-93054819D01*
X131700000Y-93054819D02*
X131842857Y-93102438D01*
X131842857Y-93102438D02*
X131938095Y-93197676D01*
X131938095Y-93197676D02*
X131985714Y-93292914D01*
X131985714Y-93292914D02*
X132033333Y-93483390D01*
X132033333Y-93483390D02*
X132033333Y-93626247D01*
X132033333Y-93626247D02*
X131985714Y-93816723D01*
X131985714Y-93816723D02*
X131938095Y-93911961D01*
X131938095Y-93911961D02*
X131842857Y-94007200D01*
X131842857Y-94007200D02*
X131700000Y-94054819D01*
X131700000Y-94054819D02*
X131461905Y-94054819D01*
X132985714Y-94054819D02*
X132414286Y-94054819D01*
X132700000Y-94054819D02*
X132700000Y-93054819D01*
X132700000Y-93054819D02*
X132604762Y-93197676D01*
X132604762Y-93197676D02*
X132509524Y-93292914D01*
X132509524Y-93292914D02*
X132414286Y-93340533D01*
X160154819Y-85166666D02*
X159678628Y-85499999D01*
X160154819Y-85738094D02*
X159154819Y-85738094D01*
X159154819Y-85738094D02*
X159154819Y-85357142D01*
X159154819Y-85357142D02*
X159202438Y-85261904D01*
X159202438Y-85261904D02*
X159250057Y-85214285D01*
X159250057Y-85214285D02*
X159345295Y-85166666D01*
X159345295Y-85166666D02*
X159488152Y-85166666D01*
X159488152Y-85166666D02*
X159583390Y-85214285D01*
X159583390Y-85214285D02*
X159631009Y-85261904D01*
X159631009Y-85261904D02*
X159678628Y-85357142D01*
X159678628Y-85357142D02*
X159678628Y-85738094D01*
X159154819Y-84833332D02*
X159154819Y-84166666D01*
X159154819Y-84166666D02*
X160154819Y-84595237D01*
X143485714Y-113386104D02*
X143447618Y-113424200D01*
X143447618Y-113424200D02*
X143333333Y-113462295D01*
X143333333Y-113462295D02*
X143257142Y-113462295D01*
X143257142Y-113462295D02*
X143142856Y-113424200D01*
X143142856Y-113424200D02*
X143066666Y-113348009D01*
X143066666Y-113348009D02*
X143028571Y-113271819D01*
X143028571Y-113271819D02*
X142990475Y-113119438D01*
X142990475Y-113119438D02*
X142990475Y-113005152D01*
X142990475Y-113005152D02*
X143028571Y-112852771D01*
X143028571Y-112852771D02*
X143066666Y-112776580D01*
X143066666Y-112776580D02*
X143142856Y-112700390D01*
X143142856Y-112700390D02*
X143257142Y-112662295D01*
X143257142Y-112662295D02*
X143333333Y-112662295D01*
X143333333Y-112662295D02*
X143447618Y-112700390D01*
X143447618Y-112700390D02*
X143485714Y-112738485D01*
X143752380Y-112662295D02*
X144247618Y-112662295D01*
X144247618Y-112662295D02*
X143980952Y-112967057D01*
X143980952Y-112967057D02*
X144095237Y-112967057D01*
X144095237Y-112967057D02*
X144171428Y-113005152D01*
X144171428Y-113005152D02*
X144209523Y-113043247D01*
X144209523Y-113043247D02*
X144247618Y-113119438D01*
X144247618Y-113119438D02*
X144247618Y-113309914D01*
X144247618Y-113309914D02*
X144209523Y-113386104D01*
X144209523Y-113386104D02*
X144171428Y-113424200D01*
X144171428Y-113424200D02*
X144095237Y-113462295D01*
X144095237Y-113462295D02*
X143866666Y-113462295D01*
X143866666Y-113462295D02*
X143790475Y-113424200D01*
X143790475Y-113424200D02*
X143752380Y-113386104D01*
X144933333Y-112928961D02*
X144933333Y-113462295D01*
X144742857Y-112624200D02*
X144552380Y-113195628D01*
X144552380Y-113195628D02*
X145047619Y-113195628D01*
X133359580Y-116342857D02*
X133407200Y-116390476D01*
X133407200Y-116390476D02*
X133454819Y-116533333D01*
X133454819Y-116533333D02*
X133454819Y-116628571D01*
X133454819Y-116628571D02*
X133407200Y-116771428D01*
X133407200Y-116771428D02*
X133311961Y-116866666D01*
X133311961Y-116866666D02*
X133216723Y-116914285D01*
X133216723Y-116914285D02*
X133026247Y-116961904D01*
X133026247Y-116961904D02*
X132883390Y-116961904D01*
X132883390Y-116961904D02*
X132692914Y-116914285D01*
X132692914Y-116914285D02*
X132597676Y-116866666D01*
X132597676Y-116866666D02*
X132502438Y-116771428D01*
X132502438Y-116771428D02*
X132454819Y-116628571D01*
X132454819Y-116628571D02*
X132454819Y-116533333D01*
X132454819Y-116533333D02*
X132502438Y-116390476D01*
X132502438Y-116390476D02*
X132550057Y-116342857D01*
X132454819Y-116009523D02*
X132454819Y-115390476D01*
X132454819Y-115390476D02*
X132835771Y-115723809D01*
X132835771Y-115723809D02*
X132835771Y-115580952D01*
X132835771Y-115580952D02*
X132883390Y-115485714D01*
X132883390Y-115485714D02*
X132931009Y-115438095D01*
X132931009Y-115438095D02*
X133026247Y-115390476D01*
X133026247Y-115390476D02*
X133264342Y-115390476D01*
X133264342Y-115390476D02*
X133359580Y-115438095D01*
X133359580Y-115438095D02*
X133407200Y-115485714D01*
X133407200Y-115485714D02*
X133454819Y-115580952D01*
X133454819Y-115580952D02*
X133454819Y-115866666D01*
X133454819Y-115866666D02*
X133407200Y-115961904D01*
X133407200Y-115961904D02*
X133359580Y-116009523D01*
X132550057Y-115009523D02*
X132502438Y-114961904D01*
X132502438Y-114961904D02*
X132454819Y-114866666D01*
X132454819Y-114866666D02*
X132454819Y-114628571D01*
X132454819Y-114628571D02*
X132502438Y-114533333D01*
X132502438Y-114533333D02*
X132550057Y-114485714D01*
X132550057Y-114485714D02*
X132645295Y-114438095D01*
X132645295Y-114438095D02*
X132740533Y-114438095D01*
X132740533Y-114438095D02*
X132883390Y-114485714D01*
X132883390Y-114485714D02*
X133454819Y-115057142D01*
X133454819Y-115057142D02*
X133454819Y-114438095D01*
X136757142Y-112154819D02*
X136423809Y-111678628D01*
X136185714Y-112154819D02*
X136185714Y-111154819D01*
X136185714Y-111154819D02*
X136566666Y-111154819D01*
X136566666Y-111154819D02*
X136661904Y-111202438D01*
X136661904Y-111202438D02*
X136709523Y-111250057D01*
X136709523Y-111250057D02*
X136757142Y-111345295D01*
X136757142Y-111345295D02*
X136757142Y-111488152D01*
X136757142Y-111488152D02*
X136709523Y-111583390D01*
X136709523Y-111583390D02*
X136661904Y-111631009D01*
X136661904Y-111631009D02*
X136566666Y-111678628D01*
X136566666Y-111678628D02*
X136185714Y-111678628D01*
X137709523Y-112154819D02*
X137138095Y-112154819D01*
X137423809Y-112154819D02*
X137423809Y-111154819D01*
X137423809Y-111154819D02*
X137328571Y-111297676D01*
X137328571Y-111297676D02*
X137233333Y-111392914D01*
X137233333Y-111392914D02*
X137138095Y-111440533D01*
X138090476Y-111250057D02*
X138138095Y-111202438D01*
X138138095Y-111202438D02*
X138233333Y-111154819D01*
X138233333Y-111154819D02*
X138471428Y-111154819D01*
X138471428Y-111154819D02*
X138566666Y-111202438D01*
X138566666Y-111202438D02*
X138614285Y-111250057D01*
X138614285Y-111250057D02*
X138661904Y-111345295D01*
X138661904Y-111345295D02*
X138661904Y-111440533D01*
X138661904Y-111440533D02*
X138614285Y-111583390D01*
X138614285Y-111583390D02*
X138042857Y-112154819D01*
X138042857Y-112154819D02*
X138661904Y-112154819D01*
X140057142Y-109659580D02*
X140009523Y-109707200D01*
X140009523Y-109707200D02*
X139866666Y-109754819D01*
X139866666Y-109754819D02*
X139771428Y-109754819D01*
X139771428Y-109754819D02*
X139628571Y-109707200D01*
X139628571Y-109707200D02*
X139533333Y-109611961D01*
X139533333Y-109611961D02*
X139485714Y-109516723D01*
X139485714Y-109516723D02*
X139438095Y-109326247D01*
X139438095Y-109326247D02*
X139438095Y-109183390D01*
X139438095Y-109183390D02*
X139485714Y-108992914D01*
X139485714Y-108992914D02*
X139533333Y-108897676D01*
X139533333Y-108897676D02*
X139628571Y-108802438D01*
X139628571Y-108802438D02*
X139771428Y-108754819D01*
X139771428Y-108754819D02*
X139866666Y-108754819D01*
X139866666Y-108754819D02*
X140009523Y-108802438D01*
X140009523Y-108802438D02*
X140057142Y-108850057D01*
X140390476Y-108754819D02*
X141009523Y-108754819D01*
X141009523Y-108754819D02*
X140676190Y-109135771D01*
X140676190Y-109135771D02*
X140819047Y-109135771D01*
X140819047Y-109135771D02*
X140914285Y-109183390D01*
X140914285Y-109183390D02*
X140961904Y-109231009D01*
X140961904Y-109231009D02*
X141009523Y-109326247D01*
X141009523Y-109326247D02*
X141009523Y-109564342D01*
X141009523Y-109564342D02*
X140961904Y-109659580D01*
X140961904Y-109659580D02*
X140914285Y-109707200D01*
X140914285Y-109707200D02*
X140819047Y-109754819D01*
X140819047Y-109754819D02*
X140533333Y-109754819D01*
X140533333Y-109754819D02*
X140438095Y-109707200D01*
X140438095Y-109707200D02*
X140390476Y-109659580D01*
X141866666Y-108754819D02*
X141676190Y-108754819D01*
X141676190Y-108754819D02*
X141580952Y-108802438D01*
X141580952Y-108802438D02*
X141533333Y-108850057D01*
X141533333Y-108850057D02*
X141438095Y-108992914D01*
X141438095Y-108992914D02*
X141390476Y-109183390D01*
X141390476Y-109183390D02*
X141390476Y-109564342D01*
X141390476Y-109564342D02*
X141438095Y-109659580D01*
X141438095Y-109659580D02*
X141485714Y-109707200D01*
X141485714Y-109707200D02*
X141580952Y-109754819D01*
X141580952Y-109754819D02*
X141771428Y-109754819D01*
X141771428Y-109754819D02*
X141866666Y-109707200D01*
X141866666Y-109707200D02*
X141914285Y-109659580D01*
X141914285Y-109659580D02*
X141961904Y-109564342D01*
X141961904Y-109564342D02*
X141961904Y-109326247D01*
X141961904Y-109326247D02*
X141914285Y-109231009D01*
X141914285Y-109231009D02*
X141866666Y-109183390D01*
X141866666Y-109183390D02*
X141771428Y-109135771D01*
X141771428Y-109135771D02*
X141580952Y-109135771D01*
X141580952Y-109135771D02*
X141485714Y-109183390D01*
X141485714Y-109183390D02*
X141438095Y-109231009D01*
X141438095Y-109231009D02*
X141390476Y-109326247D01*
X136785714Y-95762295D02*
X136519047Y-95381342D01*
X136328571Y-95762295D02*
X136328571Y-94962295D01*
X136328571Y-94962295D02*
X136633333Y-94962295D01*
X136633333Y-94962295D02*
X136709523Y-95000390D01*
X136709523Y-95000390D02*
X136747618Y-95038485D01*
X136747618Y-95038485D02*
X136785714Y-95114676D01*
X136785714Y-95114676D02*
X136785714Y-95228961D01*
X136785714Y-95228961D02*
X136747618Y-95305152D01*
X136747618Y-95305152D02*
X136709523Y-95343247D01*
X136709523Y-95343247D02*
X136633333Y-95381342D01*
X136633333Y-95381342D02*
X136328571Y-95381342D01*
X137547618Y-95762295D02*
X137090475Y-95762295D01*
X137319047Y-95762295D02*
X137319047Y-94962295D01*
X137319047Y-94962295D02*
X137242856Y-95076580D01*
X137242856Y-95076580D02*
X137166666Y-95152771D01*
X137166666Y-95152771D02*
X137090475Y-95190866D01*
X138309523Y-95762295D02*
X137852380Y-95762295D01*
X138080952Y-95762295D02*
X138080952Y-94962295D01*
X138080952Y-94962295D02*
X138004761Y-95076580D01*
X138004761Y-95076580D02*
X137928571Y-95152771D01*
X137928571Y-95152771D02*
X137852380Y-95190866D01*
X143485714Y-112286104D02*
X143447618Y-112324200D01*
X143447618Y-112324200D02*
X143333333Y-112362295D01*
X143333333Y-112362295D02*
X143257142Y-112362295D01*
X143257142Y-112362295D02*
X143142856Y-112324200D01*
X143142856Y-112324200D02*
X143066666Y-112248009D01*
X143066666Y-112248009D02*
X143028571Y-112171819D01*
X143028571Y-112171819D02*
X142990475Y-112019438D01*
X142990475Y-112019438D02*
X142990475Y-111905152D01*
X142990475Y-111905152D02*
X143028571Y-111752771D01*
X143028571Y-111752771D02*
X143066666Y-111676580D01*
X143066666Y-111676580D02*
X143142856Y-111600390D01*
X143142856Y-111600390D02*
X143257142Y-111562295D01*
X143257142Y-111562295D02*
X143333333Y-111562295D01*
X143333333Y-111562295D02*
X143447618Y-111600390D01*
X143447618Y-111600390D02*
X143485714Y-111638485D01*
X143752380Y-111562295D02*
X144247618Y-111562295D01*
X144247618Y-111562295D02*
X143980952Y-111867057D01*
X143980952Y-111867057D02*
X144095237Y-111867057D01*
X144095237Y-111867057D02*
X144171428Y-111905152D01*
X144171428Y-111905152D02*
X144209523Y-111943247D01*
X144209523Y-111943247D02*
X144247618Y-112019438D01*
X144247618Y-112019438D02*
X144247618Y-112209914D01*
X144247618Y-112209914D02*
X144209523Y-112286104D01*
X144209523Y-112286104D02*
X144171428Y-112324200D01*
X144171428Y-112324200D02*
X144095237Y-112362295D01*
X144095237Y-112362295D02*
X143866666Y-112362295D01*
X143866666Y-112362295D02*
X143790475Y-112324200D01*
X143790475Y-112324200D02*
X143752380Y-112286104D01*
X144971428Y-111562295D02*
X144590476Y-111562295D01*
X144590476Y-111562295D02*
X144552380Y-111943247D01*
X144552380Y-111943247D02*
X144590476Y-111905152D01*
X144590476Y-111905152D02*
X144666666Y-111867057D01*
X144666666Y-111867057D02*
X144857142Y-111867057D01*
X144857142Y-111867057D02*
X144933333Y-111905152D01*
X144933333Y-111905152D02*
X144971428Y-111943247D01*
X144971428Y-111943247D02*
X145009523Y-112019438D01*
X145009523Y-112019438D02*
X145009523Y-112209914D01*
X145009523Y-112209914D02*
X144971428Y-112286104D01*
X144971428Y-112286104D02*
X144933333Y-112324200D01*
X144933333Y-112324200D02*
X144857142Y-112362295D01*
X144857142Y-112362295D02*
X144666666Y-112362295D01*
X144666666Y-112362295D02*
X144590476Y-112324200D01*
X144590476Y-112324200D02*
X144552380Y-112286104D01*
X169459580Y-112342857D02*
X169507200Y-112390476D01*
X169507200Y-112390476D02*
X169554819Y-112533333D01*
X169554819Y-112533333D02*
X169554819Y-112628571D01*
X169554819Y-112628571D02*
X169507200Y-112771428D01*
X169507200Y-112771428D02*
X169411961Y-112866666D01*
X169411961Y-112866666D02*
X169316723Y-112914285D01*
X169316723Y-112914285D02*
X169126247Y-112961904D01*
X169126247Y-112961904D02*
X168983390Y-112961904D01*
X168983390Y-112961904D02*
X168792914Y-112914285D01*
X168792914Y-112914285D02*
X168697676Y-112866666D01*
X168697676Y-112866666D02*
X168602438Y-112771428D01*
X168602438Y-112771428D02*
X168554819Y-112628571D01*
X168554819Y-112628571D02*
X168554819Y-112533333D01*
X168554819Y-112533333D02*
X168602438Y-112390476D01*
X168602438Y-112390476D02*
X168650057Y-112342857D01*
X168888152Y-111485714D02*
X169554819Y-111485714D01*
X168507200Y-111723809D02*
X169221485Y-111961904D01*
X169221485Y-111961904D02*
X169221485Y-111342857D01*
X168554819Y-110771428D02*
X168554819Y-110676190D01*
X168554819Y-110676190D02*
X168602438Y-110580952D01*
X168602438Y-110580952D02*
X168650057Y-110533333D01*
X168650057Y-110533333D02*
X168745295Y-110485714D01*
X168745295Y-110485714D02*
X168935771Y-110438095D01*
X168935771Y-110438095D02*
X169173866Y-110438095D01*
X169173866Y-110438095D02*
X169364342Y-110485714D01*
X169364342Y-110485714D02*
X169459580Y-110533333D01*
X169459580Y-110533333D02*
X169507200Y-110580952D01*
X169507200Y-110580952D02*
X169554819Y-110676190D01*
X169554819Y-110676190D02*
X169554819Y-110771428D01*
X169554819Y-110771428D02*
X169507200Y-110866666D01*
X169507200Y-110866666D02*
X169459580Y-110914285D01*
X169459580Y-110914285D02*
X169364342Y-110961904D01*
X169364342Y-110961904D02*
X169173866Y-111009523D01*
X169173866Y-111009523D02*
X168935771Y-111009523D01*
X168935771Y-111009523D02*
X168745295Y-110961904D01*
X168745295Y-110961904D02*
X168650057Y-110914285D01*
X168650057Y-110914285D02*
X168602438Y-110866666D01*
X168602438Y-110866666D02*
X168554819Y-110771428D01*
X156959580Y-111242857D02*
X157007200Y-111290476D01*
X157007200Y-111290476D02*
X157054819Y-111433333D01*
X157054819Y-111433333D02*
X157054819Y-111528571D01*
X157054819Y-111528571D02*
X157007200Y-111671428D01*
X157007200Y-111671428D02*
X156911961Y-111766666D01*
X156911961Y-111766666D02*
X156816723Y-111814285D01*
X156816723Y-111814285D02*
X156626247Y-111861904D01*
X156626247Y-111861904D02*
X156483390Y-111861904D01*
X156483390Y-111861904D02*
X156292914Y-111814285D01*
X156292914Y-111814285D02*
X156197676Y-111766666D01*
X156197676Y-111766666D02*
X156102438Y-111671428D01*
X156102438Y-111671428D02*
X156054819Y-111528571D01*
X156054819Y-111528571D02*
X156054819Y-111433333D01*
X156054819Y-111433333D02*
X156102438Y-111290476D01*
X156102438Y-111290476D02*
X156150057Y-111242857D01*
X156388152Y-110385714D02*
X157054819Y-110385714D01*
X156007200Y-110623809D02*
X156721485Y-110861904D01*
X156721485Y-110861904D02*
X156721485Y-110242857D01*
X157054819Y-109338095D02*
X157054819Y-109909523D01*
X157054819Y-109623809D02*
X156054819Y-109623809D01*
X156054819Y-109623809D02*
X156197676Y-109719047D01*
X156197676Y-109719047D02*
X156292914Y-109814285D01*
X156292914Y-109814285D02*
X156340533Y-109909523D01*
X142854819Y-105638094D02*
X141854819Y-105638094D01*
X141854819Y-105638094D02*
X141854819Y-105399999D01*
X141854819Y-105399999D02*
X141902438Y-105257142D01*
X141902438Y-105257142D02*
X141997676Y-105161904D01*
X141997676Y-105161904D02*
X142092914Y-105114285D01*
X142092914Y-105114285D02*
X142283390Y-105066666D01*
X142283390Y-105066666D02*
X142426247Y-105066666D01*
X142426247Y-105066666D02*
X142616723Y-105114285D01*
X142616723Y-105114285D02*
X142711961Y-105161904D01*
X142711961Y-105161904D02*
X142807200Y-105257142D01*
X142807200Y-105257142D02*
X142854819Y-105399999D01*
X142854819Y-105399999D02*
X142854819Y-105638094D01*
X141950057Y-104685713D02*
X141902438Y-104638094D01*
X141902438Y-104638094D02*
X141854819Y-104542856D01*
X141854819Y-104542856D02*
X141854819Y-104304761D01*
X141854819Y-104304761D02*
X141902438Y-104209523D01*
X141902438Y-104209523D02*
X141950057Y-104161904D01*
X141950057Y-104161904D02*
X142045295Y-104114285D01*
X142045295Y-104114285D02*
X142140533Y-104114285D01*
X142140533Y-104114285D02*
X142283390Y-104161904D01*
X142283390Y-104161904D02*
X142854819Y-104733332D01*
X142854819Y-104733332D02*
X142854819Y-104114285D01*
X168041960Y-85742857D02*
X168089580Y-85790476D01*
X168089580Y-85790476D02*
X168137199Y-85933333D01*
X168137199Y-85933333D02*
X168137199Y-86028571D01*
X168137199Y-86028571D02*
X168089580Y-86171428D01*
X168089580Y-86171428D02*
X167994341Y-86266666D01*
X167994341Y-86266666D02*
X167899103Y-86314285D01*
X167899103Y-86314285D02*
X167708627Y-86361904D01*
X167708627Y-86361904D02*
X167565770Y-86361904D01*
X167565770Y-86361904D02*
X167375294Y-86314285D01*
X167375294Y-86314285D02*
X167280056Y-86266666D01*
X167280056Y-86266666D02*
X167184818Y-86171428D01*
X167184818Y-86171428D02*
X167137199Y-86028571D01*
X167137199Y-86028571D02*
X167137199Y-85933333D01*
X167137199Y-85933333D02*
X167184818Y-85790476D01*
X167184818Y-85790476D02*
X167232437Y-85742857D01*
X168137199Y-84790476D02*
X168137199Y-85361904D01*
X168137199Y-85076190D02*
X167137199Y-85076190D01*
X167137199Y-85076190D02*
X167280056Y-85171428D01*
X167280056Y-85171428D02*
X167375294Y-85266666D01*
X167375294Y-85266666D02*
X167422913Y-85361904D01*
X167470532Y-83933333D02*
X168137199Y-83933333D01*
X167089580Y-84171428D02*
X167803865Y-84409523D01*
X167803865Y-84409523D02*
X167803865Y-83790476D01*
X132159580Y-99642857D02*
X132207200Y-99690476D01*
X132207200Y-99690476D02*
X132254819Y-99833333D01*
X132254819Y-99833333D02*
X132254819Y-99928571D01*
X132254819Y-99928571D02*
X132207200Y-100071428D01*
X132207200Y-100071428D02*
X132111961Y-100166666D01*
X132111961Y-100166666D02*
X132016723Y-100214285D01*
X132016723Y-100214285D02*
X131826247Y-100261904D01*
X131826247Y-100261904D02*
X131683390Y-100261904D01*
X131683390Y-100261904D02*
X131492914Y-100214285D01*
X131492914Y-100214285D02*
X131397676Y-100166666D01*
X131397676Y-100166666D02*
X131302438Y-100071428D01*
X131302438Y-100071428D02*
X131254819Y-99928571D01*
X131254819Y-99928571D02*
X131254819Y-99833333D01*
X131254819Y-99833333D02*
X131302438Y-99690476D01*
X131302438Y-99690476D02*
X131350057Y-99642857D01*
X131350057Y-99261904D02*
X131302438Y-99214285D01*
X131302438Y-99214285D02*
X131254819Y-99119047D01*
X131254819Y-99119047D02*
X131254819Y-98880952D01*
X131254819Y-98880952D02*
X131302438Y-98785714D01*
X131302438Y-98785714D02*
X131350057Y-98738095D01*
X131350057Y-98738095D02*
X131445295Y-98690476D01*
X131445295Y-98690476D02*
X131540533Y-98690476D01*
X131540533Y-98690476D02*
X131683390Y-98738095D01*
X131683390Y-98738095D02*
X132254819Y-99309523D01*
X132254819Y-99309523D02*
X132254819Y-98690476D01*
X131350057Y-98309523D02*
X131302438Y-98261904D01*
X131302438Y-98261904D02*
X131254819Y-98166666D01*
X131254819Y-98166666D02*
X131254819Y-97928571D01*
X131254819Y-97928571D02*
X131302438Y-97833333D01*
X131302438Y-97833333D02*
X131350057Y-97785714D01*
X131350057Y-97785714D02*
X131445295Y-97738095D01*
X131445295Y-97738095D02*
X131540533Y-97738095D01*
X131540533Y-97738095D02*
X131683390Y-97785714D01*
X131683390Y-97785714D02*
X132254819Y-98357142D01*
X132254819Y-98357142D02*
X132254819Y-97738095D01*
X157959580Y-99542857D02*
X158007200Y-99590476D01*
X158007200Y-99590476D02*
X158054819Y-99733333D01*
X158054819Y-99733333D02*
X158054819Y-99828571D01*
X158054819Y-99828571D02*
X158007200Y-99971428D01*
X158007200Y-99971428D02*
X157911961Y-100066666D01*
X157911961Y-100066666D02*
X157816723Y-100114285D01*
X157816723Y-100114285D02*
X157626247Y-100161904D01*
X157626247Y-100161904D02*
X157483390Y-100161904D01*
X157483390Y-100161904D02*
X157292914Y-100114285D01*
X157292914Y-100114285D02*
X157197676Y-100066666D01*
X157197676Y-100066666D02*
X157102438Y-99971428D01*
X157102438Y-99971428D02*
X157054819Y-99828571D01*
X157054819Y-99828571D02*
X157054819Y-99733333D01*
X157054819Y-99733333D02*
X157102438Y-99590476D01*
X157102438Y-99590476D02*
X157150057Y-99542857D01*
X157150057Y-99161904D02*
X157102438Y-99114285D01*
X157102438Y-99114285D02*
X157054819Y-99019047D01*
X157054819Y-99019047D02*
X157054819Y-98780952D01*
X157054819Y-98780952D02*
X157102438Y-98685714D01*
X157102438Y-98685714D02*
X157150057Y-98638095D01*
X157150057Y-98638095D02*
X157245295Y-98590476D01*
X157245295Y-98590476D02*
X157340533Y-98590476D01*
X157340533Y-98590476D02*
X157483390Y-98638095D01*
X157483390Y-98638095D02*
X158054819Y-99209523D01*
X158054819Y-99209523D02*
X158054819Y-98590476D01*
X158054819Y-98114285D02*
X158054819Y-97923809D01*
X158054819Y-97923809D02*
X158007200Y-97828571D01*
X158007200Y-97828571D02*
X157959580Y-97780952D01*
X157959580Y-97780952D02*
X157816723Y-97685714D01*
X157816723Y-97685714D02*
X157626247Y-97638095D01*
X157626247Y-97638095D02*
X157245295Y-97638095D01*
X157245295Y-97638095D02*
X157150057Y-97685714D01*
X157150057Y-97685714D02*
X157102438Y-97733333D01*
X157102438Y-97733333D02*
X157054819Y-97828571D01*
X157054819Y-97828571D02*
X157054819Y-98019047D01*
X157054819Y-98019047D02*
X157102438Y-98114285D01*
X157102438Y-98114285D02*
X157150057Y-98161904D01*
X157150057Y-98161904D02*
X157245295Y-98209523D01*
X157245295Y-98209523D02*
X157483390Y-98209523D01*
X157483390Y-98209523D02*
X157578628Y-98161904D01*
X157578628Y-98161904D02*
X157626247Y-98114285D01*
X157626247Y-98114285D02*
X157673866Y-98019047D01*
X157673866Y-98019047D02*
X157673866Y-97828571D01*
X157673866Y-97828571D02*
X157626247Y-97733333D01*
X157626247Y-97733333D02*
X157578628Y-97685714D01*
X157578628Y-97685714D02*
X157483390Y-97638095D01*
X158857142Y-104459580D02*
X158809523Y-104507200D01*
X158809523Y-104507200D02*
X158666666Y-104554819D01*
X158666666Y-104554819D02*
X158571428Y-104554819D01*
X158571428Y-104554819D02*
X158428571Y-104507200D01*
X158428571Y-104507200D02*
X158333333Y-104411961D01*
X158333333Y-104411961D02*
X158285714Y-104316723D01*
X158285714Y-104316723D02*
X158238095Y-104126247D01*
X158238095Y-104126247D02*
X158238095Y-103983390D01*
X158238095Y-103983390D02*
X158285714Y-103792914D01*
X158285714Y-103792914D02*
X158333333Y-103697676D01*
X158333333Y-103697676D02*
X158428571Y-103602438D01*
X158428571Y-103602438D02*
X158571428Y-103554819D01*
X158571428Y-103554819D02*
X158666666Y-103554819D01*
X158666666Y-103554819D02*
X158809523Y-103602438D01*
X158809523Y-103602438D02*
X158857142Y-103650057D01*
X159238095Y-103650057D02*
X159285714Y-103602438D01*
X159285714Y-103602438D02*
X159380952Y-103554819D01*
X159380952Y-103554819D02*
X159619047Y-103554819D01*
X159619047Y-103554819D02*
X159714285Y-103602438D01*
X159714285Y-103602438D02*
X159761904Y-103650057D01*
X159761904Y-103650057D02*
X159809523Y-103745295D01*
X159809523Y-103745295D02*
X159809523Y-103840533D01*
X159809523Y-103840533D02*
X159761904Y-103983390D01*
X159761904Y-103983390D02*
X159190476Y-104554819D01*
X159190476Y-104554819D02*
X159809523Y-104554819D01*
X160380952Y-103983390D02*
X160285714Y-103935771D01*
X160285714Y-103935771D02*
X160238095Y-103888152D01*
X160238095Y-103888152D02*
X160190476Y-103792914D01*
X160190476Y-103792914D02*
X160190476Y-103745295D01*
X160190476Y-103745295D02*
X160238095Y-103650057D01*
X160238095Y-103650057D02*
X160285714Y-103602438D01*
X160285714Y-103602438D02*
X160380952Y-103554819D01*
X160380952Y-103554819D02*
X160571428Y-103554819D01*
X160571428Y-103554819D02*
X160666666Y-103602438D01*
X160666666Y-103602438D02*
X160714285Y-103650057D01*
X160714285Y-103650057D02*
X160761904Y-103745295D01*
X160761904Y-103745295D02*
X160761904Y-103792914D01*
X160761904Y-103792914D02*
X160714285Y-103888152D01*
X160714285Y-103888152D02*
X160666666Y-103935771D01*
X160666666Y-103935771D02*
X160571428Y-103983390D01*
X160571428Y-103983390D02*
X160380952Y-103983390D01*
X160380952Y-103983390D02*
X160285714Y-104031009D01*
X160285714Y-104031009D02*
X160238095Y-104078628D01*
X160238095Y-104078628D02*
X160190476Y-104173866D01*
X160190476Y-104173866D02*
X160190476Y-104364342D01*
X160190476Y-104364342D02*
X160238095Y-104459580D01*
X160238095Y-104459580D02*
X160285714Y-104507200D01*
X160285714Y-104507200D02*
X160380952Y-104554819D01*
X160380952Y-104554819D02*
X160571428Y-104554819D01*
X160571428Y-104554819D02*
X160666666Y-104507200D01*
X160666666Y-104507200D02*
X160714285Y-104459580D01*
X160714285Y-104459580D02*
X160761904Y-104364342D01*
X160761904Y-104364342D02*
X160761904Y-104173866D01*
X160761904Y-104173866D02*
X160714285Y-104078628D01*
X160714285Y-104078628D02*
X160666666Y-104031009D01*
X160666666Y-104031009D02*
X160571428Y-103983390D01*
X131959580Y-89342857D02*
X132007200Y-89390476D01*
X132007200Y-89390476D02*
X132054819Y-89533333D01*
X132054819Y-89533333D02*
X132054819Y-89628571D01*
X132054819Y-89628571D02*
X132007200Y-89771428D01*
X132007200Y-89771428D02*
X131911961Y-89866666D01*
X131911961Y-89866666D02*
X131816723Y-89914285D01*
X131816723Y-89914285D02*
X131626247Y-89961904D01*
X131626247Y-89961904D02*
X131483390Y-89961904D01*
X131483390Y-89961904D02*
X131292914Y-89914285D01*
X131292914Y-89914285D02*
X131197676Y-89866666D01*
X131197676Y-89866666D02*
X131102438Y-89771428D01*
X131102438Y-89771428D02*
X131054819Y-89628571D01*
X131054819Y-89628571D02*
X131054819Y-89533333D01*
X131054819Y-89533333D02*
X131102438Y-89390476D01*
X131102438Y-89390476D02*
X131150057Y-89342857D01*
X132054819Y-88390476D02*
X132054819Y-88961904D01*
X132054819Y-88676190D02*
X131054819Y-88676190D01*
X131054819Y-88676190D02*
X131197676Y-88771428D01*
X131197676Y-88771428D02*
X131292914Y-88866666D01*
X131292914Y-88866666D02*
X131340533Y-88961904D01*
X131054819Y-87771428D02*
X131054819Y-87676190D01*
X131054819Y-87676190D02*
X131102438Y-87580952D01*
X131102438Y-87580952D02*
X131150057Y-87533333D01*
X131150057Y-87533333D02*
X131245295Y-87485714D01*
X131245295Y-87485714D02*
X131435771Y-87438095D01*
X131435771Y-87438095D02*
X131673866Y-87438095D01*
X131673866Y-87438095D02*
X131864342Y-87485714D01*
X131864342Y-87485714D02*
X131959580Y-87533333D01*
X131959580Y-87533333D02*
X132007200Y-87580952D01*
X132007200Y-87580952D02*
X132054819Y-87676190D01*
X132054819Y-87676190D02*
X132054819Y-87771428D01*
X132054819Y-87771428D02*
X132007200Y-87866666D01*
X132007200Y-87866666D02*
X131959580Y-87914285D01*
X131959580Y-87914285D02*
X131864342Y-87961904D01*
X131864342Y-87961904D02*
X131673866Y-88009523D01*
X131673866Y-88009523D02*
X131435771Y-88009523D01*
X131435771Y-88009523D02*
X131245295Y-87961904D01*
X131245295Y-87961904D02*
X131150057Y-87914285D01*
X131150057Y-87914285D02*
X131102438Y-87866666D01*
X131102438Y-87866666D02*
X131054819Y-87771428D01*
X151757142Y-105654819D02*
X151423809Y-105178628D01*
X151185714Y-105654819D02*
X151185714Y-104654819D01*
X151185714Y-104654819D02*
X151566666Y-104654819D01*
X151566666Y-104654819D02*
X151661904Y-104702438D01*
X151661904Y-104702438D02*
X151709523Y-104750057D01*
X151709523Y-104750057D02*
X151757142Y-104845295D01*
X151757142Y-104845295D02*
X151757142Y-104988152D01*
X151757142Y-104988152D02*
X151709523Y-105083390D01*
X151709523Y-105083390D02*
X151661904Y-105131009D01*
X151661904Y-105131009D02*
X151566666Y-105178628D01*
X151566666Y-105178628D02*
X151185714Y-105178628D01*
X152709523Y-105654819D02*
X152138095Y-105654819D01*
X152423809Y-105654819D02*
X152423809Y-104654819D01*
X152423809Y-104654819D02*
X152328571Y-104797676D01*
X152328571Y-104797676D02*
X152233333Y-104892914D01*
X152233333Y-104892914D02*
X152138095Y-104940533D01*
X153328571Y-104654819D02*
X153423809Y-104654819D01*
X153423809Y-104654819D02*
X153519047Y-104702438D01*
X153519047Y-104702438D02*
X153566666Y-104750057D01*
X153566666Y-104750057D02*
X153614285Y-104845295D01*
X153614285Y-104845295D02*
X153661904Y-105035771D01*
X153661904Y-105035771D02*
X153661904Y-105273866D01*
X153661904Y-105273866D02*
X153614285Y-105464342D01*
X153614285Y-105464342D02*
X153566666Y-105559580D01*
X153566666Y-105559580D02*
X153519047Y-105607200D01*
X153519047Y-105607200D02*
X153423809Y-105654819D01*
X153423809Y-105654819D02*
X153328571Y-105654819D01*
X153328571Y-105654819D02*
X153233333Y-105607200D01*
X153233333Y-105607200D02*
X153185714Y-105559580D01*
X153185714Y-105559580D02*
X153138095Y-105464342D01*
X153138095Y-105464342D02*
X153090476Y-105273866D01*
X153090476Y-105273866D02*
X153090476Y-105035771D01*
X153090476Y-105035771D02*
X153138095Y-104845295D01*
X153138095Y-104845295D02*
X153185714Y-104750057D01*
X153185714Y-104750057D02*
X153233333Y-104702438D01*
X153233333Y-104702438D02*
X153328571Y-104654819D01*
X150766666Y-113154819D02*
X150766666Y-113869104D01*
X150766666Y-113869104D02*
X150719047Y-114011961D01*
X150719047Y-114011961D02*
X150623809Y-114107200D01*
X150623809Y-114107200D02*
X150480952Y-114154819D01*
X150480952Y-114154819D02*
X150385714Y-114154819D01*
X151671428Y-113488152D02*
X151671428Y-114154819D01*
X151433333Y-113107200D02*
X151195238Y-113821485D01*
X151195238Y-113821485D02*
X151814285Y-113821485D01*
X140385714Y-95586104D02*
X140347618Y-95624200D01*
X140347618Y-95624200D02*
X140233333Y-95662295D01*
X140233333Y-95662295D02*
X140157142Y-95662295D01*
X140157142Y-95662295D02*
X140042856Y-95624200D01*
X140042856Y-95624200D02*
X139966666Y-95548009D01*
X139966666Y-95548009D02*
X139928571Y-95471819D01*
X139928571Y-95471819D02*
X139890475Y-95319438D01*
X139890475Y-95319438D02*
X139890475Y-95205152D01*
X139890475Y-95205152D02*
X139928571Y-95052771D01*
X139928571Y-95052771D02*
X139966666Y-94976580D01*
X139966666Y-94976580D02*
X140042856Y-94900390D01*
X140042856Y-94900390D02*
X140157142Y-94862295D01*
X140157142Y-94862295D02*
X140233333Y-94862295D01*
X140233333Y-94862295D02*
X140347618Y-94900390D01*
X140347618Y-94900390D02*
X140385714Y-94938485D01*
X140690475Y-94938485D02*
X140728571Y-94900390D01*
X140728571Y-94900390D02*
X140804761Y-94862295D01*
X140804761Y-94862295D02*
X140995237Y-94862295D01*
X140995237Y-94862295D02*
X141071428Y-94900390D01*
X141071428Y-94900390D02*
X141109523Y-94938485D01*
X141109523Y-94938485D02*
X141147618Y-95014676D01*
X141147618Y-95014676D02*
X141147618Y-95090866D01*
X141147618Y-95090866D02*
X141109523Y-95205152D01*
X141109523Y-95205152D02*
X140652380Y-95662295D01*
X140652380Y-95662295D02*
X141147618Y-95662295D01*
X141642857Y-94862295D02*
X141719047Y-94862295D01*
X141719047Y-94862295D02*
X141795238Y-94900390D01*
X141795238Y-94900390D02*
X141833333Y-94938485D01*
X141833333Y-94938485D02*
X141871428Y-95014676D01*
X141871428Y-95014676D02*
X141909523Y-95167057D01*
X141909523Y-95167057D02*
X141909523Y-95357533D01*
X141909523Y-95357533D02*
X141871428Y-95509914D01*
X141871428Y-95509914D02*
X141833333Y-95586104D01*
X141833333Y-95586104D02*
X141795238Y-95624200D01*
X141795238Y-95624200D02*
X141719047Y-95662295D01*
X141719047Y-95662295D02*
X141642857Y-95662295D01*
X141642857Y-95662295D02*
X141566666Y-95624200D01*
X141566666Y-95624200D02*
X141528571Y-95586104D01*
X141528571Y-95586104D02*
X141490476Y-95509914D01*
X141490476Y-95509914D02*
X141452380Y-95357533D01*
X141452380Y-95357533D02*
X141452380Y-95167057D01*
X141452380Y-95167057D02*
X141490476Y-95014676D01*
X141490476Y-95014676D02*
X141528571Y-94938485D01*
X141528571Y-94938485D02*
X141566666Y-94900390D01*
X141566666Y-94900390D02*
X141642857Y-94862295D01*
D12*
%TO.C,C21*%
X133251248Y-95490000D02*
X134673752Y-95490000D01*
X133251248Y-97310000D02*
X134673752Y-97310000D01*
D11*
%TO.C,L6*%
X142640000Y-106240000D02*
X142640000Y-108640000D01*
X142640000Y-106240000D02*
X143440000Y-106240000D01*
X142640000Y-113760000D02*
X142640000Y-111360000D01*
X142640000Y-113760000D02*
X150160000Y-113760000D01*
X144160000Y-106240000D02*
X150160000Y-106240000D01*
X150160000Y-106240000D02*
X150160000Y-108640000D01*
X150160000Y-113760000D02*
X150160000Y-111360000D01*
D12*
X143800000Y-106240000D02*
X143560000Y-105910000D01*
X144040000Y-105910000D01*
X143800000Y-106240000D01*
G36*
X143800000Y-106240000D02*
G01*
X143560000Y-105910000D01*
X144040000Y-105910000D01*
X143800000Y-106240000D01*
G37*
%TO.C,R9*%
X139840000Y-97162742D02*
X139840000Y-97637258D01*
X140885000Y-97162742D02*
X140885000Y-97637258D01*
D11*
%TO.C,L4*%
X141802500Y-95940000D02*
X141802500Y-98340000D01*
X141802500Y-95940000D02*
X142602500Y-95940000D01*
X141802500Y-103460000D02*
X141802500Y-101060000D01*
X141802500Y-103460000D02*
X149322500Y-103460000D01*
X143322500Y-95940000D02*
X149322500Y-95940000D01*
X149322500Y-95940000D02*
X149322500Y-98340000D01*
X149322500Y-103460000D02*
X149322500Y-101060000D01*
D12*
X142962500Y-95940000D02*
X142722500Y-95610000D01*
X143202500Y-95610000D01*
X142962500Y-95940000D01*
G36*
X142962500Y-95940000D02*
G01*
X142722500Y-95610000D01*
X143202500Y-95610000D01*
X142962500Y-95940000D01*
G37*
%TO.C,U5*%
X137740000Y-117635000D02*
X137740000Y-116835000D01*
X137740000Y-117635000D02*
X137740000Y-118435000D01*
X140860000Y-117635000D02*
X140860000Y-116835000D01*
X140860000Y-117635000D02*
X140860000Y-118435000D01*
X141140000Y-116575000D02*
X140810000Y-116335000D01*
X141140000Y-116095000D01*
X141140000Y-116575000D01*
G36*
X141140000Y-116575000D02*
G01*
X140810000Y-116335000D01*
X141140000Y-116095000D01*
X141140000Y-116575000D01*
G37*
%TO.C,C5*%
X134961252Y-82765000D02*
X134438748Y-82765000D01*
X134961252Y-84235000D02*
X134438748Y-84235000D01*
%TO.C,C7*%
X151990000Y-82454437D02*
X151990000Y-88210000D01*
X151990000Y-88210000D02*
X154340000Y-88210000D01*
X153054437Y-81390000D02*
X151990000Y-82454437D01*
X153054437Y-81390000D02*
X154340000Y-81390000D01*
X157247500Y-80362500D02*
X157247500Y-81150000D01*
X157641250Y-80756250D02*
X156853750Y-80756250D01*
X157745563Y-81390000D02*
X156460000Y-81390000D01*
X157745563Y-81390000D02*
X158810000Y-82454437D01*
X158810000Y-82454437D02*
X158810000Y-88210000D01*
X158810000Y-88210000D02*
X156460000Y-88210000D01*
D11*
%TO.C,L5*%
X142750000Y-119535000D02*
X142750000Y-114135000D01*
X148250000Y-114135000D02*
X148250000Y-119535000D01*
%TO.C,J3*%
X153100000Y-116000000D02*
X153100000Y-117800000D01*
X154900000Y-114850000D02*
X155500000Y-114850000D01*
X155500000Y-114850000D02*
X155500000Y-116000000D01*
X155500000Y-117800000D02*
X155500000Y-118950000D01*
X155500000Y-118950000D02*
X154900000Y-118950000D01*
D12*
%TO.C,C31*%
X141290000Y-117594420D02*
X141290000Y-117875580D01*
X142310000Y-117594420D02*
X142310000Y-117875580D01*
%TO.C,C2*%
X138290000Y-93759420D02*
X138290000Y-94040580D01*
X139310000Y-93759420D02*
X139310000Y-94040580D01*
D11*
%TO.C,J1*%
X131150000Y-113600000D02*
X131150000Y-113000000D01*
X132300000Y-113600000D02*
X131150000Y-113600000D01*
X134100000Y-111200000D02*
X132300000Y-111200000D01*
X135250000Y-113000000D02*
X135250000Y-113600000D01*
X135250000Y-113600000D02*
X134100000Y-113600000D01*
D12*
%TO.C,C3*%
X138088748Y-80790000D02*
X139511252Y-80790000D01*
X138088748Y-82610000D02*
X139511252Y-82610000D01*
D11*
%TO.C,L3*%
X132810000Y-103280000D02*
X138790000Y-103280000D01*
X132810000Y-109520000D02*
X138790000Y-109520000D01*
D12*
%TO.C,R13*%
X137762742Y-114212500D02*
X138237258Y-114212500D01*
X137762742Y-115257500D02*
X138237258Y-115257500D01*
%TO.C,C23*%
X139103080Y-101790000D02*
X138821920Y-101790000D01*
X139103080Y-102810000D02*
X138821920Y-102810000D01*
D11*
%TO.C,J2*%
X156800000Y-116000000D02*
X156800000Y-117800000D01*
X158600000Y-114850000D02*
X159200000Y-114850000D01*
X159200000Y-114850000D02*
X159200000Y-116000000D01*
X159200000Y-117800000D02*
X159200000Y-118950000D01*
X159200000Y-118950000D02*
X158600000Y-118950000D01*
%TO.C,L2*%
X150540000Y-89697500D02*
X150540000Y-92097500D01*
X150540000Y-89697500D02*
X151340000Y-89697500D01*
X150540000Y-97217500D02*
X150540000Y-94817500D01*
X150540000Y-97217500D02*
X158060000Y-97217500D01*
X152060000Y-89697500D02*
X158060000Y-89697500D01*
X158060000Y-89697500D02*
X158060000Y-92097500D01*
X158060000Y-97217500D02*
X158060000Y-94817500D01*
D12*
X151700000Y-89697500D02*
X151460000Y-89367500D01*
X151940000Y-89367500D01*
X151700000Y-89697500D01*
G36*
X151700000Y-89697500D02*
G01*
X151460000Y-89367500D01*
X151940000Y-89367500D01*
X151700000Y-89697500D01*
G37*
D11*
%TO.C,J6*%
X158800000Y-96700000D02*
X158800000Y-100100000D01*
X160600000Y-95550000D02*
X161200000Y-95550000D01*
X161200000Y-95550000D02*
X161200000Y-96700000D01*
X161200000Y-100100000D02*
X161200000Y-101250000D01*
X161200000Y-101250000D02*
X160600000Y-101250000D01*
D12*
%TO.C,C4*%
X137859420Y-83190000D02*
X138140580Y-83190000D01*
X137859420Y-84210000D02*
X138140580Y-84210000D01*
%TO.C,C24*%
X139773752Y-99390000D02*
X138351248Y-99390000D01*
X139773752Y-101210000D02*
X138351248Y-101210000D01*
%TO.C,C6*%
X150490000Y-85759420D02*
X150490000Y-86040580D01*
X151510000Y-85759420D02*
X151510000Y-86040580D01*
%TO.C,U1*%
X132515000Y-88437500D02*
X132515000Y-86237500D01*
X132515000Y-88437500D02*
X132515000Y-90637500D01*
X139285000Y-88437500D02*
X139285000Y-86237500D01*
X139285000Y-88437500D02*
X139285000Y-90637500D01*
X138825000Y-84577500D02*
X138585000Y-84247500D01*
X139065000Y-84247500D01*
X138825000Y-84577500D01*
G36*
X138825000Y-84577500D02*
G01*
X138585000Y-84247500D01*
X139065000Y-84247500D01*
X138825000Y-84577500D01*
G37*
%TO.C,U3*%
X134562500Y-99390000D02*
X133762500Y-99390000D01*
X134562500Y-99390000D02*
X135362500Y-99390000D01*
X134562500Y-102510000D02*
X133762500Y-102510000D01*
X134562500Y-102510000D02*
X135362500Y-102510000D01*
X136102500Y-102790000D02*
X135622500Y-102790000D01*
X135862500Y-102460000D01*
X136102500Y-102790000D01*
G36*
X136102500Y-102790000D02*
G01*
X135622500Y-102790000D01*
X135862500Y-102460000D01*
X136102500Y-102790000D01*
G37*
%TO.C,R14*%
X152072936Y-106065000D02*
X152527064Y-106065000D01*
X152072936Y-107535000D02*
X152527064Y-107535000D01*
%TO.C,C33*%
X136290000Y-118375580D02*
X136290000Y-118094420D01*
X137310000Y-118375580D02*
X137310000Y-118094420D01*
%TO.C,C18*%
X160340302Y-88785000D02*
X161140302Y-88785000D01*
X160740302Y-88385000D02*
X160740302Y-89185000D01*
X164750000Y-87020000D02*
X164750000Y-95180000D01*
X164790000Y-87020000D02*
X164790000Y-95180000D01*
X164830000Y-87020000D02*
X164830000Y-95180000D01*
X164870000Y-87021000D02*
X164870000Y-95179000D01*
X164910000Y-87023000D02*
X164910000Y-95177000D01*
X164950000Y-87024000D02*
X164950000Y-95176000D01*
X164990000Y-87026000D02*
X164990000Y-95174000D01*
X165030000Y-87029000D02*
X165030000Y-95171000D01*
X165070000Y-87032000D02*
X165070000Y-95168000D01*
X165110000Y-87035000D02*
X165110000Y-95165000D01*
X165150000Y-87039000D02*
X165150000Y-95161000D01*
X165190000Y-87043000D02*
X165190000Y-95157000D01*
X165230000Y-87048000D02*
X165230000Y-95152000D01*
X165270000Y-87052000D02*
X165270000Y-95148000D01*
X165310000Y-87058000D02*
X165310000Y-95142000D01*
X165350000Y-87063000D02*
X165350000Y-95137000D01*
X165390000Y-87070000D02*
X165390000Y-95130000D01*
X165430000Y-87076000D02*
X165430000Y-95124000D01*
X165471000Y-87083000D02*
X165471000Y-90060000D01*
X165471000Y-92140000D02*
X165471000Y-95117000D01*
X165511000Y-87090000D02*
X165511000Y-90060000D01*
X165511000Y-92140000D02*
X165511000Y-95110000D01*
X165551000Y-87098000D02*
X165551000Y-90060000D01*
X165551000Y-92140000D02*
X165551000Y-95102000D01*
X165591000Y-87106000D02*
X165591000Y-90060000D01*
X165591000Y-92140000D02*
X165591000Y-95094000D01*
X165631000Y-87115000D02*
X165631000Y-90060000D01*
X165631000Y-92140000D02*
X165631000Y-95085000D01*
X165671000Y-87124000D02*
X165671000Y-90060000D01*
X165671000Y-92140000D02*
X165671000Y-95076000D01*
X165711000Y-87133000D02*
X165711000Y-90060000D01*
X165711000Y-92140000D02*
X165711000Y-95067000D01*
X165751000Y-87143000D02*
X165751000Y-90060000D01*
X165751000Y-92140000D02*
X165751000Y-95057000D01*
X165791000Y-87153000D02*
X165791000Y-90060000D01*
X165791000Y-92140000D02*
X165791000Y-95047000D01*
X165831000Y-87164000D02*
X165831000Y-90060000D01*
X165831000Y-92140000D02*
X165831000Y-95036000D01*
X165871000Y-87175000D02*
X165871000Y-90060000D01*
X165871000Y-92140000D02*
X165871000Y-95025000D01*
X165911000Y-87186000D02*
X165911000Y-90060000D01*
X165911000Y-92140000D02*
X165911000Y-95014000D01*
X165951000Y-87198000D02*
X165951000Y-90060000D01*
X165951000Y-92140000D02*
X165951000Y-95002000D01*
X165991000Y-87211000D02*
X165991000Y-90060000D01*
X165991000Y-92140000D02*
X165991000Y-94989000D01*
X166031000Y-87223000D02*
X166031000Y-90060000D01*
X166031000Y-92140000D02*
X166031000Y-94977000D01*
X166071000Y-87237000D02*
X166071000Y-90060000D01*
X166071000Y-92140000D02*
X166071000Y-94963000D01*
X166111000Y-87250000D02*
X166111000Y-90060000D01*
X166111000Y-92140000D02*
X166111000Y-94950000D01*
X166151000Y-87265000D02*
X166151000Y-90060000D01*
X166151000Y-92140000D02*
X166151000Y-94935000D01*
X166191000Y-87279000D02*
X166191000Y-90060000D01*
X166191000Y-92140000D02*
X166191000Y-94921000D01*
X166231000Y-87295000D02*
X166231000Y-90060000D01*
X166231000Y-92140000D02*
X166231000Y-94905000D01*
X166271000Y-87310000D02*
X166271000Y-90060000D01*
X166271000Y-92140000D02*
X166271000Y-94890000D01*
X166311000Y-87326000D02*
X166311000Y-90060000D01*
X166311000Y-92140000D02*
X166311000Y-94874000D01*
X166351000Y-87343000D02*
X166351000Y-90060000D01*
X166351000Y-92140000D02*
X166351000Y-94857000D01*
X166391000Y-87360000D02*
X166391000Y-90060000D01*
X166391000Y-92140000D02*
X166391000Y-94840000D01*
X166431000Y-87378000D02*
X166431000Y-90060000D01*
X166431000Y-92140000D02*
X166431000Y-94822000D01*
X166471000Y-87396000D02*
X166471000Y-90060000D01*
X166471000Y-92140000D02*
X166471000Y-94804000D01*
X166511000Y-87414000D02*
X166511000Y-90060000D01*
X166511000Y-92140000D02*
X166511000Y-94786000D01*
X166551000Y-87434000D02*
X166551000Y-90060000D01*
X166551000Y-92140000D02*
X166551000Y-94766000D01*
X166591000Y-87453000D02*
X166591000Y-90060000D01*
X166591000Y-92140000D02*
X166591000Y-94747000D01*
X166631000Y-87473000D02*
X166631000Y-90060000D01*
X166631000Y-92140000D02*
X166631000Y-94727000D01*
X166671000Y-87494000D02*
X166671000Y-90060000D01*
X166671000Y-92140000D02*
X166671000Y-94706000D01*
X166711000Y-87516000D02*
X166711000Y-90060000D01*
X166711000Y-92140000D02*
X166711000Y-94684000D01*
X166751000Y-87538000D02*
X166751000Y-90060000D01*
X166751000Y-92140000D02*
X166751000Y-94662000D01*
X166791000Y-87560000D02*
X166791000Y-90060000D01*
X166791000Y-92140000D02*
X166791000Y-94640000D01*
X166831000Y-87583000D02*
X166831000Y-90060000D01*
X166831000Y-92140000D02*
X166831000Y-94617000D01*
X166871000Y-87607000D02*
X166871000Y-90060000D01*
X166871000Y-92140000D02*
X166871000Y-94593000D01*
X166911000Y-87631000D02*
X166911000Y-90060000D01*
X166911000Y-92140000D02*
X166911000Y-94569000D01*
X166951000Y-87656000D02*
X166951000Y-90060000D01*
X166951000Y-92140000D02*
X166951000Y-94544000D01*
X166991000Y-87682000D02*
X166991000Y-90060000D01*
X166991000Y-92140000D02*
X166991000Y-94518000D01*
X167031000Y-87708000D02*
X167031000Y-90060000D01*
X167031000Y-92140000D02*
X167031000Y-94492000D01*
X167071000Y-87735000D02*
X167071000Y-90060000D01*
X167071000Y-92140000D02*
X167071000Y-94465000D01*
X167111000Y-87762000D02*
X167111000Y-90060000D01*
X167111000Y-92140000D02*
X167111000Y-94438000D01*
X167151000Y-87791000D02*
X167151000Y-90060000D01*
X167151000Y-92140000D02*
X167151000Y-94409000D01*
X167191000Y-87820000D02*
X167191000Y-90060000D01*
X167191000Y-92140000D02*
X167191000Y-94380000D01*
X167231000Y-87850000D02*
X167231000Y-90060000D01*
X167231000Y-92140000D02*
X167231000Y-94350000D01*
X167271000Y-87880000D02*
X167271000Y-90060000D01*
X167271000Y-92140000D02*
X167271000Y-94320000D01*
X167311000Y-87911000D02*
X167311000Y-90060000D01*
X167311000Y-92140000D02*
X167311000Y-94289000D01*
X167351000Y-87944000D02*
X167351000Y-90060000D01*
X167351000Y-92140000D02*
X167351000Y-94256000D01*
X167391000Y-87976000D02*
X167391000Y-90060000D01*
X167391000Y-92140000D02*
X167391000Y-94224000D01*
X167431000Y-88010000D02*
X167431000Y-90060000D01*
X167431000Y-92140000D02*
X167431000Y-94190000D01*
X167471000Y-88045000D02*
X167471000Y-90060000D01*
X167471000Y-92140000D02*
X167471000Y-94155000D01*
X167511000Y-88081000D02*
X167511000Y-90060000D01*
X167511000Y-92140000D02*
X167511000Y-94119000D01*
X167551000Y-88117000D02*
X167551000Y-94083000D01*
X167591000Y-88155000D02*
X167591000Y-94045000D01*
X167631000Y-88193000D02*
X167631000Y-94007000D01*
X167671000Y-88233000D02*
X167671000Y-93967000D01*
X167711000Y-88274000D02*
X167711000Y-93926000D01*
X167751000Y-88316000D02*
X167751000Y-93884000D01*
X167791000Y-88359000D02*
X167791000Y-93841000D01*
X167831000Y-88403000D02*
X167831000Y-93797000D01*
X167871000Y-88449000D02*
X167871000Y-93751000D01*
X167911000Y-88496000D02*
X167911000Y-93704000D01*
X167951000Y-88544000D02*
X167951000Y-93656000D01*
X167991000Y-88595000D02*
X167991000Y-93605000D01*
X168031000Y-88646000D02*
X168031000Y-93554000D01*
X168071000Y-88700000D02*
X168071000Y-93500000D01*
X168111000Y-88755000D02*
X168111000Y-93445000D01*
X168151000Y-88813000D02*
X168151000Y-93387000D01*
X168191000Y-88872000D02*
X168191000Y-93328000D01*
X168231000Y-88934000D02*
X168231000Y-93266000D01*
X168271000Y-88998000D02*
X168271000Y-93202000D01*
X168311000Y-89066000D02*
X168311000Y-93134000D01*
X168351000Y-89136000D02*
X168351000Y-93064000D01*
X168391000Y-89210000D02*
X168391000Y-92990000D01*
X168431000Y-89287000D02*
X168431000Y-92913000D01*
X168471000Y-89369000D02*
X168471000Y-92831000D01*
X168511000Y-89455000D02*
X168511000Y-92745000D01*
X168551000Y-89548000D02*
X168551000Y-92652000D01*
X168591000Y-89647000D02*
X168591000Y-92553000D01*
X168631000Y-89754000D02*
X168631000Y-92446000D01*
X168671000Y-89871000D02*
X168671000Y-92329000D01*
X168711000Y-90002000D02*
X168711000Y-92198000D01*
X168751000Y-90152000D02*
X168751000Y-92048000D01*
X168791000Y-90332000D02*
X168791000Y-91868000D01*
X168831000Y-90567000D02*
X168831000Y-91633000D01*
X168870000Y-91100000D02*
G75*
G02*
X160630000Y-91100000I-4120000J0D01*
G01*
X160630000Y-91100000D02*
G75*
G02*
X168870000Y-91100000I4120000J0D01*
G01*
D11*
%TO.C,J5*%
X166700000Y-96700000D02*
X166700000Y-100100000D01*
X168500000Y-95550000D02*
X169100000Y-95550000D01*
X169100000Y-95550000D02*
X169100000Y-96700000D01*
X169100000Y-100100000D02*
X169100000Y-101250000D01*
X169100000Y-101250000D02*
X168500000Y-101250000D01*
%TO.C,L1*%
X139780000Y-94600000D02*
X139780000Y-83800000D01*
X150020000Y-94600000D02*
X150020000Y-83800000D01*
D12*
%TO.C,D1*%
X137960000Y-92590000D02*
X134200000Y-92590000D01*
X137960000Y-94610000D02*
X134200000Y-94610000D01*
X137960000Y-94610000D02*
X137960000Y-92590000D01*
%TO.C,R7*%
X159265000Y-87272936D02*
X159265000Y-87727064D01*
X160735000Y-87272936D02*
X160735000Y-87727064D01*
%TO.C,C34*%
X141240580Y-114225000D02*
X140959420Y-114225000D01*
X141240580Y-115245000D02*
X140959420Y-115245000D01*
%TO.C,C32*%
X133990000Y-118111252D02*
X133990000Y-116688748D01*
X135810000Y-118111252D02*
X135810000Y-116688748D01*
%TO.C,R12*%
X137637258Y-112612500D02*
X137162742Y-112612500D01*
X137637258Y-113657500D02*
X137162742Y-113657500D01*
%TO.C,C36*%
X140961252Y-110200000D02*
X140438748Y-110200000D01*
X140961252Y-111670000D02*
X140438748Y-111670000D01*
%TO.C,R11*%
X136640000Y-97637258D02*
X136640000Y-97162742D01*
X137685000Y-97637258D02*
X137685000Y-97162742D01*
%TO.C,C35*%
X140961252Y-112200000D02*
X140438748Y-112200000D01*
X140961252Y-113670000D02*
X140438748Y-113670000D01*
%TO.C,C40*%
X160320000Y-114322651D02*
X168480000Y-114322651D01*
X160320000Y-114362651D02*
X168480000Y-114362651D01*
X160320000Y-114402651D02*
X168480000Y-114402651D01*
X160321000Y-114282651D02*
X168479000Y-114282651D01*
X160323000Y-114242651D02*
X168477000Y-114242651D01*
X160324000Y-114202651D02*
X168476000Y-114202651D01*
X160326000Y-114162651D02*
X168474000Y-114162651D01*
X160329000Y-114122651D02*
X168471000Y-114122651D01*
X160332000Y-114082651D02*
X168468000Y-114082651D01*
X160335000Y-114042651D02*
X168465000Y-114042651D01*
X160339000Y-114002651D02*
X168461000Y-114002651D01*
X160343000Y-113962651D02*
X168457000Y-113962651D01*
X160348000Y-113922651D02*
X168452000Y-113922651D01*
X160352000Y-113882651D02*
X168448000Y-113882651D01*
X160358000Y-113842651D02*
X168442000Y-113842651D01*
X160363000Y-113802651D02*
X168437000Y-113802651D01*
X160370000Y-113762651D02*
X168430000Y-113762651D01*
X160376000Y-113722651D02*
X168424000Y-113722651D01*
X160383000Y-113681651D02*
X163360000Y-113681651D01*
X160390000Y-113641651D02*
X163360000Y-113641651D01*
X160398000Y-113601651D02*
X163360000Y-113601651D01*
X160406000Y-113561651D02*
X163360000Y-113561651D01*
X160415000Y-113521651D02*
X163360000Y-113521651D01*
X160424000Y-113481651D02*
X163360000Y-113481651D01*
X160433000Y-113441651D02*
X163360000Y-113441651D01*
X160443000Y-113401651D02*
X163360000Y-113401651D01*
X160453000Y-113361651D02*
X163360000Y-113361651D01*
X160464000Y-113321651D02*
X163360000Y-113321651D01*
X160475000Y-113281651D02*
X163360000Y-113281651D01*
X160486000Y-113241651D02*
X163360000Y-113241651D01*
X160498000Y-113201651D02*
X163360000Y-113201651D01*
X160511000Y-113161651D02*
X163360000Y-113161651D01*
X160523000Y-113121651D02*
X163360000Y-113121651D01*
X160537000Y-113081651D02*
X163360000Y-113081651D01*
X160550000Y-113041651D02*
X163360000Y-113041651D01*
X160565000Y-113001651D02*
X163360000Y-113001651D01*
X160579000Y-112961651D02*
X163360000Y-112961651D01*
X160595000Y-112921651D02*
X163360000Y-112921651D01*
X160610000Y-112881651D02*
X163360000Y-112881651D01*
X160626000Y-112841651D02*
X163360000Y-112841651D01*
X160643000Y-112801651D02*
X163360000Y-112801651D01*
X160660000Y-112761651D02*
X163360000Y-112761651D01*
X160678000Y-112721651D02*
X163360000Y-112721651D01*
X160696000Y-112681651D02*
X163360000Y-112681651D01*
X160714000Y-112641651D02*
X163360000Y-112641651D01*
X160734000Y-112601651D02*
X163360000Y-112601651D01*
X160753000Y-112561651D02*
X163360000Y-112561651D01*
X160773000Y-112521651D02*
X163360000Y-112521651D01*
X160794000Y-112481651D02*
X163360000Y-112481651D01*
X160816000Y-112441651D02*
X163360000Y-112441651D01*
X160838000Y-112401651D02*
X163360000Y-112401651D01*
X160860000Y-112361651D02*
X163360000Y-112361651D01*
X160883000Y-112321651D02*
X163360000Y-112321651D01*
X160907000Y-112281651D02*
X163360000Y-112281651D01*
X160931000Y-112241651D02*
X163360000Y-112241651D01*
X160956000Y-112201651D02*
X163360000Y-112201651D01*
X160982000Y-112161651D02*
X163360000Y-112161651D01*
X161008000Y-112121651D02*
X163360000Y-112121651D01*
X161035000Y-112081651D02*
X163360000Y-112081651D01*
X161062000Y-112041651D02*
X163360000Y-112041651D01*
X161091000Y-112001651D02*
X163360000Y-112001651D01*
X161120000Y-111961651D02*
X163360000Y-111961651D01*
X161150000Y-111921651D02*
X163360000Y-111921651D01*
X161180000Y-111881651D02*
X163360000Y-111881651D01*
X161211000Y-111841651D02*
X163360000Y-111841651D01*
X161244000Y-111801651D02*
X163360000Y-111801651D01*
X161276000Y-111761651D02*
X163360000Y-111761651D01*
X161310000Y-111721651D02*
X163360000Y-111721651D01*
X161345000Y-111681651D02*
X163360000Y-111681651D01*
X161381000Y-111641651D02*
X163360000Y-111641651D01*
X161417000Y-111601651D02*
X167383000Y-111601651D01*
X161455000Y-111561651D02*
X167345000Y-111561651D01*
X161493000Y-111521651D02*
X167307000Y-111521651D01*
X161533000Y-111481651D02*
X167267000Y-111481651D01*
X161574000Y-111441651D02*
X167226000Y-111441651D01*
X161616000Y-111401651D02*
X167184000Y-111401651D01*
X161659000Y-111361651D02*
X167141000Y-111361651D01*
X161685000Y-118412349D02*
X162485000Y-118412349D01*
X161703000Y-111321651D02*
X167097000Y-111321651D01*
X161749000Y-111281651D02*
X167051000Y-111281651D01*
X161796000Y-111241651D02*
X167004000Y-111241651D01*
X161844000Y-111201651D02*
X166956000Y-111201651D01*
X161895000Y-111161651D02*
X166905000Y-111161651D01*
X161946000Y-111121651D02*
X166854000Y-111121651D01*
X162000000Y-111081651D02*
X166800000Y-111081651D01*
X162055000Y-111041651D02*
X166745000Y-111041651D01*
X162085000Y-118812349D02*
X162085000Y-118012349D01*
X162113000Y-111001651D02*
X166687000Y-111001651D01*
X162172000Y-110961651D02*
X166628000Y-110961651D01*
X162234000Y-110921651D02*
X166566000Y-110921651D01*
X162298000Y-110881651D02*
X166502000Y-110881651D01*
X162366000Y-110841651D02*
X166434000Y-110841651D01*
X162436000Y-110801651D02*
X166364000Y-110801651D01*
X162510000Y-110761651D02*
X166290000Y-110761651D01*
X162587000Y-110721651D02*
X166213000Y-110721651D01*
X162669000Y-110681651D02*
X166131000Y-110681651D01*
X162755000Y-110641651D02*
X166045000Y-110641651D01*
X162848000Y-110601651D02*
X165952000Y-110601651D01*
X162947000Y-110561651D02*
X165853000Y-110561651D01*
X163054000Y-110521651D02*
X165746000Y-110521651D01*
X163171000Y-110481651D02*
X165629000Y-110481651D01*
X163302000Y-110441651D02*
X165498000Y-110441651D01*
X163452000Y-110401651D02*
X165348000Y-110401651D01*
X163632000Y-110361651D02*
X165168000Y-110361651D01*
X163867000Y-110321651D02*
X164933000Y-110321651D01*
X165440000Y-111641651D02*
X167419000Y-111641651D01*
X165440000Y-111681651D02*
X167455000Y-111681651D01*
X165440000Y-111721651D02*
X167490000Y-111721651D01*
X165440000Y-111761651D02*
X167524000Y-111761651D01*
X165440000Y-111801651D02*
X167556000Y-111801651D01*
X165440000Y-111841651D02*
X167589000Y-111841651D01*
X165440000Y-111881651D02*
X167620000Y-111881651D01*
X165440000Y-111921651D02*
X167650000Y-111921651D01*
X165440000Y-111961651D02*
X167680000Y-111961651D01*
X165440000Y-112001651D02*
X167709000Y-112001651D01*
X165440000Y-112041651D02*
X167738000Y-112041651D01*
X165440000Y-112081651D02*
X167765000Y-112081651D01*
X165440000Y-112121651D02*
X167792000Y-112121651D01*
X165440000Y-112161651D02*
X167818000Y-112161651D01*
X165440000Y-112201651D02*
X167844000Y-112201651D01*
X165440000Y-112241651D02*
X167869000Y-112241651D01*
X165440000Y-112281651D02*
X167893000Y-112281651D01*
X165440000Y-112321651D02*
X167917000Y-112321651D01*
X165440000Y-112361651D02*
X167940000Y-112361651D01*
X165440000Y-112401651D02*
X167962000Y-112401651D01*
X165440000Y-112441651D02*
X167984000Y-112441651D01*
X165440000Y-112481651D02*
X168006000Y-112481651D01*
X165440000Y-112521651D02*
X168027000Y-112521651D01*
X165440000Y-112561651D02*
X168047000Y-112561651D01*
X165440000Y-112601651D02*
X168066000Y-112601651D01*
X165440000Y-112641651D02*
X168086000Y-112641651D01*
X165440000Y-112681651D02*
X168104000Y-112681651D01*
X165440000Y-112721651D02*
X168122000Y-112721651D01*
X165440000Y-112761651D02*
X168140000Y-112761651D01*
X165440000Y-112801651D02*
X168157000Y-112801651D01*
X165440000Y-112841651D02*
X168174000Y-112841651D01*
X165440000Y-112881651D02*
X168190000Y-112881651D01*
X165440000Y-112921651D02*
X168205000Y-112921651D01*
X165440000Y-112961651D02*
X168221000Y-112961651D01*
X165440000Y-113001651D02*
X168235000Y-113001651D01*
X165440000Y-113041651D02*
X168250000Y-113041651D01*
X165440000Y-113081651D02*
X168263000Y-113081651D01*
X165440000Y-113121651D02*
X168277000Y-113121651D01*
X165440000Y-113161651D02*
X168289000Y-113161651D01*
X165440000Y-113201651D02*
X168302000Y-113201651D01*
X165440000Y-113241651D02*
X168314000Y-113241651D01*
X165440000Y-113281651D02*
X168325000Y-113281651D01*
X165440000Y-113321651D02*
X168336000Y-113321651D01*
X165440000Y-113361651D02*
X168347000Y-113361651D01*
X165440000Y-113401651D02*
X168357000Y-113401651D01*
X165440000Y-113441651D02*
X168367000Y-113441651D01*
X165440000Y-113481651D02*
X168376000Y-113481651D01*
X165440000Y-113521651D02*
X168385000Y-113521651D01*
X165440000Y-113561651D02*
X168394000Y-113561651D01*
X165440000Y-113601651D02*
X168402000Y-113601651D01*
X165440000Y-113641651D02*
X168410000Y-113641651D01*
X165440000Y-113681651D02*
X168417000Y-113681651D01*
X168520000Y-114402651D02*
G75*
G02*
X160280000Y-114402651I-4120000J0D01*
G01*
X160280000Y-114402651D02*
G75*
G02*
X168520000Y-114402651I4120000J0D01*
G01*
%TO.C,C41*%
X150454113Y-110884000D02*
X150454113Y-110316000D01*
X150494113Y-111118000D02*
X150494113Y-110082000D01*
X150534113Y-111277000D02*
X150534113Y-109923000D01*
X150574113Y-111405000D02*
X150574113Y-109795000D01*
X150614113Y-111515000D02*
X150614113Y-109685000D01*
X150654113Y-111611000D02*
X150654113Y-109589000D01*
X150694113Y-111698000D02*
X150694113Y-109502000D01*
X150734113Y-111778000D02*
X150734113Y-109422000D01*
X150774113Y-111851000D02*
X150774113Y-109349000D01*
X150814113Y-111919000D02*
X150814113Y-109281000D01*
X150854113Y-111983000D02*
X150854113Y-109217000D01*
X150894113Y-112043000D02*
X150894113Y-109157000D01*
X150934113Y-112100000D02*
X150934113Y-109100000D01*
X150974113Y-112154000D02*
X150974113Y-109046000D01*
X151014113Y-112205000D02*
X151014113Y-108995000D01*
X151054113Y-109560000D02*
X151054113Y-108947000D01*
X151054113Y-112253000D02*
X151054113Y-111640000D01*
X151094113Y-109560000D02*
X151094113Y-108901000D01*
X151094113Y-112299000D02*
X151094113Y-111640000D01*
X151134113Y-109560000D02*
X151134113Y-108857000D01*
X151134113Y-112343000D02*
X151134113Y-111640000D01*
X151174113Y-109560000D02*
X151174113Y-108815000D01*
X151174113Y-112385000D02*
X151174113Y-111640000D01*
X151214113Y-109560000D02*
X151214113Y-108774000D01*
X151214113Y-112426000D02*
X151214113Y-111640000D01*
X151254113Y-109560000D02*
X151254113Y-108736000D01*
X151254113Y-112464000D02*
X151254113Y-111640000D01*
X151294113Y-109560000D02*
X151294113Y-108699000D01*
X151294113Y-112501000D02*
X151294113Y-111640000D01*
X151334113Y-109560000D02*
X151334113Y-108663000D01*
X151334113Y-112537000D02*
X151334113Y-111640000D01*
X151374113Y-109560000D02*
X151374113Y-108629000D01*
X151374113Y-112571000D02*
X151374113Y-111640000D01*
X151414113Y-109560000D02*
X151414113Y-108596000D01*
X151414113Y-112604000D02*
X151414113Y-111640000D01*
X151454113Y-109560000D02*
X151454113Y-108565000D01*
X151454113Y-112635000D02*
X151454113Y-111640000D01*
X151494113Y-109560000D02*
X151494113Y-108535000D01*
X151494113Y-112665000D02*
X151494113Y-111640000D01*
X151534113Y-109560000D02*
X151534113Y-108505000D01*
X151534113Y-112695000D02*
X151534113Y-111640000D01*
X151574113Y-109560000D02*
X151574113Y-108478000D01*
X151574113Y-112722000D02*
X151574113Y-111640000D01*
X151614113Y-109560000D02*
X151614113Y-108451000D01*
X151614113Y-112749000D02*
X151614113Y-111640000D01*
X151654113Y-109560000D02*
X151654113Y-108425000D01*
X151654113Y-112775000D02*
X151654113Y-111640000D01*
X151694113Y-109560000D02*
X151694113Y-108400000D01*
X151694113Y-112800000D02*
X151694113Y-111640000D01*
X151734113Y-109560000D02*
X151734113Y-108376000D01*
X151734113Y-112824000D02*
X151734113Y-111640000D01*
X151774113Y-109560000D02*
X151774113Y-108353000D01*
X151774113Y-112847000D02*
X151774113Y-111640000D01*
X151814113Y-109560000D02*
X151814113Y-108332000D01*
X151814113Y-112868000D02*
X151814113Y-111640000D01*
X151854113Y-109560000D02*
X151854113Y-108310000D01*
X151854113Y-112890000D02*
X151854113Y-111640000D01*
X151894113Y-109560000D02*
X151894113Y-108290000D01*
X151894113Y-112910000D02*
X151894113Y-111640000D01*
X151934113Y-109560000D02*
X151934113Y-108271000D01*
X151934113Y-112929000D02*
X151934113Y-111640000D01*
X151974113Y-109560000D02*
X151974113Y-108252000D01*
X151974113Y-112948000D02*
X151974113Y-111640000D01*
X152014113Y-109560000D02*
X152014113Y-108235000D01*
X152014113Y-112965000D02*
X152014113Y-111640000D01*
X152054113Y-109560000D02*
X152054113Y-108218000D01*
X152054113Y-112982000D02*
X152054113Y-111640000D01*
X152094113Y-109560000D02*
X152094113Y-108202000D01*
X152094113Y-112998000D02*
X152094113Y-111640000D01*
X152134113Y-109560000D02*
X152134113Y-108186000D01*
X152134113Y-113014000D02*
X152134113Y-111640000D01*
X152174113Y-109560000D02*
X152174113Y-108172000D01*
X152174113Y-113028000D02*
X152174113Y-111640000D01*
X152214113Y-109560000D02*
X152214113Y-108158000D01*
X152214113Y-113042000D02*
X152214113Y-111640000D01*
X152254113Y-109560000D02*
X152254113Y-108145000D01*
X152254113Y-113055000D02*
X152254113Y-111640000D01*
X152294113Y-109560000D02*
X152294113Y-108132000D01*
X152294113Y-113068000D02*
X152294113Y-111640000D01*
X152334113Y-109560000D02*
X152334113Y-108120000D01*
X152334113Y-113080000D02*
X152334113Y-111640000D01*
X152375113Y-109560000D02*
X152375113Y-108109000D01*
X152375113Y-113091000D02*
X152375113Y-111640000D01*
X152415113Y-109560000D02*
X152415113Y-108099000D01*
X152415113Y-113101000D02*
X152415113Y-111640000D01*
X152455113Y-109560000D02*
X152455113Y-108089000D01*
X152455113Y-113111000D02*
X152455113Y-111640000D01*
X152495113Y-109560000D02*
X152495113Y-108080000D01*
X152495113Y-113120000D02*
X152495113Y-111640000D01*
X152535113Y-109560000D02*
X152535113Y-108072000D01*
X152535113Y-113128000D02*
X152535113Y-111640000D01*
X152575113Y-109560000D02*
X152575113Y-108064000D01*
X152575113Y-113136000D02*
X152575113Y-111640000D01*
X152615113Y-109560000D02*
X152615113Y-108057000D01*
X152615113Y-113143000D02*
X152615113Y-111640000D01*
X152655113Y-109560000D02*
X152655113Y-108050000D01*
X152655113Y-113150000D02*
X152655113Y-111640000D01*
X152695113Y-109560000D02*
X152695113Y-108044000D01*
X152695113Y-113156000D02*
X152695113Y-111640000D01*
X152735113Y-109560000D02*
X152735113Y-108039000D01*
X152735113Y-113161000D02*
X152735113Y-111640000D01*
X152775113Y-109560000D02*
X152775113Y-108035000D01*
X152775113Y-113165000D02*
X152775113Y-111640000D01*
X152815113Y-109560000D02*
X152815113Y-108031000D01*
X152815113Y-113169000D02*
X152815113Y-111640000D01*
X152855113Y-109560000D02*
X152855113Y-108027000D01*
X152855113Y-113173000D02*
X152855113Y-111640000D01*
X152895113Y-109560000D02*
X152895113Y-108024000D01*
X152895113Y-113176000D02*
X152895113Y-111640000D01*
X152935113Y-109560000D02*
X152935113Y-108022000D01*
X152935113Y-113178000D02*
X152935113Y-111640000D01*
X152975113Y-109560000D02*
X152975113Y-108021000D01*
X152975113Y-113179000D02*
X152975113Y-111640000D01*
X153015113Y-109560000D02*
X153015113Y-108020000D01*
X153015113Y-113180000D02*
X153015113Y-111640000D01*
X153055113Y-109560000D02*
X153055113Y-108020000D01*
X153055113Y-113180000D02*
X153055113Y-111640000D01*
X155609888Y-112325000D02*
X155609888Y-111825000D01*
X155859888Y-112075000D02*
X155359888Y-112075000D01*
X155675113Y-110600000D02*
G75*
G02*
X150435113Y-110600000I-2620000J0D01*
G01*
X150435113Y-110600000D02*
G75*
G02*
X155675113Y-110600000I2620000J0D01*
G01*
%TO.C,D2*%
X139452500Y-103140000D02*
X139452500Y-106900000D01*
X141472500Y-103140000D02*
X139452500Y-103140000D01*
X141472500Y-103140000D02*
X141472500Y-106900000D01*
%TO.C,C14*%
X160191380Y-83902000D02*
X160191380Y-83098000D01*
X160231380Y-84133000D02*
X160231380Y-82867000D01*
X160271380Y-84302000D02*
X160271380Y-82698000D01*
X160311380Y-84440000D02*
X160311380Y-82560000D01*
X160351380Y-84559000D02*
X160351380Y-82441000D01*
X160391380Y-84665000D02*
X160391380Y-82335000D01*
X160431380Y-84762000D02*
X160431380Y-82238000D01*
X160471380Y-84850000D02*
X160471380Y-82150000D01*
X160511380Y-84932000D02*
X160511380Y-82068000D01*
X160551380Y-85009000D02*
X160551380Y-81991000D01*
X160591380Y-85081000D02*
X160591380Y-81919000D01*
X160631380Y-85150000D02*
X160631380Y-81850000D01*
X160671380Y-85214000D02*
X160671380Y-81786000D01*
X160711380Y-85276000D02*
X160711380Y-81724000D01*
X160751380Y-85334000D02*
X160751380Y-81666000D01*
X160791380Y-85390000D02*
X160791380Y-81610000D01*
X160831380Y-85444000D02*
X160831380Y-81556000D01*
X160871380Y-85495000D02*
X160871380Y-81505000D01*
X160911380Y-85544000D02*
X160911380Y-81456000D01*
X160951380Y-85592000D02*
X160951380Y-81408000D01*
X160991380Y-85637000D02*
X160991380Y-81363000D01*
X161031380Y-85682000D02*
X161031380Y-81318000D01*
X161071380Y-85724000D02*
X161071380Y-81276000D01*
X161111380Y-85765000D02*
X161111380Y-81235000D01*
X161151380Y-82460000D02*
X161151380Y-81195000D01*
X161151380Y-85805000D02*
X161151380Y-84540000D01*
X161191380Y-82460000D02*
X161191380Y-81157000D01*
X161191380Y-85843000D02*
X161191380Y-84540000D01*
X161231380Y-82460000D02*
X161231380Y-81120000D01*
X161231380Y-85880000D02*
X161231380Y-84540000D01*
X161271380Y-82460000D02*
X161271380Y-81084000D01*
X161271380Y-85916000D02*
X161271380Y-84540000D01*
X161311380Y-82460000D02*
X161311380Y-81050000D01*
X161311380Y-85950000D02*
X161311380Y-84540000D01*
X161351380Y-82460000D02*
X161351380Y-81016000D01*
X161351380Y-85984000D02*
X161351380Y-84540000D01*
X161391380Y-82460000D02*
X161391380Y-80984000D01*
X161391380Y-86016000D02*
X161391380Y-84540000D01*
X161431380Y-82460000D02*
X161431380Y-80952000D01*
X161431380Y-86048000D02*
X161431380Y-84540000D01*
X161471380Y-82460000D02*
X161471380Y-80922000D01*
X161471380Y-86078000D02*
X161471380Y-84540000D01*
X161511380Y-82460000D02*
X161511380Y-80893000D01*
X161511380Y-86107000D02*
X161511380Y-84540000D01*
X161551380Y-82460000D02*
X161551380Y-80864000D01*
X161551380Y-86136000D02*
X161551380Y-84540000D01*
X161591380Y-82460000D02*
X161591380Y-80836000D01*
X161591380Y-86164000D02*
X161591380Y-84540000D01*
X161631380Y-82460000D02*
X161631380Y-80810000D01*
X161631380Y-86190000D02*
X161631380Y-84540000D01*
X161671380Y-82460000D02*
X161671380Y-80784000D01*
X161671380Y-86216000D02*
X161671380Y-84540000D01*
X161711380Y-82460000D02*
X161711380Y-80758000D01*
X161711380Y-86242000D02*
X161711380Y-84540000D01*
X161751380Y-82460000D02*
X161751380Y-80734000D01*
X161751380Y-86266000D02*
X161751380Y-84540000D01*
X161791380Y-82460000D02*
X161791380Y-80710000D01*
X161791380Y-86290000D02*
X161791380Y-84540000D01*
X161831380Y-82460000D02*
X161831380Y-80688000D01*
X161831380Y-86312000D02*
X161831380Y-84540000D01*
X161871380Y-82460000D02*
X161871380Y-80666000D01*
X161871380Y-86334000D02*
X161871380Y-84540000D01*
X161911380Y-82460000D02*
X161911380Y-80644000D01*
X161911380Y-86356000D02*
X161911380Y-84540000D01*
X161951380Y-82460000D02*
X161951380Y-80624000D01*
X161951380Y-86376000D02*
X161951380Y-84540000D01*
X161991380Y-82460000D02*
X161991380Y-80604000D01*
X161991380Y-86396000D02*
X161991380Y-84540000D01*
X162031380Y-82460000D02*
X162031380Y-80584000D01*
X162031380Y-86416000D02*
X162031380Y-84540000D01*
X162071380Y-82460000D02*
X162071380Y-80566000D01*
X162071380Y-86434000D02*
X162071380Y-84540000D01*
X162111380Y-82460000D02*
X162111380Y-80548000D01*
X162111380Y-86452000D02*
X162111380Y-84540000D01*
X162151380Y-82460000D02*
X162151380Y-80530000D01*
X162151380Y-86470000D02*
X162151380Y-84540000D01*
X162191380Y-82460000D02*
X162191380Y-80514000D01*
X162191380Y-86486000D02*
X162191380Y-84540000D01*
X162231380Y-82460000D02*
X162231380Y-80498000D01*
X162231380Y-86502000D02*
X162231380Y-84540000D01*
X162271380Y-82460000D02*
X162271380Y-80482000D01*
X162271380Y-86518000D02*
X162271380Y-84540000D01*
X162311380Y-82460000D02*
X162311380Y-80467000D01*
X162311380Y-86533000D02*
X162311380Y-84540000D01*
X162351380Y-82460000D02*
X162351380Y-80453000D01*
X162351380Y-86547000D02*
X162351380Y-84540000D01*
X162391380Y-82460000D02*
X162391380Y-80439000D01*
X162391380Y-86561000D02*
X162391380Y-84540000D01*
X162431380Y-82460000D02*
X162431380Y-80426000D01*
X162431380Y-86574000D02*
X162431380Y-84540000D01*
X162471380Y-82460000D02*
X162471380Y-80414000D01*
X162471380Y-86586000D02*
X162471380Y-84540000D01*
X162511380Y-82460000D02*
X162511380Y-80402000D01*
X162511380Y-86598000D02*
X162511380Y-84540000D01*
X162551380Y-82460000D02*
X162551380Y-80390000D01*
X162551380Y-86610000D02*
X162551380Y-84540000D01*
X162591380Y-82460000D02*
X162591380Y-80379000D01*
X162591380Y-86621000D02*
X162591380Y-84540000D01*
X162631380Y-82460000D02*
X162631380Y-80369000D01*
X162631380Y-86631000D02*
X162631380Y-84540000D01*
X162671380Y-82460000D02*
X162671380Y-80359000D01*
X162671380Y-86641000D02*
X162671380Y-84540000D01*
X162711380Y-82460000D02*
X162711380Y-80350000D01*
X162711380Y-86650000D02*
X162711380Y-84540000D01*
X162752380Y-82460000D02*
X162752380Y-80341000D01*
X162752380Y-86659000D02*
X162752380Y-84540000D01*
X162792380Y-82460000D02*
X162792380Y-80333000D01*
X162792380Y-86667000D02*
X162792380Y-84540000D01*
X162832380Y-82460000D02*
X162832380Y-80325000D01*
X162832380Y-86675000D02*
X162832380Y-84540000D01*
X162872380Y-82460000D02*
X162872380Y-80318000D01*
X162872380Y-86682000D02*
X162872380Y-84540000D01*
X162912380Y-82460000D02*
X162912380Y-80311000D01*
X162912380Y-86689000D02*
X162912380Y-84540000D01*
X162952380Y-82460000D02*
X162952380Y-80305000D01*
X162952380Y-86695000D02*
X162952380Y-84540000D01*
X162992380Y-82460000D02*
X162992380Y-80299000D01*
X162992380Y-86701000D02*
X162992380Y-84540000D01*
X163032380Y-82460000D02*
X163032380Y-80294000D01*
X163032380Y-86706000D02*
X163032380Y-84540000D01*
X163072380Y-82460000D02*
X163072380Y-80289000D01*
X163072380Y-86711000D02*
X163072380Y-84540000D01*
X163112380Y-82460000D02*
X163112380Y-80285000D01*
X163112380Y-86715000D02*
X163112380Y-84540000D01*
X163152380Y-82460000D02*
X163152380Y-80282000D01*
X163152380Y-86718000D02*
X163152380Y-84540000D01*
X163192380Y-82460000D02*
X163192380Y-80278000D01*
X163192380Y-86722000D02*
X163192380Y-84540000D01*
X163232380Y-86724000D02*
X163232380Y-80276000D01*
X163272380Y-86727000D02*
X163272380Y-80273000D01*
X163312380Y-86728000D02*
X163312380Y-80272000D01*
X163352380Y-86730000D02*
X163352380Y-80270000D01*
X163392380Y-86730000D02*
X163392380Y-80270000D01*
X163432380Y-86730000D02*
X163432380Y-80270000D01*
X166617621Y-85654000D02*
X166617621Y-85024000D01*
X166932621Y-85339000D02*
X166302621Y-85339000D01*
X166702380Y-83500000D02*
G75*
G02*
X160162380Y-83500000I-3270000J0D01*
G01*
X160162380Y-83500000D02*
G75*
G02*
X166702380Y-83500000I3270000J0D01*
G01*
%TO.C,C22*%
X133821920Y-97890000D02*
X134103080Y-97890000D01*
X133821920Y-98910000D02*
X134103080Y-98910000D01*
%TO.C,C29*%
X150370000Y-101052380D02*
X156830000Y-101052380D01*
X150370000Y-101092380D02*
X156830000Y-101092380D01*
X150370000Y-101132380D02*
X156830000Y-101132380D01*
X150372000Y-101012380D02*
X156828000Y-101012380D01*
X150373000Y-100972380D02*
X156827000Y-100972380D01*
X150376000Y-100932380D02*
X156824000Y-100932380D01*
X150378000Y-100892380D02*
X152560000Y-100892380D01*
X150382000Y-100852380D02*
X152560000Y-100852380D01*
X150385000Y-100812380D02*
X152560000Y-100812380D01*
X150389000Y-100772380D02*
X152560000Y-100772380D01*
X150394000Y-100732380D02*
X152560000Y-100732380D01*
X150399000Y-100692380D02*
X152560000Y-100692380D01*
X150405000Y-100652380D02*
X152560000Y-100652380D01*
X150411000Y-100612380D02*
X152560000Y-100612380D01*
X150418000Y-100572380D02*
X152560000Y-100572380D01*
X150425000Y-100532380D02*
X152560000Y-100532380D01*
X150433000Y-100492380D02*
X152560000Y-100492380D01*
X150441000Y-100452380D02*
X152560000Y-100452380D01*
X150450000Y-100411380D02*
X152560000Y-100411380D01*
X150459000Y-100371380D02*
X152560000Y-100371380D01*
X150469000Y-100331380D02*
X152560000Y-100331380D01*
X150479000Y-100291380D02*
X152560000Y-100291380D01*
X150490000Y-100251380D02*
X152560000Y-100251380D01*
X150502000Y-100211380D02*
X152560000Y-100211380D01*
X150514000Y-100171380D02*
X152560000Y-100171380D01*
X150526000Y-100131380D02*
X152560000Y-100131380D01*
X150539000Y-100091380D02*
X152560000Y-100091380D01*
X150553000Y-100051380D02*
X152560000Y-100051380D01*
X150567000Y-100011380D02*
X152560000Y-100011380D01*
X150582000Y-99971380D02*
X152560000Y-99971380D01*
X150598000Y-99931380D02*
X152560000Y-99931380D01*
X150614000Y-99891380D02*
X152560000Y-99891380D01*
X150630000Y-99851380D02*
X152560000Y-99851380D01*
X150648000Y-99811380D02*
X152560000Y-99811380D01*
X150666000Y-99771380D02*
X152560000Y-99771380D01*
X150684000Y-99731380D02*
X152560000Y-99731380D01*
X150704000Y-99691380D02*
X152560000Y-99691380D01*
X150724000Y-99651380D02*
X152560000Y-99651380D01*
X150744000Y-99611380D02*
X152560000Y-99611380D01*
X150766000Y-99571380D02*
X152560000Y-99571380D01*
X150788000Y-99531380D02*
X152560000Y-99531380D01*
X150810000Y-99491380D02*
X152560000Y-99491380D01*
X150834000Y-99451380D02*
X152560000Y-99451380D01*
X150858000Y-99411380D02*
X152560000Y-99411380D01*
X150884000Y-99371380D02*
X152560000Y-99371380D01*
X150910000Y-99331380D02*
X152560000Y-99331380D01*
X150936000Y-99291380D02*
X152560000Y-99291380D01*
X150964000Y-99251380D02*
X152560000Y-99251380D01*
X150993000Y-99211380D02*
X152560000Y-99211380D01*
X151022000Y-99171380D02*
X152560000Y-99171380D01*
X151052000Y-99131380D02*
X152560000Y-99131380D01*
X151084000Y-99091380D02*
X152560000Y-99091380D01*
X151116000Y-99051380D02*
X152560000Y-99051380D01*
X151150000Y-99011380D02*
X152560000Y-99011380D01*
X151184000Y-98971380D02*
X152560000Y-98971380D01*
X151220000Y-98931380D02*
X152560000Y-98931380D01*
X151257000Y-98891380D02*
X152560000Y-98891380D01*
X151295000Y-98851380D02*
X152560000Y-98851380D01*
X151335000Y-98811380D02*
X155865000Y-98811380D01*
X151376000Y-98771380D02*
X155824000Y-98771380D01*
X151418000Y-98731380D02*
X155782000Y-98731380D01*
X151446000Y-104317621D02*
X152076000Y-104317621D01*
X151463000Y-98691380D02*
X155737000Y-98691380D01*
X151508000Y-98651380D02*
X155692000Y-98651380D01*
X151556000Y-98611380D02*
X155644000Y-98611380D01*
X151605000Y-98571380D02*
X155595000Y-98571380D01*
X151656000Y-98531380D02*
X155544000Y-98531380D01*
X151710000Y-98491380D02*
X155490000Y-98491380D01*
X151761000Y-104632621D02*
X151761000Y-104002621D01*
X151766000Y-98451380D02*
X155434000Y-98451380D01*
X151824000Y-98411380D02*
X155376000Y-98411380D01*
X151886000Y-98371380D02*
X155314000Y-98371380D01*
X151950000Y-98331380D02*
X155250000Y-98331380D01*
X152019000Y-98291380D02*
X155181000Y-98291380D01*
X152091000Y-98251380D02*
X155109000Y-98251380D01*
X152168000Y-98211380D02*
X155032000Y-98211380D01*
X152250000Y-98171380D02*
X154950000Y-98171380D01*
X152338000Y-98131380D02*
X154862000Y-98131380D01*
X152435000Y-98091380D02*
X154765000Y-98091380D01*
X152541000Y-98051380D02*
X154659000Y-98051380D01*
X152660000Y-98011380D02*
X154540000Y-98011380D01*
X152798000Y-97971380D02*
X154402000Y-97971380D01*
X152967000Y-97931380D02*
X154233000Y-97931380D01*
X153198000Y-97891380D02*
X154002000Y-97891380D01*
X154640000Y-98851380D02*
X155905000Y-98851380D01*
X154640000Y-98891380D02*
X155943000Y-98891380D01*
X154640000Y-98931380D02*
X155980000Y-98931380D01*
X154640000Y-98971380D02*
X156016000Y-98971380D01*
X154640000Y-99011380D02*
X156050000Y-99011380D01*
X154640000Y-99051380D02*
X156084000Y-99051380D01*
X154640000Y-99091380D02*
X156116000Y-99091380D01*
X154640000Y-99131380D02*
X156148000Y-99131380D01*
X154640000Y-99171380D02*
X156178000Y-99171380D01*
X154640000Y-99211380D02*
X156207000Y-99211380D01*
X154640000Y-99251380D02*
X156236000Y-99251380D01*
X154640000Y-99291380D02*
X156264000Y-99291380D01*
X154640000Y-99331380D02*
X156290000Y-99331380D01*
X154640000Y-99371380D02*
X156316000Y-99371380D01*
X154640000Y-99411380D02*
X156342000Y-99411380D01*
X154640000Y-99451380D02*
X156366000Y-99451380D01*
X154640000Y-99491380D02*
X156390000Y-99491380D01*
X154640000Y-99531380D02*
X156412000Y-99531380D01*
X154640000Y-99571380D02*
X156434000Y-99571380D01*
X154640000Y-99611380D02*
X156456000Y-99611380D01*
X154640000Y-99651380D02*
X156476000Y-99651380D01*
X154640000Y-99691380D02*
X156496000Y-99691380D01*
X154640000Y-99731380D02*
X156516000Y-99731380D01*
X154640000Y-99771380D02*
X156534000Y-99771380D01*
X154640000Y-99811380D02*
X156552000Y-99811380D01*
X154640000Y-99851380D02*
X156570000Y-99851380D01*
X154640000Y-99891380D02*
X156586000Y-99891380D01*
X154640000Y-99931380D02*
X156602000Y-99931380D01*
X154640000Y-99971380D02*
X156618000Y-99971380D01*
X154640000Y-100011380D02*
X156633000Y-100011380D01*
X154640000Y-100051380D02*
X156647000Y-100051380D01*
X154640000Y-100091380D02*
X156661000Y-100091380D01*
X154640000Y-100131380D02*
X156674000Y-100131380D01*
X154640000Y-100171380D02*
X156686000Y-100171380D01*
X154640000Y-100211380D02*
X156698000Y-100211380D01*
X154640000Y-100251380D02*
X156710000Y-100251380D01*
X154640000Y-100291380D02*
X156721000Y-100291380D01*
X154640000Y-100331380D02*
X156731000Y-100331380D01*
X154640000Y-100371380D02*
X156741000Y-100371380D01*
X154640000Y-100411380D02*
X156750000Y-100411380D01*
X154640000Y-100452380D02*
X156759000Y-100452380D01*
X154640000Y-100492380D02*
X156767000Y-100492380D01*
X154640000Y-100532380D02*
X156775000Y-100532380D01*
X154640000Y-100572380D02*
X156782000Y-100572380D01*
X154640000Y-100612380D02*
X156789000Y-100612380D01*
X154640000Y-100652380D02*
X156795000Y-100652380D01*
X154640000Y-100692380D02*
X156801000Y-100692380D01*
X154640000Y-100732380D02*
X156806000Y-100732380D01*
X154640000Y-100772380D02*
X156811000Y-100772380D01*
X154640000Y-100812380D02*
X156815000Y-100812380D01*
X154640000Y-100852380D02*
X156818000Y-100852380D01*
X154640000Y-100892380D02*
X156822000Y-100892380D01*
X156870000Y-101132380D02*
G75*
G02*
X150330000Y-101132380I-3270000J0D01*
G01*
X150330000Y-101132380D02*
G75*
G02*
X156870000Y-101132380I3270000J0D01*
G01*
%TO.C,C28*%
X160921651Y-106333000D02*
X160921651Y-105267000D01*
X160961651Y-106568000D02*
X160961651Y-105032000D01*
X161001651Y-106748000D02*
X161001651Y-104852000D01*
X161041651Y-106898000D02*
X161041651Y-104702000D01*
X161081651Y-107029000D02*
X161081651Y-104571000D01*
X161121651Y-107146000D02*
X161121651Y-104454000D01*
X161161651Y-107253000D02*
X161161651Y-104347000D01*
X161201651Y-107352000D02*
X161201651Y-104248000D01*
X161241651Y-107445000D02*
X161241651Y-104155000D01*
X161281651Y-107531000D02*
X161281651Y-104069000D01*
X161321651Y-107613000D02*
X161321651Y-103987000D01*
X161361651Y-107690000D02*
X161361651Y-103910000D01*
X161401651Y-107764000D02*
X161401651Y-103836000D01*
X161441651Y-107834000D02*
X161441651Y-103766000D01*
X161481651Y-107902000D02*
X161481651Y-103698000D01*
X161521651Y-107966000D02*
X161521651Y-103634000D01*
X161561651Y-108028000D02*
X161561651Y-103572000D01*
X161601651Y-108087000D02*
X161601651Y-103513000D01*
X161641651Y-108145000D02*
X161641651Y-103455000D01*
X161681651Y-108200000D02*
X161681651Y-103400000D01*
X161721651Y-108254000D02*
X161721651Y-103346000D01*
X161761651Y-108305000D02*
X161761651Y-103295000D01*
X161801651Y-108356000D02*
X161801651Y-103244000D01*
X161841651Y-108404000D02*
X161841651Y-103196000D01*
X161881651Y-108451000D02*
X161881651Y-103149000D01*
X161921651Y-108497000D02*
X161921651Y-103103000D01*
X161961651Y-108541000D02*
X161961651Y-103059000D01*
X162001651Y-108584000D02*
X162001651Y-103016000D01*
X162041651Y-108626000D02*
X162041651Y-102974000D01*
X162081651Y-108667000D02*
X162081651Y-102933000D01*
X162121651Y-108707000D02*
X162121651Y-102893000D01*
X162161651Y-108745000D02*
X162161651Y-102855000D01*
X162201651Y-108783000D02*
X162201651Y-102817000D01*
X162241651Y-104760000D02*
X162241651Y-102781000D01*
X162241651Y-108819000D02*
X162241651Y-106840000D01*
X162281651Y-104760000D02*
X162281651Y-102745000D01*
X162281651Y-108855000D02*
X162281651Y-106840000D01*
X162321651Y-104760000D02*
X162321651Y-102710000D01*
X162321651Y-108890000D02*
X162321651Y-106840000D01*
X162361651Y-104760000D02*
X162361651Y-102676000D01*
X162361651Y-108924000D02*
X162361651Y-106840000D01*
X162401651Y-104760000D02*
X162401651Y-102644000D01*
X162401651Y-108956000D02*
X162401651Y-106840000D01*
X162441651Y-104760000D02*
X162441651Y-102611000D01*
X162441651Y-108989000D02*
X162441651Y-106840000D01*
X162481651Y-104760000D02*
X162481651Y-102580000D01*
X162481651Y-109020000D02*
X162481651Y-106840000D01*
X162521651Y-104760000D02*
X162521651Y-102550000D01*
X162521651Y-109050000D02*
X162521651Y-106840000D01*
X162561651Y-104760000D02*
X162561651Y-102520000D01*
X162561651Y-109080000D02*
X162561651Y-106840000D01*
X162601651Y-104760000D02*
X162601651Y-102491000D01*
X162601651Y-109109000D02*
X162601651Y-106840000D01*
X162641651Y-104760000D02*
X162641651Y-102462000D01*
X162641651Y-109138000D02*
X162641651Y-106840000D01*
X162681651Y-104760000D02*
X162681651Y-102435000D01*
X162681651Y-109165000D02*
X162681651Y-106840000D01*
X162721651Y-104760000D02*
X162721651Y-102408000D01*
X162721651Y-109192000D02*
X162721651Y-106840000D01*
X162761651Y-104760000D02*
X162761651Y-102382000D01*
X162761651Y-109218000D02*
X162761651Y-106840000D01*
X162801651Y-104760000D02*
X162801651Y-102356000D01*
X162801651Y-109244000D02*
X162801651Y-106840000D01*
X162841651Y-104760000D02*
X162841651Y-102331000D01*
X162841651Y-109269000D02*
X162841651Y-106840000D01*
X162881651Y-104760000D02*
X162881651Y-102307000D01*
X162881651Y-109293000D02*
X162881651Y-106840000D01*
X162921651Y-104760000D02*
X162921651Y-102283000D01*
X162921651Y-109317000D02*
X162921651Y-106840000D01*
X162961651Y-104760000D02*
X162961651Y-102260000D01*
X162961651Y-109340000D02*
X162961651Y-106840000D01*
X163001651Y-104760000D02*
X163001651Y-102238000D01*
X163001651Y-109362000D02*
X163001651Y-106840000D01*
X163041651Y-104760000D02*
X163041651Y-102216000D01*
X163041651Y-109384000D02*
X163041651Y-106840000D01*
X163081651Y-104760000D02*
X163081651Y-102194000D01*
X163081651Y-109406000D02*
X163081651Y-106840000D01*
X163121651Y-104760000D02*
X163121651Y-102173000D01*
X163121651Y-109427000D02*
X163121651Y-106840000D01*
X163161651Y-104760000D02*
X163161651Y-102153000D01*
X163161651Y-109447000D02*
X163161651Y-106840000D01*
X163201651Y-104760000D02*
X163201651Y-102134000D01*
X163201651Y-109466000D02*
X163201651Y-106840000D01*
X163241651Y-104760000D02*
X163241651Y-102114000D01*
X163241651Y-109486000D02*
X163241651Y-106840000D01*
X163281651Y-104760000D02*
X163281651Y-102096000D01*
X163281651Y-109504000D02*
X163281651Y-106840000D01*
X163321651Y-104760000D02*
X163321651Y-102078000D01*
X163321651Y-109522000D02*
X163321651Y-106840000D01*
X163361651Y-104760000D02*
X163361651Y-102060000D01*
X163361651Y-109540000D02*
X163361651Y-106840000D01*
X163401651Y-104760000D02*
X163401651Y-102043000D01*
X163401651Y-109557000D02*
X163401651Y-106840000D01*
X163441651Y-104760000D02*
X163441651Y-102026000D01*
X163441651Y-109574000D02*
X163441651Y-106840000D01*
X163481651Y-104760000D02*
X163481651Y-102010000D01*
X163481651Y-109590000D02*
X163481651Y-106840000D01*
X163521651Y-104760000D02*
X163521651Y-101995000D01*
X163521651Y-109605000D02*
X163521651Y-106840000D01*
X163561651Y-104760000D02*
X163561651Y-101979000D01*
X163561651Y-109621000D02*
X163561651Y-106840000D01*
X163601651Y-104760000D02*
X163601651Y-101965000D01*
X163601651Y-109635000D02*
X163601651Y-106840000D01*
X163641651Y-104760000D02*
X163641651Y-101950000D01*
X163641651Y-109650000D02*
X163641651Y-106840000D01*
X163681651Y-104760000D02*
X163681651Y-101937000D01*
X163681651Y-109663000D02*
X163681651Y-106840000D01*
X163721651Y-104760000D02*
X163721651Y-101923000D01*
X163721651Y-109677000D02*
X163721651Y-106840000D01*
X163761651Y-104760000D02*
X163761651Y-101911000D01*
X163761651Y-109689000D02*
X163761651Y-106840000D01*
X163801651Y-104760000D02*
X163801651Y-101898000D01*
X163801651Y-109702000D02*
X163801651Y-106840000D01*
X163841651Y-104760000D02*
X163841651Y-101886000D01*
X163841651Y-109714000D02*
X163841651Y-106840000D01*
X163881651Y-104760000D02*
X163881651Y-101875000D01*
X163881651Y-109725000D02*
X163881651Y-106840000D01*
X163921651Y-104760000D02*
X163921651Y-101864000D01*
X163921651Y-109736000D02*
X163921651Y-106840000D01*
X163961651Y-104760000D02*
X163961651Y-101853000D01*
X163961651Y-109747000D02*
X163961651Y-106840000D01*
X164001651Y-104760000D02*
X164001651Y-101843000D01*
X164001651Y-109757000D02*
X164001651Y-106840000D01*
X164041651Y-104760000D02*
X164041651Y-101833000D01*
X164041651Y-109767000D02*
X164041651Y-106840000D01*
X164081651Y-104760000D02*
X164081651Y-101824000D01*
X164081651Y-109776000D02*
X164081651Y-106840000D01*
X164121651Y-104760000D02*
X164121651Y-101815000D01*
X164121651Y-109785000D02*
X164121651Y-106840000D01*
X164161651Y-104760000D02*
X164161651Y-101806000D01*
X164161651Y-109794000D02*
X164161651Y-106840000D01*
X164201651Y-104760000D02*
X164201651Y-101798000D01*
X164201651Y-109802000D02*
X164201651Y-106840000D01*
X164241651Y-104760000D02*
X164241651Y-101790000D01*
X164241651Y-109810000D02*
X164241651Y-106840000D01*
X164281651Y-104760000D02*
X164281651Y-101783000D01*
X164281651Y-109817000D02*
X164281651Y-106840000D01*
X164322651Y-109824000D02*
X164322651Y-101776000D01*
X164362651Y-109830000D02*
X164362651Y-101770000D01*
X164402651Y-109837000D02*
X164402651Y-101763000D01*
X164442651Y-109842000D02*
X164442651Y-101758000D01*
X164482651Y-109848000D02*
X164482651Y-101752000D01*
X164522651Y-109852000D02*
X164522651Y-101748000D01*
X164562651Y-109857000D02*
X164562651Y-101743000D01*
X164602651Y-109861000D02*
X164602651Y-101739000D01*
X164642651Y-109865000D02*
X164642651Y-101735000D01*
X164682651Y-109868000D02*
X164682651Y-101732000D01*
X164722651Y-109871000D02*
X164722651Y-101729000D01*
X164762651Y-109874000D02*
X164762651Y-101726000D01*
X164802651Y-109876000D02*
X164802651Y-101724000D01*
X164842651Y-109877000D02*
X164842651Y-101723000D01*
X164882651Y-109879000D02*
X164882651Y-101721000D01*
X164922651Y-109880000D02*
X164922651Y-101720000D01*
X164962651Y-109880000D02*
X164962651Y-101720000D01*
X165002651Y-109880000D02*
X165002651Y-101720000D01*
X169012349Y-108515000D02*
X169012349Y-107715000D01*
X169412349Y-108115000D02*
X168612349Y-108115000D01*
X169122651Y-105800000D02*
G75*
G02*
X160882651Y-105800000I-4120000J0D01*
G01*
X160882651Y-105800000D02*
G75*
G02*
X169122651Y-105800000I4120000J0D01*
G01*
%TO.C,C10*%
X131090000Y-85659420D02*
X131090000Y-85940580D01*
X132110000Y-85659420D02*
X132110000Y-85940580D01*
%TO.C,R10*%
X149085436Y-103965000D02*
X149539564Y-103965000D01*
X149085436Y-105435000D02*
X149539564Y-105435000D01*
D11*
%TO.C,J4*%
X149400000Y-116000000D02*
X149400000Y-117800000D01*
X151200000Y-114850000D02*
X151800000Y-114850000D01*
X151800000Y-114850000D02*
X151800000Y-116000000D01*
X151800000Y-117800000D02*
X151800000Y-118950000D01*
X151800000Y-118950000D02*
X151200000Y-118950000D01*
D12*
%TO.C,C20*%
X138252500Y-97259420D02*
X138252500Y-97540580D01*
X139272500Y-97259420D02*
X139272500Y-97540580D01*
%TD*%
%LPC*%
D13*
X159200000Y-89200000D02*
X160700000Y-89200000D01*
X160700000Y-90300000D01*
X159200000Y-90300000D01*
X159200000Y-89200000D01*
G36*
X159200000Y-89200000D02*
G01*
X160700000Y-89200000D01*
X160700000Y-90300000D01*
X159200000Y-90300000D01*
X159200000Y-89200000D01*
G37*
X157200000Y-104900000D02*
X160400000Y-104900000D01*
X160400000Y-108100000D01*
X157200000Y-108100000D01*
X157200000Y-104900000D01*
G36*
X157200000Y-104900000D02*
G01*
X160400000Y-104900000D01*
X160400000Y-108100000D01*
X157200000Y-108100000D01*
X157200000Y-104900000D01*
G37*
X154900000Y-114500000D02*
X156200000Y-114500000D01*
X156200000Y-115600000D01*
X154900000Y-115600000D01*
X154900000Y-114500000D01*
G36*
X154900000Y-114500000D02*
G01*
X156200000Y-114500000D01*
X156200000Y-115600000D01*
X154900000Y-115600000D01*
X154900000Y-114500000D01*
G37*
D14*
%TO.C,C21*%
X132487500Y-96400000D03*
X135437500Y-96400000D03*
%TD*%
D15*
%TO.C,L6*%
X143400000Y-110000000D03*
X149400000Y-110000000D03*
%TD*%
D16*
%TO.C,R9*%
X140362500Y-96575000D03*
X140362500Y-98225000D03*
%TD*%
D15*
%TO.C,L4*%
X142562500Y-99700000D03*
X148562500Y-99700000D03*
%TD*%
D17*
%TO.C,U5*%
X140250000Y-116497500D03*
X139300000Y-116497500D03*
X138350000Y-116497500D03*
X138350000Y-118772500D03*
X139300000Y-118772500D03*
X140250000Y-118772500D03*
%TD*%
D18*
%TO.C,C5*%
X135650000Y-83500000D03*
X133750000Y-83500000D03*
%TD*%
D19*
%TO.C,C7*%
X155400000Y-82100000D03*
X155400000Y-87500000D03*
%TD*%
D20*
%TO.C,L5*%
X145500000Y-119285000D03*
D21*
X145500000Y-114385000D03*
%TD*%
D22*
%TO.C,J3*%
X155300000Y-117300000D03*
X155300000Y-116500000D03*
D23*
X153700000Y-115100000D03*
X153700000Y-118700000D03*
%TD*%
D24*
%TO.C,C31*%
X141800000Y-116960000D03*
X141800000Y-118510000D03*
%TD*%
%TO.C,C2*%
X138800000Y-93125000D03*
X138800000Y-94675000D03*
%TD*%
D25*
%TO.C,J1*%
X132800000Y-113400000D03*
X133600000Y-113400000D03*
D26*
X135000000Y-111800000D03*
X131400000Y-111800000D03*
%TD*%
D14*
%TO.C,C3*%
X137325000Y-81700000D03*
X140275000Y-81700000D03*
%TD*%
D27*
%TO.C,L3*%
X133500000Y-106400000D03*
X138100000Y-106400000D03*
%TD*%
D28*
%TO.C,R13*%
X137175000Y-114735000D03*
X138825000Y-114735000D03*
%TD*%
D29*
%TO.C,C23*%
X139737500Y-102300000D03*
X138187500Y-102300000D03*
%TD*%
D22*
%TO.C,J2*%
X159000000Y-117300000D03*
X159000000Y-116500000D03*
D23*
X157400000Y-115100000D03*
X157400000Y-118700000D03*
%TD*%
D15*
%TO.C,L2*%
X151300000Y-93457500D03*
X157300000Y-93457500D03*
%TD*%
D22*
%TO.C,J6*%
X161000000Y-99600000D03*
X161000000Y-98800000D03*
X161000000Y-98000000D03*
X161000000Y-97200000D03*
D23*
X159400000Y-95800000D03*
X159400000Y-101000000D03*
%TD*%
D30*
%TO.C,C4*%
X137225000Y-83700000D03*
X138775000Y-83700000D03*
%TD*%
D31*
%TO.C,C24*%
X140537500Y-100300000D03*
X137587500Y-100300000D03*
%TD*%
D24*
%TO.C,C6*%
X151000000Y-85125000D03*
X151000000Y-86675000D03*
%TD*%
D32*
%TO.C,U1*%
X138825000Y-85575000D03*
X138175000Y-85575000D03*
X137525000Y-85575000D03*
X136875000Y-85575000D03*
X136225000Y-85575000D03*
X135575000Y-85575000D03*
X134925000Y-85575000D03*
X134275000Y-85575000D03*
X133625000Y-85575000D03*
X132975000Y-85575000D03*
X132975000Y-91300000D03*
X133625000Y-91300000D03*
X134275000Y-91300000D03*
X134925000Y-91300000D03*
X135575000Y-91300000D03*
X136225000Y-91300000D03*
X136875000Y-91300000D03*
X137525000Y-91300000D03*
X138175000Y-91300000D03*
X138825000Y-91300000D03*
D33*
X135900000Y-88437500D03*
%TD*%
D34*
%TO.C,U3*%
X135700000Y-101900000D03*
X135700000Y-100950000D03*
X135700000Y-100000000D03*
X133425000Y-100000000D03*
X133425000Y-101900000D03*
%TD*%
D35*
%TO.C,R14*%
X151387500Y-106800000D03*
X153212500Y-106800000D03*
%TD*%
D36*
%TO.C,C33*%
X136800000Y-119010000D03*
X136800000Y-117460000D03*
%TD*%
D37*
%TO.C,C18*%
X163000000Y-91100000D03*
D38*
X166500000Y-91100000D03*
%TD*%
D22*
%TO.C,J5*%
X168900000Y-99600000D03*
X168900000Y-98800000D03*
X168900000Y-98000000D03*
X168900000Y-97200000D03*
D23*
X167300000Y-95800000D03*
X167300000Y-101000000D03*
%TD*%
D39*
%TO.C,L1*%
X144900000Y-93708500D03*
X144900000Y-84691500D03*
%TD*%
D40*
%TO.C,D1*%
X137050000Y-93600000D03*
X134150000Y-93600000D03*
%TD*%
D41*
%TO.C,R7*%
X160000000Y-86587500D03*
X160000000Y-88412500D03*
%TD*%
D29*
%TO.C,C34*%
X141875000Y-114735000D03*
X140325000Y-114735000D03*
%TD*%
D42*
%TO.C,C32*%
X134900000Y-118875000D03*
X134900000Y-115925000D03*
%TD*%
D43*
%TO.C,R12*%
X138225000Y-113135000D03*
X136575000Y-113135000D03*
%TD*%
D18*
%TO.C,C36*%
X141650000Y-110935000D03*
X139750000Y-110935000D03*
%TD*%
D44*
%TO.C,R11*%
X137162500Y-98225000D03*
X137162500Y-96575000D03*
%TD*%
D18*
%TO.C,C35*%
X141650000Y-112935000D03*
X139750000Y-112935000D03*
%TD*%
D37*
%TO.C,C40*%
X164400000Y-116152651D03*
D38*
X164400000Y-112652651D03*
%TD*%
D37*
%TO.C,C41*%
X154055113Y-110600000D03*
D38*
X152055113Y-110600000D03*
%TD*%
D45*
%TO.C,D2*%
X140462500Y-104050000D03*
X140462500Y-106950000D03*
%TD*%
D37*
%TO.C,C14*%
X164682380Y-83500000D03*
D38*
X162182380Y-83500000D03*
%TD*%
D30*
%TO.C,C22*%
X133187500Y-98400000D03*
X134737500Y-98400000D03*
%TD*%
D37*
%TO.C,C29*%
X153600000Y-102382380D03*
D38*
X153600000Y-99882380D03*
%TD*%
D37*
%TO.C,C28*%
X166752651Y-105800000D03*
D38*
X163252651Y-105800000D03*
%TD*%
D24*
%TO.C,C10*%
X131600000Y-85025000D03*
X131600000Y-86575000D03*
%TD*%
D35*
%TO.C,R10*%
X148400000Y-104700000D03*
X150225000Y-104700000D03*
%TD*%
D22*
%TO.C,J4*%
X151600000Y-117300000D03*
X151600000Y-116500000D03*
D23*
X150000000Y-115100000D03*
X150000000Y-118700000D03*
%TD*%
D24*
%TO.C,C20*%
X138762500Y-96625000D03*
X138762500Y-98175000D03*
%TD*%
%LPD*%
M02*
