%TF.GenerationSoftware,KiCad,Pcbnew,8.0.3*%
%TF.CreationDate,2024-07-14T14:44:16+02:00*%
%TF.ProjectId,CleanLVSupply,436c6561-6e4c-4565-9375-70706c792e6b,rev?*%
%TF.SameCoordinates,Original*%
%TF.FileFunction,Paste,Top*%
%TF.FilePolarity,Positive*%
%FSLAX46Y46*%
G04 Gerber Fmt 4.6, Leading zero omitted, Abs format (unit mm)*
G04 Created by KiCad (PCBNEW 8.0.3) date 2024-07-14 14:44:16*
%MOMM*%
%LPD*%
G01*
G04 APERTURE LIST*
G04 Aperture macros list*
%AMRoundRect*
0 Rectangle with rounded corners*
0 $1 Rounding radius*
0 $2 $3 $4 $5 $6 $7 $8 $9 X,Y pos of 4 corners*
0 Add a 4 corners polygon primitive as box body*
4,1,4,$2,$3,$4,$5,$6,$7,$8,$9,$2,$3,0*
0 Add four circle primitives for the rounded corners*
1,1,$1+$1,$2,$3*
1,1,$1+$1,$4,$5*
1,1,$1+$1,$6,$7*
1,1,$1+$1,$8,$9*
0 Add four rect primitives between the rounded corners*
20,1,$1+$1,$2,$3,$4,$5,0*
20,1,$1+$1,$4,$5,$6,$7,0*
20,1,$1+$1,$6,$7,$8,$9,0*
20,1,$1+$1,$8,$9,$2,$3,0*%
%AMFreePoly0*
4,1,45,1.289454,2.598348,1.362356,2.568151,1.418152,2.512354,1.448348,2.439452,1.450000,2.399998,1.450000,1.899998,1.322087,1.829913,1.084748,1.660379,0.872545,1.460277,0.689384,1.233290,0.538637,0.983598,0.423079,0.715797,0.344837,0.434817,0.305353,0.145833,0.305353,-0.145837,0.344837,-0.434821,0.423079,-0.715801,0.538637,-0.983602,0.689384,-1.233294,0.872545,-1.460281,
1.084748,-1.660383,1.322087,-1.829917,1.450000,-1.900002,1.450000,-2.400002,1.448080,-2.439402,1.417924,-2.512205,1.362203,-2.567925,1.289400,-2.598080,1.250000,-2.600002,-0.050000,-2.600002,-0.050102,-2.599997,-0.125000,-2.599997,-0.172835,-2.590482,-0.213388,-2.563385,-0.240485,-2.522832,-0.250000,-2.474997,-0.250000,2.474997,-0.240485,2.522832,-0.213388,2.563385,-0.172835,2.590482,
-0.125000,2.599997,-0.050020,2.599997,-0.050000,2.599998,1.250000,2.599998,1.289454,2.598348,1.289454,2.598348,$1*%
G04 Aperture macros list end*
%ADD10RoundRect,0.250000X-0.325000X-0.650000X0.325000X-0.650000X0.325000X0.650000X-0.325000X0.650000X0*%
%ADD11RoundRect,0.400000X-0.400000X-0.700000X0.400000X-0.700000X0.400000X0.700000X-0.400000X0.700000X0*%
%ADD12RoundRect,0.200000X-0.275000X0.200000X-0.275000X-0.200000X0.275000X-0.200000X0.275000X0.200000X0*%
%ADD13RoundRect,0.150000X-0.150000X0.512500X-0.150000X-0.512500X0.150000X-0.512500X0.150000X0.512500X0*%
%ADD14RoundRect,0.250000X0.250000X0.475000X-0.250000X0.475000X-0.250000X-0.475000X0.250000X-0.475000X0*%
%ADD15RoundRect,0.250000X-0.550000X1.500000X-0.550000X-1.500000X0.550000X-1.500000X0.550000X1.500000X0*%
%ADD16FreePoly0,90.000000*%
%ADD17FreePoly0,270.000000*%
%ADD18RoundRect,0.125000X-0.525000X0.125000X-0.525000X-0.125000X0.525000X-0.125000X0.525000X0.125000X0*%
%ADD19RoundRect,0.350000X-0.600000X0.350000X-0.600000X-0.350000X0.600000X-0.350000X0.600000X0.350000X0*%
%ADD20RoundRect,0.225000X-0.250000X0.225000X-0.250000X-0.225000X0.250000X-0.225000X0.250000X0.225000X0*%
%ADD21RoundRect,0.125000X0.125000X0.525000X-0.125000X0.525000X-0.125000X-0.525000X0.125000X-0.525000X0*%
%ADD22RoundRect,0.350000X0.350000X0.600000X-0.350000X0.600000X-0.350000X-0.600000X0.350000X-0.600000X0*%
%ADD23RoundRect,0.180000X-0.720000X-2.670000X0.720000X-2.670000X0.720000X2.670000X-0.720000X2.670000X0*%
%ADD24RoundRect,0.200000X-0.200000X-0.275000X0.200000X-0.275000X0.200000X0.275000X-0.200000X0.275000X0*%
%ADD25RoundRect,0.225000X0.225000X0.250000X-0.225000X0.250000X-0.225000X-0.250000X0.225000X-0.250000X0*%
%ADD26RoundRect,0.225000X-0.225000X-0.250000X0.225000X-0.250000X0.225000X0.250000X-0.225000X0.250000X0*%
%ADD27RoundRect,0.250000X0.325000X0.650000X-0.325000X0.650000X-0.325000X-0.650000X0.325000X-0.650000X0*%
%ADD28RoundRect,0.250001X-0.554999X0.899999X-0.554999X-0.899999X0.554999X-0.899999X0.554999X0.899999X0*%
%ADD29RoundRect,0.100000X-0.100000X0.637500X-0.100000X-0.637500X0.100000X-0.637500X0.100000X0.637500X0*%
%ADD30RoundRect,0.150000X0.512500X0.150000X-0.512500X0.150000X-0.512500X-0.150000X0.512500X-0.150000X0*%
%ADD31RoundRect,0.250000X-0.262500X-0.450000X0.262500X-0.450000X0.262500X0.450000X-0.262500X0.450000X0*%
%ADD32RoundRect,0.225000X0.250000X-0.225000X0.250000X0.225000X-0.250000X0.225000X-0.250000X-0.225000X0*%
%ADD33RoundRect,0.793750X1.706250X-0.793750X1.706250X0.793750X-1.706250X0.793750X-1.706250X-0.793750X0*%
%ADD34RoundRect,0.250000X0.400000X0.450000X-0.400000X0.450000X-0.400000X-0.450000X0.400000X-0.450000X0*%
%ADD35RoundRect,0.250000X-0.450000X0.262500X-0.450000X-0.262500X0.450000X-0.262500X0.450000X0.262500X0*%
%ADD36RoundRect,0.250000X0.650000X-0.325000X0.650000X0.325000X-0.650000X0.325000X-0.650000X-0.325000X0*%
%ADD37RoundRect,0.200000X0.200000X0.275000X-0.200000X0.275000X-0.200000X-0.275000X0.200000X-0.275000X0*%
%ADD38RoundRect,0.200000X0.275000X-0.200000X0.275000X0.200000X-0.275000X0.200000X-0.275000X-0.200000X0*%
%ADD39RoundRect,0.250000X-0.450000X0.400000X-0.450000X-0.400000X0.450000X-0.400000X0.450000X0.400000X0*%
G04 APERTURE END LIST*
D10*
%TO.C,C21*%
X132487500Y-96400000D03*
X135437500Y-96400000D03*
%TD*%
D11*
%TO.C,L6*%
X143400000Y-110000000D03*
X149400000Y-110000000D03*
%TD*%
D12*
%TO.C,R9*%
X140362500Y-96575000D03*
X140362500Y-98225000D03*
%TD*%
D11*
%TO.C,L4*%
X142562500Y-99700000D03*
X148562500Y-99700000D03*
%TD*%
D13*
%TO.C,U5*%
X140250000Y-116497500D03*
X139300000Y-116497500D03*
X138350000Y-116497500D03*
X138350000Y-118772500D03*
X139300000Y-118772500D03*
X140250000Y-118772500D03*
%TD*%
D14*
%TO.C,C5*%
X135650000Y-83500000D03*
X133750000Y-83500000D03*
%TD*%
D15*
%TO.C,C7*%
X155400000Y-82100000D03*
X155400000Y-87500000D03*
%TD*%
D16*
%TO.C,L5*%
X145500000Y-119285000D03*
D17*
X145500000Y-114385000D03*
%TD*%
D18*
%TO.C,J3*%
X155300000Y-117300000D03*
X155300000Y-116500000D03*
D19*
X153700000Y-115100000D03*
X153700000Y-118700000D03*
%TD*%
D20*
%TO.C,C31*%
X141800000Y-116960000D03*
X141800000Y-118510000D03*
%TD*%
%TO.C,C2*%
X138800000Y-93125000D03*
X138800000Y-94675000D03*
%TD*%
D21*
%TO.C,J1*%
X132800000Y-113400000D03*
X133600000Y-113400000D03*
D22*
X135000000Y-111800000D03*
X131400000Y-111800000D03*
%TD*%
D10*
%TO.C,C3*%
X137325000Y-81700000D03*
X140275000Y-81700000D03*
%TD*%
D23*
%TO.C,L3*%
X133500000Y-106400000D03*
X138100000Y-106400000D03*
%TD*%
D24*
%TO.C,R13*%
X137175000Y-114735000D03*
X138825000Y-114735000D03*
%TD*%
D25*
%TO.C,C23*%
X139737500Y-102300000D03*
X138187500Y-102300000D03*
%TD*%
D18*
%TO.C,J2*%
X159000000Y-117300000D03*
X159000000Y-116500000D03*
D19*
X157400000Y-115100000D03*
X157400000Y-118700000D03*
%TD*%
D11*
%TO.C,L2*%
X151300000Y-93457500D03*
X157300000Y-93457500D03*
%TD*%
D18*
%TO.C,J6*%
X161000000Y-99600000D03*
X161000000Y-98800000D03*
X161000000Y-98000000D03*
X161000000Y-97200000D03*
D19*
X159400000Y-95800000D03*
X159400000Y-101000000D03*
%TD*%
D26*
%TO.C,C4*%
X137225000Y-83700000D03*
X138775000Y-83700000D03*
%TD*%
D27*
%TO.C,C24*%
X140537500Y-100300000D03*
X137587500Y-100300000D03*
%TD*%
D20*
%TO.C,C6*%
X151000000Y-85125000D03*
X151000000Y-86675000D03*
%TD*%
D28*
%TO.C,U1*%
X136900000Y-88437500D03*
X134900000Y-88437500D03*
D29*
X138825000Y-85575000D03*
X138175000Y-85575000D03*
X137525000Y-85575000D03*
X136875000Y-85575000D03*
X136225000Y-85575000D03*
X135575000Y-85575000D03*
X134925000Y-85575000D03*
X134275000Y-85575000D03*
X133625000Y-85575000D03*
X132975000Y-85575000D03*
X132975000Y-91300000D03*
X133625000Y-91300000D03*
X134275000Y-91300000D03*
X134925000Y-91300000D03*
X135575000Y-91300000D03*
X136225000Y-91300000D03*
X136875000Y-91300000D03*
X137525000Y-91300000D03*
X138175000Y-91300000D03*
X138825000Y-91300000D03*
%TD*%
D30*
%TO.C,U3*%
X135700000Y-101900000D03*
X135700000Y-100950000D03*
X135700000Y-100000000D03*
X133425000Y-100000000D03*
X133425000Y-101900000D03*
%TD*%
D31*
%TO.C,R14*%
X151387500Y-106800000D03*
X153212500Y-106800000D03*
%TD*%
D32*
%TO.C,C33*%
X136800000Y-119010000D03*
X136800000Y-117460000D03*
%TD*%
D18*
%TO.C,J5*%
X168900000Y-99600000D03*
X168900000Y-98800000D03*
X168900000Y-98000000D03*
X168900000Y-97200000D03*
D19*
X167300000Y-95800000D03*
X167300000Y-101000000D03*
%TD*%
D33*
%TO.C,L1*%
X144900000Y-93708500D03*
X144900000Y-84691500D03*
%TD*%
D34*
%TO.C,D1*%
X137050000Y-93600000D03*
X134150000Y-93600000D03*
%TD*%
D35*
%TO.C,R7*%
X160000000Y-86587500D03*
X160000000Y-88412500D03*
%TD*%
D25*
%TO.C,C34*%
X141875000Y-114735000D03*
X140325000Y-114735000D03*
%TD*%
D36*
%TO.C,C32*%
X134900000Y-118875000D03*
X134900000Y-115925000D03*
%TD*%
D37*
%TO.C,R12*%
X138225000Y-113135000D03*
X136575000Y-113135000D03*
%TD*%
D14*
%TO.C,C36*%
X141650000Y-110935000D03*
X139750000Y-110935000D03*
%TD*%
D38*
%TO.C,R11*%
X137162500Y-98225000D03*
X137162500Y-96575000D03*
%TD*%
D14*
%TO.C,C35*%
X141650000Y-112935000D03*
X139750000Y-112935000D03*
%TD*%
D39*
%TO.C,D2*%
X140462500Y-104050000D03*
X140462500Y-106950000D03*
%TD*%
D26*
%TO.C,C22*%
X133187500Y-98400000D03*
X134737500Y-98400000D03*
%TD*%
D20*
%TO.C,C10*%
X131600000Y-85025000D03*
X131600000Y-86575000D03*
%TD*%
D31*
%TO.C,R10*%
X148400000Y-104700000D03*
X150225000Y-104700000D03*
%TD*%
D18*
%TO.C,J4*%
X151600000Y-117300000D03*
X151600000Y-116500000D03*
D19*
X150000000Y-115100000D03*
X150000000Y-118700000D03*
%TD*%
D20*
%TO.C,C20*%
X138762500Y-96625000D03*
X138762500Y-98175000D03*
%TD*%
M02*
