M48
; DRILL file {KiCad 8.0.3} date 2024-07-13T01:06:02+0200
; FORMAT={-:-/ absolute / inch / decimal}
; #@! TF.CreationDate,2024-07-13T01:06:02+02:00
; #@! TF.GenerationSoftware,Kicad,Pcbnew,8.0.3
; #@! TF.FileFunction,Plated,1,4,PTH
FMAT,2
INCH
; #@! TA.AperFunction,Plated,PTH,ViaDrill
T1C0.0118
; #@! TA.AperFunction,Plated,PTH,ComponentDrill
T2C0.0315
%
G90
G05
T1
X5.1874Y-3.4606
X5.1878Y-3.4079
X5.1882Y-4.4567
X5.1891Y-4.4798
X5.1969Y-3.3622
X5.2031Y-4.0504
X5.2047Y-3.7717
X5.2047Y-3.8071
X5.2087Y-4.4921
X5.2096Y-4.4664
X5.2244Y-3.5276
X5.2244Y-3.5896
X5.2283Y-3.7913
X5.2283Y-3.8268
X5.2283Y-4.3819
X5.2283Y-4.4142
X5.2295Y-4.4539
X5.2295Y-4.4799
X5.2587Y-4.3819
X5.2591Y-4.4138
X5.2598Y-3.5827
X5.2598Y-3.6063
X5.2642Y-3.3016
X5.2835Y-3.4803
X5.2835Y-3.5236
X5.2854Y-3.4402
X5.2874Y-3.3622
X5.2874Y-4.6693
X5.2913Y-4.563
X5.2992Y-3.5906
X5.3031Y-3.874
X5.3071Y-4.6929
X5.311Y-3.378
X5.3268Y-3.437
X5.3268Y-3.4803
X5.3268Y-3.5236
X5.3268Y-4.563
X5.3268Y-4.6693
X5.3307Y-3.7795
X5.3307Y-3.811
X5.3378Y-4.1098
X5.3386Y-3.3622
X5.3417Y-3.7047
X5.3425Y-3.9764
X5.3453Y-4.2535
X5.3465Y-4.6929
X5.374Y-3.437
X5.374Y-3.4803
X5.374Y-3.5236
X5.3858Y-4.626
X5.3976Y-3.1969
X5.3976Y-3.2362
X5.4035Y-4.3543
X5.4094Y-4.4606
X5.4134Y-3.2598
X5.4173Y-3.2165
X5.4173Y-3.437
X5.4173Y-3.4803
X5.4173Y-3.5236
X5.4173Y-3.9331
X5.4173Y-3.9646
X5.4299Y-4.4894
X5.4409Y-4.0276
X5.4646Y-3.3671
X5.4646Y-3.4291
X5.4685Y-4.4843
X5.4843Y-4.5866
X5.5Y-4.3504
X5.5Y-4.3819
X5.5Y-4.4331
X5.5Y-4.4606
X5.5039Y-3.2953
X5.5236Y-3.2165
X5.5236Y-4.5157
X5.563Y-3.3465
X5.5673Y-3.8705
X5.6142Y-3.2165
X5.6488Y-4.6016
X5.6575Y-3.311
X5.6575Y-3.3622
X5.6965Y-3.8413
X5.7087Y-3.2165
X5.7142Y-4.0283
X5.7244Y-4.5669
X5.748Y-3.311
X5.748Y-3.3622
X5.75Y-4.2362
X5.7547Y-4.1366
X5.7744Y-3.9193
X5.7776Y-4.4429
X5.7839Y-4.6075
X5.7992Y-4.3331
X5.8071Y-3.2165
X5.8583Y-3.3307
X5.8661Y-4.3071
X5.8661Y-4.3543
X5.8819Y-4.3307
X5.8898Y-3.4283
X5.8976Y-4.3071
X5.8976Y-4.3543
X5.9055Y-3.2559
X5.9303Y-4.4315
X5.9449Y-3.3514
X5.9449Y-3.4134
X5.9634Y-3.4622
X5.9961Y-3.2126
X6.0236Y-3.2874
X6.0319Y-3.7874
X6.0516Y-3.4299
X6.052Y-3.4677
X6.0528Y-3.513
X6.0535Y-3.3898
X6.1055Y-4.5154
X6.1055Y-4.5437
X6.1059Y-3.7063
X6.1063Y-4.1256
X6.1181Y-3.2008
X6.1181Y-3.2677
X6.1181Y-3.4094
X6.1181Y-3.4488
X6.1181Y-3.4882
X6.1181Y-4.0236
X6.1181Y-4.0472
X6.1236Y-4.5295
X6.1378Y-4.0354
X6.1417Y-4.5157
X6.1425Y-4.5433
X6.1465Y-3.6075
X6.1465Y-3.6322
X6.1469Y-3.576
X6.1575Y-4.0236
X6.1575Y-4.0472
X6.1693Y-3.6191
X6.1693Y-3.7402
X6.1921Y-3.6311
X6.1929Y-3.3248
X6.1929Y-3.6063
X6.2047Y-4.1457
X6.2047Y-4.1929
X6.2047Y-4.2402
X6.252Y-4.1457
X6.252Y-4.1929
X6.252Y-4.2402
X6.2528Y-3.1882
X6.2835Y-3.5197
X6.2835Y-3.5433
X6.2992Y-4.1457
X6.2992Y-4.1929
X6.2992Y-4.2402
X6.3071Y-3.5315
X6.315Y-4.5079
X6.3307Y-3.5197
X6.3307Y-3.5433
X6.3307Y-4.437
X6.4252Y-3.5
T2
X5.9864Y-4.3543
X6.0472Y-3.9324
X6.0472Y-4.0308
X6.0652Y-4.3543
X6.3851Y-3.2874
X6.4173Y-3.5866
X6.4273Y-4.1654
X6.4724Y-4.4351
X6.4724Y-4.5729
X6.4836Y-3.2874
X6.5551Y-3.5866
X6.5651Y-4.1654
M30
