%TF.GenerationSoftware,KiCad,Pcbnew,8.0.3*%
%TF.CreationDate,2024-07-17T18:17:56+02:00*%
%TF.ProjectId,CleanLVSupply,436c6561-6e4c-4565-9375-70706c792e6b,rev?*%
%TF.SameCoordinates,Original*%
%TF.FileFunction,Paste,Bot*%
%TF.FilePolarity,Positive*%
%FSLAX46Y46*%
G04 Gerber Fmt 4.6, Leading zero omitted, Abs format (unit mm)*
G04 Created by KiCad (PCBNEW 8.0.3) date 2024-07-17 18:17:56*
%MOMM*%
%LPD*%
G01*
G04 APERTURE LIST*
G04 Aperture macros list*
%AMRoundRect*
0 Rectangle with rounded corners*
0 $1 Rounding radius*
0 $2 $3 $4 $5 $6 $7 $8 $9 X,Y pos of 4 corners*
0 Add a 4 corners polygon primitive as box body*
4,1,4,$2,$3,$4,$5,$6,$7,$8,$9,$2,$3,0*
0 Add four circle primitives for the rounded corners*
1,1,$1+$1,$2,$3*
1,1,$1+$1,$4,$5*
1,1,$1+$1,$6,$7*
1,1,$1+$1,$8,$9*
0 Add four rect primitives between the rounded corners*
20,1,$1+$1,$2,$3,$4,$5,0*
20,1,$1+$1,$4,$5,$6,$7,0*
20,1,$1+$1,$6,$7,$8,$9,0*
20,1,$1+$1,$8,$9,$2,$3,0*%
G04 Aperture macros list end*
%ADD10RoundRect,0.218750X0.256250X-0.218750X0.256250X0.218750X-0.256250X0.218750X-0.256250X-0.218750X0*%
%ADD11RoundRect,0.218750X-0.256250X0.218750X-0.256250X-0.218750X0.256250X-0.218750X0.256250X0.218750X0*%
%ADD12RoundRect,0.200000X-0.200000X-0.275000X0.200000X-0.275000X0.200000X0.275000X-0.200000X0.275000X0*%
%ADD13RoundRect,0.200000X-0.275000X0.200000X-0.275000X-0.200000X0.275000X-0.200000X0.275000X0.200000X0*%
%ADD14RoundRect,0.225000X0.250000X-0.225000X0.250000X0.225000X-0.250000X0.225000X-0.250000X-0.225000X0*%
%ADD15RoundRect,0.225000X0.225000X0.250000X-0.225000X0.250000X-0.225000X-0.250000X0.225000X-0.250000X0*%
%ADD16RoundRect,0.200000X0.275000X-0.200000X0.275000X0.200000X-0.275000X0.200000X-0.275000X-0.200000X0*%
%ADD17RoundRect,0.250000X0.650000X-0.325000X0.650000X0.325000X-0.650000X0.325000X-0.650000X-0.325000X0*%
%ADD18RoundRect,0.250000X0.385000X0.385000X-0.385000X0.385000X-0.385000X-0.385000X0.385000X-0.385000X0*%
%ADD19RoundRect,0.087500X0.425000X0.087500X-0.425000X0.087500X-0.425000X-0.087500X0.425000X-0.087500X0*%
%ADD20RoundRect,0.087500X0.087500X0.425000X-0.087500X0.425000X-0.087500X-0.425000X0.087500X-0.425000X0*%
%ADD21RoundRect,0.250000X-0.250000X-0.475000X0.250000X-0.475000X0.250000X0.475000X-0.250000X0.475000X0*%
%ADD22RoundRect,0.157500X-0.222500X0.157500X-0.222500X-0.157500X0.222500X-0.157500X0.222500X0.157500X0*%
%ADD23RoundRect,0.125000X-0.125000X0.600000X-0.125000X-0.600000X0.125000X-0.600000X0.125000X0.600000X0*%
%ADD24RoundRect,0.250000X2.450000X-0.650000X2.450000X0.650000X-2.450000X0.650000X-2.450000X-0.650000X0*%
%ADD25RoundRect,0.200000X0.200000X0.275000X-0.200000X0.275000X-0.200000X-0.275000X0.200000X-0.275000X0*%
%ADD26RoundRect,0.225000X-0.250000X0.225000X-0.250000X-0.225000X0.250000X-0.225000X0.250000X0.225000X0*%
%ADD27RoundRect,0.250000X-1.500000X-0.550000X1.500000X-0.550000X1.500000X0.550000X-1.500000X0.550000X0*%
%ADD28RoundRect,0.225000X-0.225000X-0.250000X0.225000X-0.250000X0.225000X0.250000X-0.225000X0.250000X0*%
%ADD29RoundRect,0.250000X0.385000X-0.385000X0.385000X0.385000X-0.385000X0.385000X-0.385000X-0.385000X0*%
%ADD30RoundRect,0.087500X0.087500X-0.425000X0.087500X0.425000X-0.087500X0.425000X-0.087500X-0.425000X0*%
%ADD31RoundRect,0.087500X0.425000X-0.087500X0.425000X0.087500X-0.425000X0.087500X-0.425000X-0.087500X0*%
%ADD32RoundRect,0.250000X-0.325000X-1.100000X0.325000X-1.100000X0.325000X1.100000X-0.325000X1.100000X0*%
%ADD33RoundRect,0.250000X-0.475000X0.250000X-0.475000X-0.250000X0.475000X-0.250000X0.475000X0.250000X0*%
G04 APERTURE END LIST*
D10*
%TO.C,F3*%
X168700000Y-91587500D03*
X168700000Y-90012500D03*
%TD*%
D11*
%TO.C,F2*%
X168700000Y-105012500D03*
X168700000Y-106587500D03*
%TD*%
%TO.C,F1*%
X166200000Y-116012500D03*
X166200000Y-117587500D03*
%TD*%
D12*
%TO.C,R1*%
X131175000Y-87900000D03*
X132825000Y-87900000D03*
%TD*%
D13*
%TO.C,R5*%
X134700000Y-86275000D03*
X134700000Y-87925000D03*
%TD*%
D14*
%TO.C,C11*%
X132700000Y-91175000D03*
X132700000Y-89625000D03*
%TD*%
D15*
%TO.C,C42*%
X156575000Y-112200000D03*
X155025000Y-112200000D03*
%TD*%
D16*
%TO.C,R6*%
X157600000Y-88625000D03*
X157600000Y-86975000D03*
%TD*%
D17*
%TO.C,C15*%
X156700000Y-94875000D03*
X156700000Y-91925000D03*
%TD*%
D18*
%TO.C,U4*%
X159590000Y-107290000D03*
X159590000Y-105710000D03*
X158010000Y-107290000D03*
X158010000Y-105710000D03*
D19*
X161162500Y-105200000D03*
X161162500Y-105850000D03*
X161162500Y-106500000D03*
X161162500Y-107150000D03*
X161162500Y-107800000D03*
D20*
X160100000Y-108862500D03*
X159450000Y-108862500D03*
X158800000Y-108862500D03*
X158150000Y-108862500D03*
X157500000Y-108862500D03*
D19*
X156437500Y-107800000D03*
X156437500Y-107150000D03*
X156437500Y-106500000D03*
X156437500Y-105850000D03*
X156437500Y-105200000D03*
D20*
X157500000Y-104137500D03*
X158150000Y-104137500D03*
X158800000Y-104137500D03*
X159450000Y-104137500D03*
X160100000Y-104137500D03*
%TD*%
D21*
%TO.C,C37*%
X158950000Y-112800000D03*
X160850000Y-112800000D03*
%TD*%
D22*
%TO.C,U2*%
X160670000Y-89110000D03*
X159730000Y-89110000D03*
X160670000Y-89890000D03*
X159730000Y-89890000D03*
D23*
X159225000Y-87350000D03*
X159875000Y-87350000D03*
X160525000Y-87350000D03*
X161175000Y-87350000D03*
X161175000Y-91650000D03*
X160525000Y-91650000D03*
X159875000Y-91650000D03*
X159225000Y-91650000D03*
%TD*%
D14*
%TO.C,C26*%
X158000000Y-102575000D03*
X158000000Y-101025000D03*
%TD*%
D12*
%TO.C,R2*%
X131275000Y-84700000D03*
X132925000Y-84700000D03*
%TD*%
D24*
%TO.C,C27*%
X162100000Y-102150000D03*
X162100000Y-97050000D03*
%TD*%
D25*
%TO.C,R4*%
X132925000Y-86300000D03*
X131275000Y-86300000D03*
%TD*%
D13*
%TO.C,R3*%
X134600000Y-81275000D03*
X134600000Y-82925000D03*
%TD*%
D26*
%TO.C,C9*%
X138800000Y-85525000D03*
X138800000Y-87075000D03*
%TD*%
D17*
%TO.C,C17*%
X163200000Y-88900000D03*
X163200000Y-85950000D03*
%TD*%
D27*
%TO.C,C1*%
X133200000Y-113600000D03*
X138600000Y-113600000D03*
%TD*%
D28*
%TO.C,C38*%
X158925000Y-114600000D03*
X160475000Y-114600000D03*
%TD*%
D12*
%TO.C,R8*%
X158475000Y-83900000D03*
X160125000Y-83900000D03*
%TD*%
D14*
%TO.C,C13*%
X160300000Y-94975000D03*
X160300000Y-93425000D03*
%TD*%
%TO.C,C16*%
X158700000Y-94975000D03*
X158700000Y-93425000D03*
%TD*%
D29*
%TO.C,U6*%
X154210000Y-116890000D03*
X155790000Y-116890000D03*
X154210000Y-115310000D03*
X155790000Y-115310000D03*
D30*
X156300000Y-118462500D03*
X155650000Y-118462500D03*
X155000000Y-118462500D03*
X154350000Y-118462500D03*
X153700000Y-118462500D03*
D31*
X152637500Y-117400000D03*
X152637500Y-116750000D03*
X152637500Y-116100000D03*
X152637500Y-115450000D03*
X152637500Y-114800000D03*
D30*
X153700000Y-113737500D03*
X154350000Y-113737500D03*
X155000000Y-113737500D03*
X155650000Y-113737500D03*
X156300000Y-113737500D03*
D31*
X157362500Y-114800000D03*
X157362500Y-115450000D03*
X157362500Y-116100000D03*
X157362500Y-116750000D03*
X157362500Y-117400000D03*
%TD*%
D28*
%TO.C,C12*%
X134625000Y-84400000D03*
X136175000Y-84400000D03*
%TD*%
D14*
%TO.C,C8*%
X136200000Y-82875000D03*
X136200000Y-81325000D03*
%TD*%
D28*
%TO.C,C19*%
X158525000Y-85500000D03*
X160075000Y-85500000D03*
%TD*%
D32*
%TO.C,C39*%
X159025000Y-117700000D03*
X161975000Y-117700000D03*
%TD*%
D17*
%TO.C,C25*%
X155900000Y-102475000D03*
X155900000Y-99525000D03*
%TD*%
D33*
%TO.C,C30*%
X154500000Y-105850000D03*
X154500000Y-107750000D03*
%TD*%
M02*
