%TF.GenerationSoftware,KiCad,Pcbnew,8.0.3*%
%TF.CreationDate,2024-07-17T18:17:56+02:00*%
%TF.ProjectId,CleanLVSupply,436c6561-6e4c-4565-9375-70706c792e6b,rev?*%
%TF.SameCoordinates,Original*%
%TF.FileFunction,Copper,L1,Top*%
%TF.FilePolarity,Positive*%
%FSLAX46Y46*%
G04 Gerber Fmt 4.6, Leading zero omitted, Abs format (unit mm)*
G04 Created by KiCad (PCBNEW 8.0.3) date 2024-07-17 18:17:56*
%MOMM*%
%LPD*%
G01*
G04 APERTURE LIST*
G04 Aperture macros list*
%AMRoundRect*
0 Rectangle with rounded corners*
0 $1 Rounding radius*
0 $2 $3 $4 $5 $6 $7 $8 $9 X,Y pos of 4 corners*
0 Add a 4 corners polygon primitive as box body*
4,1,4,$2,$3,$4,$5,$6,$7,$8,$9,$2,$3,0*
0 Add four circle primitives for the rounded corners*
1,1,$1+$1,$2,$3*
1,1,$1+$1,$4,$5*
1,1,$1+$1,$6,$7*
1,1,$1+$1,$8,$9*
0 Add four rect primitives between the rounded corners*
20,1,$1+$1,$2,$3,$4,$5,0*
20,1,$1+$1,$4,$5,$6,$7,0*
20,1,$1+$1,$6,$7,$8,$9,0*
20,1,$1+$1,$8,$9,$2,$3,0*%
%AMFreePoly0*
4,1,45,1.289454,2.598348,1.362356,2.568151,1.418152,2.512354,1.448348,2.439452,1.450000,2.399998,1.450000,1.899998,1.322087,1.829913,1.084748,1.660379,0.872545,1.460277,0.689384,1.233290,0.538637,0.983598,0.423079,0.715797,0.344837,0.434817,0.305353,0.145833,0.305353,-0.145837,0.344837,-0.434821,0.423079,-0.715801,0.538637,-0.983602,0.689384,-1.233294,0.872545,-1.460281,
1.084748,-1.660383,1.322087,-1.829917,1.450000,-1.900002,1.450000,-2.400002,1.448080,-2.439402,1.417924,-2.512205,1.362203,-2.567925,1.289400,-2.598080,1.250000,-2.600002,-0.050000,-2.600002,-0.050102,-2.599997,-0.125000,-2.599997,-0.172835,-2.590482,-0.213388,-2.563385,-0.240485,-2.522832,-0.250000,-2.474997,-0.250000,2.474997,-0.240485,2.522832,-0.213388,2.563385,-0.172835,2.590482,
-0.125000,2.599997,-0.050020,2.599997,-0.050000,2.599998,1.250000,2.599998,1.289454,2.598348,1.289454,2.598348,$1*%
G04 Aperture macros list end*
%TA.AperFunction,SMDPad,CuDef*%
%ADD10RoundRect,0.250000X-0.325000X-0.650000X0.325000X-0.650000X0.325000X0.650000X-0.325000X0.650000X0*%
%TD*%
%TA.AperFunction,SMDPad,CuDef*%
%ADD11RoundRect,0.400000X-0.400000X-0.700000X0.400000X-0.700000X0.400000X0.700000X-0.400000X0.700000X0*%
%TD*%
%TA.AperFunction,SMDPad,CuDef*%
%ADD12RoundRect,0.200000X-0.275000X0.200000X-0.275000X-0.200000X0.275000X-0.200000X0.275000X0.200000X0*%
%TD*%
%TA.AperFunction,SMDPad,CuDef*%
%ADD13RoundRect,0.150000X-0.150000X0.512500X-0.150000X-0.512500X0.150000X-0.512500X0.150000X0.512500X0*%
%TD*%
%TA.AperFunction,SMDPad,CuDef*%
%ADD14RoundRect,0.250000X0.250000X0.475000X-0.250000X0.475000X-0.250000X-0.475000X0.250000X-0.475000X0*%
%TD*%
%TA.AperFunction,SMDPad,CuDef*%
%ADD15RoundRect,0.250000X-0.550000X1.500000X-0.550000X-1.500000X0.550000X-1.500000X0.550000X1.500000X0*%
%TD*%
%TA.AperFunction,SMDPad,CuDef*%
%ADD16FreePoly0,90.000000*%
%TD*%
%TA.AperFunction,SMDPad,CuDef*%
%ADD17FreePoly0,270.000000*%
%TD*%
%TA.AperFunction,SMDPad,CuDef*%
%ADD18RoundRect,0.125000X-0.525000X0.125000X-0.525000X-0.125000X0.525000X-0.125000X0.525000X0.125000X0*%
%TD*%
%TA.AperFunction,SMDPad,CuDef*%
%ADD19RoundRect,0.350000X-0.600000X0.350000X-0.600000X-0.350000X0.600000X-0.350000X0.600000X0.350000X0*%
%TD*%
%TA.AperFunction,SMDPad,CuDef*%
%ADD20RoundRect,0.225000X-0.250000X0.225000X-0.250000X-0.225000X0.250000X-0.225000X0.250000X0.225000X0*%
%TD*%
%TA.AperFunction,SMDPad,CuDef*%
%ADD21RoundRect,0.125000X0.125000X0.525000X-0.125000X0.525000X-0.125000X-0.525000X0.125000X-0.525000X0*%
%TD*%
%TA.AperFunction,SMDPad,CuDef*%
%ADD22RoundRect,0.350000X0.350000X0.600000X-0.350000X0.600000X-0.350000X-0.600000X0.350000X-0.600000X0*%
%TD*%
%TA.AperFunction,SMDPad,CuDef*%
%ADD23RoundRect,0.180000X-0.720000X-2.670000X0.720000X-2.670000X0.720000X2.670000X-0.720000X2.670000X0*%
%TD*%
%TA.AperFunction,SMDPad,CuDef*%
%ADD24RoundRect,0.200000X-0.200000X-0.275000X0.200000X-0.275000X0.200000X0.275000X-0.200000X0.275000X0*%
%TD*%
%TA.AperFunction,SMDPad,CuDef*%
%ADD25RoundRect,0.225000X0.225000X0.250000X-0.225000X0.250000X-0.225000X-0.250000X0.225000X-0.250000X0*%
%TD*%
%TA.AperFunction,SMDPad,CuDef*%
%ADD26RoundRect,0.225000X-0.225000X-0.250000X0.225000X-0.250000X0.225000X0.250000X-0.225000X0.250000X0*%
%TD*%
%TA.AperFunction,SMDPad,CuDef*%
%ADD27RoundRect,0.250000X0.325000X0.650000X-0.325000X0.650000X-0.325000X-0.650000X0.325000X-0.650000X0*%
%TD*%
%TA.AperFunction,SMDPad,CuDef*%
%ADD28RoundRect,0.100000X-0.100000X0.637500X-0.100000X-0.637500X0.100000X-0.637500X0.100000X0.637500X0*%
%TD*%
%TA.AperFunction,HeatsinkPad*%
%ADD29R,4.000000X2.850000*%
%TD*%
%TA.AperFunction,SMDPad,CuDef*%
%ADD30RoundRect,0.150000X0.512500X0.150000X-0.512500X0.150000X-0.512500X-0.150000X0.512500X-0.150000X0*%
%TD*%
%TA.AperFunction,SMDPad,CuDef*%
%ADD31RoundRect,0.250000X-0.262500X-0.450000X0.262500X-0.450000X0.262500X0.450000X-0.262500X0.450000X0*%
%TD*%
%TA.AperFunction,SMDPad,CuDef*%
%ADD32RoundRect,0.225000X0.250000X-0.225000X0.250000X0.225000X-0.250000X0.225000X-0.250000X-0.225000X0*%
%TD*%
%TA.AperFunction,ComponentPad*%
%ADD33R,1.600000X1.600000*%
%TD*%
%TA.AperFunction,ComponentPad*%
%ADD34C,1.600000*%
%TD*%
%TA.AperFunction,SMDPad,CuDef*%
%ADD35RoundRect,0.793750X1.706250X-0.793750X1.706250X0.793750X-1.706250X0.793750X-1.706250X-0.793750X0*%
%TD*%
%TA.AperFunction,SMDPad,CuDef*%
%ADD36RoundRect,0.250000X0.400000X0.450000X-0.400000X0.450000X-0.400000X-0.450000X0.400000X-0.450000X0*%
%TD*%
%TA.AperFunction,SMDPad,CuDef*%
%ADD37RoundRect,0.250000X-0.450000X0.262500X-0.450000X-0.262500X0.450000X-0.262500X0.450000X0.262500X0*%
%TD*%
%TA.AperFunction,SMDPad,CuDef*%
%ADD38RoundRect,0.250000X0.650000X-0.325000X0.650000X0.325000X-0.650000X0.325000X-0.650000X-0.325000X0*%
%TD*%
%TA.AperFunction,SMDPad,CuDef*%
%ADD39RoundRect,0.200000X0.200000X0.275000X-0.200000X0.275000X-0.200000X-0.275000X0.200000X-0.275000X0*%
%TD*%
%TA.AperFunction,SMDPad,CuDef*%
%ADD40RoundRect,0.200000X0.275000X-0.200000X0.275000X0.200000X-0.275000X0.200000X-0.275000X-0.200000X0*%
%TD*%
%TA.AperFunction,SMDPad,CuDef*%
%ADD41RoundRect,0.250000X-0.450000X0.400000X-0.450000X-0.400000X0.450000X-0.400000X0.450000X0.400000X0*%
%TD*%
%TA.AperFunction,ViaPad*%
%ADD42C,0.450000*%
%TD*%
%TA.AperFunction,Conductor*%
%ADD43C,0.500000*%
%TD*%
%TA.AperFunction,Conductor*%
%ADD44C,1.000000*%
%TD*%
%TA.AperFunction,Conductor*%
%ADD45C,0.300000*%
%TD*%
%TA.AperFunction,Conductor*%
%ADD46C,0.800000*%
%TD*%
%TA.AperFunction,Conductor*%
%ADD47C,0.200000*%
%TD*%
%TA.AperFunction,Conductor*%
%ADD48C,0.150000*%
%TD*%
%TA.AperFunction,Conductor*%
%ADD49C,1.500000*%
%TD*%
%TA.AperFunction,Conductor*%
%ADD50C,0.650000*%
%TD*%
%TA.AperFunction,Conductor*%
%ADD51C,0.250000*%
%TD*%
G04 APERTURE END LIST*
D10*
%TO.P,C21,1*%
%TO.N,+12V*%
X132487500Y-96400000D03*
%TO.P,C21,2*%
%TO.N,GND*%
X135437500Y-96400000D03*
%TD*%
D11*
%TO.P,L6,1,1*%
%TO.N,/5V Supply/7V_SW*%
X143400000Y-110000000D03*
%TO.P,L6,2,2*%
%TO.N,Net-(U6-EN)*%
X149400000Y-110000000D03*
%TD*%
D12*
%TO.P,R9,1*%
%TO.N,Net-(D2-K)*%
X140362500Y-96575000D03*
%TO.P,R9,2*%
%TO.N,Net-(U3-FB)*%
X140362500Y-98225000D03*
%TD*%
D11*
%TO.P,L4,1,1*%
%TO.N,Net-(D2-K)*%
X142562500Y-99700000D03*
%TO.P,L4,2,2*%
%TO.N,Net-(U4-EN)*%
X148562500Y-99700000D03*
%TD*%
D13*
%TO.P,U5,1,CB*%
%TO.N,Net-(U5-CB)*%
X140250000Y-116497500D03*
%TO.P,U5,2,GND*%
%TO.N,GND*%
X139300000Y-116497500D03*
%TO.P,U5,3,FB*%
%TO.N,Net-(U5-FB)*%
X138350000Y-116497500D03*
%TO.P,U5,4,EN*%
%TO.N,+12V*%
X138350000Y-118772500D03*
%TO.P,U5,5,VIN*%
X139300000Y-118772500D03*
%TO.P,U5,6,SW*%
%TO.N,Net-(U5-SW)*%
X140250000Y-118772500D03*
%TD*%
D14*
%TO.P,C5,1*%
%TO.N,+12V*%
X135650000Y-83500000D03*
%TO.P,C5,2*%
%TO.N,/-15V Supply/-17V_SW*%
X133750000Y-83500000D03*
%TD*%
D15*
%TO.P,C7,1*%
%TO.N,GND*%
X155400000Y-82100000D03*
%TO.P,C7,2*%
%TO.N,/-15V Supply/-17V_SW*%
X155400000Y-87500000D03*
%TD*%
D16*
%TO.P,L5,1,1*%
%TO.N,Net-(U5-SW)*%
X145500000Y-119285000D03*
D17*
%TO.P,L5,2,2*%
%TO.N,/5V Supply/7V_SW*%
X145500000Y-114385000D03*
%TD*%
D18*
%TO.P,J3,1,Pin_1*%
%TO.N,/5V Supply/5V_SENSE*%
X155300000Y-117300000D03*
%TO.P,J3,2,Pin_2*%
%TO.N,GND*%
X155300000Y-116500000D03*
D19*
%TO.P,J3,M*%
%TO.N,N/C*%
X153700000Y-115100000D03*
X153700000Y-118700000D03*
%TD*%
D20*
%TO.P,C31,1*%
%TO.N,Net-(U5-CB)*%
X141800000Y-116960000D03*
%TO.P,C31,2*%
%TO.N,Net-(U5-SW)*%
X141800000Y-118510000D03*
%TD*%
%TO.P,C2,1*%
%TO.N,Net-(U1-BST)*%
X138800000Y-93125000D03*
%TO.P,C2,2*%
%TO.N,Net-(D1-K)*%
X138800000Y-94675000D03*
%TD*%
D21*
%TO.P,J1,1,Pin_1*%
%TO.N,+12V*%
X132800000Y-113400000D03*
%TO.P,J1,2,Pin_2*%
%TO.N,GND*%
X133600000Y-113400000D03*
D22*
%TO.P,J1,M*%
%TO.N,N/C*%
X135000000Y-111800000D03*
X131400000Y-111800000D03*
%TD*%
D10*
%TO.P,C3,1*%
%TO.N,+12V*%
X137325000Y-81700000D03*
%TO.P,C3,2*%
%TO.N,GND*%
X140275000Y-81700000D03*
%TD*%
D23*
%TO.P,L3,1,1*%
%TO.N,+12V*%
X133500000Y-106400000D03*
%TO.P,L3,2,2*%
%TO.N,Net-(D2-A)*%
X138100000Y-106400000D03*
%TD*%
D24*
%TO.P,R13,1*%
%TO.N,Net-(U5-FB)*%
X137175000Y-114735000D03*
%TO.P,R13,2*%
%TO.N,GND*%
X138825000Y-114735000D03*
%TD*%
D25*
%TO.P,C23,1*%
%TO.N,Net-(D2-K)*%
X139737500Y-102300000D03*
%TO.P,C23,2*%
%TO.N,GND*%
X138187500Y-102300000D03*
%TD*%
D18*
%TO.P,J2,1,Pin_1*%
%TO.N,/5V Supply/5V_SENSE*%
X159000000Y-117300000D03*
%TO.P,J2,2,Pin_2*%
%TO.N,GND*%
X159000000Y-116500000D03*
D19*
%TO.P,J2,M*%
%TO.N,N/C*%
X157400000Y-115100000D03*
X157400000Y-118700000D03*
%TD*%
D11*
%TO.P,L2,1,1*%
%TO.N,/-15V Supply/-17V_SW*%
X151300000Y-93457500D03*
%TO.P,L2,2,2*%
%TO.N,Net-(U2-EN)*%
X157300000Y-93457500D03*
%TD*%
D18*
%TO.P,J6,1,Pin_1*%
%TO.N,Net-(J5-Pin_1)*%
X161000000Y-99600000D03*
%TO.P,J6,2,Pin_2*%
%TO.N,GND*%
X161000000Y-98800000D03*
%TO.P,J6,3,Pin_3*%
X161000000Y-98000000D03*
%TO.P,J6,4,Pin_4*%
%TO.N,Net-(J5-Pin_4)*%
X161000000Y-97200000D03*
D19*
%TO.P,J6,M*%
%TO.N,N/C*%
X159400000Y-95800000D03*
X159400000Y-101000000D03*
%TD*%
D26*
%TO.P,C4,1*%
%TO.N,+12V*%
X137225000Y-83700000D03*
%TO.P,C4,2*%
%TO.N,GND*%
X138775000Y-83700000D03*
%TD*%
D27*
%TO.P,C24,1*%
%TO.N,Net-(D2-K)*%
X140537500Y-100300000D03*
%TO.P,C24,2*%
%TO.N,GND*%
X137587500Y-100300000D03*
%TD*%
D20*
%TO.P,C6,1*%
%TO.N,GND*%
X151000000Y-85125000D03*
%TO.P,C6,2*%
%TO.N,/-15V Supply/-17V_SW*%
X151000000Y-86675000D03*
%TD*%
D28*
%TO.P,U1,1,VCC*%
%TO.N,Net-(U1-VCC)*%
X138825000Y-85575000D03*
%TO.P,U1,2,SD*%
%TO.N,unconnected-(U1-SD-Pad2)*%
X138175000Y-85575000D03*
%TO.P,U1,3,VIN*%
%TO.N,+12V*%
X137525000Y-85575000D03*
%TO.P,U1,4,VIN*%
X136875000Y-85575000D03*
%TO.P,U1,5,SYNC*%
%TO.N,unconnected-(U1-SYNC-Pad5)*%
X136225000Y-85575000D03*
%TO.P,U1,6,COMP*%
%TO.N,Net-(U1-COMP)*%
X135575000Y-85575000D03*
%TO.P,U1,7,FB*%
%TO.N,Net-(U1-FB)*%
X134925000Y-85575000D03*
%TO.P,U1,8,RT*%
%TO.N,Net-(U1-RT)*%
X134275000Y-85575000D03*
%TO.P,U1,9,RAMP*%
%TO.N,Net-(U1-RAMP)*%
X133625000Y-85575000D03*
%TO.P,U1,10,AGND*%
%TO.N,/-15V Supply/-17V_SW*%
X132975000Y-85575000D03*
%TO.P,U1,11,SS*%
%TO.N,Net-(U1-SS)*%
X132975000Y-91300000D03*
%TO.P,U1,12,OUT*%
%TO.N,GND*%
X133625000Y-91300000D03*
%TO.P,U1,13,PGND*%
%TO.N,/-15V Supply/-17V_SW*%
X134275000Y-91300000D03*
%TO.P,U1,14,PGND*%
X134925000Y-91300000D03*
%TO.P,U1,15,IS*%
%TO.N,Net-(D1-A)*%
X135575000Y-91300000D03*
%TO.P,U1,16,IS*%
X136225000Y-91300000D03*
%TO.P,U1,17,SW*%
%TO.N,Net-(D1-K)*%
X136875000Y-91300000D03*
%TO.P,U1,18,SW*%
X137525000Y-91300000D03*
%TO.P,U1,19,PRE*%
X138175000Y-91300000D03*
%TO.P,U1,20,BST*%
%TO.N,Net-(U1-BST)*%
X138825000Y-91300000D03*
D29*
%TO.P,U1,21,EP*%
%TO.N,/-15V Supply/-17V_SW*%
X135900000Y-88437500D03*
%TD*%
D30*
%TO.P,U3,1,SW*%
%TO.N,Net-(D2-A)*%
X135700000Y-101900000D03*
%TO.P,U3,2,GND*%
%TO.N,GND*%
X135700000Y-100950000D03*
%TO.P,U3,3,FB*%
%TO.N,Net-(U3-FB)*%
X135700000Y-100000000D03*
%TO.P,U3,4,EN*%
%TO.N,+12V*%
X133425000Y-100000000D03*
%TO.P,U3,5,VIN*%
X133425000Y-101900000D03*
%TD*%
D31*
%TO.P,R14,1*%
%TO.N,Net-(U6-EN)*%
X151387500Y-106800000D03*
%TO.P,R14,2*%
%TO.N,Net-(C41-Pad1)*%
X153212500Y-106800000D03*
%TD*%
D32*
%TO.P,C33,1*%
%TO.N,+12V*%
X136800000Y-119010000D03*
%TO.P,C33,2*%
%TO.N,GND*%
X136800000Y-117460000D03*
%TD*%
D33*
%TO.P,C18,1*%
%TO.N,GND*%
X163000000Y-91100000D03*
D34*
%TO.P,C18,2*%
%TO.N,-15V*%
X166500000Y-91100000D03*
%TD*%
D18*
%TO.P,J5,1,Pin_1*%
%TO.N,Net-(J5-Pin_1)*%
X168900000Y-99600000D03*
%TO.P,J5,2,Pin_2*%
%TO.N,GND*%
X168900000Y-98800000D03*
%TO.P,J5,3,Pin_3*%
X168900000Y-98000000D03*
%TO.P,J5,4,Pin_4*%
%TO.N,Net-(J5-Pin_4)*%
X168900000Y-97200000D03*
D19*
%TO.P,J5,M*%
%TO.N,N/C*%
X167300000Y-95800000D03*
X167300000Y-101000000D03*
%TD*%
D35*
%TO.P,L1,1,1*%
%TO.N,Net-(D1-K)*%
X144900000Y-93708500D03*
%TO.P,L1,2,2*%
%TO.N,GND*%
X144900000Y-84691500D03*
%TD*%
D36*
%TO.P,D1,1,K*%
%TO.N,Net-(D1-K)*%
X137050000Y-93600000D03*
%TO.P,D1,2,A*%
%TO.N,Net-(D1-A)*%
X134150000Y-93600000D03*
%TD*%
D37*
%TO.P,R7,1*%
%TO.N,Net-(C14-Pad2)*%
X160000000Y-86587500D03*
%TO.P,R7,2*%
%TO.N,Net-(U2-EN)*%
X160000000Y-88412500D03*
%TD*%
D25*
%TO.P,C34,1*%
%TO.N,/5V Supply/7V_SW*%
X141875000Y-114735000D03*
%TO.P,C34,2*%
%TO.N,GND*%
X140325000Y-114735000D03*
%TD*%
D38*
%TO.P,C32,1*%
%TO.N,+12V*%
X134900000Y-118875000D03*
%TO.P,C32,2*%
%TO.N,GND*%
X134900000Y-115925000D03*
%TD*%
D39*
%TO.P,R12,1*%
%TO.N,/5V Supply/7V_SW*%
X138225000Y-113135000D03*
%TO.P,R12,2*%
%TO.N,Net-(U5-FB)*%
X136575000Y-113135000D03*
%TD*%
D14*
%TO.P,C36,1*%
%TO.N,/5V Supply/7V_SW*%
X141650000Y-110935000D03*
%TO.P,C36,2*%
%TO.N,GND*%
X139750000Y-110935000D03*
%TD*%
D40*
%TO.P,R11,1*%
%TO.N,Net-(U3-FB)*%
X137162500Y-98225000D03*
%TO.P,R11,2*%
%TO.N,GND*%
X137162500Y-96575000D03*
%TD*%
D14*
%TO.P,C35,1*%
%TO.N,/5V Supply/7V_SW*%
X141650000Y-112935000D03*
%TO.P,C35,2*%
%TO.N,GND*%
X139750000Y-112935000D03*
%TD*%
D33*
%TO.P,C40,1*%
%TO.N,+5V*%
X164400000Y-116152651D03*
D34*
%TO.P,C40,2*%
%TO.N,GND*%
X164400000Y-112652651D03*
%TD*%
D33*
%TO.P,C41,1*%
%TO.N,Net-(C41-Pad1)*%
X154055113Y-110600000D03*
D34*
%TO.P,C41,2*%
%TO.N,GND*%
X152055113Y-110600000D03*
%TD*%
D41*
%TO.P,D2,1,K*%
%TO.N,Net-(D2-K)*%
X140462500Y-104050000D03*
%TO.P,D2,2,A*%
%TO.N,Net-(D2-A)*%
X140462500Y-106950000D03*
%TD*%
D33*
%TO.P,C14,1*%
%TO.N,GND*%
X164682380Y-83500000D03*
D34*
%TO.P,C14,2*%
%TO.N,Net-(C14-Pad2)*%
X162182380Y-83500000D03*
%TD*%
D26*
%TO.P,C22,1*%
%TO.N,+12V*%
X133187500Y-98400000D03*
%TO.P,C22,2*%
%TO.N,GND*%
X134737500Y-98400000D03*
%TD*%
D33*
%TO.P,C29,1*%
%TO.N,Net-(C29-Pad1)*%
X153600000Y-102382380D03*
D34*
%TO.P,C29,2*%
%TO.N,GND*%
X153600000Y-99882380D03*
%TD*%
D33*
%TO.P,C28,1*%
%TO.N,+15V*%
X166752651Y-105800000D03*
D34*
%TO.P,C28,2*%
%TO.N,GND*%
X163252651Y-105800000D03*
%TD*%
D20*
%TO.P,C10,1*%
%TO.N,Net-(U1-RAMP)*%
X131600000Y-85025000D03*
%TO.P,C10,2*%
%TO.N,/-15V Supply/-17V_SW*%
X131600000Y-86575000D03*
%TD*%
D31*
%TO.P,R10,1*%
%TO.N,Net-(U4-EN)*%
X148400000Y-104700000D03*
%TO.P,R10,2*%
%TO.N,Net-(C29-Pad1)*%
X150225000Y-104700000D03*
%TD*%
D18*
%TO.P,J4,1,Pin_1*%
%TO.N,/5V Supply/5V_SENSE*%
X151600000Y-117300000D03*
%TO.P,J4,2,Pin_2*%
%TO.N,GND*%
X151600000Y-116500000D03*
D19*
%TO.P,J4,M*%
%TO.N,N/C*%
X150000000Y-115100000D03*
X150000000Y-118700000D03*
%TD*%
D20*
%TO.P,C20,1*%
%TO.N,Net-(D2-K)*%
X138762500Y-96625000D03*
%TO.P,C20,2*%
%TO.N,Net-(U3-FB)*%
X138762500Y-98175000D03*
%TD*%
D42*
%TO.N,GND*%
X167500000Y-117100000D03*
X165100000Y-118700000D03*
%TO.N,Net-(J5-Pin_4)*%
X168943164Y-90223422D03*
X168453274Y-89804875D03*
%TO.N,Net-(J5-Pin_1)*%
X168450358Y-106790138D03*
X168945004Y-106371591D03*
%TO.N,/5V Supply/5V_SENSE*%
X166450000Y-117380000D03*
X165960000Y-117760000D03*
%TO.N,/-15V Supply/-17V_SW*%
X151000000Y-86700000D03*
X153720000Y-88080000D03*
X151470000Y-87940000D03*
X137600000Y-88400000D03*
X153760000Y-86100000D03*
X136500000Y-87300000D03*
X135680000Y-94100000D03*
X134200000Y-89500000D03*
X155400000Y-87600000D03*
X131770000Y-86560000D03*
X132700000Y-89600000D03*
X155400000Y-88600000D03*
X136500000Y-88400000D03*
X135300000Y-87300000D03*
X136500000Y-89500000D03*
X134250000Y-87380000D03*
X153740000Y-89230000D03*
X135300000Y-89500000D03*
X133710000Y-83860000D03*
X138800000Y-87100000D03*
X155400000Y-86600000D03*
X137600000Y-89500000D03*
X135300000Y-88400000D03*
X153710000Y-87120000D03*
X134200000Y-88400000D03*
X149600000Y-87080000D03*
X134600000Y-91200000D03*
X137600000Y-87300000D03*
%TO.N,Net-(U1-VCC)*%
X138800000Y-85525000D03*
%TO.N,Net-(U1-RAMP)*%
X132000000Y-85400000D03*
%TO.N,Net-(U1-SS)*%
X132700000Y-91175000D03*
%TO.N,Net-(U1-COMP)*%
X135600000Y-85400000D03*
%TO.N,Net-(U1-FB)*%
X134900000Y-85800000D03*
%TO.N,Net-(U2-EN)*%
X157300000Y-91600000D03*
X156120000Y-92259003D03*
X156120000Y-91630000D03*
X156700000Y-91925000D03*
X157280000Y-92230000D03*
%TO.N,Net-(U1-RT)*%
X134300000Y-85400000D03*
%TO.N,Net-(U4-EN)*%
X155900000Y-102500000D03*
X156400000Y-102200000D03*
X155400000Y-102800000D03*
X155400000Y-102200000D03*
X156400000Y-102800000D03*
%TO.N,Net-(U6-EN)*%
X149800000Y-110600000D03*
X149000000Y-110600000D03*
X149000000Y-109400000D03*
X149800000Y-109400000D03*
X149400000Y-110000000D03*
%TO.N,GND*%
X132800000Y-111300000D03*
X140300000Y-114700000D03*
X146000000Y-85400000D03*
X132800000Y-112120000D03*
X160000000Y-105300000D03*
X133600000Y-91000000D03*
X163200000Y-88900000D03*
X147500000Y-81700000D03*
X143700000Y-85400000D03*
X152300000Y-81600000D03*
X134400000Y-115900000D03*
X147300000Y-110060000D03*
X139700000Y-110500000D03*
X135770000Y-108040000D03*
X156020000Y-115400000D03*
X160400000Y-114500000D03*
X137600000Y-100700000D03*
X146670000Y-99550000D03*
X143480000Y-116880000D03*
X156130000Y-90830000D03*
X158800000Y-107700000D03*
X137920000Y-114030000D03*
X159600000Y-90000000D03*
X160800000Y-90000000D03*
X156000000Y-114700000D03*
X155090000Y-94140000D03*
X157600000Y-105300000D03*
X144690000Y-97570000D03*
X155540000Y-115050000D03*
X160000000Y-106500000D03*
X160800000Y-89400000D03*
X159600000Y-89400000D03*
X156700000Y-95000000D03*
X132160000Y-102880000D03*
X140300000Y-81700000D03*
X153210000Y-96200000D03*
X155100000Y-104790000D03*
X155400000Y-81300000D03*
X155080000Y-114690000D03*
X151000000Y-85125000D03*
X141300000Y-85000000D03*
X139800000Y-83700000D03*
X139300000Y-116500000D03*
X148800000Y-84600000D03*
X135400000Y-96800000D03*
X135580000Y-104390000D03*
X131760000Y-87900000D03*
X153000000Y-83500000D03*
X139700000Y-112600000D03*
X146000000Y-84100000D03*
X157300000Y-84450000D03*
X133580000Y-112110000D03*
X145140000Y-102320000D03*
X155400000Y-83000000D03*
X138900000Y-113900000D03*
X160200000Y-89700000D03*
X142600000Y-81700000D03*
X137250000Y-110600000D03*
X146750000Y-112850000D03*
X139700000Y-113300000D03*
X160000000Y-107700000D03*
X137400000Y-113300000D03*
X138200000Y-102300000D03*
X143700000Y-84100000D03*
X158800000Y-105300000D03*
X146170000Y-105070000D03*
X157600000Y-106500000D03*
X135400000Y-96000000D03*
X145400000Y-116000000D03*
X141410000Y-98310000D03*
X134700000Y-98400000D03*
X158820000Y-80980000D03*
X133600000Y-91600000D03*
X137600000Y-99900000D03*
X157600000Y-107700000D03*
X133570000Y-111300000D03*
X146910000Y-117030000D03*
X145000000Y-81700000D03*
X160800000Y-112700000D03*
X150630000Y-112560000D03*
X136800000Y-117500000D03*
X158800000Y-106500000D03*
X139700000Y-111300000D03*
X146050000Y-107600000D03*
X155080000Y-115410000D03*
X135300000Y-115900000D03*
X135700000Y-101000000D03*
%TO.N,+12V*%
X134300000Y-118600000D03*
X137100000Y-81200000D03*
X137500000Y-82800000D03*
X134800000Y-119200000D03*
X137100000Y-82200000D03*
X132800000Y-96300000D03*
X132200000Y-96700000D03*
X137600000Y-81700000D03*
X131780000Y-113200000D03*
X132800000Y-97200000D03*
X132324898Y-113446592D03*
X135300000Y-118600000D03*
X132830000Y-113130000D03*
X132830000Y-113790000D03*
X132200000Y-95800000D03*
X132300000Y-114100000D03*
X135800000Y-119200000D03*
X131803942Y-113786743D03*
%TO.N,/5V Supply/5V_SENSE*%
X155150000Y-119440000D03*
%TD*%
D43*
%TO.N,Net-(J5-Pin_4)*%
X168575064Y-89855322D02*
X168943164Y-90223422D01*
X168453274Y-89804875D02*
G75*
G02*
X168575074Y-89855312I26J-172225D01*
G01*
X168943164Y-97095793D02*
G75*
G02*
X168900002Y-97200002I-147364J-7D01*
G01*
X168943164Y-90223422D02*
X168943164Y-97095793D01*
%TO.N,Net-(J5-Pin_1)*%
X168450358Y-106790138D02*
G75*
G03*
X168580292Y-106736353I42J183738D01*
G01*
X168580267Y-106736328D02*
X168945004Y-106371591D01*
X168945004Y-99708649D02*
G75*
G03*
X168900014Y-99599986I-153604J49D01*
G01*
X168945004Y-106371591D02*
X168945004Y-99708649D01*
%TO.N,/5V Supply/5V_SENSE*%
X162690000Y-117560000D02*
X162650305Y-117523497D01*
X162110736Y-117300000D02*
X159000000Y-117300000D01*
X165960000Y-117760000D02*
X163172842Y-117760000D01*
X162650305Y-117523497D02*
G75*
G03*
X162110736Y-117299985I-539605J-539603D01*
G01*
X163172842Y-117760000D02*
G75*
G02*
X162689987Y-117560013I-42J682800D01*
G01*
X166262219Y-117457782D02*
X165960000Y-117760000D01*
X166450000Y-117380000D02*
G75*
G03*
X166262211Y-117457774I0J-265600D01*
G01*
D44*
%TO.N,/-15V Supply/-17V_SW*%
X134600000Y-90000000D02*
X134602468Y-89916893D01*
D43*
X131600000Y-86575000D02*
X132814007Y-86575000D01*
X132165685Y-83500000D02*
X133750000Y-83500000D01*
D45*
X134600000Y-91300000D02*
X134275000Y-91300000D01*
D44*
X134600000Y-91200000D02*
X134600000Y-90000000D01*
X134600000Y-91300000D02*
X134600000Y-91200000D01*
D43*
X132975000Y-85575000D02*
X132975000Y-86232538D01*
D46*
X155200000Y-89900000D02*
X151884684Y-93215316D01*
D43*
X130600000Y-85200000D02*
X130600000Y-84824264D01*
D45*
X134925000Y-91300000D02*
X134600000Y-91300000D01*
D46*
X155600000Y-87982842D02*
X155600000Y-88934315D01*
D44*
X135040422Y-88859577D02*
X135100000Y-88800000D01*
D43*
X135763325Y-88437500D02*
X135900000Y-88437500D01*
X130900000Y-84100000D02*
X131029289Y-83970711D01*
X131600000Y-86575000D02*
X130865165Y-85840165D01*
D44*
X135153139Y-88746860D02*
X135040422Y-88859577D01*
D46*
X155400000Y-87500000D02*
G75*
G02*
X155599982Y-87982842I-482800J-482800D01*
G01*
D43*
X132975000Y-86232538D02*
G75*
G03*
X133500011Y-87499989I1792500J38D01*
G01*
X130600000Y-84824264D02*
G75*
G02*
X130900011Y-84100011I1024300J-36D01*
G01*
D46*
X151884684Y-93215316D02*
G75*
G02*
X151300000Y-93457491I-584684J584716D01*
G01*
D43*
X133500000Y-87500000D02*
G75*
G03*
X135299996Y-88400028I2236900J2223700D01*
G01*
X130865165Y-85840165D02*
G75*
G02*
X130599991Y-85200000I640135J640165D01*
G01*
D46*
X155600000Y-88934315D02*
G75*
G02*
X155199996Y-89899996I-1365700J15D01*
G01*
D43*
X131029289Y-83970711D02*
G75*
G02*
X132165685Y-83499988I1136411J-1136389D01*
G01*
D44*
X134602468Y-89916893D02*
G75*
G02*
X135040434Y-88859589I1495232J-7D01*
G01*
X135900000Y-88437500D02*
G75*
G02*
X136500000Y-88400003I535400J-3748000D01*
G01*
D43*
X132814007Y-86575000D02*
G75*
G03*
X132995077Y-86500004I-7J256100D01*
G01*
X135300000Y-88400000D02*
G75*
G03*
X135763325Y-88437505I507000J3382700D01*
G01*
D44*
X136500000Y-88400000D02*
G75*
G03*
X135153157Y-88746880I-333800J-1492100D01*
G01*
D47*
%TO.N,Net-(U1-VCC)*%
X138825000Y-85575000D02*
X138817678Y-85567678D01*
X138817678Y-85567678D02*
G75*
G02*
X138800013Y-85525000I42722J42678D01*
G01*
%TO.N,Net-(U1-RAMP)*%
X133625000Y-84850238D02*
X133625000Y-85575000D01*
X132700000Y-84500000D02*
X133258579Y-84500000D01*
D48*
X131786611Y-85211611D02*
X131957322Y-85382322D01*
X131600000Y-85025000D02*
X131718414Y-84906586D01*
X131600000Y-85025000D02*
X131786611Y-85211611D01*
D47*
X133500000Y-84600000D02*
X133538269Y-84640851D01*
D48*
X131957322Y-85382322D02*
G75*
G03*
X132000000Y-85399987I42678J42722D01*
G01*
D47*
X133258579Y-84500000D02*
G75*
G02*
X133500006Y-84599994I21J-341400D01*
G01*
X131718414Y-84906586D02*
G75*
G02*
X132700000Y-84500008I981586J-981614D01*
G01*
X133538269Y-84640851D02*
G75*
G02*
X133624978Y-84850238I-209369J-209349D01*
G01*
%TO.N,Net-(U1-SS)*%
X132975000Y-91300000D02*
X132903563Y-91297009D01*
X132764341Y-91239342D02*
X132700000Y-91175000D01*
X132903563Y-91297009D02*
G75*
G02*
X132764356Y-91239327I37J196909D01*
G01*
D49*
%TO.N,Net-(D1-K)*%
X137403983Y-93242665D02*
X137403983Y-92300000D01*
X137403983Y-92300000D02*
X137405755Y-92298228D01*
X142566663Y-94675000D02*
X138800000Y-94675000D01*
X137138443Y-93508205D02*
X137403983Y-93242665D01*
D45*
X138175000Y-91300000D02*
X137525000Y-91300000D01*
D49*
X137405755Y-92298228D02*
X137405755Y-91537998D01*
X137647703Y-94197703D02*
X137050000Y-93600000D01*
X137050000Y-93600000D02*
X137138443Y-93508205D01*
D45*
X137525000Y-91300000D02*
X136875000Y-91300000D01*
D49*
X137405755Y-91537998D02*
G75*
G02*
X137524985Y-91299985I425745J-64402D01*
G01*
X138800000Y-94675000D02*
G75*
G02*
X137647702Y-94197704I0J1629600D01*
G01*
X144900000Y-93708500D02*
G75*
G02*
X142566663Y-94674985I-2333300J2333300D01*
G01*
D47*
%TO.N,Net-(U1-BST)*%
X138825000Y-91300000D02*
X138825000Y-93064645D01*
X138825000Y-93064645D02*
G75*
G02*
X138799987Y-93124987I-85400J45D01*
G01*
%TO.N,Net-(U1-COMP)*%
X135575000Y-85575000D02*
X135586312Y-85562530D01*
X135600000Y-85529485D02*
X135600000Y-85400000D01*
X135586312Y-85562530D02*
G75*
G03*
X135599999Y-85529485I-33012J33030D01*
G01*
%TO.N,Net-(U1-FB)*%
X134900000Y-85620515D02*
X134900000Y-85800000D01*
X134925000Y-85575000D02*
X134913688Y-85587470D01*
X134913688Y-85587470D02*
G75*
G03*
X134900001Y-85620515I33012J-33030D01*
G01*
D43*
%TO.N,Net-(U2-EN)*%
X158430000Y-89260000D02*
X157361145Y-90328855D01*
X158766616Y-88923385D02*
X158430000Y-89260000D01*
D49*
X156700000Y-92008972D02*
X156700000Y-91925000D01*
D43*
X159872908Y-88412500D02*
X160000000Y-88412500D01*
X160000000Y-88412500D02*
G75*
G03*
X158766609Y-88923378I0J-1744300D01*
G01*
X157361145Y-90328855D02*
G75*
G03*
X156700003Y-91925000I1596155J-1596145D01*
G01*
D49*
X157300000Y-93457500D02*
G75*
G02*
X156700012Y-92008972I1448500J1448500D01*
G01*
D43*
%TO.N,Net-(C14-Pad2)*%
X160000000Y-86587500D02*
X161542363Y-85045137D01*
X161542363Y-85045137D02*
G75*
G03*
X162182372Y-83500000I-1545163J1545137D01*
G01*
D44*
%TO.N,Net-(D1-A)*%
X135900000Y-92034315D02*
X135900000Y-91300000D01*
D45*
X135900000Y-91300000D02*
X135575000Y-91300000D01*
X136225000Y-91300000D02*
X135900000Y-91300000D01*
D44*
X135430330Y-93069670D02*
X135500000Y-93000000D01*
X135500000Y-93000000D02*
G75*
G03*
X135900006Y-92034315I-965700J965700D01*
G01*
X134150000Y-93600000D02*
G75*
G03*
X135430338Y-93069678I0J1810700D01*
G01*
D47*
%TO.N,Net-(U1-RT)*%
X134275000Y-85575000D02*
X134286312Y-85562530D01*
X134300000Y-85529485D02*
X134300000Y-85400000D01*
X134286312Y-85562530D02*
G75*
G03*
X134299999Y-85529485I-33012J33030D01*
G01*
D45*
%TO.N,Net-(D2-K)*%
X142562500Y-99578828D02*
X142562500Y-99700000D01*
D44*
X142562500Y-99700000D02*
X141986028Y-99700000D01*
X140405026Y-100432473D02*
X140537500Y-100300000D01*
X140462500Y-104050000D02*
X140462285Y-104049785D01*
X139737500Y-102300000D02*
X139737500Y-102044025D01*
D45*
X138883210Y-96575000D02*
X140362500Y-96575000D01*
X141373961Y-96993961D02*
X141575147Y-97195147D01*
D44*
X140462285Y-104049785D02*
G75*
G02*
X139737509Y-102300000I1749815J1749785D01*
G01*
X141986028Y-99700000D02*
G75*
G03*
X140537492Y-100299992I-28J-2048500D01*
G01*
D45*
X141575147Y-97195147D02*
G75*
G02*
X142562490Y-99578828I-2383647J-2383653D01*
G01*
D44*
X139737500Y-102044025D02*
G75*
G02*
X140405009Y-100432456I2279100J25D01*
G01*
D45*
X138762500Y-96625000D02*
G75*
G02*
X138883210Y-96575004I120700J-120700D01*
G01*
X140362500Y-96575000D02*
G75*
G02*
X141373957Y-96993965I0J-1430400D01*
G01*
%TO.N,Net-(U3-FB)*%
X136230000Y-98820000D02*
X136586351Y-98463649D01*
X140241790Y-98175000D02*
X138762500Y-98175000D01*
X137283210Y-98175000D02*
X138762500Y-98175000D01*
X136159619Y-98890380D02*
X136230000Y-98820000D01*
X135700000Y-100000000D02*
G75*
G02*
X136159628Y-98890389I1569200J0D01*
G01*
X140362500Y-98225000D02*
G75*
G03*
X140241790Y-98175004I-120700J-120700D01*
G01*
X136586351Y-98463649D02*
G75*
G02*
X137162500Y-98225001I576149J-576151D01*
G01*
X137162500Y-98225000D02*
G75*
G02*
X137283210Y-98175004I120700J-120700D01*
G01*
D43*
%TO.N,Net-(U4-EN)*%
X148400000Y-104700000D02*
X148400000Y-100092309D01*
X152014825Y-101130000D02*
X153950000Y-101130000D01*
X153950000Y-101130000D02*
X155113310Y-101130000D01*
D49*
X155910000Y-101460000D02*
X155910000Y-102440000D01*
D43*
X148400000Y-100092309D02*
G75*
G02*
X148562497Y-99699997I554800J9D01*
G01*
X148562500Y-99700000D02*
G75*
G03*
X152014825Y-101129989I3452300J3452300D01*
G01*
X155113310Y-101130000D02*
G75*
G02*
X155909997Y-101460003I-10J-1126700D01*
G01*
D50*
%TO.N,Net-(U5-SW)*%
X140250000Y-118772500D02*
X140373965Y-118772500D01*
D44*
X141800000Y-118510000D02*
X141007695Y-118510000D01*
D51*
X145500000Y-119285000D02*
X145011015Y-119285000D01*
D44*
X141800000Y-118510000D02*
X143140000Y-118510000D01*
D50*
X140373965Y-118772500D02*
X140380000Y-118770000D01*
D44*
X141007695Y-118510000D02*
G75*
G03*
X140380001Y-118770001I5J-887700D01*
G01*
D51*
X145011015Y-119285000D02*
G75*
G02*
X143139995Y-118510005I-15J2646000D01*
G01*
D45*
%TO.N,Net-(U5-CB)*%
X140683427Y-116497500D02*
X140250000Y-116497500D01*
X141800000Y-116960000D02*
G75*
G03*
X140683427Y-116497489I-1116600J-1116600D01*
G01*
D51*
%TO.N,/5V Supply/7V_SW*%
X145500000Y-114385000D02*
X143882903Y-114385000D01*
D44*
X141875000Y-114735000D02*
X143037929Y-114735000D01*
D45*
X140950000Y-110100000D02*
X141554540Y-110704540D01*
D44*
X143037929Y-114735000D02*
X143050000Y-114730000D01*
X141650000Y-110935000D02*
X141650000Y-112935000D01*
X142008708Y-110576292D02*
X141650000Y-110935000D01*
X141650000Y-112935000D02*
X141650000Y-114191802D01*
D45*
X138225000Y-113135000D02*
X138225000Y-111393319D01*
X139705685Y-109750000D02*
X140105026Y-109750000D01*
D51*
X143882903Y-114385000D02*
G75*
G03*
X143049999Y-114729999I-3J-1177900D01*
G01*
D45*
X141554540Y-110704540D02*
G75*
G02*
X141650006Y-110935000I-230440J-230460D01*
G01*
X138225000Y-111393319D02*
G75*
G02*
X138739994Y-110149994I1758300J19D01*
G01*
X138740000Y-110150000D02*
G75*
G02*
X139705685Y-109749994I965700J-965700D01*
G01*
X140105026Y-109750000D02*
G75*
G02*
X140949993Y-110100007I-26J-1195000D01*
G01*
D44*
X141650000Y-114191802D02*
G75*
G03*
X141875001Y-114734999I768200J2D01*
G01*
X143400000Y-110000000D02*
G75*
G03*
X142008705Y-110576289I0J-1967600D01*
G01*
D43*
%TO.N,Net-(U6-EN)*%
X150530133Y-108869867D02*
X149400000Y-110000000D01*
X151387500Y-106800000D02*
G75*
G02*
X150530126Y-108869860I-2927200J0D01*
G01*
D50*
%TO.N,Net-(D2-A)*%
X135700000Y-101900000D02*
X135700000Y-102040000D01*
D44*
X135700000Y-102040000D02*
X136714070Y-103054070D01*
X140462500Y-106950000D02*
X138964142Y-106950000D01*
X138100000Y-106400000D02*
X138427868Y-106727868D01*
X136714070Y-103054070D02*
G75*
G02*
X138099988Y-106400000I-3345970J-3345930D01*
G01*
X138427868Y-106727868D02*
G75*
G03*
X138940000Y-106939989I512132J512168D01*
G01*
X138964142Y-106950000D02*
G75*
G02*
X138939988Y-106940012I-42J34100D01*
G01*
D45*
%TO.N,Net-(U5-FB)*%
X137175000Y-114735000D02*
X137934574Y-115494574D01*
X136575000Y-113135000D02*
X136575000Y-113286472D01*
X137934574Y-115494574D02*
G75*
G02*
X138349985Y-116497500I-1002974J-1002926D01*
G01*
X136575000Y-113286472D02*
G75*
G03*
X137174992Y-114735008I2048500J-28D01*
G01*
D50*
%TO.N,GND*%
X139300000Y-115030000D02*
X139520754Y-114809246D01*
X134560000Y-100410003D02*
X134560000Y-99594142D01*
X138540000Y-117630000D02*
X137210416Y-117630000D01*
X139220000Y-117310000D02*
X139154559Y-117375441D01*
X134740000Y-100760000D02*
X134637782Y-100657782D01*
X135700000Y-100950000D02*
X135198700Y-100950000D01*
D43*
X133580000Y-113351716D02*
X133580000Y-112110000D01*
D44*
X135437500Y-96400000D02*
X135437500Y-96710051D01*
X138187500Y-102300000D02*
X138187500Y-101748528D01*
X139700000Y-114735000D02*
X138825000Y-114735000D01*
X134900000Y-115925000D02*
X136176905Y-117201905D01*
X139750000Y-112935000D02*
X139750000Y-114614290D01*
D50*
X135700000Y-100950000D02*
X136018262Y-100950000D01*
D44*
X139750000Y-110935000D02*
X139750000Y-112935000D01*
D50*
X134560000Y-99594142D02*
X134560000Y-98828522D01*
D44*
X140325000Y-114735000D02*
X139700000Y-114735000D01*
D50*
X139300000Y-116497500D02*
X139300000Y-115030000D01*
X134637782Y-100657782D02*
X134634983Y-100591027D01*
X139300000Y-116497500D02*
X139300000Y-117116863D01*
D44*
X135437500Y-96710051D02*
G75*
G02*
X134737514Y-98400014I-2389900J-49D01*
G01*
D50*
X137210416Y-117630000D02*
G75*
G02*
X136799995Y-117460005I-16J580400D01*
G01*
X134560000Y-98828522D02*
G75*
G02*
X134737493Y-98399993I606000J22D01*
G01*
D44*
X138187500Y-101748528D02*
G75*
G03*
X137587508Y-100299992I-2048500J28D01*
G01*
D50*
X139520754Y-114809246D02*
G75*
G02*
X139700000Y-114735002I179246J-179254D01*
G01*
D44*
X136176905Y-117201905D02*
G75*
G03*
X136800000Y-117459996I623095J623105D01*
G01*
X139750000Y-114614290D02*
G75*
G02*
X139700003Y-114735003I-170700J-10D01*
G01*
D50*
X139154559Y-117375441D02*
G75*
G02*
X138540000Y-117630005I-614559J614541D01*
G01*
X139300000Y-117116863D02*
G75*
G02*
X139220011Y-117310011I-273100J-37D01*
G01*
D43*
X133600000Y-113400000D02*
G75*
G02*
X133579993Y-113351716I48300J48300D01*
G01*
D50*
X134634983Y-100591027D02*
G75*
G02*
X134559996Y-100410003I181017J181027D01*
G01*
X135198700Y-100950000D02*
G75*
G02*
X134740000Y-100760000I0J648700D01*
G01*
X136018262Y-100950000D02*
G75*
G03*
X137587511Y-100300011I38J2219200D01*
G01*
D44*
%TO.N,+12V*%
X137200000Y-85575000D02*
X137200000Y-83760355D01*
X133425000Y-100000000D02*
X133425000Y-101900000D01*
X133425000Y-100000000D02*
X133425000Y-98973375D01*
D45*
X137200000Y-85575000D02*
X136875000Y-85575000D01*
D44*
X138196035Y-118772500D02*
X138190000Y-118770000D01*
X135650000Y-83500000D02*
X136742158Y-83500000D01*
X132680000Y-113400000D02*
X131870000Y-113400000D01*
X132040000Y-114100000D02*
X132040000Y-113490000D01*
D50*
X132800000Y-113400000D02*
X132680000Y-113400000D01*
D44*
X132487500Y-96400000D02*
X132487500Y-96710051D01*
D50*
X139156035Y-118772500D02*
X139150000Y-118770000D01*
D44*
X138350000Y-118772500D02*
X138196035Y-118772500D01*
X138350000Y-118772500D02*
X139143965Y-118772500D01*
X135225918Y-119010000D02*
X136800000Y-119010000D01*
D50*
X139300000Y-118772500D02*
X139156035Y-118772500D01*
D44*
X139143965Y-118772500D02*
X139150000Y-118770000D01*
D45*
X137525000Y-85575000D02*
X137200000Y-85575000D01*
D44*
X137325000Y-81700000D02*
X137325000Y-83458579D01*
X136800000Y-119010000D02*
X137610589Y-119010000D01*
X132300000Y-114100000D02*
X132040000Y-114100000D01*
X133425000Y-101900000D02*
X133425000Y-106218934D01*
X133425000Y-106218934D02*
G75*
G03*
X133500010Y-106399990I256100J34D01*
G01*
X133425000Y-98973375D02*
G75*
G03*
X133187493Y-98400007I-810900J-25D01*
G01*
X137325000Y-83458579D02*
G75*
G02*
X137225006Y-83700006I-341400J-21D01*
G01*
X134900000Y-118875000D02*
G75*
G03*
X135225918Y-119009992I325900J325900D01*
G01*
X136742158Y-83500000D02*
G75*
G02*
X137225013Y-83699987I42J-682800D01*
G01*
X137610589Y-119010000D02*
G75*
G03*
X138190003Y-118770003I11J819400D01*
G01*
X132487500Y-96710051D02*
G75*
G03*
X133187515Y-98399985I2390000J51D01*
G01*
X137200000Y-83760355D02*
G75*
G02*
X137225013Y-83700013I85400J-45D01*
G01*
D43*
%TO.N,Net-(J5-Pin_4)*%
X161000000Y-97200000D02*
X168900000Y-97200000D01*
%TO.N,Net-(J5-Pin_1)*%
X168900000Y-99600000D02*
X161000000Y-99600000D01*
%TO.N,/5V Supply/5V_SENSE*%
X151600000Y-117300000D02*
X155300000Y-117300000D01*
X155300000Y-117300000D02*
X159000000Y-117300000D01*
%TO.N,Net-(C29-Pad1)*%
X152030060Y-103952319D02*
X153600000Y-102382380D01*
X150225000Y-104700000D02*
G75*
G03*
X152030052Y-103952311I0J2552700D01*
G01*
%TO.N,Net-(C41-Pad1)*%
X153212500Y-106800000D02*
X153212500Y-108565753D01*
X153212500Y-108565753D02*
G75*
G03*
X154055081Y-110600032I2876900J-47D01*
G01*
%TD*%
%TA.AperFunction,Conductor*%
%TO.N,GND*%
G36*
X139732346Y-80322174D02*
G01*
X139754020Y-80374500D01*
X139732346Y-80426826D01*
X139700666Y-80445562D01*
X139689800Y-80448718D01*
X139548443Y-80532317D01*
X139432317Y-80648443D01*
X139348718Y-80789800D01*
X139302900Y-80947506D01*
X139300000Y-80984358D01*
X139300000Y-81300000D01*
X141250000Y-81300000D01*
X141250000Y-80984358D01*
X141247099Y-80947506D01*
X141201281Y-80789800D01*
X141117682Y-80648443D01*
X141001556Y-80532317D01*
X140860199Y-80448718D01*
X140849334Y-80445562D01*
X140805133Y-80410150D01*
X140798918Y-80353854D01*
X140834330Y-80309653D01*
X140869980Y-80300500D01*
X154161577Y-80300500D01*
X154213903Y-80322174D01*
X154235577Y-80374500D01*
X154232639Y-80395145D01*
X154202900Y-80497506D01*
X154200000Y-80534358D01*
X154200000Y-81700000D01*
X155726000Y-81700000D01*
X155778326Y-81721674D01*
X155800000Y-81774000D01*
X155800000Y-84200000D01*
X155707000Y-84293000D01*
X155149874Y-84850125D01*
X155142597Y-84856507D01*
X155050624Y-84927081D01*
X155033893Y-84936740D01*
X154931303Y-84979234D01*
X154912644Y-84984234D01*
X154797701Y-84999367D01*
X154788042Y-85000000D01*
X151903487Y-85000000D01*
X151880633Y-84977145D01*
X151875000Y-84948827D01*
X151875000Y-84836889D01*
X151872210Y-84801448D01*
X151828154Y-84649808D01*
X151747771Y-84513888D01*
X151636111Y-84402228D01*
X151500190Y-84321845D01*
X151400000Y-84292736D01*
X151400000Y-85451000D01*
X151378326Y-85503326D01*
X151326000Y-85525000D01*
X150150000Y-85525000D01*
X150171845Y-85600191D01*
X150252228Y-85736111D01*
X150255732Y-85739615D01*
X150277406Y-85791941D01*
X150255732Y-85844267D01*
X149849874Y-86250125D01*
X149842597Y-86256507D01*
X149752033Y-86326000D01*
X149750624Y-86327081D01*
X149733893Y-86336740D01*
X149631303Y-86379234D01*
X149612644Y-86384234D01*
X149497701Y-86399367D01*
X149488042Y-86400000D01*
X147558369Y-86400000D01*
X147506043Y-86378326D01*
X147484369Y-86326000D01*
X147506043Y-86273674D01*
X147528573Y-86251143D01*
X147528579Y-86251136D01*
X147653603Y-86068622D01*
X147653604Y-86068621D01*
X147742964Y-85866242D01*
X147742967Y-85866234D01*
X147793616Y-85650887D01*
X147793617Y-85650881D01*
X147799999Y-85558928D01*
X147799999Y-84725000D01*
X150150000Y-84725000D01*
X150600000Y-84725000D01*
X150600000Y-84292736D01*
X150499809Y-84321845D01*
X150363888Y-84402228D01*
X150252228Y-84513888D01*
X150171845Y-84649808D01*
X150150000Y-84725000D01*
X147799999Y-84725000D01*
X147799999Y-83824071D01*
X147793617Y-83732119D01*
X147793616Y-83732113D01*
X147777982Y-83665641D01*
X154200000Y-83665641D01*
X154202900Y-83702493D01*
X154248718Y-83860199D01*
X154332317Y-84001556D01*
X154448443Y-84117682D01*
X154589800Y-84201281D01*
X154747508Y-84247099D01*
X154747505Y-84247099D01*
X154784359Y-84250000D01*
X155000000Y-84250000D01*
X155000000Y-82500000D01*
X154200000Y-82500000D01*
X154200000Y-83665641D01*
X147777982Y-83665641D01*
X147742967Y-83516765D01*
X147742964Y-83516757D01*
X147653604Y-83314378D01*
X147653603Y-83314377D01*
X147528579Y-83131863D01*
X147528573Y-83131856D01*
X147372143Y-82975426D01*
X147372136Y-82975420D01*
X147259156Y-82898026D01*
X144952325Y-85204858D01*
X144899999Y-85226532D01*
X144847673Y-85204858D01*
X142540841Y-82898026D01*
X142427865Y-82975418D01*
X142427856Y-82975426D01*
X142271426Y-83131856D01*
X142271420Y-83131863D01*
X142146396Y-83314377D01*
X142146395Y-83314378D01*
X142057035Y-83516757D01*
X142057032Y-83516765D01*
X142006383Y-83732112D01*
X142006382Y-83732118D01*
X142000000Y-83824071D01*
X142000000Y-85558928D01*
X142006382Y-85650880D01*
X142006383Y-85650886D01*
X142057032Y-85866234D01*
X142057035Y-85866242D01*
X142146395Y-86068621D01*
X142146396Y-86068622D01*
X142271420Y-86251136D01*
X142271426Y-86251143D01*
X142293957Y-86273674D01*
X142315631Y-86326000D01*
X142293957Y-86378326D01*
X142241631Y-86400000D01*
X141111958Y-86400000D01*
X141102299Y-86399367D01*
X140987355Y-86384234D01*
X140968696Y-86379234D01*
X140866106Y-86336740D01*
X140849380Y-86327084D01*
X140757396Y-86256502D01*
X140750125Y-86250125D01*
X139166618Y-84666618D01*
X139144944Y-84614292D01*
X139166618Y-84561966D01*
X139198299Y-84543230D01*
X139250191Y-84528154D01*
X139386111Y-84447771D01*
X139497771Y-84336111D01*
X139578154Y-84200191D01*
X139607263Y-84100000D01*
X138449000Y-84100000D01*
X138396674Y-84078326D01*
X138375000Y-84026000D01*
X138375000Y-83300000D01*
X139175000Y-83300000D01*
X139607262Y-83300000D01*
X139578154Y-83199808D01*
X139497771Y-83063888D01*
X139386111Y-82952228D01*
X139250191Y-82871845D01*
X139175000Y-82850000D01*
X139175000Y-83300000D01*
X138375000Y-83300000D01*
X138375000Y-82850000D01*
X138299808Y-82871845D01*
X138163888Y-82952228D01*
X138151826Y-82964291D01*
X138099500Y-82985965D01*
X138047174Y-82964291D01*
X138025500Y-82911965D01*
X138025500Y-82624212D01*
X138039961Y-82580268D01*
X138042111Y-82577355D01*
X138052793Y-82562882D01*
X138097646Y-82434699D01*
X138099433Y-82415641D01*
X139300000Y-82415641D01*
X139302900Y-82452493D01*
X139348718Y-82610199D01*
X139432317Y-82751556D01*
X139548443Y-82867682D01*
X139689800Y-82951281D01*
X139847506Y-82997099D01*
X139875000Y-82999262D01*
X140675000Y-82999262D01*
X140702493Y-82997099D01*
X140860199Y-82951281D01*
X141001556Y-82867682D01*
X141117682Y-82751556D01*
X141145807Y-82704000D01*
X143478186Y-82704000D01*
X144899999Y-84125813D01*
X146321813Y-82704000D01*
X143478186Y-82704000D01*
X141145807Y-82704000D01*
X141201281Y-82610199D01*
X141247099Y-82452493D01*
X141250000Y-82415641D01*
X141250000Y-82100000D01*
X140675000Y-82100000D01*
X140675000Y-82999262D01*
X139875000Y-82999262D01*
X139875000Y-82100000D01*
X139300000Y-82100000D01*
X139300000Y-82415641D01*
X138099433Y-82415641D01*
X138100500Y-82404266D01*
X138100500Y-80995734D01*
X138097646Y-80965301D01*
X138052793Y-80837118D01*
X138052792Y-80837116D01*
X137972153Y-80727853D01*
X137972146Y-80727846D01*
X137862883Y-80647207D01*
X137862881Y-80647206D01*
X137734704Y-80602355D01*
X137734705Y-80602355D01*
X137734700Y-80602354D01*
X137734699Y-80602354D01*
X137704266Y-80599500D01*
X136945734Y-80599500D01*
X136915301Y-80602354D01*
X136915299Y-80602354D01*
X136915295Y-80602355D01*
X136787118Y-80647206D01*
X136787116Y-80647207D01*
X136677853Y-80727846D01*
X136677846Y-80727853D01*
X136597207Y-80837116D01*
X136597206Y-80837118D01*
X136552355Y-80965295D01*
X136552354Y-80965299D01*
X136552354Y-80965301D01*
X136549500Y-80995734D01*
X136549500Y-82404266D01*
X136552354Y-82434699D01*
X136552354Y-82434701D01*
X136552355Y-82434704D01*
X136597206Y-82562880D01*
X136610039Y-82580268D01*
X136624500Y-82624212D01*
X136624500Y-82725500D01*
X136602826Y-82777826D01*
X136550500Y-82799500D01*
X136330838Y-82799500D01*
X136278512Y-82777826D01*
X136271298Y-82769443D01*
X136222150Y-82702850D01*
X136222146Y-82702846D01*
X136112883Y-82622207D01*
X136112881Y-82622206D01*
X135984704Y-82577355D01*
X135984705Y-82577355D01*
X135984700Y-82577354D01*
X135984699Y-82577354D01*
X135954266Y-82574500D01*
X135345734Y-82574500D01*
X135315301Y-82577354D01*
X135315299Y-82577354D01*
X135315295Y-82577355D01*
X135187118Y-82622206D01*
X135187116Y-82622207D01*
X135077853Y-82702846D01*
X135077849Y-82702850D01*
X135033540Y-82762888D01*
X134985029Y-82792118D01*
X134930057Y-82778485D01*
X134900827Y-82729974D01*
X134900000Y-82718945D01*
X134900000Y-80504850D01*
X134900633Y-80495191D01*
X134906751Y-80448718D01*
X134915766Y-80380242D01*
X134920764Y-80361591D01*
X134927148Y-80346178D01*
X134967198Y-80306132D01*
X134995514Y-80300500D01*
X139680020Y-80300500D01*
X139732346Y-80322174D01*
G37*
%TD.AperFunction*%
%TD*%
%TA.AperFunction,Conductor*%
%TO.N,/-15V Supply/-17V_SW*%
G36*
X134686936Y-80322174D02*
G01*
X134708610Y-80374500D01*
X134707977Y-80384158D01*
X134703009Y-80421896D01*
X134703009Y-80421897D01*
X134696891Y-80468367D01*
X134695572Y-80481766D01*
X134694939Y-80491414D01*
X134694500Y-80504836D01*
X134694500Y-82718948D01*
X134695074Y-82734304D01*
X134695903Y-82745351D01*
X134696224Y-82749161D01*
X134724810Y-82836033D01*
X134724811Y-82836035D01*
X134754034Y-82884534D01*
X134754045Y-82884550D01*
X134798946Y-82936725D01*
X134798949Y-82936728D01*
X134880592Y-82977943D01*
X134893309Y-82981096D01*
X134938881Y-83014725D01*
X134949500Y-83052921D01*
X134949500Y-84029266D01*
X134952354Y-84059699D01*
X134952354Y-84059701D01*
X134952355Y-84059704D01*
X134997206Y-84187881D01*
X134997207Y-84187883D01*
X135077846Y-84297146D01*
X135077853Y-84297153D01*
X135187116Y-84377792D01*
X135187118Y-84377793D01*
X135315295Y-84422644D01*
X135315301Y-84422646D01*
X135345734Y-84425500D01*
X135345741Y-84425500D01*
X135954258Y-84425500D01*
X135954266Y-84425500D01*
X135984699Y-84422646D01*
X136112882Y-84377793D01*
X136222150Y-84297150D01*
X136271298Y-84230557D01*
X136319809Y-84201327D01*
X136330838Y-84200500D01*
X136425500Y-84200500D01*
X136477826Y-84222174D01*
X136499500Y-84274500D01*
X136499500Y-84572493D01*
X136477826Y-84624819D01*
X136425500Y-84646493D01*
X136400405Y-84641200D01*
X136400358Y-84641375D01*
X136397354Y-84640557D01*
X136395616Y-84640191D01*
X136394993Y-84639916D01*
X136394991Y-84639915D01*
X136394990Y-84639914D01*
X136394988Y-84639914D01*
X136373659Y-84637440D01*
X136369865Y-84637000D01*
X136369864Y-84637000D01*
X136080136Y-84637000D01*
X136055013Y-84639914D01*
X136055007Y-84639915D01*
X135952231Y-84685295D01*
X135946577Y-84689169D01*
X135945731Y-84687934D01*
X135900000Y-84706877D01*
X135854268Y-84687934D01*
X135853423Y-84689169D01*
X135847768Y-84685295D01*
X135796378Y-84662604D01*
X135744991Y-84639915D01*
X135744990Y-84639914D01*
X135744988Y-84639914D01*
X135723659Y-84637440D01*
X135719865Y-84637000D01*
X135719864Y-84637000D01*
X135430136Y-84637000D01*
X135405013Y-84639914D01*
X135405007Y-84639915D01*
X135302231Y-84685295D01*
X135296577Y-84689169D01*
X135295731Y-84687934D01*
X135250000Y-84706877D01*
X135204268Y-84687934D01*
X135203423Y-84689169D01*
X135197768Y-84685295D01*
X135146378Y-84662604D01*
X135094991Y-84639915D01*
X135094990Y-84639914D01*
X135094988Y-84639914D01*
X135073659Y-84637440D01*
X135069865Y-84637000D01*
X135069864Y-84637000D01*
X134780136Y-84637000D01*
X134755013Y-84639914D01*
X134755007Y-84639915D01*
X134652231Y-84685295D01*
X134646577Y-84689169D01*
X134645731Y-84687934D01*
X134600000Y-84706877D01*
X134554268Y-84687934D01*
X134553423Y-84689169D01*
X134547768Y-84685295D01*
X134496378Y-84662604D01*
X134444991Y-84639915D01*
X134444990Y-84639914D01*
X134444988Y-84639914D01*
X134423659Y-84637440D01*
X134419865Y-84637000D01*
X134419864Y-84637000D01*
X134130136Y-84637000D01*
X134105013Y-84639914D01*
X134105007Y-84639915D01*
X133995962Y-84688064D01*
X133995272Y-84686501D01*
X133947359Y-84696598D01*
X133899913Y-84665668D01*
X133892602Y-84652173D01*
X133890250Y-84646493D01*
X133857603Y-84567655D01*
X133792315Y-84469930D01*
X133792288Y-84469903D01*
X133757109Y-84434721D01*
X133750333Y-84425320D01*
X133749563Y-84425880D01*
X133746141Y-84421169D01*
X133716789Y-84391817D01*
X133715111Y-84390083D01*
X133692254Y-84365684D01*
X133688509Y-84362611D01*
X133688718Y-84362356D01*
X133682042Y-84357058D01*
X133667784Y-84342800D01*
X133562641Y-84272548D01*
X133562638Y-84272546D01*
X133562637Y-84272546D01*
X133445813Y-84224161D01*
X133445809Y-84224160D01*
X133321787Y-84199496D01*
X133258560Y-84199500D01*
X132655672Y-84199500D01*
X132655549Y-84199508D01*
X132589319Y-84199508D01*
X132538257Y-84206230D01*
X132369853Y-84228400D01*
X132156033Y-84285692D01*
X132156032Y-84285693D01*
X131951518Y-84370404D01*
X131949770Y-84371266D01*
X131905474Y-84377982D01*
X131904274Y-84377792D01*
X131900355Y-84377171D01*
X131883489Y-84374500D01*
X131883488Y-84374500D01*
X131316512Y-84374500D01*
X131316511Y-84374500D01*
X131216874Y-84390280D01*
X131216873Y-84390281D01*
X131096780Y-84451471D01*
X131001471Y-84546780D01*
X130940281Y-84666873D01*
X130940280Y-84666874D01*
X130924500Y-84766511D01*
X130924500Y-85283488D01*
X130940280Y-85383125D01*
X130940281Y-85383126D01*
X130991233Y-85483126D01*
X131001472Y-85503220D01*
X131096780Y-85598528D01*
X131147982Y-85624617D01*
X131184764Y-85667683D01*
X131180321Y-85724145D01*
X131137253Y-85760928D01*
X131135032Y-85761612D01*
X131099808Y-85771845D01*
X130963888Y-85852228D01*
X130852228Y-85963888D01*
X130771845Y-86099808D01*
X130727789Y-86251448D01*
X130725000Y-86286889D01*
X130725000Y-86375000D01*
X131726000Y-86375000D01*
X131778326Y-86396674D01*
X131800000Y-86449000D01*
X131800000Y-86701000D01*
X131778326Y-86753326D01*
X131726000Y-86775000D01*
X130725000Y-86775000D01*
X130725000Y-86863110D01*
X130727789Y-86898551D01*
X130771845Y-87050191D01*
X130852228Y-87186111D01*
X130963888Y-87297771D01*
X131099808Y-87378154D01*
X131251448Y-87422210D01*
X131286890Y-87425000D01*
X131454600Y-87425000D01*
X131506926Y-87446674D01*
X131528600Y-87499000D01*
X131506926Y-87551326D01*
X131411472Y-87646779D01*
X131411471Y-87646780D01*
X131350281Y-87766873D01*
X131350280Y-87766873D01*
X131329196Y-87900000D01*
X131350280Y-88033126D01*
X131411471Y-88153219D01*
X131411472Y-88153220D01*
X131506780Y-88248528D01*
X131626873Y-88309718D01*
X131626873Y-88309719D01*
X131645075Y-88312601D01*
X131760000Y-88330804D01*
X131893126Y-88309719D01*
X132013220Y-88248528D01*
X132108528Y-88153220D01*
X132169719Y-88033126D01*
X132190804Y-87900000D01*
X132169719Y-87766874D01*
X132169719Y-87766873D01*
X132108528Y-87646780D01*
X132013221Y-87551473D01*
X132013220Y-87551472D01*
X131994699Y-87542035D01*
X131957918Y-87498969D01*
X131962362Y-87442506D01*
X132005429Y-87405724D01*
X132007651Y-87405040D01*
X132100191Y-87378154D01*
X132236111Y-87297771D01*
X132347771Y-87186111D01*
X132428154Y-87050191D01*
X132453454Y-86963110D01*
X150125000Y-86963110D01*
X150127789Y-86998551D01*
X150171845Y-87150191D01*
X150252228Y-87286111D01*
X150363888Y-87397771D01*
X150499808Y-87478154D01*
X150651448Y-87522210D01*
X150686890Y-87525000D01*
X150800000Y-87525000D01*
X151200000Y-87525000D01*
X151313110Y-87525000D01*
X151348551Y-87522210D01*
X151500191Y-87478154D01*
X151636111Y-87397771D01*
X151747771Y-87286111D01*
X151828154Y-87150191D01*
X151872210Y-86998551D01*
X151875000Y-86963110D01*
X151875000Y-86875000D01*
X151200000Y-86875000D01*
X151200000Y-87525000D01*
X150800000Y-87525000D01*
X150800000Y-86875000D01*
X150125000Y-86875000D01*
X150125000Y-86963110D01*
X132453454Y-86963110D01*
X132472210Y-86898551D01*
X132475000Y-86863110D01*
X132475000Y-86685475D01*
X132496674Y-86633149D01*
X132549000Y-86611475D01*
X132593347Y-86626236D01*
X132632907Y-86655851D01*
X132632912Y-86655854D01*
X132767622Y-86706097D01*
X132767624Y-86706098D01*
X132775000Y-86706890D01*
X132775000Y-85449000D01*
X132796674Y-85396674D01*
X132849000Y-85375000D01*
X133101000Y-85375000D01*
X133153326Y-85396674D01*
X133175000Y-85449000D01*
X133175000Y-86706889D01*
X133182375Y-86706098D01*
X133182377Y-86706097D01*
X133317087Y-86655854D01*
X133317088Y-86655853D01*
X133432187Y-86569689D01*
X133452425Y-86542654D01*
X133501133Y-86513753D01*
X133511654Y-86512999D01*
X133769864Y-86512999D01*
X133794991Y-86510085D01*
X133897765Y-86464706D01*
X133897766Y-86464704D01*
X133897768Y-86464704D01*
X133903423Y-86460831D01*
X133904268Y-86462065D01*
X133950000Y-86443123D01*
X133995731Y-86462065D01*
X133996577Y-86460831D01*
X134002231Y-86464704D01*
X134002234Y-86464705D01*
X134002235Y-86464706D01*
X134105009Y-86510085D01*
X134130135Y-86513000D01*
X134419864Y-86512999D01*
X134444991Y-86510085D01*
X134547765Y-86464706D01*
X134547766Y-86464704D01*
X134547768Y-86464704D01*
X134553423Y-86460831D01*
X134554268Y-86462065D01*
X134600000Y-86443123D01*
X134645731Y-86462065D01*
X134646577Y-86460831D01*
X134652231Y-86464704D01*
X134652234Y-86464705D01*
X134652235Y-86464706D01*
X134755009Y-86510085D01*
X134780135Y-86513000D01*
X135069864Y-86512999D01*
X135094991Y-86510085D01*
X135197765Y-86464706D01*
X135197766Y-86464704D01*
X135197768Y-86464704D01*
X135203423Y-86460831D01*
X135204268Y-86462065D01*
X135250000Y-86443123D01*
X135295731Y-86462065D01*
X135296577Y-86460831D01*
X135302231Y-86464704D01*
X135302234Y-86464705D01*
X135302235Y-86464706D01*
X135405009Y-86510085D01*
X135430135Y-86513000D01*
X135719864Y-86512999D01*
X135744991Y-86510085D01*
X135847765Y-86464706D01*
X135847766Y-86464704D01*
X135847768Y-86464704D01*
X135853423Y-86460831D01*
X135854268Y-86462065D01*
X135900000Y-86443123D01*
X135945731Y-86462065D01*
X135946577Y-86460831D01*
X135952231Y-86464704D01*
X135952234Y-86464705D01*
X135952235Y-86464706D01*
X136055009Y-86510085D01*
X136080135Y-86513000D01*
X136369864Y-86512999D01*
X136394991Y-86510085D01*
X136497765Y-86464706D01*
X136497766Y-86464704D01*
X136497768Y-86464704D01*
X136503423Y-86460831D01*
X136504268Y-86462065D01*
X136550000Y-86443123D01*
X136595731Y-86462065D01*
X136596577Y-86460831D01*
X136602231Y-86464704D01*
X136602234Y-86464705D01*
X136602235Y-86464706D01*
X136705009Y-86510085D01*
X136730135Y-86513000D01*
X137019864Y-86512999D01*
X137044991Y-86510085D01*
X137147765Y-86464706D01*
X137147766Y-86464704D01*
X137147768Y-86464704D01*
X137153423Y-86460831D01*
X137154268Y-86462065D01*
X137200000Y-86443123D01*
X137245731Y-86462065D01*
X137246577Y-86460831D01*
X137252231Y-86464704D01*
X137252234Y-86464705D01*
X137252235Y-86464706D01*
X137355009Y-86510085D01*
X137380135Y-86513000D01*
X137669864Y-86512999D01*
X137694991Y-86510085D01*
X137797765Y-86464706D01*
X137797766Y-86464704D01*
X137797768Y-86464704D01*
X137803423Y-86460831D01*
X137804268Y-86462065D01*
X137850000Y-86443123D01*
X137895731Y-86462065D01*
X137896577Y-86460831D01*
X137902231Y-86464704D01*
X137902234Y-86464705D01*
X137902235Y-86464706D01*
X138005009Y-86510085D01*
X138030135Y-86513000D01*
X138319864Y-86512999D01*
X138344991Y-86510085D01*
X138447765Y-86464706D01*
X138447766Y-86464704D01*
X138447768Y-86464704D01*
X138453423Y-86460831D01*
X138454268Y-86462065D01*
X138500000Y-86443123D01*
X138545731Y-86462065D01*
X138546577Y-86460831D01*
X138552231Y-86464704D01*
X138552234Y-86464705D01*
X138552235Y-86464706D01*
X138655009Y-86510085D01*
X138680135Y-86513000D01*
X138969864Y-86512999D01*
X138994991Y-86510085D01*
X139097765Y-86464706D01*
X139177206Y-86385265D01*
X139222585Y-86282491D01*
X139225500Y-86257365D01*
X139225499Y-85564315D01*
X139226410Y-85552739D01*
X139230804Y-85525000D01*
X139226410Y-85497258D01*
X139225499Y-85485682D01*
X139225499Y-85194771D01*
X139247173Y-85142445D01*
X139299499Y-85120771D01*
X139351825Y-85142445D01*
X140604815Y-86395435D01*
X140614623Y-86404623D01*
X140621894Y-86411000D01*
X140632295Y-86419536D01*
X140632299Y-86419539D01*
X140632315Y-86419552D01*
X140696694Y-86468951D01*
X140724279Y-86490118D01*
X140746636Y-86505056D01*
X140746643Y-86505060D01*
X140746652Y-86505066D01*
X140746656Y-86505068D01*
X140763344Y-86514702D01*
X140763348Y-86514704D01*
X140763362Y-86514712D01*
X140787465Y-86526597D01*
X140890055Y-86569091D01*
X140915505Y-86577731D01*
X140934164Y-86582731D01*
X140960531Y-86587976D01*
X141075475Y-86603109D01*
X141088860Y-86604427D01*
X141098519Y-86605060D01*
X141101038Y-86605142D01*
X141111945Y-86605500D01*
X141111958Y-86605500D01*
X142241629Y-86605500D01*
X142241631Y-86605500D01*
X142320272Y-86589857D01*
X142372598Y-86568183D01*
X142430892Y-86531555D01*
X142483814Y-86456967D01*
X142505488Y-86404641D01*
X142517011Y-86354156D01*
X142549783Y-86307969D01*
X142605620Y-86298481D01*
X142635917Y-86313274D01*
X142643800Y-86319702D01*
X142823032Y-86413324D01*
X143017440Y-86468952D01*
X143017443Y-86468952D01*
X143017446Y-86468953D01*
X143136064Y-86479499D01*
X143136080Y-86479499D01*
X143136082Y-86479500D01*
X143136083Y-86479500D01*
X146663917Y-86479500D01*
X146663918Y-86479500D01*
X146663919Y-86479499D01*
X146663935Y-86479499D01*
X146782553Y-86468953D01*
X146782555Y-86468952D01*
X146782560Y-86468952D01*
X146976968Y-86413324D01*
X147156200Y-86319702D01*
X147166564Y-86311250D01*
X147220813Y-86294982D01*
X147270679Y-86321838D01*
X147286282Y-86356206D01*
X147294511Y-86404639D01*
X147294511Y-86404640D01*
X147316183Y-86456962D01*
X147316185Y-86456966D01*
X147316186Y-86456967D01*
X147352814Y-86515261D01*
X147375779Y-86531555D01*
X147427402Y-86568183D01*
X147475179Y-86587973D01*
X147479728Y-86589857D01*
X147558369Y-86605500D01*
X147558371Y-86605500D01*
X149488055Y-86605500D01*
X149498318Y-86605163D01*
X149501481Y-86605060D01*
X149511140Y-86604427D01*
X149524525Y-86603109D01*
X149639468Y-86587976D01*
X149665835Y-86582731D01*
X149684494Y-86577731D01*
X149709944Y-86569091D01*
X149812534Y-86526597D01*
X149836638Y-86514711D01*
X149853369Y-86505052D01*
X149875713Y-86490124D01*
X149877122Y-86489043D01*
X149877134Y-86489033D01*
X149967698Y-86419540D01*
X149978095Y-86411008D01*
X149985372Y-86404626D01*
X149995184Y-86395435D01*
X149998669Y-86391949D01*
X150050991Y-86370270D01*
X150103320Y-86391938D01*
X150125000Y-86444261D01*
X150125000Y-86475000D01*
X151875000Y-86475000D01*
X151875000Y-86386889D01*
X151872210Y-86351448D01*
X151828154Y-86199808D01*
X151747771Y-86063888D01*
X151636111Y-85952228D01*
X151605895Y-85934358D01*
X154200000Y-85934358D01*
X154200000Y-87300000D01*
X155200000Y-87300000D01*
X155200000Y-85350000D01*
X154837799Y-85350000D01*
X154790445Y-85330385D01*
X154789849Y-85331826D01*
X154750812Y-85352297D01*
X154747508Y-85352900D01*
X154589800Y-85398718D01*
X154448443Y-85482317D01*
X154332317Y-85598443D01*
X154248718Y-85739800D01*
X154202900Y-85897506D01*
X154200000Y-85934358D01*
X151605895Y-85934358D01*
X151500191Y-85871845D01*
X151464967Y-85861612D01*
X151420766Y-85826200D01*
X151414551Y-85769904D01*
X151449963Y-85725703D01*
X151451930Y-85724661D01*
X151503220Y-85698528D01*
X151598528Y-85603220D01*
X151659719Y-85483126D01*
X151675500Y-85383488D01*
X151675500Y-85229888D01*
X151697174Y-85177562D01*
X151749500Y-85155888D01*
X151792323Y-85169538D01*
X151814322Y-85185148D01*
X151814324Y-85185149D01*
X151903487Y-85205500D01*
X151903490Y-85205500D01*
X154737523Y-85205500D01*
X154784876Y-85225114D01*
X154785473Y-85223674D01*
X154828140Y-85202633D01*
X154939468Y-85187976D01*
X154965835Y-85182731D01*
X154984494Y-85177731D01*
X155009944Y-85169091D01*
X155112534Y-85126597D01*
X155136638Y-85114711D01*
X155153369Y-85105052D01*
X155153382Y-85105043D01*
X155153386Y-85105041D01*
X155164339Y-85097722D01*
X155175725Y-85090115D01*
X155267698Y-85019541D01*
X155278095Y-85011008D01*
X155285372Y-85004626D01*
X155295184Y-84995436D01*
X155745002Y-84545618D01*
X155797327Y-84523945D01*
X155849653Y-84545619D01*
X155871327Y-84597927D01*
X155871488Y-85275982D01*
X155849826Y-85328313D01*
X155797506Y-85350000D01*
X155600000Y-85350000D01*
X155600000Y-87626000D01*
X155578326Y-87678326D01*
X155526000Y-87700000D01*
X154200000Y-87700000D01*
X154200000Y-89065641D01*
X154202900Y-89102493D01*
X154248718Y-89260199D01*
X154332317Y-89401556D01*
X154448446Y-89517685D01*
X154450453Y-89518872D01*
X154451117Y-89519757D01*
X154452124Y-89520538D01*
X154451910Y-89520813D01*
X154484457Y-89564165D01*
X154476474Y-89620237D01*
X154465107Y-89634891D01*
X152121674Y-91978326D01*
X152069348Y-92000000D01*
X151969955Y-92000000D01*
X151945514Y-91995847D01*
X151879151Y-91972625D01*
X151879143Y-91972623D01*
X151744921Y-91957500D01*
X151500000Y-91957500D01*
X151479174Y-91978326D01*
X151426848Y-92000000D01*
X151173152Y-92000000D01*
X151120826Y-91978326D01*
X151100000Y-91957500D01*
X150855079Y-91957500D01*
X150720856Y-91972623D01*
X150720848Y-91972625D01*
X150654486Y-91995847D01*
X150630045Y-92000000D01*
X150400000Y-92000000D01*
X149700000Y-92700000D01*
X149700000Y-94667648D01*
X149678326Y-94719974D01*
X149676252Y-94721969D01*
X149321265Y-95050364D01*
X149271028Y-95070043D01*
X147553350Y-95070401D01*
X147501020Y-95048738D01*
X147479335Y-94996416D01*
X147487742Y-94962144D01*
X147534324Y-94872968D01*
X147589952Y-94678560D01*
X147589953Y-94678553D01*
X147600499Y-94559935D01*
X147600500Y-94559916D01*
X147600500Y-92857083D01*
X147600499Y-92857064D01*
X147589953Y-92738446D01*
X147589952Y-92738443D01*
X147589952Y-92738440D01*
X147534324Y-92544032D01*
X147440702Y-92364800D01*
X147312916Y-92208084D01*
X147156200Y-92080298D01*
X146976970Y-91986677D01*
X146976969Y-91986676D01*
X146976968Y-91986676D01*
X146860487Y-91953346D01*
X146782561Y-91931048D01*
X146782553Y-91931046D01*
X146663935Y-91920500D01*
X146663918Y-91920500D01*
X143136082Y-91920500D01*
X143136064Y-91920500D01*
X143017446Y-91931046D01*
X143017438Y-91931048D01*
X142872144Y-91972623D01*
X142852214Y-91978326D01*
X142823029Y-91986677D01*
X142643799Y-92080298D01*
X142487085Y-92208083D01*
X142487083Y-92208085D01*
X142359298Y-92364799D01*
X142265677Y-92544029D01*
X142265676Y-92544031D01*
X142265676Y-92544032D01*
X142263547Y-92551472D01*
X142210048Y-92738438D01*
X142210046Y-92738446D01*
X142199500Y-92857064D01*
X142199500Y-93650500D01*
X142177826Y-93702826D01*
X142125500Y-93724500D01*
X139455646Y-93724500D01*
X139403320Y-93702826D01*
X139381646Y-93650500D01*
X139395776Y-93607007D01*
X139398521Y-93603226D01*
X139398528Y-93603220D01*
X139459719Y-93483126D01*
X139475500Y-93383488D01*
X139475500Y-92866512D01*
X139474006Y-92857082D01*
X139459719Y-92766874D01*
X139459718Y-92766873D01*
X139449697Y-92747206D01*
X139398528Y-92646780D01*
X139303220Y-92551472D01*
X139303219Y-92551471D01*
X139183126Y-92490281D01*
X139177584Y-92488480D01*
X139178602Y-92485346D01*
X139139593Y-92461392D01*
X139125500Y-92417951D01*
X139125500Y-92192623D01*
X139147174Y-92140297D01*
X139161594Y-92125877D01*
X139177206Y-92110265D01*
X139222585Y-92007491D01*
X139225500Y-91982365D01*
X139225499Y-90617636D01*
X139222585Y-90592509D01*
X139177206Y-90489735D01*
X139097765Y-90410294D01*
X138994991Y-90364915D01*
X138994990Y-90364914D01*
X138994988Y-90364914D01*
X138973659Y-90362440D01*
X138969865Y-90362000D01*
X138969864Y-90362000D01*
X138680136Y-90362000D01*
X138655013Y-90364914D01*
X138655007Y-90364915D01*
X138552231Y-90410295D01*
X138546577Y-90414169D01*
X138545731Y-90412934D01*
X138500000Y-90431877D01*
X138454268Y-90412934D01*
X138453423Y-90414169D01*
X138447768Y-90410295D01*
X138388624Y-90384181D01*
X138344991Y-90364915D01*
X138344990Y-90364914D01*
X138344988Y-90364914D01*
X138323659Y-90362440D01*
X138319865Y-90362000D01*
X138319864Y-90362000D01*
X138030136Y-90362000D01*
X138005013Y-90364914D01*
X138005007Y-90364915D01*
X137910855Y-90406488D01*
X137854233Y-90407796D01*
X137853108Y-90407349D01*
X137796101Y-90384184D01*
X137796093Y-90384182D01*
X137796091Y-90384181D01*
X137796090Y-90384181D01*
X137612214Y-90348891D01*
X137612209Y-90348890D01*
X137424989Y-90350151D01*
X137241602Y-90387914D01*
X137241601Y-90387914D01*
X137197154Y-90406677D01*
X137140518Y-90407058D01*
X137138486Y-90406197D01*
X137044991Y-90364915D01*
X137044990Y-90364914D01*
X137044988Y-90364914D01*
X137023659Y-90362440D01*
X137019865Y-90362000D01*
X137019864Y-90362000D01*
X136730136Y-90362000D01*
X136705013Y-90364914D01*
X136705007Y-90364915D01*
X136602231Y-90410295D01*
X136596577Y-90414169D01*
X136595731Y-90412934D01*
X136550000Y-90431877D01*
X136504268Y-90412934D01*
X136503423Y-90414169D01*
X136497768Y-90410295D01*
X136438624Y-90384181D01*
X136394991Y-90364915D01*
X136394990Y-90364914D01*
X136394988Y-90364914D01*
X136373659Y-90362440D01*
X136369865Y-90362000D01*
X136369864Y-90362000D01*
X136080136Y-90362000D01*
X136055013Y-90364914D01*
X136055007Y-90364915D01*
X135952231Y-90410295D01*
X135946577Y-90414169D01*
X135945731Y-90412934D01*
X135900000Y-90431877D01*
X135854268Y-90412934D01*
X135853423Y-90414169D01*
X135847768Y-90410295D01*
X135788624Y-90384181D01*
X135744991Y-90364915D01*
X135744990Y-90364914D01*
X135744988Y-90364914D01*
X135719865Y-90362000D01*
X135461668Y-90362000D01*
X135409342Y-90340326D01*
X135402428Y-90332347D01*
X135382188Y-90305311D01*
X135267088Y-90219146D01*
X135267087Y-90219145D01*
X135132380Y-90168903D01*
X135132375Y-90168902D01*
X135125000Y-90168109D01*
X135125000Y-92314972D01*
X135116262Y-92349855D01*
X135090829Y-92397437D01*
X135082770Y-92409499D01*
X135006940Y-92501898D01*
X135002063Y-92507279D01*
X134937063Y-92572279D01*
X134932795Y-92576224D01*
X134806969Y-92683686D01*
X134797575Y-92690511D01*
X134756022Y-92715974D01*
X134700082Y-92724833D01*
X134692917Y-92722725D01*
X134634705Y-92702355D01*
X134634701Y-92702354D01*
X134627090Y-92701640D01*
X134604266Y-92699500D01*
X133695734Y-92699500D01*
X133665301Y-92702354D01*
X133665299Y-92702354D01*
X133665295Y-92702355D01*
X133537118Y-92747206D01*
X133537116Y-92747207D01*
X133427853Y-92827846D01*
X133427846Y-92827853D01*
X133347207Y-92937116D01*
X133347206Y-92937118D01*
X133302355Y-93065295D01*
X133302354Y-93065299D01*
X133302354Y-93065301D01*
X133299500Y-93095734D01*
X133299500Y-94104266D01*
X133302354Y-94134699D01*
X133302354Y-94134701D01*
X133302355Y-94134704D01*
X133347206Y-94262881D01*
X133347207Y-94262883D01*
X133413850Y-94353182D01*
X133427483Y-94408154D01*
X133398252Y-94456664D01*
X133354333Y-94471124D01*
X130374523Y-94472044D01*
X130322190Y-94450386D01*
X130300500Y-94398067D01*
X130300500Y-91175000D01*
X132269196Y-91175000D01*
X132290280Y-91308126D01*
X132351471Y-91428219D01*
X132351472Y-91428220D01*
X132446780Y-91523528D01*
X132534096Y-91568018D01*
X132570878Y-91611084D01*
X132574500Y-91633951D01*
X132574500Y-91982363D01*
X132577414Y-92007486D01*
X132577415Y-92007492D01*
X132595701Y-92048905D01*
X132622794Y-92110265D01*
X132702235Y-92189706D01*
X132805009Y-92235085D01*
X132830135Y-92238000D01*
X133119864Y-92237999D01*
X133144991Y-92235085D01*
X133247765Y-92189706D01*
X133247766Y-92189704D01*
X133247768Y-92189704D01*
X133253423Y-92185831D01*
X133254268Y-92187065D01*
X133300000Y-92168123D01*
X133345731Y-92187065D01*
X133346577Y-92185831D01*
X133352231Y-92189704D01*
X133352234Y-92189705D01*
X133352235Y-92189706D01*
X133455009Y-92235085D01*
X133480135Y-92238000D01*
X133738331Y-92237999D01*
X133790657Y-92259673D01*
X133797571Y-92267652D01*
X133817811Y-92294688D01*
X133932911Y-92380853D01*
X133932912Y-92380854D01*
X134067622Y-92431097D01*
X134067624Y-92431098D01*
X134075000Y-92431890D01*
X134075000Y-92431889D01*
X134475000Y-92431889D01*
X134482374Y-92431098D01*
X134574139Y-92396871D01*
X134625861Y-92396871D01*
X134717625Y-92431098D01*
X134717624Y-92431098D01*
X134725000Y-92431890D01*
X134725000Y-91500000D01*
X134475000Y-91500000D01*
X134475000Y-92431889D01*
X134075000Y-92431889D01*
X134075000Y-90168109D01*
X134475000Y-90168109D01*
X134475000Y-91100000D01*
X134725000Y-91100000D01*
X134725000Y-90168109D01*
X134717624Y-90168902D01*
X134717619Y-90168903D01*
X134625860Y-90203127D01*
X134574140Y-90203127D01*
X134482380Y-90168903D01*
X134482375Y-90168902D01*
X134475000Y-90168109D01*
X134075000Y-90168109D01*
X134067624Y-90168902D01*
X134067619Y-90168903D01*
X133932912Y-90219145D01*
X133932911Y-90219146D01*
X133817810Y-90305311D01*
X133797570Y-90332348D01*
X133748860Y-90361247D01*
X133738331Y-90362000D01*
X133480136Y-90362000D01*
X133455013Y-90364914D01*
X133455007Y-90364915D01*
X133352231Y-90410295D01*
X133346577Y-90414169D01*
X133345731Y-90412934D01*
X133300000Y-90431877D01*
X133254268Y-90412934D01*
X133253423Y-90414169D01*
X133247768Y-90410295D01*
X133188624Y-90384181D01*
X133144991Y-90364915D01*
X133144990Y-90364914D01*
X133144988Y-90364914D01*
X133123659Y-90362440D01*
X133119865Y-90362000D01*
X133119864Y-90362000D01*
X132830136Y-90362000D01*
X132805013Y-90364914D01*
X132805007Y-90364915D01*
X132702234Y-90410294D01*
X132622794Y-90489734D01*
X132577414Y-90592511D01*
X132574500Y-90617635D01*
X132574500Y-90716048D01*
X132552826Y-90768374D01*
X132534096Y-90781982D01*
X132446778Y-90826473D01*
X132351471Y-90921780D01*
X132290281Y-91041873D01*
X132290280Y-91041873D01*
X132269196Y-91175000D01*
X130300500Y-91175000D01*
X130300500Y-83554325D01*
X130322174Y-83501999D01*
X130364077Y-83482021D01*
X130363936Y-83481130D01*
X130365848Y-83480827D01*
X130365850Y-83480827D01*
X130727691Y-83423517D01*
X131081559Y-83328698D01*
X131423578Y-83197409D01*
X131750000Y-83031089D01*
X132057248Y-82831559D01*
X132341957Y-82601007D01*
X132601007Y-82341957D01*
X132831559Y-82057248D01*
X133031089Y-81750000D01*
X133197409Y-81423578D01*
X133328698Y-81081559D01*
X133423517Y-80727691D01*
X133480827Y-80365850D01*
X133480827Y-80365848D01*
X133481130Y-80363936D01*
X133482186Y-80364103D01*
X133507735Y-80317008D01*
X133554325Y-80300500D01*
X134634610Y-80300500D01*
X134686936Y-80322174D01*
G37*
%TD.AperFunction*%
%TA.AperFunction,Conductor*%
G36*
X136077102Y-93518209D02*
G01*
X136098762Y-93569158D01*
X136099487Y-93608128D01*
X136099500Y-93609504D01*
X136099500Y-93693617D01*
X136099953Y-93695892D01*
X136101361Y-93708948D01*
X136101404Y-93711266D01*
X136101405Y-93711274D01*
X136119342Y-93793440D01*
X136119623Y-93794786D01*
X136136025Y-93877244D01*
X136136027Y-93877249D01*
X136136915Y-93879393D01*
X136140842Y-93891921D01*
X136141338Y-93894193D01*
X136174970Y-93971302D01*
X136175508Y-93972566D01*
X136193868Y-94016891D01*
X136199500Y-94045206D01*
X136199500Y-94104266D01*
X136202354Y-94134699D01*
X136202354Y-94134701D01*
X136202355Y-94134704D01*
X136224105Y-94196861D01*
X136247207Y-94262882D01*
X136285127Y-94314262D01*
X136313190Y-94352286D01*
X136326823Y-94407258D01*
X136297593Y-94455769D01*
X136253673Y-94470229D01*
X134946074Y-94470633D01*
X134893741Y-94448975D01*
X134872051Y-94396656D01*
X134886510Y-94352692D01*
X134952793Y-94262882D01*
X134978506Y-94189396D01*
X135016243Y-94147167D01*
X135023905Y-94143993D01*
X135112486Y-94112999D01*
X135366601Y-93990626D01*
X135605417Y-93840572D01*
X135825931Y-93664722D01*
X135872640Y-93618013D01*
X135872662Y-93617994D01*
X135876871Y-93613785D01*
X135876873Y-93613784D01*
X135925651Y-93565006D01*
X135972451Y-93518206D01*
X136024777Y-93496534D01*
X136077102Y-93518209D01*
G37*
%TD.AperFunction*%
%TD*%
%TA.AperFunction,Conductor*%
%TO.N,GND*%
G36*
X166498001Y-80322174D02*
G01*
X166517978Y-80364077D01*
X166518870Y-80363936D01*
X166519172Y-80365848D01*
X166519173Y-80365850D01*
X166532300Y-80448733D01*
X166576483Y-80727693D01*
X166671299Y-81081552D01*
X166671302Y-81081559D01*
X166802591Y-81423578D01*
X166968911Y-81750000D01*
X167168441Y-82057248D01*
X167398993Y-82341957D01*
X167658043Y-82601007D01*
X167942752Y-82831559D01*
X168250000Y-83031089D01*
X168576422Y-83197409D01*
X168918441Y-83328698D01*
X168918443Y-83328698D01*
X168918447Y-83328700D01*
X169135612Y-83386889D01*
X169272309Y-83423517D01*
X169634150Y-83480827D01*
X169634151Y-83480827D01*
X169636064Y-83481130D01*
X169635896Y-83482186D01*
X169682992Y-83507735D01*
X169699500Y-83554325D01*
X169699500Y-96727695D01*
X169677826Y-96780021D01*
X169625500Y-96801695D01*
X169594227Y-96794762D01*
X169510545Y-96755741D01*
X169510543Y-96755740D01*
X169463126Y-96749498D01*
X169462799Y-96749477D01*
X169462739Y-96749447D01*
X169460737Y-96749184D01*
X169460826Y-96748503D01*
X169412011Y-96724410D01*
X169393664Y-96675637D01*
X169393664Y-90164111D01*
X169393663Y-90164110D01*
X169366571Y-90063000D01*
X169362963Y-90049535D01*
X169332367Y-89996541D01*
X169303655Y-89946811D01*
X169303654Y-89946810D01*
X169303653Y-89946808D01*
X168939298Y-89582453D01*
X168939267Y-89582417D01*
X168935538Y-89578688D01*
X168916015Y-89559167D01*
X168916000Y-89559131D01*
X168893479Y-89536613D01*
X168850231Y-89493371D01*
X168748220Y-89425221D01*
X168748217Y-89425220D01*
X168748215Y-89425218D01*
X168634874Y-89378285D01*
X168514549Y-89354367D01*
X168514546Y-89354367D01*
X168514525Y-89354367D01*
X168453207Y-89354374D01*
X168453206Y-89354375D01*
X168423551Y-89354379D01*
X168393895Y-89354384D01*
X168279323Y-89385102D01*
X168176607Y-89444425D01*
X168092742Y-89528316D01*
X168092740Y-89528318D01*
X168033448Y-89631050D01*
X168033448Y-89631051D01*
X168002764Y-89745632D01*
X168002764Y-89745634D01*
X168002783Y-89864253D01*
X168033501Y-89978825D01*
X168092824Y-90081541D01*
X168092825Y-90081542D01*
X168092826Y-90081543D01*
X168176715Y-90165406D01*
X168279451Y-90224700D01*
X168298378Y-90229768D01*
X168331563Y-90248924D01*
X168470990Y-90388351D01*
X168492664Y-90440677D01*
X168492664Y-95100424D01*
X168470990Y-95152750D01*
X168418664Y-95174424D01*
X168366338Y-95152750D01*
X168359701Y-95145138D01*
X168292923Y-95057079D01*
X168292921Y-95057077D01*
X168172341Y-94965638D01*
X168087079Y-94932015D01*
X168031564Y-94910123D01*
X168002076Y-94906582D01*
X167943104Y-94899500D01*
X167943102Y-94899500D01*
X166656898Y-94899500D01*
X166656896Y-94899500D01*
X166568436Y-94910123D01*
X166427658Y-94965638D01*
X166307078Y-95057077D01*
X166307077Y-95057078D01*
X166215638Y-95177658D01*
X166160123Y-95318436D01*
X166152923Y-95378397D01*
X166149500Y-95406898D01*
X166149500Y-96193102D01*
X166149500Y-96193104D01*
X166149499Y-96193104D01*
X166160123Y-96281563D01*
X166215638Y-96422341D01*
X166215639Y-96422342D01*
X166307078Y-96542922D01*
X166404153Y-96616536D01*
X166432751Y-96665423D01*
X166418404Y-96720213D01*
X166369517Y-96748811D01*
X166359440Y-96749500D01*
X160436862Y-96749500D01*
X160389456Y-96755740D01*
X160389454Y-96755741D01*
X160285420Y-96804253D01*
X160204253Y-96885420D01*
X160155740Y-96989456D01*
X160149500Y-97036862D01*
X160149500Y-97363137D01*
X160155740Y-97410543D01*
X160155741Y-97410545D01*
X160204253Y-97514579D01*
X160285421Y-97595747D01*
X160389455Y-97644259D01*
X160436861Y-97650500D01*
X160932070Y-97650499D01*
X160932080Y-97650500D01*
X160940691Y-97650500D01*
X168967921Y-97650500D01*
X168967929Y-97650499D01*
X169463138Y-97650499D01*
X169510545Y-97644259D01*
X169594227Y-97605236D01*
X169650809Y-97602767D01*
X169692567Y-97641030D01*
X169699500Y-97672304D01*
X169699500Y-99127695D01*
X169677826Y-99180021D01*
X169625500Y-99201695D01*
X169594227Y-99194762D01*
X169510545Y-99155741D01*
X169510543Y-99155740D01*
X169475619Y-99151142D01*
X169463139Y-99149500D01*
X168959310Y-99149500D01*
X168959309Y-99149500D01*
X160940691Y-99149500D01*
X160940688Y-99149500D01*
X160436862Y-99149500D01*
X160389456Y-99155740D01*
X160389454Y-99155741D01*
X160285420Y-99204253D01*
X160204253Y-99285420D01*
X160155740Y-99389456D01*
X160149500Y-99436862D01*
X160149500Y-99763137D01*
X160155740Y-99810543D01*
X160155741Y-99810545D01*
X160204253Y-99914579D01*
X160285421Y-99995747D01*
X160389455Y-100044259D01*
X160436861Y-100050500D01*
X160932070Y-100050499D01*
X160932080Y-100050500D01*
X160940691Y-100050500D01*
X166359440Y-100050500D01*
X166411766Y-100072174D01*
X166433440Y-100124500D01*
X166411766Y-100176826D01*
X166404157Y-100183459D01*
X166370218Y-100209196D01*
X166307078Y-100257077D01*
X166307077Y-100257078D01*
X166215638Y-100377658D01*
X166160123Y-100518436D01*
X166153414Y-100574307D01*
X166149500Y-100606898D01*
X166149500Y-101393102D01*
X166149500Y-101393104D01*
X166149499Y-101393104D01*
X166157630Y-101460802D01*
X166160123Y-101481564D01*
X166160324Y-101482073D01*
X166215638Y-101622341D01*
X166287220Y-101716735D01*
X166307078Y-101742922D01*
X166427658Y-101834361D01*
X166568436Y-101889877D01*
X166633207Y-101897655D01*
X166656896Y-101900500D01*
X166656898Y-101900500D01*
X167943104Y-101900500D01*
X167958722Y-101898624D01*
X168031564Y-101889877D01*
X168172342Y-101834361D01*
X168292922Y-101742922D01*
X168361541Y-101652434D01*
X168410427Y-101623837D01*
X168465217Y-101638184D01*
X168493815Y-101687071D01*
X168494504Y-101697148D01*
X168494504Y-106154335D01*
X168472830Y-106206661D01*
X168335145Y-106344345D01*
X168301958Y-106363501D01*
X168276569Y-106370298D01*
X168276566Y-106370300D01*
X168173826Y-106429585D01*
X168173821Y-106429588D01*
X168089935Y-106513438D01*
X168089932Y-106513441D01*
X168030598Y-106616154D01*
X168030598Y-106616155D01*
X167999871Y-106730724D01*
X167999845Y-106849343D01*
X168030518Y-106963928D01*
X168089807Y-107066672D01*
X168089808Y-107066674D01*
X168173658Y-107150560D01*
X168173662Y-107150564D01*
X168204696Y-107168491D01*
X168276375Y-107209897D01*
X168307102Y-107218137D01*
X168390946Y-107240624D01*
X168450255Y-107240638D01*
X168450255Y-107240637D01*
X168479820Y-107240644D01*
X168479887Y-107240616D01*
X168480893Y-107240609D01*
X168512718Y-107240617D01*
X168512718Y-107240616D01*
X168512720Y-107240617D01*
X168635244Y-107216274D01*
X168635244Y-107216273D01*
X168635249Y-107216273D01*
X168750677Y-107168493D01*
X168854565Y-107099112D01*
X168854571Y-107099105D01*
X168854681Y-107099016D01*
X168856878Y-107096818D01*
X168856881Y-107096817D01*
X168898732Y-107054966D01*
X168898744Y-107054955D01*
X168944247Y-107009471D01*
X168944386Y-107009310D01*
X169305493Y-106648205D01*
X169364803Y-106545478D01*
X169369296Y-106528709D01*
X169373388Y-106513441D01*
X169394558Y-106434429D01*
X169395504Y-106430900D01*
X169395504Y-100124240D01*
X169417178Y-100071914D01*
X169460907Y-100052110D01*
X169460737Y-100050815D01*
X169463138Y-100050499D01*
X169510545Y-100044259D01*
X169594227Y-100005236D01*
X169650809Y-100002767D01*
X169692567Y-100041030D01*
X169699500Y-100072304D01*
X169699500Y-116445674D01*
X169677826Y-116498000D01*
X169635926Y-116518001D01*
X169636064Y-116518870D01*
X169634151Y-116519172D01*
X169634150Y-116519173D01*
X169549714Y-116532546D01*
X169272306Y-116576483D01*
X168918447Y-116671299D01*
X168576428Y-116802588D01*
X168250001Y-116968910D01*
X167942750Y-117168442D01*
X167658040Y-117398995D01*
X167398995Y-117658040D01*
X167168442Y-117942750D01*
X166968910Y-118250001D01*
X166802588Y-118576428D01*
X166671299Y-118918447D01*
X166576483Y-119272306D01*
X166548326Y-119450087D01*
X166520202Y-119627657D01*
X166518870Y-119636064D01*
X166517813Y-119635896D01*
X166492265Y-119682992D01*
X166445675Y-119699500D01*
X158242945Y-119699500D01*
X158190619Y-119677826D01*
X158168945Y-119625500D01*
X158190619Y-119573174D01*
X158215797Y-119556659D01*
X158272342Y-119534361D01*
X158392922Y-119442922D01*
X158484361Y-119322342D01*
X158539877Y-119181564D01*
X158550500Y-119093102D01*
X158550500Y-118306898D01*
X158550325Y-118305444D01*
X158546630Y-118274671D01*
X158539877Y-118218436D01*
X158484361Y-118077658D01*
X158392922Y-117957078D01*
X158374030Y-117942752D01*
X158340020Y-117916961D01*
X158295846Y-117883463D01*
X158267249Y-117834577D01*
X158281596Y-117779787D01*
X158330483Y-117751189D01*
X158340560Y-117750500D01*
X158436861Y-117750500D01*
X158940691Y-117750500D01*
X162105860Y-117750500D01*
X162115521Y-117751133D01*
X162128494Y-117752841D01*
X162181963Y-117759882D01*
X162200617Y-117764882D01*
X162258005Y-117788654D01*
X162274729Y-117798310D01*
X162308428Y-117824169D01*
X162325744Y-117837457D01*
X162330781Y-117841692D01*
X162337278Y-117847666D01*
X162339517Y-117849812D01*
X162373692Y-117883987D01*
X162377538Y-117886938D01*
X162377451Y-117887050D01*
X162388073Y-117895201D01*
X162434511Y-117941638D01*
X162434512Y-117941639D01*
X162565759Y-118036993D01*
X162578839Y-118046496D01*
X162737796Y-118127483D01*
X162907466Y-118182605D01*
X163083670Y-118210505D01*
X163172870Y-118210500D01*
X166019309Y-118210500D01*
X166019311Y-118210500D01*
X166019311Y-118210499D01*
X166133886Y-118179799D01*
X166136675Y-118178189D01*
X166236613Y-118120490D01*
X166518915Y-117838187D01*
X166552083Y-117819038D01*
X166623886Y-117799799D01*
X166726613Y-117740489D01*
X166810489Y-117656613D01*
X166869799Y-117553886D01*
X166900499Y-117439311D01*
X166900500Y-117439311D01*
X166900500Y-117320689D01*
X166900499Y-117320688D01*
X166897500Y-117309497D01*
X166873115Y-117218488D01*
X166869800Y-117206117D01*
X166869798Y-117206112D01*
X166810491Y-117103390D01*
X166810490Y-117103389D01*
X166810489Y-117103387D01*
X166726613Y-117019511D01*
X166726610Y-117019509D01*
X166726609Y-117019508D01*
X166623887Y-116960201D01*
X166623882Y-116960199D01*
X166509311Y-116929500D01*
X166509309Y-116929500D01*
X166450000Y-116929500D01*
X166419364Y-116929500D01*
X166419336Y-116929511D01*
X166379475Y-116929511D01*
X166241155Y-116957021D01*
X166241151Y-116957022D01*
X166241150Y-116957023D01*
X166233477Y-116960201D01*
X166110846Y-117010988D01*
X166081067Y-117030883D01*
X165993568Y-117089339D01*
X165993562Y-117089344D01*
X165993558Y-117089348D01*
X165988394Y-117094510D01*
X165988331Y-117094566D01*
X165943704Y-117139194D01*
X165943699Y-117139199D01*
X165898688Y-117184201D01*
X165898633Y-117184263D01*
X165795071Y-117287826D01*
X165742745Y-117309500D01*
X163237076Y-117309500D01*
X163237031Y-117309497D01*
X163232124Y-117309497D01*
X163222340Y-117309497D01*
X163177659Y-117309499D01*
X163168002Y-117308866D01*
X163122346Y-117302858D01*
X163103686Y-117297859D01*
X163065655Y-117282108D01*
X163048927Y-117272450D01*
X163014832Y-117246289D01*
X163009789Y-117242050D01*
X163003024Y-117235829D01*
X163000789Y-117233686D01*
X162966612Y-117199510D01*
X162962766Y-117196559D01*
X162962842Y-117196459D01*
X162952123Y-117188234D01*
X162901313Y-117137423D01*
X162746781Y-117025146D01*
X162576588Y-116938424D01*
X162576579Y-116938420D01*
X162394933Y-116879394D01*
X162394927Y-116879392D01*
X162394925Y-116879392D01*
X162206264Y-116849504D01*
X162206259Y-116849503D01*
X162206260Y-116849503D01*
X162174110Y-116849502D01*
X162174070Y-116849500D01*
X162170045Y-116849500D01*
X162110757Y-116849500D01*
X162051448Y-116849498D01*
X162051447Y-116849498D01*
X162046307Y-116849498D01*
X162046279Y-116849500D01*
X151036862Y-116849500D01*
X150989456Y-116855740D01*
X150989454Y-116855741D01*
X150885420Y-116904253D01*
X150804253Y-116985420D01*
X150755740Y-117089456D01*
X150749500Y-117136862D01*
X150749500Y-117463137D01*
X150755740Y-117510543D01*
X150755741Y-117510545D01*
X150804253Y-117614579D01*
X150885421Y-117695747D01*
X150989455Y-117744259D01*
X151036861Y-117750500D01*
X151532070Y-117750499D01*
X151532080Y-117750500D01*
X151540691Y-117750500D01*
X152759440Y-117750500D01*
X152811766Y-117772174D01*
X152833440Y-117824500D01*
X152811766Y-117876826D01*
X152804157Y-117883459D01*
X152794795Y-117890560D01*
X152707078Y-117957077D01*
X152707077Y-117957078D01*
X152615638Y-118077658D01*
X152560123Y-118218436D01*
X152549675Y-118305444D01*
X152549500Y-118306898D01*
X152549500Y-119093102D01*
X152549500Y-119093104D01*
X152549499Y-119093104D01*
X152560123Y-119181563D01*
X152615638Y-119322341D01*
X152684299Y-119412883D01*
X152707078Y-119442922D01*
X152827658Y-119534361D01*
X152884202Y-119556659D01*
X152924929Y-119596018D01*
X152925896Y-119652647D01*
X152886537Y-119693374D01*
X152857055Y-119699500D01*
X150842945Y-119699500D01*
X150790619Y-119677826D01*
X150768945Y-119625500D01*
X150790619Y-119573174D01*
X150815797Y-119556659D01*
X150872342Y-119534361D01*
X150992922Y-119442922D01*
X151084361Y-119322342D01*
X151139877Y-119181564D01*
X151150500Y-119093102D01*
X151150500Y-118306898D01*
X151150325Y-118305444D01*
X151146630Y-118274671D01*
X151139877Y-118218436D01*
X151084361Y-118077658D01*
X150992922Y-117957078D01*
X150974031Y-117942752D01*
X150872341Y-117865638D01*
X150767182Y-117824169D01*
X150731564Y-117810123D01*
X150702076Y-117806582D01*
X150643104Y-117799500D01*
X150643102Y-117799500D01*
X149922174Y-117799500D01*
X149869848Y-117777826D01*
X149848174Y-117725540D01*
X149847507Y-116492208D01*
X149847308Y-116123949D01*
X149868954Y-116071612D01*
X149921266Y-116049910D01*
X160029292Y-116047118D01*
X160067535Y-116039505D01*
X160089932Y-116030227D01*
X160089931Y-116030226D01*
X160104586Y-116024157D01*
X160104589Y-116024155D01*
X160121601Y-116017110D01*
X160146775Y-116002022D01*
X160169506Y-115983367D01*
X160176852Y-115976702D01*
X160602623Y-115550027D01*
X160819287Y-115332903D01*
X163399500Y-115332903D01*
X163399500Y-116972399D01*
X163407176Y-117010988D01*
X163411133Y-117030883D01*
X163440608Y-117074994D01*
X163455448Y-117097203D01*
X163499560Y-117126678D01*
X163521767Y-117141517D01*
X163521768Y-117141517D01*
X163521769Y-117141518D01*
X163580252Y-117153151D01*
X163580254Y-117153151D01*
X165219746Y-117153151D01*
X165219748Y-117153151D01*
X165278231Y-117141518D01*
X165344552Y-117097203D01*
X165388867Y-117030882D01*
X165400500Y-116972399D01*
X165400500Y-115332903D01*
X165388867Y-115274420D01*
X165344552Y-115208099D01*
X165322343Y-115193259D01*
X165278232Y-115163784D01*
X165278233Y-115163784D01*
X165248989Y-115157967D01*
X165219748Y-115152151D01*
X163580252Y-115152151D01*
X163551010Y-115157967D01*
X163521767Y-115163784D01*
X163455449Y-115208098D01*
X163455447Y-115208100D01*
X163411133Y-115274418D01*
X163411133Y-115274420D01*
X163399500Y-115332903D01*
X160819287Y-115332903D01*
X161350561Y-114800500D01*
X162095507Y-114053971D01*
X162117109Y-114021603D01*
X162120745Y-114012826D01*
X162136972Y-113973649D01*
X162139506Y-113967531D01*
X162147118Y-113929263D01*
X162147118Y-113870737D01*
X162139506Y-113832470D01*
X162117109Y-113778397D01*
X162095432Y-113745953D01*
X162054047Y-113704568D01*
X162021603Y-113682891D01*
X161990961Y-113670199D01*
X161967531Y-113660494D01*
X161967522Y-113660492D01*
X161941788Y-113655373D01*
X161929263Y-113652882D01*
X161870737Y-113652882D01*
X161832475Y-113660492D01*
X161832464Y-113660495D01*
X161778393Y-113682892D01*
X161778392Y-113682892D01*
X161753226Y-113697976D01*
X161730499Y-113716628D01*
X161730489Y-113716637D01*
X161723157Y-113723288D01*
X161723138Y-113723306D01*
X159921965Y-115528305D01*
X159869662Y-115550035D01*
X159869604Y-115550035D01*
X158624520Y-115550378D01*
X158572189Y-115528718D01*
X158550500Y-115476398D01*
X158550500Y-114706895D01*
X158545457Y-114664906D01*
X158539877Y-114618436D01*
X158484361Y-114477658D01*
X158392922Y-114357078D01*
X158362673Y-114334139D01*
X158272341Y-114265638D01*
X158187079Y-114232015D01*
X158131564Y-114210123D01*
X158097072Y-114205981D01*
X158043104Y-114199500D01*
X158043102Y-114199500D01*
X156756898Y-114199500D01*
X156756896Y-114199500D01*
X156668436Y-114210123D01*
X156527658Y-114265638D01*
X156407078Y-114357077D01*
X156407077Y-114357078D01*
X156315638Y-114477658D01*
X156260123Y-114618436D01*
X156249500Y-114706895D01*
X156249500Y-115477056D01*
X156227826Y-115529382D01*
X156175520Y-115551056D01*
X154924520Y-115551401D01*
X154872189Y-115529741D01*
X154850500Y-115477421D01*
X154850500Y-114706895D01*
X154845457Y-114664906D01*
X154839877Y-114618436D01*
X154784361Y-114477658D01*
X154692922Y-114357078D01*
X154662673Y-114334139D01*
X154572341Y-114265638D01*
X154487079Y-114232015D01*
X154431564Y-114210123D01*
X154397072Y-114205981D01*
X154343104Y-114199500D01*
X154343102Y-114199500D01*
X153056898Y-114199500D01*
X153056896Y-114199500D01*
X152968436Y-114210123D01*
X152827658Y-114265638D01*
X152707078Y-114357077D01*
X152707077Y-114357078D01*
X152615638Y-114477658D01*
X152560123Y-114618436D01*
X152549500Y-114706895D01*
X152549500Y-115478078D01*
X152527826Y-115530404D01*
X152475520Y-115552078D01*
X151224520Y-115552424D01*
X151172189Y-115530764D01*
X151150500Y-115478444D01*
X151150500Y-114706895D01*
X151145457Y-114664906D01*
X151139877Y-114618436D01*
X151084361Y-114477658D01*
X150992922Y-114357078D01*
X150962673Y-114334139D01*
X150872341Y-114265638D01*
X150787079Y-114232015D01*
X150731564Y-114210123D01*
X150697072Y-114205981D01*
X150643104Y-114199500D01*
X150643102Y-114199500D01*
X149356898Y-114199500D01*
X149356896Y-114199500D01*
X149268436Y-114210123D01*
X149127658Y-114265638D01*
X149007078Y-114357077D01*
X149007077Y-114357078D01*
X148915638Y-114477658D01*
X148860123Y-114618436D01*
X148854543Y-114664906D01*
X148849500Y-114706898D01*
X148849500Y-115493102D01*
X148849500Y-115493104D01*
X148849499Y-115493104D01*
X148856626Y-115552447D01*
X148860123Y-115581564D01*
X148872451Y-115612826D01*
X148915638Y-115722341D01*
X148938958Y-115753092D01*
X149007078Y-115842922D01*
X149127658Y-115934361D01*
X149268436Y-115989877D01*
X149268441Y-115989877D01*
X149268443Y-115989878D01*
X149284963Y-115991862D01*
X149334332Y-116019619D01*
X149350142Y-116065294D01*
X149351045Y-117734517D01*
X149329399Y-117786855D01*
X149285871Y-117808029D01*
X149268435Y-117810123D01*
X149127658Y-117865638D01*
X149007078Y-117957077D01*
X149007077Y-117957078D01*
X148915638Y-118077658D01*
X148860123Y-118218436D01*
X148849675Y-118305444D01*
X148849500Y-118306898D01*
X148849500Y-119093102D01*
X148849500Y-119093104D01*
X148849499Y-119093104D01*
X148860123Y-119181563D01*
X148915638Y-119322341D01*
X148984299Y-119412883D01*
X149007078Y-119442922D01*
X149127658Y-119534361D01*
X149184202Y-119556659D01*
X149224929Y-119596018D01*
X149225896Y-119652647D01*
X149186537Y-119693374D01*
X149157055Y-119699500D01*
X148314603Y-119699500D01*
X148262277Y-119677826D01*
X148240603Y-119625500D01*
X148253075Y-119584387D01*
X148261348Y-119572006D01*
X148292033Y-119497926D01*
X148301548Y-119450091D01*
X148305497Y-119410000D01*
X148305497Y-119336112D01*
X148305502Y-119335702D01*
X148305502Y-118034999D01*
X148305495Y-118034742D01*
X148305258Y-118024987D01*
X148303336Y-117985587D01*
X148287938Y-117916961D01*
X148287937Y-117916960D01*
X148287937Y-117916957D01*
X148287936Y-117916955D01*
X148266680Y-117865638D01*
X148257783Y-117844158D01*
X148257776Y-117844147D01*
X148213241Y-117777492D01*
X148213232Y-117777482D01*
X148157522Y-117721771D01*
X148157517Y-117721767D01*
X148090846Y-117677219D01*
X148018046Y-117647063D01*
X148018043Y-117647062D01*
X147949407Y-117631664D01*
X147949399Y-117631663D01*
X147910016Y-117629744D01*
X147900771Y-117629518D01*
X147900002Y-117629500D01*
X147400002Y-117629500D01*
X147387297Y-117630595D01*
X147364839Y-117632530D01*
X147280470Y-117667839D01*
X147219780Y-117736255D01*
X147157700Y-117849558D01*
X147153019Y-117857013D01*
X147004207Y-118065342D01*
X146997829Y-118073097D01*
X146823809Y-118257640D01*
X146816441Y-118264461D01*
X146619033Y-118423755D01*
X146610809Y-118429516D01*
X146393660Y-118560615D01*
X146384732Y-118565209D01*
X146151837Y-118665705D01*
X146142370Y-118669049D01*
X145898001Y-118737096D01*
X145888168Y-118739127D01*
X145636850Y-118773466D01*
X145626832Y-118774147D01*
X145373172Y-118774147D01*
X145363154Y-118773466D01*
X145111834Y-118739127D01*
X145102001Y-118737096D01*
X144857632Y-118669049D01*
X144848165Y-118665705D01*
X144615270Y-118565209D01*
X144606342Y-118560615D01*
X144497767Y-118495065D01*
X144389189Y-118429513D01*
X144380973Y-118423758D01*
X144219630Y-118293566D01*
X144183561Y-118264461D01*
X144176193Y-118257640D01*
X144002173Y-118073097D01*
X143995795Y-118065342D01*
X143975545Y-118036993D01*
X143846980Y-117857008D01*
X143842302Y-117849557D01*
X143780228Y-117736264D01*
X143780228Y-117736263D01*
X143760668Y-117706872D01*
X143760667Y-117706871D01*
X143689169Y-117649853D01*
X143689167Y-117649852D01*
X143689165Y-117649851D01*
X143600002Y-117629500D01*
X143100002Y-117629500D01*
X143098048Y-117629540D01*
X143091388Y-117629680D01*
X143051951Y-117631332D01*
X143051949Y-117631332D01*
X142981911Y-117646793D01*
X142981903Y-117646796D01*
X142909010Y-117676988D01*
X142908996Y-117676996D01*
X142842341Y-117721531D01*
X142842331Y-117721540D01*
X142786544Y-117777326D01*
X142784234Y-117780142D01*
X142783114Y-117779223D01*
X142739925Y-117808079D01*
X142725492Y-117809500D01*
X141038344Y-117809500D01*
X141038342Y-117809499D01*
X141007691Y-117809499D01*
X140903596Y-117809499D01*
X140898857Y-117810123D01*
X140697193Y-117836673D01*
X140496096Y-117890556D01*
X140496085Y-117890560D01*
X140463960Y-117903867D01*
X140435642Y-117909500D01*
X140066735Y-117909500D01*
X139998606Y-117919427D01*
X139998605Y-117919427D01*
X139893517Y-117970801D01*
X139827326Y-118036993D01*
X139775000Y-118058667D01*
X139722674Y-118036993D01*
X139656482Y-117970801D01*
X139551394Y-117919427D01*
X139483264Y-117909500D01*
X139483260Y-117909500D01*
X139116740Y-117909500D01*
X139116735Y-117909500D01*
X139048606Y-117919427D01*
X139048605Y-117919427D01*
X138943517Y-117970801D01*
X138877326Y-118036993D01*
X138825000Y-118058667D01*
X138772674Y-118036993D01*
X138706482Y-117970801D01*
X138601394Y-117919427D01*
X138533264Y-117909500D01*
X138533260Y-117909500D01*
X138166740Y-117909500D01*
X138166735Y-117909500D01*
X138098606Y-117919427D01*
X138098605Y-117919427D01*
X137993517Y-117970801D01*
X137910801Y-118053517D01*
X137875604Y-118125513D01*
X137850232Y-118154543D01*
X137809846Y-118181525D01*
X137808109Y-118182651D01*
X137750480Y-118218863D01*
X137711326Y-118258018D01*
X137711320Y-118258024D01*
X137698096Y-118271245D01*
X137690825Y-118277620D01*
X137677775Y-118287634D01*
X137661045Y-118297294D01*
X137650372Y-118301715D01*
X137631709Y-118306715D01*
X137615366Y-118308866D01*
X137605710Y-118309499D01*
X137527142Y-118309499D01*
X137527126Y-118309500D01*
X137488035Y-118309500D01*
X137435709Y-118287826D01*
X137414035Y-118235500D01*
X137435709Y-118183174D01*
X137547771Y-118071111D01*
X137628154Y-117935191D01*
X137672210Y-117783551D01*
X137675000Y-117748110D01*
X137675000Y-117660000D01*
X135925000Y-117660000D01*
X135925000Y-117748110D01*
X135927789Y-117783551D01*
X135971845Y-117935191D01*
X136052228Y-118071111D01*
X136164291Y-118183174D01*
X136185965Y-118235500D01*
X136164291Y-118287826D01*
X136111965Y-118309500D01*
X135969767Y-118309500D01*
X135917441Y-118287826D01*
X135910227Y-118279442D01*
X135872153Y-118227853D01*
X135872146Y-118227846D01*
X135762883Y-118147207D01*
X135762881Y-118147206D01*
X135634704Y-118102355D01*
X135634705Y-118102355D01*
X135634700Y-118102354D01*
X135634699Y-118102354D01*
X135604266Y-118099500D01*
X134195734Y-118099500D01*
X134165301Y-118102354D01*
X134165299Y-118102354D01*
X134165295Y-118102355D01*
X134037118Y-118147206D01*
X134037116Y-118147207D01*
X133927853Y-118227846D01*
X133927846Y-118227853D01*
X133847207Y-118337116D01*
X133847206Y-118337118D01*
X133802355Y-118465295D01*
X133802354Y-118465299D01*
X133802354Y-118465301D01*
X133799500Y-118495734D01*
X133799500Y-119254266D01*
X133802354Y-119284699D01*
X133802354Y-119284701D01*
X133802355Y-119284704D01*
X133847206Y-119412881D01*
X133847207Y-119412883D01*
X133927846Y-119522146D01*
X133927853Y-119522153D01*
X133987210Y-119565960D01*
X134016441Y-119614470D01*
X134002808Y-119669442D01*
X133954298Y-119698673D01*
X133943268Y-119699500D01*
X133554325Y-119699500D01*
X133501999Y-119677826D01*
X133482021Y-119635922D01*
X133481130Y-119636064D01*
X133480633Y-119632926D01*
X133423517Y-119272309D01*
X133375499Y-119093104D01*
X133328700Y-118918447D01*
X133273309Y-118774147D01*
X133197409Y-118576422D01*
X133031089Y-118250000D01*
X132831559Y-117942752D01*
X132601007Y-117658043D01*
X132341957Y-117398993D01*
X132057248Y-117168441D01*
X131750000Y-116968911D01*
X131423578Y-116802591D01*
X131423573Y-116802589D01*
X131423571Y-116802588D01*
X131081552Y-116671299D01*
X130727693Y-116576483D01*
X130479717Y-116537207D01*
X130365850Y-116519173D01*
X130365848Y-116519172D01*
X130363936Y-116518870D01*
X130364099Y-116517839D01*
X130316962Y-116492208D01*
X130300500Y-116445674D01*
X130300500Y-116315641D01*
X133600000Y-116315641D01*
X133602900Y-116352493D01*
X133648718Y-116510199D01*
X133732317Y-116651556D01*
X133848443Y-116767682D01*
X133989800Y-116851281D01*
X134147508Y-116897099D01*
X134147505Y-116897099D01*
X134184359Y-116900000D01*
X134700000Y-116900000D01*
X135100000Y-116900000D01*
X135615641Y-116900000D01*
X135652493Y-116897099D01*
X135810196Y-116851282D01*
X135932157Y-116779154D01*
X135988229Y-116771174D01*
X136033522Y-116805179D01*
X136041502Y-116861251D01*
X136033522Y-116880518D01*
X135971845Y-116984807D01*
X135927789Y-117136448D01*
X135925000Y-117171889D01*
X135925000Y-117260000D01*
X136600000Y-117260000D01*
X137000000Y-117260000D01*
X137675000Y-117260000D01*
X137675000Y-117171889D01*
X137672210Y-117136448D01*
X137628154Y-116984808D01*
X137547771Y-116848888D01*
X137436111Y-116737228D01*
X137300191Y-116656845D01*
X137148551Y-116612789D01*
X137113110Y-116610000D01*
X137000000Y-116610000D01*
X137000000Y-117260000D01*
X136600000Y-117260000D01*
X136600000Y-116610000D01*
X136486890Y-116610000D01*
X136451448Y-116612789D01*
X136299807Y-116656845D01*
X136186092Y-116724096D01*
X136130019Y-116732076D01*
X136084728Y-116698070D01*
X136076748Y-116641997D01*
X136084729Y-116622731D01*
X136151281Y-116510200D01*
X136197099Y-116352493D01*
X136200000Y-116315641D01*
X136200000Y-116125000D01*
X135100000Y-116125000D01*
X135100000Y-116900000D01*
X134700000Y-116900000D01*
X134700000Y-116125000D01*
X133600000Y-116125000D01*
X133600000Y-116315641D01*
X130300500Y-116315641D01*
X130300500Y-115534358D01*
X133600000Y-115534358D01*
X133600000Y-115725000D01*
X134700000Y-115725000D01*
X135100000Y-115725000D01*
X136200000Y-115725000D01*
X136200000Y-115534358D01*
X136197099Y-115497506D01*
X136151281Y-115339800D01*
X136067682Y-115198443D01*
X135951556Y-115082317D01*
X135810199Y-114998718D01*
X135652491Y-114952900D01*
X135652494Y-114952900D01*
X135615641Y-114950000D01*
X135100000Y-114950000D01*
X135100000Y-115725000D01*
X134700000Y-115725000D01*
X134700000Y-114950000D01*
X134184359Y-114950000D01*
X134147506Y-114952900D01*
X133989800Y-114998718D01*
X133848443Y-115082317D01*
X133732317Y-115198443D01*
X133648718Y-115339800D01*
X133602900Y-115497506D01*
X133600000Y-115534358D01*
X130300500Y-115534358D01*
X130300500Y-112443104D01*
X130499499Y-112443104D01*
X130506123Y-112498257D01*
X130510123Y-112531564D01*
X130519657Y-112555740D01*
X130565638Y-112672341D01*
X130654450Y-112789456D01*
X130657078Y-112792922D01*
X130777658Y-112884361D01*
X130918436Y-112939877D01*
X130989764Y-112948442D01*
X131006896Y-112950500D01*
X131006898Y-112950500D01*
X131189418Y-112950500D01*
X131241744Y-112972174D01*
X131263418Y-113024500D01*
X131250947Y-113065611D01*
X131249226Y-113068186D01*
X131249224Y-113068190D01*
X131196421Y-113195667D01*
X131196418Y-113195677D01*
X131173945Y-113308656D01*
X131169500Y-113331007D01*
X131169500Y-113468993D01*
X131178153Y-113512493D01*
X131196418Y-113604322D01*
X131196421Y-113604332D01*
X131249223Y-113731808D01*
X131249224Y-113731809D01*
X131249225Y-113731811D01*
X131325730Y-113846309D01*
X131327029Y-113848252D01*
X131339500Y-113889364D01*
X131339500Y-114168991D01*
X131366418Y-114304322D01*
X131366421Y-114304332D01*
X131419223Y-114431808D01*
X131487932Y-114534639D01*
X131495886Y-114546542D01*
X131593458Y-114644114D01*
X131708189Y-114720775D01*
X131835672Y-114773580D01*
X131971007Y-114800500D01*
X131971009Y-114800500D01*
X132368991Y-114800500D01*
X132368993Y-114800500D01*
X132504328Y-114773580D01*
X132631811Y-114720775D01*
X132746542Y-114644114D01*
X132844114Y-114546542D01*
X132920775Y-114431811D01*
X132973580Y-114304328D01*
X132975654Y-114293899D01*
X133007117Y-114246808D01*
X133016952Y-114241271D01*
X133114579Y-114195747D01*
X133195747Y-114114579D01*
X133244259Y-114010545D01*
X133250500Y-113963139D01*
X133250499Y-113860882D01*
X133251410Y-113849305D01*
X133251885Y-113846309D01*
X133257925Y-113808172D01*
X133269486Y-113778637D01*
X133300775Y-113731811D01*
X133353580Y-113604328D01*
X133380500Y-113468993D01*
X133380500Y-113331007D01*
X133353580Y-113195672D01*
X133300775Y-113068189D01*
X133262970Y-113011610D01*
X133250499Y-112970498D01*
X133250499Y-112836862D01*
X133244259Y-112789456D01*
X133244259Y-112789455D01*
X133195747Y-112685421D01*
X133114579Y-112604253D01*
X133010545Y-112555741D01*
X133010543Y-112555740D01*
X132975619Y-112551142D01*
X132963139Y-112549500D01*
X132963137Y-112549500D01*
X132636862Y-112549500D01*
X132589456Y-112555740D01*
X132589454Y-112555741D01*
X132485420Y-112604253D01*
X132411848Y-112677826D01*
X132359522Y-112699500D01*
X132332380Y-112699500D01*
X132280054Y-112677826D01*
X132258380Y-112625500D01*
X132263539Y-112598353D01*
X132270147Y-112581593D01*
X132289877Y-112531564D01*
X132300500Y-112443104D01*
X134099499Y-112443104D01*
X134106123Y-112498257D01*
X134110123Y-112531564D01*
X134119657Y-112555740D01*
X134165638Y-112672341D01*
X134254450Y-112789456D01*
X134257078Y-112792922D01*
X134377658Y-112884361D01*
X134518436Y-112939877D01*
X134589764Y-112948442D01*
X134606896Y-112950500D01*
X134606898Y-112950500D01*
X135393104Y-112950500D01*
X135408722Y-112948624D01*
X135481564Y-112939877D01*
X135622342Y-112884361D01*
X135696032Y-112828480D01*
X135974500Y-112828480D01*
X135974500Y-113441519D01*
X135989353Y-113535304D01*
X135989354Y-113535306D01*
X136046950Y-113648342D01*
X136136658Y-113738050D01*
X136158714Y-113749288D01*
X136252041Y-113796841D01*
X136288823Y-113839908D01*
X136290590Y-113846309D01*
X136314630Y-113951641D01*
X136314632Y-113951647D01*
X136314633Y-113951651D01*
X136365840Y-114097996D01*
X136403625Y-114205981D01*
X136403628Y-114205988D01*
X136520532Y-114448749D01*
X136520534Y-114448753D01*
X136520535Y-114448754D01*
X136539506Y-114478947D01*
X136563158Y-114516588D01*
X136574500Y-114555958D01*
X136574500Y-115041519D01*
X136589353Y-115135304D01*
X136589354Y-115135306D01*
X136646950Y-115248342D01*
X136736658Y-115338050D01*
X136849696Y-115395646D01*
X136943481Y-115410500D01*
X137324165Y-115410499D01*
X137376491Y-115432173D01*
X137684671Y-115740353D01*
X137688616Y-115744621D01*
X137791766Y-115865400D01*
X137798589Y-115874791D01*
X137838596Y-115940079D01*
X137849500Y-115978741D01*
X137849500Y-117043264D01*
X137859427Y-117111393D01*
X137859427Y-117111394D01*
X137910801Y-117216482D01*
X137910802Y-117216483D01*
X137993517Y-117299198D01*
X138098607Y-117350573D01*
X138166740Y-117360500D01*
X138166746Y-117360500D01*
X138533254Y-117360500D01*
X138533260Y-117360500D01*
X138601393Y-117350573D01*
X138631783Y-117335715D01*
X138688310Y-117332205D01*
X138723247Y-117357482D01*
X138757433Y-117402562D01*
X138877907Y-117493922D01*
X139018557Y-117549386D01*
X139018562Y-117549387D01*
X139099999Y-117559166D01*
X139500000Y-117559166D01*
X139581437Y-117549387D01*
X139581442Y-117549386D01*
X139722092Y-117493922D01*
X139842566Y-117402563D01*
X139876751Y-117357483D01*
X139925638Y-117328885D01*
X139968215Y-117335715D01*
X139981056Y-117341993D01*
X139998604Y-117350572D01*
X139998605Y-117350572D01*
X139998607Y-117350573D01*
X140066740Y-117360500D01*
X140066746Y-117360500D01*
X140433254Y-117360500D01*
X140433260Y-117360500D01*
X140501393Y-117350573D01*
X140606483Y-117299198D01*
X140689198Y-117216483D01*
X140740573Y-117111393D01*
X140750500Y-117043260D01*
X140750500Y-116933334D01*
X140772174Y-116881008D01*
X140824500Y-116859334D01*
X140830292Y-116859561D01*
X140869809Y-116862672D01*
X140881276Y-116864489D01*
X140911258Y-116871687D01*
X141057415Y-116906778D01*
X141068444Y-116910362D01*
X141078816Y-116914658D01*
X141118866Y-116954703D01*
X141124500Y-116983025D01*
X141124500Y-117218488D01*
X141140280Y-117318125D01*
X141140281Y-117318126D01*
X141183303Y-117402563D01*
X141201472Y-117438220D01*
X141296780Y-117533528D01*
X141416874Y-117594719D01*
X141516511Y-117610500D01*
X141516512Y-117610500D01*
X142083489Y-117610500D01*
X142133307Y-117602609D01*
X142183126Y-117594719D01*
X142303220Y-117533528D01*
X142398528Y-117438220D01*
X142459719Y-117318126D01*
X142475500Y-117218488D01*
X142475500Y-116701512D01*
X142468425Y-116656845D01*
X142459719Y-116601874D01*
X142459718Y-116601873D01*
X142446781Y-116576483D01*
X142398528Y-116481780D01*
X142303220Y-116386472D01*
X142303219Y-116386471D01*
X142183126Y-116325281D01*
X142183125Y-116325280D01*
X142083489Y-116309500D01*
X142083488Y-116309500D01*
X141516512Y-116309500D01*
X141516508Y-116309500D01*
X141495903Y-116312763D01*
X141456010Y-116308041D01*
X141305005Y-116245492D01*
X141305000Y-116245490D01*
X141304999Y-116245490D01*
X141239482Y-116227934D01*
X141060675Y-116180020D01*
X140814840Y-116147652D01*
X140765791Y-116119333D01*
X140750500Y-116074285D01*
X140750500Y-115951746D01*
X140750500Y-115951740D01*
X140740573Y-115883607D01*
X140689198Y-115778517D01*
X140606483Y-115695802D01*
X140606482Y-115695801D01*
X140501394Y-115644427D01*
X140433264Y-115634500D01*
X140433260Y-115634500D01*
X140066740Y-115634500D01*
X140066735Y-115634500D01*
X139998607Y-115644427D01*
X139968214Y-115659285D01*
X139911686Y-115662793D01*
X139876751Y-115637516D01*
X139842566Y-115592436D01*
X139722092Y-115501077D01*
X139581445Y-115445614D01*
X139500000Y-115435832D01*
X139500000Y-117559166D01*
X139099999Y-117559166D01*
X139100000Y-117559165D01*
X139100000Y-115435832D01*
X139018554Y-115445614D01*
X138877907Y-115501077D01*
X138757432Y-115592437D01*
X138723247Y-115637517D01*
X138674359Y-115666114D01*
X138631784Y-115659284D01*
X138601394Y-115644427D01*
X138533264Y-115634500D01*
X138533260Y-115634500D01*
X138518603Y-115634500D01*
X138466277Y-115612826D01*
X138454517Y-115597499D01*
X138427114Y-115550035D01*
X138405547Y-115512678D01*
X138390526Y-115493102D01*
X138264400Y-115328724D01*
X138264397Y-115328720D01*
X138219263Y-115283583D01*
X138219250Y-115283568D01*
X138173902Y-115238220D01*
X138173901Y-115238218D01*
X138139979Y-115204294D01*
X138139951Y-115204269D01*
X137797173Y-114861491D01*
X137775499Y-114809165D01*
X137775499Y-114428480D01*
X137760646Y-114334695D01*
X137760645Y-114334693D01*
X137730770Y-114276061D01*
X137703050Y-114221658D01*
X137613342Y-114131950D01*
X137500304Y-114074354D01*
X137500302Y-114074353D01*
X137500301Y-114074353D01*
X137406520Y-114059500D01*
X137406519Y-114059500D01*
X137161540Y-114059500D01*
X137109214Y-114037826D01*
X137095171Y-114018229D01*
X137066702Y-113960500D01*
X137056902Y-113940626D01*
X137053199Y-113931686D01*
X137029165Y-113860883D01*
X137008817Y-113800937D01*
X137012522Y-113744422D01*
X137026559Y-113724832D01*
X137103050Y-113648342D01*
X137160646Y-113535304D01*
X137175500Y-113441519D01*
X137175499Y-112828482D01*
X137169867Y-112792922D01*
X137160646Y-112734695D01*
X137160645Y-112734693D01*
X137118840Y-112652647D01*
X137103050Y-112621658D01*
X137013342Y-112531950D01*
X136900304Y-112474354D01*
X136900302Y-112474353D01*
X136900301Y-112474353D01*
X136806519Y-112459500D01*
X136343480Y-112459500D01*
X136249695Y-112474353D01*
X136249693Y-112474354D01*
X136136657Y-112531950D01*
X136046951Y-112621656D01*
X135989353Y-112734698D01*
X135974500Y-112828480D01*
X135696032Y-112828480D01*
X135742922Y-112792922D01*
X135834361Y-112672342D01*
X135889877Y-112531564D01*
X135900500Y-112443102D01*
X135900500Y-111156898D01*
X135889877Y-111068436D01*
X135834361Y-110927658D01*
X135742922Y-110807078D01*
X135653622Y-110739359D01*
X135622341Y-110715638D01*
X135537079Y-110682015D01*
X135481564Y-110660123D01*
X135452076Y-110656582D01*
X135393104Y-110649500D01*
X135393102Y-110649500D01*
X134606898Y-110649500D01*
X134606896Y-110649500D01*
X134518436Y-110660123D01*
X134377658Y-110715638D01*
X134257078Y-110807077D01*
X134257077Y-110807078D01*
X134165638Y-110927658D01*
X134110123Y-111068436D01*
X134102130Y-111135000D01*
X134099500Y-111156898D01*
X134099500Y-112443102D01*
X134099500Y-112443104D01*
X134099499Y-112443104D01*
X132300500Y-112443104D01*
X132300500Y-112443102D01*
X132300500Y-111156898D01*
X132289877Y-111068436D01*
X132234361Y-110927658D01*
X132142922Y-110807078D01*
X132053622Y-110739359D01*
X132022341Y-110715638D01*
X131937079Y-110682015D01*
X131881564Y-110660123D01*
X131852076Y-110656582D01*
X131793104Y-110649500D01*
X131793102Y-110649500D01*
X131006898Y-110649500D01*
X131006896Y-110649500D01*
X130918436Y-110660123D01*
X130777658Y-110715638D01*
X130657078Y-110807077D01*
X130657077Y-110807078D01*
X130565638Y-110927658D01*
X130510123Y-111068436D01*
X130502130Y-111135000D01*
X130499500Y-111156898D01*
X130499500Y-112443102D01*
X130499500Y-112443104D01*
X130499499Y-112443104D01*
X130300500Y-112443104D01*
X130300500Y-95603575D01*
X130322174Y-95551249D01*
X130374476Y-95529575D01*
X131658168Y-95529179D01*
X131710501Y-95550837D01*
X131732191Y-95603156D01*
X131728039Y-95627619D01*
X131714854Y-95665297D01*
X131714854Y-95665301D01*
X131712000Y-95695734D01*
X131712000Y-97104266D01*
X131714854Y-97134699D01*
X131714854Y-97134701D01*
X131714855Y-97134704D01*
X131753068Y-97243910D01*
X131759707Y-97262882D01*
X131825463Y-97351979D01*
X131840350Y-97372150D01*
X131844274Y-97376074D01*
X131842687Y-97377659D01*
X131866792Y-97415632D01*
X131875994Y-97461880D01*
X131875999Y-97461903D01*
X131964138Y-97752441D01*
X131964145Y-97752462D01*
X132080344Y-98032983D01*
X132080344Y-98032984D01*
X132223483Y-98300774D01*
X132223489Y-98300784D01*
X132388124Y-98547174D01*
X132392185Y-98553251D01*
X132467400Y-98644901D01*
X132533326Y-98725232D01*
X132549211Y-98760598D01*
X132552778Y-98783117D01*
X132552782Y-98783128D01*
X132613971Y-98903219D01*
X132702826Y-98992074D01*
X132724500Y-99044400D01*
X132724500Y-99511667D01*
X132702826Y-99563993D01*
X132623301Y-99643517D01*
X132571927Y-99748605D01*
X132571927Y-99748606D01*
X132562000Y-99816735D01*
X132562000Y-100183264D01*
X132571927Y-100251393D01*
X132571927Y-100251394D01*
X132623301Y-100356482D01*
X132702826Y-100436007D01*
X132724500Y-100488333D01*
X132724500Y-101411667D01*
X132702826Y-101463993D01*
X132623301Y-101543517D01*
X132571927Y-101648605D01*
X132571927Y-101648606D01*
X132562000Y-101716735D01*
X132562000Y-102083264D01*
X132571927Y-102151393D01*
X132571927Y-102151394D01*
X132623301Y-102256482D01*
X132702826Y-102336007D01*
X132724500Y-102388333D01*
X132724500Y-103288827D01*
X132702826Y-103341153D01*
X132672345Y-103359529D01*
X132669929Y-103360275D01*
X132555842Y-103416049D01*
X132466049Y-103505842D01*
X132410276Y-103619926D01*
X132399500Y-103693885D01*
X132399500Y-109106114D01*
X132405377Y-109146448D01*
X132410276Y-109180072D01*
X132466049Y-109294157D01*
X132555843Y-109383951D01*
X132669928Y-109439724D01*
X132743890Y-109450500D01*
X132743896Y-109450500D01*
X134256104Y-109450500D01*
X134256110Y-109450500D01*
X134330072Y-109439724D01*
X134444157Y-109383951D01*
X134533951Y-109294157D01*
X134589724Y-109180072D01*
X134600500Y-109106110D01*
X134600500Y-103693890D01*
X134589724Y-103619928D01*
X134533951Y-103505843D01*
X134444157Y-103416049D01*
X134391896Y-103390500D01*
X134330073Y-103360276D01*
X134256114Y-103349500D01*
X134256110Y-103349500D01*
X134199500Y-103349500D01*
X134147174Y-103327826D01*
X134125500Y-103275500D01*
X134125500Y-102388333D01*
X134147174Y-102336007D01*
X134185757Y-102297424D01*
X134226698Y-102256483D01*
X134278073Y-102151393D01*
X134288000Y-102083260D01*
X134288000Y-101716740D01*
X134278073Y-101648607D01*
X134226698Y-101543517D01*
X134147174Y-101463993D01*
X134125500Y-101411667D01*
X134125500Y-100488333D01*
X134147174Y-100436007D01*
X134172185Y-100410996D01*
X134226698Y-100356483D01*
X134278073Y-100251393D01*
X134288000Y-100183260D01*
X134288000Y-99816740D01*
X134287999Y-99816735D01*
X134837000Y-99816735D01*
X134837000Y-100183264D01*
X134846927Y-100251393D01*
X134846927Y-100251394D01*
X134898301Y-100356482D01*
X134898302Y-100356483D01*
X134981017Y-100439198D01*
X135086107Y-100490573D01*
X135154240Y-100500500D01*
X135154246Y-100500500D01*
X136245754Y-100500500D01*
X136245760Y-100500500D01*
X136313893Y-100490573D01*
X136418983Y-100439198D01*
X136501698Y-100356483D01*
X136553073Y-100251393D01*
X136563000Y-100183260D01*
X136563000Y-99816740D01*
X136553073Y-99748607D01*
X136501698Y-99643517D01*
X136418983Y-99560802D01*
X136418982Y-99560801D01*
X136313894Y-99509427D01*
X136269830Y-99503007D01*
X136221176Y-99474014D01*
X136207273Y-99419110D01*
X136217403Y-99391119D01*
X136280226Y-99288603D01*
X136287036Y-99279231D01*
X136405686Y-99140315D01*
X136409601Y-99136079D01*
X136446710Y-99098972D01*
X136446710Y-99098971D01*
X136712088Y-98833592D01*
X136764413Y-98811919D01*
X136775980Y-98812829D01*
X136855981Y-98825500D01*
X137469018Y-98825499D01*
X137469019Y-98825499D01*
X137562804Y-98810646D01*
X137562806Y-98810645D01*
X137580797Y-98801478D01*
X137675842Y-98753050D01*
X137765550Y-98663342D01*
X137815197Y-98565903D01*
X137858264Y-98529122D01*
X137881131Y-98525500D01*
X138053549Y-98525500D01*
X138105875Y-98547174D01*
X138119479Y-98565899D01*
X138163972Y-98653220D01*
X138259280Y-98748528D01*
X138379374Y-98809719D01*
X138479011Y-98825500D01*
X138479012Y-98825500D01*
X139045989Y-98825500D01*
X139095807Y-98817609D01*
X139145626Y-98809719D01*
X139265720Y-98748528D01*
X139361028Y-98653220D01*
X139405518Y-98565903D01*
X139448584Y-98529122D01*
X139471451Y-98525500D01*
X139643868Y-98525500D01*
X139696194Y-98547174D01*
X139709802Y-98565904D01*
X139754294Y-98653222D01*
X139759450Y-98663342D01*
X139849158Y-98753050D01*
X139962196Y-98810646D01*
X140055981Y-98825500D01*
X140669018Y-98825499D01*
X140669019Y-98825499D01*
X140762804Y-98810646D01*
X140762806Y-98810645D01*
X140780797Y-98801478D01*
X140875842Y-98753050D01*
X140965550Y-98663342D01*
X141023146Y-98550304D01*
X141038000Y-98456519D01*
X141037999Y-97993482D01*
X141023306Y-97900709D01*
X141023146Y-97899695D01*
X141023145Y-97899693D01*
X140993270Y-97841061D01*
X140965550Y-97786658D01*
X140875842Y-97696950D01*
X140762804Y-97639354D01*
X140762802Y-97639353D01*
X140762801Y-97639353D01*
X140669019Y-97624500D01*
X140055980Y-97624500D01*
X139962195Y-97639353D01*
X139962193Y-97639354D01*
X139849157Y-97696950D01*
X139759449Y-97786658D01*
X139756028Y-97791368D01*
X139753983Y-97789882D01*
X139717678Y-97820881D01*
X139694821Y-97824500D01*
X139471451Y-97824500D01*
X139419125Y-97802826D01*
X139405520Y-97784100D01*
X139361028Y-97696780D01*
X139265720Y-97601472D01*
X139265719Y-97601471D01*
X139145626Y-97540281D01*
X139145625Y-97540280D01*
X139045989Y-97524500D01*
X139045988Y-97524500D01*
X138479012Y-97524500D01*
X138479011Y-97524500D01*
X138379374Y-97540280D01*
X138379373Y-97540281D01*
X138259280Y-97601471D01*
X138163974Y-97696777D01*
X138163972Y-97696779D01*
X138163972Y-97696780D01*
X138119481Y-97784096D01*
X138076416Y-97820878D01*
X138053549Y-97824500D01*
X137830179Y-97824500D01*
X137777853Y-97802826D01*
X137769335Y-97791104D01*
X137768972Y-97791368D01*
X137765550Y-97786658D01*
X137675843Y-97696951D01*
X137675842Y-97696950D01*
X137562804Y-97639354D01*
X137562802Y-97639353D01*
X137562801Y-97639353D01*
X137469019Y-97624500D01*
X136855980Y-97624500D01*
X136762195Y-97639353D01*
X136762193Y-97639354D01*
X136649157Y-97696950D01*
X136559451Y-97786656D01*
X136501853Y-97899698D01*
X136487000Y-97993480D01*
X136487000Y-98052485D01*
X136465326Y-98104811D01*
X136456497Y-98112352D01*
X136403359Y-98150959D01*
X136338512Y-98215807D01*
X136338511Y-98215808D01*
X136299255Y-98255063D01*
X135978818Y-98575500D01*
X135876047Y-98678269D01*
X135875938Y-98678392D01*
X135822824Y-98731506D01*
X135822810Y-98731522D01*
X135669620Y-98931157D01*
X135669612Y-98931169D01*
X135543792Y-99149090D01*
X135543787Y-99149099D01*
X135447484Y-99381589D01*
X135447480Y-99381601D01*
X135430585Y-99444653D01*
X135396106Y-99489586D01*
X135359107Y-99499500D01*
X135154235Y-99499500D01*
X135086106Y-99509427D01*
X135086105Y-99509427D01*
X134981017Y-99560801D01*
X134898301Y-99643517D01*
X134846927Y-99748605D01*
X134846927Y-99748606D01*
X134837000Y-99816735D01*
X134287999Y-99816735D01*
X134278073Y-99748607D01*
X134226698Y-99643517D01*
X134147174Y-99563993D01*
X134125500Y-99511667D01*
X134125500Y-99056833D01*
X134125501Y-99056800D01*
X134125500Y-99052285D01*
X134125502Y-99052281D01*
X134125500Y-99004013D01*
X134125510Y-99003989D01*
X134125509Y-98973353D01*
X134125510Y-98973353D01*
X134125507Y-98874294D01*
X134099643Y-98677872D01*
X134048362Y-98486505D01*
X133972542Y-98303469D01*
X133873481Y-98131894D01*
X133852699Y-98104811D01*
X133843282Y-98092538D01*
X133828901Y-98059065D01*
X133827859Y-98052485D01*
X133822219Y-98016874D01*
X133761028Y-97896780D01*
X133665720Y-97801472D01*
X133569519Y-97752455D01*
X133551715Y-97743383D01*
X133523783Y-97718562D01*
X133417032Y-97558800D01*
X133412192Y-97550417D01*
X133407193Y-97540281D01*
X133365466Y-97455669D01*
X133318741Y-97360921D01*
X133315037Y-97351979D01*
X133258767Y-97186223D01*
X133258993Y-97137991D01*
X133260146Y-97134699D01*
X133263000Y-97104266D01*
X133263000Y-95695734D01*
X133260146Y-95665301D01*
X133246961Y-95627619D01*
X133246782Y-95627107D01*
X133249957Y-95570559D01*
X133292188Y-95532819D01*
X133316601Y-95528666D01*
X136748378Y-95527607D01*
X136800578Y-95549134D01*
X136802705Y-95551249D01*
X137254226Y-96000251D01*
X137303462Y-96037921D01*
X137369013Y-96075766D01*
X137369016Y-96075767D01*
X137369024Y-96075772D01*
X137426905Y-96099747D01*
X137500023Y-96119339D01*
X137500030Y-96119341D01*
X137546450Y-96127005D01*
X137584303Y-96129486D01*
X137600041Y-96130000D01*
X138051791Y-96129922D01*
X138104121Y-96151587D01*
X138125804Y-96203909D01*
X138117739Y-96237516D01*
X138102780Y-96266874D01*
X138087000Y-96366511D01*
X138087000Y-96883488D01*
X138102780Y-96983125D01*
X138102781Y-96983126D01*
X138162898Y-97101114D01*
X138163972Y-97103220D01*
X138259280Y-97198528D01*
X138379374Y-97259719D01*
X138479011Y-97275500D01*
X138479012Y-97275500D01*
X139045989Y-97275500D01*
X139125655Y-97262882D01*
X139145626Y-97259719D01*
X139265720Y-97198528D01*
X139361028Y-97103220D01*
X139422219Y-96983126D01*
X139422219Y-96983120D01*
X139424020Y-96977584D01*
X139427170Y-96978607D01*
X139451046Y-96939637D01*
X139494548Y-96925500D01*
X139669345Y-96925500D01*
X139721671Y-96947174D01*
X139735278Y-96965903D01*
X139759450Y-97013342D01*
X139849158Y-97103050D01*
X139962196Y-97160646D01*
X140055981Y-97175500D01*
X140669018Y-97175499D01*
X140669019Y-97175499D01*
X140762804Y-97160646D01*
X140875842Y-97103050D01*
X140875843Y-97103048D01*
X140879640Y-97101114D01*
X140936103Y-97096670D01*
X140951895Y-97103950D01*
X140992297Y-97128708D01*
X141001685Y-97135530D01*
X141123961Y-97239966D01*
X141128227Y-97243909D01*
X141147199Y-97262882D01*
X141169586Y-97285269D01*
X141169592Y-97285274D01*
X141326031Y-97441713D01*
X141328535Y-97444344D01*
X141523925Y-97659924D01*
X141528532Y-97665537D01*
X141700779Y-97897785D01*
X141704814Y-97903823D01*
X141853471Y-98151842D01*
X141856894Y-98158247D01*
X141949569Y-98354194D01*
X141952348Y-98410763D01*
X141914313Y-98452728D01*
X141910993Y-98454200D01*
X141859658Y-98475464D01*
X141734220Y-98571715D01*
X141734215Y-98571720D01*
X141637964Y-98697158D01*
X141577455Y-98843238D01*
X141562000Y-98960640D01*
X141562000Y-98969265D01*
X141540326Y-99021591D01*
X141502436Y-99041843D01*
X141317278Y-99078671D01*
X141317273Y-99078673D01*
X141058785Y-99157081D01*
X141058781Y-99157083D01*
X140966021Y-99195505D01*
X140930798Y-99200815D01*
X140916771Y-99199500D01*
X140916766Y-99199500D01*
X140158234Y-99199500D01*
X140127801Y-99202354D01*
X140127799Y-99202354D01*
X140127795Y-99202355D01*
X139999618Y-99247206D01*
X139999616Y-99247207D01*
X139890353Y-99327846D01*
X139890346Y-99327853D01*
X139809707Y-99437116D01*
X139809706Y-99437118D01*
X139764855Y-99565295D01*
X139764854Y-99565299D01*
X139764854Y-99565301D01*
X139762000Y-99595734D01*
X139762000Y-99595740D01*
X139762000Y-100067988D01*
X139745203Y-100114932D01*
X139620462Y-100266933D01*
X139620443Y-100266958D01*
X139457819Y-100510349D01*
X139457810Y-100510365D01*
X139319807Y-100768558D01*
X139207779Y-101039027D01*
X139122800Y-101319181D01*
X139122798Y-101319186D01*
X139065690Y-101606303D01*
X139036999Y-101897655D01*
X139037000Y-101975032D01*
X139037000Y-102372546D01*
X139037010Y-102372749D01*
X139037010Y-102455979D01*
X139067587Y-102766443D01*
X139128445Y-103072401D01*
X139178141Y-103236225D01*
X139215544Y-103359529D01*
X139219004Y-103370933D01*
X139219009Y-103370948D01*
X139232173Y-103402728D01*
X139232173Y-103459366D01*
X139192124Y-103499413D01*
X139135486Y-103499413D01*
X139111480Y-103483372D01*
X139044157Y-103416049D01*
X138930073Y-103360276D01*
X138856114Y-103349500D01*
X138856110Y-103349500D01*
X137904286Y-103349500D01*
X137851960Y-103327826D01*
X137844419Y-103318996D01*
X137637555Y-103034270D01*
X137637545Y-103034258D01*
X137360328Y-102709674D01*
X137342541Y-102691887D01*
X137260040Y-102609384D01*
X137260026Y-102609369D01*
X136584674Y-101934017D01*
X136563000Y-101881691D01*
X136563000Y-101716746D01*
X136563000Y-101716740D01*
X136553073Y-101648607D01*
X136501698Y-101543517D01*
X136418983Y-101460802D01*
X136418982Y-101460801D01*
X136313894Y-101409427D01*
X136245764Y-101399500D01*
X136245760Y-101399500D01*
X135998910Y-101399500D01*
X135970592Y-101393867D01*
X135904332Y-101366421D01*
X135904322Y-101366418D01*
X135813695Y-101348391D01*
X135768994Y-101339500D01*
X135631006Y-101339500D01*
X135592640Y-101347131D01*
X135495677Y-101366418D01*
X135495667Y-101366421D01*
X135429408Y-101393867D01*
X135401090Y-101399500D01*
X135154235Y-101399500D01*
X135086106Y-101409427D01*
X135086105Y-101409427D01*
X134981017Y-101460801D01*
X134898301Y-101543517D01*
X134846927Y-101648605D01*
X134846927Y-101648606D01*
X134837000Y-101716735D01*
X134837000Y-102083264D01*
X134846927Y-102151393D01*
X134846927Y-102151394D01*
X134898301Y-102256482D01*
X134898302Y-102256483D01*
X134981017Y-102339198D01*
X134999499Y-102348233D01*
X135076568Y-102385910D01*
X135105596Y-102411279D01*
X135155885Y-102486542D01*
X136217595Y-103548252D01*
X136219816Y-103550572D01*
X136305685Y-103644283D01*
X136454154Y-103806311D01*
X136458303Y-103811256D01*
X136668461Y-104085141D01*
X136672164Y-104090429D01*
X136857655Y-104381594D01*
X136860883Y-104387185D01*
X136921831Y-104504266D01*
X136952092Y-104562398D01*
X136991139Y-104637406D01*
X136999500Y-104671575D01*
X136999500Y-109106114D01*
X137005377Y-109146448D01*
X137010276Y-109180072D01*
X137066049Y-109294157D01*
X137155843Y-109383951D01*
X137269928Y-109439724D01*
X137343890Y-109450500D01*
X137343896Y-109450500D01*
X138856104Y-109450500D01*
X138856110Y-109450500D01*
X138877358Y-109447404D01*
X138932262Y-109461305D01*
X138961255Y-109509959D01*
X138947354Y-109564863D01*
X138925029Y-109584716D01*
X138750177Y-109685667D01*
X138626533Y-109780544D01*
X138575753Y-109819510D01*
X138571697Y-109822622D01*
X138531413Y-109862905D01*
X138513839Y-109880479D01*
X138513818Y-109880487D01*
X138408414Y-109985891D01*
X138260732Y-110171078D01*
X138134714Y-110371637D01*
X138031949Y-110585031D01*
X137953719Y-110808606D01*
X137953717Y-110808612D01*
X137901017Y-111039518D01*
X137901016Y-111039524D01*
X137880103Y-111225157D01*
X137874499Y-111274897D01*
X137874500Y-111347175D01*
X137874500Y-112441845D01*
X137852826Y-112494171D01*
X137834096Y-112507779D01*
X137786657Y-112531950D01*
X137696951Y-112621656D01*
X137639353Y-112734698D01*
X137624500Y-112828480D01*
X137624500Y-113441519D01*
X137639353Y-113535304D01*
X137639354Y-113535306D01*
X137696950Y-113648342D01*
X137786658Y-113738050D01*
X137899696Y-113795646D01*
X137993481Y-113810500D01*
X138456518Y-113810499D01*
X138456519Y-113810499D01*
X138550304Y-113795646D01*
X138550306Y-113795645D01*
X138557189Y-113792138D01*
X138663342Y-113738050D01*
X138753050Y-113648342D01*
X138756924Y-113640737D01*
X138799990Y-113603954D01*
X138856453Y-113608397D01*
X138893237Y-113651463D01*
X138893921Y-113653686D01*
X138898718Y-113670199D01*
X138982317Y-113811556D01*
X139098443Y-113927682D01*
X139239800Y-114011281D01*
X139397508Y-114057099D01*
X139397505Y-114057099D01*
X139434359Y-114060000D01*
X139550000Y-114060000D01*
X139950000Y-114060000D01*
X140065641Y-114060000D01*
X140102493Y-114057099D01*
X140260199Y-114011281D01*
X140401556Y-113927682D01*
X140517682Y-113811556D01*
X140601281Y-113670199D01*
X140647099Y-113512493D01*
X140650000Y-113475641D01*
X140650000Y-113135000D01*
X139950000Y-113135000D01*
X139950000Y-114060000D01*
X139550000Y-114060000D01*
X139550000Y-112735000D01*
X139950000Y-112735000D01*
X140650000Y-112735000D01*
X140650000Y-112394358D01*
X140647099Y-112357506D01*
X140601281Y-112199800D01*
X140517682Y-112058443D01*
X140446565Y-111987326D01*
X140424891Y-111935000D01*
X140446565Y-111882674D01*
X140517682Y-111811556D01*
X140601281Y-111670199D01*
X140647099Y-111512493D01*
X140650000Y-111475641D01*
X140650000Y-111135000D01*
X139950000Y-111135000D01*
X139950000Y-112735000D01*
X139550000Y-112735000D01*
X139550000Y-111135000D01*
X138850000Y-111135000D01*
X138850000Y-111475641D01*
X138852900Y-111512493D01*
X138898718Y-111670199D01*
X138982317Y-111811556D01*
X139053435Y-111882674D01*
X139075109Y-111935000D01*
X139053435Y-111987326D01*
X138982317Y-112058443D01*
X138898718Y-112199800D01*
X138852900Y-112357506D01*
X138850000Y-112394358D01*
X138850000Y-112539956D01*
X138828326Y-112592282D01*
X138776000Y-112613956D01*
X138723674Y-112592282D01*
X138663342Y-112531950D01*
X138615904Y-112507779D01*
X138579122Y-112464712D01*
X138575500Y-112441845D01*
X138575500Y-111448832D01*
X138575501Y-111448829D01*
X138575500Y-111395741D01*
X138575658Y-111390903D01*
X138586560Y-111224536D01*
X138587225Y-111214390D01*
X138588489Y-111204796D01*
X138602372Y-111135000D01*
X138622522Y-111033693D01*
X138625022Y-111024362D01*
X138681102Y-110859151D01*
X138684804Y-110850215D01*
X138731743Y-110755033D01*
X138774325Y-110717690D01*
X138830841Y-110721395D01*
X138849827Y-110735000D01*
X140650000Y-110735000D01*
X140650000Y-110474334D01*
X140671674Y-110422008D01*
X140724000Y-110400334D01*
X140776326Y-110422008D01*
X140927826Y-110573508D01*
X140949500Y-110625834D01*
X140949500Y-114288065D01*
X140974629Y-114478940D01*
X140974631Y-114478949D01*
X141024459Y-114664906D01*
X141024463Y-114664918D01*
X141098136Y-114842780D01*
X141098137Y-114842783D01*
X141194400Y-115009516D01*
X141219097Y-115041701D01*
X141233478Y-115075174D01*
X141240280Y-115118125D01*
X141240281Y-115118126D01*
X141301472Y-115238220D01*
X141396780Y-115333528D01*
X141516874Y-115394719D01*
X141616511Y-115410500D01*
X141616512Y-115410500D01*
X141671961Y-115410500D01*
X141696400Y-115414652D01*
X141703033Y-115416972D01*
X141718138Y-115422258D01*
X141764165Y-115427443D01*
X141770313Y-115428399D01*
X141806007Y-115435500D01*
X141831507Y-115435500D01*
X141839791Y-115435964D01*
X141875000Y-115439932D01*
X141910208Y-115435964D01*
X141918493Y-115435500D01*
X142620498Y-115435500D01*
X142672824Y-115457174D01*
X142694498Y-115509500D01*
X142694498Y-115635000D01*
X142694742Y-115645015D01*
X142696663Y-115684412D01*
X142696664Y-115684413D01*
X142712062Y-115753042D01*
X142712063Y-115753044D01*
X142736892Y-115812985D01*
X142742217Y-115825842D01*
X142742220Y-115825846D01*
X142742223Y-115825852D01*
X142786758Y-115892507D01*
X142786767Y-115892517D01*
X142842477Y-115948228D01*
X142842482Y-115948232D01*
X142842483Y-115948233D01*
X142909154Y-115992781D01*
X142943471Y-116006995D01*
X142981953Y-116022936D01*
X142981956Y-116022937D01*
X143014451Y-116030227D01*
X143050596Y-116038336D01*
X143089996Y-116040256D01*
X143099998Y-116040500D01*
X143099999Y-116040500D01*
X143599992Y-116040500D01*
X143599998Y-116040500D01*
X143635162Y-116037469D01*
X143719528Y-116002161D01*
X143780219Y-115933745D01*
X143842309Y-115820420D01*
X143846970Y-115812998D01*
X143995797Y-115604647D01*
X144002162Y-115596908D01*
X144176195Y-115412352D01*
X144183551Y-115405542D01*
X144380979Y-115246232D01*
X144389175Y-115240491D01*
X144606345Y-115109379D01*
X144615259Y-115104792D01*
X144848170Y-115004289D01*
X144857618Y-115000952D01*
X145102010Y-114932899D01*
X145111820Y-114930873D01*
X145317026Y-114902835D01*
X145363151Y-114896534D01*
X145373168Y-114895853D01*
X145626828Y-114895853D01*
X145636845Y-114896534D01*
X145690417Y-114903853D01*
X145888171Y-114930872D01*
X145897987Y-114932900D01*
X146142371Y-115000951D01*
X146151829Y-115004291D01*
X146332650Y-115082317D01*
X146384728Y-115104789D01*
X146393655Y-115109382D01*
X146610812Y-115240487D01*
X146619022Y-115246238D01*
X146734971Y-115339800D01*
X146816437Y-115405537D01*
X146823805Y-115412358D01*
X146997825Y-115596901D01*
X147004203Y-115604656D01*
X147153015Y-115812985D01*
X147157696Y-115820440D01*
X147187476Y-115874793D01*
X147219777Y-115933745D01*
X147220187Y-115934361D01*
X147239331Y-115963127D01*
X147239332Y-115963128D01*
X147310830Y-116020146D01*
X147310833Y-116020147D01*
X147310835Y-116020149D01*
X147399998Y-116040500D01*
X147400002Y-116040500D01*
X147899993Y-116040500D01*
X147899998Y-116040500D01*
X147908595Y-116040320D01*
X147948049Y-116038668D01*
X148018091Y-116023206D01*
X148090993Y-115993010D01*
X148115387Y-115976711D01*
X148157658Y-115948468D01*
X148157660Y-115948465D01*
X148157663Y-115948464D01*
X148213460Y-115892668D01*
X148258008Y-115825997D01*
X148288205Y-115753095D01*
X148303669Y-115683041D01*
X148305319Y-115643587D01*
X148305498Y-115635000D01*
X148305498Y-114335000D01*
X148305498Y-114334139D01*
X148305497Y-114334057D01*
X148305497Y-114260000D01*
X148301548Y-114219909D01*
X148292033Y-114172074D01*
X148290756Y-114168991D01*
X148261349Y-114097996D01*
X148234253Y-114057444D01*
X148234251Y-114057441D01*
X148177556Y-114000746D01*
X148137003Y-113973649D01*
X148137002Y-113973648D01*
X148137000Y-113973647D01*
X148062927Y-113942965D01*
X148062916Y-113942962D01*
X148015084Y-113933448D01*
X148015085Y-113933448D01*
X147979913Y-113929984D01*
X147974997Y-113929500D01*
X147974996Y-113929500D01*
X145552150Y-113929500D01*
X145543730Y-113928670D01*
X145543707Y-113928907D01*
X145540094Y-113928551D01*
X145540092Y-113928551D01*
X145459908Y-113928551D01*
X145459906Y-113928551D01*
X145456293Y-113928907D01*
X145456269Y-113928670D01*
X145447850Y-113929500D01*
X143025003Y-113929500D01*
X143020086Y-113929984D01*
X142984915Y-113933448D01*
X142937083Y-113942962D01*
X142937072Y-113942965D01*
X142862999Y-113973647D01*
X142822447Y-114000743D01*
X142822446Y-114000744D01*
X142822444Y-114000745D01*
X142822444Y-114000746D01*
X142810363Y-114012826D01*
X142758039Y-114034500D01*
X142424500Y-114034500D01*
X142372174Y-114012826D01*
X142350500Y-113960500D01*
X142350500Y-112652647D01*
X163194859Y-112652647D01*
X163194859Y-112652654D01*
X163215377Y-112874083D01*
X163215379Y-112874096D01*
X163276237Y-113087993D01*
X163276239Y-113087997D01*
X163375368Y-113287077D01*
X163375370Y-113287080D01*
X163421560Y-113348245D01*
X164013629Y-112756176D01*
X164027259Y-112807045D01*
X164079920Y-112898257D01*
X164154394Y-112972731D01*
X164245606Y-113025392D01*
X164296472Y-113039021D01*
X163703000Y-113632492D01*
X163862817Y-113731445D01*
X163862827Y-113731450D01*
X164070194Y-113811785D01*
X164288800Y-113852650D01*
X164288806Y-113852651D01*
X164511194Y-113852651D01*
X164511199Y-113852650D01*
X164729805Y-113811785D01*
X164937172Y-113731450D01*
X164937182Y-113731445D01*
X165096997Y-113632491D01*
X164503527Y-113039021D01*
X164554394Y-113025392D01*
X164645606Y-112972731D01*
X164720080Y-112898257D01*
X164772741Y-112807045D01*
X164786370Y-112756178D01*
X165378438Y-113348246D01*
X165424629Y-113287079D01*
X165424631Y-113287077D01*
X165523760Y-113087997D01*
X165523762Y-113087993D01*
X165584620Y-112874096D01*
X165584622Y-112874083D01*
X165605141Y-112652654D01*
X165605141Y-112652647D01*
X165584622Y-112431218D01*
X165584620Y-112431205D01*
X165523762Y-112217308D01*
X165523760Y-112217304D01*
X165424631Y-112018224D01*
X165424629Y-112018221D01*
X165378437Y-111957054D01*
X164786370Y-112549122D01*
X164772741Y-112498257D01*
X164720080Y-112407045D01*
X164645606Y-112332571D01*
X164554394Y-112279910D01*
X164503525Y-112266280D01*
X165096998Y-111672808D01*
X164937182Y-111573856D01*
X164937172Y-111573851D01*
X164729805Y-111493516D01*
X164511199Y-111452651D01*
X164288800Y-111452651D01*
X164070194Y-111493516D01*
X163862827Y-111573851D01*
X163862817Y-111573856D01*
X163703000Y-111672808D01*
X164296472Y-112266280D01*
X164245606Y-112279910D01*
X164154394Y-112332571D01*
X164079920Y-112407045D01*
X164027259Y-112498257D01*
X164013629Y-112549123D01*
X163421560Y-111957054D01*
X163375368Y-112018225D01*
X163375367Y-112018228D01*
X163276239Y-112217304D01*
X163276237Y-112217308D01*
X163215379Y-112431205D01*
X163215377Y-112431218D01*
X163194859Y-112652647D01*
X142350500Y-112652647D01*
X142350500Y-111255809D01*
X142372174Y-111203483D01*
X142458066Y-111117590D01*
X142510391Y-111095917D01*
X142562717Y-111117591D01*
X142569101Y-111124872D01*
X142571715Y-111128279D01*
X142571720Y-111128284D01*
X142580473Y-111135000D01*
X142697159Y-111224536D01*
X142843238Y-111285044D01*
X142960639Y-111300500D01*
X143839360Y-111300499D01*
X143956762Y-111285044D01*
X144102841Y-111224536D01*
X144228282Y-111128282D01*
X144324536Y-111002841D01*
X144385044Y-110856762D01*
X144400500Y-110739361D01*
X144400499Y-109260640D01*
X148399500Y-109260640D01*
X148399500Y-110739359D01*
X148414955Y-110856759D01*
X148414956Y-110856763D01*
X148475463Y-111002840D01*
X148571715Y-111128279D01*
X148571720Y-111128284D01*
X148580473Y-111135000D01*
X148697159Y-111224536D01*
X148843238Y-111285044D01*
X148960639Y-111300500D01*
X149839360Y-111300499D01*
X149956762Y-111285044D01*
X150102841Y-111224536D01*
X150228282Y-111128282D01*
X150324536Y-111002841D01*
X150385044Y-110856762D01*
X150400500Y-110739361D01*
X150400500Y-110599996D01*
X150849972Y-110599996D01*
X150849972Y-110600003D01*
X150870490Y-110821432D01*
X150870492Y-110821445D01*
X150931350Y-111035342D01*
X150931352Y-111035346D01*
X151030481Y-111234426D01*
X151030483Y-111234429D01*
X151076673Y-111295594D01*
X151668742Y-110703525D01*
X151682372Y-110754394D01*
X151735033Y-110845606D01*
X151809507Y-110920080D01*
X151900719Y-110972741D01*
X151951585Y-110986370D01*
X151358113Y-111579841D01*
X151517930Y-111678794D01*
X151517940Y-111678799D01*
X151725307Y-111759134D01*
X151943913Y-111799999D01*
X151943919Y-111800000D01*
X152166307Y-111800000D01*
X152166312Y-111799999D01*
X152384918Y-111759134D01*
X152592285Y-111678799D01*
X152592295Y-111678794D01*
X152752110Y-111579840D01*
X152158640Y-110986370D01*
X152209507Y-110972741D01*
X152300719Y-110920080D01*
X152375193Y-110845606D01*
X152427854Y-110754394D01*
X152441483Y-110703527D01*
X153032939Y-111294983D01*
X153054613Y-111347309D01*
X153054613Y-111419746D01*
X153066246Y-111478232D01*
X153095721Y-111522343D01*
X153110561Y-111544552D01*
X153154409Y-111573851D01*
X153176880Y-111588866D01*
X153176881Y-111588866D01*
X153176882Y-111588867D01*
X153235365Y-111600500D01*
X153235367Y-111600500D01*
X154874859Y-111600500D01*
X154874861Y-111600500D01*
X154933344Y-111588867D01*
X154999665Y-111544552D01*
X155043980Y-111478231D01*
X155055613Y-111419748D01*
X155055613Y-109780252D01*
X155043980Y-109721769D01*
X154999665Y-109655448D01*
X154959690Y-109628737D01*
X154933345Y-109611133D01*
X154933346Y-109611133D01*
X154904102Y-109605316D01*
X154874861Y-109599500D01*
X154874859Y-109599500D01*
X153944881Y-109599500D01*
X153892555Y-109577826D01*
X153876513Y-109553817D01*
X153800773Y-109370954D01*
X153798041Y-109363144D01*
X153725020Y-109109666D01*
X153723174Y-109101579D01*
X153717992Y-109071077D01*
X153678993Y-108841520D01*
X153678065Y-108833275D01*
X153674819Y-108775463D01*
X153663115Y-108566997D01*
X153663000Y-108562867D01*
X153663000Y-108538590D01*
X153663001Y-108506451D01*
X153663000Y-108506447D01*
X153663000Y-107708513D01*
X153684674Y-107656187D01*
X153693050Y-107648978D01*
X153797150Y-107572150D01*
X153877793Y-107462882D01*
X153922646Y-107334699D01*
X153925500Y-107304266D01*
X153925500Y-106295734D01*
X153922646Y-106265301D01*
X153877793Y-106137118D01*
X153877792Y-106137116D01*
X153797153Y-106027853D01*
X153797146Y-106027846D01*
X153687883Y-105947207D01*
X153687881Y-105947206D01*
X153559704Y-105902355D01*
X153559705Y-105902355D01*
X153559700Y-105902354D01*
X153559699Y-105902354D01*
X153529266Y-105899500D01*
X152895734Y-105899500D01*
X152865301Y-105902354D01*
X152865299Y-105902354D01*
X152865295Y-105902355D01*
X152737118Y-105947206D01*
X152737116Y-105947207D01*
X152627853Y-106027846D01*
X152627846Y-106027853D01*
X152547207Y-106137116D01*
X152547206Y-106137118D01*
X152502355Y-106265295D01*
X152502354Y-106265299D01*
X152502354Y-106265301D01*
X152499500Y-106295734D01*
X152499500Y-107304266D01*
X152502354Y-107334699D01*
X152502354Y-107334701D01*
X152502355Y-107334704D01*
X152547206Y-107462881D01*
X152547207Y-107462883D01*
X152627846Y-107572146D01*
X152627849Y-107572149D01*
X152627850Y-107572150D01*
X152731943Y-107648973D01*
X152761173Y-107697483D01*
X152762000Y-107708513D01*
X152762000Y-108629493D01*
X152762043Y-108630174D01*
X152762043Y-108729206D01*
X152794082Y-109054563D01*
X152857851Y-109375184D01*
X152857854Y-109375193D01*
X152857855Y-109375198D01*
X152915385Y-109564863D01*
X152919332Y-109577874D01*
X152913779Y-109634239D01*
X152869998Y-109670168D01*
X152813633Y-109664615D01*
X152798665Y-109654041D01*
X152781370Y-109638275D01*
X152592295Y-109521205D01*
X152592285Y-109521200D01*
X152384918Y-109440865D01*
X152166312Y-109400000D01*
X151943913Y-109400000D01*
X151725307Y-109440865D01*
X151517940Y-109521200D01*
X151517930Y-109521205D01*
X151358113Y-109620157D01*
X151951585Y-110213629D01*
X151900719Y-110227259D01*
X151809507Y-110279920D01*
X151735033Y-110354394D01*
X151682372Y-110445606D01*
X151668742Y-110496472D01*
X151076673Y-109904403D01*
X151030481Y-109965574D01*
X151030480Y-109965577D01*
X150931352Y-110164653D01*
X150931350Y-110164657D01*
X150870492Y-110378554D01*
X150870490Y-110378567D01*
X150849972Y-110599996D01*
X150400500Y-110599996D01*
X150400499Y-109667254D01*
X150422173Y-109614929D01*
X150639279Y-109397823D01*
X150890622Y-109146481D01*
X150890623Y-109146478D01*
X150894318Y-109142784D01*
X150894407Y-109142680D01*
X150966011Y-109071079D01*
X151176552Y-108814538D01*
X151360934Y-108538595D01*
X151517380Y-108245908D01*
X151644384Y-107939296D01*
X151704761Y-107740259D01*
X151740691Y-107696480D01*
X151751120Y-107691899D01*
X151862882Y-107652793D01*
X151972150Y-107572150D01*
X152052793Y-107462882D01*
X152097646Y-107334699D01*
X152100500Y-107304266D01*
X152100500Y-106295734D01*
X152097646Y-106265301D01*
X152052793Y-106137118D01*
X152052792Y-106137116D01*
X151972153Y-106027853D01*
X151972146Y-106027846D01*
X151862883Y-105947207D01*
X151862881Y-105947206D01*
X151734704Y-105902355D01*
X151734705Y-105902355D01*
X151734700Y-105902354D01*
X151734699Y-105902354D01*
X151704266Y-105899500D01*
X151070734Y-105899500D01*
X151040301Y-105902354D01*
X151040299Y-105902354D01*
X151040295Y-105902355D01*
X150912118Y-105947206D01*
X150912116Y-105947207D01*
X150802853Y-106027846D01*
X150802846Y-106027853D01*
X150722207Y-106137116D01*
X150722206Y-106137118D01*
X150677355Y-106265295D01*
X150677354Y-106265299D01*
X150677354Y-106265301D01*
X150674500Y-106295734D01*
X150674500Y-107304266D01*
X150677354Y-107334699D01*
X150677354Y-107334701D01*
X150677355Y-107334704D01*
X150701696Y-107404266D01*
X150722207Y-107462882D01*
X150787093Y-107550800D01*
X150800726Y-107605771D01*
X150795920Y-107623061D01*
X150693314Y-107870772D01*
X150689713Y-107878249D01*
X150559383Y-108114060D01*
X150554968Y-108121086D01*
X150399056Y-108340821D01*
X150393882Y-108347309D01*
X150212842Y-108549889D01*
X150209991Y-108552905D01*
X150056197Y-108706698D01*
X150003871Y-108728372D01*
X149975555Y-108722740D01*
X149956762Y-108714956D01*
X149956760Y-108714955D01*
X149870271Y-108703569D01*
X149839361Y-108699500D01*
X149839359Y-108699500D01*
X148960640Y-108699500D01*
X148843240Y-108714955D01*
X148843236Y-108714956D01*
X148697159Y-108775463D01*
X148571720Y-108871715D01*
X148571715Y-108871720D01*
X148475464Y-108997158D01*
X148414955Y-109143238D01*
X148399500Y-109260640D01*
X144400499Y-109260640D01*
X144385044Y-109143238D01*
X144324536Y-108997159D01*
X144228282Y-108871718D01*
X144228279Y-108871715D01*
X144102841Y-108775464D01*
X143956761Y-108714955D01*
X143866675Y-108703095D01*
X143839361Y-108699500D01*
X143839359Y-108699500D01*
X142960640Y-108699500D01*
X142843240Y-108714955D01*
X142843236Y-108714956D01*
X142697159Y-108775463D01*
X142571720Y-108871715D01*
X142571715Y-108871720D01*
X142475464Y-108997158D01*
X142414955Y-109143238D01*
X142399500Y-109260640D01*
X142399500Y-109441557D01*
X142377826Y-109493883D01*
X142357607Y-109508228D01*
X142336061Y-109518604D01*
X142107371Y-109628734D01*
X141853626Y-109788171D01*
X141619329Y-109975015D01*
X141606519Y-109987826D01*
X141554193Y-110009500D01*
X141385834Y-110009500D01*
X141333508Y-109987826D01*
X141161780Y-109816098D01*
X141161660Y-109815993D01*
X141126211Y-109780544D01*
X141126207Y-109780540D01*
X140982369Y-109670168D01*
X140965485Y-109657212D01*
X140790044Y-109555919D01*
X140790035Y-109555914D01*
X140602868Y-109478385D01*
X140407181Y-109425948D01*
X140206326Y-109399501D01*
X140151175Y-109399500D01*
X140151173Y-109399500D01*
X140151171Y-109399500D01*
X140105034Y-109399500D01*
X140049520Y-109399499D01*
X140049519Y-109399499D01*
X140043562Y-109399499D01*
X140043550Y-109399500D01*
X139767165Y-109399500D01*
X139767153Y-109399499D01*
X139736338Y-109399499D01*
X139736323Y-109399493D01*
X139593198Y-109399495D01*
X139370159Y-109428860D01*
X139370150Y-109428862D01*
X139152856Y-109487088D01*
X139152851Y-109487089D01*
X139152850Y-109487090D01*
X139152846Y-109487091D01*
X139152845Y-109487092D01*
X139134933Y-109494511D01*
X139078296Y-109494509D01*
X139038248Y-109454460D01*
X139038250Y-109397823D01*
X139054287Y-109373820D01*
X139133951Y-109294157D01*
X139189724Y-109180072D01*
X139200500Y-109106110D01*
X139200500Y-107724500D01*
X139222174Y-107672174D01*
X139274500Y-107650500D01*
X139638048Y-107650500D01*
X139685062Y-107669973D01*
X139685887Y-107668857D01*
X139799616Y-107752792D01*
X139799618Y-107752793D01*
X139927795Y-107797644D01*
X139927801Y-107797646D01*
X139958234Y-107800500D01*
X139958241Y-107800500D01*
X140966758Y-107800500D01*
X140966766Y-107800500D01*
X140997199Y-107797646D01*
X141125382Y-107752793D01*
X141217761Y-107684614D01*
X141234646Y-107672153D01*
X141234646Y-107672152D01*
X141234650Y-107672150D01*
X141315293Y-107562882D01*
X141360146Y-107434699D01*
X141363000Y-107404266D01*
X141363000Y-106495734D01*
X141360146Y-106465301D01*
X141349343Y-106434429D01*
X141315293Y-106337118D01*
X141315292Y-106337116D01*
X141234653Y-106227853D01*
X141234646Y-106227846D01*
X141125383Y-106147207D01*
X141125381Y-106147206D01*
X140997204Y-106102355D01*
X140997205Y-106102355D01*
X140997200Y-106102354D01*
X140997199Y-106102354D01*
X140966766Y-106099500D01*
X139958234Y-106099500D01*
X139927801Y-106102354D01*
X139927799Y-106102354D01*
X139927795Y-106102355D01*
X139799618Y-106147206D01*
X139799616Y-106147207D01*
X139685887Y-106231143D01*
X139685062Y-106230026D01*
X139638048Y-106249500D01*
X139274500Y-106249500D01*
X139222174Y-106227826D01*
X139200500Y-106175500D01*
X139200500Y-105799996D01*
X162047510Y-105799996D01*
X162047510Y-105800003D01*
X162068028Y-106021432D01*
X162068030Y-106021445D01*
X162128888Y-106235342D01*
X162128890Y-106235346D01*
X162228019Y-106434426D01*
X162228021Y-106434429D01*
X162274211Y-106495594D01*
X162866280Y-105903525D01*
X162879910Y-105954394D01*
X162932571Y-106045606D01*
X163007045Y-106120080D01*
X163098257Y-106172741D01*
X163149123Y-106186370D01*
X162555651Y-106779841D01*
X162715468Y-106878794D01*
X162715478Y-106878799D01*
X162922845Y-106959134D01*
X163141451Y-106999999D01*
X163141457Y-107000000D01*
X163363845Y-107000000D01*
X163363850Y-106999999D01*
X163582456Y-106959134D01*
X163789823Y-106878799D01*
X163789833Y-106878794D01*
X163949648Y-106779840D01*
X163356178Y-106186370D01*
X163407045Y-106172741D01*
X163498257Y-106120080D01*
X163572731Y-106045606D01*
X163625392Y-105954394D01*
X163639021Y-105903527D01*
X164231089Y-106495595D01*
X164277280Y-106434428D01*
X164277282Y-106434426D01*
X164376411Y-106235346D01*
X164376413Y-106235342D01*
X164437271Y-106021445D01*
X164437273Y-106021432D01*
X164457792Y-105800003D01*
X164457792Y-105799996D01*
X164437273Y-105578567D01*
X164437271Y-105578554D01*
X164376413Y-105364657D01*
X164376411Y-105364653D01*
X164277282Y-105165573D01*
X164277280Y-105165570D01*
X164231088Y-105104403D01*
X163639021Y-105696471D01*
X163625392Y-105645606D01*
X163572731Y-105554394D01*
X163498257Y-105479920D01*
X163407045Y-105427259D01*
X163356176Y-105413629D01*
X163789554Y-104980252D01*
X165752151Y-104980252D01*
X165752151Y-106619748D01*
X165759906Y-106658736D01*
X165763784Y-106678232D01*
X165793259Y-106722343D01*
X165808099Y-106744552D01*
X165852211Y-106774027D01*
X165874418Y-106788866D01*
X165874419Y-106788866D01*
X165874420Y-106788867D01*
X165932903Y-106800500D01*
X165932905Y-106800500D01*
X167572397Y-106800500D01*
X167572399Y-106800500D01*
X167630882Y-106788867D01*
X167697203Y-106744552D01*
X167741518Y-106678231D01*
X167753151Y-106619748D01*
X167753151Y-104980252D01*
X167741518Y-104921769D01*
X167697203Y-104855448D01*
X167674994Y-104840608D01*
X167630883Y-104811133D01*
X167630884Y-104811133D01*
X167601640Y-104805316D01*
X167572399Y-104799500D01*
X165932903Y-104799500D01*
X165903661Y-104805316D01*
X165874418Y-104811133D01*
X165808100Y-104855447D01*
X165808098Y-104855449D01*
X165763784Y-104921767D01*
X165763784Y-104921769D01*
X165752151Y-104980252D01*
X163789554Y-104980252D01*
X163949649Y-104820157D01*
X163789833Y-104721205D01*
X163789823Y-104721200D01*
X163582456Y-104640865D01*
X163363850Y-104600000D01*
X163141451Y-104600000D01*
X162922845Y-104640865D01*
X162715478Y-104721200D01*
X162715468Y-104721205D01*
X162555651Y-104820157D01*
X163149123Y-105413629D01*
X163098257Y-105427259D01*
X163007045Y-105479920D01*
X162932571Y-105554394D01*
X162879910Y-105645606D01*
X162866280Y-105696472D01*
X162274211Y-105104403D01*
X162228019Y-105165574D01*
X162228018Y-105165577D01*
X162128890Y-105364653D01*
X162128888Y-105364657D01*
X162068030Y-105578554D01*
X162068028Y-105578567D01*
X162047510Y-105799996D01*
X139200500Y-105799996D01*
X139200500Y-103696609D01*
X139222174Y-103644283D01*
X139274500Y-103622609D01*
X139326826Y-103644283D01*
X139339762Y-103661726D01*
X139485433Y-103934261D01*
X139485436Y-103934267D01*
X139485441Y-103934275D01*
X139549529Y-104030190D01*
X139562000Y-104071302D01*
X139562000Y-104504266D01*
X139564854Y-104534699D01*
X139564854Y-104534701D01*
X139564855Y-104534704D01*
X139609706Y-104662881D01*
X139609707Y-104662883D01*
X139690346Y-104772146D01*
X139690353Y-104772153D01*
X139799616Y-104852792D01*
X139799618Y-104852793D01*
X139927795Y-104897644D01*
X139927801Y-104897646D01*
X139958234Y-104900500D01*
X139958241Y-104900500D01*
X140966758Y-104900500D01*
X140966766Y-104900500D01*
X140997199Y-104897646D01*
X141125382Y-104852793D01*
X141234650Y-104772150D01*
X141315293Y-104662882D01*
X141360146Y-104534699D01*
X141363000Y-104504266D01*
X141363000Y-103595734D01*
X141360146Y-103565301D01*
X141339340Y-103505842D01*
X141315293Y-103437118D01*
X141315292Y-103437116D01*
X141234653Y-103327853D01*
X141234646Y-103327846D01*
X141125383Y-103247207D01*
X141125381Y-103247206D01*
X140997204Y-103202355D01*
X140997205Y-103202355D01*
X140997200Y-103202354D01*
X140997199Y-103202354D01*
X140966766Y-103199500D01*
X140966760Y-103199500D01*
X140727851Y-103199500D01*
X140675525Y-103177826D01*
X140661482Y-103158229D01*
X140609698Y-103053220D01*
X140575195Y-102983253D01*
X140571495Y-102974321D01*
X140500012Y-102763740D01*
X140497514Y-102754413D01*
X140456759Y-102549519D01*
X140454134Y-102536323D01*
X140452870Y-102526727D01*
X140443799Y-102388333D01*
X140438157Y-102302252D01*
X140438000Y-102297424D01*
X140438000Y-102046445D01*
X140438158Y-102041606D01*
X140447405Y-101900500D01*
X140451186Y-101842801D01*
X140452450Y-101833207D01*
X140475614Y-101716746D01*
X140490840Y-101640195D01*
X140493340Y-101630864D01*
X140554490Y-101450713D01*
X140591833Y-101408132D01*
X140624563Y-101400500D01*
X140916758Y-101400500D01*
X140916766Y-101400500D01*
X140947199Y-101397646D01*
X141075382Y-101352793D01*
X141184650Y-101272150D01*
X141265293Y-101162882D01*
X141310146Y-101034699D01*
X141313000Y-101004266D01*
X141313000Y-100626633D01*
X141334674Y-100574307D01*
X141354267Y-100560266D01*
X141465812Y-100505259D01*
X141474746Y-100501560D01*
X141480720Y-100499532D01*
X141537236Y-100503235D01*
X141574580Y-100545816D01*
X141576049Y-100552116D01*
X141576200Y-100552076D01*
X141577454Y-100556758D01*
X141637964Y-100702841D01*
X141734215Y-100828279D01*
X141734220Y-100828284D01*
X141767854Y-100854092D01*
X141859659Y-100924536D01*
X142005738Y-100985044D01*
X142123139Y-101000500D01*
X143001860Y-101000499D01*
X143119262Y-100985044D01*
X143265341Y-100924536D01*
X143390782Y-100828282D01*
X143487036Y-100702841D01*
X143547544Y-100556762D01*
X143563000Y-100439361D01*
X143562999Y-98960640D01*
X147562000Y-98960640D01*
X147562000Y-100439359D01*
X147577455Y-100556759D01*
X147577456Y-100556763D01*
X147637963Y-100702840D01*
X147734215Y-100828279D01*
X147734220Y-100828284D01*
X147816579Y-100891480D01*
X147859659Y-100924536D01*
X147903818Y-100942827D01*
X147943867Y-100982875D01*
X147949500Y-101011194D01*
X147949500Y-103791486D01*
X147927826Y-103843812D01*
X147919443Y-103851026D01*
X147815350Y-103927849D01*
X147815346Y-103927853D01*
X147734707Y-104037116D01*
X147734706Y-104037118D01*
X147689855Y-104165295D01*
X147689854Y-104165299D01*
X147689854Y-104165301D01*
X147687000Y-104195734D01*
X147687000Y-105204266D01*
X147689854Y-105234699D01*
X147689854Y-105234701D01*
X147689855Y-105234704D01*
X147734706Y-105362881D01*
X147734707Y-105362883D01*
X147815346Y-105472146D01*
X147815353Y-105472153D01*
X147924616Y-105552792D01*
X147924618Y-105552793D01*
X148052795Y-105597644D01*
X148052801Y-105597646D01*
X148083234Y-105600500D01*
X148083241Y-105600500D01*
X148716758Y-105600500D01*
X148716766Y-105600500D01*
X148747199Y-105597646D01*
X148875382Y-105552793D01*
X148984650Y-105472150D01*
X149065293Y-105362882D01*
X149110146Y-105234699D01*
X149113000Y-105204266D01*
X149113000Y-104195734D01*
X149110146Y-104165301D01*
X149065293Y-104037118D01*
X149060408Y-104030499D01*
X148984653Y-103927853D01*
X148984649Y-103927849D01*
X148880557Y-103851026D01*
X148851327Y-103802515D01*
X148850500Y-103791486D01*
X148850500Y-101074499D01*
X148872174Y-101022173D01*
X148924500Y-101000499D01*
X149001859Y-101000499D01*
X149001860Y-101000499D01*
X149119262Y-100985044D01*
X149265341Y-100924536D01*
X149302701Y-100895867D01*
X149357407Y-100881208D01*
X149386415Y-100891479D01*
X149407078Y-100904142D01*
X149780460Y-101094388D01*
X150167617Y-101254753D01*
X150566162Y-101384247D01*
X150566175Y-101384250D01*
X150566178Y-101384251D01*
X150973621Y-101482068D01*
X150973635Y-101482070D01*
X150973640Y-101482072D01*
X151387536Y-101547625D01*
X151805300Y-101580501D01*
X152014827Y-101580500D01*
X152525500Y-101580500D01*
X152577826Y-101602174D01*
X152599500Y-101654500D01*
X152599500Y-102715124D01*
X152577826Y-102767450D01*
X151753442Y-103591834D01*
X151712968Y-103632307D01*
X151709953Y-103635157D01*
X151538821Y-103788093D01*
X151532333Y-103793267D01*
X151346848Y-103924878D01*
X151339821Y-103929293D01*
X151140764Y-104039309D01*
X151133288Y-104042910D01*
X150995139Y-104100134D01*
X150938502Y-104100134D01*
X150898453Y-104060086D01*
X150896978Y-104056223D01*
X150890293Y-104037118D01*
X150885408Y-104030499D01*
X150809653Y-103927853D01*
X150809646Y-103927846D01*
X150700383Y-103847207D01*
X150700381Y-103847206D01*
X150572204Y-103802355D01*
X150572205Y-103802355D01*
X150572200Y-103802354D01*
X150572199Y-103802354D01*
X150541766Y-103799500D01*
X149908234Y-103799500D01*
X149877801Y-103802354D01*
X149877799Y-103802354D01*
X149877795Y-103802355D01*
X149749618Y-103847206D01*
X149749616Y-103847207D01*
X149640353Y-103927846D01*
X149640346Y-103927853D01*
X149559707Y-104037116D01*
X149559706Y-104037118D01*
X149514855Y-104165295D01*
X149514854Y-104165299D01*
X149514854Y-104165301D01*
X149512000Y-104195734D01*
X149512000Y-105204266D01*
X149514854Y-105234699D01*
X149514854Y-105234701D01*
X149514855Y-105234704D01*
X149559706Y-105362881D01*
X149559707Y-105362883D01*
X149640346Y-105472146D01*
X149640353Y-105472153D01*
X149749616Y-105552792D01*
X149749618Y-105552793D01*
X149877795Y-105597644D01*
X149877801Y-105597646D01*
X149908234Y-105600500D01*
X149908241Y-105600500D01*
X150541758Y-105600500D01*
X150541766Y-105600500D01*
X150572199Y-105597646D01*
X150700382Y-105552793D01*
X150809650Y-105472150D01*
X150890293Y-105362882D01*
X150935146Y-105234699D01*
X150938000Y-105204266D01*
X150938000Y-105124243D01*
X150959674Y-105071917D01*
X150990516Y-105053430D01*
X151237986Y-104978361D01*
X151510604Y-104865437D01*
X151770841Y-104726335D01*
X152016191Y-104562394D01*
X152244289Y-104375195D01*
X152348615Y-104270867D01*
X152365369Y-104254113D01*
X153214929Y-103404554D01*
X153267255Y-103382880D01*
X154419746Y-103382880D01*
X154419748Y-103382880D01*
X154478231Y-103371247D01*
X154544552Y-103326932D01*
X154588867Y-103260611D01*
X154600500Y-103202128D01*
X154600500Y-101654500D01*
X154622174Y-101602174D01*
X154674500Y-101580500D01*
X154885500Y-101580500D01*
X154937826Y-101602174D01*
X154959500Y-101654500D01*
X154959500Y-102533616D01*
X154960672Y-102539507D01*
X154985807Y-102665876D01*
X154986318Y-102691887D01*
X154969196Y-102799998D01*
X154969196Y-102799999D01*
X154990280Y-102933126D01*
X155041816Y-103034270D01*
X155051472Y-103053220D01*
X155146780Y-103148528D01*
X155266874Y-103209719D01*
X155361244Y-103224665D01*
X155390780Y-103236225D01*
X155459769Y-103282322D01*
X155632749Y-103353973D01*
X155816384Y-103390500D01*
X155816385Y-103390500D01*
X156003615Y-103390500D01*
X156003616Y-103390500D01*
X156187251Y-103353973D01*
X156344527Y-103288827D01*
X156360227Y-103282324D01*
X156360227Y-103282323D01*
X156360231Y-103282322D01*
X156435431Y-103232073D01*
X156464967Y-103220513D01*
X156533126Y-103209719D01*
X156653220Y-103148528D01*
X156748528Y-103053220D01*
X156809719Y-102933126D01*
X156830804Y-102800000D01*
X156822509Y-102747630D01*
X156824354Y-102721035D01*
X156823264Y-102720819D01*
X156853462Y-102568998D01*
X156860500Y-102533616D01*
X156860500Y-101366384D01*
X156823973Y-101182749D01*
X156752322Y-101009769D01*
X156648302Y-100854092D01*
X156515908Y-100721698D01*
X156487686Y-100702841D01*
X156464482Y-100687336D01*
X156360231Y-100617678D01*
X156360228Y-100617676D01*
X156360227Y-100617676D01*
X156187251Y-100546027D01*
X156187244Y-100546025D01*
X156040346Y-100516806D01*
X156003616Y-100509500D01*
X155816384Y-100509500D01*
X155780056Y-100516725D01*
X155632755Y-100546025D01*
X155632748Y-100546027D01*
X155459768Y-100617678D01*
X155365618Y-100680586D01*
X155314847Y-100692424D01*
X155247675Y-100683580D01*
X155216688Y-100679501D01*
X155216686Y-100679500D01*
X155216679Y-100679500D01*
X155172621Y-100679500D01*
X155172619Y-100679500D01*
X154650382Y-100679500D01*
X154598056Y-100657826D01*
X154576382Y-100605500D01*
X154591329Y-100560905D01*
X154624629Y-100516808D01*
X154624631Y-100516806D01*
X154723760Y-100317726D01*
X154723762Y-100317722D01*
X154784620Y-100103825D01*
X154784622Y-100103812D01*
X154805141Y-99882383D01*
X154805141Y-99882376D01*
X154784622Y-99660947D01*
X154784620Y-99660934D01*
X154723762Y-99447037D01*
X154723760Y-99447033D01*
X154624631Y-99247953D01*
X154624629Y-99247950D01*
X154578437Y-99186783D01*
X153986370Y-99778850D01*
X153972741Y-99727986D01*
X153920080Y-99636774D01*
X153845606Y-99562300D01*
X153754394Y-99509639D01*
X153703525Y-99496009D01*
X154296998Y-98902537D01*
X154137182Y-98803585D01*
X154137172Y-98803580D01*
X153929805Y-98723245D01*
X153711199Y-98682380D01*
X153488800Y-98682380D01*
X153270194Y-98723245D01*
X153062827Y-98803580D01*
X153062817Y-98803585D01*
X152903000Y-98902537D01*
X153496472Y-99496009D01*
X153445606Y-99509639D01*
X153354394Y-99562300D01*
X153279920Y-99636774D01*
X153227259Y-99727986D01*
X153213629Y-99778852D01*
X152621560Y-99186783D01*
X152575368Y-99247954D01*
X152575367Y-99247957D01*
X152476239Y-99447033D01*
X152476237Y-99447037D01*
X152415379Y-99660934D01*
X152415377Y-99660947D01*
X152394859Y-99882376D01*
X152394859Y-99882383D01*
X152415377Y-100103812D01*
X152415379Y-100103825D01*
X152476237Y-100317722D01*
X152476239Y-100317726D01*
X152575368Y-100516806D01*
X152575370Y-100516808D01*
X152608671Y-100560905D01*
X152622908Y-100615723D01*
X152594213Y-100664553D01*
X152549618Y-100679500D01*
X152016448Y-100679500D01*
X152013220Y-100679430D01*
X151631786Y-100662777D01*
X151625355Y-100662214D01*
X151248444Y-100612595D01*
X151242087Y-100611474D01*
X150870933Y-100529193D01*
X150864697Y-100527522D01*
X150502126Y-100413204D01*
X150496060Y-100410996D01*
X150144838Y-100265516D01*
X150138987Y-100262788D01*
X149801772Y-100087246D01*
X149796181Y-100084018D01*
X149597239Y-99957279D01*
X149564753Y-99910885D01*
X149562999Y-99894868D01*
X149562999Y-98960640D01*
X149555350Y-98902537D01*
X149547544Y-98843238D01*
X149487036Y-98697159D01*
X149461088Y-98663343D01*
X149390784Y-98571720D01*
X149390779Y-98571715D01*
X149265341Y-98475464D01*
X149119261Y-98414955D01*
X149029175Y-98403095D01*
X149001861Y-98399500D01*
X149001859Y-98399500D01*
X148123140Y-98399500D01*
X148005740Y-98414955D01*
X148005736Y-98414956D01*
X147859659Y-98475463D01*
X147734220Y-98571715D01*
X147734215Y-98571720D01*
X147637964Y-98697158D01*
X147577455Y-98843238D01*
X147562000Y-98960640D01*
X143562999Y-98960640D01*
X143547544Y-98843238D01*
X143487036Y-98697159D01*
X143461088Y-98663343D01*
X143390784Y-98571720D01*
X143390779Y-98571715D01*
X143265341Y-98475464D01*
X143119261Y-98414955D01*
X143029175Y-98403095D01*
X143001861Y-98399500D01*
X143001859Y-98399500D01*
X142774410Y-98399500D01*
X142722084Y-98377826D01*
X142704875Y-98350814D01*
X142632989Y-98153303D01*
X142495651Y-97858778D01*
X142473771Y-97820881D01*
X142333163Y-97577341D01*
X142333162Y-97577340D01*
X142252316Y-97461880D01*
X142146770Y-97311143D01*
X141937882Y-97062201D01*
X141822988Y-96947306D01*
X141806238Y-96930556D01*
X141589173Y-96713491D01*
X141585992Y-96710310D01*
X141585923Y-96710249D01*
X141539264Y-96663589D01*
X141539259Y-96663585D01*
X141354052Y-96521468D01*
X141151880Y-96404741D01*
X141151871Y-96404736D01*
X141078674Y-96374417D01*
X141038626Y-96334368D01*
X141033904Y-96317625D01*
X141023146Y-96249696D01*
X141016674Y-96236995D01*
X141012230Y-96180535D01*
X141049012Y-96137466D01*
X141082593Y-96129400D01*
X152037894Y-96127519D01*
X152099970Y-96119341D01*
X152173095Y-96099747D01*
X152230976Y-96075772D01*
X152296539Y-96037920D01*
X152334786Y-96010513D01*
X152363306Y-95985501D01*
X152374930Y-95974604D01*
X154199941Y-94146084D01*
X154237917Y-94096543D01*
X154275770Y-94030981D01*
X154299747Y-93973095D01*
X154319341Y-93899968D01*
X154327005Y-93853549D01*
X154329486Y-93815697D01*
X154330000Y-93799613D01*
X154327986Y-92552080D01*
X154349576Y-92499722D01*
X155218138Y-91630000D01*
X155689196Y-91630000D01*
X155710280Y-91763126D01*
X155741434Y-91824267D01*
X155749500Y-91857862D01*
X155749500Y-92031138D01*
X155741435Y-92064733D01*
X155710281Y-92125876D01*
X155689196Y-92259003D01*
X155710280Y-92392129D01*
X155771471Y-92512222D01*
X155779796Y-92520547D01*
X155800048Y-92558437D01*
X155835869Y-92738536D01*
X155921407Y-93020524D01*
X155921412Y-93020538D01*
X156034169Y-93292761D01*
X156034172Y-93292768D01*
X156173065Y-93552622D01*
X156173068Y-93552628D01*
X156173073Y-93552636D01*
X156287029Y-93723185D01*
X156299500Y-93764297D01*
X156299500Y-94196859D01*
X156314955Y-94314259D01*
X156314956Y-94314263D01*
X156375463Y-94460340D01*
X156471715Y-94585779D01*
X156471720Y-94585784D01*
X156555345Y-94649951D01*
X156597159Y-94682036D01*
X156743238Y-94742544D01*
X156860639Y-94758000D01*
X157739360Y-94757999D01*
X157814224Y-94748143D01*
X157868929Y-94762802D01*
X157897248Y-94811851D01*
X157882589Y-94866558D01*
X157876233Y-94873809D01*
X157404532Y-95345988D01*
X157382889Y-95378397D01*
X157366982Y-95416803D01*
X157360492Y-95432471D01*
X157353364Y-95460927D01*
X157353361Y-95460945D01*
X157350482Y-95490185D01*
X157350480Y-95490207D01*
X157350000Y-95500048D01*
X157352882Y-101529315D01*
X157360494Y-101567532D01*
X157382893Y-101621608D01*
X157394040Y-101640205D01*
X157397978Y-101646775D01*
X157416633Y-101669506D01*
X157423399Y-101676952D01*
X158246130Y-102495607D01*
X158262273Y-102506364D01*
X158278395Y-102517108D01*
X158278397Y-102517109D01*
X158278399Y-102517110D01*
X158310068Y-102530226D01*
X158310068Y-102530227D01*
X158332465Y-102539505D01*
X158332467Y-102539505D01*
X158332471Y-102539507D01*
X158343835Y-102542353D01*
X158360935Y-102546637D01*
X158360943Y-102546637D01*
X158360944Y-102546638D01*
X158365563Y-102547092D01*
X158390199Y-102549519D01*
X158400158Y-102550000D01*
X160061212Y-102547379D01*
X160113572Y-102568971D01*
X160113599Y-102568998D01*
X161943980Y-104395499D01*
X161943982Y-104395500D01*
X161943989Y-104395507D01*
X161976357Y-104417109D01*
X161976358Y-104417109D01*
X161976359Y-104417110D01*
X161976363Y-104417112D01*
X162030424Y-104439504D01*
X162030429Y-104439506D01*
X162068697Y-104447118D01*
X162127222Y-104447118D01*
X162127223Y-104447118D01*
X162165490Y-104439506D01*
X162219563Y-104417109D01*
X162252007Y-104395432D01*
X162293392Y-104354047D01*
X162315069Y-104321603D01*
X162337466Y-104267530D01*
X162345078Y-104229263D01*
X162345078Y-104170737D01*
X162337466Y-104132469D01*
X162315069Y-104078397D01*
X162315067Y-104078393D01*
X162315067Y-104078392D01*
X162299983Y-104053226D01*
X162281331Y-104030499D01*
X162281322Y-104030489D01*
X162274671Y-104023157D01*
X162274653Y-104023138D01*
X160351934Y-102104496D01*
X160351930Y-102104492D01*
X160319567Y-102082893D01*
X160319566Y-102082892D01*
X160319564Y-102082891D01*
X160319558Y-102082888D01*
X160319553Y-102082886D01*
X160281175Y-102066989D01*
X160281159Y-102066983D01*
X160265492Y-102060494D01*
X160265485Y-102060491D01*
X160237032Y-102053364D01*
X160237014Y-102053361D01*
X160207764Y-102050481D01*
X160201785Y-102050192D01*
X160197802Y-102050000D01*
X160197800Y-102050000D01*
X158536483Y-102052618D01*
X158484170Y-102031074D01*
X157871741Y-101421679D01*
X157859822Y-101393104D01*
X158249499Y-101393104D01*
X158257630Y-101460802D01*
X158260123Y-101481564D01*
X158260324Y-101482073D01*
X158315638Y-101622341D01*
X158387220Y-101716735D01*
X158407078Y-101742922D01*
X158527658Y-101834361D01*
X158668436Y-101889877D01*
X158733207Y-101897655D01*
X158756896Y-101900500D01*
X158756898Y-101900500D01*
X160043104Y-101900500D01*
X160058722Y-101898624D01*
X160131564Y-101889877D01*
X160272342Y-101834361D01*
X160392922Y-101742922D01*
X160484361Y-101622342D01*
X160539877Y-101481564D01*
X160549732Y-101399500D01*
X160550500Y-101393104D01*
X160550500Y-100606895D01*
X160544900Y-100560264D01*
X160539877Y-100518436D01*
X160484361Y-100377658D01*
X160392922Y-100257078D01*
X160392920Y-100257076D01*
X160272341Y-100165638D01*
X160167362Y-100124240D01*
X160131564Y-100110123D01*
X160102076Y-100106582D01*
X160043104Y-100099500D01*
X160043102Y-100099500D01*
X158756898Y-100099500D01*
X158756896Y-100099500D01*
X158668436Y-100110123D01*
X158527658Y-100165638D01*
X158407078Y-100257077D01*
X158407077Y-100257078D01*
X158315638Y-100377658D01*
X158260123Y-100518436D01*
X158253414Y-100574307D01*
X158249500Y-100606898D01*
X158249500Y-101393102D01*
X158249500Y-101393104D01*
X158249499Y-101393104D01*
X157859822Y-101393104D01*
X157849937Y-101369407D01*
X157849937Y-101369258D01*
X157849891Y-101272146D01*
X157847196Y-95636945D01*
X157868843Y-95584614D01*
X158125894Y-95327302D01*
X158178209Y-95305602D01*
X158230545Y-95327250D01*
X158252246Y-95379565D01*
X158251718Y-95388425D01*
X158249500Y-95406898D01*
X158249500Y-96193102D01*
X158249500Y-96193104D01*
X158249499Y-96193104D01*
X158260123Y-96281563D01*
X158315638Y-96422341D01*
X158315639Y-96422342D01*
X158407078Y-96542922D01*
X158527658Y-96634361D01*
X158668436Y-96689877D01*
X158739764Y-96698442D01*
X158756896Y-96700500D01*
X158756898Y-96700500D01*
X160043104Y-96700500D01*
X160058722Y-96698624D01*
X160131564Y-96689877D01*
X160272342Y-96634361D01*
X160392922Y-96542922D01*
X160484361Y-96422342D01*
X160539877Y-96281564D01*
X160550500Y-96193102D01*
X160550500Y-95406898D01*
X160539877Y-95318436D01*
X160484361Y-95177658D01*
X160392922Y-95057078D01*
X160272342Y-94965639D01*
X160272341Y-94965638D01*
X160187079Y-94932015D01*
X160131564Y-94910123D01*
X160102076Y-94906582D01*
X160043104Y-94899500D01*
X160043102Y-94899500D01*
X158756898Y-94899500D01*
X158756893Y-94899500D01*
X158737790Y-94901794D01*
X158683254Y-94886513D01*
X158655496Y-94837144D01*
X158670777Y-94782608D01*
X158676616Y-94776023D01*
X158852239Y-94600222D01*
X161673648Y-91775952D01*
X161725963Y-91754252D01*
X161778299Y-91775900D01*
X161800000Y-91828215D01*
X161800000Y-91931481D01*
X161814834Y-92025148D01*
X161814835Y-92025149D01*
X161872360Y-92138046D01*
X161961953Y-92227639D01*
X162074850Y-92285164D01*
X162168518Y-92299999D01*
X162800000Y-92299999D01*
X162800000Y-91446410D01*
X162845606Y-91472741D01*
X162947339Y-91500000D01*
X163052661Y-91500000D01*
X163154394Y-91472741D01*
X163200000Y-91446410D01*
X163200000Y-92299999D01*
X163831481Y-92299999D01*
X163925148Y-92285165D01*
X163925149Y-92285164D01*
X164038046Y-92227639D01*
X164127639Y-92138046D01*
X164185164Y-92025149D01*
X164185164Y-92025148D01*
X164200000Y-91931481D01*
X164200000Y-91300000D01*
X163346410Y-91300000D01*
X163372741Y-91254394D01*
X163400000Y-91152661D01*
X163400000Y-91100000D01*
X165494659Y-91100000D01*
X165513976Y-91296133D01*
X165571187Y-91484731D01*
X165644348Y-91621603D01*
X165664090Y-91658538D01*
X165789117Y-91810883D01*
X165941462Y-91935910D01*
X166018426Y-91977048D01*
X166115268Y-92028812D01*
X166115270Y-92028812D01*
X166115273Y-92028814D01*
X166303868Y-92086024D01*
X166500000Y-92105341D01*
X166696132Y-92086024D01*
X166884727Y-92028814D01*
X167058538Y-91935910D01*
X167210883Y-91810883D01*
X167335910Y-91658538D01*
X167428814Y-91484727D01*
X167486024Y-91296132D01*
X167505341Y-91100000D01*
X167486024Y-90903868D01*
X167428814Y-90715273D01*
X167428812Y-90715270D01*
X167428812Y-90715268D01*
X167374216Y-90613127D01*
X167335910Y-90541462D01*
X167210883Y-90389117D01*
X167058538Y-90264090D01*
X167048597Y-90258776D01*
X166884731Y-90171187D01*
X166696133Y-90113976D01*
X166500000Y-90094659D01*
X166303866Y-90113976D01*
X166115268Y-90171187D01*
X165941463Y-90264089D01*
X165789117Y-90389117D01*
X165664089Y-90541463D01*
X165571187Y-90715268D01*
X165513976Y-90903866D01*
X165494659Y-91100000D01*
X163400000Y-91100000D01*
X163400000Y-91047339D01*
X163372741Y-90945606D01*
X163346411Y-90900000D01*
X164199999Y-90900000D01*
X164199999Y-90268517D01*
X164185165Y-90174851D01*
X164185164Y-90174850D01*
X164127639Y-90061953D01*
X164038046Y-89972360D01*
X163925149Y-89914835D01*
X163831482Y-89900000D01*
X163200000Y-89900000D01*
X163200000Y-90753589D01*
X163154394Y-90727259D01*
X163052661Y-90700000D01*
X162947339Y-90700000D01*
X162845606Y-90727259D01*
X162800000Y-90753589D01*
X162800000Y-89900000D01*
X162168518Y-89900000D01*
X162074851Y-89914834D01*
X162074850Y-89914835D01*
X161961953Y-89972360D01*
X161872360Y-90061953D01*
X161814835Y-90174850D01*
X161814835Y-90174851D01*
X161800000Y-90268518D01*
X161800000Y-90900000D01*
X162653589Y-90900000D01*
X162627259Y-90945606D01*
X162600000Y-91047339D01*
X162600000Y-91152661D01*
X162627259Y-91254394D01*
X162653590Y-91300000D01*
X161769657Y-91300000D01*
X161728547Y-91287530D01*
X161721603Y-91282891D01*
X161667535Y-91260495D01*
X161667524Y-91260492D01*
X161629263Y-91252882D01*
X161570737Y-91252882D01*
X161563136Y-91254394D01*
X161532477Y-91260492D01*
X161532474Y-91260493D01*
X161532470Y-91260494D01*
X161478397Y-91282891D01*
X161478394Y-91282892D01*
X161478391Y-91282894D01*
X161453223Y-91297979D01*
X161430496Y-91316631D01*
X161430476Y-91316649D01*
X161423213Y-91323234D01*
X161423171Y-91323274D01*
X158416446Y-94333048D01*
X158364131Y-94354749D01*
X158311795Y-94333101D01*
X158290094Y-94280786D01*
X158290726Y-94271099D01*
X158300500Y-94196861D01*
X158300499Y-92718140D01*
X158285044Y-92600738D01*
X158224536Y-92454659D01*
X158128282Y-92329218D01*
X158128279Y-92329215D01*
X158002841Y-92232964D01*
X157856761Y-92172455D01*
X157753173Y-92158818D01*
X157704124Y-92130499D01*
X157691990Y-92102256D01*
X157691517Y-92102410D01*
X157689845Y-92097264D01*
X157689743Y-92097026D01*
X157689719Y-92096875D01*
X157689717Y-92096869D01*
X157658566Y-92035733D01*
X157650500Y-92002136D01*
X157650500Y-91977548D01*
X157650501Y-91915369D01*
X157650500Y-91915363D01*
X157650500Y-91867113D01*
X157658565Y-91833520D01*
X157709719Y-91733126D01*
X157730804Y-91600000D01*
X157709719Y-91466874D01*
X157709719Y-91466873D01*
X157648528Y-91346780D01*
X157553219Y-91251471D01*
X157433128Y-91190282D01*
X157433127Y-91190281D01*
X157433126Y-91190281D01*
X157433124Y-91190280D01*
X157433122Y-91190280D01*
X157417570Y-91187817D01*
X157369279Y-91158224D01*
X157356058Y-91103151D01*
X157362776Y-91082003D01*
X157390427Y-91025933D01*
X157395245Y-91017587D01*
X157521179Y-90829114D01*
X157527052Y-90821460D01*
X157678063Y-90649262D01*
X157681344Y-90645759D01*
X157709711Y-90617392D01*
X158790489Y-89536614D01*
X158790490Y-89536613D01*
X159067827Y-89259277D01*
X159083121Y-89243982D01*
X159087351Y-89240073D01*
X159235118Y-89113869D01*
X159244506Y-89107050D01*
X159278608Y-89086152D01*
X159334546Y-89077293D01*
X159341713Y-89079401D01*
X159465295Y-89122644D01*
X159465301Y-89122646D01*
X159495734Y-89125500D01*
X159495741Y-89125500D01*
X160504258Y-89125500D01*
X160504266Y-89125500D01*
X160534699Y-89122646D01*
X160662882Y-89077793D01*
X160772150Y-88997150D01*
X160852793Y-88887882D01*
X160897646Y-88759699D01*
X160900500Y-88729266D01*
X160900500Y-88095734D01*
X160897646Y-88065301D01*
X160852793Y-87937118D01*
X160833942Y-87911575D01*
X160772153Y-87827853D01*
X160772146Y-87827846D01*
X160662883Y-87747207D01*
X160662881Y-87747206D01*
X160534704Y-87702355D01*
X160534705Y-87702355D01*
X160534700Y-87702354D01*
X160534699Y-87702354D01*
X160504266Y-87699500D01*
X159495734Y-87699500D01*
X159465301Y-87702354D01*
X159465299Y-87702354D01*
X159465295Y-87702355D01*
X159337118Y-87747206D01*
X159337116Y-87747207D01*
X159227853Y-87827846D01*
X159227846Y-87827853D01*
X159147207Y-87937116D01*
X159147206Y-87937118D01*
X159102355Y-88065295D01*
X159102354Y-88065299D01*
X159102354Y-88065301D01*
X159099500Y-88095734D01*
X159099500Y-88095740D01*
X159099500Y-88107927D01*
X159077826Y-88160253D01*
X159057607Y-88174599D01*
X158936678Y-88232834D01*
X158727955Y-88363981D01*
X158727952Y-88363984D01*
X158535228Y-88517672D01*
X158491861Y-88561036D01*
X158491861Y-88561038D01*
X158490007Y-88562892D01*
X158490003Y-88562895D01*
X158448068Y-88604829D01*
X158448067Y-88604830D01*
X158410348Y-88642548D01*
X158142977Y-88909919D01*
X157084532Y-89968365D01*
X157064269Y-89988628D01*
X157064260Y-89988631D01*
X156935066Y-90117825D01*
X156745440Y-90355609D01*
X156583630Y-90613131D01*
X156451677Y-90887135D01*
X156451670Y-90887152D01*
X156416816Y-90986759D01*
X156379076Y-91028990D01*
X156375288Y-91030685D01*
X156249769Y-91082677D01*
X156094095Y-91186695D01*
X156091364Y-91189426D01*
X156050620Y-91210184D01*
X155986877Y-91220280D01*
X155986871Y-91220282D01*
X155866780Y-91281471D01*
X155771471Y-91376780D01*
X155710281Y-91496873D01*
X155710280Y-91496873D01*
X155689196Y-91630000D01*
X155218138Y-91630000D01*
X156799892Y-90046133D01*
X156837920Y-89996539D01*
X156875772Y-89930976D01*
X156899747Y-89873094D01*
X156919341Y-89799968D01*
X156927005Y-89753549D01*
X156929486Y-89715697D01*
X156930000Y-89699945D01*
X156929208Y-86270734D01*
X159099500Y-86270734D01*
X159099500Y-86904266D01*
X159102354Y-86934699D01*
X159102354Y-86934701D01*
X159102355Y-86934704D01*
X159147206Y-87062881D01*
X159147207Y-87062883D01*
X159227846Y-87172146D01*
X159227853Y-87172153D01*
X159337116Y-87252792D01*
X159337118Y-87252793D01*
X159465295Y-87297644D01*
X159465301Y-87297646D01*
X159495734Y-87300500D01*
X159495741Y-87300500D01*
X160504258Y-87300500D01*
X160504266Y-87300500D01*
X160534699Y-87297646D01*
X160662882Y-87252793D01*
X160772150Y-87172150D01*
X160852793Y-87062882D01*
X160897646Y-86934699D01*
X160900500Y-86904266D01*
X160900500Y-86354755D01*
X160922174Y-86302429D01*
X161839237Y-85385366D01*
X161839257Y-85385357D01*
X161860922Y-85363691D01*
X161860923Y-85363692D01*
X161965585Y-85259028D01*
X162150155Y-85027581D01*
X162307651Y-84776925D01*
X162436092Y-84510210D01*
X162439986Y-84499079D01*
X162477720Y-84456847D01*
X162488344Y-84452705D01*
X162567107Y-84428814D01*
X162740918Y-84335910D01*
X162893263Y-84210883D01*
X163018290Y-84058538D01*
X163111194Y-83884727D01*
X163168404Y-83696132D01*
X163187721Y-83500000D01*
X163168404Y-83303868D01*
X163111194Y-83115273D01*
X163111192Y-83115270D01*
X163111192Y-83115268D01*
X163049579Y-83000000D01*
X163018290Y-82941462D01*
X162893263Y-82789117D01*
X162746314Y-82668518D01*
X163482380Y-82668518D01*
X163482380Y-83300000D01*
X164335969Y-83300000D01*
X164309639Y-83345606D01*
X164282380Y-83447339D01*
X164282380Y-83552661D01*
X164309639Y-83654394D01*
X164335970Y-83700000D01*
X163482381Y-83700000D01*
X163482381Y-84331482D01*
X163497214Y-84425148D01*
X163497215Y-84425149D01*
X163554740Y-84538046D01*
X163644333Y-84627639D01*
X163757230Y-84685164D01*
X163850898Y-84699999D01*
X164482380Y-84699999D01*
X164482380Y-83846410D01*
X164527986Y-83872741D01*
X164629719Y-83900000D01*
X164735041Y-83900000D01*
X164836774Y-83872741D01*
X164882380Y-83846410D01*
X164882380Y-84699999D01*
X165513861Y-84699999D01*
X165607528Y-84685165D01*
X165607529Y-84685164D01*
X165720426Y-84627639D01*
X165810019Y-84538046D01*
X165867544Y-84425149D01*
X165867544Y-84425148D01*
X165882380Y-84331481D01*
X165882380Y-83700000D01*
X165028790Y-83700000D01*
X165055121Y-83654394D01*
X165082380Y-83552661D01*
X165082380Y-83447339D01*
X165055121Y-83345606D01*
X165028791Y-83300000D01*
X165882379Y-83300000D01*
X165882379Y-82668517D01*
X165867545Y-82574851D01*
X165867544Y-82574850D01*
X165810019Y-82461953D01*
X165720426Y-82372360D01*
X165607529Y-82314835D01*
X165513862Y-82300000D01*
X164882380Y-82300000D01*
X164882380Y-83153589D01*
X164836774Y-83127259D01*
X164735041Y-83100000D01*
X164629719Y-83100000D01*
X164527986Y-83127259D01*
X164482380Y-83153589D01*
X164482380Y-82300000D01*
X163850898Y-82300000D01*
X163757231Y-82314834D01*
X163757230Y-82314835D01*
X163644333Y-82372360D01*
X163554740Y-82461953D01*
X163497215Y-82574850D01*
X163497215Y-82574851D01*
X163482380Y-82668518D01*
X162746314Y-82668518D01*
X162740918Y-82664090D01*
X162666312Y-82624212D01*
X162567111Y-82571187D01*
X162378513Y-82513976D01*
X162182380Y-82494659D01*
X161986246Y-82513976D01*
X161797648Y-82571187D01*
X161623843Y-82664089D01*
X161471497Y-82789117D01*
X161346469Y-82941463D01*
X161253567Y-83115268D01*
X161196356Y-83303866D01*
X161177039Y-83500000D01*
X161196356Y-83696133D01*
X161253567Y-83884731D01*
X161341132Y-84048551D01*
X161346470Y-84058538D01*
X161471497Y-84210883D01*
X161500943Y-84235049D01*
X161527642Y-84284998D01*
X161520366Y-84324981D01*
X161501625Y-84362983D01*
X161496786Y-84371365D01*
X161376114Y-84551967D01*
X161370221Y-84559646D01*
X161225502Y-84724667D01*
X161222192Y-84728202D01*
X160097571Y-85852826D01*
X160045245Y-85874500D01*
X159495734Y-85874500D01*
X159465301Y-85877354D01*
X159465299Y-85877354D01*
X159465295Y-85877355D01*
X159337118Y-85922206D01*
X159337116Y-85922207D01*
X159227853Y-86002846D01*
X159227846Y-86002853D01*
X159147207Y-86112116D01*
X159147206Y-86112118D01*
X159102355Y-86240295D01*
X159102354Y-86240299D01*
X159102354Y-86240301D01*
X159099500Y-86270734D01*
X156929208Y-86270734D01*
X156927845Y-80374516D01*
X156949507Y-80322186D01*
X157001828Y-80300500D01*
X166445675Y-80300500D01*
X166498001Y-80322174D01*
G37*
%TD.AperFunction*%
%TA.AperFunction,Conductor*%
G36*
X131790220Y-87623322D02*
G01*
X131805380Y-87636793D01*
X131838427Y-87675488D01*
X131838431Y-87675492D01*
X131838434Y-87675495D01*
X131838438Y-87675498D01*
X131873700Y-87703298D01*
X131880212Y-87709084D01*
X131931915Y-87760787D01*
X131945523Y-87779517D01*
X131966518Y-87820721D01*
X131973673Y-87842741D01*
X131980908Y-87888423D01*
X131980908Y-87911575D01*
X131973673Y-87957256D01*
X131966518Y-87979276D01*
X131945522Y-88020482D01*
X131931914Y-88039212D01*
X131899212Y-88071914D01*
X131880482Y-88085522D01*
X131839276Y-88106518D01*
X131817256Y-88113673D01*
X131771577Y-88120908D01*
X131748424Y-88120908D01*
X131702742Y-88113672D01*
X131680724Y-88106518D01*
X131639515Y-88085521D01*
X131620784Y-88071912D01*
X131588082Y-88039210D01*
X131574474Y-88020479D01*
X131553479Y-87979274D01*
X131546324Y-87957253D01*
X131539090Y-87911572D01*
X131539090Y-87888424D01*
X131539090Y-87888423D01*
X131546324Y-87842741D01*
X131553476Y-87820730D01*
X131574476Y-87779515D01*
X131588078Y-87760792D01*
X131652236Y-87696637D01*
X131666361Y-87675498D01*
X131687580Y-87643740D01*
X131734671Y-87612273D01*
X131790220Y-87623322D01*
G37*
%TD.AperFunction*%
%TA.AperFunction,Conductor*%
G36*
X150363888Y-85847771D02*
G01*
X150499809Y-85928155D01*
X150535030Y-85938387D01*
X150579232Y-85973798D01*
X150585448Y-86030093D01*
X150550037Y-86074295D01*
X150547982Y-86075383D01*
X150496778Y-86101473D01*
X150401472Y-86196779D01*
X150385006Y-86229096D01*
X150341939Y-86265878D01*
X150319072Y-86269500D01*
X150300576Y-86269500D01*
X150257761Y-86255857D01*
X150256534Y-86254986D01*
X150256533Y-86254985D01*
X150181939Y-86202071D01*
X150181938Y-86202070D01*
X150181936Y-86202069D01*
X150142282Y-86185650D01*
X150129610Y-86180403D01*
X150129608Y-86180402D01*
X150129607Y-86180402D01*
X150062490Y-86165091D01*
X149972334Y-86180419D01*
X149972325Y-86180422D01*
X149920004Y-86202101D01*
X149874924Y-86232230D01*
X149866166Y-86234726D01*
X149855661Y-86244554D01*
X149853905Y-86246094D01*
X150308058Y-85791941D01*
X150363888Y-85847771D01*
G37*
%TD.AperFunction*%
%TA.AperFunction,Conductor*%
G36*
X154791576Y-85001845D02*
G01*
X154755664Y-85003608D01*
X154737523Y-85000000D01*
X154797658Y-85000000D01*
X154791576Y-85001845D01*
G37*
%TD.AperFunction*%
%TA.AperFunction,Conductor*%
G36*
X139497135Y-84997135D02*
G01*
X139489276Y-84991884D01*
X139430463Y-84952586D01*
X139378138Y-84930913D01*
X139311025Y-84915594D01*
X139311019Y-84915594D01*
X139305170Y-84916588D01*
X139249954Y-84903983D01*
X139227297Y-84871512D01*
X139224833Y-84872601D01*
X139222585Y-84867509D01*
X139177206Y-84764735D01*
X139148152Y-84735681D01*
X139126478Y-84683355D01*
X139132932Y-84653130D01*
X139139176Y-84639176D01*
X139497135Y-84997135D01*
G37*
%TD.AperFunction*%
%TA.AperFunction,Conductor*%
G36*
X155633024Y-84376326D02*
G01*
X155621811Y-84385528D01*
X155599697Y-84400302D01*
X155639635Y-84360364D01*
X155633024Y-84376326D01*
G37*
%TD.AperFunction*%
%TD*%
M02*
