%TF.GenerationSoftware,KiCad,Pcbnew,8.0.3*%
%TF.CreationDate,2024-07-14T20:02:44+02:00*%
%TF.ProjectId,CleanLVSupply,436c6561-6e4c-4565-9375-70706c792e6b,rev?*%
%TF.SameCoordinates,Original*%
%TF.FileFunction,Copper,L2,Inr*%
%TF.FilePolarity,Positive*%
%FSLAX46Y46*%
G04 Gerber Fmt 4.6, Leading zero omitted, Abs format (unit mm)*
G04 Created by KiCad (PCBNEW 8.0.3) date 2024-07-14 20:02:44*
%MOMM*%
%LPD*%
G01*
G04 APERTURE LIST*
%TA.AperFunction,Conductor*%
%ADD10C,0.000000*%
%TD*%
%TA.AperFunction,ComponentPad*%
%ADD11R,1.600000X1.600000*%
%TD*%
%TA.AperFunction,ComponentPad*%
%ADD12C,1.600000*%
%TD*%
%TA.AperFunction,ViaPad*%
%ADD13C,0.450000*%
%TD*%
G04 APERTURE END LIST*
D10*
%TA.AperFunction,Conductor*%
%TO.N,+12V*%
G36*
X133800000Y-94700000D02*
G01*
X133800000Y-95600000D01*
X130300000Y-95600000D01*
X130300000Y-94400000D01*
X133500000Y-94400000D01*
X133800000Y-94700000D01*
G37*
%TD.AperFunction*%
%TD*%
D11*
%TO.N,GND*%
%TO.C,C18*%
X163000000Y-91100000D03*
D12*
%TO.N,-15V*%
X166500000Y-91100000D03*
%TD*%
D11*
%TO.N,+5V*%
%TO.C,C40*%
X164400000Y-116152651D03*
D12*
%TO.N,GND*%
X164400000Y-112652651D03*
%TD*%
D11*
%TO.N,Net-(C41-Pad1)*%
%TO.C,C41*%
X154055113Y-110600000D03*
D12*
%TO.N,GND*%
X152055113Y-110600000D03*
%TD*%
D11*
%TO.N,GND*%
%TO.C,C14*%
X164682380Y-83500000D03*
D12*
%TO.N,Net-(C14-Pad2)*%
X162182380Y-83500000D03*
%TD*%
D11*
%TO.N,Net-(C29-Pad1)*%
%TO.C,C29*%
X153600000Y-102382380D03*
D12*
%TO.N,GND*%
X153600000Y-99882380D03*
%TD*%
D11*
%TO.N,+15V*%
%TO.C,C28*%
X166752651Y-105800000D03*
D12*
%TO.N,GND*%
X163252651Y-105800000D03*
%TD*%
D13*
%TO.N,/-15V Supply/-17V_SW*%
X151000000Y-86700000D03*
X153720000Y-88080000D03*
X151470000Y-87940000D03*
X137600000Y-88400000D03*
X153760000Y-86100000D03*
X136500000Y-87300000D03*
X135680000Y-94100000D03*
X134200000Y-89500000D03*
X155400000Y-87600000D03*
X131770000Y-86560000D03*
X132700000Y-89600000D03*
X155400000Y-88600000D03*
X136500000Y-88400000D03*
X135300000Y-87300000D03*
X136500000Y-89500000D03*
X134250000Y-87380000D03*
X153740000Y-89230000D03*
X135300000Y-89500000D03*
X133710000Y-83860000D03*
X138800000Y-87100000D03*
X155400000Y-86600000D03*
X137600000Y-89500000D03*
X135300000Y-88400000D03*
X153710000Y-87120000D03*
X134200000Y-88400000D03*
X149600000Y-87080000D03*
X134600000Y-91200000D03*
X137600000Y-87300000D03*
%TO.N,Net-(U1-VCC)*%
X138800000Y-85525000D03*
%TO.N,Net-(U1-RAMP)*%
X132000000Y-85400000D03*
%TO.N,Net-(U1-SS)*%
X132700000Y-91175000D03*
%TO.N,Net-(U1-COMP)*%
X135600000Y-85400000D03*
%TO.N,Net-(U1-FB)*%
X134900000Y-85800000D03*
%TO.N,Net-(U2-EN)*%
X157300000Y-91600000D03*
X156120000Y-92259003D03*
X156120000Y-91630000D03*
X156700000Y-91925000D03*
X157280000Y-92230000D03*
%TO.N,Net-(U1-RT)*%
X134300000Y-85400000D03*
%TO.N,Net-(U4-EN)*%
X155900000Y-102500000D03*
X156400000Y-102200000D03*
X155400000Y-102800000D03*
X155400000Y-102200000D03*
X156400000Y-102800000D03*
%TO.N,Net-(U6-EN)*%
X149800000Y-110600000D03*
X149000000Y-110600000D03*
X149000000Y-109400000D03*
X149800000Y-109400000D03*
X149400000Y-110000000D03*
%TO.N,GND*%
X132800000Y-111300000D03*
X140300000Y-114700000D03*
X146000000Y-85400000D03*
X132800000Y-112120000D03*
X160000000Y-105300000D03*
X133600000Y-91000000D03*
X163200000Y-88900000D03*
X147500000Y-81700000D03*
X143700000Y-85400000D03*
X152300000Y-81600000D03*
X134400000Y-115900000D03*
X147300000Y-110060000D03*
X139700000Y-110500000D03*
X135770000Y-108040000D03*
X156020000Y-115400000D03*
X160400000Y-114500000D03*
X137600000Y-100700000D03*
X146670000Y-99550000D03*
X143480000Y-116880000D03*
X156130000Y-90830000D03*
X158800000Y-107700000D03*
X137920000Y-114030000D03*
X159600000Y-90000000D03*
X160800000Y-90000000D03*
X156000000Y-114700000D03*
X155090000Y-94140000D03*
X157600000Y-105300000D03*
X144690000Y-97570000D03*
X155540000Y-115050000D03*
X160000000Y-106500000D03*
X160800000Y-89400000D03*
X159600000Y-89400000D03*
X156700000Y-95000000D03*
X132160000Y-102880000D03*
X140300000Y-81700000D03*
X153210000Y-96200000D03*
X155100000Y-104790000D03*
X155400000Y-81300000D03*
X155080000Y-114690000D03*
X151000000Y-85125000D03*
X141300000Y-85000000D03*
X139800000Y-83700000D03*
X139300000Y-116500000D03*
X148800000Y-84600000D03*
X135400000Y-96800000D03*
X135580000Y-104390000D03*
X131760000Y-87900000D03*
X153000000Y-83500000D03*
X139700000Y-112600000D03*
X146000000Y-84100000D03*
X157300000Y-84450000D03*
X133580000Y-112110000D03*
X145140000Y-102320000D03*
X155400000Y-83000000D03*
X138900000Y-113900000D03*
X160200000Y-89700000D03*
X142600000Y-81700000D03*
X137250000Y-110600000D03*
X146750000Y-112850000D03*
X139700000Y-113300000D03*
X160000000Y-107700000D03*
X137400000Y-113300000D03*
X138200000Y-102300000D03*
X143700000Y-84100000D03*
X158800000Y-105300000D03*
X146170000Y-105070000D03*
X157600000Y-106500000D03*
X135400000Y-96000000D03*
X145400000Y-116000000D03*
X141410000Y-98310000D03*
X134700000Y-98400000D03*
X158820000Y-80980000D03*
X133600000Y-91600000D03*
X137600000Y-99900000D03*
X157600000Y-107700000D03*
X133570000Y-111300000D03*
X146910000Y-117030000D03*
X145000000Y-81700000D03*
X160800000Y-112700000D03*
X150630000Y-112560000D03*
X136800000Y-117500000D03*
X158800000Y-106500000D03*
X139700000Y-111300000D03*
X146050000Y-107600000D03*
X155080000Y-115410000D03*
X135300000Y-115900000D03*
X135700000Y-101000000D03*
%TO.N,+12V*%
X134300000Y-118600000D03*
X137100000Y-81200000D03*
X137500000Y-82800000D03*
X134800000Y-119200000D03*
X137100000Y-82200000D03*
X132800000Y-96300000D03*
X132200000Y-96700000D03*
X137600000Y-81700000D03*
X131780000Y-113200000D03*
X132800000Y-97200000D03*
X132324898Y-113446592D03*
X135300000Y-118600000D03*
X132830000Y-113130000D03*
X132830000Y-113790000D03*
X132200000Y-95800000D03*
X132300000Y-114100000D03*
X135800000Y-119200000D03*
X131803942Y-113786743D03*
%TD*%
%TA.AperFunction,Conductor*%
%TO.N,/-15V Supply/-17V_SW*%
G36*
X155848653Y-80322174D02*
G01*
X155870326Y-80374481D01*
X155870378Y-80589961D01*
X155870472Y-80990055D01*
X155848810Y-81042386D01*
X155796489Y-81064072D01*
X155744158Y-81042410D01*
X155653219Y-80951471D01*
X155533126Y-80890281D01*
X155533126Y-80890280D01*
X155400000Y-80869196D01*
X155266873Y-80890280D01*
X155266873Y-80890281D01*
X155146780Y-80951471D01*
X155051471Y-81046780D01*
X154990281Y-81166873D01*
X154990280Y-81166873D01*
X154969196Y-81300000D01*
X154990280Y-81433126D01*
X155051471Y-81553219D01*
X155051472Y-81553220D01*
X155146780Y-81648528D01*
X155266873Y-81709718D01*
X155266873Y-81709719D01*
X155285075Y-81712601D01*
X155400000Y-81730804D01*
X155533126Y-81709719D01*
X155653220Y-81648528D01*
X155744294Y-81557453D01*
X155796619Y-81535780D01*
X155848945Y-81557454D01*
X155870619Y-81609762D01*
X155870875Y-82690457D01*
X155849213Y-82742789D01*
X155796893Y-82764475D01*
X155744561Y-82742813D01*
X155653219Y-82651471D01*
X155533126Y-82590281D01*
X155533126Y-82590280D01*
X155400000Y-82569196D01*
X155266873Y-82590280D01*
X155266873Y-82590281D01*
X155146780Y-82651471D01*
X155051471Y-82746780D01*
X154990281Y-82866873D01*
X154990280Y-82866873D01*
X154969196Y-83000000D01*
X154990280Y-83133126D01*
X155051471Y-83253219D01*
X155051472Y-83253220D01*
X155146780Y-83348528D01*
X155266873Y-83409718D01*
X155266873Y-83409719D01*
X155285075Y-83412601D01*
X155400000Y-83430804D01*
X155533126Y-83409719D01*
X155653220Y-83348528D01*
X155744697Y-83257050D01*
X155797022Y-83235377D01*
X155849348Y-83257051D01*
X155871022Y-83309359D01*
X155872402Y-89125982D01*
X155850740Y-89178313D01*
X155798420Y-89200000D01*
X154900000Y-89200000D01*
X152121674Y-91978326D01*
X152069348Y-92000000D01*
X150400000Y-92000000D01*
X149700000Y-92700000D01*
X149700000Y-94667648D01*
X149678326Y-94719974D01*
X149676252Y-94721969D01*
X149321265Y-95050364D01*
X149271028Y-95070043D01*
X137851651Y-95072428D01*
X137799457Y-95050900D01*
X137345773Y-94599748D01*
X137296537Y-94562078D01*
X137230986Y-94524233D01*
X137230978Y-94524229D01*
X137230976Y-94524228D01*
X137230969Y-94524225D01*
X137173094Y-94500252D01*
X137099976Y-94480660D01*
X137099977Y-94480660D01*
X137053552Y-94472995D01*
X137042229Y-94472253D01*
X137015697Y-94470514D01*
X136999926Y-94470000D01*
X136999919Y-94470000D01*
X134041212Y-94470912D01*
X133988879Y-94449254D01*
X133967189Y-94396935D01*
X133967236Y-94394270D01*
X133969065Y-94343079D01*
X133951211Y-94273126D01*
X133933484Y-94203669D01*
X133933483Y-94203668D01*
X133911812Y-94151350D01*
X133911809Y-94151342D01*
X133888454Y-94102527D01*
X133802229Y-93987345D01*
X132327174Y-92512290D01*
X132305500Y-92459964D01*
X132305500Y-91560900D01*
X132327174Y-91508574D01*
X132379500Y-91486900D01*
X132431826Y-91508574D01*
X132446780Y-91523528D01*
X132566873Y-91584718D01*
X132566873Y-91584719D01*
X132585075Y-91587601D01*
X132700000Y-91605804D01*
X132833126Y-91584719D01*
X132953220Y-91523528D01*
X133048528Y-91428220D01*
X133050990Y-91423386D01*
X133094052Y-91386603D01*
X133150515Y-91391042D01*
X133187301Y-91434106D01*
X133190014Y-91468555D01*
X133169196Y-91599999D01*
X133190280Y-91733126D01*
X133251471Y-91853219D01*
X133251472Y-91853220D01*
X133346780Y-91948528D01*
X133466873Y-92009718D01*
X133466873Y-92009719D01*
X133485075Y-92012601D01*
X133600000Y-92030804D01*
X133733126Y-92009719D01*
X133853220Y-91948528D01*
X133948528Y-91853220D01*
X134009719Y-91733126D01*
X134030804Y-91600000D01*
X134009719Y-91466874D01*
X134009719Y-91466873D01*
X133979685Y-91407929D01*
X133948528Y-91346780D01*
X133948523Y-91346775D01*
X133946140Y-91343494D01*
X133932920Y-91288421D01*
X133946140Y-91256506D01*
X133948521Y-91253226D01*
X133948528Y-91253220D01*
X134009719Y-91133126D01*
X134030804Y-91000000D01*
X134009719Y-90866874D01*
X134009719Y-90866873D01*
X133948528Y-90746780D01*
X133853219Y-90651471D01*
X133733126Y-90590281D01*
X133733126Y-90590280D01*
X133600000Y-90569196D01*
X133466873Y-90590280D01*
X133466873Y-90590281D01*
X133346780Y-90651471D01*
X133251471Y-90746780D01*
X133190281Y-90866873D01*
X133190280Y-90866874D01*
X133185660Y-90896049D01*
X133156067Y-90944340D01*
X133100995Y-90957562D01*
X133052704Y-90927969D01*
X133050974Y-90925148D01*
X133048527Y-90921779D01*
X132953219Y-90826471D01*
X132833126Y-90765281D01*
X132833126Y-90765280D01*
X132700000Y-90744196D01*
X132566873Y-90765280D01*
X132566873Y-90765281D01*
X132446780Y-90826471D01*
X132446779Y-90826472D01*
X132431826Y-90841426D01*
X132379500Y-90863100D01*
X132327174Y-90841426D01*
X132305500Y-90789100D01*
X132305500Y-88700728D01*
X132304843Y-88674964D01*
X132277134Y-88533777D01*
X132277134Y-88533775D01*
X132260990Y-88487637D01*
X132228755Y-88414600D01*
X132143120Y-88298979D01*
X132108201Y-88272559D01*
X132079551Y-88223704D01*
X132093839Y-88168899D01*
X132100521Y-88161226D01*
X132108528Y-88153220D01*
X132169719Y-88033126D01*
X132190804Y-87900000D01*
X132169719Y-87766874D01*
X132169719Y-87766873D01*
X132108528Y-87646780D01*
X132013221Y-87551473D01*
X132013220Y-87551472D01*
X131907713Y-87497713D01*
X131870932Y-87454647D01*
X131870863Y-87409127D01*
X131889584Y-87350906D01*
X131889585Y-87350902D01*
X131899072Y-87295065D01*
X131905681Y-87187191D01*
X131878691Y-87045865D01*
X131812977Y-86917868D01*
X131780202Y-86871677D01*
X131746574Y-86829288D01*
X131746573Y-86829287D01*
X131746570Y-86829283D01*
X131636888Y-86736187D01*
X131636881Y-86736181D01*
X131636872Y-86736175D01*
X131634749Y-86734619D01*
X131634979Y-86734304D01*
X131626067Y-86727195D01*
X131602802Y-86703930D01*
X131592470Y-86690974D01*
X131574965Y-86663115D01*
X131567776Y-86648186D01*
X131556911Y-86617137D01*
X131553226Y-86600990D01*
X131549541Y-86568280D01*
X131549541Y-86551715D01*
X131553226Y-86519005D01*
X131556911Y-86502862D01*
X131567778Y-86471805D01*
X131574962Y-86456887D01*
X131592472Y-86429020D01*
X131602796Y-86416074D01*
X131626075Y-86392795D01*
X131639026Y-86382468D01*
X131663455Y-86367120D01*
X131707669Y-86335918D01*
X131806780Y-86231618D01*
X131839554Y-86185427D01*
X131892314Y-86091103D01*
X131929314Y-85952061D01*
X131928156Y-85906692D01*
X131948488Y-85853830D01*
X131994511Y-85833375D01*
X131994248Y-85831715D01*
X132133126Y-85809719D01*
X132253220Y-85748528D01*
X132348528Y-85653220D01*
X132409719Y-85533126D01*
X132430804Y-85400000D01*
X133869196Y-85400000D01*
X133890280Y-85533126D01*
X133951471Y-85653219D01*
X133951472Y-85653220D01*
X134046780Y-85748528D01*
X134166873Y-85809718D01*
X134166873Y-85809719D01*
X134187958Y-85813058D01*
X134300000Y-85830804D01*
X134396725Y-85815484D01*
X134451797Y-85828706D01*
X134481390Y-85876996D01*
X134490281Y-85933126D01*
X134501835Y-85955803D01*
X134551472Y-86053220D01*
X134646780Y-86148528D01*
X134766873Y-86209718D01*
X134766873Y-86209719D01*
X134785075Y-86212601D01*
X134900000Y-86230804D01*
X135033126Y-86209719D01*
X135153220Y-86148528D01*
X135248528Y-86053220D01*
X135309719Y-85933126D01*
X135323607Y-85845435D01*
X135353200Y-85797146D01*
X135408272Y-85783924D01*
X135430290Y-85791078D01*
X135466873Y-85809718D01*
X135466873Y-85809719D01*
X135485075Y-85812601D01*
X135600000Y-85830804D01*
X135733126Y-85809719D01*
X135853220Y-85748528D01*
X135948528Y-85653220D01*
X136009719Y-85533126D01*
X136011006Y-85525000D01*
X138369196Y-85525000D01*
X138390280Y-85658126D01*
X138436343Y-85748528D01*
X138451472Y-85778220D01*
X138546780Y-85873528D01*
X138666873Y-85934718D01*
X138666873Y-85934719D01*
X138685075Y-85937601D01*
X138800000Y-85955804D01*
X138933126Y-85934719D01*
X139053220Y-85873528D01*
X139148528Y-85778220D01*
X139209719Y-85658126D01*
X139230804Y-85525000D01*
X139209719Y-85391874D01*
X139209719Y-85391873D01*
X139148528Y-85271780D01*
X139053219Y-85176471D01*
X138933126Y-85115281D01*
X138933126Y-85115280D01*
X138800000Y-85094196D01*
X138666873Y-85115280D01*
X138666873Y-85115281D01*
X138546780Y-85176471D01*
X138451471Y-85271780D01*
X138390281Y-85391873D01*
X138390280Y-85391873D01*
X138369196Y-85525000D01*
X136011006Y-85525000D01*
X136030804Y-85400000D01*
X136009719Y-85266874D01*
X136009719Y-85266873D01*
X135948528Y-85146780D01*
X135853219Y-85051471D01*
X135752201Y-85000000D01*
X140869196Y-85000000D01*
X140890280Y-85133126D01*
X140951471Y-85253219D01*
X140951472Y-85253220D01*
X141046780Y-85348528D01*
X141166873Y-85409718D01*
X141166873Y-85409719D01*
X141185075Y-85412601D01*
X141300000Y-85430804D01*
X141433126Y-85409719D01*
X141452201Y-85400000D01*
X143269196Y-85400000D01*
X143290280Y-85533126D01*
X143351471Y-85653219D01*
X143351472Y-85653220D01*
X143446780Y-85748528D01*
X143566873Y-85809718D01*
X143566873Y-85809719D01*
X143585075Y-85812601D01*
X143700000Y-85830804D01*
X143833126Y-85809719D01*
X143953220Y-85748528D01*
X144048528Y-85653220D01*
X144109719Y-85533126D01*
X144130804Y-85400000D01*
X145569196Y-85400000D01*
X145590280Y-85533126D01*
X145651471Y-85653219D01*
X145651472Y-85653220D01*
X145746780Y-85748528D01*
X145866873Y-85809718D01*
X145866873Y-85809719D01*
X145885075Y-85812601D01*
X146000000Y-85830804D01*
X146133126Y-85809719D01*
X146253220Y-85748528D01*
X146348528Y-85653220D01*
X146409719Y-85533126D01*
X146430804Y-85400000D01*
X146409719Y-85266874D01*
X146409719Y-85266873D01*
X146348528Y-85146780D01*
X146326748Y-85125000D01*
X150569196Y-85125000D01*
X150590280Y-85258126D01*
X150651471Y-85378219D01*
X150651472Y-85378220D01*
X150746780Y-85473528D01*
X150866873Y-85534718D01*
X150866873Y-85534719D01*
X150885075Y-85537601D01*
X151000000Y-85555804D01*
X151133126Y-85534719D01*
X151253220Y-85473528D01*
X151348528Y-85378220D01*
X151409719Y-85258126D01*
X151430804Y-85125000D01*
X151409719Y-84991874D01*
X151409719Y-84991873D01*
X151348528Y-84871780D01*
X151253219Y-84776471D01*
X151133126Y-84715281D01*
X151133126Y-84715280D01*
X151000000Y-84694196D01*
X150866873Y-84715280D01*
X150866873Y-84715281D01*
X150746780Y-84776471D01*
X150651471Y-84871780D01*
X150590281Y-84991873D01*
X150590280Y-84991873D01*
X150569196Y-85125000D01*
X146326748Y-85125000D01*
X146253219Y-85051471D01*
X146133126Y-84990281D01*
X146133126Y-84990280D01*
X146000000Y-84969196D01*
X145866873Y-84990280D01*
X145866873Y-84990281D01*
X145746780Y-85051471D01*
X145651471Y-85146780D01*
X145590281Y-85266873D01*
X145590280Y-85266873D01*
X145569196Y-85400000D01*
X144130804Y-85400000D01*
X144109719Y-85266874D01*
X144109719Y-85266873D01*
X144048528Y-85146780D01*
X143953219Y-85051471D01*
X143833126Y-84990281D01*
X143833126Y-84990280D01*
X143700000Y-84969196D01*
X143566873Y-84990280D01*
X143566873Y-84990281D01*
X143446780Y-85051471D01*
X143351471Y-85146780D01*
X143290281Y-85266873D01*
X143290280Y-85266873D01*
X143269196Y-85400000D01*
X141452201Y-85400000D01*
X141553220Y-85348528D01*
X141648528Y-85253220D01*
X141709719Y-85133126D01*
X141730804Y-85000000D01*
X141709719Y-84866874D01*
X141709719Y-84866873D01*
X141648528Y-84746780D01*
X141553219Y-84651471D01*
X141452201Y-84600000D01*
X148369196Y-84600000D01*
X148390280Y-84733126D01*
X148439442Y-84829610D01*
X148451472Y-84853220D01*
X148546780Y-84948528D01*
X148666873Y-85009718D01*
X148666873Y-85009719D01*
X148685075Y-85012601D01*
X148800000Y-85030804D01*
X148933126Y-85009719D01*
X149053220Y-84948528D01*
X149148528Y-84853220D01*
X149209719Y-84733126D01*
X149230804Y-84600000D01*
X149209719Y-84466874D01*
X149209719Y-84466873D01*
X149148528Y-84346780D01*
X149053219Y-84251471D01*
X148933126Y-84190281D01*
X148933126Y-84190280D01*
X148800000Y-84169196D01*
X148666873Y-84190280D01*
X148666873Y-84190281D01*
X148546780Y-84251471D01*
X148451471Y-84346780D01*
X148390281Y-84466873D01*
X148390280Y-84466873D01*
X148369196Y-84600000D01*
X141452201Y-84600000D01*
X141433126Y-84590281D01*
X141433126Y-84590280D01*
X141300000Y-84569196D01*
X141166873Y-84590280D01*
X141166873Y-84590281D01*
X141046780Y-84651471D01*
X140951471Y-84746780D01*
X140890281Y-84866873D01*
X140890280Y-84866873D01*
X140869196Y-85000000D01*
X135752201Y-85000000D01*
X135733126Y-84990281D01*
X135733126Y-84990280D01*
X135600000Y-84969196D01*
X135466873Y-84990280D01*
X135466873Y-84990281D01*
X135346780Y-85051471D01*
X135251471Y-85146780D01*
X135190281Y-85266873D01*
X135176392Y-85354563D01*
X135146799Y-85402854D01*
X135091726Y-85416075D01*
X135069710Y-85408921D01*
X135033126Y-85390281D01*
X135033124Y-85390280D01*
X135033123Y-85390280D01*
X134900000Y-85369196D01*
X134899999Y-85369196D01*
X134803272Y-85384515D01*
X134748200Y-85371293D01*
X134718608Y-85323002D01*
X134709719Y-85266874D01*
X134648528Y-85146780D01*
X134553220Y-85051472D01*
X134553219Y-85051471D01*
X134433126Y-84990281D01*
X134433126Y-84990280D01*
X134300000Y-84969196D01*
X134166873Y-84990280D01*
X134166873Y-84990281D01*
X134046780Y-85051471D01*
X133951471Y-85146780D01*
X133890281Y-85266873D01*
X133890280Y-85266873D01*
X133869196Y-85400000D01*
X132430804Y-85400000D01*
X132409719Y-85266874D01*
X132409719Y-85266873D01*
X132348528Y-85146780D01*
X132253222Y-85051474D01*
X132253220Y-85051472D01*
X132253217Y-85051470D01*
X132250571Y-85049548D01*
X132249423Y-85047675D01*
X132249102Y-85047354D01*
X132249179Y-85047276D01*
X132220978Y-85001257D01*
X132226753Y-84958941D01*
X132280730Y-84840748D01*
X132295714Y-84819169D01*
X132303891Y-84810993D01*
X132303890Y-84810992D01*
X132325562Y-84789322D01*
X132325565Y-84789317D01*
X132666354Y-84448528D01*
X133089318Y-84025563D01*
X133089328Y-84025559D01*
X133100254Y-84014631D01*
X133138706Y-83994264D01*
X133223977Y-83977983D01*
X133223978Y-83977982D01*
X133223980Y-83977982D01*
X133285772Y-83946261D01*
X133351977Y-83912275D01*
X133387883Y-83886800D01*
X133430285Y-83853163D01*
X133430288Y-83853160D01*
X133523391Y-83743475D01*
X133527738Y-83736556D01*
X133532472Y-83729021D01*
X133542799Y-83716071D01*
X133566074Y-83692796D01*
X133579020Y-83682472D01*
X133606887Y-83664962D01*
X133621805Y-83657778D01*
X133652862Y-83646911D01*
X133669005Y-83643226D01*
X133701718Y-83639541D01*
X133718280Y-83639541D01*
X133750990Y-83643226D01*
X133767137Y-83646911D01*
X133798189Y-83657777D01*
X133813113Y-83664964D01*
X133840970Y-83682468D01*
X133840974Y-83682470D01*
X133853930Y-83692802D01*
X133877194Y-83716066D01*
X133887524Y-83729019D01*
X133890851Y-83734314D01*
X133923646Y-83780535D01*
X133923665Y-83780560D01*
X133931358Y-83790206D01*
X133933984Y-83793499D01*
X133933989Y-83793504D01*
X134012014Y-83871929D01*
X134111243Y-83930804D01*
X134135756Y-83945348D01*
X134188082Y-83967022D01*
X134239111Y-83985024D01*
X134381527Y-84005500D01*
X134381533Y-84005500D01*
X137488055Y-84005500D01*
X137513320Y-84004672D01*
X137521099Y-84004418D01*
X137530758Y-84003785D01*
X137563684Y-84000542D01*
X137678627Y-83985409D01*
X137743485Y-83972507D01*
X137762144Y-83967507D01*
X137824749Y-83946255D01*
X137927339Y-83903761D01*
X137986630Y-83874523D01*
X138003361Y-83864864D01*
X138058355Y-83828120D01*
X138150328Y-83757546D01*
X138175903Y-83736556D01*
X138183180Y-83730174D01*
X138207316Y-83707567D01*
X138214883Y-83700000D01*
X139369196Y-83700000D01*
X139390280Y-83833126D01*
X139447923Y-83946255D01*
X139451472Y-83953220D01*
X139546780Y-84048528D01*
X139666873Y-84109718D01*
X139666873Y-84109719D01*
X139685075Y-84112601D01*
X139800000Y-84130804D01*
X139933126Y-84109719D01*
X139952201Y-84100000D01*
X143269196Y-84100000D01*
X143290280Y-84233126D01*
X143351471Y-84353219D01*
X143351472Y-84353220D01*
X143446780Y-84448528D01*
X143566873Y-84509718D01*
X143566873Y-84509719D01*
X143585075Y-84512601D01*
X143700000Y-84530804D01*
X143833126Y-84509719D01*
X143953220Y-84448528D01*
X144048528Y-84353220D01*
X144109719Y-84233126D01*
X144130804Y-84100000D01*
X145569196Y-84100000D01*
X145590280Y-84233126D01*
X145651471Y-84353219D01*
X145651472Y-84353220D01*
X145746780Y-84448528D01*
X145866873Y-84509718D01*
X145866873Y-84509719D01*
X145885075Y-84512601D01*
X146000000Y-84530804D01*
X146133126Y-84509719D01*
X146253220Y-84448528D01*
X146348528Y-84353220D01*
X146409719Y-84233126D01*
X146430804Y-84100000D01*
X146412594Y-83985023D01*
X146409719Y-83966873D01*
X146348528Y-83846780D01*
X146253219Y-83751471D01*
X146133126Y-83690281D01*
X146133126Y-83690280D01*
X146000000Y-83669196D01*
X145866873Y-83690280D01*
X145866873Y-83690281D01*
X145746780Y-83751471D01*
X145651471Y-83846780D01*
X145590281Y-83966873D01*
X145590280Y-83966873D01*
X145569196Y-84100000D01*
X144130804Y-84100000D01*
X144112594Y-83985023D01*
X144109719Y-83966873D01*
X144048528Y-83846780D01*
X143953219Y-83751471D01*
X143833126Y-83690281D01*
X143833126Y-83690280D01*
X143700000Y-83669196D01*
X143566873Y-83690280D01*
X143566873Y-83690281D01*
X143446780Y-83751471D01*
X143351471Y-83846780D01*
X143290281Y-83966873D01*
X143290280Y-83966873D01*
X143269196Y-84100000D01*
X139952201Y-84100000D01*
X140053220Y-84048528D01*
X140148528Y-83953220D01*
X140209719Y-83833126D01*
X140230804Y-83700000D01*
X140209719Y-83566874D01*
X140209719Y-83566873D01*
X140175645Y-83500000D01*
X152569196Y-83500000D01*
X152590280Y-83633126D01*
X152650581Y-83751472D01*
X152651472Y-83753220D01*
X152746780Y-83848528D01*
X152866873Y-83909718D01*
X152866873Y-83909719D01*
X152882993Y-83912272D01*
X153000000Y-83930804D01*
X153133126Y-83909719D01*
X153253220Y-83848528D01*
X153348528Y-83753220D01*
X153409719Y-83633126D01*
X153430804Y-83500000D01*
X153409719Y-83366874D01*
X153409719Y-83366873D01*
X153348528Y-83246780D01*
X153253219Y-83151471D01*
X153133126Y-83090281D01*
X153133126Y-83090280D01*
X153000000Y-83069196D01*
X152866873Y-83090280D01*
X152866873Y-83090281D01*
X152746780Y-83151471D01*
X152651471Y-83246780D01*
X152590281Y-83366873D01*
X152590280Y-83366873D01*
X152569196Y-83500000D01*
X140175645Y-83500000D01*
X140148528Y-83446780D01*
X140053219Y-83351471D01*
X139933126Y-83290281D01*
X139933126Y-83290280D01*
X139800000Y-83269196D01*
X139666873Y-83290280D01*
X139666873Y-83290281D01*
X139546780Y-83351471D01*
X139451471Y-83446780D01*
X139390281Y-83566873D01*
X139390280Y-83566873D01*
X139369196Y-83700000D01*
X138214883Y-83700000D01*
X138907567Y-83007316D01*
X138930174Y-82983180D01*
X138936556Y-82975903D01*
X138957546Y-82950328D01*
X139028120Y-82858355D01*
X139064864Y-82803361D01*
X139074523Y-82786630D01*
X139103761Y-82727339D01*
X139146255Y-82624749D01*
X139167507Y-82562144D01*
X139172507Y-82543485D01*
X139185409Y-82478627D01*
X139200542Y-82363684D01*
X139203785Y-82330758D01*
X139204418Y-82321099D01*
X139205500Y-82288042D01*
X139205500Y-81700000D01*
X139869196Y-81700000D01*
X139890280Y-81833126D01*
X139949081Y-81948528D01*
X139951472Y-81953220D01*
X140046780Y-82048528D01*
X140166873Y-82109718D01*
X140166873Y-82109719D01*
X140185075Y-82112601D01*
X140300000Y-82130804D01*
X140433126Y-82109719D01*
X140553220Y-82048528D01*
X140648528Y-81953220D01*
X140709719Y-81833126D01*
X140730804Y-81700000D01*
X142169196Y-81700000D01*
X142190280Y-81833126D01*
X142249081Y-81948528D01*
X142251472Y-81953220D01*
X142346780Y-82048528D01*
X142466873Y-82109718D01*
X142466873Y-82109719D01*
X142485075Y-82112601D01*
X142600000Y-82130804D01*
X142733126Y-82109719D01*
X142853220Y-82048528D01*
X142948528Y-81953220D01*
X143009719Y-81833126D01*
X143030804Y-81700000D01*
X144569196Y-81700000D01*
X144590280Y-81833126D01*
X144649081Y-81948528D01*
X144651472Y-81953220D01*
X144746780Y-82048528D01*
X144866873Y-82109718D01*
X144866873Y-82109719D01*
X144885075Y-82112601D01*
X145000000Y-82130804D01*
X145133126Y-82109719D01*
X145253220Y-82048528D01*
X145348528Y-81953220D01*
X145409719Y-81833126D01*
X145430804Y-81700000D01*
X147069196Y-81700000D01*
X147090280Y-81833126D01*
X147149081Y-81948528D01*
X147151472Y-81953220D01*
X147246780Y-82048528D01*
X147366873Y-82109718D01*
X147366873Y-82109719D01*
X147385075Y-82112601D01*
X147500000Y-82130804D01*
X147633126Y-82109719D01*
X147753220Y-82048528D01*
X147848528Y-81953220D01*
X147909719Y-81833126D01*
X147930804Y-81700000D01*
X147914966Y-81600000D01*
X151869196Y-81600000D01*
X151890280Y-81733126D01*
X151951471Y-81853219D01*
X151951472Y-81853220D01*
X152046780Y-81948528D01*
X152166873Y-82009718D01*
X152166873Y-82009719D01*
X152185075Y-82012601D01*
X152300000Y-82030804D01*
X152433126Y-82009719D01*
X152553220Y-81948528D01*
X152648528Y-81853220D01*
X152709719Y-81733126D01*
X152730804Y-81600000D01*
X152709719Y-81466874D01*
X152709719Y-81466873D01*
X152648528Y-81346780D01*
X152553219Y-81251471D01*
X152433126Y-81190281D01*
X152433126Y-81190280D01*
X152300000Y-81169196D01*
X152166873Y-81190280D01*
X152166873Y-81190281D01*
X152046780Y-81251471D01*
X151951471Y-81346780D01*
X151890281Y-81466873D01*
X151890280Y-81466873D01*
X151869196Y-81600000D01*
X147914966Y-81600000D01*
X147909719Y-81566874D01*
X147909719Y-81566873D01*
X147848528Y-81446780D01*
X147753219Y-81351471D01*
X147633126Y-81290281D01*
X147633126Y-81290280D01*
X147500000Y-81269196D01*
X147366873Y-81290280D01*
X147366873Y-81290281D01*
X147246780Y-81351471D01*
X147151471Y-81446780D01*
X147090281Y-81566873D01*
X147090280Y-81566873D01*
X147069196Y-81700000D01*
X145430804Y-81700000D01*
X145409719Y-81566874D01*
X145409719Y-81566873D01*
X145348528Y-81446780D01*
X145253219Y-81351471D01*
X145133126Y-81290281D01*
X145133126Y-81290280D01*
X145000000Y-81269196D01*
X144866873Y-81290280D01*
X144866873Y-81290281D01*
X144746780Y-81351471D01*
X144651471Y-81446780D01*
X144590281Y-81566873D01*
X144590280Y-81566873D01*
X144569196Y-81700000D01*
X143030804Y-81700000D01*
X143009719Y-81566874D01*
X143009719Y-81566873D01*
X142948528Y-81446780D01*
X142853219Y-81351471D01*
X142733126Y-81290281D01*
X142733126Y-81290280D01*
X142600000Y-81269196D01*
X142466873Y-81290280D01*
X142466873Y-81290281D01*
X142346780Y-81351471D01*
X142251471Y-81446780D01*
X142190281Y-81566873D01*
X142190280Y-81566873D01*
X142169196Y-81700000D01*
X140730804Y-81700000D01*
X140709719Y-81566874D01*
X140709719Y-81566873D01*
X140648528Y-81446780D01*
X140553219Y-81351471D01*
X140433126Y-81290281D01*
X140433126Y-81290280D01*
X140300000Y-81269196D01*
X140166873Y-81290280D01*
X140166873Y-81290281D01*
X140046780Y-81351471D01*
X139951471Y-81446780D01*
X139890281Y-81566873D01*
X139890280Y-81566873D01*
X139869196Y-81700000D01*
X139205500Y-81700000D01*
X139205500Y-80504850D01*
X139204418Y-80471793D01*
X139203785Y-80462134D01*
X139200542Y-80429209D01*
X139194611Y-80384159D01*
X139209270Y-80329452D01*
X139258319Y-80301133D01*
X139267978Y-80300500D01*
X155796327Y-80300500D01*
X155848653Y-80322174D01*
G37*
%TD.AperFunction*%
%TD*%
%TA.AperFunction,Conductor*%
%TO.N,GND*%
G36*
X168110092Y-80322174D02*
G01*
X168131133Y-80364845D01*
X168132015Y-80371552D01*
X168132016Y-80371557D01*
X168196497Y-80612205D01*
X168291834Y-80842369D01*
X168291835Y-80842372D01*
X168416398Y-81058123D01*
X168416402Y-81058129D01*
X168509546Y-81179516D01*
X168568062Y-81255776D01*
X168744224Y-81431938D01*
X168792621Y-81469074D01*
X168941870Y-81583597D01*
X168941876Y-81583601D01*
X169107588Y-81679274D01*
X169157627Y-81708164D01*
X169387793Y-81803502D01*
X169628435Y-81867982D01*
X169628437Y-81867982D01*
X169628440Y-81867983D01*
X169628439Y-81867983D01*
X169635156Y-81868867D01*
X169684207Y-81897184D01*
X169699500Y-81942234D01*
X169699500Y-118057765D01*
X169677826Y-118110091D01*
X169635163Y-118131131D01*
X169628450Y-118132015D01*
X169628442Y-118132016D01*
X169387794Y-118196497D01*
X169157630Y-118291834D01*
X169157627Y-118291835D01*
X168941876Y-118416398D01*
X168941870Y-118416402D01*
X168744223Y-118568062D01*
X168568062Y-118744223D01*
X168416402Y-118941870D01*
X168416398Y-118941876D01*
X168291835Y-119157627D01*
X168291834Y-119157630D01*
X168196497Y-119387794D01*
X168132016Y-119628442D01*
X168132015Y-119628447D01*
X168131133Y-119635155D01*
X168102817Y-119684206D01*
X168057766Y-119699500D01*
X136967978Y-119699500D01*
X136915652Y-119677826D01*
X136893978Y-119625500D01*
X136894611Y-119615841D01*
X136900541Y-119570797D01*
X136900542Y-119570790D01*
X136903785Y-119537865D01*
X136904418Y-119528206D01*
X136905500Y-119495149D01*
X136905500Y-118711957D01*
X136904418Y-118678900D01*
X136903785Y-118669241D01*
X136900542Y-118636315D01*
X136885409Y-118521372D01*
X136872507Y-118456514D01*
X136867507Y-118437855D01*
X136846255Y-118375250D01*
X136803761Y-118272660D01*
X136774524Y-118213371D01*
X136764868Y-118196645D01*
X136728124Y-118141651D01*
X136657542Y-118049667D01*
X136636544Y-118024082D01*
X136630167Y-118016811D01*
X136607567Y-117992683D01*
X136007316Y-117392432D01*
X135983185Y-117369829D01*
X135975915Y-117363453D01*
X135950333Y-117342458D01*
X135950332Y-117342457D01*
X135950322Y-117342449D01*
X135904339Y-117307166D01*
X135858346Y-117271874D01*
X135803355Y-117235131D01*
X135803352Y-117235129D01*
X135803341Y-117235122D01*
X135786646Y-117225484D01*
X135786611Y-117225465D01*
X135727346Y-117196241D01*
X135727330Y-117196234D01*
X135624752Y-117153745D01*
X135624733Y-117153738D01*
X135562166Y-117132498D01*
X135562165Y-117132497D01*
X135562157Y-117132495D01*
X135543500Y-117127495D01*
X135478624Y-117114589D01*
X135478620Y-117114588D01*
X135478607Y-117114586D01*
X135363684Y-117099457D01*
X135330742Y-117096213D01*
X135321095Y-117095581D01*
X135288055Y-117094500D01*
X135288042Y-117094500D01*
X134740036Y-117094500D01*
X134687710Y-117072826D01*
X134027174Y-116412290D01*
X134005500Y-116359964D01*
X134005500Y-115332904D01*
X163399500Y-115332904D01*
X163399500Y-116972397D01*
X163411133Y-117030883D01*
X163439160Y-117072826D01*
X163455448Y-117097203D01*
X163481463Y-117114586D01*
X163521767Y-117141517D01*
X163521768Y-117141517D01*
X163521769Y-117141518D01*
X163580252Y-117153151D01*
X163580254Y-117153151D01*
X165219746Y-117153151D01*
X165219748Y-117153151D01*
X165278231Y-117141518D01*
X165344552Y-117097203D01*
X165388867Y-117030882D01*
X165400500Y-116972399D01*
X165400500Y-115332903D01*
X165388867Y-115274420D01*
X165344552Y-115208099D01*
X165322343Y-115193259D01*
X165278232Y-115163784D01*
X165278233Y-115163784D01*
X165248989Y-115157967D01*
X165219748Y-115152151D01*
X163580252Y-115152151D01*
X163551010Y-115157967D01*
X163521767Y-115163784D01*
X163455449Y-115208098D01*
X163455447Y-115208100D01*
X163411133Y-115274418D01*
X163399500Y-115332904D01*
X134005500Y-115332904D01*
X134005500Y-112911945D01*
X134004419Y-112878913D01*
X134004103Y-112874096D01*
X134003786Y-112869250D01*
X134000540Y-112836295D01*
X133998568Y-112821321D01*
X133962582Y-112689507D01*
X133947071Y-112653031D01*
X133946886Y-112652647D01*
X163194859Y-112652647D01*
X163194859Y-112652654D01*
X163215377Y-112874083D01*
X163215379Y-112874096D01*
X163276237Y-113087993D01*
X163276239Y-113087997D01*
X163375368Y-113287077D01*
X163375370Y-113287080D01*
X163421560Y-113348245D01*
X164013629Y-112756176D01*
X164027259Y-112807045D01*
X164079920Y-112898257D01*
X164154394Y-112972731D01*
X164245606Y-113025392D01*
X164296472Y-113039021D01*
X163703000Y-113632492D01*
X163862817Y-113731445D01*
X163862827Y-113731450D01*
X164070194Y-113811785D01*
X164288800Y-113852650D01*
X164288806Y-113852651D01*
X164511194Y-113852651D01*
X164511199Y-113852650D01*
X164729805Y-113811785D01*
X164937172Y-113731450D01*
X164937182Y-113731445D01*
X165096997Y-113632491D01*
X164503527Y-113039021D01*
X164554394Y-113025392D01*
X164645606Y-112972731D01*
X164720080Y-112898257D01*
X164772741Y-112807045D01*
X164786370Y-112756178D01*
X165378438Y-113348246D01*
X165424629Y-113287079D01*
X165424631Y-113287077D01*
X165523760Y-113087997D01*
X165523762Y-113087993D01*
X165584620Y-112874096D01*
X165584622Y-112874083D01*
X165605141Y-112652654D01*
X165605141Y-112652647D01*
X165584622Y-112431218D01*
X165584620Y-112431205D01*
X165523762Y-112217308D01*
X165523760Y-112217304D01*
X165424631Y-112018224D01*
X165424629Y-112018221D01*
X165378437Y-111957054D01*
X164786370Y-112549122D01*
X164772741Y-112498257D01*
X164720080Y-112407045D01*
X164645606Y-112332571D01*
X164554394Y-112279910D01*
X164503525Y-112266280D01*
X165096998Y-111672808D01*
X164937182Y-111573856D01*
X164937172Y-111573851D01*
X164729805Y-111493516D01*
X164511199Y-111452651D01*
X164288800Y-111452651D01*
X164070194Y-111493516D01*
X163862827Y-111573851D01*
X163862817Y-111573856D01*
X163703000Y-111672808D01*
X164296472Y-112266280D01*
X164245606Y-112279910D01*
X164154394Y-112332571D01*
X164079920Y-112407045D01*
X164027259Y-112498257D01*
X164013629Y-112549123D01*
X163421560Y-111957054D01*
X163375368Y-112018225D01*
X163375367Y-112018228D01*
X163276239Y-112217304D01*
X163276237Y-112217308D01*
X163215379Y-112431205D01*
X163215377Y-112431218D01*
X163194859Y-112652647D01*
X133946886Y-112652647D01*
X133926783Y-112610857D01*
X133841148Y-112495236D01*
X133726408Y-112408424D01*
X133726403Y-112408421D01*
X133726400Y-112408419D01*
X133676844Y-112381030D01*
X133676828Y-112381022D01*
X133628118Y-112357412D01*
X133628112Y-112357410D01*
X133602990Y-112350862D01*
X133597215Y-112349103D01*
X133512516Y-112319466D01*
X133473876Y-112305945D01*
X133464355Y-112301844D01*
X133430759Y-112284488D01*
X133430758Y-112284487D01*
X133407869Y-112275007D01*
X133407865Y-112275005D01*
X133287652Y-112243670D01*
X133273577Y-112240001D01*
X133273576Y-112240001D01*
X133273573Y-112240000D01*
X133129748Y-112243670D01*
X133129743Y-112243670D01*
X133073912Y-112253157D01*
X133021118Y-112265066D01*
X132911293Y-112313875D01*
X132905682Y-112316099D01*
X132857138Y-112333086D01*
X132840979Y-112336774D01*
X132808282Y-112340457D01*
X132791716Y-112340457D01*
X132759019Y-112336774D01*
X132742864Y-112333087D01*
X132719013Y-112324741D01*
X132711806Y-112322219D01*
X132696879Y-112315030D01*
X132669024Y-112297528D01*
X132656068Y-112287196D01*
X132632802Y-112263930D01*
X132622470Y-112250974D01*
X132604965Y-112223115D01*
X132597776Y-112208186D01*
X132586911Y-112177137D01*
X132583226Y-112160990D01*
X132579541Y-112128280D01*
X132579541Y-112111715D01*
X132583226Y-112079005D01*
X132586910Y-112062864D01*
X132597788Y-112031776D01*
X132603380Y-112019515D01*
X132604042Y-112018354D01*
X132604064Y-112018320D01*
X132643072Y-111942814D01*
X132652559Y-111919910D01*
X132687563Y-111785624D01*
X132683895Y-111641791D01*
X132674408Y-111585955D01*
X132662500Y-111533164D01*
X132604067Y-111401684D01*
X132604057Y-111401669D01*
X132602824Y-111399353D01*
X132603086Y-111399213D01*
X132597776Y-111388186D01*
X132586911Y-111357135D01*
X132583226Y-111340990D01*
X132579541Y-111308280D01*
X132579541Y-111291715D01*
X132583226Y-111259005D01*
X132586911Y-111242862D01*
X132597778Y-111211805D01*
X132604962Y-111196887D01*
X132622474Y-111169016D01*
X132632808Y-111156062D01*
X132635768Y-111153103D01*
X132635782Y-111153087D01*
X132635793Y-111153076D01*
X132652194Y-111134816D01*
X132671928Y-111112848D01*
X132745346Y-110989110D01*
X132752127Y-110972741D01*
X132767016Y-110936794D01*
X132767020Y-110936785D01*
X132785024Y-110885752D01*
X132805500Y-110743336D01*
X132805500Y-109400000D01*
X148569196Y-109400000D01*
X148590280Y-109533126D01*
X148651471Y-109653219D01*
X148651472Y-109653220D01*
X148746780Y-109748528D01*
X148866874Y-109809719D01*
X148923002Y-109818608D01*
X148971293Y-109848200D01*
X148984515Y-109903272D01*
X148969196Y-109999998D01*
X148969196Y-110000000D01*
X148984515Y-110096726D01*
X148971293Y-110151799D01*
X148923002Y-110181391D01*
X148866874Y-110190280D01*
X148866873Y-110190281D01*
X148746780Y-110251471D01*
X148651471Y-110346780D01*
X148590281Y-110466873D01*
X148590280Y-110466873D01*
X148569196Y-110600000D01*
X148590280Y-110733126D01*
X148647592Y-110845606D01*
X148651472Y-110853220D01*
X148746780Y-110948528D01*
X148866873Y-111009718D01*
X148866873Y-111009719D01*
X148885075Y-111012601D01*
X149000000Y-111030804D01*
X149133126Y-111009719D01*
X149253220Y-110948528D01*
X149347674Y-110854074D01*
X149400000Y-110832400D01*
X149452326Y-110854074D01*
X149546780Y-110948528D01*
X149666873Y-111009718D01*
X149666873Y-111009719D01*
X149685075Y-111012601D01*
X149800000Y-111030804D01*
X149933126Y-111009719D01*
X150053220Y-110948528D01*
X150148528Y-110853220D01*
X150209719Y-110733126D01*
X150230804Y-110600000D01*
X150230803Y-110599996D01*
X150849972Y-110599996D01*
X150849972Y-110600003D01*
X150870490Y-110821432D01*
X150870492Y-110821445D01*
X150931350Y-111035342D01*
X150931352Y-111035346D01*
X151030481Y-111234426D01*
X151030483Y-111234429D01*
X151076673Y-111295594D01*
X151668742Y-110703525D01*
X151682372Y-110754394D01*
X151735033Y-110845606D01*
X151809507Y-110920080D01*
X151900719Y-110972741D01*
X151951585Y-110986370D01*
X151358113Y-111579841D01*
X151517930Y-111678794D01*
X151517940Y-111678799D01*
X151725307Y-111759134D01*
X151943913Y-111799999D01*
X151943919Y-111800000D01*
X152166307Y-111800000D01*
X152166312Y-111799999D01*
X152384918Y-111759134D01*
X152592285Y-111678799D01*
X152592295Y-111678794D01*
X152752110Y-111579840D01*
X152158640Y-110986370D01*
X152209507Y-110972741D01*
X152300719Y-110920080D01*
X152375193Y-110845606D01*
X152427854Y-110754394D01*
X152441483Y-110703527D01*
X153032939Y-111294983D01*
X153054613Y-111347309D01*
X153054613Y-111419746D01*
X153066246Y-111478232D01*
X153076459Y-111493516D01*
X153110561Y-111544552D01*
X153154409Y-111573851D01*
X153176880Y-111588866D01*
X153176881Y-111588866D01*
X153176882Y-111588867D01*
X153235365Y-111600500D01*
X153235367Y-111600500D01*
X154874859Y-111600500D01*
X154874861Y-111600500D01*
X154933344Y-111588867D01*
X154999665Y-111544552D01*
X155043980Y-111478231D01*
X155055613Y-111419748D01*
X155055613Y-109780252D01*
X155043980Y-109721769D01*
X154999665Y-109655448D01*
X154977456Y-109640608D01*
X154933345Y-109611133D01*
X154933346Y-109611133D01*
X154904102Y-109605316D01*
X154874861Y-109599500D01*
X153235365Y-109599500D01*
X153206123Y-109605316D01*
X153176880Y-109611133D01*
X153110562Y-109655447D01*
X153110560Y-109655449D01*
X153066246Y-109721767D01*
X153054613Y-109780253D01*
X153054613Y-109852690D01*
X153032939Y-109905016D01*
X152441483Y-110496471D01*
X152427854Y-110445606D01*
X152375193Y-110354394D01*
X152300719Y-110279920D01*
X152209507Y-110227259D01*
X152158638Y-110213629D01*
X152752111Y-109620157D01*
X152592295Y-109521205D01*
X152592285Y-109521200D01*
X152384918Y-109440865D01*
X152166312Y-109400000D01*
X151943913Y-109400000D01*
X151725307Y-109440865D01*
X151517940Y-109521200D01*
X151517930Y-109521205D01*
X151358113Y-109620157D01*
X151951585Y-110213629D01*
X151900719Y-110227259D01*
X151809507Y-110279920D01*
X151735033Y-110354394D01*
X151682372Y-110445606D01*
X151668742Y-110496472D01*
X151076673Y-109904403D01*
X151030481Y-109965574D01*
X151030480Y-109965577D01*
X150931352Y-110164653D01*
X150931350Y-110164657D01*
X150870492Y-110378554D01*
X150870490Y-110378567D01*
X150849972Y-110599996D01*
X150230803Y-110599996D01*
X150209719Y-110466874D01*
X150209719Y-110466873D01*
X150148528Y-110346780D01*
X150053219Y-110251471D01*
X149933126Y-110190281D01*
X149876996Y-110181390D01*
X149828705Y-110151796D01*
X149815484Y-110096725D01*
X149830804Y-110000000D01*
X149815484Y-109903272D01*
X149828706Y-109848201D01*
X149876994Y-109818609D01*
X149933126Y-109809719D01*
X150053220Y-109748528D01*
X150148528Y-109653220D01*
X150209719Y-109533126D01*
X150230804Y-109400000D01*
X150209719Y-109266874D01*
X150209719Y-109266873D01*
X150148528Y-109146780D01*
X150053219Y-109051471D01*
X149933126Y-108990281D01*
X149933126Y-108990280D01*
X149800000Y-108969196D01*
X149666873Y-108990280D01*
X149666873Y-108990281D01*
X149546780Y-109051471D01*
X149546779Y-109051472D01*
X149452326Y-109145926D01*
X149400000Y-109167600D01*
X149347674Y-109145926D01*
X149253219Y-109051471D01*
X149133126Y-108990281D01*
X149133126Y-108990280D01*
X149000000Y-108969196D01*
X148866873Y-108990280D01*
X148866873Y-108990281D01*
X148746780Y-109051471D01*
X148651471Y-109146780D01*
X148590281Y-109266873D01*
X148590280Y-109266873D01*
X148569196Y-109400000D01*
X132805500Y-109400000D01*
X132805500Y-105799996D01*
X162047510Y-105799996D01*
X162047510Y-105800003D01*
X162068028Y-106021432D01*
X162068030Y-106021445D01*
X162128888Y-106235342D01*
X162128890Y-106235346D01*
X162228019Y-106434426D01*
X162228021Y-106434429D01*
X162274211Y-106495594D01*
X162866280Y-105903525D01*
X162879910Y-105954394D01*
X162932571Y-106045606D01*
X163007045Y-106120080D01*
X163098257Y-106172741D01*
X163149123Y-106186370D01*
X162555651Y-106779841D01*
X162715468Y-106878794D01*
X162715478Y-106878799D01*
X162922845Y-106959134D01*
X163141451Y-106999999D01*
X163141457Y-107000000D01*
X163363845Y-107000000D01*
X163363850Y-106999999D01*
X163582456Y-106959134D01*
X163789823Y-106878799D01*
X163789833Y-106878794D01*
X163949648Y-106779840D01*
X163356178Y-106186370D01*
X163407045Y-106172741D01*
X163498257Y-106120080D01*
X163572731Y-106045606D01*
X163625392Y-105954394D01*
X163639021Y-105903527D01*
X164231089Y-106495595D01*
X164277280Y-106434428D01*
X164277282Y-106434426D01*
X164376411Y-106235346D01*
X164376413Y-106235342D01*
X164437271Y-106021445D01*
X164437273Y-106021432D01*
X164457792Y-105800003D01*
X164457792Y-105799996D01*
X164437273Y-105578567D01*
X164437271Y-105578554D01*
X164376413Y-105364657D01*
X164376411Y-105364653D01*
X164277282Y-105165573D01*
X164277280Y-105165570D01*
X164231088Y-105104403D01*
X163639021Y-105696471D01*
X163625392Y-105645606D01*
X163572731Y-105554394D01*
X163498257Y-105479920D01*
X163407045Y-105427259D01*
X163356176Y-105413629D01*
X163789553Y-104980253D01*
X165752151Y-104980253D01*
X165752151Y-106619746D01*
X165763784Y-106678232D01*
X165793259Y-106722343D01*
X165808099Y-106744552D01*
X165852211Y-106774027D01*
X165874418Y-106788866D01*
X165874419Y-106788866D01*
X165874420Y-106788867D01*
X165932903Y-106800500D01*
X165932905Y-106800500D01*
X167572397Y-106800500D01*
X167572399Y-106800500D01*
X167630882Y-106788867D01*
X167697203Y-106744552D01*
X167741518Y-106678231D01*
X167753151Y-106619748D01*
X167753151Y-104980252D01*
X167741518Y-104921769D01*
X167697203Y-104855448D01*
X167674994Y-104840608D01*
X167630883Y-104811133D01*
X167630884Y-104811133D01*
X167601640Y-104805316D01*
X167572399Y-104799500D01*
X165932903Y-104799500D01*
X165903661Y-104805316D01*
X165874418Y-104811133D01*
X165808100Y-104855447D01*
X165808098Y-104855449D01*
X165763784Y-104921767D01*
X165752151Y-104980253D01*
X163789553Y-104980253D01*
X163949649Y-104820157D01*
X163789833Y-104721205D01*
X163789823Y-104721200D01*
X163582456Y-104640865D01*
X163363850Y-104600000D01*
X163141451Y-104600000D01*
X162922845Y-104640865D01*
X162715478Y-104721200D01*
X162715468Y-104721205D01*
X162555651Y-104820157D01*
X163149123Y-105413629D01*
X163098257Y-105427259D01*
X163007045Y-105479920D01*
X162932571Y-105554394D01*
X162879910Y-105645606D01*
X162866280Y-105696472D01*
X162274211Y-105104403D01*
X162228019Y-105165574D01*
X162228018Y-105165577D01*
X162128890Y-105364653D01*
X162128888Y-105364657D01*
X162068030Y-105578554D01*
X162068028Y-105578567D01*
X162047510Y-105799996D01*
X132805500Y-105799996D01*
X132805500Y-103677122D01*
X132804706Y-103648799D01*
X132804241Y-103640513D01*
X132792926Y-103558854D01*
X132741954Y-103424305D01*
X132714556Y-103374735D01*
X132652478Y-103286294D01*
X132622532Y-103260611D01*
X132543264Y-103192627D01*
X132543262Y-103192626D01*
X132412084Y-103133524D01*
X132357658Y-103117844D01*
X132304924Y-103105666D01*
X132304917Y-103105665D01*
X132161079Y-103101264D01*
X132155058Y-103100834D01*
X132119018Y-103096774D01*
X132102864Y-103093087D01*
X132079013Y-103084741D01*
X132071806Y-103082219D01*
X132056879Y-103075030D01*
X132029024Y-103057528D01*
X132016068Y-103047196D01*
X131992802Y-103023930D01*
X131982470Y-103010974D01*
X131964965Y-102983115D01*
X131957776Y-102968186D01*
X131956889Y-102965650D01*
X131946911Y-102937137D01*
X131943226Y-102920990D01*
X131939541Y-102888280D01*
X131939541Y-102871715D01*
X131943226Y-102839005D01*
X131946911Y-102822862D01*
X131957778Y-102791805D01*
X131964962Y-102776887D01*
X131982472Y-102749020D01*
X131992796Y-102736074D01*
X132016074Y-102712796D01*
X132029027Y-102702468D01*
X132056884Y-102684965D01*
X132071808Y-102677777D01*
X132102863Y-102666911D01*
X132119009Y-102663226D01*
X132135363Y-102661382D01*
X132135364Y-102661383D01*
X132152596Y-102659440D01*
X132167100Y-102659237D01*
X132189386Y-102661117D01*
X132197670Y-102661582D01*
X132280034Y-102659480D01*
X132364152Y-102638010D01*
X132419443Y-102623899D01*
X132419443Y-102623898D01*
X132419445Y-102623898D01*
X132471771Y-102602224D01*
X132566625Y-102550430D01*
X132671930Y-102452387D01*
X132745348Y-102328647D01*
X132767022Y-102276321D01*
X132785024Y-102225292D01*
X132805500Y-102082876D01*
X132805500Y-101562633D01*
X152599500Y-101562633D01*
X152599500Y-103202126D01*
X152611133Y-103260612D01*
X152628293Y-103286293D01*
X152655448Y-103326932D01*
X152699560Y-103356407D01*
X152721767Y-103371246D01*
X152721768Y-103371246D01*
X152721769Y-103371247D01*
X152780252Y-103382880D01*
X152780254Y-103382880D01*
X154419746Y-103382880D01*
X154419748Y-103382880D01*
X154478231Y-103371247D01*
X154544552Y-103326932D01*
X154588867Y-103260611D01*
X154600500Y-103202128D01*
X154600500Y-102200000D01*
X154969196Y-102200000D01*
X154990280Y-102333126D01*
X155051473Y-102453222D01*
X155053862Y-102456511D01*
X155067078Y-102511585D01*
X155053862Y-102543489D01*
X155051473Y-102546777D01*
X154990281Y-102666873D01*
X154990280Y-102666873D01*
X154969196Y-102800000D01*
X154990280Y-102933126D01*
X155051406Y-103053091D01*
X155051472Y-103053220D01*
X155146780Y-103148528D01*
X155266873Y-103209718D01*
X155266873Y-103209719D01*
X155285075Y-103212601D01*
X155400000Y-103230804D01*
X155533126Y-103209719D01*
X155653220Y-103148528D01*
X155748528Y-103053220D01*
X155793148Y-102965648D01*
X155836214Y-102928867D01*
X155870655Y-102926156D01*
X155900000Y-102930804D01*
X155929342Y-102926156D01*
X155984413Y-102939377D01*
X156006852Y-102965649D01*
X156051472Y-103053220D01*
X156146780Y-103148528D01*
X156266873Y-103209718D01*
X156266873Y-103209719D01*
X156285075Y-103212601D01*
X156400000Y-103230804D01*
X156533126Y-103209719D01*
X156653220Y-103148528D01*
X156748528Y-103053220D01*
X156809719Y-102933126D01*
X156830804Y-102800000D01*
X156809719Y-102666874D01*
X156809719Y-102666873D01*
X156776775Y-102602217D01*
X156748528Y-102546780D01*
X156748523Y-102546775D01*
X156746140Y-102543494D01*
X156732920Y-102488421D01*
X156746140Y-102456506D01*
X156748521Y-102453226D01*
X156748528Y-102453220D01*
X156809719Y-102333126D01*
X156830804Y-102200000D01*
X156810823Y-102073843D01*
X156809719Y-102066873D01*
X156748528Y-101946780D01*
X156653219Y-101851471D01*
X156533126Y-101790281D01*
X156533126Y-101790280D01*
X156400000Y-101769196D01*
X156266873Y-101790280D01*
X156266873Y-101790281D01*
X156146780Y-101851471D01*
X156051473Y-101946778D01*
X156006852Y-102034350D01*
X155963784Y-102071132D01*
X155929343Y-102073843D01*
X155900001Y-102069196D01*
X155899999Y-102069196D01*
X155870656Y-102073843D01*
X155815584Y-102060621D01*
X155793147Y-102034350D01*
X155748528Y-101946780D01*
X155653220Y-101851472D01*
X155653219Y-101851471D01*
X155533126Y-101790281D01*
X155533126Y-101790280D01*
X155400000Y-101769196D01*
X155266873Y-101790280D01*
X155266873Y-101790281D01*
X155146780Y-101851471D01*
X155051471Y-101946780D01*
X154990281Y-102066873D01*
X154990280Y-102066873D01*
X154969196Y-102200000D01*
X154600500Y-102200000D01*
X154600500Y-101562632D01*
X154588867Y-101504149D01*
X154544552Y-101437828D01*
X154522343Y-101422988D01*
X154478232Y-101393513D01*
X154478233Y-101393513D01*
X154448989Y-101387696D01*
X154419748Y-101381880D01*
X152780252Y-101381880D01*
X152751010Y-101387696D01*
X152721767Y-101393513D01*
X152655449Y-101437827D01*
X152655447Y-101437829D01*
X152611133Y-101504147D01*
X152599500Y-101562633D01*
X132805500Y-101562633D01*
X132805500Y-99882376D01*
X152394859Y-99882376D01*
X152394859Y-99882383D01*
X152415377Y-100103812D01*
X152415379Y-100103825D01*
X152476237Y-100317722D01*
X152476239Y-100317726D01*
X152575368Y-100516806D01*
X152575370Y-100516809D01*
X152621560Y-100577974D01*
X153213629Y-99985905D01*
X153227259Y-100036774D01*
X153279920Y-100127986D01*
X153354394Y-100202460D01*
X153445606Y-100255121D01*
X153496472Y-100268750D01*
X152903000Y-100862221D01*
X153062817Y-100961174D01*
X153062827Y-100961179D01*
X153270194Y-101041514D01*
X153488800Y-101082379D01*
X153488806Y-101082380D01*
X153711194Y-101082380D01*
X153711199Y-101082379D01*
X153929805Y-101041514D01*
X154137172Y-100961179D01*
X154137182Y-100961174D01*
X154296997Y-100862220D01*
X153703527Y-100268750D01*
X153754394Y-100255121D01*
X153845606Y-100202460D01*
X153920080Y-100127986D01*
X153972741Y-100036774D01*
X153986370Y-99985907D01*
X154578438Y-100577975D01*
X154624629Y-100516808D01*
X154624631Y-100516806D01*
X154723760Y-100317726D01*
X154723762Y-100317722D01*
X154784620Y-100103825D01*
X154784622Y-100103812D01*
X154805141Y-99882383D01*
X154805141Y-99882376D01*
X154784622Y-99660947D01*
X154784620Y-99660934D01*
X154723762Y-99447037D01*
X154723760Y-99447033D01*
X154624631Y-99247953D01*
X154624629Y-99247950D01*
X154578437Y-99186783D01*
X153986370Y-99778851D01*
X153972741Y-99727986D01*
X153920080Y-99636774D01*
X153845606Y-99562300D01*
X153754394Y-99509639D01*
X153703525Y-99496009D01*
X154296998Y-98902537D01*
X154137182Y-98803585D01*
X154137172Y-98803580D01*
X153929805Y-98723245D01*
X153711199Y-98682380D01*
X153488800Y-98682380D01*
X153270194Y-98723245D01*
X153062827Y-98803580D01*
X153062817Y-98803585D01*
X152903000Y-98902537D01*
X153496472Y-99496009D01*
X153445606Y-99509639D01*
X153354394Y-99562300D01*
X153279920Y-99636774D01*
X153227259Y-99727986D01*
X153213629Y-99778852D01*
X152621560Y-99186783D01*
X152575368Y-99247954D01*
X152575367Y-99247957D01*
X152476239Y-99447033D01*
X152476237Y-99447037D01*
X152415379Y-99660934D01*
X152415377Y-99660947D01*
X152394859Y-99882376D01*
X132805500Y-99882376D01*
X132805500Y-99040034D01*
X132827173Y-98987709D01*
X134007567Y-97807316D01*
X134030174Y-97783180D01*
X134036556Y-97775903D01*
X134057546Y-97750328D01*
X134128120Y-97658355D01*
X134164864Y-97603361D01*
X134174523Y-97586630D01*
X134203761Y-97527339D01*
X134246255Y-97424749D01*
X134267507Y-97362144D01*
X134272507Y-97343485D01*
X134285409Y-97278627D01*
X134300542Y-97163684D01*
X134303785Y-97130758D01*
X134304418Y-97121099D01*
X134305500Y-97088042D01*
X134305500Y-95602516D01*
X134305500Y-95602338D01*
X134327174Y-95550012D01*
X134379475Y-95528338D01*
X136748378Y-95527607D01*
X136800579Y-95549135D01*
X137254226Y-96000251D01*
X137303462Y-96037921D01*
X137369013Y-96075766D01*
X137369016Y-96075767D01*
X137369024Y-96075772D01*
X137426905Y-96099747D01*
X137500023Y-96119339D01*
X137500030Y-96119341D01*
X137546450Y-96127005D01*
X137584303Y-96129486D01*
X137600041Y-96130000D01*
X152037894Y-96127519D01*
X152099970Y-96119341D01*
X152173095Y-96099747D01*
X152230976Y-96075772D01*
X152296539Y-96037920D01*
X152334786Y-96010513D01*
X152363306Y-95985501D01*
X152374930Y-95974604D01*
X154199941Y-94146084D01*
X154237917Y-94096543D01*
X154275770Y-94030981D01*
X154299747Y-93973095D01*
X154319341Y-93899968D01*
X154327005Y-93853549D01*
X154329486Y-93815697D01*
X154330000Y-93799613D01*
X154327986Y-92552080D01*
X154349576Y-92499722D01*
X155218138Y-91630000D01*
X155689196Y-91630000D01*
X155710280Y-91763126D01*
X155771471Y-91883219D01*
X155780427Y-91892175D01*
X155802101Y-91944501D01*
X155780431Y-91996823D01*
X155771471Y-92005783D01*
X155710280Y-92125879D01*
X155689196Y-92259003D01*
X155710280Y-92392129D01*
X155765102Y-92499722D01*
X155771472Y-92512223D01*
X155866780Y-92607531D01*
X155986873Y-92668721D01*
X155986873Y-92668722D01*
X156005075Y-92671604D01*
X156120000Y-92689807D01*
X156253126Y-92668722D01*
X156373220Y-92607531D01*
X156468528Y-92512223D01*
X156529719Y-92392129D01*
X156529747Y-92392044D01*
X156529786Y-92391998D01*
X156532364Y-92386939D01*
X156533578Y-92387557D01*
X156566527Y-92348975D01*
X156611702Y-92341819D01*
X156700000Y-92355804D01*
X156801012Y-92339805D01*
X156856083Y-92353027D01*
X156878521Y-92379298D01*
X156931472Y-92483220D01*
X157026780Y-92578528D01*
X157146873Y-92639718D01*
X157146873Y-92639719D01*
X157165075Y-92642601D01*
X157280000Y-92660804D01*
X157413126Y-92639719D01*
X157533220Y-92578528D01*
X157628528Y-92483220D01*
X157689719Y-92363126D01*
X157710804Y-92230000D01*
X157689719Y-92096874D01*
X157689719Y-92096873D01*
X157628528Y-91976780D01*
X157625102Y-91972064D01*
X157626479Y-91971063D01*
X157607400Y-91925000D01*
X157629074Y-91872674D01*
X157648528Y-91853220D01*
X157709719Y-91733126D01*
X157730804Y-91600000D01*
X157710541Y-91472063D01*
X157709719Y-91466873D01*
X157648528Y-91346780D01*
X157553219Y-91251471D01*
X157433126Y-91190281D01*
X157433126Y-91190280D01*
X157300000Y-91169196D01*
X157166873Y-91190280D01*
X157166873Y-91190281D01*
X157046780Y-91251471D01*
X156951471Y-91346780D01*
X156887637Y-91472063D01*
X156884555Y-91470492D01*
X156854513Y-91504861D01*
X156810101Y-91511634D01*
X156700000Y-91494196D01*
X156594274Y-91510941D01*
X156539202Y-91497719D01*
X156516764Y-91471448D01*
X156500085Y-91438714D01*
X156468528Y-91376780D01*
X156373220Y-91281472D01*
X156373219Y-91281471D01*
X156253126Y-91220281D01*
X156253126Y-91220280D01*
X156120000Y-91199196D01*
X155986873Y-91220280D01*
X155986873Y-91220281D01*
X155866780Y-91281471D01*
X155771471Y-91376780D01*
X155710281Y-91496873D01*
X155710280Y-91496873D01*
X155689196Y-91630000D01*
X155218138Y-91630000D01*
X156577804Y-90268518D01*
X161800000Y-90268518D01*
X161800000Y-90900000D01*
X162653589Y-90900000D01*
X162627259Y-90945606D01*
X162600000Y-91047339D01*
X162600000Y-91152661D01*
X162627259Y-91254394D01*
X162653590Y-91300000D01*
X161800001Y-91300000D01*
X161800001Y-91931482D01*
X161814834Y-92025148D01*
X161814835Y-92025149D01*
X161872360Y-92138046D01*
X161961953Y-92227639D01*
X162074850Y-92285164D01*
X162168518Y-92299999D01*
X162800000Y-92299999D01*
X162800000Y-91446410D01*
X162845606Y-91472741D01*
X162947339Y-91500000D01*
X163052661Y-91500000D01*
X163154394Y-91472741D01*
X163200000Y-91446410D01*
X163200000Y-92299999D01*
X163831481Y-92299999D01*
X163925148Y-92285165D01*
X163925149Y-92285164D01*
X164038046Y-92227639D01*
X164127639Y-92138046D01*
X164185164Y-92025149D01*
X164185164Y-92025148D01*
X164200000Y-91931481D01*
X164200000Y-91300000D01*
X163346410Y-91300000D01*
X163372741Y-91254394D01*
X163400000Y-91152661D01*
X163400000Y-91100000D01*
X165494659Y-91100000D01*
X165513976Y-91296133D01*
X165571187Y-91484731D01*
X165648836Y-91630000D01*
X165664090Y-91658538D01*
X165789117Y-91810883D01*
X165941462Y-91935910D01*
X165957535Y-91944501D01*
X166115268Y-92028812D01*
X166115270Y-92028812D01*
X166115273Y-92028814D01*
X166303868Y-92086024D01*
X166500000Y-92105341D01*
X166696132Y-92086024D01*
X166884727Y-92028814D01*
X167058538Y-91935910D01*
X167210883Y-91810883D01*
X167335910Y-91658538D01*
X167428814Y-91484727D01*
X167486024Y-91296132D01*
X167505341Y-91100000D01*
X167486024Y-90903868D01*
X167428814Y-90715273D01*
X167428812Y-90715270D01*
X167428812Y-90715268D01*
X167377048Y-90618426D01*
X167335910Y-90541462D01*
X167210883Y-90389117D01*
X167058538Y-90264090D01*
X167048597Y-90258776D01*
X166884731Y-90171187D01*
X166696133Y-90113976D01*
X166500000Y-90094659D01*
X166303866Y-90113976D01*
X166115268Y-90171187D01*
X165941463Y-90264089D01*
X165789117Y-90389117D01*
X165664089Y-90541463D01*
X165571187Y-90715268D01*
X165513976Y-90903866D01*
X165494659Y-91100000D01*
X163400000Y-91100000D01*
X163400000Y-91047339D01*
X163372741Y-90945606D01*
X163346411Y-90900000D01*
X164199999Y-90900000D01*
X164199999Y-90268517D01*
X164185165Y-90174851D01*
X164185164Y-90174850D01*
X164127639Y-90061953D01*
X164038046Y-89972360D01*
X163925149Y-89914835D01*
X163831482Y-89900000D01*
X163200000Y-89900000D01*
X163200000Y-90753589D01*
X163154394Y-90727259D01*
X163052661Y-90700000D01*
X162947339Y-90700000D01*
X162845606Y-90727259D01*
X162800000Y-90753589D01*
X162800000Y-89900000D01*
X162168518Y-89900000D01*
X162074851Y-89914834D01*
X162074850Y-89914835D01*
X161961953Y-89972360D01*
X161872360Y-90061953D01*
X161814835Y-90174850D01*
X161814835Y-90174851D01*
X161800000Y-90268518D01*
X156577804Y-90268518D01*
X156799892Y-90046133D01*
X156837920Y-89996539D01*
X156875772Y-89930976D01*
X156899747Y-89873094D01*
X156919341Y-89799968D01*
X156927005Y-89753549D01*
X156929486Y-89715697D01*
X156930000Y-89699945D01*
X156928567Y-83499999D01*
X161177039Y-83499999D01*
X161196356Y-83696133D01*
X161253567Y-83884731D01*
X161331840Y-84031168D01*
X161346470Y-84058538D01*
X161471497Y-84210883D01*
X161623842Y-84335910D01*
X161700806Y-84377048D01*
X161797648Y-84428812D01*
X161797650Y-84428812D01*
X161797653Y-84428814D01*
X161986248Y-84486024D01*
X162182380Y-84505341D01*
X162378512Y-84486024D01*
X162567107Y-84428814D01*
X162740918Y-84335910D01*
X162893263Y-84210883D01*
X163018290Y-84058538D01*
X163103030Y-83900000D01*
X163111192Y-83884731D01*
X163111192Y-83884730D01*
X163111194Y-83884727D01*
X163168404Y-83696132D01*
X163187721Y-83500000D01*
X163168404Y-83303868D01*
X163111194Y-83115273D01*
X163111192Y-83115270D01*
X163111192Y-83115268D01*
X163018976Y-82942746D01*
X163018290Y-82941462D01*
X162893263Y-82789117D01*
X162746314Y-82668518D01*
X163482380Y-82668518D01*
X163482380Y-83300000D01*
X164335969Y-83300000D01*
X164309639Y-83345606D01*
X164282380Y-83447339D01*
X164282380Y-83552661D01*
X164309639Y-83654394D01*
X164335970Y-83700000D01*
X163482381Y-83700000D01*
X163482381Y-84331482D01*
X163497214Y-84425148D01*
X163497215Y-84425149D01*
X163554740Y-84538046D01*
X163644333Y-84627639D01*
X163757230Y-84685164D01*
X163850898Y-84699999D01*
X164482380Y-84699999D01*
X164482380Y-83846410D01*
X164527986Y-83872741D01*
X164629719Y-83900000D01*
X164735041Y-83900000D01*
X164836774Y-83872741D01*
X164882380Y-83846410D01*
X164882380Y-84699999D01*
X165513861Y-84699999D01*
X165607528Y-84685165D01*
X165607529Y-84685164D01*
X165720426Y-84627639D01*
X165810019Y-84538046D01*
X165867544Y-84425149D01*
X165867544Y-84425148D01*
X165882380Y-84331481D01*
X165882380Y-83700000D01*
X165028790Y-83700000D01*
X165055121Y-83654394D01*
X165082380Y-83552661D01*
X165082380Y-83447339D01*
X165055121Y-83345606D01*
X165028791Y-83300000D01*
X165882379Y-83300000D01*
X165882379Y-82668517D01*
X165867545Y-82574851D01*
X165867544Y-82574850D01*
X165810019Y-82461953D01*
X165720426Y-82372360D01*
X165607529Y-82314835D01*
X165513862Y-82300000D01*
X164882380Y-82300000D01*
X164882380Y-83153589D01*
X164836774Y-83127259D01*
X164735041Y-83100000D01*
X164629719Y-83100000D01*
X164527986Y-83127259D01*
X164482380Y-83153589D01*
X164482380Y-82300000D01*
X163850898Y-82300000D01*
X163757231Y-82314834D01*
X163757230Y-82314835D01*
X163644333Y-82372360D01*
X163554740Y-82461953D01*
X163497215Y-82574850D01*
X163497215Y-82574851D01*
X163482380Y-82668518D01*
X162746314Y-82668518D01*
X162740918Y-82664090D01*
X162730977Y-82658776D01*
X162567111Y-82571187D01*
X162378513Y-82513976D01*
X162182380Y-82494659D01*
X161986246Y-82513976D01*
X161797648Y-82571187D01*
X161623843Y-82664089D01*
X161471497Y-82789117D01*
X161346469Y-82941463D01*
X161253567Y-83115268D01*
X161196356Y-83303866D01*
X161177039Y-83499999D01*
X156928567Y-83499999D01*
X156927845Y-80374516D01*
X156949507Y-80322186D01*
X157001828Y-80300500D01*
X168057766Y-80300500D01*
X168110092Y-80322174D01*
G37*
%TD.AperFunction*%
%TA.AperFunction,Conductor*%
G36*
X133616813Y-90779920D02*
G01*
X133657253Y-90786324D01*
X133679266Y-90793476D01*
X133720484Y-90814477D01*
X133739212Y-90828084D01*
X133771915Y-90860787D01*
X133785523Y-90879517D01*
X133806518Y-90920721D01*
X133813673Y-90942741D01*
X133820908Y-90988423D01*
X133820908Y-91011575D01*
X133813673Y-91057254D01*
X133806519Y-91079273D01*
X133756966Y-91176529D01*
X133756588Y-91177236D01*
X133756572Y-91177270D01*
X133755918Y-91178586D01*
X133754263Y-91181833D01*
X133754224Y-91182835D01*
X133743069Y-91209763D01*
X133743056Y-91209801D01*
X133732072Y-91244938D01*
X133732072Y-91244939D01*
X133733095Y-91336386D01*
X133746315Y-91391460D01*
X133754669Y-91409585D01*
X133755295Y-91420192D01*
X133765426Y-91440074D01*
X133765426Y-91440075D01*
X133796583Y-91501224D01*
X133796584Y-91501225D01*
X133796584Y-91501226D01*
X133796585Y-91501226D01*
X133806519Y-91520723D01*
X133813673Y-91542742D01*
X133820908Y-91588423D01*
X133820908Y-91611575D01*
X133813673Y-91657256D01*
X133806518Y-91679276D01*
X133785522Y-91720482D01*
X133771914Y-91739212D01*
X133739212Y-91771914D01*
X133720482Y-91785522D01*
X133679276Y-91806518D01*
X133657256Y-91813673D01*
X133611577Y-91820908D01*
X133588424Y-91820908D01*
X133542742Y-91813672D01*
X133520724Y-91806518D01*
X133479515Y-91785521D01*
X133460784Y-91771912D01*
X133428082Y-91739210D01*
X133414474Y-91720479D01*
X133393479Y-91679274D01*
X133386324Y-91657254D01*
X133379090Y-91611574D01*
X133379090Y-91588423D01*
X133386979Y-91538613D01*
X133392984Y-91500701D01*
X133394880Y-91452421D01*
X133392167Y-91417972D01*
X133385992Y-91381646D01*
X133343554Y-91300632D01*
X133306768Y-91257568D01*
X133270898Y-91227627D01*
X133244617Y-91177458D01*
X133261509Y-91123398D01*
X133265410Y-91119082D01*
X133267342Y-91117105D01*
X133267344Y-91117105D01*
X133331284Y-91051714D01*
X133360877Y-91003423D01*
X133384383Y-90939703D01*
X133387860Y-90931754D01*
X133414478Y-90879511D01*
X133428082Y-90860787D01*
X133460789Y-90828080D01*
X133479511Y-90814478D01*
X133520732Y-90793475D01*
X133542741Y-90786324D01*
X133588424Y-90779090D01*
X133611572Y-90779090D01*
X133616813Y-90779920D01*
G37*
%TD.AperFunction*%
%TA.AperFunction,Conductor*%
G36*
X131794369Y-87665010D02*
G01*
X131814415Y-87680813D01*
X131814417Y-87680814D01*
X131880484Y-87714477D01*
X131899211Y-87728083D01*
X131931915Y-87760787D01*
X131945523Y-87779517D01*
X131966518Y-87820721D01*
X131973673Y-87842741D01*
X131980908Y-87888423D01*
X131980908Y-87911575D01*
X131973673Y-87957254D01*
X131966518Y-87979273D01*
X131941226Y-88028911D01*
X131937712Y-88034870D01*
X131906204Y-88095478D01*
X131862837Y-88131907D01*
X131821881Y-88132951D01*
X131790885Y-88124871D01*
X131719018Y-88116773D01*
X131702865Y-88113086D01*
X131671807Y-88102219D01*
X131656875Y-88095028D01*
X131629023Y-88077527D01*
X131616068Y-88067196D01*
X131592802Y-88043930D01*
X131582470Y-88030974D01*
X131564965Y-88003115D01*
X131557776Y-87988186D01*
X131546911Y-87957137D01*
X131543226Y-87940990D01*
X131539541Y-87908280D01*
X131539541Y-87891715D01*
X131539912Y-87888423D01*
X131543226Y-87859005D01*
X131546911Y-87842862D01*
X131557778Y-87811805D01*
X131564962Y-87796887D01*
X131582472Y-87769020D01*
X131592796Y-87756074D01*
X131616072Y-87732798D01*
X131629023Y-87722472D01*
X131636880Y-87717536D01*
X131702420Y-87665268D01*
X131756841Y-87649589D01*
X131794369Y-87665010D01*
G37*
%TD.AperFunction*%
%TA.AperFunction,Conductor*%
G36*
X143718587Y-85180201D02*
G01*
X143757253Y-85186324D01*
X143779266Y-85193476D01*
X143820484Y-85214477D01*
X143839212Y-85228084D01*
X143871915Y-85260787D01*
X143885523Y-85279518D01*
X143906518Y-85320723D01*
X143913673Y-85342742D01*
X143920908Y-85388423D01*
X143920908Y-85411575D01*
X143913673Y-85457256D01*
X143906518Y-85479276D01*
X143885522Y-85520482D01*
X143871914Y-85539212D01*
X143839212Y-85571914D01*
X143820482Y-85585522D01*
X143779276Y-85606518D01*
X143757256Y-85613673D01*
X143711577Y-85620908D01*
X143688424Y-85620908D01*
X143642742Y-85613672D01*
X143620724Y-85606518D01*
X143579515Y-85585521D01*
X143560784Y-85571912D01*
X143528082Y-85539210D01*
X143514474Y-85520479D01*
X143493479Y-85479274D01*
X143486324Y-85457253D01*
X143479090Y-85411572D01*
X143479090Y-85388424D01*
X143479090Y-85388423D01*
X143486324Y-85342741D01*
X143493475Y-85320732D01*
X143514478Y-85279511D01*
X143528080Y-85260789D01*
X143560789Y-85228080D01*
X143579511Y-85214478D01*
X143620732Y-85193475D01*
X143642741Y-85186324D01*
X143688424Y-85179090D01*
X143711572Y-85179090D01*
X143718587Y-85180201D01*
G37*
%TD.AperFunction*%
%TA.AperFunction,Conductor*%
G36*
X146018587Y-85180201D02*
G01*
X146057253Y-85186324D01*
X146079266Y-85193476D01*
X146120484Y-85214477D01*
X146139212Y-85228084D01*
X146171915Y-85260787D01*
X146185523Y-85279517D01*
X146206518Y-85320721D01*
X146213673Y-85342741D01*
X146220908Y-85388423D01*
X146220908Y-85411575D01*
X146213673Y-85457256D01*
X146206518Y-85479276D01*
X146185522Y-85520482D01*
X146171914Y-85539212D01*
X146139212Y-85571914D01*
X146120482Y-85585522D01*
X146079276Y-85606518D01*
X146057256Y-85613673D01*
X146011577Y-85620908D01*
X145988424Y-85620908D01*
X145942742Y-85613672D01*
X145920724Y-85606518D01*
X145879515Y-85585521D01*
X145860784Y-85571912D01*
X145828082Y-85539210D01*
X145814474Y-85520479D01*
X145793479Y-85479274D01*
X145786324Y-85457253D01*
X145779090Y-85411572D01*
X145779090Y-85388424D01*
X145779090Y-85388423D01*
X145786324Y-85342741D01*
X145793475Y-85320732D01*
X145814478Y-85279511D01*
X145828080Y-85260789D01*
X145860789Y-85228080D01*
X145879511Y-85214478D01*
X145920732Y-85193475D01*
X145942741Y-85186324D01*
X145988424Y-85179090D01*
X146011572Y-85179090D01*
X146018587Y-85180201D01*
G37*
%TD.AperFunction*%
%TA.AperFunction,Conductor*%
G36*
X151019167Y-84905292D02*
G01*
X151057253Y-84911324D01*
X151079266Y-84918476D01*
X151120484Y-84939477D01*
X151139212Y-84953084D01*
X151171915Y-84985787D01*
X151185523Y-85004517D01*
X151206518Y-85045721D01*
X151213673Y-85067741D01*
X151220908Y-85113423D01*
X151220908Y-85136575D01*
X151213673Y-85182256D01*
X151206518Y-85204276D01*
X151185522Y-85245482D01*
X151171914Y-85264212D01*
X151139212Y-85296914D01*
X151120482Y-85310522D01*
X151079276Y-85331518D01*
X151057256Y-85338673D01*
X151011577Y-85345908D01*
X150988424Y-85345908D01*
X150942742Y-85338672D01*
X150920724Y-85331518D01*
X150879515Y-85310521D01*
X150860784Y-85296912D01*
X150828082Y-85264210D01*
X150814474Y-85245479D01*
X150793479Y-85204274D01*
X150786324Y-85182253D01*
X150784686Y-85171912D01*
X150779090Y-85136572D01*
X150779090Y-85113424D01*
X150779090Y-85113423D01*
X150786324Y-85067741D01*
X150793475Y-85045732D01*
X150814478Y-85004511D01*
X150828080Y-84985789D01*
X150860789Y-84953080D01*
X150879511Y-84939478D01*
X150920732Y-84918475D01*
X150942741Y-84911324D01*
X150988424Y-84904090D01*
X151011572Y-84904090D01*
X151019167Y-84905292D01*
G37*
%TD.AperFunction*%
%TA.AperFunction,Conductor*%
G36*
X141357252Y-84786324D02*
G01*
X141379268Y-84793477D01*
X141418904Y-84813672D01*
X141420482Y-84814476D01*
X141439213Y-84828085D01*
X141471915Y-84860787D01*
X141485523Y-84879517D01*
X141506518Y-84920721D01*
X141513673Y-84942741D01*
X141520908Y-84988423D01*
X141520908Y-85011575D01*
X141513673Y-85057256D01*
X141506518Y-85079275D01*
X141485523Y-85120480D01*
X141471915Y-85139211D01*
X141439212Y-85171914D01*
X141420482Y-85185522D01*
X141379276Y-85206518D01*
X141357256Y-85213673D01*
X141311577Y-85220908D01*
X141288424Y-85220908D01*
X141242742Y-85213672D01*
X141220724Y-85206518D01*
X141179515Y-85185521D01*
X141160784Y-85171912D01*
X141128082Y-85139210D01*
X141114474Y-85120479D01*
X141093479Y-85079274D01*
X141086324Y-85057253D01*
X141086152Y-85056170D01*
X141079090Y-85011572D01*
X141079090Y-84988424D01*
X141079508Y-84985786D01*
X141086324Y-84942741D01*
X141093475Y-84920732D01*
X141114478Y-84879511D01*
X141128080Y-84860789D01*
X141160789Y-84828080D01*
X141179511Y-84814478D01*
X141220732Y-84793475D01*
X141242741Y-84786324D01*
X141288424Y-84779090D01*
X141311573Y-84779090D01*
X141357252Y-84786324D01*
G37*
%TD.AperFunction*%
%TA.AperFunction,Conductor*%
G36*
X148819167Y-84380292D02*
G01*
X148857253Y-84386324D01*
X148879266Y-84393476D01*
X148920484Y-84414477D01*
X148939212Y-84428084D01*
X148971915Y-84460787D01*
X148985523Y-84479517D01*
X149006518Y-84520721D01*
X149013673Y-84542741D01*
X149020908Y-84588423D01*
X149020908Y-84611575D01*
X149013673Y-84657256D01*
X149006518Y-84679276D01*
X148985522Y-84720482D01*
X148971914Y-84739212D01*
X148939212Y-84771914D01*
X148920482Y-84785522D01*
X148879276Y-84806518D01*
X148857256Y-84813673D01*
X148811577Y-84820908D01*
X148788424Y-84820908D01*
X148742742Y-84813672D01*
X148720724Y-84806518D01*
X148679515Y-84785521D01*
X148660784Y-84771912D01*
X148628083Y-84739211D01*
X148614475Y-84720480D01*
X148593479Y-84679273D01*
X148586324Y-84657253D01*
X148579090Y-84611573D01*
X148579090Y-84588424D01*
X148579090Y-84588423D01*
X148586324Y-84542741D01*
X148593475Y-84520732D01*
X148614478Y-84479511D01*
X148628080Y-84460789D01*
X148660789Y-84428080D01*
X148679511Y-84414478D01*
X148720732Y-84393475D01*
X148742741Y-84386324D01*
X148788424Y-84379090D01*
X148811572Y-84379090D01*
X148819167Y-84380292D01*
G37*
%TD.AperFunction*%
%TA.AperFunction,Conductor*%
G36*
X143718587Y-83880201D02*
G01*
X143757253Y-83886324D01*
X143779266Y-83893476D01*
X143820484Y-83914477D01*
X143839212Y-83928084D01*
X143871915Y-83960787D01*
X143885523Y-83979518D01*
X143906519Y-84020725D01*
X143913674Y-84042745D01*
X143920908Y-84088423D01*
X143920908Y-84111574D01*
X143913673Y-84157256D01*
X143906518Y-84179276D01*
X143885522Y-84220482D01*
X143871914Y-84239212D01*
X143839212Y-84271914D01*
X143820482Y-84285522D01*
X143779276Y-84306518D01*
X143757256Y-84313673D01*
X143711577Y-84320908D01*
X143688424Y-84320908D01*
X143642742Y-84313672D01*
X143620724Y-84306518D01*
X143579515Y-84285521D01*
X143560784Y-84271912D01*
X143528082Y-84239210D01*
X143514474Y-84220479D01*
X143493479Y-84179274D01*
X143486324Y-84157253D01*
X143479090Y-84111572D01*
X143479090Y-84088424D01*
X143479090Y-84088423D01*
X143486324Y-84042741D01*
X143493475Y-84020732D01*
X143514478Y-83979511D01*
X143528080Y-83960789D01*
X143560789Y-83928080D01*
X143579511Y-83914478D01*
X143620732Y-83893475D01*
X143642741Y-83886324D01*
X143688424Y-83879090D01*
X143711572Y-83879090D01*
X143718587Y-83880201D01*
G37*
%TD.AperFunction*%
%TA.AperFunction,Conductor*%
G36*
X146018587Y-83880201D02*
G01*
X146057253Y-83886324D01*
X146079266Y-83893476D01*
X146120484Y-83914477D01*
X146139212Y-83928084D01*
X146171915Y-83960787D01*
X146185523Y-83979518D01*
X146206519Y-84020725D01*
X146213674Y-84042745D01*
X146220908Y-84088423D01*
X146220908Y-84111574D01*
X146213673Y-84157256D01*
X146206518Y-84179276D01*
X146185522Y-84220482D01*
X146171914Y-84239212D01*
X146139212Y-84271914D01*
X146120482Y-84285522D01*
X146079276Y-84306518D01*
X146057256Y-84313673D01*
X146011577Y-84320908D01*
X145988424Y-84320908D01*
X145942742Y-84313672D01*
X145920724Y-84306518D01*
X145879515Y-84285521D01*
X145860784Y-84271912D01*
X145828082Y-84239210D01*
X145814474Y-84220479D01*
X145793479Y-84179274D01*
X145786324Y-84157253D01*
X145779090Y-84111572D01*
X145779090Y-84088424D01*
X145779090Y-84088423D01*
X145786324Y-84042741D01*
X145793475Y-84020732D01*
X145814478Y-83979511D01*
X145828080Y-83960789D01*
X145860789Y-83928080D01*
X145879511Y-83914478D01*
X145920732Y-83893475D01*
X145942741Y-83886324D01*
X145988424Y-83879090D01*
X146011572Y-83879090D01*
X146018587Y-83880201D01*
G37*
%TD.AperFunction*%
%TA.AperFunction,Conductor*%
G36*
X139819167Y-83480292D02*
G01*
X139857253Y-83486324D01*
X139879270Y-83493478D01*
X139892068Y-83499999D01*
X139920480Y-83514475D01*
X139939212Y-83528084D01*
X139971914Y-83560786D01*
X139985522Y-83579516D01*
X139995186Y-83598483D01*
X139995187Y-83598483D01*
X140006519Y-83620723D01*
X140013673Y-83642741D01*
X140020908Y-83688423D01*
X140020908Y-83711575D01*
X140013673Y-83757256D01*
X140006518Y-83779276D01*
X139985522Y-83820482D01*
X139971914Y-83839212D01*
X139939212Y-83871914D01*
X139920482Y-83885522D01*
X139879276Y-83906518D01*
X139857256Y-83913673D01*
X139811577Y-83920908D01*
X139788424Y-83920908D01*
X139742742Y-83913672D01*
X139720724Y-83906518D01*
X139679515Y-83885521D01*
X139660784Y-83871912D01*
X139628082Y-83839210D01*
X139614474Y-83820479D01*
X139593479Y-83779274D01*
X139586324Y-83757253D01*
X139579090Y-83711572D01*
X139579090Y-83688424D01*
X139580392Y-83680201D01*
X139586324Y-83642741D01*
X139593475Y-83620732D01*
X139614478Y-83579511D01*
X139628080Y-83560789D01*
X139660789Y-83528080D01*
X139679511Y-83514478D01*
X139720732Y-83493475D01*
X139742741Y-83486324D01*
X139788424Y-83479090D01*
X139811572Y-83479090D01*
X139819167Y-83480292D01*
G37*
%TD.AperFunction*%
%TA.AperFunction,Conductor*%
G36*
X153019167Y-83280292D02*
G01*
X153057253Y-83286324D01*
X153079266Y-83293476D01*
X153120484Y-83314477D01*
X153139212Y-83328084D01*
X153171915Y-83360787D01*
X153185523Y-83379517D01*
X153206518Y-83420721D01*
X153213673Y-83442741D01*
X153220908Y-83488423D01*
X153220908Y-83511575D01*
X153213673Y-83557256D01*
X153206518Y-83579276D01*
X153185522Y-83620482D01*
X153171914Y-83639212D01*
X153139212Y-83671914D01*
X153120482Y-83685522D01*
X153079276Y-83706518D01*
X153057256Y-83713673D01*
X153011575Y-83720908D01*
X152988422Y-83720908D01*
X152942744Y-83713673D01*
X152920727Y-83706519D01*
X152879515Y-83685521D01*
X152860785Y-83671913D01*
X152828082Y-83639210D01*
X152814474Y-83620479D01*
X152793479Y-83579274D01*
X152786324Y-83557253D01*
X152779090Y-83511572D01*
X152779090Y-83488424D01*
X152780568Y-83479090D01*
X152786324Y-83442741D01*
X152793475Y-83420732D01*
X152814478Y-83379511D01*
X152828080Y-83360789D01*
X152860789Y-83328080D01*
X152879511Y-83314478D01*
X152920732Y-83293475D01*
X152942741Y-83286324D01*
X152988424Y-83279090D01*
X153011572Y-83279090D01*
X153019167Y-83280292D01*
G37*
%TD.AperFunction*%
%TA.AperFunction,Conductor*%
G36*
X155419167Y-82780292D02*
G01*
X155457253Y-82786324D01*
X155479266Y-82793476D01*
X155520484Y-82814477D01*
X155539211Y-82828083D01*
X155599251Y-82888123D01*
X155665965Y-82932689D01*
X155665968Y-82932690D01*
X155665971Y-82932692D01*
X155669178Y-82934406D01*
X155668112Y-82936399D01*
X155703355Y-82971617D01*
X155703375Y-83028254D01*
X155668189Y-83063472D01*
X155669262Y-83065479D01*
X155666061Y-83067189D01*
X155599384Y-83111741D01*
X155599377Y-83111747D01*
X155539209Y-83171915D01*
X155520479Y-83185523D01*
X155479274Y-83206518D01*
X155457256Y-83213673D01*
X155411578Y-83220908D01*
X155388424Y-83220908D01*
X155342742Y-83213672D01*
X155320724Y-83206518D01*
X155279515Y-83185521D01*
X155260784Y-83171912D01*
X155228082Y-83139210D01*
X155214474Y-83120479D01*
X155193479Y-83079274D01*
X155186324Y-83057253D01*
X155179090Y-83011572D01*
X155179090Y-82988424D01*
X155186324Y-82942741D01*
X155193475Y-82920732D01*
X155214478Y-82879511D01*
X155228080Y-82860789D01*
X155260789Y-82828080D01*
X155279511Y-82814478D01*
X155320732Y-82793475D01*
X155342741Y-82786324D01*
X155388424Y-82779090D01*
X155411572Y-82779090D01*
X155419167Y-82780292D01*
G37*
%TD.AperFunction*%
%TA.AperFunction,Conductor*%
G36*
X140318587Y-81480201D02*
G01*
X140357253Y-81486324D01*
X140379266Y-81493476D01*
X140420484Y-81514477D01*
X140439212Y-81528084D01*
X140471915Y-81560787D01*
X140485523Y-81579518D01*
X140506518Y-81620723D01*
X140513673Y-81642742D01*
X140520908Y-81688423D01*
X140520908Y-81711575D01*
X140513673Y-81757256D01*
X140506518Y-81779276D01*
X140485522Y-81820482D01*
X140471914Y-81839212D01*
X140439212Y-81871914D01*
X140420482Y-81885522D01*
X140379276Y-81906518D01*
X140357256Y-81913673D01*
X140311577Y-81920908D01*
X140288424Y-81920908D01*
X140242742Y-81913672D01*
X140220724Y-81906518D01*
X140179515Y-81885521D01*
X140160784Y-81871912D01*
X140128082Y-81839210D01*
X140114474Y-81820479D01*
X140093479Y-81779274D01*
X140086324Y-81757253D01*
X140079090Y-81711572D01*
X140079090Y-81688424D01*
X140080539Y-81679274D01*
X140086324Y-81642741D01*
X140093475Y-81620732D01*
X140114478Y-81579511D01*
X140128080Y-81560789D01*
X140160789Y-81528080D01*
X140179511Y-81514478D01*
X140220732Y-81493475D01*
X140242741Y-81486324D01*
X140288424Y-81479090D01*
X140311572Y-81479090D01*
X140318587Y-81480201D01*
G37*
%TD.AperFunction*%
%TA.AperFunction,Conductor*%
G36*
X142618587Y-81480201D02*
G01*
X142657253Y-81486324D01*
X142679266Y-81493476D01*
X142720484Y-81514477D01*
X142739212Y-81528084D01*
X142771915Y-81560787D01*
X142785523Y-81579518D01*
X142806518Y-81620723D01*
X142813673Y-81642742D01*
X142820908Y-81688423D01*
X142820908Y-81711575D01*
X142813673Y-81757256D01*
X142806518Y-81779276D01*
X142785522Y-81820482D01*
X142771914Y-81839212D01*
X142739212Y-81871914D01*
X142720482Y-81885522D01*
X142679276Y-81906518D01*
X142657256Y-81913673D01*
X142611577Y-81920908D01*
X142588424Y-81920908D01*
X142542742Y-81913672D01*
X142520724Y-81906518D01*
X142479515Y-81885521D01*
X142460784Y-81871912D01*
X142428082Y-81839210D01*
X142414474Y-81820479D01*
X142393479Y-81779274D01*
X142386324Y-81757253D01*
X142379090Y-81711572D01*
X142379090Y-81688424D01*
X142380539Y-81679274D01*
X142386324Y-81642741D01*
X142393475Y-81620732D01*
X142414478Y-81579511D01*
X142428080Y-81560789D01*
X142460789Y-81528080D01*
X142479511Y-81514478D01*
X142520732Y-81493475D01*
X142542741Y-81486324D01*
X142588424Y-81479090D01*
X142611572Y-81479090D01*
X142618587Y-81480201D01*
G37*
%TD.AperFunction*%
%TA.AperFunction,Conductor*%
G36*
X145018587Y-81480201D02*
G01*
X145057253Y-81486324D01*
X145079266Y-81493476D01*
X145120484Y-81514477D01*
X145139212Y-81528084D01*
X145171915Y-81560787D01*
X145185523Y-81579518D01*
X145206518Y-81620723D01*
X145213673Y-81642742D01*
X145220908Y-81688423D01*
X145220908Y-81711575D01*
X145213673Y-81757256D01*
X145206518Y-81779276D01*
X145185522Y-81820482D01*
X145171914Y-81839212D01*
X145139212Y-81871914D01*
X145120482Y-81885522D01*
X145079276Y-81906518D01*
X145057256Y-81913673D01*
X145011577Y-81920908D01*
X144988424Y-81920908D01*
X144942742Y-81913672D01*
X144920724Y-81906518D01*
X144879515Y-81885521D01*
X144860784Y-81871912D01*
X144828082Y-81839210D01*
X144814474Y-81820479D01*
X144793479Y-81779274D01*
X144786324Y-81757253D01*
X144779090Y-81711572D01*
X144779090Y-81688424D01*
X144780539Y-81679274D01*
X144786324Y-81642741D01*
X144793475Y-81620732D01*
X144814478Y-81579511D01*
X144828080Y-81560789D01*
X144860789Y-81528080D01*
X144879511Y-81514478D01*
X144920732Y-81493475D01*
X144942741Y-81486324D01*
X144988424Y-81479090D01*
X145011572Y-81479090D01*
X145018587Y-81480201D01*
G37*
%TD.AperFunction*%
%TA.AperFunction,Conductor*%
G36*
X147518587Y-81480201D02*
G01*
X147557253Y-81486324D01*
X147579266Y-81493476D01*
X147620484Y-81514477D01*
X147639212Y-81528084D01*
X147671914Y-81560786D01*
X147685522Y-81579516D01*
X147695959Y-81599999D01*
X147695960Y-81600001D01*
X147706519Y-81620725D01*
X147713673Y-81642743D01*
X147720908Y-81688422D01*
X147720908Y-81711574D01*
X147713673Y-81757256D01*
X147706518Y-81779276D01*
X147685522Y-81820482D01*
X147671914Y-81839212D01*
X147639212Y-81871914D01*
X147620482Y-81885522D01*
X147579276Y-81906518D01*
X147557256Y-81913673D01*
X147511577Y-81920908D01*
X147488424Y-81920908D01*
X147442742Y-81913672D01*
X147420724Y-81906518D01*
X147379515Y-81885521D01*
X147360784Y-81871912D01*
X147328082Y-81839210D01*
X147314474Y-81820479D01*
X147293479Y-81779274D01*
X147286324Y-81757253D01*
X147279090Y-81711572D01*
X147279090Y-81688424D01*
X147280539Y-81679274D01*
X147286324Y-81642741D01*
X147293475Y-81620732D01*
X147314478Y-81579511D01*
X147328080Y-81560789D01*
X147360789Y-81528080D01*
X147379511Y-81514478D01*
X147420732Y-81493475D01*
X147442741Y-81486324D01*
X147488424Y-81479090D01*
X147511572Y-81479090D01*
X147518587Y-81480201D01*
G37*
%TD.AperFunction*%
%TA.AperFunction,Conductor*%
G36*
X152312734Y-81379274D02*
G01*
X152357253Y-81386324D01*
X152379266Y-81393476D01*
X152420484Y-81414477D01*
X152439212Y-81428084D01*
X152471915Y-81460787D01*
X152485523Y-81479517D01*
X152506518Y-81520721D01*
X152513673Y-81542741D01*
X152520908Y-81588423D01*
X152520908Y-81611575D01*
X152513673Y-81657256D01*
X152506518Y-81679276D01*
X152485522Y-81720482D01*
X152471914Y-81739212D01*
X152439212Y-81771914D01*
X152420482Y-81785522D01*
X152379276Y-81806518D01*
X152357256Y-81813673D01*
X152311577Y-81820908D01*
X152288424Y-81820908D01*
X152242742Y-81813672D01*
X152220724Y-81806518D01*
X152179515Y-81785521D01*
X152160784Y-81771912D01*
X152128082Y-81739210D01*
X152114474Y-81720479D01*
X152093479Y-81679274D01*
X152086324Y-81657253D01*
X152079090Y-81611572D01*
X152079090Y-81588424D01*
X152082154Y-81569074D01*
X152086324Y-81542741D01*
X152093475Y-81520732D01*
X152114478Y-81479511D01*
X152128080Y-81460789D01*
X152160789Y-81428080D01*
X152179511Y-81414478D01*
X152220732Y-81393475D01*
X152242741Y-81386324D01*
X152288424Y-81379090D01*
X152311572Y-81379090D01*
X152312734Y-81379274D01*
G37*
%TD.AperFunction*%
%TA.AperFunction,Conductor*%
G36*
X155419167Y-81080292D02*
G01*
X155457253Y-81086324D01*
X155479266Y-81093476D01*
X155520484Y-81114477D01*
X155539211Y-81128083D01*
X155598848Y-81187720D01*
X155665561Y-81232285D01*
X155665566Y-81232287D01*
X155668769Y-81233999D01*
X155667901Y-81235621D01*
X155703923Y-81271606D01*
X155703951Y-81328243D01*
X155667984Y-81364246D01*
X155668859Y-81365882D01*
X155665658Y-81367592D01*
X155598981Y-81412144D01*
X155598974Y-81412150D01*
X155539209Y-81471915D01*
X155520479Y-81485523D01*
X155479274Y-81506518D01*
X155457256Y-81513673D01*
X155411578Y-81520908D01*
X155388424Y-81520908D01*
X155342742Y-81513672D01*
X155320724Y-81506518D01*
X155279515Y-81485521D01*
X155260784Y-81471912D01*
X155228082Y-81439210D01*
X155214474Y-81420479D01*
X155193479Y-81379274D01*
X155186324Y-81357253D01*
X155179090Y-81311572D01*
X155179090Y-81288424D01*
X155184260Y-81255776D01*
X155186324Y-81242741D01*
X155193475Y-81220732D01*
X155214478Y-81179511D01*
X155228080Y-81160789D01*
X155260789Y-81128080D01*
X155279511Y-81114478D01*
X155320732Y-81093475D01*
X155342741Y-81086324D01*
X155388424Y-81079090D01*
X155411572Y-81079090D01*
X155419167Y-81080292D01*
G37*
%TD.AperFunction*%
%TD*%
%TA.AperFunction,Conductor*%
%TO.N,+12V*%
G36*
X133778310Y-95550197D02*
G01*
X133800000Y-95602516D01*
X133800000Y-97088042D01*
X133799367Y-97097701D01*
X133784234Y-97212644D01*
X133779234Y-97231303D01*
X133736740Y-97333893D01*
X133727081Y-97350624D01*
X133656507Y-97442597D01*
X133650125Y-97449874D01*
X132446451Y-98653548D01*
X132446447Y-98653552D01*
X132300000Y-98800000D01*
X132300000Y-99007108D01*
X132300000Y-102082876D01*
X132278326Y-102135202D01*
X132226000Y-102156876D01*
X132217716Y-102156411D01*
X132160001Y-102149909D01*
X132160000Y-102149909D01*
X132078769Y-102159061D01*
X131997538Y-102168214D01*
X131997530Y-102168216D01*
X131843223Y-102222211D01*
X131704800Y-102309188D01*
X131589188Y-102424800D01*
X131502211Y-102563223D01*
X131448216Y-102717530D01*
X131448214Y-102717538D01*
X131429909Y-102880000D01*
X131448214Y-103042461D01*
X131448216Y-103042469D01*
X131502211Y-103196776D01*
X131589188Y-103335199D01*
X131589190Y-103335201D01*
X131589192Y-103335204D01*
X131704796Y-103450808D01*
X131704798Y-103450809D01*
X131704800Y-103450811D01*
X131843223Y-103537788D01*
X131843225Y-103537789D01*
X131997539Y-103591786D01*
X132160000Y-103610091D01*
X132217716Y-103603587D01*
X132272137Y-103619266D01*
X132299535Y-103668836D01*
X132300000Y-103677122D01*
X132300000Y-110743336D01*
X132278326Y-110795661D01*
X132229193Y-110844794D01*
X132229188Y-110844800D01*
X132142211Y-110983223D01*
X132088216Y-111137530D01*
X132088214Y-111137538D01*
X132069909Y-111300000D01*
X132088214Y-111462461D01*
X132088216Y-111462469D01*
X132142210Y-111616775D01*
X132176050Y-111670630D01*
X132185537Y-111726466D01*
X132176050Y-111749370D01*
X132142210Y-111803224D01*
X132088216Y-111957530D01*
X132088214Y-111957538D01*
X132069909Y-112120000D01*
X132088214Y-112282461D01*
X132088216Y-112282469D01*
X132142211Y-112436776D01*
X132229188Y-112575199D01*
X132229190Y-112575201D01*
X132229192Y-112575204D01*
X132344796Y-112690808D01*
X132344798Y-112690809D01*
X132344800Y-112690811D01*
X132483223Y-112777788D01*
X132483225Y-112777789D01*
X132637539Y-112831786D01*
X132800000Y-112850091D01*
X132962461Y-112831786D01*
X133116775Y-112777789D01*
X133158588Y-112751515D01*
X133214422Y-112742028D01*
X133237324Y-112751514D01*
X133263225Y-112767789D01*
X133417539Y-112821786D01*
X133432314Y-112823450D01*
X133481884Y-112850847D01*
X133497395Y-112887323D01*
X133499367Y-112902297D01*
X133500000Y-112911959D01*
X133500000Y-116600000D01*
X134500000Y-117600000D01*
X135288042Y-117600000D01*
X135297701Y-117600633D01*
X135412646Y-117615765D01*
X135431303Y-117620765D01*
X135533893Y-117663259D01*
X135550617Y-117672914D01*
X135642604Y-117743498D01*
X135649874Y-117749874D01*
X136250125Y-118350125D01*
X136256502Y-118357396D01*
X136327084Y-118449380D01*
X136336740Y-118466106D01*
X136379234Y-118568696D01*
X136384234Y-118587355D01*
X136399367Y-118702298D01*
X136400000Y-118711957D01*
X136400000Y-119495149D01*
X136399367Y-119504808D01*
X136384234Y-119619752D01*
X136379235Y-119638409D01*
X136372854Y-119653816D01*
X136332808Y-119693866D01*
X136304486Y-119699500D01*
X131942234Y-119699500D01*
X131889908Y-119677826D01*
X131868867Y-119635155D01*
X131867984Y-119628447D01*
X131867983Y-119628442D01*
X131867982Y-119628441D01*
X131867982Y-119628435D01*
X131803502Y-119387793D01*
X131708164Y-119157627D01*
X131583599Y-118941873D01*
X131431938Y-118744224D01*
X131255776Y-118568062D01*
X131216761Y-118538125D01*
X131058129Y-118416402D01*
X131058123Y-118416398D01*
X130842372Y-118291835D01*
X130842369Y-118291834D01*
X130612205Y-118196497D01*
X130428422Y-118147252D01*
X130371565Y-118132018D01*
X130371563Y-118132017D01*
X130371557Y-118132016D01*
X130371549Y-118132015D01*
X130364837Y-118131131D01*
X130315789Y-118102810D01*
X130300500Y-118057765D01*
X130300500Y-95603575D01*
X130322174Y-95551249D01*
X130374476Y-95529575D01*
X133725979Y-95528539D01*
X133778310Y-95550197D01*
G37*
%TD.AperFunction*%
%TA.AperFunction,Conductor*%
G36*
X138656812Y-80322174D02*
G01*
X138672852Y-80346180D01*
X138679235Y-80361589D01*
X138684234Y-80380247D01*
X138699367Y-80495191D01*
X138700000Y-80504850D01*
X138700000Y-82288042D01*
X138699367Y-82297701D01*
X138684234Y-82412644D01*
X138679234Y-82431303D01*
X138636740Y-82533893D01*
X138627081Y-82550624D01*
X138556507Y-82642597D01*
X138550125Y-82649874D01*
X137849874Y-83350125D01*
X137842597Y-83356507D01*
X137750624Y-83427081D01*
X137733893Y-83436740D01*
X137631303Y-83479234D01*
X137612644Y-83484234D01*
X137497701Y-83499367D01*
X137488042Y-83500000D01*
X134381527Y-83500000D01*
X134329201Y-83478326D01*
X134318869Y-83465370D01*
X134280810Y-83404799D01*
X134280809Y-83404798D01*
X134280808Y-83404796D01*
X134165204Y-83289192D01*
X134165201Y-83289190D01*
X134165199Y-83289188D01*
X134026776Y-83202211D01*
X133872469Y-83148216D01*
X133872461Y-83148214D01*
X133710000Y-83129909D01*
X133547538Y-83148214D01*
X133547530Y-83148216D01*
X133393223Y-83202211D01*
X133254800Y-83289188D01*
X133139191Y-83404797D01*
X133095377Y-83474525D01*
X133059471Y-83500000D01*
X132900000Y-83500000D01*
X132753552Y-83646447D01*
X132753548Y-83646451D01*
X131946451Y-84453548D01*
X131946447Y-84453552D01*
X131800000Y-84600000D01*
X131800000Y-84688931D01*
X131781089Y-84707842D01*
X131777212Y-84709322D01*
X131683223Y-84742211D01*
X131544800Y-84829188D01*
X131429188Y-84944800D01*
X131342211Y-85083223D01*
X131288216Y-85237530D01*
X131288214Y-85237538D01*
X131269909Y-85400000D01*
X131288214Y-85562461D01*
X131288216Y-85562469D01*
X131342211Y-85716776D01*
X131417799Y-85837073D01*
X131427287Y-85892910D01*
X131394513Y-85939101D01*
X131314800Y-85989188D01*
X131199188Y-86104800D01*
X131112211Y-86243223D01*
X131058216Y-86397530D01*
X131058214Y-86397538D01*
X131039909Y-86560000D01*
X131058214Y-86722461D01*
X131058216Y-86722469D01*
X131112211Y-86876776D01*
X131199188Y-87015199D01*
X131199190Y-87015201D01*
X131199192Y-87015204D01*
X131314796Y-87130808D01*
X131314798Y-87130809D01*
X131314799Y-87130810D01*
X131367939Y-87164200D01*
X131400714Y-87210391D01*
X131391227Y-87266228D01*
X131367940Y-87289515D01*
X131304800Y-87329188D01*
X131189188Y-87444800D01*
X131102211Y-87583223D01*
X131048216Y-87737530D01*
X131048214Y-87737538D01*
X131029909Y-87900000D01*
X131048214Y-88062461D01*
X131048216Y-88062469D01*
X131102211Y-88216776D01*
X131189188Y-88355199D01*
X131189190Y-88355201D01*
X131189192Y-88355204D01*
X131304796Y-88470808D01*
X131304798Y-88470809D01*
X131304800Y-88470811D01*
X131443223Y-88557788D01*
X131443225Y-88557789D01*
X131597539Y-88611786D01*
X131734286Y-88627193D01*
X131783856Y-88654590D01*
X131800000Y-88700728D01*
X131800000Y-92700000D01*
X131946447Y-92846447D01*
X131946451Y-92846451D01*
X133444787Y-94344787D01*
X133466461Y-94397113D01*
X133444787Y-94449439D01*
X133392484Y-94471113D01*
X130374523Y-94472044D01*
X130322190Y-94450386D01*
X130300500Y-94398067D01*
X130300500Y-81942234D01*
X130322174Y-81889908D01*
X130364844Y-81868867D01*
X130371560Y-81867983D01*
X130371562Y-81867982D01*
X130371565Y-81867982D01*
X130612207Y-81803502D01*
X130842373Y-81708164D01*
X131058127Y-81583599D01*
X131255776Y-81431938D01*
X131431938Y-81255776D01*
X131583599Y-81058127D01*
X131708164Y-80842373D01*
X131803502Y-80612207D01*
X131867982Y-80371565D01*
X131868867Y-80364845D01*
X131897183Y-80315794D01*
X131942234Y-80300500D01*
X138604486Y-80300500D01*
X138656812Y-80322174D01*
G37*
%TD.AperFunction*%
%TD*%
M02*
