M48
; DRILL file {KiCad 8.0.3} date 2024-07-17T18:17:16+0200
; FORMAT={-:-/ absolute / inch / decimal}
; #@! TF.CreationDate,2024-07-17T18:17:16+02:00
; #@! TF.GenerationSoftware,Kicad,Pcbnew,8.0.3
; #@! TF.FileFunction,Plated,1,4,PTH
FMAT,2
INCH
; #@! TA.AperFunction,Plated,PTH,ViaDrill
T1C0.0118
%
G90
G05
T1
X5.1457Y-3.3819
X5.1457Y-3.5394
X5.1535Y-3.7402
X5.1539Y-3.5843
X5.1594Y-3.2984
X5.1626Y-3.3453
X5.1673Y-4.2602
X5.1673Y-4.2906
X5.1693Y-3.3819
X5.1693Y-3.5394
X5.1693Y-3.6457
X5.1713Y-4.0236
X5.1713Y-4.0559
X5.189Y-3.7402
X5.2028Y-4.1831
X5.2031Y-4.1445
X5.2098Y-3.5382
X5.2126Y-3.6614
X5.2142Y-4.5937
X5.2205Y-3.6929
X5.2362Y-3.6457
X5.2362Y-4.0472
X5.2374Y-3.2728
X5.2402Y-3.8386
X5.2425Y-3.5378
X5.2441Y-3.6732
X5.248Y-4.0945
X5.2598Y-4.0669
X5.2598Y-4.5512
X5.2598Y-4.5906
X5.2638Y-3.6929
X5.2661Y-4.3921
X5.2681Y-3.4685
X5.2717Y-3.8661
X5.2748Y-3.5441
X5.278Y-4.5705
X5.2972Y-4.5512
X5.298Y-4.5906
X5.3067Y-4.3358
X5.3091Y-4.0776
X5.3264Y-4.4709
X5.3374Y-3.4043
X5.3382Y-3.5791
X5.3402Y-4.5327
X5.3406Y-4.1366
X5.3484Y-3.3335
X5.3661Y-4.0315
X5.3661Y-4.2677
X5.3745Y-3.4936
X5.3748Y-4.463
X5.3752Y-3.3335
X5.3874Y-4.5646
X5.3949Y-4.4886
X5.4028Y-3.4311
X5.4213Y-3.9409
X5.4213Y-4.189
X5.4291Y-4.5
X5.4291Y-4.5315
X5.4346Y-3.3354
X5.4449Y-3.9606
X5.4512Y-4.2933
X5.4528Y-4.5
X5.4528Y-4.5315
X5.4843Y-4.0815
X5.487Y-3.9539
X5.4921Y-4.2569
X5.4969Y-3.2291
X5.5039Y-3.6496
X5.5157Y-4.1073
X5.5157Y-4.5201
X5.5268Y-4.0047
X5.5276Y-3.4409
X5.5276Y-3.7205
X5.5295Y-4.4689
X5.5315Y-4.5579
X5.5319Y-3.3626
X5.563Y-3.2795
X5.563Y-3.5157
X5.572Y-3.1945
X5.5748Y-3.3346
X5.5748Y-3.4449
X5.5768Y-4.5598
X5.5827Y-3.2638
X5.5827Y-3.5
X5.5843Y-4.4878
X5.5906Y-4.1169
X5.5945Y-3.5591
X5.598Y-4.2193
X5.602Y-3.3646
X5.6091Y-3.3063
X5.6429Y-4.0193
X5.6531Y-3.9209
X5.6567Y-4.2059
X5.6606Y-3.811
X5.6614Y-4.2795
X5.6762Y-3.7756
X5.6811Y-3.5787
X5.685Y-3.4094
X5.688Y-4.1693
X5.6976Y-3.8075
X5.7165Y-4.4409
X5.7264Y-4.6799
X5.7362Y-3.811
X5.7362Y-4.4685
X5.7402Y-3.7756
X5.7441Y-3.5906
X5.7441Y-3.878
X5.7441Y-4.0039
X5.748Y-3.9646
X5.748Y-4.0748
X5.752Y-4.1693
X5.752Y-4.2323
X5.7559Y-4.4409
X5.7677Y-3.4094
X5.7795Y-3.1976
X5.7835Y-4.2992
X5.8094Y-3.6831
X5.811Y-3.2205
X5.8268Y-4.2953
X5.8311Y-4.337
X5.8417Y-4.4898
X5.8425Y-3.1984
X5.8492Y-4.3697
X5.8492Y-4.4091
X5.8504Y-4.2638
X5.8689Y-4.3894
X5.874Y-3.8858
X5.878Y-3.3465
X5.878Y-3.4094
X5.878Y-3.563
X5.8791Y-3.589
X5.8858Y-4.122
X5.8886Y-4.3697
X5.8886Y-4.4091
X5.8937Y-3.9055
X5.9016Y-3.6024
X5.9016Y-4.563
X5.9252Y-4.0
X5.9252Y-4.5394
X5.9252Y-4.563
X5.9252Y-4.5866
X5.937Y-3.7638
X5.9441Y-4.6681
X5.9488Y-4.563
X5.9843Y-3.8701
X5.9882Y-4.3819
X5.9902Y-3.3937
X5.9913Y-4.428
X5.9921Y-3.4449
X5.9921Y-3.9094
X5.9937Y-4.3209
X5.9949Y-4.6102
X5.9961Y-3.8465
X6.0102Y-3.2878
X6.0118Y-4.3622
X6.0157Y-3.4252
X6.0461Y-4.3197
X6.0787Y-3.4528
X6.0787Y-3.4843
X6.0787Y-4.3819
X6.1059Y-3.2406
X6.1063Y-3.4685
X6.1063Y-3.6961
X6.1094Y-4.6339
X6.1142Y-4.3937
X6.1339Y-3.4528
X6.1339Y-3.4843
X6.1339Y-4.4134
X6.1417Y-4.3858
X6.1681Y-3.8984
X6.1701Y-3.7957
X6.1724Y-4.0476
X6.1906Y-3.4531
X6.2008Y-3.3406
X6.2008Y-3.5118
X6.2008Y-4.4291
X6.2012Y-4.5295
X6.2047Y-4.374
X6.2244Y-3.4921
X6.2244Y-4.4488
X6.2283Y-3.2008
X6.2283Y-3.7362
X6.2283Y-4.1378
X6.2283Y-4.6732
X6.2354Y-3.4555
X6.2362Y-3.5866
X6.2531Y-4.0555
X6.2547Y-3.8984
X6.261Y-3.7965
X6.2701Y-3.3429
X6.2717Y-3.4252
X6.2717Y-4.3622
X6.2827Y-4.2783
X6.2835Y-4.437
X6.2953Y-3.4409
X6.2953Y-4.3819
X6.2996Y-3.4819
X6.3161Y-3.3752
X6.326Y-4.3185
X6.3622Y-3.4528
X6.3622Y-3.4843
X6.3622Y-4.3898
X6.3622Y-4.4213
X6.3819Y-4.4055
X6.3898Y-3.4685
X6.3898Y-3.9213
X6.3898Y-3.9528
X6.402Y-4.4913
X6.4173Y-3.4528
X6.4173Y-3.4843
X6.4203Y-3.5866
X6.4213Y-3.937
X6.422Y-4.3898
X6.422Y-4.4177
X6.4252Y-3.2008
X6.4252Y-4.6732
X6.4335Y-4.2134
X6.4528Y-3.9213
X6.4528Y-3.9528
X6.4843Y-3.5118
X6.4843Y-4.4528
X6.4961Y-3.4331
X6.4961Y-4.374
X6.5016Y-4.6705
X6.5067Y-4.3224
X6.5079Y-3.4921
X6.5079Y-4.4331
X6.5118Y-3.565
X6.5157Y-3.7953
X6.5157Y-3.8268
X6.5157Y-4.0472
X6.5157Y-4.0787
X6.5181Y-3.6677
X6.5181Y-3.7213
X6.5209Y-4.6098
X6.5213Y-3.2346
X6.526Y-4.1583
X6.526Y-4.2075
X6.5276Y-3.9685
X6.5839Y-3.4685
X6.6567Y-4.1917
X6.6575Y-3.9213
X6.6575Y-3.9528
X6.6587Y-3.6866
M30
