M48
; DRILL file {KiCad 8.0.4} date 2024-09-11T23:51:38+0200
; FORMAT={-:-/ absolute / inch / decimal}
; #@! TF.CreationDate,2024-09-11T23:51:38+02:00
; #@! TF.GenerationSoftware,Kicad,Pcbnew,8.0.4
; #@! TF.FileFunction,Plated,1,4,PTH
FMAT,2
INCH
; #@! TA.AperFunction,Plated,PTH,ViaDrill
T1C0.0118
; #@! TA.AperFunction,Plated,PTH,ViaDrill
T2C0.0157
; #@! TA.AperFunction,Plated,PTH,ComponentDrill
T3C0.0315
%
G90
G05
T1
X5.1528Y-4.2602
X5.1693Y-3.5906
X5.174Y-3.9472
X5.185Y-4.0827
X5.2016Y-3.8567
X5.2087Y-3.7402
X5.2087Y-4.311
X5.2272Y-3.8484
X5.228Y-3.4173
X5.2295Y-4.0925
X5.2315Y-4.1217
X5.252Y-3.3524
X5.252Y-3.3819
X5.2835Y-3.3661
X5.2862Y-4.2524
X5.2992Y-3.8858
X5.2992Y-3.937
X5.2992Y-3.9882
X5.3031Y-4.1024
X5.3102Y-3.4713
X5.3264Y-3.611
X5.3504Y-3.8858
X5.3504Y-3.937
X5.3504Y-3.9882
X5.3661Y-3.5315
X5.378Y-4.2091
X5.3819Y-3.7165
X5.3819Y-3.7795
X5.3949Y-4.2413
X5.4016Y-3.8858
X5.4016Y-3.937
X5.4016Y-3.9882
X5.4409Y-3.7165
X5.4409Y-3.7785
X5.4618Y-4.2287
X5.4634Y-4.115
X5.4657Y-3.3169
X5.4685Y-3.5236
X5.513Y-3.4469
X5.5157Y-3.3583
X5.5299Y-4.1154
X5.5354Y-3.7874
X5.5433Y-3.4449
X5.5551Y-3.9528
X5.563Y-4.2677
X5.5635Y-3.311
X5.5748Y-3.4449
X5.5803Y-3.9638
X5.5827Y-3.6102
X5.5906Y-3.5315
X5.6063Y-3.9528
X5.6102Y-4.5181
X5.6134Y-3.8087
X5.6181Y-4.0669
X5.626Y-3.8319
X5.6406Y-3.9654
X5.6413Y-3.9075
X5.6461Y-4.0181
X5.6496Y-3.8531
X5.6531Y-4.2744
X5.6531Y-4.4819
X5.6575Y-3.2244
X5.6602Y-3.8827
X5.6602Y-3.9307
X5.6603Y-3.9871
X5.6638Y-4.0417
X5.6693Y-4.3386
X5.6693Y-4.378
X5.6693Y-4.4173
X5.7047Y-3.5354
X5.7087Y-4.3386
X5.7087Y-4.378
X5.7087Y-4.4173
X5.7283Y-3.3425
X5.7307Y-3.2909
X5.7402Y-4.2441
X5.7402Y-4.5118
X5.748Y-4.3386
X5.748Y-4.378
X5.748Y-4.4173
X5.7677Y-4.189
X5.7913Y-4.0669
X5.7949Y-4.189
X5.8071Y-3.2913
X5.8091Y-3.637
X5.811Y-3.2283
X5.8228Y-3.7756
X5.8274Y-3.6187
X5.8504Y-3.8937
X5.8504Y-3.937
X5.8504Y-3.9803
X5.8543Y-4.2677
X5.8543Y-4.4882
X5.8819Y-4.1496
X5.8937Y-3.8937
X5.8937Y-3.937
X5.8937Y-3.9803
X5.9039Y-4.0634
X5.9181Y-3.6705
X5.9252Y-4.5315
X5.9291Y-3.5787
X5.9331Y-3.7205
X5.9331Y-3.7825
X5.9331Y-4.2126
X5.937Y-3.8937
X5.937Y-3.937
X5.937Y-3.9803
X5.9815Y-4.0331
X5.9843Y-3.7205
X5.9872Y-4.0945
X6.0118Y-3.2362
X6.0118Y-3.2717
X6.0118Y-3.3071
X6.0118Y-4.5669
X6.0118Y-4.6024
X6.0118Y-4.6378
X6.0472Y-3.9094
X6.0472Y-3.9646
X6.0492Y-4.2142
X6.0492Y-4.239
X6.2087Y-3.5787
X6.2087Y-4.3661
X6.2362Y-3.4606
X6.2402Y-4.2441
X6.2874Y-3.5276
X6.2874Y-3.5591
X6.2874Y-4.315
X6.2874Y-4.3465
X6.3016Y-3.4594
X6.3024Y-4.2465
X6.315Y-3.5433
X6.315Y-4.3307
X6.3272Y-3.4598
X6.3276Y-4.2465
X6.3425Y-3.5276
X6.3425Y-3.5591
X6.3425Y-4.315
X6.3425Y-4.3465
X6.4213Y-3.4831
X6.4213Y-3.5807
X6.4213Y-3.6496
X6.4213Y-4.2705
X6.4213Y-4.3681
X6.4213Y-4.437
X6.4291Y-3.2913
X6.4291Y-3.7953
X6.4291Y-4.0787
X6.4291Y-4.5827
X6.4724Y-3.4724
X6.4764Y-3.8543
X6.4764Y-4.0197
X6.5669Y-4.3307
X6.5827Y-3.5433
X6.5866Y-3.9213
X6.5866Y-3.9528
X6.6496Y-4.1563
X6.6496Y-4.3794
X6.6626Y-3.7118
T2
X5.4059Y-3.4768
T3
X5.4961Y-3.6063
X5.4961Y-3.7047
X5.7717Y-3.4678
X5.7717Y-3.5662
X6.1339Y-3.6811
X6.1339Y-3.7598
X6.1339Y-4.1142
X6.1339Y-4.1929
M30
