%TF.GenerationSoftware,KiCad,Pcbnew,8.0.4*%
%TF.CreationDate,2024-09-11T23:51:38+02:00*%
%TF.ProjectId,HiFiDAC,48694669-4441-4432-9e6b-696361645f70,rev?*%
%TF.SameCoordinates,Original*%
%TF.FileFunction,Soldermask,Bot*%
%TF.FilePolarity,Negative*%
%FSLAX46Y46*%
G04 Gerber Fmt 4.6, Leading zero omitted, Abs format (unit mm)*
G04 Created by KiCad (PCBNEW 8.0.4) date 2024-09-11 23:51:38*
%MOMM*%
%LPD*%
G01*
G04 APERTURE LIST*
G04 Aperture macros list*
%AMRoundRect*
0 Rectangle with rounded corners*
0 $1 Rounding radius*
0 $2 $3 $4 $5 $6 $7 $8 $9 X,Y pos of 4 corners*
0 Add a 4 corners polygon primitive as box body*
4,1,4,$2,$3,$4,$5,$6,$7,$8,$9,$2,$3,0*
0 Add four circle primitives for the rounded corners*
1,1,$1+$1,$2,$3*
1,1,$1+$1,$4,$5*
1,1,$1+$1,$6,$7*
1,1,$1+$1,$8,$9*
0 Add four rect primitives between the rounded corners*
20,1,$1+$1,$2,$3,$4,$5,0*
20,1,$1+$1,$4,$5,$6,$7,0*
20,1,$1+$1,$6,$7,$8,$9,0*
20,1,$1+$1,$8,$9,$2,$3,0*%
G04 Aperture macros list end*
%ADD10C,0.150000*%
%ADD11C,0.000000*%
%ADD12RoundRect,0.237500X0.237500X-0.987500X0.237500X0.987500X-0.237500X0.987500X-0.237500X-0.987500X0*%
%ADD13R,1.600000X1.600000*%
%ADD14C,1.600000*%
%ADD15RoundRect,0.250000X0.325000X0.650000X-0.325000X0.650000X-0.325000X-0.650000X0.325000X-0.650000X0*%
%ADD16RoundRect,0.225000X0.225000X0.250000X-0.225000X0.250000X-0.225000X-0.250000X0.225000X-0.250000X0*%
%ADD17RoundRect,0.250000X-0.250000X-0.475000X0.250000X-0.475000X0.250000X0.475000X-0.250000X0.475000X0*%
%ADD18RoundRect,0.237500X-0.237500X0.987500X-0.237500X-0.987500X0.237500X-0.987500X0.237500X0.987500X0*%
%ADD19RoundRect,0.250000X0.550000X-1.500000X0.550000X1.500000X-0.550000X1.500000X-0.550000X-1.500000X0*%
%ADD20RoundRect,0.250000X-0.475000X0.250000X-0.475000X-0.250000X0.475000X-0.250000X0.475000X0.250000X0*%
%ADD21RoundRect,0.225000X0.250000X-0.225000X0.250000X0.225000X-0.250000X0.225000X-0.250000X-0.225000X0*%
%ADD22RoundRect,0.062500X-0.062500X0.375000X-0.062500X-0.375000X0.062500X-0.375000X0.062500X0.375000X0*%
%ADD23RoundRect,0.062500X-0.375000X0.062500X-0.375000X-0.062500X0.375000X-0.062500X0.375000X0.062500X0*%
%ADD24R,3.450000X3.450000*%
%ADD25R,0.950000X1.050000*%
%ADD26RoundRect,0.250000X0.250000X0.475000X-0.250000X0.475000X-0.250000X-0.475000X0.250000X-0.475000X0*%
%ADD27RoundRect,0.200000X-0.275000X0.200000X-0.275000X-0.200000X0.275000X-0.200000X0.275000X0.200000X0*%
%ADD28RoundRect,0.200000X0.200000X0.275000X-0.200000X0.275000X-0.200000X-0.275000X0.200000X-0.275000X0*%
%ADD29RoundRect,0.200000X-0.200000X-0.275000X0.200000X-0.275000X0.200000X0.275000X-0.200000X0.275000X0*%
%ADD30RoundRect,0.050000X0.050000X-0.200000X0.050000X0.200000X-0.050000X0.200000X-0.050000X-0.200000X0*%
%ADD31R,1.500000X0.900000*%
%ADD32RoundRect,0.225000X-0.250000X0.225000X-0.250000X-0.225000X0.250000X-0.225000X0.250000X0.225000X0*%
%ADD33RoundRect,0.218750X-0.218750X-0.256250X0.218750X-0.256250X0.218750X0.256250X-0.218750X0.256250X0*%
G04 APERTURE END LIST*
D10*
%TO.C,REF\u002A\u002A*%
X142150000Y-109800000D02*
X142150000Y-113400000D01*
X141550000Y-114000000D01*
X135250000Y-114000000D01*
X134650000Y-113400000D01*
X134650000Y-109800000D01*
X135250000Y-109200000D01*
X141550000Y-109200000D01*
X142150000Y-109800000D01*
D11*
G36*
X141550000Y-111300000D02*
G01*
X140950000Y-111300000D01*
X140950000Y-110400000D01*
X139750000Y-110400000D01*
X139450000Y-110700000D01*
X139450000Y-111000000D01*
X139750000Y-111300000D01*
X138850000Y-111300000D01*
X138850000Y-110100000D01*
X139150000Y-109800000D01*
X141550000Y-109800000D01*
X141550000Y-111300000D01*
G37*
G36*
X140950000Y-111300000D02*
G01*
X141550000Y-111300000D01*
X141550000Y-113400000D01*
X139150000Y-113400000D01*
X138850000Y-113100000D01*
X138850000Y-112200000D01*
X139450000Y-112200000D01*
X139450000Y-112500000D01*
X139750000Y-112800000D01*
X140950000Y-112800000D01*
X140950000Y-111900000D01*
X139750000Y-111900000D01*
X139450000Y-112200000D01*
X138850000Y-112200000D01*
X138850000Y-111900000D01*
X139150000Y-111600000D01*
X138850000Y-111300000D01*
X140950000Y-111300000D01*
G37*
G36*
X135850000Y-112200000D02*
G01*
X136150000Y-112500000D01*
X136450000Y-112200000D01*
X136450000Y-110100000D01*
X136750000Y-109800000D01*
X137050000Y-110100000D01*
X137050000Y-112200000D01*
X137350000Y-112500000D01*
X137650000Y-112200000D01*
X137650000Y-109800000D01*
X137950000Y-109800000D01*
X138250000Y-110100000D01*
X138250000Y-113100000D01*
X137950000Y-113400000D01*
X137050000Y-113400000D01*
X136750000Y-113100000D01*
X136450000Y-113400000D01*
X135550000Y-113400000D01*
X135250000Y-113100000D01*
X135250000Y-110100000D01*
X135550000Y-109800000D01*
X135850000Y-109800000D01*
X135850000Y-112200000D01*
G37*
%TD*%
D12*
%TO.C,TP9*%
X144700000Y-100600000D03*
%TD*%
%TO.C,TP8*%
X144700000Y-97500000D03*
%TD*%
%TO.C,TP7*%
X143000000Y-95100000D03*
%TD*%
%TO.C,TP6*%
X141500000Y-95500000D03*
%TD*%
D13*
%TO.C,C12*%
X139600000Y-94100000D03*
D14*
X139600000Y-91600000D03*
%TD*%
D13*
%TO.C,C18*%
X155800000Y-104500000D03*
D14*
X155800000Y-106500000D03*
%TD*%
D13*
%TO.C,C28*%
X146600000Y-90582380D03*
D14*
X146600000Y-88082380D03*
%TD*%
D13*
%TO.C,C23*%
X155800000Y-95500000D03*
D14*
X155800000Y-93500000D03*
%TD*%
D15*
%TO.C,C39*%
X162475000Y-110000000D03*
X159525000Y-110000000D03*
%TD*%
D16*
%TO.C,C10*%
X136675000Y-96000000D03*
X135125000Y-96000000D03*
%TD*%
D17*
%TO.C,C26*%
X142850000Y-82800000D03*
X144750000Y-82800000D03*
%TD*%
D18*
%TO.C,TP4*%
X136500000Y-105100000D03*
%TD*%
D19*
%TO.C,C14*%
X152700000Y-116900000D03*
X152700000Y-111300000D03*
%TD*%
D17*
%TO.C,C27*%
X143350000Y-84900000D03*
X145250000Y-84900000D03*
%TD*%
D20*
%TO.C,C30*%
X138900000Y-86750000D03*
X138900000Y-88650000D03*
%TD*%
D21*
%TO.C,C8*%
X140000000Y-106075000D03*
X140000000Y-104525000D03*
%TD*%
D22*
%TO.C,U3*%
X134150000Y-97562500D03*
X134650000Y-97562500D03*
X135150000Y-97562500D03*
X135650000Y-97562500D03*
X136150000Y-97562500D03*
X136650000Y-97562500D03*
X137150000Y-97562500D03*
X137650000Y-97562500D03*
D23*
X138337500Y-98250000D03*
X138337500Y-98750000D03*
X138337500Y-99250000D03*
X138337500Y-99750000D03*
X138337500Y-100250000D03*
X138337500Y-100750000D03*
X138337500Y-101250000D03*
X138337500Y-101750000D03*
D22*
X137650000Y-102437500D03*
X137150000Y-102437500D03*
X136650000Y-102437500D03*
X136150000Y-102437500D03*
X135650000Y-102437500D03*
X135150000Y-102437500D03*
X134650000Y-102437500D03*
X134150000Y-102437500D03*
D23*
X133462500Y-101750000D03*
X133462500Y-101250000D03*
X133462500Y-100750000D03*
X133462500Y-100250000D03*
X133462500Y-99750000D03*
X133462500Y-99250000D03*
X133462500Y-98750000D03*
X133462500Y-98250000D03*
D24*
X135900000Y-100000000D03*
%TD*%
D18*
%TO.C,TP3*%
X131400000Y-98300000D03*
%TD*%
D25*
%TO.C,U1*%
X141575000Y-106225000D03*
X141575000Y-104375000D03*
X143025000Y-104375000D03*
X143025000Y-106225000D03*
%TD*%
D26*
%TO.C,C31*%
X141750000Y-84900000D03*
X139850000Y-84900000D03*
%TD*%
D19*
%TO.C,C13*%
X152700000Y-88700000D03*
X152700000Y-83100000D03*
%TD*%
D27*
%TO.C,R11*%
X144900000Y-86675000D03*
X144900000Y-88325000D03*
%TD*%
%TO.C,R2*%
X145500000Y-102775000D03*
X145500000Y-104425000D03*
%TD*%
D19*
%TO.C,C32*%
X133800000Y-90000000D03*
X133800000Y-84600000D03*
%TD*%
D28*
%TO.C,R13*%
X141325000Y-81500000D03*
X139675000Y-81500000D03*
%TD*%
D21*
%TO.C,C11*%
X138200000Y-95975000D03*
X138200000Y-94425000D03*
%TD*%
D18*
%TO.C,TP5*%
X131400000Y-101600000D03*
%TD*%
D29*
%TO.C,R12*%
X143275000Y-89800000D03*
X144925000Y-89800000D03*
%TD*%
D30*
%TO.C,U5*%
X142000000Y-88450000D03*
X141600000Y-88450000D03*
X141200000Y-88450000D03*
X140800000Y-88450000D03*
X140400000Y-88450000D03*
X140400000Y-86550000D03*
X140800000Y-86550000D03*
X141200000Y-86550000D03*
X141600000Y-86550000D03*
X142000000Y-86550000D03*
D31*
X141200000Y-87500000D03*
%TD*%
D32*
%TO.C,C25*%
X143300000Y-86725000D03*
X143300000Y-88275000D03*
%TD*%
D27*
%TO.C,R14*%
X138200000Y-83475000D03*
X138200000Y-85125000D03*
%TD*%
D18*
%TO.C,TP1*%
X133300000Y-94900000D03*
%TD*%
D15*
%TO.C,C42*%
X162475000Y-90000000D03*
X159525000Y-90000000D03*
%TD*%
D33*
%TO.C,FB1*%
X145512500Y-94700000D03*
X147087500Y-94700000D03*
%TD*%
D21*
%TO.C,C7*%
X138400000Y-106075000D03*
X138400000Y-104525000D03*
%TD*%
D12*
%TO.C,TP2*%
X131400000Y-95200000D03*
%TD*%
D16*
%TO.C,C9*%
X136675000Y-94400000D03*
X135125000Y-94400000D03*
%TD*%
%TO.C,C29*%
X141275000Y-83100000D03*
X139725000Y-83100000D03*
%TD*%
D29*
%TO.C,R6*%
X135075000Y-92900000D03*
X136725000Y-92900000D03*
%TD*%
M02*
