%TF.GenerationSoftware,KiCad,Pcbnew,8.0.5*%
%TF.CreationDate,2024-10-03T20:59:06+02:00*%
%TF.ProjectId,BatteryMonitor,42617474-6572-4794-9d6f-6e69746f722e,rev?*%
%TF.SameCoordinates,Original*%
%TF.FileFunction,Copper,L2,Inr*%
%TF.FilePolarity,Positive*%
%FSLAX46Y46*%
G04 Gerber Fmt 4.6, Leading zero omitted, Abs format (unit mm)*
G04 Created by KiCad (PCBNEW 8.0.5) date 2024-10-03 20:59:06*
%MOMM*%
%LPD*%
G01*
G04 APERTURE LIST*
%TA.AperFunction,ComponentPad*%
%ADD10C,2.300000*%
%TD*%
%TA.AperFunction,ComponentPad*%
%ADD11C,3.000000*%
%TD*%
%TA.AperFunction,ComponentPad*%
%ADD12C,1.600000*%
%TD*%
%TA.AperFunction,ComponentPad*%
%ADD13C,1.800000*%
%TD*%
%TA.AperFunction,ViaPad*%
%ADD14C,0.450000*%
%TD*%
G04 APERTURE END LIST*
D10*
%TO.N,GND*%
%TO.C,J5*%
X135160000Y-118140000D03*
X135160000Y-113060000D03*
X137700000Y-118140000D03*
X137700000Y-113060000D03*
X140240000Y-118140000D03*
X140240000Y-113060000D03*
%TD*%
%TO.N,Net-(J2-Pin_1)*%
%TO.C,J2*%
X135160000Y-87140000D03*
X135160000Y-82060000D03*
X137700000Y-87140000D03*
X137700000Y-82060000D03*
X140240000Y-87140000D03*
X140240000Y-82060000D03*
%TD*%
D11*
%TO.N,Net-(D2-A)*%
%TO.C,J6*%
X164525000Y-103437500D03*
X164525000Y-105737500D03*
%TO.N,+BATT*%
X164525000Y-95637500D03*
X164525000Y-97937500D03*
D12*
%TO.N,unconnected-(J6-Pin_3-Pad3)*%
X161150000Y-104337500D03*
%TO.N,unconnected-(J6-Pin_4-Pad4)*%
X161150000Y-100687500D03*
%TO.N,unconnected-(J6-Pin_5-Pad5)*%
X161150000Y-97037500D03*
%TO.N,N/C*%
X168325000Y-93437500D03*
D13*
X168325000Y-95387500D03*
X168325000Y-105987500D03*
D12*
X168325000Y-107937500D03*
X159875000Y-93437500D03*
D13*
X159875000Y-95387500D03*
X159875000Y-105987500D03*
D12*
X159875000Y-107937500D03*
%TD*%
D14*
%TO.N,/PWR_SWITCH*%
X154930000Y-96570000D03*
%TO.N,GND*%
X162875000Y-118362500D03*
%TO.N,+3.3V*%
X149535000Y-97065000D03*
%TO.N,GND*%
X147790000Y-93980000D03*
X141550000Y-95270000D03*
%TO.N,/SDA_EXT*%
X150590000Y-96770000D03*
%TO.N,Net-(J1-Pin_5)*%
X157500000Y-95625000D03*
%TO.N,/TS*%
X137430000Y-105600000D03*
%TO.N,/CELL1*%
X139075000Y-101500000D03*
%TO.N,Net-(J3-Pin_3)*%
X139075000Y-99700000D03*
%TO.N,Net-(J3-Pin_2)*%
X138920000Y-98240000D03*
%TO.N,Net-(J3-Pin_1)*%
X139075000Y-96100000D03*
%TO.N,+BATT*%
X151100000Y-85100000D03*
X151100000Y-82900000D03*
X152000000Y-81700000D03*
X152000000Y-86300000D03*
X152000000Y-84000000D03*
X149300000Y-85100000D03*
X150200000Y-86300000D03*
X149300000Y-82900000D03*
X150200000Y-84000000D03*
X150200000Y-81700000D03*
X148400000Y-84000000D03*
%TO.N,Net-(Q1-D)*%
X153300000Y-115600000D03*
X153300000Y-113800000D03*
X152100000Y-116400000D03*
X152100000Y-113000000D03*
X154400000Y-113000000D03*
X154400000Y-116400000D03*
X156100000Y-116400000D03*
X157800000Y-116400000D03*
X156100000Y-113000000D03*
X157800000Y-113000000D03*
X148700000Y-116400000D03*
X148700000Y-113000000D03*
%TO.N,GND*%
X150600000Y-93500000D03*
X150600000Y-94800000D03*
X151900000Y-94800000D03*
X153200000Y-94800000D03*
X153200000Y-93500000D03*
X153200000Y-92200000D03*
X151900000Y-92200000D03*
X150600000Y-92200000D03*
X151900000Y-93500000D03*
X159510000Y-89460000D03*
X150875000Y-89600000D03*
X155900000Y-89125000D03*
X155900000Y-93675000D03*
X157500000Y-97175000D03*
X152825000Y-97500000D03*
X151200000Y-110275000D03*
X149100000Y-110275000D03*
X142725000Y-108890000D03*
X139600000Y-110450000D03*
X150800000Y-99625000D03*
X148700000Y-98125000D03*
X153400000Y-104750000D03*
X149200000Y-105100000D03*
X150600000Y-105100000D03*
X150600000Y-103700000D03*
X149200000Y-103700000D03*
X149900000Y-104400000D03*
X139075000Y-103300000D03*
X142400000Y-103175000D03*
X144100000Y-103175000D03*
%TO.N,Net-(R18-Pad1)*%
X139925000Y-105600000D03*
%TO.N,Net-(U2-PA2)*%
X154880000Y-90200000D03*
%TO.N,Net-(U2-PA3)*%
X154280000Y-89820000D03*
%TO.N,Net-(J4-Pin_1)*%
X148670000Y-92190000D03*
%TO.N,Net-(J4-Pin_3)*%
X147600000Y-92510000D03*
%TO.N,/SWCLK*%
X149550000Y-95970000D03*
%TO.N,/SWDIO*%
X148540000Y-94190000D03*
%TO.N,Net-(U1-SCL)*%
X154710000Y-104580000D03*
X154500000Y-100400000D03*
%TO.N,Net-(Q1-D)*%
X148700000Y-114700000D03*
X150400000Y-114700000D03*
X150400000Y-116400000D03*
X150400000Y-113000000D03*
X152100000Y-114700000D03*
X157800000Y-114700000D03*
X156100000Y-114700000D03*
X154400000Y-114700000D03*
%TD*%
%TA.AperFunction,Conductor*%
%TO.N,GND*%
G36*
X168197789Y-80222174D02*
G01*
X168218830Y-80264841D01*
X168230305Y-80352006D01*
X168291393Y-80579991D01*
X168381714Y-80798045D01*
X168381715Y-80798048D01*
X168499724Y-81002446D01*
X168499728Y-81002452D01*
X168643408Y-81189699D01*
X168810300Y-81356591D01*
X168997547Y-81500271D01*
X168997553Y-81500275D01*
X169201951Y-81618284D01*
X169420007Y-81708606D01*
X169647986Y-81769693D01*
X169647992Y-81769693D01*
X169647993Y-81769694D01*
X169666134Y-81772082D01*
X169735158Y-81781169D01*
X169784208Y-81809487D01*
X169799500Y-81854536D01*
X169799500Y-94911484D01*
X169777826Y-94963810D01*
X169725500Y-94985484D01*
X169673174Y-94963810D01*
X169656097Y-94933761D01*
X169655148Y-94934087D01*
X169654156Y-94931197D01*
X169579417Y-94760811D01*
X169560924Y-94718651D01*
X169433979Y-94524347D01*
X169311123Y-94390889D01*
X169291630Y-94337712D01*
X169313242Y-94288443D01*
X169325047Y-94276639D01*
X169455568Y-94090234D01*
X169551739Y-93883996D01*
X169610635Y-93664192D01*
X169626906Y-93478214D01*
X169630468Y-93437505D01*
X169630468Y-93437494D01*
X169610635Y-93210811D01*
X169610634Y-93210803D01*
X169551741Y-92991011D01*
X169551740Y-92991010D01*
X169551739Y-92991004D01*
X169455568Y-92784766D01*
X169325047Y-92598361D01*
X169164139Y-92437453D01*
X168977739Y-92306935D01*
X168977736Y-92306934D01*
X168977734Y-92306932D01*
X168771496Y-92210761D01*
X168771492Y-92210760D01*
X168771488Y-92210758D01*
X168551696Y-92151865D01*
X168551688Y-92151864D01*
X168325005Y-92132032D01*
X168324995Y-92132032D01*
X168098311Y-92151864D01*
X168098303Y-92151865D01*
X167878511Y-92210758D01*
X167878500Y-92210763D01*
X167672260Y-92306935D01*
X167485860Y-92437453D01*
X167324953Y-92598360D01*
X167194435Y-92784760D01*
X167194432Y-92784765D01*
X167194432Y-92784766D01*
X167110294Y-92965199D01*
X167098263Y-92991000D01*
X167098258Y-92991011D01*
X167039365Y-93210803D01*
X167039364Y-93210811D01*
X167019532Y-93437494D01*
X167019532Y-93437505D01*
X167039364Y-93664188D01*
X167039365Y-93664196D01*
X167098258Y-93883988D01*
X167098260Y-93883992D01*
X167098261Y-93883996D01*
X167194432Y-94090234D01*
X167194434Y-94090236D01*
X167194435Y-94090239D01*
X167324953Y-94276639D01*
X167336758Y-94288444D01*
X167358432Y-94340770D01*
X167338876Y-94390888D01*
X167216024Y-94524341D01*
X167216022Y-94524344D01*
X167089076Y-94718650D01*
X166995845Y-94931193D01*
X166995844Y-94931197D01*
X166995843Y-94931200D01*
X166995112Y-94934087D01*
X166938864Y-95156201D01*
X166919700Y-95387496D01*
X166919700Y-95387503D01*
X166938864Y-95618798D01*
X166938866Y-95618805D01*
X166995245Y-95841439D01*
X166995845Y-95843806D01*
X167078063Y-96031242D01*
X167089076Y-96056349D01*
X167216021Y-96250653D01*
X167368946Y-96416775D01*
X167373217Y-96421414D01*
X167414086Y-96453223D01*
X167556374Y-96563970D01*
X167741187Y-96663986D01*
X167753798Y-96670811D01*
X167760497Y-96674436D01*
X167980019Y-96749798D01*
X168208951Y-96788000D01*
X168441049Y-96788000D01*
X168669981Y-96749798D01*
X168889503Y-96674436D01*
X169093626Y-96563970D01*
X169276784Y-96421413D01*
X169433979Y-96250653D01*
X169560924Y-96056349D01*
X169654157Y-95843800D01*
X169654157Y-95843796D01*
X169655148Y-95840913D01*
X169656681Y-95841439D01*
X169687617Y-95799947D01*
X169743662Y-95791778D01*
X169789068Y-95825632D01*
X169799500Y-95863515D01*
X169799500Y-105511484D01*
X169777826Y-105563810D01*
X169725500Y-105585484D01*
X169673174Y-105563810D01*
X169656097Y-105533761D01*
X169655148Y-105534087D01*
X169654156Y-105531197D01*
X169613069Y-105437530D01*
X169560924Y-105318651D01*
X169433979Y-105124347D01*
X169276784Y-104953587D01*
X169276783Y-104953586D01*
X169276782Y-104953585D01*
X169169274Y-104869909D01*
X169093626Y-104811030D01*
X168966922Y-104742461D01*
X168889504Y-104700564D01*
X168784321Y-104664455D01*
X168669981Y-104625202D01*
X168669978Y-104625201D01*
X168669977Y-104625201D01*
X168441051Y-104587000D01*
X168441049Y-104587000D01*
X168208951Y-104587000D01*
X168208948Y-104587000D01*
X167980022Y-104625201D01*
X167760495Y-104700564D01*
X167556381Y-104811026D01*
X167556371Y-104811032D01*
X167373217Y-104953585D01*
X167216021Y-105124346D01*
X167089076Y-105318650D01*
X166995845Y-105531193D01*
X166995844Y-105531197D01*
X166995843Y-105531200D01*
X166995112Y-105534087D01*
X166938864Y-105756201D01*
X166919700Y-105987496D01*
X166919700Y-105987503D01*
X166938864Y-106218798D01*
X166938866Y-106218805D01*
X166995245Y-106441439D01*
X166995845Y-106443806D01*
X167089076Y-106656349D01*
X167216022Y-106850655D01*
X167216025Y-106850658D01*
X167277169Y-106917078D01*
X167338876Y-106984110D01*
X167358370Y-107037286D01*
X167336761Y-107086552D01*
X167324954Y-107098359D01*
X167194435Y-107284760D01*
X167098263Y-107491000D01*
X167098258Y-107491011D01*
X167039365Y-107710803D01*
X167039364Y-107710811D01*
X167019532Y-107937494D01*
X167019532Y-107937505D01*
X167039364Y-108164188D01*
X167039365Y-108164196D01*
X167098258Y-108383988D01*
X167098260Y-108383992D01*
X167098261Y-108383996D01*
X167194432Y-108590234D01*
X167194434Y-108590236D01*
X167194435Y-108590239D01*
X167324953Y-108776639D01*
X167485861Y-108937547D01*
X167672266Y-109068068D01*
X167878504Y-109164239D01*
X167878510Y-109164240D01*
X167878511Y-109164241D01*
X168098303Y-109223134D01*
X168098305Y-109223134D01*
X168098308Y-109223135D01*
X168183317Y-109230572D01*
X168324995Y-109242968D01*
X168325000Y-109242968D01*
X168325005Y-109242968D01*
X168450940Y-109231949D01*
X168551692Y-109223135D01*
X168771496Y-109164239D01*
X168977734Y-109068068D01*
X169164139Y-108937547D01*
X169325047Y-108776639D01*
X169455568Y-108590234D01*
X169551739Y-108383996D01*
X169610635Y-108164192D01*
X169630468Y-107937500D01*
X169630468Y-107937494D01*
X169610635Y-107710811D01*
X169610634Y-107710803D01*
X169551741Y-107491011D01*
X169551740Y-107491010D01*
X169551739Y-107491004D01*
X169455568Y-107284766D01*
X169325047Y-107098361D01*
X169313240Y-107086554D01*
X169291566Y-107034228D01*
X169311121Y-106984112D01*
X169400482Y-106887039D01*
X169433975Y-106850658D01*
X169433977Y-106850655D01*
X169433976Y-106850655D01*
X169433979Y-106850653D01*
X169560924Y-106656349D01*
X169654157Y-106443800D01*
X169654157Y-106443796D01*
X169655148Y-106440913D01*
X169656681Y-106441439D01*
X169687617Y-106399947D01*
X169743662Y-106391778D01*
X169789068Y-106425632D01*
X169799500Y-106463515D01*
X169799500Y-118145462D01*
X169777826Y-118197788D01*
X169735160Y-118218829D01*
X169647992Y-118230306D01*
X169647990Y-118230306D01*
X169647986Y-118230307D01*
X169544580Y-118258014D01*
X169420008Y-118291393D01*
X169201954Y-118381714D01*
X169201951Y-118381715D01*
X168997553Y-118499724D01*
X168997547Y-118499728D01*
X168810300Y-118643408D01*
X168643408Y-118810300D01*
X168499728Y-118997547D01*
X168499724Y-118997553D01*
X168381715Y-119201951D01*
X168381714Y-119201954D01*
X168291393Y-119420008D01*
X168230305Y-119647993D01*
X168218830Y-119735159D01*
X168190511Y-119784208D01*
X168145463Y-119799500D01*
X140917294Y-119799500D01*
X140864968Y-119777826D01*
X140843294Y-119725500D01*
X140864968Y-119673174D01*
X140888975Y-119657133D01*
X140991403Y-119614705D01*
X140991410Y-119614701D01*
X141212839Y-119479009D01*
X141212846Y-119479004D01*
X141219644Y-119473198D01*
X140564024Y-118817578D01*
X140595258Y-118804641D01*
X140718097Y-118722563D01*
X140822563Y-118618097D01*
X140904641Y-118495258D01*
X140917578Y-118464024D01*
X141573198Y-119119644D01*
X141579004Y-119112846D01*
X141579009Y-119112839D01*
X141714701Y-118891410D01*
X141714705Y-118891403D01*
X141814097Y-118651451D01*
X141874724Y-118398916D01*
X141895101Y-118140000D01*
X141874724Y-117881083D01*
X141814097Y-117628548D01*
X141714705Y-117388596D01*
X141714701Y-117388589D01*
X141579011Y-117167162D01*
X141579005Y-117167154D01*
X141573197Y-117160354D01*
X140917577Y-117815973D01*
X140904641Y-117784742D01*
X140822563Y-117661903D01*
X140718097Y-117557437D01*
X140595258Y-117475359D01*
X140564023Y-117462421D01*
X141219644Y-116806801D01*
X141212837Y-116800989D01*
X140991410Y-116665298D01*
X140991403Y-116665294D01*
X140751451Y-116565902D01*
X140498916Y-116505275D01*
X140240000Y-116484898D01*
X139981083Y-116505275D01*
X139728548Y-116565902D01*
X139488596Y-116665294D01*
X139488588Y-116665298D01*
X139267162Y-116800988D01*
X139260354Y-116806801D01*
X139915974Y-117462421D01*
X139884742Y-117475359D01*
X139761903Y-117557437D01*
X139657437Y-117661903D01*
X139575359Y-117784742D01*
X139562421Y-117815974D01*
X138970000Y-117223553D01*
X138377578Y-117815974D01*
X138364641Y-117784742D01*
X138282563Y-117661903D01*
X138178097Y-117557437D01*
X138055258Y-117475359D01*
X138024023Y-117462421D01*
X138679644Y-116806801D01*
X138672837Y-116800989D01*
X138451410Y-116665298D01*
X138451403Y-116665294D01*
X138211451Y-116565902D01*
X137958916Y-116505275D01*
X137700000Y-116484898D01*
X137441083Y-116505275D01*
X137188548Y-116565902D01*
X136948596Y-116665294D01*
X136948588Y-116665298D01*
X136727162Y-116800988D01*
X136720354Y-116806801D01*
X137375974Y-117462421D01*
X137344742Y-117475359D01*
X137221903Y-117557437D01*
X137117437Y-117661903D01*
X137035359Y-117784742D01*
X137022421Y-117815974D01*
X136430000Y-117223553D01*
X135837578Y-117815974D01*
X135824641Y-117784742D01*
X135742563Y-117661903D01*
X135638097Y-117557437D01*
X135515258Y-117475359D01*
X135484023Y-117462421D01*
X136139644Y-116806801D01*
X136132837Y-116800989D01*
X135911410Y-116665298D01*
X135911403Y-116665294D01*
X135671451Y-116565902D01*
X135418916Y-116505275D01*
X135160000Y-116484898D01*
X134901083Y-116505275D01*
X134648548Y-116565902D01*
X134408596Y-116665294D01*
X134408588Y-116665298D01*
X134187162Y-116800988D01*
X134180354Y-116806801D01*
X134835974Y-117462421D01*
X134804742Y-117475359D01*
X134681903Y-117557437D01*
X134577437Y-117661903D01*
X134495359Y-117784742D01*
X134482421Y-117815974D01*
X133826801Y-117160354D01*
X133820988Y-117167162D01*
X133685298Y-117388588D01*
X133685294Y-117388596D01*
X133585902Y-117628548D01*
X133525275Y-117881083D01*
X133504898Y-118140000D01*
X133525275Y-118398916D01*
X133585902Y-118651451D01*
X133685294Y-118891403D01*
X133685298Y-118891410D01*
X133820989Y-119112837D01*
X133826801Y-119119644D01*
X134482421Y-118464023D01*
X134495359Y-118495258D01*
X134577437Y-118618097D01*
X134681903Y-118722563D01*
X134804742Y-118804641D01*
X134835974Y-118817577D01*
X134180354Y-119473197D01*
X134187154Y-119479005D01*
X134187162Y-119479011D01*
X134408589Y-119614701D01*
X134408596Y-119614705D01*
X134511025Y-119657133D01*
X134551073Y-119697182D01*
X134551073Y-119753819D01*
X134511024Y-119793867D01*
X134482706Y-119799500D01*
X131854537Y-119799500D01*
X131802211Y-119777826D01*
X131781170Y-119735159D01*
X131769694Y-119647993D01*
X131769693Y-119647992D01*
X131769693Y-119647986D01*
X131708606Y-119420007D01*
X131618284Y-119201951D01*
X131534277Y-119056447D01*
X131500275Y-118997553D01*
X131500271Y-118997547D01*
X131356591Y-118810300D01*
X131189699Y-118643408D01*
X131002452Y-118499728D01*
X131002446Y-118499724D01*
X130798048Y-118381715D01*
X130798045Y-118381714D01*
X130579991Y-118291393D01*
X130501015Y-118270232D01*
X130352014Y-118230307D01*
X130352007Y-118230306D01*
X130264840Y-118218829D01*
X130215791Y-118190510D01*
X130200500Y-118145462D01*
X130200500Y-116400000D01*
X147969909Y-116400000D01*
X147988214Y-116562461D01*
X147988216Y-116562469D01*
X148042211Y-116716776D01*
X148129188Y-116855199D01*
X148129190Y-116855201D01*
X148129192Y-116855204D01*
X148244796Y-116970808D01*
X148244798Y-116970809D01*
X148244800Y-116970811D01*
X148383223Y-117057788D01*
X148383225Y-117057789D01*
X148537539Y-117111786D01*
X148700000Y-117130091D01*
X148862461Y-117111786D01*
X149016775Y-117057789D01*
X149155204Y-116970808D01*
X149270808Y-116855204D01*
X149357789Y-116716775D01*
X149411786Y-116562461D01*
X149430091Y-116400000D01*
X149669909Y-116400000D01*
X149688214Y-116562461D01*
X149688216Y-116562469D01*
X149742211Y-116716776D01*
X149829188Y-116855199D01*
X149829190Y-116855201D01*
X149829192Y-116855204D01*
X149944796Y-116970808D01*
X149944798Y-116970809D01*
X149944800Y-116970811D01*
X150083223Y-117057788D01*
X150083225Y-117057789D01*
X150237539Y-117111786D01*
X150400000Y-117130091D01*
X150562461Y-117111786D01*
X150716775Y-117057789D01*
X150855204Y-116970808D01*
X150970808Y-116855204D01*
X151057789Y-116716775D01*
X151111786Y-116562461D01*
X151130091Y-116400000D01*
X151111786Y-116237539D01*
X151057789Y-116083225D01*
X150970808Y-115944796D01*
X150855204Y-115829192D01*
X150855201Y-115829190D01*
X150855199Y-115829188D01*
X150716776Y-115742211D01*
X150562469Y-115688216D01*
X150562461Y-115688214D01*
X150400000Y-115669909D01*
X150237538Y-115688214D01*
X150237530Y-115688216D01*
X150083223Y-115742211D01*
X149944800Y-115829188D01*
X149829188Y-115944800D01*
X149742211Y-116083223D01*
X149688216Y-116237530D01*
X149688214Y-116237538D01*
X149669909Y-116400000D01*
X149430091Y-116400000D01*
X149411786Y-116237539D01*
X149357789Y-116083225D01*
X149270808Y-115944796D01*
X149155204Y-115829192D01*
X149155201Y-115829190D01*
X149155199Y-115829188D01*
X149016776Y-115742211D01*
X148862469Y-115688216D01*
X148862461Y-115688214D01*
X148700000Y-115669909D01*
X148537538Y-115688214D01*
X148537530Y-115688216D01*
X148383223Y-115742211D01*
X148244800Y-115829188D01*
X148129188Y-115944800D01*
X148042211Y-116083223D01*
X147988216Y-116237530D01*
X147988214Y-116237538D01*
X147969909Y-116400000D01*
X130200500Y-116400000D01*
X130200500Y-113060000D01*
X133504898Y-113060000D01*
X133525275Y-113318916D01*
X133585902Y-113571451D01*
X133685294Y-113811403D01*
X133685298Y-113811410D01*
X133820989Y-114032837D01*
X133826801Y-114039644D01*
X134482421Y-113384023D01*
X134495359Y-113415258D01*
X134577437Y-113538097D01*
X134681903Y-113642563D01*
X134804742Y-113724641D01*
X134835974Y-113737577D01*
X134180354Y-114393197D01*
X134187154Y-114399005D01*
X134187162Y-114399011D01*
X134408589Y-114534701D01*
X134408596Y-114534705D01*
X134648548Y-114634097D01*
X134901083Y-114694724D01*
X135160000Y-114715101D01*
X135418916Y-114694724D01*
X135671451Y-114634097D01*
X135911403Y-114534705D01*
X135911410Y-114534701D01*
X136132839Y-114399009D01*
X136132846Y-114399004D01*
X136139644Y-114393198D01*
X135484024Y-113737578D01*
X135515258Y-113724641D01*
X135638097Y-113642563D01*
X135742563Y-113538097D01*
X135824641Y-113415258D01*
X135837578Y-113384025D01*
X136430000Y-113976447D01*
X137022421Y-113384025D01*
X137035359Y-113415258D01*
X137117437Y-113538097D01*
X137221903Y-113642563D01*
X137344742Y-113724641D01*
X137375974Y-113737577D01*
X136720354Y-114393197D01*
X136727154Y-114399005D01*
X136727162Y-114399011D01*
X136948589Y-114534701D01*
X136948596Y-114534705D01*
X137188548Y-114634097D01*
X137441083Y-114694724D01*
X137700000Y-114715101D01*
X137958916Y-114694724D01*
X138211451Y-114634097D01*
X138451403Y-114534705D01*
X138451410Y-114534701D01*
X138672839Y-114399009D01*
X138672846Y-114399004D01*
X138679644Y-114393198D01*
X138024024Y-113737578D01*
X138055258Y-113724641D01*
X138178097Y-113642563D01*
X138282563Y-113538097D01*
X138364641Y-113415258D01*
X138377578Y-113384025D01*
X138970000Y-113976447D01*
X139562421Y-113384025D01*
X139575359Y-113415258D01*
X139657437Y-113538097D01*
X139761903Y-113642563D01*
X139884742Y-113724641D01*
X139915974Y-113737577D01*
X139260354Y-114393197D01*
X139267154Y-114399005D01*
X139267162Y-114399011D01*
X139488589Y-114534701D01*
X139488596Y-114534705D01*
X139728548Y-114634097D01*
X139981083Y-114694724D01*
X140240000Y-114715101D01*
X140431878Y-114700000D01*
X147969909Y-114700000D01*
X147988214Y-114862461D01*
X147988216Y-114862469D01*
X148042211Y-115016776D01*
X148129188Y-115155199D01*
X148129190Y-115155201D01*
X148129192Y-115155204D01*
X148244796Y-115270808D01*
X148244798Y-115270809D01*
X148244800Y-115270811D01*
X148383223Y-115357788D01*
X148383225Y-115357789D01*
X148472046Y-115388869D01*
X148494834Y-115396843D01*
X148537539Y-115411786D01*
X148700000Y-115430091D01*
X148862461Y-115411786D01*
X149016775Y-115357789D01*
X149155204Y-115270808D01*
X149270808Y-115155204D01*
X149357789Y-115016775D01*
X149411786Y-114862461D01*
X149430091Y-114700000D01*
X149669909Y-114700000D01*
X149688214Y-114862461D01*
X149688216Y-114862469D01*
X149742211Y-115016776D01*
X149829188Y-115155199D01*
X149829190Y-115155201D01*
X149829192Y-115155204D01*
X149944796Y-115270808D01*
X149944798Y-115270809D01*
X149944800Y-115270811D01*
X150083223Y-115357788D01*
X150083225Y-115357789D01*
X150172046Y-115388869D01*
X150194834Y-115396843D01*
X150237539Y-115411786D01*
X150400000Y-115430091D01*
X150562461Y-115411786D01*
X150716775Y-115357789D01*
X150855204Y-115270808D01*
X150970808Y-115155204D01*
X151057789Y-115016775D01*
X151111786Y-114862461D01*
X151130091Y-114700000D01*
X151111786Y-114537539D01*
X151109179Y-114530090D01*
X151087239Y-114467389D01*
X151057789Y-114383225D01*
X150970808Y-114244796D01*
X150855204Y-114129192D01*
X150855201Y-114129190D01*
X150855199Y-114129188D01*
X150716776Y-114042211D01*
X150562469Y-113988216D01*
X150562461Y-113988214D01*
X150400000Y-113969909D01*
X150237538Y-113988214D01*
X150237530Y-113988216D01*
X150083223Y-114042211D01*
X149944800Y-114129188D01*
X149829188Y-114244800D01*
X149742211Y-114383223D01*
X149688216Y-114537530D01*
X149688214Y-114537538D01*
X149669909Y-114700000D01*
X149430091Y-114700000D01*
X149411786Y-114537539D01*
X149409179Y-114530090D01*
X149387239Y-114467389D01*
X149357789Y-114383225D01*
X149270808Y-114244796D01*
X149155204Y-114129192D01*
X149155201Y-114129190D01*
X149155199Y-114129188D01*
X149016776Y-114042211D01*
X148862469Y-113988216D01*
X148862461Y-113988214D01*
X148700000Y-113969909D01*
X148537538Y-113988214D01*
X148537530Y-113988216D01*
X148383223Y-114042211D01*
X148244800Y-114129188D01*
X148129188Y-114244800D01*
X148042211Y-114383223D01*
X147988216Y-114537530D01*
X147988214Y-114537538D01*
X147969909Y-114700000D01*
X140431878Y-114700000D01*
X140498916Y-114694724D01*
X140751451Y-114634097D01*
X140991403Y-114534705D01*
X140991410Y-114534701D01*
X141212839Y-114399009D01*
X141212846Y-114399004D01*
X141219644Y-114393198D01*
X140564024Y-113737578D01*
X140595258Y-113724641D01*
X140718097Y-113642563D01*
X140822563Y-113538097D01*
X140904641Y-113415258D01*
X140917578Y-113384024D01*
X141573198Y-114039644D01*
X141579004Y-114032846D01*
X141579009Y-114032839D01*
X141714701Y-113811410D01*
X141714705Y-113811403D01*
X141814097Y-113571451D01*
X141874724Y-113318916D01*
X141895101Y-113060000D01*
X141890379Y-113000000D01*
X147969909Y-113000000D01*
X147988214Y-113162461D01*
X147988216Y-113162469D01*
X148042211Y-113316776D01*
X148129188Y-113455199D01*
X148129190Y-113455201D01*
X148129192Y-113455204D01*
X148244796Y-113570808D01*
X148244798Y-113570809D01*
X148244800Y-113570811D01*
X148331290Y-113625156D01*
X148383225Y-113657789D01*
X148537539Y-113711786D01*
X148700000Y-113730091D01*
X148862461Y-113711786D01*
X149016775Y-113657789D01*
X149155204Y-113570808D01*
X149270808Y-113455204D01*
X149357789Y-113316775D01*
X149411786Y-113162461D01*
X149430091Y-113000000D01*
X149669909Y-113000000D01*
X149688214Y-113162461D01*
X149688216Y-113162469D01*
X149742211Y-113316776D01*
X149829188Y-113455199D01*
X149829190Y-113455201D01*
X149829192Y-113455204D01*
X149944796Y-113570808D01*
X149944798Y-113570809D01*
X149944800Y-113570811D01*
X150031290Y-113625156D01*
X150083225Y-113657789D01*
X150237539Y-113711786D01*
X150400000Y-113730091D01*
X150562461Y-113711786D01*
X150716775Y-113657789D01*
X150855204Y-113570808D01*
X150970808Y-113455204D01*
X151057789Y-113316775D01*
X151111786Y-113162461D01*
X151130091Y-113000000D01*
X151369909Y-113000000D01*
X151388214Y-113162461D01*
X151388216Y-113162469D01*
X151442211Y-113316776D01*
X151529188Y-113455199D01*
X151529190Y-113455201D01*
X151529192Y-113455204D01*
X151644796Y-113570808D01*
X151644798Y-113570809D01*
X151644800Y-113570811D01*
X151731290Y-113625156D01*
X151783225Y-113657789D01*
X151937539Y-113711786D01*
X152100000Y-113730091D01*
X152262461Y-113711786D01*
X152416775Y-113657789D01*
X152468710Y-113625156D01*
X152524547Y-113615668D01*
X152570738Y-113648442D01*
X152581616Y-113696098D01*
X152569909Y-113799999D01*
X152588214Y-113962461D01*
X152588217Y-113962472D01*
X152602453Y-114003156D01*
X152599278Y-114059704D01*
X152557046Y-114097443D01*
X152500498Y-114094268D01*
X152493236Y-114090254D01*
X152416775Y-114042210D01*
X152262469Y-113988216D01*
X152262461Y-113988214D01*
X152100000Y-113969909D01*
X151937538Y-113988214D01*
X151937530Y-113988216D01*
X151783223Y-114042211D01*
X151644800Y-114129188D01*
X151529188Y-114244800D01*
X151442211Y-114383223D01*
X151388216Y-114537530D01*
X151388214Y-114537538D01*
X151369909Y-114700000D01*
X151388214Y-114862461D01*
X151388216Y-114862469D01*
X151442211Y-115016776D01*
X151529188Y-115155199D01*
X151529190Y-115155201D01*
X151529192Y-115155204D01*
X151644796Y-115270808D01*
X151644798Y-115270809D01*
X151644800Y-115270811D01*
X151783223Y-115357788D01*
X151783225Y-115357789D01*
X151872046Y-115388869D01*
X151894834Y-115396843D01*
X151937539Y-115411786D01*
X152100000Y-115430091D01*
X152262461Y-115411786D01*
X152416775Y-115357789D01*
X152493235Y-115309746D01*
X152549072Y-115300258D01*
X152595263Y-115333032D01*
X152604751Y-115388869D01*
X152602454Y-115396843D01*
X152588215Y-115437535D01*
X152588214Y-115437538D01*
X152569909Y-115599999D01*
X152569909Y-115600000D01*
X152579848Y-115688215D01*
X152581616Y-115703901D01*
X152565937Y-115758324D01*
X152516366Y-115785721D01*
X152468711Y-115774844D01*
X152416775Y-115742210D01*
X152262469Y-115688216D01*
X152262461Y-115688214D01*
X152100000Y-115669909D01*
X151937538Y-115688214D01*
X151937530Y-115688216D01*
X151783223Y-115742211D01*
X151644800Y-115829188D01*
X151529188Y-115944800D01*
X151442211Y-116083223D01*
X151388216Y-116237530D01*
X151388214Y-116237538D01*
X151369909Y-116400000D01*
X151388214Y-116562461D01*
X151388216Y-116562469D01*
X151442211Y-116716776D01*
X151529188Y-116855199D01*
X151529190Y-116855201D01*
X151529192Y-116855204D01*
X151644796Y-116970808D01*
X151644798Y-116970809D01*
X151644800Y-116970811D01*
X151783223Y-117057788D01*
X151783225Y-117057789D01*
X151937539Y-117111786D01*
X152100000Y-117130091D01*
X152262461Y-117111786D01*
X152416775Y-117057789D01*
X152555204Y-116970808D01*
X152670808Y-116855204D01*
X152757789Y-116716775D01*
X152811786Y-116562461D01*
X152830091Y-116400000D01*
X152818383Y-116296096D01*
X152834062Y-116241675D01*
X152883632Y-116214278D01*
X152931289Y-116225156D01*
X152983223Y-116257788D01*
X152983225Y-116257789D01*
X153137539Y-116311786D01*
X153300000Y-116330091D01*
X153462461Y-116311786D01*
X153577609Y-116271494D01*
X153634157Y-116274669D01*
X153671897Y-116316900D01*
X153675585Y-116349626D01*
X153669909Y-116399999D01*
X153688214Y-116562461D01*
X153688216Y-116562469D01*
X153742211Y-116716776D01*
X153829188Y-116855199D01*
X153829190Y-116855201D01*
X153829192Y-116855204D01*
X153944796Y-116970808D01*
X153944798Y-116970809D01*
X153944800Y-116970811D01*
X154083223Y-117057788D01*
X154083225Y-117057789D01*
X154237539Y-117111786D01*
X154400000Y-117130091D01*
X154562461Y-117111786D01*
X154716775Y-117057789D01*
X154855204Y-116970808D01*
X154970808Y-116855204D01*
X155057789Y-116716775D01*
X155111786Y-116562461D01*
X155130091Y-116400000D01*
X155369909Y-116400000D01*
X155388214Y-116562461D01*
X155388216Y-116562469D01*
X155442211Y-116716776D01*
X155529188Y-116855199D01*
X155529190Y-116855201D01*
X155529192Y-116855204D01*
X155644796Y-116970808D01*
X155644798Y-116970809D01*
X155644800Y-116970811D01*
X155783223Y-117057788D01*
X155783225Y-117057789D01*
X155937539Y-117111786D01*
X156100000Y-117130091D01*
X156262461Y-117111786D01*
X156416775Y-117057789D01*
X156555204Y-116970808D01*
X156670808Y-116855204D01*
X156757789Y-116716775D01*
X156811786Y-116562461D01*
X156830091Y-116400000D01*
X157069909Y-116400000D01*
X157088214Y-116562461D01*
X157088216Y-116562469D01*
X157142211Y-116716776D01*
X157229188Y-116855199D01*
X157229190Y-116855201D01*
X157229192Y-116855204D01*
X157344796Y-116970808D01*
X157344798Y-116970809D01*
X157344800Y-116970811D01*
X157483223Y-117057788D01*
X157483225Y-117057789D01*
X157637539Y-117111786D01*
X157800000Y-117130091D01*
X157962461Y-117111786D01*
X158116775Y-117057789D01*
X158255204Y-116970808D01*
X158370808Y-116855204D01*
X158457789Y-116716775D01*
X158511786Y-116562461D01*
X158530091Y-116400000D01*
X158511786Y-116237539D01*
X158457789Y-116083225D01*
X158370808Y-115944796D01*
X158255204Y-115829192D01*
X158255201Y-115829190D01*
X158255199Y-115829188D01*
X158116776Y-115742211D01*
X157962469Y-115688216D01*
X157962461Y-115688214D01*
X157800000Y-115669909D01*
X157637538Y-115688214D01*
X157637530Y-115688216D01*
X157483223Y-115742211D01*
X157344800Y-115829188D01*
X157229188Y-115944800D01*
X157142211Y-116083223D01*
X157088216Y-116237530D01*
X157088214Y-116237538D01*
X157069909Y-116400000D01*
X156830091Y-116400000D01*
X156811786Y-116237539D01*
X156757789Y-116083225D01*
X156670808Y-115944796D01*
X156555204Y-115829192D01*
X156555201Y-115829190D01*
X156555199Y-115829188D01*
X156416776Y-115742211D01*
X156262469Y-115688216D01*
X156262461Y-115688214D01*
X156100000Y-115669909D01*
X155937538Y-115688214D01*
X155937530Y-115688216D01*
X155783223Y-115742211D01*
X155644800Y-115829188D01*
X155529188Y-115944800D01*
X155442211Y-116083223D01*
X155388216Y-116237530D01*
X155388214Y-116237538D01*
X155369909Y-116400000D01*
X155130091Y-116400000D01*
X155111786Y-116237539D01*
X155057789Y-116083225D01*
X154970808Y-115944796D01*
X154855204Y-115829192D01*
X154855201Y-115829190D01*
X154855199Y-115829188D01*
X154716776Y-115742211D01*
X154562469Y-115688216D01*
X154562461Y-115688214D01*
X154400000Y-115669909D01*
X154237538Y-115688214D01*
X154237535Y-115688215D01*
X154122389Y-115728506D01*
X154065841Y-115725329D01*
X154028101Y-115683098D01*
X154024414Y-115650377D01*
X154030091Y-115600000D01*
X154012685Y-115445518D01*
X154028363Y-115391098D01*
X154077933Y-115363701D01*
X154110660Y-115367389D01*
X154237539Y-115411786D01*
X154400000Y-115430091D01*
X154562461Y-115411786D01*
X154716775Y-115357789D01*
X154855204Y-115270808D01*
X154970808Y-115155204D01*
X155057789Y-115016775D01*
X155111786Y-114862461D01*
X155130091Y-114700000D01*
X155369909Y-114700000D01*
X155388214Y-114862461D01*
X155388216Y-114862469D01*
X155442211Y-115016776D01*
X155529188Y-115155199D01*
X155529190Y-115155201D01*
X155529192Y-115155204D01*
X155644796Y-115270808D01*
X155644798Y-115270809D01*
X155644800Y-115270811D01*
X155783223Y-115357788D01*
X155783225Y-115357789D01*
X155872046Y-115388869D01*
X155894834Y-115396843D01*
X155937539Y-115411786D01*
X156100000Y-115430091D01*
X156262461Y-115411786D01*
X156416775Y-115357789D01*
X156555204Y-115270808D01*
X156670808Y-115155204D01*
X156757789Y-115016775D01*
X156811786Y-114862461D01*
X156830091Y-114700000D01*
X157069909Y-114700000D01*
X157088214Y-114862461D01*
X157088216Y-114862469D01*
X157142211Y-115016776D01*
X157229188Y-115155199D01*
X157229190Y-115155201D01*
X157229192Y-115155204D01*
X157344796Y-115270808D01*
X157344798Y-115270809D01*
X157344800Y-115270811D01*
X157483223Y-115357788D01*
X157483225Y-115357789D01*
X157572046Y-115388869D01*
X157594834Y-115396843D01*
X157637539Y-115411786D01*
X157800000Y-115430091D01*
X157962461Y-115411786D01*
X158116775Y-115357789D01*
X158255204Y-115270808D01*
X158370808Y-115155204D01*
X158457789Y-115016775D01*
X158511786Y-114862461D01*
X158530091Y-114700000D01*
X158511786Y-114537539D01*
X158509179Y-114530090D01*
X158487239Y-114467389D01*
X158457789Y-114383225D01*
X158370808Y-114244796D01*
X158255204Y-114129192D01*
X158255201Y-114129190D01*
X158255199Y-114129188D01*
X158116776Y-114042211D01*
X157962469Y-113988216D01*
X157962461Y-113988214D01*
X157800000Y-113969909D01*
X157637538Y-113988214D01*
X157637530Y-113988216D01*
X157483223Y-114042211D01*
X157344800Y-114129188D01*
X157229188Y-114244800D01*
X157142211Y-114383223D01*
X157088216Y-114537530D01*
X157088214Y-114537538D01*
X157069909Y-114700000D01*
X156830091Y-114700000D01*
X156811786Y-114537539D01*
X156809179Y-114530090D01*
X156787239Y-114467389D01*
X156757789Y-114383225D01*
X156670808Y-114244796D01*
X156555204Y-114129192D01*
X156555201Y-114129190D01*
X156555199Y-114129188D01*
X156416776Y-114042211D01*
X156262469Y-113988216D01*
X156262461Y-113988214D01*
X156100000Y-113969909D01*
X155937538Y-113988214D01*
X155937530Y-113988216D01*
X155783223Y-114042211D01*
X155644800Y-114129188D01*
X155529188Y-114244800D01*
X155442211Y-114383223D01*
X155388216Y-114537530D01*
X155388214Y-114537538D01*
X155369909Y-114700000D01*
X155130091Y-114700000D01*
X155111786Y-114537539D01*
X155109179Y-114530090D01*
X155087239Y-114467389D01*
X155057789Y-114383225D01*
X154970808Y-114244796D01*
X154855204Y-114129192D01*
X154855201Y-114129190D01*
X154855199Y-114129188D01*
X154716776Y-114042211D01*
X154562469Y-113988216D01*
X154562461Y-113988214D01*
X154400000Y-113969909D01*
X154237538Y-113988214D01*
X154237527Y-113988217D01*
X154110659Y-114032610D01*
X154054111Y-114029435D01*
X154016372Y-113987203D01*
X154012684Y-113954484D01*
X154030091Y-113800000D01*
X154024415Y-113749624D01*
X154040093Y-113695204D01*
X154089662Y-113667806D01*
X154122390Y-113671494D01*
X154192705Y-113696098D01*
X154237539Y-113711786D01*
X154400000Y-113730091D01*
X154562461Y-113711786D01*
X154716775Y-113657789D01*
X154855204Y-113570808D01*
X154970808Y-113455204D01*
X155057789Y-113316775D01*
X155111786Y-113162461D01*
X155130091Y-113000000D01*
X155369909Y-113000000D01*
X155388214Y-113162461D01*
X155388216Y-113162469D01*
X155442211Y-113316776D01*
X155529188Y-113455199D01*
X155529190Y-113455201D01*
X155529192Y-113455204D01*
X155644796Y-113570808D01*
X155644798Y-113570809D01*
X155644800Y-113570811D01*
X155731290Y-113625156D01*
X155783225Y-113657789D01*
X155937539Y-113711786D01*
X156100000Y-113730091D01*
X156262461Y-113711786D01*
X156416775Y-113657789D01*
X156555204Y-113570808D01*
X156670808Y-113455204D01*
X156757789Y-113316775D01*
X156811786Y-113162461D01*
X156830091Y-113000000D01*
X157069909Y-113000000D01*
X157088214Y-113162461D01*
X157088216Y-113162469D01*
X157142211Y-113316776D01*
X157229188Y-113455199D01*
X157229190Y-113455201D01*
X157229192Y-113455204D01*
X157344796Y-113570808D01*
X157344798Y-113570809D01*
X157344800Y-113570811D01*
X157431290Y-113625156D01*
X157483225Y-113657789D01*
X157637539Y-113711786D01*
X157800000Y-113730091D01*
X157962461Y-113711786D01*
X158116775Y-113657789D01*
X158255204Y-113570808D01*
X158370808Y-113455204D01*
X158457789Y-113316775D01*
X158511786Y-113162461D01*
X158530091Y-113000000D01*
X158511786Y-112837539D01*
X158457789Y-112683225D01*
X158370808Y-112544796D01*
X158255204Y-112429192D01*
X158255201Y-112429190D01*
X158255199Y-112429188D01*
X158116776Y-112342211D01*
X157962469Y-112288216D01*
X157962461Y-112288214D01*
X157800000Y-112269909D01*
X157637538Y-112288214D01*
X157637530Y-112288216D01*
X157483223Y-112342211D01*
X157344800Y-112429188D01*
X157229188Y-112544800D01*
X157142211Y-112683223D01*
X157088216Y-112837530D01*
X157088214Y-112837538D01*
X157069909Y-113000000D01*
X156830091Y-113000000D01*
X156811786Y-112837539D01*
X156757789Y-112683225D01*
X156670808Y-112544796D01*
X156555204Y-112429192D01*
X156555201Y-112429190D01*
X156555199Y-112429188D01*
X156416776Y-112342211D01*
X156262469Y-112288216D01*
X156262461Y-112288214D01*
X156100000Y-112269909D01*
X155937538Y-112288214D01*
X155937530Y-112288216D01*
X155783223Y-112342211D01*
X155644800Y-112429188D01*
X155529188Y-112544800D01*
X155442211Y-112683223D01*
X155388216Y-112837530D01*
X155388214Y-112837538D01*
X155369909Y-113000000D01*
X155130091Y-113000000D01*
X155111786Y-112837539D01*
X155057789Y-112683225D01*
X154970808Y-112544796D01*
X154855204Y-112429192D01*
X154855201Y-112429190D01*
X154855199Y-112429188D01*
X154716776Y-112342211D01*
X154562469Y-112288216D01*
X154562461Y-112288214D01*
X154400000Y-112269909D01*
X154237538Y-112288214D01*
X154237530Y-112288216D01*
X154083223Y-112342211D01*
X153944800Y-112429188D01*
X153829188Y-112544800D01*
X153742211Y-112683223D01*
X153688216Y-112837530D01*
X153688214Y-112837538D01*
X153669909Y-113000000D01*
X153675585Y-113050372D01*
X153659906Y-113104796D01*
X153610336Y-113132193D01*
X153577610Y-113128506D01*
X153504398Y-113102888D01*
X153462461Y-113088214D01*
X153300000Y-113069909D01*
X153137538Y-113088214D01*
X153137530Y-113088216D01*
X152983224Y-113142210D01*
X152931288Y-113174844D01*
X152875451Y-113184331D01*
X152829260Y-113151556D01*
X152818383Y-113103903D01*
X152830091Y-113000000D01*
X152811786Y-112837539D01*
X152757789Y-112683225D01*
X152670808Y-112544796D01*
X152555204Y-112429192D01*
X152555201Y-112429190D01*
X152555199Y-112429188D01*
X152416776Y-112342211D01*
X152262469Y-112288216D01*
X152262461Y-112288214D01*
X152100000Y-112269909D01*
X151937538Y-112288214D01*
X151937530Y-112288216D01*
X151783223Y-112342211D01*
X151644800Y-112429188D01*
X151529188Y-112544800D01*
X151442211Y-112683223D01*
X151388216Y-112837530D01*
X151388214Y-112837538D01*
X151369909Y-113000000D01*
X151130091Y-113000000D01*
X151111786Y-112837539D01*
X151057789Y-112683225D01*
X150970808Y-112544796D01*
X150855204Y-112429192D01*
X150855201Y-112429190D01*
X150855199Y-112429188D01*
X150716776Y-112342211D01*
X150562469Y-112288216D01*
X150562461Y-112288214D01*
X150400000Y-112269909D01*
X150237538Y-112288214D01*
X150237530Y-112288216D01*
X150083223Y-112342211D01*
X149944800Y-112429188D01*
X149829188Y-112544800D01*
X149742211Y-112683223D01*
X149688216Y-112837530D01*
X149688214Y-112837538D01*
X149669909Y-113000000D01*
X149430091Y-113000000D01*
X149411786Y-112837539D01*
X149357789Y-112683225D01*
X149270808Y-112544796D01*
X149155204Y-112429192D01*
X149155201Y-112429190D01*
X149155199Y-112429188D01*
X149016776Y-112342211D01*
X148862469Y-112288216D01*
X148862461Y-112288214D01*
X148700000Y-112269909D01*
X148537538Y-112288214D01*
X148537530Y-112288216D01*
X148383223Y-112342211D01*
X148244800Y-112429188D01*
X148129188Y-112544800D01*
X148042211Y-112683223D01*
X147988216Y-112837530D01*
X147988214Y-112837538D01*
X147969909Y-113000000D01*
X141890379Y-113000000D01*
X141874724Y-112801083D01*
X141814097Y-112548548D01*
X141714705Y-112308596D01*
X141714701Y-112308589D01*
X141579011Y-112087162D01*
X141579005Y-112087154D01*
X141573197Y-112080354D01*
X140917577Y-112735973D01*
X140904641Y-112704742D01*
X140822563Y-112581903D01*
X140718097Y-112477437D01*
X140595258Y-112395359D01*
X140564023Y-112382421D01*
X141219644Y-111726801D01*
X141212837Y-111720989D01*
X140991410Y-111585298D01*
X140991403Y-111585294D01*
X140751451Y-111485902D01*
X140498916Y-111425275D01*
X140240000Y-111404898D01*
X139981083Y-111425275D01*
X139728548Y-111485902D01*
X139488596Y-111585294D01*
X139488588Y-111585298D01*
X139267162Y-111720988D01*
X139260354Y-111726801D01*
X139915974Y-112382421D01*
X139884742Y-112395359D01*
X139761903Y-112477437D01*
X139657437Y-112581903D01*
X139575359Y-112704742D01*
X139562421Y-112735974D01*
X138970000Y-112143553D01*
X138377578Y-112735974D01*
X138364641Y-112704742D01*
X138282563Y-112581903D01*
X138178097Y-112477437D01*
X138055258Y-112395359D01*
X138024023Y-112382421D01*
X138679644Y-111726801D01*
X138672837Y-111720989D01*
X138451410Y-111585298D01*
X138451403Y-111585294D01*
X138211451Y-111485902D01*
X137958916Y-111425275D01*
X137700000Y-111404898D01*
X137441083Y-111425275D01*
X137188548Y-111485902D01*
X136948596Y-111585294D01*
X136948588Y-111585298D01*
X136727162Y-111720988D01*
X136720354Y-111726801D01*
X137375974Y-112382421D01*
X137344742Y-112395359D01*
X137221903Y-112477437D01*
X137117437Y-112581903D01*
X137035359Y-112704742D01*
X137022421Y-112735974D01*
X136430000Y-112143553D01*
X135837578Y-112735974D01*
X135824641Y-112704742D01*
X135742563Y-112581903D01*
X135638097Y-112477437D01*
X135515258Y-112395359D01*
X135484023Y-112382421D01*
X136139644Y-111726801D01*
X136132837Y-111720989D01*
X135911410Y-111585298D01*
X135911403Y-111585294D01*
X135671451Y-111485902D01*
X135418916Y-111425275D01*
X135160000Y-111404898D01*
X134901083Y-111425275D01*
X134648548Y-111485902D01*
X134408596Y-111585294D01*
X134408588Y-111585298D01*
X134187162Y-111720988D01*
X134180354Y-111726801D01*
X134835974Y-112382421D01*
X134804742Y-112395359D01*
X134681903Y-112477437D01*
X134577437Y-112581903D01*
X134495359Y-112704742D01*
X134482421Y-112735974D01*
X133826801Y-112080354D01*
X133820988Y-112087162D01*
X133685298Y-112308588D01*
X133685294Y-112308596D01*
X133585902Y-112548548D01*
X133525275Y-112801083D01*
X133504898Y-113060000D01*
X130200500Y-113060000D01*
X130200500Y-105600000D01*
X136699909Y-105600000D01*
X136718214Y-105762461D01*
X136718216Y-105762469D01*
X136772211Y-105916776D01*
X136859188Y-106055199D01*
X136859190Y-106055201D01*
X136859192Y-106055204D01*
X136974796Y-106170808D01*
X136974798Y-106170809D01*
X136974800Y-106170811D01*
X137113223Y-106257788D01*
X137113225Y-106257789D01*
X137216285Y-106293851D01*
X137241172Y-106302560D01*
X137267539Y-106311786D01*
X137430000Y-106330091D01*
X137592461Y-106311786D01*
X137746775Y-106257789D01*
X137885204Y-106170808D01*
X138000808Y-106055204D01*
X138087789Y-105916775D01*
X138141786Y-105762461D01*
X138160091Y-105600000D01*
X139194909Y-105600000D01*
X139213214Y-105762461D01*
X139213216Y-105762469D01*
X139267211Y-105916776D01*
X139354188Y-106055199D01*
X139354190Y-106055201D01*
X139354192Y-106055204D01*
X139469796Y-106170808D01*
X139469798Y-106170809D01*
X139469800Y-106170811D01*
X139608223Y-106257788D01*
X139608225Y-106257789D01*
X139711285Y-106293851D01*
X139736172Y-106302560D01*
X139762539Y-106311786D01*
X139925000Y-106330091D01*
X140087461Y-106311786D01*
X140241775Y-106257789D01*
X140380204Y-106170808D01*
X140495808Y-106055204D01*
X140538352Y-105987496D01*
X158469700Y-105987496D01*
X158469700Y-105987503D01*
X158488864Y-106218798D01*
X158488866Y-106218805D01*
X158545245Y-106441439D01*
X158545845Y-106443806D01*
X158639076Y-106656349D01*
X158766022Y-106850655D01*
X158766025Y-106850658D01*
X158827169Y-106917078D01*
X158888876Y-106984110D01*
X158908370Y-107037286D01*
X158886761Y-107086552D01*
X158874954Y-107098359D01*
X158744435Y-107284760D01*
X158648263Y-107491000D01*
X158648258Y-107491011D01*
X158589365Y-107710803D01*
X158589364Y-107710811D01*
X158569532Y-107937494D01*
X158569532Y-107937505D01*
X158589364Y-108164188D01*
X158589365Y-108164196D01*
X158648258Y-108383988D01*
X158648260Y-108383992D01*
X158648261Y-108383996D01*
X158744432Y-108590234D01*
X158744434Y-108590236D01*
X158744435Y-108590239D01*
X158874953Y-108776639D01*
X159035861Y-108937547D01*
X159222266Y-109068068D01*
X159428504Y-109164239D01*
X159428510Y-109164240D01*
X159428511Y-109164241D01*
X159648303Y-109223134D01*
X159648305Y-109223134D01*
X159648308Y-109223135D01*
X159733317Y-109230572D01*
X159874995Y-109242968D01*
X159875000Y-109242968D01*
X159875005Y-109242968D01*
X160000940Y-109231949D01*
X160101692Y-109223135D01*
X160321496Y-109164239D01*
X160527734Y-109068068D01*
X160714139Y-108937547D01*
X160875047Y-108776639D01*
X161005568Y-108590234D01*
X161101739Y-108383996D01*
X161160635Y-108164192D01*
X161180468Y-107937500D01*
X161180468Y-107937494D01*
X161160635Y-107710811D01*
X161160634Y-107710803D01*
X161101741Y-107491011D01*
X161101740Y-107491010D01*
X161101739Y-107491004D01*
X161005568Y-107284766D01*
X160875047Y-107098361D01*
X160863240Y-107086554D01*
X160841566Y-107034228D01*
X160861121Y-106984112D01*
X160950482Y-106887039D01*
X160983975Y-106850658D01*
X160983977Y-106850655D01*
X160983976Y-106850655D01*
X160983979Y-106850653D01*
X161110924Y-106656349D01*
X161204157Y-106443800D01*
X161261134Y-106218805D01*
X161274691Y-106055199D01*
X161280300Y-105987503D01*
X161280300Y-105987496D01*
X161261135Y-105756201D01*
X161261135Y-105756200D01*
X161256399Y-105737500D01*
X161252022Y-105720213D01*
X161260188Y-105664169D01*
X161305592Y-105630312D01*
X161317299Y-105628330D01*
X161376692Y-105623135D01*
X161376695Y-105623134D01*
X161376697Y-105623134D01*
X161531193Y-105581736D01*
X161596496Y-105564239D01*
X161802734Y-105468068D01*
X161989139Y-105337547D01*
X162150047Y-105176639D01*
X162280568Y-104990234D01*
X162376739Y-104783996D01*
X162435635Y-104564192D01*
X162444449Y-104463440D01*
X162455468Y-104337505D01*
X162455468Y-104337494D01*
X162435635Y-104110811D01*
X162435634Y-104110803D01*
X162376741Y-103891011D01*
X162376740Y-103891010D01*
X162376739Y-103891004D01*
X162280568Y-103684766D01*
X162150047Y-103498361D01*
X162089179Y-103437493D01*
X162519390Y-103437493D01*
X162519390Y-103437506D01*
X162539803Y-103722925D01*
X162600630Y-104002542D01*
X162600635Y-104002560D01*
X162700630Y-104270656D01*
X162837772Y-104521812D01*
X162853748Y-104543154D01*
X162867754Y-104598032D01*
X162853748Y-104631846D01*
X162837772Y-104653187D01*
X162700630Y-104904343D01*
X162600635Y-105172439D01*
X162600630Y-105172457D01*
X162539803Y-105452074D01*
X162519390Y-105737493D01*
X162519390Y-105737506D01*
X162539803Y-106022925D01*
X162600630Y-106302542D01*
X162600635Y-106302560D01*
X162700630Y-106570656D01*
X162837772Y-106821813D01*
X162923517Y-106936355D01*
X163009261Y-107050895D01*
X163211605Y-107253239D01*
X163383415Y-107381854D01*
X163440686Y-107424727D01*
X163691843Y-107561869D01*
X163959939Y-107661864D01*
X163959945Y-107661865D01*
X163959954Y-107661869D01*
X164239572Y-107722696D01*
X164303000Y-107727232D01*
X164524993Y-107743110D01*
X164525000Y-107743110D01*
X164525007Y-107743110D01*
X164724799Y-107728820D01*
X164810428Y-107722696D01*
X165090046Y-107661869D01*
X165090057Y-107661864D01*
X165090060Y-107661864D01*
X165358156Y-107561869D01*
X165358156Y-107561868D01*
X165358161Y-107561867D01*
X165609315Y-107424726D01*
X165838395Y-107253239D01*
X166040739Y-107050895D01*
X166212226Y-106821815D01*
X166349367Y-106570661D01*
X166396684Y-106443800D01*
X166449364Y-106302560D01*
X166449364Y-106302557D01*
X166449369Y-106302546D01*
X166510196Y-106022928D01*
X166517788Y-105916775D01*
X166530610Y-105737506D01*
X166530610Y-105737493D01*
X166510196Y-105452074D01*
X166510196Y-105452072D01*
X166449369Y-105172454D01*
X166449365Y-105172445D01*
X166449364Y-105172439D01*
X166349369Y-104904343D01*
X166212224Y-104653181D01*
X166196253Y-104631847D01*
X166182245Y-104576970D01*
X166196253Y-104543153D01*
X166212224Y-104521818D01*
X166212226Y-104521815D01*
X166349367Y-104270661D01*
X166349369Y-104270656D01*
X166449364Y-104002560D01*
X166449364Y-104002557D01*
X166449369Y-104002546D01*
X166510196Y-103722928D01*
X166526257Y-103498361D01*
X166530610Y-103437506D01*
X166530610Y-103437493D01*
X166510196Y-103152074D01*
X166510196Y-103152072D01*
X166449369Y-102872454D01*
X166449365Y-102872445D01*
X166449364Y-102872439D01*
X166349369Y-102604343D01*
X166212227Y-102353186D01*
X166106374Y-102211783D01*
X166040739Y-102124105D01*
X165838395Y-101921761D01*
X165698150Y-101816775D01*
X165609313Y-101750272D01*
X165358156Y-101613130D01*
X165090060Y-101513135D01*
X165090042Y-101513130D01*
X164810425Y-101452303D01*
X164525007Y-101431890D01*
X164524993Y-101431890D01*
X164239574Y-101452303D01*
X163959957Y-101513130D01*
X163959939Y-101513135D01*
X163691843Y-101613130D01*
X163440686Y-101750272D01*
X163211602Y-101921763D01*
X163009263Y-102124102D01*
X162837772Y-102353186D01*
X162700630Y-102604343D01*
X162600635Y-102872439D01*
X162600630Y-102872457D01*
X162539803Y-103152074D01*
X162519390Y-103437493D01*
X162089179Y-103437493D01*
X161989139Y-103337453D01*
X161802739Y-103206935D01*
X161802736Y-103206934D01*
X161802734Y-103206932D01*
X161596496Y-103110761D01*
X161596492Y-103110760D01*
X161596488Y-103110758D01*
X161376696Y-103051865D01*
X161376688Y-103051864D01*
X161150005Y-103032032D01*
X161149995Y-103032032D01*
X160923311Y-103051864D01*
X160923303Y-103051865D01*
X160703511Y-103110758D01*
X160703500Y-103110763D01*
X160497260Y-103206935D01*
X160310860Y-103337453D01*
X160149953Y-103498360D01*
X160019435Y-103684760D01*
X159923263Y-103891000D01*
X159923258Y-103891011D01*
X159864365Y-104110803D01*
X159864364Y-104110811D01*
X159844532Y-104337494D01*
X159844532Y-104337505D01*
X159859321Y-104506551D01*
X159842290Y-104560566D01*
X159792052Y-104586718D01*
X159785603Y-104587000D01*
X159758948Y-104587000D01*
X159530022Y-104625201D01*
X159310495Y-104700564D01*
X159106381Y-104811026D01*
X159106371Y-104811032D01*
X158923217Y-104953585D01*
X158766021Y-105124346D01*
X158639076Y-105318650D01*
X158545845Y-105531193D01*
X158545844Y-105531197D01*
X158545843Y-105531200D01*
X158545112Y-105534087D01*
X158488864Y-105756201D01*
X158469700Y-105987496D01*
X140538352Y-105987496D01*
X140582789Y-105916775D01*
X140636786Y-105762461D01*
X140655091Y-105600000D01*
X140636786Y-105437539D01*
X140582789Y-105283225D01*
X140554239Y-105237788D01*
X140495811Y-105144800D01*
X140495809Y-105144798D01*
X140495808Y-105144796D01*
X140380204Y-105029192D01*
X140380201Y-105029190D01*
X140380199Y-105029188D01*
X140241776Y-104942211D01*
X140087469Y-104888216D01*
X140087461Y-104888214D01*
X139925000Y-104869909D01*
X139762538Y-104888214D01*
X139762530Y-104888216D01*
X139608223Y-104942211D01*
X139469800Y-105029188D01*
X139354188Y-105144800D01*
X139267211Y-105283223D01*
X139213216Y-105437530D01*
X139213214Y-105437538D01*
X139194909Y-105600000D01*
X138160091Y-105600000D01*
X138141786Y-105437539D01*
X138087789Y-105283225D01*
X138059239Y-105237788D01*
X138000811Y-105144800D01*
X138000809Y-105144798D01*
X138000808Y-105144796D01*
X137885204Y-105029192D01*
X137885201Y-105029190D01*
X137885199Y-105029188D01*
X137746776Y-104942211D01*
X137592469Y-104888216D01*
X137592461Y-104888214D01*
X137430000Y-104869909D01*
X137267538Y-104888214D01*
X137267530Y-104888216D01*
X137113223Y-104942211D01*
X136974800Y-105029188D01*
X136859188Y-105144800D01*
X136772211Y-105283223D01*
X136718216Y-105437530D01*
X136718214Y-105437538D01*
X136699909Y-105600000D01*
X130200500Y-105600000D01*
X130200500Y-104580000D01*
X153979909Y-104580000D01*
X153998214Y-104742461D01*
X153998216Y-104742469D01*
X154052211Y-104896776D01*
X154139188Y-105035199D01*
X154139190Y-105035201D01*
X154139192Y-105035204D01*
X154254796Y-105150808D01*
X154254798Y-105150809D01*
X154254800Y-105150811D01*
X154393223Y-105237788D01*
X154393225Y-105237789D01*
X154547539Y-105291786D01*
X154710000Y-105310091D01*
X154872461Y-105291786D01*
X155026775Y-105237789D01*
X155165204Y-105150808D01*
X155280808Y-105035204D01*
X155367789Y-104896775D01*
X155421786Y-104742461D01*
X155440091Y-104580000D01*
X155421786Y-104417539D01*
X155367789Y-104263225D01*
X155280808Y-104124796D01*
X155165204Y-104009192D01*
X155165201Y-104009190D01*
X155165199Y-104009188D01*
X155026776Y-103922211D01*
X154872469Y-103868216D01*
X154872461Y-103868214D01*
X154710000Y-103849909D01*
X154547538Y-103868214D01*
X154547530Y-103868216D01*
X154393223Y-103922211D01*
X154254800Y-104009188D01*
X154139188Y-104124800D01*
X154052211Y-104263223D01*
X153998216Y-104417530D01*
X153998214Y-104417538D01*
X153979909Y-104580000D01*
X130200500Y-104580000D01*
X130200500Y-101500000D01*
X138344909Y-101500000D01*
X138363214Y-101662461D01*
X138363216Y-101662469D01*
X138417211Y-101816776D01*
X138504188Y-101955199D01*
X138504190Y-101955201D01*
X138504192Y-101955204D01*
X138619796Y-102070808D01*
X138619798Y-102070809D01*
X138619800Y-102070811D01*
X138704617Y-102124105D01*
X138758225Y-102157789D01*
X138912539Y-102211786D01*
X139075000Y-102230091D01*
X139237461Y-102211786D01*
X139391775Y-102157789D01*
X139530204Y-102070808D01*
X139645808Y-101955204D01*
X139732789Y-101816775D01*
X139786786Y-101662461D01*
X139805091Y-101500000D01*
X139786786Y-101337539D01*
X139732789Y-101183225D01*
X139701858Y-101133999D01*
X139645811Y-101044800D01*
X139645809Y-101044798D01*
X139645808Y-101044796D01*
X139530204Y-100929192D01*
X139530201Y-100929190D01*
X139530199Y-100929188D01*
X139391776Y-100842211D01*
X139237469Y-100788216D01*
X139237461Y-100788214D01*
X139075000Y-100769909D01*
X138912538Y-100788214D01*
X138912530Y-100788216D01*
X138758223Y-100842211D01*
X138619800Y-100929188D01*
X138504188Y-101044800D01*
X138417211Y-101183223D01*
X138363216Y-101337530D01*
X138363214Y-101337538D01*
X138344909Y-101500000D01*
X130200500Y-101500000D01*
X130200500Y-98240000D01*
X138189909Y-98240000D01*
X138208214Y-98402461D01*
X138208216Y-98402469D01*
X138262211Y-98556776D01*
X138349188Y-98695199D01*
X138349190Y-98695201D01*
X138349192Y-98695204D01*
X138464796Y-98810808D01*
X138464798Y-98810809D01*
X138464800Y-98810811D01*
X138565303Y-98873961D01*
X138603225Y-98897789D01*
X138644346Y-98912178D01*
X138705374Y-98933533D01*
X138747605Y-98971273D01*
X138750780Y-99027821D01*
X138720304Y-99066037D01*
X138619800Y-99129188D01*
X138504188Y-99244800D01*
X138417211Y-99383223D01*
X138363216Y-99537530D01*
X138363214Y-99537538D01*
X138344909Y-99700000D01*
X138363214Y-99862461D01*
X138363216Y-99862469D01*
X138417211Y-100016776D01*
X138504188Y-100155199D01*
X138504190Y-100155201D01*
X138504192Y-100155204D01*
X138619796Y-100270808D01*
X138619798Y-100270809D01*
X138619800Y-100270811D01*
X138758223Y-100357788D01*
X138758225Y-100357789D01*
X138912539Y-100411786D01*
X139075000Y-100430091D01*
X139237461Y-100411786D01*
X139271143Y-100400000D01*
X153769909Y-100400000D01*
X153788214Y-100562461D01*
X153788216Y-100562469D01*
X153842211Y-100716776D01*
X153929188Y-100855199D01*
X153929190Y-100855201D01*
X153929192Y-100855204D01*
X154044796Y-100970808D01*
X154044798Y-100970809D01*
X154044800Y-100970811D01*
X154162553Y-101044800D01*
X154183225Y-101057789D01*
X154337539Y-101111786D01*
X154500000Y-101130091D01*
X154662461Y-101111786D01*
X154816775Y-101057789D01*
X154955204Y-100970808D01*
X155070808Y-100855204D01*
X155157789Y-100716775D01*
X155168035Y-100687494D01*
X159844532Y-100687494D01*
X159844532Y-100687505D01*
X159864364Y-100914188D01*
X159864365Y-100914196D01*
X159923258Y-101133988D01*
X159923260Y-101133992D01*
X159923261Y-101133996D01*
X160019432Y-101340234D01*
X160019434Y-101340236D01*
X160019435Y-101340239D01*
X160131300Y-101500000D01*
X160149953Y-101526639D01*
X160310861Y-101687547D01*
X160497266Y-101818068D01*
X160703504Y-101914239D01*
X160703510Y-101914240D01*
X160703511Y-101914241D01*
X160923303Y-101973134D01*
X160923305Y-101973134D01*
X160923308Y-101973135D01*
X161008317Y-101980572D01*
X161149995Y-101992968D01*
X161150000Y-101992968D01*
X161150005Y-101992968D01*
X161275940Y-101981949D01*
X161376692Y-101973135D01*
X161596496Y-101914239D01*
X161802734Y-101818068D01*
X161989139Y-101687547D01*
X162150047Y-101526639D01*
X162280568Y-101340234D01*
X162376739Y-101133996D01*
X162435635Y-100914192D01*
X162444449Y-100813440D01*
X162455468Y-100687505D01*
X162455468Y-100687494D01*
X162435635Y-100460811D01*
X162435634Y-100460803D01*
X162376741Y-100241011D01*
X162376740Y-100241010D01*
X162376739Y-100241004D01*
X162280568Y-100034766D01*
X162267971Y-100016776D01*
X162150046Y-99848360D01*
X161989139Y-99687453D01*
X161802739Y-99556935D01*
X161802736Y-99556934D01*
X161802734Y-99556932D01*
X161596496Y-99460761D01*
X161596492Y-99460760D01*
X161596488Y-99460758D01*
X161376696Y-99401865D01*
X161376688Y-99401864D01*
X161150005Y-99382032D01*
X161149995Y-99382032D01*
X160923311Y-99401864D01*
X160923303Y-99401865D01*
X160703511Y-99460758D01*
X160703504Y-99460760D01*
X160703504Y-99460761D01*
X160538855Y-99537539D01*
X160497260Y-99556935D01*
X160310860Y-99687453D01*
X160149953Y-99848360D01*
X160019435Y-100034760D01*
X160019432Y-100034765D01*
X160019432Y-100034766D01*
X159924881Y-100237530D01*
X159923263Y-100241000D01*
X159923258Y-100241011D01*
X159864365Y-100460803D01*
X159864364Y-100460811D01*
X159844532Y-100687494D01*
X155168035Y-100687494D01*
X155211786Y-100562461D01*
X155230091Y-100400000D01*
X155211786Y-100237539D01*
X155157789Y-100083225D01*
X155127340Y-100034766D01*
X155070811Y-99944800D01*
X155070809Y-99944798D01*
X155070808Y-99944796D01*
X154955204Y-99829192D01*
X154955201Y-99829190D01*
X154955199Y-99829188D01*
X154816776Y-99742211D01*
X154662469Y-99688216D01*
X154662461Y-99688214D01*
X154500000Y-99669909D01*
X154337538Y-99688214D01*
X154337530Y-99688216D01*
X154183223Y-99742211D01*
X154044800Y-99829188D01*
X153929188Y-99944800D01*
X153842211Y-100083223D01*
X153788216Y-100237530D01*
X153788214Y-100237538D01*
X153769909Y-100400000D01*
X139271143Y-100400000D01*
X139391775Y-100357789D01*
X139530204Y-100270808D01*
X139645808Y-100155204D01*
X139732789Y-100016775D01*
X139786786Y-99862461D01*
X139805091Y-99700000D01*
X139786786Y-99537539D01*
X139732789Y-99383225D01*
X139732788Y-99383223D01*
X139645811Y-99244800D01*
X139645809Y-99244798D01*
X139645808Y-99244796D01*
X139530204Y-99129192D01*
X139530201Y-99129190D01*
X139530199Y-99129188D01*
X139391776Y-99042211D01*
X139289625Y-99006466D01*
X139247394Y-98968726D01*
X139244219Y-98912178D01*
X139274695Y-98873962D01*
X139375204Y-98810808D01*
X139490808Y-98695204D01*
X139577789Y-98556775D01*
X139631786Y-98402461D01*
X139650091Y-98240000D01*
X139631786Y-98077539D01*
X139577789Y-97923225D01*
X139497277Y-97795091D01*
X139490811Y-97784800D01*
X139490809Y-97784798D01*
X139490808Y-97784796D01*
X139375204Y-97669192D01*
X139375201Y-97669190D01*
X139375199Y-97669188D01*
X139236776Y-97582211D01*
X139082469Y-97528216D01*
X139082461Y-97528214D01*
X138920000Y-97509909D01*
X138757538Y-97528214D01*
X138757530Y-97528216D01*
X138603223Y-97582211D01*
X138464800Y-97669188D01*
X138349188Y-97784800D01*
X138262211Y-97923223D01*
X138208216Y-98077530D01*
X138208214Y-98077538D01*
X138189909Y-98240000D01*
X130200500Y-98240000D01*
X130200500Y-97065000D01*
X148804909Y-97065000D01*
X148823214Y-97227461D01*
X148823216Y-97227469D01*
X148877211Y-97381776D01*
X148964188Y-97520199D01*
X148964190Y-97520201D01*
X148964192Y-97520204D01*
X149079796Y-97635808D01*
X149079798Y-97635809D01*
X149079800Y-97635811D01*
X149132926Y-97669192D01*
X149218225Y-97722789D01*
X149372539Y-97776786D01*
X149535000Y-97795091D01*
X149697461Y-97776786D01*
X149851775Y-97722789D01*
X149990204Y-97635808D01*
X150105808Y-97520204D01*
X150155458Y-97441185D01*
X150201648Y-97408412D01*
X150257485Y-97417899D01*
X150257486Y-97417900D01*
X150273223Y-97427788D01*
X150273225Y-97427789D01*
X150427539Y-97481786D01*
X150590000Y-97500091D01*
X150752461Y-97481786D01*
X150906775Y-97427789D01*
X151045204Y-97340808D01*
X151160808Y-97225204D01*
X151247789Y-97086775D01*
X151301786Y-96932461D01*
X151320091Y-96770000D01*
X151301786Y-96607539D01*
X151288650Y-96570000D01*
X154199909Y-96570000D01*
X154218214Y-96732461D01*
X154218216Y-96732469D01*
X154272211Y-96886776D01*
X154359188Y-97025199D01*
X154359190Y-97025201D01*
X154359192Y-97025204D01*
X154474796Y-97140808D01*
X154474798Y-97140809D01*
X154474800Y-97140811D01*
X154613223Y-97227788D01*
X154613225Y-97227789D01*
X154767539Y-97281786D01*
X154930000Y-97300091D01*
X155092461Y-97281786D01*
X155246775Y-97227789D01*
X155385204Y-97140808D01*
X155500808Y-97025204D01*
X155587789Y-96886775D01*
X155641786Y-96732461D01*
X155660091Y-96570000D01*
X155641786Y-96407539D01*
X155587789Y-96253225D01*
X155555954Y-96202560D01*
X155500811Y-96114800D01*
X155500809Y-96114798D01*
X155500808Y-96114796D01*
X155385204Y-95999192D01*
X155385201Y-95999190D01*
X155385199Y-95999188D01*
X155246776Y-95912211D01*
X155092469Y-95858216D01*
X155092461Y-95858214D01*
X154930000Y-95839909D01*
X154767538Y-95858214D01*
X154767530Y-95858216D01*
X154613223Y-95912211D01*
X154474800Y-95999188D01*
X154359188Y-96114800D01*
X154272211Y-96253223D01*
X154218216Y-96407530D01*
X154218214Y-96407538D01*
X154199909Y-96570000D01*
X151288650Y-96570000D01*
X151283471Y-96555199D01*
X151247789Y-96453225D01*
X151227800Y-96421413D01*
X151160811Y-96314800D01*
X151160809Y-96314798D01*
X151160808Y-96314796D01*
X151045204Y-96199192D01*
X151045201Y-96199190D01*
X151045199Y-96199188D01*
X150906776Y-96112211D01*
X150752469Y-96058216D01*
X150752461Y-96058214D01*
X150590000Y-96039909D01*
X150427538Y-96058214D01*
X150427527Y-96058217D01*
X150374852Y-96076649D01*
X150318304Y-96073474D01*
X150280565Y-96031242D01*
X150276877Y-95998519D01*
X150280091Y-95970000D01*
X150261786Y-95807539D01*
X150259129Y-95799947D01*
X150237835Y-95739090D01*
X150207789Y-95653225D01*
X150197912Y-95637506D01*
X150190054Y-95625000D01*
X156769909Y-95625000D01*
X156788214Y-95787461D01*
X156788216Y-95787469D01*
X156842211Y-95941776D01*
X156929188Y-96080199D01*
X156929190Y-96080201D01*
X156929192Y-96080204D01*
X157044796Y-96195808D01*
X157044798Y-96195809D01*
X157044800Y-96195811D01*
X157136171Y-96253223D01*
X157183225Y-96282789D01*
X157337539Y-96336786D01*
X157500000Y-96355091D01*
X157662461Y-96336786D01*
X157816775Y-96282789D01*
X157955204Y-96195808D01*
X158070808Y-96080204D01*
X158157789Y-95941775D01*
X158211786Y-95787461D01*
X158230091Y-95625000D01*
X158211786Y-95462539D01*
X158185527Y-95387496D01*
X158469700Y-95387496D01*
X158469700Y-95387503D01*
X158488864Y-95618798D01*
X158488866Y-95618805D01*
X158545245Y-95841439D01*
X158545845Y-95843806D01*
X158628063Y-96031242D01*
X158639076Y-96056349D01*
X158766021Y-96250653D01*
X158918946Y-96416775D01*
X158923217Y-96421414D01*
X158964086Y-96453223D01*
X159106374Y-96563970D01*
X159291187Y-96663986D01*
X159303798Y-96670811D01*
X159310497Y-96674436D01*
X159530019Y-96749798D01*
X159758951Y-96788000D01*
X159785603Y-96788000D01*
X159837929Y-96809674D01*
X159859603Y-96862000D01*
X159859321Y-96868449D01*
X159844532Y-97037494D01*
X159844532Y-97037505D01*
X159864364Y-97264188D01*
X159864365Y-97264196D01*
X159923258Y-97483988D01*
X159923260Y-97483992D01*
X159923261Y-97483996D01*
X160019432Y-97690234D01*
X160019434Y-97690236D01*
X160019435Y-97690239D01*
X160080035Y-97776785D01*
X160149953Y-97876639D01*
X160310861Y-98037547D01*
X160497266Y-98168068D01*
X160703504Y-98264239D01*
X160703510Y-98264240D01*
X160703511Y-98264241D01*
X160923303Y-98323134D01*
X160923305Y-98323134D01*
X160923308Y-98323135D01*
X161008317Y-98330572D01*
X161149995Y-98342968D01*
X161150000Y-98342968D01*
X161150005Y-98342968D01*
X161275940Y-98331949D01*
X161376692Y-98323135D01*
X161596496Y-98264239D01*
X161802734Y-98168068D01*
X161989139Y-98037547D01*
X162150047Y-97876639D01*
X162280568Y-97690234D01*
X162376739Y-97483996D01*
X162435635Y-97264192D01*
X162444449Y-97163440D01*
X162455468Y-97037505D01*
X162455468Y-97037494D01*
X162439343Y-96853187D01*
X162435635Y-96810808D01*
X162429523Y-96787999D01*
X162376741Y-96591011D01*
X162376740Y-96591010D01*
X162376739Y-96591004D01*
X162280568Y-96384766D01*
X162150047Y-96198361D01*
X161989139Y-96037453D01*
X161934496Y-95999192D01*
X161802739Y-95906935D01*
X161802736Y-95906934D01*
X161802734Y-95906932D01*
X161596496Y-95810761D01*
X161596492Y-95810760D01*
X161596488Y-95810758D01*
X161376696Y-95751865D01*
X161376689Y-95751864D01*
X161317308Y-95746669D01*
X161267071Y-95720517D01*
X161250040Y-95666501D01*
X161252023Y-95654785D01*
X161256402Y-95637493D01*
X162519390Y-95637493D01*
X162519390Y-95637506D01*
X162539803Y-95922925D01*
X162600630Y-96202542D01*
X162600635Y-96202560D01*
X162700630Y-96470656D01*
X162809923Y-96670811D01*
X162837774Y-96721815D01*
X162848552Y-96736213D01*
X162853748Y-96743154D01*
X162867754Y-96798032D01*
X162853748Y-96831846D01*
X162837772Y-96853187D01*
X162700630Y-97104343D01*
X162600635Y-97372439D01*
X162600630Y-97372457D01*
X162539803Y-97652074D01*
X162519390Y-97937493D01*
X162519390Y-97937506D01*
X162539803Y-98222925D01*
X162600630Y-98502542D01*
X162600635Y-98502560D01*
X162700630Y-98770656D01*
X162837772Y-99021813D01*
X162842270Y-99027821D01*
X163009261Y-99250895D01*
X163211605Y-99453239D01*
X163324217Y-99537539D01*
X163440686Y-99624727D01*
X163691843Y-99761869D01*
X163959939Y-99861864D01*
X163959945Y-99861865D01*
X163959954Y-99861869D01*
X164239572Y-99922696D01*
X164303000Y-99927232D01*
X164524993Y-99943110D01*
X164525000Y-99943110D01*
X164525007Y-99943110D01*
X164724799Y-99928820D01*
X164810428Y-99922696D01*
X165090046Y-99861869D01*
X165090057Y-99861864D01*
X165090060Y-99861864D01*
X165358156Y-99761869D01*
X165358156Y-99761868D01*
X165358161Y-99761867D01*
X165609315Y-99624726D01*
X165838395Y-99453239D01*
X166040739Y-99250895D01*
X166212226Y-99021815D01*
X166349367Y-98770661D01*
X166449369Y-98502546D01*
X166510196Y-98222928D01*
X166520594Y-98077539D01*
X166530610Y-97937506D01*
X166530610Y-97937493D01*
X166510196Y-97652074D01*
X166510196Y-97652072D01*
X166449369Y-97372454D01*
X166449365Y-97372445D01*
X166449364Y-97372439D01*
X166349369Y-97104343D01*
X166212224Y-96853181D01*
X166196253Y-96831847D01*
X166182245Y-96776970D01*
X166196253Y-96743153D01*
X166212224Y-96721818D01*
X166212226Y-96721815D01*
X166349367Y-96470661D01*
X166366322Y-96425204D01*
X166449364Y-96202560D01*
X166449364Y-96202557D01*
X166449369Y-96202546D01*
X166510196Y-95922928D01*
X166518218Y-95810761D01*
X166530610Y-95637506D01*
X166530610Y-95637493D01*
X166512730Y-95387500D01*
X166510196Y-95352072D01*
X166449369Y-95072454D01*
X166449365Y-95072445D01*
X166449364Y-95072439D01*
X166349369Y-94804343D01*
X166212227Y-94553186D01*
X166169354Y-94495915D01*
X166040739Y-94324105D01*
X165838395Y-94121761D01*
X165712517Y-94027530D01*
X165609313Y-93950272D01*
X165358156Y-93813130D01*
X165090060Y-93713135D01*
X165090042Y-93713130D01*
X164810425Y-93652303D01*
X164525007Y-93631890D01*
X164524993Y-93631890D01*
X164239574Y-93652303D01*
X163959957Y-93713130D01*
X163959939Y-93713135D01*
X163691843Y-93813130D01*
X163440686Y-93950272D01*
X163211602Y-94121763D01*
X163009263Y-94324102D01*
X162837772Y-94553186D01*
X162700630Y-94804343D01*
X162600635Y-95072439D01*
X162600630Y-95072457D01*
X162539803Y-95352074D01*
X162519390Y-95637493D01*
X161256402Y-95637493D01*
X161261133Y-95618810D01*
X161261135Y-95618798D01*
X161280300Y-95387503D01*
X161280300Y-95387496D01*
X161261135Y-95156201D01*
X161261134Y-95156198D01*
X161261134Y-95156195D01*
X161204157Y-94931200D01*
X161110924Y-94718651D01*
X160983979Y-94524347D01*
X160861123Y-94390889D01*
X160841630Y-94337712D01*
X160863242Y-94288443D01*
X160875047Y-94276639D01*
X161005568Y-94090234D01*
X161101739Y-93883996D01*
X161160635Y-93664192D01*
X161176906Y-93478214D01*
X161180468Y-93437505D01*
X161180468Y-93437494D01*
X161160635Y-93210811D01*
X161160634Y-93210803D01*
X161101741Y-92991011D01*
X161101740Y-92991010D01*
X161101739Y-92991004D01*
X161005568Y-92784766D01*
X160875047Y-92598361D01*
X160714139Y-92437453D01*
X160527739Y-92306935D01*
X160527736Y-92306934D01*
X160527734Y-92306932D01*
X160321496Y-92210761D01*
X160321492Y-92210760D01*
X160321488Y-92210758D01*
X160101696Y-92151865D01*
X160101688Y-92151864D01*
X159875005Y-92132032D01*
X159874995Y-92132032D01*
X159648311Y-92151864D01*
X159648303Y-92151865D01*
X159428511Y-92210758D01*
X159428500Y-92210763D01*
X159222260Y-92306935D01*
X159035860Y-92437453D01*
X158874953Y-92598360D01*
X158744435Y-92784760D01*
X158744432Y-92784765D01*
X158744432Y-92784766D01*
X158660294Y-92965199D01*
X158648263Y-92991000D01*
X158648258Y-92991011D01*
X158589365Y-93210803D01*
X158589364Y-93210811D01*
X158569532Y-93437494D01*
X158569532Y-93437505D01*
X158589364Y-93664188D01*
X158589365Y-93664196D01*
X158648258Y-93883988D01*
X158648260Y-93883992D01*
X158648261Y-93883996D01*
X158744432Y-94090234D01*
X158744434Y-94090236D01*
X158744435Y-94090239D01*
X158874953Y-94276639D01*
X158886758Y-94288444D01*
X158908432Y-94340770D01*
X158888876Y-94390888D01*
X158766024Y-94524341D01*
X158766022Y-94524344D01*
X158639076Y-94718650D01*
X158545845Y-94931193D01*
X158545844Y-94931197D01*
X158545843Y-94931200D01*
X158545112Y-94934087D01*
X158488864Y-95156201D01*
X158469700Y-95387496D01*
X158185527Y-95387496D01*
X158157789Y-95308225D01*
X158070808Y-95169796D01*
X157955204Y-95054192D01*
X157955201Y-95054190D01*
X157955199Y-95054188D01*
X157816776Y-94967211D01*
X157662469Y-94913216D01*
X157662461Y-94913214D01*
X157500000Y-94894909D01*
X157337538Y-94913214D01*
X157337530Y-94913216D01*
X157183223Y-94967211D01*
X157044800Y-95054188D01*
X156929188Y-95169800D01*
X156842211Y-95308223D01*
X156788216Y-95462530D01*
X156788214Y-95462538D01*
X156769909Y-95625000D01*
X150190054Y-95625000D01*
X150120811Y-95514800D01*
X150120809Y-95514798D01*
X150120808Y-95514796D01*
X150005204Y-95399192D01*
X150005201Y-95399190D01*
X150005199Y-95399188D01*
X149866776Y-95312211D01*
X149712469Y-95258216D01*
X149712461Y-95258214D01*
X149550000Y-95239909D01*
X149387538Y-95258214D01*
X149387530Y-95258216D01*
X149233223Y-95312211D01*
X149094800Y-95399188D01*
X148979188Y-95514800D01*
X148892211Y-95653223D01*
X148838216Y-95807530D01*
X148838214Y-95807538D01*
X148819909Y-95970000D01*
X148838214Y-96132461D01*
X148838216Y-96132469D01*
X148892211Y-96286776D01*
X148979188Y-96425199D01*
X148979190Y-96425201D01*
X148979192Y-96425204D01*
X149011662Y-96457674D01*
X149033336Y-96509999D01*
X149011663Y-96562324D01*
X148964189Y-96609798D01*
X148964188Y-96609800D01*
X148877211Y-96748223D01*
X148823216Y-96902530D01*
X148823214Y-96902538D01*
X148804909Y-97065000D01*
X130200500Y-97065000D01*
X130200500Y-96100000D01*
X138344909Y-96100000D01*
X138363214Y-96262461D01*
X138363216Y-96262469D01*
X138417211Y-96416776D01*
X138504188Y-96555199D01*
X138504190Y-96555201D01*
X138504192Y-96555204D01*
X138619796Y-96670808D01*
X138619798Y-96670809D01*
X138619800Y-96670811D01*
X138743004Y-96748225D01*
X138758225Y-96757789D01*
X138793122Y-96770000D01*
X138909752Y-96810811D01*
X138912539Y-96811786D01*
X139075000Y-96830091D01*
X139237461Y-96811786D01*
X139391775Y-96757789D01*
X139530204Y-96670808D01*
X139645808Y-96555204D01*
X139732789Y-96416775D01*
X139786786Y-96262461D01*
X139805091Y-96100000D01*
X139786786Y-95937539D01*
X139732789Y-95783225D01*
X139713084Y-95751864D01*
X139645811Y-95644800D01*
X139645809Y-95644798D01*
X139645808Y-95644796D01*
X139530204Y-95529192D01*
X139530201Y-95529190D01*
X139530199Y-95529188D01*
X139391776Y-95442211D01*
X139237469Y-95388216D01*
X139237461Y-95388214D01*
X139075000Y-95369909D01*
X138912538Y-95388214D01*
X138912530Y-95388216D01*
X138758223Y-95442211D01*
X138619800Y-95529188D01*
X138504188Y-95644800D01*
X138417211Y-95783223D01*
X138363216Y-95937530D01*
X138363214Y-95937538D01*
X138344909Y-96100000D01*
X130200500Y-96100000D01*
X130200500Y-94190000D01*
X147809909Y-94190000D01*
X147828214Y-94352461D01*
X147828216Y-94352469D01*
X147882211Y-94506776D01*
X147969188Y-94645199D01*
X147969190Y-94645201D01*
X147969192Y-94645204D01*
X148084796Y-94760808D01*
X148084798Y-94760809D01*
X148084800Y-94760811D01*
X148154081Y-94804343D01*
X148223225Y-94847789D01*
X148326285Y-94883851D01*
X148357885Y-94894909D01*
X148377539Y-94901786D01*
X148540000Y-94920091D01*
X148702461Y-94901786D01*
X148856775Y-94847789D01*
X148995204Y-94760808D01*
X149110808Y-94645204D01*
X149197789Y-94506775D01*
X149251786Y-94352461D01*
X149270091Y-94190000D01*
X149251786Y-94027539D01*
X149197789Y-93873225D01*
X149110808Y-93734796D01*
X148995204Y-93619192D01*
X148995201Y-93619190D01*
X148995199Y-93619188D01*
X148856776Y-93532211D01*
X148702469Y-93478216D01*
X148702461Y-93478214D01*
X148540000Y-93459909D01*
X148377538Y-93478214D01*
X148377530Y-93478216D01*
X148223223Y-93532211D01*
X148084800Y-93619188D01*
X147969188Y-93734800D01*
X147882211Y-93873223D01*
X147828216Y-94027530D01*
X147828214Y-94027538D01*
X147809909Y-94190000D01*
X130200500Y-94190000D01*
X130200500Y-92510000D01*
X146869909Y-92510000D01*
X146888214Y-92672461D01*
X146888216Y-92672469D01*
X146942211Y-92826776D01*
X147029188Y-92965199D01*
X147029190Y-92965201D01*
X147029192Y-92965204D01*
X147144796Y-93080808D01*
X147144798Y-93080809D01*
X147144800Y-93080811D01*
X147283223Y-93167788D01*
X147283225Y-93167789D01*
X147386285Y-93203851D01*
X147406151Y-93210803D01*
X147437539Y-93221786D01*
X147600000Y-93240091D01*
X147762461Y-93221786D01*
X147916775Y-93167789D01*
X148055204Y-93080808D01*
X148170808Y-92965204D01*
X148235966Y-92861504D01*
X148282156Y-92828731D01*
X148337992Y-92838217D01*
X148353225Y-92847789D01*
X148507539Y-92901786D01*
X148670000Y-92920091D01*
X148832461Y-92901786D01*
X148986775Y-92847789D01*
X149125204Y-92760808D01*
X149240808Y-92645204D01*
X149327789Y-92506775D01*
X149381786Y-92352461D01*
X149400091Y-92190000D01*
X149381786Y-92027539D01*
X149327789Y-91873225D01*
X149327788Y-91873223D01*
X149240811Y-91734800D01*
X149240809Y-91734798D01*
X149240808Y-91734796D01*
X149125204Y-91619192D01*
X149125201Y-91619190D01*
X149125199Y-91619188D01*
X148986776Y-91532211D01*
X148832469Y-91478216D01*
X148832461Y-91478214D01*
X148670000Y-91459909D01*
X148507538Y-91478214D01*
X148507530Y-91478216D01*
X148353223Y-91532211D01*
X148214800Y-91619188D01*
X148099188Y-91734800D01*
X148034033Y-91838494D01*
X147987842Y-91871268D01*
X147932007Y-91861781D01*
X147916778Y-91852212D01*
X147916772Y-91852209D01*
X147762469Y-91798216D01*
X147762461Y-91798214D01*
X147600000Y-91779909D01*
X147437538Y-91798214D01*
X147437530Y-91798216D01*
X147283223Y-91852211D01*
X147144800Y-91939188D01*
X147029188Y-92054800D01*
X146942211Y-92193223D01*
X146888216Y-92347530D01*
X146888214Y-92347538D01*
X146869909Y-92510000D01*
X130200500Y-92510000D01*
X130200500Y-89820000D01*
X153549909Y-89820000D01*
X153568214Y-89982461D01*
X153568216Y-89982469D01*
X153622211Y-90136776D01*
X153709188Y-90275199D01*
X153709190Y-90275201D01*
X153709192Y-90275204D01*
X153824796Y-90390808D01*
X153824798Y-90390809D01*
X153824800Y-90390811D01*
X153963223Y-90477788D01*
X153963225Y-90477789D01*
X154117539Y-90531786D01*
X154204925Y-90541632D01*
X154254493Y-90569028D01*
X154259295Y-90575795D01*
X154309192Y-90655204D01*
X154424796Y-90770808D01*
X154424798Y-90770809D01*
X154424800Y-90770811D01*
X154563223Y-90857788D01*
X154563225Y-90857789D01*
X154717539Y-90911786D01*
X154880000Y-90930091D01*
X155042461Y-90911786D01*
X155196775Y-90857789D01*
X155335204Y-90770808D01*
X155450808Y-90655204D01*
X155537789Y-90516775D01*
X155591786Y-90362461D01*
X155610091Y-90200000D01*
X155591786Y-90037539D01*
X155537789Y-89883225D01*
X155450808Y-89744796D01*
X155335204Y-89629192D01*
X155335201Y-89629190D01*
X155335199Y-89629188D01*
X155196776Y-89542211D01*
X155042469Y-89488216D01*
X155042461Y-89488214D01*
X154955073Y-89478367D01*
X154905504Y-89450969D01*
X154900703Y-89444203D01*
X154850808Y-89364796D01*
X154735204Y-89249192D01*
X154735201Y-89249190D01*
X154735199Y-89249188D01*
X154596776Y-89162211D01*
X154442469Y-89108216D01*
X154442461Y-89108214D01*
X154280000Y-89089909D01*
X154117538Y-89108214D01*
X154117530Y-89108216D01*
X153963223Y-89162211D01*
X153824800Y-89249188D01*
X153709188Y-89364800D01*
X153622211Y-89503223D01*
X153568216Y-89657530D01*
X153568214Y-89657538D01*
X153549909Y-89820000D01*
X130200500Y-89820000D01*
X130200500Y-87140000D01*
X133504396Y-87140000D01*
X133524779Y-87398995D01*
X133585425Y-87651605D01*
X133684847Y-87891630D01*
X133684851Y-87891638D01*
X133820586Y-88113137D01*
X133820588Y-88113140D01*
X133889999Y-88194410D01*
X133946269Y-88260294D01*
X133989311Y-88310689D01*
X134186860Y-88479412D01*
X134186862Y-88479413D01*
X134408361Y-88615148D01*
X134408367Y-88615151D01*
X134408372Y-88615154D01*
X134648390Y-88714573D01*
X134901006Y-88775221D01*
X135160000Y-88795604D01*
X135418994Y-88775221D01*
X135671610Y-88714573D01*
X135911628Y-88615154D01*
X136133140Y-88479412D01*
X136330689Y-88310689D01*
X136373730Y-88260293D01*
X136424193Y-88234581D01*
X136478059Y-88252083D01*
X136486269Y-88260293D01*
X136529311Y-88310689D01*
X136726860Y-88479412D01*
X136726862Y-88479413D01*
X136948361Y-88615148D01*
X136948367Y-88615151D01*
X136948372Y-88615154D01*
X137188390Y-88714573D01*
X137441006Y-88775221D01*
X137700000Y-88795604D01*
X137958994Y-88775221D01*
X138211610Y-88714573D01*
X138451628Y-88615154D01*
X138673140Y-88479412D01*
X138870689Y-88310689D01*
X138913730Y-88260293D01*
X138964193Y-88234581D01*
X139018059Y-88252083D01*
X139026269Y-88260293D01*
X139069311Y-88310689D01*
X139266860Y-88479412D01*
X139266862Y-88479413D01*
X139488361Y-88615148D01*
X139488367Y-88615151D01*
X139488372Y-88615154D01*
X139728390Y-88714573D01*
X139981006Y-88775221D01*
X140240000Y-88795604D01*
X140498994Y-88775221D01*
X140751610Y-88714573D01*
X140991628Y-88615154D01*
X141213140Y-88479412D01*
X141410689Y-88310689D01*
X141579412Y-88113140D01*
X141715154Y-87891628D01*
X141814573Y-87651610D01*
X141875221Y-87398994D01*
X141895604Y-87140000D01*
X141875221Y-86881006D01*
X141814573Y-86628390D01*
X141715154Y-86388372D01*
X141715151Y-86388367D01*
X141715148Y-86388361D01*
X141579413Y-86166862D01*
X141579412Y-86166860D01*
X141410689Y-85969311D01*
X141410686Y-85969308D01*
X141272079Y-85850927D01*
X141213140Y-85800588D01*
X141204426Y-85795248D01*
X140991638Y-85664851D01*
X140991630Y-85664847D01*
X140823642Y-85595264D01*
X140751610Y-85565427D01*
X140751609Y-85565426D01*
X140751605Y-85565425D01*
X140498995Y-85504779D01*
X140240000Y-85484396D01*
X139981004Y-85504779D01*
X139728394Y-85565425D01*
X139488369Y-85664847D01*
X139488361Y-85664851D01*
X139266862Y-85800586D01*
X139266861Y-85800587D01*
X139069313Y-85969308D01*
X139069308Y-85969313D01*
X139026270Y-86019705D01*
X138975806Y-86045418D01*
X138921941Y-86027916D01*
X138913730Y-86019705D01*
X138870691Y-85969313D01*
X138870686Y-85969308D01*
X138732079Y-85850927D01*
X138673140Y-85800588D01*
X138664426Y-85795248D01*
X138451638Y-85664851D01*
X138451630Y-85664847D01*
X138283642Y-85595264D01*
X138211610Y-85565427D01*
X138211609Y-85565426D01*
X138211605Y-85565425D01*
X137958995Y-85504779D01*
X137700000Y-85484396D01*
X137441004Y-85504779D01*
X137188394Y-85565425D01*
X136948369Y-85664847D01*
X136948361Y-85664851D01*
X136726862Y-85800586D01*
X136726861Y-85800587D01*
X136529313Y-85969308D01*
X136529308Y-85969313D01*
X136486270Y-86019705D01*
X136435806Y-86045418D01*
X136381941Y-86027916D01*
X136373730Y-86019705D01*
X136330691Y-85969313D01*
X136330686Y-85969308D01*
X136192079Y-85850927D01*
X136133140Y-85800588D01*
X136124426Y-85795248D01*
X135911638Y-85664851D01*
X135911630Y-85664847D01*
X135743642Y-85595264D01*
X135671610Y-85565427D01*
X135671609Y-85565426D01*
X135671605Y-85565425D01*
X135418995Y-85504779D01*
X135160000Y-85484396D01*
X134901004Y-85504779D01*
X134648394Y-85565425D01*
X134408369Y-85664847D01*
X134408361Y-85664851D01*
X134186862Y-85800586D01*
X134186861Y-85800587D01*
X133989313Y-85969308D01*
X133989308Y-85969313D01*
X133820587Y-86166861D01*
X133820586Y-86166862D01*
X133684851Y-86388361D01*
X133684847Y-86388369D01*
X133585425Y-86628394D01*
X133524779Y-86881004D01*
X133504396Y-87140000D01*
X130200500Y-87140000D01*
X130200500Y-84000000D01*
X147669909Y-84000000D01*
X147688214Y-84162461D01*
X147688216Y-84162469D01*
X147742211Y-84316776D01*
X147829188Y-84455199D01*
X147829190Y-84455201D01*
X147829192Y-84455204D01*
X147944796Y-84570808D01*
X147944798Y-84570809D01*
X147944800Y-84570811D01*
X148076197Y-84653373D01*
X148083225Y-84657789D01*
X148237539Y-84711786D01*
X148400000Y-84730091D01*
X148554480Y-84712685D01*
X148608901Y-84728363D01*
X148636298Y-84777933D01*
X148632610Y-84810659D01*
X148588217Y-84937527D01*
X148588214Y-84937538D01*
X148569909Y-85100000D01*
X148588214Y-85262461D01*
X148588216Y-85262469D01*
X148642211Y-85416776D01*
X148729188Y-85555199D01*
X148729190Y-85555201D01*
X148729192Y-85555204D01*
X148844796Y-85670808D01*
X148844798Y-85670809D01*
X148844800Y-85670811D01*
X148937713Y-85729192D01*
X148983225Y-85757789D01*
X149086285Y-85793851D01*
X149096843Y-85797546D01*
X149137539Y-85811786D01*
X149300000Y-85830091D01*
X149462461Y-85811786D01*
X149503156Y-85797546D01*
X149559702Y-85800721D01*
X149597443Y-85842951D01*
X149594268Y-85899499D01*
X149590254Y-85906763D01*
X149542210Y-85983224D01*
X149488216Y-86137530D01*
X149488214Y-86137538D01*
X149469909Y-86300000D01*
X149488214Y-86462461D01*
X149488216Y-86462469D01*
X149542211Y-86616776D01*
X149629188Y-86755199D01*
X149629190Y-86755201D01*
X149629192Y-86755204D01*
X149744796Y-86870808D01*
X149744798Y-86870809D01*
X149744800Y-86870811D01*
X149883223Y-86957788D01*
X149883225Y-86957789D01*
X150037539Y-87011786D01*
X150200000Y-87030091D01*
X150362461Y-87011786D01*
X150516775Y-86957789D01*
X150655204Y-86870808D01*
X150770808Y-86755204D01*
X150857789Y-86616775D01*
X150911786Y-86462461D01*
X150930091Y-86300000D01*
X150911786Y-86137539D01*
X150893608Y-86085589D01*
X150857790Y-85983226D01*
X150809745Y-85906764D01*
X150800258Y-85850927D01*
X150833032Y-85804735D01*
X150888869Y-85795248D01*
X150896841Y-85797545D01*
X150937539Y-85811786D01*
X151100000Y-85830091D01*
X151262461Y-85811786D01*
X151303156Y-85797546D01*
X151359702Y-85800721D01*
X151397443Y-85842951D01*
X151394268Y-85899499D01*
X151390254Y-85906763D01*
X151342210Y-85983224D01*
X151288216Y-86137530D01*
X151288214Y-86137538D01*
X151269909Y-86300000D01*
X151288214Y-86462461D01*
X151288216Y-86462469D01*
X151342211Y-86616776D01*
X151429188Y-86755199D01*
X151429190Y-86755201D01*
X151429192Y-86755204D01*
X151544796Y-86870808D01*
X151544798Y-86870809D01*
X151544800Y-86870811D01*
X151683223Y-86957788D01*
X151683225Y-86957789D01*
X151837539Y-87011786D01*
X152000000Y-87030091D01*
X152162461Y-87011786D01*
X152316775Y-86957789D01*
X152455204Y-86870808D01*
X152570808Y-86755204D01*
X152657789Y-86616775D01*
X152711786Y-86462461D01*
X152730091Y-86300000D01*
X152711786Y-86137539D01*
X152657789Y-85983225D01*
X152657788Y-85983223D01*
X152570811Y-85844800D01*
X152570809Y-85844798D01*
X152570808Y-85844796D01*
X152455204Y-85729192D01*
X152455201Y-85729190D01*
X152455199Y-85729188D01*
X152316776Y-85642211D01*
X152162469Y-85588216D01*
X152162461Y-85588214D01*
X152000000Y-85569909D01*
X151837538Y-85588214D01*
X151837535Y-85588215D01*
X151796843Y-85602454D01*
X151740295Y-85599277D01*
X151702555Y-85557046D01*
X151705732Y-85500498D01*
X151709746Y-85493235D01*
X151757788Y-85416776D01*
X151757789Y-85416775D01*
X151811786Y-85262461D01*
X151830091Y-85100000D01*
X151811786Y-84937539D01*
X151767389Y-84810659D01*
X151770564Y-84754112D01*
X151812795Y-84716372D01*
X151845515Y-84712684D01*
X152000000Y-84730091D01*
X152162461Y-84711786D01*
X152316775Y-84657789D01*
X152455204Y-84570808D01*
X152570808Y-84455204D01*
X152657789Y-84316775D01*
X152711786Y-84162461D01*
X152730091Y-84000000D01*
X152711786Y-83837539D01*
X152657789Y-83683225D01*
X152639496Y-83654112D01*
X152570811Y-83544800D01*
X152570809Y-83544798D01*
X152570808Y-83544796D01*
X152455204Y-83429192D01*
X152455201Y-83429190D01*
X152455199Y-83429188D01*
X152316776Y-83342211D01*
X152162469Y-83288216D01*
X152162461Y-83288214D01*
X152121750Y-83283627D01*
X152000000Y-83269909D01*
X151999999Y-83269909D01*
X151984672Y-83271636D01*
X151845520Y-83287314D01*
X151791098Y-83271636D01*
X151763701Y-83222065D01*
X151767389Y-83189339D01*
X151773427Y-83172083D01*
X151811786Y-83062461D01*
X151830091Y-82900000D01*
X151811786Y-82737539D01*
X151811783Y-82737530D01*
X151757790Y-82583226D01*
X151709745Y-82506764D01*
X151700258Y-82450927D01*
X151733032Y-82404735D01*
X151788869Y-82395248D01*
X151796841Y-82397545D01*
X151837539Y-82411786D01*
X152000000Y-82430091D01*
X152162461Y-82411786D01*
X152316775Y-82357789D01*
X152455204Y-82270808D01*
X152570808Y-82155204D01*
X152657789Y-82016775D01*
X152711786Y-81862461D01*
X152730091Y-81700000D01*
X152711786Y-81537539D01*
X152657789Y-81383225D01*
X152657189Y-81382270D01*
X152570811Y-81244800D01*
X152570809Y-81244798D01*
X152570808Y-81244796D01*
X152455204Y-81129192D01*
X152455201Y-81129190D01*
X152455199Y-81129188D01*
X152316776Y-81042211D01*
X152162469Y-80988216D01*
X152162461Y-80988214D01*
X152000000Y-80969909D01*
X151837538Y-80988214D01*
X151837530Y-80988216D01*
X151683223Y-81042211D01*
X151544800Y-81129188D01*
X151429188Y-81244800D01*
X151342211Y-81383223D01*
X151288216Y-81537530D01*
X151288214Y-81537538D01*
X151269909Y-81700000D01*
X151288214Y-81862461D01*
X151288216Y-81862469D01*
X151342210Y-82016775D01*
X151390254Y-82093236D01*
X151399741Y-82149073D01*
X151366966Y-82195264D01*
X151311129Y-82204751D01*
X151303156Y-82202453D01*
X151262472Y-82188217D01*
X151262461Y-82188214D01*
X151100000Y-82169909D01*
X150937538Y-82188214D01*
X150937535Y-82188215D01*
X150896843Y-82202454D01*
X150840295Y-82199277D01*
X150802555Y-82157046D01*
X150805732Y-82100498D01*
X150809746Y-82093235D01*
X150857788Y-82016776D01*
X150857789Y-82016775D01*
X150911786Y-81862461D01*
X150930091Y-81700000D01*
X150911786Y-81537539D01*
X150857789Y-81383225D01*
X150857189Y-81382270D01*
X150770811Y-81244800D01*
X150770809Y-81244798D01*
X150770808Y-81244796D01*
X150655204Y-81129192D01*
X150655201Y-81129190D01*
X150655199Y-81129188D01*
X150516776Y-81042211D01*
X150362469Y-80988216D01*
X150362461Y-80988214D01*
X150200000Y-80969909D01*
X150037538Y-80988214D01*
X150037530Y-80988216D01*
X149883223Y-81042211D01*
X149744800Y-81129188D01*
X149629188Y-81244800D01*
X149542211Y-81383223D01*
X149488216Y-81537530D01*
X149488214Y-81537538D01*
X149469909Y-81700000D01*
X149488214Y-81862461D01*
X149488216Y-81862469D01*
X149542210Y-82016775D01*
X149590254Y-82093236D01*
X149599741Y-82149073D01*
X149566966Y-82195264D01*
X149511129Y-82204751D01*
X149503156Y-82202453D01*
X149462472Y-82188217D01*
X149462461Y-82188214D01*
X149300000Y-82169909D01*
X149137538Y-82188214D01*
X149137530Y-82188216D01*
X148983223Y-82242211D01*
X148844800Y-82329188D01*
X148729188Y-82444800D01*
X148642211Y-82583223D01*
X148588216Y-82737530D01*
X148588214Y-82737538D01*
X148569909Y-82900000D01*
X148588214Y-83062461D01*
X148588216Y-83062469D01*
X148632610Y-83189339D01*
X148629435Y-83245888D01*
X148587204Y-83283627D01*
X148554479Y-83287314D01*
X148400000Y-83269909D01*
X148237538Y-83288214D01*
X148237530Y-83288216D01*
X148083223Y-83342211D01*
X147944800Y-83429188D01*
X147829188Y-83544800D01*
X147742211Y-83683223D01*
X147688216Y-83837530D01*
X147688214Y-83837538D01*
X147669909Y-84000000D01*
X130200500Y-84000000D01*
X130200500Y-82060000D01*
X133504396Y-82060000D01*
X133524779Y-82318995D01*
X133585425Y-82571605D01*
X133684847Y-82811630D01*
X133684851Y-82811638D01*
X133820586Y-83033137D01*
X133820588Y-83033140D01*
X133889999Y-83114410D01*
X133989308Y-83230686D01*
X133989313Y-83230691D01*
X134035232Y-83269909D01*
X134186860Y-83399412D01*
X134186862Y-83399413D01*
X134408361Y-83535148D01*
X134408367Y-83535151D01*
X134408372Y-83535154D01*
X134648390Y-83634573D01*
X134901006Y-83695221D01*
X135160000Y-83715604D01*
X135418994Y-83695221D01*
X135671610Y-83634573D01*
X135911628Y-83535154D01*
X136133140Y-83399412D01*
X136330689Y-83230689D01*
X136373730Y-83180293D01*
X136424193Y-83154581D01*
X136478059Y-83172083D01*
X136486270Y-83180294D01*
X136529308Y-83230686D01*
X136529313Y-83230691D01*
X136575232Y-83269909D01*
X136726860Y-83399412D01*
X136726862Y-83399413D01*
X136948361Y-83535148D01*
X136948367Y-83535151D01*
X136948372Y-83535154D01*
X137188390Y-83634573D01*
X137441006Y-83695221D01*
X137700000Y-83715604D01*
X137958994Y-83695221D01*
X138211610Y-83634573D01*
X138451628Y-83535154D01*
X138673140Y-83399412D01*
X138870689Y-83230689D01*
X138913730Y-83180293D01*
X138964193Y-83154581D01*
X139018059Y-83172083D01*
X139026270Y-83180294D01*
X139069308Y-83230686D01*
X139069313Y-83230691D01*
X139115232Y-83269909D01*
X139266860Y-83399412D01*
X139266862Y-83399413D01*
X139488361Y-83535148D01*
X139488367Y-83535151D01*
X139488372Y-83535154D01*
X139728390Y-83634573D01*
X139981006Y-83695221D01*
X140240000Y-83715604D01*
X140498994Y-83695221D01*
X140751610Y-83634573D01*
X140991628Y-83535154D01*
X141213140Y-83399412D01*
X141410689Y-83230689D01*
X141579412Y-83033140D01*
X141715154Y-82811628D01*
X141814573Y-82571610D01*
X141875221Y-82318994D01*
X141895604Y-82060000D01*
X141875221Y-81801006D01*
X141814573Y-81548390D01*
X141715154Y-81308372D01*
X141715151Y-81308367D01*
X141715148Y-81308361D01*
X141579413Y-81086862D01*
X141579412Y-81086860D01*
X141410689Y-80889311D01*
X141410686Y-80889308D01*
X141303830Y-80798045D01*
X141213140Y-80720588D01*
X141213137Y-80720586D01*
X140991638Y-80584851D01*
X140991630Y-80584847D01*
X140979911Y-80579993D01*
X140751610Y-80485427D01*
X140751609Y-80485426D01*
X140751605Y-80485425D01*
X140498995Y-80424779D01*
X140240000Y-80404396D01*
X139981004Y-80424779D01*
X139728394Y-80485425D01*
X139488369Y-80584847D01*
X139488361Y-80584851D01*
X139266862Y-80720586D01*
X139266861Y-80720587D01*
X139069313Y-80889308D01*
X139069308Y-80889313D01*
X139026270Y-80939705D01*
X138975806Y-80965418D01*
X138921941Y-80947916D01*
X138913730Y-80939705D01*
X138870691Y-80889313D01*
X138870686Y-80889308D01*
X138763830Y-80798045D01*
X138673140Y-80720588D01*
X138673137Y-80720586D01*
X138451638Y-80584851D01*
X138451630Y-80584847D01*
X138439911Y-80579993D01*
X138211610Y-80485427D01*
X138211609Y-80485426D01*
X138211605Y-80485425D01*
X137958995Y-80424779D01*
X137700000Y-80404396D01*
X137441004Y-80424779D01*
X137188394Y-80485425D01*
X136948369Y-80584847D01*
X136948361Y-80584851D01*
X136726862Y-80720586D01*
X136726861Y-80720587D01*
X136529313Y-80889308D01*
X136529308Y-80889313D01*
X136486270Y-80939705D01*
X136435806Y-80965418D01*
X136381941Y-80947916D01*
X136373730Y-80939705D01*
X136330691Y-80889313D01*
X136330686Y-80889308D01*
X136223830Y-80798045D01*
X136133140Y-80720588D01*
X136133137Y-80720586D01*
X135911638Y-80584851D01*
X135911630Y-80584847D01*
X135899911Y-80579993D01*
X135671610Y-80485427D01*
X135671609Y-80485426D01*
X135671605Y-80485425D01*
X135418995Y-80424779D01*
X135160000Y-80404396D01*
X134901004Y-80424779D01*
X134648394Y-80485425D01*
X134408369Y-80584847D01*
X134408361Y-80584851D01*
X134186862Y-80720586D01*
X134186861Y-80720587D01*
X133989313Y-80889308D01*
X133989308Y-80889313D01*
X133820587Y-81086861D01*
X133820586Y-81086862D01*
X133684851Y-81308361D01*
X133684847Y-81308369D01*
X133585425Y-81548394D01*
X133524779Y-81801004D01*
X133504396Y-82060000D01*
X130200500Y-82060000D01*
X130200500Y-81854536D01*
X130222174Y-81802210D01*
X130264841Y-81781169D01*
X130352014Y-81769693D01*
X130579993Y-81708606D01*
X130798049Y-81618284D01*
X131002450Y-81500273D01*
X131189699Y-81356592D01*
X131356592Y-81189699D01*
X131500273Y-81002450D01*
X131618284Y-80798049D01*
X131708606Y-80579993D01*
X131769693Y-80352014D01*
X131770673Y-80344562D01*
X131781170Y-80264841D01*
X131809489Y-80215792D01*
X131854537Y-80200500D01*
X168145463Y-80200500D01*
X168197789Y-80222174D01*
G37*
%TD.AperFunction*%
%TA.AperFunction,Conductor*%
G36*
X137035359Y-118495258D02*
G01*
X137117437Y-118618097D01*
X137221903Y-118722563D01*
X137344742Y-118804641D01*
X137375974Y-118817577D01*
X136720354Y-119473197D01*
X136727154Y-119479005D01*
X136727162Y-119479011D01*
X136948589Y-119614701D01*
X136948596Y-119614705D01*
X137051025Y-119657133D01*
X137091073Y-119697182D01*
X137091073Y-119753819D01*
X137051024Y-119793867D01*
X137022706Y-119799500D01*
X135837294Y-119799500D01*
X135784968Y-119777826D01*
X135763294Y-119725500D01*
X135784968Y-119673174D01*
X135808975Y-119657133D01*
X135911403Y-119614705D01*
X135911410Y-119614701D01*
X136132839Y-119479009D01*
X136132846Y-119479004D01*
X136139644Y-119473198D01*
X135484024Y-118817578D01*
X135515258Y-118804641D01*
X135638097Y-118722563D01*
X135742563Y-118618097D01*
X135824641Y-118495258D01*
X135837578Y-118464025D01*
X136430000Y-119056447D01*
X137022421Y-118464025D01*
X137035359Y-118495258D01*
G37*
%TD.AperFunction*%
%TA.AperFunction,Conductor*%
G36*
X139575359Y-118495258D02*
G01*
X139657437Y-118618097D01*
X139761903Y-118722563D01*
X139884742Y-118804641D01*
X139915974Y-118817577D01*
X139260354Y-119473197D01*
X139267154Y-119479005D01*
X139267162Y-119479011D01*
X139488589Y-119614701D01*
X139488596Y-119614705D01*
X139591025Y-119657133D01*
X139631073Y-119697182D01*
X139631073Y-119753819D01*
X139591024Y-119793867D01*
X139562706Y-119799500D01*
X138377294Y-119799500D01*
X138324968Y-119777826D01*
X138303294Y-119725500D01*
X138324968Y-119673174D01*
X138348975Y-119657133D01*
X138451403Y-119614705D01*
X138451410Y-119614701D01*
X138672839Y-119479009D01*
X138672846Y-119479004D01*
X138679644Y-119473198D01*
X138024024Y-118817578D01*
X138055258Y-118804641D01*
X138178097Y-118722563D01*
X138282563Y-118618097D01*
X138364641Y-118495258D01*
X138377578Y-118464025D01*
X138970000Y-119056447D01*
X139562421Y-118464025D01*
X139575359Y-118495258D01*
G37*
%TD.AperFunction*%
%TD*%
M02*
