%TF.GenerationSoftware,KiCad,Pcbnew,8.0.5*%
%TF.CreationDate,2025-01-19T00:45:46+01:00*%
%TF.ProjectId,BatteryMonitor,42617474-6572-4794-9d6f-6e69746f722e,rev?*%
%TF.SameCoordinates,Original*%
%TF.FileFunction,Copper,L1,Top*%
%TF.FilePolarity,Positive*%
%FSLAX46Y46*%
G04 Gerber Fmt 4.6, Leading zero omitted, Abs format (unit mm)*
G04 Created by KiCad (PCBNEW 8.0.5) date 2025-01-19 00:45:46*
%MOMM*%
%LPD*%
G01*
G04 APERTURE LIST*
G04 Aperture macros list*
%AMRoundRect*
0 Rectangle with rounded corners*
0 $1 Rounding radius*
0 $2 $3 $4 $5 $6 $7 $8 $9 X,Y pos of 4 corners*
0 Add a 4 corners polygon primitive as box body*
4,1,4,$2,$3,$4,$5,$6,$7,$8,$9,$2,$3,0*
0 Add four circle primitives for the rounded corners*
1,1,$1+$1,$2,$3*
1,1,$1+$1,$4,$5*
1,1,$1+$1,$6,$7*
1,1,$1+$1,$8,$9*
0 Add four rect primitives between the rounded corners*
20,1,$1+$1,$2,$3,$4,$5,0*
20,1,$1+$1,$4,$5,$6,$7,0*
20,1,$1+$1,$6,$7,$8,$9,0*
20,1,$1+$1,$8,$9,$2,$3,0*%
%AMFreePoly0*
4,1,93,-0.830491,2.973079,-0.794443,2.958147,-0.766853,2.930557,-0.751921,2.894509,-0.750000,2.875000,-0.750000,2.280000,0.350000,2.280000,0.350000,2.875000,0.351921,2.894509,0.366853,2.930557,0.394443,2.958147,0.430491,2.973079,0.450000,2.975000,1.160000,2.975000,1.179509,2.973079,1.215557,2.958147,1.243147,2.930557,1.258079,2.894509,1.260000,2.875000,1.260000,2.280000,
2.630000,2.280000,2.649509,2.278079,2.685557,2.263147,2.713147,2.235557,2.728079,2.199509,2.730000,2.180000,2.730000,1.630000,2.728079,1.610491,2.713147,1.574443,2.685557,1.546853,2.649509,1.531921,2.630000,1.530000,2.030000,1.530000,2.030000,-1.530000,2.630000,-1.530000,2.649509,-1.531921,2.685557,-1.546853,2.713147,-1.574443,2.728079,-1.610491,2.730000,-1.630000,
2.730000,-2.180000,2.728079,-2.199509,2.713147,-2.235557,2.685557,-2.263147,2.649509,-2.278079,2.630000,-2.280000,1.260000,-2.280000,1.260000,-2.875000,1.258079,-2.894509,1.243147,-2.930557,1.215557,-2.958147,1.179509,-2.973079,1.160000,-2.975000,0.450000,-2.975000,0.430491,-2.973079,0.394443,-2.958147,0.366853,-2.930557,0.351921,-2.894509,0.350000,-2.875000,0.350000,-2.280000,
-0.750000,-2.280000,-0.750000,-2.875000,-0.751921,-2.894509,-0.766853,-2.930557,-0.794443,-2.958147,-0.830491,-2.973079,-0.850000,-2.975000,-1.560000,-2.975000,-1.579509,-2.973079,-1.615557,-2.958147,-1.643147,-2.930557,-1.658079,-2.894509,-1.660000,-2.875000,-1.660000,-2.280000,-1.827000,-2.280000,-1.904685,-2.264548,-1.970543,-2.220543,-2.014548,-2.154685,-2.030000,-2.077000,-2.030000,2.077000,
-2.014548,2.154685,-1.970543,2.220543,-1.904685,2.264548,-1.827000,2.280000,-1.660000,2.280000,-1.660000,2.875000,-1.658079,2.894509,-1.643147,2.930557,-1.615557,2.958147,-1.579509,2.973079,-1.560000,2.975000,-0.850000,2.975000,-0.830491,2.973079,-0.830491,2.973079,$1*%
G04 Aperture macros list end*
%TA.AperFunction,EtchedComponent*%
%ADD10C,0.200000*%
%TD*%
%TA.AperFunction,SMDPad,CuDef*%
%ADD11RoundRect,0.225000X0.225000X0.375000X-0.225000X0.375000X-0.225000X-0.375000X0.225000X-0.375000X0*%
%TD*%
%TA.AperFunction,SMDPad,CuDef*%
%ADD12RoundRect,0.200000X-0.200000X-0.275000X0.200000X-0.275000X0.200000X0.275000X-0.200000X0.275000X0*%
%TD*%
%TA.AperFunction,SMDPad,CuDef*%
%ADD13RoundRect,0.225000X-0.250000X0.225000X-0.250000X-0.225000X0.250000X-0.225000X0.250000X0.225000X0*%
%TD*%
%TA.AperFunction,SMDPad,CuDef*%
%ADD14RoundRect,0.200000X-0.275000X0.200000X-0.275000X-0.200000X0.275000X-0.200000X0.275000X0.200000X0*%
%TD*%
%TA.AperFunction,SMDPad,CuDef*%
%ADD15RoundRect,0.307500X0.307500X1.337500X-0.307500X1.337500X-0.307500X-1.337500X0.307500X-1.337500X0*%
%TD*%
%TA.AperFunction,SMDPad,CuDef*%
%ADD16RoundRect,0.187500X0.427500X0.187500X-0.427500X0.187500X-0.427500X-0.187500X0.427500X-0.187500X0*%
%TD*%
%TA.AperFunction,SMDPad,CuDef*%
%ADD17FreePoly0,180.000000*%
%TD*%
%TA.AperFunction,SMDPad,CuDef*%
%ADD18RoundRect,0.307500X-0.307500X-1.337500X0.307500X-1.337500X0.307500X1.337500X-0.307500X1.337500X0*%
%TD*%
%TA.AperFunction,SMDPad,CuDef*%
%ADD19RoundRect,0.187500X-0.427500X-0.187500X0.427500X-0.187500X0.427500X0.187500X-0.427500X0.187500X0*%
%TD*%
%TA.AperFunction,SMDPad,CuDef*%
%ADD20FreePoly0,0.000000*%
%TD*%
%TA.AperFunction,SMDPad,CuDef*%
%ADD21RoundRect,0.225000X0.250000X-0.225000X0.250000X0.225000X-0.250000X0.225000X-0.250000X-0.225000X0*%
%TD*%
%TA.AperFunction,SMDPad,CuDef*%
%ADD22RoundRect,0.200000X0.200000X0.275000X-0.200000X0.275000X-0.200000X-0.275000X0.200000X-0.275000X0*%
%TD*%
%TA.AperFunction,SMDPad,CuDef*%
%ADD23RoundRect,0.225000X0.375000X-0.225000X0.375000X0.225000X-0.375000X0.225000X-0.375000X-0.225000X0*%
%TD*%
%TA.AperFunction,SMDPad,CuDef*%
%ADD24RoundRect,0.225000X0.225000X0.250000X-0.225000X0.250000X-0.225000X-0.250000X0.225000X-0.250000X0*%
%TD*%
%TA.AperFunction,SMDPad,CuDef*%
%ADD25RoundRect,0.250000X0.475000X-0.250000X0.475000X0.250000X-0.475000X0.250000X-0.475000X-0.250000X0*%
%TD*%
%TA.AperFunction,SMDPad,CuDef*%
%ADD26RoundRect,0.062500X0.375000X0.062500X-0.375000X0.062500X-0.375000X-0.062500X0.375000X-0.062500X0*%
%TD*%
%TA.AperFunction,SMDPad,CuDef*%
%ADD27RoundRect,0.062500X0.062500X0.375000X-0.062500X0.375000X-0.062500X-0.375000X0.062500X-0.375000X0*%
%TD*%
%TA.AperFunction,HeatsinkPad*%
%ADD28R,3.450000X3.450000*%
%TD*%
%TA.AperFunction,SMDPad,CuDef*%
%ADD29RoundRect,0.225000X-0.225000X-0.250000X0.225000X-0.250000X0.225000X0.250000X-0.225000X0.250000X0*%
%TD*%
%TA.AperFunction,SMDPad,CuDef*%
%ADD30RoundRect,0.237500X0.237500X-0.987500X0.237500X0.987500X-0.237500X0.987500X-0.237500X-0.987500X0*%
%TD*%
%TA.AperFunction,SMDPad,CuDef*%
%ADD31RoundRect,0.237500X-0.237500X0.987500X-0.237500X-0.987500X0.237500X-0.987500X0.237500X0.987500X0*%
%TD*%
%TA.AperFunction,SMDPad,CuDef*%
%ADD32RoundRect,0.250000X0.250000X-0.250000X0.250000X0.250000X-0.250000X0.250000X-0.250000X-0.250000X0*%
%TD*%
%TA.AperFunction,SMDPad,CuDef*%
%ADD33RoundRect,0.100000X0.712500X0.100000X-0.712500X0.100000X-0.712500X-0.100000X0.712500X-0.100000X0*%
%TD*%
%TA.AperFunction,SMDPad,CuDef*%
%ADD34RoundRect,0.200000X0.275000X-0.200000X0.275000X0.200000X-0.275000X0.200000X-0.275000X-0.200000X0*%
%TD*%
%TA.AperFunction,SMDPad,CuDef*%
%ADD35RoundRect,0.225000X-0.375000X0.225000X-0.375000X-0.225000X0.375000X-0.225000X0.375000X0.225000X0*%
%TD*%
%TA.AperFunction,SMDPad,CuDef*%
%ADD36O,0.700000X0.240000*%
%TD*%
%TA.AperFunction,SMDPad,CuDef*%
%ADD37O,0.240000X0.700000*%
%TD*%
%TA.AperFunction,HeatsinkPad*%
%ADD38R,2.049999X2.049999*%
%TD*%
%TA.AperFunction,SMDPad,CuDef*%
%ADD39RoundRect,0.250000X-0.650000X0.325000X-0.650000X-0.325000X0.650000X-0.325000X0.650000X0.325000X0*%
%TD*%
%TA.AperFunction,SMDPad,CuDef*%
%ADD40RoundRect,0.462963X-0.787037X-1.127037X0.787037X-1.127037X0.787037X1.127037X-0.787037X1.127037X0*%
%TD*%
%TA.AperFunction,SMDPad,CuDef*%
%ADD41RoundRect,0.250000X-0.250000X-1.450000X0.250000X-1.450000X0.250000X1.450000X-0.250000X1.450000X0*%
%TD*%
%TA.AperFunction,ComponentPad*%
%ADD42C,2.300000*%
%TD*%
%TA.AperFunction,ComponentPad*%
%ADD43C,3.000000*%
%TD*%
%TA.AperFunction,ComponentPad*%
%ADD44C,1.600000*%
%TD*%
%TA.AperFunction,ComponentPad*%
%ADD45C,1.800000*%
%TD*%
%TA.AperFunction,ViaPad*%
%ADD46C,0.450000*%
%TD*%
%TA.AperFunction,Conductor*%
%ADD47C,0.200000*%
%TD*%
%TA.AperFunction,Conductor*%
%ADD48C,0.500000*%
%TD*%
%TA.AperFunction,Conductor*%
%ADD49C,3.000000*%
%TD*%
%TA.AperFunction,Conductor*%
%ADD50C,0.150000*%
%TD*%
%TA.AperFunction,Conductor*%
%ADD51C,6.500000*%
%TD*%
%TA.AperFunction,Conductor*%
%ADD52C,4.500000*%
%TD*%
%TA.AperFunction,Conductor*%
%ADD53C,4.000000*%
%TD*%
%TA.AperFunction,Conductor*%
%ADD54C,1.000000*%
%TD*%
G04 APERTURE END LIST*
D10*
%TO.C,REF\u002A\u002A*%
X136300000Y-103150000D02*
X136300000Y-110050000D01*
X135700000Y-110650000D01*
X131500000Y-110650000D01*
X130900000Y-110050000D01*
X130900000Y-103150000D01*
X131500000Y-102550000D01*
X135700000Y-102550000D01*
X136300000Y-103150000D01*
%TA.AperFunction,EtchedComponent*%
G36*
X136300000Y-103150000D02*
G01*
X136300000Y-110050000D01*
X135700000Y-110650000D01*
X131500000Y-110650000D01*
X130900000Y-110050000D01*
X130900000Y-103150000D01*
X131500000Y-102550000D01*
X135700000Y-102550000D01*
X136300000Y-103150000D01*
G37*
%TD.AperFunction*%
%TD*%
D11*
%TO.P,D3,1,K*%
%TO.N,Net-(D3-K)*%
X162750000Y-110300000D03*
%TO.P,D3,2,A*%
%TO.N,Net-(D2-A)*%
X159450000Y-110300000D03*
%TD*%
D12*
%TO.P,R9,1*%
%TO.N,Net-(J3-Pin_2)*%
X139075000Y-97900000D03*
%TO.P,R9,2*%
%TO.N,Net-(U1-VC3A)*%
X140725000Y-97900000D03*
%TD*%
D13*
%TO.P,C13,1*%
%TO.N,Net-(U1-VC4A)*%
X144100000Y-94425000D03*
%TO.P,C13,2*%
%TO.N,Net-(U1-VC3A)*%
X144100000Y-95975000D03*
%TD*%
D14*
%TO.P,R17,1*%
%TO.N,Net-(U1-SRN)*%
X144300000Y-110375000D03*
%TO.P,R17,2*%
%TO.N,Net-(Q2-S)*%
X144300000Y-112025000D03*
%TD*%
D15*
%TO.P,Q3,1,S*%
%TO.N,Net-(D3-K)*%
X159960000Y-115335000D03*
D16*
%TO.P,Q3,2,G*%
%TO.N,Net-(D2-K)*%
X159960000Y-112795000D03*
D17*
%TO.P,Q3,3,D*%
%TO.N,Net-(Q2-D)*%
X156355000Y-114700000D03*
%TD*%
D18*
%TO.P,Q2,1,S*%
%TO.N,Net-(Q2-S)*%
X146540000Y-114065000D03*
D19*
%TO.P,Q2,2,G*%
%TO.N,Net-(Q2-G)*%
X146540000Y-116605000D03*
D20*
%TO.P,Q2,3,D*%
%TO.N,Net-(Q2-D)*%
X150145000Y-114700000D03*
%TD*%
D21*
%TO.P,C11,1*%
%TO.N,Net-(J4-Pin_1)*%
X135100000Y-91675000D03*
%TO.P,C11,2*%
%TO.N,GNDEXT*%
X135100000Y-90125000D03*
%TD*%
D12*
%TO.P,R12,1*%
%TO.N,GND*%
X139075000Y-103300000D03*
%TO.P,R12,2*%
%TO.N,Net-(U1-VC0)*%
X140725000Y-103300000D03*
%TD*%
D22*
%TO.P,R4,1*%
%TO.N,+3.3V*%
X157225000Y-106000000D03*
%TO.P,R4,2*%
%TO.N,/SCL_BMS*%
X155575000Y-106000000D03*
%TD*%
D23*
%TO.P,D2,1,K*%
%TO.N,Net-(D2-K)*%
X157500000Y-110750000D03*
%TO.P,D2,2,A*%
%TO.N,Net-(D2-A)*%
X157500000Y-107450000D03*
%TD*%
D13*
%TO.P,C24,1*%
%TO.N,+BATT*%
X168000000Y-99825000D03*
%TO.P,C24,2*%
%TO.N,Net-(D3-K)*%
X168000000Y-101375000D03*
%TD*%
D14*
%TO.P,R14,1*%
%TO.N,Net-(U1-DSG)*%
X153400000Y-108675000D03*
%TO.P,R14,2*%
%TO.N,Net-(Q2-G)*%
X153400000Y-110325000D03*
%TD*%
D13*
%TO.P,C3,1*%
%TO.N,GND*%
X147900000Y-93825000D03*
%TO.P,C3,2*%
%TO.N,+3.3V*%
X147900000Y-95375000D03*
%TD*%
D24*
%TO.P,C2,1*%
%TO.N,GND*%
X150875000Y-89600000D03*
%TO.P,C2,2*%
%TO.N,+3.3V*%
X149325000Y-89600000D03*
%TD*%
D21*
%TO.P,C1,1*%
%TO.N,GND*%
X155900000Y-93675000D03*
%TO.P,C1,2*%
%TO.N,+3.3V*%
X155900000Y-92125000D03*
%TD*%
D22*
%TO.P,R21,1*%
%TO.N,Net-(R21-Pad1)*%
X139925000Y-105600000D03*
%TO.P,R21,2*%
%TO.N,/TS*%
X138275000Y-105600000D03*
%TD*%
D13*
%TO.P,C16,1*%
%TO.N,Net-(Q1-D)*%
X146300000Y-91025000D03*
%TO.P,C16,2*%
%TO.N,+3.3V*%
X146300000Y-92575000D03*
%TD*%
D12*
%TO.P,R10,1*%
%TO.N,Net-(J3-Pin_3)*%
X139075000Y-99700000D03*
%TO.P,R10,2*%
%TO.N,Net-(U1-VC2)*%
X140725000Y-99700000D03*
%TD*%
D13*
%TO.P,C23,1*%
%TO.N,Net-(U1-SRP)*%
X145900000Y-108725000D03*
%TO.P,C23,2*%
%TO.N,Net-(U1-SRN)*%
X145900000Y-110275000D03*
%TD*%
D21*
%TO.P,C22,1*%
%TO.N,GND*%
X149100000Y-110275000D03*
%TO.P,C22,2*%
%TO.N,Net-(U1-SRN)*%
X149100000Y-108725000D03*
%TD*%
D25*
%TO.P,C8,1*%
%TO.N,GND*%
X153400000Y-104750000D03*
%TO.P,C8,2*%
%TO.N,+3.3V*%
X153400000Y-102850000D03*
%TD*%
D13*
%TO.P,C21,1*%
%TO.N,Net-(U1-SRP)*%
X147490000Y-108725000D03*
%TO.P,C21,2*%
%TO.N,Net-(U1-SRN)*%
X147490000Y-110275000D03*
%TD*%
D26*
%TO.P,U2,1,PC14*%
%TO.N,/PWR_SWITCH*%
X154337500Y-95250000D03*
%TO.P,U2,2,PC15*%
%TO.N,unconnected-(U2-PC15-Pad2)*%
X154337500Y-94750000D03*
%TO.P,U2,3,NRST*%
%TO.N,Net-(J1-Pin_5)*%
X154337500Y-94250000D03*
%TO.P,U2,4,VSSA*%
%TO.N,GND*%
X154337500Y-93750000D03*
%TO.P,U2,5,VDDA*%
%TO.N,+3.3V*%
X154337500Y-93250000D03*
%TO.P,U2,6,PA0*%
%TO.N,unconnected-(U2-PA0-Pad6)*%
X154337500Y-92750000D03*
%TO.P,U2,7,PA1*%
%TO.N,unconnected-(U2-PA1-Pad7)*%
X154337500Y-92250000D03*
%TO.P,U2,8,PA2*%
%TO.N,Net-(U2-PA2)*%
X154337500Y-91750000D03*
D27*
%TO.P,U2,9,PA3*%
%TO.N,Net-(U2-PA3)*%
X153650000Y-91062500D03*
%TO.P,U2,10,PA4*%
%TO.N,unconnected-(U2-PA4-Pad10)*%
X153150000Y-91062500D03*
%TO.P,U2,11,PA5*%
%TO.N,unconnected-(U2-PA5-Pad11)*%
X152650000Y-91062500D03*
%TO.P,U2,12,PA6*%
%TO.N,unconnected-(U2-PA6-Pad12)*%
X152150000Y-91062500D03*
%TO.P,U2,13,PA7*%
%TO.N,unconnected-(U2-PA7-Pad13)*%
X151650000Y-91062500D03*
%TO.P,U2,14,PB0*%
%TO.N,unconnected-(U2-PB0-Pad14)*%
X151150000Y-91062500D03*
%TO.P,U2,15,PB1*%
%TO.N,unconnected-(U2-PB1-Pad15)*%
X150650000Y-91062500D03*
%TO.P,U2,16,VSS*%
%TO.N,GND*%
X150150000Y-91062500D03*
D26*
%TO.P,U2,17,VDD*%
%TO.N,+3.3V*%
X149462500Y-91750000D03*
%TO.P,U2,18,PA8*%
%TO.N,/SCL_BMS*%
X149462500Y-92250000D03*
%TO.P,U2,19,PA9*%
%TO.N,Net-(Q1-G)*%
X149462500Y-92750000D03*
%TO.P,U2,20,PA10*%
%TO.N,unconnected-(U2-PA10-Pad20)*%
X149462500Y-93250000D03*
%TO.P,U2,21,PA11*%
%TO.N,unconnected-(U2-PA11-Pad21)*%
X149462500Y-93750000D03*
%TO.P,U2,22,PA12*%
%TO.N,unconnected-(U2-PA12-Pad22)*%
X149462500Y-94250000D03*
%TO.P,U2,23,PA13*%
%TO.N,/SWDIO*%
X149462500Y-94750000D03*
%TO.P,U2,24,VDDIO2*%
%TO.N,+3.3V*%
X149462500Y-95250000D03*
D27*
%TO.P,U2,25,PA14*%
%TO.N,/SWCLK*%
X150150000Y-95937500D03*
%TO.P,U2,26,PB4*%
%TO.N,Net-(U1-SDA)*%
X150650000Y-95937500D03*
%TO.P,U2,27,PB5*%
%TO.N,Net-(U1-ALERT)*%
X151150000Y-95937500D03*
%TO.P,U2,28,PB6*%
%TO.N,/SCL_ISO*%
X151650000Y-95937500D03*
%TO.P,U2,29,PB7*%
%TO.N,/SDA_ISO*%
X152150000Y-95937500D03*
%TO.P,U2,30,BOOT0*%
%TO.N,GND*%
X152650000Y-95937500D03*
%TO.P,U2,31,VSS*%
X153150000Y-95937500D03*
%TO.P,U2,32,VDD*%
%TO.N,+3.3V*%
X153650000Y-95937500D03*
D28*
%TO.P,U2,33,VSS*%
%TO.N,GND*%
X151900000Y-93500000D03*
%TD*%
D12*
%TO.P,R19,1*%
%TO.N,Net-(D2-K)*%
X161475000Y-112300000D03*
%TO.P,R19,2*%
%TO.N,Net-(D3-K)*%
X163125000Y-112300000D03*
%TD*%
D22*
%TO.P,R3,1*%
%TO.N,+3.3V*%
X157225000Y-104400000D03*
%TO.P,R3,2*%
%TO.N,Net-(U1-SDA)*%
X155575000Y-104400000D03*
%TD*%
D14*
%TO.P,R15,1*%
%TO.N,Net-(U1-CHG)*%
X155000000Y-108675000D03*
%TO.P,R15,2*%
%TO.N,Net-(D2-K)*%
X155000000Y-110325000D03*
%TD*%
D29*
%TO.P,C20,1*%
%TO.N,GND*%
X142725000Y-108890000D03*
%TO.P,C20,2*%
%TO.N,Net-(U1-SRP)*%
X144275000Y-108890000D03*
%TD*%
D13*
%TO.P,C15,1*%
%TO.N,Net-(U1-VC2)*%
X144100000Y-98025000D03*
%TO.P,C15,2*%
%TO.N,Net-(U1-VC1)*%
X144100000Y-99575000D03*
%TD*%
D22*
%TO.P,R2,1*%
%TO.N,+3.3V*%
X157225000Y-102800000D03*
%TO.P,R2,2*%
%TO.N,Net-(U1-ALERT)*%
X155575000Y-102800000D03*
%TD*%
D13*
%TO.P,C7,1*%
%TO.N,GND*%
X150800000Y-99625000D03*
%TO.P,C7,2*%
%TO.N,Net-(D1-K)*%
X150800000Y-101175000D03*
%TD*%
D30*
%TO.P,TP3,1,1*%
%TO.N,Net-(U1-SDA)*%
X156200000Y-100400000D03*
%TD*%
D13*
%TO.P,C9,1*%
%TO.N,Net-(J1-Pin_5)*%
X157500000Y-95625000D03*
%TO.P,C9,2*%
%TO.N,GND*%
X157500000Y-97175000D03*
%TD*%
D22*
%TO.P,R18,1*%
%TO.N,Net-(Q2-G)*%
X144925000Y-117600000D03*
%TO.P,R18,2*%
%TO.N,Net-(Q2-S)*%
X143275000Y-117600000D03*
%TD*%
D13*
%TO.P,C10,1*%
%TO.N,Net-(U1-VC5)*%
X142400000Y-94425000D03*
%TO.P,C10,2*%
%TO.N,Net-(U1-VC4A)*%
X142400000Y-95975000D03*
%TD*%
D31*
%TO.P,TP4,1,1*%
%TO.N,/SCL_BMS*%
X154500000Y-100400000D03*
%TD*%
D30*
%TO.P,TP5,1,1*%
%TO.N,Net-(U1-ALERT)*%
X152800000Y-100400000D03*
%TD*%
D32*
%TO.P,D1,1,K*%
%TO.N,Net-(D1-K)*%
X147400000Y-89450000D03*
%TO.P,D1,2,A*%
%TO.N,+BATT*%
X147400000Y-86950000D03*
%TD*%
D14*
%TO.P,R16,1*%
%TO.N,Net-(U1-SRP)*%
X142700000Y-110375000D03*
%TO.P,R16,2*%
%TO.N,GND*%
X142700000Y-112025000D03*
%TD*%
D33*
%TO.P,U3,1,VDD1*%
%TO.N,+3.3V*%
X142812500Y-92475000D03*
%TO.P,U3,2,SDA1*%
%TO.N,/SDA_ISO*%
X142812500Y-91825000D03*
%TO.P,U3,3,SCL1*%
%TO.N,/SCL_ISO*%
X142812500Y-91175000D03*
%TO.P,U3,4,GND1*%
%TO.N,Net-(Q1-D)*%
X142812500Y-90525000D03*
%TO.P,U3,5,GND2*%
%TO.N,GNDEXT*%
X138587500Y-90525000D03*
%TO.P,U3,6,SCL2*%
%TO.N,Net-(J4-Pin_3)*%
X138587500Y-91175000D03*
%TO.P,U3,7,SDA2*%
%TO.N,Net-(J4-Pin_2)*%
X138587500Y-91825000D03*
%TO.P,U3,8,VDD2*%
%TO.N,Net-(J4-Pin_1)*%
X138587500Y-92475000D03*
%TD*%
D12*
%TO.P,R5,1*%
%TO.N,Net-(J2-Pin_1)*%
X139075000Y-94300000D03*
%TO.P,R5,2*%
%TO.N,Net-(U1-VC5)*%
X140725000Y-94300000D03*
%TD*%
D34*
%TO.P,R1,1*%
%TO.N,+3.3V*%
X155900000Y-96725000D03*
%TO.P,R1,2*%
%TO.N,Net-(J1-Pin_5)*%
X155900000Y-95075000D03*
%TD*%
D35*
%TO.P,D4,1,K*%
%TO.N,/TS*%
X139600000Y-107150000D03*
%TO.P,D4,2,A*%
%TO.N,GND*%
X139600000Y-110450000D03*
%TD*%
D13*
%TO.P,C18,1*%
%TO.N,Net-(U1-VC0)*%
X144100000Y-101625000D03*
%TO.P,C18,2*%
%TO.N,GND*%
X144100000Y-103175000D03*
%TD*%
%TO.P,C14,1*%
%TO.N,Net-(U1-VC3A)*%
X142400000Y-98025000D03*
%TO.P,C14,2*%
%TO.N,Net-(U1-VC2)*%
X142400000Y-99575000D03*
%TD*%
D12*
%TO.P,R6,1*%
%TO.N,Net-(J3-Pin_1)*%
X139075000Y-96100000D03*
%TO.P,R6,2*%
%TO.N,Net-(U1-VC4A)*%
X140725000Y-96100000D03*
%TD*%
D13*
%TO.P,C19,1*%
%TO.N,Net-(Q1-D)*%
X144700000Y-91025000D03*
%TO.P,C19,2*%
%TO.N,+3.3V*%
X144700000Y-92575000D03*
%TD*%
%TO.P,C5,1*%
%TO.N,GND*%
X155900000Y-89125000D03*
%TO.P,C5,2*%
%TO.N,+3.3V*%
X155900000Y-90675000D03*
%TD*%
D12*
%TO.P,R11,1*%
%TO.N,/CELL1*%
X139075000Y-101500000D03*
%TO.P,R11,2*%
%TO.N,Net-(U1-VC1)*%
X140725000Y-101500000D03*
%TD*%
D13*
%TO.P,C17,1*%
%TO.N,Net-(U1-VC1)*%
X142400000Y-101625000D03*
%TO.P,C17,2*%
%TO.N,GND*%
X142400000Y-103175000D03*
%TD*%
D36*
%TO.P,U1,1,VC3A*%
%TO.N,Net-(U1-VC3A)*%
X148200000Y-103400000D03*
%TO.P,U1,2,VC3B*%
X148200000Y-103900000D03*
%TO.P,U1,3,VC2*%
%TO.N,Net-(U1-VC2)*%
X148200000Y-104400000D03*
%TO.P,U1,4,VC1*%
%TO.N,Net-(U1-VC1)*%
X148200000Y-104900000D03*
%TO.P,U1,5,VC0*%
%TO.N,Net-(U1-VC0)*%
X148200000Y-105400000D03*
D37*
%TO.P,U1,6,SRP*%
%TO.N,Net-(U1-SRP)*%
X148900000Y-106100000D03*
%TO.P,U1,7,SRN*%
%TO.N,Net-(U1-SRN)*%
X149400000Y-106100000D03*
%TO.P,U1,8,TS*%
%TO.N,/TS*%
X149900000Y-106100000D03*
%TO.P,U1,9,DSG*%
%TO.N,Net-(U1-DSG)*%
X150400000Y-106100000D03*
%TO.P,U1,10,CHG*%
%TO.N,Net-(U1-CHG)*%
X150900000Y-106100000D03*
D36*
%TO.P,U1,11,VSS*%
%TO.N,GND*%
X151600000Y-105400000D03*
%TO.P,U1,12,SCL*%
%TO.N,/SCL_BMS*%
X151600000Y-104900000D03*
%TO.P,U1,13,SDA*%
%TO.N,Net-(U1-SDA)*%
X151600000Y-104400000D03*
%TO.P,U1,14,ALERT*%
%TO.N,Net-(U1-ALERT)*%
X151600000Y-103900000D03*
%TO.P,U1,15,REGOUT*%
%TO.N,+3.3V*%
X151600000Y-103400000D03*
D37*
%TO.P,U1,16,REGSRC*%
%TO.N,Net-(D1-K)*%
X150900000Y-102700000D03*
%TO.P,U1,17,BAT*%
X150400000Y-102700000D03*
%TO.P,U1,18,VC5*%
%TO.N,Net-(U1-VC5)*%
X149900000Y-102700000D03*
%TO.P,U1,19,VC4A*%
%TO.N,Net-(U1-VC4A)*%
X149400000Y-102700000D03*
%TO.P,U1,20,VC4B*%
X148900000Y-102700000D03*
D38*
%TO.P,U1,21,EP*%
%TO.N,GND*%
X149900000Y-104400000D03*
%TD*%
D13*
%TO.P,C26,1*%
%TO.N,/TS*%
X151200000Y-108725000D03*
%TO.P,C26,2*%
%TO.N,GND*%
X151200000Y-110275000D03*
%TD*%
D39*
%TO.P,C6,1*%
%TO.N,GND*%
X148700000Y-98125000D03*
%TO.P,C6,2*%
%TO.N,Net-(D1-K)*%
X148700000Y-101075000D03*
%TD*%
D29*
%TO.P,C4,1*%
%TO.N,GND*%
X152825000Y-97500000D03*
%TO.P,C4,2*%
%TO.N,+3.3V*%
X154375000Y-97500000D03*
%TD*%
D21*
%TO.P,C12,1*%
%TO.N,Net-(J4-Pin_1)*%
X136700000Y-92275000D03*
%TO.P,C12,2*%
%TO.N,GNDEXT*%
X136700000Y-90725000D03*
%TD*%
D40*
%TO.P,F1,1*%
%TO.N,Net-(J2-Pin_1)*%
X143950000Y-84000000D03*
%TO.P,F1,2*%
%TO.N,+BATT*%
X149450000Y-84000000D03*
%TD*%
D29*
%TO.P,C25,1*%
%TO.N,Net-(Q2-S)*%
X152525000Y-118900000D03*
%TO.P,C25,2*%
%TO.N,Net-(D3-K)*%
X154075000Y-118900000D03*
%TD*%
D41*
%TO.P,R20,1*%
%TO.N,GND*%
X142750000Y-114700000D03*
%TO.P,R20,2*%
%TO.N,Net-(Q2-S)*%
X144250000Y-114700000D03*
%TD*%
D42*
%TO.P,J2,1,Pin_1*%
%TO.N,Net-(J2-Pin_1)*%
X140240000Y-87140000D03*
X140240000Y-82060000D03*
X137700000Y-87140000D03*
X137700000Y-82060000D03*
X135160000Y-87140000D03*
X135160000Y-82060000D03*
%TD*%
%TO.P,J5,1,Pin_1*%
%TO.N,GND*%
X140240000Y-118140000D03*
X140240000Y-113060000D03*
X137700000Y-118140000D03*
X137700000Y-113060000D03*
X135160000Y-118140000D03*
X135160000Y-113060000D03*
%TD*%
D43*
%TO.P,J6,1,Pin_1*%
%TO.N,Net-(D3-K)*%
X164525000Y-105737500D03*
X164525000Y-103437500D03*
%TO.P,J6,2,Pin_2*%
%TO.N,+BATT*%
X164525000Y-97937500D03*
X164525000Y-95637500D03*
D44*
%TO.P,J6,3,Pin_3*%
%TO.N,unconnected-(J6-Pin_3-Pad3)*%
X161150000Y-104337500D03*
%TO.P,J6,4,Pin_4*%
%TO.N,unconnected-(J6-Pin_4-Pad4)*%
X161150000Y-100687500D03*
%TO.P,J6,5,Pin_5*%
%TO.N,unconnected-(J6-Pin_5-Pad5)*%
X161150000Y-97037500D03*
%TO.P,J6,M*%
%TO.N,N/C*%
X168325000Y-107937500D03*
D45*
X168325000Y-105987500D03*
X168325000Y-95387500D03*
D44*
X168325000Y-93437500D03*
X159875000Y-107937500D03*
D45*
X159875000Y-105987500D03*
X159875000Y-95387500D03*
D44*
X159875000Y-93437500D03*
%TD*%
D46*
%TO.N,GND*%
X151700000Y-102500000D03*
X150700000Y-93500000D03*
X150700000Y-92200000D03*
X150800000Y-99625000D03*
X149100000Y-110275000D03*
X151900000Y-93500000D03*
X147790000Y-93980000D03*
X138962500Y-89350000D03*
X151900000Y-92200000D03*
X157500000Y-97175000D03*
X149200000Y-103700000D03*
X155900000Y-93675000D03*
X153200000Y-93500000D03*
X139075000Y-103300000D03*
X142725000Y-108890000D03*
X162875000Y-118362500D03*
X150875000Y-89600000D03*
X150600000Y-105100000D03*
X137200000Y-89475000D03*
X149200000Y-105100000D03*
X145700000Y-95400000D03*
X150700000Y-94800000D03*
X144700000Y-100600000D03*
X153200000Y-92200000D03*
X155900000Y-89125000D03*
X144100000Y-103175000D03*
X142400000Y-103175000D03*
X148900000Y-99600000D03*
X153400000Y-104750000D03*
X153060000Y-97230000D03*
X151200000Y-110275000D03*
X153200000Y-94800000D03*
X149900000Y-104400000D03*
X141550000Y-95270000D03*
X151900000Y-94800000D03*
X145000000Y-105000000D03*
X139600000Y-110450000D03*
X150600000Y-103700000D03*
X148700000Y-98125000D03*
%TO.N,+3.3V*%
X144370000Y-87750000D03*
X149000000Y-96856934D03*
%TO.N,Net-(J1-Pin_5)*%
X157500000Y-95625000D03*
X156630000Y-97650000D03*
X153640000Y-98090000D03*
%TO.N,+BATT*%
X150200000Y-86300000D03*
X150200000Y-81700000D03*
X149300000Y-85100000D03*
X152000000Y-86300000D03*
X149300000Y-82900000D03*
X151100000Y-85100000D03*
X148400000Y-84000000D03*
X150200000Y-84000000D03*
X151100000Y-82900000D03*
X152000000Y-84000000D03*
X152000000Y-81700000D03*
%TO.N,GNDEXT*%
X143930000Y-88260000D03*
%TO.N,/TS*%
X137430000Y-105600000D03*
%TO.N,/SWDIO*%
X148830000Y-94750000D03*
%TO.N,/SWCLK*%
X148860000Y-95940000D03*
%TO.N,/CELL1*%
X139075000Y-101500000D03*
%TO.N,Net-(J3-Pin_1)*%
X139075000Y-96100000D03*
%TO.N,Net-(J3-Pin_3)*%
X139075000Y-99700000D03*
%TO.N,Net-(J3-Pin_2)*%
X138920000Y-98240000D03*
%TO.N,Net-(J4-Pin_3)*%
X144340000Y-88730000D03*
%TO.N,Net-(J4-Pin_1)*%
X144310000Y-89710000D03*
%TO.N,Net-(Q1-G)*%
X148630000Y-92660000D03*
%TO.N,Net-(Q1-D)*%
X141280000Y-91040000D03*
%TO.N,Net-(U1-SDA)*%
X152500000Y-98560000D03*
X150650000Y-98000000D03*
%TO.N,Net-(J4-Pin_2)*%
X143910000Y-89220000D03*
%TO.N,Net-(U2-PA2)*%
X154880000Y-90200000D03*
%TO.N,Net-(U2-PA3)*%
X154280000Y-89820000D03*
%TO.N,/PWR_SWITCH*%
X154930000Y-96570000D03*
%TO.N,Net-(Q2-D)*%
X153300000Y-113800000D03*
X154400000Y-113000000D03*
X156100000Y-114700000D03*
X154400000Y-114700000D03*
X148700000Y-116400000D03*
X157800000Y-113000000D03*
X152100000Y-116400000D03*
X150400000Y-113000000D03*
X150400000Y-116400000D03*
X148700000Y-114700000D03*
X154400000Y-116400000D03*
X152100000Y-113000000D03*
X153300000Y-115600000D03*
X157800000Y-114700000D03*
X148700000Y-113000000D03*
X156100000Y-116400000D03*
X157800000Y-116400000D03*
X156100000Y-113000000D03*
X152100000Y-114700000D03*
X150400000Y-114700000D03*
%TO.N,/SDA_ISO*%
X151990000Y-97150000D03*
X142812500Y-91825000D03*
%TO.N,Net-(R21-Pad1)*%
X139925000Y-105600000D03*
%TO.N,/SCL_BMS*%
X154710000Y-104580000D03*
X148590000Y-92020000D03*
X154500000Y-100400000D03*
%TO.N,/SCL_ISO*%
X143170000Y-91180000D03*
X151660000Y-96650000D03*
%TD*%
D47*
%TO.N,Net-(D2-K)*%
X155000000Y-110325000D02*
X156473960Y-110325000D01*
X156473960Y-110325000D02*
G75*
G02*
X157500012Y-110749988I40J-1451000D01*
G01*
D48*
%TO.N,Net-(D3-K)*%
X164137918Y-111687918D02*
G75*
G02*
X164524983Y-112622416I-934518J-934482D01*
G01*
X162750000Y-110300000D02*
X164137918Y-111687918D01*
%TO.N,Net-(D2-A)*%
X158136396Y-108986396D02*
X159450000Y-110300000D01*
X157500000Y-107450000D02*
G75*
G03*
X158136394Y-108986398I2172800J0D01*
G01*
%TO.N,Net-(D2-K)*%
X158421837Y-111131838D02*
X159110000Y-111820000D01*
X159110000Y-111820000D02*
X159871611Y-112581611D01*
X159871611Y-112581611D02*
G75*
G02*
X159959993Y-112795000I-213411J-213389D01*
G01*
X157500000Y-110750000D02*
G75*
G02*
X158421843Y-111131832I0J-1303700D01*
G01*
D47*
%TO.N,GND*%
X154337500Y-93750000D02*
X153803553Y-93750000D01*
X154337500Y-93750000D02*
X155718934Y-93750000D01*
X150150000Y-91062500D02*
X150150000Y-90574558D01*
D49*
X137700000Y-113060000D02*
X137700000Y-118140000D01*
D47*
X151600000Y-105400000D02*
X151324264Y-105400000D01*
X150312426Y-91912426D02*
X150600000Y-92200000D01*
D50*
X142750000Y-114700000D02*
X142750000Y-112145710D01*
D47*
X153150000Y-95937500D02*
X153150000Y-96715381D01*
D49*
X140240000Y-113060000D02*
X140240000Y-118140000D01*
D47*
X150330000Y-90140000D02*
X150866464Y-89603536D01*
X153150000Y-95937500D02*
X153150000Y-94920710D01*
X147868180Y-93901820D02*
X147790000Y-93980000D01*
X152650000Y-95937500D02*
X152650000Y-94827817D01*
X153105201Y-97184799D02*
X153060000Y-97230000D01*
X150866464Y-89603536D02*
X150875000Y-89600000D01*
D49*
X135160000Y-113060000D02*
X135160000Y-118140000D01*
D47*
X153105201Y-97038392D02*
X153105201Y-97184799D01*
X150150000Y-91062500D02*
X150150000Y-91520295D01*
X153150000Y-96715381D02*
G75*
G02*
X153105190Y-97038389I-1274400J12181D01*
G01*
X150150000Y-90574558D02*
G75*
G02*
X150330012Y-90140012I614600J-42D01*
G01*
X153803553Y-93750000D02*
G75*
G02*
X153200014Y-93499986I47J853600D01*
G01*
X151900000Y-93500000D02*
G75*
G03*
X151857583Y-93397564I-144900J0D01*
G01*
X153150000Y-94920710D02*
G75*
G02*
X153199997Y-94799997I170700J10D01*
G01*
X151324264Y-105400000D02*
G75*
G02*
X150600011Y-105099989I36J1024300D01*
G01*
X150150000Y-91520295D02*
G75*
G03*
X150312415Y-91912437I554600J-5D01*
G01*
X155718934Y-93750000D02*
G75*
G03*
X155899990Y-93674990I-34J256100D01*
G01*
X147900000Y-93825000D02*
G75*
G02*
X147868172Y-93901812I-108600J0D01*
G01*
X152650000Y-94827817D02*
G75*
G02*
X153199995Y-93499995I1877800J17D01*
G01*
D50*
X142750000Y-112145710D02*
G75*
G03*
X142700003Y-112024997I-170700J10D01*
G01*
D47*
%TO.N,+3.3V*%
X148671838Y-88901838D02*
X149293180Y-89523180D01*
X149462500Y-95250000D02*
X148201776Y-95250000D01*
X148370000Y-90590000D02*
X149300251Y-89659749D01*
X147040000Y-91585442D02*
X147040000Y-90627160D01*
X149749203Y-97109203D02*
X149780000Y-97140000D01*
X150000000Y-97671126D02*
X150000000Y-98249584D01*
X157730000Y-93820000D02*
X157757745Y-93847745D01*
X155010000Y-93100000D02*
X155839896Y-92270104D01*
X151460000Y-99040000D02*
X151544644Y-99124644D01*
X146881669Y-90244916D02*
X146850000Y-90210000D01*
X150628700Y-98850000D02*
X151001300Y-98850000D01*
X144370000Y-87750000D02*
X144382357Y-87750000D01*
X149462500Y-91750000D02*
X149462500Y-89931954D01*
X157225000Y-102800000D02*
X157225000Y-104400000D01*
X146530000Y-89670000D02*
X146530000Y-89281126D01*
X148165165Y-94734835D02*
X148506863Y-94393137D01*
X151600000Y-103400000D02*
X152072183Y-103400000D01*
X155900000Y-92125000D02*
X155900000Y-90675000D01*
X157010000Y-88820856D02*
X157010000Y-90600000D01*
X148257089Y-96237089D02*
X148690796Y-96670796D01*
X156790000Y-88320000D02*
X156812815Y-88344810D01*
X148040000Y-92660000D02*
X148040000Y-91386690D01*
X151870000Y-99910122D02*
X151870000Y-101270000D01*
X151530000Y-88080000D02*
X156210589Y-88080000D01*
X156684619Y-96400000D02*
X158380000Y-96400000D01*
X157010000Y-90600000D02*
X157010000Y-92081767D01*
X157225000Y-106000000D02*
X157225000Y-104400000D01*
X146308536Y-92571464D02*
X146860000Y-92020000D01*
X154337500Y-93250000D02*
X154647868Y-93250000D01*
X148510000Y-93280000D02*
X148146067Y-92916067D01*
X152152843Y-101952843D02*
X152390000Y-102190000D01*
X157225000Y-100207878D02*
X157225000Y-102800000D01*
X149325000Y-89600000D02*
X150360631Y-88564369D01*
X158380000Y-95350000D02*
X158380000Y-96400000D01*
X146750000Y-88750000D02*
X146763640Y-88736360D01*
X148620000Y-94120000D02*
X148620000Y-93545563D01*
X154242202Y-97367202D02*
X154375000Y-97500000D01*
X158380000Y-96400000D02*
X158380000Y-97419462D01*
X155900000Y-90675000D02*
X156828934Y-90675000D01*
X146300000Y-92575000D02*
X146308536Y-92571464D01*
X155655330Y-96969670D02*
X155900000Y-96725000D01*
X146850000Y-90210000D02*
X146685564Y-90045564D01*
X152390000Y-102190000D02*
X152802512Y-102602513D01*
X147285979Y-88520000D02*
X147750000Y-88520000D01*
X142812500Y-92475000D02*
X144458579Y-92475000D01*
X146300000Y-92575000D02*
X144700000Y-92575000D01*
X150360631Y-88564369D02*
G75*
G02*
X151530000Y-88079989I1169369J-1169331D01*
G01*
X157757745Y-93847745D02*
G75*
G02*
X158380002Y-95350000I-1502245J-1502255D01*
G01*
X154375000Y-97500000D02*
G75*
G03*
X155655338Y-96969678I0J1810700D01*
G01*
X156210589Y-88080000D02*
G75*
G02*
X156790003Y-88319997I11J-819400D01*
G01*
X151544644Y-99124644D02*
G75*
G02*
X151869994Y-99910122I-785444J-785456D01*
G01*
X144382357Y-87750000D02*
G75*
G02*
X146763653Y-88736347I43J-3367600D01*
G01*
X150000000Y-98249584D02*
G75*
G03*
X150169995Y-98660005I580400J-16D01*
G01*
X149300251Y-89659749D02*
G75*
G03*
X149324999Y-89600000I-59751J59749D01*
G01*
X157920000Y-98530000D02*
G75*
G03*
X157224991Y-100207878I1677900J-1677900D01*
G01*
X154647868Y-93250000D02*
G75*
G03*
X155010009Y-93100009I32J512100D01*
G01*
X148506863Y-94393137D02*
G75*
G03*
X148619992Y-94120000I-273163J273137D01*
G01*
X146860000Y-92020000D02*
G75*
G03*
X147040017Y-91585442I-434600J434600D01*
G01*
X155900000Y-96725000D02*
G75*
G02*
X156684619Y-96400008I784600J-784600D01*
G01*
X146763640Y-88736360D02*
G75*
G02*
X147285979Y-88519986I522360J-522340D01*
G01*
X148620000Y-93545563D02*
G75*
G03*
X148509989Y-93280011I-375600J-37D01*
G01*
X147040000Y-90627160D02*
G75*
G03*
X146881654Y-90244931I-540600J-40D01*
G01*
X146530000Y-89281126D02*
G75*
G02*
X146749992Y-88749992I751100J26D01*
G01*
X153650000Y-95937500D02*
G75*
G03*
X154242203Y-97367201I2021900J0D01*
G01*
X148690796Y-96670796D02*
G75*
G03*
X149220000Y-96890002I529204J529196D01*
G01*
X147938891Y-95468891D02*
G75*
G02*
X147900005Y-95375000I93909J93891D01*
G01*
X148146067Y-92916067D02*
G75*
G02*
X148039991Y-92660000I256033J256067D01*
G01*
X149462500Y-89931954D02*
G75*
G03*
X149324987Y-89600013I-469500J-46D01*
G01*
X144458579Y-92475000D02*
G75*
G02*
X144700006Y-92574994I21J-341400D01*
G01*
X149780000Y-97140000D02*
G75*
G02*
X149999989Y-97671126I-531100J-531100D01*
G01*
X147900000Y-95375000D02*
G75*
G02*
X148165171Y-94734841I905300J0D01*
G01*
X148040000Y-91386690D02*
G75*
G02*
X148370003Y-90590003I1126700J-10D01*
G01*
X152072183Y-103400000D02*
G75*
G03*
X153400005Y-102850005I17J1877800D01*
G01*
X146685564Y-90045564D02*
G75*
G02*
X146529992Y-89670000I375536J375564D01*
G01*
X148201776Y-95250000D02*
G75*
G03*
X147900007Y-95375007I24J-426800D01*
G01*
X155839896Y-92270104D02*
G75*
G03*
X155900002Y-92125000I-145096J145104D01*
G01*
X156828934Y-90675000D02*
G75*
G03*
X157009990Y-90599990I-34J256100D01*
G01*
X156812815Y-88344810D02*
G75*
G02*
X157010040Y-88820856I-476015J-476090D01*
G01*
X157010000Y-92081767D02*
G75*
G03*
X157729990Y-93820010I2458200J-33D01*
G01*
X149220000Y-96890000D02*
G75*
G02*
X149749202Y-97109204I0J-748400D01*
G01*
X151870000Y-101270000D02*
G75*
G03*
X152152840Y-101952846I965700J0D01*
G01*
X149293180Y-89523180D02*
G75*
G02*
X149325012Y-89600000I-76780J-76820D01*
G01*
X152802512Y-102602513D02*
G75*
G03*
X153400000Y-102849993I597488J597513D01*
G01*
X147750000Y-88520000D02*
G75*
G02*
X148671843Y-88901833I0J-1303700D01*
G01*
X151001300Y-98850000D02*
G75*
G02*
X151460000Y-99040000I0J-648700D01*
G01*
X158380000Y-97419462D02*
G75*
G02*
X157920011Y-98530011I-1570500J-38D01*
G01*
X150170000Y-98660000D02*
G75*
G03*
X150628700Y-98850000I458700J458700D01*
G01*
X147900000Y-95375000D02*
G75*
G03*
X148257084Y-96237094I1219200J0D01*
G01*
%TO.N,Net-(D1-K)*%
X147030000Y-95020710D02*
X147030000Y-93432132D01*
X147030000Y-95438163D02*
X147030000Y-95020710D01*
X150800000Y-101175000D02*
X148941421Y-101175000D01*
X147400000Y-92538874D02*
X147400000Y-89450000D01*
X150400000Y-102700000D02*
X150900000Y-102700000D01*
X148196404Y-100866403D02*
X148080000Y-100750000D01*
X150900000Y-102700000D02*
X150900000Y-101416421D01*
X147530000Y-99490000D02*
X147530000Y-96645269D01*
X148080000Y-100750000D02*
X148032046Y-100702046D01*
X148032046Y-100702046D02*
G75*
G02*
X147530002Y-99490000I1212054J1212046D01*
G01*
X147030000Y-93432132D02*
G75*
G02*
X147179991Y-93069991I512100J32D01*
G01*
X147530000Y-96645269D02*
G75*
G03*
X147299991Y-96090009I-785300J-31D01*
G01*
X148941421Y-101175000D02*
G75*
G02*
X148699994Y-101075006I-21J341400D01*
G01*
X148700000Y-101075000D02*
G75*
G02*
X148196402Y-100866405I0J712200D01*
G01*
X150900000Y-101416421D02*
G75*
G03*
X150800006Y-101174994I-341400J21D01*
G01*
X147300000Y-96090000D02*
G75*
G02*
X147030016Y-95438163I651800J651800D01*
G01*
X147180000Y-93070000D02*
G75*
G03*
X147399989Y-92538874I-531100J531100D01*
G01*
%TO.N,Net-(J1-Pin_5)*%
X154520000Y-98230000D02*
X154406568Y-98230000D01*
X157227817Y-95625000D02*
X157500000Y-95625000D01*
X155896464Y-95066464D02*
X155900000Y-95075000D01*
X154337500Y-94250000D02*
X154726447Y-94250000D01*
X155330000Y-94500000D02*
X155896464Y-95066464D01*
X155229757Y-98230000D02*
X154520000Y-98230000D01*
X154406568Y-98230000D02*
X153977989Y-98230000D01*
X153977989Y-98230000D02*
G75*
G02*
X153640003Y-98089997I11J478000D01*
G01*
X156630000Y-97650000D02*
G75*
G02*
X155229757Y-98229982I-1400200J1400200D01*
G01*
X154726447Y-94250000D02*
G75*
G02*
X155329986Y-94500014I-47J-853600D01*
G01*
X155900000Y-95075000D02*
G75*
G03*
X157227817Y-95624993I1327800J1327800D01*
G01*
%TO.N,Net-(U1-VC4A)*%
X147052624Y-102410229D02*
X146970439Y-102328044D01*
X142400000Y-95975000D02*
X141026776Y-95975000D01*
X146760000Y-101820000D02*
X146760000Y-98289655D01*
X147080000Y-102440000D02*
X147052624Y-102410229D01*
X143843934Y-94531066D02*
X142400000Y-95975000D01*
X148900000Y-102700000D02*
X147707695Y-102700000D01*
X145940000Y-96310000D02*
X144131820Y-94501820D01*
X149400000Y-102700000D02*
X148900000Y-102700000D01*
X146970439Y-102328044D02*
G75*
G02*
X146760005Y-101820000I508061J508044D01*
G01*
X141026776Y-95975000D02*
G75*
G03*
X140725007Y-96100007I24J-426800D01*
G01*
X147707695Y-102700000D02*
G75*
G02*
X147080001Y-102439999I5J887700D01*
G01*
X146760000Y-98289655D02*
G75*
G03*
X145939987Y-96310013I-2799700J-45D01*
G01*
X144100000Y-94425000D02*
G75*
G03*
X143843941Y-94531073I0J-362100D01*
G01*
X144131820Y-94501820D02*
G75*
G02*
X144099988Y-94425000I76780J76820D01*
G01*
%TO.N,Net-(U1-VC5)*%
X142400000Y-94425000D02*
X141026776Y-94425000D01*
X149900000Y-102419705D02*
X149900000Y-102700000D01*
X142459749Y-94400251D02*
X142920000Y-93940000D01*
X147653847Y-102010000D02*
X149490295Y-102010000D01*
X147150000Y-97744507D02*
X147150000Y-101462840D01*
X144770000Y-93810000D02*
X146050797Y-95090797D01*
X147308331Y-101845084D02*
X147340000Y-101880000D01*
X143789116Y-93580000D02*
X144214731Y-93580000D01*
X149490295Y-102010000D02*
G75*
G02*
X149780002Y-102129998I5J-409700D01*
G01*
X142920000Y-93940000D02*
G75*
G02*
X143789116Y-93580007I869100J-869100D01*
G01*
X146050797Y-95090797D02*
G75*
G02*
X147149999Y-97744507I-2653697J-2653703D01*
G01*
X141026776Y-94425000D02*
G75*
G02*
X140725007Y-94299993I24J426800D01*
G01*
X149780000Y-102130000D02*
G75*
G02*
X149899998Y-102419705I-289700J-289700D01*
G01*
X144214731Y-93580000D02*
G75*
G02*
X144769991Y-93810009I-31J-785300D01*
G01*
X142400000Y-94425000D02*
G75*
G03*
X142459750Y-94400252I0J84500D01*
G01*
X147340000Y-101880000D02*
G75*
G03*
X147653847Y-102009980I313800J313800D01*
G01*
X147150000Y-101462840D02*
G75*
G03*
X147308346Y-101845069I540600J40D01*
G01*
%TO.N,Net-(U1-VC3A)*%
X146320000Y-101910000D02*
X146320000Y-98199238D01*
X148200000Y-103900000D02*
X148200000Y-103400000D01*
X143130000Y-97120000D02*
X142523744Y-97726256D01*
X145670000Y-96630000D02*
X145602427Y-96562427D01*
X143976256Y-96273743D02*
X143130000Y-97120000D01*
X148200000Y-103400000D02*
X147852253Y-103400000D01*
X142400000Y-98025000D02*
X141026776Y-98025000D01*
X146790000Y-102960000D02*
X146730122Y-102900122D01*
X144184253Y-95975000D02*
X144100000Y-95975000D01*
X144100000Y-95975000D02*
G75*
G02*
X143976259Y-96273746I-422500J0D01*
G01*
X142523744Y-97726256D02*
G75*
G03*
X142400004Y-98025000I298756J-298744D01*
G01*
X146730122Y-102900122D02*
G75*
G02*
X146319987Y-101910000I990078J990122D01*
G01*
X146320000Y-98199238D02*
G75*
G03*
X145670011Y-96629989I-2219200J38D01*
G01*
X141026776Y-98025000D02*
G75*
G02*
X140725007Y-97899993I24J426800D01*
G01*
X147852253Y-103400000D02*
G75*
G02*
X146790034Y-102959966I47J1502200D01*
G01*
X145602427Y-96562427D02*
G75*
G03*
X144184253Y-95975033I-1418127J-1418173D01*
G01*
%TO.N,Net-(U1-VC2)*%
X145940000Y-102265147D02*
X145940000Y-101814142D01*
X145940000Y-101814142D02*
X145940000Y-99912670D01*
X144328102Y-98025000D02*
X144100000Y-98025000D01*
X148200000Y-104400000D02*
X147931248Y-104400000D01*
X143843934Y-98131066D02*
X142400000Y-99575000D01*
X146700000Y-103890000D02*
X146551544Y-103741544D01*
X148200000Y-104400000D02*
X148163797Y-104400000D01*
X142400000Y-99575000D02*
X141026776Y-99575000D01*
X141026776Y-99575000D02*
G75*
G03*
X140725007Y-99700007I24J-426800D01*
G01*
X146551544Y-103741544D02*
G75*
G02*
X145939955Y-102265147I1476356J1476444D01*
G01*
X147931248Y-104400000D02*
G75*
G02*
X146699986Y-103890014I-48J1741200D01*
G01*
X145330000Y-98440000D02*
G75*
G03*
X144328102Y-98024999I-1001900J-1001900D01*
G01*
X145940000Y-99912670D02*
G75*
G03*
X145329991Y-98440009I-2082700J-30D01*
G01*
X144100000Y-98025000D02*
G75*
G03*
X143843941Y-98131073I0J-362100D01*
G01*
%TO.N,Net-(U1-VC1)*%
X148200000Y-104900000D02*
X147860954Y-104900000D01*
X146340000Y-104270000D02*
X146242965Y-104172965D01*
X144302955Y-99575000D02*
X144100000Y-99575000D01*
X145550000Y-102500000D02*
X145550000Y-100871543D01*
X142400000Y-101625000D02*
X141026776Y-101625000D01*
X143610000Y-100230000D02*
X142530815Y-101309185D01*
X143983327Y-99856672D02*
X143610000Y-100230000D01*
X141026776Y-101625000D02*
G75*
G02*
X140725007Y-101499993I24J426800D01*
G01*
X142530815Y-101309185D02*
G75*
G03*
X142399991Y-101625000I315785J-315815D01*
G01*
X146242965Y-104172965D02*
G75*
G02*
X145549991Y-102500000I1672935J1672965D01*
G01*
X145160000Y-99930000D02*
G75*
G03*
X144302955Y-99575019I-857000J-857000D01*
G01*
X144100000Y-99575000D02*
G75*
G02*
X143983318Y-99856663I-398300J0D01*
G01*
X147860954Y-104900000D02*
G75*
G02*
X146340013Y-104269987I46J2151000D01*
G01*
X145550000Y-100871543D02*
G75*
G03*
X145160013Y-99929987I-1331500J43D01*
G01*
%TO.N,Net-(U1-VC0)*%
X140725000Y-103300000D02*
X141150632Y-102874368D01*
X148200000Y-105400000D02*
X147723380Y-105400000D01*
X146130000Y-104740000D02*
X145933173Y-104543173D01*
X143907150Y-101817850D02*
X144100000Y-101625000D01*
X144220234Y-101625000D02*
X144100000Y-101625000D01*
X142320000Y-102390000D02*
X142525858Y-102390000D01*
X145120000Y-102580000D02*
X145120000Y-102517695D01*
X141150632Y-102874368D02*
G75*
G02*
X142320000Y-102389989I1169368J-1169332D01*
G01*
X147723380Y-105400000D02*
G75*
G02*
X146130006Y-104739994I20J2253400D01*
G01*
X142525858Y-102390000D02*
G75*
G03*
X143907162Y-101817862I42J1953400D01*
G01*
X144860000Y-101890000D02*
G75*
G03*
X144220234Y-101624986I-639800J-639800D01*
G01*
X145120000Y-102517695D02*
G75*
G03*
X144859999Y-101890001I-887700J-5D01*
G01*
X145933173Y-104543173D02*
G75*
G02*
X145119987Y-102580000I1963127J1963173D01*
G01*
D50*
%TO.N,Net-(U1-SRP)*%
X147490000Y-108725000D02*
X147490000Y-109355858D01*
X148177167Y-108803161D02*
X148180000Y-108810000D01*
X147926863Y-109380000D02*
X147500000Y-109380000D01*
X143309289Y-110290711D02*
X143290000Y-110310000D01*
X143133077Y-110375000D02*
X142700000Y-110375000D01*
X144300000Y-109540000D02*
X144020000Y-109540000D01*
X148177167Y-108313113D02*
X148177167Y-108803161D01*
X145900000Y-109380000D02*
X145333847Y-109380000D01*
X144275000Y-108890000D02*
X144275000Y-109479645D01*
X144947574Y-109540000D02*
X144300000Y-109540000D01*
X145900000Y-108725000D02*
X145900000Y-109380000D01*
X143524938Y-109745062D02*
X143520000Y-109750000D01*
X148900000Y-106100000D02*
X148900000Y-106307574D01*
X148180000Y-108810000D02*
X148180000Y-109155148D01*
X147500000Y-109380000D02*
X145900000Y-109380000D01*
X148608665Y-107651335D02*
X148340000Y-107920000D01*
X148930000Y-106380000D02*
X148955147Y-106405147D01*
X143380000Y-110087989D02*
X143380000Y-110120000D01*
X144275000Y-109479645D02*
G75*
G03*
X144300013Y-109539987I85400J45D01*
G01*
X148180000Y-109155148D02*
G75*
G02*
X148119965Y-109299965I-204800J48D01*
G01*
X148120000Y-109300000D02*
G75*
G02*
X147926863Y-109379985I-193100J193100D01*
G01*
X147490000Y-109355858D02*
G75*
G03*
X147499988Y-109380012I34100J-42D01*
G01*
X143520000Y-109750000D02*
G75*
G03*
X143379996Y-110087989I338000J-338000D01*
G01*
X144020000Y-109540000D02*
G75*
G03*
X143524943Y-109745067I0J-700100D01*
G01*
X143380000Y-110120000D02*
G75*
G02*
X143309285Y-110290707I-241400J0D01*
G01*
X145020000Y-109510000D02*
G75*
G02*
X144947574Y-109539989I-72400J72400D01*
G01*
X148955147Y-106405147D02*
G75*
G02*
X149040002Y-106610000I-204847J-204853D01*
G01*
X148340000Y-107920000D02*
G75*
G03*
X148177173Y-108313113I393100J-393100D01*
G01*
X145333847Y-109380000D02*
G75*
G03*
X145019986Y-109509986I-47J-443800D01*
G01*
X149040000Y-106610000D02*
G75*
G02*
X148608671Y-107651341I-1472700J0D01*
G01*
X143290000Y-110310000D02*
G75*
G02*
X143133077Y-110374990I-156900J156900D01*
G01*
X148900000Y-106307574D02*
G75*
G03*
X148929992Y-106380008I102400J-26D01*
G01*
%TO.N,Net-(U1-SRN)*%
X143640000Y-110165148D02*
X143640000Y-110080000D01*
X144300000Y-110375000D02*
X143856923Y-110375000D01*
X148320000Y-109480000D02*
X148317323Y-109482677D01*
X149290000Y-106650000D02*
X149290000Y-106558994D01*
X145900000Y-109630000D02*
X147500000Y-109630000D01*
X144370000Y-109790000D02*
X145015148Y-109790000D01*
X148430000Y-109210651D02*
X148430000Y-108700000D01*
X148540000Y-108080000D02*
X148809167Y-107810833D01*
X145900000Y-110275000D02*
X145900000Y-109630000D01*
X149400000Y-106293432D02*
X149400000Y-106100000D01*
X147490000Y-110275000D02*
X147490000Y-109654142D01*
X144032844Y-109790000D02*
X144370000Y-109790000D01*
X145401421Y-109630000D02*
X145900000Y-109630000D01*
X149100000Y-108725000D02*
X148490355Y-108725000D01*
X148430000Y-108700000D02*
X148430000Y-108345563D01*
X147500000Y-109630000D02*
X147957868Y-109630000D01*
X147490000Y-109654142D02*
G75*
G02*
X147499988Y-109629988I34100J42D01*
G01*
X143640000Y-110080000D02*
G75*
G02*
X143703635Y-109926356I217300J0D01*
G01*
X145015148Y-109790000D02*
G75*
G03*
X145159986Y-109729986I-48J204900D01*
G01*
X148809167Y-107810833D02*
G75*
G03*
X149289990Y-106650000I-1160867J1160833D01*
G01*
X148317323Y-109482677D02*
G75*
G03*
X148430037Y-109210651I-272023J272077D01*
G01*
X147957868Y-109630000D02*
G75*
G03*
X148320009Y-109480009I32J512100D01*
G01*
X149360000Y-106390000D02*
G75*
G03*
X149400013Y-106293432I-96600J96600D01*
G01*
X147490000Y-110275000D02*
G75*
G03*
X147592436Y-110232583I0J144900D01*
G01*
X143703640Y-109926361D02*
G75*
G02*
X144032844Y-109790042I329160J-329239D01*
G01*
X143856923Y-110375000D02*
G75*
G02*
X143699993Y-110310007I-23J221900D01*
G01*
X148490355Y-108725000D02*
G75*
G02*
X148430013Y-108699987I45J85400D01*
G01*
X145160000Y-109730000D02*
G75*
G02*
X145401421Y-109630009I241400J-241400D01*
G01*
X143700000Y-110310000D02*
G75*
G02*
X143640022Y-110165148I144800J144800D01*
G01*
X149290000Y-106558994D02*
G75*
G02*
X149360001Y-106390001I239000J-6D01*
G01*
X148430000Y-108345563D02*
G75*
G02*
X148540011Y-108080011I375600J-37D01*
G01*
D51*
%TO.N,+BATT*%
X152000000Y-84000000D02*
X156094467Y-84000000D01*
D52*
X164525000Y-97937500D02*
X164525000Y-95637500D01*
D51*
X150900000Y-84000000D02*
X152000000Y-84000000D01*
D53*
X150200000Y-84000000D02*
X150900000Y-84000000D01*
X149450000Y-84000000D02*
X150200000Y-84000000D01*
D54*
X165289968Y-98702468D02*
X164525000Y-97937500D01*
D47*
X147400000Y-86950000D02*
X149961091Y-84388909D01*
D51*
X164100000Y-91256000D02*
X164100000Y-93840000D01*
D52*
X164525000Y-95637500D02*
X164525000Y-94866040D01*
D54*
X168000000Y-99825000D02*
G75*
G02*
X165289961Y-98702475I0J3832600D01*
G01*
D52*
X164525000Y-94866040D02*
G75*
G03*
X164100012Y-93839988I-1451000J40D01*
G01*
D51*
X162130000Y-86500000D02*
G75*
G02*
X164100000Y-91256000I-4756000J-4756000D01*
G01*
X156094467Y-84000000D02*
G75*
G02*
X162130010Y-86499990I33J-8535500D01*
G01*
D47*
X149961091Y-84388909D02*
G75*
G02*
X150900000Y-83999995I938909J-938891D01*
G01*
D54*
%TO.N,Net-(D3-K)*%
X160442244Y-115335000D02*
X159960000Y-115335000D01*
X163125000Y-112300000D02*
X163746619Y-112300000D01*
D48*
X154075000Y-118900000D02*
X156963777Y-118900000D01*
D54*
X165588711Y-102373788D02*
X164525000Y-103437500D01*
D48*
X159040000Y-118040000D02*
X159345858Y-117734142D01*
X159960000Y-116251473D02*
X159960000Y-115335000D01*
D52*
X163710000Y-114590000D02*
X163366102Y-114933898D01*
X164525000Y-105737500D02*
X164525000Y-112622416D01*
X164525000Y-103437500D02*
X164525000Y-105737500D01*
D54*
X163746619Y-112300000D02*
G75*
G02*
X164524991Y-112622425I-19J-1100800D01*
G01*
D52*
X164525000Y-112622416D02*
G75*
G02*
X163709995Y-114589995I-2782600J16D01*
G01*
D54*
X161420000Y-115740000D02*
G75*
G03*
X160442244Y-115334982I-977800J-977800D01*
G01*
D48*
X159345858Y-117734142D02*
G75*
G03*
X159959984Y-116251473I-1482658J1482642D01*
G01*
X156963777Y-118900000D02*
G75*
G03*
X159040007Y-118040007I23J2936200D01*
G01*
D54*
X168000000Y-101375000D02*
G75*
G03*
X165588707Y-102373784I0J-3410100D01*
G01*
D52*
X163366102Y-114933898D02*
G75*
G02*
X161420000Y-115740001I-1946102J1946098D01*
G01*
D47*
%TO.N,GNDEXT*%
X143930000Y-88260000D02*
X143245046Y-88260000D01*
X138587500Y-90525000D02*
X137182842Y-90525000D01*
X135100000Y-90125000D02*
X135251472Y-90125000D01*
X140010000Y-89600000D02*
X139436786Y-90173214D01*
X135251472Y-90125000D02*
G75*
G02*
X136700008Y-90724992I28J-2048500D01*
G01*
X139436786Y-90173214D02*
G75*
G02*
X138587500Y-90524992I-849286J849314D01*
G01*
X137182842Y-90525000D02*
G75*
G03*
X136699987Y-90724987I-42J-682800D01*
G01*
X143245046Y-88260000D02*
G75*
G03*
X140009966Y-89599966I-46J-4575100D01*
G01*
%TO.N,/TS*%
X140751178Y-108111177D02*
X140260000Y-107620000D01*
X150140000Y-110083553D02*
X150140000Y-110566153D01*
X151191464Y-108721464D02*
X151200000Y-108725000D01*
X149551300Y-111070000D02*
X146053137Y-111070000D01*
X138434099Y-105984099D02*
X139600000Y-107150000D01*
X141450000Y-110409857D02*
X141450000Y-109798284D01*
X140260000Y-107620000D02*
X139924351Y-107284351D01*
X150690000Y-108220000D02*
X151191464Y-108721464D01*
X137430000Y-105600000D02*
X138275000Y-105600000D01*
X141700000Y-110960000D02*
X141659282Y-110915108D01*
X151089038Y-108770962D02*
X150397071Y-109462929D01*
X149900000Y-106100000D02*
X149900000Y-106312772D01*
X145715148Y-111210000D02*
X142303553Y-111210000D01*
X145860000Y-111150000D02*
G75*
G02*
X145715148Y-111210049I-144900J144800D01*
G01*
X146053137Y-111070000D02*
G75*
G03*
X145859989Y-111149989I-37J-273100D01*
G01*
X150140000Y-110566153D02*
G75*
G02*
X150010014Y-110880014I-443800J-47D01*
G01*
X139924351Y-107284351D02*
G75*
G03*
X139600000Y-107150000I-324351J-324349D01*
G01*
X150010000Y-110880000D02*
G75*
G02*
X149551300Y-111070000I-458700J458700D01*
G01*
X151200000Y-108725000D02*
G75*
G03*
X151089043Y-108770967I0J-156900D01*
G01*
X141659282Y-110915108D02*
G75*
G02*
X141450021Y-110409857I505218J505208D01*
G01*
X142303553Y-111210000D02*
G75*
G02*
X141700014Y-110959986I47J853600D01*
G01*
X138275000Y-105600000D02*
G75*
G03*
X138434099Y-105984099I543200J0D01*
G01*
X150397071Y-109462929D02*
G75*
G03*
X150139968Y-110083553I620629J-620671D01*
G01*
X141450000Y-109798284D02*
G75*
G03*
X140751164Y-108111191I-2385900J-16D01*
G01*
X149900000Y-106312772D02*
G75*
G03*
X150689992Y-108220008I2697200J-28D01*
G01*
D48*
%TO.N,Net-(D2-K)*%
X159960000Y-112795000D02*
X160279965Y-112795000D01*
X160279965Y-112795000D02*
G75*
G03*
X161475010Y-112300010I35J1690000D01*
G01*
D49*
%TO.N,Net-(J2-Pin_1)*%
X136147021Y-84442878D02*
X136304142Y-84600000D01*
X140240000Y-82060000D02*
X140240000Y-83054904D01*
X136890969Y-84013172D02*
X136304142Y-84600000D01*
D47*
X139075000Y-94300000D02*
X138629015Y-94300000D01*
D49*
X140240000Y-87140000D02*
X140240000Y-86145096D01*
D47*
X133860000Y-91284609D02*
X133860000Y-90278477D01*
D49*
X136890969Y-85186828D02*
X136304142Y-84600000D01*
D51*
X139600000Y-84600000D02*
X136304142Y-84600000D01*
X142380762Y-84600000D02*
X139600000Y-84600000D01*
D49*
X136147021Y-84757122D02*
X136304142Y-84600000D01*
D47*
X134380000Y-92540000D02*
G75*
G02*
X133859996Y-91284609I1255400J1255400D01*
G01*
D52*
X143950000Y-84000000D02*
G75*
G02*
X142380761Y-84600011I-1405800J1324600D01*
G01*
D49*
X135160000Y-82060000D02*
G75*
G03*
X136147020Y-84442879I3369900J0D01*
G01*
D47*
X138629015Y-94300000D02*
G75*
G02*
X134379995Y-92540005I-15J6009000D01*
G01*
D49*
X137700000Y-82060000D02*
G75*
G02*
X136890969Y-84013172I-2762200J0D01*
G01*
D47*
X133860000Y-90278477D02*
G75*
G02*
X135160007Y-87140007I4438500J-23D01*
G01*
D49*
X140240000Y-83054904D02*
G75*
G02*
X139599999Y-84599999I-2185100J4D01*
G01*
X137700000Y-87140000D02*
G75*
G03*
X136890969Y-85186828I-2762200J0D01*
G01*
X135160000Y-87140000D02*
G75*
G02*
X136147020Y-84757121I3369900J0D01*
G01*
X140240000Y-86145096D02*
G75*
G03*
X139599999Y-84600001I-2185100J-4D01*
G01*
D47*
%TO.N,/SWDIO*%
X149462500Y-94750000D02*
X148830000Y-94750000D01*
%TO.N,/SWCLK*%
X148866035Y-95937500D02*
X148860000Y-95940000D01*
X150150000Y-95937500D02*
X148866035Y-95937500D01*
%TO.N,Net-(J3-Pin_2)*%
X138944185Y-98215815D02*
X138920000Y-98240000D01*
X139075000Y-97900000D02*
G75*
G02*
X138944179Y-98215809I-446600J0D01*
G01*
D48*
%TO.N,Net-(Q2-S)*%
X143790000Y-118340000D02*
X143434099Y-117984099D01*
X144250000Y-115246142D02*
X144250000Y-114700000D01*
D50*
X144250000Y-114700000D02*
X144250000Y-112145710D01*
D48*
X152525000Y-118900000D02*
X145141959Y-118900000D01*
X145141959Y-118900000D02*
G75*
G02*
X143790012Y-118339988I41J1912000D01*
G01*
X143434099Y-117984099D02*
G75*
G02*
X143275001Y-117600000I384101J384099D01*
G01*
D50*
X144250000Y-112145710D02*
G75*
G02*
X144299997Y-112024997I170700J10D01*
G01*
D48*
X143275000Y-117600000D02*
G75*
G03*
X144250017Y-115246142I-2353900J2353900D01*
G01*
D47*
%TO.N,Net-(J4-Pin_3)*%
X144340000Y-88730000D02*
X142922497Y-88730000D01*
X139189595Y-91175000D02*
X138587500Y-91175000D01*
X139686863Y-90893137D02*
X139620000Y-90960000D01*
X139620000Y-90960000D02*
X139549737Y-91025824D01*
X140460000Y-89750000D02*
X139948493Y-90261507D01*
X139800000Y-90620000D02*
G75*
G02*
X139686868Y-90893142I-386300J0D01*
G01*
X142922497Y-88730000D02*
G75*
G03*
X140460001Y-89750001I3J-3482500D01*
G01*
X139948493Y-90261507D02*
G75*
G03*
X139800004Y-90620000I358507J-358493D01*
G01*
X139549737Y-91025824D02*
G75*
G02*
X139189595Y-91175001I-360137J360124D01*
G01*
%TO.N,Net-(J4-Pin_1)*%
X135100000Y-91675000D02*
X135251472Y-91675000D01*
X138587500Y-92475000D02*
X137182842Y-92475000D01*
X140171299Y-91958700D02*
X140120000Y-92010000D01*
X139141238Y-92475000D02*
X138587500Y-92475000D01*
X144310000Y-89710000D02*
X142463675Y-89710000D01*
X140120000Y-92010000D02*
X140018285Y-92111715D01*
X141160000Y-90250000D02*
X140680417Y-90729583D01*
X137182842Y-92475000D02*
G75*
G02*
X136699987Y-92275013I-42J682800D01*
G01*
X140018285Y-92111715D02*
G75*
G02*
X139141238Y-92475036I-877085J877015D01*
G01*
X140680417Y-90729583D02*
G75*
G03*
X140439990Y-91310000I580383J-580417D01*
G01*
X135251472Y-91675000D02*
G75*
G02*
X136700008Y-92274992I28J-2048500D01*
G01*
X142463675Y-89710000D02*
G75*
G03*
X141160007Y-90250007I25J-1843700D01*
G01*
X140440000Y-91310000D02*
G75*
G02*
X140171299Y-91958700I-917400J0D01*
G01*
%TO.N,Net-(Q1-G)*%
X149462500Y-92750000D02*
X148847279Y-92750000D01*
X148847279Y-92750000D02*
G75*
G02*
X148630006Y-92659994I21J307300D01*
G01*
%TO.N,Net-(Q1-D)*%
X146300000Y-91025000D02*
X144700000Y-91025000D01*
X142812500Y-90525000D02*
X143492894Y-90525000D01*
X142812500Y-90525000D02*
X142523319Y-90525000D01*
X143492894Y-90525000D02*
G75*
G02*
X144700002Y-91024998I6J-1707100D01*
G01*
X142523319Y-90525000D02*
G75*
G03*
X141279994Y-91039994I-19J-1758300D01*
G01*
%TO.N,Net-(U1-ALERT)*%
X151150000Y-95937500D02*
X151150000Y-97287330D01*
X152420000Y-103800000D02*
X152439289Y-103780711D01*
X151600000Y-103900000D02*
X152178579Y-103900000D01*
X152800000Y-100440467D02*
X152800000Y-100400000D01*
X155575000Y-102800000D02*
X155256440Y-102481440D01*
X151760000Y-98760000D02*
X152375736Y-99375736D01*
X153260000Y-103630000D02*
X154389879Y-103630000D01*
X155090000Y-103340000D02*
X155536109Y-102893891D01*
X152803137Y-103630000D02*
X153260000Y-103630000D01*
X154070000Y-101990000D02*
X153981837Y-101990000D01*
X155256440Y-102481440D02*
G75*
G03*
X154070000Y-101990006I-1186440J-1186460D01*
G01*
X152375736Y-99375736D02*
G75*
G02*
X152800008Y-100400000I-1024236J-1024264D01*
G01*
X155536109Y-102893891D02*
G75*
G03*
X155574995Y-102800000I-93909J93891D01*
G01*
X152178579Y-103900000D02*
G75*
G03*
X152420006Y-103800006I21J341400D01*
G01*
X153330000Y-101720000D02*
G75*
G02*
X152800014Y-100440467I1279500J1279500D01*
G01*
X151150000Y-97287330D02*
G75*
G03*
X151760009Y-98759991I2082700J30D01*
G01*
X153981837Y-101990000D02*
G75*
G02*
X153329989Y-101720011I-37J921800D01*
G01*
X152439289Y-103780711D02*
G75*
G02*
X152803137Y-103630038I363811J-363889D01*
G01*
X154389879Y-103630000D02*
G75*
G03*
X155090006Y-103340006I21J990100D01*
G01*
%TO.N,Net-(U1-SDA)*%
X150650000Y-95937500D02*
X150650000Y-98000000D01*
X155575000Y-104400000D02*
X155868560Y-104106440D01*
X151600000Y-104400000D02*
X151904021Y-104400000D01*
X152500000Y-98560000D02*
X154275614Y-98560000D01*
X156360000Y-102920000D02*
X156360000Y-100786274D01*
X152893847Y-103990000D02*
X154585173Y-103990000D01*
X156200000Y-100357106D02*
X156200000Y-100400000D01*
X156360000Y-100786274D02*
G75*
G03*
X156199992Y-100400008I-546300J-26D01*
G01*
X154275614Y-98560000D02*
G75*
G02*
X155699996Y-99150004I-14J-2014400D01*
G01*
X154585173Y-103990000D02*
G75*
G02*
X155575008Y-104399992I27J-1399800D01*
G01*
X152580000Y-104120000D02*
G75*
G02*
X152893847Y-103990020I313800J-313800D01*
G01*
X151904021Y-104400000D02*
G75*
G03*
X152579994Y-104119994I-21J956000D01*
G01*
X155868560Y-104106440D02*
G75*
G03*
X156359994Y-102920000I-1186460J1186440D01*
G01*
X155700000Y-99150000D02*
G75*
G02*
X156199997Y-100357106I-1207100J-1207100D01*
G01*
%TO.N,Net-(U1-DSG)*%
X152331837Y-107621838D02*
X152500000Y-107790000D01*
X150400000Y-106100000D02*
X150400000Y-106333016D01*
X150610000Y-106840000D02*
X150727157Y-106957157D01*
X152500000Y-107790000D02*
X153374393Y-108664393D01*
X150727157Y-106957157D02*
G75*
G03*
X151410000Y-107239996I682843J682857D01*
G01*
X151410000Y-107240000D02*
G75*
G02*
X152331843Y-107621832I0J-1303700D01*
G01*
X153374393Y-108664393D02*
G75*
G03*
X153400000Y-108675004I25607J25593D01*
G01*
X150400000Y-106333016D02*
G75*
G03*
X150610004Y-106839996I717000J16D01*
G01*
%TO.N,Net-(U1-CHG)*%
X150900000Y-106100000D02*
X150900000Y-106270295D01*
X151406274Y-106720000D02*
X151427797Y-106720000D01*
X154180000Y-107860000D02*
X154991464Y-108671464D01*
X154991464Y-108671464D02*
X155000000Y-108675000D01*
X151020000Y-106560000D02*
G75*
G03*
X151406274Y-106720011I386300J386300D01*
G01*
X150900000Y-106270295D02*
G75*
G03*
X151019998Y-106560002I409700J-5D01*
G01*
X151427797Y-106720000D02*
G75*
G02*
X154180001Y-107859999I3J-3892200D01*
G01*
%TO.N,Net-(J4-Pin_2)*%
X140090000Y-90970000D02*
X140088377Y-91003292D01*
X140860000Y-89950000D02*
X140266777Y-90543223D01*
X143910000Y-89220000D02*
X142622375Y-89220000D01*
X139955207Y-91324793D02*
X139800000Y-91480000D01*
X138967097Y-91825000D02*
X138587500Y-91825000D01*
X139800000Y-91480000D02*
G75*
G02*
X138967097Y-91824998I-832900J832900D01*
G01*
X140088377Y-91003292D02*
G75*
G02*
X139955212Y-91324798I-454677J-8D01*
G01*
X142622375Y-89220000D02*
G75*
G03*
X140860007Y-89950007I25J-2492400D01*
G01*
X140266777Y-90543223D02*
G75*
G03*
X140090014Y-90970000I426823J-426777D01*
G01*
%TO.N,Net-(U2-PA2)*%
X154337500Y-91750000D02*
X154337500Y-91509710D01*
X154337500Y-91509710D02*
G75*
G02*
X154879997Y-90199997I1852200J10D01*
G01*
%TO.N,Net-(U2-PA3)*%
X154280000Y-89820000D02*
X154083103Y-90016897D01*
X154083103Y-90016897D02*
G75*
G03*
X153649998Y-91062500I1045597J-1045603D01*
G01*
%TO.N,/PWR_SWITCH*%
X154930000Y-96570000D02*
X154851921Y-96491921D01*
X154851921Y-96491921D02*
G75*
G02*
X154337488Y-95250000I1241879J1241921D01*
G01*
%TO.N,Net-(Q2-G)*%
X146849645Y-116605000D02*
X146540000Y-116605000D01*
D48*
X145983406Y-117161594D02*
X146540000Y-116605000D01*
D47*
X153400000Y-110325000D02*
X152900790Y-110824210D01*
X147350000Y-116260000D02*
X147114852Y-116495147D01*
X151390000Y-111450000D02*
X148507695Y-111450000D01*
X147640000Y-112289411D02*
X147640000Y-115559879D01*
D48*
X144925000Y-117600000D02*
G75*
G03*
X145983403Y-117161591I0J1496800D01*
G01*
D47*
X147880000Y-111710000D02*
G75*
G03*
X147640005Y-112289411I579400J-579400D01*
G01*
X152900790Y-110824210D02*
G75*
G02*
X151390000Y-111449994I-1510790J1510810D01*
G01*
X147114852Y-116495147D02*
G75*
G02*
X146849645Y-116605019I-265252J265247D01*
G01*
X147640000Y-115559879D02*
G75*
G02*
X147350006Y-116260006I-990100J-21D01*
G01*
X148507695Y-111450000D02*
G75*
G03*
X147880001Y-111710001I5J-887700D01*
G01*
D53*
%TO.N,Net-(Q2-D)*%
X156100000Y-114700000D02*
X156355000Y-114700000D01*
X150145000Y-114700000D02*
X154400000Y-114700000D01*
X154400000Y-114700000D02*
X156100000Y-114700000D01*
D47*
%TO.N,/SDA_ISO*%
X152035355Y-97104644D02*
X151990000Y-97150000D01*
X152150000Y-95937500D02*
X152150000Y-96827868D01*
X152150000Y-96827868D02*
G75*
G02*
X152035367Y-97104656I-391400J-32D01*
G01*
%TO.N,/SCL_BMS*%
X149462500Y-92250000D02*
X149145269Y-92250000D01*
X155458327Y-105718328D02*
X155090000Y-105350000D01*
X154710000Y-104610588D02*
X154710000Y-104580000D01*
X154273797Y-106000000D02*
X155575000Y-106000000D01*
X155090000Y-105350000D02*
X154964143Y-105224143D01*
X151600000Y-104900000D02*
X151618163Y-104900000D01*
X152270000Y-105170000D02*
G75*
G03*
X154273797Y-106000001I2003800J2003800D01*
G01*
X155575000Y-106000000D02*
G75*
G03*
X155458318Y-105718337I-398300J0D01*
G01*
X154964143Y-105224143D02*
G75*
G02*
X154710009Y-104610588I613557J613543D01*
G01*
X151618163Y-104900000D02*
G75*
G02*
X152270011Y-105169989I37J-921800D01*
G01*
X149145269Y-92250000D02*
G75*
G02*
X148590009Y-92019991I31J785300D01*
G01*
%TO.N,/SCL_ISO*%
X142812500Y-91175000D02*
X143157929Y-91175000D01*
X143157929Y-91175000D02*
X143170000Y-91180000D01*
X151650000Y-95937500D02*
X151650000Y-96625858D01*
X151650000Y-96625858D02*
G75*
G03*
X151659988Y-96650012I34100J-42D01*
G01*
%TD*%
%TA.AperFunction,Conductor*%
%TO.N,GND*%
G36*
X142865727Y-112801422D02*
G01*
X142932518Y-112814707D01*
X142974797Y-112823117D01*
X143001474Y-112834167D01*
X143087761Y-112891823D01*
X143108176Y-112912238D01*
X143165832Y-112998525D01*
X143176882Y-113025201D01*
X143198578Y-113134272D01*
X143200000Y-113148709D01*
X143200000Y-116262735D01*
X143199226Y-116273410D01*
X143180746Y-116400169D01*
X143174651Y-116420629D01*
X143123037Y-116531916D01*
X143111355Y-116549785D01*
X143026523Y-116645773D01*
X143018876Y-116653257D01*
X141900000Y-117600000D01*
X141900000Y-117799995D01*
X141884819Y-117915309D01*
X141879819Y-117933969D01*
X141839038Y-118032422D01*
X141829379Y-118049151D01*
X141761533Y-118137570D01*
X141755151Y-118144848D01*
X141649874Y-118250125D01*
X141642597Y-118256507D01*
X141550624Y-118327081D01*
X141533893Y-118336740D01*
X141431303Y-118379234D01*
X141412644Y-118384234D01*
X141297701Y-118399367D01*
X141288042Y-118400000D01*
X134111958Y-118400000D01*
X134102299Y-118399367D01*
X133987355Y-118384234D01*
X133968696Y-118379234D01*
X133866106Y-118336740D01*
X133849380Y-118327084D01*
X133757396Y-118256502D01*
X133750125Y-118250125D01*
X133649874Y-118149874D01*
X133643498Y-118142604D01*
X133572914Y-118050617D01*
X133563259Y-118033893D01*
X133520765Y-117931303D01*
X133515765Y-117912644D01*
X133500633Y-117797701D01*
X133500000Y-117788042D01*
X133500000Y-113411957D01*
X133500633Y-113402298D01*
X133515766Y-113287351D01*
X133520765Y-113268696D01*
X133563259Y-113166106D01*
X133572911Y-113149385D01*
X133643504Y-113057387D01*
X133649866Y-113050133D01*
X133750133Y-112949866D01*
X133757387Y-112943504D01*
X133849385Y-112872911D01*
X133866102Y-112863260D01*
X133968698Y-112820764D01*
X133987351Y-112815766D01*
X134102299Y-112800633D01*
X134111958Y-112800000D01*
X142851291Y-112800000D01*
X142865727Y-112801422D01*
G37*
%TD.AperFunction*%
%TD*%
%TA.AperFunction,Conductor*%
%TO.N,Net-(Q2-S)*%
G36*
X146865727Y-112201422D02*
G01*
X146932518Y-112214707D01*
X146974797Y-112223117D01*
X147001474Y-112234167D01*
X147087761Y-112291823D01*
X147108176Y-112312238D01*
X147165832Y-112398525D01*
X147176882Y-112425201D01*
X147198578Y-112534272D01*
X147200000Y-112548709D01*
X147200000Y-115551290D01*
X147198578Y-115565727D01*
X147176882Y-115674798D01*
X147165832Y-115701474D01*
X147108176Y-115787761D01*
X147087761Y-115808176D01*
X147001474Y-115865832D01*
X146974798Y-115876882D01*
X146865728Y-115898578D01*
X146851291Y-115900000D01*
X145700000Y-115900000D01*
X145553552Y-116046447D01*
X145553548Y-116046451D01*
X145149874Y-116450125D01*
X145142597Y-116456507D01*
X145050624Y-116527081D01*
X145033893Y-116536740D01*
X144931303Y-116579234D01*
X144912644Y-116584234D01*
X144797701Y-116599367D01*
X144788042Y-116600000D01*
X144148709Y-116600000D01*
X144134272Y-116598578D01*
X144025201Y-116576882D01*
X143998525Y-116565832D01*
X143912238Y-116508176D01*
X143891823Y-116487761D01*
X143834167Y-116401474D01*
X143823117Y-116374797D01*
X143801422Y-116265726D01*
X143800000Y-116251290D01*
X143800000Y-113148709D01*
X143801422Y-113134273D01*
X143823117Y-113025202D01*
X143834166Y-112998527D01*
X143891823Y-112912238D01*
X143912238Y-112891823D01*
X143935209Y-112876473D01*
X143998527Y-112834166D01*
X144025200Y-112823117D01*
X144094477Y-112809337D01*
X144134273Y-112801422D01*
X144148709Y-112800000D01*
X145092891Y-112800000D01*
X145092893Y-112800000D01*
X145300000Y-112800000D01*
X145750133Y-112349866D01*
X145757387Y-112343504D01*
X145849385Y-112272911D01*
X145866102Y-112263260D01*
X145968698Y-112220764D01*
X145987351Y-112215766D01*
X146102299Y-112200633D01*
X146111958Y-112200000D01*
X146851291Y-112200000D01*
X146865727Y-112201422D01*
G37*
%TD.AperFunction*%
%TD*%
%TA.AperFunction,Conductor*%
%TO.N,Net-(D2-K)*%
G36*
X155359573Y-109944596D02*
G01*
X155868891Y-110221677D01*
X155874521Y-110228640D01*
X155875000Y-110231954D01*
X155875000Y-110418045D01*
X155871573Y-110426318D01*
X155868891Y-110428323D01*
X155359573Y-110705403D01*
X155350668Y-110706346D01*
X155345355Y-110703029D01*
X155006240Y-110332902D01*
X155003179Y-110324489D01*
X155006240Y-110317097D01*
X155345357Y-109946969D01*
X155353471Y-109943185D01*
X155359573Y-109944596D01*
G37*
%TD.AperFunction*%
%TD*%
%TA.AperFunction,Conductor*%
%TO.N,Net-(D2-K)*%
G36*
X156512782Y-110226281D02*
G01*
X157531090Y-110295816D01*
X157579023Y-110299090D01*
X157587044Y-110303073D01*
X157589899Y-110311560D01*
X157589692Y-110313091D01*
X157502265Y-110743777D01*
X157497261Y-110751203D01*
X157495071Y-110752341D01*
X156910417Y-110981648D01*
X156901464Y-110981479D01*
X156896666Y-110977615D01*
X156733647Y-110752341D01*
X156499354Y-110428573D01*
X156497135Y-110421512D01*
X156499184Y-110303073D01*
X156500313Y-110237753D01*
X156503882Y-110229541D01*
X156512213Y-110226258D01*
X156512782Y-110226281D01*
G37*
%TD.AperFunction*%
%TD*%
%TA.AperFunction,Conductor*%
%TO.N,Net-(D3-K)*%
G36*
X163199851Y-110117371D02*
G01*
X163205250Y-110121932D01*
X163677547Y-110871072D01*
X163679061Y-110879898D01*
X163675923Y-110885585D01*
X163335142Y-111226366D01*
X163326869Y-111229793D01*
X163321307Y-111228386D01*
X162720163Y-110903544D01*
X162714513Y-110896596D01*
X162714046Y-110892557D01*
X162714853Y-110878978D01*
X162748857Y-110306618D01*
X162752768Y-110298565D01*
X162756073Y-110296499D01*
X163190897Y-110117354D01*
X163199851Y-110117371D01*
G37*
%TD.AperFunction*%
%TD*%
%TA.AperFunction,Conductor*%
%TO.N,Net-(D2-A)*%
G36*
X158878689Y-109371612D02*
G01*
X159479836Y-109696455D01*
X159485486Y-109703403D01*
X159485953Y-109707442D01*
X159451142Y-110293379D01*
X159447231Y-110301434D01*
X159443920Y-110303503D01*
X159009103Y-110482645D01*
X159000148Y-110482628D01*
X158994749Y-110478067D01*
X158878312Y-110293379D01*
X158522451Y-109728925D01*
X158520938Y-109720101D01*
X158524074Y-109714416D01*
X158864858Y-109373632D01*
X158873130Y-109370206D01*
X158878689Y-109371612D01*
G37*
%TD.AperFunction*%
%TD*%
%TA.AperFunction,Conductor*%
%TO.N,Net-(D2-A)*%
G36*
X157508562Y-107455311D02*
G01*
X158032821Y-107820728D01*
X158037649Y-107828270D01*
X158037331Y-107833711D01*
X157918876Y-108225622D01*
X157913202Y-108232550D01*
X157912153Y-108233046D01*
X157464569Y-108418441D01*
X157455615Y-108418441D01*
X157450114Y-108413743D01*
X157139789Y-107907039D01*
X157138391Y-107898194D01*
X157140662Y-107893579D01*
X157492769Y-107457557D01*
X157500633Y-107453275D01*
X157508562Y-107455311D01*
G37*
%TD.AperFunction*%
%TD*%
%TA.AperFunction,Conductor*%
%TO.N,Net-(D2-K)*%
G36*
X159629833Y-111985072D02*
G01*
X160030519Y-112326881D01*
X160132846Y-112414172D01*
X160136916Y-112422148D01*
X160135816Y-112428105D01*
X159964906Y-112786892D01*
X159958254Y-112792887D01*
X159951283Y-112793153D01*
X159351563Y-112630630D01*
X159344474Y-112625158D01*
X159343296Y-112622269D01*
X159269735Y-112338086D01*
X159270980Y-112329218D01*
X159272785Y-112326885D01*
X159613970Y-111985700D01*
X159622242Y-111982274D01*
X159629833Y-111985072D01*
G37*
%TD.AperFunction*%
%TD*%
%TA.AperFunction,Conductor*%
%TO.N,Net-(D2-K)*%
G36*
X158101438Y-110523156D02*
G01*
X158104383Y-110525048D01*
X158626166Y-110983747D01*
X158630117Y-110991783D01*
X158627228Y-111000259D01*
X158626714Y-111000807D01*
X158286240Y-111341282D01*
X158277967Y-111344709D01*
X158276048Y-111344550D01*
X157418824Y-111201992D01*
X157411225Y-111197255D01*
X157409202Y-111188532D01*
X157409272Y-111188149D01*
X157498003Y-110755581D01*
X157503021Y-110748167D01*
X157505284Y-110747006D01*
X158092489Y-110522904D01*
X158101438Y-110523156D01*
G37*
%TD.AperFunction*%
%TD*%
%TA.AperFunction,Conductor*%
%TO.N,GND*%
G36*
X153965179Y-93625908D02*
G01*
X154305099Y-93738918D01*
X154311869Y-93744779D01*
X154312510Y-93753711D01*
X154306649Y-93760481D01*
X154305098Y-93761123D01*
X153965186Y-93874107D01*
X153959700Y-93874565D01*
X153811509Y-93851548D01*
X153803860Y-93846892D01*
X153801608Y-93839736D01*
X153805507Y-93659784D01*
X153809112Y-93651589D01*
X153815359Y-93648485D01*
X153959647Y-93625456D01*
X153965179Y-93625908D01*
G37*
%TD.AperFunction*%
%TD*%
%TA.AperFunction,Conductor*%
%TO.N,GND*%
G36*
X154889846Y-93648646D02*
G01*
X154897594Y-93653136D01*
X154900000Y-93660243D01*
X154900000Y-93839756D01*
X154896573Y-93848029D01*
X154889846Y-93851353D01*
X154715177Y-93874643D01*
X154709940Y-93874149D01*
X154606486Y-93839756D01*
X154369896Y-93761102D01*
X154363127Y-93755241D01*
X154362485Y-93746309D01*
X154368347Y-93739539D01*
X154369893Y-93738898D01*
X154709944Y-93625849D01*
X154715172Y-93625356D01*
X154889846Y-93648646D01*
G37*
%TD.AperFunction*%
%TD*%
%TA.AperFunction,Conductor*%
%TO.N,GND*%
G36*
X155497810Y-93297372D02*
G01*
X155893204Y-93667698D01*
X155896900Y-93675854D01*
X155894437Y-93683426D01*
X155569485Y-94100695D01*
X155561698Y-94105117D01*
X155555561Y-94104223D01*
X154982007Y-93853068D01*
X154975803Y-93846611D01*
X154975000Y-93842351D01*
X154975000Y-93656111D01*
X154978427Y-93647838D01*
X154980012Y-93646511D01*
X155483132Y-93296308D01*
X155491878Y-93294395D01*
X155497810Y-93297372D01*
G37*
%TD.AperFunction*%
%TD*%
%TA.AperFunction,Conductor*%
%TO.N,GND*%
G36*
X155818395Y-93477977D02*
G01*
X155818823Y-93478886D01*
X155900080Y-93672805D01*
X155900989Y-93677379D01*
X155900058Y-93886937D01*
X155896594Y-93895195D01*
X155888306Y-93898585D01*
X155887022Y-93898508D01*
X155475282Y-93851191D01*
X155467454Y-93846843D01*
X155464918Y-93839568D01*
X155464918Y-93657077D01*
X155468345Y-93648804D01*
X155471182Y-93646717D01*
X155802602Y-93473044D01*
X155811520Y-93472240D01*
X155818395Y-93477977D01*
G37*
%TD.AperFunction*%
%TD*%
%TA.AperFunction,Conductor*%
%TO.N,GND*%
G36*
X150241126Y-90552927D02*
G01*
X150249302Y-90556579D01*
X150252318Y-90562534D01*
X150274466Y-90684557D01*
X150274056Y-90690338D01*
X150161134Y-91029933D01*
X150155272Y-91036702D01*
X150146340Y-91037343D01*
X150139571Y-91031481D01*
X150138918Y-91029897D01*
X150026411Y-90687923D01*
X150026017Y-90682157D01*
X150048888Y-90557572D01*
X150053753Y-90550055D01*
X150060715Y-90547990D01*
X150241126Y-90552927D01*
G37*
%TD.AperFunction*%
%TD*%
%TA.AperFunction,Conductor*%
%TO.N,GND*%
G36*
X150419270Y-91873244D02*
G01*
X150774104Y-91988238D01*
X150780917Y-91994047D01*
X150781626Y-92002974D01*
X150781324Y-92003800D01*
X150701608Y-92198505D01*
X150699016Y-92202382D01*
X150550267Y-92349815D01*
X150541979Y-92353205D01*
X150533721Y-92349741D01*
X150532799Y-92348692D01*
X150277384Y-92020611D01*
X150275006Y-92011978D01*
X150278342Y-92005152D01*
X150407393Y-91876101D01*
X150415665Y-91872675D01*
X150419270Y-91873244D01*
G37*
%TD.AperFunction*%
%TD*%
%TA.AperFunction,Conductor*%
%TO.N,GND*%
G36*
X142708064Y-112030398D02*
G01*
X142709056Y-112031186D01*
X143113406Y-112352023D01*
X143117757Y-112359849D01*
X143116006Y-112367467D01*
X142840900Y-112799999D01*
X142840901Y-112800000D01*
X142825000Y-112825000D01*
X142675000Y-112825000D01*
X142328971Y-112400529D01*
X142326400Y-112391951D01*
X142329873Y-112384759D01*
X142692627Y-112031185D01*
X142700943Y-112027865D01*
X142708064Y-112030398D01*
G37*
%TD.AperFunction*%
%TD*%
%TA.AperFunction,Conductor*%
%TO.N,GND*%
G36*
X153160461Y-95968347D02*
G01*
X153161103Y-95969897D01*
X153274149Y-96309940D01*
X153274643Y-96315177D01*
X153251354Y-96489846D01*
X153246864Y-96497594D01*
X153239757Y-96500000D01*
X153060243Y-96500000D01*
X153051970Y-96496573D01*
X153048646Y-96489846D01*
X153025356Y-96315172D01*
X153025849Y-96309944D01*
X153138897Y-95969896D01*
X153144759Y-95963127D01*
X153153691Y-95962485D01*
X153160461Y-95968347D01*
G37*
%TD.AperFunction*%
%TD*%
%TA.AperFunction,Conductor*%
%TO.N,GND*%
G36*
X150436702Y-89417739D02*
G01*
X150870580Y-89597100D01*
X150876915Y-89603427D01*
X150877198Y-89604181D01*
X151031616Y-90063073D01*
X151031007Y-90072007D01*
X151024258Y-90077893D01*
X151023443Y-90078135D01*
X150365778Y-90247373D01*
X150357012Y-90246174D01*
X150196133Y-90153285D01*
X150190682Y-90146181D01*
X150190847Y-90139565D01*
X150212617Y-90072007D01*
X150421111Y-89424969D01*
X150426910Y-89418146D01*
X150435835Y-89417422D01*
X150436702Y-89417739D01*
G37*
%TD.AperFunction*%
%TD*%
%TA.AperFunction,Conductor*%
%TO.N,GND*%
G36*
X150676755Y-89517838D02*
G01*
X150871169Y-89597435D01*
X150877527Y-89603741D01*
X150877564Y-89603830D01*
X150957090Y-89798069D01*
X150957053Y-89807024D01*
X150951745Y-89812838D01*
X150633149Y-89981857D01*
X150624235Y-89982707D01*
X150619393Y-89979794D01*
X150490320Y-89850721D01*
X150486893Y-89842448D01*
X150488357Y-89836781D01*
X150662087Y-89522997D01*
X150669091Y-89517421D01*
X150676755Y-89517838D01*
G37*
%TD.AperFunction*%
%TD*%
%TA.AperFunction,Conductor*%
%TO.N,GND*%
G36*
X153248030Y-95378427D02*
G01*
X153251354Y-95385154D01*
X153274643Y-95559822D01*
X153274149Y-95565059D01*
X153161103Y-95905102D01*
X153155241Y-95911872D01*
X153146309Y-95912514D01*
X153139539Y-95906652D01*
X153138897Y-95905102D01*
X153130523Y-95879913D01*
X153025849Y-95565055D01*
X153025356Y-95559826D01*
X153048646Y-95385153D01*
X153053136Y-95377406D01*
X153060243Y-95375000D01*
X153239757Y-95375000D01*
X153248030Y-95378427D01*
G37*
%TD.AperFunction*%
%TD*%
%TA.AperFunction,Conductor*%
%TO.N,GND*%
G36*
X153202192Y-94799918D02*
G01*
X153396834Y-94881478D01*
X153403140Y-94887836D01*
X153403103Y-94896791D01*
X153402997Y-94897035D01*
X153253093Y-95233120D01*
X153246594Y-95239280D01*
X153242408Y-95240054D01*
X153059875Y-95240054D01*
X153051602Y-95236627D01*
X153048341Y-95230320D01*
X152989675Y-94886104D01*
X152977318Y-94813602D01*
X152979306Y-94804872D01*
X152986886Y-94800104D01*
X152988791Y-94799938D01*
X153197622Y-94799010D01*
X153202192Y-94799918D01*
G37*
%TD.AperFunction*%
%TD*%
%TA.AperFunction,Conductor*%
%TO.N,GND*%
G36*
X152748030Y-95378427D02*
G01*
X152751354Y-95385154D01*
X152774643Y-95559822D01*
X152774149Y-95565059D01*
X152661103Y-95905102D01*
X152655241Y-95911872D01*
X152646309Y-95912514D01*
X152639539Y-95906652D01*
X152638897Y-95905102D01*
X152630523Y-95879913D01*
X152525849Y-95565055D01*
X152525356Y-95559826D01*
X152548646Y-95385153D01*
X152553136Y-95377406D01*
X152560243Y-95375000D01*
X152739757Y-95375000D01*
X152748030Y-95378427D01*
G37*
%TD.AperFunction*%
%TD*%
%TA.AperFunction,Conductor*%
%TO.N,GND*%
G36*
X150160522Y-91094393D02*
G01*
X150161280Y-91096167D01*
X150274082Y-91434745D01*
X150274523Y-91440364D01*
X150252783Y-91570979D01*
X150248045Y-91578577D01*
X150244270Y-91580359D01*
X150070763Y-91626844D01*
X150061885Y-91625675D01*
X150056434Y-91618571D01*
X150056202Y-91617510D01*
X150049562Y-91578577D01*
X150028984Y-91457922D01*
X150029334Y-91452518D01*
X150138998Y-91096420D01*
X150144708Y-91089523D01*
X150153624Y-91088683D01*
X150160522Y-91094393D01*
G37*
%TD.AperFunction*%
%TD*%
%TA.AperFunction,Conductor*%
%TO.N,GND*%
G36*
X153247007Y-96592557D02*
G01*
X153250426Y-96600388D01*
X153274728Y-97242833D01*
X153271616Y-97251230D01*
X153268735Y-97253493D01*
X152834283Y-97495822D01*
X152825389Y-97496859D01*
X152818958Y-97492254D01*
X152515897Y-97053565D01*
X152514014Y-97044811D01*
X152517978Y-97037973D01*
X153046732Y-96591886D01*
X153054276Y-96589130D01*
X153238734Y-96589130D01*
X153247007Y-96592557D01*
G37*
%TD.AperFunction*%
%TD*%
%TA.AperFunction,Conductor*%
%TO.N,GND*%
G36*
X153237648Y-96795383D02*
G01*
X153245837Y-96799003D01*
X153249030Y-96806091D01*
X153283928Y-97217367D01*
X153281213Y-97225900D01*
X153273259Y-97230014D01*
X153272322Y-97230056D01*
X153062356Y-97230988D01*
X153057782Y-97230079D01*
X152864178Y-97148946D01*
X152857872Y-97142588D01*
X152857909Y-97133633D01*
X152858468Y-97132480D01*
X153044765Y-96797115D01*
X153051778Y-96791548D01*
X153055268Y-96791101D01*
X153237648Y-96795383D01*
G37*
%TD.AperFunction*%
%TD*%
%TA.AperFunction,Conductor*%
%TO.N,GND*%
G36*
X153366735Y-93349806D02*
G01*
X153367294Y-93350411D01*
X153598335Y-93618520D01*
X153601140Y-93627024D01*
X153600947Y-93628441D01*
X153565426Y-93806980D01*
X153560451Y-93814425D01*
X153551668Y-93816172D01*
X153551141Y-93816055D01*
X153127043Y-93711125D01*
X153119835Y-93705811D01*
X153118495Y-93696957D01*
X153119021Y-93695345D01*
X153198121Y-93502001D01*
X153200702Y-93498135D01*
X153350190Y-93349743D01*
X153358474Y-93346349D01*
X153366735Y-93349806D01*
G37*
%TD.AperFunction*%
%TD*%
%TA.AperFunction,Conductor*%
%TO.N,GND*%
G36*
X151372586Y-105281345D02*
G01*
X151373617Y-105281882D01*
X151578102Y-105388290D01*
X151583859Y-105395149D01*
X151583080Y-105404070D01*
X151576954Y-105409569D01*
X151326782Y-105507177D01*
X151320855Y-105507857D01*
X151126763Y-105479801D01*
X151119065Y-105475225D01*
X151116857Y-105466547D01*
X151116955Y-105465976D01*
X151151723Y-105291215D01*
X151156698Y-105283771D01*
X151163095Y-105281799D01*
X151367085Y-105280025D01*
X151372586Y-105281345D01*
G37*
%TD.AperFunction*%
%TD*%
%TA.AperFunction,Conductor*%
%TO.N,GND*%
G36*
X150766592Y-104949947D02*
G01*
X150767268Y-104950690D01*
X151008019Y-105239200D01*
X151010689Y-105247748D01*
X151009845Y-105251174D01*
X150940014Y-105419751D01*
X150933682Y-105426082D01*
X150925968Y-105426516D01*
X150526422Y-105311479D01*
X150519420Y-105305897D01*
X150518416Y-105296999D01*
X150518822Y-105295827D01*
X150598176Y-105101818D01*
X150600764Y-105097944D01*
X150750048Y-104949878D01*
X150758333Y-104946486D01*
X150766592Y-104949947D01*
G37*
%TD.AperFunction*%
%TD*%
%TA.AperFunction,Conductor*%
%TO.N,GND*%
G36*
X153002985Y-93418337D02*
G01*
X153198296Y-93498233D01*
X153202172Y-93500822D01*
X153349313Y-93649229D01*
X153352704Y-93657516D01*
X153349242Y-93665775D01*
X153347704Y-93667057D01*
X153017823Y-93897499D01*
X153009079Y-93899428D01*
X153005273Y-93898040D01*
X152847263Y-93806812D01*
X152841812Y-93799708D01*
X152842234Y-93792375D01*
X152987770Y-93424894D01*
X152994002Y-93418466D01*
X153002956Y-93418326D01*
X153002985Y-93418337D01*
G37*
%TD.AperFunction*%
%TD*%
%TA.AperFunction,Conductor*%
%TO.N,+3.3V*%
G36*
X148748517Y-88832694D02*
G01*
X149486288Y-89120856D01*
X149492747Y-89127058D01*
X149493040Y-89135716D01*
X149327514Y-89595703D01*
X149321488Y-89602327D01*
X149320780Y-89602632D01*
X148886416Y-89773138D01*
X148877463Y-89772971D01*
X148871250Y-89766522D01*
X148871061Y-89766004D01*
X148813310Y-89595703D01*
X148604709Y-88980565D01*
X148605297Y-88971632D01*
X148607363Y-88968693D01*
X148735842Y-88835470D01*
X148744051Y-88831895D01*
X148748517Y-88832694D01*
G37*
%TD.AperFunction*%
%TD*%
%TA.AperFunction,Conductor*%
%TO.N,+3.3V*%
G36*
X148244050Y-94944932D02*
G01*
X148817195Y-95147244D01*
X148823855Y-95153229D01*
X148825000Y-95158277D01*
X148825000Y-95344345D01*
X148821573Y-95352618D01*
X148820570Y-95353512D01*
X148317003Y-95752830D01*
X148308391Y-95755286D01*
X148301735Y-95752202D01*
X147906795Y-95382301D01*
X147903099Y-95374145D01*
X147905561Y-95366574D01*
X148230926Y-94948774D01*
X148238712Y-94944354D01*
X148244050Y-94944932D01*
G37*
%TD.AperFunction*%
%TD*%
%TA.AperFunction,Conductor*%
%TO.N,+3.3V*%
G36*
X149090055Y-95125849D02*
G01*
X149404913Y-95230523D01*
X149430102Y-95238897D01*
X149436872Y-95244759D01*
X149437514Y-95253691D01*
X149431652Y-95260461D01*
X149430102Y-95261103D01*
X149090059Y-95374149D01*
X149084822Y-95374643D01*
X149081117Y-95374149D01*
X149072345Y-95372979D01*
X148910154Y-95351353D01*
X148902406Y-95346863D01*
X148900000Y-95339756D01*
X148900000Y-95160243D01*
X148903427Y-95151970D01*
X148910153Y-95148646D01*
X149084826Y-95125356D01*
X149090055Y-95125849D01*
G37*
%TD.AperFunction*%
%TD*%
%TA.AperFunction,Conductor*%
%TO.N,+3.3V*%
G36*
X148886013Y-89424441D02*
G01*
X149320772Y-89597330D01*
X149327194Y-89603572D01*
X149327478Y-89604297D01*
X149490400Y-90064509D01*
X149489931Y-90073452D01*
X149483823Y-90079234D01*
X148706619Y-90399044D01*
X148697664Y-90399023D01*
X148693894Y-90396497D01*
X148563326Y-90265929D01*
X148559899Y-90257656D01*
X148560652Y-90253527D01*
X148627985Y-90075000D01*
X148870798Y-89431202D01*
X148876922Y-89424674D01*
X148885872Y-89424387D01*
X148886013Y-89424441D01*
G37*
%TD.AperFunction*%
%TD*%
%TA.AperFunction,Conductor*%
%TO.N,+3.3V*%
G36*
X155895562Y-92122760D02*
G01*
X155902513Y-92128406D01*
X155902900Y-92129191D01*
X156097840Y-92564453D01*
X156098094Y-92573404D01*
X156092076Y-92579853D01*
X155316766Y-92938637D01*
X155307818Y-92939002D01*
X155303579Y-92936292D01*
X155172948Y-92805661D01*
X155169521Y-92797388D01*
X155170059Y-92793880D01*
X155421545Y-91993588D01*
X155427294Y-91986725D01*
X155436045Y-91985885D01*
X155895562Y-92122760D01*
G37*
%TD.AperFunction*%
%TD*%
%TA.AperFunction,Conductor*%
%TO.N,+3.3V*%
G36*
X149333426Y-89605562D02*
G01*
X149405510Y-89661698D01*
X149751356Y-89931029D01*
X149755778Y-89938815D01*
X149755272Y-89943943D01*
X149565159Y-90516984D01*
X149559301Y-90523757D01*
X149554054Y-90525000D01*
X149368049Y-90525000D01*
X149359776Y-90521573D01*
X149358989Y-90520704D01*
X149355949Y-90516984D01*
X148947378Y-90017025D01*
X148944798Y-90008452D01*
X148947898Y-90001627D01*
X149317700Y-89606794D01*
X149325854Y-89603099D01*
X149333426Y-89605562D01*
G37*
%TD.AperFunction*%
%TD*%
%TA.AperFunction,Conductor*%
%TO.N,+3.3V*%
G36*
X149561181Y-91503427D02*
G01*
X149564381Y-91509406D01*
X149586277Y-91618890D01*
X149584539Y-91627674D01*
X149583110Y-91629424D01*
X149470806Y-91742627D01*
X149462547Y-91746087D01*
X149454260Y-91742693D01*
X149454194Y-91742627D01*
X149341889Y-91629424D01*
X149338495Y-91621137D01*
X149338722Y-91618889D01*
X149360619Y-91509405D01*
X149365602Y-91501965D01*
X149372092Y-91500000D01*
X149552908Y-91500000D01*
X149561181Y-91503427D01*
G37*
%TD.AperFunction*%
%TD*%
%TA.AperFunction,Conductor*%
%TO.N,+3.3V*%
G36*
X157326318Y-103528427D02*
G01*
X157328323Y-103531109D01*
X157605403Y-104040426D01*
X157606346Y-104049331D01*
X157603029Y-104054644D01*
X157232904Y-104393758D01*
X157224489Y-104396820D01*
X157217096Y-104393758D01*
X156846970Y-104054644D01*
X156843185Y-104046528D01*
X156844596Y-104040426D01*
X157121677Y-103531109D01*
X157128641Y-103525479D01*
X157131955Y-103525000D01*
X157318045Y-103525000D01*
X157326318Y-103528427D01*
G37*
%TD.AperFunction*%
%TD*%
%TA.AperFunction,Conductor*%
%TO.N,+3.3V*%
G36*
X157232902Y-102806240D02*
G01*
X157603029Y-103145355D01*
X157606814Y-103153471D01*
X157605403Y-103159573D01*
X157328323Y-103668891D01*
X157321359Y-103674521D01*
X157318045Y-103675000D01*
X157131955Y-103675000D01*
X157123682Y-103671573D01*
X157121677Y-103668891D01*
X156844596Y-103159573D01*
X156843653Y-103150668D01*
X156846968Y-103145357D01*
X157217097Y-102806240D01*
X157225511Y-102803179D01*
X157232902Y-102806240D01*
G37*
%TD.AperFunction*%
%TD*%
%TA.AperFunction,Conductor*%
%TO.N,+3.3V*%
G36*
X152056975Y-103299098D02*
G01*
X152064932Y-103303207D01*
X152067694Y-103310757D01*
X152067694Y-103489242D01*
X152064267Y-103497515D01*
X152056975Y-103500901D01*
X151833372Y-103519716D01*
X151826997Y-103518440D01*
X151618987Y-103410383D01*
X151613226Y-103403528D01*
X151613998Y-103394606D01*
X151618987Y-103389617D01*
X151827000Y-103281558D01*
X151833369Y-103280283D01*
X152056975Y-103299098D01*
G37*
%TD.AperFunction*%
%TD*%
%TA.AperFunction,Conductor*%
%TO.N,+3.3V*%
G36*
X156001685Y-91228427D02*
G01*
X156003416Y-91230633D01*
X156344392Y-91792866D01*
X156345752Y-91801717D01*
X156341223Y-91808429D01*
X155906835Y-92121080D01*
X155898118Y-92123132D01*
X155893165Y-92121080D01*
X155458776Y-91808429D01*
X155454063Y-91800815D01*
X155455606Y-91792868D01*
X155796584Y-91230633D01*
X155803804Y-91225336D01*
X155806588Y-91225000D01*
X155993412Y-91225000D01*
X156001685Y-91228427D01*
G37*
%TD.AperFunction*%
%TD*%
%TA.AperFunction,Conductor*%
%TO.N,+3.3V*%
G36*
X155906833Y-90678918D02*
G01*
X156203927Y-90892750D01*
X156341223Y-90991569D01*
X156345936Y-90999183D01*
X156344392Y-91007132D01*
X156003416Y-91569367D01*
X155996196Y-91574664D01*
X155993412Y-91575000D01*
X155806588Y-91575000D01*
X155798315Y-91571573D01*
X155796584Y-91569367D01*
X155455607Y-91007132D01*
X155454247Y-90998281D01*
X155458775Y-90991569D01*
X155893165Y-90678918D01*
X155901882Y-90676867D01*
X155906833Y-90678918D01*
G37*
%TD.AperFunction*%
%TD*%
%TA.AperFunction,Conductor*%
%TO.N,+3.3V*%
G36*
X157326318Y-105128427D02*
G01*
X157328323Y-105131109D01*
X157605403Y-105640426D01*
X157606346Y-105649331D01*
X157603029Y-105654644D01*
X157232904Y-105993758D01*
X157224489Y-105996820D01*
X157217096Y-105993758D01*
X156846970Y-105654644D01*
X156843185Y-105646528D01*
X156844596Y-105640426D01*
X157121677Y-105131109D01*
X157128641Y-105125479D01*
X157131955Y-105125000D01*
X157318045Y-105125000D01*
X157326318Y-105128427D01*
G37*
%TD.AperFunction*%
%TD*%
%TA.AperFunction,Conductor*%
%TO.N,+3.3V*%
G36*
X157232902Y-104406240D02*
G01*
X157603029Y-104745355D01*
X157606814Y-104753471D01*
X157605403Y-104759573D01*
X157328323Y-105268891D01*
X157321359Y-105274521D01*
X157318045Y-105275000D01*
X157131955Y-105275000D01*
X157123682Y-105271573D01*
X157121677Y-105268891D01*
X156844596Y-104759573D01*
X156843653Y-104750668D01*
X156846968Y-104745357D01*
X157217097Y-104406240D01*
X157225511Y-104403179D01*
X157232902Y-104406240D01*
G37*
%TD.AperFunction*%
%TD*%
%TA.AperFunction,Conductor*%
%TO.N,+3.3V*%
G36*
X146832925Y-91913794D02*
G01*
X146833217Y-91913958D01*
X146993937Y-92006755D01*
X146999388Y-92013859D01*
X146999253Y-92020381D01*
X146778577Y-92725715D01*
X146772836Y-92732587D01*
X146763917Y-92733387D01*
X146763653Y-92733301D01*
X146304542Y-92577576D01*
X146297808Y-92571673D01*
X146297477Y-92570942D01*
X146119208Y-92136954D01*
X146119235Y-92127999D01*
X146125585Y-92121685D01*
X146126662Y-92121304D01*
X146824017Y-91912880D01*
X146832925Y-91913794D01*
G37*
%TD.AperFunction*%
%TD*%
%TA.AperFunction,Conductor*%
%TO.N,+3.3V*%
G36*
X157326318Y-101928427D02*
G01*
X157328323Y-101931109D01*
X157605403Y-102440426D01*
X157606346Y-102449331D01*
X157603029Y-102454644D01*
X157232904Y-102793758D01*
X157224489Y-102796820D01*
X157217096Y-102793758D01*
X156846970Y-102454644D01*
X156843185Y-102446528D01*
X156844596Y-102440426D01*
X157121677Y-101931109D01*
X157128641Y-101925479D01*
X157131955Y-101925000D01*
X157318045Y-101925000D01*
X157326318Y-101928427D01*
G37*
%TD.AperFunction*%
%TD*%
%TA.AperFunction,Conductor*%
%TO.N,+3.3V*%
G36*
X149968459Y-88819936D02*
G01*
X149971971Y-88822350D01*
X150102554Y-88952933D01*
X150105981Y-88961206D01*
X150105136Y-88965572D01*
X149779402Y-89775449D01*
X149773135Y-89781846D01*
X149764181Y-89781938D01*
X149764090Y-89781901D01*
X149329216Y-89602735D01*
X149322872Y-89596415D01*
X149322592Y-89595674D01*
X149167199Y-89135642D01*
X149167798Y-89126709D01*
X149174091Y-89120976D01*
X149959509Y-88819699D01*
X149968459Y-88819936D01*
G37*
%TD.AperFunction*%
%TD*%
%TA.AperFunction,Conductor*%
%TO.N,+3.3V*%
G36*
X156244889Y-90247092D02*
G01*
X156819058Y-90571641D01*
X156824573Y-90578694D01*
X156825000Y-90581825D01*
X156825000Y-90768174D01*
X156821573Y-90776447D01*
X156819057Y-90778359D01*
X156244890Y-91102906D01*
X156236002Y-91103994D01*
X156229903Y-91099911D01*
X155904597Y-90682188D01*
X155902218Y-90673556D01*
X155904597Y-90667812D01*
X156229904Y-90250087D01*
X156237689Y-90245667D01*
X156244889Y-90247092D01*
G37*
%TD.AperFunction*%
%TD*%
%TA.AperFunction,Conductor*%
%TO.N,+3.3V*%
G36*
X152421696Y-102075442D02*
G01*
X153539402Y-102347083D01*
X153546631Y-102352367D01*
X153548007Y-102361215D01*
X153547842Y-102361824D01*
X153402820Y-102843685D01*
X153397154Y-102850619D01*
X153393467Y-102851866D01*
X152683242Y-102965642D01*
X152674531Y-102963567D01*
X152671069Y-102959597D01*
X152612914Y-102850619D01*
X152277973Y-102222961D01*
X152277101Y-102214049D01*
X152280020Y-102209182D01*
X152410664Y-102078538D01*
X152418936Y-102075112D01*
X152421696Y-102075442D01*
G37*
%TD.AperFunction*%
%TD*%
%TA.AperFunction,Conductor*%
%TO.N,+3.3V*%
G36*
X144364699Y-92145493D02*
G01*
X144369279Y-92149040D01*
X144694437Y-92566573D01*
X144696817Y-92575206D01*
X144693204Y-92582301D01*
X144298040Y-92952411D01*
X144289659Y-92955566D01*
X144283055Y-92953257D01*
X143779713Y-92578508D01*
X143775123Y-92570818D01*
X143775000Y-92569123D01*
X143775000Y-92382954D01*
X143778427Y-92374681D01*
X143782395Y-92372075D01*
X144355748Y-92145349D01*
X144364699Y-92145493D01*
G37*
%TD.AperFunction*%
%TD*%
%TA.AperFunction,Conductor*%
%TO.N,+3.3V*%
G36*
X143566619Y-92283795D02*
G01*
X143817195Y-92372244D01*
X143823855Y-92378229D01*
X143825000Y-92383277D01*
X143825000Y-92566722D01*
X143821573Y-92574995D01*
X143817194Y-92577755D01*
X143566619Y-92666204D01*
X143559824Y-92666506D01*
X142855792Y-92486335D01*
X142848627Y-92480964D01*
X142847358Y-92472099D01*
X142852729Y-92464934D01*
X142855792Y-92463665D01*
X143169913Y-92383277D01*
X143559825Y-92283493D01*
X143566619Y-92283795D01*
G37*
%TD.AperFunction*%
%TD*%
%TA.AperFunction,Conductor*%
%TO.N,+3.3V*%
G36*
X145970095Y-92150088D02*
G01*
X146135772Y-92362832D01*
X146295401Y-92567811D01*
X146297781Y-92576444D01*
X146295401Y-92582189D01*
X145970097Y-92999910D01*
X145962310Y-93004332D01*
X145955109Y-93002906D01*
X145380943Y-92678359D01*
X145375427Y-92671305D01*
X145375000Y-92668174D01*
X145375000Y-92481825D01*
X145378427Y-92473552D01*
X145380939Y-92471642D01*
X145955110Y-92147092D01*
X145963997Y-92146005D01*
X145970095Y-92150088D01*
G37*
%TD.AperFunction*%
%TD*%
%TA.AperFunction,Conductor*%
%TO.N,+3.3V*%
G36*
X145044889Y-92147092D02*
G01*
X145619058Y-92471641D01*
X145624573Y-92478694D01*
X145625000Y-92481825D01*
X145625000Y-92668174D01*
X145621573Y-92676447D01*
X145619057Y-92678359D01*
X145044890Y-93002906D01*
X145036002Y-93003994D01*
X145029903Y-92999911D01*
X144704597Y-92582188D01*
X144702218Y-92573556D01*
X144704597Y-92567812D01*
X145029904Y-92150087D01*
X145037689Y-92145667D01*
X145044889Y-92147092D01*
G37*
%TD.AperFunction*%
%TD*%
%TA.AperFunction,Conductor*%
%TO.N,+3.3V*%
G36*
X155894960Y-96722941D02*
G01*
X155902050Y-96728411D01*
X155902935Y-96730339D01*
X156038296Y-97113762D01*
X156037818Y-97122704D01*
X156031158Y-97128690D01*
X156030955Y-97128759D01*
X155239757Y-97391830D01*
X155230825Y-97391189D01*
X155225640Y-97386040D01*
X155195257Y-97326410D01*
X155141983Y-97221852D01*
X155141282Y-97212926D01*
X155141771Y-97211673D01*
X155420866Y-96604668D01*
X155427434Y-96598584D01*
X155434553Y-96598264D01*
X155894960Y-96722941D01*
G37*
%TD.AperFunction*%
%TD*%
%TA.AperFunction,Conductor*%
%TO.N,+3.3V*%
G36*
X154694233Y-97044452D02*
G01*
X155191069Y-97186602D01*
X155198081Y-97192173D01*
X155198276Y-97192539D01*
X155282893Y-97358613D01*
X155283595Y-97367541D01*
X155280724Y-97372215D01*
X154801518Y-97849430D01*
X154793238Y-97852840D01*
X154785688Y-97850057D01*
X154382124Y-97507261D01*
X154378037Y-97499293D01*
X154380025Y-97491761D01*
X154681345Y-97049116D01*
X154688832Y-97044208D01*
X154694233Y-97044452D01*
G37*
%TD.AperFunction*%
%TD*%
%TA.AperFunction,Conductor*%
%TO.N,+3.3V*%
G36*
X144482294Y-87552816D02*
G01*
X144775267Y-87672388D01*
X144781632Y-87678687D01*
X144782472Y-87684531D01*
X144761961Y-87866592D01*
X144757630Y-87874429D01*
X144753421Y-87876568D01*
X144466013Y-87955163D01*
X144457129Y-87954039D01*
X144452135Y-87948396D01*
X144370900Y-87754410D01*
X144370865Y-87745456D01*
X144370902Y-87745368D01*
X144396406Y-87684531D01*
X144451623Y-87552814D01*
X144457981Y-87546511D01*
X144466833Y-87546506D01*
X144482294Y-87552816D01*
G37*
%TD.AperFunction*%
%TD*%
%TA.AperFunction,Conductor*%
%TO.N,+3.3V*%
G36*
X154841794Y-93104161D02*
G01*
X154844058Y-93106970D01*
X154933182Y-93261348D01*
X154934350Y-93270227D01*
X154928899Y-93277331D01*
X154926544Y-93278364D01*
X154774889Y-93325836D01*
X154769378Y-93326195D01*
X154346106Y-93252155D01*
X154338547Y-93247354D01*
X154336425Y-93240884D01*
X154334159Y-93136396D01*
X154337405Y-93128050D01*
X154345295Y-93124456D01*
X154833368Y-93101133D01*
X154841794Y-93104161D01*
G37*
%TD.AperFunction*%
%TD*%
%TA.AperFunction,Conductor*%
%TO.N,+3.3V*%
G36*
X156751352Y-96303526D02*
G01*
X156755000Y-96311704D01*
X156755004Y-96312019D01*
X156755004Y-96495817D01*
X156752353Y-96503234D01*
X156370968Y-96968530D01*
X156363073Y-96972756D01*
X156356370Y-96971413D01*
X155903945Y-96727664D01*
X155898287Y-96720723D01*
X155897986Y-96719475D01*
X155857724Y-96500000D01*
X155828087Y-96338438D01*
X155829965Y-96329683D01*
X155837484Y-96324820D01*
X155839272Y-96324632D01*
X156742989Y-96300323D01*
X156751352Y-96303526D01*
G37*
%TD.AperFunction*%
%TD*%
%TA.AperFunction,Conductor*%
%TO.N,+3.3V*%
G36*
X153771960Y-95934629D02*
G01*
X153775732Y-95942507D01*
X153803443Y-96375125D01*
X153800552Y-96383600D01*
X153794795Y-96387174D01*
X153619847Y-96434051D01*
X153610969Y-96432882D01*
X153606497Y-96428259D01*
X153583246Y-96384693D01*
X153578825Y-96376411D01*
X153577607Y-96368979D01*
X153648182Y-95945884D01*
X153652924Y-95938288D01*
X153659211Y-95936121D01*
X153763548Y-95931566D01*
X153771960Y-95934629D01*
G37*
%TD.AperFunction*%
%TD*%
%TA.AperFunction,Conductor*%
%TO.N,+3.3V*%
G36*
X153892338Y-96649134D02*
G01*
X154579563Y-97019834D01*
X154585217Y-97026777D01*
X154584681Y-97034925D01*
X154377525Y-97496151D01*
X154371009Y-97502294D01*
X154370396Y-97502507D01*
X153936969Y-97640256D01*
X153928046Y-97639496D01*
X153922275Y-97632650D01*
X153922056Y-97631866D01*
X153705016Y-96732753D01*
X153706406Y-96723909D01*
X153711911Y-96719201D01*
X153882307Y-96648622D01*
X153891260Y-96648622D01*
X153892338Y-96649134D01*
G37*
%TD.AperFunction*%
%TD*%
%TA.AperFunction,Conductor*%
%TO.N,+3.3V*%
G36*
X148708309Y-96542153D02*
G01*
X148718858Y-96545138D01*
X149073499Y-96645494D01*
X149080525Y-96651043D01*
X149081570Y-96659937D01*
X149081140Y-96661184D01*
X149001608Y-96855439D01*
X148999016Y-96859316D01*
X148849927Y-97007085D01*
X148841639Y-97010475D01*
X148833381Y-97007011D01*
X148832729Y-97006297D01*
X148567177Y-96689917D01*
X148564483Y-96681377D01*
X148567865Y-96674123D01*
X148696851Y-96545137D01*
X148705123Y-96541711D01*
X148708309Y-96542153D01*
G37*
%TD.AperFunction*%
%TD*%
%TA.AperFunction,Conductor*%
%TO.N,+3.3V*%
G36*
X148249995Y-94522185D02*
G01*
X148381129Y-94653319D01*
X148384556Y-94661592D01*
X148384555Y-94661736D01*
X148375162Y-95424551D01*
X148371634Y-95432781D01*
X148363319Y-95436106D01*
X148361951Y-95436009D01*
X147904823Y-95376427D01*
X147897062Y-95371959D01*
X147896370Y-95370955D01*
X147839415Y-95278370D01*
X147630978Y-94939534D01*
X147629563Y-94930694D01*
X147634425Y-94923690D01*
X148235207Y-94520740D01*
X148243984Y-94518979D01*
X148249995Y-94522185D01*
G37*
%TD.AperFunction*%
%TD*%
%TA.AperFunction,Conductor*%
%TO.N,+3.3V*%
G36*
X152683285Y-102642774D02*
G01*
X153394334Y-102847949D01*
X153401331Y-102853534D01*
X153402506Y-102856630D01*
X153510245Y-103337265D01*
X153508710Y-103346087D01*
X153501387Y-103351241D01*
X153500129Y-103351451D01*
X152803305Y-103429427D01*
X152802004Y-103429500D01*
X152762303Y-103429500D01*
X152761933Y-103429535D01*
X152732728Y-103429534D01*
X152732727Y-103429534D01*
X152732726Y-103429534D01*
X152643587Y-103447256D01*
X152642607Y-103447408D01*
X152285715Y-103487345D01*
X152277112Y-103484860D01*
X152272814Y-103477245D01*
X152248776Y-103294644D01*
X152250595Y-103286699D01*
X152670265Y-102647593D01*
X152677671Y-102642559D01*
X152683285Y-102642774D01*
G37*
%TD.AperFunction*%
%TD*%
%TA.AperFunction,Conductor*%
%TO.N,+3.3V*%
G36*
X147908176Y-95378489D02*
G01*
X148367195Y-95596296D01*
X148373200Y-95602938D01*
X148373758Y-95608547D01*
X148297926Y-96130835D01*
X148294470Y-96137574D01*
X148160887Y-96266446D01*
X148152554Y-96269724D01*
X148145370Y-96267094D01*
X147596545Y-95819596D01*
X147592299Y-95811712D01*
X147594399Y-95803755D01*
X147893623Y-95382285D01*
X147901204Y-95377525D01*
X147908176Y-95378489D01*
G37*
%TD.AperFunction*%
%TD*%
%TA.AperFunction,Conductor*%
%TO.N,Net-(D1-K)*%
G36*
X150470095Y-100750088D02*
G01*
X150635772Y-100962832D01*
X150795401Y-101167811D01*
X150797781Y-101176444D01*
X150795401Y-101182189D01*
X150470097Y-101599910D01*
X150462310Y-101604332D01*
X150455109Y-101602906D01*
X149880943Y-101278359D01*
X149875427Y-101271305D01*
X149875000Y-101268174D01*
X149875000Y-101081825D01*
X149878427Y-101073552D01*
X149880939Y-101071642D01*
X150455110Y-100747092D01*
X150463997Y-100746005D01*
X150470095Y-100750088D01*
G37*
%TD.AperFunction*%
%TD*%
%TA.AperFunction,Conductor*%
%TO.N,Net-(D1-K)*%
G36*
X149533129Y-100578140D02*
G01*
X150167258Y-101069007D01*
X150170462Y-101071487D01*
X150174906Y-101079261D01*
X150175000Y-101080739D01*
X150175000Y-101267691D01*
X150171573Y-101275964D01*
X150168432Y-101278205D01*
X149452075Y-101627844D01*
X149443137Y-101628394D01*
X149439955Y-101626714D01*
X148971905Y-101278205D01*
X148712938Y-101085378D01*
X148708350Y-101077690D01*
X148710543Y-101069007D01*
X148713858Y-101065993D01*
X149519906Y-100577387D01*
X149528755Y-100576030D01*
X149533129Y-100578140D01*
G37*
%TD.AperFunction*%
%TD*%
%TA.AperFunction,Conductor*%
%TO.N,Net-(D1-K)*%
G36*
X147406838Y-89453928D02*
G01*
X147872359Y-89789464D01*
X147877067Y-89797081D01*
X147875629Y-89804842D01*
X147503385Y-90444187D01*
X147496261Y-90449612D01*
X147493274Y-90450000D01*
X147306726Y-90450000D01*
X147298453Y-90446573D01*
X147296615Y-90444187D01*
X146924370Y-89804842D01*
X146923169Y-89795968D01*
X146927638Y-89789466D01*
X147393160Y-89453929D01*
X147401874Y-89451872D01*
X147406838Y-89453928D01*
G37*
%TD.AperFunction*%
%TD*%
%TA.AperFunction,Conductor*%
%TO.N,Net-(D1-K)*%
G36*
X150782814Y-102583004D02*
G01*
X150784253Y-102584218D01*
X150892623Y-102691693D01*
X150896084Y-102699951D01*
X150892691Y-102708239D01*
X150892623Y-102708307D01*
X150784253Y-102815781D01*
X150775965Y-102819174D01*
X150774090Y-102819015D01*
X150669776Y-102801629D01*
X150662179Y-102796888D01*
X150660000Y-102790088D01*
X150660000Y-102609911D01*
X150663427Y-102601638D01*
X150669774Y-102598370D01*
X150774092Y-102580984D01*
X150782814Y-102583004D01*
G37*
%TD.AperFunction*%
%TD*%
%TA.AperFunction,Conductor*%
%TO.N,Net-(D1-K)*%
G36*
X150525899Y-102580983D02*
G01*
X150630224Y-102598370D01*
X150637821Y-102603111D01*
X150640000Y-102609911D01*
X150640000Y-102790088D01*
X150636573Y-102798361D01*
X150630223Y-102801629D01*
X150525908Y-102819015D01*
X150517185Y-102816995D01*
X150515746Y-102815781D01*
X150407376Y-102708307D01*
X150403915Y-102700049D01*
X150407308Y-102691761D01*
X150407376Y-102691693D01*
X150515747Y-102584217D01*
X150524034Y-102580825D01*
X150525899Y-102580983D01*
G37*
%TD.AperFunction*%
%TD*%
%TA.AperFunction,Conductor*%
%TO.N,Net-(D1-K)*%
G36*
X150997516Y-102235733D02*
G01*
X151000902Y-102243025D01*
X151019716Y-102466627D01*
X151018440Y-102473002D01*
X150910383Y-102681012D01*
X150903528Y-102686773D01*
X150894606Y-102686001D01*
X150889617Y-102681012D01*
X150781559Y-102473002D01*
X150780283Y-102466629D01*
X150799098Y-102243024D01*
X150803207Y-102235068D01*
X150810757Y-102232306D01*
X150989243Y-102232306D01*
X150997516Y-102235733D01*
G37*
%TD.AperFunction*%
%TD*%
%TA.AperFunction,Conductor*%
%TO.N,Net-(D1-K)*%
G36*
X150807765Y-101179293D02*
G01*
X151249851Y-101480636D01*
X151254757Y-101488128D01*
X151253978Y-101494997D01*
X151003068Y-102067993D01*
X150996611Y-102074197D01*
X150992351Y-102075000D01*
X150805654Y-102075000D01*
X150797381Y-102071573D01*
X150796487Y-102070570D01*
X150794443Y-102067993D01*
X150397579Y-101567520D01*
X150395123Y-101558908D01*
X150398725Y-101551733D01*
X150793156Y-101180441D01*
X150801528Y-101177266D01*
X150807765Y-101179293D01*
G37*
%TD.AperFunction*%
%TD*%
%TA.AperFunction,Conductor*%
%TO.N,Net-(D1-K)*%
G36*
X147725881Y-100022182D02*
G01*
X148918767Y-100495678D01*
X148925191Y-100501916D01*
X148925324Y-100510870D01*
X148925319Y-100510881D01*
X148703475Y-101067998D01*
X148697231Y-101074417D01*
X148691771Y-101075340D01*
X147808142Y-101012163D01*
X147800134Y-101008155D01*
X147797736Y-101003740D01*
X147534893Y-100093305D01*
X147535891Y-100084407D01*
X147542516Y-100078934D01*
X147717953Y-100021931D01*
X147725881Y-100022182D01*
G37*
%TD.AperFunction*%
%TD*%
%TA.AperFunction,Conductor*%
%TO.N,Net-(J1-Pin_5)*%
G36*
X157412441Y-95421263D02*
G01*
X157418147Y-95427281D01*
X157499097Y-95620608D01*
X157499132Y-95629563D01*
X157499095Y-95629651D01*
X157418110Y-95822820D01*
X157411751Y-95829124D01*
X157403570Y-95829379D01*
X157093310Y-95724413D01*
X157086572Y-95718515D01*
X157085460Y-95711804D01*
X157109368Y-95530188D01*
X157113845Y-95522434D01*
X157117109Y-95520671D01*
X157403502Y-95420753D01*
X157412441Y-95421263D01*
G37*
%TD.AperFunction*%
%TD*%
%TA.AperFunction,Conductor*%
%TO.N,Net-(J1-Pin_5)*%
G36*
X155333880Y-94362623D02*
G01*
X156055723Y-94670462D01*
X156061987Y-94676858D01*
X156061945Y-94685692D01*
X155903253Y-95069692D01*
X155896926Y-95076029D01*
X155894596Y-95076723D01*
X155435058Y-95162865D01*
X155426295Y-95161021D01*
X155421792Y-95155033D01*
X155384318Y-95041518D01*
X155215629Y-94530529D01*
X155216289Y-94521600D01*
X155217004Y-94520374D01*
X155319565Y-94366884D01*
X155327010Y-94361911D01*
X155333880Y-94362623D01*
G37*
%TD.AperFunction*%
%TD*%
%TA.AperFunction,Conductor*%
%TO.N,Net-(J1-Pin_5)*%
G36*
X153807237Y-97937322D02*
G01*
X154006939Y-98094897D01*
X154046974Y-98126486D01*
X154051347Y-98134301D01*
X154051427Y-98135671D01*
X154051427Y-98317865D01*
X154048000Y-98326138D01*
X154039727Y-98329565D01*
X154039301Y-98329557D01*
X153651224Y-98315409D01*
X153643081Y-98311683D01*
X153639950Y-98303769D01*
X153639021Y-98094895D01*
X153642410Y-98086611D01*
X153791745Y-97938208D01*
X153800028Y-97934808D01*
X153807237Y-97937322D01*
G37*
%TD.AperFunction*%
%TD*%
%TA.AperFunction,Conductor*%
%TO.N,Net-(J1-Pin_5)*%
G36*
X156479236Y-97499428D02*
G01*
X156480845Y-97500760D01*
X156629176Y-97647825D01*
X156631767Y-97651704D01*
X156711659Y-97847008D01*
X156711620Y-97855963D01*
X156705260Y-97862267D01*
X156705225Y-97862281D01*
X156339559Y-98010478D01*
X156330604Y-98010410D01*
X156325031Y-98005485D01*
X156320837Y-97998222D01*
X156233813Y-97847490D01*
X156232646Y-97838614D01*
X156234304Y-97835016D01*
X156462968Y-97502438D01*
X156470477Y-97497565D01*
X156479236Y-97499428D01*
G37*
%TD.AperFunction*%
%TD*%
%TA.AperFunction,Conductor*%
%TO.N,Net-(J1-Pin_5)*%
G36*
X154906214Y-94169015D02*
G01*
X154913693Y-94173940D01*
X154915498Y-94182711D01*
X154915483Y-94182788D01*
X154880541Y-94358403D01*
X154875566Y-94365849D01*
X154869601Y-94367808D01*
X154714669Y-94374900D01*
X154710438Y-94374313D01*
X154373531Y-94262129D01*
X154366764Y-94256264D01*
X154366126Y-94247332D01*
X154371991Y-94240565D01*
X154374199Y-94239726D01*
X154747811Y-94139794D01*
X154753037Y-94139608D01*
X154906214Y-94169015D01*
G37*
%TD.AperFunction*%
%TD*%
%TA.AperFunction,Conductor*%
%TO.N,Net-(J1-Pin_5)*%
G36*
X157169412Y-95199218D02*
G01*
X157494365Y-95616952D01*
X157496740Y-95625586D01*
X157493125Y-95632679D01*
X157098046Y-96002412D01*
X157089663Y-96005563D01*
X157083056Y-96003248D01*
X156555986Y-95610139D01*
X156551403Y-95602446D01*
X156552171Y-95596285D01*
X156623388Y-95424350D01*
X156629638Y-95418053D01*
X157155621Y-95195625D01*
X157164575Y-95195560D01*
X157169412Y-95199218D01*
G37*
%TD.AperFunction*%
%TD*%
%TA.AperFunction,Conductor*%
%TO.N,Net-(J1-Pin_5)*%
G36*
X156374946Y-94895098D02*
G01*
X156380118Y-94899585D01*
X156722607Y-95446873D01*
X156724091Y-95455703D01*
X156723990Y-95456107D01*
X156676361Y-95633862D01*
X156670910Y-95640966D01*
X156662857Y-95642324D01*
X156544082Y-95619553D01*
X155802508Y-95477377D01*
X155795028Y-95472453D01*
X155793220Y-95463683D01*
X155793422Y-95462814D01*
X155795248Y-95456107D01*
X155897479Y-95080458D01*
X155902958Y-95073376D01*
X155904562Y-95072613D01*
X156365996Y-94894874D01*
X156374946Y-94895098D01*
G37*
%TD.AperFunction*%
%TD*%
%TA.AperFunction,Conductor*%
%TO.N,Net-(U1-VC4A)*%
G36*
X142070095Y-95550088D02*
G01*
X142235772Y-95762832D01*
X142395401Y-95967811D01*
X142397781Y-95976444D01*
X142395401Y-95982189D01*
X142070097Y-96399910D01*
X142062310Y-96404332D01*
X142055109Y-96402906D01*
X141480943Y-96078359D01*
X141475427Y-96071305D01*
X141475000Y-96068174D01*
X141475000Y-95881825D01*
X141478427Y-95873552D01*
X141480939Y-95871642D01*
X142055110Y-95547092D01*
X142063997Y-95546005D01*
X142070095Y-95550088D01*
G37*
%TD.AperFunction*%
%TD*%
%TA.AperFunction,Conductor*%
%TO.N,Net-(U1-VC4A)*%
G36*
X141024764Y-95653683D02*
G01*
X141518034Y-95871918D01*
X141524213Y-95878400D01*
X141525000Y-95882618D01*
X141525000Y-96069760D01*
X141521573Y-96078033D01*
X141521092Y-96078488D01*
X141118969Y-96437473D01*
X141110515Y-96440426D01*
X141103401Y-96437487D01*
X141103385Y-96437473D01*
X140731502Y-96106673D01*
X140727598Y-96098614D01*
X140729456Y-96091574D01*
X141010213Y-95658023D01*
X141017586Y-95652943D01*
X141024764Y-95653683D01*
G37*
%TD.AperFunction*%
%TD*%
%TA.AperFunction,Conductor*%
%TO.N,Net-(U1-VC4A)*%
G36*
X143635071Y-94234054D02*
G01*
X144095834Y-94422302D01*
X144102196Y-94428602D01*
X144102449Y-94429260D01*
X144254655Y-94863291D01*
X144254159Y-94872232D01*
X144247486Y-94878204D01*
X144246832Y-94878412D01*
X143400725Y-95120423D01*
X143391828Y-95119403D01*
X143389234Y-95117447D01*
X143258624Y-94986837D01*
X143255197Y-94978564D01*
X143256414Y-94973370D01*
X143620166Y-94239688D01*
X143626911Y-94233799D01*
X143635071Y-94234054D01*
G37*
%TD.AperFunction*%
%TD*%
%TA.AperFunction,Conductor*%
%TO.N,Net-(U1-VC4A)*%
G36*
X143043381Y-95194955D02*
G01*
X143047066Y-95197445D01*
X143177649Y-95328028D01*
X143181076Y-95336301D01*
X143180300Y-95340491D01*
X142879024Y-96125905D01*
X142872861Y-96132402D01*
X142864356Y-96132800D01*
X142404338Y-95977411D01*
X142397596Y-95971516D01*
X142397264Y-95970783D01*
X142218098Y-95535909D01*
X142218115Y-95526954D01*
X142224459Y-95520634D01*
X143034429Y-95194863D01*
X143043381Y-95194955D01*
G37*
%TD.AperFunction*%
%TD*%
%TA.AperFunction,Conductor*%
%TO.N,Net-(U1-VC4A)*%
G36*
X148782814Y-102583004D02*
G01*
X148784253Y-102584218D01*
X148892623Y-102691693D01*
X148896084Y-102699951D01*
X148892691Y-102708239D01*
X148892623Y-102708307D01*
X148784253Y-102815781D01*
X148775965Y-102819174D01*
X148774090Y-102819015D01*
X148669776Y-102801629D01*
X148662179Y-102796888D01*
X148660000Y-102790088D01*
X148660000Y-102609911D01*
X148663427Y-102601638D01*
X148669774Y-102598370D01*
X148774092Y-102580984D01*
X148782814Y-102583004D01*
G37*
%TD.AperFunction*%
%TD*%
%TA.AperFunction,Conductor*%
%TO.N,Net-(U1-VC4A)*%
G36*
X144573063Y-94277811D02*
G01*
X144578729Y-94284365D01*
X144853645Y-95077701D01*
X144853116Y-95086640D01*
X144850863Y-95089805D01*
X144720251Y-95220417D01*
X144711978Y-95223844D01*
X144707323Y-95222878D01*
X143915843Y-94879643D01*
X143909616Y-94873208D01*
X143909752Y-94864282D01*
X144097178Y-94429201D01*
X144103597Y-94422961D01*
X144104370Y-94422684D01*
X144564143Y-94277042D01*
X144573063Y-94277811D01*
G37*
%TD.AperFunction*%
%TD*%
%TA.AperFunction,Conductor*%
%TO.N,Net-(U1-VC4A)*%
G36*
X149282814Y-102583004D02*
G01*
X149284253Y-102584218D01*
X149392623Y-102691693D01*
X149396084Y-102699951D01*
X149392691Y-102708239D01*
X149392623Y-102708307D01*
X149284253Y-102815781D01*
X149275965Y-102819174D01*
X149274090Y-102819015D01*
X149169776Y-102801629D01*
X149162179Y-102796888D01*
X149160000Y-102790088D01*
X149160000Y-102609911D01*
X149163427Y-102601638D01*
X149169774Y-102598370D01*
X149274092Y-102580984D01*
X149282814Y-102583004D01*
G37*
%TD.AperFunction*%
%TD*%
%TA.AperFunction,Conductor*%
%TO.N,Net-(U1-VC4A)*%
G36*
X149025899Y-102580983D02*
G01*
X149130224Y-102598370D01*
X149137821Y-102603111D01*
X149140000Y-102609911D01*
X149140000Y-102790088D01*
X149136573Y-102798361D01*
X149130223Y-102801629D01*
X149025908Y-102819015D01*
X149017185Y-102816995D01*
X149015746Y-102815781D01*
X148907376Y-102708307D01*
X148903915Y-102700049D01*
X148907308Y-102691761D01*
X148907376Y-102691693D01*
X149015747Y-102584217D01*
X149024034Y-102580825D01*
X149025899Y-102580983D01*
G37*
%TD.AperFunction*%
%TD*%
%TA.AperFunction,Conductor*%
%TO.N,Net-(U1-VC5)*%
G36*
X142070095Y-94000088D02*
G01*
X142235772Y-94212832D01*
X142395401Y-94417811D01*
X142397781Y-94426444D01*
X142395401Y-94432189D01*
X142070097Y-94849910D01*
X142062310Y-94854332D01*
X142055109Y-94852906D01*
X141480943Y-94528359D01*
X141475427Y-94521305D01*
X141475000Y-94518174D01*
X141475000Y-94331825D01*
X141478427Y-94323552D01*
X141480939Y-94321642D01*
X142055110Y-93997092D01*
X142063997Y-93996005D01*
X142070095Y-94000088D01*
G37*
%TD.AperFunction*%
%TD*%
%TA.AperFunction,Conductor*%
%TO.N,Net-(U1-VC5)*%
G36*
X141118969Y-93962525D02*
G01*
X141496571Y-94299621D01*
X141521092Y-94321511D01*
X141524981Y-94329577D01*
X141525000Y-94330239D01*
X141525000Y-94517381D01*
X141521573Y-94525654D01*
X141518034Y-94528081D01*
X141024767Y-94746314D01*
X141015815Y-94746527D01*
X141010212Y-94741974D01*
X140870128Y-94525654D01*
X140729456Y-94308426D01*
X140727837Y-94299621D01*
X140731501Y-94293327D01*
X141103403Y-93962510D01*
X141111860Y-93959573D01*
X141118969Y-93962525D01*
G37*
%TD.AperFunction*%
%TD*%
%TA.AperFunction,Conductor*%
%TO.N,Net-(U1-VC5)*%
G36*
X143099671Y-93674055D02*
G01*
X143105015Y-93679282D01*
X143188712Y-93843552D01*
X143189414Y-93852480D01*
X143189080Y-93853381D01*
X142879350Y-94593538D01*
X142872995Y-94599847D01*
X142864448Y-94599976D01*
X142404060Y-94427310D01*
X142397518Y-94421196D01*
X142397236Y-94420523D01*
X142232318Y-93986233D01*
X142232585Y-93977283D01*
X142239102Y-93971142D01*
X142239326Y-93971060D01*
X143090732Y-93673549D01*
X143099671Y-93674055D01*
G37*
%TD.AperFunction*%
%TD*%
%TA.AperFunction,Conductor*%
%TO.N,Net-(U1-VC5)*%
G36*
X149946704Y-102201209D02*
G01*
X149947964Y-102204396D01*
X149992129Y-102393344D01*
X149991932Y-102399403D01*
X149903015Y-102692571D01*
X149897335Y-102699493D01*
X149891832Y-102700875D01*
X149791464Y-102700989D01*
X149783187Y-102697572D01*
X149779754Y-102689540D01*
X149771319Y-102295964D01*
X149774567Y-102287619D01*
X149777162Y-102285583D01*
X149930722Y-102196925D01*
X149939599Y-102195758D01*
X149946704Y-102201209D01*
G37*
%TD.AperFunction*%
%TD*%
%TA.AperFunction,Conductor*%
%TO.N,Net-(U1-VC3A)*%
G36*
X148298362Y-103663427D02*
G01*
X148301630Y-103669777D01*
X148319015Y-103774091D01*
X148316995Y-103782815D01*
X148315781Y-103784253D01*
X148208307Y-103892623D01*
X148200049Y-103896084D01*
X148191761Y-103892691D01*
X148191693Y-103892623D01*
X148084218Y-103784253D01*
X148080825Y-103775965D01*
X148080982Y-103774102D01*
X148098370Y-103669774D01*
X148103111Y-103662179D01*
X148109911Y-103660000D01*
X148290089Y-103660000D01*
X148298362Y-103663427D01*
G37*
%TD.AperFunction*%
%TD*%
%TA.AperFunction,Conductor*%
%TO.N,Net-(U1-VC3A)*%
G36*
X148208239Y-103407308D02*
G01*
X148208307Y-103407376D01*
X148315781Y-103515746D01*
X148319174Y-103524034D01*
X148319015Y-103525908D01*
X148301630Y-103630223D01*
X148296890Y-103637821D01*
X148290089Y-103640000D01*
X148109911Y-103640000D01*
X148101638Y-103636573D01*
X148098370Y-103630223D01*
X148080984Y-103525906D01*
X148083004Y-103517185D01*
X148084213Y-103515751D01*
X148191693Y-103407375D01*
X148199951Y-103403915D01*
X148208239Y-103407308D01*
G37*
%TD.AperFunction*%
%TD*%
%TA.AperFunction,Conductor*%
%TO.N,Net-(U1-VC3A)*%
G36*
X142924403Y-97196304D02*
G01*
X143055193Y-97327094D01*
X143058620Y-97335367D01*
X143058330Y-97337957D01*
X142877652Y-98134046D01*
X142872479Y-98141355D01*
X142863652Y-98142866D01*
X142863380Y-98142800D01*
X142404553Y-98027034D01*
X142397369Y-98021688D01*
X142396907Y-98020835D01*
X142183618Y-97585253D01*
X142183059Y-97576318D01*
X142188726Y-97569731D01*
X142910731Y-97194196D01*
X142919652Y-97193420D01*
X142924403Y-97196304D01*
G37*
%TD.AperFunction*%
%TD*%
%TA.AperFunction,Conductor*%
%TO.N,Net-(U1-VC3A)*%
G36*
X143636557Y-95857182D02*
G01*
X144095447Y-95972965D01*
X144102630Y-95978311D01*
X144103092Y-95979164D01*
X144316380Y-96414744D01*
X144316940Y-96423681D01*
X144311271Y-96430269D01*
X143589267Y-96805802D01*
X143580346Y-96806579D01*
X143575595Y-96803695D01*
X143444805Y-96672905D01*
X143441378Y-96664632D01*
X143441668Y-96662042D01*
X143495766Y-96423681D01*
X143622348Y-95865949D01*
X143627520Y-95858643D01*
X143636347Y-95857132D01*
X143636557Y-95857182D01*
G37*
%TD.AperFunction*%
%TD*%
%TA.AperFunction,Conductor*%
%TO.N,Net-(U1-VC3A)*%
G36*
X147973010Y-103281566D02*
G01*
X148023752Y-103307961D01*
X148180428Y-103389461D01*
X148186186Y-103396319D01*
X148185409Y-103405240D01*
X148180175Y-103410348D01*
X147961547Y-103517429D01*
X147955321Y-103518572D01*
X147729181Y-103497600D01*
X147721259Y-103493424D01*
X147718611Y-103484870D01*
X147718705Y-103484119D01*
X147746611Y-103307959D01*
X147751290Y-103300326D01*
X147757173Y-103298134D01*
X147966618Y-103280288D01*
X147973010Y-103281566D01*
G37*
%TD.AperFunction*%
%TD*%
%TA.AperFunction,Conductor*%
%TO.N,Net-(U1-VC3A)*%
G36*
X141118969Y-97562525D02*
G01*
X141496571Y-97899621D01*
X141521092Y-97921511D01*
X141524981Y-97929577D01*
X141525000Y-97930239D01*
X141525000Y-98117381D01*
X141521573Y-98125654D01*
X141518034Y-98128081D01*
X141024767Y-98346314D01*
X141015815Y-98346527D01*
X141010212Y-98341974D01*
X140870128Y-98125654D01*
X140729456Y-97908426D01*
X140727837Y-97899621D01*
X140731501Y-97893327D01*
X141103403Y-97562510D01*
X141111860Y-97559573D01*
X141118969Y-97562525D01*
G37*
%TD.AperFunction*%
%TD*%
%TA.AperFunction,Conductor*%
%TO.N,Net-(U1-VC3A)*%
G36*
X142070095Y-97600088D02*
G01*
X142235772Y-97812832D01*
X142395401Y-98017811D01*
X142397781Y-98026444D01*
X142395401Y-98032189D01*
X142070097Y-98449910D01*
X142062310Y-98454332D01*
X142055109Y-98452906D01*
X141480943Y-98128359D01*
X141475427Y-98121305D01*
X141475000Y-98118174D01*
X141475000Y-97931825D01*
X141478427Y-97923552D01*
X141480939Y-97921642D01*
X142055110Y-97597092D01*
X142063997Y-97596005D01*
X142070095Y-97600088D01*
G37*
%TD.AperFunction*%
%TD*%
%TA.AperFunction,Conductor*%
%TO.N,Net-(U1-VC3A)*%
G36*
X144520914Y-95603694D02*
G01*
X144954486Y-95983153D01*
X145033826Y-96052590D01*
X145037795Y-96060617D01*
X145036930Y-96065871D01*
X144965703Y-96237838D01*
X144959372Y-96244170D01*
X144958386Y-96244528D01*
X144443848Y-96405450D01*
X144434929Y-96404648D01*
X144431121Y-96401467D01*
X144105716Y-95983153D01*
X144103341Y-95974519D01*
X144107062Y-95967330D01*
X144505325Y-95603856D01*
X144513744Y-95600811D01*
X144520914Y-95603694D01*
G37*
%TD.AperFunction*%
%TD*%
%TA.AperFunction,Conductor*%
%TO.N,Net-(U1-VC2)*%
G36*
X143635071Y-97834054D02*
G01*
X144095834Y-98022302D01*
X144102196Y-98028602D01*
X144102449Y-98029260D01*
X144254655Y-98463291D01*
X144254159Y-98472232D01*
X144247486Y-98478204D01*
X144246832Y-98478412D01*
X143400725Y-98720423D01*
X143391828Y-98719403D01*
X143389234Y-98717447D01*
X143258624Y-98586837D01*
X143255197Y-98578564D01*
X143256414Y-98573370D01*
X143620166Y-97839688D01*
X143626911Y-97833799D01*
X143635071Y-97834054D01*
G37*
%TD.AperFunction*%
%TD*%
%TA.AperFunction,Conductor*%
%TO.N,Net-(U1-VC2)*%
G36*
X143043381Y-98794955D02*
G01*
X143047066Y-98797445D01*
X143177649Y-98928028D01*
X143181076Y-98936301D01*
X143180300Y-98940491D01*
X142879024Y-99725905D01*
X142872861Y-99732402D01*
X142864356Y-99732800D01*
X142404338Y-99577411D01*
X142397596Y-99571516D01*
X142397264Y-99570783D01*
X142218098Y-99135909D01*
X142218115Y-99126954D01*
X142224459Y-99120634D01*
X143034429Y-98794863D01*
X143043381Y-98794955D01*
G37*
%TD.AperFunction*%
%TD*%
%TA.AperFunction,Conductor*%
%TO.N,Net-(U1-VC2)*%
G36*
X141024764Y-99253683D02*
G01*
X141518034Y-99471918D01*
X141524213Y-99478400D01*
X141525000Y-99482618D01*
X141525000Y-99669760D01*
X141521573Y-99678033D01*
X141521092Y-99678488D01*
X141118969Y-100037473D01*
X141110515Y-100040426D01*
X141103401Y-100037487D01*
X141103385Y-100037473D01*
X140731502Y-99706673D01*
X140727598Y-99698614D01*
X140729456Y-99691574D01*
X141010213Y-99258023D01*
X141017586Y-99252943D01*
X141024764Y-99253683D01*
G37*
%TD.AperFunction*%
%TD*%
%TA.AperFunction,Conductor*%
%TO.N,Net-(U1-VC2)*%
G36*
X142070095Y-99150088D02*
G01*
X142235772Y-99362832D01*
X142395401Y-99567811D01*
X142397781Y-99576444D01*
X142395401Y-99582189D01*
X142070097Y-99999910D01*
X142062310Y-100004332D01*
X142055109Y-100002906D01*
X141480943Y-99678359D01*
X141475427Y-99671305D01*
X141475000Y-99668174D01*
X141475000Y-99481825D01*
X141478427Y-99473552D01*
X141480939Y-99471642D01*
X142055110Y-99147092D01*
X142063997Y-99146005D01*
X142070095Y-99150088D01*
G37*
%TD.AperFunction*%
%TD*%
%TA.AperFunction,Conductor*%
%TO.N,Net-(U1-VC2)*%
G36*
X147972763Y-104281437D02*
G01*
X148005770Y-104298607D01*
X148179021Y-104388730D01*
X148184779Y-104395588D01*
X148184002Y-104404509D01*
X148178213Y-104409872D01*
X147938770Y-104512028D01*
X147932766Y-104512880D01*
X147729477Y-104488144D01*
X147721678Y-104483743D01*
X147719276Y-104475117D01*
X147719334Y-104474700D01*
X147747221Y-104298606D01*
X147751900Y-104290972D01*
X147758292Y-104288747D01*
X147966885Y-104280128D01*
X147972763Y-104281437D01*
G37*
%TD.AperFunction*%
%TD*%
%TA.AperFunction,Conductor*%
%TO.N,Net-(U1-VC2)*%
G36*
X144519677Y-97651766D02*
G01*
X145036754Y-98100325D01*
X145040758Y-98108335D01*
X145039512Y-98114475D01*
X144955038Y-98280261D01*
X144948334Y-98286042D01*
X144443968Y-98455234D01*
X144435035Y-98454616D01*
X144431011Y-98451324D01*
X144105720Y-98033048D01*
X144103346Y-98024413D01*
X144107033Y-98017257D01*
X144504090Y-97651992D01*
X144512498Y-97648914D01*
X144519677Y-97651766D01*
G37*
%TD.AperFunction*%
%TD*%
%TA.AperFunction,Conductor*%
%TO.N,Net-(U1-VC1)*%
G36*
X141118969Y-101162525D02*
G01*
X141496571Y-101499621D01*
X141521092Y-101521511D01*
X141524981Y-101529577D01*
X141525000Y-101530239D01*
X141525000Y-101717381D01*
X141521573Y-101725654D01*
X141518034Y-101728081D01*
X141024767Y-101946314D01*
X141015815Y-101946527D01*
X141010212Y-101941974D01*
X140870128Y-101725654D01*
X140729456Y-101508426D01*
X140727837Y-101499621D01*
X140731501Y-101493327D01*
X141103403Y-101162510D01*
X141111860Y-101159573D01*
X141118969Y-101162525D01*
G37*
%TD.AperFunction*%
%TD*%
%TA.AperFunction,Conductor*%
%TO.N,Net-(U1-VC1)*%
G36*
X142070095Y-101200088D02*
G01*
X142235772Y-101412832D01*
X142395401Y-101617811D01*
X142397781Y-101626444D01*
X142395401Y-101632189D01*
X142070097Y-102049910D01*
X142062310Y-102054332D01*
X142055109Y-102052906D01*
X141480943Y-101728359D01*
X141475427Y-101721305D01*
X141475000Y-101718174D01*
X141475000Y-101531825D01*
X141478427Y-101523552D01*
X141480939Y-101521642D01*
X142055110Y-101197092D01*
X142063997Y-101196005D01*
X142070095Y-101200088D01*
G37*
%TD.AperFunction*%
%TD*%
%TA.AperFunction,Conductor*%
%TO.N,Net-(U1-VC1)*%
G36*
X142916095Y-100794678D02*
G01*
X143046904Y-100925487D01*
X143050331Y-100933760D01*
X143050065Y-100936241D01*
X142877552Y-101731430D01*
X142872449Y-101738788D01*
X142863637Y-101740383D01*
X142863313Y-101740308D01*
X142404566Y-101627009D01*
X142397356Y-101621698D01*
X142396884Y-101620837D01*
X142181428Y-101185223D01*
X142180832Y-101176288D01*
X142186459Y-101169686D01*
X142902369Y-100792598D01*
X142911286Y-100791776D01*
X142916095Y-100794678D01*
G37*
%TD.AperFunction*%
%TD*%
%TA.AperFunction,Conductor*%
%TO.N,Net-(U1-VC1)*%
G36*
X143636553Y-99454731D02*
G01*
X144095462Y-99572942D01*
X144102617Y-99578323D01*
X144103070Y-99579167D01*
X144314214Y-100014712D01*
X144314739Y-100023652D01*
X144309032Y-100030223D01*
X143580906Y-100404204D01*
X143571981Y-100404936D01*
X143567287Y-100402070D01*
X143436515Y-100271298D01*
X143433088Y-100263025D01*
X143433402Y-100260332D01*
X143622249Y-99463362D01*
X143627491Y-99456103D01*
X143636332Y-99454676D01*
X143636553Y-99454731D01*
G37*
%TD.AperFunction*%
%TD*%
%TA.AperFunction,Conductor*%
%TO.N,Net-(U1-VC1)*%
G36*
X144532159Y-99221265D02*
G01*
X145032888Y-99697717D01*
X145036519Y-99705901D01*
X145034551Y-99712692D01*
X144931320Y-99867190D01*
X144924727Y-99871962D01*
X144443661Y-100005770D01*
X144434772Y-100004686D01*
X144431289Y-100001679D01*
X144399074Y-99960238D01*
X144106052Y-99583300D01*
X144103681Y-99574666D01*
X144107726Y-99567194D01*
X144516534Y-99220812D01*
X144525058Y-99218081D01*
X144532159Y-99221265D01*
G37*
%TD.AperFunction*%
%TD*%
%TA.AperFunction,Conductor*%
%TO.N,Net-(U1-VC1)*%
G36*
X147972999Y-104781558D02*
G01*
X148180539Y-104889385D01*
X148186301Y-104896240D01*
X148185527Y-104905161D01*
X148180339Y-104910251D01*
X147963691Y-105017596D01*
X147957356Y-105018756D01*
X147758783Y-104999300D01*
X147750884Y-104995083D01*
X147748225Y-104987473D01*
X147749430Y-104910251D01*
X147751012Y-104808867D01*
X147754568Y-104800651D01*
X147761736Y-104797393D01*
X147966632Y-104780281D01*
X147972999Y-104781558D01*
G37*
%TD.AperFunction*%
%TD*%
%TA.AperFunction,Conductor*%
%TO.N,Net-(U1-VC0)*%
G36*
X141280805Y-102637788D02*
G01*
X141284715Y-102641207D01*
X141393590Y-102791056D01*
X141395681Y-102799762D01*
X141394975Y-102802311D01*
X141129462Y-103460185D01*
X141123188Y-103466574D01*
X141114233Y-103466656D01*
X141114029Y-103466571D01*
X140730074Y-103303091D01*
X140723804Y-103296697D01*
X140723122Y-103294282D01*
X140645282Y-102835197D01*
X140647277Y-102826467D01*
X140653459Y-102822034D01*
X141271898Y-102636878D01*
X141280805Y-102637788D01*
G37*
%TD.AperFunction*%
%TD*%
%TA.AperFunction,Conductor*%
%TO.N,Net-(U1-VC0)*%
G36*
X147973000Y-105281558D02*
G01*
X148089613Y-105342136D01*
X148181012Y-105389617D01*
X148186773Y-105396472D01*
X148186001Y-105405394D01*
X148181012Y-105410383D01*
X147973002Y-105518440D01*
X147966627Y-105519716D01*
X147743025Y-105500901D01*
X147735068Y-105496792D01*
X147732306Y-105489242D01*
X147732306Y-105310757D01*
X147735733Y-105302484D01*
X147743024Y-105299098D01*
X147966629Y-105280283D01*
X147973000Y-105281558D01*
G37*
%TD.AperFunction*%
%TD*%
%TA.AperFunction,Conductor*%
%TO.N,Net-(U1-VC0)*%
G36*
X143635080Y-101424055D02*
G01*
X143647723Y-101429499D01*
X144096105Y-101622544D01*
X144102348Y-101628963D01*
X144102579Y-101629593D01*
X144247006Y-102063231D01*
X144246369Y-102072163D01*
X144239602Y-102078029D01*
X144238947Y-102078225D01*
X143347094Y-102318407D01*
X143338215Y-102317250D01*
X143333243Y-102311587D01*
X143262701Y-102141279D01*
X143262701Y-102132327D01*
X143263069Y-102131524D01*
X143620026Y-101429497D01*
X143626829Y-101423678D01*
X143635080Y-101424055D01*
G37*
%TD.AperFunction*%
%TD*%
%TA.AperFunction,Conductor*%
%TO.N,Net-(U1-VC0)*%
G36*
X144566456Y-101332384D02*
G01*
X144787515Y-101618213D01*
X144995824Y-101887555D01*
X144998175Y-101896196D01*
X144993727Y-101903968D01*
X144993069Y-101904441D01*
X144839449Y-102007088D01*
X144834529Y-102008953D01*
X144357922Y-102073920D01*
X144349262Y-102071642D01*
X144346117Y-102068013D01*
X144104740Y-101633696D01*
X144103717Y-101624800D01*
X144108574Y-101618213D01*
X144550810Y-101329742D01*
X144559610Y-101328093D01*
X144566456Y-101332384D01*
G37*
%TD.AperFunction*%
%TD*%
%TA.AperFunction,Conductor*%
%TO.N,Net-(U1-SRP)*%
G36*
X145908379Y-108731358D02*
G01*
X145912529Y-108734172D01*
X146347446Y-109029035D01*
X146352370Y-109036514D01*
X146350564Y-109045285D01*
X146350053Y-109045981D01*
X146145000Y-109304997D01*
X146145000Y-109435703D01*
X146141573Y-109443976D01*
X146133300Y-109447403D01*
X146127890Y-109446077D01*
X145594278Y-109167794D01*
X145588527Y-109160930D01*
X145589314Y-109152010D01*
X145590214Y-109150554D01*
X145892345Y-108734171D01*
X145899977Y-108729488D01*
X145908379Y-108731358D01*
G37*
%TD.AperFunction*%
%TD*%
%TA.AperFunction,Conductor*%
%TO.N,Net-(U1-SRP)*%
G36*
X149017622Y-106086527D02*
G01*
X149022038Y-106093695D01*
X149095886Y-106490279D01*
X149094032Y-106499040D01*
X149088861Y-106503230D01*
X148967523Y-106553491D01*
X148958569Y-106553491D01*
X148953611Y-106549601D01*
X148916945Y-106499602D01*
X148881373Y-106451094D01*
X148879130Y-106443482D01*
X148899046Y-106108680D01*
X148902958Y-106100627D01*
X148909150Y-106097783D01*
X149008963Y-106084243D01*
X149017622Y-106086527D01*
G37*
%TD.AperFunction*%
%TD*%
%TA.AperFunction,Conductor*%
%TO.N,Net-(U1-SRP)*%
G36*
X143123024Y-110043294D02*
G01*
X143123629Y-110044100D01*
X143256256Y-110237679D01*
X143256258Y-110237681D01*
X143355579Y-110337002D01*
X143359006Y-110345275D01*
X143357080Y-110351707D01*
X143165940Y-110642168D01*
X143158529Y-110647195D01*
X143150154Y-110645773D01*
X142713553Y-110384248D01*
X142708216Y-110377057D01*
X142709528Y-110368199D01*
X142712142Y-110365167D01*
X143106559Y-110041667D01*
X143115128Y-110039071D01*
X143123024Y-110043294D01*
G37*
%TD.AperFunction*%
%TD*%
%TA.AperFunction,Conductor*%
%TO.N,Net-(U1-SRN)*%
G36*
X146153772Y-109568683D02*
G01*
X146155000Y-109573901D01*
X146155000Y-109705000D01*
X146350141Y-109954029D01*
X146352547Y-109962654D01*
X146348149Y-109970454D01*
X146347498Y-109970929D01*
X145908483Y-110268570D01*
X145899712Y-110270376D01*
X145892373Y-110265653D01*
X145596510Y-109848356D01*
X145594521Y-109839626D01*
X145599288Y-109832046D01*
X145600834Y-109831119D01*
X146138083Y-109563428D01*
X146147015Y-109562807D01*
X146153772Y-109568683D01*
G37*
%TD.AperFunction*%
%TD*%
%TA.AperFunction,Conductor*%
%TO.N,Net-(U1-SRN)*%
G36*
X149390845Y-106097882D02*
G01*
X149398643Y-106102283D01*
X149401059Y-106108199D01*
X149437734Y-106436983D01*
X149435510Y-106445241D01*
X149369342Y-106534637D01*
X149361666Y-106539248D01*
X149359548Y-106539370D01*
X149228808Y-106535012D01*
X149220654Y-106531311D01*
X149217504Y-106522928D01*
X149217615Y-106521666D01*
X149229045Y-106441549D01*
X149278381Y-106095734D01*
X149282942Y-106088028D01*
X149291377Y-106085773D01*
X149390845Y-106097882D01*
G37*
%TD.AperFunction*%
%TD*%
%TA.AperFunction,Conductor*%
%TO.N,+BATT*%
G36*
X148111481Y-86101914D02*
G01*
X148114986Y-86104326D01*
X148245673Y-86235013D01*
X148249100Y-86243286D01*
X148248326Y-86247470D01*
X147904291Y-87145899D01*
X147898133Y-87152400D01*
X147889181Y-87152641D01*
X147888906Y-87152532D01*
X147403795Y-86952562D01*
X147397452Y-86946241D01*
X147397437Y-86946204D01*
X147197467Y-86461093D01*
X147197482Y-86452138D01*
X147203825Y-86445817D01*
X147204033Y-86445734D01*
X148102531Y-86101673D01*
X148111481Y-86101914D01*
G37*
%TD.AperFunction*%
%TD*%
%TA.AperFunction,Conductor*%
%TO.N,+BATT*%
G36*
X149447909Y-84003034D02*
G01*
X149452155Y-84010649D01*
X149652495Y-85581823D01*
X149650142Y-85590463D01*
X149646191Y-85593733D01*
X148131173Y-86363968D01*
X148122246Y-86364662D01*
X148117598Y-86361811D01*
X147986123Y-86230336D01*
X147982696Y-86222063D01*
X147982759Y-86220853D01*
X148049191Y-85581823D01*
X148199019Y-84140579D01*
X148203283Y-84132707D01*
X148209425Y-84130156D01*
X149439322Y-84000493D01*
X149447909Y-84003034D01*
G37*
%TD.AperFunction*%
%TD*%
%TA.AperFunction,Conductor*%
%TO.N,+BATT*%
G36*
X149207655Y-85018076D02*
G01*
X149209863Y-85019808D01*
X149324184Y-85134129D01*
X149327611Y-85142402D01*
X149324184Y-85150675D01*
X149317561Y-85153985D01*
X149116591Y-85182618D01*
X149107917Y-85180392D01*
X149103358Y-85172685D01*
X149104935Y-85164972D01*
X149191587Y-85022014D01*
X149198803Y-85016718D01*
X149207655Y-85018076D01*
G37*
%TD.AperFunction*%
%TD*%
%TA.AperFunction,Conductor*%
%TO.N,+BATT*%
G36*
X166013258Y-97860668D02*
G01*
X166015789Y-97863914D01*
X166628306Y-99025425D01*
X166629134Y-99034342D01*
X166628766Y-99035360D01*
X166252486Y-99943798D01*
X166246154Y-99950130D01*
X166237654Y-99950307D01*
X164749564Y-99405353D01*
X164742973Y-99399291D01*
X164742015Y-99396096D01*
X164525977Y-97949840D01*
X164528144Y-97941151D01*
X164535820Y-97936539D01*
X164536901Y-97936430D01*
X166004813Y-97857689D01*
X166013258Y-97860668D01*
G37*
%TD.AperFunction*%
%TD*%
%TA.AperFunction,Conductor*%
%TO.N,+BATT*%
G36*
X151695860Y-80769971D02*
G01*
X151699286Y-80778244D01*
X151699286Y-87221755D01*
X151695859Y-87230028D01*
X151687586Y-87233455D01*
X151679313Y-87230029D01*
X149452427Y-85003426D01*
X149449000Y-84995153D01*
X149449000Y-83004847D01*
X149452427Y-82996574D01*
X149452427Y-82996573D01*
X151679313Y-80769970D01*
X151687587Y-80766544D01*
X151695860Y-80769971D01*
G37*
%TD.AperFunction*%
%TD*%
%TA.AperFunction,Conductor*%
%TO.N,+BATT*%
G36*
X150204105Y-84002722D02*
G01*
X150204167Y-84002785D01*
X150350518Y-84150442D01*
X150353908Y-84158730D01*
X150350444Y-84166988D01*
X150350098Y-84167318D01*
X150071300Y-84421913D01*
X150062880Y-84424961D01*
X150054998Y-84421404D01*
X149928071Y-84290068D01*
X149924787Y-84281739D01*
X149924967Y-84279888D01*
X149973282Y-84009607D01*
X149978110Y-84002069D01*
X149984758Y-83999969D01*
X150195821Y-83999321D01*
X150204105Y-84002722D01*
G37*
%TD.AperFunction*%
%TD*%
%TA.AperFunction,Conductor*%
%TO.N,Net-(D3-K)*%
G36*
X154406122Y-118452854D02*
G01*
X154967132Y-118647273D01*
X154973826Y-118653219D01*
X154975000Y-118658327D01*
X154975000Y-119141672D01*
X154971573Y-119149945D01*
X154967131Y-119152727D01*
X154406122Y-119347145D01*
X154397183Y-119346616D01*
X154392795Y-119342925D01*
X154078919Y-118906835D01*
X154076867Y-118898118D01*
X154078919Y-118893165D01*
X154392795Y-118457073D01*
X154400409Y-118452361D01*
X154406122Y-118452854D01*
G37*
%TD.AperFunction*%
%TD*%
%TA.AperFunction,Conductor*%
%TO.N,Net-(D3-K)*%
G36*
X166120311Y-101370242D02*
G01*
X166583926Y-102237609D01*
X166584804Y-102246520D01*
X166584194Y-102248107D01*
X166027979Y-103429662D01*
X166021355Y-103435688D01*
X166017405Y-103436379D01*
X164537081Y-103437957D01*
X164528805Y-103434539D01*
X164525369Y-103426269D01*
X164525428Y-103425088D01*
X164673506Y-101968066D01*
X164677751Y-101960185D01*
X164680642Y-101958453D01*
X166105494Y-101364955D01*
X166114449Y-101364939D01*
X166120311Y-101370242D01*
G37*
%TD.AperFunction*%
%TD*%
%TA.AperFunction,Conductor*%
%TO.N,Net-(D3-K)*%
G36*
X160581266Y-114814529D02*
G01*
X161369989Y-115081144D01*
X161376729Y-115087040D01*
X161377326Y-115095975D01*
X161376667Y-115097540D01*
X160931280Y-115971629D01*
X160924470Y-115977444D01*
X160923509Y-115977712D01*
X160581946Y-116057253D01*
X160573111Y-116055792D01*
X160570379Y-116053437D01*
X160505990Y-115977712D01*
X159966700Y-115343472D01*
X159963951Y-115334949D01*
X159968033Y-115326980D01*
X160569954Y-114816688D01*
X160578480Y-114813953D01*
X160581266Y-114814529D01*
G37*
%TD.AperFunction*%
%TD*%
%TA.AperFunction,Conductor*%
%TO.N,Net-(D3-K)*%
G36*
X159357699Y-115278770D02*
G01*
X159951785Y-115333395D01*
X159959709Y-115337565D01*
X159962218Y-115342920D01*
X160263776Y-116974850D01*
X160261910Y-116983608D01*
X160261522Y-116984139D01*
X159738249Y-117659940D01*
X159730474Y-117664383D01*
X159721876Y-117662059D01*
X159339047Y-117368308D01*
X159334569Y-117360553D01*
X159334469Y-117358967D01*
X159344935Y-115290361D01*
X159348404Y-115282107D01*
X159356694Y-115278722D01*
X159357699Y-115278770D01*
G37*
%TD.AperFunction*%
%TD*%
%TA.AperFunction,Conductor*%
%TO.N,GNDEXT*%
G36*
X143842741Y-88056044D02*
G01*
X143847951Y-88061805D01*
X143929105Y-88255478D01*
X143929142Y-88264433D01*
X143929105Y-88264522D01*
X143847951Y-88458194D01*
X143841593Y-88464500D01*
X143833835Y-88464890D01*
X143488375Y-88362482D01*
X143481417Y-88356845D01*
X143480000Y-88351264D01*
X143480000Y-88168735D01*
X143483427Y-88160462D01*
X143488373Y-88157517D01*
X143833836Y-88055109D01*
X143842741Y-88056044D01*
G37*
%TD.AperFunction*%
%TD*%
%TA.AperFunction,Conductor*%
%TO.N,GNDEXT*%
G36*
X138544207Y-90513665D02*
G01*
X138551372Y-90519036D01*
X138552641Y-90527901D01*
X138547270Y-90535066D01*
X138544207Y-90536335D01*
X137840175Y-90716506D01*
X137833380Y-90716204D01*
X137582806Y-90627755D01*
X137576145Y-90621770D01*
X137575000Y-90616722D01*
X137575000Y-90433277D01*
X137578427Y-90425004D01*
X137582803Y-90422245D01*
X137833380Y-90333794D01*
X137840175Y-90333493D01*
X138544207Y-90513665D01*
G37*
%TD.AperFunction*%
%TD*%
%TA.AperFunction,Conductor*%
%TO.N,GNDEXT*%
G36*
X135517022Y-89747369D02*
G01*
X136039249Y-90173716D01*
X136043491Y-90181602D01*
X136042659Y-90187256D01*
X135971424Y-90359235D01*
X135965092Y-90365567D01*
X135964612Y-90365754D01*
X135444107Y-90554963D01*
X135435161Y-90554569D01*
X135430875Y-90551151D01*
X135105634Y-90133047D01*
X135103259Y-90124413D01*
X135106872Y-90117322D01*
X135501632Y-89747888D01*
X135510012Y-89744739D01*
X135517022Y-89747369D01*
G37*
%TD.AperFunction*%
%TD*%
%TA.AperFunction,Conductor*%
%TO.N,GNDEXT*%
G36*
X136811892Y-90272880D02*
G01*
X136819494Y-90277611D01*
X136821525Y-90286333D01*
X136821264Y-90287523D01*
X136702330Y-90720290D01*
X136696833Y-90727360D01*
X136696379Y-90727605D01*
X136237979Y-90962248D01*
X136229053Y-90962967D01*
X136222721Y-90958024D01*
X135821493Y-90314651D01*
X135820023Y-90305818D01*
X135820120Y-90305432D01*
X135824919Y-90287523D01*
X135867822Y-90127401D01*
X135873272Y-90120299D01*
X135881031Y-90118888D01*
X136811892Y-90272880D01*
G37*
%TD.AperFunction*%
%TD*%
%TA.AperFunction,Conductor*%
%TO.N,GNDEXT*%
G36*
X139337848Y-90134604D02*
G01*
X139340250Y-90136530D01*
X139468023Y-90270161D01*
X139471264Y-90278509D01*
X139469968Y-90283605D01*
X139402014Y-90415529D01*
X139395179Y-90421314D01*
X139393108Y-90421775D01*
X138597813Y-90524268D01*
X138589170Y-90521927D01*
X138584804Y-90514739D01*
X138552554Y-90335805D01*
X138554459Y-90327059D01*
X138561269Y-90322373D01*
X139328997Y-90133256D01*
X139337848Y-90134604D01*
G37*
%TD.AperFunction*%
%TD*%
%TA.AperFunction,Conductor*%
%TO.N,GNDEXT*%
G36*
X137043345Y-90293760D02*
G01*
X137615873Y-90422941D01*
X137623189Y-90428105D01*
X137624998Y-90434354D01*
X137624998Y-90619894D01*
X137621571Y-90628167D01*
X137621256Y-90628471D01*
X137126455Y-91087533D01*
X137118059Y-91090648D01*
X137110763Y-91087735D01*
X136707263Y-90732279D01*
X136703320Y-90724239D01*
X136705765Y-90716312D01*
X137031542Y-90297983D01*
X137039328Y-90293563D01*
X137043345Y-90293760D01*
G37*
%TD.AperFunction*%
%TD*%
%TA.AperFunction,Conductor*%
%TO.N,/TS*%
G36*
X138672005Y-105478722D02*
G01*
X138677741Y-105485598D01*
X138677943Y-105486326D01*
X138868708Y-106272451D01*
X138867329Y-106281299D01*
X138865611Y-106283483D01*
X138735130Y-106413964D01*
X138726857Y-106417391D01*
X138721092Y-106415872D01*
X138127377Y-106079714D01*
X138121867Y-106072656D01*
X138122018Y-106065905D01*
X138272420Y-105605030D01*
X138278245Y-105598229D01*
X138280046Y-105597496D01*
X138663086Y-105477917D01*
X138672005Y-105478722D01*
G37*
%TD.AperFunction*%
%TD*%
%TA.AperFunction,Conductor*%
%TO.N,/TS*%
G36*
X138922249Y-106326686D02*
G01*
X139775836Y-106695438D01*
X139782072Y-106701865D01*
X139782014Y-106710636D01*
X139603503Y-107143920D01*
X139597183Y-107150264D01*
X139593379Y-107151142D01*
X139009120Y-107185854D01*
X139000658Y-107182924D01*
X138997264Y-107177681D01*
X138775658Y-106471719D01*
X138776450Y-106462799D01*
X138778545Y-106459945D01*
X138909337Y-106329153D01*
X138917609Y-106325727D01*
X138922249Y-106326686D01*
G37*
%TD.AperFunction*%
%TD*%
%TA.AperFunction,Conductor*%
%TO.N,/TS*%
G36*
X140200023Y-107051055D02*
G01*
X140203805Y-107055552D01*
X140535465Y-107750143D01*
X140535938Y-107759085D01*
X140533180Y-107763457D01*
X140402621Y-107894015D01*
X140394348Y-107897442D01*
X140390843Y-107896905D01*
X139965828Y-107763457D01*
X139456683Y-107603593D01*
X139449817Y-107597846D01*
X139449026Y-107588926D01*
X139449103Y-107588691D01*
X139597041Y-107155880D01*
X139602958Y-107149162D01*
X139606153Y-107148131D01*
X140191294Y-107049057D01*
X140200023Y-107051055D01*
G37*
%TD.AperFunction*%
%TD*%
%TA.AperFunction,Conductor*%
%TO.N,/TS*%
G36*
X150668461Y-108051082D02*
G01*
X151373605Y-108271195D01*
X151380482Y-108276932D01*
X151381288Y-108285850D01*
X151380941Y-108286810D01*
X151202645Y-108720856D01*
X151196332Y-108727206D01*
X151195581Y-108727490D01*
X150736409Y-108883212D01*
X150727473Y-108882624D01*
X150721571Y-108875890D01*
X150721466Y-108875564D01*
X150508511Y-108181544D01*
X150509360Y-108172630D01*
X150512398Y-108168967D01*
X150657687Y-108053105D01*
X150666290Y-108050627D01*
X150668461Y-108051082D01*
G37*
%TD.AperFunction*%
%TD*%
%TA.AperFunction,Conductor*%
%TO.N,/TS*%
G36*
X137929384Y-105207671D02*
G01*
X138269155Y-105592253D01*
X138272065Y-105600722D01*
X138269155Y-105607747D01*
X137929384Y-105992328D01*
X137921338Y-105996259D01*
X137914102Y-105994300D01*
X137480186Y-105703475D01*
X137475222Y-105696022D01*
X137475000Y-105693756D01*
X137475000Y-105506243D01*
X137478427Y-105497970D01*
X137480186Y-105496524D01*
X137914104Y-105205698D01*
X137922882Y-105203940D01*
X137929384Y-105207671D01*
G37*
%TD.AperFunction*%
%TD*%
%TA.AperFunction,Conductor*%
%TO.N,/TS*%
G36*
X137871625Y-105497517D02*
G01*
X137878583Y-105503154D01*
X137880000Y-105508735D01*
X137880000Y-105691264D01*
X137876573Y-105699537D01*
X137871625Y-105702482D01*
X137526164Y-105804890D01*
X137517258Y-105803955D01*
X137512048Y-105798194D01*
X137430893Y-105604519D01*
X137430857Y-105595568D01*
X137512049Y-105401803D01*
X137518406Y-105395499D01*
X137526163Y-105395109D01*
X137871625Y-105497517D01*
G37*
%TD.AperFunction*%
%TD*%
%TA.AperFunction,Conductor*%
%TO.N,/TS*%
G36*
X151195736Y-108722463D02*
G01*
X151202317Y-108728537D01*
X151202612Y-108729236D01*
X151370078Y-109163767D01*
X151369856Y-109172719D01*
X151363368Y-109178891D01*
X151363056Y-109179007D01*
X150534345Y-109471574D01*
X150525403Y-109471096D01*
X150522177Y-109468814D01*
X150391593Y-109338230D01*
X150388166Y-109329957D01*
X150389126Y-109325315D01*
X150720606Y-108559361D01*
X150727036Y-108553132D01*
X150735381Y-108553030D01*
X151195736Y-108722463D01*
G37*
%TD.AperFunction*%
%TD*%
%TA.AperFunction,Conductor*%
%TO.N,/TS*%
G36*
X149905546Y-106115751D02*
G01*
X149911397Y-106121140D01*
X150018591Y-106327290D01*
X150019904Y-106333054D01*
X150013243Y-106545720D01*
X150009559Y-106553882D01*
X150002859Y-106556980D01*
X149825667Y-106576943D01*
X149817062Y-106574464D01*
X149812748Y-106566771D01*
X149788030Y-106369394D01*
X149788851Y-106363412D01*
X149890230Y-106122006D01*
X149896591Y-106115707D01*
X149905546Y-106115751D01*
G37*
%TD.AperFunction*%
%TD*%
%TA.AperFunction,Conductor*%
%TO.N,Net-(D2-K)*%
G36*
X160815458Y-112442212D02*
G01*
X160823542Y-112446063D01*
X160825276Y-112448584D01*
X161043405Y-112876698D01*
X161044107Y-112885626D01*
X161038292Y-112892435D01*
X161037369Y-112892855D01*
X160536907Y-113095403D01*
X160527953Y-113095331D01*
X160527061Y-113094908D01*
X160143843Y-112892855D01*
X159974157Y-112803387D01*
X159968438Y-112796498D01*
X159969265Y-112787581D01*
X159971900Y-112784242D01*
X160383927Y-112423130D01*
X160392244Y-112420246D01*
X160815458Y-112442212D01*
G37*
%TD.AperFunction*%
%TD*%
%TA.AperFunction,Conductor*%
%TO.N,Net-(D2-K)*%
G36*
X161082680Y-112073122D02*
G01*
X161085758Y-112074896D01*
X161469739Y-112296112D01*
X161475197Y-112303211D01*
X161475583Y-112306850D01*
X161451952Y-112766806D01*
X161448105Y-112774893D01*
X161443684Y-112777396D01*
X160796454Y-112975058D01*
X160787541Y-112974197D01*
X160781910Y-112967483D01*
X160719336Y-112774893D01*
X160633202Y-112509789D01*
X160633904Y-112500863D01*
X160636145Y-112497814D01*
X161068662Y-112074895D01*
X161076971Y-112071562D01*
X161082680Y-112073122D01*
G37*
%TD.AperFunction*%
%TD*%
%TA.AperFunction,Conductor*%
%TO.N,Net-(J2-Pin_1)*%
G36*
X138732167Y-93904563D02*
G01*
X139069213Y-94292276D01*
X139072055Y-94300768D01*
X139069089Y-94307769D01*
X138727320Y-94688391D01*
X138719242Y-94692257D01*
X138711602Y-94689940D01*
X138318527Y-94395684D01*
X138313958Y-94387983D01*
X138313875Y-94385405D01*
X138328645Y-94197719D01*
X138332710Y-94189742D01*
X138333279Y-94189287D01*
X138716334Y-93902868D01*
X138725009Y-93900659D01*
X138732167Y-93904563D01*
G37*
%TD.AperFunction*%
%TD*%
%TA.AperFunction,Conductor*%
%TO.N,Net-(J2-Pin_1)*%
G36*
X135161720Y-87142469D02*
G01*
X135163649Y-87145008D01*
X135718108Y-88129549D01*
X135719181Y-88138439D01*
X135713654Y-88145485D01*
X135713454Y-88145595D01*
X134165625Y-88977870D01*
X134156717Y-88978769D01*
X134128207Y-88970121D01*
X133978456Y-88924694D01*
X133971533Y-88919013D01*
X133970155Y-88913237D01*
X134009743Y-87151426D01*
X134013355Y-87143233D01*
X134021428Y-87139990D01*
X135153445Y-87139049D01*
X135161720Y-87142469D01*
G37*
%TD.AperFunction*%
%TD*%
%TA.AperFunction,Conductor*%
%TO.N,/SWDIO*%
G36*
X149090055Y-94625849D02*
G01*
X149404913Y-94730523D01*
X149430102Y-94738897D01*
X149436872Y-94744759D01*
X149437514Y-94753691D01*
X149431652Y-94760461D01*
X149430102Y-94761103D01*
X149090059Y-94874149D01*
X149084822Y-94874643D01*
X149081117Y-94874149D01*
X149072345Y-94872979D01*
X148910154Y-94851353D01*
X148902406Y-94846863D01*
X148900000Y-94839756D01*
X148900000Y-94660243D01*
X148903427Y-94651970D01*
X148910153Y-94648646D01*
X149084826Y-94625356D01*
X149090055Y-94625849D01*
G37*
%TD.AperFunction*%
%TD*%
%TA.AperFunction,Conductor*%
%TO.N,/SWDIO*%
G36*
X149271625Y-94647517D02*
G01*
X149278583Y-94653154D01*
X149280000Y-94658735D01*
X149280000Y-94841264D01*
X149276573Y-94849537D01*
X149271625Y-94852482D01*
X148926164Y-94954890D01*
X148917258Y-94953955D01*
X148912048Y-94948194D01*
X148830893Y-94754519D01*
X148830857Y-94745568D01*
X148912049Y-94551803D01*
X148918406Y-94545499D01*
X148926163Y-94545109D01*
X149271625Y-94647517D01*
G37*
%TD.AperFunction*%
%TD*%
%TA.AperFunction,Conductor*%
%TO.N,/SWCLK*%
G36*
X150027674Y-95815460D02*
G01*
X150029424Y-95816889D01*
X150142627Y-95929194D01*
X150146087Y-95937453D01*
X150142693Y-95945740D01*
X150142627Y-95945806D01*
X150029424Y-96058110D01*
X150021137Y-96061504D01*
X150018890Y-96061277D01*
X149909406Y-96039381D01*
X149901965Y-96034398D01*
X149900000Y-96027908D01*
X149900000Y-95847092D01*
X149903427Y-95838819D01*
X149909405Y-95835619D01*
X150018889Y-95813722D01*
X150027674Y-95815460D01*
G37*
%TD.AperFunction*%
%TD*%
%TA.AperFunction,Conductor*%
%TO.N,/SWCLK*%
G36*
X149301061Y-95835052D02*
G01*
X149308053Y-95840647D01*
X149309503Y-95846289D01*
X149309503Y-96028825D01*
X149306076Y-96037098D01*
X149301203Y-96040020D01*
X148956212Y-96144802D01*
X148947300Y-96143927D01*
X148942021Y-96138129D01*
X148860893Y-95944519D01*
X148860857Y-95935568D01*
X148942073Y-95741745D01*
X148948431Y-95735440D01*
X148956119Y-95735031D01*
X149301061Y-95835052D01*
G37*
%TD.AperFunction*%
%TD*%
%TA.AperFunction,Conductor*%
%TO.N,Net-(J3-Pin_2)*%
G36*
X139162442Y-97902970D02*
G01*
X139170640Y-97906574D01*
X139173887Y-97914919D01*
X139173844Y-97915704D01*
X139145944Y-98229384D01*
X139141798Y-98237321D01*
X139134342Y-98240047D01*
X138924878Y-98240977D01*
X138916590Y-98237587D01*
X138916526Y-98237524D01*
X138908438Y-98229384D01*
X138769813Y-98089870D01*
X138766414Y-98081588D01*
X138769867Y-98073325D01*
X138770525Y-98072720D01*
X138971615Y-97901802D01*
X138979440Y-97899021D01*
X139162442Y-97902970D01*
G37*
%TD.AperFunction*%
%TD*%
%TA.AperFunction,Conductor*%
%TO.N,Net-(Q2-S)*%
G36*
X143673786Y-117478762D02*
G01*
X143679121Y-117484571D01*
X143961235Y-118153587D01*
X143961292Y-118162542D01*
X143958844Y-118166288D01*
X143623569Y-118511228D01*
X143615345Y-118514772D01*
X143607387Y-118511801D01*
X143123798Y-118080100D01*
X143119909Y-118072034D01*
X143120473Y-118067725D01*
X143272401Y-117605034D01*
X143278237Y-117598245D01*
X143280033Y-117597517D01*
X143664870Y-117477944D01*
X143673786Y-117478762D01*
G37*
%TD.AperFunction*%
%TD*%
%TA.AperFunction,Conductor*%
%TO.N,Net-(Q2-S)*%
G36*
X144307372Y-112031186D02*
G01*
X144670124Y-112384758D01*
X144673657Y-112392986D01*
X144671027Y-112400529D01*
X144489459Y-112623258D01*
X144325000Y-112825000D01*
X144175000Y-112825000D01*
X144159099Y-112800000D01*
X144159099Y-112799999D01*
X143883992Y-112367467D01*
X143882443Y-112358647D01*
X143886590Y-112352025D01*
X144291936Y-112030398D01*
X144300545Y-112027941D01*
X144307372Y-112031186D01*
G37*
%TD.AperFunction*%
%TD*%
%TA.AperFunction,Conductor*%
%TO.N,Net-(Q2-S)*%
G36*
X152202816Y-118453383D02*
G01*
X152207204Y-118457074D01*
X152521080Y-118893165D01*
X152523132Y-118901882D01*
X152521080Y-118906835D01*
X152207204Y-119342925D01*
X152199590Y-119347638D01*
X152193877Y-119347145D01*
X151632869Y-119152727D01*
X151626174Y-119146780D01*
X151625000Y-119141672D01*
X151625000Y-118658327D01*
X151628427Y-118650054D01*
X151632865Y-118647274D01*
X152193877Y-118452854D01*
X152202816Y-118453383D01*
G37*
%TD.AperFunction*%
%TD*%
%TA.AperFunction,Conductor*%
%TO.N,Net-(Q2-S)*%
G36*
X143619251Y-116750741D02*
G01*
X144052427Y-116959349D01*
X144058394Y-116966026D01*
X144057892Y-116974966D01*
X144057799Y-116975156D01*
X143679554Y-117725522D01*
X143672770Y-117731368D01*
X143665402Y-117731354D01*
X143280341Y-117602827D01*
X143273578Y-117596957D01*
X143272831Y-117595065D01*
X143135247Y-117132617D01*
X143136172Y-117123711D01*
X143139224Y-117120087D01*
X143606945Y-116752087D01*
X143615564Y-116749665D01*
X143619251Y-116750741D01*
G37*
%TD.AperFunction*%
%TD*%
%TA.AperFunction,Conductor*%
%TO.N,Net-(J4-Pin_3)*%
G36*
X144252741Y-88526044D02*
G01*
X144257951Y-88531805D01*
X144339105Y-88725478D01*
X144339142Y-88734433D01*
X144339105Y-88734522D01*
X144257951Y-88928194D01*
X144251593Y-88934500D01*
X144243835Y-88934890D01*
X143898375Y-88832482D01*
X143891417Y-88826845D01*
X143890000Y-88821264D01*
X143890000Y-88638734D01*
X143893427Y-88630461D01*
X143898373Y-88627517D01*
X143952987Y-88611327D01*
X143954449Y-88610996D01*
X144039661Y-88597500D01*
X144094404Y-88569607D01*
X144096357Y-88568827D01*
X144243836Y-88525109D01*
X144252741Y-88526044D01*
G37*
%TD.AperFunction*%
%TD*%
%TA.AperFunction,Conductor*%
%TO.N,Net-(J4-Pin_3)*%
G36*
X139497038Y-90944356D02*
G01*
X139497614Y-90944930D01*
X139621346Y-91077007D01*
X139624502Y-91085387D01*
X139620807Y-91093544D01*
X139619380Y-91094686D01*
X139403422Y-91241323D01*
X139395876Y-91243302D01*
X138596854Y-91176525D01*
X138588895Y-91172421D01*
X138586150Y-91165584D01*
X138580705Y-91077007D01*
X138575170Y-90986965D01*
X138578083Y-90978499D01*
X138586130Y-90974571D01*
X138586371Y-90974559D01*
X139488645Y-90941237D01*
X139497038Y-90944356D01*
G37*
%TD.AperFunction*%
%TD*%
%TA.AperFunction,Conductor*%
%TO.N,Net-(J4-Pin_1)*%
G36*
X138544207Y-92463665D02*
G01*
X138551372Y-92469036D01*
X138552641Y-92477901D01*
X138547270Y-92485066D01*
X138544207Y-92486335D01*
X137840175Y-92666506D01*
X137833380Y-92666204D01*
X137582806Y-92577755D01*
X137576145Y-92571770D01*
X137575000Y-92566722D01*
X137575000Y-92383277D01*
X137578427Y-92375004D01*
X137582803Y-92372245D01*
X137833380Y-92283794D01*
X137840175Y-92283493D01*
X138544207Y-92463665D01*
G37*
%TD.AperFunction*%
%TD*%
%TA.AperFunction,Conductor*%
%TO.N,Net-(J4-Pin_1)*%
G36*
X144222741Y-89506044D02*
G01*
X144227951Y-89511805D01*
X144309105Y-89705478D01*
X144309142Y-89714433D01*
X144309105Y-89714522D01*
X144227951Y-89908194D01*
X144221593Y-89914500D01*
X144213835Y-89914890D01*
X143868375Y-89812482D01*
X143861417Y-89806845D01*
X143860000Y-89801264D01*
X143860000Y-89618735D01*
X143863427Y-89610462D01*
X143868373Y-89607517D01*
X144213836Y-89505109D01*
X144222741Y-89506044D01*
G37*
%TD.AperFunction*%
%TD*%
%TA.AperFunction,Conductor*%
%TO.N,Net-(J4-Pin_1)*%
G36*
X137126455Y-91912465D02*
G01*
X137526577Y-92283688D01*
X137621256Y-92371528D01*
X137624990Y-92379667D01*
X137624998Y-92380105D01*
X137624998Y-92565645D01*
X137621571Y-92573918D01*
X137615873Y-92577058D01*
X137043347Y-92706238D01*
X137034523Y-92704716D01*
X137031541Y-92702014D01*
X136934230Y-92577058D01*
X136705766Y-92283688D01*
X136703386Y-92275055D01*
X136707262Y-92267721D01*
X137110764Y-91912262D01*
X137119236Y-91909365D01*
X137126455Y-91912465D01*
G37*
%TD.AperFunction*%
%TD*%
%TA.AperFunction,Conductor*%
%TO.N,Net-(J4-Pin_1)*%
G36*
X139552675Y-92295099D02*
G01*
X139560649Y-92299171D01*
X139562873Y-92303146D01*
X139619241Y-92476607D01*
X139618539Y-92485534D01*
X139613626Y-92490543D01*
X139396900Y-92606303D01*
X139389487Y-92607528D01*
X138638551Y-92483872D01*
X138630945Y-92479146D01*
X138628907Y-92470426D01*
X138633633Y-92462820D01*
X138637287Y-92461063D01*
X139297992Y-92275563D01*
X139302077Y-92275165D01*
X139552675Y-92295099D01*
G37*
%TD.AperFunction*%
%TD*%
%TA.AperFunction,Conductor*%
%TO.N,Net-(J4-Pin_1)*%
G36*
X135517022Y-91297369D02*
G01*
X136039249Y-91723716D01*
X136043491Y-91731602D01*
X136042659Y-91737256D01*
X135971424Y-91909235D01*
X135965092Y-91915567D01*
X135964612Y-91915754D01*
X135444107Y-92104963D01*
X135435161Y-92104569D01*
X135430875Y-92101151D01*
X135105634Y-91683047D01*
X135103259Y-91674413D01*
X135106872Y-91667322D01*
X135501632Y-91297888D01*
X135510012Y-91294739D01*
X135517022Y-91297369D01*
G37*
%TD.AperFunction*%
%TD*%
%TA.AperFunction,Conductor*%
%TO.N,Net-(J4-Pin_1)*%
G36*
X136811892Y-91822880D02*
G01*
X136819494Y-91827611D01*
X136821525Y-91836333D01*
X136821264Y-91837523D01*
X136702330Y-92270290D01*
X136696833Y-92277360D01*
X136696379Y-92277605D01*
X136237979Y-92512248D01*
X136229053Y-92512967D01*
X136222721Y-92508024D01*
X135821493Y-91864651D01*
X135820023Y-91855818D01*
X135820120Y-91855432D01*
X135824919Y-91837523D01*
X135867822Y-91677401D01*
X135873272Y-91670299D01*
X135881031Y-91668888D01*
X136811892Y-91822880D01*
G37*
%TD.AperFunction*%
%TD*%
%TA.AperFunction,Conductor*%
%TO.N,Net-(Q1-G)*%
G36*
X149090055Y-92625849D02*
G01*
X149404913Y-92730523D01*
X149430102Y-92738897D01*
X149436872Y-92744759D01*
X149437514Y-92753691D01*
X149431652Y-92760461D01*
X149430102Y-92761103D01*
X149090059Y-92874149D01*
X149084822Y-92874643D01*
X149081117Y-92874149D01*
X149072345Y-92872979D01*
X148910154Y-92851353D01*
X148902406Y-92846863D01*
X148900000Y-92839756D01*
X148900000Y-92660243D01*
X148903427Y-92651970D01*
X148910153Y-92648646D01*
X149084826Y-92625356D01*
X149090055Y-92625849D01*
G37*
%TD.AperFunction*%
%TD*%
%TA.AperFunction,Conductor*%
%TO.N,Net-(Q1-G)*%
G36*
X148726293Y-92458086D02*
G01*
X148727600Y-92458733D01*
X149054571Y-92646626D01*
X149060037Y-92653719D01*
X149060442Y-92656770D01*
X149060442Y-92839212D01*
X149057015Y-92847485D01*
X149049690Y-92850874D01*
X148642591Y-92883976D01*
X148634068Y-92881230D01*
X148629981Y-92873262D01*
X148629943Y-92872388D01*
X148629010Y-92662376D01*
X148629918Y-92657808D01*
X148710980Y-92464354D01*
X148717338Y-92458049D01*
X148726293Y-92458086D01*
G37*
%TD.AperFunction*%
%TD*%
%TA.AperFunction,Conductor*%
%TO.N,Net-(Q1-D)*%
G36*
X145970095Y-90600088D02*
G01*
X146135772Y-90812832D01*
X146295401Y-91017811D01*
X146297781Y-91026444D01*
X146295401Y-91032189D01*
X145970097Y-91449910D01*
X145962310Y-91454332D01*
X145955109Y-91452906D01*
X145380943Y-91128359D01*
X145375427Y-91121305D01*
X145375000Y-91118174D01*
X145375000Y-90931825D01*
X145378427Y-90923552D01*
X145380939Y-90921642D01*
X145955110Y-90597092D01*
X145963997Y-90596005D01*
X145970095Y-90600088D01*
G37*
%TD.AperFunction*%
%TD*%
%TA.AperFunction,Conductor*%
%TO.N,Net-(Q1-D)*%
G36*
X145044889Y-90597092D02*
G01*
X145619058Y-90921641D01*
X145624573Y-90928694D01*
X145625000Y-90931825D01*
X145625000Y-91118174D01*
X145621573Y-91126447D01*
X145619057Y-91128359D01*
X145044890Y-91452906D01*
X145036002Y-91453994D01*
X145029903Y-91449911D01*
X144704597Y-91032188D01*
X144702218Y-91023556D01*
X144704597Y-91017812D01*
X145029904Y-90600087D01*
X145037689Y-90595667D01*
X145044889Y-90597092D01*
G37*
%TD.AperFunction*%
%TD*%
%TA.AperFunction,Conductor*%
%TO.N,Net-(Q1-D)*%
G36*
X143593542Y-90352035D02*
G01*
X143829944Y-90455897D01*
X143836140Y-90462362D01*
X143836794Y-90468439D01*
X143808133Y-90649401D01*
X143803454Y-90657036D01*
X143799389Y-90658928D01*
X143566128Y-90716679D01*
X143560413Y-90716656D01*
X142858741Y-90536940D01*
X142851577Y-90531568D01*
X142850310Y-90522703D01*
X142855682Y-90515539D01*
X142859083Y-90514190D01*
X143586281Y-90351331D01*
X143593542Y-90352035D01*
G37*
%TD.AperFunction*%
%TD*%
%TA.AperFunction,Conductor*%
%TO.N,Net-(Q1-D)*%
G36*
X144799793Y-90573439D02*
G01*
X144807605Y-90577815D01*
X144810036Y-90586434D01*
X144809771Y-90587883D01*
X144702215Y-91020218D01*
X144696892Y-91027419D01*
X144696537Y-91027624D01*
X144241410Y-91280142D01*
X144232514Y-91281159D01*
X144226033Y-91276452D01*
X143811121Y-90661143D01*
X143809266Y-90652774D01*
X143838072Y-90470897D01*
X143842751Y-90463263D01*
X143851002Y-90461109D01*
X144799793Y-90573439D01*
G37*
%TD.AperFunction*%
%TD*%
%TA.AperFunction,Conductor*%
%TO.N,Net-(Q1-D)*%
G36*
X142803450Y-90523568D02*
G01*
X142811348Y-90527789D01*
X142813983Y-90534517D01*
X142824602Y-90713094D01*
X142821673Y-90721556D01*
X142813618Y-90725468D01*
X142813394Y-90725480D01*
X141865171Y-90763697D01*
X141856767Y-90760606D01*
X141854277Y-90757321D01*
X141771816Y-90595479D01*
X141771115Y-90586553D01*
X141776175Y-90580164D01*
X141996669Y-90446482D01*
X142003875Y-90444844D01*
X142803450Y-90523568D01*
G37*
%TD.AperFunction*%
%TD*%
%TA.AperFunction,Conductor*%
%TO.N,Net-(Q1-D)*%
G36*
X141586404Y-90681339D02*
G01*
X141592160Y-90686755D01*
X141674953Y-90849247D01*
X141675655Y-90858175D01*
X141674133Y-90861241D01*
X141447052Y-91187666D01*
X141439514Y-91192500D01*
X141430765Y-91190589D01*
X141429209Y-91189292D01*
X141280799Y-91042129D01*
X141278208Y-91038250D01*
X141198385Y-90843100D01*
X141198425Y-90834146D01*
X141204785Y-90827842D01*
X141204819Y-90827828D01*
X141577452Y-90681180D01*
X141586404Y-90681339D01*
G37*
%TD.AperFunction*%
%TD*%
%TA.AperFunction,Conductor*%
%TO.N,Net-(U1-ALERT)*%
G36*
X151160461Y-95968347D02*
G01*
X151161103Y-95969897D01*
X151274149Y-96309940D01*
X151274643Y-96315177D01*
X151251354Y-96489846D01*
X151246864Y-96497594D01*
X151239757Y-96500000D01*
X151060243Y-96500000D01*
X151051970Y-96496573D01*
X151048646Y-96489846D01*
X151025356Y-96315172D01*
X151025849Y-96309944D01*
X151138897Y-95969896D01*
X151144759Y-95963127D01*
X151153691Y-95962485D01*
X151160461Y-95968347D01*
G37*
%TD.AperFunction*%
%TD*%
%TA.AperFunction,Conductor*%
%TO.N,Net-(U1-ALERT)*%
G36*
X152056975Y-103799098D02*
G01*
X152064932Y-103803207D01*
X152067694Y-103810757D01*
X152067694Y-103989242D01*
X152064267Y-103997515D01*
X152056975Y-104000901D01*
X151833372Y-104019716D01*
X151826997Y-104018440D01*
X151618987Y-103910383D01*
X151613226Y-103903528D01*
X151613998Y-103894606D01*
X151618987Y-103889617D01*
X151827000Y-103781558D01*
X151833369Y-103780283D01*
X152056975Y-103799098D01*
G37*
%TD.AperFunction*%
%TD*%
%TA.AperFunction,Conductor*%
%TO.N,Net-(U1-ALERT)*%
G36*
X152081604Y-98935989D02*
G01*
X152642046Y-99172372D01*
X152648337Y-99178744D01*
X152649110Y-99181708D01*
X152799443Y-100390543D01*
X152797063Y-100399176D01*
X152790799Y-100403304D01*
X152336233Y-100522493D01*
X152327362Y-100521277D01*
X152321971Y-100514228D01*
X151934697Y-99080888D01*
X151935847Y-99072007D01*
X151937715Y-99069567D01*
X152068786Y-98938496D01*
X152077058Y-98935070D01*
X152081604Y-98935989D01*
G37*
%TD.AperFunction*%
%TD*%
%TA.AperFunction,Conductor*%
%TO.N,Net-(U1-ALERT)*%
G36*
X155186653Y-102649511D02*
G01*
X155569997Y-102797197D01*
X155576485Y-102803369D01*
X155577205Y-102805544D01*
X155680681Y-103264872D01*
X155679156Y-103273696D01*
X155673179Y-103278470D01*
X155083925Y-103487527D01*
X155074982Y-103487063D01*
X155070285Y-103483000D01*
X154967331Y-103328916D01*
X154965584Y-103320133D01*
X154965882Y-103318958D01*
X155171293Y-102656967D01*
X155177016Y-102650083D01*
X155185933Y-102649262D01*
X155186653Y-102649511D01*
G37*
%TD.AperFunction*%
%TD*%
%TA.AperFunction,Conductor*%
%TO.N,Net-(U1-ALERT)*%
G36*
X155627301Y-102322140D02*
G01*
X155634233Y-102327809D01*
X155635529Y-102334828D01*
X155576718Y-102793991D01*
X155572268Y-102801762D01*
X155569964Y-102803152D01*
X155185323Y-102978384D01*
X155176373Y-102978696D01*
X155169980Y-102972915D01*
X155084875Y-102800453D01*
X154834573Y-102293224D01*
X154833986Y-102284290D01*
X154834637Y-102282744D01*
X154918336Y-102118473D01*
X154925144Y-102112660D01*
X154932137Y-102112585D01*
X155627301Y-102322140D01*
G37*
%TD.AperFunction*%
%TD*%
%TA.AperFunction,Conductor*%
%TO.N,Net-(U1-ALERT)*%
G36*
X153271438Y-100307588D02*
G01*
X153276435Y-100315019D01*
X153276574Y-100315872D01*
X153450368Y-101695308D01*
X153448488Y-101703271D01*
X153345325Y-101857668D01*
X153337880Y-101862643D01*
X153330753Y-101861818D01*
X152816908Y-101628088D01*
X152810796Y-101621543D01*
X152810052Y-101617543D01*
X152799255Y-100409106D01*
X152802608Y-100400802D01*
X152808636Y-100397533D01*
X153262651Y-100305866D01*
X153271438Y-100307588D01*
G37*
%TD.AperFunction*%
%TD*%
%TA.AperFunction,Conductor*%
%TO.N,Net-(U1-SDA)*%
G36*
X150660461Y-95968347D02*
G01*
X150661103Y-95969897D01*
X150774149Y-96309940D01*
X150774643Y-96315177D01*
X150751354Y-96489846D01*
X150746864Y-96497594D01*
X150739757Y-96500000D01*
X150560243Y-96500000D01*
X150551970Y-96496573D01*
X150548646Y-96489846D01*
X150525356Y-96315172D01*
X150525849Y-96309944D01*
X150638897Y-95969896D01*
X150644759Y-95963127D01*
X150653691Y-95962485D01*
X150660461Y-95968347D01*
G37*
%TD.AperFunction*%
%TD*%
%TA.AperFunction,Conductor*%
%TO.N,Net-(U1-SDA)*%
G36*
X150749538Y-97553427D02*
G01*
X150752483Y-97558375D01*
X150854890Y-97903835D01*
X150853955Y-97912741D01*
X150848194Y-97917951D01*
X150654522Y-97999105D01*
X150645567Y-97999142D01*
X150645478Y-97999105D01*
X150451805Y-97917951D01*
X150445499Y-97911593D01*
X150445109Y-97903835D01*
X150547517Y-97558375D01*
X150553154Y-97551417D01*
X150558735Y-97550000D01*
X150741265Y-97550000D01*
X150749538Y-97553427D01*
G37*
%TD.AperFunction*%
%TD*%
%TA.AperFunction,Conductor*%
%TO.N,Net-(U1-SDA)*%
G36*
X152941625Y-98457517D02*
G01*
X152948583Y-98463154D01*
X152950000Y-98468735D01*
X152950000Y-98651264D01*
X152946573Y-98659537D01*
X152941625Y-98662482D01*
X152596164Y-98764890D01*
X152587258Y-98763955D01*
X152582048Y-98758194D01*
X152500893Y-98564519D01*
X152500857Y-98555568D01*
X152582049Y-98361803D01*
X152588406Y-98355499D01*
X152596163Y-98355109D01*
X152941625Y-98457517D01*
G37*
%TD.AperFunction*%
%TD*%
%TA.AperFunction,Conductor*%
%TO.N,Net-(U1-SDA)*%
G36*
X156212061Y-100427601D02*
G01*
X156212487Y-100428499D01*
X156655237Y-101474409D01*
X156655617Y-101482503D01*
X156462587Y-102091833D01*
X156456821Y-102098685D01*
X156451433Y-102100000D01*
X156265529Y-102100000D01*
X156257256Y-102096573D01*
X156256490Y-102095729D01*
X155838169Y-101586769D01*
X155835563Y-101578202D01*
X155836030Y-101575883D01*
X156190535Y-100429601D01*
X156196254Y-100422712D01*
X156205170Y-100421882D01*
X156212061Y-100427601D01*
G37*
%TD.AperFunction*%
%TD*%
%TA.AperFunction,Conductor*%
%TO.N,Net-(U1-SDA)*%
G36*
X155510867Y-103924767D02*
G01*
X155519059Y-103928382D01*
X155522222Y-103935120D01*
X155575130Y-104392746D01*
X155572676Y-104401358D01*
X155569630Y-104404060D01*
X155184177Y-104640788D01*
X155175334Y-104642197D01*
X155168624Y-104637744D01*
X155111941Y-104560576D01*
X155049686Y-104475822D01*
X155047561Y-104470726D01*
X155047500Y-104470339D01*
X154997095Y-104371413D01*
X154918587Y-104292905D01*
X154915850Y-104291510D01*
X154911734Y-104288014D01*
X154781143Y-104110226D01*
X154779008Y-104101530D01*
X154807938Y-103918853D01*
X154812617Y-103911220D01*
X154819759Y-103908988D01*
X155510867Y-103924767D01*
G37*
%TD.AperFunction*%
%TD*%
%TA.AperFunction,Conductor*%
%TO.N,Net-(U1-SDA)*%
G36*
X152037413Y-104285987D02*
G01*
X152037512Y-104285990D01*
X152045682Y-104289654D01*
X152048649Y-104295402D01*
X152083416Y-104470171D01*
X152081669Y-104478954D01*
X152074224Y-104483929D01*
X152073477Y-104484053D01*
X151872443Y-104510680D01*
X151866467Y-104509906D01*
X151622342Y-104409762D01*
X151615988Y-104403451D01*
X151615957Y-104394497D01*
X151621379Y-104388559D01*
X151827305Y-104281402D01*
X151833037Y-104280087D01*
X152037413Y-104285987D01*
G37*
%TD.AperFunction*%
%TD*%
%TA.AperFunction,Conductor*%
%TO.N,Net-(U1-SDA)*%
G36*
X156083216Y-103652615D02*
G01*
X156247374Y-103736257D01*
X156253189Y-103743066D01*
X156253107Y-103750543D01*
X155978905Y-104534942D01*
X155972940Y-104541621D01*
X155963999Y-104542126D01*
X155963871Y-104542080D01*
X155903336Y-104520127D01*
X155580347Y-104402994D01*
X155573739Y-104396953D01*
X155573009Y-104394921D01*
X155454475Y-103934631D01*
X155455730Y-103925766D01*
X155461100Y-103921003D01*
X156073203Y-103652327D01*
X156082155Y-103652140D01*
X156083216Y-103652615D01*
G37*
%TD.AperFunction*%
%TD*%
%TA.AperFunction,Conductor*%
%TO.N,Net-(U1-SDA)*%
G36*
X155615334Y-98937145D02*
G01*
X156141191Y-99172049D01*
X156147347Y-99178553D01*
X156148108Y-99182227D01*
X156200368Y-100390790D01*
X156197302Y-100399203D01*
X156191194Y-100402721D01*
X155736995Y-100502707D01*
X155728179Y-100501139D01*
X155723054Y-100493796D01*
X155722945Y-100493239D01*
X155705559Y-100390790D01*
X155486006Y-99097078D01*
X155488000Y-99088351D01*
X155488216Y-99088057D01*
X155601283Y-98940705D01*
X155609038Y-98936229D01*
X155615334Y-98937145D01*
G37*
%TD.AperFunction*%
%TD*%
%TA.AperFunction,Conductor*%
%TO.N,Net-(U1-DSG)*%
G36*
X152814668Y-107959056D02*
G01*
X152820604Y-107961562D01*
X153552376Y-108270515D01*
X153558665Y-108276890D01*
X153558669Y-108285686D01*
X153403078Y-108669852D01*
X153396796Y-108676234D01*
X153394511Y-108676936D01*
X152934658Y-108768162D01*
X152925876Y-108766411D01*
X152921462Y-108760890D01*
X152668726Y-108104511D01*
X152668952Y-108095559D01*
X152671369Y-108092037D01*
X152801845Y-107961561D01*
X152810117Y-107958135D01*
X152814668Y-107959056D01*
G37*
%TD.AperFunction*%
%TD*%
%TA.AperFunction,Conductor*%
%TO.N,Net-(U1-DSG)*%
G36*
X150516835Y-106102135D02*
G01*
X150520284Y-106110143D01*
X150530408Y-106517718D01*
X150527188Y-106526074D01*
X150523190Y-106528818D01*
X150358911Y-106596867D01*
X150349956Y-106596867D01*
X150343624Y-106590536D01*
X150342974Y-106588422D01*
X150304862Y-106403672D01*
X150305164Y-106397788D01*
X150397042Y-106107222D01*
X150402804Y-106100368D01*
X150408160Y-106099050D01*
X150508553Y-106098734D01*
X150516835Y-106102135D01*
G37*
%TD.AperFunction*%
%TD*%
%TA.AperFunction,Conductor*%
%TO.N,Net-(U1-CHG)*%
G36*
X154420694Y-107955120D02*
G01*
X154426454Y-107957596D01*
X155154224Y-108270459D01*
X155160470Y-108276874D01*
X155160429Y-108285641D01*
X155003106Y-108669846D01*
X154996800Y-108676203D01*
X154994488Y-108676902D01*
X154534692Y-108765290D01*
X154525920Y-108763486D01*
X154521530Y-108757913D01*
X154344177Y-108285641D01*
X154274637Y-108100463D01*
X154274936Y-108091515D01*
X154277314Y-108088082D01*
X154407801Y-107957595D01*
X154416073Y-107954169D01*
X154420694Y-107955120D01*
G37*
%TD.AperFunction*%
%TD*%
%TA.AperFunction,Conductor*%
%TO.N,Net-(U1-CHG)*%
G36*
X151017483Y-106092094D02*
G01*
X151021567Y-106099424D01*
X151073905Y-106466673D01*
X151071680Y-106475347D01*
X151070420Y-106476769D01*
X150942512Y-106599424D01*
X150934169Y-106602676D01*
X150925969Y-106599077D01*
X150923689Y-106595656D01*
X150856624Y-106441855D01*
X150855746Y-106435675D01*
X150898102Y-106108586D01*
X150902563Y-106100824D01*
X150908655Y-106098438D01*
X151008937Y-106089422D01*
X151017483Y-106092094D01*
G37*
%TD.AperFunction*%
%TD*%
%TA.AperFunction,Conductor*%
%TO.N,Net-(J4-Pin_2)*%
G36*
X143822741Y-89016044D02*
G01*
X143827951Y-89021805D01*
X143909105Y-89215478D01*
X143909142Y-89224433D01*
X143909105Y-89224522D01*
X143827951Y-89418194D01*
X143821593Y-89424500D01*
X143813835Y-89424890D01*
X143468375Y-89322482D01*
X143461417Y-89316845D01*
X143460000Y-89311264D01*
X143460000Y-89128735D01*
X143463427Y-89120462D01*
X143468373Y-89117517D01*
X143813836Y-89015109D01*
X143822741Y-89016044D01*
G37*
%TD.AperFunction*%
%TD*%
%TA.AperFunction,Conductor*%
%TO.N,Net-(J4-Pin_2)*%
G36*
X139524901Y-91572401D02*
G01*
X139526854Y-91574644D01*
X139562715Y-91628314D01*
X139627639Y-91725479D01*
X139629386Y-91734262D01*
X139624411Y-91741707D01*
X139624253Y-91741811D01*
X139403299Y-91884343D01*
X139396083Y-91886178D01*
X138596753Y-91826310D01*
X138588759Y-91822275D01*
X138585956Y-91815468D01*
X138573338Y-91636805D01*
X138576174Y-91628314D01*
X138584185Y-91624313D01*
X138584207Y-91624311D01*
X139516442Y-91569466D01*
X139524901Y-91572401D01*
G37*
%TD.AperFunction*%
%TD*%
%TA.AperFunction,Conductor*%
%TO.N,Net-(U2-PA2)*%
G36*
X154428249Y-91511294D02*
G01*
X154436460Y-91514865D01*
X154439470Y-91520475D01*
X154461119Y-91618770D01*
X154459552Y-91627587D01*
X154457999Y-91629527D01*
X154345789Y-91742626D01*
X154337529Y-91746086D01*
X154329243Y-91742692D01*
X154329177Y-91742626D01*
X154216950Y-91629494D01*
X154213556Y-91621207D01*
X154213814Y-91618816D01*
X154235502Y-91517382D01*
X154240582Y-91510010D01*
X154247145Y-91508132D01*
X154428249Y-91511294D01*
G37*
%TD.AperFunction*%
%TD*%
%TA.AperFunction,Conductor*%
%TO.N,Net-(U2-PA2)*%
G36*
X154878252Y-90198208D02*
G01*
X154882129Y-90200799D01*
X155029194Y-90349110D01*
X155032586Y-90357397D01*
X155029124Y-90365656D01*
X155027473Y-90367018D01*
X154697420Y-90591859D01*
X154688653Y-90593684D01*
X154685521Y-90592614D01*
X154523060Y-90509837D01*
X154517245Y-90503028D01*
X154517529Y-90495016D01*
X154667716Y-90124768D01*
X154674001Y-90118391D01*
X154682954Y-90118325D01*
X154878252Y-90198208D01*
G37*
%TD.AperFunction*%
%TD*%
%TA.AperFunction,Conductor*%
%TO.N,Net-(U2-PA3)*%
G36*
X154082245Y-89738036D02*
G01*
X154276051Y-89817335D01*
X154282409Y-89823639D01*
X154282445Y-89823726D01*
X154361878Y-90017561D01*
X154361844Y-90026516D01*
X154356012Y-90032595D01*
X154088394Y-90157847D01*
X154079448Y-90158250D01*
X154076559Y-90156716D01*
X154018835Y-90114777D01*
X153928303Y-90049001D01*
X153923624Y-90041366D01*
X153924676Y-90034382D01*
X153928536Y-90026516D01*
X154067311Y-89743709D01*
X154074031Y-89737793D01*
X154082245Y-89738036D01*
G37*
%TD.AperFunction*%
%TD*%
%TA.AperFunction,Conductor*%
%TO.N,/PWR_SWITCH*%
G36*
X154345913Y-95256979D02*
G01*
X154345956Y-95257018D01*
X154393293Y-95301019D01*
X154468335Y-95370775D01*
X154472061Y-95378918D01*
X154471932Y-95381133D01*
X154457490Y-95474542D01*
X154452839Y-95482194D01*
X154447757Y-95484310D01*
X154269107Y-95512606D01*
X154260400Y-95510516D01*
X154255961Y-95504022D01*
X154248218Y-95474542D01*
X154223692Y-95381164D01*
X154224905Y-95372294D01*
X154226372Y-95370301D01*
X154329384Y-95257712D01*
X154337496Y-95253923D01*
X154345913Y-95256979D01*
G37*
%TD.AperFunction*%
%TD*%
%TA.AperFunction,Conductor*%
%TO.N,/PWR_SWITCH*%
G36*
X154725408Y-96175429D02*
G01*
X154893021Y-96283078D01*
X155007905Y-96356861D01*
X155013014Y-96364216D01*
X155012408Y-96371143D01*
X154932445Y-96566273D01*
X154926137Y-96572628D01*
X154926050Y-96572665D01*
X154732591Y-96651822D01*
X154723636Y-96651783D01*
X154717489Y-96645792D01*
X154560779Y-96297340D01*
X154560512Y-96288391D01*
X154564572Y-96283079D01*
X154712211Y-96175809D01*
X154720916Y-96173719D01*
X154725408Y-96175429D01*
G37*
%TD.AperFunction*%
%TD*%
%TA.AperFunction,Conductor*%
%TO.N,Net-(Q2-G)*%
G36*
X146540503Y-116607913D02*
G01*
X146544246Y-116612782D01*
X146577603Y-116693993D01*
X146691564Y-116971442D01*
X146691537Y-116980396D01*
X146687562Y-116985393D01*
X146055344Y-117439005D01*
X146046624Y-117441044D01*
X146039058Y-117436376D01*
X145756140Y-117046982D01*
X145754049Y-117038275D01*
X145755098Y-117034959D01*
X145922255Y-116693991D01*
X145928972Y-116688073D01*
X145931173Y-116687551D01*
X146531844Y-116605635D01*
X146540503Y-116607913D01*
G37*
%TD.AperFunction*%
%TD*%
%TA.AperFunction,Conductor*%
%TO.N,Net-(Q2-G)*%
G36*
X153394572Y-110323202D02*
G01*
X153402053Y-110328121D01*
X153403198Y-110330251D01*
X153560713Y-110714002D01*
X153560684Y-110722957D01*
X153554332Y-110729269D01*
X153554158Y-110729338D01*
X152869395Y-110997712D01*
X152860442Y-110997541D01*
X152855844Y-110993941D01*
X152743116Y-110847029D01*
X152740798Y-110838380D01*
X152741203Y-110836506D01*
X152921936Y-110243499D01*
X152927625Y-110236586D01*
X152935322Y-110235420D01*
X153394572Y-110323202D01*
G37*
%TD.AperFunction*%
%TD*%
%TA.AperFunction,Conductor*%
%TO.N,Net-(Q2-G)*%
G36*
X147337815Y-116136595D02*
G01*
X147490535Y-116238638D01*
X147495510Y-116246082D01*
X147493763Y-116254865D01*
X147493555Y-116255166D01*
X147159398Y-116722955D01*
X147151801Y-116727695D01*
X147147580Y-116727626D01*
X146546934Y-116607330D01*
X146539495Y-116602345D01*
X146537805Y-116598369D01*
X146459642Y-116242727D01*
X146461213Y-116233912D01*
X146468558Y-116228789D01*
X146469781Y-116228588D01*
X147330049Y-116134693D01*
X147337815Y-116136595D01*
G37*
%TD.AperFunction*%
%TD*%
%TA.AperFunction,Conductor*%
%TO.N,Net-(Q2-G)*%
G36*
X145572446Y-117166765D02*
G01*
X145580375Y-117170921D01*
X145581816Y-117173104D01*
X145800938Y-117603149D01*
X145801640Y-117612076D01*
X145796562Y-117618476D01*
X145325484Y-117903004D01*
X145316631Y-117904348D01*
X145312254Y-117902226D01*
X144931374Y-117606101D01*
X144926946Y-117598317D01*
X144927886Y-117592064D01*
X145133692Y-117135005D01*
X145140212Y-117128871D01*
X145145410Y-117128159D01*
X145572446Y-117166765D01*
G37*
%TD.AperFunction*%
%TD*%
%TA.AperFunction,Conductor*%
%TO.N,/SDA_ISO*%
G36*
X152160461Y-95968347D02*
G01*
X152161103Y-95969897D01*
X152274149Y-96309940D01*
X152274643Y-96315177D01*
X152251354Y-96489846D01*
X152246864Y-96497594D01*
X152239757Y-96500000D01*
X152060243Y-96500000D01*
X152051970Y-96496573D01*
X152048646Y-96489846D01*
X152025356Y-96315172D01*
X152025849Y-96309944D01*
X152138897Y-95969896D01*
X152144759Y-95963127D01*
X152153691Y-95962485D01*
X152160461Y-95968347D01*
G37*
%TD.AperFunction*%
%TD*%
%TA.AperFunction,Conductor*%
%TO.N,/SDA_ISO*%
G36*
X152245501Y-96754659D02*
G01*
X152248928Y-96762932D01*
X152248883Y-96763955D01*
X152215932Y-97139370D01*
X152211795Y-97147312D01*
X152204329Y-97150047D01*
X151994897Y-97150978D01*
X151986609Y-97147588D01*
X151838761Y-96998810D01*
X151835360Y-96990526D01*
X151838423Y-96982671D01*
X152046521Y-96755038D01*
X152054632Y-96751244D01*
X152055156Y-96751232D01*
X152237228Y-96751232D01*
X152245501Y-96754659D01*
G37*
%TD.AperFunction*%
%TD*%
%TA.AperFunction,Conductor*%
%TO.N,/SCL_BMS*%
G36*
X155082998Y-105197923D02*
G01*
X155580810Y-105456409D01*
X155704401Y-105520583D01*
X155710164Y-105527437D01*
X155710251Y-105534209D01*
X155577400Y-105994834D01*
X155571814Y-106001834D01*
X155569920Y-106002671D01*
X155186475Y-106132868D01*
X155177539Y-106132283D01*
X155171634Y-106125551D01*
X155171509Y-106125159D01*
X154989673Y-105520583D01*
X154935990Y-105342093D01*
X154936889Y-105333184D01*
X154938918Y-105330454D01*
X155069338Y-105200034D01*
X155077610Y-105196608D01*
X155082998Y-105197923D01*
G37*
%TD.AperFunction*%
%TD*%
%TA.AperFunction,Conductor*%
%TO.N,/SCL_BMS*%
G36*
X155229384Y-105607671D02*
G01*
X155569155Y-105992253D01*
X155572065Y-106000722D01*
X155569155Y-106007747D01*
X155229384Y-106392328D01*
X155221338Y-106396259D01*
X155214102Y-106394300D01*
X154780186Y-106103475D01*
X154775222Y-106096022D01*
X154775000Y-106093756D01*
X154775000Y-105906243D01*
X154778427Y-105897970D01*
X154780186Y-105896524D01*
X155214104Y-105605698D01*
X155222882Y-105603940D01*
X155229384Y-105607671D01*
G37*
%TD.AperFunction*%
%TD*%
%TA.AperFunction,Conductor*%
%TO.N,/SCL_BMS*%
G36*
X154922236Y-104579947D02*
G01*
X154930494Y-104583408D01*
X154933887Y-104591695D01*
X154933838Y-104592712D01*
X154899652Y-104966726D01*
X154895487Y-104974653D01*
X154892478Y-104976470D01*
X154723897Y-105046296D01*
X154714942Y-105046296D01*
X154709177Y-105041142D01*
X154508423Y-104677508D01*
X154507425Y-104668609D01*
X154513011Y-104661610D01*
X154514124Y-104661071D01*
X154707426Y-104579996D01*
X154711991Y-104579086D01*
X154922236Y-104579947D01*
G37*
%TD.AperFunction*%
%TD*%
%TA.AperFunction,Conductor*%
%TO.N,/SCL_BMS*%
G36*
X151935528Y-104840360D02*
G01*
X151966027Y-104858113D01*
X151979477Y-104865942D01*
X151984903Y-104873066D01*
X151984400Y-104880531D01*
X151915145Y-105047735D01*
X151908814Y-105054067D01*
X151903039Y-105054886D01*
X151601534Y-105021248D01*
X151593692Y-105016925D01*
X151591162Y-105008774D01*
X151598423Y-104908635D01*
X151602439Y-104900631D01*
X151607965Y-104897976D01*
X151927520Y-104838968D01*
X151935528Y-104840360D01*
G37*
%TD.AperFunction*%
%TD*%
%TA.AperFunction,Conductor*%
%TO.N,/SCL_BMS*%
G36*
X149450492Y-92124895D02*
G01*
X149458733Y-92128397D01*
X149462084Y-92136458D01*
X149463311Y-92240922D01*
X149459982Y-92249234D01*
X149454194Y-92252470D01*
X149039463Y-92346320D01*
X149034110Y-92346276D01*
X148878224Y-92308270D01*
X148870998Y-92302981D01*
X148869628Y-92294132D01*
X148870186Y-92292425D01*
X148938480Y-92127555D01*
X148944811Y-92121226D01*
X148949389Y-92120335D01*
X149450492Y-92124895D01*
G37*
%TD.AperFunction*%
%TD*%
%TA.AperFunction,Conductor*%
%TO.N,/SCL_BMS*%
G36*
X148756978Y-91869565D02*
G01*
X148757323Y-91869929D01*
X148992167Y-92127721D01*
X148995205Y-92136144D01*
X148994993Y-92137883D01*
X148959455Y-92316519D01*
X148954480Y-92323964D01*
X148945697Y-92325711D01*
X148945450Y-92325659D01*
X148937796Y-92323964D01*
X148517452Y-92230875D01*
X148510116Y-92225741D01*
X148508559Y-92216922D01*
X148509151Y-92215027D01*
X148588121Y-92022001D01*
X148590702Y-92018135D01*
X148740433Y-91869503D01*
X148748717Y-91866108D01*
X148756978Y-91869565D01*
G37*
%TD.AperFunction*%
%TD*%
%TA.AperFunction,Conductor*%
%TO.N,/SCL_ISO*%
G36*
X143082277Y-90976405D02*
G01*
X143088264Y-90982551D01*
X143169105Y-91175478D01*
X143169142Y-91184433D01*
X143169105Y-91184522D01*
X143088405Y-91377110D01*
X143082047Y-91383416D01*
X143073121Y-91383391D01*
X142819707Y-91277997D01*
X142813384Y-91271656D01*
X142812500Y-91267194D01*
X142812500Y-91083077D01*
X142815927Y-91074804D01*
X142820053Y-91072137D01*
X143073327Y-90976133D01*
X143082277Y-90976405D01*
G37*
%TD.AperFunction*%
%TD*%
%TA.AperFunction,Conductor*%
%TO.N,/SCL_ISO*%
G36*
X151660461Y-95968347D02*
G01*
X151661103Y-95969897D01*
X151774149Y-96309940D01*
X151774643Y-96315177D01*
X151751354Y-96489846D01*
X151746864Y-96497594D01*
X151739757Y-96500000D01*
X151560243Y-96500000D01*
X151551970Y-96496573D01*
X151548646Y-96489846D01*
X151525356Y-96315172D01*
X151525849Y-96309944D01*
X151638897Y-95969896D01*
X151644759Y-95963127D01*
X151653691Y-95962485D01*
X151660461Y-95968347D01*
G37*
%TD.AperFunction*%
%TD*%
%TA.AperFunction,Conductor*%
%TO.N,/SCL_ISO*%
G36*
X151749779Y-96205416D02*
G01*
X151752631Y-96210066D01*
X151864535Y-96553647D01*
X151863839Y-96562574D01*
X151857932Y-96568061D01*
X151664522Y-96649105D01*
X151655567Y-96649142D01*
X151655478Y-96649105D01*
X151586903Y-96620370D01*
X151461571Y-96567853D01*
X151455266Y-96561496D01*
X151454800Y-96554011D01*
X151547662Y-96210635D01*
X151553130Y-96203543D01*
X151558956Y-96201989D01*
X151741506Y-96201989D01*
X151749779Y-96205416D01*
G37*
%TD.AperFunction*%
%TD*%
M02*
