%TF.GenerationSoftware,KiCad,Pcbnew,8.0.5*%
%TF.CreationDate,2024-10-29T13:47:40+01:00*%
%TF.ProjectId,BatteryMonitor,42617474-6572-4794-9d6f-6e69746f722e,rev?*%
%TF.SameCoordinates,Original*%
%TF.FileFunction,Copper,L3,Inr*%
%TF.FilePolarity,Positive*%
%FSLAX46Y46*%
G04 Gerber Fmt 4.6, Leading zero omitted, Abs format (unit mm)*
G04 Created by KiCad (PCBNEW 8.0.5) date 2024-10-29 13:47:40*
%MOMM*%
%LPD*%
G01*
G04 APERTURE LIST*
%TA.AperFunction,ComponentPad*%
%ADD10C,2.300000*%
%TD*%
%TA.AperFunction,ComponentPad*%
%ADD11C,3.000000*%
%TD*%
%TA.AperFunction,ComponentPad*%
%ADD12C,1.600000*%
%TD*%
%TA.AperFunction,ComponentPad*%
%ADD13C,1.800000*%
%TD*%
%TA.AperFunction,ViaPad*%
%ADD14C,0.450000*%
%TD*%
G04 APERTURE END LIST*
D10*
%TO.N,Net-(J2-Pin_1)*%
%TO.C,J2*%
X140240000Y-87140000D03*
X140240000Y-82060000D03*
X137700000Y-87140000D03*
X137700000Y-82060000D03*
X135160000Y-87140000D03*
X135160000Y-82060000D03*
%TD*%
%TO.N,GND*%
%TO.C,J5*%
X140240000Y-118140000D03*
X140240000Y-113060000D03*
X137700000Y-118140000D03*
X137700000Y-113060000D03*
X135160000Y-118140000D03*
X135160000Y-113060000D03*
%TD*%
D11*
%TO.N,Net-(D2-A)*%
%TO.C,J6*%
X164525000Y-105737500D03*
X164525000Y-103437500D03*
%TO.N,+BATT*%
X164525000Y-97937500D03*
X164525000Y-95637500D03*
D12*
%TO.N,unconnected-(J6-Pin_3-Pad3)*%
X161150000Y-104337500D03*
%TO.N,unconnected-(J6-Pin_4-Pad4)*%
X161150000Y-100687500D03*
%TO.N,unconnected-(J6-Pin_5-Pad5)*%
X161150000Y-97037500D03*
%TO.N,N/C*%
X168325000Y-107937500D03*
D13*
X168325000Y-105987500D03*
X168325000Y-95387500D03*
D12*
X168325000Y-93437500D03*
X159875000Y-107937500D03*
D13*
X159875000Y-105987500D03*
X159875000Y-95387500D03*
D12*
X159875000Y-93437500D03*
%TD*%
D14*
%TO.N,+3.3V*%
X149000000Y-96856934D03*
%TO.N,/SWCLK*%
X148860000Y-95940000D03*
%TO.N,Net-(U1-SDA)*%
X150650000Y-98000000D03*
%TO.N,/SCL_ISO*%
X151660000Y-96650000D03*
%TO.N,/SDA_ISO*%
X151990000Y-97150000D03*
%TO.N,Net-(J1-Pin_5)*%
X153640000Y-98090000D03*
X156630000Y-97650000D03*
%TO.N,Net-(U1-SDA)*%
X152500000Y-98560000D03*
%TO.N,/SCL_BMS*%
X148590000Y-92020000D03*
%TO.N,/SCL_ISO*%
X143170000Y-91180000D03*
%TO.N,/SDA_ISO*%
X142812500Y-91825000D03*
%TO.N,GND*%
X138962500Y-89350000D03*
X137200000Y-89475000D03*
X151700000Y-102500000D03*
X144700000Y-100600000D03*
X145000000Y-105000000D03*
X148900000Y-99600000D03*
X145700000Y-95400000D03*
%TO.N,+3.3V*%
X144370000Y-87750000D03*
%TO.N,Net-(Q1-D)*%
X141280000Y-91040000D03*
%TO.N,Net-(J4-Pin_1)*%
X144310000Y-89710000D03*
%TO.N,Net-(J4-Pin_2)*%
X143910000Y-89220000D03*
%TO.N,Net-(J4-Pin_3)*%
X144340000Y-88730000D03*
%TO.N,GNDEXT*%
X143930000Y-88260000D03*
%TO.N,Net-(Q1-G)*%
X148630000Y-92660000D03*
%TO.N,/SWDIO*%
X148830000Y-94750000D03*
%TO.N,GND*%
X150700000Y-93500000D03*
X150700000Y-92200000D03*
X150800000Y-99625000D03*
X149100000Y-110275000D03*
X151900000Y-93500000D03*
X147790000Y-93980000D03*
X151900000Y-92200000D03*
X157500000Y-97175000D03*
X149200000Y-103700000D03*
X155900000Y-93675000D03*
X153200000Y-93500000D03*
X139075000Y-103300000D03*
X142725000Y-108890000D03*
X162875000Y-118362500D03*
X150875000Y-89600000D03*
X150600000Y-105100000D03*
X149200000Y-105100000D03*
X150700000Y-94800000D03*
X153200000Y-92200000D03*
X155900000Y-89125000D03*
X144100000Y-103175000D03*
X142400000Y-103175000D03*
X153400000Y-104750000D03*
X153060000Y-97230000D03*
X151200000Y-110275000D03*
X153200000Y-94800000D03*
X149900000Y-104400000D03*
X141550000Y-95270000D03*
X151900000Y-94800000D03*
X139600000Y-110450000D03*
X150600000Y-103700000D03*
X148700000Y-98125000D03*
%TO.N,Net-(J1-Pin_5)*%
X157500000Y-95625000D03*
%TO.N,+BATT*%
X150200000Y-86300000D03*
X150200000Y-81700000D03*
X149300000Y-85100000D03*
X152000000Y-86300000D03*
X149300000Y-82900000D03*
X151100000Y-85100000D03*
X148400000Y-84000000D03*
X150200000Y-84000000D03*
X151100000Y-82900000D03*
X152000000Y-84000000D03*
X152000000Y-81700000D03*
%TO.N,/TS*%
X137430000Y-105600000D03*
%TO.N,/CELL1*%
X139075000Y-101500000D03*
%TO.N,Net-(J3-Pin_1)*%
X139075000Y-96100000D03*
%TO.N,Net-(J3-Pin_3)*%
X139075000Y-99700000D03*
%TO.N,Net-(J3-Pin_2)*%
X138920000Y-98240000D03*
%TO.N,Net-(Q2-D)*%
X153300000Y-113800000D03*
X154400000Y-113000000D03*
X156100000Y-114700000D03*
X154400000Y-114700000D03*
X148700000Y-116400000D03*
X157800000Y-113000000D03*
X152100000Y-116400000D03*
X150400000Y-113000000D03*
X150400000Y-116400000D03*
X148700000Y-114700000D03*
X154400000Y-116400000D03*
X152100000Y-113000000D03*
X153300000Y-115600000D03*
X157800000Y-114700000D03*
X148700000Y-113000000D03*
X156100000Y-116400000D03*
X157800000Y-116400000D03*
X156100000Y-113000000D03*
X152100000Y-114700000D03*
X150400000Y-114700000D03*
%TO.N,/SCL_BMS*%
X154710000Y-104580000D03*
X154500000Y-100400000D03*
%TO.N,Net-(R21-Pad1)*%
X139925000Y-105600000D03*
%TO.N,Net-(U2-PA2)*%
X154880000Y-90200000D03*
%TO.N,Net-(U2-PA3)*%
X154280000Y-89820000D03*
%TO.N,/PWR_SWITCH*%
X154930000Y-96570000D03*
%TD*%
%TA.AperFunction,Conductor*%
%TO.N,GND*%
G36*
X168197789Y-80222174D02*
G01*
X168218830Y-80264841D01*
X168230305Y-80352006D01*
X168291393Y-80579991D01*
X168381714Y-80798045D01*
X168381715Y-80798048D01*
X168499724Y-81002446D01*
X168499728Y-81002452D01*
X168643408Y-81189699D01*
X168810300Y-81356591D01*
X168997547Y-81500271D01*
X168997553Y-81500275D01*
X169134581Y-81579388D01*
X169201951Y-81618284D01*
X169420007Y-81708606D01*
X169647986Y-81769693D01*
X169647992Y-81769693D01*
X169647993Y-81769694D01*
X169666134Y-81772082D01*
X169735158Y-81781169D01*
X169784208Y-81809487D01*
X169799500Y-81854536D01*
X169799500Y-118145462D01*
X169777826Y-118197788D01*
X169735160Y-118218829D01*
X169647992Y-118230306D01*
X169647990Y-118230306D01*
X169647986Y-118230307D01*
X169544580Y-118258014D01*
X169420008Y-118291393D01*
X169201954Y-118381714D01*
X169201951Y-118381715D01*
X168997553Y-118499724D01*
X168997547Y-118499728D01*
X168810300Y-118643408D01*
X168643408Y-118810300D01*
X168499728Y-118997547D01*
X168499724Y-118997553D01*
X168381715Y-119201951D01*
X168381714Y-119201954D01*
X168291393Y-119420008D01*
X168230305Y-119647993D01*
X168218830Y-119735159D01*
X168190511Y-119784208D01*
X168145463Y-119799500D01*
X140917294Y-119799500D01*
X140864968Y-119777826D01*
X140843294Y-119725500D01*
X140864968Y-119673174D01*
X140888975Y-119657133D01*
X140991403Y-119614705D01*
X140991410Y-119614701D01*
X141212839Y-119479009D01*
X141212846Y-119479004D01*
X141219644Y-119473198D01*
X140564024Y-118817578D01*
X140595258Y-118804641D01*
X140718097Y-118722563D01*
X140822563Y-118618097D01*
X140904641Y-118495258D01*
X140917578Y-118464024D01*
X141573198Y-119119644D01*
X141579004Y-119112846D01*
X141579009Y-119112839D01*
X141714701Y-118891410D01*
X141714705Y-118891403D01*
X141814097Y-118651451D01*
X141874724Y-118398916D01*
X141895101Y-118140000D01*
X141874724Y-117881083D01*
X141814097Y-117628548D01*
X141714705Y-117388596D01*
X141714701Y-117388589D01*
X141579011Y-117167162D01*
X141579005Y-117167154D01*
X141573197Y-117160354D01*
X140917577Y-117815973D01*
X140904641Y-117784742D01*
X140822563Y-117661903D01*
X140718097Y-117557437D01*
X140595258Y-117475359D01*
X140564023Y-117462421D01*
X141219644Y-116806801D01*
X141212837Y-116800989D01*
X140991410Y-116665298D01*
X140991403Y-116665294D01*
X140751451Y-116565902D01*
X140498916Y-116505275D01*
X140240000Y-116484898D01*
X139981083Y-116505275D01*
X139728548Y-116565902D01*
X139488596Y-116665294D01*
X139488588Y-116665298D01*
X139267162Y-116800988D01*
X139260354Y-116806801D01*
X139915974Y-117462421D01*
X139884742Y-117475359D01*
X139761903Y-117557437D01*
X139657437Y-117661903D01*
X139575359Y-117784742D01*
X139562421Y-117815974D01*
X138970000Y-117223553D01*
X138377578Y-117815974D01*
X138364641Y-117784742D01*
X138282563Y-117661903D01*
X138178097Y-117557437D01*
X138055258Y-117475359D01*
X138024023Y-117462421D01*
X138679644Y-116806801D01*
X138672837Y-116800989D01*
X138451410Y-116665298D01*
X138451403Y-116665294D01*
X138211451Y-116565902D01*
X137958916Y-116505275D01*
X137700000Y-116484898D01*
X137441083Y-116505275D01*
X137188548Y-116565902D01*
X136948596Y-116665294D01*
X136948588Y-116665298D01*
X136727162Y-116800988D01*
X136720354Y-116806801D01*
X137375974Y-117462421D01*
X137344742Y-117475359D01*
X137221903Y-117557437D01*
X137117437Y-117661903D01*
X137035359Y-117784742D01*
X137022421Y-117815974D01*
X136430000Y-117223553D01*
X135837578Y-117815974D01*
X135824641Y-117784742D01*
X135742563Y-117661903D01*
X135638097Y-117557437D01*
X135515258Y-117475359D01*
X135484023Y-117462421D01*
X136139644Y-116806801D01*
X136132837Y-116800989D01*
X135911410Y-116665298D01*
X135911403Y-116665294D01*
X135671451Y-116565902D01*
X135418916Y-116505275D01*
X135160000Y-116484898D01*
X134901083Y-116505275D01*
X134648548Y-116565902D01*
X134408596Y-116665294D01*
X134408588Y-116665298D01*
X134187162Y-116800988D01*
X134180354Y-116806801D01*
X134835974Y-117462421D01*
X134804742Y-117475359D01*
X134681903Y-117557437D01*
X134577437Y-117661903D01*
X134495359Y-117784742D01*
X134482421Y-117815974D01*
X133826801Y-117160354D01*
X133820988Y-117167162D01*
X133685298Y-117388588D01*
X133685294Y-117388596D01*
X133585902Y-117628548D01*
X133525275Y-117881083D01*
X133504898Y-118140000D01*
X133525275Y-118398916D01*
X133585902Y-118651451D01*
X133685294Y-118891403D01*
X133685298Y-118891410D01*
X133820989Y-119112837D01*
X133826801Y-119119644D01*
X134482421Y-118464023D01*
X134495359Y-118495258D01*
X134577437Y-118618097D01*
X134681903Y-118722563D01*
X134804742Y-118804641D01*
X134835974Y-118817577D01*
X134180354Y-119473197D01*
X134187154Y-119479005D01*
X134187162Y-119479011D01*
X134408589Y-119614701D01*
X134408596Y-119614705D01*
X134511025Y-119657133D01*
X134551073Y-119697182D01*
X134551073Y-119753819D01*
X134511024Y-119793867D01*
X134482706Y-119799500D01*
X131854537Y-119799500D01*
X131802211Y-119777826D01*
X131781170Y-119735159D01*
X131769694Y-119647993D01*
X131769693Y-119647992D01*
X131769693Y-119647986D01*
X131708606Y-119420007D01*
X131618284Y-119201951D01*
X131534277Y-119056447D01*
X131500275Y-118997553D01*
X131500271Y-118997547D01*
X131356591Y-118810300D01*
X131189699Y-118643408D01*
X131002452Y-118499728D01*
X131002446Y-118499724D01*
X130798048Y-118381715D01*
X130798045Y-118381714D01*
X130579991Y-118291393D01*
X130501015Y-118270232D01*
X130352014Y-118230307D01*
X130352007Y-118230306D01*
X130264840Y-118218829D01*
X130215791Y-118190510D01*
X130200500Y-118145462D01*
X130200500Y-116399996D01*
X148069906Y-116399996D01*
X148069906Y-116400003D01*
X148088214Y-116550790D01*
X148142078Y-116692818D01*
X148216743Y-116800988D01*
X148228368Y-116817830D01*
X148342066Y-116918557D01*
X148342067Y-116918557D01*
X148342069Y-116918559D01*
X148476562Y-116989146D01*
X148476566Y-116989148D01*
X148624051Y-117025500D01*
X148624055Y-117025500D01*
X148775945Y-117025500D01*
X148775949Y-117025500D01*
X148923434Y-116989148D01*
X149057934Y-116918557D01*
X149171632Y-116817830D01*
X149257921Y-116692819D01*
X149311785Y-116550791D01*
X149330094Y-116400000D01*
X149330094Y-116399996D01*
X149769906Y-116399996D01*
X149769906Y-116400003D01*
X149788214Y-116550790D01*
X149842078Y-116692818D01*
X149916743Y-116800988D01*
X149928368Y-116817830D01*
X150042066Y-116918557D01*
X150042067Y-116918557D01*
X150042069Y-116918559D01*
X150176562Y-116989146D01*
X150176566Y-116989148D01*
X150324051Y-117025500D01*
X150324055Y-117025500D01*
X150475945Y-117025500D01*
X150475949Y-117025500D01*
X150623434Y-116989148D01*
X150757934Y-116918557D01*
X150871632Y-116817830D01*
X150957921Y-116692819D01*
X151011785Y-116550791D01*
X151030094Y-116400000D01*
X151030094Y-116399996D01*
X151469906Y-116399996D01*
X151469906Y-116400003D01*
X151488214Y-116550790D01*
X151542078Y-116692818D01*
X151616743Y-116800988D01*
X151628368Y-116817830D01*
X151742066Y-116918557D01*
X151742067Y-116918557D01*
X151742069Y-116918559D01*
X151876562Y-116989146D01*
X151876566Y-116989148D01*
X152024051Y-117025500D01*
X152024055Y-117025500D01*
X152175945Y-117025500D01*
X152175949Y-117025500D01*
X152323434Y-116989148D01*
X152457934Y-116918557D01*
X152571632Y-116817830D01*
X152657921Y-116692819D01*
X152711785Y-116550791D01*
X152730094Y-116400000D01*
X152711785Y-116249209D01*
X152657921Y-116107181D01*
X152571632Y-115982170D01*
X152457934Y-115881443D01*
X152457932Y-115881442D01*
X152457930Y-115881440D01*
X152323437Y-115810853D01*
X152323434Y-115810852D01*
X152175949Y-115774500D01*
X152024051Y-115774500D01*
X151876562Y-115810853D01*
X151742069Y-115881440D01*
X151628367Y-115982170D01*
X151542078Y-116107181D01*
X151488214Y-116249209D01*
X151469906Y-116399996D01*
X151030094Y-116399996D01*
X151011785Y-116249209D01*
X150957921Y-116107181D01*
X150871632Y-115982170D01*
X150757934Y-115881443D01*
X150757932Y-115881442D01*
X150757930Y-115881440D01*
X150623437Y-115810853D01*
X150623434Y-115810852D01*
X150475949Y-115774500D01*
X150324051Y-115774500D01*
X150176562Y-115810853D01*
X150042069Y-115881440D01*
X149928367Y-115982170D01*
X149842078Y-116107181D01*
X149788214Y-116249209D01*
X149769906Y-116399996D01*
X149330094Y-116399996D01*
X149311785Y-116249209D01*
X149257921Y-116107181D01*
X149171632Y-115982170D01*
X149057934Y-115881443D01*
X149057932Y-115881442D01*
X149057930Y-115881440D01*
X148923437Y-115810853D01*
X148923434Y-115810852D01*
X148775949Y-115774500D01*
X148624051Y-115774500D01*
X148476562Y-115810853D01*
X148342069Y-115881440D01*
X148228367Y-115982170D01*
X148142078Y-116107181D01*
X148088214Y-116249209D01*
X148069906Y-116399996D01*
X130200500Y-116399996D01*
X130200500Y-115599996D01*
X152669906Y-115599996D01*
X152669906Y-115600003D01*
X152688214Y-115750790D01*
X152742078Y-115892818D01*
X152803754Y-115982170D01*
X152828368Y-116017830D01*
X152942066Y-116118557D01*
X152942067Y-116118557D01*
X152942069Y-116118559D01*
X153076562Y-116189146D01*
X153076566Y-116189148D01*
X153224051Y-116225500D01*
X153224055Y-116225500D01*
X153375945Y-116225500D01*
X153375949Y-116225500D01*
X153523434Y-116189148D01*
X153657934Y-116118557D01*
X153704033Y-116077716D01*
X153757571Y-116059242D01*
X153808493Y-116084036D01*
X153826968Y-116137575D01*
X153822294Y-116159348D01*
X153788214Y-116249208D01*
X153769906Y-116399996D01*
X153769906Y-116400003D01*
X153788214Y-116550790D01*
X153842078Y-116692818D01*
X153916743Y-116800988D01*
X153928368Y-116817830D01*
X154042066Y-116918557D01*
X154042067Y-116918557D01*
X154042069Y-116918559D01*
X154176562Y-116989146D01*
X154176566Y-116989148D01*
X154324051Y-117025500D01*
X154324055Y-117025500D01*
X154475945Y-117025500D01*
X154475949Y-117025500D01*
X154623434Y-116989148D01*
X154757934Y-116918557D01*
X154871632Y-116817830D01*
X154957921Y-116692819D01*
X155011785Y-116550791D01*
X155030094Y-116400000D01*
X155030094Y-116399996D01*
X155469906Y-116399996D01*
X155469906Y-116400003D01*
X155488214Y-116550790D01*
X155542078Y-116692818D01*
X155616743Y-116800988D01*
X155628368Y-116817830D01*
X155742066Y-116918557D01*
X155742067Y-116918557D01*
X155742069Y-116918559D01*
X155876562Y-116989146D01*
X155876566Y-116989148D01*
X156024051Y-117025500D01*
X156024055Y-117025500D01*
X156175945Y-117025500D01*
X156175949Y-117025500D01*
X156323434Y-116989148D01*
X156457934Y-116918557D01*
X156571632Y-116817830D01*
X156657921Y-116692819D01*
X156711785Y-116550791D01*
X156730094Y-116400000D01*
X156730094Y-116399996D01*
X157169906Y-116399996D01*
X157169906Y-116400003D01*
X157188214Y-116550790D01*
X157242078Y-116692818D01*
X157316743Y-116800988D01*
X157328368Y-116817830D01*
X157442066Y-116918557D01*
X157442067Y-116918557D01*
X157442069Y-116918559D01*
X157576562Y-116989146D01*
X157576566Y-116989148D01*
X157724051Y-117025500D01*
X157724055Y-117025500D01*
X157875945Y-117025500D01*
X157875949Y-117025500D01*
X158023434Y-116989148D01*
X158157934Y-116918557D01*
X158271632Y-116817830D01*
X158357921Y-116692819D01*
X158411785Y-116550791D01*
X158430094Y-116400000D01*
X158411785Y-116249209D01*
X158357921Y-116107181D01*
X158271632Y-115982170D01*
X158157934Y-115881443D01*
X158157932Y-115881442D01*
X158157930Y-115881440D01*
X158023437Y-115810853D01*
X158023434Y-115810852D01*
X157875949Y-115774500D01*
X157724051Y-115774500D01*
X157576562Y-115810853D01*
X157442069Y-115881440D01*
X157328367Y-115982170D01*
X157242078Y-116107181D01*
X157188214Y-116249209D01*
X157169906Y-116399996D01*
X156730094Y-116399996D01*
X156711785Y-116249209D01*
X156657921Y-116107181D01*
X156571632Y-115982170D01*
X156457934Y-115881443D01*
X156457932Y-115881442D01*
X156457930Y-115881440D01*
X156323437Y-115810853D01*
X156323434Y-115810852D01*
X156175949Y-115774500D01*
X156024051Y-115774500D01*
X155876562Y-115810853D01*
X155742069Y-115881440D01*
X155628367Y-115982170D01*
X155542078Y-116107181D01*
X155488214Y-116249209D01*
X155469906Y-116399996D01*
X155030094Y-116399996D01*
X155011785Y-116249209D01*
X154957921Y-116107181D01*
X154871632Y-115982170D01*
X154757934Y-115881443D01*
X154757932Y-115881442D01*
X154757930Y-115881440D01*
X154623437Y-115810853D01*
X154623434Y-115810852D01*
X154475949Y-115774500D01*
X154324051Y-115774500D01*
X154176562Y-115810853D01*
X154042069Y-115881440D01*
X153995966Y-115922283D01*
X153942426Y-115940757D01*
X153891505Y-115915962D01*
X153873031Y-115862422D01*
X153877704Y-115840655D01*
X153911785Y-115750791D01*
X153930094Y-115600000D01*
X153911785Y-115449209D01*
X153857921Y-115307181D01*
X153771632Y-115182170D01*
X153657934Y-115081443D01*
X153657932Y-115081442D01*
X153657930Y-115081440D01*
X153523437Y-115010853D01*
X153523434Y-115010852D01*
X153375949Y-114974500D01*
X153224051Y-114974500D01*
X153076562Y-115010853D01*
X152942069Y-115081440D01*
X152828367Y-115182170D01*
X152742078Y-115307181D01*
X152688214Y-115449209D01*
X152669906Y-115599996D01*
X130200500Y-115599996D01*
X130200500Y-113060000D01*
X133504898Y-113060000D01*
X133525275Y-113318916D01*
X133585902Y-113571451D01*
X133685294Y-113811403D01*
X133685298Y-113811410D01*
X133820989Y-114032837D01*
X133826801Y-114039644D01*
X134482421Y-113384023D01*
X134495359Y-113415258D01*
X134577437Y-113538097D01*
X134681903Y-113642563D01*
X134804742Y-113724641D01*
X134835974Y-113737577D01*
X134180354Y-114393197D01*
X134187154Y-114399005D01*
X134187162Y-114399011D01*
X134408589Y-114534701D01*
X134408596Y-114534705D01*
X134648548Y-114634097D01*
X134901083Y-114694724D01*
X135160000Y-114715101D01*
X135418916Y-114694724D01*
X135671451Y-114634097D01*
X135911403Y-114534705D01*
X135911410Y-114534701D01*
X136132839Y-114399009D01*
X136132846Y-114399004D01*
X136139644Y-114393198D01*
X135484024Y-113737578D01*
X135515258Y-113724641D01*
X135638097Y-113642563D01*
X135742563Y-113538097D01*
X135824641Y-113415258D01*
X135837578Y-113384025D01*
X136430000Y-113976447D01*
X137022421Y-113384025D01*
X137035359Y-113415258D01*
X137117437Y-113538097D01*
X137221903Y-113642563D01*
X137344742Y-113724641D01*
X137375974Y-113737577D01*
X136720354Y-114393197D01*
X136727154Y-114399005D01*
X136727162Y-114399011D01*
X136948589Y-114534701D01*
X136948596Y-114534705D01*
X137188548Y-114634097D01*
X137441083Y-114694724D01*
X137700000Y-114715101D01*
X137958916Y-114694724D01*
X138211451Y-114634097D01*
X138451403Y-114534705D01*
X138451410Y-114534701D01*
X138672839Y-114399009D01*
X138672846Y-114399004D01*
X138679644Y-114393198D01*
X138024024Y-113737578D01*
X138055258Y-113724641D01*
X138178097Y-113642563D01*
X138282563Y-113538097D01*
X138364641Y-113415258D01*
X138377578Y-113384025D01*
X138970000Y-113976447D01*
X139562421Y-113384025D01*
X139575359Y-113415258D01*
X139657437Y-113538097D01*
X139761903Y-113642563D01*
X139884742Y-113724641D01*
X139915974Y-113737577D01*
X139260354Y-114393197D01*
X139267154Y-114399005D01*
X139267162Y-114399011D01*
X139488589Y-114534701D01*
X139488596Y-114534705D01*
X139728548Y-114634097D01*
X139981083Y-114694724D01*
X140240000Y-114715101D01*
X140431928Y-114699996D01*
X148069906Y-114699996D01*
X148069906Y-114700003D01*
X148088214Y-114850790D01*
X148142078Y-114992818D01*
X148203250Y-115081440D01*
X148228368Y-115117830D01*
X148342066Y-115218557D01*
X148342067Y-115218557D01*
X148342069Y-115218559D01*
X148476562Y-115289146D01*
X148476566Y-115289148D01*
X148624051Y-115325500D01*
X148624055Y-115325500D01*
X148775945Y-115325500D01*
X148775949Y-115325500D01*
X148923434Y-115289148D01*
X149057934Y-115218557D01*
X149171632Y-115117830D01*
X149257921Y-114992819D01*
X149311785Y-114850791D01*
X149316362Y-114813093D01*
X149330094Y-114700003D01*
X149330094Y-114699996D01*
X149769906Y-114699996D01*
X149769906Y-114700003D01*
X149788214Y-114850790D01*
X149842078Y-114992818D01*
X149903250Y-115081440D01*
X149928368Y-115117830D01*
X150042066Y-115218557D01*
X150042067Y-115218557D01*
X150042069Y-115218559D01*
X150176562Y-115289146D01*
X150176566Y-115289148D01*
X150324051Y-115325500D01*
X150324055Y-115325500D01*
X150475945Y-115325500D01*
X150475949Y-115325500D01*
X150623434Y-115289148D01*
X150757934Y-115218557D01*
X150871632Y-115117830D01*
X150957921Y-114992819D01*
X151011785Y-114850791D01*
X151016362Y-114813093D01*
X151030094Y-114700003D01*
X151030094Y-114699996D01*
X151469906Y-114699996D01*
X151469906Y-114700003D01*
X151488214Y-114850790D01*
X151542078Y-114992818D01*
X151603250Y-115081440D01*
X151628368Y-115117830D01*
X151742066Y-115218557D01*
X151742067Y-115218557D01*
X151742069Y-115218559D01*
X151876562Y-115289146D01*
X151876566Y-115289148D01*
X152024051Y-115325500D01*
X152024055Y-115325500D01*
X152175945Y-115325500D01*
X152175949Y-115325500D01*
X152323434Y-115289148D01*
X152457934Y-115218557D01*
X152571632Y-115117830D01*
X152657921Y-114992819D01*
X152711785Y-114850791D01*
X152716362Y-114813093D01*
X152730094Y-114700003D01*
X152730094Y-114699996D01*
X153769906Y-114699996D01*
X153769906Y-114700003D01*
X153788214Y-114850790D01*
X153842078Y-114992818D01*
X153903250Y-115081440D01*
X153928368Y-115117830D01*
X154042066Y-115218557D01*
X154042067Y-115218557D01*
X154042069Y-115218559D01*
X154176562Y-115289146D01*
X154176566Y-115289148D01*
X154324051Y-115325500D01*
X154324055Y-115325500D01*
X154475945Y-115325500D01*
X154475949Y-115325500D01*
X154623434Y-115289148D01*
X154757934Y-115218557D01*
X154871632Y-115117830D01*
X154957921Y-114992819D01*
X155011785Y-114850791D01*
X155016362Y-114813093D01*
X155030094Y-114700003D01*
X155030094Y-114699996D01*
X155469906Y-114699996D01*
X155469906Y-114700003D01*
X155488214Y-114850790D01*
X155542078Y-114992818D01*
X155603250Y-115081440D01*
X155628368Y-115117830D01*
X155742066Y-115218557D01*
X155742067Y-115218557D01*
X155742069Y-115218559D01*
X155876562Y-115289146D01*
X155876566Y-115289148D01*
X156024051Y-115325500D01*
X156024055Y-115325500D01*
X156175945Y-115325500D01*
X156175949Y-115325500D01*
X156323434Y-115289148D01*
X156457934Y-115218557D01*
X156571632Y-115117830D01*
X156657921Y-114992819D01*
X156711785Y-114850791D01*
X156716362Y-114813093D01*
X156730094Y-114700003D01*
X156730094Y-114699996D01*
X157169906Y-114699996D01*
X157169906Y-114700003D01*
X157188214Y-114850790D01*
X157242078Y-114992818D01*
X157303250Y-115081440D01*
X157328368Y-115117830D01*
X157442066Y-115218557D01*
X157442067Y-115218557D01*
X157442069Y-115218559D01*
X157576562Y-115289146D01*
X157576566Y-115289148D01*
X157724051Y-115325500D01*
X157724055Y-115325500D01*
X157875945Y-115325500D01*
X157875949Y-115325500D01*
X158023434Y-115289148D01*
X158157934Y-115218557D01*
X158271632Y-115117830D01*
X158357921Y-114992819D01*
X158411785Y-114850791D01*
X158416362Y-114813093D01*
X158430094Y-114700003D01*
X158430094Y-114699996D01*
X158411785Y-114549209D01*
X158357921Y-114407181D01*
X158271632Y-114282170D01*
X158157934Y-114181443D01*
X158157932Y-114181442D01*
X158157930Y-114181440D01*
X158023437Y-114110853D01*
X158023434Y-114110852D01*
X157875949Y-114074500D01*
X157724051Y-114074500D01*
X157576562Y-114110853D01*
X157442069Y-114181440D01*
X157328367Y-114282170D01*
X157242078Y-114407181D01*
X157188214Y-114549209D01*
X157169906Y-114699996D01*
X156730094Y-114699996D01*
X156711785Y-114549209D01*
X156657921Y-114407181D01*
X156571632Y-114282170D01*
X156457934Y-114181443D01*
X156457932Y-114181442D01*
X156457930Y-114181440D01*
X156323437Y-114110853D01*
X156323434Y-114110852D01*
X156175949Y-114074500D01*
X156024051Y-114074500D01*
X155876562Y-114110853D01*
X155742069Y-114181440D01*
X155628367Y-114282170D01*
X155542078Y-114407181D01*
X155488214Y-114549209D01*
X155469906Y-114699996D01*
X155030094Y-114699996D01*
X155011785Y-114549209D01*
X154957921Y-114407181D01*
X154871632Y-114282170D01*
X154757934Y-114181443D01*
X154757932Y-114181442D01*
X154757930Y-114181440D01*
X154623437Y-114110853D01*
X154623434Y-114110852D01*
X154475949Y-114074500D01*
X154324051Y-114074500D01*
X154176562Y-114110853D01*
X154042069Y-114181440D01*
X153928367Y-114282170D01*
X153842078Y-114407181D01*
X153788214Y-114549209D01*
X153769906Y-114699996D01*
X152730094Y-114699996D01*
X152711785Y-114549209D01*
X152657921Y-114407181D01*
X152571632Y-114282170D01*
X152457934Y-114181443D01*
X152457932Y-114181442D01*
X152457930Y-114181440D01*
X152323437Y-114110853D01*
X152323434Y-114110852D01*
X152175949Y-114074500D01*
X152024051Y-114074500D01*
X151876562Y-114110853D01*
X151742069Y-114181440D01*
X151628367Y-114282170D01*
X151542078Y-114407181D01*
X151488214Y-114549209D01*
X151469906Y-114699996D01*
X151030094Y-114699996D01*
X151011785Y-114549209D01*
X150957921Y-114407181D01*
X150871632Y-114282170D01*
X150757934Y-114181443D01*
X150757932Y-114181442D01*
X150757930Y-114181440D01*
X150623437Y-114110853D01*
X150623434Y-114110852D01*
X150475949Y-114074500D01*
X150324051Y-114074500D01*
X150176562Y-114110853D01*
X150042069Y-114181440D01*
X149928367Y-114282170D01*
X149842078Y-114407181D01*
X149788214Y-114549209D01*
X149769906Y-114699996D01*
X149330094Y-114699996D01*
X149311785Y-114549209D01*
X149257921Y-114407181D01*
X149171632Y-114282170D01*
X149057934Y-114181443D01*
X149057932Y-114181442D01*
X149057930Y-114181440D01*
X148923437Y-114110853D01*
X148923434Y-114110852D01*
X148775949Y-114074500D01*
X148624051Y-114074500D01*
X148476562Y-114110853D01*
X148342069Y-114181440D01*
X148228367Y-114282170D01*
X148142078Y-114407181D01*
X148088214Y-114549209D01*
X148069906Y-114699996D01*
X140431928Y-114699996D01*
X140498916Y-114694724D01*
X140751451Y-114634097D01*
X140991403Y-114534705D01*
X140991410Y-114534701D01*
X141212839Y-114399009D01*
X141212846Y-114399004D01*
X141219644Y-114393198D01*
X140564024Y-113737578D01*
X140595258Y-113724641D01*
X140718097Y-113642563D01*
X140822563Y-113538097D01*
X140904641Y-113415258D01*
X140917578Y-113384024D01*
X141573198Y-114039644D01*
X141579004Y-114032846D01*
X141579009Y-114032839D01*
X141714701Y-113811410D01*
X141714705Y-113811403D01*
X141719430Y-113799996D01*
X152669906Y-113799996D01*
X152669906Y-113800003D01*
X152688214Y-113950790D01*
X152742078Y-114092818D01*
X152803250Y-114181440D01*
X152828368Y-114217830D01*
X152942066Y-114318557D01*
X152942067Y-114318557D01*
X152942069Y-114318559D01*
X153076562Y-114389146D01*
X153076566Y-114389148D01*
X153224051Y-114425500D01*
X153224055Y-114425500D01*
X153375945Y-114425500D01*
X153375949Y-114425500D01*
X153523434Y-114389148D01*
X153657934Y-114318557D01*
X153771632Y-114217830D01*
X153857921Y-114092819D01*
X153911785Y-113950791D01*
X153928709Y-113811410D01*
X153930094Y-113800003D01*
X153930094Y-113799996D01*
X153911785Y-113649209D01*
X153877705Y-113559347D01*
X153879415Y-113502737D01*
X153920655Y-113463916D01*
X153977266Y-113465626D01*
X153995966Y-113477716D01*
X154042066Y-113518557D01*
X154042067Y-113518557D01*
X154042069Y-113518559D01*
X154142847Y-113571451D01*
X154176566Y-113589148D01*
X154324051Y-113625500D01*
X154324055Y-113625500D01*
X154475945Y-113625500D01*
X154475949Y-113625500D01*
X154623434Y-113589148D01*
X154757934Y-113518557D01*
X154871632Y-113417830D01*
X154957921Y-113292819D01*
X155011785Y-113150791D01*
X155030094Y-113000000D01*
X155030094Y-112999996D01*
X155469906Y-112999996D01*
X155469906Y-113000003D01*
X155488214Y-113150790D01*
X155542078Y-113292818D01*
X155626593Y-113415258D01*
X155628368Y-113417830D01*
X155742066Y-113518557D01*
X155742067Y-113518557D01*
X155742069Y-113518559D01*
X155842847Y-113571451D01*
X155876566Y-113589148D01*
X156024051Y-113625500D01*
X156024055Y-113625500D01*
X156175945Y-113625500D01*
X156175949Y-113625500D01*
X156323434Y-113589148D01*
X156457934Y-113518557D01*
X156571632Y-113417830D01*
X156657921Y-113292819D01*
X156711785Y-113150791D01*
X156730094Y-113000000D01*
X156730094Y-112999996D01*
X157169906Y-112999996D01*
X157169906Y-113000003D01*
X157188214Y-113150790D01*
X157242078Y-113292818D01*
X157326593Y-113415258D01*
X157328368Y-113417830D01*
X157442066Y-113518557D01*
X157442067Y-113518557D01*
X157442069Y-113518559D01*
X157542847Y-113571451D01*
X157576566Y-113589148D01*
X157724051Y-113625500D01*
X157724055Y-113625500D01*
X157875945Y-113625500D01*
X157875949Y-113625500D01*
X158023434Y-113589148D01*
X158157934Y-113518557D01*
X158271632Y-113417830D01*
X158357921Y-113292819D01*
X158411785Y-113150791D01*
X158430094Y-113000000D01*
X158411785Y-112849209D01*
X158357921Y-112707181D01*
X158271632Y-112582170D01*
X158157934Y-112481443D01*
X158157932Y-112481442D01*
X158157930Y-112481440D01*
X158023437Y-112410853D01*
X158023434Y-112410852D01*
X157875949Y-112374500D01*
X157724051Y-112374500D01*
X157576562Y-112410853D01*
X157442069Y-112481440D01*
X157328367Y-112582170D01*
X157242078Y-112707181D01*
X157188214Y-112849209D01*
X157169906Y-112999996D01*
X156730094Y-112999996D01*
X156711785Y-112849209D01*
X156657921Y-112707181D01*
X156571632Y-112582170D01*
X156457934Y-112481443D01*
X156457932Y-112481442D01*
X156457930Y-112481440D01*
X156323437Y-112410853D01*
X156323434Y-112410852D01*
X156175949Y-112374500D01*
X156024051Y-112374500D01*
X155876562Y-112410853D01*
X155742069Y-112481440D01*
X155628367Y-112582170D01*
X155542078Y-112707181D01*
X155488214Y-112849209D01*
X155469906Y-112999996D01*
X155030094Y-112999996D01*
X155011785Y-112849209D01*
X154957921Y-112707181D01*
X154871632Y-112582170D01*
X154757934Y-112481443D01*
X154757932Y-112481442D01*
X154757930Y-112481440D01*
X154623437Y-112410853D01*
X154623434Y-112410852D01*
X154475949Y-112374500D01*
X154324051Y-112374500D01*
X154176562Y-112410853D01*
X154042069Y-112481440D01*
X153928367Y-112582170D01*
X153842078Y-112707181D01*
X153788214Y-112849209D01*
X153769906Y-112999996D01*
X153769906Y-113000003D01*
X153788214Y-113150790D01*
X153822294Y-113240651D01*
X153820584Y-113297263D01*
X153779344Y-113336083D01*
X153722732Y-113334373D01*
X153704033Y-113322282D01*
X153657934Y-113281442D01*
X153657932Y-113281441D01*
X153523437Y-113210853D01*
X153523434Y-113210852D01*
X153375949Y-113174500D01*
X153224051Y-113174500D01*
X153076562Y-113210853D01*
X152942069Y-113281440D01*
X152828367Y-113382170D01*
X152742078Y-113507181D01*
X152688214Y-113649209D01*
X152669906Y-113799996D01*
X141719430Y-113799996D01*
X141814097Y-113571451D01*
X141874724Y-113318916D01*
X141895101Y-113060000D01*
X141890379Y-112999996D01*
X148069906Y-112999996D01*
X148069906Y-113000003D01*
X148088214Y-113150790D01*
X148142078Y-113292818D01*
X148226593Y-113415258D01*
X148228368Y-113417830D01*
X148342066Y-113518557D01*
X148342067Y-113518557D01*
X148342069Y-113518559D01*
X148442847Y-113571451D01*
X148476566Y-113589148D01*
X148624051Y-113625500D01*
X148624055Y-113625500D01*
X148775945Y-113625500D01*
X148775949Y-113625500D01*
X148923434Y-113589148D01*
X149057934Y-113518557D01*
X149171632Y-113417830D01*
X149257921Y-113292819D01*
X149311785Y-113150791D01*
X149330094Y-113000000D01*
X149330094Y-112999996D01*
X149769906Y-112999996D01*
X149769906Y-113000003D01*
X149788214Y-113150790D01*
X149842078Y-113292818D01*
X149926593Y-113415258D01*
X149928368Y-113417830D01*
X150042066Y-113518557D01*
X150042067Y-113518557D01*
X150042069Y-113518559D01*
X150142847Y-113571451D01*
X150176566Y-113589148D01*
X150324051Y-113625500D01*
X150324055Y-113625500D01*
X150475945Y-113625500D01*
X150475949Y-113625500D01*
X150623434Y-113589148D01*
X150757934Y-113518557D01*
X150871632Y-113417830D01*
X150957921Y-113292819D01*
X151011785Y-113150791D01*
X151030094Y-113000000D01*
X151030094Y-112999996D01*
X151469906Y-112999996D01*
X151469906Y-113000003D01*
X151488214Y-113150790D01*
X151542078Y-113292818D01*
X151626593Y-113415258D01*
X151628368Y-113417830D01*
X151742066Y-113518557D01*
X151742067Y-113518557D01*
X151742069Y-113518559D01*
X151842847Y-113571451D01*
X151876566Y-113589148D01*
X152024051Y-113625500D01*
X152024055Y-113625500D01*
X152175945Y-113625500D01*
X152175949Y-113625500D01*
X152323434Y-113589148D01*
X152457934Y-113518557D01*
X152571632Y-113417830D01*
X152657921Y-113292819D01*
X152711785Y-113150791D01*
X152730094Y-113000000D01*
X152711785Y-112849209D01*
X152657921Y-112707181D01*
X152571632Y-112582170D01*
X152457934Y-112481443D01*
X152457932Y-112481442D01*
X152457930Y-112481440D01*
X152323437Y-112410853D01*
X152323434Y-112410852D01*
X152175949Y-112374500D01*
X152024051Y-112374500D01*
X151876562Y-112410853D01*
X151742069Y-112481440D01*
X151628367Y-112582170D01*
X151542078Y-112707181D01*
X151488214Y-112849209D01*
X151469906Y-112999996D01*
X151030094Y-112999996D01*
X151011785Y-112849209D01*
X150957921Y-112707181D01*
X150871632Y-112582170D01*
X150757934Y-112481443D01*
X150757932Y-112481442D01*
X150757930Y-112481440D01*
X150623437Y-112410853D01*
X150623434Y-112410852D01*
X150475949Y-112374500D01*
X150324051Y-112374500D01*
X150176562Y-112410853D01*
X150042069Y-112481440D01*
X149928367Y-112582170D01*
X149842078Y-112707181D01*
X149788214Y-112849209D01*
X149769906Y-112999996D01*
X149330094Y-112999996D01*
X149311785Y-112849209D01*
X149257921Y-112707181D01*
X149171632Y-112582170D01*
X149057934Y-112481443D01*
X149057932Y-112481442D01*
X149057930Y-112481440D01*
X148923437Y-112410853D01*
X148923434Y-112410852D01*
X148775949Y-112374500D01*
X148624051Y-112374500D01*
X148476562Y-112410853D01*
X148342069Y-112481440D01*
X148228367Y-112582170D01*
X148142078Y-112707181D01*
X148088214Y-112849209D01*
X148069906Y-112999996D01*
X141890379Y-112999996D01*
X141874724Y-112801083D01*
X141814097Y-112548548D01*
X141714705Y-112308596D01*
X141714701Y-112308589D01*
X141579011Y-112087162D01*
X141579005Y-112087154D01*
X141573197Y-112080354D01*
X140917577Y-112735973D01*
X140904641Y-112704742D01*
X140822563Y-112581903D01*
X140718097Y-112477437D01*
X140595258Y-112395359D01*
X140564023Y-112382421D01*
X141219644Y-111726801D01*
X141212837Y-111720989D01*
X140991410Y-111585298D01*
X140991403Y-111585294D01*
X140751451Y-111485902D01*
X140498916Y-111425275D01*
X140240000Y-111404898D01*
X139981083Y-111425275D01*
X139728548Y-111485902D01*
X139488596Y-111585294D01*
X139488588Y-111585298D01*
X139267162Y-111720988D01*
X139260354Y-111726801D01*
X139915974Y-112382421D01*
X139884742Y-112395359D01*
X139761903Y-112477437D01*
X139657437Y-112581903D01*
X139575359Y-112704742D01*
X139562421Y-112735974D01*
X138970000Y-112143553D01*
X138377578Y-112735974D01*
X138364641Y-112704742D01*
X138282563Y-112581903D01*
X138178097Y-112477437D01*
X138055258Y-112395359D01*
X138024023Y-112382421D01*
X138679644Y-111726801D01*
X138672837Y-111720989D01*
X138451410Y-111585298D01*
X138451403Y-111585294D01*
X138211451Y-111485902D01*
X137958916Y-111425275D01*
X137700000Y-111404898D01*
X137441083Y-111425275D01*
X137188548Y-111485902D01*
X136948596Y-111585294D01*
X136948588Y-111585298D01*
X136727162Y-111720988D01*
X136720354Y-111726801D01*
X137375974Y-112382421D01*
X137344742Y-112395359D01*
X137221903Y-112477437D01*
X137117437Y-112581903D01*
X137035359Y-112704742D01*
X137022421Y-112735974D01*
X136430000Y-112143553D01*
X135837578Y-112735974D01*
X135824641Y-112704742D01*
X135742563Y-112581903D01*
X135638097Y-112477437D01*
X135515258Y-112395359D01*
X135484023Y-112382421D01*
X136139644Y-111726801D01*
X136132837Y-111720989D01*
X135911410Y-111585298D01*
X135911403Y-111585294D01*
X135671451Y-111485902D01*
X135418916Y-111425275D01*
X135160000Y-111404898D01*
X134901083Y-111425275D01*
X134648548Y-111485902D01*
X134408596Y-111585294D01*
X134408588Y-111585298D01*
X134187162Y-111720988D01*
X134180354Y-111726801D01*
X134835974Y-112382421D01*
X134804742Y-112395359D01*
X134681903Y-112477437D01*
X134577437Y-112581903D01*
X134495359Y-112704742D01*
X134482421Y-112735974D01*
X133826801Y-112080354D01*
X133820988Y-112087162D01*
X133685298Y-112308588D01*
X133685294Y-112308596D01*
X133585902Y-112548548D01*
X133525275Y-112801083D01*
X133504898Y-113060000D01*
X130200500Y-113060000D01*
X130200500Y-105599996D01*
X136799906Y-105599996D01*
X136799906Y-105600003D01*
X136818214Y-105750790D01*
X136872078Y-105892818D01*
X136937433Y-105987500D01*
X136958368Y-106017830D01*
X137072066Y-106118557D01*
X137072067Y-106118557D01*
X137072069Y-106118559D01*
X137206562Y-106189146D01*
X137206566Y-106189148D01*
X137354051Y-106225500D01*
X137354055Y-106225500D01*
X137505945Y-106225500D01*
X137505949Y-106225500D01*
X137653434Y-106189148D01*
X137787934Y-106118557D01*
X137901632Y-106017830D01*
X137987921Y-105892819D01*
X138041785Y-105750791D01*
X138060094Y-105600000D01*
X138060094Y-105599996D01*
X139294906Y-105599996D01*
X139294906Y-105600003D01*
X139313214Y-105750790D01*
X139367078Y-105892818D01*
X139432433Y-105987500D01*
X139453368Y-106017830D01*
X139567066Y-106118557D01*
X139567067Y-106118557D01*
X139567069Y-106118559D01*
X139701562Y-106189146D01*
X139701566Y-106189148D01*
X139849051Y-106225500D01*
X139849055Y-106225500D01*
X140000945Y-106225500D01*
X140000949Y-106225500D01*
X140148434Y-106189148D01*
X140282934Y-106118557D01*
X140396632Y-106017830D01*
X140417571Y-105987494D01*
X158569532Y-105987494D01*
X158569532Y-105987505D01*
X158589364Y-106214188D01*
X158589365Y-106214196D01*
X158648258Y-106433988D01*
X158648260Y-106433992D01*
X158648261Y-106433996D01*
X158744432Y-106640234D01*
X158744434Y-106640236D01*
X158744435Y-106640239D01*
X158874953Y-106826639D01*
X159028379Y-106980065D01*
X159050053Y-107032391D01*
X159028379Y-107084717D01*
X159025907Y-107087077D01*
X158984016Y-107125266D01*
X158849944Y-107302806D01*
X158849942Y-107302809D01*
X158750771Y-107501972D01*
X158750769Y-107501977D01*
X158689885Y-107715962D01*
X158689883Y-107715975D01*
X158669357Y-107937496D01*
X158669357Y-107937503D01*
X158689883Y-108159024D01*
X158689885Y-108159037D01*
X158750769Y-108373022D01*
X158750771Y-108373027D01*
X158849942Y-108572190D01*
X158849944Y-108572193D01*
X158981356Y-108746210D01*
X158984019Y-108749736D01*
X159148438Y-108899624D01*
X159337599Y-109016747D01*
X159545060Y-109097118D01*
X159763757Y-109138000D01*
X159986243Y-109138000D01*
X160204940Y-109097118D01*
X160412401Y-109016747D01*
X160601562Y-108899624D01*
X160765981Y-108749736D01*
X160900058Y-108572189D01*
X160999229Y-108373028D01*
X161060115Y-108159036D01*
X161080643Y-107937500D01*
X161060115Y-107715964D01*
X160999229Y-107501972D01*
X160900058Y-107302811D01*
X160900057Y-107302810D01*
X160900057Y-107302809D01*
X160900055Y-107302806D01*
X160765982Y-107125264D01*
X160765981Y-107125263D01*
X160724093Y-107087078D01*
X160700025Y-107035809D01*
X160719259Y-106982538D01*
X160721598Y-106980087D01*
X160875047Y-106826639D01*
X161005568Y-106640234D01*
X161101739Y-106433996D01*
X161160635Y-106214192D01*
X161169449Y-106113440D01*
X161180468Y-105987505D01*
X161180468Y-105987494D01*
X161160635Y-105760811D01*
X161160636Y-105760811D01*
X161125894Y-105631152D01*
X161133287Y-105575000D01*
X161178221Y-105540521D01*
X161197373Y-105538000D01*
X161261243Y-105538000D01*
X161479940Y-105497118D01*
X161687401Y-105416747D01*
X161876562Y-105299624D01*
X162040981Y-105149736D01*
X162175058Y-104972189D01*
X162274229Y-104773028D01*
X162335115Y-104559036D01*
X162355643Y-104337500D01*
X162350980Y-104287181D01*
X162335116Y-104115975D01*
X162335115Y-104115964D01*
X162274229Y-103901972D01*
X162175058Y-103702811D01*
X162175057Y-103702810D01*
X162175057Y-103702809D01*
X162175055Y-103702806D01*
X162040983Y-103525267D01*
X162040981Y-103525264D01*
X161944701Y-103437493D01*
X162619645Y-103437493D01*
X162619645Y-103437506D01*
X162639038Y-103708657D01*
X162696824Y-103974297D01*
X162696829Y-103974315D01*
X162791826Y-104229010D01*
X162791827Y-104229014D01*
X162922111Y-104467611D01*
X162922112Y-104467613D01*
X162978661Y-104543154D01*
X162992668Y-104598032D01*
X162978661Y-104631846D01*
X162922112Y-104707386D01*
X162922111Y-104707388D01*
X162791827Y-104945985D01*
X162791826Y-104945989D01*
X162696829Y-105200684D01*
X162696824Y-105200702D01*
X162639038Y-105466342D01*
X162619645Y-105737493D01*
X162619645Y-105737506D01*
X162639038Y-106008657D01*
X162696824Y-106274297D01*
X162696829Y-106274315D01*
X162791826Y-106529010D01*
X162791827Y-106529014D01*
X162922109Y-106767608D01*
X162922113Y-106767613D01*
X163085029Y-106985242D01*
X163277258Y-107177471D01*
X163444685Y-107302806D01*
X163494891Y-107340390D01*
X163733485Y-107470672D01*
X163733489Y-107470673D01*
X163988184Y-107565670D01*
X163988190Y-107565671D01*
X163988199Y-107565675D01*
X164253840Y-107623461D01*
X164314097Y-107627770D01*
X164524993Y-107642855D01*
X164525000Y-107642855D01*
X164525007Y-107642855D01*
X164714812Y-107629279D01*
X164796160Y-107623461D01*
X165061801Y-107565675D01*
X165061812Y-107565670D01*
X165061815Y-107565670D01*
X165316510Y-107470673D01*
X165316514Y-107470672D01*
X165555108Y-107340390D01*
X165555109Y-107340389D01*
X165555113Y-107340387D01*
X165772742Y-107177471D01*
X165964971Y-106985242D01*
X166127887Y-106767613D01*
X166127890Y-106767608D01*
X166258172Y-106529014D01*
X166258173Y-106529010D01*
X166353170Y-106274315D01*
X166353170Y-106274312D01*
X166353175Y-106274301D01*
X166410961Y-106008660D01*
X166412475Y-105987494D01*
X167019532Y-105987494D01*
X167019532Y-105987505D01*
X167039364Y-106214188D01*
X167039365Y-106214196D01*
X167098258Y-106433988D01*
X167098260Y-106433992D01*
X167098261Y-106433996D01*
X167194432Y-106640234D01*
X167194434Y-106640236D01*
X167194435Y-106640239D01*
X167324953Y-106826639D01*
X167478379Y-106980065D01*
X167500053Y-107032391D01*
X167478379Y-107084717D01*
X167475907Y-107087077D01*
X167434016Y-107125266D01*
X167299944Y-107302806D01*
X167299942Y-107302809D01*
X167200771Y-107501972D01*
X167200769Y-107501977D01*
X167139885Y-107715962D01*
X167139883Y-107715975D01*
X167119357Y-107937496D01*
X167119357Y-107937503D01*
X167139883Y-108159024D01*
X167139885Y-108159037D01*
X167200769Y-108373022D01*
X167200771Y-108373027D01*
X167299942Y-108572190D01*
X167299944Y-108572193D01*
X167431356Y-108746210D01*
X167434019Y-108749736D01*
X167598438Y-108899624D01*
X167787599Y-109016747D01*
X167995060Y-109097118D01*
X168213757Y-109138000D01*
X168436243Y-109138000D01*
X168654940Y-109097118D01*
X168862401Y-109016747D01*
X169051562Y-108899624D01*
X169215981Y-108749736D01*
X169350058Y-108572189D01*
X169449229Y-108373028D01*
X169510115Y-108159036D01*
X169530643Y-107937500D01*
X169510115Y-107715964D01*
X169449229Y-107501972D01*
X169350058Y-107302811D01*
X169350057Y-107302810D01*
X169350057Y-107302809D01*
X169350055Y-107302806D01*
X169215982Y-107125264D01*
X169215981Y-107125263D01*
X169174093Y-107087078D01*
X169150025Y-107035809D01*
X169169259Y-106982538D01*
X169171598Y-106980087D01*
X169325047Y-106826639D01*
X169455568Y-106640234D01*
X169551739Y-106433996D01*
X169610635Y-106214192D01*
X169619449Y-106113440D01*
X169630468Y-105987505D01*
X169630468Y-105987494D01*
X169610635Y-105760811D01*
X169610634Y-105760803D01*
X169551741Y-105541011D01*
X169551740Y-105541010D01*
X169551739Y-105541004D01*
X169455568Y-105334766D01*
X169325047Y-105148361D01*
X169164139Y-104987453D01*
X169104916Y-104945985D01*
X168977739Y-104856935D01*
X168977736Y-104856934D01*
X168977734Y-104856932D01*
X168771496Y-104760761D01*
X168771492Y-104760760D01*
X168771488Y-104760758D01*
X168551696Y-104701865D01*
X168551688Y-104701864D01*
X168325005Y-104682032D01*
X168324995Y-104682032D01*
X168098311Y-104701864D01*
X168098303Y-104701865D01*
X167878511Y-104760758D01*
X167878504Y-104760760D01*
X167878504Y-104760761D01*
X167852211Y-104773022D01*
X167672260Y-104856935D01*
X167485860Y-104987453D01*
X167324953Y-105148360D01*
X167194435Y-105334760D01*
X167194432Y-105334765D01*
X167194432Y-105334766D01*
X167156203Y-105416748D01*
X167098263Y-105541000D01*
X167098258Y-105541011D01*
X167039365Y-105760803D01*
X167039364Y-105760811D01*
X167019532Y-105987494D01*
X166412475Y-105987494D01*
X166428688Y-105760808D01*
X166430355Y-105737506D01*
X166430355Y-105737493D01*
X166410961Y-105466342D01*
X166400173Y-105416748D01*
X166353175Y-105200699D01*
X166353171Y-105200690D01*
X166353170Y-105200684D01*
X166258173Y-104945989D01*
X166258172Y-104945985D01*
X166127890Y-104707391D01*
X166071338Y-104631847D01*
X166057331Y-104576969D01*
X166071338Y-104543153D01*
X166127887Y-104467613D01*
X166148857Y-104429209D01*
X166258172Y-104229014D01*
X166258173Y-104229010D01*
X166353170Y-103974315D01*
X166353170Y-103974312D01*
X166353175Y-103974301D01*
X166410961Y-103708660D01*
X166430355Y-103437500D01*
X166430355Y-103437493D01*
X166415270Y-103226597D01*
X166410961Y-103166340D01*
X166353175Y-102900699D01*
X166353171Y-102900690D01*
X166353170Y-102900684D01*
X166258173Y-102645989D01*
X166258172Y-102645985D01*
X166127890Y-102407391D01*
X166126685Y-102405781D01*
X165964971Y-102189758D01*
X165772742Y-101997529D01*
X165571818Y-101847118D01*
X165555108Y-101834609D01*
X165316514Y-101704327D01*
X165316510Y-101704326D01*
X165061815Y-101609329D01*
X165061797Y-101609324D01*
X164796157Y-101551538D01*
X164525007Y-101532145D01*
X164524993Y-101532145D01*
X164253842Y-101551538D01*
X163988202Y-101609324D01*
X163988184Y-101609329D01*
X163733489Y-101704326D01*
X163733485Y-101704327D01*
X163494891Y-101834609D01*
X163277255Y-101997531D01*
X163085031Y-102189755D01*
X162922109Y-102407391D01*
X162791827Y-102645985D01*
X162791826Y-102645989D01*
X162696829Y-102900684D01*
X162696824Y-102900702D01*
X162639038Y-103166342D01*
X162619645Y-103437493D01*
X161944701Y-103437493D01*
X161876562Y-103375376D01*
X161687401Y-103258253D01*
X161626168Y-103234531D01*
X161479942Y-103177882D01*
X161261246Y-103137000D01*
X161261243Y-103137000D01*
X161038757Y-103137000D01*
X161038753Y-103137000D01*
X160820057Y-103177882D01*
X160612604Y-103258251D01*
X160612599Y-103258253D01*
X160612594Y-103258255D01*
X160612594Y-103258256D01*
X160423440Y-103375374D01*
X160259016Y-103525267D01*
X160124944Y-103702806D01*
X160124942Y-103702809D01*
X160025771Y-103901972D01*
X160025769Y-103901977D01*
X159964885Y-104115962D01*
X159964883Y-104115975D01*
X159944357Y-104337496D01*
X159944357Y-104337503D01*
X159964883Y-104559024D01*
X159964884Y-104559030D01*
X159964885Y-104559036D01*
X159970849Y-104579996D01*
X159973668Y-104589904D01*
X159967139Y-104646164D01*
X159922742Y-104681330D01*
X159896044Y-104683873D01*
X159875000Y-104682032D01*
X159874998Y-104682032D01*
X159874996Y-104682032D01*
X159874995Y-104682032D01*
X159648311Y-104701864D01*
X159648303Y-104701865D01*
X159428511Y-104760758D01*
X159428504Y-104760760D01*
X159428504Y-104760761D01*
X159402211Y-104773022D01*
X159222260Y-104856935D01*
X159035860Y-104987453D01*
X158874953Y-105148360D01*
X158744435Y-105334760D01*
X158744432Y-105334765D01*
X158744432Y-105334766D01*
X158706203Y-105416748D01*
X158648263Y-105541000D01*
X158648258Y-105541011D01*
X158589365Y-105760803D01*
X158589364Y-105760811D01*
X158569532Y-105987494D01*
X140417571Y-105987494D01*
X140482921Y-105892819D01*
X140536785Y-105750791D01*
X140555094Y-105600000D01*
X140547930Y-105541000D01*
X140536785Y-105449209D01*
X140482921Y-105307181D01*
X140396632Y-105182170D01*
X140302254Y-105098559D01*
X140282934Y-105081443D01*
X140282932Y-105081442D01*
X140282930Y-105081440D01*
X140148437Y-105010853D01*
X140148434Y-105010852D01*
X140000949Y-104974500D01*
X139849051Y-104974500D01*
X139701562Y-105010853D01*
X139567069Y-105081440D01*
X139453367Y-105182170D01*
X139367078Y-105307181D01*
X139313214Y-105449209D01*
X139294906Y-105599996D01*
X138060094Y-105599996D01*
X138052930Y-105541000D01*
X138041785Y-105449209D01*
X137987921Y-105307181D01*
X137901632Y-105182170D01*
X137807254Y-105098559D01*
X137787934Y-105081443D01*
X137787932Y-105081442D01*
X137787930Y-105081440D01*
X137653437Y-105010853D01*
X137653434Y-105010852D01*
X137505949Y-104974500D01*
X137354051Y-104974500D01*
X137206562Y-105010853D01*
X137072069Y-105081440D01*
X136958367Y-105182170D01*
X136872078Y-105307181D01*
X136818214Y-105449209D01*
X136799906Y-105599996D01*
X130200500Y-105599996D01*
X130200500Y-104579996D01*
X154079906Y-104579996D01*
X154079906Y-104580003D01*
X154098214Y-104730790D01*
X154152078Y-104872818D01*
X154202585Y-104945989D01*
X154238368Y-104997830D01*
X154352066Y-105098557D01*
X154352067Y-105098557D01*
X154352069Y-105098559D01*
X154486562Y-105169146D01*
X154486566Y-105169148D01*
X154634051Y-105205500D01*
X154634055Y-105205500D01*
X154785945Y-105205500D01*
X154785949Y-105205500D01*
X154933434Y-105169148D01*
X155067934Y-105098557D01*
X155181632Y-104997830D01*
X155267921Y-104872819D01*
X155321785Y-104730791D01*
X155327791Y-104681330D01*
X155340094Y-104580003D01*
X155340094Y-104579996D01*
X155321785Y-104429209D01*
X155267921Y-104287181D01*
X155181632Y-104162170D01*
X155129476Y-104115964D01*
X155067934Y-104061443D01*
X155067932Y-104061442D01*
X155067930Y-104061440D01*
X154933437Y-103990853D01*
X154933434Y-103990852D01*
X154785949Y-103954500D01*
X154634051Y-103954500D01*
X154486562Y-103990853D01*
X154352069Y-104061440D01*
X154238367Y-104162170D01*
X154152078Y-104287181D01*
X154098214Y-104429209D01*
X154079906Y-104579996D01*
X130200500Y-104579996D01*
X130200500Y-101499996D01*
X138444906Y-101499996D01*
X138444906Y-101500003D01*
X138463214Y-101650790D01*
X138517078Y-101792818D01*
X138582778Y-101888000D01*
X138603368Y-101917830D01*
X138717066Y-102018557D01*
X138717067Y-102018557D01*
X138717069Y-102018559D01*
X138851562Y-102089146D01*
X138851566Y-102089148D01*
X138999051Y-102125500D01*
X138999055Y-102125500D01*
X139150945Y-102125500D01*
X139150949Y-102125500D01*
X139298434Y-102089148D01*
X139432934Y-102018557D01*
X139546632Y-101917830D01*
X139632921Y-101792819D01*
X139686785Y-101650791D01*
X139705094Y-101500000D01*
X139705061Y-101499732D01*
X139686785Y-101349209D01*
X139632921Y-101207181D01*
X139546632Y-101082170D01*
X139441631Y-100989148D01*
X139432934Y-100981443D01*
X139432932Y-100981442D01*
X139432930Y-100981440D01*
X139298437Y-100910853D01*
X139298434Y-100910852D01*
X139150949Y-100874500D01*
X138999051Y-100874500D01*
X138851562Y-100910853D01*
X138717069Y-100981440D01*
X138603367Y-101082170D01*
X138517078Y-101207181D01*
X138463214Y-101349209D01*
X138444906Y-101499996D01*
X130200500Y-101499996D01*
X130200500Y-100399996D01*
X153869906Y-100399996D01*
X153869906Y-100400003D01*
X153888214Y-100550790D01*
X153942078Y-100692818D01*
X153942079Y-100692819D01*
X154028368Y-100817830D01*
X154142066Y-100918557D01*
X154142067Y-100918557D01*
X154142069Y-100918559D01*
X154261885Y-100981443D01*
X154276566Y-100989148D01*
X154424051Y-101025500D01*
X154424055Y-101025500D01*
X154575945Y-101025500D01*
X154575949Y-101025500D01*
X154723434Y-100989148D01*
X154857934Y-100918557D01*
X154971632Y-100817830D01*
X155057921Y-100692819D01*
X155059940Y-100687496D01*
X159944357Y-100687496D01*
X159944357Y-100687503D01*
X159964883Y-100909024D01*
X159964885Y-100909037D01*
X159998021Y-101025499D01*
X160025771Y-101123028D01*
X160075356Y-101222608D01*
X160124942Y-101322190D01*
X160124944Y-101322193D01*
X160256356Y-101496210D01*
X160259019Y-101499736D01*
X160423438Y-101649624D01*
X160612599Y-101766747D01*
X160820060Y-101847118D01*
X161038757Y-101888000D01*
X161261243Y-101888000D01*
X161479940Y-101847118D01*
X161687401Y-101766747D01*
X161876562Y-101649624D01*
X162040981Y-101499736D01*
X162175058Y-101322189D01*
X162274229Y-101123028D01*
X162335115Y-100909036D01*
X162355643Y-100687500D01*
X162335115Y-100465964D01*
X162274229Y-100251972D01*
X162175058Y-100052811D01*
X162175057Y-100052810D01*
X162175057Y-100052809D01*
X162175055Y-100052806D01*
X162040983Y-99875267D01*
X162040981Y-99875264D01*
X161876562Y-99725376D01*
X161687401Y-99608253D01*
X161626168Y-99584531D01*
X161479942Y-99527882D01*
X161261246Y-99487000D01*
X161261243Y-99487000D01*
X161038757Y-99487000D01*
X161038753Y-99487000D01*
X160820057Y-99527882D01*
X160612604Y-99608251D01*
X160612599Y-99608253D01*
X160612594Y-99608255D01*
X160612594Y-99608256D01*
X160423440Y-99725374D01*
X160423438Y-99725376D01*
X160329676Y-99810852D01*
X160259016Y-99875267D01*
X160124944Y-100052806D01*
X160124942Y-100052809D01*
X160025771Y-100251972D01*
X160025769Y-100251977D01*
X159964885Y-100465962D01*
X159964883Y-100465975D01*
X159944357Y-100687496D01*
X155059940Y-100687496D01*
X155111785Y-100550791D01*
X155130094Y-100400000D01*
X155116634Y-100289148D01*
X155111785Y-100249209D01*
X155057921Y-100107181D01*
X154971632Y-99982170D01*
X154857934Y-99881443D01*
X154857932Y-99881442D01*
X154857930Y-99881440D01*
X154723437Y-99810853D01*
X154723434Y-99810852D01*
X154575949Y-99774500D01*
X154424051Y-99774500D01*
X154276562Y-99810853D01*
X154142069Y-99881440D01*
X154028367Y-99982170D01*
X153942078Y-100107181D01*
X153888214Y-100249209D01*
X153869906Y-100399996D01*
X130200500Y-100399996D01*
X130200500Y-99699996D01*
X138444906Y-99699996D01*
X138444906Y-99700003D01*
X138463214Y-99850790D01*
X138517078Y-99992818D01*
X138596018Y-100107181D01*
X138603368Y-100117830D01*
X138717066Y-100218557D01*
X138717067Y-100218557D01*
X138717069Y-100218559D01*
X138851562Y-100289146D01*
X138851566Y-100289148D01*
X138999051Y-100325500D01*
X138999055Y-100325500D01*
X139150945Y-100325500D01*
X139150949Y-100325500D01*
X139298434Y-100289148D01*
X139432934Y-100218557D01*
X139546632Y-100117830D01*
X139632921Y-99992819D01*
X139686785Y-99850791D01*
X139697120Y-99765675D01*
X139705094Y-99700003D01*
X139705094Y-99699996D01*
X139686785Y-99549209D01*
X139632921Y-99407181D01*
X139546632Y-99282170D01*
X139437222Y-99185242D01*
X139432934Y-99181443D01*
X139432932Y-99181442D01*
X139432930Y-99181440D01*
X139298437Y-99110853D01*
X139298434Y-99110852D01*
X139150949Y-99074500D01*
X138999051Y-99074500D01*
X138851562Y-99110853D01*
X138717069Y-99181440D01*
X138603367Y-99282170D01*
X138517078Y-99407181D01*
X138463214Y-99549209D01*
X138444906Y-99699996D01*
X130200500Y-99699996D01*
X130200500Y-98239996D01*
X138289906Y-98239996D01*
X138289906Y-98240003D01*
X138308214Y-98390790D01*
X138362078Y-98532818D01*
X138414359Y-98608559D01*
X138448368Y-98657830D01*
X138562066Y-98758557D01*
X138562067Y-98758557D01*
X138562069Y-98758559D01*
X138696562Y-98829146D01*
X138696566Y-98829148D01*
X138844051Y-98865500D01*
X138844055Y-98865500D01*
X138995945Y-98865500D01*
X138995949Y-98865500D01*
X139143434Y-98829148D01*
X139277934Y-98758557D01*
X139391632Y-98657830D01*
X139477921Y-98532819D01*
X139531785Y-98390791D01*
X139550094Y-98240000D01*
X139549990Y-98239146D01*
X139531785Y-98089209D01*
X139497951Y-97999996D01*
X150019906Y-97999996D01*
X150019906Y-98000003D01*
X150038214Y-98150790D01*
X150092078Y-98292818D01*
X150159704Y-98390790D01*
X150178368Y-98417830D01*
X150292066Y-98518557D01*
X150292067Y-98518557D01*
X150292069Y-98518559D01*
X150426562Y-98589146D01*
X150426566Y-98589148D01*
X150574051Y-98625500D01*
X150574055Y-98625500D01*
X150725945Y-98625500D01*
X150725949Y-98625500D01*
X150873434Y-98589148D01*
X150928979Y-98559996D01*
X151869906Y-98559996D01*
X151869906Y-98560003D01*
X151888214Y-98710790D01*
X151942078Y-98852818D01*
X152021316Y-98967613D01*
X152028368Y-98977830D01*
X152142066Y-99078557D01*
X152142067Y-99078557D01*
X152142069Y-99078559D01*
X152276562Y-99149146D01*
X152276566Y-99149148D01*
X152424051Y-99185500D01*
X152424055Y-99185500D01*
X152575945Y-99185500D01*
X152575949Y-99185500D01*
X152723434Y-99149148D01*
X152857934Y-99078557D01*
X152971632Y-98977830D01*
X153057921Y-98852819D01*
X153104874Y-98729013D01*
X153111784Y-98710794D01*
X153111784Y-98710793D01*
X153111785Y-98710791D01*
X153122535Y-98622247D01*
X153150358Y-98572917D01*
X153204915Y-98557707D01*
X153245064Y-98575777D01*
X153282066Y-98608557D01*
X153282067Y-98608557D01*
X153282069Y-98608559D01*
X153314346Y-98625499D01*
X153416566Y-98679148D01*
X153564051Y-98715500D01*
X153564055Y-98715500D01*
X153715945Y-98715500D01*
X153715949Y-98715500D01*
X153863434Y-98679148D01*
X153997934Y-98608557D01*
X154111632Y-98507830D01*
X154197921Y-98382819D01*
X154251785Y-98240791D01*
X154263760Y-98142170D01*
X154270094Y-98090003D01*
X154270094Y-98089996D01*
X154251785Y-97939209D01*
X154197921Y-97797181D01*
X154111632Y-97672170D01*
X154107554Y-97668557D01*
X154086603Y-97649996D01*
X155999906Y-97649996D01*
X155999906Y-97650003D01*
X156018214Y-97800790D01*
X156072078Y-97942818D01*
X156111289Y-97999624D01*
X156158368Y-98067830D01*
X156272066Y-98168557D01*
X156272067Y-98168557D01*
X156272069Y-98168559D01*
X156406562Y-98239146D01*
X156406566Y-98239148D01*
X156554051Y-98275500D01*
X156554055Y-98275500D01*
X156705945Y-98275500D01*
X156705949Y-98275500D01*
X156853434Y-98239148D01*
X156987934Y-98168557D01*
X157101632Y-98067830D01*
X157187921Y-97942819D01*
X157241785Y-97800791D01*
X157249270Y-97739146D01*
X157260094Y-97650003D01*
X157260094Y-97649996D01*
X157241785Y-97499209D01*
X157187921Y-97357181D01*
X157101632Y-97232170D01*
X156987934Y-97131443D01*
X156987932Y-97131442D01*
X156987930Y-97131440D01*
X156853437Y-97060853D01*
X156853434Y-97060852D01*
X156705949Y-97024500D01*
X156554051Y-97024500D01*
X156406562Y-97060853D01*
X156272069Y-97131440D01*
X156158367Y-97232170D01*
X156072078Y-97357181D01*
X156018214Y-97499209D01*
X155999906Y-97649996D01*
X154086603Y-97649996D01*
X153997934Y-97571443D01*
X153997932Y-97571442D01*
X153997930Y-97571440D01*
X153863437Y-97500853D01*
X153863434Y-97500852D01*
X153715949Y-97464500D01*
X153564051Y-97464500D01*
X153416562Y-97500853D01*
X153282069Y-97571440D01*
X153168367Y-97672170D01*
X153082078Y-97797181D01*
X153028214Y-97939209D01*
X153017463Y-98027751D01*
X152989640Y-98077083D01*
X152935083Y-98092291D01*
X152894933Y-98074221D01*
X152857934Y-98041443D01*
X152857932Y-98041442D01*
X152857930Y-98041440D01*
X152723437Y-97970853D01*
X152723434Y-97970852D01*
X152575949Y-97934500D01*
X152424051Y-97934500D01*
X152276562Y-97970853D01*
X152142069Y-98041440D01*
X152028367Y-98142170D01*
X151942078Y-98267181D01*
X151888214Y-98409209D01*
X151869906Y-98559996D01*
X150928979Y-98559996D01*
X151007934Y-98518557D01*
X151121632Y-98417830D01*
X151207921Y-98292819D01*
X151261785Y-98150791D01*
X151275062Y-98041443D01*
X151280094Y-98000003D01*
X151280094Y-97999996D01*
X151261785Y-97849209D01*
X151207921Y-97707181D01*
X151121632Y-97582170D01*
X151029842Y-97500852D01*
X151007934Y-97481443D01*
X151007932Y-97481442D01*
X151007930Y-97481440D01*
X150873437Y-97410853D01*
X150873434Y-97410852D01*
X150725949Y-97374500D01*
X150574051Y-97374500D01*
X150426562Y-97410853D01*
X150292069Y-97481440D01*
X150178367Y-97582170D01*
X150092078Y-97707181D01*
X150038214Y-97849209D01*
X150019906Y-97999996D01*
X139497951Y-97999996D01*
X139477921Y-97947181D01*
X139391632Y-97822170D01*
X139338951Y-97775499D01*
X139277934Y-97721443D01*
X139277932Y-97721442D01*
X139277930Y-97721440D01*
X139143437Y-97650853D01*
X139143434Y-97650852D01*
X138995949Y-97614500D01*
X138844051Y-97614500D01*
X138696562Y-97650853D01*
X138562069Y-97721440D01*
X138448367Y-97822170D01*
X138362078Y-97947181D01*
X138308214Y-98089209D01*
X138289906Y-98239996D01*
X130200500Y-98239996D01*
X130200500Y-96099996D01*
X138444906Y-96099996D01*
X138444906Y-96100003D01*
X138463214Y-96250790D01*
X138517078Y-96392818D01*
X138562455Y-96458557D01*
X138603368Y-96517830D01*
X138717066Y-96618557D01*
X138717067Y-96618557D01*
X138717069Y-96618559D01*
X138837495Y-96681763D01*
X138851566Y-96689148D01*
X138999051Y-96725500D01*
X138999055Y-96725500D01*
X139150945Y-96725500D01*
X139150949Y-96725500D01*
X139298434Y-96689148D01*
X139432934Y-96618557D01*
X139546632Y-96517830D01*
X139632921Y-96392819D01*
X139686785Y-96250791D01*
X139696071Y-96174315D01*
X139705094Y-96100003D01*
X139705094Y-96099996D01*
X139686785Y-95949209D01*
X139632921Y-95807181D01*
X139546632Y-95682170D01*
X139496216Y-95637506D01*
X139432934Y-95581443D01*
X139432932Y-95581442D01*
X139432930Y-95581440D01*
X139298437Y-95510853D01*
X139298434Y-95510852D01*
X139150949Y-95474500D01*
X138999051Y-95474500D01*
X138851562Y-95510853D01*
X138717069Y-95581440D01*
X138603367Y-95682170D01*
X138517078Y-95807181D01*
X138463214Y-95949209D01*
X138444906Y-96099996D01*
X130200500Y-96099996D01*
X130200500Y-94749996D01*
X148199906Y-94749996D01*
X148199906Y-94750003D01*
X148218214Y-94900790D01*
X148272078Y-95042818D01*
X148353518Y-95160803D01*
X148358368Y-95167830D01*
X148472066Y-95268557D01*
X148472067Y-95268557D01*
X148472069Y-95268559D01*
X148507869Y-95287348D01*
X148544129Y-95330856D01*
X148539004Y-95387261D01*
X148507874Y-95418393D01*
X148502072Y-95421438D01*
X148502070Y-95421439D01*
X148388367Y-95522170D01*
X148302078Y-95647181D01*
X148248214Y-95789209D01*
X148229906Y-95939996D01*
X148229906Y-95940003D01*
X148248214Y-96090790D01*
X148302078Y-96232818D01*
X148388367Y-96357829D01*
X148460983Y-96422161D01*
X148485777Y-96473083D01*
X148472813Y-96519587D01*
X148442080Y-96564111D01*
X148442079Y-96564113D01*
X148388214Y-96706143D01*
X148369906Y-96856930D01*
X148369906Y-96856937D01*
X148388214Y-97007724D01*
X148442078Y-97149752D01*
X148517512Y-97259036D01*
X148528368Y-97274764D01*
X148642066Y-97375491D01*
X148642067Y-97375491D01*
X148642069Y-97375493D01*
X148770345Y-97442817D01*
X148776566Y-97446082D01*
X148924051Y-97482434D01*
X148924055Y-97482434D01*
X149075945Y-97482434D01*
X149075949Y-97482434D01*
X149223434Y-97446082D01*
X149357934Y-97375491D01*
X149471632Y-97274764D01*
X149557921Y-97149753D01*
X149611785Y-97007725D01*
X149623968Y-96907386D01*
X149630094Y-96856937D01*
X149630094Y-96856930D01*
X149611785Y-96706143D01*
X149590491Y-96649996D01*
X151029906Y-96649996D01*
X151029906Y-96650003D01*
X151048214Y-96800790D01*
X151102078Y-96942818D01*
X151167435Y-97037503D01*
X151188368Y-97067830D01*
X151302066Y-97168557D01*
X151331859Y-97184193D01*
X151368119Y-97227701D01*
X151370930Y-97240797D01*
X151378213Y-97300781D01*
X151378216Y-97300795D01*
X151432077Y-97442817D01*
X151459423Y-97482434D01*
X151518368Y-97567830D01*
X151632066Y-97668557D01*
X151632067Y-97668557D01*
X151632069Y-97668559D01*
X151732826Y-97721440D01*
X151766566Y-97739148D01*
X151914051Y-97775500D01*
X151914055Y-97775500D01*
X152065945Y-97775500D01*
X152065949Y-97775500D01*
X152213434Y-97739148D01*
X152347934Y-97668557D01*
X152461632Y-97567830D01*
X152547921Y-97442819D01*
X152601785Y-97300791D01*
X152606856Y-97259024D01*
X152620094Y-97150003D01*
X152620094Y-97149996D01*
X152601785Y-96999209D01*
X152547921Y-96857181D01*
X152461632Y-96732170D01*
X152454102Y-96725499D01*
X152347934Y-96631443D01*
X152318140Y-96615806D01*
X152281880Y-96572298D01*
X152281386Y-96569996D01*
X154299906Y-96569996D01*
X154299906Y-96570003D01*
X154318214Y-96720790D01*
X154372078Y-96862818D01*
X154402843Y-96907388D01*
X154458368Y-96987830D01*
X154572066Y-97088557D01*
X154572067Y-97088557D01*
X154572069Y-97088559D01*
X154706562Y-97159146D01*
X154706566Y-97159148D01*
X154854051Y-97195500D01*
X154854055Y-97195500D01*
X155005945Y-97195500D01*
X155005949Y-97195500D01*
X155153434Y-97159148D01*
X155287934Y-97088557D01*
X155401632Y-96987830D01*
X155487921Y-96862819D01*
X155541785Y-96720791D01*
X155547571Y-96673135D01*
X155560094Y-96570003D01*
X155560094Y-96569996D01*
X155541785Y-96419209D01*
X155487921Y-96277181D01*
X155401632Y-96152170D01*
X155378236Y-96131443D01*
X155287934Y-96051443D01*
X155287932Y-96051442D01*
X155287930Y-96051440D01*
X155153437Y-95980853D01*
X155153434Y-95980852D01*
X155005949Y-95944500D01*
X154854051Y-95944500D01*
X154706562Y-95980853D01*
X154572069Y-96051440D01*
X154458367Y-96152170D01*
X154372078Y-96277181D01*
X154318214Y-96419209D01*
X154299906Y-96569996D01*
X152281386Y-96569996D01*
X152279069Y-96559209D01*
X152271785Y-96499209D01*
X152271784Y-96499207D01*
X152271784Y-96499205D01*
X152217921Y-96357181D01*
X152131632Y-96232170D01*
X152111287Y-96214146D01*
X152017934Y-96131443D01*
X152017932Y-96131442D01*
X152017930Y-96131440D01*
X151883437Y-96060853D01*
X151883434Y-96060852D01*
X151735949Y-96024500D01*
X151584051Y-96024500D01*
X151436562Y-96060853D01*
X151302069Y-96131440D01*
X151188367Y-96232170D01*
X151102078Y-96357181D01*
X151048214Y-96499209D01*
X151029906Y-96649996D01*
X149590491Y-96649996D01*
X149557921Y-96564115D01*
X149471632Y-96439104D01*
X149460243Y-96429014D01*
X149399014Y-96374770D01*
X149374221Y-96323850D01*
X149387185Y-96277346D01*
X149417921Y-96232819D01*
X149471785Y-96090791D01*
X149485134Y-95980852D01*
X149490094Y-95940003D01*
X149490094Y-95939996D01*
X149471785Y-95789209D01*
X149417921Y-95647181D01*
X149402608Y-95624996D01*
X156869906Y-95624996D01*
X156869906Y-95625003D01*
X156888214Y-95775790D01*
X156942078Y-95917818D01*
X157026580Y-96040239D01*
X157028368Y-96042830D01*
X157142066Y-96143557D01*
X157142067Y-96143557D01*
X157142069Y-96143559D01*
X157276562Y-96214146D01*
X157276566Y-96214148D01*
X157424051Y-96250500D01*
X157424055Y-96250500D01*
X157575945Y-96250500D01*
X157575949Y-96250500D01*
X157723434Y-96214148D01*
X157857934Y-96143557D01*
X157971632Y-96042830D01*
X158057921Y-95917819D01*
X158111785Y-95775791D01*
X158116362Y-95738093D01*
X158130094Y-95625003D01*
X158130094Y-95624996D01*
X158111785Y-95474209D01*
X158078898Y-95387494D01*
X158569532Y-95387494D01*
X158569532Y-95387505D01*
X158589364Y-95614188D01*
X158589365Y-95614196D01*
X158648258Y-95833988D01*
X158648260Y-95833992D01*
X158648261Y-95833996D01*
X158744432Y-96040234D01*
X158744434Y-96040236D01*
X158744435Y-96040239D01*
X158816779Y-96143557D01*
X158874953Y-96226639D01*
X159035861Y-96387547D01*
X159095077Y-96429010D01*
X159221924Y-96517829D01*
X159222266Y-96518068D01*
X159428504Y-96614239D01*
X159428510Y-96614240D01*
X159428511Y-96614241D01*
X159648303Y-96673134D01*
X159648305Y-96673134D01*
X159648308Y-96673135D01*
X159733317Y-96680572D01*
X159874995Y-96692968D01*
X159875000Y-96692968D01*
X159875003Y-96692968D01*
X159891682Y-96691508D01*
X159896041Y-96691127D01*
X159950057Y-96708157D01*
X159976210Y-96758394D01*
X159973668Y-96785094D01*
X159971715Y-96791956D01*
X159964885Y-96815964D01*
X159964885Y-96815966D01*
X159964883Y-96815975D01*
X159944357Y-97037496D01*
X159944357Y-97037503D01*
X159964883Y-97259024D01*
X159964885Y-97259037D01*
X160023344Y-97464500D01*
X160025771Y-97473028D01*
X160072977Y-97567829D01*
X160124942Y-97672190D01*
X160124944Y-97672193D01*
X160238202Y-97822170D01*
X160259019Y-97849736D01*
X160423438Y-97999624D01*
X160612599Y-98116747D01*
X160820060Y-98197118D01*
X161038757Y-98238000D01*
X161261243Y-98238000D01*
X161479940Y-98197118D01*
X161687401Y-98116747D01*
X161876562Y-97999624D01*
X162040981Y-97849736D01*
X162175058Y-97672189D01*
X162274229Y-97473028D01*
X162335115Y-97259036D01*
X162345241Y-97149753D01*
X162355643Y-97037503D01*
X162355643Y-97037496D01*
X162335116Y-96815975D01*
X162335115Y-96815966D01*
X162335115Y-96815964D01*
X162274229Y-96601972D01*
X162175058Y-96402811D01*
X162175057Y-96402810D01*
X162175057Y-96402809D01*
X162175055Y-96402806D01*
X162060038Y-96250500D01*
X162040981Y-96225264D01*
X161876562Y-96075376D01*
X161853106Y-96060853D01*
X161823998Y-96042830D01*
X161687401Y-95958253D01*
X161626168Y-95934531D01*
X161479942Y-95877882D01*
X161261246Y-95837000D01*
X161261243Y-95837000D01*
X161197373Y-95837000D01*
X161145047Y-95815326D01*
X161123373Y-95763000D01*
X161125894Y-95743848D01*
X161142420Y-95682170D01*
X161154391Y-95637493D01*
X162619645Y-95637493D01*
X162619645Y-95637506D01*
X162639038Y-95908657D01*
X162696824Y-96174297D01*
X162696829Y-96174315D01*
X162791826Y-96429010D01*
X162791827Y-96429014D01*
X162922111Y-96667611D01*
X162922112Y-96667613D01*
X162978661Y-96743154D01*
X162992668Y-96798032D01*
X162978661Y-96831846D01*
X162922112Y-96907386D01*
X162922111Y-96907388D01*
X162791827Y-97145985D01*
X162791826Y-97145989D01*
X162696829Y-97400684D01*
X162696824Y-97400702D01*
X162639038Y-97666342D01*
X162619645Y-97937493D01*
X162619645Y-97937506D01*
X162639038Y-98208657D01*
X162696824Y-98474297D01*
X162696829Y-98474315D01*
X162791826Y-98729010D01*
X162791827Y-98729014D01*
X162922109Y-98967608D01*
X162929761Y-98977830D01*
X163085029Y-99185242D01*
X163277258Y-99377471D01*
X163316946Y-99407181D01*
X163494891Y-99540390D01*
X163733485Y-99670672D01*
X163733489Y-99670673D01*
X163988184Y-99765670D01*
X163988190Y-99765671D01*
X163988199Y-99765675D01*
X164253840Y-99823461D01*
X164314097Y-99827770D01*
X164524993Y-99842855D01*
X164525000Y-99842855D01*
X164525007Y-99842855D01*
X164714812Y-99829279D01*
X164796160Y-99823461D01*
X165061801Y-99765675D01*
X165061812Y-99765670D01*
X165061815Y-99765670D01*
X165316510Y-99670673D01*
X165316514Y-99670672D01*
X165555108Y-99540390D01*
X165555109Y-99540389D01*
X165555113Y-99540387D01*
X165772742Y-99377471D01*
X165964971Y-99185242D01*
X166127887Y-98967613D01*
X166183645Y-98865500D01*
X166258172Y-98729014D01*
X166258173Y-98729010D01*
X166353170Y-98474315D01*
X166353170Y-98474312D01*
X166353175Y-98474301D01*
X166410961Y-98208660D01*
X166420576Y-98074221D01*
X166430355Y-97937506D01*
X166430355Y-97937493D01*
X166413882Y-97707181D01*
X166410961Y-97666340D01*
X166353175Y-97400699D01*
X166353171Y-97400690D01*
X166353170Y-97400684D01*
X166258173Y-97145989D01*
X166258172Y-97145985D01*
X166127890Y-96907391D01*
X166071338Y-96831847D01*
X166057331Y-96776969D01*
X166071338Y-96743153D01*
X166097536Y-96708157D01*
X166127887Y-96667613D01*
X166137503Y-96650003D01*
X166258172Y-96429014D01*
X166258173Y-96429010D01*
X166353170Y-96174315D01*
X166353170Y-96174312D01*
X166353175Y-96174301D01*
X166410961Y-95908660D01*
X166430355Y-95637500D01*
X166430355Y-95637493D01*
X166412474Y-95387494D01*
X167019532Y-95387494D01*
X167019532Y-95387505D01*
X167039364Y-95614188D01*
X167039365Y-95614196D01*
X167098258Y-95833988D01*
X167098260Y-95833992D01*
X167098261Y-95833996D01*
X167194432Y-96040234D01*
X167194434Y-96040236D01*
X167194435Y-96040239D01*
X167266779Y-96143557D01*
X167324953Y-96226639D01*
X167485861Y-96387547D01*
X167545077Y-96429010D01*
X167671924Y-96517829D01*
X167672266Y-96518068D01*
X167878504Y-96614239D01*
X167878510Y-96614240D01*
X167878511Y-96614241D01*
X168098303Y-96673134D01*
X168098305Y-96673134D01*
X168098308Y-96673135D01*
X168183317Y-96680572D01*
X168324995Y-96692968D01*
X168325000Y-96692968D01*
X168325005Y-96692968D01*
X168453074Y-96681763D01*
X168551692Y-96673135D01*
X168572301Y-96667613D01*
X168755373Y-96618559D01*
X168771496Y-96614239D01*
X168977734Y-96518068D01*
X169164139Y-96387547D01*
X169325047Y-96226639D01*
X169455568Y-96040234D01*
X169551739Y-95833996D01*
X169610635Y-95614192D01*
X169619676Y-95510852D01*
X169630468Y-95387505D01*
X169630468Y-95387494D01*
X169610635Y-95160811D01*
X169610634Y-95160803D01*
X169551741Y-94941011D01*
X169551740Y-94941010D01*
X169551739Y-94941004D01*
X169455568Y-94734766D01*
X169325047Y-94548361D01*
X169171620Y-94394934D01*
X169149946Y-94342608D01*
X169171620Y-94290282D01*
X169174050Y-94287960D01*
X169215981Y-94249736D01*
X169350058Y-94072189D01*
X169449229Y-93873028D01*
X169510115Y-93659036D01*
X169530643Y-93437500D01*
X169510115Y-93215964D01*
X169449229Y-93001972D01*
X169350058Y-92802811D01*
X169350057Y-92802810D01*
X169350057Y-92802809D01*
X169350055Y-92802806D01*
X169215983Y-92625267D01*
X169215981Y-92625264D01*
X169051562Y-92475376D01*
X168862401Y-92358253D01*
X168745123Y-92312819D01*
X168654942Y-92277882D01*
X168436246Y-92237000D01*
X168436243Y-92237000D01*
X168213757Y-92237000D01*
X168213753Y-92237000D01*
X167995057Y-92277882D01*
X167787604Y-92358251D01*
X167787599Y-92358253D01*
X167787594Y-92358255D01*
X167787594Y-92358256D01*
X167598440Y-92475374D01*
X167434016Y-92625267D01*
X167299944Y-92802806D01*
X167299942Y-92802809D01*
X167200771Y-93001972D01*
X167200769Y-93001977D01*
X167139885Y-93215962D01*
X167139883Y-93215975D01*
X167119357Y-93437496D01*
X167119357Y-93437503D01*
X167139883Y-93659024D01*
X167139885Y-93659037D01*
X167200769Y-93873022D01*
X167200771Y-93873027D01*
X167299942Y-94072190D01*
X167299944Y-94072193D01*
X167434017Y-94249735D01*
X167434019Y-94249737D01*
X167475907Y-94287923D01*
X167499974Y-94339192D01*
X167480739Y-94392463D01*
X167478379Y-94394935D01*
X167324953Y-94548360D01*
X167194435Y-94734760D01*
X167194432Y-94734765D01*
X167194432Y-94734766D01*
X167142568Y-94845989D01*
X167098263Y-94941000D01*
X167098258Y-94941011D01*
X167039365Y-95160803D01*
X167039364Y-95160811D01*
X167019532Y-95387494D01*
X166412474Y-95387494D01*
X166410961Y-95366342D01*
X166409395Y-95359142D01*
X166353175Y-95100699D01*
X166353171Y-95100690D01*
X166353170Y-95100684D01*
X166258173Y-94845989D01*
X166258172Y-94845985D01*
X166127890Y-94607391D01*
X166083700Y-94548361D01*
X165964971Y-94389758D01*
X165772742Y-94197529D01*
X165555113Y-94034613D01*
X165555114Y-94034613D01*
X165555108Y-94034609D01*
X165316514Y-93904327D01*
X165316510Y-93904326D01*
X165061815Y-93809329D01*
X165061797Y-93809324D01*
X164796157Y-93751538D01*
X164525007Y-93732145D01*
X164524993Y-93732145D01*
X164253842Y-93751538D01*
X163988202Y-93809324D01*
X163988184Y-93809329D01*
X163733489Y-93904326D01*
X163733485Y-93904327D01*
X163494891Y-94034609D01*
X163277255Y-94197531D01*
X163085031Y-94389755D01*
X162922109Y-94607391D01*
X162791827Y-94845985D01*
X162791826Y-94845989D01*
X162696829Y-95100684D01*
X162696824Y-95100702D01*
X162639038Y-95366342D01*
X162619645Y-95637493D01*
X161154391Y-95637493D01*
X161160635Y-95614192D01*
X161169676Y-95510852D01*
X161180468Y-95387505D01*
X161180468Y-95387494D01*
X161160635Y-95160811D01*
X161160634Y-95160803D01*
X161101741Y-94941011D01*
X161101740Y-94941010D01*
X161101739Y-94941004D01*
X161005568Y-94734766D01*
X160875047Y-94548361D01*
X160721620Y-94394934D01*
X160699946Y-94342608D01*
X160721620Y-94290282D01*
X160724050Y-94287960D01*
X160765981Y-94249736D01*
X160900058Y-94072189D01*
X160999229Y-93873028D01*
X161060115Y-93659036D01*
X161080643Y-93437500D01*
X161060115Y-93215964D01*
X160999229Y-93001972D01*
X160900058Y-92802811D01*
X160900057Y-92802810D01*
X160900057Y-92802809D01*
X160900055Y-92802806D01*
X160765983Y-92625267D01*
X160765981Y-92625264D01*
X160601562Y-92475376D01*
X160412401Y-92358253D01*
X160295123Y-92312819D01*
X160204942Y-92277882D01*
X159986246Y-92237000D01*
X159986243Y-92237000D01*
X159763757Y-92237000D01*
X159763753Y-92237000D01*
X159545057Y-92277882D01*
X159337604Y-92358251D01*
X159337599Y-92358253D01*
X159337594Y-92358255D01*
X159337594Y-92358256D01*
X159148440Y-92475374D01*
X158984016Y-92625267D01*
X158849944Y-92802806D01*
X158849942Y-92802809D01*
X158750771Y-93001972D01*
X158750769Y-93001977D01*
X158689885Y-93215962D01*
X158689883Y-93215975D01*
X158669357Y-93437496D01*
X158669357Y-93437503D01*
X158689883Y-93659024D01*
X158689885Y-93659037D01*
X158750769Y-93873022D01*
X158750771Y-93873027D01*
X158849942Y-94072190D01*
X158849944Y-94072193D01*
X158984017Y-94249735D01*
X158984019Y-94249737D01*
X159025907Y-94287923D01*
X159049974Y-94339192D01*
X159030739Y-94392463D01*
X159028379Y-94394935D01*
X158874953Y-94548360D01*
X158744435Y-94734760D01*
X158744432Y-94734765D01*
X158744432Y-94734766D01*
X158692568Y-94845989D01*
X158648263Y-94941000D01*
X158648258Y-94941011D01*
X158589365Y-95160803D01*
X158589364Y-95160811D01*
X158569532Y-95387494D01*
X158078898Y-95387494D01*
X158057921Y-95332181D01*
X157971632Y-95207170D01*
X157919294Y-95160803D01*
X157857934Y-95106443D01*
X157857932Y-95106442D01*
X157857930Y-95106440D01*
X157723437Y-95035853D01*
X157723434Y-95035852D01*
X157575949Y-94999500D01*
X157424051Y-94999500D01*
X157276562Y-95035853D01*
X157142069Y-95106440D01*
X157028367Y-95207170D01*
X156942078Y-95332181D01*
X156888214Y-95474209D01*
X156869906Y-95624996D01*
X149402608Y-95624996D01*
X149331632Y-95522170D01*
X149318858Y-95510853D01*
X149217934Y-95421443D01*
X149182129Y-95402651D01*
X149145870Y-95359142D01*
X149150995Y-95302737D01*
X149182131Y-95271602D01*
X149187934Y-95268557D01*
X149301632Y-95167830D01*
X149387921Y-95042819D01*
X149441785Y-94900791D01*
X149460094Y-94750000D01*
X149458244Y-94734766D01*
X149441785Y-94599209D01*
X149387921Y-94457181D01*
X149301632Y-94332170D01*
X149251687Y-94287923D01*
X149187934Y-94231443D01*
X149187932Y-94231442D01*
X149187930Y-94231440D01*
X149053437Y-94160853D01*
X149053434Y-94160852D01*
X148905949Y-94124500D01*
X148754051Y-94124500D01*
X148606562Y-94160853D01*
X148472069Y-94231440D01*
X148358367Y-94332170D01*
X148272078Y-94457181D01*
X148218214Y-94599209D01*
X148199906Y-94749996D01*
X130200500Y-94749996D01*
X130200500Y-91824996D01*
X142182406Y-91824996D01*
X142182406Y-91825003D01*
X142200714Y-91975790D01*
X142254578Y-92117818D01*
X142291140Y-92170786D01*
X142340868Y-92242830D01*
X142454566Y-92343557D01*
X142454567Y-92343557D01*
X142454569Y-92343559D01*
X142548600Y-92392910D01*
X142589066Y-92414148D01*
X142736551Y-92450500D01*
X142736555Y-92450500D01*
X142888445Y-92450500D01*
X142888449Y-92450500D01*
X143035934Y-92414148D01*
X143170434Y-92343557D01*
X143284132Y-92242830D01*
X143370421Y-92117819D01*
X143407520Y-92019996D01*
X147959906Y-92019996D01*
X147959906Y-92020003D01*
X147978214Y-92170790D01*
X148032078Y-92312818D01*
X148049138Y-92337534D01*
X148061024Y-92392910D01*
X148057427Y-92405810D01*
X148018214Y-92509207D01*
X147999906Y-92659996D01*
X147999906Y-92660003D01*
X148018214Y-92810790D01*
X148072078Y-92952818D01*
X148072079Y-92952819D01*
X148158368Y-93077830D01*
X148272066Y-93178557D01*
X148272067Y-93178557D01*
X148272069Y-93178559D01*
X148343335Y-93215962D01*
X148406566Y-93249148D01*
X148554051Y-93285500D01*
X148554055Y-93285500D01*
X148705945Y-93285500D01*
X148705949Y-93285500D01*
X148853434Y-93249148D01*
X148987934Y-93178557D01*
X149101632Y-93077830D01*
X149187921Y-92952819D01*
X149241785Y-92810791D01*
X149260094Y-92660000D01*
X149255876Y-92625264D01*
X149241785Y-92509209D01*
X149187921Y-92367181D01*
X149170861Y-92342465D01*
X149158974Y-92287089D01*
X149162568Y-92274195D01*
X149201785Y-92170791D01*
X149220094Y-92020000D01*
X149201785Y-91869209D01*
X149147921Y-91727181D01*
X149061632Y-91602170D01*
X148947934Y-91501443D01*
X148947932Y-91501442D01*
X148947930Y-91501440D01*
X148813437Y-91430853D01*
X148813434Y-91430852D01*
X148665949Y-91394500D01*
X148514051Y-91394500D01*
X148366562Y-91430853D01*
X148232069Y-91501440D01*
X148118367Y-91602170D01*
X148032078Y-91727181D01*
X147978214Y-91869209D01*
X147959906Y-92019996D01*
X143407520Y-92019996D01*
X143424285Y-91975791D01*
X143442594Y-91825000D01*
X143439430Y-91798944D01*
X143454637Y-91744388D01*
X143478497Y-91724502D01*
X143527934Y-91698557D01*
X143641632Y-91597830D01*
X143727921Y-91472819D01*
X143781785Y-91330791D01*
X143800094Y-91180000D01*
X143781785Y-91029209D01*
X143727921Y-90887181D01*
X143641632Y-90762170D01*
X143527934Y-90661443D01*
X143527932Y-90661442D01*
X143527930Y-90661440D01*
X143393437Y-90590853D01*
X143393434Y-90590852D01*
X143245949Y-90554500D01*
X143094051Y-90554500D01*
X142946562Y-90590853D01*
X142812069Y-90661440D01*
X142698367Y-90762170D01*
X142612078Y-90887181D01*
X142558214Y-91029209D01*
X142539906Y-91179996D01*
X142539906Y-91179999D01*
X142543069Y-91206057D01*
X142527858Y-91260613D01*
X142504000Y-91280497D01*
X142454564Y-91306444D01*
X142454561Y-91306446D01*
X142340867Y-91407170D01*
X142254578Y-91532181D01*
X142200714Y-91674209D01*
X142182406Y-91824996D01*
X130200500Y-91824996D01*
X130200500Y-91039996D01*
X140649906Y-91039996D01*
X140649906Y-91040003D01*
X140668214Y-91190790D01*
X140722078Y-91332818D01*
X140722079Y-91332819D01*
X140808368Y-91457830D01*
X140922066Y-91558557D01*
X140922067Y-91558557D01*
X140922069Y-91558559D01*
X141056562Y-91629146D01*
X141056566Y-91629148D01*
X141204051Y-91665500D01*
X141204055Y-91665500D01*
X141355945Y-91665500D01*
X141355949Y-91665500D01*
X141503434Y-91629148D01*
X141637934Y-91558557D01*
X141751632Y-91457830D01*
X141837921Y-91332819D01*
X141891785Y-91190791D01*
X141910094Y-91040000D01*
X141891785Y-90889209D01*
X141837921Y-90747181D01*
X141751632Y-90622170D01*
X141637934Y-90521443D01*
X141637932Y-90521442D01*
X141637930Y-90521440D01*
X141503437Y-90450853D01*
X141503434Y-90450852D01*
X141355949Y-90414500D01*
X141204051Y-90414500D01*
X141056562Y-90450853D01*
X140922069Y-90521440D01*
X140808367Y-90622170D01*
X140722078Y-90747181D01*
X140668214Y-90889209D01*
X140649906Y-91039996D01*
X130200500Y-91039996D01*
X130200500Y-89219996D01*
X143279906Y-89219996D01*
X143279906Y-89220003D01*
X143298214Y-89370790D01*
X143352078Y-89512818D01*
X143384100Y-89559209D01*
X143438368Y-89637830D01*
X143552066Y-89738557D01*
X143635164Y-89782170D01*
X143657921Y-89794114D01*
X143694180Y-89837623D01*
X143696991Y-89850717D01*
X143698213Y-89860782D01*
X143698216Y-89860793D01*
X143752078Y-90002818D01*
X143828007Y-90112819D01*
X143838368Y-90127830D01*
X143952066Y-90228557D01*
X143952067Y-90228557D01*
X143952069Y-90228559D01*
X143969732Y-90237829D01*
X144086566Y-90299148D01*
X144234051Y-90335500D01*
X144234055Y-90335500D01*
X144385945Y-90335500D01*
X144385949Y-90335500D01*
X144533434Y-90299148D01*
X144667934Y-90228557D01*
X144781632Y-90127830D01*
X144867921Y-90002819D01*
X144921785Y-89860791D01*
X144926739Y-89819996D01*
X153649906Y-89819996D01*
X153649906Y-89820003D01*
X153668214Y-89970790D01*
X153722078Y-90112818D01*
X153801969Y-90228559D01*
X153808368Y-90237830D01*
X153922066Y-90338557D01*
X153922067Y-90338557D01*
X153922069Y-90338559D01*
X154056562Y-90409146D01*
X154056566Y-90409148D01*
X154204051Y-90445500D01*
X154253055Y-90445500D01*
X154305381Y-90467174D01*
X154319548Y-90489087D01*
X154319997Y-90488852D01*
X154322077Y-90492815D01*
X154322079Y-90492819D01*
X154408368Y-90617830D01*
X154522066Y-90718557D01*
X154522067Y-90718557D01*
X154522069Y-90718559D01*
X154656562Y-90789146D01*
X154656566Y-90789148D01*
X154804051Y-90825500D01*
X154804055Y-90825500D01*
X154955945Y-90825500D01*
X154955949Y-90825500D01*
X155103434Y-90789148D01*
X155237934Y-90718557D01*
X155351632Y-90617830D01*
X155437921Y-90492819D01*
X155491785Y-90350791D01*
X155496362Y-90313093D01*
X155510094Y-90200003D01*
X155510094Y-90199996D01*
X155491785Y-90049209D01*
X155437921Y-89907181D01*
X155351632Y-89782170D01*
X155302403Y-89738557D01*
X155237934Y-89681443D01*
X155237932Y-89681442D01*
X155237930Y-89681440D01*
X155103437Y-89610853D01*
X155103434Y-89610852D01*
X154955949Y-89574500D01*
X154955948Y-89574500D01*
X154906945Y-89574500D01*
X154854619Y-89552826D01*
X154840451Y-89530912D01*
X154840003Y-89531148D01*
X154837922Y-89527184D01*
X154837921Y-89527181D01*
X154751632Y-89402170D01*
X154637934Y-89301443D01*
X154637932Y-89301442D01*
X154637930Y-89301440D01*
X154503437Y-89230853D01*
X154503434Y-89230852D01*
X154355949Y-89194500D01*
X154204051Y-89194500D01*
X154056562Y-89230853D01*
X153922069Y-89301440D01*
X153808367Y-89402170D01*
X153722078Y-89527181D01*
X153668214Y-89669209D01*
X153649906Y-89819996D01*
X144926739Y-89819996D01*
X144927890Y-89810514D01*
X144940094Y-89710003D01*
X144940094Y-89709996D01*
X144921785Y-89559209D01*
X144867921Y-89417181D01*
X144835900Y-89370791D01*
X144781632Y-89292170D01*
X144781630Y-89292168D01*
X144781628Y-89292165D01*
X144777692Y-89288678D01*
X144752897Y-89237757D01*
X144771372Y-89184218D01*
X144777692Y-89177898D01*
X144811630Y-89147832D01*
X144811630Y-89147831D01*
X144811632Y-89147830D01*
X144897921Y-89022819D01*
X144951785Y-88880791D01*
X144961331Y-88802169D01*
X144970094Y-88730003D01*
X144970094Y-88729996D01*
X144951785Y-88579209D01*
X144897921Y-88437181D01*
X144879705Y-88410791D01*
X144811632Y-88312170D01*
X144811630Y-88312168D01*
X144811628Y-88312165D01*
X144807692Y-88308678D01*
X144782897Y-88257757D01*
X144801372Y-88204218D01*
X144807692Y-88197898D01*
X144841630Y-88167832D01*
X144841630Y-88167831D01*
X144841632Y-88167830D01*
X144927921Y-88042819D01*
X144981785Y-87900791D01*
X145000094Y-87750000D01*
X144981785Y-87599209D01*
X144927921Y-87457181D01*
X144841632Y-87332170D01*
X144727934Y-87231443D01*
X144727932Y-87231442D01*
X144727930Y-87231440D01*
X144593437Y-87160853D01*
X144593434Y-87160852D01*
X144445949Y-87124500D01*
X144294051Y-87124500D01*
X144146562Y-87160853D01*
X144012069Y-87231440D01*
X143898367Y-87332170D01*
X143812078Y-87457182D01*
X143812077Y-87457182D01*
X143758216Y-87599204D01*
X143758213Y-87599216D01*
X143756980Y-87609373D01*
X143729154Y-87658703D01*
X143709762Y-87669640D01*
X143706564Y-87670852D01*
X143572069Y-87741440D01*
X143458367Y-87842170D01*
X143372078Y-87967181D01*
X143318214Y-88109209D01*
X143299906Y-88259996D01*
X143299906Y-88260003D01*
X143318214Y-88410790D01*
X143372078Y-88552818D01*
X143458369Y-88677831D01*
X143461335Y-88681179D01*
X143459464Y-88682836D01*
X143480814Y-88726648D01*
X143462356Y-88780193D01*
X143456023Y-88786528D01*
X143438368Y-88802169D01*
X143352078Y-88927181D01*
X143298214Y-89069209D01*
X143279906Y-89219996D01*
X130200500Y-89219996D01*
X130200500Y-87140000D01*
X133604706Y-87140000D01*
X133623854Y-87383303D01*
X133680826Y-87620607D01*
X133774224Y-87846091D01*
X133774228Y-87846098D01*
X133901739Y-88054176D01*
X133901741Y-88054179D01*
X133948741Y-88109209D01*
X134060238Y-88239756D01*
X134060243Y-88239761D01*
X134083940Y-88260000D01*
X134245821Y-88398259D01*
X134453911Y-88525777D01*
X134679388Y-88619172D01*
X134916698Y-88676146D01*
X135160000Y-88695294D01*
X135403302Y-88676146D01*
X135640612Y-88619172D01*
X135866089Y-88525777D01*
X136074179Y-88398259D01*
X136259759Y-88239759D01*
X136373731Y-88106314D01*
X136424194Y-88080602D01*
X136478059Y-88098104D01*
X136486264Y-88106309D01*
X136538808Y-88167830D01*
X136600238Y-88239756D01*
X136600243Y-88239761D01*
X136623940Y-88260000D01*
X136785821Y-88398259D01*
X136993911Y-88525777D01*
X137219388Y-88619172D01*
X137456698Y-88676146D01*
X137700000Y-88695294D01*
X137943302Y-88676146D01*
X138180612Y-88619172D01*
X138406089Y-88525777D01*
X138614179Y-88398259D01*
X138799759Y-88239759D01*
X138913731Y-88106314D01*
X138964194Y-88080602D01*
X139018059Y-88098104D01*
X139026264Y-88106309D01*
X139078808Y-88167830D01*
X139140238Y-88239756D01*
X139140243Y-88239761D01*
X139163940Y-88260000D01*
X139325821Y-88398259D01*
X139533911Y-88525777D01*
X139759388Y-88619172D01*
X139996698Y-88676146D01*
X140240000Y-88695294D01*
X140483302Y-88676146D01*
X140720612Y-88619172D01*
X140946089Y-88525777D01*
X141154179Y-88398259D01*
X141339759Y-88239759D01*
X141498259Y-88054179D01*
X141625777Y-87846089D01*
X141719172Y-87620612D01*
X141776146Y-87383302D01*
X141795294Y-87140000D01*
X141776146Y-86896698D01*
X141719172Y-86659388D01*
X141625777Y-86433911D01*
X141543714Y-86299996D01*
X149569906Y-86299996D01*
X149569906Y-86300003D01*
X149588214Y-86450790D01*
X149642078Y-86592818D01*
X149642079Y-86592819D01*
X149728368Y-86717830D01*
X149842066Y-86818557D01*
X149842067Y-86818557D01*
X149842069Y-86818559D01*
X149976562Y-86889146D01*
X149976566Y-86889148D01*
X150124051Y-86925500D01*
X150124055Y-86925500D01*
X150275945Y-86925500D01*
X150275949Y-86925500D01*
X150423434Y-86889148D01*
X150557934Y-86818557D01*
X150671632Y-86717830D01*
X150757921Y-86592819D01*
X150811785Y-86450791D01*
X150830094Y-86300000D01*
X150830094Y-86299996D01*
X151369906Y-86299996D01*
X151369906Y-86300003D01*
X151388214Y-86450790D01*
X151442078Y-86592818D01*
X151442079Y-86592819D01*
X151528368Y-86717830D01*
X151642066Y-86818557D01*
X151642067Y-86818557D01*
X151642069Y-86818559D01*
X151776562Y-86889146D01*
X151776566Y-86889148D01*
X151924051Y-86925500D01*
X151924055Y-86925500D01*
X152075945Y-86925500D01*
X152075949Y-86925500D01*
X152223434Y-86889148D01*
X152357934Y-86818557D01*
X152471632Y-86717830D01*
X152557921Y-86592819D01*
X152611785Y-86450791D01*
X152630094Y-86300000D01*
X152623413Y-86244980D01*
X152611785Y-86149209D01*
X152557921Y-86007181D01*
X152471632Y-85882170D01*
X152471145Y-85881739D01*
X152357934Y-85781443D01*
X152357932Y-85781442D01*
X152357930Y-85781440D01*
X152223437Y-85710853D01*
X152223434Y-85710852D01*
X152075949Y-85674500D01*
X151924051Y-85674500D01*
X151776562Y-85710853D01*
X151642069Y-85781440D01*
X151528367Y-85882170D01*
X151442078Y-86007181D01*
X151388214Y-86149209D01*
X151369906Y-86299996D01*
X150830094Y-86299996D01*
X150823413Y-86244980D01*
X150811785Y-86149209D01*
X150757921Y-86007181D01*
X150671632Y-85882170D01*
X150671145Y-85881739D01*
X150557934Y-85781443D01*
X150557932Y-85781442D01*
X150557930Y-85781440D01*
X150423437Y-85710853D01*
X150423434Y-85710852D01*
X150275949Y-85674500D01*
X150124051Y-85674500D01*
X149976562Y-85710853D01*
X149842069Y-85781440D01*
X149728367Y-85882170D01*
X149642078Y-86007181D01*
X149588214Y-86149209D01*
X149569906Y-86299996D01*
X141543714Y-86299996D01*
X141498259Y-86225821D01*
X141339759Y-86040241D01*
X141339756Y-86040238D01*
X141268861Y-85979688D01*
X141154179Y-85881741D01*
X141154176Y-85881739D01*
X140946098Y-85754228D01*
X140946091Y-85754224D01*
X140876742Y-85725499D01*
X140720612Y-85660828D01*
X140720611Y-85660827D01*
X140720607Y-85660826D01*
X140483303Y-85603854D01*
X140240000Y-85584706D01*
X139996696Y-85603854D01*
X139759392Y-85660826D01*
X139533908Y-85754224D01*
X139533901Y-85754228D01*
X139325823Y-85881739D01*
X139325822Y-85881740D01*
X139140243Y-86040238D01*
X139140238Y-86040243D01*
X139026270Y-86173684D01*
X138975806Y-86199397D01*
X138921941Y-86181895D01*
X138913730Y-86173684D01*
X138799761Y-86040243D01*
X138799756Y-86040238D01*
X138728861Y-85979688D01*
X138614179Y-85881741D01*
X138614176Y-85881739D01*
X138406098Y-85754228D01*
X138406091Y-85754224D01*
X138336742Y-85725499D01*
X138180612Y-85660828D01*
X138180611Y-85660827D01*
X138180607Y-85660826D01*
X137943303Y-85603854D01*
X137700000Y-85584706D01*
X137456696Y-85603854D01*
X137219392Y-85660826D01*
X136993908Y-85754224D01*
X136993901Y-85754228D01*
X136785823Y-85881739D01*
X136785822Y-85881740D01*
X136600243Y-86040238D01*
X136600238Y-86040243D01*
X136486270Y-86173684D01*
X136435806Y-86199397D01*
X136381941Y-86181895D01*
X136373730Y-86173684D01*
X136259761Y-86040243D01*
X136259756Y-86040238D01*
X136188861Y-85979688D01*
X136074179Y-85881741D01*
X136074176Y-85881739D01*
X135866098Y-85754228D01*
X135866091Y-85754224D01*
X135796742Y-85725499D01*
X135640612Y-85660828D01*
X135640611Y-85660827D01*
X135640607Y-85660826D01*
X135403303Y-85603854D01*
X135160000Y-85584706D01*
X134916696Y-85603854D01*
X134679392Y-85660826D01*
X134453908Y-85754224D01*
X134453901Y-85754228D01*
X134245823Y-85881739D01*
X134245822Y-85881740D01*
X134060243Y-86040238D01*
X134060238Y-86040243D01*
X133901740Y-86225822D01*
X133901739Y-86225823D01*
X133774228Y-86433901D01*
X133774224Y-86433908D01*
X133680826Y-86659392D01*
X133623854Y-86896696D01*
X133604706Y-87140000D01*
X130200500Y-87140000D01*
X130200500Y-85099996D01*
X148669906Y-85099996D01*
X148669906Y-85100003D01*
X148688214Y-85250790D01*
X148742078Y-85392818D01*
X148742079Y-85392819D01*
X148828368Y-85517830D01*
X148942066Y-85618557D01*
X148942067Y-85618557D01*
X148942069Y-85618559D01*
X149076562Y-85689146D01*
X149076566Y-85689148D01*
X149224051Y-85725500D01*
X149224055Y-85725500D01*
X149375945Y-85725500D01*
X149375949Y-85725500D01*
X149523434Y-85689148D01*
X149657934Y-85618557D01*
X149771632Y-85517830D01*
X149857921Y-85392819D01*
X149911785Y-85250791D01*
X149930094Y-85100000D01*
X149930094Y-85099996D01*
X150469906Y-85099996D01*
X150469906Y-85100003D01*
X150488214Y-85250790D01*
X150542078Y-85392818D01*
X150542079Y-85392819D01*
X150628368Y-85517830D01*
X150742066Y-85618557D01*
X150742067Y-85618557D01*
X150742069Y-85618559D01*
X150876562Y-85689146D01*
X150876566Y-85689148D01*
X151024051Y-85725500D01*
X151024055Y-85725500D01*
X151175945Y-85725500D01*
X151175949Y-85725500D01*
X151323434Y-85689148D01*
X151457934Y-85618557D01*
X151571632Y-85517830D01*
X151657921Y-85392819D01*
X151711785Y-85250791D01*
X151730094Y-85100000D01*
X151711785Y-84949209D01*
X151657921Y-84807181D01*
X151571632Y-84682170D01*
X151457934Y-84581443D01*
X151457932Y-84581442D01*
X151457930Y-84581440D01*
X151323437Y-84510853D01*
X151323434Y-84510852D01*
X151175949Y-84474500D01*
X151024051Y-84474500D01*
X150876562Y-84510853D01*
X150742069Y-84581440D01*
X150628367Y-84682170D01*
X150542078Y-84807181D01*
X150488214Y-84949209D01*
X150469906Y-85099996D01*
X149930094Y-85099996D01*
X149911785Y-84949209D01*
X149857921Y-84807181D01*
X149771632Y-84682170D01*
X149657934Y-84581443D01*
X149657932Y-84581442D01*
X149657930Y-84581440D01*
X149523437Y-84510853D01*
X149523434Y-84510852D01*
X149375949Y-84474500D01*
X149224051Y-84474500D01*
X149076562Y-84510853D01*
X148942069Y-84581440D01*
X148828367Y-84682170D01*
X148742078Y-84807181D01*
X148688214Y-84949209D01*
X148669906Y-85099996D01*
X130200500Y-85099996D01*
X130200500Y-83999996D01*
X147769906Y-83999996D01*
X147769906Y-84000003D01*
X147788214Y-84150790D01*
X147842078Y-84292818D01*
X147842079Y-84292819D01*
X147928368Y-84417830D01*
X148042066Y-84518557D01*
X148042067Y-84518557D01*
X148042069Y-84518559D01*
X148161885Y-84581443D01*
X148176566Y-84589148D01*
X148324051Y-84625500D01*
X148324055Y-84625500D01*
X148475945Y-84625500D01*
X148475949Y-84625500D01*
X148623434Y-84589148D01*
X148757934Y-84518557D01*
X148871632Y-84417830D01*
X148957921Y-84292819D01*
X149011785Y-84150791D01*
X149030094Y-84000000D01*
X149030094Y-83999996D01*
X149569906Y-83999996D01*
X149569906Y-84000003D01*
X149588214Y-84150790D01*
X149642078Y-84292818D01*
X149642079Y-84292819D01*
X149728368Y-84417830D01*
X149842066Y-84518557D01*
X149842067Y-84518557D01*
X149842069Y-84518559D01*
X149961885Y-84581443D01*
X149976566Y-84589148D01*
X150124051Y-84625500D01*
X150124055Y-84625500D01*
X150275945Y-84625500D01*
X150275949Y-84625500D01*
X150423434Y-84589148D01*
X150557934Y-84518557D01*
X150671632Y-84417830D01*
X150757921Y-84292819D01*
X150811785Y-84150791D01*
X150830094Y-84000000D01*
X150830094Y-83999996D01*
X151369906Y-83999996D01*
X151369906Y-84000003D01*
X151388214Y-84150790D01*
X151442078Y-84292818D01*
X151442079Y-84292819D01*
X151528368Y-84417830D01*
X151642066Y-84518557D01*
X151642067Y-84518557D01*
X151642069Y-84518559D01*
X151761885Y-84581443D01*
X151776566Y-84589148D01*
X151924051Y-84625500D01*
X151924055Y-84625500D01*
X152075945Y-84625500D01*
X152075949Y-84625500D01*
X152223434Y-84589148D01*
X152357934Y-84518557D01*
X152471632Y-84417830D01*
X152557921Y-84292819D01*
X152611785Y-84150791D01*
X152630094Y-84000000D01*
X152611785Y-83849209D01*
X152557921Y-83707181D01*
X152471632Y-83582170D01*
X152357934Y-83481443D01*
X152357932Y-83481442D01*
X152357930Y-83481440D01*
X152223437Y-83410853D01*
X152223434Y-83410852D01*
X152075949Y-83374500D01*
X151924051Y-83374500D01*
X151776562Y-83410853D01*
X151642069Y-83481440D01*
X151528367Y-83582170D01*
X151442078Y-83707181D01*
X151388214Y-83849209D01*
X151369906Y-83999996D01*
X150830094Y-83999996D01*
X150811785Y-83849209D01*
X150757921Y-83707181D01*
X150671632Y-83582170D01*
X150557934Y-83481443D01*
X150557932Y-83481442D01*
X150557930Y-83481440D01*
X150423437Y-83410853D01*
X150423434Y-83410852D01*
X150275949Y-83374500D01*
X150124051Y-83374500D01*
X149976562Y-83410853D01*
X149842069Y-83481440D01*
X149728367Y-83582170D01*
X149642078Y-83707181D01*
X149588214Y-83849209D01*
X149569906Y-83999996D01*
X149030094Y-83999996D01*
X149011785Y-83849209D01*
X148957921Y-83707181D01*
X148871632Y-83582170D01*
X148757934Y-83481443D01*
X148757932Y-83481442D01*
X148757930Y-83481440D01*
X148623437Y-83410853D01*
X148623434Y-83410852D01*
X148475949Y-83374500D01*
X148324051Y-83374500D01*
X148176562Y-83410853D01*
X148042069Y-83481440D01*
X147928367Y-83582170D01*
X147842078Y-83707181D01*
X147788214Y-83849209D01*
X147769906Y-83999996D01*
X130200500Y-83999996D01*
X130200500Y-82060000D01*
X133604706Y-82060000D01*
X133623854Y-82303303D01*
X133680826Y-82540607D01*
X133774224Y-82766091D01*
X133774228Y-82766098D01*
X133890000Y-82955019D01*
X133901741Y-82974179D01*
X134060241Y-83159759D01*
X134245821Y-83318259D01*
X134453911Y-83445777D01*
X134679388Y-83539172D01*
X134916698Y-83596146D01*
X135160000Y-83615294D01*
X135403302Y-83596146D01*
X135640612Y-83539172D01*
X135866089Y-83445777D01*
X136074179Y-83318259D01*
X136259759Y-83159759D01*
X136373731Y-83026314D01*
X136424194Y-83000602D01*
X136478059Y-83018104D01*
X136486264Y-83026309D01*
X136600241Y-83159759D01*
X136785821Y-83318259D01*
X136993911Y-83445777D01*
X137219388Y-83539172D01*
X137456698Y-83596146D01*
X137700000Y-83615294D01*
X137943302Y-83596146D01*
X138180612Y-83539172D01*
X138406089Y-83445777D01*
X138614179Y-83318259D01*
X138799759Y-83159759D01*
X138913731Y-83026314D01*
X138964194Y-83000602D01*
X139018059Y-83018104D01*
X139026264Y-83026309D01*
X139140241Y-83159759D01*
X139325821Y-83318259D01*
X139533911Y-83445777D01*
X139759388Y-83539172D01*
X139996698Y-83596146D01*
X140240000Y-83615294D01*
X140483302Y-83596146D01*
X140720612Y-83539172D01*
X140946089Y-83445777D01*
X141154179Y-83318259D01*
X141339759Y-83159759D01*
X141498259Y-82974179D01*
X141543719Y-82899996D01*
X148669906Y-82899996D01*
X148669906Y-82900003D01*
X148688214Y-83050790D01*
X148742078Y-83192818D01*
X148742079Y-83192819D01*
X148828368Y-83317830D01*
X148942066Y-83418557D01*
X148942067Y-83418557D01*
X148942069Y-83418559D01*
X149061885Y-83481443D01*
X149076566Y-83489148D01*
X149224051Y-83525500D01*
X149224055Y-83525500D01*
X149375945Y-83525500D01*
X149375949Y-83525500D01*
X149523434Y-83489148D01*
X149657934Y-83418557D01*
X149771632Y-83317830D01*
X149857921Y-83192819D01*
X149911785Y-83050791D01*
X149921087Y-82974179D01*
X149930094Y-82900003D01*
X149930094Y-82899996D01*
X150469906Y-82899996D01*
X150469906Y-82900003D01*
X150488214Y-83050790D01*
X150542078Y-83192818D01*
X150542079Y-83192819D01*
X150628368Y-83317830D01*
X150742066Y-83418557D01*
X150742067Y-83418557D01*
X150742069Y-83418559D01*
X150861885Y-83481443D01*
X150876566Y-83489148D01*
X151024051Y-83525500D01*
X151024055Y-83525500D01*
X151175945Y-83525500D01*
X151175949Y-83525500D01*
X151323434Y-83489148D01*
X151457934Y-83418557D01*
X151571632Y-83317830D01*
X151657921Y-83192819D01*
X151711785Y-83050791D01*
X151721087Y-82974179D01*
X151730094Y-82900003D01*
X151730094Y-82899996D01*
X151711785Y-82749209D01*
X151657921Y-82607181D01*
X151571632Y-82482170D01*
X151457934Y-82381443D01*
X151457932Y-82381442D01*
X151457930Y-82381440D01*
X151323437Y-82310853D01*
X151323434Y-82310852D01*
X151175949Y-82274500D01*
X151024051Y-82274500D01*
X150876562Y-82310853D01*
X150742069Y-82381440D01*
X150628367Y-82482170D01*
X150542078Y-82607181D01*
X150488214Y-82749209D01*
X150469906Y-82899996D01*
X149930094Y-82899996D01*
X149911785Y-82749209D01*
X149857921Y-82607181D01*
X149771632Y-82482170D01*
X149657934Y-82381443D01*
X149657932Y-82381442D01*
X149657930Y-82381440D01*
X149523437Y-82310853D01*
X149523434Y-82310852D01*
X149375949Y-82274500D01*
X149224051Y-82274500D01*
X149076562Y-82310853D01*
X148942069Y-82381440D01*
X148828367Y-82482170D01*
X148742078Y-82607181D01*
X148688214Y-82749209D01*
X148669906Y-82899996D01*
X141543719Y-82899996D01*
X141625777Y-82766089D01*
X141719172Y-82540612D01*
X141776146Y-82303302D01*
X141795294Y-82060000D01*
X141776146Y-81816698D01*
X141748128Y-81699996D01*
X149569906Y-81699996D01*
X149569906Y-81700003D01*
X149588214Y-81850790D01*
X149642078Y-81992818D01*
X149688451Y-82060000D01*
X149728368Y-82117830D01*
X149842066Y-82218557D01*
X149842067Y-82218557D01*
X149842069Y-82218559D01*
X149976562Y-82289146D01*
X149976566Y-82289148D01*
X150124051Y-82325500D01*
X150124055Y-82325500D01*
X150275945Y-82325500D01*
X150275949Y-82325500D01*
X150423434Y-82289148D01*
X150557934Y-82218557D01*
X150671632Y-82117830D01*
X150757921Y-81992819D01*
X150811785Y-81850791D01*
X150819210Y-81789640D01*
X150830094Y-81700003D01*
X150830094Y-81699996D01*
X151369906Y-81699996D01*
X151369906Y-81700003D01*
X151388214Y-81850790D01*
X151442078Y-81992818D01*
X151488451Y-82060000D01*
X151528368Y-82117830D01*
X151642066Y-82218557D01*
X151642067Y-82218557D01*
X151642069Y-82218559D01*
X151776562Y-82289146D01*
X151776566Y-82289148D01*
X151924051Y-82325500D01*
X151924055Y-82325500D01*
X152075945Y-82325500D01*
X152075949Y-82325500D01*
X152223434Y-82289148D01*
X152357934Y-82218557D01*
X152471632Y-82117830D01*
X152557921Y-81992819D01*
X152611785Y-81850791D01*
X152619210Y-81789640D01*
X152630094Y-81700003D01*
X152630094Y-81699996D01*
X152611785Y-81549209D01*
X152557921Y-81407181D01*
X152471632Y-81282170D01*
X152367253Y-81189699D01*
X152357934Y-81181443D01*
X152357932Y-81181442D01*
X152357930Y-81181440D01*
X152223437Y-81110853D01*
X152223434Y-81110852D01*
X152075949Y-81074500D01*
X151924051Y-81074500D01*
X151776562Y-81110853D01*
X151642069Y-81181440D01*
X151528367Y-81282170D01*
X151442078Y-81407181D01*
X151388214Y-81549209D01*
X151369906Y-81699996D01*
X150830094Y-81699996D01*
X150811785Y-81549209D01*
X150757921Y-81407181D01*
X150671632Y-81282170D01*
X150567253Y-81189699D01*
X150557934Y-81181443D01*
X150557932Y-81181442D01*
X150557930Y-81181440D01*
X150423437Y-81110853D01*
X150423434Y-81110852D01*
X150275949Y-81074500D01*
X150124051Y-81074500D01*
X149976562Y-81110853D01*
X149842069Y-81181440D01*
X149728367Y-81282170D01*
X149642078Y-81407181D01*
X149588214Y-81549209D01*
X149569906Y-81699996D01*
X141748128Y-81699996D01*
X141719172Y-81579388D01*
X141625777Y-81353911D01*
X141498259Y-81145821D01*
X141375805Y-81002446D01*
X141339761Y-80960243D01*
X141339756Y-80960238D01*
X141268861Y-80899688D01*
X141154179Y-80801741D01*
X141148148Y-80798045D01*
X140946098Y-80674228D01*
X140946091Y-80674224D01*
X140852264Y-80635360D01*
X140720612Y-80580828D01*
X140720611Y-80580827D01*
X140720607Y-80580826D01*
X140483303Y-80523854D01*
X140240000Y-80504706D01*
X139996696Y-80523854D01*
X139759392Y-80580826D01*
X139533908Y-80674224D01*
X139533901Y-80674228D01*
X139325823Y-80801739D01*
X139325822Y-80801740D01*
X139140243Y-80960238D01*
X139140238Y-80960243D01*
X139026270Y-81093684D01*
X138975806Y-81119397D01*
X138921941Y-81101895D01*
X138913730Y-81093684D01*
X138799761Y-80960243D01*
X138799756Y-80960238D01*
X138728861Y-80899688D01*
X138614179Y-80801741D01*
X138608148Y-80798045D01*
X138406098Y-80674228D01*
X138406091Y-80674224D01*
X138312264Y-80635360D01*
X138180612Y-80580828D01*
X138180611Y-80580827D01*
X138180607Y-80580826D01*
X137943303Y-80523854D01*
X137700000Y-80504706D01*
X137456696Y-80523854D01*
X137219392Y-80580826D01*
X136993908Y-80674224D01*
X136993901Y-80674228D01*
X136785823Y-80801739D01*
X136785822Y-80801740D01*
X136600243Y-80960238D01*
X136600238Y-80960243D01*
X136486270Y-81093684D01*
X136435806Y-81119397D01*
X136381941Y-81101895D01*
X136373730Y-81093684D01*
X136259761Y-80960243D01*
X136259756Y-80960238D01*
X136188861Y-80899688D01*
X136074179Y-80801741D01*
X136068148Y-80798045D01*
X135866098Y-80674228D01*
X135866091Y-80674224D01*
X135772264Y-80635360D01*
X135640612Y-80580828D01*
X135640611Y-80580827D01*
X135640607Y-80580826D01*
X135403303Y-80523854D01*
X135160000Y-80504706D01*
X134916696Y-80523854D01*
X134679392Y-80580826D01*
X134453908Y-80674224D01*
X134453901Y-80674228D01*
X134245823Y-80801739D01*
X134245822Y-80801740D01*
X134060243Y-80960238D01*
X134060238Y-80960243D01*
X133901740Y-81145822D01*
X133901739Y-81145823D01*
X133774228Y-81353901D01*
X133774224Y-81353908D01*
X133680826Y-81579392D01*
X133623854Y-81816696D01*
X133604706Y-82060000D01*
X130200500Y-82060000D01*
X130200500Y-81854536D01*
X130222174Y-81802210D01*
X130264841Y-81781169D01*
X130352014Y-81769693D01*
X130579993Y-81708606D01*
X130798049Y-81618284D01*
X131002450Y-81500273D01*
X131189699Y-81356592D01*
X131356592Y-81189699D01*
X131500273Y-81002450D01*
X131618284Y-80798049D01*
X131708606Y-80579993D01*
X131769693Y-80352014D01*
X131770673Y-80344562D01*
X131781170Y-80264841D01*
X131809489Y-80215792D01*
X131854537Y-80200500D01*
X168145463Y-80200500D01*
X168197789Y-80222174D01*
G37*
%TD.AperFunction*%
%TA.AperFunction,Conductor*%
G36*
X137035359Y-118495258D02*
G01*
X137117437Y-118618097D01*
X137221903Y-118722563D01*
X137344742Y-118804641D01*
X137375974Y-118817577D01*
X136720354Y-119473197D01*
X136727154Y-119479005D01*
X136727162Y-119479011D01*
X136948589Y-119614701D01*
X136948596Y-119614705D01*
X137051025Y-119657133D01*
X137091073Y-119697182D01*
X137091073Y-119753819D01*
X137051024Y-119793867D01*
X137022706Y-119799500D01*
X135837294Y-119799500D01*
X135784968Y-119777826D01*
X135763294Y-119725500D01*
X135784968Y-119673174D01*
X135808975Y-119657133D01*
X135911403Y-119614705D01*
X135911410Y-119614701D01*
X136132839Y-119479009D01*
X136132846Y-119479004D01*
X136139644Y-119473198D01*
X135484024Y-118817578D01*
X135515258Y-118804641D01*
X135638097Y-118722563D01*
X135742563Y-118618097D01*
X135824641Y-118495258D01*
X135837578Y-118464025D01*
X136430000Y-119056447D01*
X137022421Y-118464025D01*
X137035359Y-118495258D01*
G37*
%TD.AperFunction*%
%TA.AperFunction,Conductor*%
G36*
X139575359Y-118495258D02*
G01*
X139657437Y-118618097D01*
X139761903Y-118722563D01*
X139884742Y-118804641D01*
X139915974Y-118817577D01*
X139260354Y-119473197D01*
X139267154Y-119479005D01*
X139267162Y-119479011D01*
X139488589Y-119614701D01*
X139488596Y-119614705D01*
X139591025Y-119657133D01*
X139631073Y-119697182D01*
X139631073Y-119753819D01*
X139591024Y-119793867D01*
X139562706Y-119799500D01*
X138377294Y-119799500D01*
X138324968Y-119777826D01*
X138303294Y-119725500D01*
X138324968Y-119673174D01*
X138348975Y-119657133D01*
X138451403Y-119614705D01*
X138451410Y-119614701D01*
X138672839Y-119479009D01*
X138672846Y-119479004D01*
X138679644Y-119473198D01*
X138024024Y-118817578D01*
X138055258Y-118804641D01*
X138178097Y-118722563D01*
X138282563Y-118618097D01*
X138364641Y-118495258D01*
X138377578Y-118464025D01*
X138970000Y-119056447D01*
X139562421Y-118464025D01*
X139575359Y-118495258D01*
G37*
%TD.AperFunction*%
%TD*%
M02*
