M48
; DRILL file {KiCad 8.0.5} date 2024-10-03T20:59:06+0200
; FORMAT={-:-/ absolute / inch / decimal}
; #@! TF.CreationDate,2024-10-03T20:59:06+02:00
; #@! TF.GenerationSoftware,Kicad,Pcbnew,8.0.5
; #@! TF.FileFunction,Plated,1,4,PTH
FMAT,2
INCH
; #@! TA.AperFunction,Plated,PTH,ViaDrill
T1C0.0118
; #@! TA.AperFunction,Plated,PTH,ComponentDrill
T2C0.0394
; #@! TA.AperFunction,Plated,PTH,ComponentDrill
T3C0.0472
; #@! TA.AperFunction,Plated,PTH,ComponentDrill
T4C0.0591
; #@! TA.AperFunction,Plated,PTH,ComponentDrill
T5C0.0630
%
G90
G05
T1
X5.4106Y-4.1575
X5.4693Y-3.8677
X5.4754Y-3.7835
X5.4754Y-3.9252
X5.4754Y-3.9961
X5.4754Y-4.0669
X5.4961Y-4.3484
X5.5089Y-4.1575
X5.5728Y-3.7508
X5.6063Y-4.062
X5.6191Y-4.287
X5.6732Y-4.062
X5.811Y-3.6421
X5.8185Y-3.7
X5.8425Y-3.3071
X5.848Y-3.7083
X5.8531Y-3.6295
X5.8543Y-3.8632
X5.8543Y-4.4488
X5.8543Y-4.5157
X5.8543Y-4.5827
X5.8701Y-4.3415
X5.874Y-4.0827
X5.874Y-4.1378
X5.878Y-3.2638
X5.878Y-3.3504
X5.8872Y-3.8215
X5.8878Y-3.7783
X5.9016Y-4.1102
X5.9134Y-3.2165
X5.9134Y-3.3071
X5.9134Y-3.3976
X5.9213Y-4.4488
X5.9213Y-4.5157
X5.9213Y-4.5827
X5.9287Y-3.8098
X5.9291Y-3.6299
X5.9291Y-3.6811
X5.9291Y-3.7323
X5.9291Y-4.0827
X5.9291Y-4.1378
X5.937Y-3.9222
X5.94Y-3.5276
X5.9488Y-3.2638
X5.9488Y-3.3504
X5.9528Y-4.3415
X5.9803Y-3.6299
X5.9803Y-3.6811
X5.9803Y-3.7323
X5.9843Y-3.2165
X5.9843Y-3.3071
X5.9843Y-3.3976
X5.9882Y-4.4488
X5.9882Y-4.5157
X5.9882Y-4.5827
X6.0167Y-3.8386
X6.0315Y-3.6299
X6.0315Y-3.6811
X6.0315Y-3.7323
X6.0354Y-4.4803
X6.0354Y-4.5512
X6.0394Y-4.124
X6.074Y-3.5362
X6.0787Y-4.4488
X6.0787Y-4.5157
X6.0787Y-4.5827
X6.0827Y-3.9528
X6.0909Y-4.1173
X6.0976Y-3.5512
X6.0996Y-3.802
X6.1378Y-3.5089
X6.1378Y-3.688
X6.1457Y-4.4488
X6.1457Y-4.5157
X6.1457Y-4.5827
X6.2008Y-3.7648
X6.2008Y-3.8258
X6.2126Y-4.4488
X6.2126Y-4.5157
X6.2126Y-4.5827
X6.2799Y-3.522
X6.4124Y-4.6599
T2
X6.2943Y-3.6786
X6.2943Y-4.2495
X6.3445Y-3.8204
X6.3445Y-3.9641
X6.3445Y-4.1078
X6.627Y-3.6786
X6.627Y-4.2495
T3
X6.2943Y-3.7554
X6.2943Y-4.1727
X6.627Y-3.7554
X6.627Y-4.1727
T4
X5.3213Y-3.2307
X5.3213Y-3.4307
X5.3213Y-4.4512
X5.3213Y-4.6512
X5.4213Y-3.2307
X5.4213Y-3.4307
X5.4213Y-4.4512
X5.4213Y-4.6512
X5.5213Y-3.2307
X5.5213Y-3.4307
X5.5213Y-4.4512
X5.5213Y-4.6512
T5
X6.4774Y-3.7653
X6.4774Y-3.8558
X6.4774Y-4.0723
X6.4774Y-4.1629
M30
