%TF.GenerationSoftware,KiCad,Pcbnew,8.0.5*%
%TF.CreationDate,2024-10-29T13:47:40+01:00*%
%TF.ProjectId,BatteryMonitor,42617474-6572-4794-9d6f-6e69746f722e,rev?*%
%TF.SameCoordinates,Original*%
%TF.FileFunction,Copper,L4,Bot*%
%TF.FilePolarity,Positive*%
%FSLAX46Y46*%
G04 Gerber Fmt 4.6, Leading zero omitted, Abs format (unit mm)*
G04 Created by KiCad (PCBNEW 8.0.5) date 2024-10-29 13:47:40*
%MOMM*%
%LPD*%
G01*
G04 APERTURE LIST*
G04 Aperture macros list*
%AMRoundRect*
0 Rectangle with rounded corners*
0 $1 Rounding radius*
0 $2 $3 $4 $5 $6 $7 $8 $9 X,Y pos of 4 corners*
0 Add a 4 corners polygon primitive as box body*
4,1,4,$2,$3,$4,$5,$6,$7,$8,$9,$2,$3,0*
0 Add four circle primitives for the rounded corners*
1,1,$1+$1,$2,$3*
1,1,$1+$1,$4,$5*
1,1,$1+$1,$6,$7*
1,1,$1+$1,$8,$9*
0 Add four rect primitives between the rounded corners*
20,1,$1+$1,$2,$3,$4,$5,0*
20,1,$1+$1,$4,$5,$6,$7,0*
20,1,$1+$1,$6,$7,$8,$9,0*
20,1,$1+$1,$8,$9,$2,$3,0*%
G04 Aperture macros list end*
%TA.AperFunction,SMDPad,CuDef*%
%ADD10RoundRect,0.200000X-0.275000X0.200000X-0.275000X-0.200000X0.275000X-0.200000X0.275000X0.200000X0*%
%TD*%
%TA.AperFunction,SMDPad,CuDef*%
%ADD11RoundRect,0.150000X-0.512500X-0.150000X0.512500X-0.150000X0.512500X0.150000X-0.512500X0.150000X0*%
%TD*%
%TA.AperFunction,SMDPad,CuDef*%
%ADD12RoundRect,0.200000X-0.200000X-0.600000X0.200000X-0.600000X0.200000X0.600000X-0.200000X0.600000X0*%
%TD*%
%TA.AperFunction,SMDPad,CuDef*%
%ADD13RoundRect,0.525000X-0.525000X-0.975000X0.525000X-0.975000X0.525000X0.975000X-0.525000X0.975000X0*%
%TD*%
%TA.AperFunction,SMDPad,CuDef*%
%ADD14RoundRect,0.237500X0.987500X0.237500X-0.987500X0.237500X-0.987500X-0.237500X0.987500X-0.237500X0*%
%TD*%
%TA.AperFunction,SMDPad,CuDef*%
%ADD15R,1.800000X0.650000*%
%TD*%
%TA.AperFunction,SMDPad,CuDef*%
%ADD16R,1.600000X1.400000*%
%TD*%
%TA.AperFunction,ComponentPad*%
%ADD17C,2.300000*%
%TD*%
%TA.AperFunction,SMDPad,CuDef*%
%ADD18RoundRect,0.200000X0.600000X-0.200000X0.600000X0.200000X-0.600000X0.200000X-0.600000X-0.200000X0*%
%TD*%
%TA.AperFunction,SMDPad,CuDef*%
%ADD19RoundRect,0.525000X0.975000X-0.525000X0.975000X0.525000X-0.975000X0.525000X-0.975000X-0.525000X0*%
%TD*%
%TA.AperFunction,ComponentPad*%
%ADD20C,3.000000*%
%TD*%
%TA.AperFunction,ComponentPad*%
%ADD21C,1.600000*%
%TD*%
%TA.AperFunction,ComponentPad*%
%ADD22C,1.800000*%
%TD*%
%TA.AperFunction,SMDPad,CuDef*%
%ADD23RoundRect,0.200000X0.275000X-0.200000X0.275000X0.200000X-0.275000X0.200000X-0.275000X-0.200000X0*%
%TD*%
%TA.AperFunction,ViaPad*%
%ADD24C,0.450000*%
%TD*%
%TA.AperFunction,Conductor*%
%ADD25C,0.200000*%
%TD*%
G04 APERTURE END LIST*
D10*
%TO.P,R8,2*%
%TO.N,/SDA_ISO*%
X142400000Y-87825000D03*
%TO.P,R8,1*%
%TO.N,+3.3V*%
X142400000Y-86175000D03*
%TD*%
%TO.P,R7,1*%
%TO.N,+3.3V*%
X142400000Y-83075000D03*
%TO.P,R7,2*%
%TO.N,/SCL_ISO*%
X142400000Y-84725000D03*
%TD*%
D11*
%TO.P,Q1,1,G*%
%TO.N,Net-(Q1-G)*%
X138962500Y-91250000D03*
%TO.P,Q1,2,S*%
%TO.N,GND*%
X138962500Y-89350000D03*
%TO.P,Q1,3,D*%
%TO.N,Net-(Q1-D)*%
X141237500Y-90300000D03*
%TD*%
D12*
%TO.P,J4,1,Pin_1*%
%TO.N,Net-(J4-Pin_1)*%
X165875000Y-89462500D03*
%TO.P,J4,2,Pin_2*%
%TO.N,Net-(J4-Pin_2)*%
X164625000Y-89462500D03*
%TO.P,J4,3,Pin_3*%
%TO.N,Net-(J4-Pin_3)*%
X163375000Y-89462500D03*
%TO.P,J4,4,Pin_4*%
%TO.N,GNDEXT*%
X162125000Y-89462500D03*
D13*
%TO.P,J4,M*%
%TO.N,N/C*%
X159575000Y-86562500D03*
X168425000Y-86562500D03*
%TD*%
D14*
%TO.P,TP2,1,1*%
%TO.N,Net-(U2-PA3)*%
X161000000Y-82100000D03*
%TD*%
%TO.P,TP1,1,1*%
%TO.N,Net-(U2-PA2)*%
X164800000Y-82100000D03*
%TD*%
D15*
%TO.P,J1,1,Pin_1*%
%TO.N,+3.3V*%
X141550000Y-98540000D03*
%TO.P,J1,2,Pin_2*%
%TO.N,/SWCLK*%
X138850000Y-97270000D03*
%TO.P,J1,3,Pin_3*%
%TO.N,GND*%
X141550000Y-96000000D03*
%TO.P,J1,4,Pin_4*%
%TO.N,/SWDIO*%
X138850000Y-94730000D03*
%TO.P,J1,5,Pin_5*%
%TO.N,Net-(J1-Pin_5)*%
X141550000Y-93460000D03*
%TD*%
D16*
%TO.P,SW1,1,1*%
%TO.N,N/C*%
X132500000Y-108800000D03*
%TO.N,/CELL1*%
X139700000Y-108800000D03*
%TO.P,SW1,2,2*%
%TO.N,N/C*%
X132500000Y-105800000D03*
%TO.N,Net-(R21-Pad1)*%
X139700000Y-105800000D03*
%TD*%
D17*
%TO.P,J2,1,Pin_1*%
%TO.N,Net-(J2-Pin_1)*%
X140240000Y-87140000D03*
X140240000Y-82060000D03*
X137700000Y-87140000D03*
X137700000Y-82060000D03*
X135160000Y-87140000D03*
X135160000Y-82060000D03*
%TD*%
D12*
%TO.P,J7,1,Pin_1*%
%TO.N,/PWR_SWITCH*%
X164125000Y-118362500D03*
%TO.P,J7,2,Pin_2*%
%TO.N,GND*%
X162875000Y-118362500D03*
D13*
%TO.P,J7,M*%
%TO.N,N/C*%
X160325000Y-115462500D03*
X166675000Y-115462500D03*
%TD*%
D18*
%TO.P,J3,1,Pin_1*%
%TO.N,Net-(J3-Pin_1)*%
X134750000Y-93600000D03*
%TO.P,J3,2,Pin_2*%
%TO.N,Net-(J3-Pin_2)*%
X134750000Y-94850000D03*
%TO.P,J3,3,Pin_3*%
%TO.N,Net-(J3-Pin_3)*%
X134750000Y-96100000D03*
%TO.P,J3,4,Pin_4*%
%TO.N,/CELL1*%
X134750000Y-97350000D03*
%TO.P,J3,5,Pin_5*%
%TO.N,/TS*%
X134750000Y-98600000D03*
D19*
%TO.P,J3,M*%
%TO.N,N/C*%
X131850000Y-101150000D03*
X131850000Y-91050000D03*
%TD*%
D17*
%TO.P,J5,1,Pin_1*%
%TO.N,GND*%
X140240000Y-118140000D03*
X140240000Y-113060000D03*
X137700000Y-118140000D03*
X137700000Y-113060000D03*
X135160000Y-118140000D03*
X135160000Y-113060000D03*
%TD*%
D20*
%TO.P,J6,1,Pin_1*%
%TO.N,Net-(D2-A)*%
X164525000Y-105737500D03*
X164525000Y-103437500D03*
%TO.P,J6,2,Pin_2*%
%TO.N,+BATT*%
X164525000Y-97937500D03*
X164525000Y-95637500D03*
D21*
%TO.P,J6,3,Pin_3*%
%TO.N,unconnected-(J6-Pin_3-Pad3)*%
X161150000Y-104337500D03*
%TO.P,J6,4,Pin_4*%
%TO.N,unconnected-(J6-Pin_4-Pad4)*%
X161150000Y-100687500D03*
%TO.P,J6,5,Pin_5*%
%TO.N,unconnected-(J6-Pin_5-Pad5)*%
X161150000Y-97037500D03*
%TO.P,J6,M*%
%TO.N,N/C*%
X168325000Y-107937500D03*
D22*
X168325000Y-105987500D03*
X168325000Y-95387500D03*
D21*
X168325000Y-93437500D03*
X159875000Y-107937500D03*
D22*
X159875000Y-105987500D03*
X159875000Y-95387500D03*
D21*
X159875000Y-93437500D03*
%TD*%
D23*
%TO.P,R13,2*%
%TO.N,GND*%
X137200000Y-89475000D03*
%TO.P,R13,1*%
%TO.N,Net-(Q1-G)*%
X137200000Y-91125000D03*
%TD*%
D24*
%TO.N,+3.3V*%
X149000000Y-96856934D03*
%TO.N,/SWCLK*%
X148860000Y-95940000D03*
%TO.N,Net-(U1-SDA)*%
X150650000Y-98000000D03*
%TO.N,/SCL_ISO*%
X151660000Y-96650000D03*
%TO.N,/SDA_ISO*%
X151990000Y-97150000D03*
%TO.N,Net-(J1-Pin_5)*%
X153640000Y-98090000D03*
X156630000Y-97650000D03*
%TO.N,Net-(U1-SDA)*%
X152500000Y-98560000D03*
%TO.N,/SCL_BMS*%
X148590000Y-92020000D03*
%TO.N,/SCL_ISO*%
X143170000Y-91180000D03*
%TO.N,/SDA_ISO*%
X142812500Y-91825000D03*
%TO.N,GND*%
X138962500Y-89350000D03*
X137200000Y-89475000D03*
X151700000Y-102500000D03*
X144700000Y-100600000D03*
X145000000Y-105000000D03*
X148900000Y-99600000D03*
X145700000Y-95400000D03*
%TO.N,+3.3V*%
X144370000Y-87750000D03*
%TO.N,Net-(Q1-D)*%
X141280000Y-91040000D03*
%TO.N,Net-(J4-Pin_1)*%
X144310000Y-89710000D03*
%TO.N,Net-(J4-Pin_2)*%
X143910000Y-89220000D03*
%TO.N,Net-(J4-Pin_3)*%
X144340000Y-88730000D03*
%TO.N,GNDEXT*%
X143930000Y-88260000D03*
%TO.N,Net-(Q1-G)*%
X148630000Y-92660000D03*
%TO.N,/SWDIO*%
X148830000Y-94750000D03*
%TO.N,GND*%
X150700000Y-93500000D03*
X150700000Y-92200000D03*
X150800000Y-99625000D03*
X149100000Y-110275000D03*
X151900000Y-93500000D03*
X147790000Y-93980000D03*
X151900000Y-92200000D03*
X157500000Y-97175000D03*
X149200000Y-103700000D03*
X155900000Y-93675000D03*
X153200000Y-93500000D03*
X139075000Y-103300000D03*
X142725000Y-108890000D03*
X162875000Y-118362500D03*
X150875000Y-89600000D03*
X150600000Y-105100000D03*
X149200000Y-105100000D03*
X150700000Y-94800000D03*
X153200000Y-92200000D03*
X155900000Y-89125000D03*
X144100000Y-103175000D03*
X142400000Y-103175000D03*
X153400000Y-104750000D03*
X153060000Y-97230000D03*
X151200000Y-110275000D03*
X153200000Y-94800000D03*
X149900000Y-104400000D03*
X141550000Y-95270000D03*
X151900000Y-94800000D03*
X139600000Y-110450000D03*
X150600000Y-103700000D03*
X148700000Y-98125000D03*
%TO.N,Net-(J1-Pin_5)*%
X157500000Y-95625000D03*
%TO.N,+BATT*%
X150200000Y-86300000D03*
X150200000Y-81700000D03*
X149300000Y-85100000D03*
X152000000Y-86300000D03*
X149300000Y-82900000D03*
X151100000Y-85100000D03*
X148400000Y-84000000D03*
X150200000Y-84000000D03*
X151100000Y-82900000D03*
X152000000Y-84000000D03*
X152000000Y-81700000D03*
%TO.N,/TS*%
X137430000Y-105600000D03*
%TO.N,/CELL1*%
X139075000Y-101500000D03*
%TO.N,Net-(J3-Pin_1)*%
X139075000Y-96100000D03*
%TO.N,Net-(J3-Pin_3)*%
X139075000Y-99700000D03*
%TO.N,Net-(J3-Pin_2)*%
X138920000Y-98240000D03*
%TO.N,Net-(Q2-D)*%
X153300000Y-113800000D03*
X154400000Y-113000000D03*
X156100000Y-114700000D03*
X154400000Y-114700000D03*
X148700000Y-116400000D03*
X157800000Y-113000000D03*
X152100000Y-116400000D03*
X150400000Y-113000000D03*
X150400000Y-116400000D03*
X148700000Y-114700000D03*
X154400000Y-116400000D03*
X152100000Y-113000000D03*
X153300000Y-115600000D03*
X157800000Y-114700000D03*
X148700000Y-113000000D03*
X156100000Y-116400000D03*
X157800000Y-116400000D03*
X156100000Y-113000000D03*
X152100000Y-114700000D03*
X150400000Y-114700000D03*
%TO.N,/SCL_BMS*%
X154710000Y-104580000D03*
X154500000Y-100400000D03*
%TO.N,Net-(R21-Pad1)*%
X139925000Y-105600000D03*
%TO.N,Net-(U2-PA2)*%
X154880000Y-90200000D03*
%TO.N,Net-(U2-PA3)*%
X154280000Y-89820000D03*
%TO.N,/PWR_SWITCH*%
X154930000Y-96570000D03*
%TD*%
D25*
%TO.N,/SCL_BMS*%
X148595736Y-92020000D02*
X148590000Y-92020000D01*
X149320000Y-92320000D02*
G75*
G03*
X148595736Y-92019985I-724300J-724300D01*
G01*
%TO.N,+3.3V*%
X148189695Y-97693497D02*
X148981432Y-96901760D01*
X148150000Y-97730000D02*
X148189695Y-97693497D01*
X141550000Y-98540000D02*
X146194488Y-98540000D01*
X146194488Y-98540000D02*
G75*
G03*
X148150004Y-97730004I12J2765500D01*
G01*
X148981432Y-96901760D02*
G75*
G03*
X149000022Y-96856934I-44832J44860D01*
G01*
%TO.N,/SWCLK*%
X148320883Y-96479117D02*
G75*
G02*
X146411523Y-97270029I-1909383J1909317D01*
G01*
X148860000Y-95940000D02*
X148320883Y-96479117D01*
%TO.N,Net-(U1-SDA)*%
X150650000Y-98000000D02*
G75*
G03*
X152001959Y-98560017I1352000J1352000D01*
G01*
X152001959Y-98560000D02*
X152500000Y-98560000D01*
%TO.N,Net-(J1-Pin_5)*%
X152472964Y-98090000D02*
X153640000Y-98090000D01*
X149633639Y-96213639D02*
X150829081Y-97409081D01*
X148810000Y-93780000D02*
X148966447Y-93936446D01*
X141550000Y-93460000D02*
X148037452Y-93460000D01*
X150829081Y-97409081D02*
G75*
G03*
X152472964Y-98090026I1643919J1643881D01*
G01*
X149280000Y-95359879D02*
G75*
G03*
X149633628Y-96213650I1207400J-21D01*
G01*
X149280000Y-94693429D02*
X149280000Y-95359879D01*
X148966447Y-93936446D02*
G75*
G02*
X149279990Y-94693429I-756947J-756954D01*
G01*
X148037452Y-93460000D02*
G75*
G02*
X148810014Y-93779986I48J-1092500D01*
G01*
%TO.N,/SCL_BMS*%
X154500000Y-98880538D02*
X154500000Y-100400000D01*
X153424852Y-97620000D02*
X153677868Y-97620000D01*
X154040000Y-97770000D02*
G75*
G02*
X154499984Y-98880538I-1110500J-1110500D01*
G01*
X149913639Y-96033639D02*
X151103223Y-97223223D01*
X153280000Y-97680000D02*
G75*
G02*
X153424852Y-97619951I144900J-144800D01*
G01*
X153159290Y-97730000D02*
G75*
G03*
X153280003Y-97680003I10J170700D01*
G01*
X151103223Y-97223223D02*
G75*
G03*
X152326690Y-97730020I1223477J1223423D01*
G01*
X149590000Y-92971837D02*
X149590000Y-95252305D01*
X152326690Y-97730000D02*
X153159290Y-97730000D01*
X149590000Y-95252305D02*
G75*
G03*
X149913636Y-96033642I1105000J5D01*
G01*
X153677868Y-97620000D02*
G75*
G02*
X154040009Y-97769991I32J-512100D01*
G01*
X149320000Y-92320000D02*
G75*
G02*
X149589984Y-92971837I-651800J-651800D01*
G01*
%TO.N,/SDA_ISO*%
X143458017Y-91825000D02*
X142812500Y-91825000D01*
X143820000Y-91660000D02*
X143790234Y-91687391D01*
X148559878Y-91520000D02*
X144157989Y-91520000D01*
X149478579Y-91928579D02*
X149430711Y-91880711D01*
X149900000Y-95187158D02*
X149900000Y-92945979D01*
X151990000Y-97150000D02*
X151692132Y-97150000D01*
X143790234Y-91687391D02*
G75*
G02*
X143458017Y-91825019I-332234J332191D01*
G01*
X151330000Y-97000000D02*
X150170710Y-95840710D01*
X144157989Y-91520000D02*
G75*
G03*
X143820003Y-91660003I11J-478000D01*
G01*
X149900000Y-92945979D02*
G75*
G03*
X149478564Y-91928594I-1438800J-21D01*
G01*
X150170710Y-95840710D02*
G75*
G02*
X149900041Y-95187158I653590J653510D01*
G01*
X149430711Y-91880711D02*
G75*
G03*
X148559878Y-91520003I-870811J-870789D01*
G01*
X151692132Y-97150000D02*
G75*
G02*
X151329991Y-97000009I-32J512100D01*
G01*
%TO.N,/SCL_ISO*%
X150375147Y-95365147D02*
G75*
G02*
X150229989Y-95014731I350453J350447D01*
G01*
X151660000Y-96650000D02*
X150375147Y-95365147D01*
X143170000Y-91180000D02*
X143182071Y-91175000D01*
X143182071Y-91175000D02*
X148480823Y-91175000D01*
X149700000Y-91680000D02*
G75*
G02*
X150229986Y-92959533I-1279500J-1279500D01*
G01*
X150230000Y-92959533D02*
X150230000Y-95014731D01*
X148480823Y-91175000D02*
G75*
G02*
X149699994Y-91680006I-23J-1724200D01*
G01*
%TO.N,/SDA_ISO*%
X151990000Y-97150000D02*
G75*
G03*
X151954642Y-97064647I-120700J0D01*
G01*
%TO.N,Net-(J1-Pin_5)*%
X157446709Y-95678291D02*
G75*
G03*
X156629995Y-97650000I1971691J-1971709D01*
G01*
X157500000Y-95625000D02*
X157446709Y-95678291D01*
%TO.N,/SCL_BMS*%
X148629289Y-92059289D02*
X148690588Y-92059289D01*
X148590000Y-92020000D02*
X148629289Y-92059289D01*
%TO.N,/SCL_ISO*%
X142930000Y-85160000D02*
X142562176Y-84792176D01*
X143170000Y-85739411D02*
G75*
G03*
X142930003Y-85159997I-819400J11D01*
G01*
X143170000Y-91180000D02*
X143170000Y-85739411D01*
X142562176Y-84792176D02*
G75*
G03*
X142400000Y-84724985I-162176J-162124D01*
G01*
%TO.N,/SDA_ISO*%
X142400000Y-90829137D02*
X142400000Y-87825000D01*
X142812500Y-91825000D02*
G75*
G02*
X142399985Y-90829137I995900J995900D01*
G01*
%TO.N,+3.3V*%
X141870000Y-83490000D02*
X142203683Y-83156317D01*
X141580000Y-84900000D02*
X141580000Y-84190121D01*
X142306109Y-86136109D02*
X141940625Y-85770625D01*
X142203683Y-83156317D02*
G75*
G02*
X142400000Y-83074990I196317J-196283D01*
G01*
X141580000Y-84190121D02*
G75*
G02*
X141869994Y-83489994I990100J21D01*
G01*
X141940625Y-85770625D02*
G75*
G02*
X141579986Y-84900000I870575J870625D01*
G01*
X142400000Y-86175000D02*
G75*
G02*
X142306105Y-86136113I0J132800D01*
G01*
X142910000Y-83510000D02*
X142528034Y-83128034D01*
X142528034Y-83128034D02*
G75*
G03*
X142400000Y-83075010I-128034J-128066D01*
G01*
X143620000Y-85239238D02*
X143620000Y-85224091D01*
X143620000Y-85224091D02*
G75*
G03*
X142909998Y-83510002I-2424100J-9D01*
G01*
X143870000Y-87410000D02*
G75*
G02*
X143619981Y-86806447I603600J603600D01*
G01*
X144370000Y-87750000D02*
G75*
G02*
X144096857Y-87636867I0J386300D01*
G01*
X144096862Y-87636862D02*
X143870000Y-87410000D01*
X143620000Y-86806447D02*
X143620000Y-85239238D01*
%TO.N,Net-(Q1-G)*%
X137501776Y-91250000D02*
X138962500Y-91250000D01*
X137200000Y-91125000D02*
G75*
G03*
X137501776Y-91250010I301800J301800D01*
G01*
X139555720Y-91495720D02*
G75*
G03*
X138962500Y-91249989I-593220J-593180D01*
G01*
X139660000Y-91600000D02*
X139555720Y-91495720D01*
X142219066Y-92660000D02*
G75*
G02*
X139660010Y-91599990I34J3619100D01*
G01*
X148630000Y-92660000D02*
X142219066Y-92660000D01*
%TO.N,Net-(Q1-D)*%
X141280000Y-90402604D02*
G75*
G03*
X141237501Y-90299999I-145100J4D01*
G01*
X141280000Y-91040000D02*
X141280000Y-90402604D01*
%TO.N,Net-(J4-Pin_1)*%
X146956498Y-89710000D02*
X144310000Y-89710000D01*
X151688355Y-91670000D02*
G75*
G02*
X149250013Y-90659987I45J3448400D01*
G01*
X149250000Y-90660000D02*
G75*
G03*
X146956498Y-89710001I-2293500J-2293500D01*
G01*
X160390000Y-91670000D02*
X151688355Y-91670000D01*
X165547963Y-90252037D02*
X165540000Y-90260000D01*
X165540000Y-90260000D02*
G75*
G02*
X162135959Y-91669983I-3404000J3404000D01*
G01*
X165875000Y-89462500D02*
G75*
G02*
X165547968Y-90252042I-1116600J0D01*
G01*
X162135959Y-91670000D02*
X160390000Y-91670000D01*
%TO.N,Net-(J4-Pin_2)*%
X146697086Y-89220000D02*
X143910000Y-89220000D01*
X149570000Y-90410000D02*
G75*
G03*
X146697086Y-89220006I-2872900J-2872900D01*
G01*
X151815218Y-91340000D02*
G75*
G02*
X149569995Y-90410005I-18J3175200D01*
G01*
X164312105Y-90217895D02*
X164142427Y-90387573D01*
X161843065Y-91340000D02*
X151815218Y-91340000D01*
X164142427Y-90387573D02*
G75*
G02*
X161843065Y-91339972I-2299327J2299373D01*
G01*
X164625000Y-89462500D02*
G75*
G02*
X164312107Y-90217897I-1068300J0D01*
G01*
%TO.N,Net-(J4-Pin_3)*%
X146531523Y-88730000D02*
X144340000Y-88730000D01*
X161265909Y-91010000D02*
X151976223Y-91010000D01*
X163062105Y-90217895D02*
X162980000Y-90300000D01*
X151976223Y-91010000D02*
G75*
G02*
X149899993Y-90150007I-23J2936200D01*
G01*
X149900000Y-90150000D02*
X149857782Y-90107782D01*
X162980000Y-90300000D02*
G75*
G02*
X161265909Y-91010003I-1714100J1714100D01*
G01*
X149857782Y-90107782D02*
G75*
G03*
X146531523Y-88729972I-3326282J-3326218D01*
G01*
X163375000Y-89462500D02*
G75*
G02*
X163062107Y-90217897I-1068300J0D01*
G01*
%TO.N,GNDEXT*%
X146243827Y-88260000D02*
X143930000Y-88260000D01*
X150190000Y-89900000D02*
X150180711Y-89890711D01*
X160733309Y-90680000D02*
X152073086Y-90680000D01*
X161861603Y-90098398D02*
X161750000Y-90210000D01*
X152073086Y-90680000D02*
G75*
G02*
X150190004Y-89899996I14J2663100D01*
G01*
X161666569Y-90293431D02*
G75*
G02*
X160733309Y-90680015I-933269J933231D01*
G01*
X150180711Y-89890711D02*
G75*
G03*
X146243827Y-88259983I-3936911J-3936889D01*
G01*
X161750000Y-90210000D02*
X161666569Y-90293431D01*
X162125000Y-89462500D02*
G75*
G02*
X161861604Y-90098399I-899300J0D01*
G01*
%TO.N,GND*%
X141550000Y-96000000D02*
X141550000Y-95270000D01*
%TO.N,/TS*%
X134750000Y-98600000D02*
X134750000Y-99129908D01*
X134750000Y-99129908D02*
G75*
G03*
X137430002Y-105599998I9150100J8D01*
G01*
%TO.N,/SWCLK*%
X138850000Y-97270000D02*
X146411523Y-97270000D01*
%TO.N,/CELL1*%
X139700000Y-108800000D02*
X139020036Y-108120036D01*
X138320000Y-106430000D02*
X138320000Y-103322731D01*
X136989411Y-100079410D02*
X137370000Y-100460000D01*
X136580000Y-99060000D02*
X136580000Y-99091006D01*
X135723051Y-97753051D02*
X136261802Y-98291802D01*
X137370000Y-100460000D02*
X137939774Y-101029774D01*
X139075000Y-101500000D02*
G75*
G03*
X138320013Y-103322731I1822700J-1822700D01*
G01*
X136580000Y-99091006D02*
G75*
G03*
X136989417Y-100079404I1397800J6D01*
G01*
X134750000Y-97350000D02*
G75*
G02*
X135723051Y-97753051I0J-1376100D01*
G01*
X136261802Y-98291802D02*
G75*
G02*
X136579999Y-99060000I-768202J-768198D01*
G01*
X139020036Y-108120036D02*
G75*
G02*
X138320008Y-106430000I1690064J1690036D01*
G01*
X137939774Y-101029774D02*
G75*
G03*
X139075000Y-101499986I1135226J1135274D01*
G01*
%TO.N,Net-(J3-Pin_1)*%
X136388822Y-94278823D02*
X137270000Y-95160000D01*
X137270000Y-95160000D02*
X137598352Y-95488352D01*
X134750000Y-93600000D02*
G75*
G02*
X136388813Y-94278832I0J-2317600D01*
G01*
X137598352Y-95488352D02*
G75*
G03*
X139075000Y-96099998I1476648J1476652D01*
G01*
%TO.N,Net-(J3-Pin_3)*%
X136590000Y-97240000D02*
X136591390Y-97268537D01*
X136982316Y-98212316D02*
X138042200Y-99272200D01*
X136350000Y-96650000D02*
X136346124Y-96646124D01*
X134750000Y-96100000D02*
X135022183Y-96100000D01*
X136590000Y-97234892D02*
X136590000Y-97240000D01*
X136346124Y-96646124D02*
G75*
G02*
X136589989Y-97234892I-588824J-588776D01*
G01*
X136591390Y-97268537D02*
G75*
G03*
X136982334Y-98212298I1334710J37D01*
G01*
X135022183Y-96100000D02*
G75*
G02*
X136350005Y-96649995I17J-1877800D01*
G01*
X138042200Y-99272200D02*
G75*
G03*
X139075000Y-99700000I1032800J1032800D01*
G01*
%TO.N,Net-(J3-Pin_2)*%
X136737243Y-95757243D02*
X136510000Y-95530000D01*
X138920000Y-98240000D02*
X138335979Y-98240000D01*
X134868335Y-94850000D02*
X134750000Y-94850000D01*
X137660000Y-97960000D02*
X137642340Y-97942340D01*
X137642340Y-97942340D02*
G75*
G02*
X137310006Y-97140000I802360J802340D01*
G01*
X137310000Y-97140000D02*
G75*
G03*
X136737240Y-95757246I-1955500J0D01*
G01*
X136510000Y-95530000D02*
G75*
G03*
X134868335Y-94849986I-1641700J-1641700D01*
G01*
X138335979Y-98240000D02*
G75*
G02*
X137660006Y-97959994I21J956000D01*
G01*
%TO.N,/SCL_BMS*%
X154710000Y-104580000D02*
X154710000Y-100906984D01*
X154710000Y-100906984D02*
G75*
G03*
X154499996Y-100400004I-717000J-16D01*
G01*
%TO.N,Net-(R21-Pad1)*%
X139742677Y-105782322D02*
X139925000Y-105600000D01*
X139700000Y-105800000D02*
G75*
G03*
X139742666Y-105782311I0J60300D01*
G01*
%TO.N,Net-(U2-PA2)*%
X161476568Y-83350000D02*
X161295756Y-83350000D01*
X155700675Y-90200000D02*
X154880000Y-90200000D01*
X158844767Y-84365233D02*
X158280000Y-84930000D01*
X158280000Y-84930000D02*
X158266312Y-84944886D01*
X158010000Y-85563677D02*
X158010000Y-87974904D01*
X163758665Y-82531335D02*
X163280000Y-83010000D01*
X157370000Y-89520000D02*
X157389559Y-89500441D01*
X162459168Y-83350000D02*
X161476568Y-83350000D01*
X164800000Y-82100000D02*
G75*
G03*
X163758659Y-82531329I0J-1472700D01*
G01*
X157389559Y-89500441D02*
G75*
G02*
X155700675Y-90199995I-1688859J1688841D01*
G01*
X161295756Y-83350000D02*
G75*
G03*
X158844793Y-84365259I44J-3466200D01*
G01*
X158010000Y-87974904D02*
G75*
G02*
X157369999Y-89519999I-2185100J4D01*
G01*
X163280000Y-83010000D02*
G75*
G02*
X162459168Y-83349986I-820800J820800D01*
G01*
X158266312Y-84944886D02*
G75*
G03*
X158009983Y-85563677I618788J-618814D01*
G01*
%TO.N,Net-(U2-PA3)*%
X159122182Y-82877817D02*
X158587524Y-83412475D01*
X157640000Y-85700000D02*
X157640000Y-87903899D01*
X156152599Y-89660000D02*
X154666274Y-89660000D01*
X157640000Y-87903899D02*
G75*
G02*
X157070001Y-89280001I-1946100J-1D01*
G01*
X161000000Y-82100000D02*
G75*
G03*
X159122190Y-82877825I0J-2655600D01*
G01*
X154666274Y-89660000D02*
G75*
G03*
X154280008Y-89820008I26J-546300D01*
G01*
X158587524Y-83412475D02*
G75*
G03*
X157639986Y-85700000I2287476J-2287525D01*
G01*
X157070000Y-89280000D02*
G75*
G02*
X156152599Y-89660000I-917400J917400D01*
G01*
%TO.N,/PWR_SWITCH*%
X160800000Y-111650000D02*
X159484494Y-110334494D01*
X156550000Y-103250000D02*
X156550000Y-100481025D01*
X161729676Y-112579676D02*
X160800000Y-111650000D01*
X159484494Y-110334494D02*
G75*
G02*
X156550004Y-103250000I7084506J7084494D01*
G01*
X156550000Y-100481025D02*
G75*
G03*
X154930008Y-96569992I-5531000J25D01*
G01*
X164125000Y-118362500D02*
G75*
G03*
X161729666Y-112579686I-8178100J0D01*
G01*
%TO.N,/SWDIO*%
X138850000Y-94730000D02*
X148781716Y-94730000D01*
X148781716Y-94730000D02*
G75*
G02*
X148829995Y-94750005I-16J-68300D01*
G01*
%TD*%
%TA.AperFunction,Conductor*%
%TO.N,Net-(Q2-D)*%
G36*
X156821805Y-107221674D02*
G01*
X156837846Y-107245682D01*
X156963196Y-107548306D01*
X156963200Y-107548314D01*
X157219320Y-108080153D01*
X157495707Y-108580239D01*
X157504864Y-108596806D01*
X157600957Y-108749736D01*
X157818914Y-109096613D01*
X158160501Y-109578036D01*
X158160509Y-109578047D01*
X158160511Y-109578049D01*
X158246481Y-109685852D01*
X158528544Y-110039548D01*
X158738959Y-110275003D01*
X158781178Y-110322246D01*
X158800000Y-110371556D01*
X158800000Y-118688042D01*
X158799367Y-118697701D01*
X158784234Y-118812644D01*
X158779234Y-118831303D01*
X158736740Y-118933893D01*
X158727081Y-118950624D01*
X158656507Y-119042597D01*
X158650125Y-119049874D01*
X158549874Y-119150125D01*
X158542597Y-119156507D01*
X158450624Y-119227081D01*
X158433893Y-119236740D01*
X158331303Y-119279234D01*
X158312644Y-119284234D01*
X158197701Y-119299367D01*
X158188042Y-119300000D01*
X144011958Y-119300000D01*
X144002299Y-119299367D01*
X143887355Y-119284234D01*
X143868696Y-119279234D01*
X143766106Y-119236740D01*
X143749380Y-119227084D01*
X143657396Y-119156502D01*
X143650125Y-119150125D01*
X143549874Y-119049874D01*
X143543498Y-119042604D01*
X143472914Y-118950617D01*
X143463259Y-118933893D01*
X143420765Y-118831303D01*
X143415765Y-118812644D01*
X143400633Y-118697701D01*
X143400000Y-118688042D01*
X143400000Y-110274996D01*
X148469906Y-110274996D01*
X148469906Y-110275003D01*
X148488214Y-110425790D01*
X148542078Y-110567818D01*
X148593151Y-110641809D01*
X148628368Y-110692830D01*
X148742066Y-110793557D01*
X148742067Y-110793557D01*
X148742069Y-110793559D01*
X148876562Y-110864146D01*
X148876566Y-110864148D01*
X149024051Y-110900500D01*
X149024055Y-110900500D01*
X149175945Y-110900500D01*
X149175949Y-110900500D01*
X149323434Y-110864148D01*
X149457934Y-110793557D01*
X149571632Y-110692830D01*
X149657921Y-110567819D01*
X149711785Y-110425791D01*
X149718370Y-110371556D01*
X149730094Y-110275003D01*
X149730094Y-110274996D01*
X150569906Y-110274996D01*
X150569906Y-110275003D01*
X150588214Y-110425790D01*
X150642078Y-110567818D01*
X150693151Y-110641809D01*
X150728368Y-110692830D01*
X150842066Y-110793557D01*
X150842067Y-110793557D01*
X150842069Y-110793559D01*
X150976562Y-110864146D01*
X150976566Y-110864148D01*
X151124051Y-110900500D01*
X151124055Y-110900500D01*
X151275945Y-110900500D01*
X151275949Y-110900500D01*
X151423434Y-110864148D01*
X151557934Y-110793557D01*
X151671632Y-110692830D01*
X151757921Y-110567819D01*
X151811785Y-110425791D01*
X151818370Y-110371556D01*
X151830094Y-110275003D01*
X151830094Y-110274996D01*
X151811785Y-110124209D01*
X151757921Y-109982181D01*
X151671632Y-109857170D01*
X151557934Y-109756443D01*
X151557932Y-109756442D01*
X151557930Y-109756440D01*
X151423437Y-109685853D01*
X151423434Y-109685852D01*
X151275949Y-109649500D01*
X151124051Y-109649500D01*
X150976562Y-109685853D01*
X150842069Y-109756440D01*
X150728367Y-109857170D01*
X150642078Y-109982181D01*
X150588214Y-110124209D01*
X150569906Y-110274996D01*
X149730094Y-110274996D01*
X149711785Y-110124209D01*
X149657921Y-109982181D01*
X149571632Y-109857170D01*
X149457934Y-109756443D01*
X149457932Y-109756442D01*
X149457930Y-109756440D01*
X149323437Y-109685853D01*
X149323434Y-109685852D01*
X149175949Y-109649500D01*
X149024051Y-109649500D01*
X148876562Y-109685853D01*
X148742069Y-109756440D01*
X148628367Y-109857170D01*
X148542078Y-109982181D01*
X148488214Y-110124209D01*
X148469906Y-110274996D01*
X143400000Y-110274996D01*
X143400000Y-107711957D01*
X143400633Y-107702298D01*
X143404693Y-107671459D01*
X143415766Y-107587351D01*
X143420765Y-107568696D01*
X143463260Y-107466102D01*
X143472911Y-107449385D01*
X143543504Y-107357387D01*
X143549866Y-107350133D01*
X143550133Y-107349866D01*
X143557387Y-107343504D01*
X143649385Y-107272911D01*
X143666102Y-107263260D01*
X143768698Y-107220764D01*
X143787351Y-107215766D01*
X143902299Y-107200633D01*
X143911958Y-107200000D01*
X156769479Y-107200000D01*
X156821805Y-107221674D01*
G37*
%TD.AperFunction*%
%TD*%
%TA.AperFunction,Conductor*%
%TO.N,GND*%
G36*
X150832851Y-92080560D02*
G01*
X151172431Y-92140441D01*
X151172446Y-92140442D01*
X151172452Y-92140443D01*
X151515936Y-92170498D01*
X151515939Y-92170498D01*
X151616497Y-92170498D01*
X151616505Y-92170500D01*
X151688348Y-92170500D01*
X151754241Y-92170501D01*
X151754245Y-92170500D01*
X158326000Y-92170500D01*
X158378326Y-92192174D01*
X158400000Y-92244500D01*
X158400000Y-105788042D01*
X158399367Y-105797701D01*
X158384234Y-105912644D01*
X158379234Y-105931303D01*
X158336740Y-106033893D01*
X158327081Y-106050624D01*
X158256507Y-106142597D01*
X158250125Y-106149874D01*
X158149874Y-106250125D01*
X158142597Y-106256507D01*
X158050624Y-106327081D01*
X158033893Y-106336740D01*
X157931303Y-106379234D01*
X157912644Y-106384234D01*
X157797701Y-106399367D01*
X157788042Y-106400000D01*
X157644051Y-106400000D01*
X157591725Y-106378326D01*
X157574099Y-106350139D01*
X157482222Y-106083892D01*
X157480897Y-106079640D01*
X157327691Y-105530062D01*
X157326630Y-105525759D01*
X157206888Y-104967944D01*
X157206082Y-104963547D01*
X157169182Y-104721101D01*
X157120236Y-104399507D01*
X157119703Y-104395105D01*
X157068072Y-103826924D01*
X157067803Y-103822478D01*
X157050534Y-103250958D01*
X157050500Y-103248723D01*
X157050500Y-100410242D01*
X157050489Y-100410078D01*
X157050489Y-100399996D01*
X157050490Y-100265611D01*
X157019757Y-99835876D01*
X156958445Y-99409428D01*
X156866866Y-98988440D01*
X156866862Y-98988428D01*
X156866859Y-98988413D01*
X156745492Y-98575075D01*
X156745490Y-98575070D01*
X156745487Y-98575059D01*
X156668865Y-98369624D01*
X156670886Y-98313024D01*
X156712339Y-98274431D01*
X156720474Y-98271919D01*
X156853434Y-98239148D01*
X156987934Y-98168557D01*
X157101632Y-98067830D01*
X157187921Y-97942819D01*
X157241785Y-97800791D01*
X157260094Y-97650000D01*
X157253442Y-97595217D01*
X157241785Y-97499209D01*
X157227934Y-97462686D01*
X157218140Y-97436861D01*
X157215326Y-97427688D01*
X157208544Y-97399068D01*
X157170937Y-97307519D01*
X157166434Y-97267009D01*
X157187166Y-97144988D01*
X157189012Y-97136902D01*
X157192847Y-97123591D01*
X157257745Y-96898327D01*
X157260475Y-96890524D01*
X157355496Y-96661125D01*
X157359074Y-96653695D01*
X157479181Y-96436380D01*
X157483573Y-96429389D01*
X157545402Y-96342248D01*
X157566716Y-96322206D01*
X157791586Y-96182594D01*
X157797767Y-96177277D01*
X157811631Y-96167858D01*
X157857934Y-96143557D01*
X157971632Y-96042830D01*
X158057921Y-95917819D01*
X158111785Y-95775791D01*
X158123325Y-95680751D01*
X158130094Y-95625003D01*
X158130094Y-95624996D01*
X158111785Y-95474209D01*
X158057921Y-95332181D01*
X157971632Y-95207170D01*
X157959466Y-95196392D01*
X157857934Y-95106443D01*
X157857932Y-95106442D01*
X157857930Y-95106440D01*
X157723437Y-95035853D01*
X157723434Y-95035852D01*
X157575949Y-94999500D01*
X157424051Y-94999500D01*
X157276562Y-95035853D01*
X157142069Y-95106440D01*
X157028368Y-95207170D01*
X156942077Y-95332184D01*
X156942076Y-95332187D01*
X156934454Y-95352283D01*
X156926520Y-95367557D01*
X156920292Y-95376745D01*
X156920289Y-95376751D01*
X156777680Y-95680751D01*
X156772214Y-95690435D01*
X156594020Y-95957119D01*
X156594012Y-95957132D01*
X156441687Y-96242113D01*
X156441686Y-96242114D01*
X156318020Y-96540669D01*
X156224219Y-96849886D01*
X156224218Y-96849891D01*
X156172720Y-97108788D01*
X156141254Y-97155880D01*
X156085705Y-97166929D01*
X156038613Y-97135463D01*
X156037889Y-97134358D01*
X155976557Y-97038923D01*
X155974628Y-97036346D01*
X155718365Y-96694017D01*
X155661132Y-96627967D01*
X155650467Y-96611782D01*
X155563503Y-96432346D01*
X155507566Y-96316930D01*
X155498812Y-96299904D01*
X155498808Y-96299899D01*
X155497194Y-96297354D01*
X155490486Y-96283946D01*
X155487922Y-96277184D01*
X155487921Y-96277181D01*
X155401632Y-96152170D01*
X155287934Y-96051443D01*
X155287932Y-96051442D01*
X155287930Y-96051440D01*
X155153437Y-95980853D01*
X155153434Y-95980852D01*
X155005949Y-95944500D01*
X154854051Y-95944500D01*
X154706562Y-95980853D01*
X154572069Y-96051440D01*
X154458367Y-96152170D01*
X154372078Y-96277181D01*
X154318214Y-96419209D01*
X154299906Y-96569996D01*
X154299906Y-96570003D01*
X154318214Y-96720790D01*
X154372078Y-96862818D01*
X154405547Y-96911305D01*
X154458368Y-96987830D01*
X154572066Y-97088557D01*
X154572067Y-97088557D01*
X154572069Y-97088559D01*
X154621827Y-97114674D01*
X154635099Y-97123591D01*
X154643032Y-97130270D01*
X154643039Y-97130275D01*
X154882583Y-97274764D01*
X154889275Y-97278800D01*
X154909167Y-97296352D01*
X155086950Y-97521868D01*
X155090366Y-97526569D01*
X155306584Y-97850163D01*
X155309620Y-97855117D01*
X155499781Y-98194675D01*
X155502419Y-98199852D01*
X155602907Y-98417830D01*
X155665355Y-98553290D01*
X155667576Y-98558655D01*
X155675163Y-98579218D01*
X155802276Y-98923775D01*
X155804072Y-98929302D01*
X155909712Y-99303877D01*
X155911068Y-99309527D01*
X155986990Y-99691223D01*
X155987899Y-99696961D01*
X156033641Y-100083442D01*
X156034097Y-100089235D01*
X156049442Y-100479851D01*
X156049499Y-100482756D01*
X156049499Y-100552872D01*
X156049500Y-100552885D01*
X156049500Y-103320875D01*
X156049505Y-103320948D01*
X156049505Y-103545148D01*
X156082603Y-104134516D01*
X156148695Y-104721101D01*
X156148696Y-104721112D01*
X156148697Y-104721113D01*
X156148698Y-104721120D01*
X156247569Y-105303040D01*
X156247573Y-105303057D01*
X156378926Y-105878554D01*
X156457092Y-106149874D01*
X156501931Y-106305514D01*
X156495589Y-106361795D01*
X156451309Y-106397108D01*
X156430823Y-106400000D01*
X144811958Y-106400000D01*
X144802299Y-106399367D01*
X144687355Y-106384234D01*
X144668696Y-106379234D01*
X144566106Y-106336740D01*
X144549380Y-106327084D01*
X144457396Y-106256502D01*
X144450125Y-106250125D01*
X143649874Y-105449874D01*
X143643498Y-105442604D01*
X143572914Y-105350617D01*
X143563259Y-105333893D01*
X143520765Y-105231303D01*
X143515765Y-105212644D01*
X143514824Y-105205499D01*
X143500633Y-105097701D01*
X143500000Y-105088042D01*
X143500000Y-99114500D01*
X143521674Y-99062174D01*
X143574000Y-99040500D01*
X146265743Y-99040500D01*
X146265822Y-99040494D01*
X146354935Y-99040495D01*
X146674287Y-99009043D01*
X146989019Y-98946440D01*
X147296100Y-98853289D01*
X147592571Y-98730487D01*
X147875578Y-98579217D01*
X148142395Y-98400936D01*
X148390452Y-98197361D01*
X148482569Y-98105243D01*
X148493242Y-98097055D01*
X148493161Y-98096949D01*
X148497003Y-98094000D01*
X148497009Y-98093997D01*
X148535123Y-98055881D01*
X148537310Y-98053783D01*
X148576981Y-98017305D01*
X148578298Y-98015228D01*
X148588450Y-98002554D01*
X148995790Y-97595213D01*
X149009905Y-97584170D01*
X149286820Y-97417289D01*
X149287381Y-97416950D01*
X149295078Y-97410452D01*
X149308409Y-97401482D01*
X149357934Y-97375491D01*
X149471632Y-97274764D01*
X149557921Y-97149753D01*
X149600930Y-97036345D01*
X149639750Y-96995106D01*
X149696361Y-96993395D01*
X149722447Y-97010260D01*
X150184283Y-97472096D01*
X150205957Y-97524422D01*
X150184283Y-97576748D01*
X150181037Y-97579804D01*
X150178369Y-97582167D01*
X150178369Y-97582168D01*
X150092078Y-97707181D01*
X150038214Y-97849209D01*
X150019906Y-97999996D01*
X150019906Y-98000003D01*
X150038214Y-98150790D01*
X150092078Y-98292818D01*
X150166710Y-98400940D01*
X150178368Y-98417830D01*
X150292066Y-98518557D01*
X150292067Y-98518557D01*
X150292069Y-98518559D01*
X150319745Y-98533084D01*
X150412057Y-98581533D01*
X150415464Y-98583438D01*
X150424629Y-98588890D01*
X150779200Y-98730314D01*
X150791140Y-98736382D01*
X150833173Y-98762794D01*
X151077298Y-98880361D01*
X151333050Y-98969856D01*
X151597214Y-99030154D01*
X151866469Y-99060497D01*
X151930096Y-99060497D01*
X151930115Y-99060500D01*
X151936067Y-99060500D01*
X151963562Y-99060500D01*
X151984594Y-99063552D01*
X152112492Y-99101465D01*
X152288586Y-99153667D01*
X152298049Y-99156348D01*
X152306770Y-99157283D01*
X152316579Y-99159010D01*
X152424042Y-99185498D01*
X152424045Y-99185498D01*
X152424051Y-99185500D01*
X152424053Y-99185500D01*
X152575945Y-99185500D01*
X152575949Y-99185500D01*
X152723434Y-99149148D01*
X152857934Y-99078557D01*
X152971632Y-98977830D01*
X153057921Y-98852819D01*
X153103292Y-98733186D01*
X153111784Y-98710794D01*
X153111784Y-98710793D01*
X153111785Y-98710791D01*
X153115417Y-98680869D01*
X153143240Y-98631539D01*
X153197797Y-98616329D01*
X153209906Y-98618841D01*
X153272785Y-98637481D01*
X153428553Y-98683658D01*
X153432107Y-98684664D01*
X153438049Y-98686348D01*
X153446770Y-98687283D01*
X153456579Y-98689010D01*
X153564042Y-98715498D01*
X153564045Y-98715498D01*
X153564051Y-98715500D01*
X153564053Y-98715500D01*
X153715945Y-98715500D01*
X153715949Y-98715500D01*
X153863434Y-98679148D01*
X153879511Y-98670709D01*
X153935914Y-98665582D01*
X153979424Y-98701840D01*
X153987674Y-98730428D01*
X153999271Y-98877829D01*
X153999499Y-98883634D01*
X153999498Y-98951558D01*
X153999500Y-98951587D01*
X153999500Y-99863558D01*
X153996448Y-99884590D01*
X153906344Y-100188540D01*
X153903650Y-100198053D01*
X153903649Y-100198056D01*
X153903098Y-100203190D01*
X153898715Y-100221519D01*
X153888214Y-100249211D01*
X153869906Y-100399996D01*
X153869906Y-100400003D01*
X153888214Y-100550790D01*
X153942078Y-100692818D01*
X153942079Y-100692819D01*
X154028368Y-100817830D01*
X154047924Y-100835155D01*
X154057939Y-100845995D01*
X154064686Y-100854945D01*
X154067806Y-100859083D01*
X154186895Y-100974044D01*
X154209488Y-101025979D01*
X154209500Y-101027284D01*
X154209500Y-104043558D01*
X154206448Y-104064590D01*
X154116344Y-104368540D01*
X154113650Y-104378053D01*
X154113649Y-104378056D01*
X154113098Y-104383190D01*
X154108715Y-104401519D01*
X154098214Y-104429211D01*
X154079906Y-104579996D01*
X154079906Y-104580003D01*
X154098214Y-104730790D01*
X154152078Y-104872818D01*
X154152079Y-104872819D01*
X154238368Y-104997830D01*
X154352066Y-105098557D01*
X154352067Y-105098557D01*
X154352069Y-105098559D01*
X154486562Y-105169146D01*
X154486566Y-105169148D01*
X154634051Y-105205500D01*
X154634055Y-105205500D01*
X154785945Y-105205500D01*
X154785949Y-105205500D01*
X154933434Y-105169148D01*
X155067934Y-105098557D01*
X155181632Y-104997830D01*
X155267921Y-104872819D01*
X155321785Y-104730791D01*
X155340094Y-104580000D01*
X155340094Y-104579996D01*
X155321786Y-104429213D01*
X155321785Y-104429212D01*
X155321785Y-104429211D01*
X155321785Y-104429209D01*
X155309312Y-104396321D01*
X155305141Y-104379763D01*
X155303668Y-104368587D01*
X155234281Y-104134516D01*
X155213552Y-104064588D01*
X155210500Y-104043556D01*
X155210500Y-100978034D01*
X155210501Y-100978005D01*
X155210500Y-100972868D01*
X155210502Y-100972865D01*
X155210500Y-100937631D01*
X155210506Y-100937617D01*
X155210504Y-100840074D01*
X155210504Y-100811156D01*
X155194936Y-100712880D01*
X155194073Y-100703949D01*
X155193675Y-100692818D01*
X155193302Y-100682384D01*
X155140127Y-100410078D01*
X155124822Y-100331701D01*
X155122936Y-100326368D01*
X155119240Y-100310613D01*
X155113776Y-100265611D01*
X155111785Y-100249209D01*
X155099312Y-100216321D01*
X155095141Y-100199763D01*
X155093668Y-100188587D01*
X155028039Y-99967196D01*
X155003552Y-99884588D01*
X155000500Y-99863556D01*
X155000500Y-98809910D01*
X155000485Y-98809681D01*
X155000486Y-98764243D01*
X154974447Y-98533090D01*
X154922689Y-98306306D01*
X154845864Y-98086743D01*
X154744938Y-97877163D01*
X154621181Y-97680202D01*
X154476148Y-97498335D01*
X154450908Y-97473095D01*
X154450908Y-97473094D01*
X154415590Y-97437776D01*
X154415577Y-97437745D01*
X154337558Y-97359726D01*
X154208604Y-97266038D01*
X154066570Y-97193673D01*
X153914974Y-97144423D01*
X153892666Y-97140891D01*
X153757536Y-97119496D01*
X153757533Y-97119496D01*
X153677837Y-97119500D01*
X153495572Y-97119500D01*
X153495311Y-97119483D01*
X153490627Y-97119484D01*
X153487279Y-97119484D01*
X153455438Y-97119492D01*
X153455324Y-97119445D01*
X153424735Y-97119452D01*
X153355501Y-97119468D01*
X153355249Y-97119469D01*
X153218974Y-97146613D01*
X153218969Y-97146615D01*
X153090607Y-97199827D01*
X153090599Y-97199831D01*
X153064899Y-97217016D01*
X153023768Y-97229500D01*
X152693970Y-97229500D01*
X152641644Y-97207826D01*
X152619970Y-97155500D01*
X152620094Y-97153445D01*
X152620094Y-97149996D01*
X152601785Y-96999209D01*
X152547921Y-96857181D01*
X152461632Y-96732170D01*
X152347934Y-96631443D01*
X152318140Y-96615806D01*
X152281880Y-96572298D01*
X152279069Y-96559209D01*
X152271785Y-96499209D01*
X152271784Y-96499207D01*
X152271784Y-96499205D01*
X152217921Y-96357181D01*
X152131632Y-96232170D01*
X152017938Y-96131446D01*
X152017932Y-96131442D01*
X151955420Y-96098632D01*
X151944774Y-96091826D01*
X151930296Y-96080721D01*
X151679284Y-95944500D01*
X151651613Y-95929483D01*
X151634583Y-95916769D01*
X150752174Y-95034360D01*
X150730500Y-94982034D01*
X150730500Y-92888937D01*
X150730487Y-92888736D01*
X150730488Y-92829813D01*
X150701442Y-92571986D01*
X150643711Y-92319032D01*
X150578309Y-92132117D01*
X150581486Y-92075571D01*
X150623717Y-92037831D01*
X150667308Y-92036201D01*
X150832851Y-92080560D01*
G37*
%TD.AperFunction*%
%TA.AperFunction,Conductor*%
G36*
X148312029Y-95234769D02*
G01*
X148479919Y-95294418D01*
X148521969Y-95332359D01*
X148524875Y-95388922D01*
X148504216Y-95419538D01*
X148502066Y-95421443D01*
X148388368Y-95522170D01*
X148317390Y-95625000D01*
X148302077Y-95647184D01*
X148300144Y-95652281D01*
X148291934Y-95667022D01*
X148292305Y-95667263D01*
X148290727Y-95669693D01*
X148290722Y-95669701D01*
X148290722Y-95669702D01*
X148253359Y-95738549D01*
X148139483Y-95948386D01*
X148126769Y-95965415D01*
X148015418Y-96076766D01*
X148015417Y-96076765D01*
X147968437Y-96123747D01*
X147965421Y-96126599D01*
X147786128Y-96286829D01*
X147779641Y-96292003D01*
X147585243Y-96429940D01*
X147578216Y-96434355D01*
X147369591Y-96549663D01*
X147362114Y-96553264D01*
X147141891Y-96644486D01*
X147134059Y-96647227D01*
X146904995Y-96713222D01*
X146896904Y-96715068D01*
X146661917Y-96754996D01*
X146653671Y-96755926D01*
X146414082Y-96769384D01*
X146409932Y-96769500D01*
X143574000Y-96769500D01*
X143521674Y-96747826D01*
X143500000Y-96695500D01*
X143500000Y-95304500D01*
X143521674Y-95252174D01*
X143574000Y-95230500D01*
X148287256Y-95230500D01*
X148312029Y-95234769D01*
G37*
%TD.AperFunction*%
%TA.AperFunction,Conductor*%
G36*
X147966674Y-93960502D02*
G01*
X147971577Y-93960501D01*
X147971582Y-93960503D01*
X148033841Y-93960500D01*
X148041089Y-93960855D01*
X148145730Y-93971157D01*
X148159941Y-93973984D01*
X148257066Y-94003443D01*
X148270457Y-94008989D01*
X148359968Y-94056832D01*
X148372023Y-94064887D01*
X148386545Y-94076805D01*
X148398982Y-94087012D01*
X148425680Y-94136962D01*
X148409238Y-94191160D01*
X148369588Y-94216102D01*
X148355025Y-94219657D01*
X148323361Y-94227388D01*
X148305812Y-94229500D01*
X143574000Y-94229500D01*
X143521674Y-94207826D01*
X143500000Y-94155500D01*
X143500000Y-94034500D01*
X143521674Y-93982174D01*
X143574000Y-93960500D01*
X147966630Y-93960500D01*
X147966674Y-93960502D01*
G37*
%TD.AperFunction*%
%TD*%
%TA.AperFunction,Conductor*%
%TO.N,+BATT*%
G36*
X158497701Y-80700633D02*
G01*
X158612646Y-80715765D01*
X158631303Y-80720765D01*
X158733893Y-80763259D01*
X158750617Y-80772914D01*
X158842604Y-80843498D01*
X158849874Y-80849874D01*
X158950125Y-80950125D01*
X158956502Y-80957396D01*
X159027084Y-81049380D01*
X159036740Y-81066106D01*
X159079234Y-81168696D01*
X159084234Y-81187355D01*
X159099367Y-81302298D01*
X159100000Y-81311957D01*
X159100000Y-82176201D01*
X159083441Y-82222855D01*
X159032759Y-82285255D01*
X159022264Y-82295803D01*
X158877912Y-82414273D01*
X158877911Y-82414274D01*
X158183797Y-83108387D01*
X158183665Y-83108537D01*
X158118302Y-83173899D01*
X157908622Y-83423781D01*
X157745103Y-83657309D01*
X157721525Y-83690981D01*
X157558425Y-83973473D01*
X157510508Y-84076231D01*
X157420566Y-84269109D01*
X157308997Y-84575637D01*
X157308996Y-84575642D01*
X157224576Y-84890700D01*
X157224575Y-84890703D01*
X157224574Y-84890709D01*
X157181736Y-85133655D01*
X157167930Y-85211949D01*
X157167927Y-85211972D01*
X157139500Y-85536898D01*
X157139500Y-87901469D01*
X157139342Y-87906309D01*
X157127449Y-88087752D01*
X157126185Y-88097349D01*
X157091189Y-88273288D01*
X157088684Y-88282638D01*
X157031018Y-88452515D01*
X157027314Y-88461457D01*
X156947971Y-88622350D01*
X156943131Y-88630733D01*
X156843467Y-88779891D01*
X156837574Y-88787571D01*
X156719614Y-88922078D01*
X156712037Y-88929556D01*
X156627948Y-89001374D01*
X156574083Y-89018876D01*
X156523619Y-88993163D01*
X156510698Y-88971344D01*
X156457921Y-88832182D01*
X156457921Y-88832181D01*
X156371632Y-88707170D01*
X156257934Y-88606443D01*
X156257932Y-88606442D01*
X156257930Y-88606440D01*
X156123437Y-88535853D01*
X156123434Y-88535852D01*
X155975949Y-88499500D01*
X155824051Y-88499500D01*
X155676562Y-88535853D01*
X155542069Y-88606440D01*
X155428367Y-88707170D01*
X155342078Y-88832181D01*
X155288215Y-88974205D01*
X155284567Y-89004252D01*
X155273618Y-89094420D01*
X155245797Y-89143751D01*
X155200159Y-89159500D01*
X154737095Y-89159500D01*
X154737050Y-89159497D01*
X154732142Y-89159497D01*
X154727576Y-89159497D01*
X154673668Y-89159498D01*
X154668432Y-89159313D01*
X154637299Y-89157104D01*
X154637298Y-89157104D01*
X154637294Y-89157104D01*
X154612849Y-89159217D01*
X154606481Y-89159492D01*
X154583868Y-89159492D01*
X154555489Y-89163988D01*
X154550285Y-89164624D01*
X154255696Y-89190088D01*
X154242286Y-89191473D01*
X154242277Y-89191474D01*
X154241530Y-89191687D01*
X154240231Y-89191867D01*
X154239121Y-89192081D01*
X154239110Y-89192023D01*
X154221321Y-89194500D01*
X154204051Y-89194500D01*
X154056562Y-89230853D01*
X153922069Y-89301440D01*
X153808367Y-89402170D01*
X153722078Y-89527181D01*
X153668214Y-89669209D01*
X153649906Y-89819996D01*
X153649906Y-89820003D01*
X153668214Y-89970790D01*
X153709351Y-90079259D01*
X153707641Y-90135871D01*
X153666401Y-90174691D01*
X153640160Y-90179500D01*
X152075174Y-90179500D01*
X152071024Y-90179384D01*
X151835097Y-90166133D01*
X151826851Y-90165203D01*
X151595969Y-90125973D01*
X151587879Y-90124127D01*
X151424302Y-90077001D01*
X151380021Y-90041688D01*
X151373680Y-89985407D01*
X151383888Y-89963856D01*
X151413944Y-89920310D01*
X151432921Y-89892819D01*
X151486785Y-89750791D01*
X151505094Y-89600000D01*
X151496252Y-89527181D01*
X151486785Y-89449209D01*
X151432921Y-89307181D01*
X151346632Y-89182170D01*
X151232934Y-89081443D01*
X151232932Y-89081442D01*
X151232930Y-89081440D01*
X151098437Y-89010853D01*
X151098434Y-89010852D01*
X150950949Y-88974500D01*
X150799051Y-88974500D01*
X150651562Y-89010853D01*
X150517069Y-89081440D01*
X150403366Y-89182171D01*
X150403364Y-89182173D01*
X150355070Y-89252139D01*
X150307508Y-89282890D01*
X150252133Y-89271002D01*
X150245710Y-89266027D01*
X150053799Y-89099734D01*
X150053790Y-89099727D01*
X150053787Y-89099724D01*
X149878336Y-88968382D01*
X149706807Y-88839976D01*
X149694679Y-88832182D01*
X149342162Y-88605631D01*
X149342157Y-88605628D01*
X149342156Y-88605627D01*
X148977101Y-88406291D01*
X148961738Y-88397902D01*
X148567463Y-88217841D01*
X148567459Y-88217839D01*
X148567447Y-88217834D01*
X148161366Y-88066372D01*
X148161334Y-88066361D01*
X147745471Y-87944251D01*
X147745474Y-87944251D01*
X147321927Y-87852112D01*
X146892887Y-87790424D01*
X146460563Y-87759501D01*
X146460560Y-87759500D01*
X146309720Y-87759500D01*
X146309719Y-87759500D01*
X146243829Y-87759500D01*
X146177937Y-87759499D01*
X146177936Y-87759499D01*
X146173408Y-87759499D01*
X146173392Y-87759500D01*
X145066806Y-87759500D01*
X145014480Y-87737826D01*
X144993346Y-87694420D01*
X144981785Y-87599209D01*
X144927921Y-87457181D01*
X144841632Y-87332170D01*
X144727934Y-87231443D01*
X144727932Y-87231442D01*
X144727930Y-87231440D01*
X144593436Y-87160853D01*
X144593435Y-87160852D01*
X144593434Y-87160852D01*
X144539535Y-87147566D01*
X144531349Y-87145036D01*
X144523097Y-87141951D01*
X144523090Y-87141949D01*
X144523088Y-87141948D01*
X144523086Y-87141947D01*
X144523078Y-87141945D01*
X144488204Y-87134850D01*
X144485251Y-87134186D01*
X144445953Y-87124501D01*
X144445949Y-87124500D01*
X144445945Y-87124500D01*
X144444772Y-87124500D01*
X144430020Y-87123015D01*
X144277105Y-87091906D01*
X144239531Y-87071717D01*
X144227337Y-87059523D01*
X144220956Y-87052246D01*
X144173724Y-86990694D01*
X144164067Y-86973970D01*
X144136242Y-86906798D01*
X144131245Y-86888154D01*
X144121132Y-86811363D01*
X144120500Y-86801713D01*
X144120500Y-85254743D01*
X144120502Y-85254735D01*
X144120502Y-85224089D01*
X144120503Y-85224089D01*
X144120502Y-85080413D01*
X144092336Y-84794445D01*
X144036276Y-84512615D01*
X143983278Y-84337907D01*
X143952864Y-84237645D01*
X143947957Y-84225799D01*
X143842896Y-83972159D01*
X143707439Y-83718737D01*
X143547795Y-83479813D01*
X143516797Y-83442042D01*
X143500000Y-83395097D01*
X143500000Y-81311957D01*
X143500633Y-81302298D01*
X143515766Y-81187351D01*
X143520765Y-81168696D01*
X143563259Y-81066106D01*
X143572911Y-81049385D01*
X143643504Y-80957387D01*
X143649866Y-80950133D01*
X143750133Y-80849866D01*
X143757387Y-80843504D01*
X143849385Y-80772911D01*
X143866102Y-80763260D01*
X143968698Y-80720764D01*
X143987351Y-80715766D01*
X144102299Y-80700633D01*
X144111958Y-80700000D01*
X158488042Y-80700000D01*
X158497701Y-80700633D01*
G37*
%TD.AperFunction*%
%TD*%
%TA.AperFunction,Conductor*%
%TO.N,/SCL_BMS*%
G36*
X148686400Y-91817826D02*
G01*
X148687486Y-91818348D01*
X149051844Y-92017497D01*
X149057460Y-92024472D01*
X149057042Y-92032242D01*
X148987215Y-92200809D01*
X148980883Y-92207140D01*
X148977519Y-92207978D01*
X148602760Y-92243780D01*
X148594198Y-92241155D01*
X148590000Y-92233246D01*
X148589947Y-92232192D01*
X148589086Y-92021991D01*
X148589996Y-92017426D01*
X148671086Y-91824089D01*
X148677446Y-91817786D01*
X148686400Y-91817826D01*
G37*
%TD.AperFunction*%
%TD*%
%TA.AperFunction,Conductor*%
%TO.N,+3.3V*%
G36*
X148802329Y-96775006D02*
G01*
X148996169Y-96854369D01*
X149002527Y-96860675D01*
X149002564Y-96860764D01*
X149082305Y-97055528D01*
X149082268Y-97064483D01*
X149077516Y-97069982D01*
X148776092Y-97251635D01*
X148767237Y-97252970D01*
X148761780Y-97249887D01*
X148632695Y-97120802D01*
X148629268Y-97112529D01*
X148630420Y-97107467D01*
X148787353Y-96780767D01*
X148794023Y-96774795D01*
X148802329Y-96775006D01*
G37*
%TD.AperFunction*%
%TD*%
%TA.AperFunction,Conductor*%
%TO.N,+3.3V*%
G36*
X142453272Y-98217462D02*
G01*
X142454957Y-98218432D01*
X142769960Y-98436511D01*
X142774811Y-98444037D01*
X142775000Y-98446130D01*
X142775000Y-98633869D01*
X142771573Y-98642142D01*
X142769960Y-98643489D01*
X142454957Y-98861567D01*
X142446204Y-98863458D01*
X142444327Y-98862953D01*
X141579512Y-98551006D01*
X141572892Y-98544975D01*
X141572476Y-98536030D01*
X141578507Y-98529410D01*
X141579512Y-98528994D01*
X142444327Y-98217046D01*
X142453272Y-98217462D01*
G37*
%TD.AperFunction*%
%TD*%
%TA.AperFunction,Conductor*%
%TO.N,/SWCLK*%
G36*
X148661835Y-95857870D02*
G01*
X148856169Y-95937435D01*
X148862527Y-95943741D01*
X148862564Y-95943830D01*
X148942128Y-96138162D01*
X148942091Y-96147117D01*
X148936881Y-96152878D01*
X148620190Y-96324741D01*
X148611284Y-96325675D01*
X148606336Y-96322731D01*
X148477268Y-96193663D01*
X148473841Y-96185390D01*
X148475257Y-96179811D01*
X148647123Y-95863116D01*
X148654079Y-95857482D01*
X148661835Y-95857870D01*
G37*
%TD.AperFunction*%
%TD*%
%TA.AperFunction,Conductor*%
%TO.N,Net-(U1-SDA)*%
G36*
X150815753Y-97850780D02*
G01*
X150817051Y-97852340D01*
X151046946Y-98183047D01*
X151048854Y-98191796D01*
X151047471Y-98195575D01*
X150956245Y-98353578D01*
X150949141Y-98359029D01*
X150941778Y-98358595D01*
X150574858Y-98212245D01*
X150568444Y-98205997D01*
X150568326Y-98197043D01*
X150648233Y-98001702D01*
X150650823Y-97997825D01*
X150797561Y-97852340D01*
X150799206Y-97850708D01*
X150807494Y-97847318D01*
X150815753Y-97850780D01*
G37*
%TD.AperFunction*%
%TD*%
%TA.AperFunction,Conductor*%
%TO.N,Net-(U1-SDA)*%
G36*
X152412741Y-98356044D02*
G01*
X152417951Y-98361805D01*
X152499105Y-98555478D01*
X152499142Y-98564433D01*
X152499105Y-98564522D01*
X152417951Y-98758194D01*
X152411593Y-98764500D01*
X152403835Y-98764890D01*
X152058375Y-98662482D01*
X152051417Y-98656845D01*
X152050000Y-98651264D01*
X152050000Y-98468735D01*
X152053427Y-98460462D01*
X152058373Y-98457517D01*
X152403836Y-98355109D01*
X152412741Y-98356044D01*
G37*
%TD.AperFunction*%
%TD*%
%TA.AperFunction,Conductor*%
%TO.N,Net-(J1-Pin_5)*%
G36*
X153552741Y-97886044D02*
G01*
X153557951Y-97891805D01*
X153639105Y-98085478D01*
X153639142Y-98094433D01*
X153639105Y-98094522D01*
X153557951Y-98288194D01*
X153551593Y-98294500D01*
X153543835Y-98294890D01*
X153198375Y-98192482D01*
X153191417Y-98186845D01*
X153190000Y-98181264D01*
X153190000Y-97998735D01*
X153193427Y-97990462D01*
X153198373Y-97987517D01*
X153543836Y-97885109D01*
X153552741Y-97886044D01*
G37*
%TD.AperFunction*%
%TD*%
%TA.AperFunction,Conductor*%
%TO.N,Net-(J1-Pin_5)*%
G36*
X142453272Y-93137462D02*
G01*
X142454957Y-93138432D01*
X142769960Y-93356511D01*
X142774811Y-93364037D01*
X142775000Y-93366130D01*
X142775000Y-93553869D01*
X142771573Y-93562142D01*
X142769960Y-93563489D01*
X142454957Y-93781567D01*
X142446204Y-93783458D01*
X142444327Y-93782953D01*
X141579512Y-93471006D01*
X141572892Y-93464975D01*
X141572476Y-93456030D01*
X141578507Y-93449410D01*
X141579512Y-93448994D01*
X142444327Y-93137046D01*
X142453272Y-93137462D01*
G37*
%TD.AperFunction*%
%TD*%
%TA.AperFunction,Conductor*%
%TO.N,/SCL_BMS*%
G36*
X154599538Y-99953427D02*
G01*
X154602483Y-99958375D01*
X154704890Y-100303835D01*
X154703955Y-100312741D01*
X154698194Y-100317951D01*
X154504522Y-100399105D01*
X154495567Y-100399142D01*
X154495478Y-100399105D01*
X154301805Y-100317951D01*
X154295499Y-100311593D01*
X154295109Y-100303835D01*
X154397517Y-99958375D01*
X154403154Y-99951417D01*
X154408735Y-99950000D01*
X154591265Y-99950000D01*
X154599538Y-99953427D01*
G37*
%TD.AperFunction*%
%TD*%
%TA.AperFunction,Conductor*%
%TO.N,/SDA_ISO*%
G36*
X143254125Y-91722517D02*
G01*
X143261083Y-91728154D01*
X143262500Y-91733735D01*
X143262500Y-91916264D01*
X143259073Y-91924537D01*
X143254125Y-91927482D01*
X142908664Y-92029890D01*
X142899758Y-92028955D01*
X142894548Y-92023194D01*
X142813393Y-91829519D01*
X142813357Y-91820568D01*
X142894549Y-91626803D01*
X142900906Y-91620499D01*
X142908663Y-91620109D01*
X143254125Y-91722517D01*
G37*
%TD.AperFunction*%
%TD*%
%TA.AperFunction,Conductor*%
%TO.N,/SDA_ISO*%
G36*
X151902141Y-96946529D02*
G01*
X151908352Y-96952779D01*
X151989073Y-97145737D01*
X151989104Y-97154691D01*
X151989069Y-97154777D01*
X151908217Y-97347568D01*
X151901857Y-97353872D01*
X151893403Y-97354029D01*
X151597453Y-97245633D01*
X151590863Y-97239570D01*
X151590176Y-97231621D01*
X151637651Y-97054409D01*
X151643102Y-97047306D01*
X151644569Y-97046590D01*
X151893186Y-96946441D01*
X151902141Y-96946529D01*
G37*
%TD.AperFunction*%
%TD*%
%TA.AperFunction,Conductor*%
%TO.N,/SCL_ISO*%
G36*
X151420189Y-96265257D02*
G01*
X151736882Y-96437122D01*
X151742517Y-96444079D01*
X151742128Y-96451837D01*
X151662564Y-96646169D01*
X151656258Y-96652527D01*
X151656169Y-96652564D01*
X151461837Y-96732128D01*
X151452882Y-96732091D01*
X151447122Y-96726882D01*
X151275257Y-96410189D01*
X151274324Y-96401284D01*
X151277266Y-96396338D01*
X151406337Y-96267267D01*
X151414609Y-96263841D01*
X151420189Y-96265257D01*
G37*
%TD.AperFunction*%
%TD*%
%TA.AperFunction,Conductor*%
%TO.N,/SCL_ISO*%
G36*
X143610497Y-91072588D02*
G01*
X143617521Y-91078140D01*
X143619005Y-91083843D01*
X143619005Y-91266386D01*
X143615578Y-91274659D01*
X143610780Y-91277558D01*
X143266259Y-91384714D01*
X143257341Y-91383899D01*
X143251994Y-91378065D01*
X143170893Y-91184519D01*
X143170857Y-91175568D01*
X143252098Y-90981686D01*
X143258455Y-90975382D01*
X143266077Y-90974954D01*
X143610497Y-91072588D01*
G37*
%TD.AperFunction*%
%TD*%
%TA.AperFunction,Conductor*%
%TO.N,Net-(J1-Pin_5)*%
G36*
X157302424Y-95543110D02*
G01*
X157496085Y-95622362D01*
X157502444Y-95628667D01*
X157502481Y-95628755D01*
X157582353Y-95823717D01*
X157582318Y-95832671D01*
X157577697Y-95838092D01*
X157286914Y-96018629D01*
X157278078Y-96020081D01*
X157273448Y-96017836D01*
X157130755Y-95904040D01*
X157126424Y-95896203D01*
X157127457Y-95889926D01*
X157287402Y-95548967D01*
X157294017Y-95542934D01*
X157302424Y-95543110D01*
G37*
%TD.AperFunction*%
%TD*%
%TA.AperFunction,Conductor*%
%TO.N,Net-(J1-Pin_5)*%
G36*
X156742206Y-97346979D02*
G01*
X156750042Y-97351310D01*
X156751717Y-97354159D01*
X156833457Y-97553146D01*
X156833431Y-97562101D01*
X156827154Y-97568384D01*
X156634410Y-97649099D01*
X156625456Y-97649134D01*
X156625368Y-97649097D01*
X156434010Y-97568877D01*
X156427705Y-97562518D01*
X156427743Y-97553564D01*
X156428227Y-97552547D01*
X156534867Y-97354159D01*
X156546598Y-97332333D01*
X156553534Y-97326670D01*
X156558211Y-97326248D01*
X156742206Y-97346979D01*
G37*
%TD.AperFunction*%
%TD*%
%TA.AperFunction,Conductor*%
%TO.N,/SCL_ISO*%
G36*
X142874309Y-84623455D02*
G01*
X142878781Y-84628762D01*
X143163146Y-85302909D01*
X143163204Y-85311863D01*
X143156913Y-85318236D01*
X143156843Y-85318265D01*
X142987122Y-85388563D01*
X142978694Y-85388767D01*
X142254758Y-85129058D01*
X142248128Y-85123039D01*
X142247696Y-85114094D01*
X142247791Y-85113838D01*
X142397344Y-84729913D01*
X142403539Y-84723450D01*
X142405733Y-84722735D01*
X142865494Y-84621881D01*
X142874309Y-84623455D01*
G37*
%TD.AperFunction*%
%TD*%
%TA.AperFunction,Conductor*%
%TO.N,/SCL_ISO*%
G36*
X143269538Y-90733427D02*
G01*
X143272483Y-90738375D01*
X143374890Y-91083835D01*
X143373955Y-91092741D01*
X143368194Y-91097951D01*
X143174522Y-91179105D01*
X143165567Y-91179142D01*
X143165478Y-91179105D01*
X142971805Y-91097951D01*
X142965499Y-91091593D01*
X142965109Y-91083835D01*
X143067517Y-90738375D01*
X143073154Y-90731417D01*
X143078735Y-90730000D01*
X143261265Y-90730000D01*
X143269538Y-90733427D01*
G37*
%TD.AperFunction*%
%TD*%
%TA.AperFunction,Conductor*%
%TO.N,/SDA_ISO*%
G36*
X142407747Y-87830844D02*
G01*
X142792328Y-88170615D01*
X142796259Y-88178661D01*
X142794300Y-88185897D01*
X142503476Y-88619814D01*
X142496023Y-88624778D01*
X142493757Y-88625000D01*
X142306243Y-88625000D01*
X142297970Y-88621573D01*
X142296524Y-88619814D01*
X142005698Y-88185895D01*
X142003940Y-88177117D01*
X142007670Y-88170616D01*
X142392253Y-87830843D01*
X142400722Y-87827934D01*
X142407747Y-87830844D01*
G37*
%TD.AperFunction*%
%TD*%
%TA.AperFunction,Conductor*%
%TO.N,/SDA_ISO*%
G36*
X142648070Y-91422352D02*
G01*
X142960886Y-91657837D01*
X142965434Y-91665550D01*
X142963196Y-91674221D01*
X142962157Y-91675422D01*
X142814629Y-91824200D01*
X142810751Y-91826791D01*
X142616036Y-91906437D01*
X142607081Y-91906397D01*
X142600777Y-91900038D01*
X142600561Y-91899468D01*
X142574850Y-91825891D01*
X142467402Y-91518401D01*
X142467908Y-91509462D01*
X142473133Y-91504119D01*
X142635722Y-91421273D01*
X142644648Y-91420572D01*
X142648070Y-91422352D01*
G37*
%TD.AperFunction*%
%TD*%
%TA.AperFunction,Conductor*%
%TO.N,+3.3V*%
G36*
X142394594Y-83072599D02*
G01*
X142401720Y-83078019D01*
X142402630Y-83079974D01*
X142539466Y-83462752D01*
X142539024Y-83471695D01*
X142532387Y-83477707D01*
X142531203Y-83478061D01*
X141875855Y-83636790D01*
X141867008Y-83635407D01*
X141866601Y-83635147D01*
X141712329Y-83532067D01*
X141707355Y-83524623D01*
X141707897Y-83518173D01*
X141921254Y-82958733D01*
X141927403Y-82952226D01*
X141935163Y-82951590D01*
X142394594Y-83072599D01*
G37*
%TD.AperFunction*%
%TD*%
%TA.AperFunction,Conductor*%
%TO.N,+3.3V*%
G36*
X141853521Y-85500927D02*
G01*
X142552388Y-85770710D01*
X142558871Y-85776886D01*
X142559089Y-85785839D01*
X142559012Y-85786033D01*
X142402836Y-86170031D01*
X142396545Y-86176403D01*
X142394246Y-86177105D01*
X141934726Y-86267068D01*
X141925948Y-86265295D01*
X141921522Y-86259692D01*
X141743933Y-85785839D01*
X141674152Y-85599644D01*
X141674458Y-85590696D01*
X141679794Y-85585116D01*
X141844032Y-85501429D01*
X141852957Y-85500728D01*
X141853521Y-85500927D01*
G37*
%TD.AperFunction*%
%TD*%
%TA.AperFunction,Conductor*%
%TO.N,+3.3V*%
G36*
X142873787Y-82964823D02*
G01*
X142878615Y-82970695D01*
X143096781Y-83555008D01*
X143096464Y-83563957D01*
X143092943Y-83568382D01*
X142945904Y-83681209D01*
X142937254Y-83683527D01*
X142935387Y-83683124D01*
X142260632Y-83478622D01*
X142253709Y-83472943D01*
X142252829Y-83464031D01*
X142253065Y-83463334D01*
X142397202Y-83080029D01*
X142403321Y-83073492D01*
X142405437Y-83072768D01*
X142864947Y-82963405D01*
X142873787Y-82964823D01*
G37*
%TD.AperFunction*%
%TD*%
%TA.AperFunction,Conductor*%
%TO.N,+3.3V*%
G36*
X144069886Y-87463558D02*
G01*
X144442252Y-87539309D01*
X144449676Y-87544316D01*
X144451385Y-87553106D01*
X144450748Y-87555207D01*
X144371608Y-87748505D01*
X144369016Y-87752382D01*
X144219410Y-87900664D01*
X144211122Y-87904054D01*
X144202864Y-87900590D01*
X144202671Y-87900390D01*
X143930117Y-87611993D01*
X143926925Y-87603627D01*
X143930346Y-87595685D01*
X144059282Y-87466749D01*
X144067554Y-87463323D01*
X144069886Y-87463558D01*
G37*
%TD.AperFunction*%
%TD*%
%TA.AperFunction,Conductor*%
%TO.N,Net-(Q1-G)*%
G36*
X138397742Y-90964019D02*
G01*
X138942842Y-91239558D01*
X138948680Y-91246349D01*
X138948006Y-91255278D01*
X138942842Y-91260442D01*
X138397742Y-91535980D01*
X138388813Y-91536654D01*
X138387398Y-91536084D01*
X138006634Y-91353186D01*
X138000660Y-91346515D01*
X138000000Y-91342640D01*
X138000000Y-91157359D01*
X138003427Y-91149086D01*
X138006632Y-91146814D01*
X138387398Y-90963914D01*
X138396339Y-90963421D01*
X138397742Y-90964019D01*
G37*
%TD.AperFunction*%
%TD*%
%TA.AperFunction,Conductor*%
%TO.N,Net-(Q1-G)*%
G36*
X137623808Y-90789482D02*
G01*
X138070604Y-91146487D01*
X138074928Y-91154328D01*
X138075000Y-91155627D01*
X138075000Y-91341338D01*
X138071573Y-91349611D01*
X138066716Y-91352528D01*
X137558595Y-91507621D01*
X137549681Y-91506759D01*
X137546552Y-91504335D01*
X137207360Y-91134124D01*
X137204298Y-91125709D01*
X137208083Y-91117593D01*
X137208556Y-91117183D01*
X137609100Y-90789566D01*
X137617673Y-90786981D01*
X137623808Y-90789482D01*
G37*
%TD.AperFunction*%
%TD*%
%TA.AperFunction,Conductor*%
%TO.N,Net-(Q1-G)*%
G36*
X139617654Y-91259053D02*
G01*
X139625874Y-91262603D01*
X139628092Y-91265828D01*
X139763174Y-91556974D01*
X139763548Y-91565921D01*
X139760932Y-91570072D01*
X139631353Y-91702778D01*
X139623121Y-91706303D01*
X139620541Y-91706047D01*
X138900788Y-91552508D01*
X138893412Y-91547430D01*
X138891786Y-91538624D01*
X138891857Y-91538314D01*
X138957786Y-91265828D01*
X138959586Y-91258386D01*
X138964862Y-91251152D01*
X138971128Y-91249440D01*
X139617654Y-91259053D01*
G37*
%TD.AperFunction*%
%TD*%
%TA.AperFunction,Conductor*%
%TO.N,Net-(Q1-G)*%
G36*
X148542741Y-92456044D02*
G01*
X148547951Y-92461805D01*
X148629105Y-92655478D01*
X148629142Y-92664433D01*
X148629105Y-92664522D01*
X148547951Y-92858194D01*
X148541593Y-92864500D01*
X148533835Y-92864890D01*
X148188375Y-92762482D01*
X148181417Y-92756845D01*
X148180000Y-92751264D01*
X148180000Y-92568735D01*
X148183427Y-92560462D01*
X148188373Y-92557517D01*
X148533836Y-92455109D01*
X148542741Y-92456044D01*
G37*
%TD.AperFunction*%
%TD*%
%TA.AperFunction,Conductor*%
%TO.N,Net-(Q1-D)*%
G36*
X141246047Y-90306989D02*
G01*
X141246075Y-90307015D01*
X141552633Y-90593549D01*
X141556337Y-90601702D01*
X141554684Y-90608105D01*
X141383406Y-90894308D01*
X141376217Y-90899647D01*
X141373366Y-90900000D01*
X141185897Y-90900000D01*
X141177624Y-90896573D01*
X141176492Y-90895259D01*
X140963809Y-90607803D01*
X140961644Y-90599116D01*
X140964639Y-90592887D01*
X141229514Y-90307600D01*
X141237652Y-90303871D01*
X141246047Y-90306989D01*
G37*
%TD.AperFunction*%
%TD*%
%TA.AperFunction,Conductor*%
%TO.N,Net-(Q1-D)*%
G36*
X141379538Y-90593427D02*
G01*
X141382483Y-90598375D01*
X141484890Y-90943835D01*
X141483955Y-90952741D01*
X141478194Y-90957951D01*
X141284522Y-91039105D01*
X141275567Y-91039142D01*
X141275478Y-91039105D01*
X141081805Y-90957951D01*
X141075499Y-90951593D01*
X141075109Y-90943835D01*
X141177517Y-90598375D01*
X141183154Y-90591417D01*
X141188735Y-90590000D01*
X141371265Y-90590000D01*
X141379538Y-90593427D01*
G37*
%TD.AperFunction*%
%TD*%
%TA.AperFunction,Conductor*%
%TO.N,Net-(J4-Pin_1)*%
G36*
X144751625Y-89607517D02*
G01*
X144758583Y-89613154D01*
X144760000Y-89618735D01*
X144760000Y-89801264D01*
X144756573Y-89809537D01*
X144751625Y-89812482D01*
X144406164Y-89914890D01*
X144397258Y-89913955D01*
X144392048Y-89908194D01*
X144310893Y-89714519D01*
X144310857Y-89705568D01*
X144392049Y-89511803D01*
X144398406Y-89505499D01*
X144406163Y-89505109D01*
X144751625Y-89607517D01*
G37*
%TD.AperFunction*%
%TD*%
%TA.AperFunction,Conductor*%
%TO.N,Net-(J4-Pin_1)*%
G36*
X165488858Y-89385514D02*
G01*
X165867378Y-89460150D01*
X165874831Y-89465113D01*
X165876729Y-89470219D01*
X165971565Y-90251620D01*
X165969160Y-90260246D01*
X165962115Y-90264528D01*
X165616779Y-90329566D01*
X165608015Y-90327729D01*
X165606341Y-90326341D01*
X165472751Y-90192751D01*
X165469324Y-90184478D01*
X165474899Y-89396908D01*
X165478385Y-89388662D01*
X165486682Y-89385294D01*
X165488858Y-89385514D01*
G37*
%TD.AperFunction*%
%TD*%
%TA.AperFunction,Conductor*%
%TO.N,Net-(J4-Pin_2)*%
G36*
X144351625Y-89117517D02*
G01*
X144358583Y-89123154D01*
X144360000Y-89128735D01*
X144360000Y-89311264D01*
X144356573Y-89319537D01*
X144351625Y-89322482D01*
X144006164Y-89424890D01*
X143997258Y-89423955D01*
X143992048Y-89418194D01*
X143910893Y-89224519D01*
X143910857Y-89215568D01*
X143992049Y-89021803D01*
X143998406Y-89015499D01*
X144006163Y-89015109D01*
X144351625Y-89117517D01*
G37*
%TD.AperFunction*%
%TD*%
%TA.AperFunction,Conductor*%
%TO.N,Net-(J4-Pin_2)*%
G36*
X164237292Y-89368016D02*
G01*
X164617138Y-89459731D01*
X164624375Y-89465004D01*
X164626081Y-89470619D01*
X164658613Y-90254523D01*
X164655532Y-90262931D01*
X164651638Y-90265716D01*
X164219637Y-90455929D01*
X164210684Y-90456127D01*
X164206541Y-90453385D01*
X164076748Y-90320155D01*
X164073430Y-90311838D01*
X164073574Y-90310154D01*
X164222998Y-89377537D01*
X164227691Y-89369912D01*
X164236402Y-89367837D01*
X164237292Y-89368016D01*
G37*
%TD.AperFunction*%
%TD*%
%TA.AperFunction,Conductor*%
%TO.N,Net-(J4-Pin_3)*%
G36*
X144781625Y-88627517D02*
G01*
X144788583Y-88633154D01*
X144790000Y-88638735D01*
X144790000Y-88821264D01*
X144786573Y-88829537D01*
X144781625Y-88832482D01*
X144436164Y-88934890D01*
X144427258Y-88933955D01*
X144422048Y-88928194D01*
X144340893Y-88734519D01*
X144340857Y-88725568D01*
X144422049Y-88531803D01*
X144428406Y-88525499D01*
X144436163Y-88525109D01*
X144781625Y-88627517D01*
G37*
%TD.AperFunction*%
%TD*%
%TA.AperFunction,Conductor*%
%TO.N,Net-(J4-Pin_3)*%
G36*
X162987043Y-89364280D02*
G01*
X163367151Y-89459722D01*
X163374341Y-89465061D01*
X163375999Y-89470798D01*
X163394226Y-90255045D01*
X163390992Y-90263396D01*
X163387714Y-90265805D01*
X162921485Y-90496302D01*
X162912550Y-90496897D01*
X162907018Y-90492936D01*
X162794299Y-90346036D01*
X162791981Y-90337387D01*
X162792077Y-90336782D01*
X162972709Y-89373473D01*
X162977601Y-89365975D01*
X162986364Y-89364131D01*
X162987043Y-89364280D01*
G37*
%TD.AperFunction*%
%TD*%
%TA.AperFunction,Conductor*%
%TO.N,GNDEXT*%
G36*
X144371625Y-88157517D02*
G01*
X144378583Y-88163154D01*
X144380000Y-88168735D01*
X144380000Y-88351264D01*
X144376573Y-88359537D01*
X144371625Y-88362482D01*
X144317021Y-88378668D01*
X144315526Y-88379006D01*
X144230338Y-88392499D01*
X144175605Y-88420386D01*
X144173619Y-88421178D01*
X144026164Y-88464890D01*
X144017258Y-88463956D01*
X144012049Y-88458196D01*
X143930893Y-88264519D01*
X143930857Y-88255568D01*
X144012049Y-88061803D01*
X144018406Y-88055499D01*
X144026163Y-88055109D01*
X144371625Y-88157517D01*
G37*
%TD.AperFunction*%
%TD*%
%TA.AperFunction,Conductor*%
%TO.N,GNDEXT*%
G36*
X161737534Y-89363174D02*
G01*
X161745145Y-89365108D01*
X162117055Y-89459595D01*
X162124230Y-89464954D01*
X162125872Y-89470718D01*
X162140385Y-90253209D01*
X162137112Y-90261544D01*
X162131546Y-90264771D01*
X161743717Y-90362518D01*
X161734858Y-90361217D01*
X161732585Y-90359446D01*
X161600030Y-90226891D01*
X161596603Y-90218618D01*
X161596732Y-90216886D01*
X161723085Y-89372783D01*
X161727699Y-89365108D01*
X161736388Y-89362944D01*
X161737534Y-89363174D01*
G37*
%TD.AperFunction*%
%TD*%
%TA.AperFunction,Conductor*%
%TO.N,GND*%
G36*
X141652142Y-95353427D02*
G01*
X141653489Y-95355040D01*
X141869450Y-95666984D01*
X141871341Y-95675737D01*
X141868116Y-95681904D01*
X141558286Y-95992688D01*
X141550018Y-95996128D01*
X141541740Y-95992714D01*
X141541714Y-95992688D01*
X141231883Y-95681904D01*
X141228469Y-95673626D01*
X141230548Y-95666985D01*
X141446511Y-95355040D01*
X141454038Y-95350189D01*
X141456131Y-95350000D01*
X141643869Y-95350000D01*
X141652142Y-95353427D01*
G37*
%TD.AperFunction*%
%TD*%
%TA.AperFunction,Conductor*%
%TO.N,GND*%
G36*
X141748194Y-95352048D02*
G01*
X141754500Y-95358406D01*
X141754890Y-95366164D01*
X141652483Y-95711625D01*
X141646846Y-95718583D01*
X141641265Y-95720000D01*
X141458735Y-95720000D01*
X141450462Y-95716573D01*
X141447517Y-95711625D01*
X141345109Y-95366164D01*
X141346044Y-95357258D01*
X141351803Y-95352049D01*
X141545480Y-95270893D01*
X141554431Y-95270857D01*
X141748194Y-95352048D01*
G37*
%TD.AperFunction*%
%TD*%
%TA.AperFunction,Conductor*%
%TO.N,/TS*%
G36*
X134758261Y-98607276D02*
G01*
X134758272Y-98607288D01*
X134758282Y-98607298D01*
X135141956Y-98991274D01*
X135145380Y-98999549D01*
X135141950Y-99007820D01*
X135141502Y-99008245D01*
X134854426Y-99266314D01*
X134846699Y-99269313D01*
X134655688Y-99270859D01*
X134647758Y-99267849D01*
X134646055Y-99266314D01*
X134359806Y-99008233D01*
X134355957Y-99000148D01*
X134358951Y-98991708D01*
X134359350Y-98991287D01*
X134359363Y-98991274D01*
X134741716Y-98607311D01*
X134749981Y-98603868D01*
X134758261Y-98607276D01*
G37*
%TD.AperFunction*%
%TD*%
%TA.AperFunction,Conductor*%
%TO.N,/TS*%
G36*
X137203385Y-105211877D02*
G01*
X137361776Y-105303173D01*
X137507243Y-105387020D01*
X137512699Y-105394121D01*
X137512227Y-105401591D01*
X137432517Y-105596213D01*
X137426210Y-105602571D01*
X137426122Y-105602607D01*
X137232098Y-105682022D01*
X137223143Y-105681985D01*
X137217240Y-105676502D01*
X137049885Y-105347669D01*
X137049187Y-105338742D01*
X137052597Y-105333568D01*
X137189831Y-105213217D01*
X137198309Y-105210340D01*
X137203385Y-105211877D01*
G37*
%TD.AperFunction*%
%TD*%
%TA.AperFunction,Conductor*%
%TO.N,/SWCLK*%
G36*
X139753272Y-96947462D02*
G01*
X139754957Y-96948432D01*
X140069960Y-97166511D01*
X140074811Y-97174037D01*
X140075000Y-97176130D01*
X140075000Y-97363869D01*
X140071573Y-97372142D01*
X140069960Y-97373489D01*
X139754957Y-97591567D01*
X139746204Y-97593458D01*
X139744327Y-97592953D01*
X138879512Y-97281006D01*
X138872892Y-97274975D01*
X138872476Y-97266030D01*
X138878507Y-97259410D01*
X138879512Y-97258994D01*
X139744327Y-96947046D01*
X139753272Y-96947462D01*
G37*
%TD.AperFunction*%
%TD*%
%TA.AperFunction,Conductor*%
%TO.N,/CELL1*%
G36*
X138878742Y-101418648D02*
G01*
X139071071Y-101497350D01*
X139077430Y-101503654D01*
X139077466Y-101503742D01*
X139156917Y-101697655D01*
X139156883Y-101706610D01*
X139151146Y-101712643D01*
X138939613Y-101813974D01*
X138930671Y-101814457D01*
X138927436Y-101812704D01*
X138781052Y-101700380D01*
X138776574Y-101692625D01*
X138777060Y-101687442D01*
X138863201Y-101425818D01*
X138869043Y-101419032D01*
X138877973Y-101418365D01*
X138878742Y-101418648D01*
G37*
%TD.AperFunction*%
%TD*%
%TA.AperFunction,Conductor*%
%TO.N,/CELL1*%
G36*
X135551874Y-97290887D02*
G01*
X135553830Y-97293039D01*
X135699026Y-97499411D01*
X135875332Y-97750000D01*
X135902686Y-97788878D01*
X135904644Y-97797616D01*
X135901390Y-97803883D01*
X135771201Y-97934072D01*
X135762928Y-97937499D01*
X135760965Y-97937333D01*
X134672511Y-97752063D01*
X134664930Y-97747297D01*
X134662940Y-97738566D01*
X134663048Y-97738015D01*
X134747415Y-97357754D01*
X134752551Y-97350422D01*
X134757933Y-97348627D01*
X135543363Y-97288106D01*
X135551874Y-97290887D01*
G37*
%TD.AperFunction*%
%TD*%
%TA.AperFunction,Conductor*%
%TO.N,/CELL1*%
G36*
X138683176Y-107487549D02*
G01*
X140006468Y-108095148D01*
X140012557Y-108101715D01*
X140012249Y-108110597D01*
X139703014Y-108795295D01*
X139696486Y-108801424D01*
X139694487Y-108801982D01*
X138910421Y-108947599D01*
X138901662Y-108945741D01*
X138897048Y-108939354D01*
X138507027Y-107593829D01*
X138508015Y-107584931D01*
X138512412Y-107580442D01*
X138672445Y-107488048D01*
X138681322Y-107486881D01*
X138683176Y-107487549D01*
G37*
%TD.AperFunction*%
%TD*%
%TA.AperFunction,Conductor*%
%TO.N,/CELL1*%
G36*
X139070195Y-101279252D02*
G01*
X139074905Y-101286868D01*
X139075057Y-101288697D01*
X139075940Y-101497931D01*
X139075029Y-101502505D01*
X138993561Y-101696748D01*
X138987201Y-101703052D01*
X138978247Y-101703012D01*
X138977919Y-101702869D01*
X138612371Y-101536254D01*
X138606265Y-101529705D01*
X138606097Y-101521995D01*
X138662468Y-101348498D01*
X138668282Y-101341690D01*
X138671710Y-101340568D01*
X139061479Y-101277198D01*
X139070195Y-101279252D01*
G37*
%TD.AperFunction*%
%TD*%
%TA.AperFunction,Conductor*%
%TO.N,Net-(J3-Pin_1)*%
G36*
X135552311Y-93404998D02*
G01*
X135554678Y-93406887D01*
X135954459Y-93821195D01*
X135957738Y-93829528D01*
X135956172Y-93835169D01*
X135863957Y-93994885D01*
X135856853Y-94000336D01*
X135853818Y-94000735D01*
X134711047Y-94000008D01*
X134702776Y-93996576D01*
X134699354Y-93988301D01*
X134699448Y-93986831D01*
X134748114Y-93607448D01*
X134752565Y-93599681D01*
X134756912Y-93597582D01*
X135543460Y-93403651D01*
X135552311Y-93404998D01*
G37*
%TD.AperFunction*%
%TD*%
%TA.AperFunction,Conductor*%
%TO.N,Net-(J3-Pin_1)*%
G36*
X139069915Y-95879471D02*
G01*
X139074848Y-95886945D01*
X139075060Y-95889112D01*
X139075954Y-96097877D01*
X139075044Y-96102452D01*
X138993398Y-96297136D01*
X138987038Y-96303440D01*
X138978136Y-96303423D01*
X138614160Y-96152889D01*
X138607825Y-96146560D01*
X138607331Y-96139049D01*
X138654543Y-95962851D01*
X138659993Y-95955750D01*
X138663621Y-95954395D01*
X139061143Y-95877674D01*
X139069915Y-95879471D01*
G37*
%TD.AperFunction*%
%TD*%
%TA.AperFunction,Conductor*%
%TO.N,Net-(J3-Pin_3)*%
G36*
X135541928Y-95849962D02*
G01*
X135544490Y-95851754D01*
X135962106Y-96236414D01*
X135965869Y-96244540D01*
X135964311Y-96250870D01*
X135871773Y-96411150D01*
X135864669Y-96416601D01*
X135863511Y-96416850D01*
X135354535Y-96499265D01*
X135346176Y-96497451D01*
X134769367Y-96112987D01*
X134764383Y-96105547D01*
X134766120Y-96096762D01*
X134772297Y-96092105D01*
X135533005Y-95849214D01*
X135541928Y-95849962D01*
G37*
%TD.AperFunction*%
%TD*%
%TA.AperFunction,Conductor*%
%TO.N,Net-(J3-Pin_3)*%
G36*
X139070340Y-99479147D02*
G01*
X139074932Y-99486835D01*
X139075056Y-99488485D01*
X139075940Y-99697931D01*
X139075029Y-99702505D01*
X138993636Y-99896570D01*
X138987276Y-99902874D01*
X138978322Y-99902834D01*
X138977826Y-99902613D01*
X138613700Y-99729615D01*
X138607698Y-99722969D01*
X138607594Y-99715434D01*
X138663978Y-99541898D01*
X138669792Y-99535091D01*
X138673400Y-99533941D01*
X139061657Y-99476958D01*
X139070340Y-99479147D01*
G37*
%TD.AperFunction*%
%TD*%
%TA.AperFunction,Conductor*%
%TO.N,Net-(J3-Pin_2)*%
G36*
X138832741Y-98036044D02*
G01*
X138837951Y-98041805D01*
X138919105Y-98235478D01*
X138919142Y-98244433D01*
X138919105Y-98244522D01*
X138837951Y-98438194D01*
X138831593Y-98444500D01*
X138823835Y-98444890D01*
X138478375Y-98342482D01*
X138471417Y-98336845D01*
X138470000Y-98331264D01*
X138470000Y-98148735D01*
X138473427Y-98140462D01*
X138478373Y-98137517D01*
X138823836Y-98035109D01*
X138832741Y-98036044D01*
G37*
%TD.AperFunction*%
%TD*%
%TA.AperFunction,Conductor*%
%TO.N,Net-(J3-Pin_2)*%
G36*
X135544648Y-94613695D02*
G01*
X135547132Y-94615484D01*
X135964433Y-95008504D01*
X135968106Y-95016671D01*
X135966543Y-95022871D01*
X135874103Y-95182978D01*
X135866999Y-95188429D01*
X135865352Y-95188746D01*
X135354282Y-95249490D01*
X135346412Y-95247608D01*
X134769808Y-94863280D01*
X134764824Y-94855840D01*
X134766561Y-94847055D01*
X134772924Y-94842341D01*
X135535741Y-94612797D01*
X135544648Y-94613695D01*
G37*
%TD.AperFunction*%
%TD*%
%TA.AperFunction,Conductor*%
%TO.N,/SCL_BMS*%
G36*
X154809538Y-104133427D02*
G01*
X154812483Y-104138375D01*
X154914890Y-104483835D01*
X154913955Y-104492741D01*
X154908194Y-104497951D01*
X154714522Y-104579105D01*
X154705567Y-104579142D01*
X154705478Y-104579105D01*
X154511805Y-104497951D01*
X154505499Y-104491593D01*
X154505109Y-104483835D01*
X154607517Y-104138375D01*
X154613154Y-104131417D01*
X154618735Y-104130000D01*
X154801265Y-104130000D01*
X154809538Y-104133427D01*
G37*
%TD.AperFunction*%
%TD*%
%TA.AperFunction,Conductor*%
%TO.N,/SCL_BMS*%
G36*
X154715406Y-100399958D02*
G01*
X154723664Y-100403421D01*
X154726838Y-100409416D01*
X154795319Y-100760101D01*
X154793541Y-100768877D01*
X154786119Y-100773818D01*
X154607402Y-100809370D01*
X154598619Y-100807623D01*
X154596993Y-100806313D01*
X154560975Y-100771544D01*
X154349437Y-100567339D01*
X154345865Y-100559127D01*
X154349145Y-100550795D01*
X154349195Y-100550742D01*
X154496352Y-100402497D01*
X154504613Y-100399041D01*
X154504631Y-100399041D01*
X154715406Y-100399958D01*
G37*
%TD.AperFunction*%
%TD*%
%TA.AperFunction,Conductor*%
%TO.N,Net-(U2-PA2)*%
G36*
X155321625Y-90097517D02*
G01*
X155328583Y-90103154D01*
X155330000Y-90108735D01*
X155330000Y-90291264D01*
X155326573Y-90299537D01*
X155321625Y-90302482D01*
X154976164Y-90404890D01*
X154967258Y-90403955D01*
X154962048Y-90398194D01*
X154880893Y-90204519D01*
X154880857Y-90195568D01*
X154962049Y-90001803D01*
X154968406Y-89995499D01*
X154976163Y-89995109D01*
X155321625Y-90097517D01*
G37*
%TD.AperFunction*%
%TD*%
%TA.AperFunction,Conductor*%
%TO.N,Net-(U2-PA2)*%
G36*
X164799181Y-82102928D02*
G01*
X164803282Y-82109185D01*
X164921624Y-82563754D01*
X164920392Y-82572624D01*
X164913326Y-82578004D01*
X163472534Y-82963662D01*
X163463656Y-82962491D01*
X163461236Y-82960633D01*
X163330220Y-82829617D01*
X163326793Y-82821344D01*
X163327760Y-82816687D01*
X163572329Y-82253350D01*
X163578766Y-82247128D01*
X163581653Y-82246396D01*
X164790558Y-82100517D01*
X164799181Y-82102928D01*
G37*
%TD.AperFunction*%
%TD*%
%TA.AperFunction,Conductor*%
%TO.N,Net-(U2-PA3)*%
G36*
X160991516Y-82098736D02*
G01*
X160999533Y-82102725D01*
X161002260Y-82108544D01*
X161075528Y-82562647D01*
X161073462Y-82571361D01*
X161065841Y-82576062D01*
X161065063Y-82576161D01*
X159454472Y-82726281D01*
X159445916Y-82723636D01*
X159444239Y-82721926D01*
X159329352Y-82577866D01*
X159326873Y-82569261D01*
X159329417Y-82563195D01*
X159771170Y-82019302D01*
X159779046Y-82015041D01*
X159781057Y-82015007D01*
X160991516Y-82098736D01*
G37*
%TD.AperFunction*%
%TD*%
%TA.AperFunction,Conductor*%
%TO.N,Net-(U2-PA3)*%
G36*
X154680756Y-89563800D02*
G01*
X154684883Y-89571747D01*
X154684926Y-89572755D01*
X154684926Y-89754755D01*
X154681499Y-89763028D01*
X154681011Y-89763489D01*
X154447320Y-89971771D01*
X154438863Y-89974718D01*
X154431288Y-89971336D01*
X154352405Y-89892946D01*
X154282473Y-89823451D01*
X154279021Y-89815191D01*
X154279952Y-89605682D01*
X154283416Y-89597426D01*
X154290641Y-89594080D01*
X154672219Y-89561098D01*
X154680756Y-89563800D01*
G37*
%TD.AperFunction*%
%TD*%
%TA.AperFunction,Conductor*%
%TO.N,/PWR_SWITCH*%
G36*
X155136658Y-96488095D02*
G01*
X155142664Y-96493782D01*
X155305336Y-96829427D01*
X155305860Y-96838367D01*
X155302328Y-96843493D01*
X155162508Y-96960816D01*
X155153967Y-96963508D01*
X155148944Y-96961872D01*
X154852479Y-96783050D01*
X154847165Y-96775842D01*
X154847694Y-96768599D01*
X154927500Y-96573768D01*
X154933805Y-96567413D01*
X155127705Y-96488057D01*
X155136658Y-96488095D01*
G37*
%TD.AperFunction*%
%TD*%
%TA.AperFunction,Conductor*%
%TO.N,/PWR_SWITCH*%
G36*
X164135112Y-117155001D02*
G01*
X164137644Y-117157598D01*
X164462509Y-117615565D01*
X164464500Y-117624295D01*
X164463597Y-117627221D01*
X164134673Y-118342754D01*
X164128103Y-118348839D01*
X164119155Y-118348498D01*
X164113869Y-118343646D01*
X163742962Y-117690783D01*
X163741855Y-117681897D01*
X163742213Y-117680812D01*
X163933079Y-117186622D01*
X163939255Y-117180141D01*
X163942325Y-117179258D01*
X164126438Y-117152786D01*
X164135112Y-117155001D01*
G37*
%TD.AperFunction*%
%TD*%
%TA.AperFunction,Conductor*%
%TO.N,/SWDIO*%
G36*
X139753272Y-94407462D02*
G01*
X139754957Y-94408432D01*
X140069960Y-94626511D01*
X140074811Y-94634037D01*
X140075000Y-94636130D01*
X140075000Y-94823869D01*
X140071573Y-94832142D01*
X140069960Y-94833489D01*
X139754957Y-95051567D01*
X139746204Y-95053458D01*
X139744327Y-95052953D01*
X138879512Y-94741006D01*
X138872892Y-94734975D01*
X138872476Y-94726030D01*
X138878507Y-94719410D01*
X138879512Y-94718994D01*
X139744327Y-94407046D01*
X139753272Y-94407462D01*
G37*
%TD.AperFunction*%
%TD*%
%TA.AperFunction,Conductor*%
%TO.N,/SWDIO*%
G36*
X148743040Y-94545863D02*
G01*
X148747756Y-94551340D01*
X148829105Y-94745478D01*
X148829142Y-94754433D01*
X148829105Y-94754522D01*
X148748173Y-94947664D01*
X148741815Y-94953970D01*
X148733465Y-94954167D01*
X148391761Y-94832765D01*
X148385113Y-94826766D01*
X148383978Y-94821740D01*
X148383978Y-94639186D01*
X148387405Y-94630913D01*
X148392899Y-94627821D01*
X148734191Y-94544496D01*
X148743040Y-94545863D01*
G37*
%TD.AperFunction*%
%TD*%
M02*
