%TF.GenerationSoftware,KiCad,Pcbnew,8.0.5*%
%TF.CreationDate,2024-10-03T20:59:06+02:00*%
%TF.ProjectId,BatteryMonitor,42617474-6572-4794-9d6f-6e69746f722e,rev?*%
%TF.SameCoordinates,Original*%
%TF.FileFunction,Copper,L4,Bot*%
%TF.FilePolarity,Positive*%
%FSLAX46Y46*%
G04 Gerber Fmt 4.6, Leading zero omitted, Abs format (unit mm)*
G04 Created by KiCad (PCBNEW 8.0.5) date 2024-10-03 20:59:06*
%MOMM*%
%LPD*%
G01*
G04 APERTURE LIST*
G04 Aperture macros list*
%AMRoundRect*
0 Rectangle with rounded corners*
0 $1 Rounding radius*
0 $2 $3 $4 $5 $6 $7 $8 $9 X,Y pos of 4 corners*
0 Add a 4 corners polygon primitive as box body*
4,1,4,$2,$3,$4,$5,$6,$7,$8,$9,$2,$3,0*
0 Add four circle primitives for the rounded corners*
1,1,$1+$1,$2,$3*
1,1,$1+$1,$4,$5*
1,1,$1+$1,$6,$7*
1,1,$1+$1,$8,$9*
0 Add four rect primitives between the rounded corners*
20,1,$1+$1,$2,$3,$4,$5,0*
20,1,$1+$1,$4,$5,$6,$7,0*
20,1,$1+$1,$6,$7,$8,$9,0*
20,1,$1+$1,$8,$9,$2,$3,0*%
G04 Aperture macros list end*
%TA.AperFunction,SMDPad,CuDef*%
%ADD10RoundRect,0.200000X-0.200000X-0.600000X0.200000X-0.600000X0.200000X0.600000X-0.200000X0.600000X0*%
%TD*%
%TA.AperFunction,SMDPad,CuDef*%
%ADD11RoundRect,0.525000X-0.525000X-0.975000X0.525000X-0.975000X0.525000X0.975000X-0.525000X0.975000X0*%
%TD*%
%TA.AperFunction,SMDPad,CuDef*%
%ADD12RoundRect,0.200000X0.600000X-0.200000X0.600000X0.200000X-0.600000X0.200000X-0.600000X-0.200000X0*%
%TD*%
%TA.AperFunction,SMDPad,CuDef*%
%ADD13RoundRect,0.525000X0.975000X-0.525000X0.975000X0.525000X-0.975000X0.525000X-0.975000X-0.525000X0*%
%TD*%
%TA.AperFunction,ComponentPad*%
%ADD14C,2.300000*%
%TD*%
%TA.AperFunction,SMDPad,CuDef*%
%ADD15RoundRect,0.237500X0.987500X0.237500X-0.987500X0.237500X-0.987500X-0.237500X0.987500X-0.237500X0*%
%TD*%
%TA.AperFunction,SMDPad,CuDef*%
%ADD16R,1.600000X1.400000*%
%TD*%
%TA.AperFunction,ComponentPad*%
%ADD17C,3.000000*%
%TD*%
%TA.AperFunction,ComponentPad*%
%ADD18C,1.600000*%
%TD*%
%TA.AperFunction,ComponentPad*%
%ADD19C,1.800000*%
%TD*%
%TA.AperFunction,SMDPad,CuDef*%
%ADD20R,1.800000X0.650000*%
%TD*%
%TA.AperFunction,ViaPad*%
%ADD21C,0.450000*%
%TD*%
%TA.AperFunction,Conductor*%
%ADD22C,0.200000*%
%TD*%
G04 APERTURE END LIST*
D10*
%TO.P,J7,1,Pin_1*%
%TO.N,/PWR_SWITCH*%
X164125000Y-118362500D03*
%TO.P,J7,2,Pin_2*%
%TO.N,GND*%
X162875000Y-118362500D03*
D11*
%TO.P,J7,M*%
%TO.N,N/C*%
X160325000Y-115462500D03*
X166675000Y-115462500D03*
%TD*%
D10*
%TO.P,J4,1,Pin_1*%
%TO.N,Net-(J4-Pin_1)*%
X165875000Y-89462500D03*
%TO.P,J4,2,Pin_2*%
%TO.N,/SDA_EXT*%
X164625000Y-89462500D03*
%TO.P,J4,3,Pin_3*%
%TO.N,Net-(J4-Pin_3)*%
X163375000Y-89462500D03*
%TO.P,J4,4,Pin_4*%
%TO.N,GND*%
X162125000Y-89462500D03*
D11*
%TO.P,J4,M*%
%TO.N,N/C*%
X159575000Y-86562500D03*
X168425000Y-86562500D03*
%TD*%
D12*
%TO.P,J3,1,Pin_1*%
%TO.N,Net-(J3-Pin_1)*%
X134750000Y-93600000D03*
%TO.P,J3,2,Pin_2*%
%TO.N,Net-(J3-Pin_2)*%
X134750000Y-94850000D03*
%TO.P,J3,3,Pin_3*%
%TO.N,Net-(J3-Pin_3)*%
X134750000Y-96100000D03*
%TO.P,J3,4,Pin_4*%
%TO.N,/CELL1*%
X134750000Y-97350000D03*
%TO.P,J3,5,Pin_5*%
%TO.N,/TS*%
X134750000Y-98600000D03*
D13*
%TO.P,J3,M*%
%TO.N,N/C*%
X131850000Y-101150000D03*
X131850000Y-91050000D03*
%TD*%
D14*
%TO.P,J5,1,Pin_1*%
%TO.N,GND*%
X135160000Y-118140000D03*
X135160000Y-113060000D03*
X137700000Y-118140000D03*
X137700000Y-113060000D03*
X140240000Y-118140000D03*
X140240000Y-113060000D03*
%TD*%
%TO.P,J2,1,Pin_1*%
%TO.N,Net-(J2-Pin_1)*%
X135160000Y-87140000D03*
X135160000Y-82060000D03*
X137700000Y-87140000D03*
X137700000Y-82060000D03*
X140240000Y-87140000D03*
X140240000Y-82060000D03*
%TD*%
D15*
%TO.P,TP2,1,1*%
%TO.N,Net-(U2-PA3)*%
X161000000Y-82100000D03*
%TD*%
%TO.P,TP1,1,1*%
%TO.N,Net-(U2-PA2)*%
X164800000Y-82100000D03*
%TD*%
D16*
%TO.P,SW1,1,1*%
%TO.N,N/C*%
X132500000Y-108800000D03*
%TO.N,/CELL1*%
X139700000Y-108800000D03*
%TO.P,SW1,2,2*%
%TO.N,N/C*%
X132500000Y-105800000D03*
%TO.N,Net-(R18-Pad1)*%
X139700000Y-105800000D03*
%TD*%
D17*
%TO.P,J6,1,Pin_1*%
%TO.N,Net-(D2-A)*%
X164525000Y-103437500D03*
X164525000Y-105737500D03*
%TO.P,J6,2,Pin_2*%
%TO.N,+BATT*%
X164525000Y-95637500D03*
X164525000Y-97937500D03*
D18*
%TO.P,J6,3,Pin_3*%
%TO.N,unconnected-(J6-Pin_3-Pad3)*%
X161150000Y-104337500D03*
%TO.P,J6,4,Pin_4*%
%TO.N,unconnected-(J6-Pin_4-Pad4)*%
X161150000Y-100687500D03*
%TO.P,J6,5,Pin_5*%
%TO.N,unconnected-(J6-Pin_5-Pad5)*%
X161150000Y-97037500D03*
%TO.P,J6,M*%
%TO.N,N/C*%
X168325000Y-93437500D03*
D19*
X168325000Y-95387500D03*
X168325000Y-105987500D03*
D18*
X168325000Y-107937500D03*
X159875000Y-93437500D03*
D19*
X159875000Y-95387500D03*
X159875000Y-105987500D03*
D18*
X159875000Y-107937500D03*
%TD*%
D20*
%TO.P,J1,5,Pin_5*%
%TO.N,Net-(J1-Pin_5)*%
X141550000Y-93460000D03*
%TO.P,J1,4,Pin_4*%
%TO.N,/SWDIO*%
X138850000Y-94730000D03*
%TO.P,J1,3,Pin_3*%
%TO.N,GND*%
X141550000Y-96000000D03*
%TO.P,J1,2,Pin_2*%
%TO.N,/SWCLK*%
X138850000Y-97270000D03*
%TO.P,J1,1,Pin_1*%
%TO.N,+3.3V*%
X141550000Y-98540000D03*
%TD*%
D21*
%TO.N,/PWR_SWITCH*%
X154930000Y-96570000D03*
%TO.N,GND*%
X162875000Y-118362500D03*
%TO.N,+3.3V*%
X149535000Y-97065000D03*
%TO.N,GND*%
X147790000Y-93980000D03*
X141550000Y-95270000D03*
%TO.N,/SDA_EXT*%
X150590000Y-96770000D03*
%TO.N,Net-(J1-Pin_5)*%
X157500000Y-95625000D03*
%TO.N,/TS*%
X137430000Y-105600000D03*
%TO.N,/CELL1*%
X139075000Y-101500000D03*
%TO.N,Net-(J3-Pin_3)*%
X139075000Y-99700000D03*
%TO.N,Net-(J3-Pin_2)*%
X138920000Y-98240000D03*
%TO.N,Net-(J3-Pin_1)*%
X139075000Y-96100000D03*
%TO.N,+BATT*%
X151100000Y-85100000D03*
X151100000Y-82900000D03*
X152000000Y-81700000D03*
X152000000Y-86300000D03*
X152000000Y-84000000D03*
X149300000Y-85100000D03*
X150200000Y-86300000D03*
X149300000Y-82900000D03*
X150200000Y-84000000D03*
X150200000Y-81700000D03*
X148400000Y-84000000D03*
%TO.N,Net-(Q1-D)*%
X153300000Y-115600000D03*
X153300000Y-113800000D03*
X152100000Y-116400000D03*
X152100000Y-113000000D03*
X154400000Y-113000000D03*
X154400000Y-116400000D03*
X156100000Y-116400000D03*
X157800000Y-116400000D03*
X156100000Y-113000000D03*
X157800000Y-113000000D03*
X148700000Y-116400000D03*
X148700000Y-113000000D03*
%TO.N,GND*%
X150600000Y-93500000D03*
X150600000Y-94800000D03*
X151900000Y-94800000D03*
X153200000Y-94800000D03*
X153200000Y-93500000D03*
X153200000Y-92200000D03*
X151900000Y-92200000D03*
X150600000Y-92200000D03*
X151900000Y-93500000D03*
X159510000Y-89460000D03*
X150875000Y-89600000D03*
X155900000Y-89125000D03*
X155900000Y-93675000D03*
X157500000Y-97175000D03*
X152825000Y-97500000D03*
X151200000Y-110275000D03*
X149100000Y-110275000D03*
X142725000Y-108890000D03*
X139600000Y-110450000D03*
X150800000Y-99625000D03*
X148700000Y-98125000D03*
X153400000Y-104750000D03*
X149200000Y-105100000D03*
X150600000Y-105100000D03*
X150600000Y-103700000D03*
X149200000Y-103700000D03*
X149900000Y-104400000D03*
X139075000Y-103300000D03*
X142400000Y-103175000D03*
X144100000Y-103175000D03*
%TO.N,Net-(R18-Pad1)*%
X139925000Y-105600000D03*
%TO.N,Net-(U2-PA2)*%
X154880000Y-90200000D03*
%TO.N,Net-(U2-PA3)*%
X154280000Y-89820000D03*
%TO.N,Net-(J4-Pin_1)*%
X148670000Y-92190000D03*
%TO.N,Net-(J4-Pin_3)*%
X147600000Y-92510000D03*
%TO.N,/SWCLK*%
X149550000Y-95970000D03*
%TO.N,/SWDIO*%
X148540000Y-94190000D03*
%TO.N,Net-(U1-SCL)*%
X154710000Y-104580000D03*
X154500000Y-100400000D03*
%TO.N,Net-(Q1-D)*%
X148700000Y-114700000D03*
X150400000Y-114700000D03*
X150400000Y-116400000D03*
X150400000Y-113000000D03*
X152100000Y-114700000D03*
X157800000Y-114700000D03*
X156100000Y-114700000D03*
X154400000Y-114700000D03*
%TD*%
D22*
%TO.N,/PWR_SWITCH*%
X156550000Y-100481025D02*
G75*
G03*
X154930008Y-96569992I-5531000J25D01*
G01*
X156550000Y-103250000D02*
X156550000Y-100481025D01*
X160800000Y-111650000D02*
X159484494Y-110334494D01*
X161729676Y-112579676D02*
X160800000Y-111650000D01*
X164125000Y-118362500D02*
G75*
G03*
X161729666Y-112579686I-8178100J0D01*
G01*
X159484494Y-110334494D02*
G75*
G02*
X156550004Y-103250000I7084506J7084494D01*
G01*
%TO.N,+3.3V*%
X148189695Y-97693497D02*
X148311332Y-97571860D01*
X148311332Y-97571860D02*
G75*
G02*
X149535000Y-97064992I1223668J-1223640D01*
G01*
X148150000Y-97730000D02*
X148189695Y-97693497D01*
X146194488Y-98540000D02*
G75*
G03*
X148150004Y-97730004I12J2765500D01*
G01*
X141550000Y-98540000D02*
X146194488Y-98540000D01*
%TO.N,GND*%
X141550000Y-96000000D02*
X141550000Y-95270000D01*
%TO.N,Net-(J1-Pin_5)*%
X154397117Y-95625000D02*
X157500000Y-95625000D01*
X150980000Y-97140000D02*
X151150000Y-96970000D01*
X150554853Y-97290000D02*
X150617868Y-97290000D01*
X150230000Y-97150000D02*
X150239289Y-97159289D01*
X150090000Y-96210832D02*
X150090000Y-96812011D01*
X149602843Y-95242842D02*
X149750000Y-95390000D01*
X148760000Y-93620000D02*
X149051299Y-93911299D01*
X151150000Y-96970000D02*
G75*
G02*
X154397117Y-95625007I3247100J-3247100D01*
G01*
X150617868Y-97290000D02*
G75*
G03*
X150980009Y-97140009I32J512100D01*
G01*
X150239289Y-97159289D02*
G75*
G03*
X150554853Y-97290026I315611J315589D01*
G01*
X150090000Y-96812011D02*
G75*
G03*
X150230003Y-97149997I478000J11D01*
G01*
X149750000Y-95390000D02*
G75*
G02*
X150089986Y-96210832I-820800J-820800D01*
G01*
X141550000Y-93460000D02*
X148373726Y-93460000D01*
X149320000Y-94560000D02*
G75*
G03*
X149602839Y-95242846I965700J0D01*
G01*
X149051299Y-93911299D02*
G75*
G02*
X149320000Y-94560000I-648699J-648701D01*
G01*
X148373726Y-93460000D02*
G75*
G02*
X148759992Y-93620008I-26J-546300D01*
G01*
%TO.N,/SDA_EXT*%
X150370000Y-95410000D02*
G75*
G02*
X150589989Y-95941126I-531100J-531100D01*
G01*
X150590000Y-95941126D02*
X150590000Y-96770000D01*
X150212132Y-95252132D02*
X150370000Y-95410000D01*
X149997449Y-94687683D02*
X150000000Y-94740000D01*
X149200000Y-93300000D02*
X149580091Y-93680090D01*
X148623427Y-92723427D02*
X149200000Y-93300000D01*
X148230000Y-92540000D02*
X148297573Y-92607573D01*
X148400000Y-92650000D02*
X148452317Y-92652551D01*
X148140000Y-92085269D02*
X148140000Y-92322721D01*
X148409497Y-91490502D02*
X148370000Y-91530000D01*
X162782183Y-91240000D02*
X149014264Y-91240000D01*
X164224645Y-90575355D02*
X164110000Y-90690000D01*
X164625000Y-89462500D02*
X164625000Y-89608813D01*
X150000000Y-94740000D02*
G75*
G03*
X150212125Y-95252139I724300J0D01*
G01*
X148140000Y-92322721D02*
G75*
G03*
X148230006Y-92539994I307300J21D01*
G01*
X148370000Y-91530000D02*
G75*
G03*
X148139987Y-92085269I555300J-555300D01*
G01*
X149014264Y-91240000D02*
G75*
G03*
X148409509Y-91490514I36J-855300D01*
G01*
X149580091Y-93680090D02*
G75*
G02*
X149997462Y-94687683I-1007591J-1007610D01*
G01*
X164110000Y-90690000D02*
G75*
G02*
X162782183Y-91239993I-1327800J1327800D01*
G01*
X148297573Y-92607573D02*
G75*
G03*
X148400000Y-92649986I102427J102473D01*
G01*
X164625000Y-89608813D02*
G75*
G02*
X164224639Y-90575349I-1366900J13D01*
G01*
X148452317Y-92652551D02*
G75*
G02*
X148623411Y-92723443I-17J-241949D01*
G01*
%TO.N,/SWCLK*%
X146411523Y-97270000D02*
G75*
G03*
X149549993Y-95969993I-23J4438500D01*
G01*
X138850000Y-97270000D02*
X146411523Y-97270000D01*
%TO.N,/SWDIO*%
X147236325Y-94730000D02*
G75*
G03*
X148539993Y-94189993I-25J1843700D01*
G01*
X138850000Y-94730000D02*
X147236325Y-94730000D01*
%TO.N,/TS*%
X134750000Y-99129908D02*
G75*
G03*
X137430002Y-105599998I9150100J8D01*
G01*
X134750000Y-98600000D02*
X134750000Y-99129908D01*
%TO.N,/CELL1*%
X139075000Y-101500000D02*
G75*
G03*
X138320013Y-103322731I1822700J-1822700D01*
G01*
%TO.N,Net-(J3-Pin_3)*%
X136982316Y-98212316D02*
X138042200Y-99272200D01*
X136590000Y-97240000D02*
X136591390Y-97268537D01*
X136590000Y-97234892D02*
X136590000Y-97240000D01*
X136350000Y-96650000D02*
X136346124Y-96646124D01*
X134750000Y-96100000D02*
X135022183Y-96100000D01*
X138042200Y-99272200D02*
G75*
G03*
X139075000Y-99700000I1032800J1032800D01*
G01*
X136591390Y-97268537D02*
G75*
G03*
X136982334Y-98212298I1334710J37D01*
G01*
X136346124Y-96646124D02*
G75*
G02*
X136589989Y-97234892I-588824J-588776D01*
G01*
X135022183Y-96100000D02*
G75*
G02*
X136350005Y-96649995I17J-1877800D01*
G01*
%TO.N,/CELL1*%
X137370000Y-100460000D02*
X137939774Y-101029774D01*
X136989411Y-100079410D02*
X137370000Y-100460000D01*
X136580000Y-99091006D02*
G75*
G03*
X136989417Y-100079404I1397800J6D01*
G01*
X137939774Y-101029774D02*
G75*
G03*
X139075000Y-101499986I1135226J1135274D01*
G01*
X136261802Y-98291802D02*
G75*
G02*
X136579999Y-99060000I-768202J-768198D01*
G01*
X134750000Y-97350000D02*
G75*
G02*
X135723051Y-97753051I0J-1376100D01*
G01*
X135723051Y-97753051D02*
X136261802Y-98291802D01*
X136580000Y-99060000D02*
X136580000Y-99091006D01*
%TO.N,Net-(J3-Pin_2)*%
X134868335Y-94850000D02*
X134750000Y-94850000D01*
X136737243Y-95757243D02*
X136510000Y-95530000D01*
X137660000Y-97960000D02*
X137642340Y-97942340D01*
X138920000Y-98240000D02*
X138335979Y-98240000D01*
X136510000Y-95530000D02*
G75*
G03*
X134868335Y-94849986I-1641700J-1641700D01*
G01*
X137310000Y-97140000D02*
G75*
G03*
X136737240Y-95757246I-1955500J0D01*
G01*
X137642340Y-97942340D02*
G75*
G02*
X137310006Y-97140000I802360J802340D01*
G01*
X138335979Y-98240000D02*
G75*
G02*
X137660006Y-97959994I21J956000D01*
G01*
%TO.N,Net-(J3-Pin_1)*%
X136388822Y-94278823D02*
X137270000Y-95160000D01*
X137598352Y-95488352D02*
G75*
G03*
X139075000Y-96099998I1476648J1476652D01*
G01*
X137270000Y-95160000D02*
X137598352Y-95488352D01*
X134750000Y-93600000D02*
G75*
G02*
X136388813Y-94278832I0J-2317600D01*
G01*
%TO.N,Net-(U2-PA3)*%
X156152599Y-89660000D02*
X154666274Y-89660000D01*
X159122182Y-82877817D02*
X158587524Y-83412475D01*
X154666274Y-89660000D02*
G75*
G03*
X154280008Y-89820008I26J-546300D01*
G01*
X157070000Y-89280000D02*
G75*
G02*
X156152599Y-89660000I-917400J917400D01*
G01*
X157640000Y-87903899D02*
G75*
G02*
X157070001Y-89280001I-1946100J-1D01*
G01*
X157640000Y-85700000D02*
X157640000Y-87903899D01*
X158587524Y-83412475D02*
G75*
G03*
X157639986Y-85700000I2287476J-2287525D01*
G01*
X161000000Y-82100000D02*
G75*
G03*
X159122190Y-82877825I0J-2655600D01*
G01*
%TO.N,Net-(U2-PA2)*%
X155700675Y-90200000D02*
X154880000Y-90200000D01*
X158010000Y-85563677D02*
X158010000Y-87974904D01*
X158280000Y-84930000D02*
X158266312Y-84944886D01*
X158844767Y-84365233D02*
X158280000Y-84930000D01*
X161476568Y-83350000D02*
X161295756Y-83350000D01*
X162459168Y-83350000D02*
X161476568Y-83350000D01*
X163758665Y-82531335D02*
X163280000Y-83010000D01*
X157370000Y-89520000D02*
X157389559Y-89500441D01*
X157389559Y-89500441D02*
G75*
G02*
X155700675Y-90199995I-1688859J1688841D01*
G01*
X158010000Y-87974904D02*
G75*
G02*
X157369999Y-89519999I-2185100J4D01*
G01*
X158266312Y-84944886D02*
G75*
G03*
X158009983Y-85563677I618788J-618814D01*
G01*
X161295756Y-83350000D02*
G75*
G03*
X158844793Y-84365259I44J-3466200D01*
G01*
X163280000Y-83010000D02*
G75*
G02*
X162459168Y-83349986I-820800J820800D01*
G01*
X164800000Y-82100000D02*
G75*
G03*
X163758659Y-82531329I0J-1472700D01*
G01*
%TO.N,GND*%
X159516035Y-89462500D02*
X159510000Y-89460000D01*
X162125000Y-89462500D02*
X159516035Y-89462500D01*
%TO.N,Net-(R18-Pad1)*%
X139742677Y-105782322D02*
X139925000Y-105600000D01*
X139700000Y-105800000D02*
G75*
G03*
X139742666Y-105782311I0J60300D01*
G01*
%TO.N,Net-(J4-Pin_1)*%
X165875000Y-89496681D02*
X165875000Y-89462500D01*
X165360000Y-90740000D02*
G75*
G03*
X165874992Y-89496681I-1243300J1243300D01*
G01*
X163259635Y-91610000D02*
G75*
G03*
X165359990Y-90739990I-35J2970400D01*
G01*
X148670000Y-92190000D02*
G75*
G02*
X150070243Y-91610018I1400200J-1400200D01*
G01*
X150070243Y-91610000D02*
X163259635Y-91610000D01*
%TO.N,Net-(J4-Pin_3)*%
X163375000Y-89556386D02*
X163375000Y-89462500D01*
X148863969Y-90850000D02*
X151654163Y-90850000D01*
X162159168Y-90850000D02*
G75*
G03*
X162980010Y-90510010I32J1160800D01*
G01*
X162980000Y-90510000D02*
G75*
G03*
X163374994Y-89556386I-953600J953600D01*
G01*
X147850000Y-91270000D02*
G75*
G02*
X148863969Y-90849987I1014000J-1014000D01*
G01*
X161682426Y-90850000D02*
X162159168Y-90850000D01*
X147600000Y-92510000D02*
X147600000Y-91873553D01*
X147600000Y-91873553D02*
G75*
G02*
X147850014Y-91270014I853600J-47D01*
G01*
X151654163Y-90850000D02*
X161682426Y-90850000D01*
%TO.N,Net-(U1-SCL)*%
X154710000Y-104580000D02*
X154710000Y-100906984D01*
X154710000Y-100906984D02*
G75*
G03*
X154499996Y-100400004I-717000J-16D01*
G01*
%TO.N,/CELL1*%
X138320000Y-106430000D02*
X138320000Y-103322731D01*
X139020036Y-108120036D02*
G75*
G02*
X138320008Y-106430000I1690064J1690036D01*
G01*
X139700000Y-108800000D02*
X139020036Y-108120036D01*
%TD*%
%TA.AperFunction,Conductor*%
%TO.N,Net-(Q1-D)*%
G36*
X156713566Y-107221674D02*
G01*
X156729605Y-107245679D01*
X156871886Y-107589174D01*
X157081021Y-108023448D01*
X157130447Y-108126081D01*
X157418691Y-108647621D01*
X157418692Y-108647622D01*
X157735734Y-109152191D01*
X158080569Y-109638191D01*
X158080577Y-109638202D01*
X158080579Y-109638204D01*
X158133203Y-109704192D01*
X158452111Y-110104091D01*
X158750029Y-110437461D01*
X158781178Y-110472317D01*
X158800000Y-110521627D01*
X158800000Y-114240341D01*
X158796814Y-114261821D01*
X158789338Y-114286467D01*
X158774500Y-114437120D01*
X158774500Y-114437121D01*
X158774500Y-116487878D01*
X158789338Y-116638534D01*
X158796814Y-116663177D01*
X158800000Y-116684658D01*
X158800000Y-118688042D01*
X158799367Y-118697701D01*
X158784234Y-118812644D01*
X158779234Y-118831303D01*
X158736740Y-118933893D01*
X158727081Y-118950624D01*
X158656507Y-119042597D01*
X158650125Y-119049874D01*
X158549874Y-119150125D01*
X158542597Y-119156507D01*
X158450624Y-119227081D01*
X158433893Y-119236740D01*
X158331303Y-119279234D01*
X158312644Y-119284234D01*
X158197701Y-119299367D01*
X158188042Y-119300000D01*
X144811958Y-119300000D01*
X144802299Y-119299367D01*
X144687355Y-119284234D01*
X144668696Y-119279234D01*
X144566106Y-119236740D01*
X144549380Y-119227084D01*
X144457396Y-119156502D01*
X144450125Y-119150125D01*
X144349874Y-119049874D01*
X144343498Y-119042604D01*
X144272914Y-118950617D01*
X144263259Y-118933893D01*
X144220765Y-118831303D01*
X144215765Y-118812644D01*
X144200633Y-118697701D01*
X144200000Y-118688042D01*
X144200000Y-110275000D01*
X148369909Y-110275000D01*
X148388214Y-110437461D01*
X148388216Y-110437469D01*
X148442211Y-110591776D01*
X148529188Y-110730199D01*
X148529190Y-110730201D01*
X148529192Y-110730204D01*
X148644796Y-110845808D01*
X148644798Y-110845809D01*
X148644800Y-110845811D01*
X148783223Y-110932788D01*
X148783225Y-110932789D01*
X148937539Y-110986786D01*
X149100000Y-111005091D01*
X149262461Y-110986786D01*
X149416775Y-110932789D01*
X149555204Y-110845808D01*
X149670808Y-110730204D01*
X149757789Y-110591775D01*
X149811786Y-110437461D01*
X149830091Y-110275000D01*
X150469909Y-110275000D01*
X150488214Y-110437461D01*
X150488216Y-110437469D01*
X150542211Y-110591776D01*
X150629188Y-110730199D01*
X150629190Y-110730201D01*
X150629192Y-110730204D01*
X150744796Y-110845808D01*
X150744798Y-110845809D01*
X150744800Y-110845811D01*
X150883223Y-110932788D01*
X150883225Y-110932789D01*
X151037539Y-110986786D01*
X151200000Y-111005091D01*
X151362461Y-110986786D01*
X151516775Y-110932789D01*
X151655204Y-110845808D01*
X151770808Y-110730204D01*
X151857789Y-110591775D01*
X151911786Y-110437461D01*
X151930091Y-110275000D01*
X151911786Y-110112539D01*
X151857789Y-109958225D01*
X151827410Y-109909877D01*
X151770811Y-109819800D01*
X151770809Y-109819798D01*
X151770808Y-109819796D01*
X151655204Y-109704192D01*
X151655201Y-109704190D01*
X151655199Y-109704188D01*
X151516776Y-109617211D01*
X151362469Y-109563216D01*
X151362461Y-109563214D01*
X151200000Y-109544909D01*
X151037538Y-109563214D01*
X151037530Y-109563216D01*
X150883223Y-109617211D01*
X150744800Y-109704188D01*
X150629188Y-109819800D01*
X150542211Y-109958223D01*
X150488216Y-110112530D01*
X150488214Y-110112538D01*
X150469909Y-110275000D01*
X149830091Y-110275000D01*
X149811786Y-110112539D01*
X149757789Y-109958225D01*
X149727410Y-109909877D01*
X149670811Y-109819800D01*
X149670809Y-109819798D01*
X149670808Y-109819796D01*
X149555204Y-109704192D01*
X149555201Y-109704190D01*
X149555199Y-109704188D01*
X149416776Y-109617211D01*
X149262469Y-109563216D01*
X149262461Y-109563214D01*
X149100000Y-109544909D01*
X148937538Y-109563214D01*
X148937530Y-109563216D01*
X148783223Y-109617211D01*
X148644800Y-109704188D01*
X148529188Y-109819800D01*
X148442211Y-109958223D01*
X148388216Y-110112530D01*
X148388214Y-110112538D01*
X148369909Y-110275000D01*
X144200000Y-110275000D01*
X144200000Y-107811957D01*
X144200633Y-107802298D01*
X144212677Y-107710811D01*
X144215766Y-107687351D01*
X144220765Y-107668696D01*
X144263260Y-107566102D01*
X144272911Y-107549385D01*
X144343504Y-107457387D01*
X144349866Y-107450133D01*
X144450133Y-107349866D01*
X144457387Y-107343504D01*
X144549385Y-107272911D01*
X144566102Y-107263260D01*
X144668698Y-107220764D01*
X144687351Y-107215766D01*
X144802299Y-107200633D01*
X144811958Y-107200000D01*
X156661240Y-107200000D01*
X156713566Y-107221674D01*
G37*
%TD.AperFunction*%
%TD*%
%TA.AperFunction,Conductor*%
%TO.N,+BATT*%
G36*
X158497701Y-80700633D02*
G01*
X158612646Y-80715765D01*
X158631303Y-80720765D01*
X158733893Y-80763259D01*
X158750617Y-80772914D01*
X158842604Y-80843498D01*
X158849874Y-80849874D01*
X158950125Y-80950125D01*
X158956502Y-80957396D01*
X159027084Y-81049380D01*
X159036740Y-81066106D01*
X159079234Y-81168696D01*
X159084234Y-81187355D01*
X159099367Y-81302298D01*
X159100000Y-81311957D01*
X159100000Y-82017587D01*
X159083441Y-82064241D01*
X158961514Y-82214360D01*
X158951019Y-82224908D01*
X158810673Y-82340089D01*
X158810673Y-82340090D01*
X158103861Y-83046902D01*
X158103731Y-83047049D01*
X158044510Y-83106270D01*
X157829212Y-83362846D01*
X157637105Y-83637199D01*
X157469641Y-83927252D01*
X157328090Y-84230803D01*
X157213533Y-84545544D01*
X157126854Y-84869035D01*
X157126853Y-84869038D01*
X157068691Y-85198884D01*
X157068688Y-85198907D01*
X157039500Y-85532532D01*
X157039500Y-87901469D01*
X157039342Y-87906309D01*
X157028304Y-88074699D01*
X157027040Y-88084295D01*
X156994596Y-88247405D01*
X156992091Y-88256756D01*
X156938630Y-88414247D01*
X156934926Y-88423189D01*
X156861369Y-88572350D01*
X156856529Y-88580733D01*
X156764131Y-88719015D01*
X156758238Y-88726694D01*
X156677082Y-88819235D01*
X156626286Y-88844286D01*
X156572655Y-88826080D01*
X156558789Y-88809815D01*
X156470811Y-88669800D01*
X156470809Y-88669798D01*
X156470808Y-88669796D01*
X156355204Y-88554192D01*
X156355201Y-88554190D01*
X156355199Y-88554188D01*
X156216776Y-88467211D01*
X156062469Y-88413216D01*
X156062461Y-88413214D01*
X155900000Y-88394909D01*
X155737538Y-88413214D01*
X155737530Y-88413216D01*
X155583223Y-88467211D01*
X155444800Y-88554188D01*
X155329188Y-88669800D01*
X155242211Y-88808223D01*
X155188216Y-88962530D01*
X155188214Y-88962538D01*
X155188214Y-88962539D01*
X155184693Y-88993787D01*
X155157297Y-89043356D01*
X155111159Y-89059500D01*
X154743718Y-89059500D01*
X154743669Y-89059497D01*
X154739159Y-89059497D01*
X154734278Y-89059497D01*
X154696907Y-89059498D01*
X154696888Y-89059490D01*
X154666348Y-89059490D01*
X154662165Y-89059372D01*
X154628688Y-89057476D01*
X154628685Y-89057476D01*
X154628681Y-89057476D01*
X154608536Y-89059217D01*
X154602170Y-89059492D01*
X154575999Y-89059493D01*
X154575997Y-89059493D01*
X154543341Y-89064666D01*
X154538138Y-89065302D01*
X154247121Y-89090456D01*
X154216043Y-89094114D01*
X154206323Y-89097024D01*
X154193390Y-89099667D01*
X154117538Y-89108214D01*
X154117530Y-89108216D01*
X153963223Y-89162211D01*
X153824800Y-89249188D01*
X153709188Y-89364800D01*
X153622211Y-89503223D01*
X153568216Y-89657530D01*
X153568214Y-89657538D01*
X153549909Y-89820000D01*
X153568214Y-89982461D01*
X153568216Y-89982469D01*
X153622211Y-90136777D01*
X153624015Y-90140523D01*
X153622663Y-90141173D01*
X153631291Y-90191971D01*
X153598514Y-90238160D01*
X153559147Y-90249500D01*
X151430163Y-90249500D01*
X151377837Y-90227826D01*
X151356163Y-90175500D01*
X151377836Y-90123175D01*
X151445808Y-90055204D01*
X151532789Y-89916775D01*
X151586786Y-89762461D01*
X151605091Y-89600000D01*
X151586786Y-89437539D01*
X151532789Y-89283225D01*
X151511402Y-89249188D01*
X151445811Y-89144800D01*
X151445809Y-89144798D01*
X151445808Y-89144796D01*
X151330204Y-89029192D01*
X151330201Y-89029190D01*
X151330199Y-89029188D01*
X151191776Y-88942211D01*
X151037469Y-88888216D01*
X151037461Y-88888214D01*
X150875000Y-88869909D01*
X150712538Y-88888214D01*
X150712530Y-88888216D01*
X150558223Y-88942211D01*
X150419800Y-89029188D01*
X150304188Y-89144800D01*
X150217211Y-89283223D01*
X150163216Y-89437530D01*
X150163214Y-89437538D01*
X150144909Y-89600000D01*
X150163214Y-89762461D01*
X150163216Y-89762469D01*
X150217211Y-89916776D01*
X150304188Y-90055199D01*
X150304189Y-90055200D01*
X150304192Y-90055204D01*
X150372163Y-90123175D01*
X150393837Y-90175500D01*
X150372163Y-90227826D01*
X150319837Y-90249500D01*
X148941415Y-90249500D01*
X148941399Y-90249499D01*
X148894619Y-90249499D01*
X148894590Y-90249487D01*
X148749707Y-90249489D01*
X148522633Y-90275079D01*
X148522627Y-90275080D01*
X148299862Y-90325928D01*
X148299859Y-90325929D01*
X148084172Y-90401404D01*
X147894662Y-90492671D01*
X147862554Y-90500000D01*
X144111958Y-90500000D01*
X144102299Y-90499367D01*
X143987355Y-90484234D01*
X143968696Y-90479234D01*
X143866106Y-90436740D01*
X143849380Y-90427084D01*
X143757396Y-90356502D01*
X143750125Y-90350125D01*
X143649874Y-90249874D01*
X143643498Y-90242604D01*
X143572914Y-90150617D01*
X143563259Y-90133893D01*
X143520765Y-90031303D01*
X143515765Y-90012644D01*
X143511791Y-89982461D01*
X143500633Y-89897701D01*
X143500000Y-89888042D01*
X143500000Y-81311957D01*
X143500633Y-81302298D01*
X143515766Y-81187351D01*
X143520765Y-81168696D01*
X143563259Y-81066106D01*
X143572911Y-81049385D01*
X143643504Y-80957387D01*
X143649866Y-80950133D01*
X143750133Y-80849866D01*
X143757387Y-80843504D01*
X143849385Y-80772911D01*
X143866102Y-80763260D01*
X143968698Y-80720764D01*
X143987351Y-80715766D01*
X144102299Y-80700633D01*
X144111958Y-80700000D01*
X158488042Y-80700000D01*
X158497701Y-80700633D01*
G37*
%TD.AperFunction*%
%TD*%
%TA.AperFunction,Conductor*%
%TO.N,GND*%
G36*
X154224179Y-96254751D02*
G01*
X154248116Y-96306082D01*
X154244033Y-96333750D01*
X154218217Y-96407527D01*
X154218214Y-96407538D01*
X154199909Y-96570000D01*
X154218214Y-96732461D01*
X154218216Y-96732469D01*
X154272211Y-96886776D01*
X154359188Y-97025199D01*
X154359190Y-97025201D01*
X154359192Y-97025204D01*
X154474796Y-97140808D01*
X154577805Y-97205533D01*
X154585275Y-97210903D01*
X154591390Y-97215904D01*
X154591392Y-97215905D01*
X154822209Y-97355129D01*
X154842102Y-97372681D01*
X155006054Y-97580655D01*
X155009469Y-97585356D01*
X155221319Y-97902412D01*
X155224355Y-97907366D01*
X155410680Y-98240074D01*
X155413318Y-98245251D01*
X155572967Y-98591558D01*
X155575190Y-98596927D01*
X155707170Y-98954678D01*
X155708966Y-98960203D01*
X155812475Y-99327220D01*
X155813831Y-99332871D01*
X155888221Y-99706865D01*
X155889130Y-99712603D01*
X155933950Y-100091289D01*
X155934406Y-100097082D01*
X155949443Y-100479849D01*
X155949500Y-100482754D01*
X155949500Y-103334040D01*
X155949505Y-103334113D01*
X155949505Y-103547954D01*
X155964708Y-103818674D01*
X155982919Y-104142935D01*
X156049637Y-104735081D01*
X156049637Y-104735085D01*
X156149452Y-105322557D01*
X156149456Y-105322574D01*
X156282058Y-105903541D01*
X156381907Y-106250125D01*
X156397865Y-106305514D01*
X156391524Y-106361795D01*
X156347243Y-106397108D01*
X156326757Y-106400000D01*
X144811958Y-106400000D01*
X144802299Y-106399367D01*
X144687355Y-106384234D01*
X144668696Y-106379234D01*
X144566106Y-106336740D01*
X144549380Y-106327084D01*
X144457396Y-106256502D01*
X144450125Y-106250125D01*
X143649874Y-105449874D01*
X143643498Y-105442604D01*
X143572914Y-105350617D01*
X143563259Y-105333893D01*
X143558563Y-105322557D01*
X143520765Y-105231303D01*
X143515765Y-105212644D01*
X143500633Y-105097701D01*
X143500000Y-105088042D01*
X143500000Y-100400000D01*
X153769909Y-100400000D01*
X153788214Y-100562461D01*
X153788216Y-100562469D01*
X153842211Y-100716776D01*
X153929188Y-100855199D01*
X153929193Y-100855205D01*
X153971925Y-100897938D01*
X153978048Y-100904879D01*
X153998350Y-100931025D01*
X153998354Y-100931030D01*
X154086895Y-101016502D01*
X154109488Y-101068437D01*
X154109500Y-101069742D01*
X154109500Y-104029046D01*
X154106448Y-104050078D01*
X154020458Y-104340154D01*
X154013547Y-104365947D01*
X154013546Y-104365953D01*
X154013403Y-104367498D01*
X154009569Y-104385085D01*
X153998216Y-104417532D01*
X153998214Y-104417538D01*
X153979909Y-104580000D01*
X153998214Y-104742461D01*
X153998216Y-104742469D01*
X154052211Y-104896776D01*
X154139188Y-105035199D01*
X154139190Y-105035201D01*
X154139192Y-105035204D01*
X154254796Y-105150808D01*
X154254798Y-105150809D01*
X154254800Y-105150811D01*
X154393223Y-105237788D01*
X154393225Y-105237789D01*
X154547539Y-105291786D01*
X154710000Y-105310091D01*
X154872461Y-105291786D01*
X155026775Y-105237789D01*
X155165204Y-105150808D01*
X155280808Y-105035204D01*
X155367789Y-104896775D01*
X155421786Y-104742461D01*
X155440091Y-104580000D01*
X155421786Y-104417539D01*
X155405363Y-104370607D01*
X155401992Y-104356889D01*
X155399543Y-104340165D01*
X155399543Y-104340162D01*
X155313552Y-104050079D01*
X155310500Y-104029047D01*
X155310500Y-100979888D01*
X155310501Y-100979884D01*
X155310500Y-100937628D01*
X155310506Y-100937613D01*
X155310505Y-100906971D01*
X155310506Y-100906971D01*
X155310504Y-100820619D01*
X155292858Y-100686611D01*
X155292323Y-100680712D01*
X155291448Y-100663218D01*
X155222967Y-100312533D01*
X155222128Y-100308333D01*
X155221587Y-100306824D01*
X155217711Y-100290135D01*
X155211786Y-100237539D01*
X155162638Y-100097082D01*
X155157789Y-100083225D01*
X155070808Y-99944796D01*
X154955204Y-99829192D01*
X154955201Y-99829190D01*
X154955199Y-99829188D01*
X154816776Y-99742211D01*
X154662469Y-99688216D01*
X154662461Y-99688214D01*
X154500000Y-99669909D01*
X154337538Y-99688214D01*
X154337530Y-99688216D01*
X154183223Y-99742211D01*
X154044800Y-99829188D01*
X153929188Y-99944800D01*
X153842211Y-100083223D01*
X153788216Y-100237530D01*
X153788214Y-100237538D01*
X153769909Y-100400000D01*
X143500000Y-100400000D01*
X143500000Y-99214500D01*
X143521674Y-99162174D01*
X143574000Y-99140500D01*
X146278433Y-99140500D01*
X146278523Y-99140494D01*
X146359846Y-99140494D01*
X146359847Y-99140494D01*
X146688978Y-99108079D01*
X147013346Y-99043559D01*
X147329829Y-98947556D01*
X147635378Y-98820995D01*
X147927050Y-98665093D01*
X148202036Y-98481354D01*
X148457689Y-98271545D01*
X148543965Y-98185267D01*
X148554644Y-98177074D01*
X148554563Y-98176968D01*
X148558400Y-98174021D01*
X148558411Y-98174016D01*
X148604334Y-98128091D01*
X148606521Y-98125993D01*
X148654361Y-98082002D01*
X148656816Y-98078131D01*
X148666969Y-98065456D01*
X148733915Y-97998512D01*
X148738155Y-97994593D01*
X148866367Y-97885087D01*
X148875749Y-97878270D01*
X149017016Y-97791700D01*
X149027354Y-97786432D01*
X149130516Y-97743700D01*
X149171691Y-97739194D01*
X149354260Y-97771413D01*
X149365827Y-97774437D01*
X149372539Y-97776786D01*
X149403890Y-97780317D01*
X149408458Y-97780978D01*
X149433475Y-97785394D01*
X149464586Y-97789527D01*
X149476154Y-97791064D01*
X149478138Y-97791242D01*
X149495159Y-97791127D01*
X149503923Y-97791589D01*
X149535000Y-97795091D01*
X149571046Y-97791029D01*
X149572452Y-97790946D01*
X149575236Y-97790590D01*
X149575239Y-97790590D01*
X149575241Y-97790589D01*
X149576872Y-97790381D01*
X149577949Y-97790251D01*
X149697461Y-97776786D01*
X149851775Y-97722789D01*
X149880269Y-97704884D01*
X149936103Y-97695397D01*
X149963138Y-97707678D01*
X150001351Y-97735445D01*
X150006207Y-97738973D01*
X150153000Y-97813780D01*
X150153002Y-97813780D01*
X150153003Y-97813781D01*
X150309680Y-97864702D01*
X150309684Y-97864702D01*
X150309688Y-97864704D01*
X150472412Y-97890492D01*
X150472420Y-97890492D01*
X150472511Y-97890500D01*
X150554790Y-97890500D01*
X150627704Y-97890507D01*
X150627709Y-97890505D01*
X150632178Y-97890506D01*
X150632293Y-97890500D01*
X150702025Y-97890500D01*
X150702153Y-97890490D01*
X150705400Y-97890491D01*
X150878384Y-97863102D01*
X151044952Y-97808987D01*
X151201004Y-97729480D01*
X151342696Y-97626537D01*
X151343386Y-97625847D01*
X151343401Y-97625834D01*
X151382941Y-97586293D01*
X151382946Y-97586290D01*
X151404618Y-97564618D01*
X151441230Y-97528005D01*
X151561702Y-97407533D01*
X151573489Y-97395746D01*
X151575800Y-97393535D01*
X151828980Y-97161538D01*
X151833909Y-97157402D01*
X152105068Y-96949335D01*
X152110327Y-96945651D01*
X152398592Y-96762006D01*
X152404162Y-96758790D01*
X152707329Y-96600972D01*
X152713167Y-96598251D01*
X153028920Y-96467463D01*
X153034977Y-96465258D01*
X153360948Y-96362480D01*
X153367140Y-96360821D01*
X153700837Y-96286843D01*
X153707166Y-96285727D01*
X154046022Y-96241117D01*
X154052439Y-96240555D01*
X154170960Y-96235380D01*
X154224179Y-96254751D01*
G37*
%TD.AperFunction*%
%TA.AperFunction,Conductor*%
G36*
X158378326Y-92232174D02*
G01*
X158400000Y-92284500D01*
X158400000Y-105788042D01*
X158399367Y-105797701D01*
X158384234Y-105912644D01*
X158379234Y-105931303D01*
X158336740Y-106033893D01*
X158327081Y-106050622D01*
X158291445Y-106097064D01*
X158256507Y-106142597D01*
X158250125Y-106149874D01*
X158149874Y-106250125D01*
X158142597Y-106256507D01*
X158050624Y-106327081D01*
X158033893Y-106336740D01*
X157931303Y-106379234D01*
X157912644Y-106384234D01*
X157797701Y-106399367D01*
X157788042Y-106400000D01*
X157749789Y-106400000D01*
X157697463Y-106378326D01*
X157679837Y-106350139D01*
X157645324Y-106250125D01*
X157577689Y-106054127D01*
X157576369Y-106049890D01*
X157424785Y-105506130D01*
X157423724Y-105501827D01*
X157305250Y-104949918D01*
X157304444Y-104945521D01*
X157272416Y-104735085D01*
X157219507Y-104387453D01*
X157218974Y-104383051D01*
X157167889Y-103820886D01*
X157167620Y-103816440D01*
X157153046Y-103334113D01*
X157150534Y-103250959D01*
X157150500Y-103248724D01*
X157150500Y-100397077D01*
X157150489Y-100396913D01*
X157150490Y-100262040D01*
X157119247Y-99825180D01*
X157056918Y-99391662D01*
X156963821Y-98963695D01*
X156840430Y-98543459D01*
X156687374Y-98133098D01*
X156505433Y-97734700D01*
X156295534Y-97350298D01*
X156094972Y-97038216D01*
X156058751Y-96981855D01*
X156034414Y-96949345D01*
X155796278Y-96631231D01*
X155796276Y-96631228D01*
X155796271Y-96631222D01*
X155745362Y-96572470D01*
X155734697Y-96556285D01*
X155662606Y-96407538D01*
X155625885Y-96331772D01*
X155622569Y-96275234D01*
X155660203Y-96232909D01*
X155692477Y-96225500D01*
X156949051Y-96225500D01*
X156970082Y-96228551D01*
X157260165Y-96314544D01*
X157285951Y-96321452D01*
X157287475Y-96321593D01*
X157305082Y-96325428D01*
X157337539Y-96336786D01*
X157500000Y-96355091D01*
X157662461Y-96336786D01*
X157816775Y-96282789D01*
X157955204Y-96195808D01*
X158070808Y-96080204D01*
X158157789Y-95941775D01*
X158211786Y-95787461D01*
X158230091Y-95625000D01*
X158211786Y-95462539D01*
X158201829Y-95434085D01*
X158169500Y-95341693D01*
X158157789Y-95308225D01*
X158123837Y-95254191D01*
X158070811Y-95169800D01*
X158070809Y-95169798D01*
X158070808Y-95169796D01*
X157955204Y-95054192D01*
X157955201Y-95054190D01*
X157955199Y-95054188D01*
X157816776Y-94967211D01*
X157662469Y-94913216D01*
X157662461Y-94913214D01*
X157500000Y-94894909D01*
X157337539Y-94913214D01*
X157337536Y-94913214D01*
X157337535Y-94913215D01*
X157290609Y-94929633D01*
X157276899Y-94933003D01*
X157260173Y-94935453D01*
X157260164Y-94935455D01*
X157003981Y-95011397D01*
X156971911Y-95020905D01*
X156970079Y-95021448D01*
X156949047Y-95024500D01*
X154313294Y-95024500D01*
X154313171Y-95024508D01*
X154193101Y-95024508D01*
X153786324Y-95056520D01*
X153383314Y-95120348D01*
X153383289Y-95120353D01*
X152986562Y-95215599D01*
X152986534Y-95215607D01*
X152598498Y-95341686D01*
X152598458Y-95341701D01*
X152221517Y-95497834D01*
X152221510Y-95497837D01*
X151857929Y-95683090D01*
X151857928Y-95683091D01*
X151510043Y-95896275D01*
X151510027Y-95896285D01*
X151307996Y-96043069D01*
X151252924Y-96056291D01*
X151204633Y-96026698D01*
X151190500Y-95983202D01*
X151190500Y-95856970D01*
X151190490Y-95856839D01*
X151190491Y-95852555D01*
X151167369Y-95676887D01*
X151121514Y-95505740D01*
X151118242Y-95497841D01*
X151091835Y-95434085D01*
X151053712Y-95342043D01*
X151047052Y-95330508D01*
X150965125Y-95188602D01*
X150965124Y-95188601D01*
X150965122Y-95188597D01*
X150857261Y-95048027D01*
X150854739Y-95045505D01*
X150854737Y-95045502D01*
X150829580Y-95020345D01*
X150829578Y-95020341D01*
X150762778Y-94953543D01*
X150647076Y-94837841D01*
X150640189Y-94830953D01*
X150633816Y-94823685D01*
X150623026Y-94809623D01*
X150613366Y-94792891D01*
X150608456Y-94781036D01*
X150603457Y-94762380D01*
X150602021Y-94751472D01*
X150601479Y-94745443D01*
X150600588Y-94727166D01*
X150600500Y-94723564D01*
X150600500Y-94667088D01*
X150600500Y-94667086D01*
X150600112Y-94665512D01*
X150597960Y-94647805D01*
X150597960Y-94573929D01*
X150572486Y-94347865D01*
X150521862Y-94126075D01*
X150446723Y-93911348D01*
X150348014Y-93706384D01*
X150338840Y-93691784D01*
X150226981Y-93513764D01*
X150121058Y-93380943D01*
X150085136Y-93335899D01*
X150071019Y-93321783D01*
X150071018Y-93321780D01*
X150071018Y-93321781D01*
X149568715Y-92819480D01*
X149345836Y-92596601D01*
X149324162Y-92544275D01*
X149337184Y-92502350D01*
X149415397Y-92388593D01*
X149443644Y-92364151D01*
X149537886Y-92317678D01*
X149546818Y-92313978D01*
X149708546Y-92259081D01*
X149717884Y-92256579D01*
X149885383Y-92223264D01*
X149894970Y-92222002D01*
X150068109Y-92210657D01*
X150072945Y-92210500D01*
X150143144Y-92210501D01*
X150143148Y-92210500D01*
X158326000Y-92210500D01*
X158378326Y-92232174D01*
G37*
%TD.AperFunction*%
%TD*%
%TA.AperFunction,Conductor*%
%TO.N,/PWR_SWITCH*%
G36*
X155136658Y-96488095D02*
G01*
X155142664Y-96493782D01*
X155305336Y-96829427D01*
X155305860Y-96838367D01*
X155302328Y-96843493D01*
X155162508Y-96960816D01*
X155153967Y-96963508D01*
X155148944Y-96961872D01*
X154852479Y-96783050D01*
X154847165Y-96775842D01*
X154847694Y-96768599D01*
X154927500Y-96573768D01*
X154933805Y-96567413D01*
X155127705Y-96488057D01*
X155136658Y-96488095D01*
G37*
%TD.AperFunction*%
%TD*%
%TA.AperFunction,Conductor*%
%TO.N,/PWR_SWITCH*%
G36*
X164135112Y-117155001D02*
G01*
X164137644Y-117157598D01*
X164462509Y-117615565D01*
X164464500Y-117624295D01*
X164463597Y-117627221D01*
X164134673Y-118342754D01*
X164128103Y-118348839D01*
X164119155Y-118348498D01*
X164113869Y-118343646D01*
X163742962Y-117690783D01*
X163741855Y-117681897D01*
X163742213Y-117680812D01*
X163933079Y-117186622D01*
X163939255Y-117180141D01*
X163942325Y-117179258D01*
X164126438Y-117152786D01*
X164135112Y-117155001D01*
G37*
%TD.AperFunction*%
%TD*%
%TA.AperFunction,Conductor*%
%TO.N,+3.3V*%
G36*
X149453421Y-96867918D02*
G01*
X149453496Y-96868095D01*
X149535029Y-97062494D01*
X149535940Y-97067068D01*
X149535058Y-97276113D01*
X149531596Y-97284372D01*
X149523309Y-97287764D01*
X149521325Y-97287586D01*
X149130229Y-97218566D01*
X149122677Y-97213753D01*
X149121135Y-97210660D01*
X149064776Y-97037208D01*
X149065478Y-97028280D01*
X149071198Y-97022879D01*
X149438006Y-96861905D01*
X149446958Y-96861720D01*
X149453421Y-96867918D01*
G37*
%TD.AperFunction*%
%TD*%
%TA.AperFunction,Conductor*%
%TO.N,+3.3V*%
G36*
X142453272Y-98217462D02*
G01*
X142454957Y-98218432D01*
X142769960Y-98436511D01*
X142774811Y-98444037D01*
X142775000Y-98446130D01*
X142775000Y-98633869D01*
X142771573Y-98642142D01*
X142769960Y-98643489D01*
X142454957Y-98861567D01*
X142446204Y-98863458D01*
X142444327Y-98862953D01*
X141579512Y-98551006D01*
X141572892Y-98544975D01*
X141572476Y-98536030D01*
X141578507Y-98529410D01*
X141579512Y-98528994D01*
X142444327Y-98217046D01*
X142453272Y-98217462D01*
G37*
%TD.AperFunction*%
%TD*%
%TA.AperFunction,Conductor*%
%TO.N,GND*%
G36*
X141652142Y-95353427D02*
G01*
X141653489Y-95355040D01*
X141869450Y-95666984D01*
X141871341Y-95675737D01*
X141868116Y-95681904D01*
X141558286Y-95992688D01*
X141550018Y-95996128D01*
X141541740Y-95992714D01*
X141541714Y-95992688D01*
X141231883Y-95681904D01*
X141228469Y-95673626D01*
X141230548Y-95666985D01*
X141446511Y-95355040D01*
X141454038Y-95350189D01*
X141456131Y-95350000D01*
X141643869Y-95350000D01*
X141652142Y-95353427D01*
G37*
%TD.AperFunction*%
%TD*%
%TA.AperFunction,Conductor*%
%TO.N,GND*%
G36*
X141748194Y-95352048D02*
G01*
X141754500Y-95358406D01*
X141754890Y-95366164D01*
X141652483Y-95711625D01*
X141646846Y-95718583D01*
X141641265Y-95720000D01*
X141458735Y-95720000D01*
X141450462Y-95716573D01*
X141447517Y-95711625D01*
X141345109Y-95366164D01*
X141346044Y-95357258D01*
X141351803Y-95352049D01*
X141545480Y-95270893D01*
X141554431Y-95270857D01*
X141748194Y-95352048D01*
G37*
%TD.AperFunction*%
%TD*%
%TA.AperFunction,Conductor*%
%TO.N,Net-(J1-Pin_5)*%
G36*
X157412741Y-95421044D02*
G01*
X157417951Y-95426805D01*
X157499105Y-95620478D01*
X157499142Y-95629433D01*
X157499105Y-95629522D01*
X157417951Y-95823194D01*
X157411593Y-95829500D01*
X157403835Y-95829890D01*
X157058375Y-95727482D01*
X157051417Y-95721845D01*
X157050000Y-95716264D01*
X157050000Y-95533735D01*
X157053427Y-95525462D01*
X157058373Y-95522517D01*
X157403836Y-95420109D01*
X157412741Y-95421044D01*
G37*
%TD.AperFunction*%
%TD*%
%TA.AperFunction,Conductor*%
%TO.N,Net-(J1-Pin_5)*%
G36*
X142453272Y-93137462D02*
G01*
X142454957Y-93138432D01*
X142769960Y-93356511D01*
X142774811Y-93364037D01*
X142775000Y-93366130D01*
X142775000Y-93553869D01*
X142771573Y-93562142D01*
X142769960Y-93563489D01*
X142454957Y-93781567D01*
X142446204Y-93783458D01*
X142444327Y-93782953D01*
X141579512Y-93471006D01*
X141572892Y-93464975D01*
X141572476Y-93456030D01*
X141578507Y-93449410D01*
X141579512Y-93448994D01*
X142444327Y-93137046D01*
X142453272Y-93137462D01*
G37*
%TD.AperFunction*%
%TD*%
%TA.AperFunction,Conductor*%
%TO.N,/SDA_EXT*%
G36*
X150689538Y-96323427D02*
G01*
X150692483Y-96328375D01*
X150794890Y-96673835D01*
X150793955Y-96682741D01*
X150788194Y-96687951D01*
X150594522Y-96769105D01*
X150585567Y-96769142D01*
X150585478Y-96769105D01*
X150391805Y-96687951D01*
X150385499Y-96681593D01*
X150385109Y-96673835D01*
X150487517Y-96328375D01*
X150493154Y-96321417D01*
X150498735Y-96320000D01*
X150681265Y-96320000D01*
X150689538Y-96323427D01*
G37*
%TD.AperFunction*%
%TD*%
%TA.AperFunction,Conductor*%
%TO.N,/SDA_EXT*%
G36*
X164237736Y-89395319D02*
G01*
X164617514Y-89460389D01*
X164625089Y-89465164D01*
X164627078Y-89469990D01*
X164758592Y-90255857D01*
X164756577Y-90264582D01*
X164754518Y-90266797D01*
X164296251Y-90646575D01*
X164287694Y-90649215D01*
X164280512Y-90645839D01*
X164150396Y-90515723D01*
X164146969Y-90507450D01*
X164146997Y-90506653D01*
X164224096Y-89406032D01*
X164228092Y-89398021D01*
X164236585Y-89395181D01*
X164237736Y-89395319D01*
G37*
%TD.AperFunction*%
%TD*%
%TA.AperFunction,Conductor*%
%TO.N,/SWCLK*%
G36*
X149351407Y-95887697D02*
G01*
X149546238Y-95967508D01*
X149552592Y-95973812D01*
X149552630Y-95973903D01*
X149631862Y-96167508D01*
X149631824Y-96176462D01*
X149625935Y-96182563D01*
X149296776Y-96334397D01*
X149287828Y-96334751D01*
X149282831Y-96331195D01*
X149166927Y-96189964D01*
X149164327Y-96181395D01*
X149165947Y-96176509D01*
X149336953Y-95892489D01*
X149344155Y-95887170D01*
X149351407Y-95887697D01*
G37*
%TD.AperFunction*%
%TD*%
%TA.AperFunction,Conductor*%
%TO.N,/SWCLK*%
G36*
X139753272Y-96947462D02*
G01*
X139754957Y-96948432D01*
X140069960Y-97166511D01*
X140074811Y-97174037D01*
X140075000Y-97176130D01*
X140075000Y-97363869D01*
X140071573Y-97372142D01*
X140069960Y-97373489D01*
X139754957Y-97591567D01*
X139746204Y-97593458D01*
X139744327Y-97592953D01*
X138879512Y-97281006D01*
X138872892Y-97274975D01*
X138872476Y-97266030D01*
X138878507Y-97259410D01*
X138879512Y-97258994D01*
X139744327Y-96947046D01*
X139753272Y-96947462D01*
G37*
%TD.AperFunction*%
%TD*%
%TA.AperFunction,Conductor*%
%TO.N,/SWDIO*%
G36*
X148389237Y-94039439D02*
G01*
X148390876Y-94040792D01*
X148539200Y-94187870D01*
X148541791Y-94191748D01*
X148621655Y-94386997D01*
X148621615Y-94395952D01*
X148615256Y-94402256D01*
X148615210Y-94402275D01*
X148244676Y-94552013D01*
X148235721Y-94551935D01*
X148229867Y-94546477D01*
X148147086Y-94384012D01*
X148146384Y-94375085D01*
X148147848Y-94372105D01*
X148372978Y-94042500D01*
X148380473Y-94037602D01*
X148389237Y-94039439D01*
G37*
%TD.AperFunction*%
%TD*%
%TA.AperFunction,Conductor*%
%TO.N,/SWDIO*%
G36*
X139753272Y-94407462D02*
G01*
X139754957Y-94408432D01*
X140069960Y-94626511D01*
X140074811Y-94634037D01*
X140075000Y-94636130D01*
X140075000Y-94823869D01*
X140071573Y-94832142D01*
X140069960Y-94833489D01*
X139754957Y-95051567D01*
X139746204Y-95053458D01*
X139744327Y-95052953D01*
X138879512Y-94741006D01*
X138872892Y-94734975D01*
X138872476Y-94726030D01*
X138878507Y-94719410D01*
X138879512Y-94718994D01*
X139744327Y-94407046D01*
X139753272Y-94407462D01*
G37*
%TD.AperFunction*%
%TD*%
%TA.AperFunction,Conductor*%
%TO.N,/TS*%
G36*
X137203385Y-105211877D02*
G01*
X137361776Y-105303173D01*
X137507243Y-105387020D01*
X137512699Y-105394121D01*
X137512227Y-105401591D01*
X137432517Y-105596213D01*
X137426210Y-105602571D01*
X137426122Y-105602607D01*
X137232098Y-105682022D01*
X137223143Y-105681985D01*
X137217240Y-105676502D01*
X137049885Y-105347669D01*
X137049187Y-105338742D01*
X137052597Y-105333568D01*
X137189831Y-105213217D01*
X137198309Y-105210340D01*
X137203385Y-105211877D01*
G37*
%TD.AperFunction*%
%TD*%
%TA.AperFunction,Conductor*%
%TO.N,/TS*%
G36*
X134758261Y-98607276D02*
G01*
X134758272Y-98607288D01*
X134758282Y-98607298D01*
X135141956Y-98991274D01*
X135145380Y-98999549D01*
X135141950Y-99007820D01*
X135141502Y-99008245D01*
X134854426Y-99266314D01*
X134846699Y-99269313D01*
X134655688Y-99270859D01*
X134647758Y-99267849D01*
X134646055Y-99266314D01*
X134359806Y-99008233D01*
X134355957Y-99000148D01*
X134358951Y-98991708D01*
X134359350Y-98991287D01*
X134359363Y-98991274D01*
X134741716Y-98607311D01*
X134749981Y-98603868D01*
X134758261Y-98607276D01*
G37*
%TD.AperFunction*%
%TD*%
%TA.AperFunction,Conductor*%
%TO.N,/CELL1*%
G36*
X138878742Y-101418648D02*
G01*
X139071071Y-101497350D01*
X139077430Y-101503654D01*
X139077466Y-101503742D01*
X139156917Y-101697655D01*
X139156883Y-101706610D01*
X139151146Y-101712643D01*
X138939613Y-101813974D01*
X138930671Y-101814457D01*
X138927436Y-101812704D01*
X138781052Y-101700380D01*
X138776574Y-101692625D01*
X138777060Y-101687442D01*
X138863201Y-101425818D01*
X138869043Y-101419032D01*
X138877973Y-101418365D01*
X138878742Y-101418648D01*
G37*
%TD.AperFunction*%
%TD*%
%TA.AperFunction,Conductor*%
%TO.N,Net-(J3-Pin_3)*%
G36*
X139070340Y-99479147D02*
G01*
X139074932Y-99486835D01*
X139075056Y-99488485D01*
X139075940Y-99697931D01*
X139075029Y-99702505D01*
X138993636Y-99896570D01*
X138987276Y-99902874D01*
X138978322Y-99902834D01*
X138977826Y-99902613D01*
X138613700Y-99729615D01*
X138607698Y-99722969D01*
X138607594Y-99715434D01*
X138663978Y-99541898D01*
X138669792Y-99535091D01*
X138673400Y-99533941D01*
X139061657Y-99476958D01*
X139070340Y-99479147D01*
G37*
%TD.AperFunction*%
%TD*%
%TA.AperFunction,Conductor*%
%TO.N,Net-(J3-Pin_3)*%
G36*
X135541928Y-95849962D02*
G01*
X135544490Y-95851754D01*
X135962106Y-96236414D01*
X135965869Y-96244540D01*
X135964311Y-96250870D01*
X135871773Y-96411150D01*
X135864669Y-96416601D01*
X135863511Y-96416850D01*
X135354535Y-96499265D01*
X135346176Y-96497451D01*
X134769367Y-96112987D01*
X134764383Y-96105547D01*
X134766120Y-96096762D01*
X134772297Y-96092105D01*
X135533005Y-95849214D01*
X135541928Y-95849962D01*
G37*
%TD.AperFunction*%
%TD*%
%TA.AperFunction,Conductor*%
%TO.N,/CELL1*%
G36*
X139070195Y-101279252D02*
G01*
X139074905Y-101286868D01*
X139075057Y-101288697D01*
X139075940Y-101497931D01*
X139075029Y-101502505D01*
X138993561Y-101696748D01*
X138987201Y-101703052D01*
X138978247Y-101703012D01*
X138977919Y-101702869D01*
X138612371Y-101536254D01*
X138606265Y-101529705D01*
X138606097Y-101521995D01*
X138662468Y-101348498D01*
X138668282Y-101341690D01*
X138671710Y-101340568D01*
X139061479Y-101277198D01*
X139070195Y-101279252D01*
G37*
%TD.AperFunction*%
%TD*%
%TA.AperFunction,Conductor*%
%TO.N,/CELL1*%
G36*
X135551874Y-97290887D02*
G01*
X135553830Y-97293039D01*
X135699026Y-97499411D01*
X135875332Y-97750000D01*
X135902686Y-97788878D01*
X135904644Y-97797616D01*
X135901390Y-97803883D01*
X135771201Y-97934072D01*
X135762928Y-97937499D01*
X135760965Y-97937333D01*
X134672511Y-97752063D01*
X134664930Y-97747297D01*
X134662940Y-97738566D01*
X134663048Y-97738015D01*
X134747415Y-97357754D01*
X134752551Y-97350422D01*
X134757933Y-97348627D01*
X135543363Y-97288106D01*
X135551874Y-97290887D01*
G37*
%TD.AperFunction*%
%TD*%
%TA.AperFunction,Conductor*%
%TO.N,Net-(J3-Pin_2)*%
G36*
X138832741Y-98036044D02*
G01*
X138837951Y-98041805D01*
X138919105Y-98235478D01*
X138919142Y-98244433D01*
X138919105Y-98244522D01*
X138837951Y-98438194D01*
X138831593Y-98444500D01*
X138823835Y-98444890D01*
X138478375Y-98342482D01*
X138471417Y-98336845D01*
X138470000Y-98331264D01*
X138470000Y-98148735D01*
X138473427Y-98140462D01*
X138478373Y-98137517D01*
X138823836Y-98035109D01*
X138832741Y-98036044D01*
G37*
%TD.AperFunction*%
%TD*%
%TA.AperFunction,Conductor*%
%TO.N,Net-(J3-Pin_2)*%
G36*
X135544648Y-94613695D02*
G01*
X135547132Y-94615484D01*
X135964433Y-95008504D01*
X135968106Y-95016671D01*
X135966543Y-95022871D01*
X135874103Y-95182978D01*
X135866999Y-95188429D01*
X135865352Y-95188746D01*
X135354282Y-95249490D01*
X135346412Y-95247608D01*
X134769808Y-94863280D01*
X134764824Y-94855840D01*
X134766561Y-94847055D01*
X134772924Y-94842341D01*
X135535741Y-94612797D01*
X135544648Y-94613695D01*
G37*
%TD.AperFunction*%
%TD*%
%TA.AperFunction,Conductor*%
%TO.N,Net-(J3-Pin_1)*%
G36*
X139069915Y-95879471D02*
G01*
X139074848Y-95886945D01*
X139075060Y-95889112D01*
X139075954Y-96097877D01*
X139075044Y-96102452D01*
X138993398Y-96297136D01*
X138987038Y-96303440D01*
X138978136Y-96303423D01*
X138614160Y-96152889D01*
X138607825Y-96146560D01*
X138607331Y-96139049D01*
X138654543Y-95962851D01*
X138659993Y-95955750D01*
X138663621Y-95954395D01*
X139061143Y-95877674D01*
X139069915Y-95879471D01*
G37*
%TD.AperFunction*%
%TD*%
%TA.AperFunction,Conductor*%
%TO.N,Net-(J3-Pin_1)*%
G36*
X135552311Y-93404998D02*
G01*
X135554678Y-93406887D01*
X135954459Y-93821195D01*
X135957738Y-93829528D01*
X135956172Y-93835169D01*
X135863957Y-93994885D01*
X135856853Y-94000336D01*
X135853818Y-94000735D01*
X134711047Y-94000008D01*
X134702776Y-93996576D01*
X134699354Y-93988301D01*
X134699448Y-93986831D01*
X134748114Y-93607448D01*
X134752565Y-93599681D01*
X134756912Y-93597582D01*
X135543460Y-93403651D01*
X135552311Y-93404998D01*
G37*
%TD.AperFunction*%
%TD*%
%TA.AperFunction,Conductor*%
%TO.N,Net-(U2-PA3)*%
G36*
X154680756Y-89563800D02*
G01*
X154684883Y-89571747D01*
X154684926Y-89572755D01*
X154684926Y-89754755D01*
X154681499Y-89763028D01*
X154681011Y-89763489D01*
X154447320Y-89971771D01*
X154438863Y-89974718D01*
X154431288Y-89971336D01*
X154352405Y-89892946D01*
X154282473Y-89823451D01*
X154279021Y-89815191D01*
X154279952Y-89605682D01*
X154283416Y-89597426D01*
X154290641Y-89594080D01*
X154672219Y-89561098D01*
X154680756Y-89563800D01*
G37*
%TD.AperFunction*%
%TD*%
%TA.AperFunction,Conductor*%
%TO.N,Net-(U2-PA3)*%
G36*
X160991516Y-82098736D02*
G01*
X160999533Y-82102725D01*
X161002260Y-82108544D01*
X161075528Y-82562647D01*
X161073462Y-82571361D01*
X161065841Y-82576062D01*
X161065063Y-82576161D01*
X159454472Y-82726281D01*
X159445916Y-82723636D01*
X159444239Y-82721926D01*
X159329352Y-82577866D01*
X159326873Y-82569261D01*
X159329417Y-82563195D01*
X159771170Y-82019302D01*
X159779046Y-82015041D01*
X159781057Y-82015007D01*
X160991516Y-82098736D01*
G37*
%TD.AperFunction*%
%TD*%
%TA.AperFunction,Conductor*%
%TO.N,Net-(U2-PA2)*%
G36*
X155321625Y-90097517D02*
G01*
X155328583Y-90103154D01*
X155330000Y-90108735D01*
X155330000Y-90291264D01*
X155326573Y-90299537D01*
X155321625Y-90302482D01*
X154976164Y-90404890D01*
X154967258Y-90403955D01*
X154962048Y-90398194D01*
X154880893Y-90204519D01*
X154880857Y-90195568D01*
X154962049Y-90001803D01*
X154968406Y-89995499D01*
X154976163Y-89995109D01*
X155321625Y-90097517D01*
G37*
%TD.AperFunction*%
%TD*%
%TA.AperFunction,Conductor*%
%TO.N,Net-(U2-PA2)*%
G36*
X164799181Y-82102928D02*
G01*
X164803282Y-82109185D01*
X164921624Y-82563754D01*
X164920392Y-82572624D01*
X164913326Y-82578004D01*
X163472534Y-82963662D01*
X163463656Y-82962491D01*
X163461236Y-82960633D01*
X163330220Y-82829617D01*
X163326793Y-82821344D01*
X163327760Y-82816687D01*
X163572329Y-82253350D01*
X163578766Y-82247128D01*
X163581653Y-82246396D01*
X164790558Y-82100517D01*
X164799181Y-82102928D01*
G37*
%TD.AperFunction*%
%TD*%
%TA.AperFunction,Conductor*%
%TO.N,GND*%
G36*
X161732175Y-89069657D02*
G01*
X162117696Y-89454217D01*
X162121133Y-89462485D01*
X162117716Y-89470763D01*
X162117696Y-89470783D01*
X161732175Y-89855342D01*
X161723897Y-89858759D01*
X161716892Y-89856419D01*
X161329680Y-89566010D01*
X161325118Y-89558305D01*
X161325000Y-89556650D01*
X161325000Y-89368350D01*
X161328427Y-89360077D01*
X161329680Y-89358990D01*
X161716894Y-89068579D01*
X161725567Y-89066358D01*
X161732175Y-89069657D01*
G37*
%TD.AperFunction*%
%TD*%
%TA.AperFunction,Conductor*%
%TO.N,GND*%
G36*
X159628182Y-89261870D02*
G01*
X159951203Y-89359979D01*
X159958123Y-89365662D01*
X159959503Y-89371174D01*
X159959503Y-89553710D01*
X159956076Y-89561983D01*
X159951061Y-89564947D01*
X159606122Y-89664968D01*
X159597222Y-89663981D01*
X159592073Y-89658253D01*
X159551733Y-89561983D01*
X159510893Y-89464519D01*
X159510857Y-89455568D01*
X159592021Y-89261869D01*
X159598379Y-89255564D01*
X159606212Y-89255197D01*
X159628182Y-89261870D01*
G37*
%TD.AperFunction*%
%TD*%
%TA.AperFunction,Conductor*%
%TO.N,Net-(J4-Pin_1)*%
G36*
X165487741Y-89398814D02*
G01*
X165867456Y-89460372D01*
X165875073Y-89465078D01*
X165877087Y-89469790D01*
X166022704Y-90255912D01*
X166020842Y-90264671D01*
X166018861Y-90266886D01*
X165573195Y-90653020D01*
X165564699Y-90655847D01*
X165558657Y-90653642D01*
X165409566Y-90545321D01*
X165404887Y-90537686D01*
X165404765Y-90535140D01*
X165474204Y-89409644D01*
X165478134Y-89401598D01*
X165486602Y-89398687D01*
X165487741Y-89398814D01*
G37*
%TD.AperFunction*%
%TD*%
%TA.AperFunction,Conductor*%
%TO.N,Net-(J4-Pin_1)*%
G36*
X148969395Y-91829589D02*
G01*
X148974968Y-91834514D01*
X149066185Y-91992507D01*
X149067353Y-92001385D01*
X149065693Y-92004986D01*
X148837033Y-92337559D01*
X148829522Y-92342434D01*
X148820763Y-92340571D01*
X148819154Y-92339239D01*
X148670823Y-92192174D01*
X148668232Y-92188295D01*
X148588340Y-91992991D01*
X148588379Y-91984036D01*
X148594738Y-91977732D01*
X148960442Y-91829521D01*
X148969395Y-91829589D01*
G37*
%TD.AperFunction*%
%TD*%
%TA.AperFunction,Conductor*%
%TO.N,Net-(J4-Pin_3)*%
G36*
X162987910Y-89393016D02*
G01*
X163367497Y-89460349D01*
X163375044Y-89465168D01*
X163377012Y-89470060D01*
X163499872Y-90255330D01*
X163497766Y-90264034D01*
X163495071Y-90266690D01*
X163057460Y-90576334D01*
X163048727Y-90578315D01*
X163042260Y-90574884D01*
X162914313Y-90441545D01*
X162911057Y-90433203D01*
X162911074Y-90432778D01*
X162974196Y-89403819D01*
X162978123Y-89395773D01*
X162986590Y-89392859D01*
X162987910Y-89393016D01*
G37*
%TD.AperFunction*%
%TD*%
%TA.AperFunction,Conductor*%
%TO.N,Net-(J4-Pin_3)*%
G36*
X147699538Y-92063427D02*
G01*
X147702483Y-92068375D01*
X147804890Y-92413835D01*
X147803955Y-92422741D01*
X147798194Y-92427951D01*
X147604522Y-92509105D01*
X147595567Y-92509142D01*
X147595478Y-92509105D01*
X147401805Y-92427951D01*
X147395499Y-92421593D01*
X147395109Y-92413835D01*
X147497517Y-92068375D01*
X147503154Y-92061417D01*
X147508735Y-92060000D01*
X147691265Y-92060000D01*
X147699538Y-92063427D01*
G37*
%TD.AperFunction*%
%TD*%
%TA.AperFunction,Conductor*%
%TO.N,Net-(U1-SCL)*%
G36*
X154809538Y-104133427D02*
G01*
X154812483Y-104138375D01*
X154914890Y-104483835D01*
X154913955Y-104492741D01*
X154908194Y-104497951D01*
X154714522Y-104579105D01*
X154705567Y-104579142D01*
X154705478Y-104579105D01*
X154511805Y-104497951D01*
X154505499Y-104491593D01*
X154505109Y-104483835D01*
X154607517Y-104138375D01*
X154613154Y-104131417D01*
X154618735Y-104130000D01*
X154801265Y-104130000D01*
X154809538Y-104133427D01*
G37*
%TD.AperFunction*%
%TD*%
%TA.AperFunction,Conductor*%
%TO.N,Net-(U1-SCL)*%
G36*
X154715406Y-100399958D02*
G01*
X154723664Y-100403421D01*
X154726838Y-100409416D01*
X154795319Y-100760101D01*
X154793541Y-100768877D01*
X154786119Y-100773818D01*
X154607402Y-100809370D01*
X154598619Y-100807623D01*
X154596993Y-100806313D01*
X154560975Y-100771544D01*
X154349437Y-100567339D01*
X154345865Y-100559127D01*
X154349145Y-100550795D01*
X154349195Y-100550742D01*
X154496352Y-100402497D01*
X154504613Y-100399041D01*
X154504631Y-100399041D01*
X154715406Y-100399958D01*
G37*
%TD.AperFunction*%
%TD*%
%TA.AperFunction,Conductor*%
%TO.N,/CELL1*%
G36*
X138683176Y-107487549D02*
G01*
X140006468Y-108095148D01*
X140012557Y-108101715D01*
X140012249Y-108110597D01*
X139703014Y-108795295D01*
X139696486Y-108801424D01*
X139694487Y-108801982D01*
X138910421Y-108947599D01*
X138901662Y-108945741D01*
X138897048Y-108939354D01*
X138507027Y-107593829D01*
X138508015Y-107584931D01*
X138512412Y-107580442D01*
X138672445Y-107488048D01*
X138681322Y-107486881D01*
X138683176Y-107487549D01*
G37*
%TD.AperFunction*%
%TD*%
M02*
