%TF.GenerationSoftware,KiCad,Pcbnew,8.0.5*%
%TF.CreationDate,2024-09-28T22:32:44+02:00*%
%TF.ProjectId,BatteryMonitor,42617474-6572-4794-9d6f-6e69746f722e,rev?*%
%TF.SameCoordinates,Original*%
%TF.FileFunction,Copper,L4,Bot*%
%TF.FilePolarity,Positive*%
%FSLAX46Y46*%
G04 Gerber Fmt 4.6, Leading zero omitted, Abs format (unit mm)*
G04 Created by KiCad (PCBNEW 8.0.5) date 2024-09-28 22:32:44*
%MOMM*%
%LPD*%
G01*
G04 APERTURE LIST*
G04 Aperture macros list*
%AMRoundRect*
0 Rectangle with rounded corners*
0 $1 Rounding radius*
0 $2 $3 $4 $5 $6 $7 $8 $9 X,Y pos of 4 corners*
0 Add a 4 corners polygon primitive as box body*
4,1,4,$2,$3,$4,$5,$6,$7,$8,$9,$2,$3,0*
0 Add four circle primitives for the rounded corners*
1,1,$1+$1,$2,$3*
1,1,$1+$1,$4,$5*
1,1,$1+$1,$6,$7*
1,1,$1+$1,$8,$9*
0 Add four rect primitives between the rounded corners*
20,1,$1+$1,$2,$3,$4,$5,0*
20,1,$1+$1,$4,$5,$6,$7,0*
20,1,$1+$1,$6,$7,$8,$9,0*
20,1,$1+$1,$8,$9,$2,$3,0*%
G04 Aperture macros list end*
%TA.AperFunction,SMDPad,CuDef*%
%ADD10RoundRect,0.200000X-0.200000X-0.600000X0.200000X-0.600000X0.200000X0.600000X-0.200000X0.600000X0*%
%TD*%
%TA.AperFunction,SMDPad,CuDef*%
%ADD11RoundRect,0.525000X-0.525000X-0.975000X0.525000X-0.975000X0.525000X0.975000X-0.525000X0.975000X0*%
%TD*%
%TA.AperFunction,SMDPad,CuDef*%
%ADD12RoundRect,0.200000X0.600000X-0.200000X0.600000X0.200000X-0.600000X0.200000X-0.600000X-0.200000X0*%
%TD*%
%TA.AperFunction,SMDPad,CuDef*%
%ADD13RoundRect,0.525000X0.975000X-0.525000X0.975000X0.525000X-0.975000X0.525000X-0.975000X-0.525000X0*%
%TD*%
%TA.AperFunction,ComponentPad*%
%ADD14C,2.300000*%
%TD*%
%TA.AperFunction,SMDPad,CuDef*%
%ADD15RoundRect,0.237500X0.987500X0.237500X-0.987500X0.237500X-0.987500X-0.237500X0.987500X-0.237500X0*%
%TD*%
%TA.AperFunction,SMDPad,CuDef*%
%ADD16R,1.600000X1.400000*%
%TD*%
%TA.AperFunction,ComponentPad*%
%ADD17C,3.000000*%
%TD*%
%TA.AperFunction,ComponentPad*%
%ADD18C,1.600000*%
%TD*%
%TA.AperFunction,ComponentPad*%
%ADD19C,1.800000*%
%TD*%
%TA.AperFunction,SMDPad,CuDef*%
%ADD20R,0.650000X1.800000*%
%TD*%
%TA.AperFunction,ViaPad*%
%ADD21C,0.450000*%
%TD*%
%TA.AperFunction,Conductor*%
%ADD22C,0.200000*%
%TD*%
G04 APERTURE END LIST*
D10*
%TO.P,J4,1,Pin_1*%
%TO.N,Net-(J4-Pin_1)*%
X165875000Y-89462500D03*
%TO.P,J4,2,Pin_2*%
%TO.N,/SDA_EXT*%
X164625000Y-89462500D03*
%TO.P,J4,3,Pin_3*%
%TO.N,Net-(J4-Pin_3)*%
X163375000Y-89462500D03*
%TO.P,J4,4,Pin_4*%
%TO.N,GND*%
X162125000Y-89462500D03*
D11*
%TO.P,J4,M*%
%TO.N,N/C*%
X159575000Y-86562500D03*
X168425000Y-86562500D03*
%TD*%
D12*
%TO.P,J3,1,Pin_1*%
%TO.N,Net-(J3-Pin_1)*%
X134750000Y-93600000D03*
%TO.P,J3,2,Pin_2*%
%TO.N,Net-(J3-Pin_2)*%
X134750000Y-94850000D03*
%TO.P,J3,3,Pin_3*%
%TO.N,Net-(J3-Pin_3)*%
X134750000Y-96100000D03*
%TO.P,J3,4,Pin_4*%
%TO.N,/CELL1*%
X134750000Y-97350000D03*
%TO.P,J3,5,Pin_5*%
%TO.N,/TS*%
X134750000Y-98600000D03*
D13*
%TO.P,J3,M*%
%TO.N,N/C*%
X131850000Y-101150000D03*
X131850000Y-91050000D03*
%TD*%
D14*
%TO.P,J5,1,Pin_1*%
%TO.N,GND*%
X135160000Y-118140000D03*
X135160000Y-113060000D03*
X137700000Y-118140000D03*
X137700000Y-113060000D03*
X140240000Y-118140000D03*
X140240000Y-113060000D03*
%TD*%
%TO.P,J2,1,Pin_1*%
%TO.N,Net-(J2-Pin_1)*%
X135160000Y-87140000D03*
X135160000Y-82060000D03*
X137700000Y-87140000D03*
X137700000Y-82060000D03*
X140240000Y-87140000D03*
X140240000Y-82060000D03*
%TD*%
D15*
%TO.P,TP2,1,1*%
%TO.N,Net-(U2-PA3)*%
X161000000Y-82100000D03*
%TD*%
%TO.P,TP1,1,1*%
%TO.N,Net-(U2-PA2)*%
X164800000Y-82100000D03*
%TD*%
D16*
%TO.P,SW1,1,1*%
%TO.N,N/C*%
X132500000Y-108800000D03*
%TO.N,/CELL1*%
X139700000Y-108800000D03*
%TO.P,SW1,2,2*%
%TO.N,N/C*%
X132500000Y-105800000D03*
%TO.N,Net-(R18-Pad1)*%
X139700000Y-105800000D03*
%TD*%
D17*
%TO.P,J6,1,Pin_1*%
%TO.N,Net-(D2-A)*%
X164525000Y-103437500D03*
X164525000Y-105737500D03*
%TO.P,J6,2,Pin_2*%
%TO.N,+BATT*%
X164525000Y-95637500D03*
X164525000Y-97937500D03*
D18*
%TO.P,J6,3,Pin_3*%
%TO.N,unconnected-(J6-Pin_3-Pad3)*%
X161150000Y-104337500D03*
%TO.P,J6,4,Pin_4*%
%TO.N,unconnected-(J6-Pin_4-Pad4)*%
X161150000Y-100687500D03*
%TO.P,J6,5,Pin_5*%
%TO.N,unconnected-(J6-Pin_5-Pad5)*%
X161150000Y-97037500D03*
%TO.P,J6,M*%
%TO.N,N/C*%
X168325000Y-93437500D03*
D19*
X168325000Y-95387500D03*
X168325000Y-105987500D03*
D18*
X168325000Y-107937500D03*
X159875000Y-93437500D03*
D19*
X159875000Y-95387500D03*
X159875000Y-105987500D03*
D18*
X159875000Y-107937500D03*
%TD*%
D20*
%TO.P,J1,5,Pin_5*%
%TO.N,Net-(J1-Pin_5)*%
X165040000Y-117750000D03*
%TO.P,J1,4,Pin_4*%
%TO.N,/SWDIO*%
X163770000Y-115050000D03*
%TO.P,J1,3,Pin_3*%
%TO.N,GND*%
X162500000Y-117750000D03*
%TO.P,J1,2,Pin_2*%
%TO.N,/SWCLK*%
X161230000Y-115050000D03*
%TO.P,J1,1,Pin_1*%
%TO.N,+3.3V*%
X159960000Y-117750000D03*
%TD*%
D21*
%TO.N,+BATT*%
X151100000Y-85100000D03*
X151100000Y-82900000D03*
X152000000Y-81700000D03*
X152000000Y-86300000D03*
X152000000Y-84000000D03*
X149300000Y-85100000D03*
X150200000Y-86300000D03*
X149300000Y-82900000D03*
X150200000Y-84000000D03*
X150200000Y-81700000D03*
X148400000Y-84000000D03*
%TO.N,Net-(Q1-D)*%
X153300000Y-115600000D03*
X153300000Y-113800000D03*
X152100000Y-116400000D03*
X152100000Y-113000000D03*
X154400000Y-113000000D03*
X154400000Y-116400000D03*
X156100000Y-116400000D03*
X157800000Y-116400000D03*
X156100000Y-113000000D03*
X157800000Y-113000000D03*
X148700000Y-116400000D03*
X148700000Y-113000000D03*
%TO.N,GND*%
X150600000Y-93500000D03*
X150600000Y-94800000D03*
X151900000Y-94800000D03*
X153200000Y-94800000D03*
X153200000Y-93500000D03*
X153200000Y-92200000D03*
X151900000Y-92200000D03*
X150600000Y-92200000D03*
X151900000Y-93500000D03*
X159510000Y-89460000D03*
X147660000Y-93200000D03*
X150875000Y-89600000D03*
X155900000Y-89125000D03*
X155900000Y-93675000D03*
X157500000Y-97175000D03*
X152825000Y-97500000D03*
X162500000Y-118400000D03*
X151200000Y-110275000D03*
X149100000Y-110275000D03*
X142725000Y-108890000D03*
X139600000Y-110450000D03*
X150800000Y-99625000D03*
X148700000Y-98125000D03*
X153400000Y-104750000D03*
X149200000Y-105100000D03*
X150600000Y-105100000D03*
X150600000Y-103700000D03*
X149200000Y-103700000D03*
X149900000Y-104400000D03*
X139075000Y-103300000D03*
X142400000Y-103175000D03*
X144100000Y-103175000D03*
%TO.N,Net-(R18-Pad1)*%
X139925000Y-105600000D03*
%TO.N,/TS*%
X137460000Y-105570000D03*
%TO.N,+3.3V*%
X157000000Y-106790000D03*
%TO.N,Net-(U2-PA2)*%
X154880000Y-90200000D03*
%TO.N,Net-(U2-PA3)*%
X154280000Y-89820000D03*
%TO.N,Net-(J4-Pin_1)*%
X148670000Y-92190000D03*
%TO.N,Net-(J4-Pin_3)*%
X147600000Y-92510000D03*
%TO.N,/SDA_EXT*%
X150570000Y-96940000D03*
%TO.N,/SWCLK*%
X149550000Y-95970000D03*
%TO.N,/SWDIO*%
X148540000Y-94190000D03*
%TO.N,Net-(J1-Pin_5)*%
X157500000Y-95625000D03*
%TO.N,/CELL1*%
X139075000Y-101500000D03*
%TO.N,Net-(J3-Pin_3)*%
X139075000Y-99700000D03*
%TO.N,Net-(J3-Pin_2)*%
X139075000Y-97900000D03*
%TO.N,Net-(J3-Pin_1)*%
X139075000Y-96100000D03*
%TO.N,Net-(U1-SCL)*%
X154710000Y-104580000D03*
X154500000Y-100400000D03*
%TO.N,Net-(Q1-D)*%
X148700000Y-114700000D03*
X150400000Y-114700000D03*
X150400000Y-116400000D03*
X150400000Y-113000000D03*
X152100000Y-114700000D03*
X157800000Y-114700000D03*
X156100000Y-114700000D03*
X154400000Y-114700000D03*
%TD*%
D22*
%TO.N,Net-(U2-PA3)*%
X156152599Y-89660000D02*
X154666274Y-89660000D01*
X159122182Y-82877817D02*
X158587524Y-83412475D01*
X154666274Y-89660000D02*
G75*
G03*
X154280008Y-89820008I26J-546300D01*
G01*
X157070000Y-89280000D02*
G75*
G02*
X156152599Y-89660000I-917400J917400D01*
G01*
X157640000Y-87903899D02*
G75*
G02*
X157070001Y-89280001I-1946100J-1D01*
G01*
X157640000Y-85700000D02*
X157640000Y-87903899D01*
X158587524Y-83412475D02*
G75*
G03*
X157639986Y-85700000I2287476J-2287525D01*
G01*
X161000000Y-82100000D02*
G75*
G03*
X159122190Y-82877825I0J-2655600D01*
G01*
%TO.N,Net-(U2-PA2)*%
X155700675Y-90200000D02*
X154880000Y-90200000D01*
X158010000Y-85563677D02*
X158010000Y-87974904D01*
X158280000Y-84930000D02*
X158266312Y-84944886D01*
X158844767Y-84365233D02*
X158280000Y-84930000D01*
X161476568Y-83350000D02*
X161295756Y-83350000D01*
X162459168Y-83350000D02*
X161476568Y-83350000D01*
X163758665Y-82531335D02*
X163280000Y-83010000D01*
X157370000Y-89520000D02*
X157389559Y-89500441D01*
X157389559Y-89500441D02*
G75*
G02*
X155700675Y-90199995I-1688859J1688841D01*
G01*
X158010000Y-87974904D02*
G75*
G02*
X157369999Y-89519999I-2185100J4D01*
G01*
X158266312Y-84944886D02*
G75*
G03*
X158009983Y-85563677I618788J-618814D01*
G01*
X161295756Y-83350000D02*
G75*
G03*
X158844793Y-84365259I44J-3466200D01*
G01*
X163280000Y-83010000D02*
G75*
G02*
X162459168Y-83349986I-820800J820800D01*
G01*
X164800000Y-82100000D02*
G75*
G03*
X163758659Y-82531329I0J-1472700D01*
G01*
%TO.N,/SWDIO*%
X149519375Y-95169376D02*
X148540000Y-94190000D01*
X152031523Y-95550000D02*
X150438284Y-95550000D01*
X157990000Y-107779046D02*
X157990000Y-103658082D01*
X160820000Y-109800000D02*
X159827106Y-109800000D01*
X163130000Y-110970000D02*
X162766102Y-110606102D01*
X163770000Y-115050000D02*
X163770000Y-112515096D01*
X157990000Y-103658082D02*
G75*
G03*
X155169995Y-96850005I-9628100J-18D01*
G01*
X150438284Y-95550000D02*
G75*
G02*
X149519390Y-95169361I16J1299500D01*
G01*
X158620000Y-109300000D02*
G75*
G02*
X157990023Y-107779046I1520900J1520900D01*
G01*
X159827106Y-109800000D02*
G75*
G02*
X158619998Y-109300002I-6J1707100D01*
G01*
X162766102Y-110606102D02*
G75*
G03*
X160820000Y-109799999I-1946102J-1946098D01*
G01*
X155170000Y-96850000D02*
G75*
G03*
X152031523Y-95549991I-3138500J-3138500D01*
G01*
X163770000Y-112515096D02*
G75*
G03*
X163129999Y-110970001I-2185100J-4D01*
G01*
%TO.N,GND*%
X159516035Y-89462500D02*
X159510000Y-89460000D01*
X162125000Y-89462500D02*
X159516035Y-89462500D01*
%TO.N,/SDA_EXT*%
X148540747Y-96030747D02*
X148750000Y-96240000D01*
X147830000Y-94280000D02*
X147830000Y-94314852D01*
X147830000Y-94015564D02*
X147830000Y-94280000D01*
X148070000Y-93580000D02*
X147968285Y-93681715D01*
X148104437Y-93545564D02*
X148070000Y-93580000D01*
X148260000Y-92914852D02*
X148260000Y-93170000D01*
X148409497Y-91490502D02*
X148370000Y-91530000D01*
X148140000Y-92085269D02*
X148140000Y-92625148D01*
X164224645Y-90575355D02*
X164110000Y-90690000D01*
X162782183Y-91240000D02*
X149014264Y-91240000D01*
X164625000Y-89462500D02*
X164625000Y-89608813D01*
X148750000Y-96240000D02*
G75*
G03*
X150439949Y-96939979I1689900J1689900D01*
G01*
X147830000Y-94314852D02*
G75*
G03*
X148540732Y-96030762I2426600J-48D01*
G01*
X147968285Y-93681715D02*
G75*
G03*
X147829965Y-94015564I333815J-333885D01*
G01*
X148260000Y-93170000D02*
G75*
G02*
X148104431Y-93545558I-531100J0D01*
G01*
X148200000Y-92770000D02*
G75*
G02*
X148260020Y-92914852I-144900J-144900D01*
G01*
X148140000Y-92625148D02*
G75*
G03*
X148200014Y-92769986I204900J48D01*
G01*
X150439949Y-96940000D02*
X150570000Y-96940000D01*
X148370000Y-91530000D02*
G75*
G03*
X148139987Y-92085269I555300J-555300D01*
G01*
X149014264Y-91240000D02*
G75*
G03*
X148409509Y-91490514I36J-855300D01*
G01*
X164110000Y-90690000D02*
G75*
G02*
X162782183Y-91239993I-1327800J1327800D01*
G01*
X164625000Y-89608813D02*
G75*
G02*
X164224639Y-90575349I-1366900J13D01*
G01*
%TO.N,Net-(R18-Pad1)*%
X139742677Y-105782322D02*
X139925000Y-105600000D01*
X139700000Y-105800000D02*
G75*
G03*
X139742666Y-105782311I0J60300D01*
G01*
%TO.N,/TS*%
X137460000Y-105570000D02*
X137460000Y-103479726D01*
X135415772Y-98875772D02*
G75*
G03*
X134750000Y-98599987I-665772J-665728D01*
G01*
X135650000Y-99110000D02*
X135415772Y-98875772D01*
X137460000Y-103479726D02*
G75*
G03*
X135650008Y-99109992I-6179700J26D01*
G01*
%TO.N,+3.3V*%
X157000000Y-107661349D02*
X157000000Y-106790000D01*
X157925356Y-109895356D02*
G75*
G02*
X157000047Y-107661349I2234044J2233956D01*
G01*
X158208456Y-110178457D02*
X158020000Y-109990000D01*
X159540000Y-110730000D02*
G75*
G02*
X158208454Y-110178459I0J1883100D01*
G01*
X159687157Y-110730000D02*
X159540000Y-110730000D01*
X160204143Y-110944143D02*
G75*
G03*
X159687157Y-110730022I-516943J-516957D01*
G01*
X160330000Y-111070000D02*
X160204143Y-110944143D01*
X160560000Y-115322426D02*
X160560000Y-111625269D01*
X158020000Y-109990000D02*
X157925356Y-109895356D01*
X160560000Y-116117452D02*
X160560000Y-115470000D01*
X160240000Y-116890000D02*
G75*
G03*
X160559980Y-116117452I-772500J772500D01*
G01*
X159960000Y-117565979D02*
G75*
G02*
X160240006Y-116890006I956000J-21D01*
G01*
X160560000Y-111625269D02*
G75*
G03*
X160329991Y-111070009I-785300J-31D01*
G01*
X159960000Y-117750000D02*
X159960000Y-117565979D01*
X160560000Y-115470000D02*
X160560000Y-115322426D01*
%TO.N,Net-(J4-Pin_1)*%
X165875000Y-89496681D02*
X165875000Y-89462500D01*
X165360000Y-90740000D02*
G75*
G03*
X165874992Y-89496681I-1243300J1243300D01*
G01*
X163259635Y-91610000D02*
G75*
G03*
X165359990Y-90739990I-35J2970400D01*
G01*
X148670000Y-92190000D02*
G75*
G02*
X150070243Y-91610018I1400200J-1400200D01*
G01*
X150070243Y-91610000D02*
X163259635Y-91610000D01*
%TO.N,Net-(J4-Pin_3)*%
X163375000Y-89556386D02*
X163375000Y-89462500D01*
X148863969Y-90850000D02*
X151654163Y-90850000D01*
X162159168Y-90850000D02*
G75*
G03*
X162980010Y-90510010I32J1160800D01*
G01*
X162980000Y-90510000D02*
G75*
G03*
X163374994Y-89556386I-953600J953600D01*
G01*
X147850000Y-91270000D02*
G75*
G02*
X148863969Y-90849987I1014000J-1014000D01*
G01*
X161682426Y-90850000D02*
X162159168Y-90850000D01*
X147600000Y-92510000D02*
X147600000Y-91873553D01*
X147600000Y-91873553D02*
G75*
G02*
X147850014Y-91270014I853600J-47D01*
G01*
X151654163Y-90850000D02*
X161682426Y-90850000D01*
%TO.N,/SWCLK*%
X155473661Y-98423661D02*
G75*
G03*
X149550000Y-95969994I-5923661J-5923639D01*
G01*
X155506569Y-98456569D02*
X155473661Y-98423661D01*
X155590000Y-98540000D02*
X155506569Y-98456569D01*
X157540000Y-103247716D02*
G75*
G03*
X155590005Y-98539995I-6657700J16D01*
G01*
X157540000Y-107100000D02*
X157540000Y-103247716D01*
X157540000Y-108019757D02*
X157540000Y-107100000D01*
X159700000Y-110240000D02*
G75*
G02*
X158402599Y-109702599I0J1834800D01*
G01*
X159778457Y-110240000D02*
X159700000Y-110240000D01*
X160720000Y-110630000D02*
G75*
G03*
X159778457Y-110240018I-941500J-941500D01*
G01*
X161230000Y-111861248D02*
G75*
G03*
X160720014Y-110629986I-1741200J48D01*
G01*
X158402599Y-109702599D02*
X158120000Y-109420000D01*
X158120000Y-109420000D02*
G75*
G02*
X157540018Y-108019757I1400200J1400200D01*
G01*
X161230000Y-115050000D02*
X161230000Y-111861248D01*
%TO.N,/SWDIO*%
X148748192Y-94190000D02*
X148540000Y-94190000D01*
%TO.N,Net-(J1-Pin_5)*%
X158400000Y-107917747D02*
X158400000Y-97797792D01*
X165040000Y-117750000D02*
X165040000Y-114130609D01*
X158400000Y-97797792D02*
G75*
G03*
X157499998Y-95625002I-3072800J-8D01*
G01*
X158840000Y-108980000D02*
G75*
G02*
X158399952Y-107917747I1062200J1062300D01*
G01*
X159853969Y-109400000D02*
G75*
G02*
X158840009Y-108979991I31J1434000D01*
G01*
X160620518Y-109400000D02*
X159853969Y-109400000D01*
X163590000Y-110630000D02*
G75*
G03*
X160620518Y-109399993I-2969500J-2969500D01*
G01*
X165040000Y-114130609D02*
G75*
G03*
X163590003Y-110629997I-4950600J9D01*
G01*
%TO.N,/CELL1*%
X138480000Y-106790000D02*
X138480000Y-102936457D01*
X138480000Y-102936457D02*
G75*
G02*
X139075013Y-101500013I2031500J-43D01*
G01*
X139038615Y-108138615D02*
G75*
G02*
X138479992Y-106790000I1348585J1348615D01*
G01*
X139700000Y-108800000D02*
X139038615Y-108138615D01*
X138640000Y-100700000D02*
X138816906Y-100876906D01*
X138816906Y-100876906D02*
G75*
G02*
X139074996Y-101500000I-623106J-623094D01*
G01*
X135671837Y-97731838D02*
X138640000Y-100700000D01*
X134750000Y-97350000D02*
G75*
G02*
X135671843Y-97731832I0J-1303700D01*
G01*
%TO.N,Net-(J3-Pin_3)*%
X135987653Y-96612652D02*
X139075000Y-99700000D01*
X134750000Y-96100000D02*
G75*
G02*
X135987651Y-96612654I0J-1750300D01*
G01*
%TO.N,Net-(J3-Pin_2)*%
X136926561Y-95751561D02*
X139075000Y-97900000D01*
X134750000Y-94850000D02*
G75*
G02*
X136926556Y-95751566I0J-3078100D01*
G01*
%TO.N,Net-(J3-Pin_1)*%
X137865470Y-94890470D02*
X139075000Y-96100000D01*
X134750000Y-93600000D02*
G75*
G02*
X137865462Y-94890478I0J-4405900D01*
G01*
%TO.N,Net-(U1-SCL)*%
X154710000Y-104580000D02*
X154710000Y-100906984D01*
X154710000Y-100906984D02*
G75*
G03*
X154499996Y-100400004I-717000J-16D01*
G01*
%TD*%
%TA.AperFunction,Conductor*%
%TO.N,Net-(Q1-D)*%
G36*
X156357979Y-107221674D02*
G01*
X156376601Y-107252968D01*
X156396448Y-107319920D01*
X156399500Y-107340952D01*
X156399500Y-107744852D01*
X156399544Y-107745545D01*
X156399544Y-107802298D01*
X156399544Y-107825497D01*
X156409341Y-107937500D01*
X156428152Y-108152559D01*
X156428153Y-108152566D01*
X156485158Y-108475892D01*
X156570126Y-108793019D01*
X156570128Y-108793024D01*
X156682414Y-109101542D01*
X156682416Y-109101548D01*
X156682419Y-109101554D01*
X156821157Y-109399092D01*
X156821161Y-109399100D01*
X156985313Y-109683433D01*
X156985316Y-109683437D01*
X157173623Y-109952377D01*
X157173627Y-109952382D01*
X157384655Y-110203886D01*
X157441621Y-110260854D01*
X157441638Y-110260873D01*
X157500731Y-110319966D01*
X157556497Y-110375734D01*
X157556510Y-110375745D01*
X157732283Y-110551519D01*
X157762165Y-110581401D01*
X157762168Y-110581409D01*
X157783838Y-110603078D01*
X157783838Y-110603079D01*
X157882463Y-110701702D01*
X158100555Y-110875624D01*
X158336750Y-111024033D01*
X158336753Y-111024034D01*
X158336754Y-111024035D01*
X158588071Y-111145063D01*
X158588074Y-111145064D01*
X158588076Y-111145065D01*
X158750442Y-111201879D01*
X158792671Y-111239617D01*
X158800000Y-111271725D01*
X158800000Y-118688042D01*
X158799367Y-118697701D01*
X158784234Y-118812644D01*
X158779234Y-118831303D01*
X158736740Y-118933893D01*
X158727081Y-118950624D01*
X158656507Y-119042597D01*
X158650125Y-119049874D01*
X158549874Y-119150125D01*
X158542597Y-119156507D01*
X158450624Y-119227081D01*
X158433893Y-119236740D01*
X158331303Y-119279234D01*
X158312644Y-119284234D01*
X158197701Y-119299367D01*
X158188042Y-119300000D01*
X144811958Y-119300000D01*
X144802299Y-119299367D01*
X144687355Y-119284234D01*
X144668696Y-119279234D01*
X144566106Y-119236740D01*
X144549380Y-119227084D01*
X144457396Y-119156502D01*
X144450125Y-119150125D01*
X144349874Y-119049874D01*
X144343498Y-119042604D01*
X144272914Y-118950617D01*
X144263259Y-118933893D01*
X144220765Y-118831303D01*
X144215765Y-118812644D01*
X144200633Y-118697701D01*
X144200000Y-118688042D01*
X144200000Y-110275000D01*
X148369909Y-110275000D01*
X148388214Y-110437461D01*
X148388216Y-110437469D01*
X148442211Y-110591776D01*
X148529188Y-110730199D01*
X148529190Y-110730201D01*
X148529192Y-110730204D01*
X148644796Y-110845808D01*
X148644798Y-110845809D01*
X148644800Y-110845811D01*
X148783223Y-110932788D01*
X148783225Y-110932789D01*
X148937539Y-110986786D01*
X149100000Y-111005091D01*
X149262461Y-110986786D01*
X149416775Y-110932789D01*
X149555204Y-110845808D01*
X149670808Y-110730204D01*
X149757789Y-110591775D01*
X149811786Y-110437461D01*
X149830091Y-110275000D01*
X150469909Y-110275000D01*
X150488214Y-110437461D01*
X150488216Y-110437469D01*
X150542211Y-110591776D01*
X150629188Y-110730199D01*
X150629190Y-110730201D01*
X150629192Y-110730204D01*
X150744796Y-110845808D01*
X150744798Y-110845809D01*
X150744800Y-110845811D01*
X150883223Y-110932788D01*
X150883225Y-110932789D01*
X151037539Y-110986786D01*
X151200000Y-111005091D01*
X151362461Y-110986786D01*
X151516775Y-110932789D01*
X151655204Y-110845808D01*
X151770808Y-110730204D01*
X151857789Y-110591775D01*
X151911786Y-110437461D01*
X151930091Y-110275000D01*
X151911786Y-110112539D01*
X151857789Y-109958225D01*
X151854118Y-109952382D01*
X151770811Y-109819800D01*
X151770809Y-109819798D01*
X151770808Y-109819796D01*
X151655204Y-109704192D01*
X151655201Y-109704190D01*
X151655199Y-109704188D01*
X151516776Y-109617211D01*
X151362469Y-109563216D01*
X151362461Y-109563214D01*
X151200000Y-109544909D01*
X151037538Y-109563214D01*
X151037530Y-109563216D01*
X150883223Y-109617211D01*
X150744800Y-109704188D01*
X150629188Y-109819800D01*
X150542211Y-109958223D01*
X150488216Y-110112530D01*
X150488214Y-110112538D01*
X150469909Y-110275000D01*
X149830091Y-110275000D01*
X149811786Y-110112539D01*
X149757789Y-109958225D01*
X149754118Y-109952382D01*
X149670811Y-109819800D01*
X149670809Y-109819798D01*
X149670808Y-109819796D01*
X149555204Y-109704192D01*
X149555201Y-109704190D01*
X149555199Y-109704188D01*
X149416776Y-109617211D01*
X149262469Y-109563216D01*
X149262461Y-109563214D01*
X149100000Y-109544909D01*
X148937538Y-109563214D01*
X148937530Y-109563216D01*
X148783223Y-109617211D01*
X148644800Y-109704188D01*
X148529188Y-109819800D01*
X148442211Y-109958223D01*
X148388216Y-110112530D01*
X148388214Y-110112538D01*
X148369909Y-110275000D01*
X144200000Y-110275000D01*
X144200000Y-107811957D01*
X144200633Y-107802298D01*
X144215766Y-107687351D01*
X144220765Y-107668696D01*
X144263259Y-107566106D01*
X144272911Y-107549385D01*
X144343504Y-107457387D01*
X144349866Y-107450133D01*
X144450133Y-107349866D01*
X144457387Y-107343504D01*
X144549385Y-107272911D01*
X144566102Y-107263260D01*
X144668698Y-107220764D01*
X144687351Y-107215766D01*
X144802299Y-107200633D01*
X144811958Y-107200000D01*
X156305653Y-107200000D01*
X156357979Y-107221674D01*
G37*
%TD.AperFunction*%
%TD*%
%TA.AperFunction,Conductor*%
%TO.N,+BATT*%
G36*
X158497701Y-80700633D02*
G01*
X158612646Y-80715765D01*
X158631303Y-80720765D01*
X158733893Y-80763259D01*
X158750617Y-80772914D01*
X158842604Y-80843498D01*
X158849874Y-80849874D01*
X158950125Y-80950125D01*
X158956502Y-80957396D01*
X159027084Y-81049380D01*
X159036740Y-81066106D01*
X159079234Y-81168696D01*
X159084234Y-81187355D01*
X159099367Y-81302298D01*
X159100000Y-81311957D01*
X159100000Y-82017587D01*
X159083441Y-82064241D01*
X158961514Y-82214360D01*
X158951019Y-82224908D01*
X158810673Y-82340089D01*
X158810673Y-82340090D01*
X158103861Y-83046902D01*
X158103731Y-83047049D01*
X158044510Y-83106270D01*
X157829212Y-83362846D01*
X157637105Y-83637199D01*
X157469641Y-83927252D01*
X157328090Y-84230803D01*
X157213533Y-84545544D01*
X157126854Y-84869035D01*
X157126853Y-84869038D01*
X157068691Y-85198884D01*
X157068688Y-85198907D01*
X157039500Y-85532532D01*
X157039500Y-87901469D01*
X157039342Y-87906309D01*
X157028304Y-88074699D01*
X157027040Y-88084295D01*
X156994596Y-88247405D01*
X156992091Y-88256756D01*
X156938630Y-88414247D01*
X156934926Y-88423189D01*
X156861369Y-88572350D01*
X156856529Y-88580733D01*
X156764131Y-88719015D01*
X156758238Y-88726694D01*
X156677082Y-88819235D01*
X156626286Y-88844286D01*
X156572655Y-88826080D01*
X156558789Y-88809815D01*
X156470811Y-88669800D01*
X156470809Y-88669798D01*
X156470808Y-88669796D01*
X156355204Y-88554192D01*
X156355201Y-88554190D01*
X156355199Y-88554188D01*
X156216776Y-88467211D01*
X156062469Y-88413216D01*
X156062461Y-88413214D01*
X155900000Y-88394909D01*
X155737538Y-88413214D01*
X155737530Y-88413216D01*
X155583223Y-88467211D01*
X155444800Y-88554188D01*
X155329188Y-88669800D01*
X155242211Y-88808223D01*
X155188216Y-88962530D01*
X155188214Y-88962538D01*
X155188214Y-88962539D01*
X155184693Y-88993787D01*
X155157297Y-89043356D01*
X155111159Y-89059500D01*
X154743718Y-89059500D01*
X154743669Y-89059497D01*
X154739159Y-89059497D01*
X154734278Y-89059497D01*
X154696907Y-89059498D01*
X154696888Y-89059490D01*
X154666348Y-89059490D01*
X154662165Y-89059372D01*
X154628688Y-89057476D01*
X154628685Y-89057476D01*
X154628681Y-89057476D01*
X154608536Y-89059217D01*
X154602170Y-89059492D01*
X154575999Y-89059493D01*
X154575997Y-89059493D01*
X154543341Y-89064666D01*
X154538138Y-89065302D01*
X154247121Y-89090456D01*
X154216043Y-89094114D01*
X154206323Y-89097024D01*
X154193390Y-89099667D01*
X154117538Y-89108214D01*
X154117530Y-89108216D01*
X153963223Y-89162211D01*
X153824800Y-89249188D01*
X153709188Y-89364800D01*
X153622211Y-89503223D01*
X153568216Y-89657530D01*
X153568214Y-89657538D01*
X153549909Y-89820000D01*
X153568214Y-89982461D01*
X153568216Y-89982469D01*
X153622211Y-90136777D01*
X153624015Y-90140523D01*
X153622663Y-90141173D01*
X153631291Y-90191971D01*
X153598514Y-90238160D01*
X153559147Y-90249500D01*
X151430163Y-90249500D01*
X151377837Y-90227826D01*
X151356163Y-90175500D01*
X151377836Y-90123175D01*
X151445808Y-90055204D01*
X151532789Y-89916775D01*
X151586786Y-89762461D01*
X151605091Y-89600000D01*
X151586786Y-89437539D01*
X151532789Y-89283225D01*
X151511402Y-89249188D01*
X151445811Y-89144800D01*
X151445809Y-89144798D01*
X151445808Y-89144796D01*
X151330204Y-89029192D01*
X151330201Y-89029190D01*
X151330199Y-89029188D01*
X151191776Y-88942211D01*
X151037469Y-88888216D01*
X151037461Y-88888214D01*
X150875000Y-88869909D01*
X150712538Y-88888214D01*
X150712530Y-88888216D01*
X150558223Y-88942211D01*
X150419800Y-89029188D01*
X150304188Y-89144800D01*
X150217211Y-89283223D01*
X150163216Y-89437530D01*
X150163214Y-89437538D01*
X150144909Y-89600000D01*
X150163214Y-89762461D01*
X150163216Y-89762469D01*
X150217211Y-89916776D01*
X150304188Y-90055199D01*
X150304189Y-90055200D01*
X150304192Y-90055204D01*
X150372163Y-90123175D01*
X150393837Y-90175500D01*
X150372163Y-90227826D01*
X150319837Y-90249500D01*
X148941415Y-90249500D01*
X148941399Y-90249499D01*
X148894619Y-90249499D01*
X148894590Y-90249487D01*
X148749707Y-90249489D01*
X148522633Y-90275079D01*
X148522627Y-90275080D01*
X148299862Y-90325928D01*
X148299859Y-90325929D01*
X148084172Y-90401404D01*
X147894662Y-90492671D01*
X147862554Y-90500000D01*
X144111958Y-90500000D01*
X144102299Y-90499367D01*
X143987355Y-90484234D01*
X143968696Y-90479234D01*
X143866106Y-90436740D01*
X143849380Y-90427084D01*
X143757396Y-90356502D01*
X143750125Y-90350125D01*
X143649874Y-90249874D01*
X143643498Y-90242604D01*
X143572914Y-90150617D01*
X143563259Y-90133893D01*
X143520765Y-90031303D01*
X143515765Y-90012644D01*
X143511791Y-89982461D01*
X143500633Y-89897701D01*
X143500000Y-89888042D01*
X143500000Y-81311957D01*
X143500633Y-81302298D01*
X143515766Y-81187351D01*
X143520765Y-81168696D01*
X143563259Y-81066106D01*
X143572911Y-81049385D01*
X143643504Y-80957387D01*
X143649866Y-80950133D01*
X143750133Y-80849866D01*
X143757387Y-80843504D01*
X143849385Y-80772911D01*
X143866102Y-80763260D01*
X143968698Y-80720764D01*
X143987351Y-80715766D01*
X144102299Y-80700633D01*
X144111958Y-80700000D01*
X158488042Y-80700000D01*
X158497701Y-80700633D01*
G37*
%TD.AperFunction*%
%TD*%
%TA.AperFunction,Conductor*%
%TO.N,GND*%
G36*
X147058861Y-91321674D02*
G01*
X147080535Y-91374000D01*
X147074902Y-91402319D01*
X147073729Y-91405149D01*
X147024392Y-91589247D01*
X147024390Y-91589257D01*
X146999504Y-91778215D01*
X146999504Y-91789928D01*
X146999500Y-91789998D01*
X146999500Y-91794496D01*
X146999500Y-91865002D01*
X146999500Y-91873520D01*
X146999499Y-91902298D01*
X146999496Y-91950936D01*
X146999500Y-91951001D01*
X146999500Y-91959046D01*
X146996448Y-91980078D01*
X146910458Y-92270154D01*
X146903547Y-92295947D01*
X146903546Y-92295953D01*
X146903403Y-92297498D01*
X146899569Y-92315085D01*
X146888216Y-92347532D01*
X146888214Y-92347538D01*
X146869909Y-92510000D01*
X146888214Y-92672461D01*
X146888216Y-92672469D01*
X146942211Y-92826776D01*
X147029188Y-92965199D01*
X147029190Y-92965201D01*
X147029192Y-92965204D01*
X147144796Y-93080808D01*
X147144798Y-93080809D01*
X147144800Y-93080811D01*
X147283224Y-93167789D01*
X147371931Y-93198828D01*
X147435725Y-93221151D01*
X147477957Y-93258890D01*
X147481132Y-93315438D01*
X147471148Y-93334500D01*
X147384783Y-93453347D01*
X147308123Y-93603766D01*
X147308120Y-93603772D01*
X147255932Y-93764340D01*
X147255931Y-93764347D01*
X147229506Y-93931093D01*
X147229506Y-93932145D01*
X147229500Y-93932249D01*
X147229500Y-94015523D01*
X147229495Y-94092925D01*
X147229500Y-94093006D01*
X147229500Y-94398520D01*
X147229519Y-94398830D01*
X147229519Y-94463553D01*
X147258667Y-94759556D01*
X147316686Y-95051260D01*
X147403022Y-95335888D01*
X147516836Y-95610667D01*
X147516851Y-95610697D01*
X147657038Y-95872973D01*
X147657046Y-95872987D01*
X147822286Y-96120291D01*
X148010972Y-96350207D01*
X148010980Y-96350215D01*
X148060227Y-96399463D01*
X148060228Y-96399463D01*
X148303694Y-96642929D01*
X148303714Y-96642978D01*
X148325368Y-96664631D01*
X148325368Y-96664632D01*
X148429251Y-96768515D01*
X148656382Y-96954915D01*
X148900690Y-97118154D01*
X148900702Y-97118160D01*
X148900703Y-97118161D01*
X149142974Y-97247656D01*
X149159822Y-97256661D01*
X149159827Y-97256663D01*
X149159831Y-97256665D01*
X149431268Y-97369095D01*
X149431287Y-97369102D01*
X149567187Y-97410324D01*
X149712457Y-97454390D01*
X149984157Y-97508429D01*
X149994318Y-97511216D01*
X150144858Y-97564313D01*
X150305323Y-97620911D01*
X150305339Y-97620915D01*
X150305342Y-97620917D01*
X150343112Y-97632599D01*
X150349561Y-97633363D01*
X150365286Y-97637001D01*
X150407539Y-97651786D01*
X150570000Y-97670091D01*
X150732461Y-97651786D01*
X150886775Y-97597789D01*
X151025204Y-97510808D01*
X151140808Y-97395204D01*
X151227789Y-97256775D01*
X151281786Y-97102461D01*
X151300091Y-96940000D01*
X151292644Y-96873913D01*
X151308323Y-96819492D01*
X151357893Y-96792095D01*
X151382978Y-96793562D01*
X151560434Y-96834939D01*
X151565096Y-96836189D01*
X152047473Y-96982517D01*
X152052044Y-96984069D01*
X152523805Y-97161627D01*
X152528246Y-97163467D01*
X152987403Y-97371509D01*
X152991729Y-97373643D01*
X153436266Y-97611253D01*
X153440459Y-97613673D01*
X153739811Y-97799823D01*
X153868502Y-97879848D01*
X153872528Y-97882538D01*
X154282261Y-98176150D01*
X154286103Y-98179098D01*
X154675736Y-98498863D01*
X154679377Y-98502056D01*
X155048304Y-98847594D01*
X155050029Y-98849264D01*
X155137854Y-98937089D01*
X155164453Y-98963689D01*
X155166286Y-98965589D01*
X155458214Y-99279141D01*
X155461674Y-99283133D01*
X155729681Y-99615711D01*
X155732846Y-99619940D01*
X155976429Y-99970766D01*
X155979285Y-99975210D01*
X156197221Y-100342522D01*
X156199753Y-100347158D01*
X156226204Y-100400000D01*
X156384770Y-100716776D01*
X156390938Y-100729097D01*
X156393132Y-100733903D01*
X156556577Y-101128497D01*
X156558423Y-101133446D01*
X156693303Y-101538697D01*
X156694791Y-101543765D01*
X156800414Y-101957595D01*
X156801537Y-101962757D01*
X156877371Y-102383079D01*
X156878123Y-102388308D01*
X156923778Y-102812967D01*
X156924155Y-102818236D01*
X156939453Y-103246609D01*
X156939500Y-103249221D01*
X156939500Y-106000595D01*
X156917826Y-106052921D01*
X156873788Y-106074129D01*
X156844969Y-106077376D01*
X156837538Y-106078214D01*
X156837530Y-106078216D01*
X156683223Y-106132211D01*
X156544800Y-106219188D01*
X156544796Y-106219192D01*
X156429192Y-106334796D01*
X156409980Y-106365372D01*
X156363788Y-106398145D01*
X156347323Y-106400000D01*
X144811958Y-106400000D01*
X144802299Y-106399367D01*
X144687355Y-106384234D01*
X144668696Y-106379234D01*
X144566106Y-106336740D01*
X144549380Y-106327084D01*
X144457396Y-106256502D01*
X144450125Y-106250125D01*
X143649874Y-105449874D01*
X143643498Y-105442604D01*
X143572914Y-105350617D01*
X143563259Y-105333893D01*
X143520765Y-105231303D01*
X143515765Y-105212644D01*
X143500633Y-105097701D01*
X143500000Y-105088042D01*
X143500000Y-100400000D01*
X153769909Y-100400000D01*
X153788214Y-100562461D01*
X153788216Y-100562469D01*
X153842211Y-100716776D01*
X153929188Y-100855199D01*
X153929193Y-100855205D01*
X153971925Y-100897938D01*
X153978048Y-100904879D01*
X153998350Y-100931025D01*
X153998354Y-100931030D01*
X154086895Y-101016502D01*
X154109488Y-101068437D01*
X154109500Y-101069742D01*
X154109500Y-104029046D01*
X154106448Y-104050078D01*
X154020458Y-104340154D01*
X154013547Y-104365947D01*
X154013546Y-104365953D01*
X154013403Y-104367498D01*
X154009569Y-104385085D01*
X153998216Y-104417532D01*
X153998214Y-104417538D01*
X153979909Y-104580000D01*
X153998214Y-104742461D01*
X153998216Y-104742469D01*
X154052211Y-104896776D01*
X154139188Y-105035199D01*
X154139190Y-105035201D01*
X154139192Y-105035204D01*
X154254796Y-105150808D01*
X154254798Y-105150809D01*
X154254800Y-105150811D01*
X154393223Y-105237788D01*
X154393225Y-105237789D01*
X154547539Y-105291786D01*
X154710000Y-105310091D01*
X154872461Y-105291786D01*
X155026775Y-105237789D01*
X155165204Y-105150808D01*
X155280808Y-105035204D01*
X155367789Y-104896775D01*
X155421786Y-104742461D01*
X155440091Y-104580000D01*
X155421786Y-104417539D01*
X155405363Y-104370607D01*
X155401992Y-104356889D01*
X155399543Y-104340165D01*
X155399543Y-104340162D01*
X155313552Y-104050079D01*
X155310500Y-104029047D01*
X155310500Y-100979888D01*
X155310501Y-100979884D01*
X155310500Y-100937628D01*
X155310506Y-100937613D01*
X155310505Y-100906971D01*
X155310506Y-100906971D01*
X155310504Y-100820619D01*
X155292858Y-100686611D01*
X155292323Y-100680712D01*
X155291448Y-100663218D01*
X155240047Y-100400000D01*
X155222960Y-100312496D01*
X155222129Y-100308337D01*
X155222128Y-100308333D01*
X155221587Y-100306824D01*
X155217711Y-100290135D01*
X155211786Y-100237539D01*
X155157788Y-100083223D01*
X155070811Y-99944800D01*
X155070809Y-99944798D01*
X155070808Y-99944796D01*
X154955204Y-99829192D01*
X154955201Y-99829190D01*
X154955199Y-99829188D01*
X154816776Y-99742211D01*
X154662469Y-99688216D01*
X154662461Y-99688214D01*
X154500000Y-99669909D01*
X154337538Y-99688214D01*
X154337530Y-99688216D01*
X154183223Y-99742211D01*
X154044800Y-99829188D01*
X153929188Y-99944800D01*
X153842211Y-100083223D01*
X153788216Y-100237530D01*
X153788214Y-100237538D01*
X153769909Y-100400000D01*
X143500000Y-100400000D01*
X143500000Y-91911957D01*
X143500633Y-91902298D01*
X143504422Y-91873520D01*
X143515766Y-91787351D01*
X143520765Y-91768696D01*
X143563259Y-91666106D01*
X143572911Y-91649385D01*
X143643504Y-91557387D01*
X143649866Y-91550133D01*
X143750133Y-91449866D01*
X143757387Y-91443504D01*
X143849385Y-91372911D01*
X143866102Y-91363260D01*
X143968698Y-91320764D01*
X143987351Y-91315766D01*
X144102299Y-91300633D01*
X144111958Y-91300000D01*
X147006535Y-91300000D01*
X147058861Y-91321674D01*
G37*
%TD.AperFunction*%
%TA.AperFunction,Conductor*%
G36*
X158378326Y-92232174D02*
G01*
X158400000Y-92284500D01*
X158400000Y-95547305D01*
X158378326Y-95599631D01*
X158326000Y-95621305D01*
X158273674Y-95599631D01*
X158265390Y-95589760D01*
X158264165Y-95588011D01*
X158262673Y-95585881D01*
X158253425Y-95567833D01*
X158189168Y-95383855D01*
X158184400Y-95370785D01*
X158184182Y-95370212D01*
X158165695Y-95329853D01*
X158163125Y-95323476D01*
X158157787Y-95308220D01*
X158070811Y-95169800D01*
X158070809Y-95169798D01*
X158070808Y-95169796D01*
X157955204Y-95054192D01*
X157955201Y-95054190D01*
X157955199Y-95054188D01*
X157816776Y-94967211D01*
X157662469Y-94913216D01*
X157662461Y-94913214D01*
X157500000Y-94894909D01*
X157337538Y-94913214D01*
X157337530Y-94913216D01*
X157183223Y-94967211D01*
X157044800Y-95054188D01*
X156929188Y-95169800D01*
X156842211Y-95308223D01*
X156788216Y-95462530D01*
X156788214Y-95462538D01*
X156769909Y-95625000D01*
X156788214Y-95787461D01*
X156788216Y-95787469D01*
X156842211Y-95941776D01*
X156929188Y-96080199D01*
X156929190Y-96080201D01*
X156929192Y-96080204D01*
X157044796Y-96195808D01*
X157183225Y-96282789D01*
X157185019Y-96283416D01*
X157186674Y-96283996D01*
X157203497Y-96292415D01*
X157204528Y-96293108D01*
X157268879Y-96324091D01*
X157268882Y-96324094D01*
X157311394Y-96344563D01*
X157339642Y-96368415D01*
X157418154Y-96479066D01*
X157422569Y-96486093D01*
X157552655Y-96721465D01*
X157556256Y-96728942D01*
X157659172Y-96977404D01*
X157661913Y-96985236D01*
X157736366Y-97243667D01*
X157738212Y-97251757D01*
X157783259Y-97516879D01*
X157784189Y-97525125D01*
X157799384Y-97795673D01*
X157799500Y-97799823D01*
X157799500Y-99356728D01*
X157777826Y-99409054D01*
X157725500Y-99430728D01*
X157673174Y-99409054D01*
X157658828Y-99388836D01*
X157606937Y-99281083D01*
X157453034Y-98961501D01*
X157453026Y-98961486D01*
X157453020Y-98961474D01*
X157175395Y-98459152D01*
X157175390Y-98459144D01*
X156870020Y-97973150D01*
X156541970Y-97510808D01*
X156537888Y-97505055D01*
X156537851Y-97505005D01*
X156180022Y-97056303D01*
X156180018Y-97056298D01*
X156180012Y-97056291D01*
X155797547Y-96628313D01*
X155637065Y-96467831D01*
X155594618Y-96425382D01*
X155594617Y-96425381D01*
X155594617Y-96425380D01*
X155540029Y-96370795D01*
X155539920Y-96370698D01*
X155502563Y-96333341D01*
X155454617Y-96285395D01*
X155237593Y-96100038D01*
X155153523Y-96028235D01*
X154833192Y-95795500D01*
X154833176Y-95795490D01*
X154495579Y-95588610D01*
X154495558Y-95588598D01*
X154142779Y-95408847D01*
X154142766Y-95408841D01*
X153899847Y-95308220D01*
X153776943Y-95257311D01*
X153776931Y-95257307D01*
X153776923Y-95257304D01*
X153400370Y-95134954D01*
X153400342Y-95134946D01*
X153015354Y-95042517D01*
X153015329Y-95042512D01*
X152624245Y-94980569D01*
X152229505Y-94949500D01*
X152110581Y-94949500D01*
X152110580Y-94949500D01*
X150441931Y-94949500D01*
X150434677Y-94949144D01*
X150309171Y-94936781D01*
X150294943Y-94933950D01*
X150269375Y-94926193D01*
X150177766Y-94898402D01*
X150164364Y-94892850D01*
X150056374Y-94835125D01*
X150044313Y-94827066D01*
X149946656Y-94746918D01*
X149941275Y-94742041D01*
X149889248Y-94690012D01*
X149889229Y-94689995D01*
X149370366Y-94171131D01*
X149348692Y-94118805D01*
X149348692Y-94110941D01*
X149348691Y-94110940D01*
X149342665Y-94088452D01*
X149307769Y-93958216D01*
X149228712Y-93821284D01*
X149116908Y-93709480D01*
X149051010Y-93671434D01*
X149035691Y-93659679D01*
X148995204Y-93619192D01*
X148995201Y-93619190D01*
X148995200Y-93619189D01*
X148934817Y-93581248D01*
X148859321Y-93533810D01*
X148826547Y-93487621D01*
X148828313Y-93448288D01*
X148832633Y-93434996D01*
X148860500Y-93259063D01*
X148860500Y-93170000D01*
X148860500Y-93097086D01*
X148860500Y-92992234D01*
X148860517Y-92991937D01*
X148860516Y-92987628D01*
X148860517Y-92987625D01*
X148860507Y-92945385D01*
X148860525Y-92945340D01*
X148860525Y-92944554D01*
X148882140Y-92892204D01*
X148910081Y-92874624D01*
X148986775Y-92847789D01*
X149125204Y-92760808D01*
X149240808Y-92645204D01*
X149259544Y-92615386D01*
X149261224Y-92612830D01*
X149415398Y-92388593D01*
X149443644Y-92364151D01*
X149537886Y-92317678D01*
X149546818Y-92313978D01*
X149708546Y-92259081D01*
X149717884Y-92256579D01*
X149885383Y-92223264D01*
X149894970Y-92222002D01*
X150068109Y-92210657D01*
X150072945Y-92210500D01*
X150143144Y-92210501D01*
X150143148Y-92210500D01*
X158326000Y-92210500D01*
X158378326Y-92232174D01*
G37*
%TD.AperFunction*%
%TD*%
%TA.AperFunction,Conductor*%
%TO.N,Net-(U2-PA3)*%
G36*
X154680756Y-89563800D02*
G01*
X154684883Y-89571747D01*
X154684926Y-89572755D01*
X154684926Y-89754755D01*
X154681499Y-89763028D01*
X154681011Y-89763489D01*
X154447320Y-89971771D01*
X154438863Y-89974718D01*
X154431288Y-89971336D01*
X154352405Y-89892946D01*
X154282473Y-89823451D01*
X154279021Y-89815191D01*
X154279952Y-89605682D01*
X154283416Y-89597426D01*
X154290641Y-89594080D01*
X154672219Y-89561098D01*
X154680756Y-89563800D01*
G37*
%TD.AperFunction*%
%TD*%
%TA.AperFunction,Conductor*%
%TO.N,Net-(U2-PA3)*%
G36*
X160991516Y-82098736D02*
G01*
X160999533Y-82102725D01*
X161002260Y-82108544D01*
X161075528Y-82562647D01*
X161073462Y-82571361D01*
X161065841Y-82576062D01*
X161065063Y-82576161D01*
X159454472Y-82726281D01*
X159445916Y-82723636D01*
X159444239Y-82721926D01*
X159329352Y-82577866D01*
X159326873Y-82569261D01*
X159329417Y-82563195D01*
X159771170Y-82019302D01*
X159779046Y-82015041D01*
X159781057Y-82015007D01*
X160991516Y-82098736D01*
G37*
%TD.AperFunction*%
%TD*%
%TA.AperFunction,Conductor*%
%TO.N,Net-(U2-PA2)*%
G36*
X155321625Y-90097517D02*
G01*
X155328583Y-90103154D01*
X155330000Y-90108735D01*
X155330000Y-90291264D01*
X155326573Y-90299537D01*
X155321625Y-90302482D01*
X154976164Y-90404890D01*
X154967258Y-90403955D01*
X154962048Y-90398194D01*
X154880893Y-90204519D01*
X154880857Y-90195568D01*
X154962049Y-90001803D01*
X154968406Y-89995499D01*
X154976163Y-89995109D01*
X155321625Y-90097517D01*
G37*
%TD.AperFunction*%
%TD*%
%TA.AperFunction,Conductor*%
%TO.N,Net-(U2-PA2)*%
G36*
X164799181Y-82102928D02*
G01*
X164803282Y-82109185D01*
X164921624Y-82563754D01*
X164920392Y-82572624D01*
X164913326Y-82578004D01*
X163472534Y-82963662D01*
X163463656Y-82962491D01*
X163461236Y-82960633D01*
X163330220Y-82829617D01*
X163326793Y-82821344D01*
X163327760Y-82816687D01*
X163572329Y-82253350D01*
X163578766Y-82247128D01*
X163581653Y-82246396D01*
X164790558Y-82100517D01*
X164799181Y-82102928D01*
G37*
%TD.AperFunction*%
%TD*%
%TA.AperFunction,Conductor*%
%TO.N,/SWDIO*%
G36*
X148747117Y-94107908D02*
G01*
X148752877Y-94113117D01*
X148794217Y-94189293D01*
X148924741Y-94429809D01*
X148925675Y-94438715D01*
X148922731Y-94443663D01*
X148793663Y-94572731D01*
X148785390Y-94576158D01*
X148779809Y-94574741D01*
X148645558Y-94501885D01*
X148463117Y-94402877D01*
X148457482Y-94395920D01*
X148457870Y-94388164D01*
X148537435Y-94193829D01*
X148543741Y-94187472D01*
X148543757Y-94187465D01*
X148738164Y-94107871D01*
X148747117Y-94107908D01*
G37*
%TD.AperFunction*%
%TD*%
%TA.AperFunction,Conductor*%
%TO.N,/SWDIO*%
G36*
X163872142Y-113828427D02*
G01*
X163873489Y-113830040D01*
X164091567Y-114145042D01*
X164093458Y-114153795D01*
X164092953Y-114155672D01*
X163781006Y-115020487D01*
X163774975Y-115027107D01*
X163766030Y-115027523D01*
X163759410Y-115021492D01*
X163758994Y-115020487D01*
X163447046Y-114155672D01*
X163447462Y-114146727D01*
X163448432Y-114145042D01*
X163666511Y-113830040D01*
X163674038Y-113825189D01*
X163676131Y-113825000D01*
X163863869Y-113825000D01*
X163872142Y-113828427D01*
G37*
%TD.AperFunction*%
%TD*%
%TA.AperFunction,Conductor*%
%TO.N,GND*%
G36*
X161732175Y-89069657D02*
G01*
X162117696Y-89454217D01*
X162121133Y-89462485D01*
X162117716Y-89470763D01*
X162117696Y-89470783D01*
X161732175Y-89855342D01*
X161723897Y-89858759D01*
X161716892Y-89856419D01*
X161329680Y-89566010D01*
X161325118Y-89558305D01*
X161325000Y-89556650D01*
X161325000Y-89368350D01*
X161328427Y-89360077D01*
X161329680Y-89358990D01*
X161716894Y-89068579D01*
X161725567Y-89066358D01*
X161732175Y-89069657D01*
G37*
%TD.AperFunction*%
%TD*%
%TA.AperFunction,Conductor*%
%TO.N,GND*%
G36*
X159628182Y-89261870D02*
G01*
X159951203Y-89359979D01*
X159958123Y-89365662D01*
X159959503Y-89371174D01*
X159959503Y-89553710D01*
X159956076Y-89561983D01*
X159951061Y-89564947D01*
X159606122Y-89664968D01*
X159597222Y-89663981D01*
X159592073Y-89658253D01*
X159551733Y-89561983D01*
X159510893Y-89464519D01*
X159510857Y-89455568D01*
X159592021Y-89261869D01*
X159598379Y-89255564D01*
X159606212Y-89255197D01*
X159628182Y-89261870D01*
G37*
%TD.AperFunction*%
%TD*%
%TA.AperFunction,Conductor*%
%TO.N,/SDA_EXT*%
G36*
X150483040Y-96735862D02*
G01*
X150487753Y-96741340D01*
X150569097Y-96935608D01*
X150569132Y-96944563D01*
X150569095Y-96944651D01*
X150488165Y-97137690D01*
X150481806Y-97143994D01*
X150473483Y-97144200D01*
X150117580Y-97018671D01*
X150110918Y-97012687D01*
X150109872Y-97006110D01*
X150117974Y-96944563D01*
X150133690Y-96825168D01*
X150138167Y-96817415D01*
X150142514Y-96815332D01*
X150474191Y-96734492D01*
X150483040Y-96735862D01*
G37*
%TD.AperFunction*%
%TD*%
%TA.AperFunction,Conductor*%
%TO.N,/SDA_EXT*%
G36*
X164237736Y-89395319D02*
G01*
X164617514Y-89460389D01*
X164625089Y-89465164D01*
X164627078Y-89469990D01*
X164758592Y-90255857D01*
X164756577Y-90264582D01*
X164754518Y-90266797D01*
X164296251Y-90646575D01*
X164287694Y-90649215D01*
X164280512Y-90645839D01*
X164150396Y-90515723D01*
X164146969Y-90507450D01*
X164146997Y-90506653D01*
X164224096Y-89406032D01*
X164228092Y-89398021D01*
X164236585Y-89395181D01*
X164237736Y-89395319D01*
G37*
%TD.AperFunction*%
%TD*%
%TA.AperFunction,Conductor*%
%TO.N,/TS*%
G36*
X137559538Y-105123427D02*
G01*
X137562483Y-105128375D01*
X137664890Y-105473835D01*
X137663955Y-105482741D01*
X137658194Y-105487951D01*
X137464522Y-105569105D01*
X137455567Y-105569142D01*
X137455478Y-105569105D01*
X137261805Y-105487951D01*
X137255499Y-105481593D01*
X137255109Y-105473835D01*
X137357517Y-105128375D01*
X137363154Y-105121417D01*
X137368735Y-105120000D01*
X137551265Y-105120000D01*
X137559538Y-105123427D01*
G37*
%TD.AperFunction*%
%TD*%
%TA.AperFunction,Conductor*%
%TO.N,/TS*%
G36*
X135550193Y-98596895D02*
G01*
X135552903Y-98601035D01*
X135718621Y-99032790D01*
X135718386Y-99041742D01*
X135715893Y-99045334D01*
X135583009Y-99175742D01*
X135574704Y-99179090D01*
X135572598Y-99178879D01*
X134880117Y-99045334D01*
X134657290Y-99002361D01*
X134649817Y-98997431D01*
X134648019Y-98988658D01*
X134648178Y-98987952D01*
X134747039Y-98607973D01*
X134752439Y-98600831D01*
X134758274Y-98599221D01*
X135541897Y-98593528D01*
X135550193Y-98596895D01*
G37*
%TD.AperFunction*%
%TD*%
%TA.AperFunction,Conductor*%
%TO.N,+3.3V*%
G36*
X157198194Y-106872048D02*
G01*
X157204500Y-106878406D01*
X157204890Y-106886164D01*
X157102483Y-107231625D01*
X157096846Y-107238583D01*
X157091265Y-107240000D01*
X156908735Y-107240000D01*
X156900462Y-107236573D01*
X156897517Y-107231625D01*
X156795109Y-106886164D01*
X156796044Y-106877258D01*
X156801803Y-106872049D01*
X156995480Y-106790893D01*
X157004431Y-106790857D01*
X157198194Y-106872048D01*
G37*
%TD.AperFunction*%
%TD*%
%TA.AperFunction,Conductor*%
%TO.N,+3.3V*%
G36*
X160370333Y-116543926D02*
G01*
X160539574Y-116614023D01*
X160545905Y-116620354D01*
X160546523Y-116627346D01*
X160287466Y-117804858D01*
X160282341Y-117812202D01*
X160273742Y-117813816D01*
X159969333Y-117752868D01*
X159961894Y-117747884D01*
X159959936Y-117741020D01*
X159988395Y-116855290D01*
X159992085Y-116847134D01*
X159992635Y-116846650D01*
X160358430Y-116545702D01*
X160366995Y-116543093D01*
X160370333Y-116543926D01*
G37*
%TD.AperFunction*%
%TD*%
%TA.AperFunction,Conductor*%
%TO.N,Net-(J4-Pin_1)*%
G36*
X165487741Y-89398814D02*
G01*
X165867456Y-89460372D01*
X165875073Y-89465078D01*
X165877087Y-89469790D01*
X166022704Y-90255912D01*
X166020842Y-90264671D01*
X166018861Y-90266886D01*
X165573195Y-90653020D01*
X165564699Y-90655847D01*
X165558657Y-90653642D01*
X165409566Y-90545321D01*
X165404887Y-90537686D01*
X165404765Y-90535140D01*
X165474204Y-89409644D01*
X165478134Y-89401598D01*
X165486602Y-89398687D01*
X165487741Y-89398814D01*
G37*
%TD.AperFunction*%
%TD*%
%TA.AperFunction,Conductor*%
%TO.N,Net-(J4-Pin_1)*%
G36*
X148969395Y-91829589D02*
G01*
X148974968Y-91834514D01*
X149066185Y-91992507D01*
X149067353Y-92001385D01*
X149065693Y-92004986D01*
X148837033Y-92337559D01*
X148829522Y-92342434D01*
X148820763Y-92340571D01*
X148819154Y-92339239D01*
X148670823Y-92192174D01*
X148668232Y-92188295D01*
X148588340Y-91992991D01*
X148588379Y-91984036D01*
X148594738Y-91977732D01*
X148960442Y-91829521D01*
X148969395Y-91829589D01*
G37*
%TD.AperFunction*%
%TD*%
%TA.AperFunction,Conductor*%
%TO.N,Net-(J4-Pin_3)*%
G36*
X162987910Y-89393016D02*
G01*
X163367497Y-89460349D01*
X163375044Y-89465168D01*
X163377012Y-89470060D01*
X163499872Y-90255330D01*
X163497766Y-90264034D01*
X163495071Y-90266690D01*
X163057460Y-90576334D01*
X163048727Y-90578315D01*
X163042260Y-90574884D01*
X162914313Y-90441545D01*
X162911057Y-90433203D01*
X162911074Y-90432778D01*
X162974196Y-89403819D01*
X162978123Y-89395773D01*
X162986590Y-89392859D01*
X162987910Y-89393016D01*
G37*
%TD.AperFunction*%
%TD*%
%TA.AperFunction,Conductor*%
%TO.N,Net-(J4-Pin_3)*%
G36*
X147699538Y-92063427D02*
G01*
X147702483Y-92068375D01*
X147804890Y-92413835D01*
X147803955Y-92422741D01*
X147798194Y-92427951D01*
X147604522Y-92509105D01*
X147595567Y-92509142D01*
X147595478Y-92509105D01*
X147401805Y-92427951D01*
X147395499Y-92421593D01*
X147395109Y-92413835D01*
X147497517Y-92068375D01*
X147503154Y-92061417D01*
X147508735Y-92060000D01*
X147691265Y-92060000D01*
X147699538Y-92063427D01*
G37*
%TD.AperFunction*%
%TD*%
%TA.AperFunction,Conductor*%
%TO.N,/SWCLK*%
G36*
X149997688Y-95880721D02*
G01*
X150004481Y-95886555D01*
X150005712Y-95892673D01*
X149992691Y-96074733D01*
X149988683Y-96082740D01*
X149984032Y-96085204D01*
X149645964Y-96175246D01*
X149637088Y-96174064D01*
X149632161Y-96168460D01*
X149597288Y-96085204D01*
X149550895Y-95974448D01*
X149550861Y-95965496D01*
X149631930Y-95772084D01*
X149638287Y-95765781D01*
X149646363Y-95765492D01*
X149997688Y-95880721D01*
G37*
%TD.AperFunction*%
%TD*%
%TA.AperFunction,Conductor*%
%TO.N,/SWCLK*%
G36*
X161332142Y-113828427D02*
G01*
X161333489Y-113830040D01*
X161551567Y-114145042D01*
X161553458Y-114153795D01*
X161552953Y-114155672D01*
X161241006Y-115020487D01*
X161234975Y-115027107D01*
X161226030Y-115027523D01*
X161219410Y-115021492D01*
X161218994Y-115020487D01*
X160907046Y-114155672D01*
X160907462Y-114146727D01*
X160908432Y-114145042D01*
X161126511Y-113830040D01*
X161134038Y-113825189D01*
X161136131Y-113825000D01*
X161323869Y-113825000D01*
X161332142Y-113828427D01*
G37*
%TD.AperFunction*%
%TD*%
%TA.AperFunction,Conductor*%
%TO.N,Net-(J1-Pin_5)*%
G36*
X165142142Y-116528427D02*
G01*
X165143489Y-116530040D01*
X165361567Y-116845042D01*
X165363458Y-116853795D01*
X165362953Y-116855672D01*
X165051006Y-117720487D01*
X165044975Y-117727107D01*
X165036030Y-117727523D01*
X165029410Y-117721492D01*
X165028994Y-117720487D01*
X164717046Y-116855672D01*
X164717462Y-116846727D01*
X164718432Y-116845042D01*
X164936511Y-116530040D01*
X164944038Y-116525189D01*
X164946131Y-116525000D01*
X165133869Y-116525000D01*
X165142142Y-116528427D01*
G37*
%TD.AperFunction*%
%TD*%
%TA.AperFunction,Conductor*%
%TO.N,Net-(J1-Pin_5)*%
G36*
X157705415Y-95543603D02*
G01*
X157711720Y-95549962D01*
X157711938Y-95550535D01*
X157804033Y-95814217D01*
X157803525Y-95823158D01*
X157800282Y-95827222D01*
X157656150Y-95942165D01*
X157647545Y-95944644D01*
X157643781Y-95943560D01*
X157507386Y-95877887D01*
X157423824Y-95837653D01*
X157417857Y-95830976D01*
X157418073Y-95822676D01*
X157497519Y-95628753D01*
X157503825Y-95622398D01*
X157696463Y-95543565D01*
X157705415Y-95543603D01*
G37*
%TD.AperFunction*%
%TD*%
%TA.AperFunction,Conductor*%
%TO.N,/CELL1*%
G36*
X139073295Y-101498232D02*
G01*
X139077174Y-101500823D01*
X139224204Y-101649119D01*
X139227595Y-101657407D01*
X139224133Y-101665666D01*
X139222490Y-101667021D01*
X138888645Y-101894842D01*
X138879880Y-101896675D01*
X138876200Y-101895310D01*
X138718218Y-101804098D01*
X138712767Y-101796994D01*
X138713241Y-101789531D01*
X138862694Y-101424715D01*
X138869001Y-101418360D01*
X138877949Y-101418323D01*
X139073295Y-101498232D01*
G37*
%TD.AperFunction*%
%TD*%
%TA.AperFunction,Conductor*%
%TO.N,/CELL1*%
G36*
X138721422Y-107477042D02*
G01*
X140016459Y-108095007D01*
X140022450Y-108101662D01*
X140022026Y-108110507D01*
X139702983Y-108795339D01*
X139696383Y-108801391D01*
X139694306Y-108801938D01*
X138910499Y-108932971D01*
X138901774Y-108930955D01*
X138897263Y-108924439D01*
X138534601Y-107561243D01*
X138535786Y-107552367D01*
X138541430Y-107547426D01*
X138711931Y-107476802D01*
X138720882Y-107476802D01*
X138721422Y-107477042D01*
G37*
%TD.AperFunction*%
%TD*%
%TA.AperFunction,Conductor*%
%TO.N,/CELL1*%
G36*
X139054045Y-101025941D02*
G01*
X139054395Y-101026497D01*
X139276061Y-101402347D01*
X139277312Y-101411214D01*
X139271927Y-101418369D01*
X139270507Y-101419081D01*
X139077745Y-101499912D01*
X139073178Y-101500822D01*
X138862693Y-101500046D01*
X138854432Y-101496589D01*
X138851036Y-101488303D01*
X138851077Y-101487367D01*
X138881335Y-101132553D01*
X138885453Y-101124603D01*
X138886484Y-101123827D01*
X139037817Y-101022712D01*
X139046600Y-101020966D01*
X139054045Y-101025941D01*
G37*
%TD.AperFunction*%
%TD*%
%TA.AperFunction,Conductor*%
%TO.N,/CELL1*%
G36*
X135551821Y-97305670D02*
G01*
X135553731Y-97307849D01*
X135894271Y-97810272D01*
X135896076Y-97819043D01*
X135892859Y-97825109D01*
X135762651Y-97955317D01*
X135754378Y-97958744D01*
X135752191Y-97958538D01*
X134668267Y-97752276D01*
X134660780Y-97747363D01*
X134658960Y-97738595D01*
X134659047Y-97738182D01*
X134747315Y-97357814D01*
X134752523Y-97350531D01*
X134758023Y-97348781D01*
X135543361Y-97302733D01*
X135551821Y-97305670D01*
G37*
%TD.AperFunction*%
%TD*%
%TA.AperFunction,Conductor*%
%TO.N,Net-(J3-Pin_3)*%
G36*
X138835189Y-99315257D02*
G01*
X139151882Y-99487122D01*
X139157517Y-99494079D01*
X139157128Y-99501837D01*
X139077564Y-99696169D01*
X139071258Y-99702527D01*
X139071169Y-99702564D01*
X138876837Y-99782128D01*
X138867882Y-99782091D01*
X138862122Y-99776882D01*
X138690257Y-99460189D01*
X138689324Y-99451284D01*
X138692266Y-99446338D01*
X138821337Y-99317267D01*
X138829609Y-99313841D01*
X138835189Y-99315257D01*
G37*
%TD.AperFunction*%
%TD*%
%TA.AperFunction,Conductor*%
%TO.N,Net-(J3-Pin_3)*%
G36*
X135552145Y-95969104D02*
G01*
X135554295Y-95971090D01*
X135937173Y-96425975D01*
X135939879Y-96434511D01*
X135937688Y-96440386D01*
X135829382Y-96589457D01*
X135821746Y-96594136D01*
X135818951Y-96594240D01*
X134692793Y-96501054D01*
X134684831Y-96496957D01*
X134682098Y-96488429D01*
X134682225Y-96487423D01*
X134747778Y-96107597D01*
X134752562Y-96100028D01*
X134757381Y-96098048D01*
X135543421Y-95967083D01*
X135552145Y-95969104D01*
G37*
%TD.AperFunction*%
%TD*%
%TA.AperFunction,Conductor*%
%TO.N,Net-(J3-Pin_2)*%
G36*
X138835189Y-97515257D02*
G01*
X139151882Y-97687122D01*
X139157517Y-97694079D01*
X139157128Y-97701837D01*
X139077564Y-97896169D01*
X139071258Y-97902527D01*
X139071169Y-97902564D01*
X138876837Y-97982128D01*
X138867882Y-97982091D01*
X138862122Y-97976882D01*
X138690257Y-97660189D01*
X138689324Y-97651284D01*
X138692266Y-97646338D01*
X138821337Y-97517267D01*
X138829609Y-97513841D01*
X138835189Y-97515257D01*
G37*
%TD.AperFunction*%
%TD*%
%TA.AperFunction,Conductor*%
%TO.N,Net-(J3-Pin_2)*%
G36*
X135542074Y-94600452D02*
G01*
X135544580Y-94602195D01*
X135966428Y-94986208D01*
X135970239Y-94994311D01*
X135969093Y-94999936D01*
X135888801Y-95166662D01*
X135882124Y-95172629D01*
X135879939Y-95173165D01*
X135354436Y-95249356D01*
X135346269Y-95247513D01*
X134769350Y-94863061D01*
X134764366Y-94855622D01*
X134766102Y-94846837D01*
X134772282Y-94842179D01*
X135533152Y-94599699D01*
X135542074Y-94600452D01*
G37*
%TD.AperFunction*%
%TD*%
%TA.AperFunction,Conductor*%
%TO.N,Net-(J3-Pin_1)*%
G36*
X138835189Y-95715257D02*
G01*
X139151882Y-95887122D01*
X139157517Y-95894079D01*
X139157128Y-95901837D01*
X139077564Y-96096169D01*
X139071258Y-96102527D01*
X139071169Y-96102564D01*
X138876837Y-96182128D01*
X138867882Y-96182091D01*
X138862122Y-96176882D01*
X138690257Y-95860189D01*
X138689324Y-95851284D01*
X138692266Y-95846338D01*
X138821337Y-95717267D01*
X138829609Y-95713841D01*
X138835189Y-95715257D01*
G37*
%TD.AperFunction*%
%TD*%
%TA.AperFunction,Conductor*%
%TO.N,Net-(J3-Pin_1)*%
G36*
X135523836Y-93305864D02*
G01*
X135526489Y-93307500D01*
X135883239Y-93599710D01*
X135962345Y-93664505D01*
X135966574Y-93672398D01*
X135966127Y-93676952D01*
X135912254Y-93854547D01*
X135906573Y-93861469D01*
X135903961Y-93862485D01*
X135431113Y-93983603D01*
X135422429Y-93982441D01*
X134770553Y-93611935D01*
X134765053Y-93604868D01*
X134766162Y-93595982D01*
X134772139Y-93590841D01*
X135514885Y-93305631D01*
X135523836Y-93305864D01*
G37*
%TD.AperFunction*%
%TD*%
%TA.AperFunction,Conductor*%
%TO.N,Net-(U1-SCL)*%
G36*
X154809538Y-104133427D02*
G01*
X154812483Y-104138375D01*
X154914890Y-104483835D01*
X154913955Y-104492741D01*
X154908194Y-104497951D01*
X154714522Y-104579105D01*
X154705567Y-104579142D01*
X154705478Y-104579105D01*
X154511805Y-104497951D01*
X154505499Y-104491593D01*
X154505109Y-104483835D01*
X154607517Y-104138375D01*
X154613154Y-104131417D01*
X154618735Y-104130000D01*
X154801265Y-104130000D01*
X154809538Y-104133427D01*
G37*
%TD.AperFunction*%
%TD*%
%TA.AperFunction,Conductor*%
%TO.N,Net-(U1-SCL)*%
G36*
X154715406Y-100399958D02*
G01*
X154723664Y-100403421D01*
X154726838Y-100409416D01*
X154795319Y-100760101D01*
X154793541Y-100768877D01*
X154786119Y-100773818D01*
X154607402Y-100809370D01*
X154598619Y-100807623D01*
X154596993Y-100806313D01*
X154560975Y-100771544D01*
X154349437Y-100567339D01*
X154345865Y-100559127D01*
X154349145Y-100550795D01*
X154349195Y-100550742D01*
X154496352Y-100402497D01*
X154504613Y-100399041D01*
X154504631Y-100399041D01*
X154715406Y-100399958D01*
G37*
%TD.AperFunction*%
%TD*%
M02*
