%TF.GenerationSoftware,KiCad,Pcbnew,8.0.5*%
%TF.CreationDate,2025-01-19T00:45:46+01:00*%
%TF.ProjectId,BatteryMonitor,42617474-6572-4794-9d6f-6e69746f722e,rev?*%
%TF.SameCoordinates,Original*%
%TF.FileFunction,Paste,Top*%
%TF.FilePolarity,Positive*%
%FSLAX46Y46*%
G04 Gerber Fmt 4.6, Leading zero omitted, Abs format (unit mm)*
G04 Created by KiCad (PCBNEW 8.0.5) date 2025-01-19 00:45:46*
%MOMM*%
%LPD*%
G01*
G04 APERTURE LIST*
G04 Aperture macros list*
%AMRoundRect*
0 Rectangle with rounded corners*
0 $1 Rounding radius*
0 $2 $3 $4 $5 $6 $7 $8 $9 X,Y pos of 4 corners*
0 Add a 4 corners polygon primitive as box body*
4,1,4,$2,$3,$4,$5,$6,$7,$8,$9,$2,$3,0*
0 Add four circle primitives for the rounded corners*
1,1,$1+$1,$2,$3*
1,1,$1+$1,$4,$5*
1,1,$1+$1,$6,$7*
1,1,$1+$1,$8,$9*
0 Add four rect primitives between the rounded corners*
20,1,$1+$1,$2,$3,$4,$5,0*
20,1,$1+$1,$4,$5,$6,$7,0*
20,1,$1+$1,$6,$7,$8,$9,0*
20,1,$1+$1,$8,$9,$2,$3,0*%
%AMFreePoly0*
4,1,93,-0.830491,2.973079,-0.794443,2.958147,-0.766853,2.930557,-0.751921,2.894509,-0.750000,2.875000,-0.750000,2.280000,0.350000,2.280000,0.350000,2.875000,0.351921,2.894509,0.366853,2.930557,0.394443,2.958147,0.430491,2.973079,0.450000,2.975000,1.160000,2.975000,1.179509,2.973079,1.215557,2.958147,1.243147,2.930557,1.258079,2.894509,1.260000,2.875000,1.260000,2.280000,
2.630000,2.280000,2.649509,2.278079,2.685557,2.263147,2.713147,2.235557,2.728079,2.199509,2.730000,2.180000,2.730000,1.630000,2.728079,1.610491,2.713147,1.574443,2.685557,1.546853,2.649509,1.531921,2.630000,1.530000,2.030000,1.530000,2.030000,-1.530000,2.630000,-1.530000,2.649509,-1.531921,2.685557,-1.546853,2.713147,-1.574443,2.728079,-1.610491,2.730000,-1.630000,
2.730000,-2.180000,2.728079,-2.199509,2.713147,-2.235557,2.685557,-2.263147,2.649509,-2.278079,2.630000,-2.280000,1.260000,-2.280000,1.260000,-2.875000,1.258079,-2.894509,1.243147,-2.930557,1.215557,-2.958147,1.179509,-2.973079,1.160000,-2.975000,0.450000,-2.975000,0.430491,-2.973079,0.394443,-2.958147,0.366853,-2.930557,0.351921,-2.894509,0.350000,-2.875000,0.350000,-2.280000,
-0.750000,-2.280000,-0.750000,-2.875000,-0.751921,-2.894509,-0.766853,-2.930557,-0.794443,-2.958147,-0.830491,-2.973079,-0.850000,-2.975000,-1.560000,-2.975000,-1.579509,-2.973079,-1.615557,-2.958147,-1.643147,-2.930557,-1.658079,-2.894509,-1.660000,-2.875000,-1.660000,-2.280000,-1.827000,-2.280000,-1.904685,-2.264548,-1.970543,-2.220543,-2.014548,-2.154685,-2.030000,-2.077000,-2.030000,2.077000,
-2.014548,2.154685,-1.970543,2.220543,-1.904685,2.264548,-1.827000,2.280000,-1.660000,2.280000,-1.660000,2.875000,-1.658079,2.894509,-1.643147,2.930557,-1.615557,2.958147,-1.579509,2.973079,-1.560000,2.975000,-0.850000,2.975000,-0.830491,2.973079,-0.830491,2.973079,$1*%
G04 Aperture macros list end*
%ADD10RoundRect,0.225000X0.225000X0.375000X-0.225000X0.375000X-0.225000X-0.375000X0.225000X-0.375000X0*%
%ADD11RoundRect,0.200000X-0.200000X-0.275000X0.200000X-0.275000X0.200000X0.275000X-0.200000X0.275000X0*%
%ADD12RoundRect,0.225000X-0.250000X0.225000X-0.250000X-0.225000X0.250000X-0.225000X0.250000X0.225000X0*%
%ADD13RoundRect,0.200000X-0.275000X0.200000X-0.275000X-0.200000X0.275000X-0.200000X0.275000X0.200000X0*%
%ADD14RoundRect,0.307500X0.307500X1.337500X-0.307500X1.337500X-0.307500X-1.337500X0.307500X-1.337500X0*%
%ADD15RoundRect,0.187500X0.427500X0.187500X-0.427500X0.187500X-0.427500X-0.187500X0.427500X-0.187500X0*%
%ADD16FreePoly0,180.000000*%
%ADD17RoundRect,0.307500X-0.307500X-1.337500X0.307500X-1.337500X0.307500X1.337500X-0.307500X1.337500X0*%
%ADD18RoundRect,0.187500X-0.427500X-0.187500X0.427500X-0.187500X0.427500X0.187500X-0.427500X0.187500X0*%
%ADD19FreePoly0,0.000000*%
%ADD20RoundRect,0.225000X0.250000X-0.225000X0.250000X0.225000X-0.250000X0.225000X-0.250000X-0.225000X0*%
%ADD21RoundRect,0.200000X0.200000X0.275000X-0.200000X0.275000X-0.200000X-0.275000X0.200000X-0.275000X0*%
%ADD22RoundRect,0.225000X0.375000X-0.225000X0.375000X0.225000X-0.375000X0.225000X-0.375000X-0.225000X0*%
%ADD23RoundRect,0.225000X0.225000X0.250000X-0.225000X0.250000X-0.225000X-0.250000X0.225000X-0.250000X0*%
%ADD24RoundRect,0.250000X0.475000X-0.250000X0.475000X0.250000X-0.475000X0.250000X-0.475000X-0.250000X0*%
%ADD25RoundRect,0.232500X0.232500X0.232500X-0.232500X0.232500X-0.232500X-0.232500X0.232500X-0.232500X0*%
%ADD26RoundRect,0.062500X0.375000X0.062500X-0.375000X0.062500X-0.375000X-0.062500X0.375000X-0.062500X0*%
%ADD27RoundRect,0.062500X0.062500X0.375000X-0.062500X0.375000X-0.062500X-0.375000X0.062500X-0.375000X0*%
%ADD28RoundRect,0.225000X-0.225000X-0.250000X0.225000X-0.250000X0.225000X0.250000X-0.225000X0.250000X0*%
%ADD29RoundRect,0.237500X0.237500X-0.987500X0.237500X0.987500X-0.237500X0.987500X-0.237500X-0.987500X0*%
%ADD30RoundRect,0.237500X-0.237500X0.987500X-0.237500X-0.987500X0.237500X-0.987500X0.237500X0.987500X0*%
%ADD31RoundRect,0.250000X0.250000X-0.250000X0.250000X0.250000X-0.250000X0.250000X-0.250000X-0.250000X0*%
%ADD32RoundRect,0.100000X0.712500X0.100000X-0.712500X0.100000X-0.712500X-0.100000X0.712500X-0.100000X0*%
%ADD33RoundRect,0.200000X0.275000X-0.200000X0.275000X0.200000X-0.275000X0.200000X-0.275000X-0.200000X0*%
%ADD34RoundRect,0.225000X-0.375000X0.225000X-0.375000X-0.225000X0.375000X-0.225000X0.375000X0.225000X0*%
%ADD35R,0.000001X0.000001*%
%ADD36O,0.700000X0.240000*%
%ADD37O,0.240000X0.700000*%
%ADD38RoundRect,0.250000X-0.650000X0.325000X-0.650000X-0.325000X0.650000X-0.325000X0.650000X0.325000X0*%
%ADD39RoundRect,0.462963X-0.787037X-1.127037X0.787037X-1.127037X0.787037X1.127037X-0.787037X1.127037X0*%
%ADD40RoundRect,0.250000X-0.250000X-1.450000X0.250000X-1.450000X0.250000X1.450000X-0.250000X1.450000X0*%
G04 APERTURE END LIST*
D10*
%TO.C,D3*%
X162750000Y-110300000D03*
X159450000Y-110300000D03*
%TD*%
D11*
%TO.C,R9*%
X139075000Y-97900000D03*
X140725000Y-97900000D03*
%TD*%
D12*
%TO.C,C13*%
X144100000Y-94425000D03*
X144100000Y-95975000D03*
%TD*%
D13*
%TO.C,R17*%
X144300000Y-110375000D03*
X144300000Y-112025000D03*
%TD*%
D14*
%TO.C,Q3*%
X159960000Y-115335000D03*
D15*
X159960000Y-112795000D03*
D16*
X156355000Y-114700000D03*
%TD*%
D17*
%TO.C,Q2*%
X146540000Y-114065000D03*
D18*
X146540000Y-116605000D03*
D19*
X150145000Y-114700000D03*
%TD*%
D20*
%TO.C,C11*%
X135100000Y-91675000D03*
X135100000Y-90125000D03*
%TD*%
D11*
%TO.C,R12*%
X139075000Y-103300000D03*
X140725000Y-103300000D03*
%TD*%
D21*
%TO.C,R4*%
X157225000Y-106000000D03*
X155575000Y-106000000D03*
%TD*%
D22*
%TO.C,D2*%
X157500000Y-110750000D03*
X157500000Y-107450000D03*
%TD*%
D12*
%TO.C,C24*%
X168000000Y-99825000D03*
X168000000Y-101375000D03*
%TD*%
D13*
%TO.C,R14*%
X153400000Y-108675000D03*
X153400000Y-110325000D03*
%TD*%
D12*
%TO.C,C3*%
X147900000Y-93825000D03*
X147900000Y-95375000D03*
%TD*%
D23*
%TO.C,C2*%
X150875000Y-89600000D03*
X149325000Y-89600000D03*
%TD*%
D20*
%TO.C,C1*%
X155900000Y-93675000D03*
X155900000Y-92125000D03*
%TD*%
D21*
%TO.C,R21*%
X139925000Y-105600000D03*
X138275000Y-105600000D03*
%TD*%
D12*
%TO.C,C16*%
X146300000Y-91025000D03*
X146300000Y-92575000D03*
%TD*%
D11*
%TO.C,R10*%
X139075000Y-99700000D03*
X140725000Y-99700000D03*
%TD*%
D12*
%TO.C,C23*%
X145900000Y-108725000D03*
X145900000Y-110275000D03*
%TD*%
D20*
%TO.C,C22*%
X149100000Y-110275000D03*
X149100000Y-108725000D03*
%TD*%
D24*
%TO.C,C8*%
X153400000Y-104750000D03*
X153400000Y-102850000D03*
%TD*%
D12*
%TO.C,C21*%
X147490000Y-108725000D03*
X147490000Y-110275000D03*
%TD*%
D25*
%TO.C,U2*%
X153050000Y-94650000D03*
X153050000Y-93500000D03*
X153050000Y-92350000D03*
X151900000Y-94650000D03*
X151900000Y-93500000D03*
X151900000Y-92350000D03*
X150750000Y-94650000D03*
X150750000Y-93500000D03*
X150750000Y-92350000D03*
D26*
X154337500Y-95250000D03*
X154337500Y-94750000D03*
X154337500Y-94250000D03*
X154337500Y-93750000D03*
X154337500Y-93250000D03*
X154337500Y-92750000D03*
X154337500Y-92250000D03*
X154337500Y-91750000D03*
D27*
X153650000Y-91062500D03*
X153150000Y-91062500D03*
X152650000Y-91062500D03*
X152150000Y-91062500D03*
X151650000Y-91062500D03*
X151150000Y-91062500D03*
X150650000Y-91062500D03*
X150150000Y-91062500D03*
D26*
X149462500Y-91750000D03*
X149462500Y-92250000D03*
X149462500Y-92750000D03*
X149462500Y-93250000D03*
X149462500Y-93750000D03*
X149462500Y-94250000D03*
X149462500Y-94750000D03*
X149462500Y-95250000D03*
D27*
X150150000Y-95937500D03*
X150650000Y-95937500D03*
X151150000Y-95937500D03*
X151650000Y-95937500D03*
X152150000Y-95937500D03*
X152650000Y-95937500D03*
X153150000Y-95937500D03*
X153650000Y-95937500D03*
%TD*%
D11*
%TO.C,R19*%
X161475000Y-112300000D03*
X163125000Y-112300000D03*
%TD*%
D21*
%TO.C,R3*%
X157225000Y-104400000D03*
X155575000Y-104400000D03*
%TD*%
D13*
%TO.C,R15*%
X155000000Y-108675000D03*
X155000000Y-110325000D03*
%TD*%
D28*
%TO.C,C20*%
X142725000Y-108890000D03*
X144275000Y-108890000D03*
%TD*%
D12*
%TO.C,C15*%
X144100000Y-98025000D03*
X144100000Y-99575000D03*
%TD*%
D21*
%TO.C,R2*%
X157225000Y-102800000D03*
X155575000Y-102800000D03*
%TD*%
D12*
%TO.C,C7*%
X150800000Y-99625000D03*
X150800000Y-101175000D03*
%TD*%
D29*
%TO.C,TP3*%
X156200000Y-100400000D03*
%TD*%
D12*
%TO.C,C9*%
X157500000Y-95625000D03*
X157500000Y-97175000D03*
%TD*%
D21*
%TO.C,R18*%
X144925000Y-117600000D03*
X143275000Y-117600000D03*
%TD*%
D12*
%TO.C,C10*%
X142400000Y-94425000D03*
X142400000Y-95975000D03*
%TD*%
D30*
%TO.C,TP4*%
X154500000Y-100400000D03*
%TD*%
D29*
%TO.C,TP5*%
X152800000Y-100400000D03*
%TD*%
D31*
%TO.C,D1*%
X147400000Y-89450000D03*
X147400000Y-86950000D03*
%TD*%
D13*
%TO.C,R16*%
X142700000Y-110375000D03*
X142700000Y-112025000D03*
%TD*%
D32*
%TO.C,U3*%
X142812500Y-92475000D03*
X142812500Y-91825000D03*
X142812500Y-91175000D03*
X142812500Y-90525000D03*
X138587500Y-90525000D03*
X138587500Y-91175000D03*
X138587500Y-91825000D03*
X138587500Y-92475000D03*
%TD*%
D11*
%TO.C,R5*%
X139075000Y-94300000D03*
X140725000Y-94300000D03*
%TD*%
D33*
%TO.C,R1*%
X155900000Y-96725000D03*
X155900000Y-95075000D03*
%TD*%
D34*
%TO.C,D4*%
X139600000Y-107150000D03*
X139600000Y-110450000D03*
%TD*%
D12*
%TO.C,C18*%
X144100000Y-101625000D03*
X144100000Y-103175000D03*
%TD*%
%TO.C,C14*%
X142400000Y-98025000D03*
X142400000Y-99575000D03*
%TD*%
D11*
%TO.C,R6*%
X139075000Y-96100000D03*
X140725000Y-96100000D03*
%TD*%
D12*
%TO.C,C19*%
X144700000Y-91025000D03*
X144700000Y-92575000D03*
%TD*%
%TO.C,C5*%
X155900000Y-89125000D03*
X155900000Y-90675000D03*
%TD*%
D11*
%TO.C,R11*%
X139075000Y-101500000D03*
X140725000Y-101500000D03*
%TD*%
D12*
%TO.C,C17*%
X142400000Y-101625000D03*
X142400000Y-103175000D03*
%TD*%
D35*
%TO.C,U1*%
X149131251Y-103631251D03*
X149131251Y-104143751D03*
X149131251Y-104656249D03*
X149131251Y-105168749D03*
X149643751Y-103631251D03*
X149643751Y-104143751D03*
X149643751Y-104656249D03*
X149643751Y-105168749D03*
X150156249Y-103631251D03*
X150156249Y-104143751D03*
X150156249Y-104656249D03*
X150156249Y-105168749D03*
X150668749Y-103631251D03*
X150668749Y-104143751D03*
X150668749Y-104656249D03*
X150668749Y-105168749D03*
D36*
X148200000Y-103400000D03*
X148200000Y-103900000D03*
X148200000Y-104400000D03*
X148200000Y-104900000D03*
X148200000Y-105400000D03*
D37*
X148900000Y-106100000D03*
X149400000Y-106100000D03*
X149900000Y-106100000D03*
X150400000Y-106100000D03*
X150900000Y-106100000D03*
D36*
X151600000Y-105400000D03*
X151600000Y-104900000D03*
X151600000Y-104400000D03*
X151600000Y-103900000D03*
X151600000Y-103400000D03*
D37*
X150900000Y-102700000D03*
X150400000Y-102700000D03*
X149900000Y-102700000D03*
X149400000Y-102700000D03*
X148900000Y-102700000D03*
%TD*%
D12*
%TO.C,C26*%
X151200000Y-108725000D03*
X151200000Y-110275000D03*
%TD*%
D38*
%TO.C,C6*%
X148700000Y-98125000D03*
X148700000Y-101075000D03*
%TD*%
D28*
%TO.C,C4*%
X152825000Y-97500000D03*
X154375000Y-97500000D03*
%TD*%
D20*
%TO.C,C12*%
X136700000Y-92275000D03*
X136700000Y-90725000D03*
%TD*%
D39*
%TO.C,F1*%
X143950000Y-84000000D03*
X149450000Y-84000000D03*
%TD*%
D28*
%TO.C,C25*%
X152525000Y-118900000D03*
X154075000Y-118900000D03*
%TD*%
D40*
%TO.C,R20*%
X142750000Y-114700000D03*
X144250000Y-114700000D03*
%TD*%
M02*
