%TF.GenerationSoftware,KiCad,Pcbnew,8.0.5*%
%TF.CreationDate,2024-09-28T22:32:44+02:00*%
%TF.ProjectId,BatteryMonitor,42617474-6572-4794-9d6f-6e69746f722e,rev?*%
%TF.SameCoordinates,Original*%
%TF.FileFunction,Soldermask,Top*%
%TF.FilePolarity,Negative*%
%FSLAX46Y46*%
G04 Gerber Fmt 4.6, Leading zero omitted, Abs format (unit mm)*
G04 Created by KiCad (PCBNEW 8.0.5) date 2024-09-28 22:32:44*
%MOMM*%
%LPD*%
G01*
G04 APERTURE LIST*
G04 Aperture macros list*
%AMRoundRect*
0 Rectangle with rounded corners*
0 $1 Rounding radius*
0 $2 $3 $4 $5 $6 $7 $8 $9 X,Y pos of 4 corners*
0 Add a 4 corners polygon primitive as box body*
4,1,4,$2,$3,$4,$5,$6,$7,$8,$9,$2,$3,0*
0 Add four circle primitives for the rounded corners*
1,1,$1+$1,$2,$3*
1,1,$1+$1,$4,$5*
1,1,$1+$1,$6,$7*
1,1,$1+$1,$8,$9*
0 Add four rect primitives between the rounded corners*
20,1,$1+$1,$2,$3,$4,$5,0*
20,1,$1+$1,$4,$5,$6,$7,0*
20,1,$1+$1,$6,$7,$8,$9,0*
20,1,$1+$1,$8,$9,$2,$3,0*%
%AMFreePoly0*
4,1,93,-0.830491,2.973079,-0.794443,2.958147,-0.766853,2.930557,-0.751921,2.894509,-0.750000,2.875000,-0.750000,2.280000,0.350000,2.280000,0.350000,2.875000,0.351921,2.894509,0.366853,2.930557,0.394443,2.958147,0.430491,2.973079,0.450000,2.975000,1.160000,2.975000,1.179509,2.973079,1.215557,2.958147,1.243147,2.930557,1.258079,2.894509,1.260000,2.875000,1.260000,2.280000,
2.630000,2.280000,2.649509,2.278079,2.685557,2.263147,2.713147,2.235557,2.728079,2.199509,2.730000,2.180000,2.730000,1.630000,2.728079,1.610491,2.713147,1.574443,2.685557,1.546853,2.649509,1.531921,2.630000,1.530000,2.030000,1.530000,2.030000,-1.530000,2.630000,-1.530000,2.649509,-1.531921,2.685557,-1.546853,2.713147,-1.574443,2.728079,-1.610491,2.730000,-1.630000,
2.730000,-2.180000,2.728079,-2.199509,2.713147,-2.235557,2.685557,-2.263147,2.649509,-2.278079,2.630000,-2.280000,1.260000,-2.280000,1.260000,-2.875000,1.258079,-2.894509,1.243147,-2.930557,1.215557,-2.958147,1.179509,-2.973079,1.160000,-2.975000,0.450000,-2.975000,0.430491,-2.973079,0.394443,-2.958147,0.366853,-2.930557,0.351921,-2.894509,0.350000,-2.875000,0.350000,-2.280000,
-0.750000,-2.280000,-0.750000,-2.875000,-0.751921,-2.894509,-0.766853,-2.930557,-0.794443,-2.958147,-0.830491,-2.973079,-0.850000,-2.975000,-1.560000,-2.975000,-1.579509,-2.973079,-1.615557,-2.958147,-1.643147,-2.930557,-1.658079,-2.894509,-1.660000,-2.875000,-1.660000,-2.280000,-1.827000,-2.280000,-1.904685,-2.264548,-1.970543,-2.220543,-2.014548,-2.154685,-2.030000,-2.077000,-2.030000,2.077000,
-2.014548,2.154685,-1.970543,2.220543,-1.904685,2.264548,-1.827000,2.280000,-1.660000,2.280000,-1.660000,2.875000,-1.658079,2.894509,-1.643147,2.930557,-1.615557,2.958147,-1.579509,2.973079,-1.560000,2.975000,-0.850000,2.975000,-0.830491,2.973079,-0.830491,2.973079,$1*%
G04 Aperture macros list end*
%ADD10C,0.100000*%
%ADD11C,4.000000*%
%ADD12C,3.500000*%
%ADD13C,5.000000*%
%ADD14C,6.000000*%
%ADD15C,0.150000*%
%ADD16C,0.000000*%
%ADD17C,2.300000*%
%ADD18RoundRect,0.062500X0.375000X0.062500X-0.375000X0.062500X-0.375000X-0.062500X0.375000X-0.062500X0*%
%ADD19RoundRect,0.062500X0.062500X0.375000X-0.062500X0.375000X-0.062500X-0.375000X0.062500X-0.375000X0*%
%ADD20R,3.450000X3.450000*%
%ADD21O,0.700000X0.240000*%
%ADD22O,0.240000X0.700000*%
%ADD23R,2.049999X2.049999*%
%ADD24RoundRect,0.237500X0.237500X-0.987500X0.237500X0.987500X-0.237500X0.987500X-0.237500X-0.987500X0*%
%ADD25RoundRect,0.237500X-0.237500X0.987500X-0.237500X-0.987500X0.237500X-0.987500X0.237500X0.987500X0*%
%ADD26RoundRect,0.200000X0.200000X0.275000X-0.200000X0.275000X-0.200000X-0.275000X0.200000X-0.275000X0*%
%ADD27RoundRect,0.250000X-0.250000X-1.450000X0.250000X-1.450000X0.250000X1.450000X-0.250000X1.450000X0*%
%ADD28RoundRect,0.200000X-0.200000X-0.275000X0.200000X-0.275000X0.200000X0.275000X-0.200000X0.275000X0*%
%ADD29RoundRect,0.200000X-0.275000X0.200000X-0.275000X-0.200000X0.275000X-0.200000X0.275000X0.200000X0*%
%ADD30RoundRect,0.200000X0.275000X-0.200000X0.275000X0.200000X-0.275000X0.200000X-0.275000X-0.200000X0*%
%ADD31FreePoly0,180.000000*%
%ADD32RoundRect,0.187500X0.427500X0.187500X-0.427500X0.187500X-0.427500X-0.187500X0.427500X-0.187500X0*%
%ADD33RoundRect,0.307500X0.307500X1.337500X-0.307500X1.337500X-0.307500X-1.337500X0.307500X-1.337500X0*%
%ADD34RoundRect,0.307500X-0.307500X-1.337500X0.307500X-1.337500X0.307500X1.337500X-0.307500X1.337500X0*%
%ADD35RoundRect,0.187500X-0.427500X-0.187500X0.427500X-0.187500X0.427500X0.187500X-0.427500X0.187500X0*%
%ADD36FreePoly0,0.000000*%
%ADD37C,3.000000*%
%ADD38C,1.600000*%
%ADD39C,1.800000*%
%ADD40RoundRect,0.462963X-0.787037X-1.127037X0.787037X-1.127037X0.787037X1.127037X-0.787037X1.127037X0*%
%ADD41RoundRect,0.225000X-0.375000X0.225000X-0.375000X-0.225000X0.375000X-0.225000X0.375000X0.225000X0*%
%ADD42RoundRect,0.225000X-0.225000X-0.375000X0.225000X-0.375000X0.225000X0.375000X-0.225000X0.375000X0*%
%ADD43RoundRect,0.250000X0.250000X-0.250000X0.250000X0.250000X-0.250000X0.250000X-0.250000X-0.250000X0*%
%ADD44RoundRect,0.225000X-0.250000X0.225000X-0.250000X-0.225000X0.250000X-0.225000X0.250000X0.225000X0*%
%ADD45RoundRect,0.225000X-0.225000X-0.250000X0.225000X-0.250000X0.225000X0.250000X-0.225000X0.250000X0*%
%ADD46RoundRect,0.225000X0.250000X-0.225000X0.250000X0.225000X-0.250000X0.225000X-0.250000X-0.225000X0*%
%ADD47RoundRect,0.250000X0.475000X-0.250000X0.475000X0.250000X-0.475000X0.250000X-0.475000X-0.250000X0*%
%ADD48RoundRect,0.250000X-0.650000X0.325000X-0.650000X-0.325000X0.650000X-0.325000X0.650000X0.325000X0*%
%ADD49RoundRect,0.225000X0.225000X0.250000X-0.225000X0.250000X-0.225000X-0.250000X0.225000X-0.250000X0*%
G04 APERTURE END LIST*
D10*
X141600000Y-113100000D02*
X142900000Y-113100000D01*
X142900000Y-116500000D01*
X140600000Y-118400000D01*
X134400000Y-118400000D01*
X134000000Y-118000000D01*
X134000000Y-113200000D01*
X134400000Y-112800000D01*
X141300000Y-112800000D01*
X141600000Y-113100000D01*
G36*
X141600000Y-113100000D02*
G01*
X142900000Y-113100000D01*
X142900000Y-116500000D01*
X140600000Y-118400000D01*
X134400000Y-118400000D01*
X134000000Y-118000000D01*
X134000000Y-113200000D01*
X134400000Y-112800000D01*
X141300000Y-112800000D01*
X141600000Y-113100000D01*
G37*
X146800000Y-115600000D02*
X145600000Y-115600000D01*
X144900000Y-116300000D01*
X144100000Y-116300000D01*
X144100000Y-113100000D01*
X145400000Y-113100000D01*
X146000000Y-112500000D01*
X146800000Y-112500000D01*
X146800000Y-115600000D01*
G36*
X146800000Y-115600000D02*
G01*
X145600000Y-115600000D01*
X144900000Y-116300000D01*
X144100000Y-116300000D01*
X144100000Y-113100000D01*
X145400000Y-113100000D01*
X146000000Y-112500000D01*
X146800000Y-112500000D01*
X146800000Y-115600000D01*
G37*
X152000000Y-112900000D02*
X154500000Y-112900000D01*
X154500000Y-116500000D01*
X152000000Y-116500000D01*
X152000000Y-112900000D01*
G36*
X152000000Y-112900000D02*
G01*
X154500000Y-112900000D01*
X154500000Y-116500000D01*
X152000000Y-116500000D01*
X152000000Y-112900000D01*
G37*
D11*
X164500000Y-112200000D02*
X164500000Y-103400000D01*
X164500000Y-112200000D02*
G75*
G02*
X161400000Y-115700000I-3398340J-112899D01*
G01*
D12*
X164500000Y-98000000D02*
X164500000Y-95100000D01*
D13*
X164100000Y-92100000D02*
X164100000Y-94200000D01*
X155900000Y-84000000D02*
X150700000Y-84000000D01*
X155900000Y-84000000D02*
G75*
G02*
X164099998Y-92100000I568527J-7625070D01*
G01*
D14*
X136300000Y-84600000D02*
X142300000Y-84600000D01*
D15*
%TO.C,REF\u002A\u002A*%
X136000000Y-103450000D02*
X136000000Y-109750000D01*
X135400000Y-110350000D01*
X131800000Y-110350000D01*
X131200000Y-109750000D01*
X131200000Y-103450000D01*
X131800000Y-102850000D01*
X135400000Y-102850000D01*
X136000000Y-103450000D01*
D16*
G36*
X133300000Y-107950000D02*
G01*
X133000000Y-107650000D01*
X132700000Y-107650000D01*
X132400000Y-107950000D01*
X132400000Y-109150000D01*
X133300000Y-109150000D01*
X133300000Y-109750000D01*
X131800000Y-109750000D01*
X131800000Y-107350000D01*
X132100000Y-107050000D01*
X133300000Y-107050000D01*
X133300000Y-107950000D01*
G37*
G36*
X135400000Y-107350000D02*
G01*
X135400000Y-109750000D01*
X133300000Y-109750000D01*
X133300000Y-109150000D01*
X133300000Y-107950000D01*
X133900000Y-107950000D01*
X133900000Y-109150000D01*
X134800000Y-109150000D01*
X134800000Y-107950000D01*
X134500000Y-107650000D01*
X134200000Y-107650000D01*
X133900000Y-107950000D01*
X133300000Y-107950000D01*
X133300000Y-107050000D01*
X133600000Y-107350000D01*
X133900000Y-107050000D01*
X135100000Y-107050000D01*
X135400000Y-107350000D01*
G37*
G36*
X135400000Y-103750000D02*
G01*
X135400000Y-104650000D01*
X135100000Y-104950000D01*
X135400000Y-105250000D01*
X135400000Y-106150000D01*
X135100000Y-106450000D01*
X132100000Y-106450000D01*
X131800000Y-106150000D01*
X131800000Y-105850000D01*
X134200000Y-105850000D01*
X134500000Y-105550000D01*
X134200000Y-105250000D01*
X132100000Y-105250000D01*
X131800000Y-104950000D01*
X132100000Y-104650000D01*
X134200000Y-104650000D01*
X134500000Y-104350000D01*
X134200000Y-104050000D01*
X131800000Y-104050000D01*
X131800000Y-103750000D01*
X132100000Y-103450000D01*
X135100000Y-103450000D01*
X135400000Y-103750000D01*
G37*
%TD*%
D17*
%TO.C,J5*%
X135160000Y-118140000D03*
X135160000Y-113060000D03*
X137700000Y-118140000D03*
X137700000Y-113060000D03*
X140240000Y-118140000D03*
X140240000Y-113060000D03*
%TD*%
%TO.C,J2*%
X135160000Y-87140000D03*
X135160000Y-82060000D03*
X137700000Y-87140000D03*
X137700000Y-82060000D03*
X140240000Y-87140000D03*
X140240000Y-82060000D03*
%TD*%
D18*
%TO.C,U2*%
X154337500Y-95250000D03*
X154337500Y-94750000D03*
X154337500Y-94250000D03*
X154337500Y-93750000D03*
X154337500Y-93250000D03*
X154337500Y-92750000D03*
X154337500Y-92250000D03*
X154337500Y-91750000D03*
D19*
X153650000Y-91062500D03*
X153150000Y-91062500D03*
X152650000Y-91062500D03*
X152150000Y-91062500D03*
X151650000Y-91062500D03*
X151150000Y-91062500D03*
X150650000Y-91062500D03*
X150150000Y-91062500D03*
D18*
X149462500Y-91750000D03*
X149462500Y-92250000D03*
X149462500Y-92750000D03*
X149462500Y-93250000D03*
X149462500Y-93750000D03*
X149462500Y-94250000D03*
X149462500Y-94750000D03*
X149462500Y-95250000D03*
D19*
X150150000Y-95937500D03*
X150650000Y-95937500D03*
X151150000Y-95937500D03*
X151650000Y-95937500D03*
X152150000Y-95937500D03*
X152650000Y-95937500D03*
X153150000Y-95937500D03*
X153650000Y-95937500D03*
D20*
X151900000Y-93500000D03*
%TD*%
D21*
%TO.C,U1*%
X148200000Y-103400000D03*
X148200000Y-103900000D03*
X148200000Y-104400000D03*
X148200000Y-104900000D03*
X148200000Y-105400000D03*
D22*
X148900000Y-106100000D03*
X149400000Y-106100000D03*
X149900000Y-106100000D03*
X150400000Y-106100000D03*
X150900000Y-106100000D03*
D21*
X151600000Y-105400000D03*
X151600000Y-104900000D03*
X151600000Y-104400000D03*
X151600000Y-103900000D03*
X151600000Y-103400000D03*
D22*
X150900000Y-102700000D03*
X150400000Y-102700000D03*
X149900000Y-102700000D03*
X149400000Y-102700000D03*
X148900000Y-102700000D03*
D23*
X149900000Y-104400000D03*
%TD*%
D24*
%TO.C,TP5*%
X152800000Y-100400000D03*
%TD*%
D25*
%TO.C,TP4*%
X154500000Y-100400000D03*
%TD*%
D24*
%TO.C,TP3*%
X156200000Y-100400000D03*
%TD*%
D26*
%TO.C,R18*%
X138275000Y-105600000D03*
X139925000Y-105600000D03*
%TD*%
D27*
%TO.C,R17*%
X142750000Y-114700000D03*
X144250000Y-114700000D03*
%TD*%
D28*
%TO.C,R16*%
X161475000Y-112300000D03*
X163125000Y-112300000D03*
%TD*%
D26*
%TO.C,R15*%
X144925000Y-117600000D03*
X143275000Y-117600000D03*
%TD*%
D29*
%TO.C,R14*%
X144300000Y-110375000D03*
X144300000Y-112025000D03*
%TD*%
%TO.C,R13*%
X142700000Y-110375000D03*
X142700000Y-112025000D03*
%TD*%
%TO.C,R12*%
X155000000Y-108675000D03*
X155000000Y-110325000D03*
%TD*%
%TO.C,R11*%
X153400000Y-108675000D03*
X153400000Y-110325000D03*
%TD*%
D28*
%TO.C,R10*%
X140725000Y-103300000D03*
X139075000Y-103300000D03*
%TD*%
%TO.C,R9*%
X140725000Y-101500000D03*
X139075000Y-101500000D03*
%TD*%
%TO.C,R8*%
X140725000Y-99700000D03*
X139075000Y-99700000D03*
%TD*%
%TO.C,R7*%
X139075000Y-97900000D03*
X140725000Y-97900000D03*
%TD*%
%TO.C,R6*%
X139075000Y-96100000D03*
X140725000Y-96100000D03*
%TD*%
%TO.C,R5*%
X139075000Y-94300000D03*
X140725000Y-94300000D03*
%TD*%
D26*
%TO.C,R4*%
X157225000Y-106000000D03*
X155575000Y-106000000D03*
%TD*%
%TO.C,R3*%
X157225000Y-104400000D03*
X155575000Y-104400000D03*
%TD*%
%TO.C,R2*%
X157225000Y-102800000D03*
X155575000Y-102800000D03*
%TD*%
D30*
%TO.C,R1*%
X155900000Y-96725000D03*
X155900000Y-95075000D03*
%TD*%
D31*
%TO.C,Q2*%
X156355000Y-114700000D03*
D32*
X159960000Y-112795000D03*
D33*
X159960000Y-115335000D03*
%TD*%
D34*
%TO.C,Q1*%
X146540000Y-114065000D03*
D35*
X146540000Y-116605000D03*
D36*
X150145000Y-114700000D03*
%TD*%
D37*
%TO.C,J6*%
X164525000Y-103437500D03*
X164525000Y-105737500D03*
X164525000Y-95637500D03*
X164525000Y-97937500D03*
D38*
X161150000Y-104337500D03*
X161150000Y-100687500D03*
X161150000Y-97037500D03*
X168325000Y-93437500D03*
D39*
X168325000Y-95387500D03*
X168325000Y-105987500D03*
D38*
X168325000Y-107937500D03*
X159875000Y-93437500D03*
D39*
X159875000Y-95387500D03*
X159875000Y-105987500D03*
D38*
X159875000Y-107937500D03*
%TD*%
D40*
%TO.C,F1*%
X143950000Y-84000000D03*
X149450000Y-84000000D03*
%TD*%
D41*
%TO.C,D3*%
X139600000Y-107150000D03*
X139600000Y-110450000D03*
%TD*%
D42*
%TO.C,D2*%
X159250000Y-110200000D03*
X162550000Y-110200000D03*
%TD*%
D43*
%TO.C,D1*%
X145800000Y-89150000D03*
X145800000Y-91650000D03*
%TD*%
D44*
%TO.C,C22*%
X151200000Y-108725000D03*
X151200000Y-110275000D03*
%TD*%
D45*
%TO.C,C21*%
X152525000Y-118900000D03*
X154075000Y-118900000D03*
%TD*%
D44*
%TO.C,C20*%
X168000000Y-99825000D03*
X168000000Y-101375000D03*
%TD*%
%TO.C,C19*%
X145900000Y-108725000D03*
X145900000Y-110275000D03*
%TD*%
D46*
%TO.C,C18*%
X149100000Y-110275000D03*
X149100000Y-108725000D03*
%TD*%
D44*
%TO.C,C17*%
X147490000Y-108725000D03*
X147490000Y-110275000D03*
%TD*%
D45*
%TO.C,C16*%
X142725000Y-108890000D03*
X144275000Y-108890000D03*
%TD*%
D44*
%TO.C,C15*%
X144100000Y-103175000D03*
X144100000Y-101625000D03*
%TD*%
%TO.C,C14*%
X142400000Y-103175000D03*
X142400000Y-101625000D03*
%TD*%
%TO.C,C13*%
X144100000Y-99575000D03*
X144100000Y-98025000D03*
%TD*%
%TO.C,C12*%
X142400000Y-99575000D03*
X142400000Y-98025000D03*
%TD*%
%TO.C,C11*%
X144100000Y-95975000D03*
X144100000Y-94425000D03*
%TD*%
%TO.C,C10*%
X142400000Y-95975000D03*
X142400000Y-94425000D03*
%TD*%
%TO.C,C9*%
X157500000Y-95625000D03*
X157500000Y-97175000D03*
%TD*%
D47*
%TO.C,C8*%
X153400000Y-104750000D03*
X153400000Y-102850000D03*
%TD*%
D44*
%TO.C,C7*%
X150800000Y-99625000D03*
X150800000Y-101175000D03*
%TD*%
D48*
%TO.C,C6*%
X148700000Y-98125000D03*
X148700000Y-101075000D03*
%TD*%
D44*
%TO.C,C5*%
X155900000Y-89125000D03*
X155900000Y-90675000D03*
%TD*%
D45*
%TO.C,C4*%
X152825000Y-97500000D03*
X154375000Y-97500000D03*
%TD*%
D44*
%TO.C,C3*%
X147900000Y-93425000D03*
X147900000Y-94975000D03*
%TD*%
D49*
%TO.C,C2*%
X150875000Y-89600000D03*
X149325000Y-89600000D03*
%TD*%
D46*
%TO.C,C1*%
X155900000Y-93675000D03*
X155900000Y-92125000D03*
%TD*%
M02*
