M48
; DRILL file {KiCad 8.0.4} date 2024-08-04T16:55:57+0200
; FORMAT={-:-/ absolute / inch / decimal}
; #@! TF.CreationDate,2024-08-04T16:55:57+02:00
; #@! TF.GenerationSoftware,Kicad,Pcbnew,8.0.4
; #@! TF.FileFunction,Plated,1,4,PTH
FMAT,2
INCH
; #@! TA.AperFunction,Plated,PTH,ViaDrill
T1C0.0118
; #@! TA.AperFunction,Plated,PTH,ComponentDrill
T2C0.0315
; #@! TA.AperFunction,Plated,PTH,ComponentDrill
T3C0.0394
; #@! TA.AperFunction,Plated,PTH,ComponentDrill
T4C0.0433
; #@! TA.AperFunction,Plated,PTH,ComponentDrill
T5C0.0472
; #@! TA.AperFunction,Plated,PTH,ComponentDrill
T6C0.0551
; #@! TA.AperFunction,Plated,PTH,ComponentDrill
T7C0.0709
%
G90
G05
T1
X3.5669Y-3.5827
X3.5669Y-4.2835
X3.6614Y-3.2835
X3.6772Y-4.6063
X3.8354Y-4.6972
X3.8378Y-3.176
X3.8799Y-4.65
X3.9256Y-4.6835
X3.9598Y-3.1953
X3.9835Y-4.6421
X4.0157Y-3.622
X4.0328Y-3.6041
X4.0563Y-3.8807
X4.0579Y-4.0008
X4.0614Y-3.6976
X4.0626Y-4.1441
X4.0827Y-4.2795
X4.1102Y-4.2953
X4.1112Y-3.9232
X4.1331Y-3.9614
X4.1524Y-3.3287
X4.1839Y-3.5634
X4.2272Y-3.8496
X4.2327Y-3.8996
X4.2335Y-4.0244
X4.2358Y-3.7496
X4.2362Y-4.0996
X4.2374Y-3.7244
X4.2378Y-3.8744
X4.2421Y-3.9496
X4.2421Y-3.9744
X4.2433Y-4.2567
X4.2441Y-4.1559
X4.2591Y-3.8429
X4.298Y-3.5354
X4.3204Y-4.5967
X4.3591Y-4.4996
X4.363Y-3.5354
X4.3937Y-3.8228
X4.3937Y-4.0512
X4.4012Y-3.9476
X4.4016Y-3.9256
X4.4028Y-3.8752
X4.4028Y-3.9004
X4.4028Y-3.9736
X4.4028Y-3.9988
X4.4031Y-4.6626
X4.415Y-3.7728
X4.415Y-3.798
X4.415Y-4.076
X4.415Y-4.1012
X4.4276Y-3.9484
X4.428Y-3.8752
X4.428Y-3.9004
X4.428Y-3.9736
X4.428Y-3.9988
X4.4283Y-3.926
X4.4299Y-4.1524
X4.4303Y-3.7213
X4.4303Y-3.7453
X4.4311Y-4.1276
X4.4402Y-3.7728
X4.4402Y-3.798
X4.4402Y-4.076
X4.4402Y-4.1012
X4.4567Y-3.7283
X4.4571Y-4.1283
X4.4646Y-3.3839
X4.478Y-4.1457
X4.4783Y-3.7457
X4.4921Y-4.6472
X4.4996Y-4.1283
X4.5Y-3.7283
X4.5169Y-3.8992
X4.5169Y-3.9744
X4.5197Y-3.9362
X4.5205Y-3.2449
X4.5224Y-3.7728
X4.5224Y-3.798
X4.5224Y-4.076
X4.5224Y-4.1012
X4.5264Y-3.722
X4.5264Y-3.7453
X4.528Y-4.1291
X4.528Y-4.1547
X4.5421Y-3.8996
X4.5421Y-3.9744
X4.5465Y-3.9362
X4.5512Y-4.6705
X4.5827Y-4.6705
X4.5906Y-3.9055
X4.5906Y-3.9724
X4.6146Y-4.6717
X4.622Y-3.9055
X4.622Y-3.9724
X4.6811Y-3.9055
X4.6811Y-3.9724
X4.7126Y-3.9055
X4.7126Y-3.9724
X4.7261Y-4.6164
X4.7878Y-4.6024
X4.8512Y-4.6705
X4.9114Y-3.6126
X4.9126Y-4.6441
X4.9398Y-4.6378
X5.1398Y-3.9114
X5.3445Y-3.3319
X5.3756Y-3.3724
X5.5902Y-4.0157
X5.737Y-4.4185
X6.061Y-3.5224
X6.0783Y-4.4815
X6.1323Y-4.1445
X6.1839Y-4.5079
X6.1839Y-4.5472
X6.1839Y-4.5866
X6.2425Y-4.5079
X6.2425Y-4.5472
X6.2425Y-4.5866
X6.2819Y-4.4303
X6.4099Y-4.5846
X6.437Y-4.5197
X6.4421Y-4.5846
X6.4583Y-3.2429
X6.4815Y-4.55
X6.5559Y-4.5835
X6.5961Y-4.574
X6.6098Y-4.1756
X6.6201Y-4.2392
X6.6236Y-4.576
X6.6614Y-3.8455
X6.6614Y-3.9065
X6.6669Y-4.576
X6.6736Y-4.289
X6.728Y-3.3303
X6.7465Y-4.0335
X6.748Y-3.9764
X6.7496Y-4.5736
X6.7844Y-3.8051
X6.785Y-3.7114
X6.7894Y-4.2776
X6.8524Y-4.6689
X6.8937Y-3.6382
X6.9065Y-3.748
X6.9177Y-4.4402
X6.9266Y-3.9291
X6.9854Y-3.9303
X7.0008Y-3.5461
X7.002Y-3.6488
X7.0256Y-4.1457
X7.065Y-4.0748
X7.0902Y-3.9665
X7.0937Y-4.0142
X7.1083Y-3.5059
X7.1224Y-3.211
X7.1484Y-3.9102
X7.2189Y-3.5161
X7.2724Y-4.6724
X7.3276Y-4.6252
X7.3303Y-3.226
X7.3886Y-3.8886
X7.4043Y-4.6697
X7.4165Y-3.2945
X7.4165Y-4.0594
X7.4272Y-3.9961
X7.4323Y-4.6776
X7.4433Y-3.1724
X7.4518Y-3.874
X7.4535Y-4.6933
X7.4626Y-3.213
X7.4697Y-3.5602
X7.4819Y-3.1929
X7.4969Y-3.4929
X7.4969Y-3.8209
X7.5122Y-3.7547
X7.5335Y-4.0098
X7.5445Y-3.6902
X7.5476Y-4.2839
X7.5882Y-3.3492
X7.6098Y-4.1079
X7.6102Y-3.8579
X7.6106Y-4.0138
X7.6465Y-4.4555
X7.6531Y-3.9461
X7.6583Y-4.6846
X7.6693Y-4.1957
X7.687Y-4.0098
X7.7252Y-3.515
X7.752Y-3.9183
X7.7862Y-3.9799
X7.8303Y-3.9303
X7.9283Y-3.8386
X7.9295Y-4.3717
T2
X3.7008Y-3.4764
X3.7008Y-3.7835
X3.7008Y-4.0906
X3.7008Y-4.3976
X3.8976Y-3.4764
X3.8976Y-3.7835
X3.8976Y-4.0906
X3.8976Y-4.3976
X4.0611Y-4.5315
X4.1989Y-4.5315
X7.2874Y-3.3583
X7.2874Y-3.5551
X7.2874Y-3.6732
X7.2874Y-3.8701
X7.2874Y-4.0
X7.2874Y-4.1969
X7.2874Y-4.315
X7.2874Y-4.5118
T3
X5.3583Y-3.2028
T4
X5.9272Y-3.8169
X5.9272Y-4.5492
X6.2618Y-3.3248
X6.2618Y-4.0571
X6.5413Y-3.4469
X6.5413Y-4.0925
X7.0335Y-3.7815
X7.0335Y-4.4272
T5
X5.3661Y-3.5911
X5.3661Y-3.8863
X5.4449Y-4.2397
X5.4449Y-4.5349
T6
X7.5591Y-3.4394
X7.5591Y-3.6024
X7.5591Y-4.3724
X7.5591Y-4.5354
X8.0063Y-3.4567
X8.0063Y-3.7874
X8.0063Y-4.1181
X8.0063Y-4.4488
X8.1693Y-3.4567
X8.1693Y-3.7874
X8.1693Y-4.1181
X8.1693Y-4.4488
T7
X5.5244Y-3.2795
X5.6804Y-3.2795
M30
