%TF.GenerationSoftware,KiCad,Pcbnew,8.0.4*%
%TF.CreationDate,2024-08-04T16:55:57+02:00*%
%TF.ProjectId,PowerAmplifier,506f7765-7241-46d7-906c-69666965722e,rev?*%
%TF.SameCoordinates,Original*%
%TF.FileFunction,Soldermask,Top*%
%TF.FilePolarity,Negative*%
%FSLAX46Y46*%
G04 Gerber Fmt 4.6, Leading zero omitted, Abs format (unit mm)*
G04 Created by KiCad (PCBNEW 8.0.4) date 2024-08-04 16:55:57*
%MOMM*%
%LPD*%
G01*
G04 APERTURE LIST*
G04 Aperture macros list*
%AMRoundRect*
0 Rectangle with rounded corners*
0 $1 Rounding radius*
0 $2 $3 $4 $5 $6 $7 $8 $9 X,Y pos of 4 corners*
0 Add a 4 corners polygon primitive as box body*
4,1,4,$2,$3,$4,$5,$6,$7,$8,$9,$2,$3,0*
0 Add four circle primitives for the rounded corners*
1,1,$1+$1,$2,$3*
1,1,$1+$1,$4,$5*
1,1,$1+$1,$6,$7*
1,1,$1+$1,$8,$9*
0 Add four rect primitives between the rounded corners*
20,1,$1+$1,$2,$3,$4,$5,0*
20,1,$1+$1,$4,$5,$6,$7,0*
20,1,$1+$1,$6,$7,$8,$9,0*
20,1,$1+$1,$8,$9,$2,$3,0*%
G04 Aperture macros list end*
%ADD10RoundRect,0.200000X-0.275000X0.200000X-0.275000X-0.200000X0.275000X-0.200000X0.275000X0.200000X0*%
%ADD11RoundRect,0.200000X-0.200000X-0.275000X0.200000X-0.275000X0.200000X0.275000X-0.200000X0.275000X0*%
%ADD12RoundRect,0.200000X0.200000X0.275000X-0.200000X0.275000X-0.200000X-0.275000X0.200000X-0.275000X0*%
%ADD13RoundRect,0.250000X0.262500X0.450000X-0.262500X0.450000X-0.262500X-0.450000X0.262500X-0.450000X0*%
%ADD14C,3.180000*%
%ADD15RoundRect,0.250000X-1.070000X1.400000X-1.070000X-1.400000X1.070000X-1.400000X1.070000X1.400000X0*%
%ADD16O,2.640000X3.300000*%
%ADD17RoundRect,0.200000X0.275000X-0.200000X0.275000X0.200000X-0.275000X0.200000X-0.275000X-0.200000X0*%
%ADD18C,1.600000*%
%ADD19RoundRect,0.225000X0.225000X0.250000X-0.225000X0.250000X-0.225000X-0.250000X0.225000X-0.250000X0*%
%ADD20RoundRect,0.250000X0.450000X-0.262500X0.450000X0.262500X-0.450000X0.262500X-0.450000X-0.262500X0*%
%ADD21RoundRect,0.125000X-0.525000X0.125000X-0.525000X-0.125000X0.525000X-0.125000X0.525000X0.125000X0*%
%ADD22RoundRect,0.325000X-0.325000X0.375000X-0.325000X-0.375000X0.325000X-0.375000X0.325000X0.375000X0*%
%ADD23R,2.400000X2.400000*%
%ADD24C,2.400000*%
%ADD25RoundRect,0.225000X-0.225000X-0.250000X0.225000X-0.250000X0.225000X0.250000X-0.225000X0.250000X0*%
%ADD26RoundRect,0.125000X-0.125000X-0.525000X0.125000X-0.525000X0.125000X0.525000X-0.125000X0.525000X0*%
%ADD27RoundRect,0.325000X-0.375000X-0.325000X0.375000X-0.325000X0.375000X0.325000X-0.375000X0.325000X0*%
%ADD28RoundRect,0.250000X0.650000X-0.325000X0.650000X0.325000X-0.650000X0.325000X-0.650000X-0.325000X0*%
%ADD29RoundRect,0.250000X-0.450000X0.262500X-0.450000X-0.262500X0.450000X-0.262500X0.450000X0.262500X0*%
%ADD30R,1.700000X1.700000*%
%ADD31RoundRect,0.250000X1.400000X1.070000X-1.400000X1.070000X-1.400000X-1.070000X1.400000X-1.070000X0*%
%ADD32O,3.300000X2.640000*%
%ADD33RoundRect,0.250000X-0.650000X0.325000X-0.650000X-0.325000X0.650000X-0.325000X0.650000X0.325000X0*%
%ADD34C,2.600000*%
%ADD35RoundRect,0.225000X0.250000X-0.225000X0.250000X0.225000X-0.250000X0.225000X-0.250000X-0.225000X0*%
%ADD36R,1.600000X0.400000*%
%ADD37RoundRect,0.125000X0.125000X0.525000X-0.125000X0.525000X-0.125000X-0.525000X0.125000X-0.525000X0*%
%ADD38RoundRect,0.350000X0.350000X0.600000X-0.350000X0.600000X-0.350000X-0.600000X0.350000X-0.600000X0*%
%ADD39R,1.600000X1.600000*%
G04 APERTURE END LIST*
D10*
%TO.C,R39*%
X145100000Y-99875000D03*
X145100000Y-101525000D03*
%TD*%
D11*
%TO.C,R38*%
X143075000Y-103100000D03*
X144725000Y-103100000D03*
%TD*%
D12*
%TO.C,TH1*%
X110825000Y-92100000D03*
X109175000Y-92100000D03*
%TD*%
D10*
%TO.C,R23*%
X96500000Y-103075000D03*
X96500000Y-104725000D03*
%TD*%
D13*
%TO.C,R21*%
X97412500Y-115700000D03*
X95587500Y-115700000D03*
%TD*%
D14*
%TO.C,J4*%
X198910000Y-96200000D03*
D15*
X207500000Y-96200000D03*
D16*
X203360000Y-96200000D03*
%TD*%
D13*
%TO.C,R24*%
X97412500Y-107900000D03*
X95587500Y-107900000D03*
%TD*%
D17*
%TO.C,R22*%
X96500000Y-112525000D03*
X96500000Y-110875000D03*
%TD*%
D18*
%TO.C,C16*%
X185100000Y-98300000D03*
X185100000Y-93300000D03*
%TD*%
D19*
%TO.C,C39*%
X95775000Y-114000000D03*
X94225000Y-114000000D03*
%TD*%
%TO.C,C36*%
X114075000Y-109500000D03*
X112525000Y-109500000D03*
%TD*%
D20*
%TO.C,R9*%
X91800000Y-98212500D03*
X91800000Y-96387500D03*
%TD*%
D19*
%TO.C,C8*%
X114075000Y-92000000D03*
X112525000Y-92000000D03*
%TD*%
D21*
%TO.C,J2*%
X92000000Y-93400000D03*
X92000000Y-92600000D03*
X92000000Y-91800000D03*
X92000000Y-91000000D03*
D22*
X90700000Y-89600000D03*
X90700000Y-94800000D03*
%TD*%
D20*
%TO.C,R19*%
X104100000Y-108912500D03*
X104100000Y-107087500D03*
%TD*%
D21*
%TO.C,J6*%
X92000000Y-109000000D03*
X92000000Y-108200000D03*
X92000000Y-107400000D03*
X92000000Y-106600000D03*
D22*
X90700000Y-105200000D03*
X90700000Y-110400000D03*
%TD*%
D19*
%TO.C,C3*%
X95775000Y-86000000D03*
X94225000Y-86000000D03*
%TD*%
D23*
%TO.C,C15*%
X136300000Y-98712755D03*
D24*
X136300000Y-91212755D03*
%TD*%
D18*
%TO.C,L3*%
X166150000Y-103950000D03*
X178650000Y-112450000D03*
%TD*%
D19*
%TO.C,C41*%
X95775000Y-106200000D03*
X94225000Y-106200000D03*
%TD*%
D18*
%TO.C,C27*%
X185100000Y-106600000D03*
X185100000Y-101600000D03*
%TD*%
D19*
%TO.C,C1*%
X95775000Y-93800000D03*
X94225000Y-93800000D03*
%TD*%
D13*
%TO.C,R1*%
X97412500Y-92100000D03*
X95587500Y-92100000D03*
%TD*%
D18*
%TO.C,C32*%
X185100000Y-109600000D03*
X185100000Y-114600000D03*
%TD*%
D25*
%TO.C,C22*%
X102875000Y-101600000D03*
X104425000Y-101600000D03*
%TD*%
D23*
%TO.C,C23*%
X138300000Y-107687246D03*
D24*
X138300000Y-115187246D03*
%TD*%
D17*
%TO.C,R3*%
X96500000Y-89125000D03*
X96500000Y-87475000D03*
%TD*%
D26*
%TO.C,J14*%
X124000000Y-117750000D03*
X123200000Y-117750000D03*
X122400000Y-117750000D03*
X121600000Y-117750000D03*
D27*
X120200000Y-119050000D03*
X125400000Y-119050000D03*
%TD*%
D28*
%TO.C,C25*%
X119300000Y-103775000D03*
X119300000Y-100825000D03*
%TD*%
D19*
%TO.C,C37*%
X114075000Y-108000000D03*
X112525000Y-108000000D03*
%TD*%
D18*
%TO.C,L4*%
X150550000Y-115550000D03*
X159050000Y-103050000D03*
%TD*%
D19*
%TO.C,C6*%
X104375000Y-93700000D03*
X102825000Y-93700000D03*
%TD*%
D18*
%TO.C,C11*%
X185100000Y-85300000D03*
X185100000Y-90300000D03*
%TD*%
D14*
%TO.C,J1*%
X198910000Y-87800000D03*
D15*
X207500000Y-87800000D03*
D16*
X203360000Y-87800000D03*
%TD*%
D26*
%TO.C,J10*%
X117200000Y-117750000D03*
X116400000Y-117750000D03*
X115600000Y-117750000D03*
X114800000Y-117750000D03*
D27*
X113400000Y-119050000D03*
X118600000Y-119050000D03*
%TD*%
D29*
%TO.C,R15*%
X91800000Y-101787500D03*
X91800000Y-103612500D03*
%TD*%
D25*
%TO.C,C34*%
X102875000Y-105400000D03*
X104425000Y-105400000D03*
%TD*%
D19*
%TO.C,C9*%
X114075000Y-90500000D03*
X112525000Y-90500000D03*
%TD*%
D29*
%TO.C,R7*%
X91800000Y-86187500D03*
X91800000Y-88012500D03*
%TD*%
D13*
%TO.C,R4*%
X97412500Y-84300000D03*
X95587500Y-84300000D03*
%TD*%
D30*
%TO.C,J13*%
X136100000Y-81350000D03*
%TD*%
D11*
%TO.C,R40*%
X109575000Y-117000000D03*
X111225000Y-117000000D03*
%TD*%
D14*
%TO.C,J7*%
X192000000Y-106610000D03*
D31*
X192000000Y-115200000D03*
D32*
X192000000Y-111060000D03*
%TD*%
D13*
%TO.C,R5*%
X104712500Y-91800000D03*
X102887500Y-91800000D03*
%TD*%
D18*
%TO.C,L1*%
X150550000Y-96950000D03*
X159050000Y-84450000D03*
%TD*%
D19*
%TO.C,C42*%
X98775000Y-106200000D03*
X97225000Y-106200000D03*
%TD*%
D28*
%TO.C,C30*%
X117000000Y-103775000D03*
X117000000Y-100825000D03*
%TD*%
D33*
%TO.C,C20*%
X117000000Y-96225000D03*
X117000000Y-99175000D03*
%TD*%
D20*
%TO.C,R16*%
X91800000Y-113812500D03*
X91800000Y-111987500D03*
%TD*%
D25*
%TO.C,C38*%
X106025000Y-108000000D03*
X107575000Y-108000000D03*
%TD*%
D33*
%TO.C,C18*%
X119300000Y-96225000D03*
X119300000Y-99175000D03*
%TD*%
D18*
%TO.C,L2*%
X166150000Y-87550000D03*
X178650000Y-96050000D03*
%TD*%
D25*
%TO.C,C21*%
X102875000Y-99650000D03*
X104425000Y-99650000D03*
%TD*%
D14*
%TO.C,J5*%
X198910000Y-104600000D03*
D15*
X207500000Y-104600000D03*
D16*
X203360000Y-104600000D03*
%TD*%
D34*
%TO.C,J9*%
X140318800Y-83300000D03*
X144281200Y-83300000D03*
%TD*%
D19*
%TO.C,C2*%
X98775000Y-93800000D03*
X97225000Y-93800000D03*
%TD*%
D14*
%TO.C,J8*%
X198910000Y-113000000D03*
D15*
X207500000Y-113000000D03*
D16*
X203360000Y-113000000D03*
%TD*%
D35*
%TO.C,C7*%
X106300000Y-92075000D03*
X106300000Y-90525000D03*
%TD*%
D26*
%TO.C,J12*%
X103200000Y-117750000D03*
X102400000Y-117750000D03*
D27*
X101000000Y-119050000D03*
X104600000Y-119050000D03*
%TD*%
D12*
%TO.C,R42*%
X111225000Y-115400000D03*
X109575000Y-115400000D03*
%TD*%
%TO.C,R11*%
X104475000Y-97450000D03*
X102825000Y-97450000D03*
%TD*%
D14*
%TO.C,J3*%
X192000000Y-82910000D03*
D31*
X192000000Y-91500000D03*
D32*
X192000000Y-87360000D03*
%TD*%
D36*
%TO.C,U1*%
X106250000Y-93332500D03*
X106250000Y-93967500D03*
X106250000Y-94602500D03*
X106250000Y-95237500D03*
X106250000Y-95872500D03*
X106250000Y-96507500D03*
X106250000Y-97142500D03*
X106250000Y-97777500D03*
X106250000Y-98412500D03*
X106250000Y-99047500D03*
X106250000Y-99682500D03*
X106250000Y-100317500D03*
X106250000Y-100952500D03*
X106250000Y-101587500D03*
X106250000Y-102222500D03*
X106250000Y-102857500D03*
X106250000Y-103492500D03*
X106250000Y-104127500D03*
X106250000Y-104762500D03*
X106250000Y-105397500D03*
X106250000Y-106032500D03*
X106250000Y-106667500D03*
X113750000Y-106667500D03*
X113750000Y-106032500D03*
X113750000Y-105397500D03*
X113750000Y-104762500D03*
X113750000Y-104127500D03*
X113750000Y-103492500D03*
X113750000Y-102857500D03*
X113750000Y-102222500D03*
X113750000Y-101587500D03*
X113750000Y-100952500D03*
X113750000Y-100317500D03*
X113750000Y-99682500D03*
X113750000Y-99047500D03*
X113750000Y-98412500D03*
X113750000Y-97777500D03*
X113750000Y-97142500D03*
X113750000Y-96507500D03*
X113750000Y-95872500D03*
X113750000Y-95237500D03*
X113750000Y-94602500D03*
X113750000Y-93967500D03*
X113750000Y-93332500D03*
%TD*%
D19*
%TO.C,C40*%
X98775000Y-114000000D03*
X97225000Y-114000000D03*
%TD*%
D37*
%TO.C,M1*%
X134950000Y-85850000D03*
X135750000Y-85850000D03*
D38*
X137150000Y-84250000D03*
X133550000Y-84250000D03*
%TD*%
D10*
%TO.C,R2*%
X96500000Y-95275000D03*
X96500000Y-96925000D03*
%TD*%
D19*
%TO.C,C4*%
X98775000Y-86000000D03*
X97225000Y-86000000D03*
%TD*%
D18*
%TO.C,C14*%
X94000000Y-96100000D03*
X99000000Y-96100000D03*
%TD*%
%TO.C,C13*%
X94000000Y-88300000D03*
X99000000Y-88300000D03*
%TD*%
%TO.C,C29*%
X94000000Y-103900000D03*
X99000000Y-103900000D03*
%TD*%
D39*
%TO.C,C5*%
X106652651Y-115100000D03*
D18*
X103152651Y-115100000D03*
%TD*%
%TO.C,C31*%
X94000000Y-111700000D03*
X99000000Y-111700000D03*
%TD*%
M02*
