%TF.GenerationSoftware,KiCad,Pcbnew,9.0.3*%
%TF.CreationDate,2025-08-01T15:17:26+02:00*%
%TF.ProjectId,USBPanel,55534250-616e-4656-9c2e-6b696361645f,rev?*%
%TF.SameCoordinates,Original*%
%TF.FileFunction,Soldermask,Top*%
%TF.FilePolarity,Negative*%
%FSLAX46Y46*%
G04 Gerber Fmt 4.6, Leading zero omitted, Abs format (unit mm)*
G04 Created by KiCad (PCBNEW 9.0.3) date 2025-08-01 15:17:26*
%MOMM*%
%LPD*%
G01*
G04 APERTURE LIST*
G04 Aperture macros list*
%AMRoundRect*
0 Rectangle with rounded corners*
0 $1 Rounding radius*
0 $2 $3 $4 $5 $6 $7 $8 $9 X,Y pos of 4 corners*
0 Add a 4 corners polygon primitive as box body*
4,1,4,$2,$3,$4,$5,$6,$7,$8,$9,$2,$3,0*
0 Add four circle primitives for the rounded corners*
1,1,$1+$1,$2,$3*
1,1,$1+$1,$4,$5*
1,1,$1+$1,$6,$7*
1,1,$1+$1,$8,$9*
0 Add four rect primitives between the rounded corners*
20,1,$1+$1,$2,$3,$4,$5,0*
20,1,$1+$1,$4,$5,$6,$7,0*
20,1,$1+$1,$6,$7,$8,$9,0*
20,1,$1+$1,$8,$9,$2,$3,0*%
%AMFreePoly0*
4,1,29,0.719134,0.496194,0.746194,0.469134,0.750000,0.450000,0.750000,-0.450000,0.746194,-0.469134,0.719134,-0.496194,0.700000,-0.500000,0.300000,-0.500000,0.280866,-0.496194,0.253806,-0.469134,0.250000,-0.450000,0.250000,-0.125000,-0.562500,-0.125000,-0.576851,-0.122145,-0.589017,-0.114017,-0.597145,-0.101851,-0.600000,-0.087500,-0.600000,0.087500,-0.597145,0.101851,-0.589017,0.114017,
-0.576851,0.122145,-0.562500,0.125000,0.250000,0.125000,0.250000,0.450000,0.253806,0.469134,0.280866,0.496194,0.300000,0.500000,0.700000,0.500000,0.719134,0.496194,0.719134,0.496194,$1*%
%AMFreePoly1*
4,1,37,0.789134,0.496194,0.816194,0.469134,0.820000,0.450000,0.820000,-0.450000,0.816194,-0.469134,0.789134,-0.496194,0.770000,-0.500000,0.530000,-0.500000,0.510866,-0.496194,0.483806,-0.469134,0.480000,-0.450000,0.480000,0.050000,0.170000,0.050000,0.170000,-0.450000,0.166194,-0.469134,0.139134,-0.496194,0.120000,-0.500000,-0.120000,-0.500000,-0.139134,-0.496194,-0.166194,-0.469134,
-0.170000,-0.450000,-0.170000,0.050000,-0.480000,0.050000,-0.480000,-0.450000,-0.483806,-0.469134,-0.510866,-0.496194,-0.530000,-0.500000,-0.770000,-0.500000,-0.789134,-0.496194,-0.816194,-0.469134,-0.820000,-0.450000,-0.820000,0.450000,-0.816194,0.469134,-0.789134,0.496194,-0.770000,0.500000,0.770000,0.500000,0.789134,0.496194,0.789134,0.496194,$1*%
%AMFreePoly2*
4,1,47,-0.830866,1.896194,-0.803806,1.869134,-0.800000,1.850000,-0.800000,1.150000,-0.490000,1.150000,-0.490000,1.850000,-0.486194,1.869134,-0.459134,1.896194,-0.440000,1.900000,-0.200000,1.900000,-0.180866,1.896194,-0.153806,1.869134,-0.150000,1.850000,-0.150000,1.150000,0.160000,1.150000,0.160000,1.850000,0.163806,1.869134,0.190866,1.896194,0.210000,1.900000,0.450000,1.900000,
0.469134,1.896194,0.496194,1.869134,0.500000,1.850000,0.500000,1.150000,0.810000,1.150000,0.810000,1.850000,0.813806,1.869134,0.840866,1.896194,0.860000,1.900000,1.100000,1.900000,1.119134,1.896194,1.146194,1.869134,1.150000,1.850000,1.150000,-0.510000,1.146194,-0.529134,1.119134,-0.556194,1.100000,-0.560000,-1.090000,-0.560000,-1.109134,-0.556194,-1.136194,-0.529134,
-1.140000,-0.510000,-1.140000,1.850000,-1.136194,1.869134,-1.109134,1.896194,-1.090000,1.900000,-0.850000,1.900000,-0.830866,1.896194,-0.830866,1.896194,$1*%
%AMFreePoly3*
4,1,23,0.500000,-0.750000,0.000000,-0.750000,0.000000,-0.745722,-0.065263,-0.745722,-0.191342,-0.711940,-0.304381,-0.646677,-0.396677,-0.554381,-0.461940,-0.441342,-0.495722,-0.315263,-0.495722,-0.250000,-0.500000,-0.250000,-0.500000,0.250000,-0.495722,0.250000,-0.495722,0.315263,-0.461940,0.441342,-0.396677,0.554381,-0.304381,0.646677,-0.191342,0.711940,-0.065263,0.745722,0.000000,0.745722,
0.000000,0.750000,0.500000,0.750000,0.500000,-0.750000,0.500000,-0.750000,$1*%
%AMFreePoly4*
4,1,23,0.000000,0.745722,0.065263,0.745722,0.191342,0.711940,0.304381,0.646677,0.396677,0.554381,0.461940,0.441342,0.495722,0.315263,0.495722,0.250000,0.500000,0.250000,0.500000,-0.250000,0.495722,-0.250000,0.495722,-0.315263,0.461940,-0.441342,0.396677,-0.554381,0.304381,-0.646677,0.191342,-0.711940,0.065263,-0.745722,0.000000,-0.745722,0.000000,-0.750000,-0.500000,-0.750000,
-0.500000,0.750000,0.000000,0.750000,0.000000,0.745722,0.000000,0.745722,$1*%
G04 Aperture macros list end*
%ADD10C,0.150000*%
%ADD11C,0.000000*%
%ADD12R,1.700000X1.700000*%
%ADD13C,1.700000*%
%ADD14C,1.800000*%
%ADD15RoundRect,0.200000X-0.275000X0.200000X-0.275000X-0.200000X0.275000X-0.200000X0.275000X0.200000X0*%
%ADD16RoundRect,0.037500X-0.262500X-0.087500X0.262500X-0.087500X0.262500X0.087500X-0.262500X0.087500X0*%
%ADD17FreePoly0,0.000000*%
%ADD18FreePoly1,180.000000*%
%ADD19FreePoly2,180.000000*%
%ADD20RoundRect,0.034000X0.136000X0.466000X-0.136000X0.466000X-0.136000X-0.466000X0.136000X-0.466000X0*%
%ADD21RoundRect,0.250000X0.250000X0.475000X-0.250000X0.475000X-0.250000X-0.475000X0.250000X-0.475000X0*%
%ADD22RoundRect,0.237500X-0.987500X-0.237500X0.987500X-0.237500X0.987500X0.237500X-0.987500X0.237500X0*%
%ADD23RoundRect,0.225000X-0.250000X0.225000X-0.250000X-0.225000X0.250000X-0.225000X0.250000X0.225000X0*%
%ADD24RoundRect,0.225000X-0.225000X-0.250000X0.225000X-0.250000X0.225000X0.250000X-0.225000X0.250000X0*%
%ADD25RoundRect,0.250000X-1.500000X-0.550000X1.500000X-0.550000X1.500000X0.550000X-1.500000X0.550000X0*%
%ADD26RoundRect,0.225000X0.225000X0.250000X-0.225000X0.250000X-0.225000X-0.250000X0.225000X-0.250000X0*%
%ADD27RoundRect,0.050000X-0.337500X-0.050000X0.337500X-0.050000X0.337500X0.050000X-0.337500X0.050000X0*%
%ADD28RoundRect,0.050000X-0.050000X-0.337500X0.050000X-0.337500X0.050000X0.337500X-0.050000X0.337500X0*%
%ADD29R,2.800000X2.800000*%
%ADD30RoundRect,0.250000X0.475000X-0.250000X0.475000X0.250000X-0.475000X0.250000X-0.475000X-0.250000X0*%
%ADD31RoundRect,0.150000X0.150000X-0.825000X0.150000X0.825000X-0.150000X0.825000X-0.150000X-0.825000X0*%
%ADD32RoundRect,0.050000X-0.300000X-0.050000X0.300000X-0.050000X0.300000X0.050000X-0.300000X0.050000X0*%
%ADD33RoundRect,0.050000X0.050000X-0.300000X0.050000X0.300000X-0.050000X0.300000X-0.050000X-0.300000X0*%
%ADD34RoundRect,0.050000X-0.750000X-1.250000X0.750000X-1.250000X0.750000X1.250000X-0.750000X1.250000X0*%
%ADD35RoundRect,0.225000X0.250000X-0.225000X0.250000X0.225000X-0.250000X0.225000X-0.250000X-0.225000X0*%
%ADD36RoundRect,0.147500X-0.147500X-0.172500X0.147500X-0.172500X0.147500X0.172500X-0.147500X0.172500X0*%
%ADD37RoundRect,0.237500X0.237500X-0.987500X0.237500X0.987500X-0.237500X0.987500X-0.237500X-0.987500X0*%
%ADD38RoundRect,0.237500X-0.237500X0.987500X-0.237500X-0.987500X0.237500X-0.987500X0.237500X0.987500X0*%
%ADD39FreePoly3,90.000000*%
%ADD40FreePoly4,90.000000*%
%ADD41RoundRect,0.200000X-0.200000X-0.600000X0.200000X-0.600000X0.200000X0.600000X-0.200000X0.600000X0*%
%ADD42RoundRect,0.525000X-0.525000X-0.975000X0.525000X-0.975000X0.525000X0.975000X-0.525000X0.975000X0*%
G04 APERTURE END LIST*
D10*
%TO.C,REF\u002A\u002A*%
X164700000Y-112700000D02*
X164700000Y-115100000D01*
X164300000Y-115500000D01*
X160100000Y-115500000D01*
X159700000Y-115100000D01*
X159700000Y-112700000D01*
X160100000Y-112300000D01*
X164300000Y-112300000D01*
X164700000Y-112700000D01*
D11*
G36*
X161900000Y-112900000D02*
G01*
X161900000Y-113700000D01*
X161300000Y-113700000D01*
X161500000Y-113500000D01*
X161500000Y-113300000D01*
X161300000Y-113100000D01*
X160500000Y-113100000D01*
X160500000Y-113700000D01*
X160100000Y-113700000D01*
X160100000Y-112700000D01*
X161700000Y-112700000D01*
X161900000Y-112900000D01*
G37*
G36*
X161900000Y-114900000D02*
G01*
X161700000Y-115100000D01*
X160100000Y-115100000D01*
X160100000Y-114100000D01*
X160500000Y-114100000D01*
X160500000Y-114700000D01*
X161300000Y-114700000D01*
X161500000Y-114500000D01*
X161500000Y-114300000D01*
X161300000Y-114100000D01*
X160500000Y-114100000D01*
X160100000Y-114100000D01*
X160100000Y-113700000D01*
X161900000Y-113700000D01*
X161700000Y-113900000D01*
X161900000Y-114100000D01*
X161900000Y-114900000D01*
G37*
G36*
X162700000Y-114300000D02*
G01*
X162900000Y-114500000D01*
X163100000Y-114300000D01*
X163100000Y-112900000D01*
X163300000Y-112700000D01*
X163500000Y-112900000D01*
X163500000Y-114300000D01*
X163700000Y-114500000D01*
X163900000Y-114300000D01*
X163900000Y-112700000D01*
X164100000Y-112700000D01*
X164300000Y-112900000D01*
X164300000Y-114900000D01*
X164100000Y-115100000D01*
X163500000Y-115100000D01*
X163300000Y-114900000D01*
X163100000Y-115100000D01*
X162500000Y-115100000D01*
X162300000Y-114900000D01*
X162300000Y-112900000D01*
X162500000Y-112700000D01*
X162700000Y-112700000D01*
X162700000Y-114300000D01*
G37*
%TO.C,JP1*%
G36*
X131550000Y-110950000D02*
G01*
X133050000Y-110950000D01*
X133050000Y-110650000D01*
X131550000Y-110650000D01*
X131550000Y-110950000D01*
G37*
%TD*%
D12*
%TO.C,J6*%
X132000000Y-93200000D03*
D13*
X132000000Y-95740000D03*
X132000000Y-98280000D03*
X132000000Y-100820000D03*
%TD*%
D14*
%TO.C,J5*%
X150300000Y-100900000D03*
X150300000Y-98400000D03*
%TD*%
D15*
%TO.C,R8*%
X135100000Y-115075000D03*
X135100000Y-116725000D03*
%TD*%
D12*
%TO.C,J7*%
X141040000Y-101825000D03*
D13*
X141040000Y-104365000D03*
X138500000Y-101825000D03*
X138500000Y-104365000D03*
X135960000Y-101825000D03*
X135960000Y-104365000D03*
%TD*%
D16*
%TO.C,U2*%
X152300000Y-92000000D03*
D17*
X152600000Y-92500000D03*
D16*
X152300000Y-93000000D03*
X153900000Y-93000000D03*
X153900000Y-92500000D03*
X153900000Y-92000000D03*
%TD*%
D18*
%TO.C,Q1*%
X146125000Y-96800000D03*
D19*
X145805000Y-98400000D03*
D20*
X144825000Y-96800000D03*
%TD*%
D15*
%TO.C,R7*%
X133500000Y-115075000D03*
X133500000Y-116725000D03*
%TD*%
D21*
%TO.C,C12*%
X156450000Y-111200000D03*
X154550000Y-111200000D03*
%TD*%
D22*
%TO.C,TP4*%
X146500000Y-90500000D03*
%TD*%
D15*
%TO.C,R11*%
X146600000Y-113075000D03*
X146600000Y-114725000D03*
%TD*%
D21*
%TO.C,C16*%
X142950000Y-111500000D03*
X141050000Y-111500000D03*
%TD*%
D23*
%TO.C,C8*%
X157300000Y-91725000D03*
X157300000Y-93275000D03*
%TD*%
D24*
%TO.C,C10*%
X143625000Y-93400000D03*
X145175000Y-93400000D03*
%TD*%
D25*
%TO.C,C6*%
X139500000Y-85100000D03*
X145100000Y-85100000D03*
%TD*%
D26*
%TO.C,C14*%
X142975000Y-109600000D03*
X141425000Y-109600000D03*
%TD*%
D27*
%TO.C,U1*%
X138112500Y-94600000D03*
X138112500Y-95000000D03*
X138112500Y-95400000D03*
X138112500Y-95800000D03*
X138112500Y-96200000D03*
X138112500Y-96600000D03*
X138112500Y-97000000D03*
X138112500Y-97400000D03*
D28*
X138700000Y-97987500D03*
X139100000Y-97987500D03*
X139500000Y-97987500D03*
X139900000Y-97987500D03*
X140300000Y-97987500D03*
X140700000Y-97987500D03*
X141100000Y-97987500D03*
X141500000Y-97987500D03*
D27*
X142087500Y-97400000D03*
X142087500Y-97000000D03*
X142087500Y-96600000D03*
X142087500Y-96200000D03*
X142087500Y-95800000D03*
X142087500Y-95400000D03*
X142087500Y-95000000D03*
X142087500Y-94600000D03*
D28*
X141500000Y-94012500D03*
X141100000Y-94012500D03*
X140700000Y-94012500D03*
X140300000Y-94012500D03*
X139900000Y-94012500D03*
X139500000Y-94012500D03*
X139100000Y-94012500D03*
X138700000Y-94012500D03*
D29*
X140100000Y-96000000D03*
%TD*%
D15*
%TO.C,R10*%
X138300000Y-115075000D03*
X138300000Y-116725000D03*
%TD*%
D30*
%TO.C,C5*%
X140700000Y-92150000D03*
X140700000Y-90250000D03*
%TD*%
D22*
%TO.C,TP6*%
X146000000Y-104100000D03*
%TD*%
D31*
%TO.C,U3*%
X134895000Y-112775000D03*
X136165000Y-112775000D03*
X137435000Y-112775000D03*
X138705000Y-112775000D03*
X138705000Y-107825000D03*
X137435000Y-107825000D03*
X136165000Y-107825000D03*
X134895000Y-107825000D03*
%TD*%
D32*
%TO.C,U4*%
X144850000Y-108350000D03*
X144850000Y-108850000D03*
X144850000Y-109350000D03*
X144850000Y-109850000D03*
X144850000Y-110350000D03*
X144850000Y-110850000D03*
D33*
X145550000Y-111550000D03*
X146050000Y-111550000D03*
X146550000Y-111550000D03*
X147050000Y-111550000D03*
D32*
X147750000Y-110850000D03*
X147750000Y-110350000D03*
X147750000Y-109850000D03*
X147750000Y-109350000D03*
X147750000Y-108850000D03*
X147750000Y-108350000D03*
D33*
X147050000Y-107650000D03*
X146550000Y-107650000D03*
X146050000Y-107650000D03*
X145550000Y-107650000D03*
D34*
X146300000Y-109600000D03*
%TD*%
D21*
%TO.C,C15*%
X142950000Y-107700000D03*
X141050000Y-107700000D03*
%TD*%
D35*
%TO.C,C13*%
X152700000Y-108275000D03*
X152700000Y-106725000D03*
%TD*%
D30*
%TO.C,C4*%
X138600000Y-92150000D03*
X138600000Y-90250000D03*
%TD*%
D14*
%TO.C,J3*%
X135100000Y-83800000D03*
X135100000Y-86300000D03*
X135100000Y-88800000D03*
%TD*%
D36*
%TO.C,D1*%
X156415000Y-107500000D03*
X157385000Y-107500000D03*
%TD*%
D37*
%TO.C,TP2*%
X143200000Y-115700000D03*
%TD*%
D22*
%TO.C,TP1*%
X132100000Y-104600000D03*
%TD*%
D24*
%TO.C,C9*%
X143625000Y-95000000D03*
X145175000Y-95000000D03*
%TD*%
D35*
%TO.C,C11*%
X132900000Y-108075000D03*
X132900000Y-106525000D03*
%TD*%
D22*
%TO.C,TP5*%
X156800000Y-113700000D03*
%TD*%
D38*
%TO.C,TP3*%
X155400000Y-82700000D03*
%TD*%
D39*
%TO.C,JP1*%
X132300000Y-111450000D03*
D40*
X132300000Y-110150000D03*
%TD*%
D30*
%TO.C,C7*%
X142800000Y-91550000D03*
X142800000Y-89650000D03*
%TD*%
D15*
%TO.C,R9*%
X136700000Y-115075000D03*
X136700000Y-116725000D03*
%TD*%
D41*
%TO.C,J4*%
X161975000Y-84950000D03*
X160725000Y-84950000D03*
X159475000Y-84950000D03*
X158225000Y-84950000D03*
D42*
X155675000Y-87850000D03*
X164525000Y-87850000D03*
%TD*%
M02*
