%TF.GenerationSoftware,KiCad,Pcbnew,9.0.3*%
%TF.CreationDate,2025-08-01T15:17:26+02:00*%
%TF.ProjectId,USBPanel,55534250-616e-4656-9c2e-6b696361645f,rev?*%
%TF.SameCoordinates,Original*%
%TF.FileFunction,Soldermask,Bot*%
%TF.FilePolarity,Negative*%
%FSLAX46Y46*%
G04 Gerber Fmt 4.6, Leading zero omitted, Abs format (unit mm)*
G04 Created by KiCad (PCBNEW 9.0.3) date 2025-08-01 15:17:26*
%MOMM*%
%LPD*%
G01*
G04 APERTURE LIST*
G04 Aperture macros list*
%AMRoundRect*
0 Rectangle with rounded corners*
0 $1 Rounding radius*
0 $2 $3 $4 $5 $6 $7 $8 $9 X,Y pos of 4 corners*
0 Add a 4 corners polygon primitive as box body*
4,1,4,$2,$3,$4,$5,$6,$7,$8,$9,$2,$3,0*
0 Add four circle primitives for the rounded corners*
1,1,$1+$1,$2,$3*
1,1,$1+$1,$4,$5*
1,1,$1+$1,$6,$7*
1,1,$1+$1,$8,$9*
0 Add four rect primitives between the rounded corners*
20,1,$1+$1,$2,$3,$4,$5,0*
20,1,$1+$1,$4,$5,$6,$7,0*
20,1,$1+$1,$6,$7,$8,$9,0*
20,1,$1+$1,$8,$9,$2,$3,0*%
%AMFreePoly0*
4,1,37,-0.510866,0.496194,-0.483806,0.469134,-0.480000,0.450000,-0.480000,-0.050000,-0.170000,-0.050000,-0.170000,0.450000,-0.166194,0.469134,-0.139134,0.496194,-0.120000,0.500000,0.120000,0.500000,0.139134,0.496194,0.166194,0.469134,0.170000,0.450000,0.170000,-0.050000,0.480000,-0.050000,0.480000,0.450000,0.483806,0.469134,0.510866,0.496194,0.530000,0.500000,0.770000,0.500000,
0.789134,0.496194,0.816194,0.469134,0.820000,0.450000,0.820000,-0.450000,0.816194,-0.469134,0.789134,-0.496194,0.770000,-0.500000,-0.770000,-0.500000,-0.789134,-0.496194,-0.816194,-0.469134,-0.820000,-0.450000,-0.820000,0.450000,-0.816194,0.469134,-0.789134,0.496194,-0.770000,0.500000,-0.530000,0.500000,-0.510866,0.496194,-0.510866,0.496194,$1*%
%AMFreePoly1*
4,1,47,1.119134,0.556194,1.146194,0.529134,1.150000,0.510000,1.150000,-1.850000,1.146194,-1.869134,1.119134,-1.896194,1.100000,-1.900000,0.860000,-1.900000,0.840866,-1.896194,0.813806,-1.869134,0.810000,-1.850000,0.810000,-1.150000,0.500000,-1.150000,0.500000,-1.850000,0.496194,-1.869134,0.469134,-1.896194,0.450000,-1.900000,0.210000,-1.900000,0.190866,-1.896194,0.163806,-1.869134,
0.160000,-1.850000,0.160000,-1.150000,-0.150000,-1.150000,-0.150000,-1.850000,-0.153806,-1.869134,-0.180866,-1.896194,-0.200000,-1.900000,-0.440000,-1.900000,-0.459134,-1.896194,-0.486194,-1.869134,-0.490000,-1.850000,-0.490000,-1.150000,-0.800000,-1.150000,-0.800000,-1.850000,-0.803806,-1.869134,-0.830866,-1.896194,-0.850000,-1.900000,-1.090000,-1.900000,-1.109134,-1.896194,-1.136194,-1.869134,
-1.140000,-1.850000,-1.140000,0.510000,-1.136194,0.529134,-1.109134,0.556194,-1.090000,0.560000,1.100000,0.560000,1.119134,0.556194,1.119134,0.556194,$1*%
G04 Aperture macros list end*
%ADD10R,1.700000X1.700000*%
%ADD11C,1.700000*%
%ADD12C,3.500000*%
%ADD13C,1.300000*%
%ADD14C,1.800000*%
%ADD15RoundRect,0.200000X-0.200000X-0.275000X0.200000X-0.275000X0.200000X0.275000X-0.200000X0.275000X0*%
%ADD16RoundRect,0.250000X-0.250000X-0.475000X0.250000X-0.475000X0.250000X0.475000X-0.250000X0.475000X0*%
%ADD17RoundRect,0.200000X-0.275000X0.200000X-0.275000X-0.200000X0.275000X-0.200000X0.275000X0.200000X0*%
%ADD18RoundRect,0.030000X0.120000X0.395000X-0.120000X0.395000X-0.120000X-0.395000X0.120000X-0.395000X0*%
%ADD19RoundRect,0.030000X-0.120000X-0.395000X0.120000X-0.395000X0.120000X0.395000X-0.120000X0.395000X0*%
%ADD20O,0.850000X1.550000*%
%ADD21O,1.080000X0.800000*%
%ADD22O,1.850000X0.850000*%
%ADD23RoundRect,0.150000X-0.587500X-0.150000X0.587500X-0.150000X0.587500X0.150000X-0.587500X0.150000X0*%
%ADD24RoundRect,0.200000X0.200000X0.275000X-0.200000X0.275000X-0.200000X-0.275000X0.200000X-0.275000X0*%
%ADD25RoundRect,0.037500X0.287500X0.087500X-0.287500X0.087500X-0.287500X-0.087500X0.287500X-0.087500X0*%
%ADD26RoundRect,0.030000X0.295000X0.070000X-0.295000X0.070000X-0.295000X-0.070000X0.295000X-0.070000X0*%
%ADD27RoundRect,0.045000X0.105000X-0.305000X0.105000X0.305000X-0.105000X0.305000X-0.105000X-0.305000X0*%
%ADD28RoundRect,0.100000X0.100000X-0.225000X0.100000X0.225000X-0.100000X0.225000X-0.100000X-0.225000X0*%
%ADD29FreePoly0,180.000000*%
%ADD30FreePoly1,180.000000*%
%ADD31RoundRect,0.034000X0.136000X0.466000X-0.136000X0.466000X-0.136000X-0.466000X0.136000X-0.466000X0*%
%ADD32RoundRect,0.200000X0.275000X-0.200000X0.275000X0.200000X-0.275000X0.200000X-0.275000X-0.200000X0*%
%ADD33RoundRect,0.150000X0.587500X0.150000X-0.587500X0.150000X-0.587500X-0.150000X0.587500X-0.150000X0*%
%ADD34RoundRect,0.225000X-0.225000X-0.250000X0.225000X-0.250000X0.225000X0.250000X-0.225000X0.250000X0*%
%ADD35RoundRect,0.250000X-0.325000X-0.650000X0.325000X-0.650000X0.325000X0.650000X-0.325000X0.650000X0*%
%ADD36RoundRect,0.200000X0.300000X0.200000X-0.300000X0.200000X-0.300000X-0.200000X0.300000X-0.200000X0*%
G04 APERTURE END LIST*
D10*
%TO.C,J6*%
X132000000Y-93200000D03*
D11*
X132000000Y-95740000D03*
X132000000Y-98280000D03*
X132000000Y-100820000D03*
%TD*%
D12*
%TO.C,REF\u002A\u002A*%
X159000000Y-100000000D03*
%TD*%
D13*
%TO.C,J5*%
X151640000Y-99650000D03*
D14*
X150300000Y-100900000D03*
X150300000Y-98400000D03*
%TD*%
D10*
%TO.C,J7*%
X141040000Y-101825000D03*
D11*
X141040000Y-104365000D03*
X138500000Y-101825000D03*
X138500000Y-104365000D03*
X135960000Y-101825000D03*
X135960000Y-104365000D03*
%TD*%
D12*
%TO.C,REF\u002A\u002A*%
X151000000Y-115000000D03*
%TD*%
D13*
%TO.C,J3*%
X133760000Y-85050000D03*
D14*
X135100000Y-83800000D03*
X135100000Y-86300000D03*
X135100000Y-88800000D03*
%TD*%
D12*
%TO.C,REF\u002A\u002A*%
X151000000Y-85000000D03*
%TD*%
D15*
%TO.C,R12*%
X158675000Y-85700000D03*
X160325000Y-85700000D03*
%TD*%
D16*
%TO.C,C1*%
X137150000Y-92900000D03*
X139050000Y-92900000D03*
%TD*%
D17*
%TO.C,R13*%
X164700000Y-94775000D03*
X164700000Y-96425000D03*
%TD*%
D18*
%TO.C,J2*%
X157750000Y-106675000D03*
X157250000Y-106675000D03*
X156750000Y-106675000D03*
X156250000Y-106675000D03*
X155750000Y-106675000D03*
X155250000Y-106675000D03*
X154750000Y-106675000D03*
X154250000Y-106675000D03*
X153750000Y-106675000D03*
X153250000Y-106675000D03*
X152750000Y-106675000D03*
X152250000Y-106675000D03*
D19*
X152250000Y-108325000D03*
X152750000Y-108325000D03*
X153250000Y-108325000D03*
X153750000Y-108325000D03*
X154250000Y-108325000D03*
X154750000Y-108325000D03*
X155250000Y-108325000D03*
X155750000Y-108325000D03*
X156250000Y-108325000D03*
X156750000Y-108325000D03*
X157250000Y-108325000D03*
X157750000Y-108325000D03*
D20*
X160000000Y-107500000D03*
D21*
X158610000Y-107500000D03*
D22*
X158525000Y-109475000D03*
X158525000Y-105525000D03*
X151475000Y-109475000D03*
X151475000Y-105525000D03*
D21*
X151390000Y-107500000D03*
D20*
X150000000Y-107500000D03*
%TD*%
D17*
%TO.C,R16*%
X161600000Y-104475000D03*
X161600000Y-106125000D03*
%TD*%
D23*
%TO.C,Q5*%
X152862500Y-98150000D03*
X152862500Y-96250000D03*
X154737500Y-97200000D03*
%TD*%
D24*
%TO.C,R2*%
X141225000Y-100100000D03*
X139575000Y-100100000D03*
%TD*%
D15*
%TO.C,R6*%
X133575000Y-98300000D03*
X135225000Y-98300000D03*
%TD*%
D23*
%TO.C,Q4*%
X152862500Y-103350000D03*
X152862500Y-101450000D03*
X154737500Y-102400000D03*
%TD*%
D25*
%TO.C,U5*%
X160225000Y-87400000D03*
D26*
X160225000Y-87900000D03*
D25*
X160225000Y-88400000D03*
D27*
X159500000Y-88600000D03*
D25*
X158775000Y-88400000D03*
D26*
X158775000Y-87900000D03*
D25*
X158775000Y-87400000D03*
D27*
X159500000Y-87200000D03*
%TD*%
D16*
%TO.C,C2*%
X137150000Y-95000000D03*
X139050000Y-95000000D03*
%TD*%
D28*
%TO.C,U6*%
X163250000Y-86950000D03*
X162600000Y-86950000D03*
X161950000Y-86950000D03*
X161950000Y-85050000D03*
X162600000Y-85050000D03*
X163250000Y-85050000D03*
%TD*%
D29*
%TO.C,Q2*%
X146125000Y-101300000D03*
D30*
X145805000Y-99700000D03*
D31*
X144825000Y-101300000D03*
%TD*%
D17*
%TO.C,R14*%
X162500000Y-94775000D03*
X162500000Y-96425000D03*
%TD*%
%TO.C,R15*%
X164800000Y-103775000D03*
X164800000Y-105425000D03*
%TD*%
D16*
%TO.C,C3*%
X137150000Y-97100000D03*
X139050000Y-97100000D03*
%TD*%
D32*
%TO.C,R19*%
X138800000Y-110025000D03*
X138800000Y-108375000D03*
%TD*%
D17*
%TO.C,R3*%
X142700000Y-97975000D03*
X142700000Y-99625000D03*
%TD*%
D15*
%TO.C,R4*%
X133575000Y-95700000D03*
X135225000Y-95700000D03*
%TD*%
D24*
%TO.C,R1*%
X138125000Y-100100000D03*
X136475000Y-100100000D03*
%TD*%
D32*
%TO.C,R18*%
X137200000Y-110025000D03*
X137200000Y-108375000D03*
%TD*%
D33*
%TO.C,Q3*%
X163837500Y-88450000D03*
X163837500Y-90350000D03*
X161962500Y-89400000D03*
%TD*%
D34*
%TO.C,C17*%
X158725000Y-84100000D03*
X160275000Y-84100000D03*
%TD*%
D35*
%TO.C,C18*%
X146025000Y-103600000D03*
X148975000Y-103600000D03*
%TD*%
D17*
%TO.C,R17*%
X163200000Y-103775000D03*
X163200000Y-105425000D03*
%TD*%
D36*
%TO.C,D3*%
X164750000Y-106950000D03*
X163250000Y-106950000D03*
X163250000Y-108050000D03*
X164750000Y-108050000D03*
%TD*%
%TO.C,D2*%
X164750000Y-91950000D03*
X163250000Y-91950000D03*
X163250000Y-93050000D03*
X164750000Y-93050000D03*
%TD*%
D15*
%TO.C,R5*%
X133575000Y-93200000D03*
X135225000Y-93200000D03*
%TD*%
D18*
%TO.C,J1*%
X157750000Y-91675000D03*
X157250000Y-91675000D03*
X156750000Y-91675000D03*
X156250000Y-91675000D03*
X155750000Y-91675000D03*
X155250000Y-91675000D03*
X154750000Y-91675000D03*
X154250000Y-91675000D03*
X153750000Y-91675000D03*
X153250000Y-91675000D03*
X152750000Y-91675000D03*
X152250000Y-91675000D03*
D19*
X152250000Y-93325000D03*
X152750000Y-93325000D03*
X153250000Y-93325000D03*
X153750000Y-93325000D03*
X154250000Y-93325000D03*
X154750000Y-93325000D03*
X155250000Y-93325000D03*
X155750000Y-93325000D03*
X156250000Y-93325000D03*
X156750000Y-93325000D03*
X157250000Y-93325000D03*
X157750000Y-93325000D03*
D20*
X160000000Y-92500000D03*
D21*
X158610000Y-92500000D03*
D22*
X158525000Y-94475000D03*
X158525000Y-90525000D03*
X151475000Y-94475000D03*
X151475000Y-90525000D03*
D21*
X151390000Y-92500000D03*
D20*
X150000000Y-92500000D03*
%TD*%
M02*
