M48
; DRILL file {KiCad 9.0.3} date 2025-08-23T17:43:31+0200
; FORMAT={-:-/ absolute / inch / decimal}
; #@! TF.CreationDate,2025-08-23T17:43:31+02:00
; #@! TF.GenerationSoftware,Kicad,Pcbnew,9.0.3
; #@! TF.FileFunction,Plated,1,6,PTH
FMAT,2
INCH
; #@! TA.AperFunction,Plated,PTH,ViaDrill
T1C0.0118
; #@! TA.AperFunction,Plated,PTH,ComponentDrill
T2C0.0197
; #@! TA.AperFunction,Plated,PTH,ComponentDrill
T3C0.0217
; #@! TA.AperFunction,Plated,PTH,ComponentDrill
T4C0.0394
; #@! TA.AperFunction,Plated,PTH,ComponentDrill
T5C0.0472
%
G90
G05
T1
X5.1394Y-3.4433
X5.2323Y-4.1939
X5.2323Y-4.2549
X5.237Y-3.8402
X5.2559Y-4.5955
X5.3189Y-4.5955
X5.3425Y-3.9134
X5.3535Y-3.8157
X5.3602Y-3.7264
X5.3654Y-3.8358
X5.3819Y-4.5955
X5.3909Y-3.7835
X5.3937Y-3.2992
X5.3996Y-3.6575
X5.3996Y-3.7244
X5.4016Y-4.2667
X5.437Y-3.6378
X5.4449Y-3.315
X5.4449Y-4.5955
X5.4488Y-3.3504
X5.4567Y-3.5531
X5.4606Y-3.6142
X5.4608Y-4.44
X5.4646Y-4.2667
X5.4724Y-3.7362
X5.4724Y-3.7795
X5.4724Y-3.8228
X5.4764Y-3.6654
X5.4921Y-3.3504
X5.4921Y-3.6142
X5.5157Y-3.6378
X5.5157Y-3.6654
X5.5157Y-3.6969
X5.5157Y-3.7362
X5.5157Y-3.7795
X5.5157Y-3.8228
X5.5354Y-3.3504
X5.5354Y-3.6181
X5.5394Y-3.5531
X5.5472Y-3.6969
X5.5531Y-4.2402
X5.5531Y-4.3898
X5.5551Y-3.6378
X5.5591Y-3.6693
X5.5591Y-3.7362
X5.5591Y-3.7795
X5.5591Y-3.8228
X5.5679Y-4.315
X5.5866Y-3.6654
X5.5945Y-3.6417
X5.6024Y-3.6181
X5.6063Y-4.5669
X5.6181Y-3.8573
X5.6213Y-3.752
X5.622Y-3.5295
X5.622Y-3.5945
X5.6264Y-3.8248
X5.6299Y-4.2244
X5.6299Y-4.2559
X5.6299Y-4.2913
X5.6299Y-4.3386
X5.6299Y-4.374
X5.6299Y-4.4055
X5.6417Y-3.6142
X5.6545Y-3.7402
X5.6693Y-3.3504
X5.6693Y-4.2953
X5.6866Y-4.3642
X5.6969Y-4.0551
X5.6972Y-3.7083
X5.7009Y-3.9882
X5.7075Y-3.748
X5.7087Y-3.8661
X5.7087Y-3.9016
X5.7087Y-3.937
X5.7087Y-4.2953
X5.7126Y-3.3504
X5.7244Y-3.689
X5.7244Y-4.6102
X5.7323Y-3.7992
X5.7323Y-3.8228
X5.7402Y-3.8661
X5.7402Y-3.9016
X5.7402Y-3.937
X5.7402Y-4.2756
X5.7402Y-4.315
X5.7402Y-4.3543
X5.749Y-4.0315
X5.7504Y-4.4114
X5.7559Y-3.3504
X5.7559Y-3.7992
X5.7559Y-3.8228
X5.7717Y-3.8661
X5.7717Y-3.9016
X5.7717Y-3.937
X5.7795Y-3.7992
X5.7795Y-3.8228
X5.7795Y-4.2756
X5.7795Y-4.315
X5.7795Y-4.3543
X5.8169Y-4.2953
X5.8268Y-3.8622
X5.848Y-4.374
X5.8652Y-4.0787
X5.8728Y-4.3531
X5.874Y-4.3937
X5.878Y-4.315
X5.8976Y-4.3346
X5.9252Y-4.348
X5.9531Y-4.3579
X5.9807Y-4.3614
X6.0182Y-3.7894
X6.0182Y-3.9941
X6.0189Y-3.5445
X6.0197Y-3.7492
X6.0236Y-4.1614
X6.0531Y-3.578
X6.0531Y-3.7059
X6.0531Y-4.2323
X6.0531Y-4.2969
X6.0535Y-4.1673
X6.0591Y-3.6417
X6.0827Y-4.3622
X6.0827Y-4.3937
X6.0866Y-3.7402
X6.0925Y-3.5776
X6.0925Y-3.6417
X6.0984Y-4.3071
X6.1122Y-3.7059
X6.1181Y-3.2559
X6.1299Y-3.5472
X6.1516Y-3.578
X6.1516Y-3.6417
X6.1516Y-3.7059
X6.1516Y-4.1673
X6.1516Y-4.2969
X6.1581Y-4.2323
X6.1594Y-4.378
X6.1909Y-3.4119
X6.1949Y-3.4969
X6.1963Y-4.2323
X6.2244Y-3.3425
X6.2343Y-3.4606
X6.2638Y-3.2925
X6.2795Y-3.4882
X6.3031Y-3.2992
X6.3031Y-3.5827
X6.3031Y-3.7008
X6.3071Y-4.1693
X6.3071Y-4.2953
X6.3248Y-3.4606
X6.3492Y-3.302
X6.3622Y-4.1132
X6.376Y-3.3484
X6.4016Y-3.4232
X6.4252Y-4.0856
X6.4272Y-3.3484
X6.4272Y-3.6201
X6.4503Y-3.5571
X6.4862Y-3.6201
X6.4862Y-4.2106
X6.4882Y-4.0856
T4
X5.1969Y-3.6693
X5.1969Y-3.7693
X5.1969Y-3.8693
X5.1969Y-3.9693
X5.3528Y-4.0089
X5.3528Y-4.1089
X5.4528Y-4.0089
X5.4528Y-4.1089
X5.5528Y-4.0089
X5.5528Y-4.1089
T5
X5.3189Y-3.2992
X5.3189Y-3.3976
X5.3189Y-3.4961
X5.9173Y-3.874
X5.9173Y-3.9724
T2
G00X5.9657Y-3.6417
M15
G01X5.9547Y-3.6417
M16
G05
G00X5.9657Y-4.2323
M15
G01X5.9547Y-4.2323
M16
G05
G00X6.25Y-3.6417
M15
G01X6.239Y-3.6417
M16
G05
G00X6.25Y-4.2323
M15
G01X6.239Y-4.2323
M16
G05
T3
G00X5.9055Y-3.6555
M15
G01X5.9055Y-3.628
M16
G05
G00X5.9055Y-4.2461
M15
G01X5.9055Y-4.2185
M16
G05
G00X5.9833Y-3.564
M15
G01X5.9439Y-3.564
M16
G05
G00X5.9833Y-3.7195
M15
G01X5.9439Y-3.7195
M16
G05
G00X5.9833Y-4.1545
M15
G01X5.9439Y-4.1545
M16
G05
G00X5.9833Y-4.31
M15
G01X5.9439Y-4.31
M16
G05
G00X6.2608Y-3.564
M15
G01X6.2215Y-3.564
M16
G05
G00X6.2608Y-3.7195
M15
G01X6.2215Y-3.7195
M16
G05
G00X6.2608Y-4.1545
M15
G01X6.2215Y-4.1545
M16
G05
G00X6.2608Y-4.31
M15
G01X6.2215Y-4.31
M16
G05
G00X6.2992Y-3.6555
M15
G01X6.2992Y-3.628
M16
G05
G00X6.2992Y-4.2461
M15
G01X6.2992Y-4.2185
M16
G05
M30
