M48
; DRILL file {KiCad 9.0.3} date 2025-07-26T12:32:41+0200
; FORMAT={-:-/ absolute / inch / decimal}
; #@! TF.CreationDate,2025-07-26T12:32:41+02:00
; #@! TF.GenerationSoftware,Kicad,Pcbnew,9.0.3
; #@! TF.FileFunction,Plated,1,4,PTH
FMAT,2
INCH
; #@! TA.AperFunction,Plated,PTH,ViaDrill
T1C0.0118
; #@! TA.AperFunction,Plated,PTH,ComponentDrill
T2C0.0315
%
G90
G05
T1
X5.1654Y-4.0
X5.1693Y-3.8346
X5.2205Y-4.3307
X5.2677Y-4.6614
X5.2692Y-3.4872
X5.2795Y-3.2835
X5.3282Y-3.4439
X5.3622Y-3.9528
X5.3622Y-3.9882
X5.3622Y-4.0236
X5.3873Y-3.4872
X5.3976Y-3.6378
X5.4268Y-3.2146
X5.4657Y-3.2717
X5.4724Y-4.0512
X5.5118Y-3.811
X5.5197Y-4.1107
X5.5354Y-3.874
X5.5433Y-4.6693
X5.5591Y-3.874
X5.5709Y-3.6102
X5.5898Y-3.3283
X5.5945Y-3.5118
X5.5984Y-4.3425
X5.6152Y-3.748
X5.6152Y-3.811
X5.6152Y-3.937
X5.6152Y-4.0118
X5.6154Y-3.8465
X5.6417Y-4.2047
X5.6457Y-4.1535
X5.6528Y-3.2626
X5.6663Y-3.6772
X5.6762Y-3.748
X5.6762Y-3.874
X5.6762Y-3.937
X5.6762Y-4.0118
X5.6969Y-4.5276
X5.7035Y-3.4169
X5.7087Y-3.9402
X5.711Y-4.1866
X5.7189Y-3.687
X5.7323Y-3.748
X5.7358Y-3.6677
X5.7362Y-4.5866
X5.7437Y-4.0453
X5.7441Y-4.2953
X5.7756Y-3.1969
X5.7807Y-4.2008
X5.7835Y-3.7874
X5.7835Y-3.8425
X5.7835Y-3.8976
X5.7835Y-3.9528
X5.7835Y-4.0079
X5.7913Y-3.6191
X5.7916Y-3.6808
X5.811Y-4.0833
X5.811Y-4.4843
X5.8219Y-4.1181
X5.8386Y-3.7874
X5.8386Y-3.8425
X5.8386Y-3.8976
X5.8386Y-3.9528
X5.8386Y-4.0079
X5.8661Y-4.2874
X5.8858Y-4.6496
X5.8937Y-3.7874
X5.8937Y-3.8425
X5.8937Y-3.8976
X5.8937Y-3.9528
X5.8937Y-4.0079
X5.9134Y-3.4843
X5.9291Y-3.6417
X5.9488Y-3.7874
X5.9488Y-3.8425
X5.9488Y-3.8976
X5.9488Y-3.9528
X5.9488Y-4.0079
X5.972Y-4.3854
X5.9882Y-3.6181
X5.9931Y-4.1181
X6.0039Y-3.7874
X6.0039Y-3.8425
X6.0039Y-3.8976
X6.0039Y-3.9528
X6.0039Y-4.0079
X6.0039Y-4.1772
X6.0039Y-4.3543
X6.0541Y-4.1181
X6.0945Y-3.2835
X6.1063Y-3.6142
X6.1112Y-3.7362
X6.1112Y-3.7992
X6.1142Y-4.0325
X6.1142Y-4.0935
X6.1181Y-4.3543
X6.1315Y-3.3382
X6.1614Y-3.6417
X6.1722Y-3.7362
X6.1722Y-3.7992
X6.1732Y-4.5276
X6.2012Y-4.0244
X6.2039Y-4.15
X6.2126Y-4.5866
X6.228Y-3.6795
X6.252Y-4.2008
X6.2795Y-4.4213
X6.2874Y-3.8819
X6.2913Y-4.3189
X6.2953Y-3.7638
X6.311Y-4.0276
X6.3134Y-3.2618
X6.3189Y-4.1693
X6.3268Y-3.9685
X6.3661Y-4.6378
X6.3711Y-3.8071
X6.4031Y-3.6575
X6.4134Y-3.2008
X6.4134Y-3.311
X6.437Y-4.2362
X6.4528Y-4.3937
X6.4803Y-3.9213
X6.4882Y-4.2756
X6.5134Y-3.2618
X6.5512Y-4.5551
X6.5795Y-3.5846
X6.5906Y-4.2244
X6.5945Y-4.0512
X6.626Y-3.5433
X6.626Y-3.8465
X6.6457Y-3.3425
T2
X5.4508Y-4.2307
X5.4508Y-4.3307
X5.4508Y-4.4307
M30
