%TF.GenerationSoftware,KiCad,Pcbnew,8.0.5*%
%TF.CreationDate,2024-12-30T22:32:32+01:00*%
%TF.ProjectId,DigitalAudioProcessor,44696769-7461-46c4-9175-64696f50726f,rev?*%
%TF.SameCoordinates,Original*%
%TF.FileFunction,Copper,L2,Inr*%
%TF.FilePolarity,Positive*%
%FSLAX46Y46*%
G04 Gerber Fmt 4.6, Leading zero omitted, Abs format (unit mm)*
G04 Created by KiCad (PCBNEW 8.0.5) date 2024-12-30 22:32:32*
%MOMM*%
%LPD*%
G01*
G04 APERTURE LIST*
%TA.AperFunction,ComponentPad*%
%ADD10C,1.500000*%
%TD*%
%TA.AperFunction,ViaPad*%
%ADD11C,0.450000*%
%TD*%
G04 APERTURE END LIST*
D10*
%TO.N,Net-(U1-VCC)*%
%TO.C,U1*%
X138450000Y-107460000D03*
%TO.N,GND*%
X138450000Y-110000000D03*
%TO.N,Net-(U1-OUT)*%
X138450000Y-112540000D03*
%TD*%
D11*
%TO.N,GND*%
X159800000Y-109700000D03*
X141980000Y-84540000D03*
X133800000Y-118400000D03*
X167500000Y-102900000D03*
X159500000Y-112300000D03*
X160500000Y-105900000D03*
X160300000Y-102300000D03*
X160700000Y-100800000D03*
X159700000Y-98600000D03*
X142100000Y-89200000D03*
X150200000Y-88500000D03*
X152100000Y-91900000D03*
X155100000Y-91800000D03*
X137100000Y-92400000D03*
X139000000Y-102900000D03*
X131200000Y-101600000D03*
X131300000Y-97400000D03*
X158190000Y-93460000D03*
X168800000Y-84900000D03*
X134100000Y-83400000D03*
X141500000Y-91700000D03*
X145900000Y-109100000D03*
X149000000Y-108900000D03*
X152500000Y-110600000D03*
X155400000Y-110600000D03*
X142200000Y-110300000D03*
X143300000Y-106800000D03*
X132600000Y-110000000D03*
X140800000Y-118600000D03*
X149500000Y-118100000D03*
X161700000Y-117800000D03*
X166400000Y-115700000D03*
X163900000Y-111600000D03*
X167400000Y-107300000D03*
X168300000Y-97700000D03*
X164600000Y-99600000D03*
X162100000Y-97000000D03*
X156500000Y-92500000D03*
X152500000Y-106100000D03*
X147600000Y-113900000D03*
X146700000Y-81200000D03*
X143580000Y-82870000D03*
X144870000Y-86790000D03*
X150600000Y-92500000D03*
X159900000Y-95600000D03*
%TO.N,+3.3V*%
X140200000Y-104412500D03*
%TO.N,/I2S_OUT_LRCK*%
X158800000Y-106700000D03*
X143400000Y-105500000D03*
%TO.N,Net-(U3-PA0)*%
X157580000Y-105410000D03*
X145060000Y-106340000D03*
%TO.N,Net-(U3-PA2)*%
X157510000Y-102220000D03*
X146830000Y-106700000D03*
%TO.N,Net-(J1-Pin_5)*%
X145000000Y-100080000D03*
%TO.N,GND*%
X162637500Y-92900000D03*
X157800000Y-116500000D03*
X145700000Y-116500000D03*
X144700000Y-115000000D03*
X156800000Y-115000000D03*
X164800000Y-108600000D03*
X163500000Y-107600000D03*
X167120000Y-91050000D03*
X168300000Y-90000000D03*
X162900000Y-84100000D03*
X162900000Y-81300000D03*
X137840000Y-81650000D03*
X154800000Y-83400000D03*
X155740000Y-84790000D03*
X138830000Y-83100000D03*
X136837500Y-88575000D03*
X135337500Y-87475000D03*
X133837500Y-88575000D03*
X136200000Y-102200000D03*
X136200000Y-100400000D03*
X136200000Y-101300000D03*
%TO.N,+3.3V*%
X145260000Y-93650000D03*
X145690000Y-93160000D03*
X160360000Y-82850000D03*
%TO.N,Net-(J1-Pin_5)*%
X165440000Y-82850000D03*
%TO.N,GND*%
X145890000Y-102750000D03*
%TO.N,+3.3V*%
X147875000Y-104600000D03*
%TO.N,GND*%
X147600000Y-103715835D03*
X152500000Y-101800000D03*
X151100000Y-101800000D03*
X152500000Y-100400000D03*
X151100000Y-100400000D03*
X152500000Y-97600000D03*
X152500000Y-96200000D03*
X151100000Y-96200000D03*
X151100000Y-97600000D03*
X148300000Y-96200000D03*
X146900000Y-96200000D03*
X146900000Y-97600000D03*
X148300000Y-97600000D03*
X146900000Y-100400000D03*
X146900000Y-101800000D03*
X148300000Y-101800000D03*
X148300000Y-100400000D03*
X151100000Y-99000000D03*
X152500000Y-99000000D03*
X148300000Y-99000000D03*
X146900000Y-99000000D03*
X149700000Y-100400000D03*
X149700000Y-101800000D03*
X149700000Y-97600000D03*
X149700000Y-96200000D03*
X149700000Y-99000000D03*
X156775000Y-94900000D03*
X156775000Y-96500000D03*
X155300000Y-103975000D03*
X153775000Y-104600000D03*
X147100000Y-91925000D03*
X145600000Y-95200000D03*
X140000000Y-96800000D03*
X142625000Y-101900000D03*
X142625000Y-100000000D03*
X142630000Y-97700000D03*
X142625000Y-96800000D03*
X142625000Y-95200000D03*
X143925000Y-93400000D03*
%TO.N,+3.3V*%
X144175000Y-100000000D03*
%TO.N,VCC*%
X141200000Y-98400000D03*
X140600000Y-98400000D03*
X147107322Y-93492678D03*
X152225000Y-104600000D03*
X155225000Y-96500000D03*
%TO.N,+3.3V*%
X155300000Y-102425000D03*
X155225000Y-94900000D03*
X144175000Y-101900000D03*
X144175000Y-98400000D03*
X144175000Y-95200000D03*
%TO.N,Net-(U1-OUT)*%
X151690000Y-111390000D03*
%TD*%
%TA.AperFunction,Conductor*%
%TO.N,GND*%
G36*
X168197789Y-80222174D02*
G01*
X168218830Y-80264841D01*
X168230305Y-80352006D01*
X168291393Y-80579991D01*
X168381714Y-80798045D01*
X168381715Y-80798048D01*
X168499724Y-81002446D01*
X168499728Y-81002452D01*
X168643408Y-81189699D01*
X168810300Y-81356591D01*
X168997547Y-81500271D01*
X168997553Y-81500275D01*
X169201951Y-81618284D01*
X169420007Y-81708606D01*
X169647986Y-81769693D01*
X169647992Y-81769693D01*
X169647993Y-81769694D01*
X169666134Y-81772082D01*
X169735158Y-81781169D01*
X169784208Y-81809487D01*
X169799500Y-81854536D01*
X169799500Y-118145462D01*
X169777826Y-118197788D01*
X169735160Y-118218829D01*
X169647992Y-118230306D01*
X169647990Y-118230306D01*
X169647986Y-118230307D01*
X169544580Y-118258014D01*
X169420008Y-118291393D01*
X169201954Y-118381714D01*
X169201951Y-118381715D01*
X168997553Y-118499724D01*
X168997547Y-118499728D01*
X168810300Y-118643408D01*
X168643408Y-118810300D01*
X168499728Y-118997547D01*
X168499724Y-118997553D01*
X168381715Y-119201951D01*
X168381714Y-119201954D01*
X168291393Y-119420008D01*
X168230305Y-119647993D01*
X168218830Y-119735159D01*
X168190511Y-119784208D01*
X168145463Y-119799500D01*
X131854537Y-119799500D01*
X131802211Y-119777826D01*
X131781170Y-119735159D01*
X131769694Y-119647993D01*
X131769693Y-119647992D01*
X131769693Y-119647986D01*
X131708606Y-119420007D01*
X131618284Y-119201951D01*
X131604107Y-119177395D01*
X131500275Y-118997553D01*
X131500271Y-118997547D01*
X131356591Y-118810300D01*
X131189699Y-118643408D01*
X131002452Y-118499728D01*
X131002446Y-118499724D01*
X130798048Y-118381715D01*
X130798045Y-118381714D01*
X130579991Y-118291393D01*
X130501015Y-118270232D01*
X130352014Y-118230307D01*
X130352007Y-118230306D01*
X130264840Y-118218829D01*
X130215791Y-118190510D01*
X130200500Y-118145462D01*
X130200500Y-113698544D01*
X132999500Y-113698544D01*
X132999500Y-113921455D01*
X133028595Y-114142461D01*
X133086290Y-114357782D01*
X133171591Y-114563717D01*
X133171594Y-114563725D01*
X133283049Y-114756770D01*
X133283053Y-114756776D01*
X133418747Y-114933618D01*
X133576381Y-115091252D01*
X133753223Y-115226946D01*
X133753226Y-115226948D01*
X133946274Y-115338405D01*
X134152219Y-115423710D01*
X134367537Y-115481404D01*
X134588543Y-115510500D01*
X134588545Y-115510500D01*
X134811455Y-115510500D01*
X134811457Y-115510500D01*
X135032463Y-115481404D01*
X135247781Y-115423710D01*
X135453726Y-115338405D01*
X135646774Y-115226948D01*
X135742309Y-115153641D01*
X135823618Y-115091252D01*
X135823619Y-115091250D01*
X135823624Y-115091247D01*
X135981247Y-114933624D01*
X136116948Y-114756774D01*
X136228405Y-114563726D01*
X136313710Y-114357781D01*
X136371404Y-114142463D01*
X136400500Y-113921457D01*
X136400500Y-113698543D01*
X136371404Y-113477537D01*
X136313710Y-113262219D01*
X136228405Y-113056274D01*
X136116948Y-112863226D01*
X136116946Y-112863223D01*
X135981252Y-112686381D01*
X135834871Y-112540000D01*
X137494901Y-112540000D01*
X137513253Y-112726332D01*
X137567605Y-112905505D01*
X137655859Y-113070617D01*
X137655862Y-113070622D01*
X137655864Y-113070625D01*
X137774643Y-113215357D01*
X137919375Y-113334136D01*
X137919380Y-113334138D01*
X137919382Y-113334140D01*
X138084494Y-113422394D01*
X138084496Y-113422394D01*
X138084499Y-113422396D01*
X138263669Y-113476747D01*
X138450000Y-113495099D01*
X138636331Y-113476747D01*
X138815501Y-113422396D01*
X138980625Y-113334136D01*
X139125357Y-113215357D01*
X139244136Y-113070625D01*
X139332396Y-112905501D01*
X139386747Y-112726331D01*
X139405099Y-112540000D01*
X139386747Y-112353669D01*
X139332396Y-112174499D01*
X139332394Y-112174496D01*
X139332394Y-112174494D01*
X139244140Y-112009382D01*
X139244138Y-112009380D01*
X139244136Y-112009375D01*
X139125357Y-111864643D01*
X138980625Y-111745864D01*
X138980622Y-111745862D01*
X138980617Y-111745859D01*
X138815505Y-111657605D01*
X138636332Y-111603253D01*
X138450000Y-111584901D01*
X138263667Y-111603253D01*
X138084494Y-111657605D01*
X137919382Y-111745859D01*
X137919373Y-111745865D01*
X137774643Y-111864643D01*
X137655865Y-112009373D01*
X137655859Y-112009382D01*
X137567605Y-112174494D01*
X137513253Y-112353667D01*
X137494901Y-112540000D01*
X135834871Y-112540000D01*
X135823618Y-112528747D01*
X135646776Y-112393053D01*
X135646770Y-112393049D01*
X135453725Y-112281594D01*
X135453717Y-112281591D01*
X135247782Y-112196290D01*
X135032461Y-112138595D01*
X134869647Y-112117160D01*
X134811457Y-112109500D01*
X134588543Y-112109500D01*
X134537122Y-112116269D01*
X134367538Y-112138595D01*
X134152217Y-112196290D01*
X133946282Y-112281591D01*
X133946274Y-112281594D01*
X133753229Y-112393049D01*
X133753223Y-112393053D01*
X133576381Y-112528747D01*
X133418747Y-112686381D01*
X133283053Y-112863223D01*
X133283049Y-112863229D01*
X133171594Y-113056274D01*
X133171591Y-113056282D01*
X133086290Y-113262217D01*
X133028595Y-113477538D01*
X132999500Y-113698544D01*
X130200500Y-113698544D01*
X130200500Y-111390000D01*
X151259196Y-111390000D01*
X151280280Y-111523126D01*
X151341471Y-111643219D01*
X151341472Y-111643220D01*
X151436780Y-111738528D01*
X151556873Y-111799718D01*
X151556873Y-111799719D01*
X151575075Y-111802601D01*
X151690000Y-111820804D01*
X151823126Y-111799719D01*
X151943220Y-111738528D01*
X152038528Y-111643220D01*
X152099719Y-111523126D01*
X152120804Y-111390000D01*
X152099719Y-111256874D01*
X152099719Y-111256873D01*
X152038528Y-111136780D01*
X151943219Y-111041471D01*
X151823126Y-110980281D01*
X151823126Y-110980280D01*
X151690000Y-110959196D01*
X151556873Y-110980280D01*
X151556873Y-110980281D01*
X151436780Y-111041471D01*
X151341471Y-111136780D01*
X151280281Y-111256873D01*
X151280280Y-111256873D01*
X151259196Y-111390000D01*
X130200500Y-111390000D01*
X130200500Y-109999996D01*
X137295073Y-109999996D01*
X137295073Y-110000003D01*
X137314736Y-110212211D01*
X137373061Y-110417202D01*
X137373064Y-110417212D01*
X137468059Y-110607988D01*
X137468063Y-110607994D01*
X137507258Y-110659897D01*
X138063629Y-110103525D01*
X138077259Y-110154394D01*
X138129920Y-110245606D01*
X138204394Y-110320080D01*
X138295606Y-110372741D01*
X138346472Y-110386370D01*
X137789320Y-110943521D01*
X137935200Y-111033844D01*
X137935210Y-111033849D01*
X138133935Y-111110836D01*
X138343433Y-111149999D01*
X138343437Y-111150000D01*
X138556563Y-111150000D01*
X138556566Y-111149999D01*
X138766064Y-111110836D01*
X138964789Y-111033849D01*
X138964799Y-111033844D01*
X139110678Y-110943521D01*
X138553527Y-110386370D01*
X138604394Y-110372741D01*
X138695606Y-110320080D01*
X138770080Y-110245606D01*
X138822741Y-110154394D01*
X138836370Y-110103527D01*
X139392740Y-110659897D01*
X139431934Y-110607998D01*
X139431938Y-110607991D01*
X139526935Y-110417212D01*
X139526938Y-110417202D01*
X139585263Y-110212211D01*
X139604927Y-110000003D01*
X139604927Y-109999996D01*
X139585263Y-109787788D01*
X139526938Y-109582797D01*
X139526935Y-109582787D01*
X139431940Y-109392011D01*
X139431936Y-109392005D01*
X139392740Y-109340101D01*
X138836370Y-109896471D01*
X138822741Y-109845606D01*
X138770080Y-109754394D01*
X138695606Y-109679920D01*
X138604394Y-109627259D01*
X138553525Y-109613629D01*
X139110678Y-109056477D01*
X138964799Y-108966155D01*
X138964789Y-108966150D01*
X138766064Y-108889163D01*
X138556566Y-108850000D01*
X138343433Y-108850000D01*
X138133935Y-108889163D01*
X137935210Y-108966150D01*
X137935194Y-108966157D01*
X137789320Y-109056477D01*
X138346472Y-109613629D01*
X138295606Y-109627259D01*
X138204394Y-109679920D01*
X138129920Y-109754394D01*
X138077259Y-109845606D01*
X138063629Y-109896472D01*
X137507258Y-109340101D01*
X137468063Y-109392004D01*
X137468059Y-109392011D01*
X137373064Y-109582787D01*
X137373061Y-109582797D01*
X137314736Y-109787788D01*
X137295073Y-109999996D01*
X130200500Y-109999996D01*
X130200500Y-106078543D01*
X132999500Y-106078543D01*
X132999500Y-106301457D01*
X133006085Y-106351472D01*
X133028595Y-106522461D01*
X133086290Y-106737782D01*
X133171591Y-106943717D01*
X133171594Y-106943725D01*
X133283049Y-107136770D01*
X133283053Y-107136776D01*
X133418747Y-107313618D01*
X133576381Y-107471252D01*
X133753223Y-107606946D01*
X133753229Y-107606950D01*
X133946274Y-107718405D01*
X134152219Y-107803710D01*
X134367537Y-107861404D01*
X134588543Y-107890500D01*
X134588545Y-107890500D01*
X134811455Y-107890500D01*
X134811457Y-107890500D01*
X135032463Y-107861404D01*
X135247781Y-107803710D01*
X135453726Y-107718405D01*
X135646774Y-107606948D01*
X135742309Y-107533641D01*
X135823618Y-107471252D01*
X135823619Y-107471250D01*
X135823624Y-107471247D01*
X135834871Y-107460000D01*
X137494901Y-107460000D01*
X137513253Y-107646332D01*
X137567605Y-107825505D01*
X137655859Y-107990617D01*
X137655862Y-107990622D01*
X137655864Y-107990625D01*
X137774643Y-108135357D01*
X137919375Y-108254136D01*
X137919380Y-108254138D01*
X137919382Y-108254140D01*
X138084494Y-108342394D01*
X138084496Y-108342394D01*
X138084499Y-108342396D01*
X138263669Y-108396747D01*
X138450000Y-108415099D01*
X138636331Y-108396747D01*
X138815501Y-108342396D01*
X138980625Y-108254136D01*
X139125357Y-108135357D01*
X139244136Y-107990625D01*
X139332396Y-107825501D01*
X139386747Y-107646331D01*
X139405099Y-107460000D01*
X139386747Y-107273669D01*
X139332396Y-107094499D01*
X139332394Y-107094496D01*
X139332394Y-107094494D01*
X139244140Y-106929382D01*
X139244138Y-106929380D01*
X139244136Y-106929375D01*
X139125357Y-106784643D01*
X138980625Y-106665864D01*
X138980622Y-106665862D01*
X138980617Y-106665859D01*
X138815505Y-106577605D01*
X138636332Y-106523253D01*
X138450000Y-106504901D01*
X138263667Y-106523253D01*
X138084494Y-106577605D01*
X137919382Y-106665859D01*
X137919373Y-106665865D01*
X137774643Y-106784643D01*
X137655865Y-106929373D01*
X137655859Y-106929382D01*
X137567605Y-107094494D01*
X137513253Y-107273667D01*
X137494901Y-107460000D01*
X135834871Y-107460000D01*
X135981247Y-107313624D01*
X136011906Y-107273669D01*
X136116946Y-107136776D01*
X136116948Y-107136774D01*
X136228405Y-106943726D01*
X136313710Y-106737781D01*
X136371404Y-106522463D01*
X136395426Y-106340000D01*
X144629196Y-106340000D01*
X144650280Y-106473126D01*
X144711471Y-106593219D01*
X144711472Y-106593220D01*
X144806780Y-106688528D01*
X144926873Y-106749718D01*
X144926873Y-106749719D01*
X144945075Y-106752601D01*
X145060000Y-106770804D01*
X145193126Y-106749719D01*
X145290705Y-106700000D01*
X146399196Y-106700000D01*
X146420280Y-106833126D01*
X146481471Y-106953219D01*
X146481472Y-106953220D01*
X146576780Y-107048528D01*
X146696873Y-107109718D01*
X146696873Y-107109719D01*
X146715075Y-107112601D01*
X146830000Y-107130804D01*
X146963126Y-107109719D01*
X147083220Y-107048528D01*
X147178528Y-106953220D01*
X147239719Y-106833126D01*
X147260804Y-106700000D01*
X158369196Y-106700000D01*
X158390280Y-106833126D01*
X158451471Y-106953219D01*
X158451472Y-106953220D01*
X158546780Y-107048528D01*
X158666873Y-107109718D01*
X158666873Y-107109719D01*
X158685075Y-107112601D01*
X158800000Y-107130804D01*
X158933126Y-107109719D01*
X159053220Y-107048528D01*
X159148528Y-106953220D01*
X159209719Y-106833126D01*
X159230804Y-106700000D01*
X159211419Y-106577605D01*
X159209719Y-106566873D01*
X159148528Y-106446780D01*
X159053219Y-106351471D01*
X158933126Y-106290281D01*
X158933126Y-106290280D01*
X158800000Y-106269196D01*
X158666873Y-106290280D01*
X158666873Y-106290281D01*
X158546780Y-106351471D01*
X158451471Y-106446780D01*
X158390281Y-106566873D01*
X158390280Y-106566873D01*
X158369196Y-106700000D01*
X147260804Y-106700000D01*
X147241419Y-106577605D01*
X147239719Y-106566873D01*
X147178528Y-106446780D01*
X147083219Y-106351471D01*
X146963126Y-106290281D01*
X146963126Y-106290280D01*
X146830000Y-106269196D01*
X146696873Y-106290280D01*
X146696873Y-106290281D01*
X146576780Y-106351471D01*
X146481471Y-106446780D01*
X146420281Y-106566873D01*
X146420280Y-106566873D01*
X146399196Y-106700000D01*
X145290705Y-106700000D01*
X145313220Y-106688528D01*
X145408528Y-106593220D01*
X145469719Y-106473126D01*
X145490804Y-106340000D01*
X145469719Y-106206874D01*
X145469719Y-106206873D01*
X145408528Y-106086780D01*
X145313219Y-105991471D01*
X145193126Y-105930281D01*
X145193126Y-105930280D01*
X145060000Y-105909196D01*
X144926873Y-105930280D01*
X144926873Y-105930281D01*
X144806780Y-105991471D01*
X144711471Y-106086780D01*
X144650281Y-106206873D01*
X144650280Y-106206873D01*
X144629196Y-106340000D01*
X136395426Y-106340000D01*
X136400500Y-106301457D01*
X136400500Y-106078543D01*
X136371404Y-105857537D01*
X136313710Y-105642219D01*
X136254801Y-105500000D01*
X142969196Y-105500000D01*
X142990280Y-105633126D01*
X143051471Y-105753219D01*
X143051472Y-105753220D01*
X143146780Y-105848528D01*
X143266873Y-105909718D01*
X143266873Y-105909719D01*
X143285075Y-105912601D01*
X143400000Y-105930804D01*
X143533126Y-105909719D01*
X143653220Y-105848528D01*
X143748528Y-105753220D01*
X143809719Y-105633126D01*
X143830804Y-105500000D01*
X143816549Y-105410000D01*
X157149196Y-105410000D01*
X157170280Y-105543126D01*
X157216138Y-105633126D01*
X157231472Y-105663220D01*
X157326780Y-105758528D01*
X157446873Y-105819718D01*
X157446873Y-105819719D01*
X157465075Y-105822601D01*
X157580000Y-105840804D01*
X157713126Y-105819719D01*
X157833220Y-105758528D01*
X157928528Y-105663220D01*
X157989719Y-105543126D01*
X158010804Y-105410000D01*
X157989719Y-105276874D01*
X157989719Y-105276873D01*
X157928528Y-105156780D01*
X157833219Y-105061471D01*
X157713126Y-105000281D01*
X157713126Y-105000280D01*
X157580000Y-104979196D01*
X157446873Y-105000280D01*
X157446873Y-105000281D01*
X157326780Y-105061471D01*
X157231471Y-105156780D01*
X157170281Y-105276873D01*
X157170280Y-105276873D01*
X157149196Y-105410000D01*
X143816549Y-105410000D01*
X143809719Y-105366874D01*
X143809719Y-105366873D01*
X143748528Y-105246780D01*
X143653219Y-105151471D01*
X143533126Y-105090281D01*
X143533126Y-105090280D01*
X143400000Y-105069196D01*
X143266873Y-105090280D01*
X143266873Y-105090281D01*
X143146780Y-105151471D01*
X143051471Y-105246780D01*
X142990281Y-105366873D01*
X142990280Y-105366873D01*
X142969196Y-105500000D01*
X136254801Y-105500000D01*
X136228405Y-105436274D01*
X136116948Y-105243226D01*
X136116946Y-105243223D01*
X135981252Y-105066381D01*
X135823618Y-104908747D01*
X135646776Y-104773053D01*
X135646770Y-104773049D01*
X135453725Y-104661594D01*
X135453717Y-104661591D01*
X135247782Y-104576290D01*
X135032461Y-104518595D01*
X134869647Y-104497160D01*
X134811457Y-104489500D01*
X134588543Y-104489500D01*
X134537122Y-104496269D01*
X134367538Y-104518595D01*
X134152217Y-104576290D01*
X133946282Y-104661591D01*
X133946274Y-104661594D01*
X133753229Y-104773049D01*
X133753223Y-104773053D01*
X133576381Y-104908747D01*
X133418747Y-105066381D01*
X133283053Y-105243223D01*
X133283049Y-105243229D01*
X133171594Y-105436274D01*
X133171591Y-105436282D01*
X133086290Y-105642217D01*
X133028595Y-105857538D01*
X133019019Y-105930280D01*
X132999500Y-106078543D01*
X130200500Y-106078543D01*
X130200500Y-104412500D01*
X139769196Y-104412500D01*
X139790280Y-104545626D01*
X139849370Y-104661595D01*
X139851472Y-104665720D01*
X139946780Y-104761028D01*
X140066873Y-104822218D01*
X140066873Y-104822219D01*
X140085075Y-104825101D01*
X140200000Y-104843304D01*
X140333126Y-104822219D01*
X140453220Y-104761028D01*
X140548528Y-104665720D01*
X140582014Y-104600000D01*
X147444196Y-104600000D01*
X147465280Y-104733126D01*
X147526471Y-104853219D01*
X147526472Y-104853220D01*
X147621780Y-104948528D01*
X147741873Y-105009718D01*
X147741873Y-105009719D01*
X147760075Y-105012601D01*
X147875000Y-105030804D01*
X148008126Y-105009719D01*
X148128220Y-104948528D01*
X148223528Y-104853220D01*
X148284719Y-104733126D01*
X148305804Y-104600000D01*
X151794196Y-104600000D01*
X151815280Y-104733126D01*
X151876471Y-104853219D01*
X151876472Y-104853220D01*
X151971780Y-104948528D01*
X152091873Y-105009718D01*
X152091873Y-105009719D01*
X152110075Y-105012601D01*
X152225000Y-105030804D01*
X152358126Y-105009719D01*
X152478220Y-104948528D01*
X152573528Y-104853220D01*
X152634719Y-104733126D01*
X152655804Y-104600000D01*
X152634719Y-104466874D01*
X152634719Y-104466873D01*
X152573528Y-104346780D01*
X152478219Y-104251471D01*
X152358126Y-104190281D01*
X152358126Y-104190280D01*
X152225000Y-104169196D01*
X152091873Y-104190280D01*
X152091873Y-104190281D01*
X151971780Y-104251471D01*
X151876471Y-104346780D01*
X151815281Y-104466873D01*
X151815280Y-104466873D01*
X151794196Y-104600000D01*
X148305804Y-104600000D01*
X148284719Y-104466874D01*
X148284719Y-104466873D01*
X148223528Y-104346780D01*
X148128219Y-104251471D01*
X148008126Y-104190281D01*
X148008126Y-104190280D01*
X147875000Y-104169196D01*
X147741873Y-104190280D01*
X147741873Y-104190281D01*
X147621780Y-104251471D01*
X147526471Y-104346780D01*
X147465281Y-104466873D01*
X147465280Y-104466873D01*
X147444196Y-104600000D01*
X140582014Y-104600000D01*
X140609719Y-104545626D01*
X140630804Y-104412500D01*
X140609719Y-104279374D01*
X140609719Y-104279373D01*
X140548528Y-104159280D01*
X140453219Y-104063971D01*
X140333126Y-104002781D01*
X140333126Y-104002780D01*
X140200000Y-103981696D01*
X140066873Y-104002780D01*
X140066873Y-104002781D01*
X139946780Y-104063971D01*
X139851471Y-104159280D01*
X139790281Y-104279373D01*
X139790280Y-104279373D01*
X139769196Y-104412500D01*
X130200500Y-104412500D01*
X130200500Y-102425000D01*
X154869196Y-102425000D01*
X154890280Y-102558126D01*
X154951471Y-102678219D01*
X154951472Y-102678220D01*
X155046780Y-102773528D01*
X155166873Y-102834718D01*
X155166873Y-102834719D01*
X155185075Y-102837601D01*
X155300000Y-102855804D01*
X155433126Y-102834719D01*
X155553220Y-102773528D01*
X155648528Y-102678220D01*
X155709719Y-102558126D01*
X155730804Y-102425000D01*
X155709719Y-102291874D01*
X155709719Y-102291873D01*
X155673098Y-102220000D01*
X157079196Y-102220000D01*
X157100280Y-102353126D01*
X157161471Y-102473219D01*
X157161472Y-102473220D01*
X157256780Y-102568528D01*
X157376873Y-102629718D01*
X157376873Y-102629719D01*
X157395075Y-102632601D01*
X157510000Y-102650804D01*
X157643126Y-102629719D01*
X157763220Y-102568528D01*
X157858528Y-102473220D01*
X157919719Y-102353126D01*
X157940804Y-102220000D01*
X157919719Y-102086874D01*
X157919719Y-102086873D01*
X157858528Y-101966780D01*
X157763219Y-101871471D01*
X157643126Y-101810281D01*
X157643126Y-101810280D01*
X157510000Y-101789196D01*
X157376873Y-101810280D01*
X157376873Y-101810281D01*
X157256780Y-101871471D01*
X157161471Y-101966780D01*
X157100281Y-102086873D01*
X157100280Y-102086873D01*
X157079196Y-102220000D01*
X155673098Y-102220000D01*
X155648528Y-102171780D01*
X155553219Y-102076471D01*
X155433126Y-102015281D01*
X155433126Y-102015280D01*
X155300000Y-101994196D01*
X155166873Y-102015280D01*
X155166873Y-102015281D01*
X155046780Y-102076471D01*
X154951471Y-102171780D01*
X154890281Y-102291873D01*
X154890280Y-102291873D01*
X154869196Y-102425000D01*
X130200500Y-102425000D01*
X130200500Y-101900000D01*
X143744196Y-101900000D01*
X143765280Y-102033126D01*
X143826471Y-102153219D01*
X143826472Y-102153220D01*
X143921780Y-102248528D01*
X144041873Y-102309718D01*
X144041873Y-102309719D01*
X144060075Y-102312601D01*
X144175000Y-102330804D01*
X144308126Y-102309719D01*
X144428220Y-102248528D01*
X144523528Y-102153220D01*
X144584719Y-102033126D01*
X144605804Y-101900000D01*
X144584719Y-101766874D01*
X144584719Y-101766873D01*
X144523528Y-101646780D01*
X144428219Y-101551471D01*
X144308126Y-101490281D01*
X144308126Y-101490280D01*
X144175000Y-101469196D01*
X144041873Y-101490280D01*
X144041873Y-101490281D01*
X143921780Y-101551471D01*
X143826471Y-101646780D01*
X143765281Y-101766873D01*
X143765280Y-101766873D01*
X143744196Y-101900000D01*
X130200500Y-101900000D01*
X130200500Y-100000000D01*
X143744196Y-100000000D01*
X143765280Y-100133126D01*
X143826471Y-100253219D01*
X143826472Y-100253220D01*
X143921780Y-100348528D01*
X144041873Y-100409718D01*
X144041873Y-100409719D01*
X144060075Y-100412601D01*
X144175000Y-100430804D01*
X144308126Y-100409719D01*
X144428220Y-100348528D01*
X144509263Y-100267484D01*
X144561588Y-100245811D01*
X144613914Y-100267485D01*
X144627521Y-100286213D01*
X144651472Y-100333220D01*
X144746780Y-100428528D01*
X144866873Y-100489718D01*
X144866873Y-100489719D01*
X144885075Y-100492601D01*
X145000000Y-100510804D01*
X145133126Y-100489719D01*
X145253220Y-100428528D01*
X145348528Y-100333220D01*
X145409719Y-100213126D01*
X145430804Y-100080000D01*
X145409719Y-99946874D01*
X145409719Y-99946873D01*
X145348528Y-99826780D01*
X145253219Y-99731471D01*
X145133126Y-99670281D01*
X145133126Y-99670280D01*
X145000000Y-99649196D01*
X144866873Y-99670280D01*
X144866873Y-99670281D01*
X144746780Y-99731471D01*
X144665737Y-99812514D01*
X144613411Y-99834188D01*
X144561085Y-99812514D01*
X144547480Y-99793788D01*
X144523528Y-99746780D01*
X144428220Y-99651472D01*
X144428219Y-99651471D01*
X144308126Y-99590281D01*
X144308126Y-99590280D01*
X144175000Y-99569196D01*
X144041873Y-99590280D01*
X144041873Y-99590281D01*
X143921780Y-99651471D01*
X143826471Y-99746780D01*
X143765281Y-99866873D01*
X143765280Y-99866873D01*
X143744196Y-100000000D01*
X130200500Y-100000000D01*
X130200500Y-98400000D01*
X140169196Y-98400000D01*
X140190280Y-98533126D01*
X140251471Y-98653219D01*
X140251472Y-98653220D01*
X140346780Y-98748528D01*
X140466873Y-98809718D01*
X140466873Y-98809719D01*
X140485075Y-98812601D01*
X140600000Y-98830804D01*
X140733126Y-98809719D01*
X140853220Y-98748528D01*
X140853226Y-98748521D01*
X140856506Y-98746140D01*
X140911579Y-98732920D01*
X140943494Y-98746140D01*
X140946775Y-98748523D01*
X140946780Y-98748528D01*
X141066873Y-98809718D01*
X141066873Y-98809719D01*
X141085075Y-98812601D01*
X141200000Y-98830804D01*
X141333126Y-98809719D01*
X141453220Y-98748528D01*
X141548528Y-98653220D01*
X141609719Y-98533126D01*
X141630804Y-98400000D01*
X143744196Y-98400000D01*
X143765280Y-98533126D01*
X143826471Y-98653219D01*
X143826472Y-98653220D01*
X143921780Y-98748528D01*
X144041873Y-98809718D01*
X144041873Y-98809719D01*
X144060075Y-98812601D01*
X144175000Y-98830804D01*
X144308126Y-98809719D01*
X144428220Y-98748528D01*
X144523528Y-98653220D01*
X144584719Y-98533126D01*
X144605804Y-98400000D01*
X144584719Y-98266874D01*
X144584719Y-98266873D01*
X144523528Y-98146780D01*
X144428219Y-98051471D01*
X144308126Y-97990281D01*
X144308126Y-97990280D01*
X144175000Y-97969196D01*
X144041873Y-97990280D01*
X144041873Y-97990281D01*
X143921780Y-98051471D01*
X143826471Y-98146780D01*
X143765281Y-98266873D01*
X143765280Y-98266873D01*
X143744196Y-98400000D01*
X141630804Y-98400000D01*
X141609719Y-98266874D01*
X141609719Y-98266873D01*
X141548528Y-98146780D01*
X141453219Y-98051471D01*
X141333126Y-97990281D01*
X141333126Y-97990280D01*
X141200000Y-97969196D01*
X141066873Y-97990280D01*
X141066873Y-97990281D01*
X140946777Y-98051473D01*
X140943489Y-98053862D01*
X140888415Y-98067078D01*
X140856511Y-98053862D01*
X140853222Y-98051473D01*
X140733126Y-97990281D01*
X140733126Y-97990280D01*
X140600000Y-97969196D01*
X140466873Y-97990280D01*
X140466873Y-97990281D01*
X140346780Y-98051471D01*
X140251471Y-98146780D01*
X140190281Y-98266873D01*
X140190280Y-98266873D01*
X140169196Y-98400000D01*
X130200500Y-98400000D01*
X130200500Y-96500000D01*
X154794196Y-96500000D01*
X154815280Y-96633126D01*
X154876471Y-96753219D01*
X154876472Y-96753220D01*
X154971780Y-96848528D01*
X155091873Y-96909718D01*
X155091873Y-96909719D01*
X155110075Y-96912601D01*
X155225000Y-96930804D01*
X155358126Y-96909719D01*
X155478220Y-96848528D01*
X155573528Y-96753220D01*
X155634719Y-96633126D01*
X155655804Y-96500000D01*
X155634719Y-96366874D01*
X155634719Y-96366873D01*
X155573528Y-96246780D01*
X155478219Y-96151471D01*
X155358126Y-96090281D01*
X155358126Y-96090280D01*
X155225000Y-96069196D01*
X155091873Y-96090280D01*
X155091873Y-96090281D01*
X154971780Y-96151471D01*
X154876471Y-96246780D01*
X154815281Y-96366873D01*
X154815280Y-96366873D01*
X154794196Y-96500000D01*
X130200500Y-96500000D01*
X130200500Y-95200000D01*
X143744196Y-95200000D01*
X143765280Y-95333126D01*
X143826471Y-95453219D01*
X143826472Y-95453220D01*
X143921780Y-95548528D01*
X144041873Y-95609718D01*
X144041873Y-95609719D01*
X144060075Y-95612601D01*
X144175000Y-95630804D01*
X144308126Y-95609719D01*
X144428220Y-95548528D01*
X144523528Y-95453220D01*
X144584719Y-95333126D01*
X144605804Y-95200000D01*
X144584719Y-95066874D01*
X144584719Y-95066873D01*
X144523528Y-94946780D01*
X144476748Y-94900000D01*
X154794196Y-94900000D01*
X154815280Y-95033126D01*
X154832476Y-95066874D01*
X154876472Y-95153220D01*
X154971780Y-95248528D01*
X155091873Y-95309718D01*
X155091873Y-95309719D01*
X155110075Y-95312601D01*
X155225000Y-95330804D01*
X155358126Y-95309719D01*
X155478220Y-95248528D01*
X155573528Y-95153220D01*
X155634719Y-95033126D01*
X155655804Y-94900000D01*
X155634719Y-94766874D01*
X155634719Y-94766873D01*
X155573528Y-94646780D01*
X155478219Y-94551471D01*
X155358126Y-94490281D01*
X155358126Y-94490280D01*
X155225000Y-94469196D01*
X155091873Y-94490280D01*
X155091873Y-94490281D01*
X154971780Y-94551471D01*
X154876471Y-94646780D01*
X154815281Y-94766873D01*
X154815280Y-94766873D01*
X154794196Y-94900000D01*
X144476748Y-94900000D01*
X144428219Y-94851471D01*
X144308126Y-94790281D01*
X144308126Y-94790280D01*
X144175000Y-94769196D01*
X144041873Y-94790280D01*
X144041873Y-94790281D01*
X143921780Y-94851471D01*
X143826471Y-94946780D01*
X143765281Y-95066873D01*
X143765280Y-95066873D01*
X143744196Y-95200000D01*
X130200500Y-95200000D01*
X130200500Y-93650000D01*
X144829196Y-93650000D01*
X144850280Y-93783126D01*
X144911471Y-93903219D01*
X144911472Y-93903220D01*
X145006780Y-93998528D01*
X145126873Y-94059718D01*
X145126873Y-94059719D01*
X145145075Y-94062601D01*
X145260000Y-94080804D01*
X145393126Y-94059719D01*
X145513220Y-93998528D01*
X145608528Y-93903220D01*
X145669719Y-93783126D01*
X145690804Y-93650000D01*
X145690803Y-93649999D01*
X145691715Y-93644248D01*
X145694603Y-93644705D01*
X145712478Y-93601552D01*
X145753227Y-93580789D01*
X145823126Y-93569719D01*
X145943220Y-93508528D01*
X145959070Y-93492678D01*
X146676518Y-93492678D01*
X146697602Y-93625804D01*
X146709931Y-93650000D01*
X146758794Y-93745898D01*
X146854102Y-93841206D01*
X146974195Y-93902396D01*
X146974195Y-93902397D01*
X146979392Y-93903220D01*
X147107322Y-93923482D01*
X147240448Y-93902397D01*
X147360542Y-93841206D01*
X147455850Y-93745898D01*
X147517041Y-93625804D01*
X147538126Y-93492678D01*
X147517041Y-93359552D01*
X147517041Y-93359551D01*
X147455850Y-93239458D01*
X147360541Y-93144149D01*
X147240448Y-93082959D01*
X147240448Y-93082958D01*
X147107322Y-93061874D01*
X146974195Y-93082958D01*
X146974195Y-93082959D01*
X146854102Y-93144149D01*
X146758793Y-93239458D01*
X146697603Y-93359551D01*
X146697602Y-93359551D01*
X146676518Y-93492678D01*
X145959070Y-93492678D01*
X146038528Y-93413220D01*
X146099719Y-93293126D01*
X146120804Y-93160000D01*
X146099719Y-93026874D01*
X146099719Y-93026873D01*
X146038528Y-92906780D01*
X145943219Y-92811471D01*
X145823126Y-92750281D01*
X145823126Y-92750280D01*
X145690000Y-92729196D01*
X145556873Y-92750280D01*
X145556873Y-92750281D01*
X145436780Y-92811471D01*
X145341471Y-92906780D01*
X145280281Y-93026873D01*
X145280280Y-93026873D01*
X145258285Y-93165752D01*
X145255396Y-93165294D01*
X145237522Y-93208447D01*
X145196772Y-93229210D01*
X145126874Y-93240280D01*
X145126873Y-93240281D01*
X145006780Y-93301471D01*
X144911471Y-93396780D01*
X144850281Y-93516873D01*
X144850280Y-93516873D01*
X144829196Y-93650000D01*
X130200500Y-93650000D01*
X130200500Y-82850000D01*
X159929196Y-82850000D01*
X159950280Y-82983126D01*
X160011471Y-83103219D01*
X160011472Y-83103220D01*
X160106780Y-83198528D01*
X160226873Y-83259718D01*
X160226873Y-83259719D01*
X160245075Y-83262601D01*
X160360000Y-83280804D01*
X160493126Y-83259719D01*
X160613220Y-83198528D01*
X160708528Y-83103220D01*
X160769719Y-82983126D01*
X160790804Y-82850000D01*
X165009196Y-82850000D01*
X165030280Y-82983126D01*
X165091471Y-83103219D01*
X165091472Y-83103220D01*
X165186780Y-83198528D01*
X165306873Y-83259718D01*
X165306873Y-83259719D01*
X165325075Y-83262601D01*
X165440000Y-83280804D01*
X165573126Y-83259719D01*
X165693220Y-83198528D01*
X165788528Y-83103220D01*
X165849719Y-82983126D01*
X165870804Y-82850000D01*
X165849719Y-82716874D01*
X165849719Y-82716873D01*
X165788528Y-82596780D01*
X165693219Y-82501471D01*
X165573126Y-82440281D01*
X165573126Y-82440280D01*
X165440000Y-82419196D01*
X165306873Y-82440280D01*
X165306873Y-82440281D01*
X165186780Y-82501471D01*
X165091471Y-82596780D01*
X165030281Y-82716873D01*
X165030280Y-82716873D01*
X165009196Y-82850000D01*
X160790804Y-82850000D01*
X160769719Y-82716874D01*
X160769719Y-82716873D01*
X160708528Y-82596780D01*
X160613219Y-82501471D01*
X160493126Y-82440281D01*
X160493126Y-82440280D01*
X160360000Y-82419196D01*
X160226873Y-82440280D01*
X160226873Y-82440281D01*
X160106780Y-82501471D01*
X160011471Y-82596780D01*
X159950281Y-82716873D01*
X159950280Y-82716873D01*
X159929196Y-82850000D01*
X130200500Y-82850000D01*
X130200500Y-81854536D01*
X130222174Y-81802210D01*
X130264841Y-81781169D01*
X130352014Y-81769693D01*
X130579993Y-81708606D01*
X130798049Y-81618284D01*
X131002450Y-81500273D01*
X131189699Y-81356592D01*
X131356592Y-81189699D01*
X131500273Y-81002450D01*
X131618284Y-80798049D01*
X131708606Y-80579993D01*
X131769693Y-80352014D01*
X131770673Y-80344562D01*
X131781170Y-80264841D01*
X131809489Y-80215792D01*
X131854537Y-80200500D01*
X168145463Y-80200500D01*
X168197789Y-80222174D01*
G37*
%TD.AperFunction*%
%TD*%
M02*
