%TF.GenerationSoftware,KiCad,Pcbnew,9.0.3*%
%TF.CreationDate,2025-07-26T12:32:41+02:00*%
%TF.ProjectId,DigitalAudioProcessor,44696769-7461-46c4-9175-64696f50726f,rev?*%
%TF.SameCoordinates,Original*%
%TF.FileFunction,Soldermask,Top*%
%TF.FilePolarity,Negative*%
%FSLAX46Y46*%
G04 Gerber Fmt 4.6, Leading zero omitted, Abs format (unit mm)*
G04 Created by KiCad (PCBNEW 9.0.3) date 2025-07-26 12:32:41*
%MOMM*%
%LPD*%
G01*
G04 APERTURE LIST*
G04 Aperture macros list*
%AMRoundRect*
0 Rectangle with rounded corners*
0 $1 Rounding radius*
0 $2 $3 $4 $5 $6 $7 $8 $9 X,Y pos of 4 corners*
0 Add a 4 corners polygon primitive as box body*
4,1,4,$2,$3,$4,$5,$6,$7,$8,$9,$2,$3,0*
0 Add four circle primitives for the rounded corners*
1,1,$1+$1,$2,$3*
1,1,$1+$1,$4,$5*
1,1,$1+$1,$6,$7*
1,1,$1+$1,$8,$9*
0 Add four rect primitives between the rounded corners*
20,1,$1+$1,$2,$3,$4,$5,0*
20,1,$1+$1,$4,$5,$6,$7,0*
20,1,$1+$1,$6,$7,$8,$9,0*
20,1,$1+$1,$8,$9,$2,$3,0*%
G04 Aperture macros list end*
%ADD10RoundRect,0.200000X0.200000X0.275000X-0.200000X0.275000X-0.200000X-0.275000X0.200000X-0.275000X0*%
%ADD11RoundRect,0.237500X-0.237500X0.987500X-0.237500X-0.987500X0.237500X-0.987500X0.237500X0.987500X0*%
%ADD12RoundRect,0.200000X-0.275000X0.200000X-0.275000X-0.200000X0.275000X-0.200000X0.275000X0.200000X0*%
%ADD13RoundRect,0.200000X0.275000X-0.200000X0.275000X0.200000X-0.275000X0.200000X-0.275000X-0.200000X0*%
%ADD14RoundRect,0.225000X-0.225000X-0.250000X0.225000X-0.250000X0.225000X0.250000X-0.225000X0.250000X0*%
%ADD15RoundRect,0.200000X-0.200000X-0.275000X0.200000X-0.275000X0.200000X0.275000X-0.200000X0.275000X0*%
%ADD16RoundRect,0.200000X-0.200000X-0.600000X0.200000X-0.600000X0.200000X0.600000X-0.200000X0.600000X0*%
%ADD17RoundRect,0.525000X-0.525000X-0.975000X0.525000X-0.975000X0.525000X0.975000X-0.525000X0.975000X0*%
%ADD18RoundRect,0.225000X0.250000X-0.225000X0.250000X0.225000X-0.250000X0.225000X-0.250000X-0.225000X0*%
%ADD19RoundRect,0.225000X0.225000X0.250000X-0.225000X0.250000X-0.225000X-0.250000X0.225000X-0.250000X0*%
%ADD20RoundRect,0.218750X0.381250X-0.218750X0.381250X0.218750X-0.381250X0.218750X-0.381250X-0.218750X0*%
%ADD21RoundRect,0.237500X0.237500X-0.987500X0.237500X0.987500X-0.237500X0.987500X-0.237500X-0.987500X0*%
%ADD22RoundRect,0.237500X-0.987500X-0.237500X0.987500X-0.237500X0.987500X0.237500X-0.987500X0.237500X0*%
%ADD23RoundRect,0.200000X0.200000X0.600000X-0.200000X0.600000X-0.200000X-0.600000X0.200000X-0.600000X0*%
%ADD24RoundRect,0.525000X0.525000X0.975000X-0.525000X0.975000X-0.525000X-0.975000X0.525000X-0.975000X0*%
%ADD25RoundRect,0.150000X0.512500X0.150000X-0.512500X0.150000X-0.512500X-0.150000X0.512500X-0.150000X0*%
%ADD26RoundRect,0.250000X-0.550000X1.250000X-0.550000X-1.250000X0.550000X-1.250000X0.550000X1.250000X0*%
%ADD27RoundRect,0.200000X-0.600000X0.200000X-0.600000X-0.200000X0.600000X-0.200000X0.600000X0.200000X0*%
%ADD28RoundRect,0.525000X-0.975000X0.525000X-0.975000X-0.525000X0.975000X-0.525000X0.975000X0.525000X0*%
%ADD29RoundRect,0.200000X0.600000X-0.200000X0.600000X0.200000X-0.600000X0.200000X-0.600000X-0.200000X0*%
%ADD30RoundRect,0.525000X0.975000X-0.525000X0.975000X0.525000X-0.975000X0.525000X-0.975000X-0.525000X0*%
%ADD31C,1.500000*%
%ADD32R,0.650000X1.800000*%
%ADD33RoundRect,0.062500X-0.400000X-0.062500X0.400000X-0.062500X0.400000X0.062500X-0.400000X0.062500X0*%
%ADD34RoundRect,0.062500X-0.062500X-0.400000X0.062500X-0.400000X0.062500X0.400000X-0.062500X0.400000X0*%
%ADD35R,6.400000X6.400000*%
%ADD36RoundRect,0.237500X0.987500X0.237500X-0.987500X0.237500X-0.987500X-0.237500X0.987500X-0.237500X0*%
G04 APERTURE END LIST*
D10*
%TO.C,R15*%
X160175000Y-96700000D03*
X161825000Y-96700000D03*
%TD*%
D11*
%TO.C,TP14*%
X153900000Y-111100000D03*
%TD*%
D12*
%TO.C,R7*%
X148900000Y-111475000D03*
X148900000Y-113125000D03*
%TD*%
D13*
%TO.C,R9*%
X153700000Y-88325000D03*
X153700000Y-86675000D03*
%TD*%
D14*
%TO.C,C3*%
X142625000Y-100000000D03*
X144175000Y-100000000D03*
%TD*%
D11*
%TO.C,TP15*%
X161000000Y-110200000D03*
%TD*%
D13*
%TO.C,R11*%
X155600000Y-88325000D03*
X155600000Y-86675000D03*
%TD*%
D15*
%TO.C,R4*%
X161375000Y-104600000D03*
X163025000Y-104600000D03*
%TD*%
D16*
%TO.C,J7*%
X161575000Y-115050000D03*
X160325000Y-115050000D03*
X159075000Y-115050000D03*
X157825000Y-115050000D03*
D17*
X155275000Y-117950000D03*
X164125000Y-117950000D03*
%TD*%
D10*
%TO.C,R13*%
X161925000Y-113100000D03*
X160275000Y-113100000D03*
%TD*%
D12*
%TO.C,R8*%
X144300000Y-111475000D03*
X144300000Y-113125000D03*
%TD*%
D18*
%TO.C,C8*%
X155300000Y-103975000D03*
X155300000Y-102425000D03*
%TD*%
D19*
%TO.C,C9*%
X156775000Y-94900000D03*
X155225000Y-94900000D03*
%TD*%
D15*
%TO.C,R3*%
X161375000Y-102700000D03*
X163025000Y-102700000D03*
%TD*%
D14*
%TO.C,C11*%
X142625000Y-101900000D03*
X144175000Y-101900000D03*
%TD*%
%TO.C,C20*%
X155225000Y-96500000D03*
X156775000Y-96500000D03*
%TD*%
D20*
%TO.C,L1*%
X140900000Y-98362500D03*
X140900000Y-96237500D03*
%TD*%
D21*
%TO.C,TP10*%
X156700000Y-90800000D03*
%TD*%
D14*
%TO.C,C4*%
X146325000Y-104600000D03*
X147875000Y-104600000D03*
%TD*%
D22*
%TO.C,TP3*%
X158800000Y-106700000D03*
%TD*%
D15*
%TO.C,R2*%
X161275000Y-99400000D03*
X162925000Y-99400000D03*
%TD*%
D23*
%TO.C,J5*%
X151025000Y-84850000D03*
X152275000Y-84850000D03*
X153525000Y-84850000D03*
X154775000Y-84850000D03*
D24*
X157325000Y-81950000D03*
X148475000Y-81950000D03*
%TD*%
D11*
%TO.C,TP6*%
X144200000Y-109200000D03*
%TD*%
%TO.C,TP5*%
X150200000Y-109200000D03*
%TD*%
D15*
%TO.C,R12*%
X157075000Y-111500000D03*
X158725000Y-111500000D03*
%TD*%
D25*
%TO.C,U2*%
X162637500Y-93850000D03*
X162637500Y-92900000D03*
X162637500Y-91950000D03*
X160362500Y-91950000D03*
X160362500Y-92900000D03*
X160362500Y-93850000D03*
%TD*%
D22*
%TO.C,TP13*%
X139600000Y-92400000D03*
%TD*%
D14*
%TO.C,C19*%
X152225000Y-104600000D03*
X153775000Y-104600000D03*
%TD*%
D26*
%TO.C,C22*%
X136200000Y-96900000D03*
X136200000Y-101300000D03*
%TD*%
D12*
%TO.C,R6*%
X146600000Y-111475000D03*
X146600000Y-113125000D03*
%TD*%
D27*
%TO.C,J8*%
X135300000Y-89800000D03*
X135300000Y-88550000D03*
D28*
X132400000Y-86000000D03*
X132400000Y-92350000D03*
%TD*%
D16*
%TO.C,J3*%
X149475000Y-115037500D03*
X148225000Y-115037500D03*
X146975000Y-115037500D03*
X145725000Y-115037500D03*
D17*
X143175000Y-117937500D03*
X152025000Y-117937500D03*
%TD*%
D29*
%TO.C,J2*%
X164850000Y-102600000D03*
X164850000Y-103850000D03*
X164850000Y-105100000D03*
X164850000Y-106350000D03*
X164850000Y-107600000D03*
D30*
X167750000Y-110150000D03*
X167750000Y-100050000D03*
%TD*%
D21*
%TO.C,TP8*%
X153700000Y-90800000D03*
%TD*%
D22*
%TO.C,TP1*%
X158800000Y-100700000D03*
%TD*%
D14*
%TO.C,C7*%
X142625000Y-95200000D03*
X144175000Y-95200000D03*
%TD*%
D22*
%TO.C,TP16*%
X156900000Y-109300000D03*
%TD*%
D13*
%TO.C,R10*%
X151800000Y-88325000D03*
X151800000Y-86675000D03*
%TD*%
D31*
%TO.C,U1*%
X138450000Y-112540000D03*
X138450000Y-110000000D03*
X138450000Y-107460000D03*
%TD*%
D21*
%TO.C,TP9*%
X150700000Y-90800000D03*
%TD*%
D11*
%TO.C,TP4*%
X147200000Y-109200000D03*
%TD*%
D22*
%TO.C,TP11*%
X147900000Y-88600000D03*
%TD*%
D14*
%TO.C,C10*%
X143925000Y-93400000D03*
X145475000Y-93400000D03*
%TD*%
D15*
%TO.C,R14*%
X157075000Y-113100000D03*
X158725000Y-113100000D03*
%TD*%
D14*
%TO.C,C12*%
X142625000Y-98400000D03*
X144175000Y-98400000D03*
%TD*%
D22*
%TO.C,TP2*%
X158800000Y-103700000D03*
%TD*%
D32*
%TO.C,J1*%
X160360000Y-82850000D03*
X161630000Y-85550000D03*
X162900000Y-82850000D03*
X164170000Y-85550000D03*
X165440000Y-82850000D03*
%TD*%
D15*
%TO.C,R5*%
X161375000Y-106700000D03*
X163025000Y-106700000D03*
%TD*%
D16*
%TO.C,J6*%
X142575000Y-81650000D03*
X141325000Y-81650000D03*
X140075000Y-81650000D03*
X138825000Y-81650000D03*
D17*
X136275000Y-84550000D03*
X145125000Y-84550000D03*
%TD*%
D19*
%TO.C,C18*%
X144175000Y-96800000D03*
X142625000Y-96800000D03*
%TD*%
D33*
%TO.C,U3*%
X145812500Y-95800000D03*
X145812500Y-96200000D03*
X145812500Y-96600000D03*
X145812500Y-97000000D03*
X145812500Y-97400000D03*
X145812500Y-97800000D03*
X145812500Y-98200000D03*
X145812500Y-98600000D03*
X145812500Y-99000000D03*
X145812500Y-99400000D03*
X145812500Y-99800000D03*
X145812500Y-100200000D03*
X145812500Y-100600000D03*
X145812500Y-101000000D03*
X145812500Y-101400000D03*
X145812500Y-101800000D03*
X145812500Y-102200000D03*
D34*
X146500000Y-102887500D03*
X146900000Y-102887500D03*
X147300000Y-102887500D03*
X147700000Y-102887500D03*
X148100000Y-102887500D03*
X148500000Y-102887500D03*
X148900000Y-102887500D03*
X149300000Y-102887500D03*
X149700000Y-102887500D03*
X150100000Y-102887500D03*
X150500000Y-102887500D03*
X150900000Y-102887500D03*
X151300000Y-102887500D03*
X151700000Y-102887500D03*
X152100000Y-102887500D03*
X152500000Y-102887500D03*
X152900000Y-102887500D03*
D33*
X153587500Y-102200000D03*
X153587500Y-101800000D03*
X153587500Y-101400000D03*
X153587500Y-101000000D03*
X153587500Y-100600000D03*
X153587500Y-100200000D03*
X153587500Y-99800000D03*
X153587500Y-99400000D03*
X153587500Y-99000000D03*
X153587500Y-98600000D03*
X153587500Y-98200000D03*
X153587500Y-97800000D03*
X153587500Y-97400000D03*
X153587500Y-97000000D03*
X153587500Y-96600000D03*
X153587500Y-96200000D03*
X153587500Y-95800000D03*
D34*
X152900000Y-95112500D03*
X152500000Y-95112500D03*
X152100000Y-95112500D03*
X151700000Y-95112500D03*
X151300000Y-95112500D03*
X150900000Y-95112500D03*
X150500000Y-95112500D03*
X150100000Y-95112500D03*
X149700000Y-95112500D03*
X149300000Y-95112500D03*
X148900000Y-95112500D03*
X148500000Y-95112500D03*
X148100000Y-95112500D03*
X147700000Y-95112500D03*
X147300000Y-95112500D03*
X146900000Y-95112500D03*
X146500000Y-95112500D03*
D35*
X149700000Y-99000000D03*
%TD*%
D36*
%TO.C,TP7*%
X136200000Y-118800000D03*
%TD*%
D18*
%TO.C,C21*%
X147100000Y-93475000D03*
X147100000Y-91925000D03*
%TD*%
D22*
%TO.C,TP12*%
X139600000Y-89400000D03*
%TD*%
D27*
%TO.C,J4*%
X168362500Y-94775000D03*
X168362500Y-93525000D03*
X168362500Y-92275000D03*
X168362500Y-91025000D03*
D28*
X165462500Y-88475000D03*
X165462500Y-97325000D03*
%TD*%
M02*
