%TF.GenerationSoftware,KiCad,Pcbnew,8.0.3*%
%TF.CreationDate,2024-07-12T17:44:37+02:00*%
%TF.ProjectId,CleanLVSupply,436c6561-6e4c-4565-9375-70706c792e6b,rev?*%
%TF.SameCoordinates,Original*%
%TF.FileFunction,Legend,Bot*%
%TF.FilePolarity,Positive*%
%FSLAX46Y46*%
G04 Gerber Fmt 4.6, Leading zero omitted, Abs format (unit mm)*
G04 Created by KiCad (PCBNEW 8.0.3) date 2024-07-12 17:44:37*
%MOMM*%
%LPD*%
G01*
G04 APERTURE LIST*
G04 Aperture macros list*
%AMRoundRect*
0 Rectangle with rounded corners*
0 $1 Rounding radius*
0 $2 $3 $4 $5 $6 $7 $8 $9 X,Y pos of 4 corners*
0 Add a 4 corners polygon primitive as box body*
4,1,4,$2,$3,$4,$5,$6,$7,$8,$9,$2,$3,0*
0 Add four circle primitives for the rounded corners*
1,1,$1+$1,$2,$3*
1,1,$1+$1,$4,$5*
1,1,$1+$1,$6,$7*
1,1,$1+$1,$8,$9*
0 Add four rect primitives between the rounded corners*
20,1,$1+$1,$2,$3,$4,$5,0*
20,1,$1+$1,$4,$5,$6,$7,0*
20,1,$1+$1,$6,$7,$8,$9,0*
20,1,$1+$1,$8,$9,$2,$3,0*%
G04 Aperture macros list end*
%ADD10C,0.150000*%
%ADD11C,0.120000*%
%ADD12C,0.100000*%
%ADD13C,0.200000*%
%ADD14C,0.000000*%
%ADD15R,1.600000X1.600000*%
%ADD16C,1.600000*%
%ADD17RoundRect,0.200000X-0.200000X-0.275000X0.200000X-0.275000X0.200000X0.275000X-0.200000X0.275000X0*%
%ADD18RoundRect,0.200000X-0.275000X0.200000X-0.275000X-0.200000X0.275000X-0.200000X0.275000X0.200000X0*%
%ADD19RoundRect,0.225000X0.250000X-0.225000X0.250000X0.225000X-0.250000X0.225000X-0.250000X-0.225000X0*%
%ADD20RoundRect,0.225000X0.225000X0.250000X-0.225000X0.250000X-0.225000X-0.250000X0.225000X-0.250000X0*%
%ADD21RoundRect,0.200000X0.275000X-0.200000X0.275000X0.200000X-0.275000X0.200000X-0.275000X-0.200000X0*%
%ADD22RoundRect,0.250000X0.650000X-0.325000X0.650000X0.325000X-0.650000X0.325000X-0.650000X-0.325000X0*%
%ADD23RoundRect,0.087500X0.425000X0.087500X-0.425000X0.087500X-0.425000X-0.087500X0.425000X-0.087500X0*%
%ADD24RoundRect,0.087500X0.087500X0.425000X-0.087500X0.425000X-0.087500X-0.425000X0.087500X-0.425000X0*%
%ADD25R,3.150000X3.150000*%
%ADD26RoundRect,0.250000X-0.250000X-0.475000X0.250000X-0.475000X0.250000X0.475000X-0.250000X0.475000X0*%
%ADD27RoundRect,0.125000X-0.125000X0.600000X-0.125000X-0.600000X0.125000X-0.600000X0.125000X0.600000X0*%
%ADD28R,1.890000X1.570000*%
%ADD29RoundRect,0.250000X2.450000X-0.650000X2.450000X0.650000X-2.450000X0.650000X-2.450000X-0.650000X0*%
%ADD30RoundRect,0.200000X0.200000X0.275000X-0.200000X0.275000X-0.200000X-0.275000X0.200000X-0.275000X0*%
%ADD31RoundRect,0.225000X-0.250000X0.225000X-0.250000X-0.225000X0.250000X-0.225000X0.250000X0.225000X0*%
%ADD32RoundRect,0.250000X-1.500000X-0.550000X1.500000X-0.550000X1.500000X0.550000X-1.500000X0.550000X0*%
%ADD33RoundRect,0.225000X-0.225000X-0.250000X0.225000X-0.250000X0.225000X0.250000X-0.225000X0.250000X0*%
%ADD34RoundRect,0.087500X0.087500X-0.425000X0.087500X0.425000X-0.087500X0.425000X-0.087500X-0.425000X0*%
%ADD35RoundRect,0.087500X0.425000X-0.087500X0.425000X0.087500X-0.425000X0.087500X-0.425000X-0.087500X0*%
%ADD36RoundRect,0.250000X-0.325000X-1.100000X0.325000X-1.100000X0.325000X1.100000X-0.325000X1.100000X0*%
%ADD37RoundRect,0.250000X-0.475000X0.250000X-0.475000X-0.250000X0.475000X-0.250000X0.475000X0.250000X0*%
G04 APERTURE END LIST*
D10*
X149819047Y-102149847D02*
X149819047Y-101149847D01*
X149819047Y-101149847D02*
X149485714Y-101864132D01*
X149485714Y-101864132D02*
X149152381Y-101149847D01*
X149152381Y-101149847D02*
X149152381Y-102149847D01*
X148533333Y-102149847D02*
X148628571Y-102102228D01*
X148628571Y-102102228D02*
X148676190Y-102054608D01*
X148676190Y-102054608D02*
X148723809Y-101959370D01*
X148723809Y-101959370D02*
X148723809Y-101673656D01*
X148723809Y-101673656D02*
X148676190Y-101578418D01*
X148676190Y-101578418D02*
X148628571Y-101530799D01*
X148628571Y-101530799D02*
X148533333Y-101483180D01*
X148533333Y-101483180D02*
X148390476Y-101483180D01*
X148390476Y-101483180D02*
X148295238Y-101530799D01*
X148295238Y-101530799D02*
X148247619Y-101578418D01*
X148247619Y-101578418D02*
X148200000Y-101673656D01*
X148200000Y-101673656D02*
X148200000Y-101959370D01*
X148200000Y-101959370D02*
X148247619Y-102054608D01*
X148247619Y-102054608D02*
X148295238Y-102102228D01*
X148295238Y-102102228D02*
X148390476Y-102149847D01*
X148390476Y-102149847D02*
X148533333Y-102149847D01*
X147342857Y-102149847D02*
X147342857Y-101149847D01*
X147342857Y-102102228D02*
X147438095Y-102149847D01*
X147438095Y-102149847D02*
X147628571Y-102149847D01*
X147628571Y-102149847D02*
X147723809Y-102102228D01*
X147723809Y-102102228D02*
X147771428Y-102054608D01*
X147771428Y-102054608D02*
X147819047Y-101959370D01*
X147819047Y-101959370D02*
X147819047Y-101673656D01*
X147819047Y-101673656D02*
X147771428Y-101578418D01*
X147771428Y-101578418D02*
X147723809Y-101530799D01*
X147723809Y-101530799D02*
X147628571Y-101483180D01*
X147628571Y-101483180D02*
X147438095Y-101483180D01*
X147438095Y-101483180D02*
X147342857Y-101530799D01*
X146438095Y-101483180D02*
X146438095Y-102149847D01*
X146866666Y-101483180D02*
X146866666Y-102006989D01*
X146866666Y-102006989D02*
X146819047Y-102102228D01*
X146819047Y-102102228D02*
X146723809Y-102149847D01*
X146723809Y-102149847D02*
X146580952Y-102149847D01*
X146580952Y-102149847D02*
X146485714Y-102102228D01*
X146485714Y-102102228D02*
X146438095Y-102054608D01*
X145819047Y-102149847D02*
X145914285Y-102102228D01*
X145914285Y-102102228D02*
X145961904Y-102006989D01*
X145961904Y-102006989D02*
X145961904Y-101149847D01*
X145009523Y-102149847D02*
X145009523Y-101626037D01*
X145009523Y-101626037D02*
X145057142Y-101530799D01*
X145057142Y-101530799D02*
X145152380Y-101483180D01*
X145152380Y-101483180D02*
X145342856Y-101483180D01*
X145342856Y-101483180D02*
X145438094Y-101530799D01*
X145009523Y-102102228D02*
X145104761Y-102149847D01*
X145104761Y-102149847D02*
X145342856Y-102149847D01*
X145342856Y-102149847D02*
X145438094Y-102102228D01*
X145438094Y-102102228D02*
X145485713Y-102006989D01*
X145485713Y-102006989D02*
X145485713Y-101911751D01*
X145485713Y-101911751D02*
X145438094Y-101816513D01*
X145438094Y-101816513D02*
X145342856Y-101768894D01*
X145342856Y-101768894D02*
X145104761Y-101768894D01*
X145104761Y-101768894D02*
X145009523Y-101721275D01*
X144533332Y-102149847D02*
X144533332Y-101483180D01*
X144533332Y-101673656D02*
X144485713Y-101578418D01*
X144485713Y-101578418D02*
X144438094Y-101530799D01*
X144438094Y-101530799D02*
X144342856Y-101483180D01*
X144342856Y-101483180D02*
X144247618Y-101483180D01*
X143199998Y-101864132D02*
X142723808Y-101864132D01*
X143295236Y-102149847D02*
X142961903Y-101149847D01*
X142961903Y-101149847D02*
X142628570Y-102149847D01*
X141866665Y-101483180D02*
X141866665Y-102149847D01*
X142295236Y-101483180D02*
X142295236Y-102006989D01*
X142295236Y-102006989D02*
X142247617Y-102102228D01*
X142247617Y-102102228D02*
X142152379Y-102149847D01*
X142152379Y-102149847D02*
X142009522Y-102149847D01*
X142009522Y-102149847D02*
X141914284Y-102102228D01*
X141914284Y-102102228D02*
X141866665Y-102054608D01*
X140961903Y-102149847D02*
X140961903Y-101149847D01*
X140961903Y-102102228D02*
X141057141Y-102149847D01*
X141057141Y-102149847D02*
X141247617Y-102149847D01*
X141247617Y-102149847D02*
X141342855Y-102102228D01*
X141342855Y-102102228D02*
X141390474Y-102054608D01*
X141390474Y-102054608D02*
X141438093Y-101959370D01*
X141438093Y-101959370D02*
X141438093Y-101673656D01*
X141438093Y-101673656D02*
X141390474Y-101578418D01*
X141390474Y-101578418D02*
X141342855Y-101530799D01*
X141342855Y-101530799D02*
X141247617Y-101483180D01*
X141247617Y-101483180D02*
X141057141Y-101483180D01*
X141057141Y-101483180D02*
X140961903Y-101530799D01*
X140485712Y-102149847D02*
X140485712Y-101483180D01*
X140485712Y-101149847D02*
X140533331Y-101197466D01*
X140533331Y-101197466D02*
X140485712Y-101245085D01*
X140485712Y-101245085D02*
X140438093Y-101197466D01*
X140438093Y-101197466D02*
X140485712Y-101149847D01*
X140485712Y-101149847D02*
X140485712Y-101245085D01*
X139866665Y-102149847D02*
X139961903Y-102102228D01*
X139961903Y-102102228D02*
X140009522Y-102054608D01*
X140009522Y-102054608D02*
X140057141Y-101959370D01*
X140057141Y-101959370D02*
X140057141Y-101673656D01*
X140057141Y-101673656D02*
X140009522Y-101578418D01*
X140009522Y-101578418D02*
X139961903Y-101530799D01*
X139961903Y-101530799D02*
X139866665Y-101483180D01*
X139866665Y-101483180D02*
X139723808Y-101483180D01*
X139723808Y-101483180D02*
X139628570Y-101530799D01*
X139628570Y-101530799D02*
X139580951Y-101578418D01*
X139580951Y-101578418D02*
X139533332Y-101673656D01*
X139533332Y-101673656D02*
X139533332Y-101959370D01*
X139533332Y-101959370D02*
X139580951Y-102054608D01*
X139580951Y-102054608D02*
X139628570Y-102102228D01*
X139628570Y-102102228D02*
X139723808Y-102149847D01*
X139723808Y-102149847D02*
X139866665Y-102149847D01*
X150057144Y-103664552D02*
X150104763Y-103712172D01*
X150104763Y-103712172D02*
X150247620Y-103759791D01*
X150247620Y-103759791D02*
X150342858Y-103759791D01*
X150342858Y-103759791D02*
X150485715Y-103712172D01*
X150485715Y-103712172D02*
X150580953Y-103616933D01*
X150580953Y-103616933D02*
X150628572Y-103521695D01*
X150628572Y-103521695D02*
X150676191Y-103331219D01*
X150676191Y-103331219D02*
X150676191Y-103188362D01*
X150676191Y-103188362D02*
X150628572Y-102997886D01*
X150628572Y-102997886D02*
X150580953Y-102902648D01*
X150580953Y-102902648D02*
X150485715Y-102807410D01*
X150485715Y-102807410D02*
X150342858Y-102759791D01*
X150342858Y-102759791D02*
X150247620Y-102759791D01*
X150247620Y-102759791D02*
X150104763Y-102807410D01*
X150104763Y-102807410D02*
X150057144Y-102855029D01*
X149485715Y-103759791D02*
X149580953Y-103712172D01*
X149580953Y-103712172D02*
X149628572Y-103616933D01*
X149628572Y-103616933D02*
X149628572Y-102759791D01*
X148723810Y-103712172D02*
X148819048Y-103759791D01*
X148819048Y-103759791D02*
X149009524Y-103759791D01*
X149009524Y-103759791D02*
X149104762Y-103712172D01*
X149104762Y-103712172D02*
X149152381Y-103616933D01*
X149152381Y-103616933D02*
X149152381Y-103235981D01*
X149152381Y-103235981D02*
X149104762Y-103140743D01*
X149104762Y-103140743D02*
X149009524Y-103093124D01*
X149009524Y-103093124D02*
X148819048Y-103093124D01*
X148819048Y-103093124D02*
X148723810Y-103140743D01*
X148723810Y-103140743D02*
X148676191Y-103235981D01*
X148676191Y-103235981D02*
X148676191Y-103331219D01*
X148676191Y-103331219D02*
X149152381Y-103426457D01*
X147819048Y-103759791D02*
X147819048Y-103235981D01*
X147819048Y-103235981D02*
X147866667Y-103140743D01*
X147866667Y-103140743D02*
X147961905Y-103093124D01*
X147961905Y-103093124D02*
X148152381Y-103093124D01*
X148152381Y-103093124D02*
X148247619Y-103140743D01*
X147819048Y-103712172D02*
X147914286Y-103759791D01*
X147914286Y-103759791D02*
X148152381Y-103759791D01*
X148152381Y-103759791D02*
X148247619Y-103712172D01*
X148247619Y-103712172D02*
X148295238Y-103616933D01*
X148295238Y-103616933D02*
X148295238Y-103521695D01*
X148295238Y-103521695D02*
X148247619Y-103426457D01*
X148247619Y-103426457D02*
X148152381Y-103378838D01*
X148152381Y-103378838D02*
X147914286Y-103378838D01*
X147914286Y-103378838D02*
X147819048Y-103331219D01*
X147342857Y-103093124D02*
X147342857Y-103759791D01*
X147342857Y-103188362D02*
X147295238Y-103140743D01*
X147295238Y-103140743D02*
X147200000Y-103093124D01*
X147200000Y-103093124D02*
X147057143Y-103093124D01*
X147057143Y-103093124D02*
X146961905Y-103140743D01*
X146961905Y-103140743D02*
X146914286Y-103235981D01*
X146914286Y-103235981D02*
X146914286Y-103759791D01*
X145200000Y-103759791D02*
X145676190Y-103759791D01*
X145676190Y-103759791D02*
X145676190Y-102759791D01*
X145009523Y-102759791D02*
X144676190Y-103759791D01*
X144676190Y-103759791D02*
X144342857Y-102759791D01*
X143295237Y-103712172D02*
X143152380Y-103759791D01*
X143152380Y-103759791D02*
X142914285Y-103759791D01*
X142914285Y-103759791D02*
X142819047Y-103712172D01*
X142819047Y-103712172D02*
X142771428Y-103664552D01*
X142771428Y-103664552D02*
X142723809Y-103569314D01*
X142723809Y-103569314D02*
X142723809Y-103474076D01*
X142723809Y-103474076D02*
X142771428Y-103378838D01*
X142771428Y-103378838D02*
X142819047Y-103331219D01*
X142819047Y-103331219D02*
X142914285Y-103283600D01*
X142914285Y-103283600D02*
X143104761Y-103235981D01*
X143104761Y-103235981D02*
X143199999Y-103188362D01*
X143199999Y-103188362D02*
X143247618Y-103140743D01*
X143247618Y-103140743D02*
X143295237Y-103045505D01*
X143295237Y-103045505D02*
X143295237Y-102950267D01*
X143295237Y-102950267D02*
X143247618Y-102855029D01*
X143247618Y-102855029D02*
X143199999Y-102807410D01*
X143199999Y-102807410D02*
X143104761Y-102759791D01*
X143104761Y-102759791D02*
X142866666Y-102759791D01*
X142866666Y-102759791D02*
X142723809Y-102807410D01*
X141866666Y-103093124D02*
X141866666Y-103759791D01*
X142295237Y-103093124D02*
X142295237Y-103616933D01*
X142295237Y-103616933D02*
X142247618Y-103712172D01*
X142247618Y-103712172D02*
X142152380Y-103759791D01*
X142152380Y-103759791D02*
X142009523Y-103759791D01*
X142009523Y-103759791D02*
X141914285Y-103712172D01*
X141914285Y-103712172D02*
X141866666Y-103664552D01*
X141390475Y-103093124D02*
X141390475Y-104093124D01*
X141390475Y-103140743D02*
X141295237Y-103093124D01*
X141295237Y-103093124D02*
X141104761Y-103093124D01*
X141104761Y-103093124D02*
X141009523Y-103140743D01*
X141009523Y-103140743D02*
X140961904Y-103188362D01*
X140961904Y-103188362D02*
X140914285Y-103283600D01*
X140914285Y-103283600D02*
X140914285Y-103569314D01*
X140914285Y-103569314D02*
X140961904Y-103664552D01*
X140961904Y-103664552D02*
X141009523Y-103712172D01*
X141009523Y-103712172D02*
X141104761Y-103759791D01*
X141104761Y-103759791D02*
X141295237Y-103759791D01*
X141295237Y-103759791D02*
X141390475Y-103712172D01*
X140485713Y-103093124D02*
X140485713Y-104093124D01*
X140485713Y-103140743D02*
X140390475Y-103093124D01*
X140390475Y-103093124D02*
X140199999Y-103093124D01*
X140199999Y-103093124D02*
X140104761Y-103140743D01*
X140104761Y-103140743D02*
X140057142Y-103188362D01*
X140057142Y-103188362D02*
X140009523Y-103283600D01*
X140009523Y-103283600D02*
X140009523Y-103569314D01*
X140009523Y-103569314D02*
X140057142Y-103664552D01*
X140057142Y-103664552D02*
X140104761Y-103712172D01*
X140104761Y-103712172D02*
X140199999Y-103759791D01*
X140199999Y-103759791D02*
X140390475Y-103759791D01*
X140390475Y-103759791D02*
X140485713Y-103712172D01*
X139438094Y-103759791D02*
X139533332Y-103712172D01*
X139533332Y-103712172D02*
X139580951Y-103616933D01*
X139580951Y-103616933D02*
X139580951Y-102759791D01*
X139152379Y-103093124D02*
X138914284Y-103759791D01*
X138676189Y-103093124D02*
X138914284Y-103759791D01*
X138914284Y-103759791D02*
X139009522Y-103997886D01*
X139009522Y-103997886D02*
X139057141Y-104045505D01*
X139057141Y-104045505D02*
X139152379Y-104093124D01*
X131266666Y-92354819D02*
X131599999Y-91878628D01*
X131838094Y-92354819D02*
X131838094Y-91354819D01*
X131838094Y-91354819D02*
X131457142Y-91354819D01*
X131457142Y-91354819D02*
X131361904Y-91402438D01*
X131361904Y-91402438D02*
X131314285Y-91450057D01*
X131314285Y-91450057D02*
X131266666Y-91545295D01*
X131266666Y-91545295D02*
X131266666Y-91688152D01*
X131266666Y-91688152D02*
X131314285Y-91783390D01*
X131314285Y-91783390D02*
X131361904Y-91831009D01*
X131361904Y-91831009D02*
X131457142Y-91878628D01*
X131457142Y-91878628D02*
X131838094Y-91878628D01*
X130314285Y-92354819D02*
X130885713Y-92354819D01*
X130599999Y-92354819D02*
X130599999Y-91354819D01*
X130599999Y-91354819D02*
X130695237Y-91497676D01*
X130695237Y-91497676D02*
X130790475Y-91592914D01*
X130790475Y-91592914D02*
X130885713Y-91640533D01*
X136766666Y-86654819D02*
X137099999Y-86178628D01*
X137338094Y-86654819D02*
X137338094Y-85654819D01*
X137338094Y-85654819D02*
X136957142Y-85654819D01*
X136957142Y-85654819D02*
X136861904Y-85702438D01*
X136861904Y-85702438D02*
X136814285Y-85750057D01*
X136814285Y-85750057D02*
X136766666Y-85845295D01*
X136766666Y-85845295D02*
X136766666Y-85988152D01*
X136766666Y-85988152D02*
X136814285Y-86083390D01*
X136814285Y-86083390D02*
X136861904Y-86131009D01*
X136861904Y-86131009D02*
X136957142Y-86178628D01*
X136957142Y-86178628D02*
X137338094Y-86178628D01*
X135861904Y-85654819D02*
X136338094Y-85654819D01*
X136338094Y-85654819D02*
X136385713Y-86131009D01*
X136385713Y-86131009D02*
X136338094Y-86083390D01*
X136338094Y-86083390D02*
X136242856Y-86035771D01*
X136242856Y-86035771D02*
X136004761Y-86035771D01*
X136004761Y-86035771D02*
X135909523Y-86083390D01*
X135909523Y-86083390D02*
X135861904Y-86131009D01*
X135861904Y-86131009D02*
X135814285Y-86226247D01*
X135814285Y-86226247D02*
X135814285Y-86464342D01*
X135814285Y-86464342D02*
X135861904Y-86559580D01*
X135861904Y-86559580D02*
X135909523Y-86607200D01*
X135909523Y-86607200D02*
X136004761Y-86654819D01*
X136004761Y-86654819D02*
X136242856Y-86654819D01*
X136242856Y-86654819D02*
X136338094Y-86607200D01*
X136338094Y-86607200D02*
X136385713Y-86559580D01*
X134559580Y-90757142D02*
X134607200Y-90709523D01*
X134607200Y-90709523D02*
X134654819Y-90566666D01*
X134654819Y-90566666D02*
X134654819Y-90471428D01*
X134654819Y-90471428D02*
X134607200Y-90328571D01*
X134607200Y-90328571D02*
X134511961Y-90233333D01*
X134511961Y-90233333D02*
X134416723Y-90185714D01*
X134416723Y-90185714D02*
X134226247Y-90138095D01*
X134226247Y-90138095D02*
X134083390Y-90138095D01*
X134083390Y-90138095D02*
X133892914Y-90185714D01*
X133892914Y-90185714D02*
X133797676Y-90233333D01*
X133797676Y-90233333D02*
X133702438Y-90328571D01*
X133702438Y-90328571D02*
X133654819Y-90471428D01*
X133654819Y-90471428D02*
X133654819Y-90566666D01*
X133654819Y-90566666D02*
X133702438Y-90709523D01*
X133702438Y-90709523D02*
X133750057Y-90757142D01*
X134654819Y-91709523D02*
X134654819Y-91138095D01*
X134654819Y-91423809D02*
X133654819Y-91423809D01*
X133654819Y-91423809D02*
X133797676Y-91328571D01*
X133797676Y-91328571D02*
X133892914Y-91233333D01*
X133892914Y-91233333D02*
X133940533Y-91138095D01*
X134654819Y-92661904D02*
X134654819Y-92090476D01*
X134654819Y-92376190D02*
X133654819Y-92376190D01*
X133654819Y-92376190D02*
X133797676Y-92280952D01*
X133797676Y-92280952D02*
X133892914Y-92185714D01*
X133892914Y-92185714D02*
X133940533Y-92090476D01*
X156442857Y-111129580D02*
X156490476Y-111177200D01*
X156490476Y-111177200D02*
X156633333Y-111224819D01*
X156633333Y-111224819D02*
X156728571Y-111224819D01*
X156728571Y-111224819D02*
X156871428Y-111177200D01*
X156871428Y-111177200D02*
X156966666Y-111081961D01*
X156966666Y-111081961D02*
X157014285Y-110986723D01*
X157014285Y-110986723D02*
X157061904Y-110796247D01*
X157061904Y-110796247D02*
X157061904Y-110653390D01*
X157061904Y-110653390D02*
X157014285Y-110462914D01*
X157014285Y-110462914D02*
X156966666Y-110367676D01*
X156966666Y-110367676D02*
X156871428Y-110272438D01*
X156871428Y-110272438D02*
X156728571Y-110224819D01*
X156728571Y-110224819D02*
X156633333Y-110224819D01*
X156633333Y-110224819D02*
X156490476Y-110272438D01*
X156490476Y-110272438D02*
X156442857Y-110320057D01*
X155585714Y-110558152D02*
X155585714Y-111224819D01*
X155823809Y-110177200D02*
X156061904Y-110891485D01*
X156061904Y-110891485D02*
X155442857Y-110891485D01*
X155109523Y-110320057D02*
X155061904Y-110272438D01*
X155061904Y-110272438D02*
X154966666Y-110224819D01*
X154966666Y-110224819D02*
X154728571Y-110224819D01*
X154728571Y-110224819D02*
X154633333Y-110272438D01*
X154633333Y-110272438D02*
X154585714Y-110320057D01*
X154585714Y-110320057D02*
X154538095Y-110415295D01*
X154538095Y-110415295D02*
X154538095Y-110510533D01*
X154538095Y-110510533D02*
X154585714Y-110653390D01*
X154585714Y-110653390D02*
X155157142Y-111224819D01*
X155157142Y-111224819D02*
X154538095Y-111224819D01*
X156554819Y-87733333D02*
X156078628Y-87400000D01*
X156554819Y-87161905D02*
X155554819Y-87161905D01*
X155554819Y-87161905D02*
X155554819Y-87542857D01*
X155554819Y-87542857D02*
X155602438Y-87638095D01*
X155602438Y-87638095D02*
X155650057Y-87685714D01*
X155650057Y-87685714D02*
X155745295Y-87733333D01*
X155745295Y-87733333D02*
X155888152Y-87733333D01*
X155888152Y-87733333D02*
X155983390Y-87685714D01*
X155983390Y-87685714D02*
X156031009Y-87638095D01*
X156031009Y-87638095D02*
X156078628Y-87542857D01*
X156078628Y-87542857D02*
X156078628Y-87161905D01*
X155554819Y-88590476D02*
X155554819Y-88400000D01*
X155554819Y-88400000D02*
X155602438Y-88304762D01*
X155602438Y-88304762D02*
X155650057Y-88257143D01*
X155650057Y-88257143D02*
X155792914Y-88161905D01*
X155792914Y-88161905D02*
X155983390Y-88114286D01*
X155983390Y-88114286D02*
X156364342Y-88114286D01*
X156364342Y-88114286D02*
X156459580Y-88161905D01*
X156459580Y-88161905D02*
X156507200Y-88209524D01*
X156507200Y-88209524D02*
X156554819Y-88304762D01*
X156554819Y-88304762D02*
X156554819Y-88495238D01*
X156554819Y-88495238D02*
X156507200Y-88590476D01*
X156507200Y-88590476D02*
X156459580Y-88638095D01*
X156459580Y-88638095D02*
X156364342Y-88685714D01*
X156364342Y-88685714D02*
X156126247Y-88685714D01*
X156126247Y-88685714D02*
X156031009Y-88638095D01*
X156031009Y-88638095D02*
X155983390Y-88590476D01*
X155983390Y-88590476D02*
X155935771Y-88495238D01*
X155935771Y-88495238D02*
X155935771Y-88304762D01*
X155935771Y-88304762D02*
X155983390Y-88209524D01*
X155983390Y-88209524D02*
X156031009Y-88161905D01*
X156031009Y-88161905D02*
X156126247Y-88114286D01*
X155259580Y-92757142D02*
X155307200Y-92709523D01*
X155307200Y-92709523D02*
X155354819Y-92566666D01*
X155354819Y-92566666D02*
X155354819Y-92471428D01*
X155354819Y-92471428D02*
X155307200Y-92328571D01*
X155307200Y-92328571D02*
X155211961Y-92233333D01*
X155211961Y-92233333D02*
X155116723Y-92185714D01*
X155116723Y-92185714D02*
X154926247Y-92138095D01*
X154926247Y-92138095D02*
X154783390Y-92138095D01*
X154783390Y-92138095D02*
X154592914Y-92185714D01*
X154592914Y-92185714D02*
X154497676Y-92233333D01*
X154497676Y-92233333D02*
X154402438Y-92328571D01*
X154402438Y-92328571D02*
X154354819Y-92471428D01*
X154354819Y-92471428D02*
X154354819Y-92566666D01*
X154354819Y-92566666D02*
X154402438Y-92709523D01*
X154402438Y-92709523D02*
X154450057Y-92757142D01*
X155354819Y-93709523D02*
X155354819Y-93138095D01*
X155354819Y-93423809D02*
X154354819Y-93423809D01*
X154354819Y-93423809D02*
X154497676Y-93328571D01*
X154497676Y-93328571D02*
X154592914Y-93233333D01*
X154592914Y-93233333D02*
X154640533Y-93138095D01*
X154354819Y-94614285D02*
X154354819Y-94138095D01*
X154354819Y-94138095D02*
X154831009Y-94090476D01*
X154831009Y-94090476D02*
X154783390Y-94138095D01*
X154783390Y-94138095D02*
X154735771Y-94233333D01*
X154735771Y-94233333D02*
X154735771Y-94471428D01*
X154735771Y-94471428D02*
X154783390Y-94566666D01*
X154783390Y-94566666D02*
X154831009Y-94614285D01*
X154831009Y-94614285D02*
X154926247Y-94661904D01*
X154926247Y-94661904D02*
X155164342Y-94661904D01*
X155164342Y-94661904D02*
X155259580Y-94614285D01*
X155259580Y-94614285D02*
X155307200Y-94566666D01*
X155307200Y-94566666D02*
X155354819Y-94471428D01*
X155354819Y-94471428D02*
X155354819Y-94233333D01*
X155354819Y-94233333D02*
X155307200Y-94138095D01*
X155307200Y-94138095D02*
X155259580Y-94090476D01*
X159561904Y-109854819D02*
X159561904Y-110664342D01*
X159561904Y-110664342D02*
X159514285Y-110759580D01*
X159514285Y-110759580D02*
X159466666Y-110807200D01*
X159466666Y-110807200D02*
X159371428Y-110854819D01*
X159371428Y-110854819D02*
X159180952Y-110854819D01*
X159180952Y-110854819D02*
X159085714Y-110807200D01*
X159085714Y-110807200D02*
X159038095Y-110759580D01*
X159038095Y-110759580D02*
X158990476Y-110664342D01*
X158990476Y-110664342D02*
X158990476Y-109854819D01*
X158085714Y-110188152D02*
X158085714Y-110854819D01*
X158323809Y-109807200D02*
X158561904Y-110521485D01*
X158561904Y-110521485D02*
X157942857Y-110521485D01*
X162859580Y-111557142D02*
X162907200Y-111509523D01*
X162907200Y-111509523D02*
X162954819Y-111366666D01*
X162954819Y-111366666D02*
X162954819Y-111271428D01*
X162954819Y-111271428D02*
X162907200Y-111128571D01*
X162907200Y-111128571D02*
X162811961Y-111033333D01*
X162811961Y-111033333D02*
X162716723Y-110985714D01*
X162716723Y-110985714D02*
X162526247Y-110938095D01*
X162526247Y-110938095D02*
X162383390Y-110938095D01*
X162383390Y-110938095D02*
X162192914Y-110985714D01*
X162192914Y-110985714D02*
X162097676Y-111033333D01*
X162097676Y-111033333D02*
X162002438Y-111128571D01*
X162002438Y-111128571D02*
X161954819Y-111271428D01*
X161954819Y-111271428D02*
X161954819Y-111366666D01*
X161954819Y-111366666D02*
X162002438Y-111509523D01*
X162002438Y-111509523D02*
X162050057Y-111557142D01*
X161954819Y-111890476D02*
X161954819Y-112509523D01*
X161954819Y-112509523D02*
X162335771Y-112176190D01*
X162335771Y-112176190D02*
X162335771Y-112319047D01*
X162335771Y-112319047D02*
X162383390Y-112414285D01*
X162383390Y-112414285D02*
X162431009Y-112461904D01*
X162431009Y-112461904D02*
X162526247Y-112509523D01*
X162526247Y-112509523D02*
X162764342Y-112509523D01*
X162764342Y-112509523D02*
X162859580Y-112461904D01*
X162859580Y-112461904D02*
X162907200Y-112414285D01*
X162907200Y-112414285D02*
X162954819Y-112319047D01*
X162954819Y-112319047D02*
X162954819Y-112033333D01*
X162954819Y-112033333D02*
X162907200Y-111938095D01*
X162907200Y-111938095D02*
X162859580Y-111890476D01*
X161954819Y-112842857D02*
X161954819Y-113509523D01*
X161954819Y-113509523D02*
X162954819Y-113080952D01*
X158161904Y-89654819D02*
X158161904Y-90464342D01*
X158161904Y-90464342D02*
X158114285Y-90559580D01*
X158114285Y-90559580D02*
X158066666Y-90607200D01*
X158066666Y-90607200D02*
X157971428Y-90654819D01*
X157971428Y-90654819D02*
X157780952Y-90654819D01*
X157780952Y-90654819D02*
X157685714Y-90607200D01*
X157685714Y-90607200D02*
X157638095Y-90559580D01*
X157638095Y-90559580D02*
X157590476Y-90464342D01*
X157590476Y-90464342D02*
X157590476Y-89654819D01*
X157161904Y-89750057D02*
X157114285Y-89702438D01*
X157114285Y-89702438D02*
X157019047Y-89654819D01*
X157019047Y-89654819D02*
X156780952Y-89654819D01*
X156780952Y-89654819D02*
X156685714Y-89702438D01*
X156685714Y-89702438D02*
X156638095Y-89750057D01*
X156638095Y-89750057D02*
X156590476Y-89845295D01*
X156590476Y-89845295D02*
X156590476Y-89940533D01*
X156590476Y-89940533D02*
X156638095Y-90083390D01*
X156638095Y-90083390D02*
X157209523Y-90654819D01*
X157209523Y-90654819D02*
X156590476Y-90654819D01*
X158459580Y-98157142D02*
X158507200Y-98109523D01*
X158507200Y-98109523D02*
X158554819Y-97966666D01*
X158554819Y-97966666D02*
X158554819Y-97871428D01*
X158554819Y-97871428D02*
X158507200Y-97728571D01*
X158507200Y-97728571D02*
X158411961Y-97633333D01*
X158411961Y-97633333D02*
X158316723Y-97585714D01*
X158316723Y-97585714D02*
X158126247Y-97538095D01*
X158126247Y-97538095D02*
X157983390Y-97538095D01*
X157983390Y-97538095D02*
X157792914Y-97585714D01*
X157792914Y-97585714D02*
X157697676Y-97633333D01*
X157697676Y-97633333D02*
X157602438Y-97728571D01*
X157602438Y-97728571D02*
X157554819Y-97871428D01*
X157554819Y-97871428D02*
X157554819Y-97966666D01*
X157554819Y-97966666D02*
X157602438Y-98109523D01*
X157602438Y-98109523D02*
X157650057Y-98157142D01*
X157650057Y-98538095D02*
X157602438Y-98585714D01*
X157602438Y-98585714D02*
X157554819Y-98680952D01*
X157554819Y-98680952D02*
X157554819Y-98919047D01*
X157554819Y-98919047D02*
X157602438Y-99014285D01*
X157602438Y-99014285D02*
X157650057Y-99061904D01*
X157650057Y-99061904D02*
X157745295Y-99109523D01*
X157745295Y-99109523D02*
X157840533Y-99109523D01*
X157840533Y-99109523D02*
X157983390Y-99061904D01*
X157983390Y-99061904D02*
X158554819Y-98490476D01*
X158554819Y-98490476D02*
X158554819Y-99109523D01*
X157554819Y-99966666D02*
X157554819Y-99776190D01*
X157554819Y-99776190D02*
X157602438Y-99680952D01*
X157602438Y-99680952D02*
X157650057Y-99633333D01*
X157650057Y-99633333D02*
X157792914Y-99538095D01*
X157792914Y-99538095D02*
X157983390Y-99490476D01*
X157983390Y-99490476D02*
X158364342Y-99490476D01*
X158364342Y-99490476D02*
X158459580Y-99538095D01*
X158459580Y-99538095D02*
X158507200Y-99585714D01*
X158507200Y-99585714D02*
X158554819Y-99680952D01*
X158554819Y-99680952D02*
X158554819Y-99871428D01*
X158554819Y-99871428D02*
X158507200Y-99966666D01*
X158507200Y-99966666D02*
X158459580Y-100014285D01*
X158459580Y-100014285D02*
X158364342Y-100061904D01*
X158364342Y-100061904D02*
X158126247Y-100061904D01*
X158126247Y-100061904D02*
X158031009Y-100014285D01*
X158031009Y-100014285D02*
X157983390Y-99966666D01*
X157983390Y-99966666D02*
X157935771Y-99871428D01*
X157935771Y-99871428D02*
X157935771Y-99680952D01*
X157935771Y-99680952D02*
X157983390Y-99585714D01*
X157983390Y-99585714D02*
X158031009Y-99538095D01*
X158031009Y-99538095D02*
X158126247Y-99490476D01*
X131266666Y-89754819D02*
X131599999Y-89278628D01*
X131838094Y-89754819D02*
X131838094Y-88754819D01*
X131838094Y-88754819D02*
X131457142Y-88754819D01*
X131457142Y-88754819D02*
X131361904Y-88802438D01*
X131361904Y-88802438D02*
X131314285Y-88850057D01*
X131314285Y-88850057D02*
X131266666Y-88945295D01*
X131266666Y-88945295D02*
X131266666Y-89088152D01*
X131266666Y-89088152D02*
X131314285Y-89183390D01*
X131314285Y-89183390D02*
X131361904Y-89231009D01*
X131361904Y-89231009D02*
X131457142Y-89278628D01*
X131457142Y-89278628D02*
X131838094Y-89278628D01*
X130885713Y-88850057D02*
X130838094Y-88802438D01*
X130838094Y-88802438D02*
X130742856Y-88754819D01*
X130742856Y-88754819D02*
X130504761Y-88754819D01*
X130504761Y-88754819D02*
X130409523Y-88802438D01*
X130409523Y-88802438D02*
X130361904Y-88850057D01*
X130361904Y-88850057D02*
X130314285Y-88945295D01*
X130314285Y-88945295D02*
X130314285Y-89040533D01*
X130314285Y-89040533D02*
X130361904Y-89183390D01*
X130361904Y-89183390D02*
X130933332Y-89754819D01*
X130933332Y-89754819D02*
X130314285Y-89754819D01*
X166159580Y-98957142D02*
X166207200Y-98909523D01*
X166207200Y-98909523D02*
X166254819Y-98766666D01*
X166254819Y-98766666D02*
X166254819Y-98671428D01*
X166254819Y-98671428D02*
X166207200Y-98528571D01*
X166207200Y-98528571D02*
X166111961Y-98433333D01*
X166111961Y-98433333D02*
X166016723Y-98385714D01*
X166016723Y-98385714D02*
X165826247Y-98338095D01*
X165826247Y-98338095D02*
X165683390Y-98338095D01*
X165683390Y-98338095D02*
X165492914Y-98385714D01*
X165492914Y-98385714D02*
X165397676Y-98433333D01*
X165397676Y-98433333D02*
X165302438Y-98528571D01*
X165302438Y-98528571D02*
X165254819Y-98671428D01*
X165254819Y-98671428D02*
X165254819Y-98766666D01*
X165254819Y-98766666D02*
X165302438Y-98909523D01*
X165302438Y-98909523D02*
X165350057Y-98957142D01*
X165350057Y-99338095D02*
X165302438Y-99385714D01*
X165302438Y-99385714D02*
X165254819Y-99480952D01*
X165254819Y-99480952D02*
X165254819Y-99719047D01*
X165254819Y-99719047D02*
X165302438Y-99814285D01*
X165302438Y-99814285D02*
X165350057Y-99861904D01*
X165350057Y-99861904D02*
X165445295Y-99909523D01*
X165445295Y-99909523D02*
X165540533Y-99909523D01*
X165540533Y-99909523D02*
X165683390Y-99861904D01*
X165683390Y-99861904D02*
X166254819Y-99290476D01*
X166254819Y-99290476D02*
X166254819Y-99909523D01*
X165254819Y-100242857D02*
X165254819Y-100909523D01*
X165254819Y-100909523D02*
X166254819Y-100480952D01*
X131266666Y-91054819D02*
X131599999Y-90578628D01*
X131838094Y-91054819D02*
X131838094Y-90054819D01*
X131838094Y-90054819D02*
X131457142Y-90054819D01*
X131457142Y-90054819D02*
X131361904Y-90102438D01*
X131361904Y-90102438D02*
X131314285Y-90150057D01*
X131314285Y-90150057D02*
X131266666Y-90245295D01*
X131266666Y-90245295D02*
X131266666Y-90388152D01*
X131266666Y-90388152D02*
X131314285Y-90483390D01*
X131314285Y-90483390D02*
X131361904Y-90531009D01*
X131361904Y-90531009D02*
X131457142Y-90578628D01*
X131457142Y-90578628D02*
X131838094Y-90578628D01*
X130409523Y-90388152D02*
X130409523Y-91054819D01*
X130647618Y-90007200D02*
X130885713Y-90721485D01*
X130885713Y-90721485D02*
X130266666Y-90721485D01*
X133654819Y-82833333D02*
X133178628Y-82500000D01*
X133654819Y-82261905D02*
X132654819Y-82261905D01*
X132654819Y-82261905D02*
X132654819Y-82642857D01*
X132654819Y-82642857D02*
X132702438Y-82738095D01*
X132702438Y-82738095D02*
X132750057Y-82785714D01*
X132750057Y-82785714D02*
X132845295Y-82833333D01*
X132845295Y-82833333D02*
X132988152Y-82833333D01*
X132988152Y-82833333D02*
X133083390Y-82785714D01*
X133083390Y-82785714D02*
X133131009Y-82738095D01*
X133131009Y-82738095D02*
X133178628Y-82642857D01*
X133178628Y-82642857D02*
X133178628Y-82261905D01*
X132654819Y-83166667D02*
X132654819Y-83785714D01*
X132654819Y-83785714D02*
X133035771Y-83452381D01*
X133035771Y-83452381D02*
X133035771Y-83595238D01*
X133035771Y-83595238D02*
X133083390Y-83690476D01*
X133083390Y-83690476D02*
X133131009Y-83738095D01*
X133131009Y-83738095D02*
X133226247Y-83785714D01*
X133226247Y-83785714D02*
X133464342Y-83785714D01*
X133464342Y-83785714D02*
X133559580Y-83738095D01*
X133559580Y-83738095D02*
X133607200Y-83690476D01*
X133607200Y-83690476D02*
X133654819Y-83595238D01*
X133654819Y-83595238D02*
X133654819Y-83309524D01*
X133654819Y-83309524D02*
X133607200Y-83214286D01*
X133607200Y-83214286D02*
X133559580Y-83166667D01*
X151519048Y-98092914D02*
X151614287Y-98045295D01*
X151614287Y-98045295D02*
X151804763Y-98045295D01*
X151804763Y-98045295D02*
X151900001Y-98092914D01*
X151900001Y-98092914D02*
X151995239Y-98188152D01*
X151995239Y-98188152D02*
X152042858Y-98283390D01*
X152042858Y-98283390D02*
X152042858Y-98473866D01*
X152042858Y-98473866D02*
X151995239Y-98569104D01*
X151995239Y-98569104D02*
X151900001Y-98664342D01*
X151900001Y-98664342D02*
X151804763Y-98711961D01*
X151804763Y-98711961D02*
X151614287Y-98711961D01*
X151614287Y-98711961D02*
X151519048Y-98664342D01*
X151709525Y-97711961D02*
X151947620Y-97759580D01*
X151947620Y-97759580D02*
X152185715Y-97902438D01*
X152185715Y-97902438D02*
X152328572Y-98140533D01*
X152328572Y-98140533D02*
X152376191Y-98378628D01*
X152376191Y-98378628D02*
X152328572Y-98616723D01*
X152328572Y-98616723D02*
X152185715Y-98854819D01*
X152185715Y-98854819D02*
X151947620Y-98997676D01*
X151947620Y-98997676D02*
X151709525Y-99045295D01*
X151709525Y-99045295D02*
X151471429Y-98997676D01*
X151471429Y-98997676D02*
X151233334Y-98854819D01*
X151233334Y-98854819D02*
X151090477Y-98616723D01*
X151090477Y-98616723D02*
X151042858Y-98378628D01*
X151042858Y-98378628D02*
X151090477Y-98140533D01*
X151090477Y-98140533D02*
X151233334Y-97902438D01*
X151233334Y-97902438D02*
X151471429Y-97759580D01*
X151471429Y-97759580D02*
X151709525Y-97711961D01*
X150661905Y-97950057D02*
X150614286Y-97902438D01*
X150614286Y-97902438D02*
X150519048Y-97854819D01*
X150519048Y-97854819D02*
X150280953Y-97854819D01*
X150280953Y-97854819D02*
X150185715Y-97902438D01*
X150185715Y-97902438D02*
X150138096Y-97950057D01*
X150138096Y-97950057D02*
X150090477Y-98045295D01*
X150090477Y-98045295D02*
X150090477Y-98140533D01*
X150090477Y-98140533D02*
X150138096Y-98283390D01*
X150138096Y-98283390D02*
X150709524Y-98854819D01*
X150709524Y-98854819D02*
X150090477Y-98854819D01*
X149471429Y-97854819D02*
X149376191Y-97854819D01*
X149376191Y-97854819D02*
X149280953Y-97902438D01*
X149280953Y-97902438D02*
X149233334Y-97950057D01*
X149233334Y-97950057D02*
X149185715Y-98045295D01*
X149185715Y-98045295D02*
X149138096Y-98235771D01*
X149138096Y-98235771D02*
X149138096Y-98473866D01*
X149138096Y-98473866D02*
X149185715Y-98664342D01*
X149185715Y-98664342D02*
X149233334Y-98759580D01*
X149233334Y-98759580D02*
X149280953Y-98807200D01*
X149280953Y-98807200D02*
X149376191Y-98854819D01*
X149376191Y-98854819D02*
X149471429Y-98854819D01*
X149471429Y-98854819D02*
X149566667Y-98807200D01*
X149566667Y-98807200D02*
X149614286Y-98759580D01*
X149614286Y-98759580D02*
X149661905Y-98664342D01*
X149661905Y-98664342D02*
X149709524Y-98473866D01*
X149709524Y-98473866D02*
X149709524Y-98235771D01*
X149709524Y-98235771D02*
X149661905Y-98045295D01*
X149661905Y-98045295D02*
X149614286Y-97950057D01*
X149614286Y-97950057D02*
X149566667Y-97902438D01*
X149566667Y-97902438D02*
X149471429Y-97854819D01*
X148757143Y-97950057D02*
X148709524Y-97902438D01*
X148709524Y-97902438D02*
X148614286Y-97854819D01*
X148614286Y-97854819D02*
X148376191Y-97854819D01*
X148376191Y-97854819D02*
X148280953Y-97902438D01*
X148280953Y-97902438D02*
X148233334Y-97950057D01*
X148233334Y-97950057D02*
X148185715Y-98045295D01*
X148185715Y-98045295D02*
X148185715Y-98140533D01*
X148185715Y-98140533D02*
X148233334Y-98283390D01*
X148233334Y-98283390D02*
X148804762Y-98854819D01*
X148804762Y-98854819D02*
X148185715Y-98854819D01*
X147328572Y-98188152D02*
X147328572Y-98854819D01*
X147566667Y-97807200D02*
X147804762Y-98521485D01*
X147804762Y-98521485D02*
X147185715Y-98521485D01*
X145709524Y-98331009D02*
X145566667Y-98378628D01*
X145566667Y-98378628D02*
X145519048Y-98426247D01*
X145519048Y-98426247D02*
X145471429Y-98521485D01*
X145471429Y-98521485D02*
X145471429Y-98664342D01*
X145471429Y-98664342D02*
X145519048Y-98759580D01*
X145519048Y-98759580D02*
X145566667Y-98807200D01*
X145566667Y-98807200D02*
X145661905Y-98854819D01*
X145661905Y-98854819D02*
X146042857Y-98854819D01*
X146042857Y-98854819D02*
X146042857Y-97854819D01*
X146042857Y-97854819D02*
X145709524Y-97854819D01*
X145709524Y-97854819D02*
X145614286Y-97902438D01*
X145614286Y-97902438D02*
X145566667Y-97950057D01*
X145566667Y-97950057D02*
X145519048Y-98045295D01*
X145519048Y-98045295D02*
X145519048Y-98140533D01*
X145519048Y-98140533D02*
X145566667Y-98235771D01*
X145566667Y-98235771D02*
X145614286Y-98283390D01*
X145614286Y-98283390D02*
X145709524Y-98331009D01*
X145709524Y-98331009D02*
X146042857Y-98331009D01*
X144900000Y-98854819D02*
X144995238Y-98807200D01*
X144995238Y-98807200D02*
X145042857Y-98711961D01*
X145042857Y-98711961D02*
X145042857Y-97854819D01*
X144376190Y-98854819D02*
X144471428Y-98807200D01*
X144471428Y-98807200D02*
X144519047Y-98759580D01*
X144519047Y-98759580D02*
X144566666Y-98664342D01*
X144566666Y-98664342D02*
X144566666Y-98378628D01*
X144566666Y-98378628D02*
X144519047Y-98283390D01*
X144519047Y-98283390D02*
X144471428Y-98235771D01*
X144471428Y-98235771D02*
X144376190Y-98188152D01*
X144376190Y-98188152D02*
X144233333Y-98188152D01*
X144233333Y-98188152D02*
X144138095Y-98235771D01*
X144138095Y-98235771D02*
X144090476Y-98283390D01*
X144090476Y-98283390D02*
X144042857Y-98378628D01*
X144042857Y-98378628D02*
X144042857Y-98664342D01*
X144042857Y-98664342D02*
X144090476Y-98759580D01*
X144090476Y-98759580D02*
X144138095Y-98807200D01*
X144138095Y-98807200D02*
X144233333Y-98854819D01*
X144233333Y-98854819D02*
X144376190Y-98854819D01*
X143185714Y-98807200D02*
X143280952Y-98854819D01*
X143280952Y-98854819D02*
X143471428Y-98854819D01*
X143471428Y-98854819D02*
X143566666Y-98807200D01*
X143566666Y-98807200D02*
X143614285Y-98759580D01*
X143614285Y-98759580D02*
X143661904Y-98664342D01*
X143661904Y-98664342D02*
X143661904Y-98378628D01*
X143661904Y-98378628D02*
X143614285Y-98283390D01*
X143614285Y-98283390D02*
X143566666Y-98235771D01*
X143566666Y-98235771D02*
X143471428Y-98188152D01*
X143471428Y-98188152D02*
X143280952Y-98188152D01*
X143280952Y-98188152D02*
X143185714Y-98235771D01*
X142757142Y-98854819D02*
X142757142Y-97854819D01*
X142661904Y-98473866D02*
X142376190Y-98854819D01*
X142376190Y-98188152D02*
X142757142Y-98569104D01*
X142042856Y-97854819D02*
X141804761Y-98854819D01*
X141804761Y-98854819D02*
X141614285Y-98140533D01*
X141614285Y-98140533D02*
X141423809Y-98854819D01*
X141423809Y-98854819D02*
X141185714Y-97854819D01*
X140661904Y-98854819D02*
X140757142Y-98807200D01*
X140757142Y-98807200D02*
X140804761Y-98759580D01*
X140804761Y-98759580D02*
X140852380Y-98664342D01*
X140852380Y-98664342D02*
X140852380Y-98378628D01*
X140852380Y-98378628D02*
X140804761Y-98283390D01*
X140804761Y-98283390D02*
X140757142Y-98235771D01*
X140757142Y-98235771D02*
X140661904Y-98188152D01*
X140661904Y-98188152D02*
X140519047Y-98188152D01*
X140519047Y-98188152D02*
X140423809Y-98235771D01*
X140423809Y-98235771D02*
X140376190Y-98283390D01*
X140376190Y-98283390D02*
X140328571Y-98378628D01*
X140328571Y-98378628D02*
X140328571Y-98664342D01*
X140328571Y-98664342D02*
X140376190Y-98759580D01*
X140376190Y-98759580D02*
X140423809Y-98807200D01*
X140423809Y-98807200D02*
X140519047Y-98854819D01*
X140519047Y-98854819D02*
X140661904Y-98854819D01*
X139899999Y-98854819D02*
X139899999Y-98188152D01*
X139899999Y-98378628D02*
X139852380Y-98283390D01*
X139852380Y-98283390D02*
X139804761Y-98235771D01*
X139804761Y-98235771D02*
X139709523Y-98188152D01*
X139709523Y-98188152D02*
X139614285Y-98188152D01*
X139280951Y-98854819D02*
X139280951Y-97854819D01*
X139185713Y-98473866D02*
X138899999Y-98854819D01*
X138899999Y-98188152D02*
X139280951Y-98569104D01*
X138090475Y-98807200D02*
X138185713Y-98854819D01*
X138185713Y-98854819D02*
X138376189Y-98854819D01*
X138376189Y-98854819D02*
X138471427Y-98807200D01*
X138471427Y-98807200D02*
X138519046Y-98711961D01*
X138519046Y-98711961D02*
X138519046Y-98331009D01*
X138519046Y-98331009D02*
X138471427Y-98235771D01*
X138471427Y-98235771D02*
X138376189Y-98188152D01*
X138376189Y-98188152D02*
X138185713Y-98188152D01*
X138185713Y-98188152D02*
X138090475Y-98235771D01*
X138090475Y-98235771D02*
X138042856Y-98331009D01*
X138042856Y-98331009D02*
X138042856Y-98426247D01*
X138042856Y-98426247D02*
X138519046Y-98521485D01*
X137614284Y-98854819D02*
X137614284Y-98188152D01*
X137614284Y-98378628D02*
X137566665Y-98283390D01*
X137566665Y-98283390D02*
X137519046Y-98235771D01*
X137519046Y-98235771D02*
X137423808Y-98188152D01*
X137423808Y-98188152D02*
X137328570Y-98188152D01*
X150209524Y-100354819D02*
X150209524Y-99354819D01*
X150209524Y-99735771D02*
X150114286Y-99688152D01*
X150114286Y-99688152D02*
X149923810Y-99688152D01*
X149923810Y-99688152D02*
X149828572Y-99735771D01*
X149828572Y-99735771D02*
X149780953Y-99783390D01*
X149780953Y-99783390D02*
X149733334Y-99878628D01*
X149733334Y-99878628D02*
X149733334Y-100164342D01*
X149733334Y-100164342D02*
X149780953Y-100259580D01*
X149780953Y-100259580D02*
X149828572Y-100307200D01*
X149828572Y-100307200D02*
X149923810Y-100354819D01*
X149923810Y-100354819D02*
X150114286Y-100354819D01*
X150114286Y-100354819D02*
X150209524Y-100307200D01*
X149161905Y-100354819D02*
X149257143Y-100307200D01*
X149257143Y-100307200D02*
X149304762Y-100211961D01*
X149304762Y-100211961D02*
X149304762Y-99354819D01*
X148638095Y-100354819D02*
X148733333Y-100307200D01*
X148733333Y-100307200D02*
X148780952Y-100259580D01*
X148780952Y-100259580D02*
X148828571Y-100164342D01*
X148828571Y-100164342D02*
X148828571Y-99878628D01*
X148828571Y-99878628D02*
X148780952Y-99783390D01*
X148780952Y-99783390D02*
X148733333Y-99735771D01*
X148733333Y-99735771D02*
X148638095Y-99688152D01*
X148638095Y-99688152D02*
X148495238Y-99688152D01*
X148495238Y-99688152D02*
X148400000Y-99735771D01*
X148400000Y-99735771D02*
X148352381Y-99783390D01*
X148352381Y-99783390D02*
X148304762Y-99878628D01*
X148304762Y-99878628D02*
X148304762Y-100164342D01*
X148304762Y-100164342D02*
X148352381Y-100259580D01*
X148352381Y-100259580D02*
X148400000Y-100307200D01*
X148400000Y-100307200D02*
X148495238Y-100354819D01*
X148495238Y-100354819D02*
X148638095Y-100354819D01*
X147447619Y-100307200D02*
X147542857Y-100354819D01*
X147542857Y-100354819D02*
X147733333Y-100354819D01*
X147733333Y-100354819D02*
X147828571Y-100307200D01*
X147828571Y-100307200D02*
X147876190Y-100259580D01*
X147876190Y-100259580D02*
X147923809Y-100164342D01*
X147923809Y-100164342D02*
X147923809Y-99878628D01*
X147923809Y-99878628D02*
X147876190Y-99783390D01*
X147876190Y-99783390D02*
X147828571Y-99735771D01*
X147828571Y-99735771D02*
X147733333Y-99688152D01*
X147733333Y-99688152D02*
X147542857Y-99688152D01*
X147542857Y-99688152D02*
X147447619Y-99735771D01*
X147019047Y-100354819D02*
X147019047Y-99354819D01*
X146923809Y-99973866D02*
X146638095Y-100354819D01*
X146638095Y-99688152D02*
X147019047Y-100069104D01*
X146304761Y-99688152D02*
X146114285Y-100354819D01*
X146114285Y-100354819D02*
X145923809Y-99878628D01*
X145923809Y-99878628D02*
X145733333Y-100354819D01*
X145733333Y-100354819D02*
X145542857Y-99688152D01*
X145019047Y-100354819D02*
X145114285Y-100307200D01*
X145114285Y-100307200D02*
X145161904Y-100259580D01*
X145161904Y-100259580D02*
X145209523Y-100164342D01*
X145209523Y-100164342D02*
X145209523Y-99878628D01*
X145209523Y-99878628D02*
X145161904Y-99783390D01*
X145161904Y-99783390D02*
X145114285Y-99735771D01*
X145114285Y-99735771D02*
X145019047Y-99688152D01*
X145019047Y-99688152D02*
X144876190Y-99688152D01*
X144876190Y-99688152D02*
X144780952Y-99735771D01*
X144780952Y-99735771D02*
X144733333Y-99783390D01*
X144733333Y-99783390D02*
X144685714Y-99878628D01*
X144685714Y-99878628D02*
X144685714Y-100164342D01*
X144685714Y-100164342D02*
X144733333Y-100259580D01*
X144733333Y-100259580D02*
X144780952Y-100307200D01*
X144780952Y-100307200D02*
X144876190Y-100354819D01*
X144876190Y-100354819D02*
X145019047Y-100354819D01*
X144257142Y-100354819D02*
X144257142Y-99688152D01*
X144257142Y-99878628D02*
X144209523Y-99783390D01*
X144209523Y-99783390D02*
X144161904Y-99735771D01*
X144161904Y-99735771D02*
X144066666Y-99688152D01*
X144066666Y-99688152D02*
X143971428Y-99688152D01*
X143638094Y-100354819D02*
X143638094Y-99354819D01*
X143542856Y-99973866D02*
X143257142Y-100354819D01*
X143257142Y-99688152D02*
X143638094Y-100069104D01*
X142447618Y-100307200D02*
X142542856Y-100354819D01*
X142542856Y-100354819D02*
X142733332Y-100354819D01*
X142733332Y-100354819D02*
X142828570Y-100307200D01*
X142828570Y-100307200D02*
X142876189Y-100211961D01*
X142876189Y-100211961D02*
X142876189Y-99831009D01*
X142876189Y-99831009D02*
X142828570Y-99735771D01*
X142828570Y-99735771D02*
X142733332Y-99688152D01*
X142733332Y-99688152D02*
X142542856Y-99688152D01*
X142542856Y-99688152D02*
X142447618Y-99735771D01*
X142447618Y-99735771D02*
X142399999Y-99831009D01*
X142399999Y-99831009D02*
X142399999Y-99926247D01*
X142399999Y-99926247D02*
X142876189Y-100021485D01*
X141971427Y-100354819D02*
X141971427Y-99688152D01*
X141971427Y-99878628D02*
X141923808Y-99783390D01*
X141923808Y-99783390D02*
X141876189Y-99735771D01*
X141876189Y-99735771D02*
X141780951Y-99688152D01*
X141780951Y-99688152D02*
X141685713Y-99688152D01*
X141352379Y-100259580D02*
X141304760Y-100307200D01*
X141304760Y-100307200D02*
X141352379Y-100354819D01*
X141352379Y-100354819D02*
X141399998Y-100307200D01*
X141399998Y-100307200D02*
X141352379Y-100259580D01*
X141352379Y-100259580D02*
X141352379Y-100354819D01*
X140447618Y-100354819D02*
X140447618Y-99354819D01*
X140447618Y-100307200D02*
X140542856Y-100354819D01*
X140542856Y-100354819D02*
X140733332Y-100354819D01*
X140733332Y-100354819D02*
X140828570Y-100307200D01*
X140828570Y-100307200D02*
X140876189Y-100259580D01*
X140876189Y-100259580D02*
X140923808Y-100164342D01*
X140923808Y-100164342D02*
X140923808Y-99878628D01*
X140923808Y-99878628D02*
X140876189Y-99783390D01*
X140876189Y-99783390D02*
X140828570Y-99735771D01*
X140828570Y-99735771D02*
X140733332Y-99688152D01*
X140733332Y-99688152D02*
X140542856Y-99688152D01*
X140542856Y-99688152D02*
X140447618Y-99735771D01*
X139590475Y-100307200D02*
X139685713Y-100354819D01*
X139685713Y-100354819D02*
X139876189Y-100354819D01*
X139876189Y-100354819D02*
X139971427Y-100307200D01*
X139971427Y-100307200D02*
X140019046Y-100211961D01*
X140019046Y-100211961D02*
X140019046Y-99831009D01*
X140019046Y-99831009D02*
X139971427Y-99735771D01*
X139971427Y-99735771D02*
X139876189Y-99688152D01*
X139876189Y-99688152D02*
X139685713Y-99688152D01*
X139685713Y-99688152D02*
X139590475Y-99735771D01*
X139590475Y-99735771D02*
X139542856Y-99831009D01*
X139542856Y-99831009D02*
X139542856Y-99926247D01*
X139542856Y-99926247D02*
X140019046Y-100021485D01*
X140859580Y-86033333D02*
X140907200Y-85985714D01*
X140907200Y-85985714D02*
X140954819Y-85842857D01*
X140954819Y-85842857D02*
X140954819Y-85747619D01*
X140954819Y-85747619D02*
X140907200Y-85604762D01*
X140907200Y-85604762D02*
X140811961Y-85509524D01*
X140811961Y-85509524D02*
X140716723Y-85461905D01*
X140716723Y-85461905D02*
X140526247Y-85414286D01*
X140526247Y-85414286D02*
X140383390Y-85414286D01*
X140383390Y-85414286D02*
X140192914Y-85461905D01*
X140192914Y-85461905D02*
X140097676Y-85509524D01*
X140097676Y-85509524D02*
X140002438Y-85604762D01*
X140002438Y-85604762D02*
X139954819Y-85747619D01*
X139954819Y-85747619D02*
X139954819Y-85842857D01*
X139954819Y-85842857D02*
X140002438Y-85985714D01*
X140002438Y-85985714D02*
X140050057Y-86033333D01*
X140954819Y-86509524D02*
X140954819Y-86700000D01*
X140954819Y-86700000D02*
X140907200Y-86795238D01*
X140907200Y-86795238D02*
X140859580Y-86842857D01*
X140859580Y-86842857D02*
X140716723Y-86938095D01*
X140716723Y-86938095D02*
X140526247Y-86985714D01*
X140526247Y-86985714D02*
X140145295Y-86985714D01*
X140145295Y-86985714D02*
X140050057Y-86938095D01*
X140050057Y-86938095D02*
X140002438Y-86890476D01*
X140002438Y-86890476D02*
X139954819Y-86795238D01*
X139954819Y-86795238D02*
X139954819Y-86604762D01*
X139954819Y-86604762D02*
X140002438Y-86509524D01*
X140002438Y-86509524D02*
X140050057Y-86461905D01*
X140050057Y-86461905D02*
X140145295Y-86414286D01*
X140145295Y-86414286D02*
X140383390Y-86414286D01*
X140383390Y-86414286D02*
X140478628Y-86461905D01*
X140478628Y-86461905D02*
X140526247Y-86509524D01*
X140526247Y-86509524D02*
X140573866Y-86604762D01*
X140573866Y-86604762D02*
X140573866Y-86795238D01*
X140573866Y-86795238D02*
X140526247Y-86890476D01*
X140526247Y-86890476D02*
X140478628Y-86938095D01*
X140478628Y-86938095D02*
X140383390Y-86985714D01*
X165459580Y-86757142D02*
X165507200Y-86709523D01*
X165507200Y-86709523D02*
X165554819Y-86566666D01*
X165554819Y-86566666D02*
X165554819Y-86471428D01*
X165554819Y-86471428D02*
X165507200Y-86328571D01*
X165507200Y-86328571D02*
X165411961Y-86233333D01*
X165411961Y-86233333D02*
X165316723Y-86185714D01*
X165316723Y-86185714D02*
X165126247Y-86138095D01*
X165126247Y-86138095D02*
X164983390Y-86138095D01*
X164983390Y-86138095D02*
X164792914Y-86185714D01*
X164792914Y-86185714D02*
X164697676Y-86233333D01*
X164697676Y-86233333D02*
X164602438Y-86328571D01*
X164602438Y-86328571D02*
X164554819Y-86471428D01*
X164554819Y-86471428D02*
X164554819Y-86566666D01*
X164554819Y-86566666D02*
X164602438Y-86709523D01*
X164602438Y-86709523D02*
X164650057Y-86757142D01*
X165554819Y-87709523D02*
X165554819Y-87138095D01*
X165554819Y-87423809D02*
X164554819Y-87423809D01*
X164554819Y-87423809D02*
X164697676Y-87328571D01*
X164697676Y-87328571D02*
X164792914Y-87233333D01*
X164792914Y-87233333D02*
X164840533Y-87138095D01*
X164554819Y-88042857D02*
X164554819Y-88709523D01*
X164554819Y-88709523D02*
X165554819Y-88280952D01*
X136066666Y-118309580D02*
X136114285Y-118357200D01*
X136114285Y-118357200D02*
X136257142Y-118404819D01*
X136257142Y-118404819D02*
X136352380Y-118404819D01*
X136352380Y-118404819D02*
X136495237Y-118357200D01*
X136495237Y-118357200D02*
X136590475Y-118261961D01*
X136590475Y-118261961D02*
X136638094Y-118166723D01*
X136638094Y-118166723D02*
X136685713Y-117976247D01*
X136685713Y-117976247D02*
X136685713Y-117833390D01*
X136685713Y-117833390D02*
X136638094Y-117642914D01*
X136638094Y-117642914D02*
X136590475Y-117547676D01*
X136590475Y-117547676D02*
X136495237Y-117452438D01*
X136495237Y-117452438D02*
X136352380Y-117404819D01*
X136352380Y-117404819D02*
X136257142Y-117404819D01*
X136257142Y-117404819D02*
X136114285Y-117452438D01*
X136114285Y-117452438D02*
X136066666Y-117500057D01*
X135114285Y-118404819D02*
X135685713Y-118404819D01*
X135399999Y-118404819D02*
X135399999Y-117404819D01*
X135399999Y-117404819D02*
X135495237Y-117547676D01*
X135495237Y-117547676D02*
X135590475Y-117642914D01*
X135590475Y-117642914D02*
X135685713Y-117690533D01*
X163342857Y-114859580D02*
X163390476Y-114907200D01*
X163390476Y-114907200D02*
X163533333Y-114954819D01*
X163533333Y-114954819D02*
X163628571Y-114954819D01*
X163628571Y-114954819D02*
X163771428Y-114907200D01*
X163771428Y-114907200D02*
X163866666Y-114811961D01*
X163866666Y-114811961D02*
X163914285Y-114716723D01*
X163914285Y-114716723D02*
X163961904Y-114526247D01*
X163961904Y-114526247D02*
X163961904Y-114383390D01*
X163961904Y-114383390D02*
X163914285Y-114192914D01*
X163914285Y-114192914D02*
X163866666Y-114097676D01*
X163866666Y-114097676D02*
X163771428Y-114002438D01*
X163771428Y-114002438D02*
X163628571Y-113954819D01*
X163628571Y-113954819D02*
X163533333Y-113954819D01*
X163533333Y-113954819D02*
X163390476Y-114002438D01*
X163390476Y-114002438D02*
X163342857Y-114050057D01*
X163009523Y-113954819D02*
X162390476Y-113954819D01*
X162390476Y-113954819D02*
X162723809Y-114335771D01*
X162723809Y-114335771D02*
X162580952Y-114335771D01*
X162580952Y-114335771D02*
X162485714Y-114383390D01*
X162485714Y-114383390D02*
X162438095Y-114431009D01*
X162438095Y-114431009D02*
X162390476Y-114526247D01*
X162390476Y-114526247D02*
X162390476Y-114764342D01*
X162390476Y-114764342D02*
X162438095Y-114859580D01*
X162438095Y-114859580D02*
X162485714Y-114907200D01*
X162485714Y-114907200D02*
X162580952Y-114954819D01*
X162580952Y-114954819D02*
X162866666Y-114954819D01*
X162866666Y-114954819D02*
X162961904Y-114907200D01*
X162961904Y-114907200D02*
X163009523Y-114859580D01*
X161819047Y-114383390D02*
X161914285Y-114335771D01*
X161914285Y-114335771D02*
X161961904Y-114288152D01*
X161961904Y-114288152D02*
X162009523Y-114192914D01*
X162009523Y-114192914D02*
X162009523Y-114145295D01*
X162009523Y-114145295D02*
X161961904Y-114050057D01*
X161961904Y-114050057D02*
X161914285Y-114002438D01*
X161914285Y-114002438D02*
X161819047Y-113954819D01*
X161819047Y-113954819D02*
X161628571Y-113954819D01*
X161628571Y-113954819D02*
X161533333Y-114002438D01*
X161533333Y-114002438D02*
X161485714Y-114050057D01*
X161485714Y-114050057D02*
X161438095Y-114145295D01*
X161438095Y-114145295D02*
X161438095Y-114192914D01*
X161438095Y-114192914D02*
X161485714Y-114288152D01*
X161485714Y-114288152D02*
X161533333Y-114335771D01*
X161533333Y-114335771D02*
X161628571Y-114383390D01*
X161628571Y-114383390D02*
X161819047Y-114383390D01*
X161819047Y-114383390D02*
X161914285Y-114431009D01*
X161914285Y-114431009D02*
X161961904Y-114478628D01*
X161961904Y-114478628D02*
X162009523Y-114573866D01*
X162009523Y-114573866D02*
X162009523Y-114764342D01*
X162009523Y-114764342D02*
X161961904Y-114859580D01*
X161961904Y-114859580D02*
X161914285Y-114907200D01*
X161914285Y-114907200D02*
X161819047Y-114954819D01*
X161819047Y-114954819D02*
X161628571Y-114954819D01*
X161628571Y-114954819D02*
X161533333Y-114907200D01*
X161533333Y-114907200D02*
X161485714Y-114859580D01*
X161485714Y-114859580D02*
X161438095Y-114764342D01*
X161438095Y-114764342D02*
X161438095Y-114573866D01*
X161438095Y-114573866D02*
X161485714Y-114478628D01*
X161485714Y-114478628D02*
X161533333Y-114431009D01*
X161533333Y-114431009D02*
X161628571Y-114383390D01*
X159466666Y-82954819D02*
X159799999Y-82478628D01*
X160038094Y-82954819D02*
X160038094Y-81954819D01*
X160038094Y-81954819D02*
X159657142Y-81954819D01*
X159657142Y-81954819D02*
X159561904Y-82002438D01*
X159561904Y-82002438D02*
X159514285Y-82050057D01*
X159514285Y-82050057D02*
X159466666Y-82145295D01*
X159466666Y-82145295D02*
X159466666Y-82288152D01*
X159466666Y-82288152D02*
X159514285Y-82383390D01*
X159514285Y-82383390D02*
X159561904Y-82431009D01*
X159561904Y-82431009D02*
X159657142Y-82478628D01*
X159657142Y-82478628D02*
X160038094Y-82478628D01*
X158895237Y-82383390D02*
X158990475Y-82335771D01*
X158990475Y-82335771D02*
X159038094Y-82288152D01*
X159038094Y-82288152D02*
X159085713Y-82192914D01*
X159085713Y-82192914D02*
X159085713Y-82145295D01*
X159085713Y-82145295D02*
X159038094Y-82050057D01*
X159038094Y-82050057D02*
X158990475Y-82002438D01*
X158990475Y-82002438D02*
X158895237Y-81954819D01*
X158895237Y-81954819D02*
X158704761Y-81954819D01*
X158704761Y-81954819D02*
X158609523Y-82002438D01*
X158609523Y-82002438D02*
X158561904Y-82050057D01*
X158561904Y-82050057D02*
X158514285Y-82145295D01*
X158514285Y-82145295D02*
X158514285Y-82192914D01*
X158514285Y-82192914D02*
X158561904Y-82288152D01*
X158561904Y-82288152D02*
X158609523Y-82335771D01*
X158609523Y-82335771D02*
X158704761Y-82383390D01*
X158704761Y-82383390D02*
X158895237Y-82383390D01*
X158895237Y-82383390D02*
X158990475Y-82431009D01*
X158990475Y-82431009D02*
X159038094Y-82478628D01*
X159038094Y-82478628D02*
X159085713Y-82573866D01*
X159085713Y-82573866D02*
X159085713Y-82764342D01*
X159085713Y-82764342D02*
X159038094Y-82859580D01*
X159038094Y-82859580D02*
X158990475Y-82907200D01*
X158990475Y-82907200D02*
X158895237Y-82954819D01*
X158895237Y-82954819D02*
X158704761Y-82954819D01*
X158704761Y-82954819D02*
X158609523Y-82907200D01*
X158609523Y-82907200D02*
X158561904Y-82859580D01*
X158561904Y-82859580D02*
X158514285Y-82764342D01*
X158514285Y-82764342D02*
X158514285Y-82573866D01*
X158514285Y-82573866D02*
X158561904Y-82478628D01*
X158561904Y-82478628D02*
X158609523Y-82431009D01*
X158609523Y-82431009D02*
X158704761Y-82383390D01*
X162159580Y-93557142D02*
X162207200Y-93509523D01*
X162207200Y-93509523D02*
X162254819Y-93366666D01*
X162254819Y-93366666D02*
X162254819Y-93271428D01*
X162254819Y-93271428D02*
X162207200Y-93128571D01*
X162207200Y-93128571D02*
X162111961Y-93033333D01*
X162111961Y-93033333D02*
X162016723Y-92985714D01*
X162016723Y-92985714D02*
X161826247Y-92938095D01*
X161826247Y-92938095D02*
X161683390Y-92938095D01*
X161683390Y-92938095D02*
X161492914Y-92985714D01*
X161492914Y-92985714D02*
X161397676Y-93033333D01*
X161397676Y-93033333D02*
X161302438Y-93128571D01*
X161302438Y-93128571D02*
X161254819Y-93271428D01*
X161254819Y-93271428D02*
X161254819Y-93366666D01*
X161254819Y-93366666D02*
X161302438Y-93509523D01*
X161302438Y-93509523D02*
X161350057Y-93557142D01*
X162254819Y-94509523D02*
X162254819Y-93938095D01*
X162254819Y-94223809D02*
X161254819Y-94223809D01*
X161254819Y-94223809D02*
X161397676Y-94128571D01*
X161397676Y-94128571D02*
X161492914Y-94033333D01*
X161492914Y-94033333D02*
X161540533Y-93938095D01*
X161254819Y-94842857D02*
X161254819Y-95461904D01*
X161254819Y-95461904D02*
X161635771Y-95128571D01*
X161635771Y-95128571D02*
X161635771Y-95271428D01*
X161635771Y-95271428D02*
X161683390Y-95366666D01*
X161683390Y-95366666D02*
X161731009Y-95414285D01*
X161731009Y-95414285D02*
X161826247Y-95461904D01*
X161826247Y-95461904D02*
X162064342Y-95461904D01*
X162064342Y-95461904D02*
X162159580Y-95414285D01*
X162159580Y-95414285D02*
X162207200Y-95366666D01*
X162207200Y-95366666D02*
X162254819Y-95271428D01*
X162254819Y-95271428D02*
X162254819Y-94985714D01*
X162254819Y-94985714D02*
X162207200Y-94890476D01*
X162207200Y-94890476D02*
X162159580Y-94842857D01*
X158342857Y-96859580D02*
X158390476Y-96907200D01*
X158390476Y-96907200D02*
X158533333Y-96954819D01*
X158533333Y-96954819D02*
X158628571Y-96954819D01*
X158628571Y-96954819D02*
X158771428Y-96907200D01*
X158771428Y-96907200D02*
X158866666Y-96811961D01*
X158866666Y-96811961D02*
X158914285Y-96716723D01*
X158914285Y-96716723D02*
X158961904Y-96526247D01*
X158961904Y-96526247D02*
X158961904Y-96383390D01*
X158961904Y-96383390D02*
X158914285Y-96192914D01*
X158914285Y-96192914D02*
X158866666Y-96097676D01*
X158866666Y-96097676D02*
X158771428Y-96002438D01*
X158771428Y-96002438D02*
X158628571Y-95954819D01*
X158628571Y-95954819D02*
X158533333Y-95954819D01*
X158533333Y-95954819D02*
X158390476Y-96002438D01*
X158390476Y-96002438D02*
X158342857Y-96050057D01*
X157390476Y-96954819D02*
X157961904Y-96954819D01*
X157676190Y-96954819D02*
X157676190Y-95954819D01*
X157676190Y-95954819D02*
X157771428Y-96097676D01*
X157771428Y-96097676D02*
X157866666Y-96192914D01*
X157866666Y-96192914D02*
X157961904Y-96240533D01*
X156533333Y-95954819D02*
X156723809Y-95954819D01*
X156723809Y-95954819D02*
X156819047Y-96002438D01*
X156819047Y-96002438D02*
X156866666Y-96050057D01*
X156866666Y-96050057D02*
X156961904Y-96192914D01*
X156961904Y-96192914D02*
X157009523Y-96383390D01*
X157009523Y-96383390D02*
X157009523Y-96764342D01*
X157009523Y-96764342D02*
X156961904Y-96859580D01*
X156961904Y-96859580D02*
X156914285Y-96907200D01*
X156914285Y-96907200D02*
X156819047Y-96954819D01*
X156819047Y-96954819D02*
X156628571Y-96954819D01*
X156628571Y-96954819D02*
X156533333Y-96907200D01*
X156533333Y-96907200D02*
X156485714Y-96859580D01*
X156485714Y-96859580D02*
X156438095Y-96764342D01*
X156438095Y-96764342D02*
X156438095Y-96526247D01*
X156438095Y-96526247D02*
X156485714Y-96431009D01*
X156485714Y-96431009D02*
X156533333Y-96383390D01*
X156533333Y-96383390D02*
X156628571Y-96335771D01*
X156628571Y-96335771D02*
X156819047Y-96335771D01*
X156819047Y-96335771D02*
X156914285Y-96383390D01*
X156914285Y-96383390D02*
X156961904Y-96431009D01*
X156961904Y-96431009D02*
X157009523Y-96526247D01*
X150654819Y-115338095D02*
X151464342Y-115338095D01*
X151464342Y-115338095D02*
X151559580Y-115385714D01*
X151559580Y-115385714D02*
X151607200Y-115433333D01*
X151607200Y-115433333D02*
X151654819Y-115528571D01*
X151654819Y-115528571D02*
X151654819Y-115719047D01*
X151654819Y-115719047D02*
X151607200Y-115814285D01*
X151607200Y-115814285D02*
X151559580Y-115861904D01*
X151559580Y-115861904D02*
X151464342Y-115909523D01*
X151464342Y-115909523D02*
X150654819Y-115909523D01*
X150654819Y-116814285D02*
X150654819Y-116623809D01*
X150654819Y-116623809D02*
X150702438Y-116528571D01*
X150702438Y-116528571D02*
X150750057Y-116480952D01*
X150750057Y-116480952D02*
X150892914Y-116385714D01*
X150892914Y-116385714D02*
X151083390Y-116338095D01*
X151083390Y-116338095D02*
X151464342Y-116338095D01*
X151464342Y-116338095D02*
X151559580Y-116385714D01*
X151559580Y-116385714D02*
X151607200Y-116433333D01*
X151607200Y-116433333D02*
X151654819Y-116528571D01*
X151654819Y-116528571D02*
X151654819Y-116719047D01*
X151654819Y-116719047D02*
X151607200Y-116814285D01*
X151607200Y-116814285D02*
X151559580Y-116861904D01*
X151559580Y-116861904D02*
X151464342Y-116909523D01*
X151464342Y-116909523D02*
X151226247Y-116909523D01*
X151226247Y-116909523D02*
X151131009Y-116861904D01*
X151131009Y-116861904D02*
X151083390Y-116814285D01*
X151083390Y-116814285D02*
X151035771Y-116719047D01*
X151035771Y-116719047D02*
X151035771Y-116528571D01*
X151035771Y-116528571D02*
X151083390Y-116433333D01*
X151083390Y-116433333D02*
X151131009Y-116385714D01*
X151131009Y-116385714D02*
X151226247Y-116338095D01*
X139142857Y-84359580D02*
X139190476Y-84407200D01*
X139190476Y-84407200D02*
X139333333Y-84454819D01*
X139333333Y-84454819D02*
X139428571Y-84454819D01*
X139428571Y-84454819D02*
X139571428Y-84407200D01*
X139571428Y-84407200D02*
X139666666Y-84311961D01*
X139666666Y-84311961D02*
X139714285Y-84216723D01*
X139714285Y-84216723D02*
X139761904Y-84026247D01*
X139761904Y-84026247D02*
X139761904Y-83883390D01*
X139761904Y-83883390D02*
X139714285Y-83692914D01*
X139714285Y-83692914D02*
X139666666Y-83597676D01*
X139666666Y-83597676D02*
X139571428Y-83502438D01*
X139571428Y-83502438D02*
X139428571Y-83454819D01*
X139428571Y-83454819D02*
X139333333Y-83454819D01*
X139333333Y-83454819D02*
X139190476Y-83502438D01*
X139190476Y-83502438D02*
X139142857Y-83550057D01*
X138190476Y-84454819D02*
X138761904Y-84454819D01*
X138476190Y-84454819D02*
X138476190Y-83454819D01*
X138476190Y-83454819D02*
X138571428Y-83597676D01*
X138571428Y-83597676D02*
X138666666Y-83692914D01*
X138666666Y-83692914D02*
X138761904Y-83740533D01*
X137809523Y-83550057D02*
X137761904Y-83502438D01*
X137761904Y-83502438D02*
X137666666Y-83454819D01*
X137666666Y-83454819D02*
X137428571Y-83454819D01*
X137428571Y-83454819D02*
X137333333Y-83502438D01*
X137333333Y-83502438D02*
X137285714Y-83550057D01*
X137285714Y-83550057D02*
X137238095Y-83645295D01*
X137238095Y-83645295D02*
X137238095Y-83740533D01*
X137238095Y-83740533D02*
X137285714Y-83883390D01*
X137285714Y-83883390D02*
X137857142Y-84454819D01*
X137857142Y-84454819D02*
X137238095Y-84454819D01*
X137989580Y-81933333D02*
X138037200Y-81885714D01*
X138037200Y-81885714D02*
X138084819Y-81742857D01*
X138084819Y-81742857D02*
X138084819Y-81647619D01*
X138084819Y-81647619D02*
X138037200Y-81504762D01*
X138037200Y-81504762D02*
X137941961Y-81409524D01*
X137941961Y-81409524D02*
X137846723Y-81361905D01*
X137846723Y-81361905D02*
X137656247Y-81314286D01*
X137656247Y-81314286D02*
X137513390Y-81314286D01*
X137513390Y-81314286D02*
X137322914Y-81361905D01*
X137322914Y-81361905D02*
X137227676Y-81409524D01*
X137227676Y-81409524D02*
X137132438Y-81504762D01*
X137132438Y-81504762D02*
X137084819Y-81647619D01*
X137084819Y-81647619D02*
X137084819Y-81742857D01*
X137084819Y-81742857D02*
X137132438Y-81885714D01*
X137132438Y-81885714D02*
X137180057Y-81933333D01*
X137513390Y-82504762D02*
X137465771Y-82409524D01*
X137465771Y-82409524D02*
X137418152Y-82361905D01*
X137418152Y-82361905D02*
X137322914Y-82314286D01*
X137322914Y-82314286D02*
X137275295Y-82314286D01*
X137275295Y-82314286D02*
X137180057Y-82361905D01*
X137180057Y-82361905D02*
X137132438Y-82409524D01*
X137132438Y-82409524D02*
X137084819Y-82504762D01*
X137084819Y-82504762D02*
X137084819Y-82695238D01*
X137084819Y-82695238D02*
X137132438Y-82790476D01*
X137132438Y-82790476D02*
X137180057Y-82838095D01*
X137180057Y-82838095D02*
X137275295Y-82885714D01*
X137275295Y-82885714D02*
X137322914Y-82885714D01*
X137322914Y-82885714D02*
X137418152Y-82838095D01*
X137418152Y-82838095D02*
X137465771Y-82790476D01*
X137465771Y-82790476D02*
X137513390Y-82695238D01*
X137513390Y-82695238D02*
X137513390Y-82504762D01*
X137513390Y-82504762D02*
X137561009Y-82409524D01*
X137561009Y-82409524D02*
X137608628Y-82361905D01*
X137608628Y-82361905D02*
X137703866Y-82314286D01*
X137703866Y-82314286D02*
X137894342Y-82314286D01*
X137894342Y-82314286D02*
X137989580Y-82361905D01*
X137989580Y-82361905D02*
X138037200Y-82409524D01*
X138037200Y-82409524D02*
X138084819Y-82504762D01*
X138084819Y-82504762D02*
X138084819Y-82695238D01*
X138084819Y-82695238D02*
X138037200Y-82790476D01*
X138037200Y-82790476D02*
X137989580Y-82838095D01*
X137989580Y-82838095D02*
X137894342Y-82885714D01*
X137894342Y-82885714D02*
X137703866Y-82885714D01*
X137703866Y-82885714D02*
X137608628Y-82838095D01*
X137608628Y-82838095D02*
X137561009Y-82790476D01*
X137561009Y-82790476D02*
X137513390Y-82695238D01*
X156842857Y-85859580D02*
X156890476Y-85907200D01*
X156890476Y-85907200D02*
X157033333Y-85954819D01*
X157033333Y-85954819D02*
X157128571Y-85954819D01*
X157128571Y-85954819D02*
X157271428Y-85907200D01*
X157271428Y-85907200D02*
X157366666Y-85811961D01*
X157366666Y-85811961D02*
X157414285Y-85716723D01*
X157414285Y-85716723D02*
X157461904Y-85526247D01*
X157461904Y-85526247D02*
X157461904Y-85383390D01*
X157461904Y-85383390D02*
X157414285Y-85192914D01*
X157414285Y-85192914D02*
X157366666Y-85097676D01*
X157366666Y-85097676D02*
X157271428Y-85002438D01*
X157271428Y-85002438D02*
X157128571Y-84954819D01*
X157128571Y-84954819D02*
X157033333Y-84954819D01*
X157033333Y-84954819D02*
X156890476Y-85002438D01*
X156890476Y-85002438D02*
X156842857Y-85050057D01*
X155890476Y-85954819D02*
X156461904Y-85954819D01*
X156176190Y-85954819D02*
X156176190Y-84954819D01*
X156176190Y-84954819D02*
X156271428Y-85097676D01*
X156271428Y-85097676D02*
X156366666Y-85192914D01*
X156366666Y-85192914D02*
X156461904Y-85240533D01*
X155414285Y-85954819D02*
X155223809Y-85954819D01*
X155223809Y-85954819D02*
X155128571Y-85907200D01*
X155128571Y-85907200D02*
X155080952Y-85859580D01*
X155080952Y-85859580D02*
X154985714Y-85716723D01*
X154985714Y-85716723D02*
X154938095Y-85526247D01*
X154938095Y-85526247D02*
X154938095Y-85145295D01*
X154938095Y-85145295D02*
X154985714Y-85050057D01*
X154985714Y-85050057D02*
X155033333Y-85002438D01*
X155033333Y-85002438D02*
X155128571Y-84954819D01*
X155128571Y-84954819D02*
X155319047Y-84954819D01*
X155319047Y-84954819D02*
X155414285Y-85002438D01*
X155414285Y-85002438D02*
X155461904Y-85050057D01*
X155461904Y-85050057D02*
X155509523Y-85145295D01*
X155509523Y-85145295D02*
X155509523Y-85383390D01*
X155509523Y-85383390D02*
X155461904Y-85478628D01*
X155461904Y-85478628D02*
X155414285Y-85526247D01*
X155414285Y-85526247D02*
X155319047Y-85573866D01*
X155319047Y-85573866D02*
X155128571Y-85573866D01*
X155128571Y-85573866D02*
X155033333Y-85526247D01*
X155033333Y-85526247D02*
X154985714Y-85478628D01*
X154985714Y-85478628D02*
X154938095Y-85383390D01*
X165042857Y-118259580D02*
X165090476Y-118307200D01*
X165090476Y-118307200D02*
X165233333Y-118354819D01*
X165233333Y-118354819D02*
X165328571Y-118354819D01*
X165328571Y-118354819D02*
X165471428Y-118307200D01*
X165471428Y-118307200D02*
X165566666Y-118211961D01*
X165566666Y-118211961D02*
X165614285Y-118116723D01*
X165614285Y-118116723D02*
X165661904Y-117926247D01*
X165661904Y-117926247D02*
X165661904Y-117783390D01*
X165661904Y-117783390D02*
X165614285Y-117592914D01*
X165614285Y-117592914D02*
X165566666Y-117497676D01*
X165566666Y-117497676D02*
X165471428Y-117402438D01*
X165471428Y-117402438D02*
X165328571Y-117354819D01*
X165328571Y-117354819D02*
X165233333Y-117354819D01*
X165233333Y-117354819D02*
X165090476Y-117402438D01*
X165090476Y-117402438D02*
X165042857Y-117450057D01*
X164709523Y-117354819D02*
X164090476Y-117354819D01*
X164090476Y-117354819D02*
X164423809Y-117735771D01*
X164423809Y-117735771D02*
X164280952Y-117735771D01*
X164280952Y-117735771D02*
X164185714Y-117783390D01*
X164185714Y-117783390D02*
X164138095Y-117831009D01*
X164138095Y-117831009D02*
X164090476Y-117926247D01*
X164090476Y-117926247D02*
X164090476Y-118164342D01*
X164090476Y-118164342D02*
X164138095Y-118259580D01*
X164138095Y-118259580D02*
X164185714Y-118307200D01*
X164185714Y-118307200D02*
X164280952Y-118354819D01*
X164280952Y-118354819D02*
X164566666Y-118354819D01*
X164566666Y-118354819D02*
X164661904Y-118307200D01*
X164661904Y-118307200D02*
X164709523Y-118259580D01*
X163614285Y-118354819D02*
X163423809Y-118354819D01*
X163423809Y-118354819D02*
X163328571Y-118307200D01*
X163328571Y-118307200D02*
X163280952Y-118259580D01*
X163280952Y-118259580D02*
X163185714Y-118116723D01*
X163185714Y-118116723D02*
X163138095Y-117926247D01*
X163138095Y-117926247D02*
X163138095Y-117545295D01*
X163138095Y-117545295D02*
X163185714Y-117450057D01*
X163185714Y-117450057D02*
X163233333Y-117402438D01*
X163233333Y-117402438D02*
X163328571Y-117354819D01*
X163328571Y-117354819D02*
X163519047Y-117354819D01*
X163519047Y-117354819D02*
X163614285Y-117402438D01*
X163614285Y-117402438D02*
X163661904Y-117450057D01*
X163661904Y-117450057D02*
X163709523Y-117545295D01*
X163709523Y-117545295D02*
X163709523Y-117783390D01*
X163709523Y-117783390D02*
X163661904Y-117878628D01*
X163661904Y-117878628D02*
X163614285Y-117926247D01*
X163614285Y-117926247D02*
X163519047Y-117973866D01*
X163519047Y-117973866D02*
X163328571Y-117973866D01*
X163328571Y-117973866D02*
X163233333Y-117926247D01*
X163233333Y-117926247D02*
X163185714Y-117878628D01*
X163185714Y-117878628D02*
X163138095Y-117783390D01*
X156342857Y-98359580D02*
X156390476Y-98407200D01*
X156390476Y-98407200D02*
X156533333Y-98454819D01*
X156533333Y-98454819D02*
X156628571Y-98454819D01*
X156628571Y-98454819D02*
X156771428Y-98407200D01*
X156771428Y-98407200D02*
X156866666Y-98311961D01*
X156866666Y-98311961D02*
X156914285Y-98216723D01*
X156914285Y-98216723D02*
X156961904Y-98026247D01*
X156961904Y-98026247D02*
X156961904Y-97883390D01*
X156961904Y-97883390D02*
X156914285Y-97692914D01*
X156914285Y-97692914D02*
X156866666Y-97597676D01*
X156866666Y-97597676D02*
X156771428Y-97502438D01*
X156771428Y-97502438D02*
X156628571Y-97454819D01*
X156628571Y-97454819D02*
X156533333Y-97454819D01*
X156533333Y-97454819D02*
X156390476Y-97502438D01*
X156390476Y-97502438D02*
X156342857Y-97550057D01*
X155961904Y-97550057D02*
X155914285Y-97502438D01*
X155914285Y-97502438D02*
X155819047Y-97454819D01*
X155819047Y-97454819D02*
X155580952Y-97454819D01*
X155580952Y-97454819D02*
X155485714Y-97502438D01*
X155485714Y-97502438D02*
X155438095Y-97550057D01*
X155438095Y-97550057D02*
X155390476Y-97645295D01*
X155390476Y-97645295D02*
X155390476Y-97740533D01*
X155390476Y-97740533D02*
X155438095Y-97883390D01*
X155438095Y-97883390D02*
X156009523Y-98454819D01*
X156009523Y-98454819D02*
X155390476Y-98454819D01*
X154485714Y-97454819D02*
X154961904Y-97454819D01*
X154961904Y-97454819D02*
X155009523Y-97931009D01*
X155009523Y-97931009D02*
X154961904Y-97883390D01*
X154961904Y-97883390D02*
X154866666Y-97835771D01*
X154866666Y-97835771D02*
X154628571Y-97835771D01*
X154628571Y-97835771D02*
X154533333Y-97883390D01*
X154533333Y-97883390D02*
X154485714Y-97931009D01*
X154485714Y-97931009D02*
X154438095Y-98026247D01*
X154438095Y-98026247D02*
X154438095Y-98264342D01*
X154438095Y-98264342D02*
X154485714Y-98359580D01*
X154485714Y-98359580D02*
X154533333Y-98407200D01*
X154533333Y-98407200D02*
X154628571Y-98454819D01*
X154628571Y-98454819D02*
X154866666Y-98454819D01*
X154866666Y-98454819D02*
X154961904Y-98407200D01*
X154961904Y-98407200D02*
X155009523Y-98359580D01*
X153179580Y-106157142D02*
X153227200Y-106109523D01*
X153227200Y-106109523D02*
X153274819Y-105966666D01*
X153274819Y-105966666D02*
X153274819Y-105871428D01*
X153274819Y-105871428D02*
X153227200Y-105728571D01*
X153227200Y-105728571D02*
X153131961Y-105633333D01*
X153131961Y-105633333D02*
X153036723Y-105585714D01*
X153036723Y-105585714D02*
X152846247Y-105538095D01*
X152846247Y-105538095D02*
X152703390Y-105538095D01*
X152703390Y-105538095D02*
X152512914Y-105585714D01*
X152512914Y-105585714D02*
X152417676Y-105633333D01*
X152417676Y-105633333D02*
X152322438Y-105728571D01*
X152322438Y-105728571D02*
X152274819Y-105871428D01*
X152274819Y-105871428D02*
X152274819Y-105966666D01*
X152274819Y-105966666D02*
X152322438Y-106109523D01*
X152322438Y-106109523D02*
X152370057Y-106157142D01*
X152274819Y-106490476D02*
X152274819Y-107109523D01*
X152274819Y-107109523D02*
X152655771Y-106776190D01*
X152655771Y-106776190D02*
X152655771Y-106919047D01*
X152655771Y-106919047D02*
X152703390Y-107014285D01*
X152703390Y-107014285D02*
X152751009Y-107061904D01*
X152751009Y-107061904D02*
X152846247Y-107109523D01*
X152846247Y-107109523D02*
X153084342Y-107109523D01*
X153084342Y-107109523D02*
X153179580Y-107061904D01*
X153179580Y-107061904D02*
X153227200Y-107014285D01*
X153227200Y-107014285D02*
X153274819Y-106919047D01*
X153274819Y-106919047D02*
X153274819Y-106633333D01*
X153274819Y-106633333D02*
X153227200Y-106538095D01*
X153227200Y-106538095D02*
X153179580Y-106490476D01*
X152274819Y-107728571D02*
X152274819Y-107823809D01*
X152274819Y-107823809D02*
X152322438Y-107919047D01*
X152322438Y-107919047D02*
X152370057Y-107966666D01*
X152370057Y-107966666D02*
X152465295Y-108014285D01*
X152465295Y-108014285D02*
X152655771Y-108061904D01*
X152655771Y-108061904D02*
X152893866Y-108061904D01*
X152893866Y-108061904D02*
X153084342Y-108014285D01*
X153084342Y-108014285D02*
X153179580Y-107966666D01*
X153179580Y-107966666D02*
X153227200Y-107919047D01*
X153227200Y-107919047D02*
X153274819Y-107823809D01*
X153274819Y-107823809D02*
X153274819Y-107728571D01*
X153274819Y-107728571D02*
X153227200Y-107633333D01*
X153227200Y-107633333D02*
X153179580Y-107585714D01*
X153179580Y-107585714D02*
X153084342Y-107538095D01*
X153084342Y-107538095D02*
X152893866Y-107490476D01*
X152893866Y-107490476D02*
X152655771Y-107490476D01*
X152655771Y-107490476D02*
X152465295Y-107538095D01*
X152465295Y-107538095D02*
X152370057Y-107585714D01*
X152370057Y-107585714D02*
X152322438Y-107633333D01*
X152322438Y-107633333D02*
X152274819Y-107728571D01*
D11*
%TO.C,R1*%
X132237258Y-87377500D02*
X131762742Y-87377500D01*
X132237258Y-88422500D02*
X131762742Y-88422500D01*
%TO.C,R5*%
X134177500Y-87337258D02*
X134177500Y-86862742D01*
X135222500Y-87337258D02*
X135222500Y-86862742D01*
%TO.C,C11*%
X132190000Y-90259420D02*
X132190000Y-90540580D01*
X133210000Y-90259420D02*
X133210000Y-90540580D01*
%TO.C,C42*%
X155659420Y-111690000D02*
X155940580Y-111690000D01*
X155659420Y-112710000D02*
X155940580Y-112710000D01*
%TO.C,R6*%
X157077500Y-87562742D02*
X157077500Y-88037258D01*
X158122500Y-87562742D02*
X158122500Y-88037258D01*
%TO.C,C15*%
X155790000Y-92688748D02*
X155790000Y-94111252D01*
X157610000Y-92688748D02*
X157610000Y-94111252D01*
%TO.C,U4*%
X156190000Y-103890000D02*
X157065000Y-103890000D01*
X156190000Y-104765000D02*
X156190000Y-103890000D01*
X156190000Y-108235000D02*
X156190000Y-109110000D01*
X156190000Y-109110000D02*
X157065000Y-109110000D01*
X161110000Y-103890000D02*
X160535000Y-103890000D01*
X161410000Y-104130000D02*
X161410000Y-104765000D01*
X161410000Y-108235000D02*
X161410000Y-109110000D01*
X161410000Y-109110000D02*
X160535000Y-109110000D01*
X161410000Y-103890000D02*
X161170000Y-103560000D01*
X161650000Y-103560000D01*
X161410000Y-103890000D01*
G36*
X161410000Y-103890000D02*
G01*
X161170000Y-103560000D01*
X161650000Y-103560000D01*
X161410000Y-103890000D01*
G37*
%TO.C,C37*%
X160161252Y-112065000D02*
X159638748Y-112065000D01*
X160161252Y-113535000D02*
X159638748Y-113535000D01*
%TO.C,U2*%
X158590000Y-88000000D02*
X158590000Y-89500000D01*
X158590000Y-91000000D02*
X158590000Y-89500000D01*
X161810000Y-88000000D02*
X161810000Y-89500000D01*
X161810000Y-91000000D02*
X161810000Y-89500000D01*
X158715000Y-87312500D02*
X158385000Y-87552500D01*
X158385000Y-87072500D01*
X158715000Y-87312500D01*
G36*
X158715000Y-87312500D02*
G01*
X158385000Y-87552500D01*
X158385000Y-87072500D01*
X158715000Y-87312500D01*
G37*
%TO.C,C26*%
X157490000Y-101659420D02*
X157490000Y-101940580D01*
X158510000Y-101659420D02*
X158510000Y-101940580D01*
%TO.C,R2*%
X132337258Y-84177500D02*
X131862742Y-84177500D01*
X132337258Y-85222500D02*
X131862742Y-85222500D01*
%TO.C,C27*%
X159490000Y-98184252D02*
X159490000Y-101015748D01*
X164710000Y-98184252D02*
X164710000Y-101015748D01*
%TO.C,R4*%
X131862742Y-85777500D02*
X132337258Y-85777500D01*
X131862742Y-86822500D02*
X132337258Y-86822500D01*
%TO.C,R3*%
X134077500Y-82337258D02*
X134077500Y-81862742D01*
X135122500Y-82337258D02*
X135122500Y-81862742D01*
%TO.C,C9*%
X138290000Y-86440580D02*
X138290000Y-86159420D01*
X139310000Y-86440580D02*
X139310000Y-86159420D01*
%TO.C,C17*%
X162290000Y-86713748D02*
X162290000Y-88136252D01*
X164110000Y-86713748D02*
X164110000Y-88136252D01*
%TO.C,C1*%
X131856250Y-115053750D02*
X131856250Y-115841250D01*
X132250000Y-115447500D02*
X131462500Y-115447500D01*
X132490000Y-112540000D02*
X132490000Y-111254437D01*
X132490000Y-114660000D02*
X132490000Y-115945563D01*
X133554437Y-110190000D02*
X132490000Y-111254437D01*
X133554437Y-117010000D02*
X132490000Y-115945563D01*
X139310000Y-110190000D02*
X133554437Y-110190000D01*
X139310000Y-112540000D02*
X139310000Y-110190000D01*
X139310000Y-114660000D02*
X139310000Y-117010000D01*
X139310000Y-117010000D02*
X133554437Y-117010000D01*
%TO.C,C38*%
X159840580Y-114090000D02*
X159559420Y-114090000D01*
X159840580Y-115110000D02*
X159559420Y-115110000D01*
%TO.C,R8*%
X159537258Y-83377500D02*
X159062742Y-83377500D01*
X159537258Y-84422500D02*
X159062742Y-84422500D01*
%TO.C,C13*%
X159790000Y-94059420D02*
X159790000Y-94340580D01*
X160810000Y-94059420D02*
X160810000Y-94340580D01*
%TO.C,C16*%
X158190000Y-94059420D02*
X158190000Y-94340580D01*
X159210000Y-94059420D02*
X159210000Y-94340580D01*
%TO.C,U6*%
X152390000Y-113490000D02*
X152390000Y-114365000D01*
X152390000Y-118710000D02*
X152390000Y-117835000D01*
X153265000Y-113490000D02*
X152390000Y-113490000D01*
X153265000Y-118710000D02*
X152390000Y-118710000D01*
X156735000Y-113490000D02*
X157610000Y-113490000D01*
X157370000Y-118710000D02*
X156735000Y-118710000D01*
X157610000Y-113490000D02*
X157610000Y-114365000D01*
X157610000Y-118410000D02*
X157610000Y-117835000D01*
X157940000Y-118950000D02*
X157610000Y-118710000D01*
X157940000Y-118470000D01*
X157940000Y-118950000D01*
G36*
X157940000Y-118950000D02*
G01*
X157610000Y-118710000D01*
X157940000Y-118470000D01*
X157940000Y-118950000D01*
G37*
%TO.C,C12*%
X135540580Y-83890000D02*
X135259420Y-83890000D01*
X135540580Y-84910000D02*
X135259420Y-84910000D01*
%TO.C,C8*%
X135690000Y-81959420D02*
X135690000Y-82240580D01*
X136710000Y-81959420D02*
X136710000Y-82240580D01*
%TO.C,C19*%
X159440580Y-84990000D02*
X159159420Y-84990000D01*
X159440580Y-86010000D02*
X159159420Y-86010000D01*
%TO.C,C39*%
X161211252Y-116340000D02*
X159788748Y-116340000D01*
X161211252Y-119060000D02*
X159788748Y-119060000D01*
%TO.C,C25*%
X154990000Y-100288748D02*
X154990000Y-101711252D01*
X156810000Y-100288748D02*
X156810000Y-101711252D01*
%TO.C,C30*%
X153765000Y-107061252D02*
X153765000Y-106538748D01*
X155235000Y-107061252D02*
X155235000Y-106538748D01*
%TD*%
%LPC*%
D12*
X133900000Y-87000000D02*
X137900000Y-87000000D01*
X137900000Y-89900000D01*
X133900000Y-89900000D01*
X133900000Y-87000000D01*
G36*
X133900000Y-87000000D02*
G01*
X137900000Y-87000000D01*
X137900000Y-89900000D01*
X133900000Y-89900000D01*
X133900000Y-87000000D01*
G37*
D13*
%TO.C,REF\u002A\u002A*%
X151150000Y-89400000D02*
X151150000Y-95400000D01*
X150150000Y-96400000D01*
X139650000Y-96400000D01*
X138650000Y-95400000D01*
X138650000Y-89400000D01*
X139650000Y-88400000D01*
X150150000Y-88400000D01*
X151150000Y-89400000D01*
D14*
G36*
X150150000Y-91900000D02*
G01*
X149150000Y-91900000D01*
X149150000Y-90400000D01*
X147150000Y-90400000D01*
X146650000Y-90900000D01*
X146650000Y-91400000D01*
X147150000Y-91900000D01*
X145650000Y-91900000D01*
X145650000Y-89900000D01*
X146150000Y-89400000D01*
X150150000Y-89400000D01*
X150150000Y-91900000D01*
G37*
G36*
X150150000Y-95400000D02*
G01*
X146150000Y-95400000D01*
X145650000Y-94900000D01*
X145650000Y-93400000D01*
X146650000Y-93400000D01*
X146650000Y-93900000D01*
X147150000Y-94400000D01*
X149150000Y-94400000D01*
X149150000Y-92900000D01*
X147150000Y-92900000D01*
X146650000Y-93400000D01*
X145650000Y-93400000D01*
X145650000Y-92900000D01*
X146150000Y-92400000D01*
X145650000Y-91900000D01*
X150150000Y-91900000D01*
X150150000Y-95400000D01*
G37*
D12*
X140650000Y-93400000D02*
X141150000Y-93900000D01*
X141650000Y-93400000D01*
X141650000Y-89900000D01*
X142150000Y-89400000D01*
X142650000Y-89900000D01*
X142650000Y-93400000D01*
X143150000Y-93900000D01*
X143650000Y-93400000D01*
X143650000Y-89400000D01*
X144150000Y-89400000D01*
X144650000Y-89900000D01*
X144650000Y-94900000D01*
X144150000Y-95400000D01*
X142650000Y-95400000D01*
X142150000Y-94900000D01*
X141650000Y-95400000D01*
X140150000Y-95400000D01*
X139650000Y-94900000D01*
X139650000Y-89900000D01*
X140150000Y-89400000D01*
X140650000Y-89400000D01*
X140650000Y-93400000D01*
G36*
X140650000Y-93400000D02*
G01*
X141150000Y-93900000D01*
X141650000Y-93400000D01*
X141650000Y-89900000D01*
X142150000Y-89400000D01*
X142650000Y-89900000D01*
X142650000Y-93400000D01*
X143150000Y-93900000D01*
X143650000Y-93400000D01*
X143650000Y-89400000D01*
X144150000Y-89400000D01*
X144650000Y-89900000D01*
X144650000Y-94900000D01*
X144150000Y-95400000D01*
X142650000Y-95400000D01*
X142150000Y-94900000D01*
X141650000Y-95400000D01*
X140150000Y-95400000D01*
X139650000Y-94900000D01*
X139650000Y-89900000D01*
X140150000Y-89400000D01*
X140650000Y-89400000D01*
X140650000Y-93400000D01*
G37*
%TD*%
D15*
%TO.C,C18*%
X163147349Y-91100000D03*
D16*
X166647349Y-91100000D03*
%TD*%
D15*
%TO.C,C40*%
X164400000Y-115852651D03*
D16*
X164400000Y-112352651D03*
%TD*%
D15*
%TO.C,C41*%
X154055113Y-110600000D03*
D16*
X152055113Y-110600000D03*
%TD*%
D15*
%TO.C,C14*%
X164800000Y-83500000D03*
D16*
X162300000Y-83500000D03*
%TD*%
D15*
%TO.C,C29*%
X153600000Y-102382380D03*
D16*
X153600000Y-99882380D03*
%TD*%
D15*
%TO.C,C28*%
X166752651Y-105500000D03*
D16*
X163252651Y-105500000D03*
%TD*%
D17*
%TO.C,R1*%
X131175000Y-87900000D03*
X132825000Y-87900000D03*
%TD*%
D18*
%TO.C,R5*%
X134700000Y-86275000D03*
X134700000Y-87925000D03*
%TD*%
D19*
%TO.C,C11*%
X132700000Y-91175000D03*
X132700000Y-89625000D03*
%TD*%
D20*
%TO.C,C42*%
X156575000Y-112200000D03*
X155025000Y-112200000D03*
%TD*%
D21*
%TO.C,R6*%
X157600000Y-88625000D03*
X157600000Y-86975000D03*
%TD*%
D22*
%TO.C,C15*%
X156700000Y-94875000D03*
X156700000Y-91925000D03*
%TD*%
D23*
%TO.C,U4*%
X161162500Y-105200000D03*
X161162500Y-105850000D03*
X161162500Y-106500000D03*
X161162500Y-107150000D03*
X161162500Y-107800000D03*
D24*
X160100000Y-108862500D03*
X159450000Y-108862500D03*
X158800000Y-108862500D03*
X158150000Y-108862500D03*
X157500000Y-108862500D03*
D23*
X156437500Y-107800000D03*
X156437500Y-107150000D03*
X156437500Y-106500000D03*
X156437500Y-105850000D03*
X156437500Y-105200000D03*
D24*
X157500000Y-104137500D03*
X158150000Y-104137500D03*
X158800000Y-104137500D03*
X159450000Y-104137500D03*
X160100000Y-104137500D03*
D25*
X158800000Y-106500000D03*
%TD*%
D26*
%TO.C,C37*%
X158950000Y-112800000D03*
X160850000Y-112800000D03*
%TD*%
D27*
%TO.C,U2*%
X159225000Y-87350000D03*
X159875000Y-87350000D03*
X160525000Y-87350000D03*
X161175000Y-87350000D03*
X161175000Y-91650000D03*
X160525000Y-91650000D03*
X159875000Y-91650000D03*
X159225000Y-91650000D03*
D28*
X160200000Y-89500000D03*
%TD*%
D19*
%TO.C,C26*%
X158000000Y-102575000D03*
X158000000Y-101025000D03*
%TD*%
D17*
%TO.C,R2*%
X131275000Y-84700000D03*
X132925000Y-84700000D03*
%TD*%
D29*
%TO.C,C27*%
X162100000Y-102150000D03*
X162100000Y-97050000D03*
%TD*%
D30*
%TO.C,R4*%
X132925000Y-86300000D03*
X131275000Y-86300000D03*
%TD*%
D18*
%TO.C,R3*%
X134600000Y-81275000D03*
X134600000Y-82925000D03*
%TD*%
D31*
%TO.C,C9*%
X138800000Y-85525000D03*
X138800000Y-87075000D03*
%TD*%
D22*
%TO.C,C17*%
X163200000Y-88900000D03*
X163200000Y-85950000D03*
%TD*%
D32*
%TO.C,C1*%
X133200000Y-113600000D03*
X138600000Y-113600000D03*
%TD*%
D33*
%TO.C,C38*%
X158925000Y-114600000D03*
X160475000Y-114600000D03*
%TD*%
D17*
%TO.C,R8*%
X158475000Y-83900000D03*
X160125000Y-83900000D03*
%TD*%
D19*
%TO.C,C13*%
X160300000Y-94975000D03*
X160300000Y-93425000D03*
%TD*%
%TO.C,C16*%
X158700000Y-94975000D03*
X158700000Y-93425000D03*
%TD*%
D34*
%TO.C,U6*%
X156300000Y-118462500D03*
X155650000Y-118462500D03*
X155000000Y-118462500D03*
X154350000Y-118462500D03*
X153700000Y-118462500D03*
D35*
X152637500Y-117400000D03*
X152637500Y-116750000D03*
X152637500Y-116100000D03*
X152637500Y-115450000D03*
X152637500Y-114800000D03*
D34*
X153700000Y-113737500D03*
X154350000Y-113737500D03*
X155000000Y-113737500D03*
X155650000Y-113737500D03*
X156300000Y-113737500D03*
D35*
X157362500Y-114800000D03*
X157362500Y-115450000D03*
X157362500Y-116100000D03*
X157362500Y-116750000D03*
X157362500Y-117400000D03*
D25*
X155000000Y-116100000D03*
%TD*%
D33*
%TO.C,C12*%
X134625000Y-84400000D03*
X136175000Y-84400000D03*
%TD*%
D19*
%TO.C,C8*%
X136200000Y-82875000D03*
X136200000Y-81325000D03*
%TD*%
D33*
%TO.C,C19*%
X158525000Y-85500000D03*
X160075000Y-85500000D03*
%TD*%
D36*
%TO.C,C39*%
X159025000Y-117700000D03*
X161975000Y-117700000D03*
%TD*%
D22*
%TO.C,C25*%
X155900000Y-102475000D03*
X155900000Y-99525000D03*
%TD*%
D37*
%TO.C,C30*%
X154500000Y-105850000D03*
X154500000Y-107750000D03*
%TD*%
%LPD*%
M02*
