%TF.GenerationSoftware,KiCad,Pcbnew,8.0.3*%
%TF.CreationDate,2024-07-12T17:44:37+02:00*%
%TF.ProjectId,CleanLVSupply,436c6561-6e4c-4565-9375-70706c792e6b,rev?*%
%TF.SameCoordinates,Original*%
%TF.FileFunction,Copper,L4,Bot*%
%TF.FilePolarity,Positive*%
%FSLAX46Y46*%
G04 Gerber Fmt 4.6, Leading zero omitted, Abs format (unit mm)*
G04 Created by KiCad (PCBNEW 8.0.3) date 2024-07-12 17:44:37*
%MOMM*%
%LPD*%
G01*
G04 APERTURE LIST*
G04 Aperture macros list*
%AMRoundRect*
0 Rectangle with rounded corners*
0 $1 Rounding radius*
0 $2 $3 $4 $5 $6 $7 $8 $9 X,Y pos of 4 corners*
0 Add a 4 corners polygon primitive as box body*
4,1,4,$2,$3,$4,$5,$6,$7,$8,$9,$2,$3,0*
0 Add four circle primitives for the rounded corners*
1,1,$1+$1,$2,$3*
1,1,$1+$1,$4,$5*
1,1,$1+$1,$6,$7*
1,1,$1+$1,$8,$9*
0 Add four rect primitives between the rounded corners*
20,1,$1+$1,$2,$3,$4,$5,0*
20,1,$1+$1,$4,$5,$6,$7,0*
20,1,$1+$1,$6,$7,$8,$9,0*
20,1,$1+$1,$8,$9,$2,$3,0*%
G04 Aperture macros list end*
%TA.AperFunction,EtchedComponent*%
%ADD10C,0.200000*%
%TD*%
%TA.AperFunction,ComponentPad*%
%ADD11R,1.600000X1.600000*%
%TD*%
%TA.AperFunction,ComponentPad*%
%ADD12C,1.600000*%
%TD*%
%TA.AperFunction,SMDPad,CuDef*%
%ADD13RoundRect,0.200000X-0.200000X-0.275000X0.200000X-0.275000X0.200000X0.275000X-0.200000X0.275000X0*%
%TD*%
%TA.AperFunction,SMDPad,CuDef*%
%ADD14RoundRect,0.200000X-0.275000X0.200000X-0.275000X-0.200000X0.275000X-0.200000X0.275000X0.200000X0*%
%TD*%
%TA.AperFunction,SMDPad,CuDef*%
%ADD15RoundRect,0.225000X0.250000X-0.225000X0.250000X0.225000X-0.250000X0.225000X-0.250000X-0.225000X0*%
%TD*%
%TA.AperFunction,SMDPad,CuDef*%
%ADD16RoundRect,0.225000X0.225000X0.250000X-0.225000X0.250000X-0.225000X-0.250000X0.225000X-0.250000X0*%
%TD*%
%TA.AperFunction,SMDPad,CuDef*%
%ADD17RoundRect,0.200000X0.275000X-0.200000X0.275000X0.200000X-0.275000X0.200000X-0.275000X-0.200000X0*%
%TD*%
%TA.AperFunction,SMDPad,CuDef*%
%ADD18RoundRect,0.250000X0.650000X-0.325000X0.650000X0.325000X-0.650000X0.325000X-0.650000X-0.325000X0*%
%TD*%
%TA.AperFunction,SMDPad,CuDef*%
%ADD19RoundRect,0.087500X0.425000X0.087500X-0.425000X0.087500X-0.425000X-0.087500X0.425000X-0.087500X0*%
%TD*%
%TA.AperFunction,SMDPad,CuDef*%
%ADD20RoundRect,0.087500X0.087500X0.425000X-0.087500X0.425000X-0.087500X-0.425000X0.087500X-0.425000X0*%
%TD*%
%TA.AperFunction,HeatsinkPad*%
%ADD21R,3.150000X3.150000*%
%TD*%
%TA.AperFunction,SMDPad,CuDef*%
%ADD22RoundRect,0.250000X-0.250000X-0.475000X0.250000X-0.475000X0.250000X0.475000X-0.250000X0.475000X0*%
%TD*%
%TA.AperFunction,SMDPad,CuDef*%
%ADD23RoundRect,0.125000X-0.125000X0.600000X-0.125000X-0.600000X0.125000X-0.600000X0.125000X0.600000X0*%
%TD*%
%TA.AperFunction,HeatsinkPad*%
%ADD24R,1.890000X1.570000*%
%TD*%
%TA.AperFunction,SMDPad,CuDef*%
%ADD25RoundRect,0.250000X2.450000X-0.650000X2.450000X0.650000X-2.450000X0.650000X-2.450000X-0.650000X0*%
%TD*%
%TA.AperFunction,SMDPad,CuDef*%
%ADD26RoundRect,0.200000X0.200000X0.275000X-0.200000X0.275000X-0.200000X-0.275000X0.200000X-0.275000X0*%
%TD*%
%TA.AperFunction,SMDPad,CuDef*%
%ADD27RoundRect,0.225000X-0.250000X0.225000X-0.250000X-0.225000X0.250000X-0.225000X0.250000X0.225000X0*%
%TD*%
%TA.AperFunction,SMDPad,CuDef*%
%ADD28RoundRect,0.250000X-1.500000X-0.550000X1.500000X-0.550000X1.500000X0.550000X-1.500000X0.550000X0*%
%TD*%
%TA.AperFunction,SMDPad,CuDef*%
%ADD29RoundRect,0.225000X-0.225000X-0.250000X0.225000X-0.250000X0.225000X0.250000X-0.225000X0.250000X0*%
%TD*%
%TA.AperFunction,SMDPad,CuDef*%
%ADD30RoundRect,0.087500X0.087500X-0.425000X0.087500X0.425000X-0.087500X0.425000X-0.087500X-0.425000X0*%
%TD*%
%TA.AperFunction,SMDPad,CuDef*%
%ADD31RoundRect,0.087500X0.425000X-0.087500X0.425000X0.087500X-0.425000X0.087500X-0.425000X-0.087500X0*%
%TD*%
%TA.AperFunction,SMDPad,CuDef*%
%ADD32RoundRect,0.250000X-0.325000X-1.100000X0.325000X-1.100000X0.325000X1.100000X-0.325000X1.100000X0*%
%TD*%
%TA.AperFunction,SMDPad,CuDef*%
%ADD33RoundRect,0.250000X-0.475000X0.250000X-0.475000X-0.250000X0.475000X-0.250000X0.475000X0.250000X0*%
%TD*%
%TA.AperFunction,ViaPad*%
%ADD34C,0.450000*%
%TD*%
%TA.AperFunction,Conductor*%
%ADD35C,0.500000*%
%TD*%
%TA.AperFunction,Conductor*%
%ADD36C,0.200000*%
%TD*%
%TA.AperFunction,Conductor*%
%ADD37C,0.150000*%
%TD*%
%TA.AperFunction,Conductor*%
%ADD38C,0.300000*%
%TD*%
%TA.AperFunction,Conductor*%
%ADD39C,1.000000*%
%TD*%
%TA.AperFunction,Conductor*%
%ADD40C,0.250000*%
%TD*%
%TA.AperFunction,Conductor*%
%ADD41C,0.800000*%
%TD*%
%TA.AperFunction,Conductor*%
%ADD42C,2.000000*%
%TD*%
%TA.AperFunction,Conductor*%
%ADD43C,1.500000*%
%TD*%
%TA.AperFunction,Conductor*%
%ADD44C,0.650000*%
%TD*%
G04 APERTURE END LIST*
D10*
%TO.C,REF\u002A\u002A*%
X151650000Y-88900000D02*
X151650000Y-95900000D01*
X150650000Y-96900000D01*
X139150000Y-96900000D01*
X138150000Y-95900000D01*
X138150000Y-88900000D01*
X139150000Y-87900000D01*
X150650000Y-87900000D01*
X151650000Y-88900000D01*
%TA.AperFunction,EtchedComponent*%
G36*
X151650000Y-88900000D02*
G01*
X151650000Y-95900000D01*
X150650000Y-96900000D01*
X139150000Y-96900000D01*
X138150000Y-95900000D01*
X138150000Y-88900000D01*
X139150000Y-87900000D01*
X150650000Y-87900000D01*
X151650000Y-88900000D01*
G37*
%TD.AperFunction*%
%TD*%
D11*
%TO.P,C18,1*%
%TO.N,GND*%
X163147349Y-91100000D03*
D12*
%TO.P,C18,2*%
%TO.N,-15V*%
X166647349Y-91100000D03*
%TD*%
D11*
%TO.P,C40,1*%
%TO.N,+5V*%
X164400000Y-115852651D03*
D12*
%TO.P,C40,2*%
%TO.N,GND*%
X164400000Y-112352651D03*
%TD*%
D11*
%TO.P,C41,1*%
%TO.N,Net-(C41-Pad1)*%
X154055113Y-110600000D03*
D12*
%TO.P,C41,2*%
%TO.N,GND*%
X152055113Y-110600000D03*
%TD*%
D11*
%TO.P,C14,1*%
%TO.N,GND*%
X164800000Y-83500000D03*
D12*
%TO.P,C14,2*%
%TO.N,Net-(C14-Pad2)*%
X162300000Y-83500000D03*
%TD*%
D11*
%TO.P,C29,1*%
%TO.N,Net-(C29-Pad1)*%
X153600000Y-102382380D03*
D12*
%TO.P,C29,2*%
%TO.N,GND*%
X153600000Y-99882380D03*
%TD*%
D11*
%TO.P,C28,1*%
%TO.N,+15V*%
X166752651Y-105500000D03*
D12*
%TO.P,C28,2*%
%TO.N,GND*%
X163252651Y-105500000D03*
%TD*%
D13*
%TO.P,R1,1*%
%TO.N,GND*%
X131175000Y-87900000D03*
%TO.P,R1,2*%
%TO.N,Net-(U1-FB)*%
X132825000Y-87900000D03*
%TD*%
D14*
%TO.P,R5,1*%
%TO.N,Net-(U1-FB)*%
X134700000Y-86275000D03*
%TO.P,R5,2*%
%TO.N,/-15V Supply/-17V_SW*%
X134700000Y-87925000D03*
%TD*%
D15*
%TO.P,C11,1*%
%TO.N,Net-(U1-SS)*%
X132700000Y-91175000D03*
%TO.P,C11,2*%
%TO.N,/-15V Supply/-17V_SW*%
X132700000Y-89625000D03*
%TD*%
D16*
%TO.P,C42,1*%
%TO.N,Net-(U6-NR)*%
X156575000Y-112200000D03*
%TO.P,C42,2*%
%TO.N,GND*%
X155025000Y-112200000D03*
%TD*%
D17*
%TO.P,R6,1*%
%TO.N,GND*%
X157600000Y-88625000D03*
%TO.P,R6,2*%
%TO.N,Net-(U2-FB)*%
X157600000Y-86975000D03*
%TD*%
D18*
%TO.P,C15,1*%
%TO.N,GND*%
X156700000Y-94875000D03*
%TO.P,C15,2*%
%TO.N,Net-(U2-EN)*%
X156700000Y-91925000D03*
%TD*%
D19*
%TO.P,U4,1,OUT*%
%TO.N,+15V*%
X161162500Y-105200000D03*
%TO.P,U4,2,NC*%
%TO.N,unconnected-(U4-NC-Pad2)*%
X161162500Y-105850000D03*
%TO.P,U4,3,SENSE/FB*%
%TO.N,+15V*%
X161162500Y-106500000D03*
%TO.P,U4,4,6P4V2*%
%TO.N,GND*%
X161162500Y-107150000D03*
%TO.P,U4,5,6P4V1*%
X161162500Y-107800000D03*
D20*
%TO.P,U4,6,3P2V*%
%TO.N,unconnected-(U4-3P2V-Pad6)*%
X160100000Y-108862500D03*
%TO.P,U4,7,GND*%
%TO.N,GND*%
X159450000Y-108862500D03*
%TO.P,U4,8,1P6V*%
%TO.N,unconnected-(U4-1P6V-Pad8)*%
X158800000Y-108862500D03*
%TO.P,U4,9,0P8V*%
%TO.N,GND*%
X158150000Y-108862500D03*
%TO.P,U4,10,0P4V*%
%TO.N,unconnected-(U4-0P4V-Pad10)*%
X157500000Y-108862500D03*
D19*
%TO.P,U4,11,0P2V*%
%TO.N,unconnected-(U4-0P2V-Pad11)*%
X156437500Y-107800000D03*
%TO.P,U4,12,0P1V*%
%TO.N,unconnected-(U4-0P1V-Pad12)*%
X156437500Y-107150000D03*
%TO.P,U4,13,EN*%
%TO.N,Net-(U4-EN)*%
X156437500Y-106500000D03*
%TO.P,U4,14,NR*%
%TO.N,Net-(U4-NR)*%
X156437500Y-105850000D03*
%TO.P,U4,15,IN*%
%TO.N,Net-(U4-EN)*%
X156437500Y-105200000D03*
D20*
%TO.P,U4,16,IN*%
X157500000Y-104137500D03*
%TO.P,U4,17,NC*%
%TO.N,GND*%
X158150000Y-104137500D03*
%TO.P,U4,18,NC*%
X158800000Y-104137500D03*
%TO.P,U4,19,NC*%
X159450000Y-104137500D03*
%TO.P,U4,20,OUT*%
%TO.N,+15V*%
X160100000Y-104137500D03*
D21*
%TO.P,U4,21,EP*%
%TO.N,GND*%
X158800000Y-106500000D03*
%TD*%
D22*
%TO.P,C37,1*%
%TO.N,Net-(U6-EN)*%
X158950000Y-112800000D03*
%TO.P,C37,2*%
%TO.N,GND*%
X160850000Y-112800000D03*
%TD*%
D23*
%TO.P,U2,1,OUT*%
%TO.N,-15V*%
X159225000Y-87350000D03*
%TO.P,U2,2,FB*%
%TO.N,Net-(U2-FB)*%
X159875000Y-87350000D03*
%TO.P,U2,3*%
%TO.N,N/C*%
X160525000Y-87350000D03*
%TO.P,U2,4,GND*%
%TO.N,GND*%
X161175000Y-87350000D03*
%TO.P,U2,5,EN*%
%TO.N,Net-(U2-EN)*%
X161175000Y-91650000D03*
%TO.P,U2,6,NR/SS*%
%TO.N,Net-(U2-NR{slash}SS)*%
X160525000Y-91650000D03*
%TO.P,U2,7*%
%TO.N,N/C*%
X159875000Y-91650000D03*
%TO.P,U2,8,IN*%
%TO.N,Net-(U2-EN)*%
X159225000Y-91650000D03*
D24*
%TO.P,U2,9,EP*%
%TO.N,GND*%
X160200000Y-89500000D03*
%TD*%
D15*
%TO.P,C26,1*%
%TO.N,Net-(U4-EN)*%
X158000000Y-102575000D03*
%TO.P,C26,2*%
%TO.N,GND*%
X158000000Y-101025000D03*
%TD*%
D13*
%TO.P,R2,1*%
%TO.N,Net-(U1-VCC)*%
X131275000Y-84700000D03*
%TO.P,R2,2*%
%TO.N,Net-(U1-RAMP)*%
X132925000Y-84700000D03*
%TD*%
D25*
%TO.P,C27,1*%
%TO.N,+15V*%
X162100000Y-102150000D03*
%TO.P,C27,2*%
%TO.N,GND*%
X162100000Y-97050000D03*
%TD*%
D26*
%TO.P,R4,1*%
%TO.N,Net-(U1-RT)*%
X132925000Y-86300000D03*
%TO.P,R4,2*%
%TO.N,/-15V Supply/-17V_SW*%
X131275000Y-86300000D03*
%TD*%
D14*
%TO.P,R3,1*%
%TO.N,Net-(C8-Pad2)*%
X134600000Y-81275000D03*
%TO.P,R3,2*%
%TO.N,Net-(U1-FB)*%
X134600000Y-82925000D03*
%TD*%
D27*
%TO.P,C9,1*%
%TO.N,Net-(U1-VCC)*%
X138800000Y-85525000D03*
%TO.P,C9,2*%
%TO.N,/-15V Supply/-17V_SW*%
X138800000Y-87075000D03*
%TD*%
D18*
%TO.P,C17,1*%
%TO.N,GND*%
X163200000Y-88900000D03*
%TO.P,C17,2*%
%TO.N,-15V*%
X163200000Y-85950000D03*
%TD*%
D28*
%TO.P,C1,1*%
%TO.N,+12V*%
X133200000Y-113600000D03*
%TO.P,C1,2*%
%TO.N,GND*%
X138600000Y-113600000D03*
%TD*%
D29*
%TO.P,C38,1*%
%TO.N,Net-(U6-EN)*%
X158925000Y-114600000D03*
%TO.P,C38,2*%
%TO.N,GND*%
X160475000Y-114600000D03*
%TD*%
D13*
%TO.P,R8,1*%
%TO.N,Net-(U2-FB)*%
X158475000Y-83900000D03*
%TO.P,R8,2*%
%TO.N,-15V*%
X160125000Y-83900000D03*
%TD*%
D15*
%TO.P,C13,1*%
%TO.N,GND*%
X160300000Y-94975000D03*
%TO.P,C13,2*%
%TO.N,Net-(U2-NR{slash}SS)*%
X160300000Y-93425000D03*
%TD*%
%TO.P,C16,1*%
%TO.N,GND*%
X158700000Y-94975000D03*
%TO.P,C16,2*%
%TO.N,Net-(U2-EN)*%
X158700000Y-93425000D03*
%TD*%
D30*
%TO.P,U6,1,OUT*%
%TO.N,+5V*%
X156300000Y-118462500D03*
%TO.P,U6,2,NC*%
%TO.N,unconnected-(U6-NC-Pad2)*%
X155650000Y-118462500D03*
%TO.P,U6,3,SENSE/FB*%
%TO.N,+5V*%
X155000000Y-118462500D03*
%TO.P,U6,4,6P4V2*%
%TO.N,unconnected-(U6-6P4V2-Pad4)*%
X154350000Y-118462500D03*
%TO.P,U6,5,6P4V1*%
%TO.N,unconnected-(U6-6P4V1-Pad5)*%
X153700000Y-118462500D03*
D31*
%TO.P,U6,6,3P2V*%
%TO.N,GND*%
X152637500Y-117400000D03*
%TO.P,U6,7,GND*%
X152637500Y-116750000D03*
%TO.P,U6,8,1P6V*%
%TO.N,unconnected-(U6-1P6V-Pad8)*%
X152637500Y-116100000D03*
%TO.P,U6,9,0P8V*%
%TO.N,unconnected-(U6-0P8V-Pad9)*%
X152637500Y-115450000D03*
%TO.P,U6,10,0P4V*%
%TO.N,GND*%
X152637500Y-114800000D03*
D30*
%TO.P,U6,11,0P2V*%
%TO.N,unconnected-(U6-0P2V-Pad11)*%
X153700000Y-113737500D03*
%TO.P,U6,12,0P1V*%
%TO.N,unconnected-(U6-0P1V-Pad12)*%
X154350000Y-113737500D03*
%TO.P,U6,13,EN*%
%TO.N,Net-(U6-EN)*%
X155000000Y-113737500D03*
%TO.P,U6,14,NR*%
%TO.N,Net-(U6-NR)*%
X155650000Y-113737500D03*
%TO.P,U6,15,IN*%
%TO.N,Net-(U6-EN)*%
X156300000Y-113737500D03*
D31*
%TO.P,U6,16,IN*%
X157362500Y-114800000D03*
%TO.P,U6,17,NC*%
%TO.N,GND*%
X157362500Y-115450000D03*
%TO.P,U6,18,NC*%
X157362500Y-116100000D03*
%TO.P,U6,19,NC*%
X157362500Y-116750000D03*
%TO.P,U6,20,OUT*%
%TO.N,+5V*%
X157362500Y-117400000D03*
D21*
%TO.P,U6,21,EP*%
%TO.N,GND*%
X155000000Y-116100000D03*
%TD*%
D29*
%TO.P,C12,1*%
%TO.N,Net-(U1-FB)*%
X134625000Y-84400000D03*
%TO.P,C12,2*%
%TO.N,Net-(U1-COMP)*%
X136175000Y-84400000D03*
%TD*%
D15*
%TO.P,C8,1*%
%TO.N,Net-(U1-COMP)*%
X136200000Y-82875000D03*
%TO.P,C8,2*%
%TO.N,Net-(C8-Pad2)*%
X136200000Y-81325000D03*
%TD*%
D29*
%TO.P,C19,1*%
%TO.N,Net-(U2-FB)*%
X158525000Y-85500000D03*
%TO.P,C19,2*%
%TO.N,-15V*%
X160075000Y-85500000D03*
%TD*%
D32*
%TO.P,C39,1*%
%TO.N,+5V*%
X159025000Y-117700000D03*
%TO.P,C39,2*%
%TO.N,GND*%
X161975000Y-117700000D03*
%TD*%
D18*
%TO.P,C25,1*%
%TO.N,Net-(U4-EN)*%
X155900000Y-102475000D03*
%TO.P,C25,2*%
%TO.N,GND*%
X155900000Y-99525000D03*
%TD*%
D33*
%TO.P,C30,1*%
%TO.N,Net-(U4-NR)*%
X154500000Y-105850000D03*
%TO.P,C30,2*%
%TO.N,GND*%
X154500000Y-107750000D03*
%TD*%
D34*
%TO.N,/-15V Supply/-17V_SW*%
X151000000Y-86700000D03*
X153720000Y-88080000D03*
X151470000Y-87940000D03*
X137600000Y-88400000D03*
X153760000Y-86100000D03*
X136500000Y-87300000D03*
X135680000Y-94100000D03*
X134200000Y-89500000D03*
X155400000Y-87600000D03*
X131770000Y-86560000D03*
X132700000Y-89600000D03*
X155400000Y-88600000D03*
X136500000Y-88400000D03*
X135300000Y-87300000D03*
X136500000Y-89500000D03*
X134250000Y-87380000D03*
X153740000Y-89230000D03*
X135300000Y-89500000D03*
X133710000Y-83860000D03*
X138800000Y-87100000D03*
X155400000Y-86600000D03*
X137600000Y-89500000D03*
X135300000Y-88400000D03*
X153710000Y-87120000D03*
X134200000Y-88400000D03*
X149600000Y-87080000D03*
X134600000Y-91200000D03*
X137600000Y-87300000D03*
%TO.N,Net-(U1-VCC)*%
X138800000Y-85525000D03*
%TO.N,Net-(U1-RAMP)*%
X132000000Y-85400000D03*
%TO.N,Net-(U1-SS)*%
X132700000Y-91175000D03*
%TO.N,Net-(U1-COMP)*%
X135600000Y-85400000D03*
%TO.N,Net-(U1-FB)*%
X134900000Y-85800000D03*
%TO.N,Net-(U2-EN)*%
X157300000Y-91600000D03*
X156120000Y-92259003D03*
X156120000Y-91630000D03*
X156700000Y-91925000D03*
X157280000Y-92230000D03*
%TO.N,Net-(U1-RT)*%
X134300000Y-85400000D03*
%TO.N,Net-(U4-EN)*%
X155900000Y-102500000D03*
X156400000Y-102200000D03*
X155400000Y-102800000D03*
X155400000Y-102200000D03*
X156400000Y-102800000D03*
%TO.N,Net-(U6-EN)*%
X149800000Y-110600000D03*
X149000000Y-110600000D03*
X149000000Y-109400000D03*
X149800000Y-109400000D03*
X149400000Y-110000000D03*
%TO.N,GND*%
X132800000Y-111300000D03*
X140300000Y-114700000D03*
X146000000Y-85400000D03*
X132800000Y-112120000D03*
X160000000Y-105300000D03*
X133600000Y-91000000D03*
X163200000Y-88900000D03*
X147500000Y-81700000D03*
X143700000Y-85400000D03*
X152300000Y-81600000D03*
X134400000Y-115900000D03*
X147300000Y-110060000D03*
X139700000Y-110500000D03*
X135770000Y-108040000D03*
X156020000Y-115400000D03*
X160400000Y-114500000D03*
X137600000Y-100700000D03*
X146670000Y-99550000D03*
X143480000Y-116880000D03*
X156130000Y-90830000D03*
X158800000Y-107700000D03*
X137920000Y-114030000D03*
X159600000Y-90000000D03*
X160800000Y-90000000D03*
X156000000Y-114700000D03*
X155090000Y-94140000D03*
X157600000Y-105300000D03*
X144690000Y-97570000D03*
X155540000Y-115050000D03*
X160000000Y-106500000D03*
X160800000Y-89400000D03*
X159600000Y-89400000D03*
X156700000Y-95000000D03*
X132160000Y-102880000D03*
X140300000Y-81700000D03*
X153210000Y-96200000D03*
X155100000Y-104790000D03*
X155400000Y-81300000D03*
X155080000Y-114690000D03*
X151000000Y-85125000D03*
X141300000Y-85000000D03*
X139800000Y-83700000D03*
X139300000Y-116500000D03*
X148800000Y-84600000D03*
X135400000Y-96800000D03*
X135580000Y-104390000D03*
X131760000Y-87900000D03*
X153000000Y-83500000D03*
X139700000Y-112600000D03*
X150000000Y-82700000D03*
X146000000Y-84100000D03*
X157300000Y-84450000D03*
X133580000Y-112110000D03*
X145140000Y-102320000D03*
X155400000Y-83000000D03*
X138900000Y-113900000D03*
X160200000Y-89700000D03*
X142600000Y-81700000D03*
X137250000Y-110600000D03*
X146750000Y-112850000D03*
X139700000Y-113300000D03*
X160000000Y-107700000D03*
X137400000Y-113300000D03*
X138200000Y-102300000D03*
X143700000Y-84100000D03*
X158800000Y-105300000D03*
X146170000Y-105070000D03*
X157600000Y-106500000D03*
X135400000Y-96000000D03*
X145400000Y-116000000D03*
X141410000Y-98310000D03*
X134700000Y-98400000D03*
X158820000Y-80980000D03*
X133600000Y-91600000D03*
X137600000Y-99900000D03*
X157600000Y-107700000D03*
X133570000Y-111300000D03*
X146910000Y-117030000D03*
X145000000Y-81700000D03*
X160800000Y-112700000D03*
X150630000Y-112560000D03*
X136800000Y-117500000D03*
X158800000Y-106500000D03*
X139700000Y-111300000D03*
X146050000Y-107600000D03*
X155080000Y-115410000D03*
X135300000Y-115900000D03*
X135700000Y-101000000D03*
%TO.N,+12V*%
X134300000Y-118600000D03*
X137100000Y-81200000D03*
X137500000Y-82800000D03*
X134800000Y-119200000D03*
X137100000Y-82200000D03*
X132800000Y-96300000D03*
X132200000Y-96700000D03*
X137600000Y-81700000D03*
X131780000Y-113200000D03*
X132800000Y-97200000D03*
X132324898Y-113446592D03*
X135300000Y-118600000D03*
X132830000Y-113130000D03*
X132830000Y-113790000D03*
X132200000Y-95800000D03*
X132300000Y-114100000D03*
X135800000Y-119200000D03*
X131803942Y-113786743D03*
%TD*%
D35*
%TO.N,/-15V Supply/-17V_SW*%
X132941421Y-89500000D02*
X134200000Y-89500000D01*
X138317158Y-87300000D02*
X137600000Y-87300000D01*
X132700000Y-89600000D02*
G75*
G02*
X132941421Y-89500009I241400J-241400D01*
G01*
X138800000Y-87100000D02*
G75*
G02*
X138317158Y-87299982I-482800J482800D01*
G01*
D36*
%TO.N,Net-(U1-VCC)*%
X136500000Y-80500000D02*
X134382842Y-80500000D01*
X138200000Y-81300000D02*
X138036397Y-81136397D01*
X133900000Y-80700000D02*
X133841422Y-80758578D01*
X138800000Y-85525000D02*
X138800000Y-82748528D01*
X132869150Y-83105851D02*
X131275000Y-84700000D01*
X133700000Y-81100000D02*
G75*
G02*
X132869149Y-83105850I-2836700J0D01*
G01*
X134382842Y-80500000D02*
G75*
G03*
X133899987Y-80699987I-42J-682800D01*
G01*
X138036397Y-81136397D02*
G75*
G03*
X136500000Y-80500002I-1536397J-1536403D01*
G01*
X138800000Y-82748528D02*
G75*
G03*
X138200008Y-81299992I-2048500J28D01*
G01*
X133841422Y-80758578D02*
G75*
G03*
X133699987Y-81100000I341378J-341422D01*
G01*
D37*
%TO.N,Net-(U1-RAMP)*%
X132000000Y-85400000D02*
X132058579Y-85400000D01*
X132342678Y-85282323D02*
X132925000Y-84700000D01*
X132058579Y-85400000D02*
G75*
G03*
X132342693Y-85282338I21J401800D01*
G01*
D36*
%TO.N,Net-(C8-Pad2)*%
X134600000Y-81275000D02*
X136079290Y-81275000D01*
X136079290Y-81275000D02*
G75*
G02*
X136200003Y-81324997I10J-170700D01*
G01*
%TO.N,Net-(U1-COMP)*%
X135600000Y-85400000D02*
X135598006Y-85352375D01*
X135863440Y-84711559D02*
X136175000Y-84400000D01*
X136175000Y-84400000D02*
X136175000Y-82935355D01*
X135598006Y-85352375D02*
G75*
G02*
X135863444Y-84711563I906294J-25D01*
G01*
X136175000Y-82935355D02*
G75*
G02*
X136200013Y-82875013I85400J-45D01*
G01*
%TO.N,Net-(U1-FB)*%
X134700000Y-86275000D02*
X134705545Y-86269455D01*
X134625000Y-84400000D02*
X134625000Y-82985355D01*
X133769627Y-86660373D02*
X133033597Y-87396403D01*
X134900000Y-85063908D02*
X134900000Y-85800000D01*
X134700000Y-86275000D02*
G75*
G03*
X133769637Y-86660383I0J-1315700D01*
G01*
X133033597Y-87396403D02*
G75*
G03*
X132825002Y-87900000I503603J-503597D01*
G01*
X134625000Y-82985355D02*
G75*
G03*
X134599987Y-82925013I-85400J-45D01*
G01*
X134625000Y-84400000D02*
G75*
G02*
X134899996Y-85063908I-663900J-663900D01*
G01*
X134705545Y-86269455D02*
G75*
G03*
X134900003Y-85800000I-469445J469455D01*
G01*
D38*
%TO.N,Net-(U2-EN)*%
X159028916Y-93753916D02*
X158700000Y-93425000D01*
D39*
X157030000Y-92890000D02*
X157324644Y-93184644D01*
D38*
X160677868Y-94210000D02*
X160130000Y-94210000D01*
D39*
X156700000Y-91925000D02*
X156700000Y-92093310D01*
D38*
X161175000Y-91650000D02*
X161175000Y-93734082D01*
D39*
X157904914Y-93425000D02*
X158700000Y-93425000D01*
D35*
X159225000Y-91650000D02*
X159225000Y-92157538D01*
D39*
X156700000Y-92093310D02*
G75*
G03*
X157030003Y-92889997I1126700J10D01*
G01*
D35*
X159225000Y-92157538D02*
G75*
G02*
X158699989Y-93424989I-1792500J38D01*
G01*
D39*
X157324644Y-93184644D02*
G75*
G03*
X157904914Y-93424997I580256J580244D01*
G01*
D38*
X160130000Y-94210000D02*
G75*
G02*
X159028909Y-93753923I0J1557200D01*
G01*
X161040000Y-94060000D02*
G75*
G02*
X160677868Y-94209987I-362100J362100D01*
G01*
X161175000Y-93734082D02*
G75*
G02*
X161040006Y-94060006I-460900J-18D01*
G01*
D35*
%TO.N,Net-(U2-NR{slash}SS)*%
X160525000Y-91650000D02*
X160525000Y-92881802D01*
X160525000Y-92881802D02*
G75*
G02*
X160299999Y-93424999I-768200J2D01*
G01*
D38*
%TO.N,Net-(U2-FB)*%
X158525000Y-84020710D02*
X158525000Y-85500000D01*
D40*
X158541421Y-88211422D02*
X158610000Y-88280000D01*
X157860000Y-87260000D02*
X158350502Y-87750502D01*
X158899705Y-88400000D02*
X159340295Y-88400000D01*
X157600000Y-86975000D02*
X158136091Y-86438909D01*
X159875000Y-87688518D02*
X159875000Y-87350000D01*
X157617678Y-87017677D02*
X157860000Y-87260000D01*
X158136091Y-86438909D02*
G75*
G03*
X158525005Y-85500000I-938891J938909D01*
G01*
X158610000Y-88280000D02*
G75*
G03*
X158899705Y-88399998I289700J289700D01*
G01*
X157600000Y-86975000D02*
G75*
G03*
X157617689Y-87017666I60300J0D01*
G01*
X159340295Y-88400000D02*
G75*
G03*
X159630002Y-88280002I5J409700D01*
G01*
D38*
X158475000Y-83900000D02*
G75*
G02*
X158524996Y-84020710I-120700J-120700D01*
G01*
D40*
X158400000Y-87870000D02*
G75*
G03*
X158541430Y-88211413I482800J0D01*
G01*
X158350502Y-87750502D02*
G75*
G02*
X158399999Y-87870000I-119502J-119498D01*
G01*
X159630000Y-88280000D02*
G75*
G03*
X159875007Y-87688518I-591500J591500D01*
G01*
D36*
%TO.N,Net-(U1-RT)*%
X133489125Y-85735876D02*
X132925000Y-86300000D01*
X134300000Y-85400000D02*
G75*
G03*
X133489135Y-85735886I0J-1146700D01*
G01*
D40*
%TO.N,Net-(U4-EN)*%
X155540000Y-106600000D02*
X155510234Y-106627391D01*
D41*
X158000000Y-102575000D02*
X156141421Y-102575000D01*
D35*
X156437500Y-105200000D02*
X156437500Y-104668167D01*
D39*
X155900000Y-102634193D02*
X155900000Y-102475000D01*
D40*
X156437500Y-106500000D02*
X155781421Y-106500000D01*
X153230000Y-106207574D02*
X153230000Y-105433847D01*
X153422010Y-106552010D02*
X153337782Y-106467782D01*
X155190088Y-106760000D02*
X153924142Y-106760000D01*
X153360000Y-105120000D02*
X153746154Y-104733846D01*
D35*
X156982309Y-104137500D02*
X157500000Y-104137500D01*
D40*
X153746154Y-104733846D02*
G75*
G02*
X156170246Y-103729776I2424046J-2424054D01*
G01*
X153337782Y-106467782D02*
G75*
G02*
X153230022Y-106207574I260218J260182D01*
G01*
X153924142Y-106760000D02*
G75*
G02*
X153421993Y-106552027I-42J710100D01*
G01*
X153230000Y-105433847D02*
G75*
G02*
X153359986Y-105119986I443800J47D01*
G01*
D39*
X156590000Y-104300000D02*
G75*
G02*
X155900003Y-102634193I1665800J1665800D01*
G01*
D40*
X155510234Y-106627391D02*
G75*
G02*
X155190088Y-106759978I-320134J320191D01*
G01*
X155781421Y-106500000D02*
G75*
G03*
X155539994Y-106599994I-21J-341400D01*
G01*
D35*
X156437500Y-104668167D02*
G75*
G02*
X156590009Y-104300009I520700J-33D01*
G01*
X156590000Y-104300000D02*
G75*
G02*
X156982309Y-104137504I392300J-392300D01*
G01*
D41*
X156141421Y-102575000D02*
G75*
G02*
X155899994Y-102475006I-21J341400D01*
G01*
D38*
%TO.N,Net-(U4-NR)*%
X156437500Y-105850000D02*
X154500000Y-105850000D01*
D35*
%TO.N,Net-(U6-EN)*%
X157362500Y-114277184D02*
X157362500Y-114800000D01*
D40*
X156183553Y-111096447D02*
X156444938Y-110835062D01*
D39*
X157071594Y-110730000D02*
X157040000Y-110730000D01*
D40*
X155810000Y-112297158D02*
X155810000Y-111998284D01*
D39*
X157220718Y-113934892D02*
X157935312Y-113220298D01*
D35*
X157180000Y-113890000D02*
X157220718Y-113934892D01*
D41*
X158925000Y-114600000D02*
X158925000Y-112860355D01*
D39*
X158504523Y-111724522D02*
X157820000Y-111040000D01*
X151199827Y-109030000D02*
X150654558Y-109030000D01*
X150220000Y-109210000D02*
X149451214Y-109978786D01*
X156869290Y-110659289D02*
X155740000Y-109530000D01*
X155740000Y-109530000D02*
X155593554Y-109383554D01*
D40*
X155245720Y-113144281D02*
X155610000Y-112780000D01*
D35*
X156300000Y-113737500D02*
X156811833Y-113737500D01*
D39*
X154740000Y-109030000D02*
X151199827Y-109030000D01*
X150654558Y-109030000D02*
G75*
G03*
X150220012Y-109210012I42J-614600D01*
G01*
X155593554Y-109383554D02*
G75*
G03*
X154740000Y-109029998I-853554J-853546D01*
G01*
X157040000Y-110730000D02*
G75*
G02*
X156869294Y-110659285I0J241400D01*
G01*
D35*
X157220718Y-113934892D02*
G75*
G02*
X157362504Y-114277184I-342318J-342308D01*
G01*
D41*
X158925000Y-112860355D02*
G75*
G02*
X158950013Y-112800013I85400J-45D01*
G01*
D42*
X149451214Y-109978786D02*
G75*
G02*
X149400000Y-110000008I-51214J51186D01*
G01*
D40*
X155000000Y-113737500D02*
G75*
G02*
X155245728Y-113144289I838900J0D01*
G01*
X155810000Y-111998284D02*
G75*
G02*
X156183559Y-111096453I1275400J-16D01*
G01*
D35*
X156811833Y-113737500D02*
G75*
G02*
X157179991Y-113890009I-33J-520700D01*
G01*
D40*
X155610000Y-112780000D02*
G75*
G03*
X155809982Y-112297158I-482800J482800D01*
G01*
D39*
X158950000Y-112800000D02*
G75*
G03*
X158504532Y-111724513I-1521000J0D01*
G01*
X157935312Y-113220298D02*
G75*
G02*
X158950000Y-112800005I1014688J-1014702D01*
G01*
X157820000Y-111040000D02*
G75*
G03*
X157071594Y-110730003I-748400J-748400D01*
G01*
D40*
X156444938Y-110835062D02*
G75*
G02*
X156869290Y-110659278I424362J-424338D01*
G01*
%TO.N,Net-(U6-NR)*%
X155924004Y-113075996D02*
X156415901Y-112584099D01*
X156415901Y-112584099D02*
G75*
G03*
X156574999Y-112200000I-384101J384099D01*
G01*
X155650000Y-113737500D02*
G75*
G02*
X155924006Y-113075998I935500J0D01*
G01*
D35*
%TO.N,GND*%
X158800000Y-104137500D02*
X158811312Y-104125030D01*
D39*
X160200000Y-89500000D02*
X160700000Y-89500000D01*
X160700000Y-89500000D02*
X160800000Y-89400000D01*
X160900000Y-89500000D02*
X163147349Y-89500000D01*
D38*
X151420000Y-114948822D02*
X151420000Y-115501716D01*
X157130000Y-109600000D02*
X155903346Y-108373346D01*
X158100000Y-109860000D02*
X157757695Y-109860000D01*
D39*
X156076906Y-94616906D02*
X155510000Y-94050000D01*
D35*
X160626776Y-89323223D02*
X160960000Y-88990000D01*
D41*
X160850000Y-112800000D02*
X160800000Y-112700000D01*
D39*
X163147349Y-89027110D02*
X163147349Y-89500000D01*
D38*
X152637500Y-117400000D02*
X153320000Y-117400000D01*
X159450000Y-108862500D02*
X159450000Y-108069238D01*
X151420000Y-115501716D02*
X151420000Y-115937158D01*
X158577756Y-89030000D02*
X159380000Y-89030000D01*
D41*
X161340000Y-116190000D02*
X161356281Y-116206281D01*
D39*
X155510000Y-94050000D02*
X155457777Y-93994580D01*
D41*
X160475000Y-114600000D02*
X160475000Y-114932367D01*
D39*
X156804264Y-90040000D02*
X158896325Y-90040000D01*
D38*
X160200000Y-89500000D02*
X159977488Y-89277488D01*
D35*
X156924264Y-99949264D02*
X158000000Y-101025000D01*
D38*
X161162500Y-107800000D02*
X160490000Y-107800000D01*
D35*
X158824191Y-104093961D02*
X158825000Y-104077145D01*
D38*
X155340000Y-108140000D02*
X155233257Y-108137385D01*
D35*
X160300000Y-94975000D02*
X158700000Y-94975000D01*
D43*
X158800000Y-105300000D02*
X158800000Y-106500000D01*
D38*
X159450000Y-109542721D02*
X159450000Y-108862500D01*
D43*
X158800000Y-104137500D02*
X158800000Y-105300000D01*
D39*
X163147349Y-89500000D02*
X163147349Y-91100000D01*
D38*
X153968700Y-117131299D02*
X155000000Y-116100000D01*
X152165596Y-113384404D02*
X151998995Y-113551005D01*
X161162500Y-107150000D02*
X160369238Y-107150000D01*
D35*
X158811312Y-104125030D02*
X158824191Y-104093961D01*
D39*
X154830000Y-92478993D02*
X154830000Y-92010000D01*
X160800000Y-89400000D02*
X160900000Y-89500000D01*
D38*
X154642817Y-107892817D02*
X154500000Y-107750000D01*
X158150000Y-108862500D02*
X158150000Y-109739290D01*
D35*
X158930000Y-103823653D02*
X158930000Y-101000000D01*
D38*
X152637500Y-114800000D02*
X153320000Y-114800000D01*
D41*
X158328185Y-115700000D02*
X160157036Y-115700000D01*
D43*
X155000000Y-116100000D02*
X157362500Y-116100000D01*
D38*
X159886038Y-107586038D02*
X158800000Y-106500000D01*
X158100000Y-109860000D02*
X159118579Y-109860000D01*
X152416690Y-116750000D02*
X152637500Y-116750000D01*
D39*
X155374472Y-90695528D02*
X155482512Y-90587488D01*
D38*
X158150000Y-108862500D02*
X158150000Y-108069238D01*
D35*
X161704213Y-97050000D02*
X162100000Y-97050000D01*
X161175000Y-87350000D02*
X161175000Y-88470945D01*
X158930000Y-101000000D02*
X158930000Y-98919116D01*
D41*
X160800000Y-112700000D02*
X160850000Y-113694670D01*
D38*
X152637500Y-116750000D02*
X153430762Y-116750000D01*
X153968700Y-115068701D02*
X155000000Y-116100000D01*
D44*
X131175000Y-87900000D02*
X131760000Y-87900000D01*
D35*
X158000000Y-101025000D02*
X158869645Y-101025000D01*
D38*
X160490000Y-107800000D02*
X160397475Y-107797882D01*
D39*
X156941421Y-94975000D02*
X158700000Y-94975000D01*
D38*
X157757695Y-109860000D02*
G75*
G02*
X157130001Y-109599999I5J887700D01*
G01*
D39*
X156700000Y-94875000D02*
G75*
G02*
X156076904Y-94616908I0J881200D01*
G01*
D38*
X158150000Y-109739290D02*
G75*
G02*
X158100003Y-109860003I-170700J-10D01*
G01*
X157600000Y-88625000D02*
G75*
G03*
X158577756Y-89030018I977800J977800D01*
G01*
X155000000Y-112200000D02*
G75*
G03*
X152165588Y-113384396I25300J-4044300D01*
G01*
X153430762Y-116750000D02*
G75*
G03*
X155000011Y-116100011I38J2219200D01*
G01*
X160000000Y-107700000D02*
G75*
G02*
X159886027Y-107586045I168000J282000D01*
G01*
D39*
X155482512Y-90587488D02*
G75*
G02*
X156804264Y-90039963I1321788J-1321712D01*
G01*
D38*
X159450000Y-108069238D02*
G75*
G03*
X158800011Y-106499989I-2219200J38D01*
G01*
X151420000Y-115937158D02*
G75*
G03*
X151619987Y-116420013I682800J-42D01*
G01*
X155233257Y-108137385D02*
G75*
G02*
X154642843Y-107892791I43J834985D01*
G01*
D35*
X158869645Y-101025000D02*
G75*
G03*
X158929987Y-100999987I-45J85400D01*
G01*
D38*
X153320000Y-117400000D02*
G75*
G03*
X153968700Y-117131299I0J917400D01*
G01*
X159977488Y-89277488D02*
G75*
G03*
X159600088Y-89399943I-205188J-10412D01*
G01*
D35*
X155900000Y-99525000D02*
G75*
G02*
X156924258Y-99949270I0J-1448500D01*
G01*
D41*
X160850000Y-113694670D02*
G75*
G02*
X160399977Y-114499948I-760600J-103330D01*
G01*
D38*
X155025000Y-112200000D02*
G75*
G03*
X155000000Y-112200000I-12500J-3980959D01*
G01*
X159118579Y-109860000D02*
G75*
G03*
X159360006Y-109760006I21J341400D01*
G01*
D39*
X158896325Y-90040000D02*
G75*
G03*
X160199993Y-89499993I-25J1843700D01*
G01*
D38*
X151620000Y-116420000D02*
G75*
G03*
X152416690Y-116750004I796700J796700D01*
G01*
D39*
X155457777Y-93994580D02*
G75*
G02*
X154830016Y-92478993I1515623J1515580D01*
G01*
D41*
X157362500Y-116100000D02*
G75*
G02*
X158328185Y-115699994I965700J-965700D01*
G01*
D38*
X153320000Y-114800000D02*
G75*
G02*
X153968700Y-115068701I0J-917400D01*
G01*
D35*
X159290000Y-98050000D02*
G75*
G02*
X161704213Y-97050006I2414200J-2414200D01*
G01*
X160200000Y-89500000D02*
G75*
G03*
X160626786Y-89323233I0J603600D01*
G01*
D38*
X155903346Y-108373346D02*
G75*
G03*
X155340000Y-108140003I-563346J-563354D01*
G01*
D41*
X160157036Y-115700000D02*
G75*
G02*
X161339990Y-116190010I-36J-1673000D01*
G01*
D35*
X161175000Y-88470945D02*
G75*
G02*
X160959987Y-88989987I-734100J45D01*
G01*
D38*
X160397475Y-107797882D02*
G75*
G02*
X159999995Y-107700011I137225J1413382D01*
G01*
D41*
X161356281Y-116206281D02*
G75*
G02*
X161975011Y-117700000I-1493681J-1493719D01*
G01*
D35*
X158930000Y-98919116D02*
G75*
G02*
X159289995Y-98049995I1229100J16D01*
G01*
D38*
X151998995Y-113551005D02*
G75*
G03*
X151420012Y-114948822I1397805J-1397795D01*
G01*
D41*
X160475000Y-114932367D02*
G75*
G02*
X160157053Y-115700017I-1085600J-33D01*
G01*
D38*
X158150000Y-108069238D02*
G75*
G02*
X158799989Y-106499989I2219200J38D01*
G01*
D35*
X158825000Y-104077145D02*
G75*
G03*
X158929964Y-103823653I-253500J253445D01*
G01*
D39*
X156700000Y-94875000D02*
G75*
G03*
X156941421Y-94974991I241400J241400D01*
G01*
D38*
X159600000Y-89400000D02*
G75*
G03*
X159380031Y-89030040I-85900J199300D01*
G01*
X160369238Y-107150000D02*
G75*
G02*
X158799989Y-106500011I-38J2219200D01*
G01*
D41*
X160400000Y-114500000D02*
G75*
G03*
X160475012Y-114599984I231700J95700D01*
G01*
D39*
X154830000Y-92010000D02*
G75*
G02*
X155374481Y-90695537I1858900J0D01*
G01*
X163200000Y-88900000D02*
G75*
G03*
X163147353Y-89027110I127100J-127100D01*
G01*
D38*
X159360000Y-109760000D02*
G75*
G03*
X159450009Y-109542721I-217300J217300D01*
G01*
D35*
%TO.N,-15V*%
X160071464Y-85508536D02*
X160075000Y-85500000D01*
X159440000Y-86140000D02*
X160071464Y-85508536D01*
D39*
X162113604Y-85500000D02*
X160075000Y-85500000D01*
X163200000Y-85950000D02*
X165443392Y-88193392D01*
D35*
X159225000Y-87350000D02*
X159225000Y-86659055D01*
X160125000Y-83900000D02*
X160125000Y-85379290D01*
X160125000Y-85379290D02*
G75*
G02*
X160075003Y-85500003I-170700J-10D01*
G01*
D39*
X165443392Y-88193392D02*
G75*
G02*
X166647353Y-91100000I-2906592J-2906608D01*
G01*
X163200000Y-85950000D02*
G75*
G03*
X162113604Y-85499998I-1086400J-1086400D01*
G01*
D35*
X159225000Y-86659055D02*
G75*
G02*
X159440013Y-86140013I734100J-45D01*
G01*
%TO.N,+15V*%
X161010000Y-104290000D02*
X161015649Y-104295649D01*
D40*
X162280000Y-106590000D02*
X162319289Y-106629289D01*
D39*
X166422185Y-104702186D02*
X164960000Y-103240000D01*
X161015649Y-104295649D02*
X161349548Y-103961750D01*
D35*
X160100000Y-104137500D02*
X160641833Y-104137500D01*
D39*
X162505811Y-102150000D02*
X162100000Y-102150000D01*
D40*
X163565858Y-106760000D02*
X165005736Y-106760000D01*
D39*
X164960000Y-103240000D02*
X164829216Y-103112386D01*
D40*
X162634853Y-106760000D02*
X163565858Y-106760000D01*
D35*
X161162500Y-104650178D02*
X161162500Y-105200000D01*
D40*
X165730000Y-106460000D02*
X166645699Y-105544301D01*
X161162500Y-106500000D02*
X162062721Y-106500000D01*
X162319289Y-106629289D02*
G75*
G03*
X162634853Y-106760026I315611J315589D01*
G01*
D39*
X161349548Y-103961750D02*
G75*
G03*
X162100000Y-102150000I-1811748J1811750D01*
G01*
D40*
X166645699Y-105544301D02*
G75*
G02*
X166752651Y-105500021I106901J-106899D01*
G01*
D35*
X160641833Y-104137500D02*
G75*
G02*
X161009991Y-104290009I-33J-520700D01*
G01*
D39*
X164829216Y-103112386D02*
G75*
G03*
X162505811Y-102149995I-2323416J-2323414D01*
G01*
X166752651Y-105500000D02*
G75*
G03*
X166422179Y-104702192I-1128251J0D01*
G01*
D40*
X165005736Y-106760000D02*
G75*
G03*
X165729989Y-106459989I-36J1024300D01*
G01*
D35*
X161015649Y-104295649D02*
G75*
G02*
X161162509Y-104650178I-354549J-354551D01*
G01*
D40*
X162062721Y-106500000D02*
G75*
G02*
X162279994Y-106590006I-21J-307300D01*
G01*
D35*
%TO.N,+5V*%
X162050000Y-119450000D02*
X160239411Y-119450000D01*
D40*
X155345149Y-119472227D02*
X155465789Y-119541882D01*
D35*
X163081720Y-119450000D02*
X162050000Y-119450000D01*
D40*
X155220000Y-119350000D02*
X155294436Y-119424436D01*
X155465789Y-119541882D02*
X155589379Y-119575000D01*
D35*
X164400000Y-115852651D02*
X164400000Y-117888457D01*
D39*
X158032548Y-118630000D02*
X158550000Y-118630000D01*
D35*
X158703266Y-118476733D02*
X158550000Y-118630000D01*
X157362500Y-118062544D02*
X157362500Y-117400000D01*
X163691127Y-119148873D02*
X163615516Y-119220863D01*
D40*
X155000000Y-118462500D02*
X155000000Y-118818874D01*
X155589379Y-119575000D02*
X158778813Y-119575000D01*
D35*
X163249100Y-119416708D02*
X163081720Y-119450000D01*
X163441952Y-119336829D02*
X163249100Y-119416708D01*
X163615516Y-119220863D02*
X163441952Y-119336829D01*
X156300000Y-118462500D02*
X156891833Y-118462500D01*
D40*
X155294436Y-119424436D02*
X155345149Y-119472227D01*
D35*
X159660000Y-119210000D02*
X159643719Y-119193719D01*
X164010000Y-118830000D02*
X163691127Y-119148873D01*
X156891833Y-118462500D02*
G75*
G03*
X157259991Y-118309991I-33J520700D01*
G01*
X159025000Y-117700000D02*
G75*
G02*
X158703273Y-118476740I-1098500J0D01*
G01*
X159643719Y-119193719D02*
G75*
G02*
X159024989Y-117700000I1493681J1493719D01*
G01*
D39*
X157260000Y-118310000D02*
G75*
G03*
X158032548Y-118629980I772500J772500D01*
G01*
D35*
X160239411Y-119450000D02*
G75*
G02*
X159659997Y-119210003I-11J819400D01*
G01*
D40*
X158778813Y-119575000D02*
G75*
G03*
X159659996Y-119209996I-13J1246200D01*
G01*
D35*
X157260000Y-118310000D02*
G75*
G03*
X157362518Y-118062544I-247500J247500D01*
G01*
D40*
X155000000Y-118818874D02*
G75*
G03*
X155219992Y-119350008I751100J-26D01*
G01*
D35*
X164400000Y-117888457D02*
G75*
G02*
X164010013Y-118830013I-1331500J-43D01*
G01*
%TD*%
%TA.AperFunction,Conductor*%
%TO.N,GND*%
G36*
X155579765Y-104133516D02*
G01*
X155606983Y-104162104D01*
X155620813Y-104187979D01*
X155631164Y-104207343D01*
X155797998Y-104457028D01*
X155798040Y-104457079D01*
X155970200Y-104666856D01*
X155986997Y-104713801D01*
X155986997Y-104732355D01*
X155987000Y-104732400D01*
X155987000Y-104760715D01*
X155965326Y-104813041D01*
X155942892Y-104828409D01*
X155858732Y-104865570D01*
X155846919Y-104870786D01*
X155770786Y-104946919D01*
X155727292Y-105045421D01*
X155727292Y-105045423D01*
X155724500Y-105069495D01*
X155724500Y-105330502D01*
X155725772Y-105341470D01*
X155710266Y-105395943D01*
X155660782Y-105423496D01*
X155618863Y-105416021D01*
X155449794Y-105330503D01*
X155196941Y-105202605D01*
X155189941Y-105198294D01*
X155187882Y-105197206D01*
X155187245Y-105196984D01*
X155178280Y-105193167D01*
X155170347Y-105189153D01*
X155170330Y-105189146D01*
X155170324Y-105189143D01*
X155133811Y-105174865D01*
X155133809Y-105174864D01*
X155133803Y-105174862D01*
X155129535Y-105173647D01*
X155111219Y-105169750D01*
X155102182Y-105167219D01*
X155059701Y-105152354D01*
X155052090Y-105151640D01*
X155029266Y-105149500D01*
X153970734Y-105149500D01*
X153969479Y-105149500D01*
X153917153Y-105127826D01*
X153895479Y-105075500D01*
X153917153Y-105023175D01*
X153975031Y-104965296D01*
X153977640Y-104962810D01*
X154199231Y-104761973D01*
X154204840Y-104757370D01*
X154443578Y-104580311D01*
X154449606Y-104576284D01*
X154704553Y-104423477D01*
X154710921Y-104420073D01*
X154979607Y-104292997D01*
X154986316Y-104290218D01*
X155266168Y-104190088D01*
X155273082Y-104187989D01*
X155523744Y-104125204D01*
X155579765Y-104133516D01*
G37*
%TD.AperFunction*%
%TA.AperFunction,Conductor*%
G36*
X162743639Y-103425277D02*
G01*
X164496186Y-103784154D01*
X164533666Y-103804323D01*
X164926151Y-104196809D01*
X165307377Y-104578035D01*
X165324652Y-104605227D01*
X165616136Y-105412386D01*
X165615942Y-105463184D01*
X165289621Y-106345703D01*
X165251145Y-106387265D01*
X165241697Y-106390852D01*
X165149022Y-106418967D01*
X165134795Y-106421797D01*
X165028837Y-106432236D01*
X165009489Y-106434143D01*
X165002236Y-106434500D01*
X163934960Y-106434500D01*
X163882634Y-106412826D01*
X163356178Y-105886370D01*
X163407045Y-105872741D01*
X163498257Y-105820080D01*
X163572731Y-105745606D01*
X163625392Y-105654394D01*
X163639021Y-105603527D01*
X164231089Y-106195595D01*
X164277280Y-106134428D01*
X164277282Y-106134426D01*
X164376411Y-105935346D01*
X164376413Y-105935342D01*
X164437271Y-105721445D01*
X164437273Y-105721432D01*
X164457792Y-105500003D01*
X164457792Y-105499996D01*
X164437273Y-105278567D01*
X164437271Y-105278554D01*
X164376413Y-105064657D01*
X164376411Y-105064653D01*
X164277282Y-104865573D01*
X164277280Y-104865570D01*
X164231088Y-104804403D01*
X163639021Y-105396471D01*
X163625392Y-105345606D01*
X163572731Y-105254394D01*
X163498257Y-105179920D01*
X163407045Y-105127259D01*
X163356176Y-105113629D01*
X163949649Y-104520157D01*
X163789833Y-104421205D01*
X163789823Y-104421200D01*
X163582456Y-104340865D01*
X163363850Y-104300000D01*
X163141451Y-104300000D01*
X162922845Y-104340865D01*
X162715478Y-104421200D01*
X162715468Y-104421205D01*
X162555651Y-104520157D01*
X163149123Y-105113629D01*
X163098257Y-105127259D01*
X163007045Y-105179920D01*
X162932571Y-105254394D01*
X162879910Y-105345606D01*
X162866280Y-105396472D01*
X162274211Y-104804403D01*
X162228019Y-104865574D01*
X162228018Y-104865577D01*
X162128890Y-105064653D01*
X162128888Y-105064657D01*
X162068030Y-105278554D01*
X162068028Y-105278567D01*
X162047510Y-105499996D01*
X162047510Y-105500003D01*
X162068028Y-105721432D01*
X162068030Y-105721445D01*
X162128888Y-105935342D01*
X162128890Y-105935346D01*
X162194704Y-106067518D01*
X162198626Y-106124019D01*
X162161447Y-106166745D01*
X162128458Y-106174503D01*
X162109248Y-106174502D01*
X162109202Y-106174500D01*
X162105574Y-106174500D01*
X162062743Y-106174500D01*
X162011189Y-106174497D01*
X162011188Y-106174497D01*
X162005245Y-106174497D01*
X162005209Y-106174500D01*
X161911247Y-106174500D01*
X161858921Y-106152826D01*
X161837247Y-106100500D01*
X161843552Y-106070610D01*
X161851731Y-106052083D01*
X161872707Y-106004580D01*
X161875500Y-105980505D01*
X161875499Y-105719496D01*
X161872707Y-105695420D01*
X161829215Y-105596921D01*
X161809620Y-105577326D01*
X161787946Y-105525000D01*
X161809620Y-105472674D01*
X161819110Y-105463184D01*
X161829215Y-105453079D01*
X161872707Y-105354580D01*
X161875500Y-105330505D01*
X161875499Y-105069496D01*
X161872707Y-105045420D01*
X161829215Y-104946921D01*
X161753079Y-104870785D01*
X161657108Y-104828409D01*
X161617997Y-104787446D01*
X161613000Y-104760715D01*
X161613000Y-104719606D01*
X161634674Y-104667280D01*
X161828575Y-104473379D01*
X161844876Y-104457079D01*
X161958216Y-104343739D01*
X161958220Y-104343733D01*
X161958225Y-104343729D01*
X162016505Y-104272713D01*
X162025687Y-104263354D01*
X162039045Y-104251964D01*
X162670723Y-103451916D01*
X162720157Y-103424280D01*
X162743639Y-103425277D01*
G37*
%TD.AperFunction*%
%TA.AperFunction,Conductor*%
G36*
X166498001Y-80322174D02*
G01*
X166517978Y-80364077D01*
X166518870Y-80363936D01*
X166576483Y-80727693D01*
X166671299Y-81081552D01*
X166788578Y-81387072D01*
X166802591Y-81423578D01*
X166968911Y-81750000D01*
X167168441Y-82057248D01*
X167398993Y-82341957D01*
X167658043Y-82601007D01*
X167942752Y-82831559D01*
X168250000Y-83031089D01*
X168576422Y-83197409D01*
X168918441Y-83328698D01*
X168918443Y-83328698D01*
X168918447Y-83328700D01*
X169072671Y-83370024D01*
X169272309Y-83423517D01*
X169634150Y-83480827D01*
X169634151Y-83480827D01*
X169636064Y-83481130D01*
X169635896Y-83482186D01*
X169682992Y-83507735D01*
X169699500Y-83554325D01*
X169699500Y-116445674D01*
X169677826Y-116498000D01*
X169635926Y-116518001D01*
X169636064Y-116518870D01*
X169634151Y-116519172D01*
X169634150Y-116519173D01*
X169549714Y-116532546D01*
X169272306Y-116576483D01*
X168918447Y-116671299D01*
X168576428Y-116802588D01*
X168250001Y-116968910D01*
X167942750Y-117168442D01*
X167658040Y-117398995D01*
X167398995Y-117658040D01*
X167168442Y-117942750D01*
X166968910Y-118250001D01*
X166802588Y-118576428D01*
X166671299Y-118918447D01*
X166576483Y-119272306D01*
X166545060Y-119470705D01*
X166520185Y-119627764D01*
X166518870Y-119636064D01*
X166517813Y-119635896D01*
X166492265Y-119682992D01*
X166445675Y-119699500D01*
X163954011Y-119699500D01*
X163901685Y-119677826D01*
X163880011Y-119625500D01*
X163901685Y-119573174D01*
X163912895Y-119563974D01*
X163915106Y-119562497D01*
X163938656Y-119535644D01*
X163943249Y-119530860D01*
X163956489Y-119518253D01*
X163964089Y-119512571D01*
X163963892Y-119512315D01*
X163967738Y-119509364D01*
X163967738Y-119509363D01*
X163967741Y-119509362D01*
X164005168Y-119471933D01*
X164006343Y-119470786D01*
X164044724Y-119434245D01*
X164044727Y-119434239D01*
X164044729Y-119434238D01*
X164047774Y-119430466D01*
X164048024Y-119430667D01*
X164053884Y-119423217D01*
X164306865Y-119170238D01*
X164306907Y-119170220D01*
X164328563Y-119148563D01*
X164328564Y-119148564D01*
X164411157Y-119065972D01*
X164553366Y-118880639D01*
X164670167Y-118678328D01*
X164759561Y-118462502D01*
X164820018Y-118236855D01*
X164850504Y-118005246D01*
X164850500Y-117888442D01*
X164850500Y-117876985D01*
X164850500Y-117546733D01*
X164863521Y-117504810D01*
X164955241Y-117371399D01*
X165363831Y-116777087D01*
X165377118Y-116749710D01*
X165382152Y-116740930D01*
X165388867Y-116730882D01*
X165389893Y-116725719D01*
X165391804Y-116718201D01*
X165392779Y-116715068D01*
X165401719Y-116665685D01*
X165401536Y-116664608D01*
X165400500Y-116652264D01*
X165400500Y-115032904D01*
X165397869Y-115019678D01*
X165388867Y-114974420D01*
X165344552Y-114908099D01*
X165307720Y-114883488D01*
X165278232Y-114863784D01*
X165278233Y-114863784D01*
X165248989Y-114857967D01*
X165219748Y-114852151D01*
X163580252Y-114852151D01*
X163551010Y-114857967D01*
X163521767Y-114863784D01*
X163455449Y-114908098D01*
X163455447Y-114908100D01*
X163411133Y-114974418D01*
X163407770Y-114991327D01*
X163399500Y-115032903D01*
X163399500Y-116672399D01*
X163401201Y-116680950D01*
X163402074Y-116690539D01*
X163402238Y-116690524D01*
X163402641Y-116694658D01*
X163404499Y-116703397D01*
X163405603Y-116706869D01*
X163405351Y-116706948D01*
X163408188Y-116716080D01*
X163411132Y-116730880D01*
X163411133Y-116730882D01*
X163420670Y-116745154D01*
X163421867Y-116746946D01*
X163428327Y-116758842D01*
X163436166Y-116777085D01*
X163773609Y-117267909D01*
X163863729Y-117398993D01*
X163936479Y-117504810D01*
X163949500Y-117546733D01*
X163949500Y-117824609D01*
X163949498Y-117824643D01*
X163949499Y-117885566D01*
X163949271Y-117891371D01*
X163939113Y-118020488D01*
X163937297Y-118031957D01*
X163907746Y-118155061D01*
X163904157Y-118166106D01*
X163855708Y-118283077D01*
X163850437Y-118293424D01*
X163784289Y-118401369D01*
X163777463Y-118410763D01*
X163693496Y-118509076D01*
X163689556Y-118513338D01*
X163677670Y-118525226D01*
X163677666Y-118525231D01*
X163377125Y-118825770D01*
X163375826Y-118827037D01*
X163337589Y-118863443D01*
X163327677Y-118871376D01*
X163234621Y-118933550D01*
X163221833Y-118940385D01*
X163185621Y-118955385D01*
X163124433Y-118980729D01*
X163110552Y-118984939D01*
X163057152Y-118995561D01*
X163044499Y-118998078D01*
X163030064Y-118999500D01*
X163017476Y-118999500D01*
X162965150Y-118977826D01*
X162943476Y-118925500D01*
X162946413Y-118904859D01*
X162947099Y-118902496D01*
X162950000Y-118865641D01*
X162950000Y-117900000D01*
X161000000Y-117900000D01*
X161000000Y-118865641D01*
X161002900Y-118902496D01*
X161003587Y-118904859D01*
X161003490Y-118905730D01*
X161003580Y-118906219D01*
X161003433Y-118906245D01*
X160997368Y-118961154D01*
X160953165Y-118996563D01*
X160932524Y-118999500D01*
X160244254Y-118999500D01*
X160234596Y-118998867D01*
X160153583Y-118988202D01*
X160134923Y-118983202D01*
X160067765Y-118955385D01*
X160027716Y-118915337D01*
X160023053Y-118898957D01*
X159804777Y-117563805D01*
X159804761Y-117563711D01*
X159804163Y-117560242D01*
X159804092Y-117559850D01*
X159804089Y-117559844D01*
X159804089Y-117559840D01*
X159803413Y-117557501D01*
X159800500Y-117536944D01*
X159800500Y-116545740D01*
X159800500Y-116545734D01*
X159799433Y-116534358D01*
X161000000Y-116534358D01*
X161000000Y-117500000D01*
X161775000Y-117500000D01*
X162175000Y-117500000D01*
X162950000Y-117500000D01*
X162950000Y-116534358D01*
X162947099Y-116497506D01*
X162901281Y-116339800D01*
X162817682Y-116198443D01*
X162701556Y-116082317D01*
X162560199Y-115998718D01*
X162402491Y-115952900D01*
X162402494Y-115952900D01*
X162365641Y-115950000D01*
X162175000Y-115950000D01*
X162175000Y-117500000D01*
X161775000Y-117500000D01*
X161775000Y-115950000D01*
X161584359Y-115950000D01*
X161547506Y-115952900D01*
X161389800Y-115998718D01*
X161248443Y-116082317D01*
X161132317Y-116198443D01*
X161048718Y-116339800D01*
X161002900Y-116497506D01*
X161000000Y-116534358D01*
X159799433Y-116534358D01*
X159797646Y-116515301D01*
X159789565Y-116492208D01*
X159752793Y-116387118D01*
X159752792Y-116387116D01*
X159672153Y-116277853D01*
X159672146Y-116277846D01*
X159562883Y-116197207D01*
X159562881Y-116197206D01*
X159434704Y-116152355D01*
X159434705Y-116152355D01*
X159434700Y-116152354D01*
X159434699Y-116152354D01*
X159404266Y-116149500D01*
X158645734Y-116149500D01*
X158615301Y-116152354D01*
X158615299Y-116152354D01*
X158615295Y-116152355D01*
X158487118Y-116197206D01*
X158487116Y-116197207D01*
X158373387Y-116281143D01*
X158372552Y-116280012D01*
X158325571Y-116299466D01*
X158273248Y-116277785D01*
X158270610Y-116275000D01*
X157537500Y-116275000D01*
X157537500Y-116851000D01*
X157515826Y-116903326D01*
X157463500Y-116925000D01*
X156454394Y-116925000D01*
X156456242Y-116942193D01*
X156505230Y-117073533D01*
X156589241Y-117185759D01*
X156589242Y-117185760D01*
X156619845Y-117208668D01*
X156648747Y-117257376D01*
X156649500Y-117267909D01*
X156649500Y-117530503D01*
X156652292Y-117554575D01*
X156652293Y-117554580D01*
X156695785Y-117653079D01*
X156758699Y-117715993D01*
X156780373Y-117768319D01*
X156758699Y-117820645D01*
X156720645Y-117858699D01*
X156668319Y-117880373D01*
X156615993Y-117858699D01*
X156553080Y-117795786D01*
X156553079Y-117795785D01*
X156454580Y-117752293D01*
X156454579Y-117752292D01*
X156454577Y-117752292D01*
X156434140Y-117749921D01*
X156430505Y-117749500D01*
X156430504Y-117749500D01*
X156169496Y-117749500D01*
X156145424Y-117752292D01*
X156145419Y-117752293D01*
X156046920Y-117795785D01*
X156027326Y-117815380D01*
X155975000Y-117837054D01*
X155922674Y-117815380D01*
X155903080Y-117795786D01*
X155903079Y-117795785D01*
X155804580Y-117752293D01*
X155804579Y-117752292D01*
X155804577Y-117752292D01*
X155784140Y-117749921D01*
X155780505Y-117749500D01*
X155780504Y-117749500D01*
X155519496Y-117749500D01*
X155495424Y-117752292D01*
X155495419Y-117752293D01*
X155396920Y-117795785D01*
X155377326Y-117815380D01*
X155325000Y-117837054D01*
X155272674Y-117815380D01*
X155253080Y-117795786D01*
X155253079Y-117795785D01*
X155154580Y-117752293D01*
X155154579Y-117752292D01*
X155154577Y-117752292D01*
X155134140Y-117749921D01*
X155130505Y-117749500D01*
X155130504Y-117749500D01*
X154869496Y-117749500D01*
X154845424Y-117752292D01*
X154845419Y-117752293D01*
X154746920Y-117795785D01*
X154727326Y-117815380D01*
X154675000Y-117837054D01*
X154622674Y-117815380D01*
X154603080Y-117795786D01*
X154603079Y-117795785D01*
X154504580Y-117752293D01*
X154504579Y-117752292D01*
X154504577Y-117752292D01*
X154484140Y-117749921D01*
X154480505Y-117749500D01*
X154480504Y-117749500D01*
X154219496Y-117749500D01*
X154195424Y-117752292D01*
X154195419Y-117752293D01*
X154096920Y-117795785D01*
X154077326Y-117815380D01*
X154025000Y-117837054D01*
X153972674Y-117815380D01*
X153953080Y-117795786D01*
X153953079Y-117795785D01*
X153854580Y-117752293D01*
X153854579Y-117752292D01*
X153854577Y-117752292D01*
X153830505Y-117749500D01*
X153591664Y-117749500D01*
X153539338Y-117727826D01*
X153517664Y-117675500D01*
X153522330Y-117649639D01*
X153543757Y-117592191D01*
X153545606Y-117575000D01*
X152812500Y-117575000D01*
X152812500Y-117975000D01*
X153109132Y-117975000D01*
X153167189Y-117968758D01*
X153167192Y-117968757D01*
X153224639Y-117947330D01*
X153281240Y-117949351D01*
X153319834Y-117990803D01*
X153324500Y-118016664D01*
X153324500Y-118930503D01*
X153327292Y-118954575D01*
X153327293Y-118954580D01*
X153370785Y-119053079D01*
X153446921Y-119129215D01*
X153545420Y-119172707D01*
X153569495Y-119175500D01*
X153830504Y-119175499D01*
X153854580Y-119172707D01*
X153953079Y-119129215D01*
X153972674Y-119109620D01*
X154025000Y-119087946D01*
X154077326Y-119109620D01*
X154096921Y-119129215D01*
X154195420Y-119172707D01*
X154219495Y-119175500D01*
X154480504Y-119175499D01*
X154504580Y-119172707D01*
X154603079Y-119129215D01*
X154604920Y-119127373D01*
X154607066Y-119126484D01*
X154608737Y-119125340D01*
X154608978Y-119125692D01*
X154657243Y-119105696D01*
X154709571Y-119127366D01*
X154726897Y-119154694D01*
X154733722Y-119173706D01*
X154740396Y-119192298D01*
X154741125Y-119194432D01*
X154753378Y-119232145D01*
X154753382Y-119232154D01*
X154755720Y-119236742D01*
X154759438Y-119245346D01*
X154759679Y-119246020D01*
X154760980Y-119249500D01*
X154761554Y-119251035D01*
X154761751Y-119251542D01*
X154766494Y-119258814D01*
X154770441Y-119265636D01*
X154830313Y-119383145D01*
X154929922Y-119520248D01*
X154957672Y-119547998D01*
X154957686Y-119548013D01*
X154982847Y-119573174D01*
X155004521Y-119625500D01*
X154982847Y-119677826D01*
X154930521Y-119699500D01*
X136065152Y-119699500D01*
X136012826Y-119677826D01*
X135991152Y-119625500D01*
X136012826Y-119573174D01*
X136031554Y-119559567D01*
X136053220Y-119548528D01*
X136148528Y-119453220D01*
X136209719Y-119333126D01*
X136230804Y-119200000D01*
X136209719Y-119066874D01*
X136209719Y-119066873D01*
X136148528Y-118946780D01*
X136053219Y-118851471D01*
X135933126Y-118790281D01*
X135933126Y-118790280D01*
X135800000Y-118769196D01*
X135794176Y-118769196D01*
X135794176Y-118766951D01*
X135747045Y-118755623D01*
X135717466Y-118707324D01*
X135717469Y-118684192D01*
X135718398Y-118678328D01*
X135730804Y-118600000D01*
X135709719Y-118466874D01*
X135709719Y-118466873D01*
X135648528Y-118346780D01*
X135553219Y-118251471D01*
X135433126Y-118190281D01*
X135433126Y-118190280D01*
X135300000Y-118169196D01*
X135166873Y-118190280D01*
X135166873Y-118190281D01*
X135046780Y-118251471D01*
X134951471Y-118346780D01*
X134890281Y-118466873D01*
X134890280Y-118466874D01*
X134873089Y-118575420D01*
X134843496Y-118623711D01*
X134788424Y-118636933D01*
X134740133Y-118607340D01*
X134726911Y-118575420D01*
X134709719Y-118466874D01*
X134709718Y-118466873D01*
X134676342Y-118401369D01*
X134648528Y-118346780D01*
X134553220Y-118251472D01*
X134553219Y-118251471D01*
X134433126Y-118190281D01*
X134433126Y-118190280D01*
X134300000Y-118169196D01*
X134166873Y-118190280D01*
X134166873Y-118190281D01*
X134046780Y-118251471D01*
X133951471Y-118346780D01*
X133890281Y-118466873D01*
X133890280Y-118466873D01*
X133869196Y-118600000D01*
X133890280Y-118733126D01*
X133950581Y-118851472D01*
X133951472Y-118853220D01*
X134046780Y-118948528D01*
X134166873Y-119009718D01*
X134166873Y-119009719D01*
X134300000Y-119030804D01*
X134305824Y-119030804D01*
X134305824Y-119033058D01*
X134352919Y-119044350D01*
X134382526Y-119092632D01*
X134382530Y-119115805D01*
X134369196Y-119199998D01*
X134369196Y-119199999D01*
X134390280Y-119333126D01*
X134451471Y-119453219D01*
X134451472Y-119453220D01*
X134546780Y-119548528D01*
X134568444Y-119559566D01*
X134605226Y-119602633D01*
X134600782Y-119659096D01*
X134557715Y-119695878D01*
X134534848Y-119699500D01*
X133554325Y-119699500D01*
X133501999Y-119677826D01*
X133482021Y-119635922D01*
X133481130Y-119636064D01*
X133480297Y-119630804D01*
X133423517Y-119272309D01*
X133384682Y-119127374D01*
X133328700Y-118918447D01*
X133328528Y-118917997D01*
X133197409Y-118576422D01*
X133031089Y-118250000D01*
X132831559Y-117942752D01*
X132601007Y-117658043D01*
X132517964Y-117575000D01*
X151729394Y-117575000D01*
X151731242Y-117592193D01*
X151780230Y-117723533D01*
X151864241Y-117835758D01*
X151976466Y-117919769D01*
X152107804Y-117968756D01*
X152107810Y-117968758D01*
X152165868Y-117975000D01*
X152462500Y-117975000D01*
X152462500Y-117575000D01*
X151729394Y-117575000D01*
X132517964Y-117575000D01*
X132341957Y-117398993D01*
X132127092Y-117224999D01*
X151729394Y-117224999D01*
X151729394Y-117225000D01*
X152462500Y-117225000D01*
X152812500Y-117225000D01*
X153545606Y-117225000D01*
X153545605Y-117224999D01*
X153543757Y-117207808D01*
X153503867Y-117100861D01*
X153503867Y-117049139D01*
X153543757Y-116942191D01*
X153545606Y-116925000D01*
X152812500Y-116925000D01*
X152812500Y-117225000D01*
X152462500Y-117225000D01*
X152462500Y-116925000D01*
X151729394Y-116925000D01*
X151731242Y-116942192D01*
X151771132Y-117049139D01*
X151771132Y-117100861D01*
X151731242Y-117207807D01*
X151729394Y-117224999D01*
X132127092Y-117224999D01*
X132057248Y-117168441D01*
X131750000Y-116968911D01*
X131423578Y-116802591D01*
X131423573Y-116802589D01*
X131423571Y-116802588D01*
X131081552Y-116671299D01*
X130727693Y-116576483D01*
X130718323Y-116574999D01*
X151729394Y-116574999D01*
X151729394Y-116575000D01*
X153545606Y-116575000D01*
X153545605Y-116574999D01*
X156454394Y-116574999D01*
X156454394Y-116575000D01*
X157187500Y-116575000D01*
X157187500Y-116275000D01*
X156454394Y-116275000D01*
X156456242Y-116292192D01*
X156496132Y-116399139D01*
X156496132Y-116450861D01*
X156456242Y-116557807D01*
X156454394Y-116574999D01*
X153545605Y-116574999D01*
X153543757Y-116557806D01*
X153494769Y-116426466D01*
X153410758Y-116314241D01*
X153380153Y-116291330D01*
X153351252Y-116242621D01*
X153350499Y-116232090D01*
X153350499Y-116230513D01*
X153350500Y-116230505D01*
X153350499Y-115969496D01*
X153347707Y-115945420D01*
X153338690Y-115924999D01*
X156454394Y-115924999D01*
X156454394Y-115925000D01*
X157187500Y-115925000D01*
X157537500Y-115925000D01*
X158270606Y-115925000D01*
X158270605Y-115924999D01*
X158268757Y-115907808D01*
X158228867Y-115800861D01*
X158228867Y-115749139D01*
X158268757Y-115642191D01*
X158270606Y-115625000D01*
X157537500Y-115625000D01*
X157537500Y-115925000D01*
X157187500Y-115925000D01*
X157187500Y-115625000D01*
X156454394Y-115625000D01*
X156456242Y-115642192D01*
X156496132Y-115749139D01*
X156496132Y-115800861D01*
X156456242Y-115907807D01*
X156454394Y-115924999D01*
X153338690Y-115924999D01*
X153304215Y-115846921D01*
X153284620Y-115827326D01*
X153262946Y-115775000D01*
X153284620Y-115722674D01*
X153304215Y-115703079D01*
X153347707Y-115604580D01*
X153350500Y-115580505D01*
X153350499Y-115319496D01*
X153350499Y-115319495D01*
X153350499Y-115317910D01*
X153372173Y-115265584D01*
X153380154Y-115258669D01*
X153410757Y-115235760D01*
X153410758Y-115235759D01*
X153494769Y-115123533D01*
X153543757Y-114992193D01*
X153545606Y-114975000D01*
X151729394Y-114975000D01*
X151731242Y-114992193D01*
X151780230Y-115123533D01*
X151864241Y-115235759D01*
X151864242Y-115235760D01*
X151894845Y-115258668D01*
X151923747Y-115307376D01*
X151924500Y-115317909D01*
X151924500Y-115580503D01*
X151927292Y-115604575D01*
X151927293Y-115604580D01*
X151970785Y-115703079D01*
X151990380Y-115722674D01*
X152012054Y-115775000D01*
X151990380Y-115827326D01*
X151970786Y-115846919D01*
X151927292Y-115945421D01*
X151927292Y-115945423D01*
X151924500Y-115969495D01*
X151924500Y-116232088D01*
X151902826Y-116284414D01*
X151894849Y-116291327D01*
X151864242Y-116314240D01*
X151780230Y-116426466D01*
X151731242Y-116557806D01*
X151729394Y-116574999D01*
X130718323Y-116574999D01*
X130461724Y-116534358D01*
X130365850Y-116519173D01*
X130365848Y-116519172D01*
X130363936Y-116518870D01*
X130364099Y-116517839D01*
X130316962Y-116492208D01*
X130300500Y-116445674D01*
X130300500Y-112995734D01*
X131249500Y-112995734D01*
X131249500Y-114204266D01*
X131252354Y-114234699D01*
X131252354Y-114234701D01*
X131252355Y-114234704D01*
X131297206Y-114362881D01*
X131297207Y-114362883D01*
X131377846Y-114472146D01*
X131377853Y-114472153D01*
X131487116Y-114552792D01*
X131487118Y-114552793D01*
X131615295Y-114597644D01*
X131615301Y-114597646D01*
X131645734Y-114600500D01*
X131645741Y-114600500D01*
X134754258Y-114600500D01*
X134754266Y-114600500D01*
X134784699Y-114597646D01*
X134912882Y-114552793D01*
X135022150Y-114472150D01*
X135102793Y-114362882D01*
X135147646Y-114234699D01*
X135149433Y-114215641D01*
X136450000Y-114215641D01*
X136452900Y-114252493D01*
X136498718Y-114410199D01*
X136582317Y-114551556D01*
X136698443Y-114667682D01*
X136839800Y-114751281D01*
X136997508Y-114797099D01*
X136997505Y-114797099D01*
X137034359Y-114800000D01*
X138400000Y-114800000D01*
X138800000Y-114800000D01*
X140165641Y-114800000D01*
X140202493Y-114797099D01*
X140360199Y-114751281D01*
X140501556Y-114667682D01*
X140544239Y-114624999D01*
X151729394Y-114624999D01*
X151729394Y-114625000D01*
X152462500Y-114625000D01*
X152462500Y-114225000D01*
X152165868Y-114225000D01*
X152107810Y-114231241D01*
X152107804Y-114231243D01*
X151976466Y-114280230D01*
X151864241Y-114364241D01*
X151780230Y-114476466D01*
X151731242Y-114607806D01*
X151729394Y-114624999D01*
X140544239Y-114624999D01*
X140617682Y-114551556D01*
X140701281Y-114410199D01*
X140747099Y-114252493D01*
X140750000Y-114215641D01*
X140750000Y-113800000D01*
X138800000Y-113800000D01*
X138800000Y-114800000D01*
X138400000Y-114800000D01*
X138400000Y-113800000D01*
X136450000Y-113800000D01*
X136450000Y-114215641D01*
X135149433Y-114215641D01*
X135150500Y-114204266D01*
X135150500Y-112995734D01*
X135149433Y-112984358D01*
X136450000Y-112984358D01*
X136450000Y-113400000D01*
X138400000Y-113400000D01*
X138800000Y-113400000D01*
X140750000Y-113400000D01*
X140750000Y-112984358D01*
X140747099Y-112947506D01*
X140701281Y-112789800D01*
X140617682Y-112648443D01*
X140501556Y-112532317D01*
X140360199Y-112448718D01*
X140202491Y-112402900D01*
X140202494Y-112402900D01*
X140165641Y-112400000D01*
X138800000Y-112400000D01*
X138800000Y-113400000D01*
X138400000Y-113400000D01*
X138400000Y-112400000D01*
X137034359Y-112400000D01*
X136997506Y-112402900D01*
X136839800Y-112448718D01*
X136698443Y-112532317D01*
X136582317Y-112648443D01*
X136498718Y-112789800D01*
X136452900Y-112947506D01*
X136450000Y-112984358D01*
X135149433Y-112984358D01*
X135147646Y-112965301D01*
X135140339Y-112944420D01*
X135102793Y-112837118D01*
X135102792Y-112837116D01*
X135022153Y-112727853D01*
X135022146Y-112727846D01*
X134912883Y-112647207D01*
X134912881Y-112647206D01*
X134784704Y-112602355D01*
X134784705Y-112602355D01*
X134784700Y-112602354D01*
X134784699Y-112602354D01*
X134754266Y-112599500D01*
X131645734Y-112599500D01*
X131615301Y-112602354D01*
X131615299Y-112602354D01*
X131615295Y-112602355D01*
X131487118Y-112647206D01*
X131487116Y-112647207D01*
X131377853Y-112727846D01*
X131377846Y-112727853D01*
X131297207Y-112837116D01*
X131297206Y-112837118D01*
X131252355Y-112965295D01*
X131252354Y-112965299D01*
X131252354Y-112965301D01*
X131249500Y-112995734D01*
X130300500Y-112995734D01*
X130300500Y-109894966D01*
X148199500Y-109894966D01*
X148199500Y-110105033D01*
X148235975Y-110311898D01*
X148307819Y-110509287D01*
X148307820Y-110509289D01*
X148307821Y-110509291D01*
X148412851Y-110691209D01*
X148547876Y-110852124D01*
X148708791Y-110987149D01*
X148890709Y-111092179D01*
X149088101Y-111164024D01*
X149294970Y-111200500D01*
X149369342Y-111200500D01*
X149369361Y-111200507D01*
X149400000Y-111200506D01*
X149400000Y-111200507D01*
X149500215Y-111200504D01*
X149698175Y-111169139D01*
X149888788Y-111107182D01*
X150067357Y-111016160D01*
X150229482Y-110898315D01*
X150278654Y-110849118D01*
X150278659Y-110849116D01*
X150300327Y-110827435D01*
X150300328Y-110827436D01*
X150374575Y-110753148D01*
X150495014Y-110581044D01*
X150511964Y-110544670D01*
X150583734Y-110390646D01*
X150583737Y-110390640D01*
X150638049Y-110187722D01*
X150656300Y-109978456D01*
X150642042Y-109816014D01*
X150659058Y-109761997D01*
X150663415Y-109757240D01*
X150668492Y-109752163D01*
X150720808Y-109730500D01*
X151059390Y-109730500D01*
X151111716Y-109752174D01*
X151133390Y-109804500D01*
X151118443Y-109849095D01*
X151030483Y-109965571D01*
X151030481Y-109965573D01*
X150931352Y-110164653D01*
X150931350Y-110164657D01*
X150870492Y-110378554D01*
X150870490Y-110378567D01*
X150849972Y-110599996D01*
X150849972Y-110600003D01*
X150870490Y-110821432D01*
X150870492Y-110821445D01*
X150931350Y-111035342D01*
X150931352Y-111035346D01*
X151030481Y-111234426D01*
X151030483Y-111234429D01*
X151076673Y-111295594D01*
X151668742Y-110703525D01*
X151682372Y-110754394D01*
X151735033Y-110845606D01*
X151809507Y-110920080D01*
X151900719Y-110972741D01*
X151951585Y-110986370D01*
X151358113Y-111579841D01*
X151517930Y-111678794D01*
X151517940Y-111678799D01*
X151725307Y-111759134D01*
X151943913Y-111799999D01*
X151943919Y-111800000D01*
X152166307Y-111800000D01*
X152166312Y-111799999D01*
X152384918Y-111759134D01*
X152592285Y-111678799D01*
X152592295Y-111678794D01*
X152752110Y-111579840D01*
X152158640Y-110986370D01*
X152209507Y-110972741D01*
X152300719Y-110920080D01*
X152375193Y-110845606D01*
X152427854Y-110754394D01*
X152441483Y-110703527D01*
X153032939Y-111294983D01*
X153054613Y-111347309D01*
X153054613Y-111419748D01*
X153059919Y-111446423D01*
X153066246Y-111478232D01*
X153095721Y-111522343D01*
X153110561Y-111544552D01*
X153149296Y-111570434D01*
X153176880Y-111588866D01*
X153176881Y-111588866D01*
X153176882Y-111588867D01*
X153235365Y-111600500D01*
X153235367Y-111600500D01*
X154152166Y-111600500D01*
X154204492Y-111622174D01*
X154226166Y-111674500D01*
X154221921Y-111694984D01*
X154223144Y-111695340D01*
X154177789Y-111851448D01*
X154175000Y-111886889D01*
X154175000Y-112000000D01*
X155151000Y-112000000D01*
X155203326Y-112021674D01*
X155225000Y-112074000D01*
X155225000Y-112326000D01*
X155203326Y-112378326D01*
X155151000Y-112400000D01*
X154175000Y-112400000D01*
X154175000Y-112513110D01*
X154177789Y-112548551D01*
X154221845Y-112700191D01*
X154302228Y-112836111D01*
X154364291Y-112898174D01*
X154385965Y-112950500D01*
X154364291Y-113002826D01*
X154311966Y-113024500D01*
X154219496Y-113024500D01*
X154195424Y-113027292D01*
X154195419Y-113027293D01*
X154096920Y-113070785D01*
X154077326Y-113090380D01*
X154025000Y-113112054D01*
X153972674Y-113090380D01*
X153953080Y-113070786D01*
X153953079Y-113070785D01*
X153854580Y-113027293D01*
X153854579Y-113027292D01*
X153854577Y-113027292D01*
X153834140Y-113024921D01*
X153830505Y-113024500D01*
X153830504Y-113024500D01*
X153569496Y-113024500D01*
X153545424Y-113027292D01*
X153545419Y-113027293D01*
X153446920Y-113070785D01*
X153370786Y-113146919D01*
X153327292Y-113245421D01*
X153327292Y-113245423D01*
X153324500Y-113269495D01*
X153324500Y-114183335D01*
X153302826Y-114235661D01*
X153250500Y-114257335D01*
X153224640Y-114252669D01*
X153167195Y-114231243D01*
X153167189Y-114231241D01*
X153109132Y-114225000D01*
X152812500Y-114225000D01*
X152812500Y-114625000D01*
X153545606Y-114625000D01*
X153545605Y-114624999D01*
X153543757Y-114607808D01*
X153522330Y-114550360D01*
X153524351Y-114493759D01*
X153565803Y-114455165D01*
X153591658Y-114450499D01*
X153830504Y-114450499D01*
X153854580Y-114447707D01*
X153953079Y-114404215D01*
X153972674Y-114384620D01*
X154025000Y-114362946D01*
X154077326Y-114384620D01*
X154096921Y-114404215D01*
X154195420Y-114447707D01*
X154219495Y-114450500D01*
X154480504Y-114450499D01*
X154504580Y-114447707D01*
X154603079Y-114404215D01*
X154622674Y-114384620D01*
X154675000Y-114362946D01*
X154727326Y-114384620D01*
X154746921Y-114404215D01*
X154845420Y-114447707D01*
X154869495Y-114450500D01*
X155130504Y-114450499D01*
X155154580Y-114447707D01*
X155253079Y-114404215D01*
X155272674Y-114384620D01*
X155325000Y-114362946D01*
X155377326Y-114384620D01*
X155396921Y-114404215D01*
X155495420Y-114447707D01*
X155519495Y-114450500D01*
X155780504Y-114450499D01*
X155804580Y-114447707D01*
X155903079Y-114404215D01*
X155922674Y-114384620D01*
X155975000Y-114362946D01*
X156027326Y-114384620D01*
X156046921Y-114404215D01*
X156145420Y-114447707D01*
X156169495Y-114450500D01*
X156430504Y-114450499D01*
X156454580Y-114447707D01*
X156553079Y-114404215D01*
X156573905Y-114383388D01*
X156626230Y-114361714D01*
X156678556Y-114383387D01*
X156716611Y-114421442D01*
X156738285Y-114473768D01*
X156716612Y-114526093D01*
X156695786Y-114546919D01*
X156695785Y-114546920D01*
X156695785Y-114546921D01*
X156693193Y-114552792D01*
X156652292Y-114645421D01*
X156652292Y-114645423D01*
X156649500Y-114669495D01*
X156649500Y-114932088D01*
X156627826Y-114984414D01*
X156619849Y-114991327D01*
X156589242Y-115014240D01*
X156505230Y-115126466D01*
X156456242Y-115257806D01*
X156454394Y-115274999D01*
X156454394Y-115275000D01*
X158270606Y-115275000D01*
X158270605Y-115274999D01*
X158268757Y-115257807D01*
X158246477Y-115198072D01*
X158248498Y-115141471D01*
X158289950Y-115102877D01*
X158346551Y-115104898D01*
X158368137Y-115119885D01*
X158446780Y-115198528D01*
X158566874Y-115259719D01*
X158666511Y-115275500D01*
X158666512Y-115275500D01*
X159183489Y-115275500D01*
X159233307Y-115267609D01*
X159283126Y-115259719D01*
X159403220Y-115198528D01*
X159498528Y-115103220D01*
X159524618Y-115052015D01*
X159567682Y-115015235D01*
X159624145Y-115019678D01*
X159660928Y-115062745D01*
X159661612Y-115064967D01*
X159671845Y-115100191D01*
X159752228Y-115236111D01*
X159863888Y-115347771D01*
X159999808Y-115428154D01*
X160151448Y-115472210D01*
X160186890Y-115475000D01*
X160275000Y-115475000D01*
X160675000Y-115475000D01*
X160763110Y-115475000D01*
X160798551Y-115472210D01*
X160950191Y-115428154D01*
X161086111Y-115347771D01*
X161197771Y-115236111D01*
X161278154Y-115100191D01*
X161322210Y-114948551D01*
X161325000Y-114913110D01*
X161325000Y-114800000D01*
X160675000Y-114800000D01*
X160675000Y-115475000D01*
X160275000Y-115475000D01*
X160275000Y-114474000D01*
X160296674Y-114421674D01*
X160349000Y-114400000D01*
X161325000Y-114400000D01*
X161325000Y-114286889D01*
X161322210Y-114251448D01*
X161278154Y-114099808D01*
X161225936Y-114011512D01*
X161217956Y-113955440D01*
X161251962Y-113910148D01*
X161268986Y-113902781D01*
X161360199Y-113876281D01*
X161501556Y-113792682D01*
X161617682Y-113676556D01*
X161701281Y-113535199D01*
X161747099Y-113377493D01*
X161750000Y-113340641D01*
X161750000Y-113000000D01*
X159950000Y-113000000D01*
X159950000Y-113340641D01*
X159952900Y-113377493D01*
X159998718Y-113535199D01*
X160069747Y-113655301D01*
X160077727Y-113711373D01*
X160043721Y-113756665D01*
X160026700Y-113764031D01*
X159999811Y-113771844D01*
X159999810Y-113771844D01*
X159863888Y-113852228D01*
X159752228Y-113963888D01*
X159694766Y-114061051D01*
X159649474Y-114095057D01*
X159593402Y-114087077D01*
X159559396Y-114041785D01*
X159557274Y-114028856D01*
X159550257Y-113934125D01*
X159551032Y-113916683D01*
X159636860Y-113393896D01*
X159640033Y-113381454D01*
X159647646Y-113359699D01*
X159650500Y-113329266D01*
X159650500Y-112270734D01*
X159649433Y-112259358D01*
X159950000Y-112259358D01*
X159950000Y-112600000D01*
X160650000Y-112600000D01*
X161050000Y-112600000D01*
X161750000Y-112600000D01*
X161750000Y-112352647D01*
X163194859Y-112352647D01*
X163194859Y-112352654D01*
X163215377Y-112574083D01*
X163215379Y-112574096D01*
X163276237Y-112787993D01*
X163276239Y-112787997D01*
X163375368Y-112987077D01*
X163375370Y-112987080D01*
X163421560Y-113048245D01*
X164013629Y-112456176D01*
X164027259Y-112507045D01*
X164079920Y-112598257D01*
X164154394Y-112672731D01*
X164245606Y-112725392D01*
X164296472Y-112739021D01*
X163703000Y-113332492D01*
X163862817Y-113431445D01*
X163862827Y-113431450D01*
X164070194Y-113511785D01*
X164288800Y-113552650D01*
X164288806Y-113552651D01*
X164511194Y-113552651D01*
X164511199Y-113552650D01*
X164729805Y-113511785D01*
X164937172Y-113431450D01*
X164937182Y-113431445D01*
X165096997Y-113332491D01*
X164503527Y-112739021D01*
X164554394Y-112725392D01*
X164645606Y-112672731D01*
X164720080Y-112598257D01*
X164772741Y-112507045D01*
X164786370Y-112456178D01*
X165378438Y-113048246D01*
X165424629Y-112987079D01*
X165424631Y-112987077D01*
X165523760Y-112787997D01*
X165523762Y-112787993D01*
X165584620Y-112574096D01*
X165584622Y-112574083D01*
X165605141Y-112352654D01*
X165605141Y-112352647D01*
X165584622Y-112131218D01*
X165584620Y-112131205D01*
X165523762Y-111917308D01*
X165523760Y-111917304D01*
X165424631Y-111718224D01*
X165424629Y-111718221D01*
X165378437Y-111657054D01*
X164786370Y-112249122D01*
X164772741Y-112198257D01*
X164720080Y-112107045D01*
X164645606Y-112032571D01*
X164554394Y-111979910D01*
X164503525Y-111966280D01*
X165096998Y-111372808D01*
X164937182Y-111273856D01*
X164937172Y-111273851D01*
X164729805Y-111193516D01*
X164511199Y-111152651D01*
X164288800Y-111152651D01*
X164070194Y-111193516D01*
X163862827Y-111273851D01*
X163862817Y-111273856D01*
X163703000Y-111372808D01*
X164296472Y-111966280D01*
X164245606Y-111979910D01*
X164154394Y-112032571D01*
X164079920Y-112107045D01*
X164027259Y-112198257D01*
X164013629Y-112249123D01*
X163421560Y-111657054D01*
X163375368Y-111718225D01*
X163375367Y-111718228D01*
X163276239Y-111917304D01*
X163276237Y-111917308D01*
X163215379Y-112131205D01*
X163215377Y-112131218D01*
X163194859Y-112352647D01*
X161750000Y-112352647D01*
X161750000Y-112259358D01*
X161747099Y-112222506D01*
X161701281Y-112064800D01*
X161617682Y-111923443D01*
X161501556Y-111807317D01*
X161360199Y-111723718D01*
X161202491Y-111677900D01*
X161202494Y-111677900D01*
X161165641Y-111675000D01*
X161050000Y-111675000D01*
X161050000Y-112600000D01*
X160650000Y-112600000D01*
X160650000Y-111675000D01*
X160534359Y-111675000D01*
X160497506Y-111677900D01*
X160339800Y-111723718D01*
X160198443Y-111807317D01*
X160082317Y-111923443D01*
X159998718Y-112064800D01*
X159952900Y-112222506D01*
X159950000Y-112259358D01*
X159649433Y-112259358D01*
X159647646Y-112240301D01*
X159602793Y-112112118D01*
X159522150Y-112002850D01*
X159522149Y-112002849D01*
X159522144Y-112002845D01*
X159515541Y-111997971D01*
X159489638Y-111962873D01*
X159487033Y-111955429D01*
X159484629Y-111948556D01*
X159469197Y-111916511D01*
X159454933Y-111886889D01*
X159376375Y-111723758D01*
X159372900Y-111718228D01*
X159243630Y-111512489D01*
X159088077Y-111317425D01*
X159088076Y-111317424D01*
X159088073Y-111317420D01*
X159051222Y-111280567D01*
X159051208Y-111280551D01*
X159023482Y-111252825D01*
X158971165Y-111200507D01*
X158944052Y-111173393D01*
X158944051Y-111173392D01*
X158941479Y-111170820D01*
X158941456Y-111170799D01*
X158342115Y-110571458D01*
X158342113Y-110571454D01*
X158315329Y-110544670D01*
X158315330Y-110544670D01*
X158233811Y-110463151D01*
X158210946Y-110445606D01*
X158050889Y-110322790D01*
X158050883Y-110322786D01*
X157851206Y-110207503D01*
X157851198Y-110207500D01*
X157638187Y-110119269D01*
X157638186Y-110119268D01*
X157415471Y-110059593D01*
X157261622Y-110039338D01*
X157218955Y-110018297D01*
X156186543Y-108985886D01*
X156040097Y-108839440D01*
X156040093Y-108839437D01*
X156037822Y-108837166D01*
X156037797Y-108837143D01*
X156000477Y-108799823D01*
X156000473Y-108799819D01*
X155802085Y-108647589D01*
X155630946Y-108548781D01*
X155585524Y-108522556D01*
X155585521Y-108522555D01*
X155532257Y-108500492D01*
X155492209Y-108460443D01*
X155492209Y-108403806D01*
X155496861Y-108394495D01*
X157124500Y-108394495D01*
X157124500Y-109330503D01*
X157127292Y-109354575D01*
X157127293Y-109354578D01*
X157127293Y-109354580D01*
X157170785Y-109453079D01*
X157246921Y-109529215D01*
X157345420Y-109572707D01*
X157369495Y-109575500D01*
X157630504Y-109575499D01*
X157632089Y-109575499D01*
X157684415Y-109597173D01*
X157691328Y-109605152D01*
X157714240Y-109635758D01*
X157826466Y-109719769D01*
X157957806Y-109768757D01*
X157974999Y-109770605D01*
X157975000Y-109770605D01*
X157975000Y-107954393D01*
X158325000Y-107954393D01*
X158325000Y-109770605D01*
X158342193Y-109768757D01*
X158473533Y-109719769D01*
X158585759Y-109635758D01*
X158608667Y-109605155D01*
X158657375Y-109576253D01*
X158667909Y-109575499D01*
X158669486Y-109575499D01*
X158669495Y-109575500D01*
X158930504Y-109575499D01*
X158932089Y-109575499D01*
X158984415Y-109597173D01*
X158991328Y-109605152D01*
X159014240Y-109635758D01*
X159126466Y-109719769D01*
X159257806Y-109768757D01*
X159274999Y-109770605D01*
X159275000Y-109770605D01*
X159625000Y-109770605D01*
X159642193Y-109768757D01*
X159773533Y-109719769D01*
X159885759Y-109635758D01*
X159908667Y-109605155D01*
X159957375Y-109576253D01*
X159967909Y-109575499D01*
X159969486Y-109575499D01*
X159969495Y-109575500D01*
X160230504Y-109575499D01*
X160254580Y-109572707D01*
X160353079Y-109529215D01*
X160429215Y-109453079D01*
X160472707Y-109354580D01*
X160475500Y-109330505D01*
X160475499Y-108416663D01*
X160497173Y-108364338D01*
X160549499Y-108342664D01*
X160575360Y-108347330D01*
X160632807Y-108368757D01*
X160632810Y-108368758D01*
X160690868Y-108375000D01*
X160987500Y-108375000D01*
X161337500Y-108375000D01*
X161634132Y-108375000D01*
X161692189Y-108368758D01*
X161692195Y-108368756D01*
X161823533Y-108319769D01*
X161935758Y-108235758D01*
X162019769Y-108123533D01*
X162068757Y-107992193D01*
X162070606Y-107975000D01*
X161337500Y-107975000D01*
X161337500Y-108375000D01*
X160987500Y-108375000D01*
X160987500Y-107975000D01*
X160254394Y-107975000D01*
X160256242Y-107992193D01*
X160277669Y-108049640D01*
X160275648Y-108106241D01*
X160234195Y-108144834D01*
X160208335Y-108149500D01*
X159967910Y-108149500D01*
X159915584Y-108127826D01*
X159908670Y-108119846D01*
X159885760Y-108089242D01*
X159885759Y-108089241D01*
X159773534Y-108005230D01*
X159642192Y-107956242D01*
X159625000Y-107954393D01*
X159625000Y-109770605D01*
X159275000Y-109770605D01*
X159275000Y-107954393D01*
X159257807Y-107956242D01*
X159126465Y-108005230D01*
X159014237Y-108089244D01*
X158991328Y-108119847D01*
X158942619Y-108148747D01*
X158932089Y-108149500D01*
X158667910Y-108149500D01*
X158615584Y-108127826D01*
X158608670Y-108119846D01*
X158585760Y-108089242D01*
X158585759Y-108089241D01*
X158473534Y-108005230D01*
X158342192Y-107956242D01*
X158325000Y-107954393D01*
X157975000Y-107954393D01*
X157957807Y-107956242D01*
X157826465Y-108005230D01*
X157714237Y-108089244D01*
X157691328Y-108119847D01*
X157642619Y-108148747D01*
X157632089Y-108149500D01*
X157369496Y-108149500D01*
X157345424Y-108152292D01*
X157345419Y-108152293D01*
X157246920Y-108195785D01*
X157170786Y-108271919D01*
X157127292Y-108370421D01*
X157127292Y-108370423D01*
X157124500Y-108394495D01*
X155496861Y-108394495D01*
X155496881Y-108394455D01*
X155576282Y-108260196D01*
X155622099Y-108102493D01*
X155624883Y-108067120D01*
X155650595Y-108016656D01*
X155704460Y-107999153D01*
X155754924Y-108024865D01*
X155766349Y-108043034D01*
X155770784Y-108053078D01*
X155770785Y-108053079D01*
X155846921Y-108129215D01*
X155945420Y-108172707D01*
X155969495Y-108175500D01*
X156905504Y-108175499D01*
X156929580Y-108172707D01*
X157028079Y-108129215D01*
X157104215Y-108053079D01*
X157147707Y-107954580D01*
X157150500Y-107930505D01*
X157150499Y-107669496D01*
X157147707Y-107645420D01*
X157138690Y-107624999D01*
X160254394Y-107624999D01*
X160254394Y-107625000D01*
X160987500Y-107625000D01*
X161337500Y-107625000D01*
X162070606Y-107625000D01*
X162070605Y-107624999D01*
X162068757Y-107607808D01*
X162028867Y-107500861D01*
X162028867Y-107449139D01*
X162068757Y-107342191D01*
X162070606Y-107325000D01*
X161337500Y-107325000D01*
X161337500Y-107625000D01*
X160987500Y-107625000D01*
X160987500Y-107325000D01*
X160254394Y-107325000D01*
X160256242Y-107342192D01*
X160296132Y-107449139D01*
X160296132Y-107500861D01*
X160256242Y-107607807D01*
X160254394Y-107624999D01*
X157138690Y-107624999D01*
X157104215Y-107546921D01*
X157084620Y-107527326D01*
X157062946Y-107475000D01*
X157084620Y-107422674D01*
X157104215Y-107403079D01*
X157147707Y-107304580D01*
X157150500Y-107280505D01*
X157150499Y-107019496D01*
X157147707Y-106995420D01*
X157104215Y-106896921D01*
X157084620Y-106877326D01*
X157062946Y-106825000D01*
X157084620Y-106772674D01*
X157104215Y-106753079D01*
X157147707Y-106654580D01*
X157150500Y-106630505D01*
X157150499Y-106369496D01*
X157147707Y-106345420D01*
X157104215Y-106246921D01*
X157084620Y-106227326D01*
X157062946Y-106175000D01*
X157084620Y-106122674D01*
X157104215Y-106103079D01*
X157147707Y-106004580D01*
X157150500Y-105980505D01*
X157150499Y-105719496D01*
X157147707Y-105695420D01*
X157104215Y-105596921D01*
X157084620Y-105577326D01*
X157062946Y-105525000D01*
X157084620Y-105472674D01*
X157094110Y-105463184D01*
X157104215Y-105453079D01*
X157147707Y-105354580D01*
X157150500Y-105330505D01*
X157150499Y-105069496D01*
X157147707Y-105045420D01*
X157104215Y-104946921D01*
X157071301Y-104914007D01*
X157049627Y-104861681D01*
X157071301Y-104809355D01*
X157109355Y-104771301D01*
X157161681Y-104749627D01*
X157214007Y-104771301D01*
X157246921Y-104804215D01*
X157345420Y-104847707D01*
X157369495Y-104850500D01*
X157630504Y-104850499D01*
X157632089Y-104850499D01*
X157684415Y-104872173D01*
X157691328Y-104880152D01*
X157714240Y-104910758D01*
X157826466Y-104994769D01*
X157957806Y-105043757D01*
X157974999Y-105045605D01*
X157975000Y-105045605D01*
X158325000Y-105045605D01*
X158342191Y-105043757D01*
X158449139Y-105003867D01*
X158500861Y-105003867D01*
X158607808Y-105043757D01*
X158624999Y-105045605D01*
X158625000Y-105045605D01*
X158975000Y-105045605D01*
X158992191Y-105043757D01*
X159099139Y-105003867D01*
X159150861Y-105003867D01*
X159257808Y-105043757D01*
X159274999Y-105045605D01*
X159275000Y-105045605D01*
X159275000Y-104312500D01*
X158975000Y-104312500D01*
X158975000Y-105045605D01*
X158625000Y-105045605D01*
X158625000Y-104312500D01*
X158325000Y-104312500D01*
X158325000Y-105045605D01*
X157975000Y-105045605D01*
X157975000Y-104036500D01*
X157996674Y-103984174D01*
X158049000Y-103962500D01*
X158625000Y-103962500D01*
X158625000Y-103229393D01*
X158975000Y-103229393D01*
X158975000Y-103962500D01*
X159551000Y-103962500D01*
X159603326Y-103984174D01*
X159625000Y-104036500D01*
X159625000Y-105045605D01*
X159642193Y-105043757D01*
X159773533Y-104994769D01*
X159885759Y-104910758D01*
X159908667Y-104880155D01*
X159957375Y-104851253D01*
X159967909Y-104850499D01*
X159969486Y-104850499D01*
X159969495Y-104850500D01*
X160230504Y-104850499D01*
X160254580Y-104847707D01*
X160353079Y-104804215D01*
X160390992Y-104766301D01*
X160443317Y-104744627D01*
X160495643Y-104766300D01*
X160533698Y-104804355D01*
X160555373Y-104856680D01*
X160533700Y-104909006D01*
X160533699Y-104909007D01*
X160495786Y-104946919D01*
X160452292Y-105045421D01*
X160452292Y-105045423D01*
X160449500Y-105069495D01*
X160449500Y-105330503D01*
X160452292Y-105354575D01*
X160452293Y-105354580D01*
X160495785Y-105453079D01*
X160515380Y-105472674D01*
X160537054Y-105525000D01*
X160515380Y-105577326D01*
X160495786Y-105596919D01*
X160452292Y-105695421D01*
X160452292Y-105695423D01*
X160449500Y-105719495D01*
X160449500Y-105980503D01*
X160452292Y-106004575D01*
X160452293Y-106004580D01*
X160495785Y-106103079D01*
X160515380Y-106122674D01*
X160537054Y-106175000D01*
X160515380Y-106227326D01*
X160495786Y-106246919D01*
X160452292Y-106345421D01*
X160452292Y-106345423D01*
X160449500Y-106369495D01*
X160449500Y-106632088D01*
X160427826Y-106684414D01*
X160419849Y-106691327D01*
X160389242Y-106714240D01*
X160305230Y-106826466D01*
X160256242Y-106957806D01*
X160254394Y-106974999D01*
X160254394Y-106975000D01*
X162070605Y-106975000D01*
X162089568Y-106953889D01*
X162140659Y-106929445D01*
X162185733Y-106941811D01*
X162269274Y-106997638D01*
X162269277Y-106997639D01*
X162269280Y-106997641D01*
X162409134Y-107055581D01*
X162409716Y-107055822D01*
X162558810Y-107085492D01*
X162586672Y-107085494D01*
X162586742Y-107085500D01*
X162634819Y-107085500D01*
X162686373Y-107085505D01*
X162686374Y-107085504D01*
X162692295Y-107085505D01*
X162692370Y-107085500D01*
X163523005Y-107085500D01*
X164954190Y-107085500D01*
X164954193Y-107085501D01*
X164975080Y-107085500D01*
X164975115Y-107085514D01*
X165005747Y-107085513D01*
X165005747Y-107085514D01*
X165094215Y-107085511D01*
X165269636Y-107062411D01*
X165440541Y-107016613D01*
X165440546Y-107016610D01*
X165440549Y-107016610D01*
X165486340Y-106997641D01*
X165586962Y-106955959D01*
X165603396Y-106951873D01*
X165603322Y-106951490D01*
X165606892Y-106950791D01*
X165867175Y-106872707D01*
X167097479Y-106503620D01*
X167118742Y-106500500D01*
X167572397Y-106500500D01*
X167572399Y-106500500D01*
X167630882Y-106488867D01*
X167697203Y-106444552D01*
X167741518Y-106378231D01*
X167753151Y-106319748D01*
X167753151Y-104680252D01*
X167741518Y-104621769D01*
X167697203Y-104555448D01*
X167674994Y-104540608D01*
X167630883Y-104511133D01*
X167630884Y-104511133D01*
X167601640Y-104505316D01*
X167572399Y-104499500D01*
X167572397Y-104499500D01*
X167300342Y-104499500D01*
X167249614Y-104479376D01*
X166357009Y-103638930D01*
X166357006Y-103638928D01*
X166357005Y-103638927D01*
X166343470Y-103630318D01*
X166330864Y-103620208D01*
X165505874Y-102795217D01*
X165501090Y-102789460D01*
X165500932Y-102789594D01*
X165498594Y-102786815D01*
X165481119Y-102769764D01*
X165468456Y-102752282D01*
X165468243Y-102752414D01*
X165466428Y-102749482D01*
X165466364Y-102749394D01*
X165466330Y-102749324D01*
X165135591Y-102316512D01*
X165015702Y-102159622D01*
X165000500Y-102114691D01*
X165000500Y-101445740D01*
X165000500Y-101445734D01*
X164997646Y-101415301D01*
X164952793Y-101287118D01*
X164952792Y-101287116D01*
X164872153Y-101177853D01*
X164872146Y-101177846D01*
X164762883Y-101097207D01*
X164762881Y-101097206D01*
X164634704Y-101052355D01*
X164634705Y-101052355D01*
X164634700Y-101052354D01*
X164634699Y-101052354D01*
X164604266Y-101049500D01*
X159595734Y-101049500D01*
X159565301Y-101052354D01*
X159565299Y-101052354D01*
X159565295Y-101052355D01*
X159437118Y-101097206D01*
X159437116Y-101097207D01*
X159327853Y-101177846D01*
X159327846Y-101177853D01*
X159247207Y-101287116D01*
X159247206Y-101287118D01*
X159202355Y-101415295D01*
X159202354Y-101415299D01*
X159202354Y-101415301D01*
X159199500Y-101445734D01*
X159199500Y-102854266D01*
X159202354Y-102884699D01*
X159202354Y-102884701D01*
X159202355Y-102884704D01*
X159219299Y-102933126D01*
X159247207Y-103012882D01*
X159320734Y-103112508D01*
X159334367Y-103167480D01*
X159305137Y-103215991D01*
X159269108Y-103230027D01*
X159257808Y-103231242D01*
X159257807Y-103231242D01*
X159150861Y-103271132D01*
X159099139Y-103271132D01*
X158992192Y-103231242D01*
X158975000Y-103229393D01*
X158625000Y-103229393D01*
X158624999Y-103229392D01*
X158606506Y-103231382D01*
X158552163Y-103215427D01*
X158525017Y-103165719D01*
X158540972Y-103111376D01*
X158546268Y-103105480D01*
X158598525Y-103053223D01*
X158598528Y-103053220D01*
X158659719Y-102933126D01*
X158675500Y-102833488D01*
X158675500Y-102316512D01*
X158659719Y-102216874D01*
X158598528Y-102096780D01*
X158503220Y-102001472D01*
X158452016Y-101975382D01*
X158415235Y-101932316D01*
X158419679Y-101875853D01*
X158462746Y-101839071D01*
X158464969Y-101838387D01*
X158500190Y-101828155D01*
X158636111Y-101747771D01*
X158747771Y-101636111D01*
X158828154Y-101500191D01*
X158872210Y-101348551D01*
X158875000Y-101313110D01*
X158875000Y-101225000D01*
X157125000Y-101225000D01*
X157125000Y-101313110D01*
X157127789Y-101348551D01*
X157171845Y-101500191D01*
X157252228Y-101636111D01*
X157363888Y-101747771D01*
X157461048Y-101805231D01*
X157495054Y-101850523D01*
X157487074Y-101906595D01*
X157441782Y-101940601D01*
X157428846Y-101942724D01*
X157359578Y-101947855D01*
X157331084Y-101944383D01*
X157215677Y-101906595D01*
X157106449Y-101870830D01*
X157106448Y-101870830D01*
X156976117Y-101828155D01*
X156801308Y-101770916D01*
X156780392Y-101760130D01*
X156763646Y-101747771D01*
X156762882Y-101747207D01*
X156762880Y-101747206D01*
X156634704Y-101702355D01*
X156634705Y-101702355D01*
X156634700Y-101702354D01*
X156634699Y-101702354D01*
X156604266Y-101699500D01*
X155195734Y-101699500D01*
X155165301Y-101702354D01*
X155165299Y-101702354D01*
X155165295Y-101702355D01*
X155037118Y-101747206D01*
X155037116Y-101747207D01*
X154927853Y-101827846D01*
X154927846Y-101827853D01*
X154847207Y-101937116D01*
X154847206Y-101937118D01*
X154802355Y-102065295D01*
X154802354Y-102065299D01*
X154802354Y-102065301D01*
X154799500Y-102095734D01*
X154799500Y-102854266D01*
X154802354Y-102884699D01*
X154802354Y-102884701D01*
X154802355Y-102884704D01*
X154847206Y-103012881D01*
X154847207Y-103012883D01*
X154927846Y-103122146D01*
X154927853Y-103122153D01*
X155037116Y-103202792D01*
X155037118Y-103202793D01*
X155165295Y-103247644D01*
X155165301Y-103247646D01*
X155195734Y-103250500D01*
X155201487Y-103250500D01*
X155253813Y-103272174D01*
X155274065Y-103310064D01*
X155287517Y-103377700D01*
X155287520Y-103377711D01*
X155301981Y-103425385D01*
X155296428Y-103481749D01*
X155252646Y-103517678D01*
X155250320Y-103518343D01*
X155040411Y-103574587D01*
X155040404Y-103574589D01*
X154732411Y-103686687D01*
X154435358Y-103825202D01*
X154435343Y-103825209D01*
X154151469Y-103989101D01*
X154151468Y-103989102D01*
X153882976Y-104177102D01*
X153882972Y-104177105D01*
X153859490Y-104196809D01*
X153631878Y-104387796D01*
X153546293Y-104473380D01*
X153546292Y-104473381D01*
X153151523Y-104868149D01*
X153151478Y-104868167D01*
X153076238Y-104943408D01*
X153076237Y-104943410D01*
X152992045Y-105069420D01*
X152992038Y-105069433D01*
X152934049Y-105209448D01*
X152934049Y-105209449D01*
X152904493Y-105358100D01*
X152904500Y-105430458D01*
X152904500Y-106255061D01*
X152904518Y-106255352D01*
X152904518Y-106275853D01*
X152931156Y-106409825D01*
X152931160Y-106409838D01*
X152983423Y-106536039D01*
X152983424Y-106536041D01*
X152983425Y-106536042D01*
X153059310Y-106649629D01*
X153074240Y-106664562D01*
X153074286Y-106664613D01*
X153077317Y-106667644D01*
X153111512Y-106701839D01*
X153123911Y-106714240D01*
X153148258Y-106738589D01*
X153148285Y-106738612D01*
X153170161Y-106760488D01*
X153170184Y-106760544D01*
X153191835Y-106782193D01*
X153191835Y-106782194D01*
X153249471Y-106839827D01*
X153381356Y-106935642D01*
X153482444Y-106987144D01*
X153519228Y-107030210D01*
X153514787Y-107086673D01*
X153507336Y-107098418D01*
X153507321Y-107098436D01*
X153423718Y-107239800D01*
X153377900Y-107397506D01*
X153375000Y-107434358D01*
X153375000Y-107550000D01*
X154626000Y-107550000D01*
X154678326Y-107571674D01*
X154700000Y-107624000D01*
X154700000Y-107876000D01*
X154678326Y-107928326D01*
X154626000Y-107950000D01*
X153375000Y-107950000D01*
X153375000Y-108065641D01*
X153377900Y-108102493D01*
X153416355Y-108234855D01*
X153410140Y-108291150D01*
X153365938Y-108326562D01*
X153345293Y-108329500D01*
X150737617Y-108329500D01*
X150737526Y-108329495D01*
X150733438Y-108329495D01*
X150733437Y-108329495D01*
X150694629Y-108329497D01*
X150685180Y-108329498D01*
X150685138Y-108329481D01*
X150568316Y-108329487D01*
X150397420Y-108351997D01*
X150230917Y-108396619D01*
X150230911Y-108396621D01*
X150071661Y-108462591D01*
X150071651Y-108462596D01*
X149922381Y-108548781D01*
X149922379Y-108548782D01*
X149785617Y-108653726D01*
X149785615Y-108653728D01*
X149763052Y-108676288D01*
X149763048Y-108676294D01*
X149672806Y-108766536D01*
X149620480Y-108788210D01*
X149614051Y-108787930D01*
X149450888Y-108773700D01*
X149450886Y-108773700D01*
X149450884Y-108773700D01*
X149346256Y-108782882D01*
X149241625Y-108792065D01*
X149038738Y-108846488D01*
X148969083Y-108878992D01*
X148963102Y-108881471D01*
X148890709Y-108907821D01*
X148708791Y-109012851D01*
X148547876Y-109147876D01*
X148412851Y-109308791D01*
X148307819Y-109490712D01*
X148235975Y-109688101D01*
X148199500Y-109894966D01*
X130300500Y-109894966D01*
X130300500Y-101562632D01*
X152599500Y-101562632D01*
X152599500Y-103202128D01*
X152605067Y-103230116D01*
X152611133Y-103260612D01*
X152614239Y-103265260D01*
X152655448Y-103326932D01*
X152698786Y-103355890D01*
X152721767Y-103371246D01*
X152721768Y-103371246D01*
X152721769Y-103371247D01*
X152780252Y-103382880D01*
X152780254Y-103382880D01*
X154419746Y-103382880D01*
X154419748Y-103382880D01*
X154478231Y-103371247D01*
X154544552Y-103326932D01*
X154588867Y-103260611D01*
X154600500Y-103202128D01*
X154600500Y-101562632D01*
X154588867Y-101504149D01*
X154586222Y-101500191D01*
X154574027Y-101481940D01*
X154544552Y-101437828D01*
X154510830Y-101415295D01*
X154478232Y-101393513D01*
X154478233Y-101393513D01*
X154448989Y-101387696D01*
X154419748Y-101381880D01*
X152780252Y-101381880D01*
X152751010Y-101387696D01*
X152721767Y-101393513D01*
X152655449Y-101437827D01*
X152655447Y-101437829D01*
X152611133Y-101504147D01*
X152611133Y-101504149D01*
X152599500Y-101562632D01*
X130300500Y-101562632D01*
X130300500Y-99882376D01*
X152394859Y-99882376D01*
X152394859Y-99882383D01*
X152415377Y-100103812D01*
X152415379Y-100103825D01*
X152476237Y-100317722D01*
X152476239Y-100317726D01*
X152575368Y-100516806D01*
X152575370Y-100516809D01*
X152621560Y-100577974D01*
X153213629Y-99985905D01*
X153227259Y-100036774D01*
X153279920Y-100127986D01*
X153354394Y-100202460D01*
X153445606Y-100255121D01*
X153496472Y-100268750D01*
X152903000Y-100862221D01*
X153062817Y-100961174D01*
X153062827Y-100961179D01*
X153270194Y-101041514D01*
X153488800Y-101082379D01*
X153488806Y-101082380D01*
X153711194Y-101082380D01*
X153711199Y-101082379D01*
X153929805Y-101041514D01*
X154137172Y-100961179D01*
X154137182Y-100961174D01*
X154296997Y-100862220D01*
X154171666Y-100736889D01*
X157125000Y-100736889D01*
X157125000Y-100825000D01*
X157800000Y-100825000D01*
X158200000Y-100825000D01*
X158875000Y-100825000D01*
X158875000Y-100736889D01*
X158872210Y-100701448D01*
X158828154Y-100549808D01*
X158747771Y-100413888D01*
X158636111Y-100302228D01*
X158500191Y-100221845D01*
X158348551Y-100177789D01*
X158313110Y-100175000D01*
X158200000Y-100175000D01*
X158200000Y-100825000D01*
X157800000Y-100825000D01*
X157800000Y-100175000D01*
X157686890Y-100175000D01*
X157651448Y-100177789D01*
X157499808Y-100221845D01*
X157363888Y-100302228D01*
X157252228Y-100413888D01*
X157171845Y-100549808D01*
X157127789Y-100701448D01*
X157125000Y-100736889D01*
X154171666Y-100736889D01*
X153703527Y-100268750D01*
X153754394Y-100255121D01*
X153845606Y-100202460D01*
X153920080Y-100127986D01*
X153972741Y-100036774D01*
X153986370Y-99985907D01*
X154578438Y-100577975D01*
X154624629Y-100516808D01*
X154624631Y-100516806D01*
X154702758Y-100359906D01*
X154745483Y-100322727D01*
X154801985Y-100326649D01*
X154821326Y-100340565D01*
X154848443Y-100367682D01*
X154989800Y-100451281D01*
X155147508Y-100497099D01*
X155147505Y-100497099D01*
X155184359Y-100500000D01*
X155700000Y-100500000D01*
X156100000Y-100500000D01*
X156615641Y-100500000D01*
X156652493Y-100497099D01*
X156810199Y-100451281D01*
X156951556Y-100367682D01*
X157067682Y-100251556D01*
X157151281Y-100110199D01*
X157197099Y-99952493D01*
X157200000Y-99915641D01*
X157200000Y-99725000D01*
X156100000Y-99725000D01*
X156100000Y-100500000D01*
X155700000Y-100500000D01*
X155700000Y-99325000D01*
X156100000Y-99325000D01*
X157200000Y-99325000D01*
X157200000Y-99134358D01*
X157197099Y-99097506D01*
X157151281Y-98939800D01*
X157067682Y-98798443D01*
X156951556Y-98682317D01*
X156810199Y-98598718D01*
X156652491Y-98552900D01*
X156652494Y-98552900D01*
X156615641Y-98550000D01*
X156100000Y-98550000D01*
X156100000Y-99325000D01*
X155700000Y-99325000D01*
X155700000Y-98550000D01*
X155184359Y-98550000D01*
X155147506Y-98552900D01*
X154989800Y-98598718D01*
X154848443Y-98682317D01*
X154732317Y-98798443D01*
X154648718Y-98939801D01*
X154602900Y-99097505D01*
X154599504Y-99140645D01*
X154578058Y-99187163D01*
X153986370Y-99778851D01*
X153972741Y-99727986D01*
X153920080Y-99636774D01*
X153845606Y-99562300D01*
X153754394Y-99509639D01*
X153703525Y-99496009D01*
X154296998Y-98902537D01*
X154137182Y-98803585D01*
X154137172Y-98803580D01*
X153929805Y-98723245D01*
X153711199Y-98682380D01*
X153488800Y-98682380D01*
X153270194Y-98723245D01*
X153062827Y-98803580D01*
X153062817Y-98803585D01*
X152903000Y-98902537D01*
X153496472Y-99496009D01*
X153445606Y-99509639D01*
X153354394Y-99562300D01*
X153279920Y-99636774D01*
X153227259Y-99727986D01*
X153213629Y-99778852D01*
X152621560Y-99186783D01*
X152575368Y-99247954D01*
X152575367Y-99247957D01*
X152476239Y-99447033D01*
X152476237Y-99447037D01*
X152415379Y-99660934D01*
X152415377Y-99660947D01*
X152394859Y-99882376D01*
X130300500Y-99882376D01*
X130300500Y-97765641D01*
X159000000Y-97765641D01*
X159002900Y-97802493D01*
X159048718Y-97960199D01*
X159132317Y-98101556D01*
X159248443Y-98217682D01*
X159389800Y-98301281D01*
X159547508Y-98347099D01*
X159547505Y-98347099D01*
X159584359Y-98350000D01*
X161900000Y-98350000D01*
X162300000Y-98350000D01*
X164615641Y-98350000D01*
X164652493Y-98347099D01*
X164810199Y-98301281D01*
X164951556Y-98217682D01*
X165067682Y-98101556D01*
X165151281Y-97960199D01*
X165197099Y-97802493D01*
X165200000Y-97765641D01*
X165200000Y-97250000D01*
X162300000Y-97250000D01*
X162300000Y-98350000D01*
X161900000Y-98350000D01*
X161900000Y-97250000D01*
X159000000Y-97250000D01*
X159000000Y-97765641D01*
X130300500Y-97765641D01*
X130300500Y-95800000D01*
X131769196Y-95800000D01*
X131790280Y-95933126D01*
X131851471Y-96053219D01*
X131946780Y-96148528D01*
X132016527Y-96184066D01*
X132053310Y-96227133D01*
X132048866Y-96283595D01*
X132016527Y-96315934D01*
X131946780Y-96351471D01*
X131851471Y-96446780D01*
X131790281Y-96566873D01*
X131790280Y-96566873D01*
X131769196Y-96700000D01*
X131790280Y-96833126D01*
X131851471Y-96953219D01*
X131851472Y-96953220D01*
X131946780Y-97048528D01*
X132066873Y-97109718D01*
X132066873Y-97109719D01*
X132087958Y-97113058D01*
X132200000Y-97130804D01*
X132284192Y-97117469D01*
X132339264Y-97130691D01*
X132368857Y-97178982D01*
X132368859Y-97194176D01*
X132369196Y-97194176D01*
X132369196Y-97199999D01*
X132369196Y-97200000D01*
X132370067Y-97205499D01*
X132390280Y-97333126D01*
X132451471Y-97453219D01*
X132451472Y-97453220D01*
X132546780Y-97548528D01*
X132666873Y-97609718D01*
X132666873Y-97609719D01*
X132685075Y-97612601D01*
X132800000Y-97630804D01*
X132933126Y-97609719D01*
X133053220Y-97548528D01*
X133148528Y-97453220D01*
X133209719Y-97333126D01*
X133230804Y-97200000D01*
X133209719Y-97066874D01*
X133209719Y-97066873D01*
X133148528Y-96946780D01*
X133053222Y-96851474D01*
X133053220Y-96851472D01*
X132983469Y-96815932D01*
X132946689Y-96772867D01*
X132951132Y-96716405D01*
X132983469Y-96684067D01*
X133053220Y-96648528D01*
X133148528Y-96553220D01*
X133209719Y-96433126D01*
X133230804Y-96300000D01*
X133209719Y-96166874D01*
X133209719Y-96166873D01*
X133148528Y-96046780D01*
X133053219Y-95951471D01*
X132933126Y-95890281D01*
X132933126Y-95890280D01*
X132800000Y-95869196D01*
X132799999Y-95869196D01*
X132715805Y-95882530D01*
X132660733Y-95869308D01*
X132631141Y-95821016D01*
X132631144Y-95805824D01*
X132630804Y-95805824D01*
X132630804Y-95800000D01*
X132609719Y-95666873D01*
X132548528Y-95546780D01*
X132453219Y-95451471D01*
X132333126Y-95390281D01*
X132333126Y-95390280D01*
X132200000Y-95369196D01*
X132066873Y-95390280D01*
X132066873Y-95390281D01*
X131946780Y-95451471D01*
X131851471Y-95546780D01*
X131790281Y-95666873D01*
X131790280Y-95666873D01*
X131769196Y-95800000D01*
X130300500Y-95800000D01*
X130300500Y-94100000D01*
X135249196Y-94100000D01*
X135270280Y-94233126D01*
X135331066Y-94352424D01*
X135331472Y-94353220D01*
X135426780Y-94448528D01*
X135546873Y-94509718D01*
X135546873Y-94509719D01*
X135565075Y-94512601D01*
X135680000Y-94530804D01*
X135813126Y-94509719D01*
X135933220Y-94448528D01*
X136028528Y-94353220D01*
X136089719Y-94233126D01*
X136110804Y-94100000D01*
X136089719Y-93966874D01*
X136089719Y-93966873D01*
X136028528Y-93846780D01*
X135933219Y-93751471D01*
X135813126Y-93690281D01*
X135813126Y-93690280D01*
X135680000Y-93669196D01*
X135546873Y-93690280D01*
X135546873Y-93690281D01*
X135426780Y-93751471D01*
X135331471Y-93846780D01*
X135270281Y-93966873D01*
X135270280Y-93966873D01*
X135249196Y-94100000D01*
X130300500Y-94100000D01*
X130300500Y-90916511D01*
X132024500Y-90916511D01*
X132024500Y-91433488D01*
X132040280Y-91533125D01*
X132040281Y-91533126D01*
X132079306Y-91609718D01*
X132101472Y-91653220D01*
X132196780Y-91748528D01*
X132316874Y-91809719D01*
X132416511Y-91825500D01*
X132416512Y-91825500D01*
X132983489Y-91825500D01*
X133033307Y-91817609D01*
X133083126Y-91809719D01*
X133203220Y-91748528D01*
X133298528Y-91653220D01*
X133359719Y-91533126D01*
X133375500Y-91433488D01*
X133375500Y-91200000D01*
X134169196Y-91200000D01*
X134190280Y-91333126D01*
X134251471Y-91453219D01*
X134251472Y-91453220D01*
X134346780Y-91548528D01*
X134466873Y-91609718D01*
X134466873Y-91609719D01*
X134485075Y-91612601D01*
X134600000Y-91630804D01*
X134733126Y-91609719D01*
X134853220Y-91548528D01*
X134948528Y-91453220D01*
X135009719Y-91333126D01*
X135030804Y-91200000D01*
X135009719Y-91066874D01*
X135009719Y-91066873D01*
X134948528Y-90946780D01*
X134853219Y-90851471D01*
X134733126Y-90790281D01*
X134733126Y-90790280D01*
X134600000Y-90769196D01*
X134466873Y-90790280D01*
X134466873Y-90790281D01*
X134346780Y-90851471D01*
X134251471Y-90946780D01*
X134190281Y-91066873D01*
X134190280Y-91066873D01*
X134169196Y-91200000D01*
X133375500Y-91200000D01*
X133375500Y-90916512D01*
X133373497Y-90903868D01*
X133359719Y-90816874D01*
X133359718Y-90816873D01*
X133346168Y-90790280D01*
X133298528Y-90696780D01*
X133203220Y-90601472D01*
X133203219Y-90601471D01*
X133083126Y-90540281D01*
X133083125Y-90540280D01*
X132983489Y-90524500D01*
X132983488Y-90524500D01*
X132416512Y-90524500D01*
X132416511Y-90524500D01*
X132316874Y-90540280D01*
X132316873Y-90540281D01*
X132196780Y-90601471D01*
X132101471Y-90696780D01*
X132040281Y-90816873D01*
X132040280Y-90816874D01*
X132024500Y-90916511D01*
X130300500Y-90916511D01*
X130300500Y-88486511D01*
X130322174Y-88434185D01*
X130374500Y-88412511D01*
X130426826Y-88434185D01*
X130442867Y-88458193D01*
X130450900Y-88477587D01*
X130547075Y-88602924D01*
X130672412Y-88699099D01*
X130818369Y-88759556D01*
X130935678Y-88774999D01*
X131375000Y-88774999D01*
X131414321Y-88774999D01*
X131531628Y-88759556D01*
X131531632Y-88759555D01*
X131677587Y-88699099D01*
X131802924Y-88602924D01*
X131899099Y-88477587D01*
X131959556Y-88331630D01*
X131975000Y-88214321D01*
X131975000Y-88100000D01*
X131375000Y-88100000D01*
X131375000Y-88774999D01*
X130935678Y-88774999D01*
X130974999Y-88774998D01*
X130975000Y-88774998D01*
X130975000Y-87774000D01*
X130996674Y-87721674D01*
X131049000Y-87700000D01*
X131974999Y-87700000D01*
X131974999Y-87585678D01*
X131959556Y-87468371D01*
X131959555Y-87468367D01*
X131899099Y-87322412D01*
X131802924Y-87197075D01*
X131703915Y-87121102D01*
X131675597Y-87072052D01*
X131690256Y-87017345D01*
X131739306Y-86989027D01*
X131760541Y-86989305D01*
X131763775Y-86989818D01*
X131769998Y-86990804D01*
X131770000Y-86990804D01*
X131903126Y-86969719D01*
X132023220Y-86908528D01*
X132118528Y-86813220D01*
X132179719Y-86693126D01*
X132185879Y-86654230D01*
X132215471Y-86605940D01*
X132270544Y-86592718D01*
X132318835Y-86622310D01*
X132332057Y-86654231D01*
X132339354Y-86700304D01*
X132339354Y-86700306D01*
X132375616Y-86771472D01*
X132396950Y-86813342D01*
X132486658Y-86903050D01*
X132599696Y-86960646D01*
X132693481Y-86975500D01*
X132721610Y-86975499D01*
X132773934Y-86997171D01*
X132795610Y-87049497D01*
X132773938Y-87101823D01*
X132760592Y-87112399D01*
X132587664Y-87219572D01*
X132560259Y-87229761D01*
X132499698Y-87239353D01*
X132386656Y-87296951D01*
X132296951Y-87386656D01*
X132239353Y-87499698D01*
X132224500Y-87593480D01*
X132224500Y-88206519D01*
X132239353Y-88300304D01*
X132239354Y-88300306D01*
X132282854Y-88385678D01*
X132296950Y-88413342D01*
X132386658Y-88503050D01*
X132499696Y-88560646D01*
X132593481Y-88575500D01*
X133056518Y-88575499D01*
X133056519Y-88575499D01*
X133150304Y-88560646D01*
X133150306Y-88560645D01*
X133157407Y-88557027D01*
X133263342Y-88503050D01*
X133353050Y-88413342D01*
X133410646Y-88300304D01*
X133425500Y-88206519D01*
X133425499Y-88058261D01*
X133429402Y-88036967D01*
X133428868Y-88036823D01*
X133429818Y-88033312D01*
X133429819Y-88033310D01*
X133547519Y-87331465D01*
X133577549Y-87283445D01*
X133632739Y-87270724D01*
X133680760Y-87300754D01*
X133694500Y-87343705D01*
X133694500Y-88968279D01*
X133672826Y-89020605D01*
X133620500Y-89042279D01*
X133612328Y-89041826D01*
X132980418Y-88971615D01*
X132940696Y-88971064D01*
X132940680Y-88971065D01*
X132936208Y-88971437D01*
X132921735Y-88973650D01*
X132910553Y-88974500D01*
X132416511Y-88974500D01*
X132316874Y-88990280D01*
X132316873Y-88990281D01*
X132196780Y-89051471D01*
X132101471Y-89146780D01*
X132040281Y-89266873D01*
X132040280Y-89266874D01*
X132024500Y-89366511D01*
X132024500Y-89883488D01*
X132040280Y-89983125D01*
X132040281Y-89983126D01*
X132101344Y-90102970D01*
X132101472Y-90103220D01*
X132196780Y-90198528D01*
X132316874Y-90259719D01*
X132416511Y-90275500D01*
X132416512Y-90275500D01*
X132983489Y-90275500D01*
X133008397Y-90271554D01*
X133083126Y-90259719D01*
X133203220Y-90198528D01*
X133203222Y-90198526D01*
X133207933Y-90195104D01*
X133208361Y-90195693D01*
X133218591Y-90188250D01*
X133666545Y-89959524D01*
X133723002Y-89955033D01*
X133760062Y-89981934D01*
X133774556Y-90001883D01*
X133798797Y-90029628D01*
X133877307Y-90076536D01*
X133935498Y-90095443D01*
X133984604Y-90103220D01*
X133998999Y-90105500D01*
X133999000Y-90105500D01*
X137745498Y-90105500D01*
X137745500Y-90105500D01*
X137764693Y-90103989D01*
X137818558Y-90121490D01*
X137844272Y-90171953D01*
X137844500Y-90177761D01*
X137844500Y-95900000D01*
X137844826Y-95914109D01*
X137870530Y-96023398D01*
X137933979Y-96116021D01*
X138933979Y-97116021D01*
X138944186Y-97125767D01*
X139039641Y-97184870D01*
X139150000Y-97205500D01*
X150650009Y-97205500D01*
X150652346Y-97205445D01*
X150664109Y-97205174D01*
X150773398Y-97179470D01*
X150866021Y-97116021D01*
X151866021Y-96116021D01*
X151875767Y-96105814D01*
X151934870Y-96010359D01*
X151955500Y-95900000D01*
X151955500Y-95265641D01*
X155400000Y-95265641D01*
X155402900Y-95302493D01*
X155448718Y-95460199D01*
X155532317Y-95601556D01*
X155648443Y-95717682D01*
X155789800Y-95801281D01*
X155947508Y-95847099D01*
X155947505Y-95847099D01*
X155984359Y-95850000D01*
X156500000Y-95850000D01*
X156900000Y-95850000D01*
X157415641Y-95850000D01*
X157452493Y-95847099D01*
X157610199Y-95801281D01*
X157751556Y-95717682D01*
X157865352Y-95603887D01*
X157917678Y-95582213D01*
X157970004Y-95603887D01*
X158063888Y-95697771D01*
X158199808Y-95778154D01*
X158351448Y-95822210D01*
X158386890Y-95825000D01*
X158500000Y-95825000D01*
X158900000Y-95825000D01*
X159013110Y-95825000D01*
X159048555Y-95822210D01*
X159138251Y-95796150D01*
X159194546Y-95802364D01*
X159229958Y-95846565D01*
X159223744Y-95902860D01*
X159211223Y-95919537D01*
X159132317Y-95998443D01*
X159048718Y-96139800D01*
X159002900Y-96297506D01*
X159000000Y-96334358D01*
X159000000Y-96850000D01*
X161900000Y-96850000D01*
X162300000Y-96850000D01*
X165200000Y-96850000D01*
X165200000Y-96334358D01*
X165197099Y-96297506D01*
X165151281Y-96139800D01*
X165067682Y-95998443D01*
X164951556Y-95882317D01*
X164810199Y-95798718D01*
X164652491Y-95752900D01*
X164652494Y-95752900D01*
X164615641Y-95750000D01*
X162300000Y-95750000D01*
X162300000Y-96850000D01*
X161900000Y-96850000D01*
X161900000Y-95750000D01*
X161062535Y-95750000D01*
X161010209Y-95728326D01*
X160988535Y-95676000D01*
X161010209Y-95623674D01*
X161047771Y-95586111D01*
X161128154Y-95450191D01*
X161172210Y-95298551D01*
X161175000Y-95263110D01*
X161175000Y-95175000D01*
X158900000Y-95175000D01*
X158900000Y-95825000D01*
X158500000Y-95825000D01*
X158500000Y-95175000D01*
X157856000Y-95175000D01*
X157803674Y-95153326D01*
X157782000Y-95101000D01*
X157782000Y-95075000D01*
X156900000Y-95075000D01*
X156900000Y-95850000D01*
X156500000Y-95850000D01*
X156500000Y-95075000D01*
X155400000Y-95075000D01*
X155400000Y-95265641D01*
X151955500Y-95265641D01*
X151955500Y-94484358D01*
X155400000Y-94484358D01*
X155400000Y-94675000D01*
X156500000Y-94675000D01*
X156500000Y-93900000D01*
X155984359Y-93900000D01*
X155947506Y-93902900D01*
X155789800Y-93948718D01*
X155648443Y-94032317D01*
X155532317Y-94148443D01*
X155448718Y-94289800D01*
X155402900Y-94447506D01*
X155400000Y-94484358D01*
X151955500Y-94484358D01*
X151955500Y-91545734D01*
X155599500Y-91545734D01*
X155599500Y-92304266D01*
X155602354Y-92334699D01*
X155602354Y-92334701D01*
X155602355Y-92334704D01*
X155647206Y-92462881D01*
X155647207Y-92462883D01*
X155727846Y-92572146D01*
X155727853Y-92572153D01*
X155837116Y-92652792D01*
X155837118Y-92652793D01*
X155965295Y-92697644D01*
X155965301Y-92697646D01*
X155995734Y-92700500D01*
X156051015Y-92700500D01*
X156103341Y-92722174D01*
X156119381Y-92746179D01*
X156135985Y-92786264D01*
X156184416Y-92903189D01*
X156184417Y-92903191D01*
X156246051Y-93009942D01*
X156304178Y-93110621D01*
X156449989Y-93300645D01*
X156449993Y-93300649D01*
X156484022Y-93334678D01*
X156484029Y-93334686D01*
X156587701Y-93438358D01*
X156592650Y-93443827D01*
X156594905Y-93446583D01*
X156597284Y-93448805D01*
X156602832Y-93453489D01*
X156812416Y-93663073D01*
X156812419Y-93663079D01*
X156899807Y-93750468D01*
X156921732Y-93767292D01*
X156950050Y-93816342D01*
X156935391Y-93871049D01*
X156920154Y-93879845D01*
X156900000Y-93900000D01*
X156900000Y-94675000D01*
X157969000Y-94675000D01*
X158021326Y-94696674D01*
X158043000Y-94749000D01*
X158043000Y-94775000D01*
X161175000Y-94775000D01*
X161175000Y-94686889D01*
X161172210Y-94651448D01*
X161127593Y-94497878D01*
X161133808Y-94441583D01*
X161155160Y-94417364D01*
X161239833Y-94355847D01*
X161243257Y-94352422D01*
X161243273Y-94352411D01*
X161243272Y-94352410D01*
X161266162Y-94329520D01*
X161266179Y-94329512D01*
X161287845Y-94307845D01*
X161287846Y-94307846D01*
X161333003Y-94262689D01*
X161408076Y-94159358D01*
X161466060Y-94045555D01*
X161505526Y-93924082D01*
X161505527Y-93924076D01*
X161505529Y-93924068D01*
X161525501Y-93797934D01*
X161525502Y-93797930D01*
X161525500Y-93734068D01*
X161525500Y-93722500D01*
X161525500Y-92681013D01*
X161528178Y-92661287D01*
X161530527Y-92652793D01*
X161612541Y-92356255D01*
X161612542Y-92356239D01*
X161612899Y-92354404D01*
X161618482Y-92337210D01*
X161619259Y-92335545D01*
X161625500Y-92288139D01*
X161625499Y-91011862D01*
X161619259Y-90964455D01*
X161570747Y-90860421D01*
X161489579Y-90779253D01*
X161385545Y-90730741D01*
X161385543Y-90730740D01*
X161350619Y-90726142D01*
X161338139Y-90724500D01*
X161338137Y-90724500D01*
X161011862Y-90724500D01*
X160964456Y-90730740D01*
X160964451Y-90730742D01*
X160881272Y-90769529D01*
X160824689Y-90771999D01*
X160818732Y-90769532D01*
X160735545Y-90730741D01*
X160735543Y-90730740D01*
X160700619Y-90726142D01*
X160688139Y-90724500D01*
X160688137Y-90724500D01*
X160361862Y-90724500D01*
X160314456Y-90730740D01*
X160314451Y-90730742D01*
X160231272Y-90769529D01*
X160174689Y-90771999D01*
X160168732Y-90769532D01*
X160085545Y-90730741D01*
X160085543Y-90730740D01*
X160050619Y-90726142D01*
X160038139Y-90724500D01*
X160038137Y-90724500D01*
X159711862Y-90724500D01*
X159664456Y-90730740D01*
X159664451Y-90730742D01*
X159581272Y-90769529D01*
X159524689Y-90771999D01*
X159518732Y-90769532D01*
X159435545Y-90730741D01*
X159435543Y-90730740D01*
X159400619Y-90726142D01*
X159388139Y-90724500D01*
X159388137Y-90724500D01*
X159061862Y-90724500D01*
X159014456Y-90730740D01*
X159014454Y-90730741D01*
X158910420Y-90779253D01*
X158829253Y-90860420D01*
X158780740Y-90964456D01*
X158774500Y-91011862D01*
X158774500Y-92155112D01*
X158774341Y-92159953D01*
X158763333Y-92327845D01*
X158762070Y-92337443D01*
X158755184Y-92372056D01*
X158733490Y-92411346D01*
X158483127Y-92648449D01*
X158428167Y-92700500D01*
X158424229Y-92704229D01*
X158373345Y-92724500D01*
X157988374Y-92724500D01*
X157988358Y-92724499D01*
X157909750Y-92724499D01*
X157900092Y-92723866D01*
X157883478Y-92721679D01*
X157864818Y-92716679D01*
X157853850Y-92712136D01*
X157837120Y-92702477D01*
X157823840Y-92692287D01*
X157816562Y-92685905D01*
X157730197Y-92599540D01*
X157708523Y-92547214D01*
X157722983Y-92503272D01*
X157752793Y-92462882D01*
X157797646Y-92334699D01*
X157800500Y-92304266D01*
X157800500Y-91545734D01*
X157797646Y-91515301D01*
X157752793Y-91387118D01*
X157752792Y-91387116D01*
X157672153Y-91277853D01*
X157672146Y-91277846D01*
X157562883Y-91197207D01*
X157562881Y-91197206D01*
X157434704Y-91152355D01*
X157434705Y-91152355D01*
X157434700Y-91152354D01*
X157434699Y-91152354D01*
X157404266Y-91149500D01*
X155995734Y-91149500D01*
X155965301Y-91152354D01*
X155965299Y-91152354D01*
X155965295Y-91152355D01*
X155837118Y-91197206D01*
X155837116Y-91197207D01*
X155727853Y-91277846D01*
X155727846Y-91277853D01*
X155647207Y-91387116D01*
X155647206Y-91387118D01*
X155602355Y-91515295D01*
X155602354Y-91515299D01*
X155602354Y-91515301D01*
X155599500Y-91545734D01*
X151955500Y-91545734D01*
X151955500Y-89230000D01*
X153309196Y-89230000D01*
X153330280Y-89363126D01*
X153391471Y-89483219D01*
X153391472Y-89483220D01*
X153486780Y-89578528D01*
X153606873Y-89639718D01*
X153606873Y-89639719D01*
X153625075Y-89642601D01*
X153740000Y-89660804D01*
X153873126Y-89639719D01*
X153993220Y-89578528D01*
X154088528Y-89483220D01*
X154149719Y-89363126D01*
X154170804Y-89230000D01*
X154149719Y-89096874D01*
X154149719Y-89096873D01*
X154088528Y-88976780D01*
X153993219Y-88881471D01*
X153873126Y-88820281D01*
X153873126Y-88820280D01*
X153740000Y-88799196D01*
X153606873Y-88820280D01*
X153606873Y-88820281D01*
X153486780Y-88881471D01*
X153391471Y-88976780D01*
X153330281Y-89096873D01*
X153330280Y-89096873D01*
X153309196Y-89230000D01*
X151955500Y-89230000D01*
X151955500Y-88900000D01*
X151955174Y-88885891D01*
X151929470Y-88776602D01*
X151866021Y-88683979D01*
X151782042Y-88600000D01*
X154969196Y-88600000D01*
X154990280Y-88733126D01*
X155037093Y-88825000D01*
X155051472Y-88853220D01*
X155146780Y-88948528D01*
X155266873Y-89009718D01*
X155266873Y-89009719D01*
X155285075Y-89012601D01*
X155400000Y-89030804D01*
X155533126Y-89009719D01*
X155653220Y-88948528D01*
X155737427Y-88864321D01*
X156725001Y-88864321D01*
X156740443Y-88981628D01*
X156740444Y-88981632D01*
X156800900Y-89127587D01*
X156897075Y-89252924D01*
X157022412Y-89349099D01*
X157168369Y-89409556D01*
X157285678Y-89424999D01*
X157400000Y-89424999D01*
X157400000Y-88825000D01*
X156725001Y-88825000D01*
X156725001Y-88864321D01*
X155737427Y-88864321D01*
X155748528Y-88853220D01*
X155809719Y-88733126D01*
X155830804Y-88600000D01*
X155811301Y-88476862D01*
X155809719Y-88466873D01*
X155768348Y-88385678D01*
X156725000Y-88385678D01*
X156725000Y-88425000D01*
X157400000Y-88425000D01*
X157400000Y-87825000D01*
X157285678Y-87825000D01*
X157168371Y-87840443D01*
X157168367Y-87840444D01*
X157022412Y-87900900D01*
X156897075Y-87997075D01*
X156800900Y-88122412D01*
X156740443Y-88268369D01*
X156725000Y-88385678D01*
X155768348Y-88385678D01*
X155748528Y-88346780D01*
X155653219Y-88251471D01*
X155533126Y-88190281D01*
X155533126Y-88190280D01*
X155433073Y-88174434D01*
X155424578Y-88173088D01*
X155404752Y-88160938D01*
X155375420Y-88173089D01*
X155266874Y-88190280D01*
X155266873Y-88190281D01*
X155146780Y-88251471D01*
X155051471Y-88346780D01*
X154990281Y-88466873D01*
X154990280Y-88466873D01*
X154969196Y-88600000D01*
X151782042Y-88600000D01*
X151627870Y-88445828D01*
X151606196Y-88393502D01*
X151627870Y-88341176D01*
X151646600Y-88327568D01*
X151652648Y-88324486D01*
X151723220Y-88288528D01*
X151818528Y-88193220D01*
X151879719Y-88073126D01*
X151900804Y-87940000D01*
X151879719Y-87806874D01*
X151879719Y-87806873D01*
X151818528Y-87686780D01*
X151723219Y-87591471D01*
X151603126Y-87530281D01*
X151603126Y-87530280D01*
X151470000Y-87509196D01*
X151336873Y-87530280D01*
X151336873Y-87530281D01*
X151216780Y-87591471D01*
X151121473Y-87686778D01*
X151082432Y-87763400D01*
X151039365Y-87800182D01*
X150982902Y-87795738D01*
X150964172Y-87782130D01*
X150866020Y-87683978D01*
X150865513Y-87683494D01*
X150855814Y-87674233D01*
X150845033Y-87667558D01*
X150760359Y-87615130D01*
X150650003Y-87594500D01*
X150650000Y-87594500D01*
X149835713Y-87594500D01*
X149783387Y-87572826D01*
X149761713Y-87520500D01*
X149783387Y-87468174D01*
X149802115Y-87454567D01*
X149853220Y-87428528D01*
X149948528Y-87333220D01*
X150009719Y-87213126D01*
X150030804Y-87080000D01*
X150009719Y-86946874D01*
X150009719Y-86946873D01*
X149948528Y-86826780D01*
X149853219Y-86731471D01*
X149791453Y-86700000D01*
X150569196Y-86700000D01*
X150590280Y-86833126D01*
X150651471Y-86953219D01*
X150651472Y-86953220D01*
X150746780Y-87048528D01*
X150866873Y-87109718D01*
X150866873Y-87109719D01*
X150883795Y-87112399D01*
X151000000Y-87130804D01*
X151068214Y-87120000D01*
X153279196Y-87120000D01*
X153300280Y-87253126D01*
X153361471Y-87373219D01*
X153456780Y-87468528D01*
X153558472Y-87520343D01*
X153576874Y-87529719D01*
X153576880Y-87529719D01*
X153581574Y-87531245D01*
X153624642Y-87568028D01*
X153629087Y-87624490D01*
X153592304Y-87667558D01*
X153591833Y-87667754D01*
X153466780Y-87731471D01*
X153371471Y-87826780D01*
X153310281Y-87946873D01*
X153310280Y-87946873D01*
X153289196Y-88080000D01*
X153310280Y-88213126D01*
X153371309Y-88332901D01*
X153371472Y-88333220D01*
X153466780Y-88428528D01*
X153586873Y-88489718D01*
X153586873Y-88489719D01*
X153604742Y-88492549D01*
X153720000Y-88510804D01*
X153853126Y-88489719D01*
X153973220Y-88428528D01*
X154068528Y-88333220D01*
X154129719Y-88213126D01*
X154150804Y-88080000D01*
X154129719Y-87946874D01*
X154129719Y-87946873D01*
X154068528Y-87826780D01*
X153973219Y-87731471D01*
X153853126Y-87670281D01*
X153848421Y-87668752D01*
X153805355Y-87631967D01*
X153802841Y-87600000D01*
X154969196Y-87600000D01*
X154990280Y-87733126D01*
X155044962Y-87840444D01*
X155051472Y-87853220D01*
X155146780Y-87948528D01*
X155266874Y-88009719D01*
X155375420Y-88026911D01*
X155395246Y-88039061D01*
X155424578Y-88026911D01*
X155533126Y-88009719D01*
X155653220Y-87948528D01*
X155748528Y-87853220D01*
X155809719Y-87733126D01*
X155830804Y-87600000D01*
X155809956Y-87468371D01*
X155809719Y-87466873D01*
X155748528Y-87346780D01*
X155653219Y-87251471D01*
X155533126Y-87190281D01*
X155533126Y-87190280D01*
X155433073Y-87174434D01*
X155424578Y-87173088D01*
X155404752Y-87160938D01*
X155375420Y-87173089D01*
X155266874Y-87190280D01*
X155266873Y-87190281D01*
X155146780Y-87251471D01*
X155051471Y-87346780D01*
X154990281Y-87466873D01*
X154990280Y-87466873D01*
X154969196Y-87600000D01*
X153802841Y-87600000D01*
X153800914Y-87575505D01*
X153837699Y-87532439D01*
X153838170Y-87532244D01*
X153843126Y-87529719D01*
X153963220Y-87468528D01*
X154058528Y-87373220D01*
X154119719Y-87253126D01*
X154140804Y-87120000D01*
X154121350Y-86997171D01*
X154119719Y-86986873D01*
X154058528Y-86866780D01*
X153963219Y-86771471D01*
X153843126Y-86710281D01*
X153843126Y-86710280D01*
X153710000Y-86689196D01*
X153576873Y-86710280D01*
X153576873Y-86710281D01*
X153456780Y-86771471D01*
X153361471Y-86866780D01*
X153300281Y-86986873D01*
X153300280Y-86986873D01*
X153279196Y-87120000D01*
X151068214Y-87120000D01*
X151133126Y-87109719D01*
X151253220Y-87048528D01*
X151348528Y-86953220D01*
X151409719Y-86833126D01*
X151430804Y-86700000D01*
X151414966Y-86600000D01*
X154969196Y-86600000D01*
X154990280Y-86733126D01*
X155051471Y-86853219D01*
X155051472Y-86853220D01*
X155146780Y-86948528D01*
X155266874Y-87009719D01*
X155375420Y-87026911D01*
X155395246Y-87039061D01*
X155424578Y-87026911D01*
X155533126Y-87009719D01*
X155653220Y-86948528D01*
X155748528Y-86853220D01*
X155804443Y-86743480D01*
X156924500Y-86743480D01*
X156924500Y-87206519D01*
X156939353Y-87300304D01*
X156939354Y-87300306D01*
X156980906Y-87381855D01*
X156996950Y-87413342D01*
X157086658Y-87503050D01*
X157199696Y-87560646D01*
X157293481Y-87575500D01*
X157354870Y-87575499D01*
X157387382Y-87583023D01*
X157758512Y-87764540D01*
X157795995Y-87807000D01*
X157800000Y-87831015D01*
X157800000Y-89424999D01*
X157914321Y-89424999D01*
X158031628Y-89409556D01*
X158031632Y-89409555D01*
X158177587Y-89349099D01*
X158253771Y-89290641D01*
X161900000Y-89290641D01*
X161902900Y-89327493D01*
X161948718Y-89485199D01*
X162032317Y-89626556D01*
X162148443Y-89742682D01*
X162223089Y-89786828D01*
X162257095Y-89832120D01*
X162249115Y-89888192D01*
X162219016Y-89916457D01*
X162109302Y-89972360D01*
X162019709Y-90061953D01*
X161962184Y-90174850D01*
X161962184Y-90174851D01*
X161947349Y-90268518D01*
X161947349Y-90900000D01*
X162800938Y-90900000D01*
X162774608Y-90945606D01*
X162747349Y-91047339D01*
X162747349Y-91152661D01*
X162774608Y-91254394D01*
X162800939Y-91300000D01*
X161947350Y-91300000D01*
X161947350Y-91931482D01*
X161962183Y-92025148D01*
X161962184Y-92025149D01*
X162019709Y-92138046D01*
X162109302Y-92227639D01*
X162222199Y-92285164D01*
X162315867Y-92299999D01*
X162947349Y-92299999D01*
X162947349Y-91446410D01*
X162992955Y-91472741D01*
X163094688Y-91500000D01*
X163200010Y-91500000D01*
X163301743Y-91472741D01*
X163347349Y-91446410D01*
X163347349Y-92299999D01*
X163978830Y-92299999D01*
X164072497Y-92285165D01*
X164072498Y-92285164D01*
X164185395Y-92227639D01*
X164274988Y-92138046D01*
X164332513Y-92025149D01*
X164332513Y-92025148D01*
X164347349Y-91931481D01*
X164347349Y-91300000D01*
X163493759Y-91300000D01*
X163520090Y-91254394D01*
X163547349Y-91152661D01*
X163547349Y-91047339D01*
X163520090Y-90945606D01*
X163493760Y-90900000D01*
X164347348Y-90900000D01*
X164347348Y-90268517D01*
X164332514Y-90174851D01*
X164332513Y-90174850D01*
X164274988Y-90061953D01*
X164185395Y-89972360D01*
X164132247Y-89945279D01*
X164095465Y-89902211D01*
X164099909Y-89845749D01*
X164128174Y-89815650D01*
X164251556Y-89742682D01*
X164367682Y-89626556D01*
X164451281Y-89485199D01*
X164497099Y-89327493D01*
X164500000Y-89290641D01*
X164500000Y-89100000D01*
X163400000Y-89100000D01*
X163400000Y-89844000D01*
X163378326Y-89896326D01*
X163362444Y-89902904D01*
X163347349Y-89918000D01*
X163347349Y-90753589D01*
X163301743Y-90727259D01*
X163200010Y-90700000D01*
X163094688Y-90700000D01*
X162992955Y-90727259D01*
X162947349Y-90753589D01*
X162947349Y-89931000D01*
X162969023Y-89878674D01*
X162984904Y-89872095D01*
X163000000Y-89857000D01*
X163000000Y-89100000D01*
X161900000Y-89100000D01*
X161900000Y-89290641D01*
X158253771Y-89290641D01*
X158302924Y-89252924D01*
X158399099Y-89127587D01*
X158459556Y-88981630D01*
X158474999Y-88864321D01*
X158474999Y-88720907D01*
X158496673Y-88668580D01*
X158548998Y-88646906D01*
X158577315Y-88652538D01*
X158685256Y-88697248D01*
X158827297Y-88725500D01*
X159388059Y-88725500D01*
X159388103Y-88725497D01*
X159412703Y-88725497D01*
X159554744Y-88697245D01*
X159688543Y-88641824D01*
X159808960Y-88561365D01*
X159813292Y-88557032D01*
X159813303Y-88557027D01*
X159813301Y-88557025D01*
X159860164Y-88510162D01*
X159860968Y-88509358D01*
X161900000Y-88509358D01*
X161900000Y-88700000D01*
X163000000Y-88700000D01*
X163000000Y-87925000D01*
X162484359Y-87925000D01*
X162447506Y-87927900D01*
X162289800Y-87973718D01*
X162148443Y-88057317D01*
X162032317Y-88173443D01*
X161948718Y-88314800D01*
X161902900Y-88472506D01*
X161900000Y-88509358D01*
X159860968Y-88509358D01*
X159861423Y-88508903D01*
X159877792Y-88492532D01*
X159881310Y-88489238D01*
X159895432Y-88476862D01*
X159899019Y-88472188D01*
X159905395Y-88464920D01*
X159924820Y-88445496D01*
X159924820Y-88445495D01*
X159924822Y-88445494D01*
X160017805Y-88317513D01*
X160018854Y-88316108D01*
X160032713Y-88298056D01*
X160081750Y-88269758D01*
X160085545Y-88269259D01*
X160085549Y-88269257D01*
X160085550Y-88269257D01*
X160168726Y-88230471D01*
X160225309Y-88228000D01*
X160231255Y-88230462D01*
X160314455Y-88269259D01*
X160361861Y-88275500D01*
X160601197Y-88275499D01*
X160653523Y-88297173D01*
X160660160Y-88304784D01*
X160675279Y-88324721D01*
X160790273Y-88411924D01*
X160924529Y-88464867D01*
X160975000Y-88470929D01*
X160975000Y-88470928D01*
X161375000Y-88470928D01*
X161425470Y-88464867D01*
X161559726Y-88411924D01*
X161674720Y-88324721D01*
X161674721Y-88324720D01*
X161761924Y-88209726D01*
X161814867Y-88075470D01*
X161825000Y-87991103D01*
X161825000Y-87550000D01*
X161375000Y-87550000D01*
X161375000Y-88470928D01*
X160975000Y-88470928D01*
X160975000Y-87996788D01*
X160975407Y-87990562D01*
X160975341Y-87990558D01*
X160975497Y-87988160D01*
X160975500Y-87988139D01*
X160975499Y-87223999D01*
X160997173Y-87171674D01*
X161049499Y-87150000D01*
X161825000Y-87150000D01*
X161825000Y-86708896D01*
X161814867Y-86624529D01*
X161761924Y-86490273D01*
X161674721Y-86375279D01*
X161674719Y-86375277D01*
X161619579Y-86333463D01*
X161590982Y-86284576D01*
X161605330Y-86229786D01*
X161654217Y-86201189D01*
X161664293Y-86200500D01*
X161677727Y-86200500D01*
X161710703Y-86208254D01*
X161738667Y-86222174D01*
X162093855Y-86398979D01*
X162130726Y-86440784D01*
X162147206Y-86487881D01*
X162147207Y-86487883D01*
X162227846Y-86597146D01*
X162227853Y-86597153D01*
X162337116Y-86677792D01*
X162337118Y-86677793D01*
X162465295Y-86722644D01*
X162465301Y-86722646D01*
X162495734Y-86725500D01*
X162850882Y-86725500D01*
X162899691Y-86743879D01*
X163684248Y-87432367D01*
X163695072Y-87438858D01*
X163709336Y-87449993D01*
X164079577Y-87820234D01*
X164101251Y-87872559D01*
X164079577Y-87924885D01*
X164027251Y-87946559D01*
X164006607Y-87943621D01*
X163952494Y-87927900D01*
X163915641Y-87925000D01*
X163400000Y-87925000D01*
X163400000Y-88700000D01*
X164500000Y-88700000D01*
X164500000Y-88509358D01*
X164497099Y-88472506D01*
X164481378Y-88418393D01*
X164487593Y-88362098D01*
X164531795Y-88326686D01*
X164588090Y-88332901D01*
X164604765Y-88345421D01*
X164892255Y-88632911D01*
X164946780Y-88687437D01*
X164949266Y-88690047D01*
X165170369Y-88933996D01*
X165174960Y-88939590D01*
X165256476Y-89049500D01*
X165369983Y-89202546D01*
X165374018Y-89208584D01*
X165542328Y-89489392D01*
X165545751Y-89495797D01*
X165666099Y-89750251D01*
X165673183Y-89783654D01*
X165642192Y-91083107D01*
X165642145Y-91085806D01*
X165642102Y-91089699D01*
X165642098Y-91089698D01*
X165642055Y-91099519D01*
X165642008Y-91100000D01*
X165647195Y-91152661D01*
X165661325Y-91296133D01*
X165718536Y-91484731D01*
X165796614Y-91630803D01*
X165811439Y-91658538D01*
X165936466Y-91810883D01*
X166088811Y-91935910D01*
X166165775Y-91977048D01*
X166262617Y-92028812D01*
X166262619Y-92028812D01*
X166262622Y-92028814D01*
X166451217Y-92086024D01*
X166647349Y-92105341D01*
X166843481Y-92086024D01*
X167032076Y-92028814D01*
X167205887Y-91935910D01*
X167358232Y-91810883D01*
X167483259Y-91658538D01*
X167576163Y-91484727D01*
X167633373Y-91296132D01*
X167652690Y-91100000D01*
X167633373Y-90903868D01*
X167576163Y-90715273D01*
X167576162Y-90715272D01*
X167576161Y-90715267D01*
X167574772Y-90711914D01*
X167575107Y-90711775D01*
X167574007Y-90709094D01*
X167573857Y-90709156D01*
X167246469Y-89902904D01*
X166998466Y-89292152D01*
X166997981Y-89290968D01*
X166997950Y-89290893D01*
X166993921Y-89284859D01*
X166987104Y-89272097D01*
X166984940Y-89266873D01*
X166909293Y-89084245D01*
X166909292Y-89084243D01*
X166909286Y-89084230D01*
X166737665Y-88747407D01*
X166737654Y-88747386D01*
X166540130Y-88425059D01*
X166540119Y-88425043D01*
X166317910Y-88119200D01*
X166172256Y-87948662D01*
X166072382Y-87831725D01*
X165938719Y-87698062D01*
X165897381Y-87656725D01*
X164704349Y-86463692D01*
X164691069Y-86445597D01*
X164688713Y-86441082D01*
X164688473Y-86440784D01*
X164665641Y-86412387D01*
X164652651Y-86396231D01*
X164633960Y-86372984D01*
X164316829Y-85978550D01*
X164300500Y-85932181D01*
X164300500Y-85570740D01*
X164300500Y-85570734D01*
X164297646Y-85540301D01*
X164252793Y-85412118D01*
X164243850Y-85400000D01*
X164172153Y-85302853D01*
X164172146Y-85302846D01*
X164062883Y-85222207D01*
X164062881Y-85222206D01*
X163934704Y-85177355D01*
X163934705Y-85177355D01*
X163934700Y-85177354D01*
X163934699Y-85177354D01*
X163904266Y-85174500D01*
X163904260Y-85174500D01*
X163376168Y-85174500D01*
X163336798Y-85163158D01*
X163236604Y-85100202D01*
X163197338Y-85075529D01*
X163197337Y-85075528D01*
X163197333Y-85075526D01*
X162994108Y-84977658D01*
X162970976Y-84966518D01*
X162970972Y-84966516D01*
X162970963Y-84966512D01*
X162733840Y-84883540D01*
X162733828Y-84883536D01*
X162488893Y-84827631D01*
X162395266Y-84817081D01*
X162239227Y-84799500D01*
X162239222Y-84799500D01*
X161796702Y-84799500D01*
X161790213Y-84799215D01*
X161789687Y-84799168D01*
X161789673Y-84799167D01*
X161776707Y-84798026D01*
X161774186Y-84798454D01*
X161761791Y-84799500D01*
X160695483Y-84799500D01*
X160643157Y-84777826D01*
X160623298Y-84741788D01*
X160614366Y-84702200D01*
X160614887Y-84667466D01*
X160706143Y-84313039D01*
X160708864Y-84305848D01*
X160708846Y-84305842D01*
X160710644Y-84300307D01*
X160710646Y-84300304D01*
X160725500Y-84206519D01*
X160725499Y-83593482D01*
X160724723Y-83588585D01*
X160710694Y-83500000D01*
X161294659Y-83500000D01*
X161313976Y-83696133D01*
X161371187Y-83884731D01*
X161443429Y-84019884D01*
X161464090Y-84058538D01*
X161589117Y-84210883D01*
X161741462Y-84335910D01*
X161818426Y-84377048D01*
X161915268Y-84428812D01*
X161915270Y-84428812D01*
X161915273Y-84428814D01*
X162103868Y-84486024D01*
X162300000Y-84505341D01*
X162496132Y-84486024D01*
X162684727Y-84428814D01*
X162858538Y-84335910D01*
X163010883Y-84210883D01*
X163135910Y-84058538D01*
X163228814Y-83884727D01*
X163286024Y-83696132D01*
X163305341Y-83500000D01*
X163286024Y-83303868D01*
X163228814Y-83115273D01*
X163228812Y-83115270D01*
X163228812Y-83115268D01*
X163151739Y-82971076D01*
X163135910Y-82941462D01*
X163010883Y-82789117D01*
X162863934Y-82668518D01*
X163600000Y-82668518D01*
X163600000Y-83300000D01*
X164453589Y-83300000D01*
X164427259Y-83345606D01*
X164400000Y-83447339D01*
X164400000Y-83552661D01*
X164427259Y-83654394D01*
X164453590Y-83700000D01*
X163600001Y-83700000D01*
X163600001Y-84331482D01*
X163614834Y-84425148D01*
X163614835Y-84425149D01*
X163672360Y-84538046D01*
X163761953Y-84627639D01*
X163874850Y-84685164D01*
X163968518Y-84699999D01*
X164600000Y-84699999D01*
X164600000Y-83846410D01*
X164645606Y-83872741D01*
X164747339Y-83900000D01*
X164852661Y-83900000D01*
X164954394Y-83872741D01*
X165000000Y-83846410D01*
X165000000Y-84699999D01*
X165631481Y-84699999D01*
X165725148Y-84685165D01*
X165725149Y-84685164D01*
X165838046Y-84627639D01*
X165927639Y-84538046D01*
X165985164Y-84425149D01*
X165985164Y-84425148D01*
X166000000Y-84331481D01*
X166000000Y-83700000D01*
X165146410Y-83700000D01*
X165172741Y-83654394D01*
X165200000Y-83552661D01*
X165200000Y-83447339D01*
X165172741Y-83345606D01*
X165146411Y-83300000D01*
X165999999Y-83300000D01*
X165999999Y-82668517D01*
X165985165Y-82574851D01*
X165985164Y-82574850D01*
X165927639Y-82461953D01*
X165838046Y-82372360D01*
X165725149Y-82314835D01*
X165631482Y-82300000D01*
X165000000Y-82300000D01*
X165000000Y-83153589D01*
X164954394Y-83127259D01*
X164852661Y-83100000D01*
X164747339Y-83100000D01*
X164645606Y-83127259D01*
X164600000Y-83153589D01*
X164600000Y-82300000D01*
X163968518Y-82300000D01*
X163874851Y-82314834D01*
X163874850Y-82314835D01*
X163761953Y-82372360D01*
X163672360Y-82461953D01*
X163614835Y-82574850D01*
X163614835Y-82574851D01*
X163600000Y-82668518D01*
X162863934Y-82668518D01*
X162858538Y-82664090D01*
X162828810Y-82648200D01*
X162684731Y-82571187D01*
X162496133Y-82513976D01*
X162300000Y-82494659D01*
X162103866Y-82513976D01*
X161915268Y-82571187D01*
X161741463Y-82664089D01*
X161589117Y-82789117D01*
X161464089Y-82941463D01*
X161371187Y-83115268D01*
X161313976Y-83303866D01*
X161294659Y-83500000D01*
X160710694Y-83500000D01*
X160710646Y-83499695D01*
X160710645Y-83499693D01*
X160653049Y-83386657D01*
X160563343Y-83296951D01*
X160563342Y-83296950D01*
X160450304Y-83239354D01*
X160450302Y-83239353D01*
X160450301Y-83239353D01*
X160356519Y-83224500D01*
X159893480Y-83224500D01*
X159799695Y-83239353D01*
X159799693Y-83239354D01*
X159686657Y-83296950D01*
X159596951Y-83386656D01*
X159539353Y-83499698D01*
X159524500Y-83593480D01*
X159524500Y-84206519D01*
X159539353Y-84300303D01*
X159541153Y-84305840D01*
X159541134Y-84305845D01*
X159543856Y-84313041D01*
X159622168Y-84617202D01*
X159619327Y-84662846D01*
X159454679Y-85079545D01*
X159454673Y-85079562D01*
X159451998Y-85089965D01*
X159446269Y-85105118D01*
X159440281Y-85116872D01*
X159424500Y-85216511D01*
X159424500Y-85225229D01*
X159418865Y-85253552D01*
X159413969Y-85265370D01*
X159409055Y-85275125D01*
X159312951Y-85435266D01*
X159267441Y-85468980D01*
X159211422Y-85460639D01*
X159177708Y-85415129D01*
X159175500Y-85397188D01*
X159175500Y-85216511D01*
X159167638Y-85166873D01*
X159159719Y-85116874D01*
X159147833Y-85093547D01*
X159142098Y-85078376D01*
X159139026Y-85066415D01*
X158951180Y-84675350D01*
X158948062Y-84618800D01*
X158948105Y-84618678D01*
X158991175Y-84496663D01*
X159050982Y-84327233D01*
X159052802Y-84319905D01*
X159058686Y-84304148D01*
X159060646Y-84300304D01*
X159075500Y-84206519D01*
X159075499Y-83593482D01*
X159074723Y-83588585D01*
X159060646Y-83499695D01*
X159060645Y-83499693D01*
X159003049Y-83386657D01*
X158913343Y-83296951D01*
X158913342Y-83296950D01*
X158800304Y-83239354D01*
X158800302Y-83239353D01*
X158800301Y-83239353D01*
X158706519Y-83224500D01*
X158243480Y-83224500D01*
X158149695Y-83239353D01*
X158149693Y-83239354D01*
X158036657Y-83296950D01*
X157946951Y-83386656D01*
X157889353Y-83499698D01*
X157874500Y-83593480D01*
X157874500Y-84206519D01*
X157889353Y-84300301D01*
X157889353Y-84300302D01*
X157889354Y-84300304D01*
X157895156Y-84311690D01*
X157910225Y-84341265D01*
X157914971Y-84352946D01*
X157918508Y-84364356D01*
X157918509Y-84364358D01*
X157951479Y-84425148D01*
X158075323Y-84653495D01*
X158081217Y-84709824D01*
X158076978Y-84720814D01*
X157910973Y-85066413D01*
X157910971Y-85066420D01*
X157904709Y-85086309D01*
X157900061Y-85097678D01*
X157890280Y-85116874D01*
X157874500Y-85216511D01*
X157874500Y-85734673D01*
X157873848Y-85744475D01*
X157870382Y-85770409D01*
X157870381Y-85770415D01*
X157891641Y-86104713D01*
X157873331Y-86158309D01*
X157846593Y-86177574D01*
X157394355Y-86368665D01*
X157365553Y-86374500D01*
X157293480Y-86374500D01*
X157199695Y-86389353D01*
X157199693Y-86389354D01*
X157086657Y-86446950D01*
X156996951Y-86536656D01*
X156939353Y-86649698D01*
X156924500Y-86743480D01*
X155804443Y-86743480D01*
X155809719Y-86733126D01*
X155830804Y-86600000D01*
X155809719Y-86466874D01*
X155809719Y-86466873D01*
X155748528Y-86346780D01*
X155653219Y-86251471D01*
X155533126Y-86190281D01*
X155533126Y-86190280D01*
X155400000Y-86169196D01*
X155266873Y-86190280D01*
X155266873Y-86190281D01*
X155146780Y-86251471D01*
X155051471Y-86346780D01*
X154990281Y-86466873D01*
X154990280Y-86466873D01*
X154969196Y-86600000D01*
X151414966Y-86600000D01*
X151409719Y-86566874D01*
X151409719Y-86566873D01*
X151348528Y-86446780D01*
X151253219Y-86351471D01*
X151133126Y-86290281D01*
X151133126Y-86290280D01*
X151000000Y-86269196D01*
X150866873Y-86290280D01*
X150866873Y-86290281D01*
X150746780Y-86351471D01*
X150651471Y-86446780D01*
X150590281Y-86566873D01*
X150590280Y-86566873D01*
X150569196Y-86700000D01*
X149791453Y-86700000D01*
X149733126Y-86670281D01*
X149733126Y-86670280D01*
X149600000Y-86649196D01*
X149466873Y-86670280D01*
X149466873Y-86670281D01*
X149346780Y-86731471D01*
X149251471Y-86826780D01*
X149190281Y-86946873D01*
X149190280Y-86946873D01*
X149169196Y-87080000D01*
X149190280Y-87213126D01*
X149245965Y-87322412D01*
X149251472Y-87333220D01*
X149346780Y-87428528D01*
X149397883Y-87454566D01*
X149434665Y-87497633D01*
X149430221Y-87554096D01*
X149387154Y-87590878D01*
X149364287Y-87594500D01*
X139498251Y-87594500D01*
X139445925Y-87572826D01*
X139424251Y-87520500D01*
X139432316Y-87486906D01*
X139459719Y-87433126D01*
X139475500Y-87333488D01*
X139475500Y-86816512D01*
X139474978Y-86813219D01*
X139459719Y-86716874D01*
X139459718Y-86716873D01*
X139456359Y-86710281D01*
X139398528Y-86596780D01*
X139303220Y-86501472D01*
X139303219Y-86501471D01*
X139183126Y-86440281D01*
X139183125Y-86440280D01*
X139083489Y-86424500D01*
X139083488Y-86424500D01*
X138516512Y-86424500D01*
X138516511Y-86424500D01*
X138416876Y-86440280D01*
X138296781Y-86501471D01*
X138245126Y-86553125D01*
X138233976Y-86562285D01*
X137894823Y-86789402D01*
X137842074Y-86801004D01*
X137801003Y-86794500D01*
X137801000Y-86794500D01*
X135382455Y-86794500D01*
X135330129Y-86772826D01*
X135308455Y-86720500D01*
X135316520Y-86686905D01*
X135321163Y-86677793D01*
X135360646Y-86600304D01*
X135375500Y-86506519D01*
X135375499Y-86043482D01*
X135360646Y-85949696D01*
X135360645Y-85949694D01*
X135360347Y-85949108D01*
X135354814Y-85933198D01*
X135354723Y-85933226D01*
X135353995Y-85930843D01*
X135353725Y-85930065D01*
X135353661Y-85929749D01*
X135353661Y-85929747D01*
X135340288Y-85885937D01*
X135345741Y-85829565D01*
X135389459Y-85793558D01*
X135444656Y-85798398D01*
X135466874Y-85809719D01*
X135600000Y-85830804D01*
X135733126Y-85809719D01*
X135853220Y-85748528D01*
X135948528Y-85653220D01*
X136009719Y-85533126D01*
X136030804Y-85400000D01*
X136028043Y-85382575D01*
X136027363Y-85365165D01*
X136027544Y-85362875D01*
X136026140Y-85350990D01*
X136041526Y-85296483D01*
X136065474Y-85276662D01*
X136449652Y-85076804D01*
X136472225Y-85069364D01*
X136533126Y-85059719D01*
X136653220Y-84998528D01*
X136748528Y-84903220D01*
X136809719Y-84783126D01*
X136825500Y-84683488D01*
X136825500Y-84116512D01*
X136809719Y-84016874D01*
X136791922Y-83981946D01*
X136787573Y-83971504D01*
X136781805Y-83953990D01*
X136781805Y-83953989D01*
X136778456Y-83948065D01*
X136627971Y-83681837D01*
X136621091Y-83625619D01*
X136630326Y-83605127D01*
X136781093Y-83372939D01*
X136790831Y-83360916D01*
X136798528Y-83353220D01*
X136859719Y-83233126D01*
X136875500Y-83133488D01*
X136875500Y-82681882D01*
X136897174Y-82629556D01*
X136949500Y-82607882D01*
X136960978Y-82609706D01*
X136961121Y-82608808D01*
X136975394Y-82611068D01*
X137023002Y-82618608D01*
X137071293Y-82648200D01*
X137084515Y-82703272D01*
X137069196Y-82799998D01*
X137069196Y-82799999D01*
X137090280Y-82933126D01*
X137151471Y-83053219D01*
X137151472Y-83053220D01*
X137246780Y-83148528D01*
X137366873Y-83209718D01*
X137366873Y-83209719D01*
X137385075Y-83212601D01*
X137500000Y-83230804D01*
X137633126Y-83209719D01*
X137753220Y-83148528D01*
X137848528Y-83053220D01*
X137909719Y-82933126D01*
X137930804Y-82800000D01*
X137911465Y-82677900D01*
X137909719Y-82666873D01*
X137848528Y-82546780D01*
X137753219Y-82451471D01*
X137633126Y-82390281D01*
X137576996Y-82381390D01*
X137528705Y-82351796D01*
X137515484Y-82296725D01*
X137516309Y-82291521D01*
X137530804Y-82200000D01*
X137530803Y-82199999D01*
X137531715Y-82194248D01*
X137534963Y-82194762D01*
X137552478Y-82152478D01*
X137594762Y-82134963D01*
X137594248Y-82131715D01*
X137733126Y-82109719D01*
X137853220Y-82048528D01*
X137948528Y-81953220D01*
X138009719Y-81833126D01*
X138023818Y-81744103D01*
X138053411Y-81695814D01*
X138108483Y-81682592D01*
X138156774Y-81712185D01*
X138158436Y-81714569D01*
X138262610Y-81870479D01*
X138267450Y-81878862D01*
X138364290Y-82075236D01*
X138367994Y-82084179D01*
X138438372Y-82291511D01*
X138440877Y-82300861D01*
X138483588Y-82515600D01*
X138484852Y-82525197D01*
X138499341Y-82746285D01*
X138499499Y-82751124D01*
X138499499Y-82802075D01*
X138499500Y-82802088D01*
X138499500Y-84538625D01*
X138488773Y-84576998D01*
X138212184Y-85033061D01*
X138202088Y-85045930D01*
X138201471Y-85046780D01*
X138190130Y-85069035D01*
X138187478Y-85073797D01*
X138179895Y-85086304D01*
X138176761Y-85094417D01*
X138173669Y-85101341D01*
X138140281Y-85166870D01*
X138140281Y-85166873D01*
X138124500Y-85266511D01*
X138124500Y-85783488D01*
X138140280Y-85883125D01*
X138140281Y-85883126D01*
X138196509Y-85993481D01*
X138201472Y-86003220D01*
X138296780Y-86098528D01*
X138416874Y-86159719D01*
X138516511Y-86175500D01*
X138516512Y-86175500D01*
X139083489Y-86175500D01*
X139133307Y-86167609D01*
X139183126Y-86159719D01*
X139300331Y-86100000D01*
X153329196Y-86100000D01*
X153350280Y-86233126D01*
X153410581Y-86351472D01*
X153411472Y-86353220D01*
X153506780Y-86448528D01*
X153626873Y-86509718D01*
X153626873Y-86509719D01*
X153645075Y-86512601D01*
X153760000Y-86530804D01*
X153893126Y-86509719D01*
X154013220Y-86448528D01*
X154108528Y-86353220D01*
X154169719Y-86233126D01*
X154190804Y-86100000D01*
X154169719Y-85966874D01*
X154169719Y-85966873D01*
X154108528Y-85846780D01*
X154013219Y-85751471D01*
X153893126Y-85690281D01*
X153893126Y-85690280D01*
X153760000Y-85669196D01*
X153626873Y-85690280D01*
X153626873Y-85690281D01*
X153506780Y-85751471D01*
X153411471Y-85846780D01*
X153350281Y-85966873D01*
X153350280Y-85966873D01*
X153329196Y-86100000D01*
X139300331Y-86100000D01*
X139303220Y-86098528D01*
X139398528Y-86003220D01*
X139459719Y-85883126D01*
X139475500Y-85783488D01*
X139475500Y-85266512D01*
X139459719Y-85166874D01*
X139425743Y-85100194D01*
X139422139Y-85091902D01*
X139420103Y-85086303D01*
X139412519Y-85073797D01*
X139409876Y-85069052D01*
X139398528Y-85046780D01*
X139398527Y-85046778D01*
X139397911Y-85045931D01*
X139387810Y-85033056D01*
X139377595Y-85016213D01*
X139263227Y-84827631D01*
X139111227Y-84576998D01*
X139100500Y-84538625D01*
X139100500Y-82704122D01*
X139100488Y-82703942D01*
X139100488Y-82664089D01*
X139100489Y-82616613D01*
X139070952Y-82354435D01*
X139042048Y-82227795D01*
X139016940Y-82117782D01*
X139012245Y-82097212D01*
X138925107Y-81848180D01*
X138810634Y-81610470D01*
X138670265Y-81387072D01*
X138505766Y-81180795D01*
X138505761Y-81180790D01*
X138505758Y-81180786D01*
X138450869Y-81125898D01*
X138450868Y-81125896D01*
X138450868Y-81125897D01*
X138447448Y-81122477D01*
X138447446Y-81122473D01*
X138378831Y-81053860D01*
X138282538Y-80957567D01*
X138282537Y-80957565D01*
X138270557Y-80945585D01*
X138270555Y-80945580D01*
X138206827Y-80881853D01*
X138150668Y-80825694D01*
X137933480Y-80652493D01*
X137698264Y-80504698D01*
X137566350Y-80441171D01*
X137528612Y-80398940D01*
X137531787Y-80342392D01*
X137574019Y-80304653D01*
X137598459Y-80300500D01*
X166445675Y-80300500D01*
X166498001Y-80322174D01*
G37*
%TD.AperFunction*%
%TD*%
%TA.AperFunction,Conductor*%
%TO.N,Net-(U6-EN)*%
G36*
X159322408Y-113678427D02*
G01*
X159325803Y-113685836D01*
X159374448Y-114342554D01*
X159371642Y-114351057D01*
X159368479Y-114353636D01*
X158930699Y-114597821D01*
X158921805Y-114598858D01*
X158919301Y-114597821D01*
X158481520Y-114353636D01*
X158475964Y-114346613D01*
X158475551Y-114342557D01*
X158524197Y-113685835D01*
X158528226Y-113677838D01*
X158535865Y-113675000D01*
X159314135Y-113675000D01*
X159322408Y-113678427D01*
G37*
%TD.AperFunction*%
%TD*%
%TA.AperFunction,Conductor*%
%TO.N,Net-(U2-FB)*%
G36*
X158074256Y-86895349D02*
G01*
X158078444Y-86900727D01*
X158324988Y-87543839D01*
X158324749Y-87552791D01*
X158322336Y-87556300D01*
X158156837Y-87721799D01*
X158148564Y-87725226D01*
X158143424Y-87724036D01*
X157439732Y-87379866D01*
X157433805Y-87373153D01*
X157434096Y-87364799D01*
X157596806Y-86980170D01*
X157603185Y-86973886D01*
X157605573Y-86973203D01*
X158065519Y-86893387D01*
X158074256Y-86895349D01*
G37*
%TD.AperFunction*%
%TD*%
%TA.AperFunction,Conductor*%
%TO.N,-15V*%
G36*
X161767964Y-85003536D02*
G01*
X163277918Y-85372459D01*
X163285141Y-85377752D01*
X163286708Y-85385582D01*
X163202049Y-85943091D01*
X163197419Y-85950755D01*
X163194420Y-85952351D01*
X162304692Y-86270365D01*
X162295748Y-86269923D01*
X162295540Y-86269822D01*
X161759975Y-86003228D01*
X161754096Y-85996474D01*
X161753489Y-85992754D01*
X161753489Y-85014903D01*
X161756916Y-85006630D01*
X161765189Y-85003203D01*
X161767964Y-85003536D01*
G37*
%TD.AperFunction*%
%TD*%
%TA.AperFunction,Conductor*%
%TO.N,-15V*%
G36*
X166808034Y-89369392D02*
G01*
X166808065Y-89369467D01*
X167382087Y-90783100D01*
X167382025Y-90792055D01*
X167375738Y-90798306D01*
X166649893Y-91100024D01*
X166645389Y-91100920D01*
X165859318Y-91100013D01*
X165851048Y-91096577D01*
X165847631Y-91088300D01*
X165847634Y-91088034D01*
X165879573Y-89748850D01*
X165883196Y-89740661D01*
X165886789Y-89738322D01*
X166792750Y-89363060D01*
X166801702Y-89363060D01*
X166808034Y-89369392D01*
G37*
%TD.AperFunction*%
%TD*%
%TA.AperFunction,Conductor*%
%TO.N,Net-(U2-FB)*%
G36*
X158483029Y-83906356D02*
G01*
X158854071Y-84246310D01*
X158857856Y-84254426D01*
X158857200Y-84258831D01*
X158677755Y-84767194D01*
X158671770Y-84773855D01*
X158666722Y-84775000D01*
X158381965Y-84775000D01*
X158373692Y-84771573D01*
X158371680Y-84768878D01*
X158290537Y-84619265D01*
X158099151Y-84266386D01*
X158098220Y-84257482D01*
X158101396Y-84252310D01*
X158467087Y-83906482D01*
X158475452Y-83903289D01*
X158483029Y-83906356D01*
G37*
%TD.AperFunction*%
%TD*%
%TA.AperFunction,Conductor*%
%TO.N,Net-(U1-VCC)*%
G36*
X138899538Y-85078427D02*
G01*
X138902483Y-85083375D01*
X139004890Y-85428835D01*
X139003955Y-85437741D01*
X138998194Y-85442951D01*
X138804522Y-85524105D01*
X138795567Y-85524142D01*
X138795478Y-85524105D01*
X138601805Y-85442951D01*
X138595499Y-85436593D01*
X138595109Y-85428835D01*
X138697517Y-85083375D01*
X138703154Y-85076417D01*
X138708735Y-85075000D01*
X138891265Y-85075000D01*
X138899538Y-85078427D01*
G37*
%TD.AperFunction*%
%TD*%
%TA.AperFunction,Conductor*%
%TO.N,+15V*%
G36*
X166216132Y-103788543D02*
G01*
X167171406Y-104687995D01*
X167177619Y-104693845D01*
X167181293Y-104702011D01*
X167179901Y-104707906D01*
X166755661Y-105496424D01*
X166748724Y-105502086D01*
X166748698Y-105502094D01*
X165963241Y-105736060D01*
X165954334Y-105735138D01*
X165948897Y-105728821D01*
X165866520Y-105500707D01*
X165503285Y-104494857D01*
X165503698Y-104485914D01*
X165506013Y-104482615D01*
X166199841Y-103788788D01*
X166208113Y-103785362D01*
X166216132Y-103788543D01*
G37*
%TD.AperFunction*%
%TD*%
%TA.AperFunction,Conductor*%
%TO.N,Net-(U6-NR)*%
G36*
X155814031Y-113027129D02*
G01*
X155815435Y-113028284D01*
X155866954Y-113077841D01*
X155980716Y-113187272D01*
X155984303Y-113195476D01*
X155983876Y-113198842D01*
X155827849Y-113759071D01*
X155822328Y-113766121D01*
X155814540Y-113767453D01*
X155659201Y-113739970D01*
X155651651Y-113735154D01*
X155649542Y-113728175D01*
X155661244Y-113228535D01*
X155663354Y-113222102D01*
X155687721Y-113187271D01*
X155797738Y-113030008D01*
X155805287Y-113025195D01*
X155814031Y-113027129D01*
G37*
%TD.AperFunction*%
%TD*%
%TA.AperFunction,Conductor*%
%TO.N,GND*%
G36*
X160437582Y-107648761D02*
G01*
X160430716Y-107948682D01*
X160000000Y-107925000D01*
X159999001Y-107699978D01*
X160086104Y-107492127D01*
X160437582Y-107648761D01*
G37*
%TD.AperFunction*%
%TD*%
%TA.AperFunction,Conductor*%
%TO.N,Net-(U1-VCC)*%
G36*
X138901685Y-84628427D02*
G01*
X138903416Y-84630633D01*
X139244392Y-85192866D01*
X139245752Y-85201717D01*
X139241223Y-85208429D01*
X138806835Y-85521080D01*
X138798118Y-85523132D01*
X138793165Y-85521080D01*
X138358776Y-85208429D01*
X138354063Y-85200815D01*
X138355606Y-85192868D01*
X138696584Y-84630633D01*
X138703804Y-84625336D01*
X138706588Y-84625000D01*
X138893412Y-84625000D01*
X138901685Y-84628427D01*
G37*
%TD.AperFunction*%
%TD*%
%TA.AperFunction,Conductor*%
%TO.N,+5V*%
G36*
X159596908Y-117589028D02*
G01*
X159601882Y-117596475D01*
X159601953Y-117596867D01*
X159835808Y-119027303D01*
X159833761Y-119036021D01*
X159832534Y-119037464D01*
X159489948Y-119380050D01*
X159481675Y-119383477D01*
X159475266Y-119381566D01*
X158974390Y-119053635D01*
X158969346Y-119046236D01*
X158969109Y-119043366D01*
X158969352Y-119037464D01*
X159023915Y-117708493D01*
X159027678Y-117700368D01*
X159033322Y-117697499D01*
X159588128Y-117587279D01*
X159596908Y-117589028D01*
G37*
%TD.AperFunction*%
%TD*%
%TA.AperFunction,Conductor*%
%TO.N,-15V*%
G36*
X164095100Y-86036351D02*
G01*
X164103002Y-86040562D01*
X164492499Y-86525000D01*
X164528561Y-86569851D01*
X164531075Y-86578446D01*
X164527716Y-86585455D01*
X163835784Y-87277387D01*
X163827511Y-87280814D01*
X163819794Y-87277908D01*
X162968117Y-86530519D01*
X162964159Y-86522486D01*
X162965017Y-86517267D01*
X163195984Y-85957314D01*
X163202306Y-85950974D01*
X163207929Y-85950132D01*
X164095100Y-86036351D01*
G37*
%TD.AperFunction*%
%TD*%
%TA.AperFunction,Conductor*%
%TO.N,+15V*%
G36*
X161840489Y-106373188D02*
G01*
X161847975Y-106378102D01*
X161850000Y-106384681D01*
X161850000Y-106615318D01*
X161846573Y-106623591D01*
X161840489Y-106626811D01*
X161590917Y-106674349D01*
X161584282Y-106673678D01*
X161442217Y-106615318D01*
X161187842Y-106510821D01*
X161181493Y-106504509D01*
X161181467Y-106495554D01*
X161187779Y-106489204D01*
X161584285Y-106326320D01*
X161590914Y-106325650D01*
X161840489Y-106373188D01*
G37*
%TD.AperFunction*%
%TD*%
%TA.AperFunction,Conductor*%
%TO.N,Net-(U4-EN)*%
G36*
X157751057Y-102128357D02*
G01*
X157753636Y-102131520D01*
X157997821Y-102569301D01*
X157998858Y-102578195D01*
X157997821Y-102580699D01*
X157753636Y-103018479D01*
X157746613Y-103024035D01*
X157742554Y-103024448D01*
X157085836Y-102975802D01*
X157077838Y-102971773D01*
X157075000Y-102964134D01*
X157075000Y-102185865D01*
X157078427Y-102177592D01*
X157085835Y-102174197D01*
X157742555Y-102125551D01*
X157751057Y-102128357D01*
G37*
%TD.AperFunction*%
%TD*%
%TA.AperFunction,Conductor*%
%TO.N,GND*%
G36*
X160359099Y-89540901D02*
G01*
X160200707Y-89700707D01*
X159992127Y-89786104D01*
X159913983Y-89426115D01*
X160126115Y-89213983D01*
X160359099Y-89540901D01*
G37*
%TD.AperFunction*%
%TD*%
%TA.AperFunction,Conductor*%
%TO.N,+5V*%
G36*
X155171540Y-118459263D02*
G01*
X155175241Y-118467417D01*
X155175245Y-118467565D01*
X155188049Y-119084484D01*
X155184795Y-119092827D01*
X155180829Y-119095536D01*
X154968585Y-119183446D01*
X154959630Y-119183446D01*
X154953299Y-119177114D01*
X154953102Y-119176607D01*
X154879309Y-118971034D01*
X154878944Y-118964350D01*
X154997538Y-118470241D01*
X155002801Y-118462996D01*
X155008521Y-118461279D01*
X155163158Y-118456115D01*
X155171540Y-118459263D01*
G37*
%TD.AperFunction*%
%TD*%
%TA.AperFunction,Conductor*%
%TO.N,GND*%
G36*
X159224264Y-106712132D02*
G01*
X159012132Y-106924264D01*
X158640901Y-106659099D01*
X158799293Y-106499293D01*
X158959099Y-106340901D01*
X159224264Y-106712132D01*
G37*
%TD.AperFunction*%
%TD*%
%TA.AperFunction,Conductor*%
%TO.N,Net-(U2-EN)*%
G36*
X161185633Y-91677784D02*
G01*
X161185971Y-91678600D01*
X161414171Y-92294291D01*
X161414477Y-92301476D01*
X161327373Y-92616419D01*
X161321864Y-92623479D01*
X161316096Y-92625000D01*
X161033904Y-92625000D01*
X161025631Y-92621573D01*
X161022627Y-92616419D01*
X160935522Y-92301476D01*
X160935827Y-92294292D01*
X161164029Y-91678599D01*
X161170118Y-91672033D01*
X161179066Y-91671695D01*
X161185633Y-91677784D01*
G37*
%TD.AperFunction*%
%TD*%
%TA.AperFunction,Conductor*%
%TO.N,+15V*%
G36*
X164721615Y-102213870D02*
G01*
X164794395Y-102215663D01*
X164802581Y-102219292D01*
X164803403Y-102220255D01*
X165303047Y-102874099D01*
X165305348Y-102882753D01*
X165302125Y-102889374D01*
X164615271Y-103593290D01*
X164607041Y-103596818D01*
X164604550Y-103596581D01*
X161946577Y-103052296D01*
X161939159Y-103047279D01*
X161937413Y-103038739D01*
X162097493Y-102159147D01*
X162102345Y-102151623D01*
X162109289Y-102149548D01*
X164721615Y-102213870D01*
G37*
%TD.AperFunction*%
%TD*%
%TA.AperFunction,Conductor*%
%TO.N,Net-(U1-FB)*%
G36*
X134999538Y-85353427D02*
G01*
X135002483Y-85358375D01*
X135104890Y-85703835D01*
X135103955Y-85712741D01*
X135098194Y-85717951D01*
X134904522Y-85799105D01*
X134895567Y-85799142D01*
X134895478Y-85799105D01*
X134701805Y-85717951D01*
X134695499Y-85711593D01*
X134695109Y-85703835D01*
X134797517Y-85358375D01*
X134803154Y-85351417D01*
X134808735Y-85350000D01*
X134991265Y-85350000D01*
X134999538Y-85353427D01*
G37*
%TD.AperFunction*%
%TD*%
%TA.AperFunction,Conductor*%
%TO.N,+15V*%
G36*
X162107297Y-102158829D02*
G01*
X162107303Y-102158838D01*
X162721281Y-103042879D01*
X162723185Y-103051629D01*
X162720854Y-103056803D01*
X161877758Y-104124619D01*
X161869941Y-104128989D01*
X161861325Y-104126552D01*
X161861280Y-104126516D01*
X161858901Y-104124619D01*
X161090244Y-103511633D01*
X161087571Y-103508611D01*
X160811957Y-103059413D01*
X160810552Y-103050570D01*
X160815245Y-103043692D01*
X162091011Y-102155907D01*
X162099758Y-102153996D01*
X162107297Y-102158829D01*
G37*
%TD.AperFunction*%
%TD*%
%TA.AperFunction,Conductor*%
%TO.N,Net-(U4-EN)*%
G36*
X155908559Y-102481510D02*
G01*
X156584207Y-103038298D01*
X156588412Y-103046204D01*
X156588415Y-103048418D01*
X156557880Y-103374582D01*
X156553697Y-103382499D01*
X156551307Y-103384032D01*
X155668555Y-103809143D01*
X155659615Y-103809645D01*
X155652938Y-103803678D01*
X155652299Y-103802049D01*
X155422906Y-103056048D01*
X155423750Y-103047133D01*
X155425086Y-103045137D01*
X155892121Y-102483060D01*
X155900042Y-102478889D01*
X155908559Y-102481510D01*
G37*
%TD.AperFunction*%
%TD*%
%TA.AperFunction,Conductor*%
%TO.N,Net-(C8-Pad2)*%
G36*
X135869690Y-80899568D02*
G01*
X136195392Y-81317799D01*
X136197772Y-81326432D01*
X136195381Y-81332191D01*
X135869815Y-81748962D01*
X135862022Y-81753372D01*
X135854218Y-81751568D01*
X135280323Y-81378460D01*
X135275254Y-81371078D01*
X135275000Y-81368651D01*
X135275000Y-81182359D01*
X135278427Y-81174086D01*
X135281632Y-81171814D01*
X135855393Y-80896210D01*
X135864334Y-80895717D01*
X135869690Y-80899568D01*
G37*
%TD.AperFunction*%
%TD*%
%TA.AperFunction,Conductor*%
%TO.N,Net-(U1-FB)*%
G36*
X134245523Y-86017776D02*
G01*
X134689658Y-86268127D01*
X134695183Y-86275174D01*
X134694105Y-86284064D01*
X134693550Y-86284954D01*
X134428766Y-86669529D01*
X134421252Y-86674400D01*
X134418371Y-86674569D01*
X133944040Y-86643762D01*
X133936006Y-86639807D01*
X133935333Y-86638964D01*
X133826533Y-86489220D01*
X133824442Y-86480513D01*
X133827251Y-86474572D01*
X134231035Y-86020195D01*
X134239090Y-86016289D01*
X134245523Y-86017776D01*
G37*
%TD.AperFunction*%
%TD*%
%TA.AperFunction,Conductor*%
%TO.N,-15V*%
G36*
X160373919Y-84578427D02*
G01*
X160377059Y-84584125D01*
X160506238Y-85156652D01*
X160504716Y-85165476D01*
X160502014Y-85168458D01*
X160082200Y-85495392D01*
X160073567Y-85497772D01*
X160067808Y-85495381D01*
X159649475Y-85168596D01*
X159645065Y-85160803D01*
X159645796Y-85155078D01*
X159872076Y-84582399D01*
X159878303Y-84575965D01*
X159882957Y-84575000D01*
X160365646Y-84575000D01*
X160373919Y-84578427D01*
G37*
%TD.AperFunction*%
%TD*%
%TA.AperFunction,Conductor*%
%TO.N,Net-(U2-EN)*%
G36*
X159174149Y-93237996D02*
G01*
X159179906Y-93243316D01*
X159536786Y-93923510D01*
X159537595Y-93932428D01*
X159536850Y-93934258D01*
X159408130Y-94186889D01*
X159401321Y-94192704D01*
X159393635Y-94192546D01*
X159378389Y-94186889D01*
X159209839Y-94124347D01*
X158548687Y-93879023D01*
X158542123Y-93872932D01*
X158541742Y-93864111D01*
X158697334Y-93429503D01*
X158703347Y-93422871D01*
X158703966Y-93422601D01*
X159165196Y-93237891D01*
X159174149Y-93237996D01*
G37*
%TD.AperFunction*%
%TD*%
%TA.AperFunction,Conductor*%
%TO.N,Net-(U2-FB)*%
G36*
X158531604Y-85508028D02*
G01*
X158771937Y-85860994D01*
X158831617Y-85948642D01*
X158833441Y-85957409D01*
X158829816Y-85963885D01*
X158318516Y-86428625D01*
X158310089Y-86431654D01*
X158303769Y-86429432D01*
X158231031Y-86376584D01*
X158113667Y-86291312D01*
X158108989Y-86283679D01*
X158108871Y-86282611D01*
X158075468Y-85757370D01*
X158078362Y-85748899D01*
X158081451Y-85746408D01*
X158516245Y-85504390D01*
X158525139Y-85503362D01*
X158531604Y-85508028D01*
G37*
%TD.AperFunction*%
%TD*%
%TA.AperFunction,Conductor*%
%TO.N,Net-(U1-FB)*%
G36*
X134726447Y-83478427D02*
G01*
X134728359Y-83480943D01*
X135052906Y-84055109D01*
X135053994Y-84063997D01*
X135049910Y-84070097D01*
X134632189Y-84395401D01*
X134623556Y-84397781D01*
X134617811Y-84395401D01*
X134412832Y-84235772D01*
X134200088Y-84070096D01*
X134195667Y-84062310D01*
X134197092Y-84055111D01*
X134521641Y-83480943D01*
X134528695Y-83475427D01*
X134531826Y-83475000D01*
X134718174Y-83475000D01*
X134726447Y-83478427D01*
G37*
%TD.AperFunction*%
%TD*%
%TA.AperFunction,Conductor*%
%TO.N,Net-(U1-COMP)*%
G36*
X136276447Y-83478427D02*
G01*
X136278359Y-83480943D01*
X136602906Y-84055109D01*
X136603994Y-84063997D01*
X136599910Y-84070097D01*
X136182189Y-84395401D01*
X136173556Y-84397781D01*
X136167811Y-84395401D01*
X135962832Y-84235772D01*
X135750088Y-84070096D01*
X135745667Y-84062310D01*
X135747092Y-84055111D01*
X136071641Y-83480943D01*
X136078695Y-83475427D01*
X136081826Y-83475000D01*
X136268174Y-83475000D01*
X136276447Y-83478427D01*
G37*
%TD.AperFunction*%
%TD*%
%TA.AperFunction,Conductor*%
%TO.N,GND*%
G36*
X159770540Y-89231180D02*
G01*
X159825000Y-89400000D01*
X159599018Y-89399815D01*
X159440901Y-89240901D01*
X159826133Y-88936377D01*
X159770540Y-89231180D01*
G37*
%TD.AperFunction*%
%TD*%
%TA.AperFunction,Conductor*%
%TO.N,Net-(U1-RAMP)*%
G36*
X132536332Y-84538906D02*
G01*
X132552986Y-84545772D01*
X132920001Y-84697083D01*
X132926343Y-84703404D01*
X132927039Y-84705736D01*
X133013394Y-85164747D01*
X133011556Y-85173511D01*
X133005357Y-85178086D01*
X132350834Y-85380793D01*
X132341918Y-85379967D01*
X132337240Y-85375466D01*
X132269630Y-85258343D01*
X132268463Y-85249467D01*
X132268744Y-85248566D01*
X132520861Y-84545770D01*
X132526879Y-84539142D01*
X132535824Y-84538710D01*
X132536332Y-84538906D01*
G37*
%TD.AperFunction*%
%TD*%
%TA.AperFunction,Conductor*%
%TO.N,GND*%
G36*
X159825000Y-89400000D02*
G01*
X159600768Y-89400639D01*
X159440901Y-89240901D01*
X159543547Y-89138444D01*
X159735505Y-88907899D01*
X159825000Y-89400000D01*
G37*
%TD.AperFunction*%
%TD*%
%TA.AperFunction,Conductor*%
%TO.N,Net-(U4-EN)*%
G36*
X155982203Y-106332828D02*
G01*
X156091812Y-106372982D01*
X156408512Y-106488999D01*
X156415101Y-106495062D01*
X156415473Y-106504010D01*
X156409410Y-106510599D01*
X156408512Y-106510971D01*
X155982230Y-106667160D01*
X155975672Y-106667597D01*
X155792508Y-106626980D01*
X155785173Y-106621843D01*
X155783343Y-106615753D01*
X155779504Y-106384609D01*
X155782793Y-106376281D01*
X155788717Y-106372982D01*
X155975698Y-106332381D01*
X155982203Y-106332828D01*
G37*
%TD.AperFunction*%
%TD*%
%TA.AperFunction,Conductor*%
%TO.N,Net-(U1-RT)*%
G36*
X133515208Y-85578210D02*
G01*
X133520031Y-85582332D01*
X133622548Y-85735753D01*
X133624295Y-85744535D01*
X133623626Y-85746739D01*
X133329477Y-86455275D01*
X133323140Y-86461602D01*
X133314206Y-86461603D01*
X132930035Y-86302977D01*
X132923696Y-86296652D01*
X132923001Y-86294323D01*
X132836922Y-85834714D01*
X132838767Y-85825953D01*
X132844376Y-85821585D01*
X133506260Y-85577853D01*
X133515208Y-85578210D01*
G37*
%TD.AperFunction*%
%TD*%
%TA.AperFunction,Conductor*%
%TO.N,Net-(U2-FB)*%
G36*
X158675914Y-84578427D02*
G01*
X158678187Y-84581634D01*
X158953788Y-85155393D01*
X158954282Y-85164334D01*
X158950431Y-85169690D01*
X158532189Y-85495401D01*
X158523556Y-85497781D01*
X158517811Y-85495401D01*
X158099568Y-85169690D01*
X158095146Y-85161903D01*
X158096211Y-85155393D01*
X158371813Y-84581634D01*
X158378484Y-84575660D01*
X158382359Y-84575000D01*
X158667641Y-84575000D01*
X158675914Y-84578427D01*
G37*
%TD.AperFunction*%
%TD*%
%TA.AperFunction,Conductor*%
%TO.N,Net-(U6-NR)*%
G36*
X156136991Y-112059752D02*
G01*
X156163473Y-112068175D01*
X156570715Y-112197705D01*
X156577561Y-112203479D01*
X156577847Y-112204073D01*
X156784454Y-112665411D01*
X156784708Y-112674362D01*
X156779674Y-112680297D01*
X156107130Y-113072889D01*
X156098258Y-113074101D01*
X156092959Y-113071058D01*
X155927193Y-112905292D01*
X155923766Y-112897019D01*
X155924088Y-112894292D01*
X155975372Y-112680297D01*
X156122067Y-112068174D01*
X156127328Y-112060929D01*
X156136172Y-112059524D01*
X156136991Y-112059752D01*
G37*
%TD.AperFunction*%
%TD*%
%TA.AperFunction,Conductor*%
%TO.N,GND*%
G36*
X158800499Y-106499134D02*
G01*
X158959099Y-106659099D01*
X158645574Y-106920449D01*
X158385766Y-106770451D01*
X158592127Y-106413896D01*
X158800499Y-106499134D01*
G37*
%TD.AperFunction*%
%TD*%
%TA.AperFunction,Conductor*%
%TO.N,Net-(U1-FB)*%
G36*
X134999612Y-85478449D02*
G01*
X135002529Y-85483306D01*
X135157113Y-85989741D01*
X135156251Y-85998654D01*
X135151969Y-86003174D01*
X134708783Y-86270697D01*
X134699930Y-86272038D01*
X134693595Y-86267982D01*
X134471344Y-85989741D01*
X134392484Y-85891014D01*
X134390000Y-85882412D01*
X134393416Y-85875378D01*
X134537341Y-85733658D01*
X134540234Y-85731574D01*
X134540723Y-85731326D01*
X134605881Y-85666167D01*
X134796585Y-85478385D01*
X134804794Y-85475022D01*
X134991339Y-85475022D01*
X134999612Y-85478449D01*
G37*
%TD.AperFunction*%
%TD*%
%TA.AperFunction,Conductor*%
%TO.N,Net-(U1-FB)*%
G36*
X134904074Y-85802691D02*
G01*
X134904137Y-85802755D01*
X135052191Y-85952129D01*
X135055581Y-85960417D01*
X135053438Y-85967114D01*
X134837128Y-86273435D01*
X134829557Y-86278216D01*
X134820822Y-86276243D01*
X134819502Y-86275158D01*
X134687986Y-86149894D01*
X134684359Y-86141744D01*
X134675328Y-85811980D01*
X134678527Y-85803617D01*
X134686704Y-85799965D01*
X134686935Y-85799961D01*
X134895790Y-85799291D01*
X134904074Y-85802691D01*
G37*
%TD.AperFunction*%
%TD*%
%TA.AperFunction,Conductor*%
%TO.N,-15V*%
G36*
X159634296Y-85318463D02*
G01*
X160070630Y-85497152D01*
X160076987Y-85503458D01*
X160077271Y-85504205D01*
X160234550Y-85965748D01*
X160233974Y-85974684D01*
X160229159Y-85979748D01*
X159603891Y-86327288D01*
X159594995Y-86328312D01*
X159591707Y-86326790D01*
X159191184Y-86059163D01*
X159186209Y-86051717D01*
X159187652Y-86043414D01*
X159225860Y-85979748D01*
X159619831Y-85323267D01*
X159627025Y-85317939D01*
X159634296Y-85318463D01*
G37*
%TD.AperFunction*%
%TD*%
%TA.AperFunction,Conductor*%
%TO.N,Net-(C8-Pad2)*%
G36*
X134959573Y-80894596D02*
G01*
X135468891Y-81171677D01*
X135474521Y-81178640D01*
X135475000Y-81181954D01*
X135475000Y-81368045D01*
X135471573Y-81376318D01*
X135468891Y-81378323D01*
X134959573Y-81655403D01*
X134950668Y-81656346D01*
X134945355Y-81653029D01*
X134606240Y-81282902D01*
X134603179Y-81274489D01*
X134606240Y-81267097D01*
X134945357Y-80896969D01*
X134953471Y-80893185D01*
X134959573Y-80894596D01*
G37*
%TD.AperFunction*%
%TD*%
%TA.AperFunction,Conductor*%
%TO.N,Net-(U1-RAMP)*%
G36*
X132337298Y-85176803D02*
G01*
X132345508Y-85180230D01*
X132439708Y-85274430D01*
X132443135Y-85282703D01*
X132439708Y-85290976D01*
X132439518Y-85291162D01*
X132167331Y-85551233D01*
X132158982Y-85554471D01*
X132151012Y-85551084D01*
X132002772Y-85404155D01*
X131999308Y-85395897D01*
X131999308Y-85395808D01*
X131999637Y-85290976D01*
X131999963Y-85186724D01*
X132003416Y-85178463D01*
X132011698Y-85175062D01*
X132337298Y-85176803D01*
G37*
%TD.AperFunction*%
%TD*%
%TA.AperFunction,Conductor*%
%TO.N,GND*%
G36*
X160159099Y-107540901D02*
G01*
X160000707Y-107700707D01*
X159840901Y-107859099D01*
X159575736Y-107487868D01*
X159787868Y-107275736D01*
X160159099Y-107540901D01*
G37*
%TD.AperFunction*%
%TD*%
%TA.AperFunction,Conductor*%
%TO.N,Net-(U6-EN)*%
G36*
X155186567Y-113043356D02*
G01*
X155187693Y-113044346D01*
X155350013Y-113206665D01*
X155353440Y-113214938D01*
X155352881Y-113218512D01*
X155178184Y-113763057D01*
X155172393Y-113769888D01*
X155164771Y-113770960D01*
X155009342Y-113740196D01*
X155001892Y-113735228D01*
X154999937Y-113727983D01*
X155031406Y-113228571D01*
X155033818Y-113222165D01*
X155170159Y-113045470D01*
X155177924Y-113041015D01*
X155186567Y-113043356D01*
G37*
%TD.AperFunction*%
%TD*%
%TA.AperFunction,Conductor*%
%TO.N,Net-(U1-FB)*%
G36*
X133224271Y-87077418D02*
G01*
X133354874Y-87208021D01*
X133358301Y-87216294D01*
X133358140Y-87218229D01*
X133227149Y-87999322D01*
X133222401Y-88006915D01*
X133213675Y-88008926D01*
X133212477Y-88008659D01*
X133025250Y-87956592D01*
X132830029Y-87902302D01*
X132822977Y-87896784D01*
X132822206Y-87895130D01*
X132649664Y-87433988D01*
X132649974Y-87425039D01*
X132654456Y-87419945D01*
X133209837Y-87075745D01*
X133218672Y-87074301D01*
X133224271Y-87077418D01*
G37*
%TD.AperFunction*%
%TD*%
%TA.AperFunction,Conductor*%
%TO.N,Net-(U2-EN)*%
G36*
X158941315Y-92505231D02*
G01*
X159406520Y-92629890D01*
X159413625Y-92635341D01*
X159414793Y-92644219D01*
X159414755Y-92644358D01*
X159177792Y-93487243D01*
X159172254Y-93494279D01*
X159164795Y-93495647D01*
X158705231Y-93426787D01*
X158697557Y-93422172D01*
X158696911Y-93421200D01*
X158438538Y-92986268D01*
X158437260Y-92977406D01*
X158440552Y-92971799D01*
X158930251Y-92508037D01*
X158938612Y-92504837D01*
X158941315Y-92505231D01*
G37*
%TD.AperFunction*%
%TD*%
%TA.AperFunction,Conductor*%
%TO.N,Net-(U2-NR{slash}SS)*%
G36*
X160771573Y-92528548D02*
G01*
X160775000Y-92536821D01*
X160775000Y-93370596D01*
X160771573Y-93378869D01*
X160764398Y-93382244D01*
X160306027Y-93425432D01*
X160297468Y-93422797D01*
X160296059Y-93421412D01*
X159946550Y-93014506D01*
X159943760Y-93006000D01*
X159945807Y-93000224D01*
X160191475Y-92645666D01*
X160271511Y-92530157D01*
X160279040Y-92525309D01*
X160281128Y-92525121D01*
X160763300Y-92525121D01*
X160771573Y-92528548D01*
G37*
%TD.AperFunction*%
%TD*%
%TA.AperFunction,Conductor*%
%TO.N,+15V*%
G36*
X165964041Y-105150158D02*
G01*
X166749129Y-105497650D01*
X166755308Y-105504132D01*
X166755316Y-105504153D01*
X167056530Y-106288222D01*
X167056298Y-106297174D01*
X167049804Y-106303340D01*
X167048970Y-106303625D01*
X165547843Y-106753957D01*
X165538934Y-106753051D01*
X165533672Y-106747228D01*
X165443797Y-106530261D01*
X165443633Y-106521729D01*
X165948331Y-105156798D01*
X165954415Y-105150228D01*
X165963363Y-105149883D01*
X165964041Y-105150158D01*
G37*
%TD.AperFunction*%
%TD*%
%TA.AperFunction,Conductor*%
%TO.N,Net-(U1-FB)*%
G36*
X134633834Y-84403927D02*
G01*
X135068204Y-84646209D01*
X135073760Y-84653232D01*
X135074132Y-84657732D01*
X135017330Y-85163811D01*
X135001167Y-85307811D01*
X134996839Y-85315650D01*
X134989540Y-85318206D01*
X134804608Y-85318206D01*
X134796629Y-85315063D01*
X134634428Y-85163811D01*
X134631981Y-85160563D01*
X134631326Y-85159277D01*
X134540723Y-85068674D01*
X134523844Y-85060073D01*
X134521177Y-85058205D01*
X134295011Y-84847307D01*
X134291297Y-84839158D01*
X134293700Y-84831640D01*
X134618849Y-84407032D01*
X134626598Y-84402548D01*
X134633834Y-84403927D01*
G37*
%TD.AperFunction*%
%TD*%
%TA.AperFunction,Conductor*%
%TO.N,Net-(U6-EN)*%
G36*
X158957938Y-112807596D02*
G01*
X158958006Y-112807669D01*
X159386961Y-113272119D01*
X159435424Y-113324592D01*
X159438520Y-113332994D01*
X159438374Y-113334425D01*
X159326610Y-114015195D01*
X159321889Y-114022804D01*
X159315065Y-114025000D01*
X158535588Y-114025000D01*
X158527315Y-114021573D01*
X158523946Y-114014464D01*
X158450569Y-113280692D01*
X158453156Y-113272119D01*
X158454136Y-113271061D01*
X158941398Y-112807188D01*
X158949752Y-112803967D01*
X158957938Y-112807596D01*
G37*
%TD.AperFunction*%
%TD*%
%TA.AperFunction,Conductor*%
%TO.N,Net-(U1-FB)*%
G36*
X134607911Y-82930661D02*
G01*
X135003206Y-83263489D01*
X135007327Y-83271438D01*
X135005575Y-83278665D01*
X134728440Y-83719527D01*
X134721136Y-83724707D01*
X134718535Y-83725000D01*
X134531027Y-83725000D01*
X134522754Y-83721573D01*
X134521501Y-83720093D01*
X134397344Y-83545995D01*
X134217037Y-83293160D01*
X134215025Y-83284437D01*
X134218606Y-83277792D01*
X134592418Y-82931032D01*
X134600814Y-82927919D01*
X134607911Y-82930661D01*
G37*
%TD.AperFunction*%
%TD*%
%TA.AperFunction,Conductor*%
%TO.N,Net-(U1-COMP)*%
G36*
X136206715Y-82879144D02*
G01*
X136632211Y-83205066D01*
X136636695Y-83212817D01*
X136634909Y-83220726D01*
X136278460Y-83769672D01*
X136271080Y-83774744D01*
X136268647Y-83775000D01*
X136081826Y-83775000D01*
X136073553Y-83771573D01*
X136071641Y-83769057D01*
X135747421Y-83195469D01*
X135746333Y-83186581D01*
X135751014Y-83180045D01*
X136193011Y-82878763D01*
X136201776Y-82876936D01*
X136206715Y-82879144D01*
G37*
%TD.AperFunction*%
%TD*%
%TA.AperFunction,Conductor*%
%TO.N,GND*%
G36*
X159220449Y-106654426D02*
G01*
X159070451Y-106914234D01*
X158713896Y-106707873D01*
X158799134Y-106499501D01*
X158959099Y-106340901D01*
X159220449Y-106654426D01*
G37*
%TD.AperFunction*%
%TD*%
%TA.AperFunction,Conductor*%
%TO.N,/-15V Supply/-17V_SW*%
G36*
X137859191Y-87018907D02*
G01*
X137895155Y-87068407D01*
X137900000Y-87099000D01*
X137900000Y-88705155D01*
X137885172Y-88757271D01*
X137865129Y-88789642D01*
X137844500Y-88899999D01*
X137844500Y-89801000D01*
X137825593Y-89859191D01*
X137776093Y-89895155D01*
X137745500Y-89900000D01*
X133999000Y-89900000D01*
X133940809Y-89881093D01*
X133904845Y-89831593D01*
X133900000Y-89801000D01*
X133900000Y-87099000D01*
X133918907Y-87040809D01*
X133968407Y-87004845D01*
X133999000Y-87000000D01*
X137801000Y-87000000D01*
X137859191Y-87018907D01*
G37*
%TD.AperFunction*%
%TD*%
%TA.AperFunction,Conductor*%
%TO.N,Net-(U2-FB)*%
G36*
X158112876Y-86294291D02*
G01*
X158240160Y-86386771D01*
X158302586Y-86432127D01*
X158307265Y-86439762D01*
X158306668Y-86445691D01*
X158078446Y-87055846D01*
X158072337Y-87062394D01*
X158065329Y-87063246D01*
X157605649Y-86976979D01*
X157598150Y-86972085D01*
X157596992Y-86969943D01*
X157438444Y-86585724D01*
X157438456Y-86576769D01*
X157444703Y-86570485D01*
X158101449Y-86292980D01*
X158110403Y-86292917D01*
X158112876Y-86294291D01*
G37*
%TD.AperFunction*%
%TD*%
%TA.AperFunction,Conductor*%
%TO.N,+5V*%
G36*
X158459447Y-117441576D02*
G01*
X159015480Y-117695360D01*
X159021583Y-117701913D01*
X159021328Y-117710723D01*
X158489196Y-118917891D01*
X158482723Y-118924079D01*
X158482095Y-118924303D01*
X157886567Y-119117187D01*
X157877641Y-119116476D01*
X157871831Y-119109661D01*
X157871406Y-119104229D01*
X158024460Y-118137652D01*
X158026022Y-118133401D01*
X158444598Y-117446133D01*
X158451828Y-117440852D01*
X158459447Y-117441576D01*
G37*
%TD.AperFunction*%
%TD*%
%TA.AperFunction,Conductor*%
%TO.N,Net-(U4-EN)*%
G36*
X156701380Y-101954432D02*
G01*
X157042501Y-102066127D01*
X157366941Y-102172361D01*
X157373737Y-102178192D01*
X157375000Y-102183480D01*
X157375000Y-102964315D01*
X157371573Y-102972588D01*
X157364359Y-102975967D01*
X156555022Y-103049543D01*
X156546473Y-103046879D01*
X156546237Y-103046676D01*
X155910492Y-102485150D01*
X155906559Y-102477105D01*
X155909468Y-102468636D01*
X155911818Y-102466599D01*
X156691327Y-101955764D01*
X156700124Y-101954097D01*
X156701380Y-101954432D01*
G37*
%TD.AperFunction*%
%TD*%
%TA.AperFunction,Conductor*%
%TO.N,Net-(U2-EN)*%
G36*
X156708826Y-91930241D02*
G01*
X157508400Y-92429187D01*
X157513605Y-92436474D01*
X157513388Y-92442556D01*
X157461574Y-92610838D01*
X157458665Y-92615668D01*
X156764682Y-93309651D01*
X156756409Y-93313078D01*
X156748136Y-93309651D01*
X156746132Y-93306970D01*
X156369980Y-92615668D01*
X156310456Y-92506274D01*
X156309513Y-92497370D01*
X156311062Y-92494101D01*
X156692966Y-91933578D01*
X156700454Y-91928673D01*
X156708826Y-91930241D01*
G37*
%TD.AperFunction*%
%TD*%
%TA.AperFunction,Conductor*%
%TO.N,/-15V Supply/-17V_SW*%
G36*
X133614593Y-89248843D02*
G01*
X133622436Y-89253162D01*
X133625000Y-89260471D01*
X133625000Y-89742837D01*
X133621573Y-89751110D01*
X133618621Y-89753257D01*
X133089452Y-90023451D01*
X133080525Y-90024161D01*
X133075652Y-90021093D01*
X132978247Y-89918661D01*
X132704932Y-89631238D01*
X132701716Y-89622884D01*
X132703192Y-89617482D01*
X132946214Y-89181786D01*
X132953237Y-89176231D01*
X132957722Y-89175858D01*
X133614593Y-89248843D01*
G37*
%TD.AperFunction*%
%TD*%
%TA.AperFunction,Conductor*%
%TO.N,Net-(U4-NR)*%
G36*
X155077569Y-105372519D02*
G01*
X155718581Y-105696753D01*
X155724417Y-105703545D01*
X155725000Y-105707193D01*
X155725000Y-105992806D01*
X155721573Y-106001079D01*
X155718581Y-106003246D01*
X155077569Y-106327480D01*
X155068640Y-106328157D01*
X155064756Y-106325993D01*
X154509641Y-105858953D01*
X154505516Y-105851004D01*
X154508220Y-105842468D01*
X154509641Y-105841047D01*
X154673073Y-105703545D01*
X155064757Y-105374005D01*
X155073292Y-105371302D01*
X155077569Y-105372519D01*
G37*
%TD.AperFunction*%
%TD*%
%TA.AperFunction,Conductor*%
%TO.N,GND*%
G36*
X159214234Y-106770451D02*
G01*
X158954426Y-106920449D01*
X158640901Y-106659099D01*
X158799501Y-106499134D01*
X159007873Y-106413896D01*
X159214234Y-106770451D01*
G37*
%TD.AperFunction*%
%TD*%
%TA.AperFunction,Conductor*%
%TO.N,Net-(U1-COMP)*%
G36*
X135737061Y-84261976D02*
G01*
X136170213Y-84397461D01*
X136177083Y-84403200D01*
X136177362Y-84403771D01*
X136387685Y-84864892D01*
X136388000Y-84873841D01*
X136382440Y-84880126D01*
X135712020Y-85228896D01*
X135704337Y-85229992D01*
X135524012Y-85194120D01*
X135516567Y-85189145D01*
X135514820Y-85180362D01*
X135514888Y-85180045D01*
X135722186Y-84270547D01*
X135727364Y-84263245D01*
X135736192Y-84261743D01*
X135737061Y-84261976D01*
G37*
%TD.AperFunction*%
%TD*%
%TA.AperFunction,Conductor*%
%TO.N,Net-(U1-RT)*%
G36*
X134218399Y-85202978D02*
G01*
X134218834Y-85203901D01*
X134300002Y-85397422D01*
X134300913Y-85401995D01*
X134300053Y-85611967D01*
X134296592Y-85620226D01*
X134288305Y-85623619D01*
X134287048Y-85623546D01*
X133910390Y-85581268D01*
X133902551Y-85576940D01*
X133900887Y-85574122D01*
X133831073Y-85405583D01*
X133831073Y-85396630D01*
X133836432Y-85390754D01*
X134202598Y-85198071D01*
X134211514Y-85197252D01*
X134218399Y-85202978D01*
G37*
%TD.AperFunction*%
%TD*%
%TA.AperFunction,Conductor*%
%TO.N,Net-(U1-COMP)*%
G36*
X135603306Y-84931105D02*
G01*
X135771839Y-85000916D01*
X135778170Y-85007247D01*
X135778980Y-85010352D01*
X135823462Y-85386981D01*
X135821029Y-85395599D01*
X135813215Y-85399972D01*
X135811891Y-85400053D01*
X135601995Y-85400913D01*
X135597422Y-85400002D01*
X135597417Y-85400000D01*
X135403844Y-85318810D01*
X135397541Y-85312451D01*
X135397581Y-85303497D01*
X135397981Y-85302643D01*
X135588452Y-84936514D01*
X135595310Y-84930757D01*
X135603306Y-84931105D01*
G37*
%TD.AperFunction*%
%TD*%
%TA.AperFunction,Conductor*%
%TO.N,-15V*%
G36*
X160132902Y-83906240D02*
G01*
X160504599Y-84246794D01*
X160508384Y-84254909D01*
X160508025Y-84258337D01*
X160377261Y-84766217D01*
X160371880Y-84773375D01*
X160365931Y-84775000D01*
X159884069Y-84775000D01*
X159875796Y-84771573D01*
X159872739Y-84766217D01*
X159832109Y-84608415D01*
X159741974Y-84258335D01*
X159743229Y-84249471D01*
X159745394Y-84246799D01*
X160117097Y-83906240D01*
X160125511Y-83903179D01*
X160132902Y-83906240D01*
G37*
%TD.AperFunction*%
%TD*%
%TA.AperFunction,Conductor*%
%TO.N,Net-(U2-FB)*%
G36*
X159636877Y-87321279D02*
G01*
X159866304Y-87348178D01*
X159874122Y-87352545D01*
X159876589Y-87358687D01*
X159944452Y-88070416D01*
X159942085Y-88078652D01*
X159732433Y-88351715D01*
X159724677Y-88356190D01*
X159716028Y-88353870D01*
X159715055Y-88353034D01*
X159548121Y-88192943D01*
X159544522Y-88184744D01*
X159544568Y-88183423D01*
X159557143Y-88048414D01*
X159559065Y-88043002D01*
X159562417Y-88037986D01*
X159575500Y-87972211D01*
X159575500Y-87851882D01*
X159575550Y-87850797D01*
X159623888Y-87331815D01*
X159628068Y-87323897D01*
X159636623Y-87321252D01*
X159636877Y-87321279D01*
G37*
%TD.AperFunction*%
%TD*%
%TA.AperFunction,Conductor*%
%TO.N,Net-(U1-VCC)*%
G36*
X131860507Y-83977930D02*
G01*
X131863899Y-83980290D01*
X131994387Y-84110779D01*
X131997814Y-84119052D01*
X131996848Y-84123708D01*
X131679569Y-84855151D01*
X131673133Y-84861377D01*
X131664381Y-84861314D01*
X131280156Y-84703121D01*
X131273810Y-84696802D01*
X131273114Y-84694476D01*
X131186151Y-84234708D01*
X131187980Y-84225943D01*
X131193576Y-84221565D01*
X131851560Y-83977593D01*
X131860507Y-83977930D01*
G37*
%TD.AperFunction*%
%TD*%
%TA.AperFunction,Conductor*%
%TO.N,/-15V Supply/-17V_SW*%
G36*
X138381158Y-86721227D02*
G01*
X138580017Y-86888792D01*
X138797470Y-87072026D01*
X138801548Y-87079582D01*
X138853359Y-87512240D01*
X138850940Y-87520862D01*
X138843133Y-87525248D01*
X138842040Y-87525327D01*
X137900000Y-87549361D01*
X137900000Y-87549362D01*
X137875000Y-87550000D01*
X137875000Y-87050000D01*
X138367113Y-86720452D01*
X138375892Y-86718697D01*
X138381158Y-86721227D01*
G37*
%TD.AperFunction*%
%TD*%
%TA.AperFunction,Conductor*%
%TO.N,+5V*%
G36*
X164408268Y-115859929D02*
G01*
X164408278Y-115859939D01*
X165193127Y-116645769D01*
X165196549Y-116654044D01*
X165194490Y-116660665D01*
X164653487Y-117447579D01*
X164645976Y-117452455D01*
X164643846Y-117452651D01*
X164156154Y-117452651D01*
X164147881Y-117449224D01*
X164146513Y-117447579D01*
X163605508Y-116660663D01*
X163603646Y-116651907D01*
X163606870Y-116645771D01*
X164391722Y-115859938D01*
X164399993Y-115856507D01*
X164408268Y-115859929D01*
G37*
%TD.AperFunction*%
%TD*%
%TA.AperFunction,Conductor*%
%TO.N,Net-(U4-NR)*%
G36*
X156015175Y-105676099D02*
G01*
X156412156Y-105839178D01*
X156418506Y-105845491D01*
X156418532Y-105854446D01*
X156412219Y-105860796D01*
X156412156Y-105860822D01*
X156015175Y-106023900D01*
X156009620Y-106024725D01*
X155760591Y-106001008D01*
X155752680Y-105996813D01*
X155750000Y-105989361D01*
X155750000Y-105710638D01*
X155753427Y-105702365D01*
X155760590Y-105698991D01*
X156009621Y-105675274D01*
X156015175Y-105676099D01*
G37*
%TD.AperFunction*%
%TD*%
M02*
