%TF.GenerationSoftware,KiCad,Pcbnew,8.0.5*%
%TF.CreationDate,2025-01-02T11:16:24+01:00*%
%TF.ProjectId,BluetoothReceiver,426c7565-746f-46f7-9468-526563656976,rev?*%
%TF.SameCoordinates,Original*%
%TF.FileFunction,Soldermask,Bot*%
%TF.FilePolarity,Negative*%
%FSLAX46Y46*%
G04 Gerber Fmt 4.6, Leading zero omitted, Abs format (unit mm)*
G04 Created by KiCad (PCBNEW 8.0.5) date 2025-01-02 11:16:24*
%MOMM*%
%LPD*%
G01*
G04 APERTURE LIST*
G04 Aperture macros list*
%AMRoundRect*
0 Rectangle with rounded corners*
0 $1 Rounding radius*
0 $2 $3 $4 $5 $6 $7 $8 $9 X,Y pos of 4 corners*
0 Add a 4 corners polygon primitive as box body*
4,1,4,$2,$3,$4,$5,$6,$7,$8,$9,$2,$3,0*
0 Add four circle primitives for the rounded corners*
1,1,$1+$1,$2,$3*
1,1,$1+$1,$4,$5*
1,1,$1+$1,$6,$7*
1,1,$1+$1,$8,$9*
0 Add four rect primitives between the rounded corners*
20,1,$1+$1,$2,$3,$4,$5,0*
20,1,$1+$1,$4,$5,$6,$7,0*
20,1,$1+$1,$6,$7,$8,$9,0*
20,1,$1+$1,$8,$9,$2,$3,0*%
G04 Aperture macros list end*
%ADD10C,0.200000*%
%ADD11C,0.000000*%
%ADD12C,1.000000*%
%ADD13RoundRect,0.200000X0.275000X-0.200000X0.275000X0.200000X-0.275000X0.200000X-0.275000X-0.200000X0*%
G04 APERTURE END LIST*
D10*
%TO.C,REF\u002A\u002A*%
X136200000Y-86200000D02*
X136200000Y-91000000D01*
X135400000Y-91800000D01*
X127000000Y-91800000D01*
X126200000Y-91000000D01*
X126200000Y-86200000D01*
X127000000Y-85400000D01*
X135400000Y-85400000D01*
X136200000Y-86200000D01*
D11*
G36*
X135400000Y-87000000D02*
G01*
X133000000Y-87000000D01*
X132600000Y-87400000D01*
X132600000Y-87800000D01*
X133000000Y-88200000D01*
X131800000Y-88200000D01*
X131800000Y-86600000D01*
X132200000Y-86200000D01*
X135400000Y-86200000D01*
X135400000Y-87000000D01*
G37*
G36*
X135400000Y-91000000D02*
G01*
X132200000Y-91000000D01*
X131800000Y-90600000D01*
X131800000Y-89400000D01*
X132600000Y-89400000D01*
X132600000Y-89800000D01*
X133000000Y-90200000D01*
X134600000Y-90200000D01*
X134600000Y-89000000D01*
X133000000Y-89000000D01*
X132600000Y-89400000D01*
X131800000Y-89400000D01*
X131800000Y-89000000D01*
X132200000Y-88600000D01*
X131800000Y-88200000D01*
X134600000Y-88200000D01*
X134600000Y-87000000D01*
X135400000Y-87000000D01*
X135400000Y-91000000D01*
G37*
G36*
X127800000Y-89400000D02*
G01*
X128200000Y-89800000D01*
X128600000Y-89400000D01*
X128600000Y-86600000D01*
X129000000Y-86200000D01*
X129400000Y-86600000D01*
X129400000Y-89400000D01*
X129800000Y-89800000D01*
X130200000Y-89400000D01*
X130200000Y-86200000D01*
X130600000Y-86200000D01*
X131000000Y-86600000D01*
X131000000Y-90600000D01*
X130600000Y-91000000D01*
X129400000Y-91000000D01*
X129000000Y-90600000D01*
X128600000Y-91000000D01*
X127400000Y-91000000D01*
X127000000Y-90600000D01*
X127000000Y-86600000D01*
X127400000Y-86200000D01*
X127800000Y-86200000D01*
X127800000Y-89400000D01*
G37*
%TD*%
D12*
%TO.C,TP10*%
X133700000Y-108900000D03*
%TD*%
%TO.C,TP9*%
X136700000Y-108900000D03*
%TD*%
%TO.C,TP8*%
X139700000Y-108900000D03*
%TD*%
%TO.C,TP7*%
X135200000Y-107000000D03*
%TD*%
%TO.C,TP5*%
X138200000Y-107000000D03*
%TD*%
%TO.C,TP3*%
X148900000Y-111300000D03*
%TD*%
%TO.C,TP2*%
X146800000Y-109700000D03*
%TD*%
%TO.C,TP1*%
X146800000Y-113000000D03*
%TD*%
D13*
%TO.C,R1*%
X162300000Y-102625000D03*
X162300000Y-100975000D03*
%TD*%
M02*
