M48
; DRILL file {KiCad 8.0.5} date 2025-01-02T11:16:24+0100
; FORMAT={-:-/ absolute / inch / decimal}
; #@! TF.CreationDate,2025-01-02T11:16:24+01:00
; #@! TF.GenerationSoftware,Kicad,Pcbnew,8.0.5
; #@! TF.FileFunction,Plated,1,4,PTH
FMAT,2
INCH
; #@! TA.AperFunction,Plated,PTH,ViaDrill
T1C0.0118
; #@! TA.AperFunction,Plated,PTH,ComponentDrill
T2C0.0118
%
G90
G05
T1
X4.8346Y-3.9921
X4.8346Y-4.0866
X4.8661Y-3.9921
X4.8661Y-4.0866
X4.8711Y-3.689
X4.8898Y-3.7598
X4.8976Y-4.0394
X4.9016Y-3.8031
X4.9016Y-3.8425
X4.9016Y-3.8819
X4.9016Y-3.9213
X4.9016Y-3.9606
X4.9016Y-4.0
X4.9094Y-4.0787
X4.9291Y-3.6299
X4.9488Y-4.0787
X4.9567Y-3.8031
X4.9567Y-3.8425
X4.9567Y-3.8819
X4.9567Y-3.9213
X4.9567Y-3.9606
X4.9567Y-4.0
X4.9606Y-4.0394
X4.9685Y-3.7598
X4.9764Y-4.5315
X4.9764Y-4.5709
X4.9764Y-4.6102
X4.9764Y-4.6496
X4.9872Y-3.689
X5.0354Y-3.8465
X5.0866Y-4.4256
X5.1181Y-3.7087
X5.1181Y-3.9961
X5.1181Y-4.0866
X5.1181Y-4.4362
X5.1457Y-4.3031
X5.1496Y-4.4429
X5.1811Y-4.4476
X5.185Y-3.9213
X5.2087Y-4.5866
X5.2126Y-4.4594
X5.2323Y-3.9528
X5.2638Y-3.8425
X5.2689Y-3.6843
X5.2705Y-3.9882
X5.2835Y-4.689
X5.3189Y-3.2165
X5.3268Y-4.6102
X5.3386Y-4.4567
X5.3583Y-3.2677
X5.3622Y-3.7638
X5.3701Y-4.5461
X5.3906Y-3.8165
X5.3937Y-3.3465
X5.3937Y-3.9724
X5.3937Y-4.563
X5.4252Y-4.6142
X5.4331Y-4.0866
X5.4398Y-3.6335
X5.4606Y-4.6535
X5.4646Y-3.9921
X5.4764Y-3.3465
X5.5276Y-4.4567
X5.5276Y-4.5512
X5.5315Y-3.3465
X5.5575Y-3.6374
X5.5591Y-4.4567
X5.5591Y-4.5512
X5.5787Y-3.9173
X5.5866Y-3.3228
X5.5866Y-3.7087
X5.5906Y-4.0787
X5.6102Y-3.7677
X5.6181Y-4.3031
X5.622Y-4.4606
X5.622Y-4.5512
X5.6463Y-3.8426
X5.6614Y-4.5
X5.665Y-4.0491
X5.7126Y-4.311
X5.7126Y-4.4606
X5.7134Y-4.3661
X5.7134Y-4.3976
X5.7134Y-4.4291
X5.7165Y-3.937
X5.7283Y-3.5472
X5.7307Y-4.2083
X5.7484Y-4.1909
X5.7559Y-3.8268
X5.7638Y-3.9882
X5.7807Y-3.6185
X5.813Y-4.1654
X5.8425Y-3.2165
X5.8524Y-3.6626
X5.8622Y-4.4685
X5.8654Y-4.6437
X5.874Y-3.7126
X5.8819Y-3.2677
X5.8858Y-3.7913
X5.8898Y-4.2598
X5.9114Y-3.8697
X5.9252Y-4.063
X5.9291Y-4.5866
X5.9291Y-4.7008
X5.9803Y-3.8228
X5.9921Y-3.3622
X5.9921Y-4.064
X5.9921Y-4.125
X6.0039Y-4.1811
X6.0039Y-4.4567
X6.0071Y-3.9075
X6.0189Y-3.863
X6.0197Y-3.8374
X6.0232Y-3.8878
X6.0232Y-3.9272
X6.0276Y-3.7992
X6.0394Y-4.2992
X6.0394Y-4.3421
X6.0482Y-3.7559
X6.0591Y-4.5157
X6.063Y-3.6024
X6.0815Y-3.5378
X6.0945Y-3.8622
X6.0945Y-3.9094
X6.0945Y-3.9567
X6.0945Y-4.0039
X6.0945Y-4.0512
X6.0984Y-3.6535
X6.1004Y-4.1268
X6.1024Y-3.3425
X6.1024Y-4.6969
X6.1093Y-3.7559
X6.1201Y-4.1406
X6.122Y-4.3701
X6.1398Y-4.1583
X6.1417Y-3.8622
X6.1417Y-3.9094
X6.1417Y-3.9567
X6.1417Y-4.0039
X6.1417Y-4.0512
X6.189Y-3.8622
X6.189Y-3.9094
X6.189Y-3.9567
X6.189Y-4.0039
X6.189Y-4.0512
X6.1929Y-4.6575
X6.2165Y-3.4764
X6.2313Y-3.7559
X6.2362Y-3.8622
X6.2362Y-3.9094
X6.2362Y-3.9567
X6.2362Y-4.0039
X6.2362Y-4.0512
X6.248Y-4.1457
X6.2677Y-4.6063
X6.2835Y-3.5433
X6.2835Y-3.8622
X6.2835Y-3.9094
X6.2835Y-3.9567
X6.2835Y-4.0039
X6.2835Y-4.0512
X6.2874Y-3.2126
X6.311Y-3.6378
X6.311Y-4.3661
X6.311Y-4.4016
X6.311Y-4.437
X6.3823Y-4.156
X6.3907Y-3.8504
X6.3907Y-3.9764
X6.3907Y-4.0394
X6.3937Y-4.6063
X6.3976Y-3.7283
X6.3991Y-4.1748
X6.4291Y-3.4921
X6.4331Y-4.6575
X6.4518Y-3.8504
X6.4518Y-3.9134
X6.4518Y-3.9764
X6.4606Y-4.0394
X6.4606Y-4.1024
X6.4606Y-4.1654
X6.4843Y-4.3622
X6.4961Y-3.3622
X6.5079Y-3.7795
X6.5354Y-4.3228
X6.5472Y-3.3228
X6.5984Y-4.5315
X6.6024Y-3.3622
T2
X4.8189Y-4.1772
X4.8583Y-4.1772
X4.8976Y-4.1772
X4.937Y-4.1772
X4.9764Y-4.1772
X4.9764Y-4.2165
X4.9764Y-4.2559
X4.9764Y-4.2953
X4.9764Y-4.3346
X4.9764Y-4.374
X4.9764Y-4.4134
X4.9764Y-4.4528
X4.9764Y-4.4921
M30
