%TF.GenerationSoftware,KiCad,Pcbnew,8.0.5*%
%TF.CreationDate,2025-01-02T11:16:24+01:00*%
%TF.ProjectId,BluetoothReceiver,426c7565-746f-46f7-9468-526563656976,rev?*%
%TF.SameCoordinates,Original*%
%TF.FileFunction,Copper,L2,Inr*%
%TF.FilePolarity,Positive*%
%FSLAX46Y46*%
G04 Gerber Fmt 4.6, Leading zero omitted, Abs format (unit mm)*
G04 Created by KiCad (PCBNEW 8.0.5) date 2025-01-02 11:16:24*
%MOMM*%
%LPD*%
G01*
G04 APERTURE LIST*
%TA.AperFunction,ComponentPad*%
%ADD10C,0.450000*%
%TD*%
%TA.AperFunction,ViaPad*%
%ADD11C,0.450000*%
%TD*%
G04 APERTURE END LIST*
D10*
%TO.N,GND*%
%TO.C,A1*%
X126400000Y-114100000D03*
X126400000Y-113100000D03*
X126400000Y-112100000D03*
X126400000Y-111100000D03*
X126400000Y-110100000D03*
X126400000Y-109100000D03*
X126400000Y-108100000D03*
X126400000Y-107100000D03*
X122400000Y-106100000D03*
X123400000Y-106100000D03*
X124400000Y-106100000D03*
X125400000Y-106100000D03*
X126400000Y-106100000D03*
%TD*%
D11*
%TO.N,GND*%
X149600000Y-108200000D03*
X130700000Y-109300000D03*
X132300000Y-116500000D03*
X135300000Y-117100000D03*
X134200000Y-119100000D03*
X148900000Y-113500000D03*
X147650000Y-105800000D03*
X150500000Y-103200000D03*
X152500000Y-113200000D03*
X155000000Y-119300000D03*
X153900000Y-114700000D03*
X153400000Y-109200000D03*
X157300000Y-118300000D03*
X167600000Y-115100000D03*
X158700000Y-105300000D03*
X165300000Y-96000000D03*
X162500000Y-94700000D03*
X145200000Y-100000000D03*
X149500000Y-96300000D03*
X160300000Y-92400000D03*
X153100000Y-96500000D03*
X159700000Y-81600000D03*
X152200000Y-85400000D03*
X155000000Y-84900000D03*
X163300000Y-88700000D03*
X159600000Y-90000000D03*
X154900000Y-92800000D03*
X149200000Y-94300000D03*
X146200000Y-97200000D03*
X141700000Y-99500000D03*
X157900000Y-88300000D03*
X154000000Y-91500000D03*
X148650000Y-93030000D03*
X143415419Y-97601286D03*
X154470000Y-89860000D03*
X145500000Y-90100000D03*
X146830000Y-91910000D03*
X142500000Y-95700000D03*
X136920000Y-96940000D03*
X133870000Y-101300000D03*
X141900000Y-94200000D03*
X136200000Y-95600000D03*
X133700000Y-97600000D03*
X131700000Y-99600000D03*
X130000000Y-94200000D03*
X127900000Y-97700000D03*
X141900000Y-84400000D03*
X159200000Y-117000000D03*
X140500000Y-85000000D03*
X139100000Y-85000000D03*
X137000000Y-85000000D03*
X141160000Y-92390000D03*
X138170000Y-92290000D03*
X133830000Y-93580000D03*
X146400000Y-101300000D03*
X159600000Y-102900000D03*
X158400000Y-102900000D03*
X159600000Y-101700000D03*
X158400000Y-101700000D03*
X158400000Y-98100000D03*
X159600000Y-98100000D03*
X159600000Y-99300000D03*
X158400000Y-99300000D03*
X156000000Y-98100000D03*
X154800000Y-98100000D03*
X154800000Y-99300000D03*
X156000000Y-99300000D03*
X154800000Y-101700000D03*
X154800000Y-102900000D03*
X156000000Y-102900000D03*
X156000000Y-101700000D03*
X156000000Y-100500000D03*
X154800000Y-100500000D03*
X158400000Y-100500000D03*
X159600000Y-100500000D03*
X157200000Y-101700000D03*
X157200000Y-102900000D03*
X157200000Y-99300000D03*
X157200000Y-98100000D03*
X157200000Y-100500000D03*
X155500000Y-111000000D03*
X152500000Y-106200000D03*
X152200000Y-103225000D03*
X155175000Y-95400000D03*
X158275000Y-95400000D03*
X163875000Y-97800000D03*
X163875000Y-99400000D03*
X163875000Y-101000000D03*
X164100000Y-102600000D03*
X164100000Y-104200000D03*
X164100000Y-105800000D03*
X166000000Y-109800000D03*
X164700000Y-110800000D03*
X160300000Y-112700000D03*
X160300000Y-110900000D03*
X160300000Y-111800000D03*
X163400000Y-118300000D03*
X162400000Y-117000000D03*
X150600000Y-119400000D03*
X150600000Y-116500000D03*
X138700000Y-118200000D03*
X137800000Y-117200000D03*
X137000000Y-115900000D03*
X135600000Y-113200000D03*
X141200000Y-115600000D03*
X140400000Y-115600000D03*
X140400000Y-113200000D03*
X141200000Y-113200000D03*
X143800000Y-114300000D03*
X142800000Y-115600000D03*
X145100000Y-113300000D03*
X142800000Y-113300000D03*
X145100000Y-109500000D03*
X142700000Y-109300000D03*
X143891773Y-102846530D03*
X138000000Y-103800000D03*
X138800000Y-101400000D03*
X130000000Y-103800000D03*
X130000000Y-101500000D03*
X125700000Y-103600000D03*
X124700000Y-103600000D03*
X123600000Y-103800000D03*
X122800000Y-103800000D03*
X123600000Y-101400000D03*
X122800000Y-101400000D03*
X125200000Y-92200000D03*
X123725000Y-93700000D03*
X126675000Y-93700000D03*
X126200000Y-95500000D03*
X124200000Y-95500000D03*
X167700000Y-85400000D03*
X166300000Y-84400000D03*
X165000000Y-85400000D03*
X149400000Y-83000000D03*
X148400000Y-81700000D03*
X135100000Y-81700000D03*
X136100000Y-83000000D03*
%TO.N,+3.3V*%
X153400000Y-110290000D03*
%TO.N,Net-(J2-Pin_5)*%
X148980000Y-117950000D03*
%TO.N,+3.3V*%
X146010000Y-106450000D03*
X145560000Y-106890000D03*
X152200000Y-104775000D03*
X153625000Y-95400000D03*
X162325000Y-97800000D03*
X162537271Y-106038726D03*
X162109512Y-105561611D03*
%TO.N,/BT_SYS_CTRL*%
X151900000Y-97100000D03*
X136400000Y-115470000D03*
%TO.N,/BT_~{RST}*%
X150150000Y-98290000D03*
%TO.N,/PIO32*%
X152900000Y-97470000D03*
%TO.N,/PIO29*%
X152880000Y-98120000D03*
%TO.N,/PIO31*%
X152990000Y-98750000D03*
%TO.N,/PIO26*%
X152580000Y-99250000D03*
%TO.N,/PIO30*%
X152990000Y-99750000D03*
%TO.N,/BT_~{RST}*%
X142000000Y-103600000D03*
%TO.N,/PIO32*%
X129200000Y-112410000D03*
%TO.N,/PIO29*%
X130000000Y-112680000D03*
%TO.N,/PIO31*%
X130800000Y-112850000D03*
%TO.N,/PIO26*%
X131600000Y-112970000D03*
%TO.N,/PIO30*%
X132400000Y-113270000D03*
%TO.N,/PIO3*%
X155950000Y-105620000D03*
%TO.N,/PIO6*%
X155450000Y-105170000D03*
%TO.N,/PIO5*%
X154950000Y-104820000D03*
X145120000Y-110900000D03*
%TO.N,/PIO6*%
X145120000Y-111700000D03*
%TO.N,/PIO3*%
X145120000Y-112500000D03*
%TO.N,+3.3V*%
X162325000Y-102600000D03*
%TO.N,Net-(J2-Pin_5)*%
X162325000Y-101000000D03*
%TO.N,GND*%
X124500000Y-96600000D03*
X124500000Y-97600000D03*
X124500000Y-98600000D03*
X124500000Y-99600000D03*
X124500000Y-100600000D03*
X124500000Y-101600000D03*
X125900000Y-96600000D03*
X125900000Y-97600000D03*
X125900000Y-98600000D03*
X125900000Y-99600000D03*
X125900000Y-100600000D03*
X125900000Y-101600000D03*
X126000000Y-102600000D03*
X124400000Y-102600000D03*
X137000000Y-100900000D03*
X132900000Y-100400000D03*
X126400000Y-118100000D03*
X126400000Y-117100000D03*
X126400000Y-116100000D03*
X126400000Y-115100000D03*
%TD*%
%TA.AperFunction,Conductor*%
%TO.N,GND*%
G36*
X127796521Y-80222174D02*
G01*
X127817506Y-80264424D01*
X127835833Y-80397766D01*
X127902404Y-80635360D01*
X127907825Y-80654709D01*
X128014133Y-80899454D01*
X128014136Y-80899459D01*
X128014137Y-80899461D01*
X128014139Y-80899465D01*
X128152770Y-81127434D01*
X128152772Y-81127437D01*
X128152776Y-81127443D01*
X128321173Y-81334431D01*
X128516186Y-81516561D01*
X128556712Y-81545167D01*
X128734179Y-81670437D01*
X128734183Y-81670439D01*
X128971103Y-81793201D01*
X128971106Y-81793202D01*
X128971108Y-81793203D01*
X129222522Y-81882556D01*
X129222529Y-81882557D01*
X129222532Y-81882559D01*
X129222535Y-81882559D01*
X129222540Y-81882561D01*
X129483774Y-81936846D01*
X129483781Y-81936847D01*
X129483786Y-81936848D01*
X129483789Y-81936848D01*
X129483795Y-81936849D01*
X129749993Y-81955058D01*
X129750000Y-81955058D01*
X129750007Y-81955058D01*
X130016204Y-81936849D01*
X130016208Y-81936848D01*
X130016214Y-81936848D01*
X130016220Y-81936846D01*
X130016225Y-81936846D01*
X130277459Y-81882561D01*
X130277460Y-81882560D01*
X130277468Y-81882559D01*
X130277474Y-81882556D01*
X130277477Y-81882556D01*
X130428325Y-81828944D01*
X130528897Y-81793201D01*
X130765817Y-81670439D01*
X130983814Y-81516561D01*
X131178827Y-81334431D01*
X131347224Y-81127443D01*
X131485867Y-80899454D01*
X131592175Y-80654709D01*
X131664166Y-80397768D01*
X131682279Y-80265987D01*
X131682494Y-80264424D01*
X131711092Y-80215536D01*
X131755805Y-80200500D01*
X168145463Y-80200500D01*
X168197789Y-80222174D01*
X168218830Y-80264841D01*
X168230305Y-80352006D01*
X168291393Y-80579991D01*
X168381714Y-80798045D01*
X168381715Y-80798048D01*
X168499724Y-81002446D01*
X168499728Y-81002452D01*
X168643408Y-81189699D01*
X168810300Y-81356591D01*
X168997547Y-81500271D01*
X168997553Y-81500275D01*
X169201951Y-81618284D01*
X169420007Y-81708606D01*
X169647986Y-81769693D01*
X169647992Y-81769693D01*
X169647993Y-81769694D01*
X169666134Y-81772082D01*
X169735158Y-81781169D01*
X169784208Y-81809487D01*
X169799500Y-81854536D01*
X169799500Y-118145462D01*
X169777826Y-118197788D01*
X169735160Y-118218829D01*
X169647992Y-118230306D01*
X169647990Y-118230306D01*
X169647986Y-118230307D01*
X169544580Y-118258014D01*
X169420008Y-118291393D01*
X169201954Y-118381714D01*
X169201951Y-118381715D01*
X168997553Y-118499724D01*
X168997547Y-118499728D01*
X168810300Y-118643408D01*
X168643408Y-118810300D01*
X168499728Y-118997547D01*
X168499724Y-118997553D01*
X168381715Y-119201951D01*
X168381714Y-119201954D01*
X168291393Y-119420008D01*
X168230305Y-119647993D01*
X168218830Y-119735159D01*
X168190511Y-119784208D01*
X168145463Y-119799500D01*
X131755805Y-119799500D01*
X131703479Y-119777826D01*
X131682494Y-119735576D01*
X131664166Y-119602233D01*
X131647648Y-119543277D01*
X131592175Y-119345291D01*
X131485867Y-119100546D01*
X131391929Y-118946072D01*
X131347229Y-118872565D01*
X131347228Y-118872564D01*
X131347224Y-118872557D01*
X131178827Y-118665569D01*
X130983814Y-118483439D01*
X130943288Y-118454833D01*
X130765820Y-118329562D01*
X130528891Y-118206796D01*
X130277477Y-118117443D01*
X130277459Y-118117438D01*
X130016225Y-118063153D01*
X130016204Y-118063150D01*
X129750007Y-118044942D01*
X129749993Y-118044942D01*
X129483795Y-118063150D01*
X129483774Y-118063153D01*
X129222540Y-118117438D01*
X129222522Y-118117443D01*
X128971108Y-118206796D01*
X128734179Y-118329562D01*
X128516188Y-118483437D01*
X128344902Y-118643408D01*
X128321173Y-118665569D01*
X128221119Y-118788552D01*
X128152776Y-118872557D01*
X128152770Y-118872565D01*
X128014139Y-119100534D01*
X128014137Y-119100538D01*
X128014134Y-119100542D01*
X128014133Y-119100546D01*
X127970085Y-119201954D01*
X127907824Y-119345292D01*
X127835833Y-119602233D01*
X127817506Y-119735576D01*
X127788908Y-119784464D01*
X127744195Y-119799500D01*
X126214000Y-119799500D01*
X126161674Y-119777826D01*
X126140000Y-119725500D01*
X126140000Y-117950000D01*
X148549196Y-117950000D01*
X148570280Y-118083126D01*
X148628704Y-118197788D01*
X148631472Y-118203220D01*
X148726780Y-118298528D01*
X148846873Y-118359718D01*
X148846873Y-118359719D01*
X148865075Y-118362601D01*
X148980000Y-118380804D01*
X149113126Y-118359719D01*
X149233220Y-118298528D01*
X149328528Y-118203220D01*
X149389719Y-118083126D01*
X149410804Y-117950000D01*
X149389719Y-117816874D01*
X149389719Y-117816873D01*
X149328528Y-117696780D01*
X149233219Y-117601471D01*
X149113126Y-117540281D01*
X149113126Y-117540280D01*
X148980000Y-117519196D01*
X148846873Y-117540280D01*
X148846873Y-117540281D01*
X148726780Y-117601471D01*
X148631471Y-117696780D01*
X148570281Y-117816873D01*
X148570280Y-117816873D01*
X148549196Y-117950000D01*
X126140000Y-117950000D01*
X126140000Y-115470000D01*
X135969196Y-115470000D01*
X135990280Y-115603126D01*
X136051471Y-115723219D01*
X136051472Y-115723220D01*
X136146780Y-115818528D01*
X136266873Y-115879718D01*
X136266873Y-115879719D01*
X136285075Y-115882601D01*
X136400000Y-115900804D01*
X136533126Y-115879719D01*
X136653220Y-115818528D01*
X136748528Y-115723220D01*
X136809719Y-115603126D01*
X136830804Y-115470000D01*
X136809719Y-115336874D01*
X136809719Y-115336873D01*
X136748528Y-115216780D01*
X136653219Y-115121471D01*
X136533126Y-115060281D01*
X136533126Y-115060280D01*
X136400000Y-115039196D01*
X136266873Y-115060280D01*
X136266873Y-115060281D01*
X136146780Y-115121471D01*
X136051471Y-115216780D01*
X135990281Y-115336873D01*
X135990280Y-115336873D01*
X135969196Y-115470000D01*
X126140000Y-115470000D01*
X126140000Y-112410000D01*
X128769196Y-112410000D01*
X128790280Y-112543126D01*
X128851471Y-112663219D01*
X128851472Y-112663220D01*
X128946780Y-112758528D01*
X129066873Y-112819718D01*
X129066873Y-112819719D01*
X129085075Y-112822601D01*
X129200000Y-112840804D01*
X129333126Y-112819719D01*
X129453220Y-112758528D01*
X129461379Y-112750368D01*
X129513703Y-112728693D01*
X129566030Y-112750365D01*
X129586795Y-112791117D01*
X129590280Y-112813125D01*
X129590281Y-112813126D01*
X129645486Y-112921473D01*
X129651472Y-112933220D01*
X129746780Y-113028528D01*
X129866873Y-113089718D01*
X129866873Y-113089719D01*
X129885075Y-113092601D01*
X130000000Y-113110804D01*
X130133126Y-113089719D01*
X130253220Y-113028528D01*
X130287322Y-112994425D01*
X130339647Y-112972751D01*
X130391973Y-112994424D01*
X130405582Y-113013156D01*
X130448169Y-113096739D01*
X130451472Y-113103220D01*
X130546780Y-113198528D01*
X130666873Y-113259718D01*
X130666873Y-113259719D01*
X130685075Y-113262601D01*
X130800000Y-113280804D01*
X130933126Y-113259719D01*
X131053220Y-113198528D01*
X131104199Y-113147549D01*
X131156524Y-113125874D01*
X131208850Y-113147548D01*
X131222459Y-113166279D01*
X131238890Y-113198528D01*
X131251472Y-113223220D01*
X131346780Y-113318528D01*
X131466873Y-113379718D01*
X131466873Y-113379719D01*
X131485075Y-113382601D01*
X131600000Y-113400804D01*
X131733126Y-113379719D01*
X131853220Y-113318528D01*
X131857276Y-113314471D01*
X131909599Y-113292795D01*
X131961927Y-113314466D01*
X131982693Y-113355219D01*
X131990280Y-113403125D01*
X131990281Y-113403126D01*
X132051472Y-113523220D01*
X132146780Y-113618528D01*
X132266873Y-113679718D01*
X132266873Y-113679719D01*
X132285075Y-113682601D01*
X132400000Y-113700804D01*
X132533126Y-113679719D01*
X132653220Y-113618528D01*
X132748528Y-113523220D01*
X132809719Y-113403126D01*
X132830804Y-113270000D01*
X132811410Y-113147548D01*
X132809719Y-113136873D01*
X132748528Y-113016780D01*
X132653219Y-112921471D01*
X132533126Y-112860281D01*
X132533126Y-112860280D01*
X132400000Y-112839196D01*
X132266873Y-112860280D01*
X132266873Y-112860281D01*
X132146780Y-112921471D01*
X132146777Y-112921473D01*
X132142718Y-112925533D01*
X132090390Y-112947204D01*
X132038066Y-112925527D01*
X132017306Y-112884779D01*
X132009719Y-112836874D01*
X132009718Y-112836873D01*
X132000977Y-112819718D01*
X131948528Y-112716780D01*
X131853220Y-112621472D01*
X131853219Y-112621471D01*
X131733126Y-112560281D01*
X131733126Y-112560280D01*
X131600000Y-112539196D01*
X131466873Y-112560280D01*
X131466873Y-112560281D01*
X131346780Y-112621471D01*
X131346775Y-112621475D01*
X131295799Y-112672451D01*
X131243473Y-112694125D01*
X131191148Y-112672450D01*
X131177543Y-112653726D01*
X131148528Y-112596780D01*
X131053220Y-112501472D01*
X131053219Y-112501471D01*
X130933126Y-112440281D01*
X130933126Y-112440280D01*
X130800000Y-112419196D01*
X130666873Y-112440280D01*
X130666873Y-112440281D01*
X130546780Y-112501471D01*
X130512677Y-112535574D01*
X130460351Y-112557247D01*
X130408025Y-112535572D01*
X130394418Y-112516843D01*
X130377524Y-112483689D01*
X130348528Y-112426780D01*
X130253220Y-112331472D01*
X130253219Y-112331471D01*
X130133126Y-112270281D01*
X130133126Y-112270280D01*
X130000000Y-112249196D01*
X129866873Y-112270280D01*
X129866873Y-112270281D01*
X129746780Y-112331471D01*
X129738617Y-112339634D01*
X129686290Y-112361306D01*
X129633965Y-112339630D01*
X129613204Y-112298880D01*
X129609719Y-112276874D01*
X129609718Y-112276873D01*
X129606359Y-112270281D01*
X129548528Y-112156780D01*
X129453220Y-112061472D01*
X129453219Y-112061471D01*
X129333126Y-112000281D01*
X129333126Y-112000280D01*
X129200000Y-111979196D01*
X129066873Y-112000280D01*
X129066873Y-112000281D01*
X128946780Y-112061471D01*
X128851471Y-112156780D01*
X128790281Y-112276873D01*
X128790280Y-112276873D01*
X128769196Y-112410000D01*
X126140000Y-112410000D01*
X126140000Y-110900000D01*
X144689196Y-110900000D01*
X144710280Y-111033126D01*
X144771471Y-111153219D01*
X144865926Y-111247674D01*
X144887600Y-111300000D01*
X144865926Y-111352326D01*
X144771472Y-111446779D01*
X144771471Y-111446780D01*
X144710281Y-111566873D01*
X144710280Y-111566873D01*
X144689196Y-111700000D01*
X144710280Y-111833126D01*
X144771471Y-111953219D01*
X144865926Y-112047674D01*
X144887600Y-112100000D01*
X144865926Y-112152326D01*
X144771472Y-112246779D01*
X144771471Y-112246780D01*
X144710281Y-112366873D01*
X144710280Y-112366873D01*
X144689196Y-112500000D01*
X144710280Y-112633126D01*
X144770017Y-112750365D01*
X144771472Y-112753220D01*
X144866780Y-112848528D01*
X144986873Y-112909718D01*
X144986873Y-112909719D01*
X145005075Y-112912601D01*
X145120000Y-112930804D01*
X145253126Y-112909719D01*
X145373220Y-112848528D01*
X145468528Y-112753220D01*
X145529719Y-112633126D01*
X145550804Y-112500000D01*
X145529719Y-112366874D01*
X145529719Y-112366873D01*
X145468528Y-112246780D01*
X145374074Y-112152326D01*
X145352400Y-112100000D01*
X145374074Y-112047674D01*
X145468528Y-111953220D01*
X145529719Y-111833126D01*
X145550804Y-111700000D01*
X145529719Y-111566874D01*
X145529719Y-111566873D01*
X145468528Y-111446780D01*
X145374074Y-111352326D01*
X145352400Y-111300000D01*
X145374074Y-111247674D01*
X145468528Y-111153220D01*
X145529719Y-111033126D01*
X145550804Y-110900000D01*
X145529719Y-110766874D01*
X145529719Y-110766873D01*
X145468528Y-110646780D01*
X145373219Y-110551471D01*
X145253126Y-110490281D01*
X145253126Y-110490280D01*
X145120000Y-110469196D01*
X144986873Y-110490280D01*
X144986873Y-110490281D01*
X144866780Y-110551471D01*
X144771471Y-110646780D01*
X144710281Y-110766873D01*
X144710280Y-110766873D01*
X144689196Y-110900000D01*
X126140000Y-110900000D01*
X126140000Y-110290000D01*
X152969196Y-110290000D01*
X152990280Y-110423126D01*
X153051471Y-110543219D01*
X153051472Y-110543220D01*
X153146780Y-110638528D01*
X153266873Y-110699718D01*
X153266873Y-110699719D01*
X153285075Y-110702601D01*
X153400000Y-110720804D01*
X153533126Y-110699719D01*
X153653220Y-110638528D01*
X153748528Y-110543220D01*
X153809719Y-110423126D01*
X153830804Y-110290000D01*
X153809719Y-110156874D01*
X153809719Y-110156873D01*
X153748528Y-110036780D01*
X153653219Y-109941471D01*
X153533126Y-109880281D01*
X153533126Y-109880280D01*
X153400000Y-109859196D01*
X153266873Y-109880280D01*
X153266873Y-109880281D01*
X153146780Y-109941471D01*
X153051471Y-110036780D01*
X152990281Y-110156873D01*
X152990280Y-110156873D01*
X152969196Y-110290000D01*
X126140000Y-110290000D01*
X126140000Y-106890000D01*
X145129196Y-106890000D01*
X145150280Y-107023126D01*
X145211471Y-107143219D01*
X145211472Y-107143220D01*
X145306780Y-107238528D01*
X145426873Y-107299718D01*
X145426873Y-107299719D01*
X145445075Y-107302601D01*
X145560000Y-107320804D01*
X145693126Y-107299719D01*
X145813220Y-107238528D01*
X145908528Y-107143220D01*
X145969719Y-107023126D01*
X145983393Y-106936786D01*
X146012985Y-106888497D01*
X146044904Y-106875275D01*
X146143126Y-106859719D01*
X146263220Y-106798528D01*
X146358528Y-106703220D01*
X146419719Y-106583126D01*
X146440804Y-106450000D01*
X146419719Y-106316874D01*
X146419719Y-106316873D01*
X146358528Y-106196780D01*
X146263219Y-106101471D01*
X146143126Y-106040281D01*
X146143126Y-106040280D01*
X146010000Y-106019196D01*
X145876873Y-106040280D01*
X145876873Y-106040281D01*
X145756780Y-106101471D01*
X145661471Y-106196780D01*
X145600281Y-106316873D01*
X145586606Y-106403212D01*
X145557013Y-106451503D01*
X145525094Y-106464724D01*
X145426873Y-106480281D01*
X145306780Y-106541471D01*
X145211471Y-106636780D01*
X145150281Y-106756873D01*
X145150280Y-106756873D01*
X145129196Y-106890000D01*
X126140000Y-106890000D01*
X126140000Y-106400000D01*
X121874500Y-106400000D01*
X121822174Y-106378326D01*
X121800500Y-106326000D01*
X121800500Y-104775000D01*
X151769196Y-104775000D01*
X151790280Y-104908126D01*
X151851471Y-105028219D01*
X151851472Y-105028220D01*
X151946780Y-105123528D01*
X152066873Y-105184718D01*
X152066873Y-105184719D01*
X152085075Y-105187601D01*
X152200000Y-105205804D01*
X152333126Y-105184719D01*
X152453220Y-105123528D01*
X152548528Y-105028220D01*
X152609719Y-104908126D01*
X152623677Y-104820000D01*
X154519196Y-104820000D01*
X154540280Y-104953126D01*
X154601471Y-105073219D01*
X154601472Y-105073220D01*
X154696780Y-105168528D01*
X154816873Y-105229718D01*
X154816873Y-105229719D01*
X154950000Y-105250804D01*
X154950002Y-105250804D01*
X154957267Y-105249653D01*
X155012340Y-105262872D01*
X155039223Y-105299869D01*
X155040282Y-105303129D01*
X155072714Y-105366780D01*
X155101472Y-105423220D01*
X155196780Y-105518528D01*
X155316873Y-105579718D01*
X155316873Y-105579719D01*
X155450000Y-105600804D01*
X155452954Y-105600804D01*
X155454782Y-105601561D01*
X155455752Y-105601715D01*
X155455715Y-105601947D01*
X155505280Y-105622478D01*
X155526042Y-105663226D01*
X155540281Y-105753126D01*
X155601472Y-105873220D01*
X155696780Y-105968528D01*
X155816873Y-106029718D01*
X155816873Y-106029719D01*
X155835075Y-106032601D01*
X155950000Y-106050804D01*
X156083126Y-106029719D01*
X156203220Y-105968528D01*
X156298528Y-105873220D01*
X156359719Y-105753126D01*
X156380804Y-105620000D01*
X156371556Y-105561611D01*
X161678708Y-105561611D01*
X161699792Y-105694737D01*
X161746042Y-105785506D01*
X161760984Y-105814831D01*
X161856292Y-105910139D01*
X161976385Y-105971329D01*
X161976385Y-105971330D01*
X162045762Y-105982318D01*
X162094053Y-106011911D01*
X162107275Y-106043831D01*
X162127551Y-106171851D01*
X162127552Y-106171852D01*
X162188743Y-106291946D01*
X162284051Y-106387254D01*
X162404144Y-106448444D01*
X162404144Y-106448445D01*
X162422346Y-106451327D01*
X162537271Y-106469530D01*
X162670397Y-106448445D01*
X162790491Y-106387254D01*
X162885799Y-106291946D01*
X162946990Y-106171852D01*
X162968075Y-106038726D01*
X162946990Y-105905600D01*
X162946990Y-105905599D01*
X162885799Y-105785506D01*
X162790490Y-105690197D01*
X162670397Y-105629007D01*
X162629174Y-105622478D01*
X162601019Y-105618018D01*
X162552729Y-105588426D01*
X162539507Y-105556506D01*
X162533492Y-105518528D01*
X162519231Y-105428485D01*
X162458040Y-105308391D01*
X162362732Y-105213083D01*
X162362731Y-105213082D01*
X162242638Y-105151892D01*
X162242638Y-105151891D01*
X162109512Y-105130807D01*
X161976385Y-105151891D01*
X161976385Y-105151892D01*
X161856292Y-105213082D01*
X161760983Y-105308391D01*
X161699793Y-105428484D01*
X161699792Y-105428484D01*
X161678708Y-105561611D01*
X156371556Y-105561611D01*
X156359719Y-105486874D01*
X156359719Y-105486873D01*
X156298528Y-105366780D01*
X156203219Y-105271471D01*
X156083126Y-105210281D01*
X156083126Y-105210280D01*
X155950000Y-105189196D01*
X155947046Y-105189196D01*
X155945217Y-105188438D01*
X155944248Y-105188285D01*
X155944284Y-105188052D01*
X155894720Y-105167522D01*
X155873957Y-105126772D01*
X155859719Y-105036874D01*
X155798528Y-104916780D01*
X155703220Y-104821472D01*
X155703219Y-104821471D01*
X155583126Y-104760281D01*
X155583126Y-104760280D01*
X155450000Y-104739196D01*
X155442725Y-104740348D01*
X155387653Y-104727123D01*
X155360772Y-104690118D01*
X155359719Y-104686878D01*
X155359719Y-104686874D01*
X155359716Y-104686870D01*
X155359716Y-104686867D01*
X155336790Y-104641873D01*
X155298528Y-104566780D01*
X155203220Y-104471472D01*
X155203219Y-104471471D01*
X155083126Y-104410281D01*
X155083126Y-104410280D01*
X154950000Y-104389196D01*
X154816873Y-104410280D01*
X154816873Y-104410281D01*
X154696780Y-104471471D01*
X154601471Y-104566780D01*
X154540281Y-104686873D01*
X154540280Y-104686873D01*
X154519196Y-104820000D01*
X152623677Y-104820000D01*
X152630804Y-104775000D01*
X152609719Y-104641874D01*
X152609719Y-104641873D01*
X152548528Y-104521780D01*
X152453219Y-104426471D01*
X152333126Y-104365281D01*
X152333126Y-104365280D01*
X152200000Y-104344196D01*
X152066873Y-104365280D01*
X152066873Y-104365281D01*
X151946780Y-104426471D01*
X151851471Y-104521780D01*
X151790281Y-104641873D01*
X151790280Y-104641873D01*
X151769196Y-104775000D01*
X121800500Y-104775000D01*
X121800500Y-103600000D01*
X141569196Y-103600000D01*
X141590280Y-103733126D01*
X141651471Y-103853219D01*
X141651472Y-103853220D01*
X141746780Y-103948528D01*
X141866873Y-104009718D01*
X141866873Y-104009719D01*
X141885075Y-104012601D01*
X142000000Y-104030804D01*
X142133126Y-104009719D01*
X142253220Y-103948528D01*
X142348528Y-103853220D01*
X142409719Y-103733126D01*
X142430804Y-103600000D01*
X142409719Y-103466874D01*
X142409719Y-103466873D01*
X142348528Y-103346780D01*
X142253219Y-103251471D01*
X142133126Y-103190281D01*
X142133126Y-103190280D01*
X142000000Y-103169196D01*
X141866873Y-103190280D01*
X141866873Y-103190281D01*
X141746780Y-103251471D01*
X141651471Y-103346780D01*
X141590281Y-103466873D01*
X141590280Y-103466873D01*
X141569196Y-103600000D01*
X121800500Y-103600000D01*
X121800500Y-102600000D01*
X161894196Y-102600000D01*
X161915280Y-102733126D01*
X161976471Y-102853219D01*
X161976472Y-102853220D01*
X162071780Y-102948528D01*
X162191873Y-103009718D01*
X162191873Y-103009719D01*
X162210075Y-103012601D01*
X162325000Y-103030804D01*
X162458126Y-103009719D01*
X162578220Y-102948528D01*
X162673528Y-102853220D01*
X162734719Y-102733126D01*
X162755804Y-102600000D01*
X162734719Y-102466874D01*
X162734719Y-102466873D01*
X162673528Y-102346780D01*
X162578219Y-102251471D01*
X162458126Y-102190281D01*
X162458126Y-102190280D01*
X162325000Y-102169196D01*
X162191873Y-102190280D01*
X162191873Y-102190281D01*
X162071780Y-102251471D01*
X161976471Y-102346780D01*
X161915281Y-102466873D01*
X161915280Y-102466873D01*
X161894196Y-102600000D01*
X121800500Y-102600000D01*
X121800500Y-101000000D01*
X161894196Y-101000000D01*
X161915280Y-101133126D01*
X161976471Y-101253219D01*
X161976472Y-101253220D01*
X162071780Y-101348528D01*
X162191873Y-101409718D01*
X162191873Y-101409719D01*
X162210075Y-101412601D01*
X162325000Y-101430804D01*
X162458126Y-101409719D01*
X162578220Y-101348528D01*
X162673528Y-101253220D01*
X162734719Y-101133126D01*
X162755804Y-101000000D01*
X162734719Y-100866874D01*
X162734719Y-100866873D01*
X162673528Y-100746780D01*
X162578219Y-100651471D01*
X162458126Y-100590281D01*
X162458126Y-100590280D01*
X162325000Y-100569196D01*
X162191873Y-100590280D01*
X162191873Y-100590281D01*
X162071780Y-100651471D01*
X161976471Y-100746780D01*
X161915281Y-100866873D01*
X161915280Y-100866873D01*
X161894196Y-101000000D01*
X121800500Y-101000000D01*
X121800500Y-99250000D01*
X152149196Y-99250000D01*
X152170280Y-99383126D01*
X152231471Y-99503219D01*
X152231472Y-99503220D01*
X152326780Y-99598528D01*
X152444584Y-99658552D01*
X152446872Y-99659718D01*
X152446873Y-99659719D01*
X152466384Y-99662809D01*
X152497306Y-99667706D01*
X152545598Y-99697298D01*
X152556857Y-99744177D01*
X152559196Y-99744177D01*
X152559196Y-99749999D01*
X152580280Y-99883126D01*
X152641471Y-100003219D01*
X152641472Y-100003220D01*
X152736780Y-100098528D01*
X152856873Y-100159718D01*
X152856873Y-100159719D01*
X152875075Y-100162601D01*
X152990000Y-100180804D01*
X153123126Y-100159719D01*
X153243220Y-100098528D01*
X153338528Y-100003220D01*
X153399719Y-99883126D01*
X153420804Y-99750000D01*
X153399719Y-99616874D01*
X153399719Y-99616873D01*
X153338528Y-99496780D01*
X153243219Y-99401471D01*
X153123126Y-99340281D01*
X153123125Y-99340280D01*
X153072692Y-99332293D01*
X153024401Y-99302700D01*
X153013147Y-99255824D01*
X153010804Y-99255824D01*
X153010804Y-99244176D01*
X153013150Y-99244176D01*
X153024394Y-99197308D01*
X153072680Y-99167708D01*
X153123126Y-99159719D01*
X153243220Y-99098528D01*
X153338528Y-99003220D01*
X153399719Y-98883126D01*
X153420804Y-98750000D01*
X153399719Y-98616874D01*
X153399719Y-98616873D01*
X153338528Y-98496780D01*
X153261967Y-98420219D01*
X153240293Y-98367893D01*
X153248357Y-98334301D01*
X153289719Y-98253126D01*
X153310804Y-98120000D01*
X153289719Y-97986874D01*
X153289719Y-97986873D01*
X153228528Y-97866780D01*
X153219074Y-97857326D01*
X153197400Y-97805000D01*
X153199471Y-97800000D01*
X161894196Y-97800000D01*
X161915280Y-97933126D01*
X161968095Y-98036780D01*
X161976472Y-98053220D01*
X162071780Y-98148528D01*
X162191873Y-98209718D01*
X162191873Y-98209719D01*
X162210075Y-98212601D01*
X162325000Y-98230804D01*
X162458126Y-98209719D01*
X162578220Y-98148528D01*
X162673528Y-98053220D01*
X162734719Y-97933126D01*
X162755804Y-97800000D01*
X162734719Y-97666874D01*
X162734719Y-97666873D01*
X162673528Y-97546780D01*
X162578219Y-97451471D01*
X162458126Y-97390281D01*
X162458126Y-97390280D01*
X162325000Y-97369196D01*
X162191873Y-97390280D01*
X162191873Y-97390281D01*
X162071780Y-97451471D01*
X161976471Y-97546780D01*
X161915281Y-97666873D01*
X161915280Y-97666873D01*
X161894196Y-97800000D01*
X153199471Y-97800000D01*
X153219074Y-97752674D01*
X153248528Y-97723220D01*
X153309719Y-97603126D01*
X153330804Y-97470000D01*
X153309719Y-97336874D01*
X153309719Y-97336873D01*
X153248528Y-97216780D01*
X153153219Y-97121471D01*
X153033126Y-97060281D01*
X153033126Y-97060280D01*
X152900000Y-97039196D01*
X152766873Y-97060280D01*
X152766873Y-97060281D01*
X152646780Y-97121471D01*
X152551471Y-97216780D01*
X152490281Y-97336873D01*
X152490280Y-97336873D01*
X152469196Y-97470000D01*
X152490280Y-97603126D01*
X152551471Y-97723219D01*
X152560926Y-97732674D01*
X152582600Y-97785000D01*
X152560926Y-97837326D01*
X152531472Y-97866779D01*
X152531471Y-97866780D01*
X152470281Y-97986873D01*
X152470280Y-97986873D01*
X152449196Y-98120000D01*
X152470280Y-98253126D01*
X152531471Y-98373219D01*
X152608032Y-98449780D01*
X152629706Y-98502106D01*
X152621641Y-98535701D01*
X152580280Y-98616876D01*
X152559196Y-98750000D01*
X152559196Y-98755824D01*
X152556854Y-98755824D01*
X152545594Y-98802706D01*
X152497307Y-98832293D01*
X152446874Y-98840280D01*
X152446873Y-98840281D01*
X152326780Y-98901471D01*
X152231471Y-98996780D01*
X152170281Y-99116873D01*
X152170280Y-99116873D01*
X152149196Y-99250000D01*
X121800500Y-99250000D01*
X121800500Y-98290000D01*
X149719196Y-98290000D01*
X149740280Y-98423126D01*
X149801471Y-98543219D01*
X149801472Y-98543220D01*
X149896780Y-98638528D01*
X150016873Y-98699718D01*
X150016873Y-98699719D01*
X150035075Y-98702601D01*
X150150000Y-98720804D01*
X150283126Y-98699719D01*
X150403220Y-98638528D01*
X150498528Y-98543220D01*
X150559719Y-98423126D01*
X150580804Y-98290000D01*
X150559719Y-98156874D01*
X150559719Y-98156873D01*
X150498528Y-98036780D01*
X150403219Y-97941471D01*
X150283126Y-97880281D01*
X150283126Y-97880280D01*
X150150000Y-97859196D01*
X150016873Y-97880280D01*
X150016873Y-97880281D01*
X149896780Y-97941471D01*
X149801471Y-98036780D01*
X149740281Y-98156873D01*
X149740280Y-98156873D01*
X149719196Y-98290000D01*
X121800500Y-98290000D01*
X121800500Y-97100000D01*
X151469196Y-97100000D01*
X151490280Y-97233126D01*
X151543143Y-97336874D01*
X151551472Y-97353220D01*
X151646780Y-97448528D01*
X151766873Y-97509718D01*
X151766873Y-97509719D01*
X151785075Y-97512601D01*
X151900000Y-97530804D01*
X152033126Y-97509719D01*
X152153220Y-97448528D01*
X152248528Y-97353220D01*
X152309719Y-97233126D01*
X152330804Y-97100000D01*
X152309719Y-96966874D01*
X152309719Y-96966873D01*
X152248528Y-96846780D01*
X152153219Y-96751471D01*
X152033126Y-96690281D01*
X152033126Y-96690280D01*
X151900000Y-96669196D01*
X151766873Y-96690280D01*
X151766873Y-96690281D01*
X151646780Y-96751471D01*
X151551471Y-96846780D01*
X151490281Y-96966873D01*
X151490280Y-96966873D01*
X151469196Y-97100000D01*
X121800500Y-97100000D01*
X121800500Y-95400000D01*
X153194196Y-95400000D01*
X153215280Y-95533126D01*
X153276471Y-95653219D01*
X153276472Y-95653220D01*
X153371780Y-95748528D01*
X153491873Y-95809718D01*
X153491873Y-95809719D01*
X153510075Y-95812601D01*
X153625000Y-95830804D01*
X153758126Y-95809719D01*
X153878220Y-95748528D01*
X153973528Y-95653220D01*
X154034719Y-95533126D01*
X154055804Y-95400000D01*
X154034719Y-95266874D01*
X154034719Y-95266873D01*
X153973528Y-95146780D01*
X153878219Y-95051471D01*
X153758126Y-94990281D01*
X153758126Y-94990280D01*
X153625000Y-94969196D01*
X153491873Y-94990280D01*
X153491873Y-94990281D01*
X153371780Y-95051471D01*
X153276471Y-95146780D01*
X153215281Y-95266873D01*
X153215280Y-95266873D01*
X153194196Y-95400000D01*
X121800500Y-95400000D01*
X121800500Y-80505824D01*
X121801411Y-80494248D01*
X121806817Y-80460118D01*
X121813325Y-80419023D01*
X121820479Y-80397007D01*
X121852380Y-80334397D01*
X121865984Y-80315672D01*
X121915672Y-80265984D01*
X121934397Y-80252380D01*
X121997008Y-80220478D01*
X122019023Y-80213325D01*
X122094248Y-80201410D01*
X122105824Y-80200500D01*
X122139882Y-80200500D01*
X127744195Y-80200500D01*
X127796521Y-80222174D01*
G37*
%TD.AperFunction*%
%TD*%
M02*
