%TF.GenerationSoftware,KiCad,Pcbnew,8.0.5*%
%TF.CreationDate,2024-12-13T17:50:09+01:00*%
%TF.ProjectId,BasePower,42617365-506f-4776-9572-2e6b69636164,rev?*%
%TF.SameCoordinates,Original*%
%TF.FileFunction,Copper,L3,Inr*%
%TF.FilePolarity,Positive*%
%FSLAX46Y46*%
G04 Gerber Fmt 4.6, Leading zero omitted, Abs format (unit mm)*
G04 Created by KiCad (PCBNEW 8.0.5) date 2024-12-13 17:50:09*
%MOMM*%
%LPD*%
G01*
G04 APERTURE LIST*
%TA.AperFunction,ComponentPad*%
%ADD10R,1.700000X1.700000*%
%TD*%
%TA.AperFunction,ComponentPad*%
%ADD11O,1.700000X1.700000*%
%TD*%
%TA.AperFunction,ComponentPad*%
%ADD12R,1.600000X1.600000*%
%TD*%
%TA.AperFunction,ComponentPad*%
%ADD13C,1.600000*%
%TD*%
%TA.AperFunction,ComponentPad*%
%ADD14C,1.800000*%
%TD*%
%TA.AperFunction,ViaPad*%
%ADD15C,0.450000*%
%TD*%
G04 APERTURE END LIST*
D10*
%TO.N,Net-(J2-Pin_1)*%
%TO.C,J2*%
X149325000Y-91275000D03*
D11*
%TO.N,GND*%
X149325000Y-88735000D03*
%TO.N,Net-(J2-Pin_1)*%
X151865000Y-91275000D03*
%TO.N,GND*%
X151865000Y-88735000D03*
%TO.N,Net-(J2-Pin_1)*%
X154405000Y-91275000D03*
%TO.N,GND*%
X154405000Y-88735000D03*
%TO.N,Net-(J2-Pin_1)*%
X156945000Y-91275000D03*
%TO.N,GND*%
X156945000Y-88735000D03*
%TO.N,Net-(J2-Pin_1)*%
X159485000Y-91275000D03*
%TO.N,GND*%
X159485000Y-88735000D03*
%TO.N,Net-(J2-Pin_1)*%
X162025000Y-91275000D03*
%TO.N,GND*%
X162025000Y-88735000D03*
%TO.N,Net-(J2-Pin_1)*%
X164565000Y-91275000D03*
%TO.N,GND*%
X164565000Y-88735000D03*
%TO.N,Net-(J2-Pin_1)*%
X167105000Y-91275000D03*
%TO.N,GND*%
X167105000Y-88735000D03*
%TO.N,Net-(J2-Pin_1)*%
X169645000Y-91275000D03*
%TO.N,GND*%
X169645000Y-88735000D03*
%TO.N,Net-(J2-Pin_1)*%
X172185000Y-91275000D03*
%TO.N,GND*%
X172185000Y-88735000D03*
%TO.N,Net-(J2-Pin_1)*%
X174725000Y-91275000D03*
%TO.N,GND*%
X174725000Y-88735000D03*
%TO.N,Net-(J2-Pin_1)*%
X177265000Y-91275000D03*
%TO.N,GND*%
X177265000Y-88735000D03*
%TO.N,Net-(J2-Pin_1)*%
X179805000Y-91275000D03*
%TO.N,GND*%
X179805000Y-88735000D03*
%TO.N,Net-(J2-Pin_1)*%
X182345000Y-91275000D03*
%TO.N,GND*%
X182345000Y-88735000D03*
%TO.N,Net-(J2-Pin_1)*%
X184885000Y-91275000D03*
%TO.N,GND*%
X184885000Y-88735000D03*
%TD*%
D12*
%TO.N,/12V Buck-Boost/VIN*%
%TO.C,C1*%
X122200000Y-83147349D03*
D13*
%TO.N,GND*%
X122200000Y-86647349D03*
%TD*%
D10*
%TO.N,Net-(J3-Pin_1)*%
%TO.C,J3*%
X162025000Y-101275000D03*
D11*
%TO.N,GND*%
X162025000Y-98735000D03*
%TO.N,Net-(J3-Pin_1)*%
X164565000Y-101275000D03*
%TO.N,GND*%
X164565000Y-98735000D03*
%TO.N,Net-(J3-Pin_1)*%
X167105000Y-101275000D03*
%TO.N,GND*%
X167105000Y-98735000D03*
%TO.N,Net-(J3-Pin_1)*%
X169645000Y-101275000D03*
%TO.N,GND*%
X169645000Y-98735000D03*
%TO.N,Net-(J3-Pin_1)*%
X172185000Y-101275000D03*
%TO.N,GND*%
X172185000Y-98735000D03*
%TO.N,Net-(J3-Pin_1)*%
X174725000Y-101275000D03*
%TO.N,GND*%
X174725000Y-98735000D03*
%TO.N,Net-(J3-Pin_1)*%
X177265000Y-101275000D03*
%TO.N,GND*%
X177265000Y-98735000D03*
%TO.N,Net-(J3-Pin_1)*%
X179805000Y-101275000D03*
%TO.N,GND*%
X179805000Y-98735000D03*
%TO.N,Net-(J3-Pin_1)*%
X182345000Y-101275000D03*
%TO.N,GND*%
X182345000Y-98735000D03*
%TO.N,Net-(J3-Pin_1)*%
X184885000Y-101275000D03*
%TO.N,GND*%
X184885000Y-98735000D03*
%TD*%
D14*
%TO.N,/12V Buck-Boost/VIN*%
%TO.C,J1*%
X115430000Y-86750000D03*
%TO.N,GND*%
X115430000Y-89250000D03*
%TD*%
D12*
%TO.N,Net-(U1-ISP)*%
%TO.C,C12*%
X126100000Y-113147349D03*
D13*
%TO.N,GND*%
X126100000Y-116647349D03*
%TD*%
D12*
%TO.N,/12V Buck-Boost/5V*%
%TO.C,C22*%
X147500000Y-97817620D03*
D13*
%TO.N,GND*%
X147500000Y-100317620D03*
%TD*%
D10*
%TO.N,Net-(J4-Pin_1)*%
%TO.C,J4*%
X149325000Y-111275000D03*
D11*
%TO.N,GND*%
X149325000Y-108735000D03*
%TO.N,Net-(J4-Pin_1)*%
X151865000Y-111275000D03*
%TO.N,GND*%
X151865000Y-108735000D03*
%TO.N,Net-(J4-Pin_1)*%
X154405000Y-111275000D03*
%TO.N,GND*%
X154405000Y-108735000D03*
%TO.N,Net-(J4-Pin_1)*%
X156945000Y-111275000D03*
%TO.N,GND*%
X156945000Y-108735000D03*
%TO.N,Net-(J4-Pin_1)*%
X159485000Y-111275000D03*
%TO.N,GND*%
X159485000Y-108735000D03*
%TO.N,Net-(J4-Pin_1)*%
X162025000Y-111275000D03*
%TO.N,GND*%
X162025000Y-108735000D03*
%TO.N,Net-(J4-Pin_1)*%
X164565000Y-111275000D03*
%TO.N,GND*%
X164565000Y-108735000D03*
%TO.N,Net-(J4-Pin_1)*%
X167105000Y-111275000D03*
%TO.N,GND*%
X167105000Y-108735000D03*
%TO.N,Net-(J4-Pin_1)*%
X169645000Y-111275000D03*
%TO.N,GND*%
X169645000Y-108735000D03*
%TO.N,Net-(J4-Pin_1)*%
X172185000Y-111275000D03*
%TO.N,GND*%
X172185000Y-108735000D03*
%TO.N,Net-(J4-Pin_1)*%
X174725000Y-111275000D03*
%TO.N,GND*%
X174725000Y-108735000D03*
%TO.N,Net-(J4-Pin_1)*%
X177265000Y-111275000D03*
%TO.N,GND*%
X177265000Y-108735000D03*
%TO.N,Net-(J4-Pin_1)*%
X179805000Y-111275000D03*
%TO.N,GND*%
X179805000Y-108735000D03*
%TO.N,Net-(J4-Pin_1)*%
X182345000Y-111275000D03*
%TO.N,GND*%
X182345000Y-108735000D03*
%TO.N,Net-(J4-Pin_1)*%
X184885000Y-111275000D03*
%TO.N,GND*%
X184885000Y-108735000D03*
%TD*%
D12*
%TO.N,/3.3V Buck/3.3V*%
%TO.C,C29*%
X143100000Y-85982380D03*
D13*
%TO.N,GND*%
X143100000Y-83482380D03*
%TD*%
D15*
%TO.N,GND*%
X137200000Y-83200000D03*
X140800000Y-92900000D03*
X117300000Y-109600000D03*
X136200000Y-98800000D03*
X136900000Y-98200000D03*
X139300000Y-117075000D03*
X115900000Y-113600000D03*
X127900000Y-105900000D03*
X137700000Y-99300000D03*
X141700000Y-98400000D03*
X116800000Y-105100000D03*
X116800000Y-104500000D03*
X115900000Y-115000000D03*
X129200000Y-113690000D03*
X115500000Y-109400000D03*
X117725000Y-110400000D03*
X131200000Y-109900000D03*
X137300000Y-99800000D03*
X134600000Y-98200000D03*
X115325000Y-93700000D03*
X133400000Y-100000000D03*
X121620000Y-98490000D03*
X134900000Y-112100000D03*
X134530000Y-106120000D03*
X116800000Y-110300000D03*
X134600000Y-109000000D03*
X118200000Y-109500000D03*
X116800000Y-103900000D03*
X116800000Y-102100000D03*
X114130000Y-103160000D03*
X138500000Y-99300000D03*
X116800000Y-99300000D03*
X121130000Y-99970000D03*
X133200000Y-84700000D03*
X116030000Y-108140000D03*
X133450000Y-98650000D03*
X135200000Y-99800000D03*
X136900000Y-100400000D03*
X134100000Y-92400000D03*
X132600000Y-85100000D03*
X133900000Y-84700000D03*
X127700000Y-109300000D03*
X132800000Y-117075000D03*
X145600000Y-95200000D03*
X138300000Y-98600000D03*
X118200000Y-108800000D03*
X134100000Y-99800000D03*
X131000000Y-106300000D03*
X116800000Y-92200000D03*
X140300000Y-98400000D03*
X136100000Y-117075000D03*
X116800000Y-108900000D03*
X111225000Y-102800000D03*
X137300000Y-98800000D03*
X117500000Y-108800000D03*
X131500000Y-100200000D03*
X117310000Y-107870000D03*
X135800000Y-98200000D03*
X134600000Y-84700000D03*
X116000000Y-108800000D03*
X116800000Y-100300000D03*
X140300000Y-100200000D03*
X116800000Y-106900000D03*
X127800000Y-97600000D03*
X129600000Y-91600000D03*
X132000000Y-93600000D03*
X132000000Y-84700000D03*
X123370000Y-99700000D03*
X130100000Y-98400000D03*
X116800000Y-105700000D03*
X118275000Y-93700000D03*
X115900000Y-110200000D03*
X120800000Y-103500000D03*
X141700000Y-100200000D03*
X138600000Y-83200000D03*
X135800000Y-100400000D03*
X131525000Y-87900000D03*
X135600000Y-99300000D03*
X130100000Y-100200000D03*
X136200000Y-99800000D03*
X130125000Y-81300000D03*
X134100000Y-98800000D03*
X116800000Y-102700000D03*
X128800000Y-99100000D03*
X117725000Y-112900000D03*
X132700000Y-90800000D03*
X134500000Y-99300000D03*
X116800000Y-107500000D03*
X131500000Y-98400000D03*
X129700000Y-86500000D03*
X130800000Y-84700000D03*
X133500000Y-99300000D03*
X136875000Y-95300000D03*
X128275000Y-84700000D03*
X136600000Y-99300000D03*
X132600000Y-84300000D03*
X128300000Y-86500000D03*
X131400000Y-84700000D03*
X116800000Y-103300000D03*
X116400000Y-109600000D03*
X116800000Y-106300000D03*
X135200000Y-98800000D03*
X138300000Y-100000000D03*
X134600000Y-100400000D03*
X117800000Y-108200000D03*
X135300000Y-84700000D03*
X115900000Y-111600000D03*
X116800000Y-108200000D03*
%TO.N,/12V Buck-Boost/VIN*%
X112700000Y-110300000D03*
X115100000Y-105700000D03*
X112700000Y-115300000D03*
X115600000Y-105900000D03*
X113300000Y-110000000D03*
X112700000Y-111300000D03*
X115100000Y-104500000D03*
X113200000Y-111800000D03*
X115600000Y-105400000D03*
X112700000Y-113300000D03*
X113200000Y-110800000D03*
X112700000Y-114300000D03*
X113200000Y-112800000D03*
X115600000Y-104800000D03*
X115600000Y-104300000D03*
X115100000Y-105100000D03*
X112700000Y-112300000D03*
X113200000Y-114800000D03*
X131400000Y-89475000D03*
X113200000Y-113800000D03*
%TO.N,Net-(U1-SW1)*%
X115175000Y-97100000D03*
%TO.N,Net-(U1-SW2)*%
X120210000Y-96430000D03*
%TO.N,Net-(U1-ISP)*%
X118500000Y-104500000D03*
X118000000Y-104800000D03*
X118000000Y-104300000D03*
X118000000Y-105400000D03*
X118500000Y-105100000D03*
X118000000Y-105900000D03*
X118500000Y-105700000D03*
%TO.N,/5V Buck/5VPG*%
X133530000Y-95320000D03*
X134475000Y-113900000D03*
X113720000Y-101120000D03*
%TO.N,/12V Buck-Boost/5V*%
X120800000Y-101950000D03*
X112720000Y-101480000D03*
%TO.N,Net-(U1-DITH{slash}SYNC)*%
X114000000Y-106520000D03*
%TO.N,/3.3V Buck/PG*%
X130580000Y-87420000D03*
X132800000Y-112262500D03*
X135110000Y-96090000D03*
%TO.N,/3.3V Buck/3.3V*%
X128275000Y-83000000D03*
%TO.N,Net-(U3-EN)*%
X132270000Y-87240000D03*
%TO.N,Net-(U3-RT{slash}MODE{slash}SYNC)*%
X130830000Y-83360000D03*
X130950000Y-85760000D03*
%TO.N,Net-(U1-FSW)*%
X114630000Y-107320000D03*
%TO.N,Net-(U1-CDC)*%
X120100000Y-104425000D03*
%TO.N,Net-(U2-RT)*%
X136210000Y-96090000D03*
%TD*%
%TA.AperFunction,Conductor*%
%TO.N,GND*%
G36*
X150592018Y-108535000D02*
G01*
X150594838Y-108535000D01*
X150594838Y-108536024D01*
X150595162Y-108536142D01*
X150595162Y-108535000D01*
X151403120Y-108535000D01*
X151399075Y-108542007D01*
X151365000Y-108669174D01*
X151365000Y-108800826D01*
X151399075Y-108927993D01*
X151403120Y-108935000D01*
X150598306Y-108935000D01*
X150598062Y-108935113D01*
X150597754Y-108935000D01*
X150595162Y-108935000D01*
X150595162Y-108934050D01*
X150594838Y-108933931D01*
X150594838Y-108935000D01*
X149786880Y-108935000D01*
X149790925Y-108927993D01*
X149825000Y-108800826D01*
X149825000Y-108669174D01*
X149790925Y-108542007D01*
X149786880Y-108535000D01*
X150591504Y-108535000D01*
X150591729Y-108534895D01*
X150592018Y-108535000D01*
G37*
%TD.AperFunction*%
%TA.AperFunction,Conductor*%
G36*
X153132018Y-108535000D02*
G01*
X153134838Y-108535000D01*
X153134838Y-108536024D01*
X153135162Y-108536142D01*
X153135162Y-108535000D01*
X153943120Y-108535000D01*
X153939075Y-108542007D01*
X153905000Y-108669174D01*
X153905000Y-108800826D01*
X153939075Y-108927993D01*
X153943120Y-108935000D01*
X153138306Y-108935000D01*
X153138062Y-108935113D01*
X153137754Y-108935000D01*
X153135162Y-108935000D01*
X153135162Y-108934050D01*
X153134838Y-108933931D01*
X153134838Y-108935000D01*
X152326880Y-108935000D01*
X152330925Y-108927993D01*
X152365000Y-108800826D01*
X152365000Y-108669174D01*
X152330925Y-108542007D01*
X152326880Y-108535000D01*
X153131504Y-108535000D01*
X153131729Y-108534895D01*
X153132018Y-108535000D01*
G37*
%TD.AperFunction*%
%TA.AperFunction,Conductor*%
G36*
X155672018Y-108535000D02*
G01*
X155674838Y-108535000D01*
X155674838Y-108536024D01*
X155675162Y-108536142D01*
X155675162Y-108535000D01*
X156483120Y-108535000D01*
X156479075Y-108542007D01*
X156445000Y-108669174D01*
X156445000Y-108800826D01*
X156479075Y-108927993D01*
X156483120Y-108935000D01*
X155678306Y-108935000D01*
X155678062Y-108935113D01*
X155677754Y-108935000D01*
X155675162Y-108935000D01*
X155675162Y-108934050D01*
X155674838Y-108933931D01*
X155674838Y-108935000D01*
X154866880Y-108935000D01*
X154870925Y-108927993D01*
X154905000Y-108800826D01*
X154905000Y-108669174D01*
X154870925Y-108542007D01*
X154866880Y-108535000D01*
X155671504Y-108535000D01*
X155671729Y-108534895D01*
X155672018Y-108535000D01*
G37*
%TD.AperFunction*%
%TA.AperFunction,Conductor*%
G36*
X158212018Y-108535000D02*
G01*
X158214838Y-108535000D01*
X158214838Y-108536024D01*
X158215162Y-108536142D01*
X158215162Y-108535000D01*
X159023120Y-108535000D01*
X159019075Y-108542007D01*
X158985000Y-108669174D01*
X158985000Y-108800826D01*
X159019075Y-108927993D01*
X159023120Y-108935000D01*
X158218306Y-108935000D01*
X158218062Y-108935113D01*
X158217754Y-108935000D01*
X158215162Y-108935000D01*
X158215162Y-108934050D01*
X158214838Y-108933931D01*
X158214838Y-108935000D01*
X157406880Y-108935000D01*
X157410925Y-108927993D01*
X157445000Y-108800826D01*
X157445000Y-108669174D01*
X157410925Y-108542007D01*
X157406880Y-108535000D01*
X158211504Y-108535000D01*
X158211729Y-108534895D01*
X158212018Y-108535000D01*
G37*
%TD.AperFunction*%
%TA.AperFunction,Conductor*%
G36*
X160752018Y-108535000D02*
G01*
X160754838Y-108535000D01*
X160754838Y-108536024D01*
X160755162Y-108536142D01*
X160755162Y-108535000D01*
X161563120Y-108535000D01*
X161559075Y-108542007D01*
X161525000Y-108669174D01*
X161525000Y-108800826D01*
X161559075Y-108927993D01*
X161563120Y-108935000D01*
X160758306Y-108935000D01*
X160758062Y-108935113D01*
X160757754Y-108935000D01*
X160755162Y-108935000D01*
X160755162Y-108934050D01*
X160754838Y-108933931D01*
X160754838Y-108935000D01*
X159946880Y-108935000D01*
X159950925Y-108927993D01*
X159985000Y-108800826D01*
X159985000Y-108669174D01*
X159950925Y-108542007D01*
X159946880Y-108535000D01*
X160751504Y-108535000D01*
X160751729Y-108534895D01*
X160752018Y-108535000D01*
G37*
%TD.AperFunction*%
%TA.AperFunction,Conductor*%
G36*
X163292018Y-108535000D02*
G01*
X163294838Y-108535000D01*
X163294838Y-108536024D01*
X163295162Y-108536142D01*
X163295162Y-108535000D01*
X164103120Y-108535000D01*
X164099075Y-108542007D01*
X164065000Y-108669174D01*
X164065000Y-108800826D01*
X164099075Y-108927993D01*
X164103120Y-108935000D01*
X163298306Y-108935000D01*
X163298062Y-108935113D01*
X163297754Y-108935000D01*
X163295162Y-108935000D01*
X163295162Y-108934050D01*
X163294838Y-108933931D01*
X163294838Y-108935000D01*
X162486880Y-108935000D01*
X162490925Y-108927993D01*
X162525000Y-108800826D01*
X162525000Y-108669174D01*
X162490925Y-108542007D01*
X162486880Y-108535000D01*
X163291504Y-108535000D01*
X163291729Y-108534895D01*
X163292018Y-108535000D01*
G37*
%TD.AperFunction*%
%TA.AperFunction,Conductor*%
G36*
X165832018Y-108535000D02*
G01*
X165834838Y-108535000D01*
X165834838Y-108536024D01*
X165835162Y-108536142D01*
X165835162Y-108535000D01*
X166643120Y-108535000D01*
X166639075Y-108542007D01*
X166605000Y-108669174D01*
X166605000Y-108800826D01*
X166639075Y-108927993D01*
X166643120Y-108935000D01*
X165838306Y-108935000D01*
X165838062Y-108935113D01*
X165837754Y-108935000D01*
X165835162Y-108935000D01*
X165835162Y-108934050D01*
X165834838Y-108933931D01*
X165834838Y-108935000D01*
X165026880Y-108935000D01*
X165030925Y-108927993D01*
X165065000Y-108800826D01*
X165065000Y-108669174D01*
X165030925Y-108542007D01*
X165026880Y-108535000D01*
X165831504Y-108535000D01*
X165831729Y-108534895D01*
X165832018Y-108535000D01*
G37*
%TD.AperFunction*%
%TA.AperFunction,Conductor*%
G36*
X168372018Y-108535000D02*
G01*
X168374838Y-108535000D01*
X168374838Y-108536024D01*
X168375162Y-108536142D01*
X168375162Y-108535000D01*
X169183120Y-108535000D01*
X169179075Y-108542007D01*
X169145000Y-108669174D01*
X169145000Y-108800826D01*
X169179075Y-108927993D01*
X169183120Y-108935000D01*
X168378306Y-108935000D01*
X168378062Y-108935113D01*
X168377754Y-108935000D01*
X168375162Y-108935000D01*
X168375162Y-108934050D01*
X168374838Y-108933931D01*
X168374838Y-108935000D01*
X167566880Y-108935000D01*
X167570925Y-108927993D01*
X167605000Y-108800826D01*
X167605000Y-108669174D01*
X167570925Y-108542007D01*
X167566880Y-108535000D01*
X168371504Y-108535000D01*
X168371729Y-108534895D01*
X168372018Y-108535000D01*
G37*
%TD.AperFunction*%
%TA.AperFunction,Conductor*%
G36*
X170912018Y-108535000D02*
G01*
X170914838Y-108535000D01*
X170914838Y-108536024D01*
X170915162Y-108536142D01*
X170915162Y-108535000D01*
X171723120Y-108535000D01*
X171719075Y-108542007D01*
X171685000Y-108669174D01*
X171685000Y-108800826D01*
X171719075Y-108927993D01*
X171723120Y-108935000D01*
X170918306Y-108935000D01*
X170918062Y-108935113D01*
X170917754Y-108935000D01*
X170915162Y-108935000D01*
X170915162Y-108934050D01*
X170914838Y-108933931D01*
X170914838Y-108935000D01*
X170106880Y-108935000D01*
X170110925Y-108927993D01*
X170145000Y-108800826D01*
X170145000Y-108669174D01*
X170110925Y-108542007D01*
X170106880Y-108535000D01*
X170911504Y-108535000D01*
X170911729Y-108534895D01*
X170912018Y-108535000D01*
G37*
%TD.AperFunction*%
%TA.AperFunction,Conductor*%
G36*
X173452018Y-108535000D02*
G01*
X173454838Y-108535000D01*
X173454838Y-108536024D01*
X173455162Y-108536142D01*
X173455162Y-108535000D01*
X174263120Y-108535000D01*
X174259075Y-108542007D01*
X174225000Y-108669174D01*
X174225000Y-108800826D01*
X174259075Y-108927993D01*
X174263120Y-108935000D01*
X173458306Y-108935000D01*
X173458062Y-108935113D01*
X173457754Y-108935000D01*
X173455162Y-108935000D01*
X173455162Y-108934050D01*
X173454838Y-108933931D01*
X173454838Y-108935000D01*
X172646880Y-108935000D01*
X172650925Y-108927993D01*
X172685000Y-108800826D01*
X172685000Y-108669174D01*
X172650925Y-108542007D01*
X172646880Y-108535000D01*
X173451504Y-108535000D01*
X173451729Y-108534895D01*
X173452018Y-108535000D01*
G37*
%TD.AperFunction*%
%TA.AperFunction,Conductor*%
G36*
X175992018Y-108535000D02*
G01*
X175994838Y-108535000D01*
X175994838Y-108536024D01*
X175995162Y-108536142D01*
X175995162Y-108535000D01*
X176803120Y-108535000D01*
X176799075Y-108542007D01*
X176765000Y-108669174D01*
X176765000Y-108800826D01*
X176799075Y-108927993D01*
X176803120Y-108935000D01*
X175998306Y-108935000D01*
X175998062Y-108935113D01*
X175997754Y-108935000D01*
X175995162Y-108935000D01*
X175995162Y-108934050D01*
X175994838Y-108933931D01*
X175994838Y-108935000D01*
X175186880Y-108935000D01*
X175190925Y-108927993D01*
X175225000Y-108800826D01*
X175225000Y-108669174D01*
X175190925Y-108542007D01*
X175186880Y-108535000D01*
X175991504Y-108535000D01*
X175991729Y-108534895D01*
X175992018Y-108535000D01*
G37*
%TD.AperFunction*%
%TA.AperFunction,Conductor*%
G36*
X178532018Y-108535000D02*
G01*
X178534838Y-108535000D01*
X178534838Y-108536024D01*
X178535162Y-108536142D01*
X178535162Y-108535000D01*
X179343120Y-108535000D01*
X179339075Y-108542007D01*
X179305000Y-108669174D01*
X179305000Y-108800826D01*
X179339075Y-108927993D01*
X179343120Y-108935000D01*
X178538306Y-108935000D01*
X178538062Y-108935113D01*
X178537754Y-108935000D01*
X178535162Y-108935000D01*
X178535162Y-108934050D01*
X178534838Y-108933931D01*
X178534838Y-108935000D01*
X177726880Y-108935000D01*
X177730925Y-108927993D01*
X177765000Y-108800826D01*
X177765000Y-108669174D01*
X177730925Y-108542007D01*
X177726880Y-108535000D01*
X178531504Y-108535000D01*
X178531729Y-108534895D01*
X178532018Y-108535000D01*
G37*
%TD.AperFunction*%
%TA.AperFunction,Conductor*%
G36*
X181072018Y-108535000D02*
G01*
X181074838Y-108535000D01*
X181074838Y-108536024D01*
X181075162Y-108536142D01*
X181075162Y-108535000D01*
X181883120Y-108535000D01*
X181879075Y-108542007D01*
X181845000Y-108669174D01*
X181845000Y-108800826D01*
X181879075Y-108927993D01*
X181883120Y-108935000D01*
X181078306Y-108935000D01*
X181078062Y-108935113D01*
X181077754Y-108935000D01*
X181075162Y-108935000D01*
X181075162Y-108934050D01*
X181074838Y-108933931D01*
X181074838Y-108935000D01*
X180266880Y-108935000D01*
X180270925Y-108927993D01*
X180305000Y-108800826D01*
X180305000Y-108669174D01*
X180270925Y-108542007D01*
X180266880Y-108535000D01*
X181071504Y-108535000D01*
X181071729Y-108534895D01*
X181072018Y-108535000D01*
G37*
%TD.AperFunction*%
%TA.AperFunction,Conductor*%
G36*
X183612018Y-108535000D02*
G01*
X183614838Y-108535000D01*
X183614838Y-108536024D01*
X183615162Y-108536142D01*
X183615162Y-108535000D01*
X184423120Y-108535000D01*
X184419075Y-108542007D01*
X184385000Y-108669174D01*
X184385000Y-108800826D01*
X184419075Y-108927993D01*
X184423120Y-108935000D01*
X183618306Y-108935000D01*
X183618062Y-108935113D01*
X183617754Y-108935000D01*
X183615162Y-108935000D01*
X183615162Y-108934050D01*
X183614838Y-108933931D01*
X183614838Y-108935000D01*
X182806880Y-108935000D01*
X182810925Y-108927993D01*
X182845000Y-108800826D01*
X182845000Y-108669174D01*
X182810925Y-108542007D01*
X182806880Y-108535000D01*
X183611504Y-108535000D01*
X183611729Y-108534895D01*
X183612018Y-108535000D01*
G37*
%TD.AperFunction*%
%TA.AperFunction,Conductor*%
G36*
X163292018Y-98535000D02*
G01*
X163294838Y-98535000D01*
X163294838Y-98536024D01*
X163295162Y-98536142D01*
X163295162Y-98535000D01*
X164103120Y-98535000D01*
X164099075Y-98542007D01*
X164065000Y-98669174D01*
X164065000Y-98800826D01*
X164099075Y-98927993D01*
X164103120Y-98935000D01*
X163298306Y-98935000D01*
X163298062Y-98935113D01*
X163297754Y-98935000D01*
X163295162Y-98935000D01*
X163295162Y-98934050D01*
X163294838Y-98933931D01*
X163294838Y-98935000D01*
X162486880Y-98935000D01*
X162490925Y-98927993D01*
X162525000Y-98800826D01*
X162525000Y-98669174D01*
X162490925Y-98542007D01*
X162486880Y-98535000D01*
X163291504Y-98535000D01*
X163291729Y-98534895D01*
X163292018Y-98535000D01*
G37*
%TD.AperFunction*%
%TA.AperFunction,Conductor*%
G36*
X165832018Y-98535000D02*
G01*
X165834838Y-98535000D01*
X165834838Y-98536024D01*
X165835162Y-98536142D01*
X165835162Y-98535000D01*
X166643120Y-98535000D01*
X166639075Y-98542007D01*
X166605000Y-98669174D01*
X166605000Y-98800826D01*
X166639075Y-98927993D01*
X166643120Y-98935000D01*
X165838306Y-98935000D01*
X165838062Y-98935113D01*
X165837754Y-98935000D01*
X165835162Y-98935000D01*
X165835162Y-98934050D01*
X165834838Y-98933931D01*
X165834838Y-98935000D01*
X165026880Y-98935000D01*
X165030925Y-98927993D01*
X165065000Y-98800826D01*
X165065000Y-98669174D01*
X165030925Y-98542007D01*
X165026880Y-98535000D01*
X165831504Y-98535000D01*
X165831729Y-98534895D01*
X165832018Y-98535000D01*
G37*
%TD.AperFunction*%
%TA.AperFunction,Conductor*%
G36*
X168372018Y-98535000D02*
G01*
X168374838Y-98535000D01*
X168374838Y-98536024D01*
X168375162Y-98536142D01*
X168375162Y-98535000D01*
X169183120Y-98535000D01*
X169179075Y-98542007D01*
X169145000Y-98669174D01*
X169145000Y-98800826D01*
X169179075Y-98927993D01*
X169183120Y-98935000D01*
X168378306Y-98935000D01*
X168378062Y-98935113D01*
X168377754Y-98935000D01*
X168375162Y-98935000D01*
X168375162Y-98934050D01*
X168374838Y-98933931D01*
X168374838Y-98935000D01*
X167566880Y-98935000D01*
X167570925Y-98927993D01*
X167605000Y-98800826D01*
X167605000Y-98669174D01*
X167570925Y-98542007D01*
X167566880Y-98535000D01*
X168371504Y-98535000D01*
X168371729Y-98534895D01*
X168372018Y-98535000D01*
G37*
%TD.AperFunction*%
%TA.AperFunction,Conductor*%
G36*
X170912018Y-98535000D02*
G01*
X170914838Y-98535000D01*
X170914838Y-98536024D01*
X170915162Y-98536142D01*
X170915162Y-98535000D01*
X171723120Y-98535000D01*
X171719075Y-98542007D01*
X171685000Y-98669174D01*
X171685000Y-98800826D01*
X171719075Y-98927993D01*
X171723120Y-98935000D01*
X170918306Y-98935000D01*
X170918062Y-98935113D01*
X170917754Y-98935000D01*
X170915162Y-98935000D01*
X170915162Y-98934050D01*
X170914838Y-98933931D01*
X170914838Y-98935000D01*
X170106880Y-98935000D01*
X170110925Y-98927993D01*
X170145000Y-98800826D01*
X170145000Y-98669174D01*
X170110925Y-98542007D01*
X170106880Y-98535000D01*
X170911504Y-98535000D01*
X170911729Y-98534895D01*
X170912018Y-98535000D01*
G37*
%TD.AperFunction*%
%TA.AperFunction,Conductor*%
G36*
X173452018Y-98535000D02*
G01*
X173454838Y-98535000D01*
X173454838Y-98536024D01*
X173455162Y-98536142D01*
X173455162Y-98535000D01*
X174263120Y-98535000D01*
X174259075Y-98542007D01*
X174225000Y-98669174D01*
X174225000Y-98800826D01*
X174259075Y-98927993D01*
X174263120Y-98935000D01*
X173458306Y-98935000D01*
X173458062Y-98935113D01*
X173457754Y-98935000D01*
X173455162Y-98935000D01*
X173455162Y-98934050D01*
X173454838Y-98933931D01*
X173454838Y-98935000D01*
X172646880Y-98935000D01*
X172650925Y-98927993D01*
X172685000Y-98800826D01*
X172685000Y-98669174D01*
X172650925Y-98542007D01*
X172646880Y-98535000D01*
X173451504Y-98535000D01*
X173451729Y-98534895D01*
X173452018Y-98535000D01*
G37*
%TD.AperFunction*%
%TA.AperFunction,Conductor*%
G36*
X175992018Y-98535000D02*
G01*
X175994838Y-98535000D01*
X175994838Y-98536024D01*
X175995162Y-98536142D01*
X175995162Y-98535000D01*
X176803120Y-98535000D01*
X176799075Y-98542007D01*
X176765000Y-98669174D01*
X176765000Y-98800826D01*
X176799075Y-98927993D01*
X176803120Y-98935000D01*
X175998306Y-98935000D01*
X175998062Y-98935113D01*
X175997754Y-98935000D01*
X175995162Y-98935000D01*
X175995162Y-98934050D01*
X175994838Y-98933931D01*
X175994838Y-98935000D01*
X175186880Y-98935000D01*
X175190925Y-98927993D01*
X175225000Y-98800826D01*
X175225000Y-98669174D01*
X175190925Y-98542007D01*
X175186880Y-98535000D01*
X175991504Y-98535000D01*
X175991729Y-98534895D01*
X175992018Y-98535000D01*
G37*
%TD.AperFunction*%
%TA.AperFunction,Conductor*%
G36*
X178532018Y-98535000D02*
G01*
X178534838Y-98535000D01*
X178534838Y-98536024D01*
X178535162Y-98536142D01*
X178535162Y-98535000D01*
X179343120Y-98535000D01*
X179339075Y-98542007D01*
X179305000Y-98669174D01*
X179305000Y-98800826D01*
X179339075Y-98927993D01*
X179343120Y-98935000D01*
X178538306Y-98935000D01*
X178538062Y-98935113D01*
X178537754Y-98935000D01*
X178535162Y-98935000D01*
X178535162Y-98934050D01*
X178534838Y-98933931D01*
X178534838Y-98935000D01*
X177726880Y-98935000D01*
X177730925Y-98927993D01*
X177765000Y-98800826D01*
X177765000Y-98669174D01*
X177730925Y-98542007D01*
X177726880Y-98535000D01*
X178531504Y-98535000D01*
X178531729Y-98534895D01*
X178532018Y-98535000D01*
G37*
%TD.AperFunction*%
%TA.AperFunction,Conductor*%
G36*
X181072018Y-98535000D02*
G01*
X181074838Y-98535000D01*
X181074838Y-98536024D01*
X181075162Y-98536142D01*
X181075162Y-98535000D01*
X181883120Y-98535000D01*
X181879075Y-98542007D01*
X181845000Y-98669174D01*
X181845000Y-98800826D01*
X181879075Y-98927993D01*
X181883120Y-98935000D01*
X181078306Y-98935000D01*
X181078062Y-98935113D01*
X181077754Y-98935000D01*
X181075162Y-98935000D01*
X181075162Y-98934050D01*
X181074838Y-98933931D01*
X181074838Y-98935000D01*
X180266880Y-98935000D01*
X180270925Y-98927993D01*
X180305000Y-98800826D01*
X180305000Y-98669174D01*
X180270925Y-98542007D01*
X180266880Y-98535000D01*
X181071504Y-98535000D01*
X181071729Y-98534895D01*
X181072018Y-98535000D01*
G37*
%TD.AperFunction*%
%TA.AperFunction,Conductor*%
G36*
X183612018Y-98535000D02*
G01*
X183614838Y-98535000D01*
X183614838Y-98536024D01*
X183615162Y-98536142D01*
X183615162Y-98535000D01*
X184423120Y-98535000D01*
X184419075Y-98542007D01*
X184385000Y-98669174D01*
X184385000Y-98800826D01*
X184419075Y-98927993D01*
X184423120Y-98935000D01*
X183618306Y-98935000D01*
X183618062Y-98935113D01*
X183617754Y-98935000D01*
X183615162Y-98935000D01*
X183615162Y-98934050D01*
X183614838Y-98933931D01*
X183614838Y-98935000D01*
X182806880Y-98935000D01*
X182810925Y-98927993D01*
X182845000Y-98800826D01*
X182845000Y-98669174D01*
X182810925Y-98542007D01*
X182806880Y-98535000D01*
X183611504Y-98535000D01*
X183611729Y-98534895D01*
X183612018Y-98535000D01*
G37*
%TD.AperFunction*%
%TA.AperFunction,Conductor*%
G36*
X150592018Y-88535000D02*
G01*
X150594838Y-88535000D01*
X150594838Y-88536024D01*
X150595162Y-88536142D01*
X150595162Y-88535000D01*
X151403120Y-88535000D01*
X151399075Y-88542007D01*
X151365000Y-88669174D01*
X151365000Y-88800826D01*
X151399075Y-88927993D01*
X151403120Y-88935000D01*
X150598306Y-88935000D01*
X150598062Y-88935113D01*
X150597754Y-88935000D01*
X150595162Y-88935000D01*
X150595162Y-88934050D01*
X150594838Y-88933931D01*
X150594838Y-88935000D01*
X149786880Y-88935000D01*
X149790925Y-88927993D01*
X149825000Y-88800826D01*
X149825000Y-88669174D01*
X149790925Y-88542007D01*
X149786880Y-88535000D01*
X150591504Y-88535000D01*
X150591729Y-88534895D01*
X150592018Y-88535000D01*
G37*
%TD.AperFunction*%
%TA.AperFunction,Conductor*%
G36*
X153132018Y-88535000D02*
G01*
X153134838Y-88535000D01*
X153134838Y-88536024D01*
X153135162Y-88536142D01*
X153135162Y-88535000D01*
X153943120Y-88535000D01*
X153939075Y-88542007D01*
X153905000Y-88669174D01*
X153905000Y-88800826D01*
X153939075Y-88927993D01*
X153943120Y-88935000D01*
X153138306Y-88935000D01*
X153138062Y-88935113D01*
X153137754Y-88935000D01*
X153135162Y-88935000D01*
X153135162Y-88934050D01*
X153134838Y-88933931D01*
X153134838Y-88935000D01*
X152326880Y-88935000D01*
X152330925Y-88927993D01*
X152365000Y-88800826D01*
X152365000Y-88669174D01*
X152330925Y-88542007D01*
X152326880Y-88535000D01*
X153131504Y-88535000D01*
X153131729Y-88534895D01*
X153132018Y-88535000D01*
G37*
%TD.AperFunction*%
%TA.AperFunction,Conductor*%
G36*
X155672018Y-88535000D02*
G01*
X155674838Y-88535000D01*
X155674838Y-88536024D01*
X155675162Y-88536142D01*
X155675162Y-88535000D01*
X156483120Y-88535000D01*
X156479075Y-88542007D01*
X156445000Y-88669174D01*
X156445000Y-88800826D01*
X156479075Y-88927993D01*
X156483120Y-88935000D01*
X155678306Y-88935000D01*
X155678062Y-88935113D01*
X155677754Y-88935000D01*
X155675162Y-88935000D01*
X155675162Y-88934050D01*
X155674838Y-88933931D01*
X155674838Y-88935000D01*
X154866880Y-88935000D01*
X154870925Y-88927993D01*
X154905000Y-88800826D01*
X154905000Y-88669174D01*
X154870925Y-88542007D01*
X154866880Y-88535000D01*
X155671504Y-88535000D01*
X155671729Y-88534895D01*
X155672018Y-88535000D01*
G37*
%TD.AperFunction*%
%TA.AperFunction,Conductor*%
G36*
X158212018Y-88535000D02*
G01*
X158214838Y-88535000D01*
X158214838Y-88536024D01*
X158215162Y-88536142D01*
X158215162Y-88535000D01*
X159023120Y-88535000D01*
X159019075Y-88542007D01*
X158985000Y-88669174D01*
X158985000Y-88800826D01*
X159019075Y-88927993D01*
X159023120Y-88935000D01*
X158218306Y-88935000D01*
X158218062Y-88935113D01*
X158217754Y-88935000D01*
X158215162Y-88935000D01*
X158215162Y-88934050D01*
X158214838Y-88933931D01*
X158214838Y-88935000D01*
X157406880Y-88935000D01*
X157410925Y-88927993D01*
X157445000Y-88800826D01*
X157445000Y-88669174D01*
X157410925Y-88542007D01*
X157406880Y-88535000D01*
X158211504Y-88535000D01*
X158211729Y-88534895D01*
X158212018Y-88535000D01*
G37*
%TD.AperFunction*%
%TA.AperFunction,Conductor*%
G36*
X160752018Y-88535000D02*
G01*
X160754838Y-88535000D01*
X160754838Y-88536024D01*
X160755162Y-88536142D01*
X160755162Y-88535000D01*
X161563120Y-88535000D01*
X161559075Y-88542007D01*
X161525000Y-88669174D01*
X161525000Y-88800826D01*
X161559075Y-88927993D01*
X161563120Y-88935000D01*
X160758306Y-88935000D01*
X160758062Y-88935113D01*
X160757754Y-88935000D01*
X160755162Y-88935000D01*
X160755162Y-88934050D01*
X160754838Y-88933931D01*
X160754838Y-88935000D01*
X159946880Y-88935000D01*
X159950925Y-88927993D01*
X159985000Y-88800826D01*
X159985000Y-88669174D01*
X159950925Y-88542007D01*
X159946880Y-88535000D01*
X160751504Y-88535000D01*
X160751729Y-88534895D01*
X160752018Y-88535000D01*
G37*
%TD.AperFunction*%
%TA.AperFunction,Conductor*%
G36*
X163292018Y-88535000D02*
G01*
X163294838Y-88535000D01*
X163294838Y-88536024D01*
X163295162Y-88536142D01*
X163295162Y-88535000D01*
X164103120Y-88535000D01*
X164099075Y-88542007D01*
X164065000Y-88669174D01*
X164065000Y-88800826D01*
X164099075Y-88927993D01*
X164103120Y-88935000D01*
X163298306Y-88935000D01*
X163298062Y-88935113D01*
X163297754Y-88935000D01*
X163295162Y-88935000D01*
X163295162Y-88934050D01*
X163294838Y-88933931D01*
X163294838Y-88935000D01*
X162486880Y-88935000D01*
X162490925Y-88927993D01*
X162525000Y-88800826D01*
X162525000Y-88669174D01*
X162490925Y-88542007D01*
X162486880Y-88535000D01*
X163291504Y-88535000D01*
X163291729Y-88534895D01*
X163292018Y-88535000D01*
G37*
%TD.AperFunction*%
%TA.AperFunction,Conductor*%
G36*
X165832018Y-88535000D02*
G01*
X165834838Y-88535000D01*
X165834838Y-88536024D01*
X165835162Y-88536142D01*
X165835162Y-88535000D01*
X166643120Y-88535000D01*
X166639075Y-88542007D01*
X166605000Y-88669174D01*
X166605000Y-88800826D01*
X166639075Y-88927993D01*
X166643120Y-88935000D01*
X165838306Y-88935000D01*
X165838062Y-88935113D01*
X165837754Y-88935000D01*
X165835162Y-88935000D01*
X165835162Y-88934050D01*
X165834838Y-88933931D01*
X165834838Y-88935000D01*
X165026880Y-88935000D01*
X165030925Y-88927993D01*
X165065000Y-88800826D01*
X165065000Y-88669174D01*
X165030925Y-88542007D01*
X165026880Y-88535000D01*
X165831504Y-88535000D01*
X165831729Y-88534895D01*
X165832018Y-88535000D01*
G37*
%TD.AperFunction*%
%TA.AperFunction,Conductor*%
G36*
X168372018Y-88535000D02*
G01*
X168374838Y-88535000D01*
X168374838Y-88536024D01*
X168375162Y-88536142D01*
X168375162Y-88535000D01*
X169183120Y-88535000D01*
X169179075Y-88542007D01*
X169145000Y-88669174D01*
X169145000Y-88800826D01*
X169179075Y-88927993D01*
X169183120Y-88935000D01*
X168378306Y-88935000D01*
X168378062Y-88935113D01*
X168377754Y-88935000D01*
X168375162Y-88935000D01*
X168375162Y-88934050D01*
X168374838Y-88933931D01*
X168374838Y-88935000D01*
X167566880Y-88935000D01*
X167570925Y-88927993D01*
X167605000Y-88800826D01*
X167605000Y-88669174D01*
X167570925Y-88542007D01*
X167566880Y-88535000D01*
X168371504Y-88535000D01*
X168371729Y-88534895D01*
X168372018Y-88535000D01*
G37*
%TD.AperFunction*%
%TA.AperFunction,Conductor*%
G36*
X170912018Y-88535000D02*
G01*
X170914838Y-88535000D01*
X170914838Y-88536024D01*
X170915162Y-88536142D01*
X170915162Y-88535000D01*
X171723120Y-88535000D01*
X171719075Y-88542007D01*
X171685000Y-88669174D01*
X171685000Y-88800826D01*
X171719075Y-88927993D01*
X171723120Y-88935000D01*
X170918306Y-88935000D01*
X170918062Y-88935113D01*
X170917754Y-88935000D01*
X170915162Y-88935000D01*
X170915162Y-88934050D01*
X170914838Y-88933931D01*
X170914838Y-88935000D01*
X170106880Y-88935000D01*
X170110925Y-88927993D01*
X170145000Y-88800826D01*
X170145000Y-88669174D01*
X170110925Y-88542007D01*
X170106880Y-88535000D01*
X170911504Y-88535000D01*
X170911729Y-88534895D01*
X170912018Y-88535000D01*
G37*
%TD.AperFunction*%
%TA.AperFunction,Conductor*%
G36*
X173452018Y-88535000D02*
G01*
X173454838Y-88535000D01*
X173454838Y-88536024D01*
X173455162Y-88536142D01*
X173455162Y-88535000D01*
X174263120Y-88535000D01*
X174259075Y-88542007D01*
X174225000Y-88669174D01*
X174225000Y-88800826D01*
X174259075Y-88927993D01*
X174263120Y-88935000D01*
X173458306Y-88935000D01*
X173458062Y-88935113D01*
X173457754Y-88935000D01*
X173455162Y-88935000D01*
X173455162Y-88934050D01*
X173454838Y-88933931D01*
X173454838Y-88935000D01*
X172646880Y-88935000D01*
X172650925Y-88927993D01*
X172685000Y-88800826D01*
X172685000Y-88669174D01*
X172650925Y-88542007D01*
X172646880Y-88535000D01*
X173451504Y-88535000D01*
X173451729Y-88534895D01*
X173452018Y-88535000D01*
G37*
%TD.AperFunction*%
%TA.AperFunction,Conductor*%
G36*
X175992018Y-88535000D02*
G01*
X175994838Y-88535000D01*
X175994838Y-88536024D01*
X175995162Y-88536142D01*
X175995162Y-88535000D01*
X176803120Y-88535000D01*
X176799075Y-88542007D01*
X176765000Y-88669174D01*
X176765000Y-88800826D01*
X176799075Y-88927993D01*
X176803120Y-88935000D01*
X175998306Y-88935000D01*
X175998062Y-88935113D01*
X175997754Y-88935000D01*
X175995162Y-88935000D01*
X175995162Y-88934050D01*
X175994838Y-88933931D01*
X175994838Y-88935000D01*
X175186880Y-88935000D01*
X175190925Y-88927993D01*
X175225000Y-88800826D01*
X175225000Y-88669174D01*
X175190925Y-88542007D01*
X175186880Y-88535000D01*
X175991504Y-88535000D01*
X175991729Y-88534895D01*
X175992018Y-88535000D01*
G37*
%TD.AperFunction*%
%TA.AperFunction,Conductor*%
G36*
X178532018Y-88535000D02*
G01*
X178534838Y-88535000D01*
X178534838Y-88536024D01*
X178535162Y-88536142D01*
X178535162Y-88535000D01*
X179343120Y-88535000D01*
X179339075Y-88542007D01*
X179305000Y-88669174D01*
X179305000Y-88800826D01*
X179339075Y-88927993D01*
X179343120Y-88935000D01*
X178538306Y-88935000D01*
X178538062Y-88935113D01*
X178537754Y-88935000D01*
X178535162Y-88935000D01*
X178535162Y-88934050D01*
X178534838Y-88933931D01*
X178534838Y-88935000D01*
X177726880Y-88935000D01*
X177730925Y-88927993D01*
X177765000Y-88800826D01*
X177765000Y-88669174D01*
X177730925Y-88542007D01*
X177726880Y-88535000D01*
X178531504Y-88535000D01*
X178531729Y-88534895D01*
X178532018Y-88535000D01*
G37*
%TD.AperFunction*%
%TA.AperFunction,Conductor*%
G36*
X181072018Y-88535000D02*
G01*
X181074838Y-88535000D01*
X181074838Y-88536024D01*
X181075162Y-88536142D01*
X181075162Y-88535000D01*
X181883120Y-88535000D01*
X181879075Y-88542007D01*
X181845000Y-88669174D01*
X181845000Y-88800826D01*
X181879075Y-88927993D01*
X181883120Y-88935000D01*
X181078306Y-88935000D01*
X181078062Y-88935113D01*
X181077754Y-88935000D01*
X181075162Y-88935000D01*
X181075162Y-88934050D01*
X181074838Y-88933931D01*
X181074838Y-88935000D01*
X180266880Y-88935000D01*
X180270925Y-88927993D01*
X180305000Y-88800826D01*
X180305000Y-88669174D01*
X180270925Y-88542007D01*
X180266880Y-88535000D01*
X181071504Y-88535000D01*
X181071729Y-88534895D01*
X181072018Y-88535000D01*
G37*
%TD.AperFunction*%
%TA.AperFunction,Conductor*%
G36*
X183612018Y-88535000D02*
G01*
X183614838Y-88535000D01*
X183614838Y-88536024D01*
X183615162Y-88536142D01*
X183615162Y-88535000D01*
X184423120Y-88535000D01*
X184419075Y-88542007D01*
X184385000Y-88669174D01*
X184385000Y-88800826D01*
X184419075Y-88927993D01*
X184423120Y-88935000D01*
X183618306Y-88935000D01*
X183618062Y-88935113D01*
X183617754Y-88935000D01*
X183615162Y-88935000D01*
X183615162Y-88934050D01*
X183614838Y-88933931D01*
X183614838Y-88935000D01*
X182806880Y-88935000D01*
X182810925Y-88927993D01*
X182845000Y-88800826D01*
X182845000Y-88669174D01*
X182810925Y-88542007D01*
X182806880Y-88535000D01*
X183611504Y-88535000D01*
X183611729Y-88534895D01*
X183612018Y-88535000D01*
G37*
%TD.AperFunction*%
%TA.AperFunction,Conductor*%
G36*
X148046521Y-80222174D02*
G01*
X148067506Y-80264424D01*
X148085833Y-80397766D01*
X148152404Y-80635360D01*
X148157825Y-80654709D01*
X148264133Y-80899454D01*
X148264136Y-80899459D01*
X148264137Y-80899461D01*
X148264139Y-80899465D01*
X148402770Y-81127434D01*
X148402772Y-81127437D01*
X148402776Y-81127443D01*
X148571173Y-81334431D01*
X148766186Y-81516561D01*
X148806712Y-81545167D01*
X148984179Y-81670437D01*
X148984183Y-81670439D01*
X149221103Y-81793201D01*
X149221106Y-81793202D01*
X149221108Y-81793203D01*
X149472522Y-81882556D01*
X149472529Y-81882557D01*
X149472532Y-81882559D01*
X149472535Y-81882559D01*
X149472540Y-81882561D01*
X149733774Y-81936846D01*
X149733781Y-81936847D01*
X149733786Y-81936848D01*
X149733789Y-81936848D01*
X149733795Y-81936849D01*
X149999993Y-81955058D01*
X150000000Y-81955058D01*
X150000007Y-81955058D01*
X150266204Y-81936849D01*
X150266208Y-81936848D01*
X150266214Y-81936848D01*
X150266220Y-81936846D01*
X150266225Y-81936846D01*
X150527459Y-81882561D01*
X150527460Y-81882560D01*
X150527468Y-81882559D01*
X150527474Y-81882556D01*
X150527477Y-81882556D01*
X150678325Y-81828944D01*
X150778897Y-81793201D01*
X151015817Y-81670439D01*
X151233814Y-81516561D01*
X151428827Y-81334431D01*
X151597224Y-81127443D01*
X151735867Y-80899454D01*
X151842175Y-80654709D01*
X151914166Y-80397768D01*
X151924862Y-80319944D01*
X151932494Y-80264424D01*
X151961092Y-80215536D01*
X152005805Y-80200500D01*
X188395463Y-80200500D01*
X188447789Y-80222174D01*
X188468830Y-80264841D01*
X188480305Y-80352006D01*
X188541393Y-80579991D01*
X188631714Y-80798045D01*
X188631715Y-80798048D01*
X188749724Y-81002446D01*
X188749728Y-81002452D01*
X188893408Y-81189699D01*
X189060300Y-81356591D01*
X189247547Y-81500271D01*
X189247553Y-81500275D01*
X189451951Y-81618284D01*
X189670007Y-81708606D01*
X189897986Y-81769693D01*
X189897992Y-81769693D01*
X189897993Y-81769694D01*
X189916134Y-81772082D01*
X189985158Y-81781169D01*
X190034208Y-81809487D01*
X190049500Y-81854536D01*
X190049500Y-118145462D01*
X190027826Y-118197788D01*
X189985160Y-118218829D01*
X189897992Y-118230306D01*
X189897990Y-118230306D01*
X189897986Y-118230307D01*
X189794580Y-118258014D01*
X189670008Y-118291393D01*
X189451954Y-118381714D01*
X189451951Y-118381715D01*
X189247553Y-118499724D01*
X189247547Y-118499728D01*
X189060300Y-118643408D01*
X188893408Y-118810300D01*
X188749728Y-118997547D01*
X188749724Y-118997553D01*
X188631715Y-119201951D01*
X188631714Y-119201954D01*
X188541393Y-119420008D01*
X188480305Y-119647993D01*
X188468830Y-119735159D01*
X188440511Y-119784208D01*
X188395463Y-119799500D01*
X152005805Y-119799500D01*
X151953479Y-119777826D01*
X151932494Y-119735576D01*
X151914166Y-119602233D01*
X151897648Y-119543277D01*
X151842175Y-119345291D01*
X151735867Y-119100546D01*
X151641929Y-118946072D01*
X151597229Y-118872565D01*
X151597228Y-118872564D01*
X151597224Y-118872557D01*
X151428827Y-118665569D01*
X151233814Y-118483439D01*
X151193288Y-118454833D01*
X151015820Y-118329562D01*
X150778891Y-118206796D01*
X150527477Y-118117443D01*
X150527459Y-118117438D01*
X150266225Y-118063153D01*
X150266204Y-118063150D01*
X150000007Y-118044942D01*
X149999993Y-118044942D01*
X149733795Y-118063150D01*
X149733774Y-118063153D01*
X149472540Y-118117438D01*
X149472522Y-118117443D01*
X149221108Y-118206796D01*
X148984179Y-118329562D01*
X148766188Y-118483437D01*
X148594902Y-118643408D01*
X148571173Y-118665569D01*
X148471119Y-118788552D01*
X148402776Y-118872557D01*
X148402770Y-118872565D01*
X148264139Y-119100534D01*
X148264137Y-119100538D01*
X148264134Y-119100542D01*
X148264133Y-119100546D01*
X148220085Y-119201954D01*
X148157824Y-119345292D01*
X148085833Y-119602233D01*
X148067506Y-119735576D01*
X148038908Y-119784464D01*
X147994195Y-119799500D01*
X111604537Y-119799500D01*
X111552211Y-119777826D01*
X111531170Y-119735159D01*
X111519694Y-119647993D01*
X111519693Y-119647992D01*
X111519693Y-119647986D01*
X111458606Y-119420007D01*
X111368284Y-119201951D01*
X111309731Y-119100534D01*
X111250275Y-118997553D01*
X111250271Y-118997547D01*
X111106591Y-118810300D01*
X110939699Y-118643408D01*
X110752452Y-118499728D01*
X110752446Y-118499724D01*
X110548048Y-118381715D01*
X110548045Y-118381714D01*
X110329991Y-118291393D01*
X110251015Y-118270232D01*
X110102014Y-118230307D01*
X110102007Y-118230306D01*
X110014840Y-118218829D01*
X109965791Y-118190510D01*
X109950500Y-118145462D01*
X109950500Y-116647345D01*
X124894859Y-116647345D01*
X124894859Y-116647352D01*
X124915377Y-116868781D01*
X124915379Y-116868794D01*
X124976237Y-117082691D01*
X124976239Y-117082695D01*
X125075368Y-117281775D01*
X125075370Y-117281778D01*
X125121560Y-117342943D01*
X125713629Y-116750874D01*
X125727259Y-116801743D01*
X125779920Y-116892955D01*
X125854394Y-116967429D01*
X125945606Y-117020090D01*
X125996472Y-117033719D01*
X125403000Y-117627190D01*
X125562817Y-117726143D01*
X125562827Y-117726148D01*
X125770194Y-117806483D01*
X125988800Y-117847348D01*
X125988806Y-117847349D01*
X126211194Y-117847349D01*
X126211199Y-117847348D01*
X126429805Y-117806483D01*
X126637172Y-117726148D01*
X126637182Y-117726143D01*
X126796997Y-117627189D01*
X126203527Y-117033719D01*
X126254394Y-117020090D01*
X126345606Y-116967429D01*
X126420080Y-116892955D01*
X126472741Y-116801743D01*
X126486370Y-116750876D01*
X127078438Y-117342944D01*
X127124629Y-117281777D01*
X127124631Y-117281775D01*
X127223760Y-117082695D01*
X127223762Y-117082691D01*
X127284620Y-116868794D01*
X127284622Y-116868781D01*
X127305141Y-116647352D01*
X127305141Y-116647345D01*
X127284622Y-116425916D01*
X127284620Y-116425903D01*
X127223762Y-116212006D01*
X127223760Y-116212002D01*
X127124631Y-116012922D01*
X127124629Y-116012919D01*
X127078437Y-115951752D01*
X126486370Y-116543820D01*
X126472741Y-116492955D01*
X126420080Y-116401743D01*
X126345606Y-116327269D01*
X126254394Y-116274608D01*
X126203525Y-116260978D01*
X126796998Y-115667506D01*
X126637182Y-115568554D01*
X126637172Y-115568549D01*
X126429805Y-115488214D01*
X126211199Y-115447349D01*
X125988800Y-115447349D01*
X125770194Y-115488214D01*
X125562827Y-115568549D01*
X125562817Y-115568554D01*
X125403000Y-115667506D01*
X125996472Y-116260978D01*
X125945606Y-116274608D01*
X125854394Y-116327269D01*
X125779920Y-116401743D01*
X125727259Y-116492955D01*
X125713629Y-116543821D01*
X125121560Y-115951752D01*
X125075368Y-116012923D01*
X125075367Y-116012926D01*
X124976239Y-116212002D01*
X124976237Y-116212006D01*
X124915379Y-116425903D01*
X124915377Y-116425916D01*
X124894859Y-116647345D01*
X109950500Y-116647345D01*
X109950500Y-110300000D01*
X112269196Y-110300000D01*
X112290280Y-110433126D01*
X112351471Y-110553219D01*
X112351472Y-110553220D01*
X112446780Y-110648528D01*
X112566874Y-110709719D01*
X112675420Y-110726911D01*
X112723711Y-110756504D01*
X112736933Y-110811576D01*
X112707340Y-110859867D01*
X112675420Y-110873089D01*
X112566874Y-110890280D01*
X112566873Y-110890281D01*
X112446780Y-110951471D01*
X112351471Y-111046780D01*
X112290281Y-111166873D01*
X112290280Y-111166873D01*
X112269196Y-111300000D01*
X112290280Y-111433126D01*
X112351471Y-111553219D01*
X112351472Y-111553220D01*
X112446780Y-111648528D01*
X112566874Y-111709719D01*
X112675420Y-111726911D01*
X112723711Y-111756504D01*
X112736933Y-111811576D01*
X112707340Y-111859867D01*
X112675420Y-111873089D01*
X112566874Y-111890280D01*
X112566873Y-111890281D01*
X112446780Y-111951471D01*
X112351471Y-112046780D01*
X112290281Y-112166873D01*
X112290280Y-112166873D01*
X112269196Y-112300000D01*
X112290280Y-112433126D01*
X112351471Y-112553219D01*
X112351472Y-112553220D01*
X112446780Y-112648528D01*
X112566874Y-112709719D01*
X112675420Y-112726911D01*
X112723711Y-112756504D01*
X112736933Y-112811576D01*
X112707340Y-112859867D01*
X112675420Y-112873089D01*
X112566874Y-112890280D01*
X112566873Y-112890281D01*
X112446780Y-112951471D01*
X112351471Y-113046780D01*
X112290281Y-113166873D01*
X112290280Y-113166873D01*
X112269196Y-113300000D01*
X112290280Y-113433126D01*
X112350581Y-113551472D01*
X112351472Y-113553220D01*
X112446780Y-113648528D01*
X112566874Y-113709719D01*
X112675420Y-113726911D01*
X112723711Y-113756504D01*
X112736933Y-113811576D01*
X112707340Y-113859867D01*
X112675420Y-113873089D01*
X112566874Y-113890280D01*
X112566873Y-113890281D01*
X112446780Y-113951471D01*
X112351471Y-114046780D01*
X112290281Y-114166873D01*
X112290280Y-114166873D01*
X112269196Y-114300000D01*
X112290280Y-114433126D01*
X112351471Y-114553219D01*
X112351472Y-114553220D01*
X112446780Y-114648528D01*
X112566874Y-114709719D01*
X112675420Y-114726911D01*
X112723711Y-114756504D01*
X112736933Y-114811576D01*
X112707340Y-114859867D01*
X112675420Y-114873089D01*
X112566874Y-114890280D01*
X112566873Y-114890281D01*
X112446780Y-114951471D01*
X112351471Y-115046780D01*
X112290281Y-115166873D01*
X112290280Y-115166873D01*
X112269196Y-115300000D01*
X112290280Y-115433126D01*
X112351471Y-115553219D01*
X112351472Y-115553220D01*
X112446780Y-115648528D01*
X112566873Y-115709718D01*
X112566873Y-115709719D01*
X112585075Y-115712601D01*
X112700000Y-115730804D01*
X112833126Y-115709719D01*
X112953220Y-115648528D01*
X113048528Y-115553220D01*
X113109719Y-115433126D01*
X113130804Y-115300000D01*
X113130803Y-115299999D01*
X113131715Y-115294248D01*
X113134963Y-115294762D01*
X113152478Y-115252478D01*
X113194762Y-115234963D01*
X113194248Y-115231715D01*
X113333126Y-115209719D01*
X113453220Y-115148528D01*
X113548528Y-115053220D01*
X113609719Y-114933126D01*
X113630804Y-114800000D01*
X113609719Y-114666874D01*
X113609719Y-114666873D01*
X113548528Y-114546780D01*
X113453219Y-114451471D01*
X113333126Y-114390281D01*
X113333126Y-114390280D01*
X113233073Y-114374434D01*
X113224578Y-114373088D01*
X113176288Y-114343496D01*
X113163066Y-114288424D01*
X113192659Y-114240133D01*
X113224578Y-114226911D01*
X113333126Y-114209719D01*
X113453220Y-114148528D01*
X113548528Y-114053220D01*
X113609719Y-113933126D01*
X113630804Y-113800000D01*
X113609719Y-113666874D01*
X113609719Y-113666873D01*
X113548528Y-113546780D01*
X113453219Y-113451471D01*
X113333126Y-113390281D01*
X113333126Y-113390280D01*
X113233073Y-113374434D01*
X113224578Y-113373088D01*
X113176288Y-113343496D01*
X113163066Y-113288424D01*
X113192659Y-113240133D01*
X113224578Y-113226911D01*
X113333126Y-113209719D01*
X113453220Y-113148528D01*
X113548528Y-113053220D01*
X113609719Y-112933126D01*
X113630804Y-112800000D01*
X113610566Y-112672219D01*
X113609719Y-112666873D01*
X113548528Y-112546780D01*
X113453219Y-112451471D01*
X113333126Y-112390281D01*
X113333126Y-112390280D01*
X113233073Y-112374434D01*
X113224578Y-112373088D01*
X113176288Y-112343496D01*
X113172472Y-112327602D01*
X125099500Y-112327602D01*
X125099500Y-113967095D01*
X125111133Y-114025581D01*
X125129601Y-114053219D01*
X125155448Y-114091901D01*
X125199560Y-114121376D01*
X125221767Y-114136215D01*
X125221768Y-114136215D01*
X125221769Y-114136216D01*
X125280252Y-114147849D01*
X125280254Y-114147849D01*
X126919746Y-114147849D01*
X126919748Y-114147849D01*
X126978231Y-114136216D01*
X127044552Y-114091901D01*
X127088867Y-114025580D01*
X127100500Y-113967097D01*
X127100500Y-113900000D01*
X134044196Y-113900000D01*
X134065280Y-114033126D01*
X134123735Y-114147849D01*
X134126472Y-114153220D01*
X134221780Y-114248528D01*
X134341873Y-114309718D01*
X134341873Y-114309719D01*
X134360075Y-114312601D01*
X134475000Y-114330804D01*
X134608126Y-114309719D01*
X134728220Y-114248528D01*
X134823528Y-114153220D01*
X134884719Y-114033126D01*
X134905804Y-113900000D01*
X134884719Y-113766874D01*
X134884719Y-113766873D01*
X134823528Y-113646780D01*
X134728219Y-113551471D01*
X134608126Y-113490281D01*
X134608126Y-113490280D01*
X134475000Y-113469196D01*
X134341873Y-113490280D01*
X134341873Y-113490281D01*
X134221780Y-113551471D01*
X134126471Y-113646780D01*
X134065281Y-113766873D01*
X134065280Y-113766873D01*
X134044196Y-113900000D01*
X127100500Y-113900000D01*
X127100500Y-112327601D01*
X127088867Y-112269118D01*
X127084445Y-112262500D01*
X132369196Y-112262500D01*
X132390280Y-112395626D01*
X132451471Y-112515719D01*
X132451472Y-112515720D01*
X132546780Y-112611028D01*
X132666873Y-112672218D01*
X132666873Y-112672219D01*
X132685075Y-112675101D01*
X132800000Y-112693304D01*
X132933126Y-112672219D01*
X133053220Y-112611028D01*
X133148528Y-112515720D01*
X133209719Y-112395626D01*
X133230804Y-112262500D01*
X133209719Y-112129374D01*
X133209719Y-112129373D01*
X133148528Y-112009280D01*
X133053219Y-111913971D01*
X132933126Y-111852781D01*
X132933126Y-111852780D01*
X132800000Y-111831696D01*
X132666873Y-111852780D01*
X132666873Y-111852781D01*
X132546780Y-111913971D01*
X132451471Y-112009280D01*
X132390281Y-112129373D01*
X132390280Y-112129373D01*
X132369196Y-112262500D01*
X127084445Y-112262500D01*
X127044552Y-112202797D01*
X127022343Y-112187957D01*
X126978232Y-112158482D01*
X126978233Y-112158482D01*
X126948989Y-112152665D01*
X126919748Y-112146849D01*
X125280252Y-112146849D01*
X125251010Y-112152665D01*
X125221767Y-112158482D01*
X125155449Y-112202796D01*
X125155447Y-112202798D01*
X125111133Y-112269116D01*
X125099500Y-112327602D01*
X113172472Y-112327602D01*
X113163066Y-112288424D01*
X113192659Y-112240133D01*
X113224578Y-112226911D01*
X113333126Y-112209719D01*
X113453220Y-112148528D01*
X113548528Y-112053220D01*
X113609719Y-111933126D01*
X113630804Y-111800000D01*
X113609719Y-111666874D01*
X113609719Y-111666873D01*
X113548528Y-111546780D01*
X113453219Y-111451471D01*
X113333126Y-111390281D01*
X113333126Y-111390280D01*
X113233073Y-111374434D01*
X113224578Y-111373088D01*
X113176288Y-111343496D01*
X113163066Y-111288424D01*
X113192659Y-111240133D01*
X113224578Y-111226911D01*
X113333126Y-111209719D01*
X113453220Y-111148528D01*
X113548528Y-111053220D01*
X113609719Y-110933126D01*
X113630804Y-110800000D01*
X113609719Y-110666874D01*
X113609719Y-110666873D01*
X113548528Y-110546780D01*
X113490798Y-110489050D01*
X113469124Y-110436724D01*
X113490798Y-110384398D01*
X113509528Y-110370790D01*
X113553220Y-110348528D01*
X113648528Y-110253220D01*
X113709719Y-110133126D01*
X113730804Y-110000000D01*
X113715840Y-109905518D01*
X144699500Y-109905518D01*
X144699500Y-110094481D01*
X144729059Y-110281115D01*
X144729062Y-110281128D01*
X144787449Y-110460824D01*
X144873239Y-110629198D01*
X144947060Y-110730804D01*
X144984310Y-110782073D01*
X145117927Y-110915690D01*
X145270801Y-111026760D01*
X145439168Y-111112547D01*
X145439171Y-111112547D01*
X145439175Y-111112550D01*
X145618871Y-111170937D01*
X145618877Y-111170938D01*
X145618882Y-111170940D01*
X145743306Y-111190646D01*
X145805518Y-111200500D01*
X145805519Y-111200500D01*
X145994482Y-111200500D01*
X146041140Y-111193110D01*
X146181118Y-111170940D01*
X146181125Y-111170937D01*
X146181128Y-111170937D01*
X146360824Y-111112550D01*
X146360826Y-111112548D01*
X146360832Y-111112547D01*
X146529199Y-111026760D01*
X146682073Y-110915690D01*
X146815690Y-110782073D01*
X146926760Y-110629199D01*
X147012547Y-110460832D01*
X147015589Y-110451472D01*
X147030606Y-110405253D01*
X148274500Y-110405253D01*
X148274500Y-112144746D01*
X148286133Y-112203232D01*
X148315608Y-112247343D01*
X148330448Y-112269552D01*
X148374560Y-112299027D01*
X148396767Y-112313866D01*
X148396768Y-112313866D01*
X148396769Y-112313867D01*
X148455252Y-112325500D01*
X148455254Y-112325500D01*
X150194746Y-112325500D01*
X150194748Y-112325500D01*
X150253231Y-112313867D01*
X150319552Y-112269552D01*
X150363867Y-112203231D01*
X150375500Y-112144748D01*
X150375500Y-111275000D01*
X150809417Y-111275000D01*
X150829700Y-111480934D01*
X150889768Y-111678954D01*
X150987315Y-111861450D01*
X151118590Y-112021410D01*
X151278550Y-112152685D01*
X151461046Y-112250232D01*
X151659066Y-112310300D01*
X151865000Y-112330583D01*
X152070934Y-112310300D01*
X152268954Y-112250232D01*
X152451450Y-112152685D01*
X152611410Y-112021410D01*
X152742685Y-111861450D01*
X152840232Y-111678954D01*
X152900300Y-111480934D01*
X152920583Y-111275000D01*
X153349417Y-111275000D01*
X153369700Y-111480934D01*
X153429768Y-111678954D01*
X153527315Y-111861450D01*
X153658590Y-112021410D01*
X153818550Y-112152685D01*
X154001046Y-112250232D01*
X154199066Y-112310300D01*
X154405000Y-112330583D01*
X154610934Y-112310300D01*
X154808954Y-112250232D01*
X154991450Y-112152685D01*
X155151410Y-112021410D01*
X155282685Y-111861450D01*
X155380232Y-111678954D01*
X155440300Y-111480934D01*
X155460583Y-111275000D01*
X155889417Y-111275000D01*
X155909700Y-111480934D01*
X155969768Y-111678954D01*
X156067315Y-111861450D01*
X156198590Y-112021410D01*
X156358550Y-112152685D01*
X156541046Y-112250232D01*
X156739066Y-112310300D01*
X156945000Y-112330583D01*
X157150934Y-112310300D01*
X157348954Y-112250232D01*
X157531450Y-112152685D01*
X157691410Y-112021410D01*
X157822685Y-111861450D01*
X157920232Y-111678954D01*
X157980300Y-111480934D01*
X158000583Y-111275000D01*
X158429417Y-111275000D01*
X158449700Y-111480934D01*
X158509768Y-111678954D01*
X158607315Y-111861450D01*
X158738590Y-112021410D01*
X158898550Y-112152685D01*
X159081046Y-112250232D01*
X159279066Y-112310300D01*
X159485000Y-112330583D01*
X159690934Y-112310300D01*
X159888954Y-112250232D01*
X160071450Y-112152685D01*
X160231410Y-112021410D01*
X160362685Y-111861450D01*
X160460232Y-111678954D01*
X160520300Y-111480934D01*
X160540583Y-111275000D01*
X160969417Y-111275000D01*
X160989700Y-111480934D01*
X161049768Y-111678954D01*
X161147315Y-111861450D01*
X161278590Y-112021410D01*
X161438550Y-112152685D01*
X161621046Y-112250232D01*
X161819066Y-112310300D01*
X162025000Y-112330583D01*
X162230934Y-112310300D01*
X162428954Y-112250232D01*
X162611450Y-112152685D01*
X162771410Y-112021410D01*
X162902685Y-111861450D01*
X163000232Y-111678954D01*
X163060300Y-111480934D01*
X163080583Y-111275000D01*
X163509417Y-111275000D01*
X163529700Y-111480934D01*
X163589768Y-111678954D01*
X163687315Y-111861450D01*
X163818590Y-112021410D01*
X163978550Y-112152685D01*
X164161046Y-112250232D01*
X164359066Y-112310300D01*
X164565000Y-112330583D01*
X164770934Y-112310300D01*
X164968954Y-112250232D01*
X165151450Y-112152685D01*
X165311410Y-112021410D01*
X165442685Y-111861450D01*
X165540232Y-111678954D01*
X165600300Y-111480934D01*
X165620583Y-111275000D01*
X166049417Y-111275000D01*
X166069700Y-111480934D01*
X166129768Y-111678954D01*
X166227315Y-111861450D01*
X166358590Y-112021410D01*
X166518550Y-112152685D01*
X166701046Y-112250232D01*
X166899066Y-112310300D01*
X167105000Y-112330583D01*
X167310934Y-112310300D01*
X167508954Y-112250232D01*
X167691450Y-112152685D01*
X167851410Y-112021410D01*
X167982685Y-111861450D01*
X168080232Y-111678954D01*
X168140300Y-111480934D01*
X168160583Y-111275000D01*
X168589417Y-111275000D01*
X168609700Y-111480934D01*
X168669768Y-111678954D01*
X168767315Y-111861450D01*
X168898590Y-112021410D01*
X169058550Y-112152685D01*
X169241046Y-112250232D01*
X169439066Y-112310300D01*
X169645000Y-112330583D01*
X169850934Y-112310300D01*
X170048954Y-112250232D01*
X170231450Y-112152685D01*
X170391410Y-112021410D01*
X170522685Y-111861450D01*
X170620232Y-111678954D01*
X170680300Y-111480934D01*
X170700583Y-111275000D01*
X171129417Y-111275000D01*
X171149700Y-111480934D01*
X171209768Y-111678954D01*
X171307315Y-111861450D01*
X171438590Y-112021410D01*
X171598550Y-112152685D01*
X171781046Y-112250232D01*
X171979066Y-112310300D01*
X172185000Y-112330583D01*
X172390934Y-112310300D01*
X172588954Y-112250232D01*
X172771450Y-112152685D01*
X172931410Y-112021410D01*
X173062685Y-111861450D01*
X173160232Y-111678954D01*
X173220300Y-111480934D01*
X173240583Y-111275000D01*
X173669417Y-111275000D01*
X173689700Y-111480934D01*
X173749768Y-111678954D01*
X173847315Y-111861450D01*
X173978590Y-112021410D01*
X174138550Y-112152685D01*
X174321046Y-112250232D01*
X174519066Y-112310300D01*
X174725000Y-112330583D01*
X174930934Y-112310300D01*
X175128954Y-112250232D01*
X175311450Y-112152685D01*
X175471410Y-112021410D01*
X175602685Y-111861450D01*
X175700232Y-111678954D01*
X175760300Y-111480934D01*
X175780583Y-111275000D01*
X176209417Y-111275000D01*
X176229700Y-111480934D01*
X176289768Y-111678954D01*
X176387315Y-111861450D01*
X176518590Y-112021410D01*
X176678550Y-112152685D01*
X176861046Y-112250232D01*
X177059066Y-112310300D01*
X177265000Y-112330583D01*
X177470934Y-112310300D01*
X177668954Y-112250232D01*
X177851450Y-112152685D01*
X178011410Y-112021410D01*
X178142685Y-111861450D01*
X178240232Y-111678954D01*
X178300300Y-111480934D01*
X178320583Y-111275000D01*
X178749417Y-111275000D01*
X178769700Y-111480934D01*
X178829768Y-111678954D01*
X178927315Y-111861450D01*
X179058590Y-112021410D01*
X179218550Y-112152685D01*
X179401046Y-112250232D01*
X179599066Y-112310300D01*
X179805000Y-112330583D01*
X180010934Y-112310300D01*
X180208954Y-112250232D01*
X180391450Y-112152685D01*
X180551410Y-112021410D01*
X180682685Y-111861450D01*
X180780232Y-111678954D01*
X180840300Y-111480934D01*
X180860583Y-111275000D01*
X181289417Y-111275000D01*
X181309700Y-111480934D01*
X181369768Y-111678954D01*
X181467315Y-111861450D01*
X181598590Y-112021410D01*
X181758550Y-112152685D01*
X181941046Y-112250232D01*
X182139066Y-112310300D01*
X182345000Y-112330583D01*
X182550934Y-112310300D01*
X182748954Y-112250232D01*
X182931450Y-112152685D01*
X183091410Y-112021410D01*
X183222685Y-111861450D01*
X183320232Y-111678954D01*
X183380300Y-111480934D01*
X183400583Y-111275000D01*
X183829417Y-111275000D01*
X183849700Y-111480934D01*
X183909768Y-111678954D01*
X184007315Y-111861450D01*
X184138590Y-112021410D01*
X184298550Y-112152685D01*
X184481046Y-112250232D01*
X184679066Y-112310300D01*
X184885000Y-112330583D01*
X185090934Y-112310300D01*
X185288954Y-112250232D01*
X185471450Y-112152685D01*
X185631410Y-112021410D01*
X185762685Y-111861450D01*
X185860232Y-111678954D01*
X185920300Y-111480934D01*
X185940583Y-111275000D01*
X185920300Y-111069066D01*
X185860232Y-110871046D01*
X185762685Y-110688550D01*
X185631410Y-110528590D01*
X185548836Y-110460824D01*
X185471450Y-110397315D01*
X185288956Y-110299769D01*
X185288955Y-110299768D01*
X185288954Y-110299768D01*
X185135501Y-110253219D01*
X185090935Y-110239700D01*
X184885000Y-110219417D01*
X184679064Y-110239700D01*
X184481043Y-110299769D01*
X184298549Y-110397315D01*
X184138590Y-110528589D01*
X184138589Y-110528590D01*
X184007315Y-110688549D01*
X183909769Y-110871043D01*
X183909768Y-110871045D01*
X183909768Y-110871046D01*
X183903933Y-110890281D01*
X183849700Y-111069064D01*
X183840067Y-111166873D01*
X183829417Y-111275000D01*
X183400583Y-111275000D01*
X183380300Y-111069066D01*
X183320232Y-110871046D01*
X183222685Y-110688550D01*
X183091410Y-110528590D01*
X183008836Y-110460824D01*
X182931450Y-110397315D01*
X182748956Y-110299769D01*
X182748955Y-110299768D01*
X182748954Y-110299768D01*
X182595501Y-110253219D01*
X182550935Y-110239700D01*
X182345000Y-110219417D01*
X182139064Y-110239700D01*
X181941043Y-110299769D01*
X181758549Y-110397315D01*
X181598590Y-110528589D01*
X181598589Y-110528590D01*
X181467315Y-110688549D01*
X181369769Y-110871043D01*
X181369768Y-110871045D01*
X181369768Y-110871046D01*
X181363933Y-110890281D01*
X181309700Y-111069064D01*
X181300067Y-111166873D01*
X181289417Y-111275000D01*
X180860583Y-111275000D01*
X180840300Y-111069066D01*
X180780232Y-110871046D01*
X180682685Y-110688550D01*
X180551410Y-110528590D01*
X180468836Y-110460824D01*
X180391450Y-110397315D01*
X180208956Y-110299769D01*
X180208955Y-110299768D01*
X180208954Y-110299768D01*
X180055501Y-110253219D01*
X180010935Y-110239700D01*
X179805000Y-110219417D01*
X179599064Y-110239700D01*
X179401043Y-110299769D01*
X179218549Y-110397315D01*
X179058590Y-110528589D01*
X179058589Y-110528590D01*
X178927315Y-110688549D01*
X178829769Y-110871043D01*
X178829768Y-110871045D01*
X178829768Y-110871046D01*
X178823933Y-110890281D01*
X178769700Y-111069064D01*
X178760067Y-111166873D01*
X178749417Y-111275000D01*
X178320583Y-111275000D01*
X178300300Y-111069066D01*
X178240232Y-110871046D01*
X178142685Y-110688550D01*
X178011410Y-110528590D01*
X177928836Y-110460824D01*
X177851450Y-110397315D01*
X177668956Y-110299769D01*
X177668955Y-110299768D01*
X177668954Y-110299768D01*
X177515501Y-110253219D01*
X177470935Y-110239700D01*
X177265000Y-110219417D01*
X177059064Y-110239700D01*
X176861043Y-110299769D01*
X176678549Y-110397315D01*
X176518590Y-110528589D01*
X176518589Y-110528590D01*
X176387315Y-110688549D01*
X176289769Y-110871043D01*
X176289768Y-110871045D01*
X176289768Y-110871046D01*
X176283933Y-110890281D01*
X176229700Y-111069064D01*
X176220067Y-111166873D01*
X176209417Y-111275000D01*
X175780583Y-111275000D01*
X175760300Y-111069066D01*
X175700232Y-110871046D01*
X175602685Y-110688550D01*
X175471410Y-110528590D01*
X175388836Y-110460824D01*
X175311450Y-110397315D01*
X175128956Y-110299769D01*
X175128955Y-110299768D01*
X175128954Y-110299768D01*
X174975501Y-110253219D01*
X174930935Y-110239700D01*
X174725000Y-110219417D01*
X174519064Y-110239700D01*
X174321043Y-110299769D01*
X174138549Y-110397315D01*
X173978590Y-110528589D01*
X173978589Y-110528590D01*
X173847315Y-110688549D01*
X173749769Y-110871043D01*
X173749768Y-110871045D01*
X173749768Y-110871046D01*
X173743933Y-110890281D01*
X173689700Y-111069064D01*
X173680067Y-111166873D01*
X173669417Y-111275000D01*
X173240583Y-111275000D01*
X173220300Y-111069066D01*
X173160232Y-110871046D01*
X173062685Y-110688550D01*
X172931410Y-110528590D01*
X172848836Y-110460824D01*
X172771450Y-110397315D01*
X172588956Y-110299769D01*
X172588955Y-110299768D01*
X172588954Y-110299768D01*
X172435501Y-110253219D01*
X172390935Y-110239700D01*
X172185000Y-110219417D01*
X171979064Y-110239700D01*
X171781043Y-110299769D01*
X171598549Y-110397315D01*
X171438590Y-110528589D01*
X171438589Y-110528590D01*
X171307315Y-110688549D01*
X171209769Y-110871043D01*
X171209768Y-110871045D01*
X171209768Y-110871046D01*
X171203933Y-110890281D01*
X171149700Y-111069064D01*
X171140067Y-111166873D01*
X171129417Y-111275000D01*
X170700583Y-111275000D01*
X170680300Y-111069066D01*
X170620232Y-110871046D01*
X170522685Y-110688550D01*
X170391410Y-110528590D01*
X170308836Y-110460824D01*
X170231450Y-110397315D01*
X170048956Y-110299769D01*
X170048955Y-110299768D01*
X170048954Y-110299768D01*
X169895501Y-110253219D01*
X169850935Y-110239700D01*
X169645000Y-110219417D01*
X169439064Y-110239700D01*
X169241043Y-110299769D01*
X169058549Y-110397315D01*
X168898590Y-110528589D01*
X168898589Y-110528590D01*
X168767315Y-110688549D01*
X168669769Y-110871043D01*
X168669768Y-110871045D01*
X168669768Y-110871046D01*
X168663933Y-110890281D01*
X168609700Y-111069064D01*
X168600067Y-111166873D01*
X168589417Y-111275000D01*
X168160583Y-111275000D01*
X168140300Y-111069066D01*
X168080232Y-110871046D01*
X167982685Y-110688550D01*
X167851410Y-110528590D01*
X167768836Y-110460824D01*
X167691450Y-110397315D01*
X167508956Y-110299769D01*
X167508955Y-110299768D01*
X167508954Y-110299768D01*
X167355501Y-110253219D01*
X167310935Y-110239700D01*
X167105000Y-110219417D01*
X166899064Y-110239700D01*
X166701043Y-110299769D01*
X166518549Y-110397315D01*
X166358590Y-110528589D01*
X166358589Y-110528590D01*
X166227315Y-110688549D01*
X166129769Y-110871043D01*
X166129768Y-110871045D01*
X166129768Y-110871046D01*
X166123933Y-110890281D01*
X166069700Y-111069064D01*
X166060067Y-111166873D01*
X166049417Y-111275000D01*
X165620583Y-111275000D01*
X165600300Y-111069066D01*
X165540232Y-110871046D01*
X165442685Y-110688550D01*
X165311410Y-110528590D01*
X165228836Y-110460824D01*
X165151450Y-110397315D01*
X164968956Y-110299769D01*
X164968955Y-110299768D01*
X164968954Y-110299768D01*
X164815501Y-110253219D01*
X164770935Y-110239700D01*
X164565000Y-110219417D01*
X164359064Y-110239700D01*
X164161043Y-110299769D01*
X163978549Y-110397315D01*
X163818590Y-110528589D01*
X163818589Y-110528590D01*
X163687315Y-110688549D01*
X163589769Y-110871043D01*
X163589768Y-110871045D01*
X163589768Y-110871046D01*
X163583933Y-110890281D01*
X163529700Y-111069064D01*
X163520067Y-111166873D01*
X163509417Y-111275000D01*
X163080583Y-111275000D01*
X163060300Y-111069066D01*
X163000232Y-110871046D01*
X162902685Y-110688550D01*
X162771410Y-110528590D01*
X162688836Y-110460824D01*
X162611450Y-110397315D01*
X162428956Y-110299769D01*
X162428955Y-110299768D01*
X162428954Y-110299768D01*
X162275501Y-110253219D01*
X162230935Y-110239700D01*
X162025000Y-110219417D01*
X161819064Y-110239700D01*
X161621043Y-110299769D01*
X161438549Y-110397315D01*
X161278590Y-110528589D01*
X161278589Y-110528590D01*
X161147315Y-110688549D01*
X161049769Y-110871043D01*
X161049768Y-110871045D01*
X161049768Y-110871046D01*
X161043933Y-110890281D01*
X160989700Y-111069064D01*
X160980067Y-111166873D01*
X160969417Y-111275000D01*
X160540583Y-111275000D01*
X160520300Y-111069066D01*
X160460232Y-110871046D01*
X160362685Y-110688550D01*
X160231410Y-110528590D01*
X160148836Y-110460824D01*
X160071450Y-110397315D01*
X159888956Y-110299769D01*
X159888955Y-110299768D01*
X159888954Y-110299768D01*
X159735501Y-110253219D01*
X159690935Y-110239700D01*
X159485000Y-110219417D01*
X159279064Y-110239700D01*
X159081043Y-110299769D01*
X158898549Y-110397315D01*
X158738590Y-110528589D01*
X158738589Y-110528590D01*
X158607315Y-110688549D01*
X158509769Y-110871043D01*
X158509768Y-110871045D01*
X158509768Y-110871046D01*
X158503933Y-110890281D01*
X158449700Y-111069064D01*
X158440067Y-111166873D01*
X158429417Y-111275000D01*
X158000583Y-111275000D01*
X157980300Y-111069066D01*
X157920232Y-110871046D01*
X157822685Y-110688550D01*
X157691410Y-110528590D01*
X157608836Y-110460824D01*
X157531450Y-110397315D01*
X157348956Y-110299769D01*
X157348955Y-110299768D01*
X157348954Y-110299768D01*
X157195501Y-110253219D01*
X157150935Y-110239700D01*
X156945000Y-110219417D01*
X156739064Y-110239700D01*
X156541043Y-110299769D01*
X156358549Y-110397315D01*
X156198590Y-110528589D01*
X156198589Y-110528590D01*
X156067315Y-110688549D01*
X155969769Y-110871043D01*
X155969768Y-110871045D01*
X155969768Y-110871046D01*
X155963933Y-110890281D01*
X155909700Y-111069064D01*
X155900067Y-111166873D01*
X155889417Y-111275000D01*
X155460583Y-111275000D01*
X155440300Y-111069066D01*
X155380232Y-110871046D01*
X155282685Y-110688550D01*
X155151410Y-110528590D01*
X155068836Y-110460824D01*
X154991450Y-110397315D01*
X154808956Y-110299769D01*
X154808955Y-110299768D01*
X154808954Y-110299768D01*
X154655501Y-110253219D01*
X154610935Y-110239700D01*
X154405000Y-110219417D01*
X154199064Y-110239700D01*
X154001043Y-110299769D01*
X153818549Y-110397315D01*
X153658590Y-110528589D01*
X153658589Y-110528590D01*
X153527315Y-110688549D01*
X153429769Y-110871043D01*
X153429768Y-110871045D01*
X153429768Y-110871046D01*
X153423933Y-110890281D01*
X153369700Y-111069064D01*
X153360067Y-111166873D01*
X153349417Y-111275000D01*
X152920583Y-111275000D01*
X152900300Y-111069066D01*
X152840232Y-110871046D01*
X152742685Y-110688550D01*
X152611410Y-110528590D01*
X152528836Y-110460824D01*
X152451450Y-110397315D01*
X152268956Y-110299769D01*
X152268955Y-110299768D01*
X152268954Y-110299768D01*
X152115501Y-110253219D01*
X152070935Y-110239700D01*
X151865000Y-110219417D01*
X151659064Y-110239700D01*
X151461043Y-110299769D01*
X151278549Y-110397315D01*
X151118590Y-110528589D01*
X151118589Y-110528590D01*
X150987315Y-110688549D01*
X150889769Y-110871043D01*
X150889768Y-110871045D01*
X150889768Y-110871046D01*
X150883933Y-110890281D01*
X150829700Y-111069064D01*
X150820067Y-111166873D01*
X150809417Y-111275000D01*
X150375500Y-111275000D01*
X150375500Y-110405252D01*
X150363867Y-110346769D01*
X150319552Y-110280448D01*
X150297343Y-110265608D01*
X150253232Y-110236133D01*
X150253233Y-110236133D01*
X150223989Y-110230316D01*
X150194748Y-110224500D01*
X148455252Y-110224500D01*
X148426010Y-110230316D01*
X148396767Y-110236133D01*
X148330449Y-110280447D01*
X148330447Y-110280449D01*
X148286133Y-110346767D01*
X148274500Y-110405253D01*
X147030606Y-110405253D01*
X147070937Y-110281128D01*
X147070937Y-110281125D01*
X147070940Y-110281118D01*
X147100500Y-110094481D01*
X147100500Y-109905519D01*
X147098086Y-109890280D01*
X147087219Y-109821665D01*
X147070940Y-109718882D01*
X147070938Y-109718877D01*
X147070937Y-109718871D01*
X147012550Y-109539175D01*
X147012547Y-109539171D01*
X147012547Y-109539168D01*
X146926760Y-109370801D01*
X146815690Y-109217927D01*
X146682073Y-109084310D01*
X146682070Y-109084307D01*
X146682068Y-109084306D01*
X146529198Y-108973239D01*
X146360824Y-108887449D01*
X146181128Y-108829062D01*
X146181115Y-108829059D01*
X145994482Y-108799500D01*
X145994481Y-108799500D01*
X145805519Y-108799500D01*
X145805518Y-108799500D01*
X145618884Y-108829059D01*
X145618871Y-108829062D01*
X145439175Y-108887449D01*
X145270801Y-108973239D01*
X145117931Y-109084306D01*
X144984306Y-109217931D01*
X144873239Y-109370801D01*
X144787449Y-109539175D01*
X144729062Y-109718871D01*
X144729059Y-109718884D01*
X144699500Y-109905518D01*
X113715840Y-109905518D01*
X113709719Y-109866874D01*
X113709719Y-109866873D01*
X113648528Y-109746780D01*
X113553219Y-109651471D01*
X113433126Y-109590281D01*
X113433126Y-109590280D01*
X113300000Y-109569196D01*
X113166873Y-109590280D01*
X113166873Y-109590281D01*
X113046780Y-109651471D01*
X112951473Y-109746778D01*
X112899385Y-109849006D01*
X112856318Y-109885788D01*
X112821875Y-109888499D01*
X112700000Y-109869196D01*
X112566873Y-109890280D01*
X112566873Y-109890281D01*
X112446780Y-109951471D01*
X112351471Y-110046780D01*
X112290281Y-110166873D01*
X112290280Y-110166873D01*
X112269196Y-110300000D01*
X109950500Y-110300000D01*
X109950500Y-108535000D01*
X148087723Y-108535000D01*
X148863120Y-108535000D01*
X148859075Y-108542007D01*
X148825000Y-108669174D01*
X148825000Y-108800826D01*
X148859075Y-108927993D01*
X148863120Y-108935000D01*
X148087723Y-108935000D01*
X148089287Y-108952886D01*
X148089288Y-108952893D01*
X148145895Y-109164153D01*
X148238334Y-109362388D01*
X148363785Y-109541551D01*
X148518448Y-109696214D01*
X148697611Y-109821665D01*
X148895846Y-109914104D01*
X149107106Y-109970711D01*
X149107113Y-109970712D01*
X149125000Y-109972277D01*
X149125000Y-109196879D01*
X149132007Y-109200925D01*
X149259174Y-109235000D01*
X149390826Y-109235000D01*
X149517993Y-109200925D01*
X149525000Y-109196879D01*
X149525000Y-109972276D01*
X149542886Y-109970712D01*
X149542893Y-109970711D01*
X149754153Y-109914104D01*
X149952388Y-109821665D01*
X150131551Y-109696214D01*
X150286214Y-109541551D01*
X150411665Y-109362388D01*
X150504101Y-109164158D01*
X150523521Y-109091685D01*
X150558000Y-109046752D01*
X150614153Y-109039359D01*
X150659086Y-109073838D01*
X150666479Y-109091685D01*
X150685898Y-109164158D01*
X150778334Y-109362388D01*
X150903785Y-109541551D01*
X151058448Y-109696214D01*
X151237611Y-109821665D01*
X151435846Y-109914104D01*
X151647106Y-109970711D01*
X151647113Y-109970712D01*
X151665000Y-109972277D01*
X151665000Y-109196879D01*
X151672007Y-109200925D01*
X151799174Y-109235000D01*
X151930826Y-109235000D01*
X152057993Y-109200925D01*
X152065000Y-109196879D01*
X152065000Y-109972276D01*
X152082886Y-109970712D01*
X152082893Y-109970711D01*
X152294153Y-109914104D01*
X152492388Y-109821665D01*
X152671551Y-109696214D01*
X152826214Y-109541551D01*
X152951665Y-109362388D01*
X153044101Y-109164158D01*
X153063521Y-109091685D01*
X153098000Y-109046752D01*
X153154153Y-109039359D01*
X153199086Y-109073838D01*
X153206479Y-109091685D01*
X153225898Y-109164158D01*
X153318334Y-109362388D01*
X153443785Y-109541551D01*
X153598448Y-109696214D01*
X153777611Y-109821665D01*
X153975846Y-109914104D01*
X154187106Y-109970711D01*
X154187113Y-109970712D01*
X154205000Y-109972277D01*
X154205000Y-109196879D01*
X154212007Y-109200925D01*
X154339174Y-109235000D01*
X154470826Y-109235000D01*
X154597993Y-109200925D01*
X154605000Y-109196879D01*
X154605000Y-109972276D01*
X154622886Y-109970712D01*
X154622893Y-109970711D01*
X154834153Y-109914104D01*
X155032388Y-109821665D01*
X155211551Y-109696214D01*
X155366214Y-109541551D01*
X155491665Y-109362388D01*
X155584101Y-109164158D01*
X155603521Y-109091685D01*
X155638000Y-109046752D01*
X155694153Y-109039359D01*
X155739086Y-109073838D01*
X155746479Y-109091685D01*
X155765898Y-109164158D01*
X155858334Y-109362388D01*
X155983785Y-109541551D01*
X156138448Y-109696214D01*
X156317611Y-109821665D01*
X156515846Y-109914104D01*
X156727106Y-109970711D01*
X156727113Y-109970712D01*
X156745000Y-109972277D01*
X156745000Y-109196879D01*
X156752007Y-109200925D01*
X156879174Y-109235000D01*
X157010826Y-109235000D01*
X157137993Y-109200925D01*
X157145000Y-109196879D01*
X157145000Y-109972276D01*
X157162886Y-109970712D01*
X157162893Y-109970711D01*
X157374153Y-109914104D01*
X157572388Y-109821665D01*
X157751551Y-109696214D01*
X157906214Y-109541551D01*
X158031665Y-109362388D01*
X158124101Y-109164158D01*
X158143521Y-109091685D01*
X158178000Y-109046752D01*
X158234153Y-109039359D01*
X158279086Y-109073838D01*
X158286479Y-109091685D01*
X158305898Y-109164158D01*
X158398334Y-109362388D01*
X158523785Y-109541551D01*
X158678448Y-109696214D01*
X158857611Y-109821665D01*
X159055846Y-109914104D01*
X159267106Y-109970711D01*
X159267113Y-109970712D01*
X159285000Y-109972277D01*
X159285000Y-109196879D01*
X159292007Y-109200925D01*
X159419174Y-109235000D01*
X159550826Y-109235000D01*
X159677993Y-109200925D01*
X159685000Y-109196879D01*
X159685000Y-109972277D01*
X159702886Y-109970712D01*
X159702893Y-109970711D01*
X159914153Y-109914104D01*
X160112388Y-109821665D01*
X160291551Y-109696214D01*
X160446214Y-109541551D01*
X160571665Y-109362388D01*
X160664101Y-109164158D01*
X160683521Y-109091685D01*
X160718000Y-109046752D01*
X160774153Y-109039359D01*
X160819086Y-109073838D01*
X160826479Y-109091685D01*
X160845898Y-109164158D01*
X160938334Y-109362388D01*
X161063785Y-109541551D01*
X161218448Y-109696214D01*
X161397611Y-109821665D01*
X161595846Y-109914104D01*
X161807106Y-109970711D01*
X161807113Y-109970712D01*
X161825000Y-109972277D01*
X161825000Y-109196879D01*
X161832007Y-109200925D01*
X161959174Y-109235000D01*
X162090826Y-109235000D01*
X162217993Y-109200925D01*
X162225000Y-109196879D01*
X162225000Y-109972277D01*
X162242886Y-109970712D01*
X162242893Y-109970711D01*
X162454153Y-109914104D01*
X162652388Y-109821665D01*
X162831551Y-109696214D01*
X162986214Y-109541551D01*
X163111665Y-109362388D01*
X163204101Y-109164158D01*
X163223521Y-109091685D01*
X163258000Y-109046752D01*
X163314153Y-109039359D01*
X163359086Y-109073838D01*
X163366479Y-109091685D01*
X163385898Y-109164158D01*
X163478334Y-109362388D01*
X163603785Y-109541551D01*
X163758448Y-109696214D01*
X163937611Y-109821665D01*
X164135846Y-109914104D01*
X164347106Y-109970711D01*
X164347113Y-109970712D01*
X164365000Y-109972277D01*
X164365000Y-109196879D01*
X164372007Y-109200925D01*
X164499174Y-109235000D01*
X164630826Y-109235000D01*
X164757993Y-109200925D01*
X164765000Y-109196879D01*
X164765000Y-109972277D01*
X164782886Y-109970712D01*
X164782893Y-109970711D01*
X164994153Y-109914104D01*
X165192388Y-109821665D01*
X165371551Y-109696214D01*
X165526214Y-109541551D01*
X165651665Y-109362388D01*
X165744101Y-109164158D01*
X165763521Y-109091685D01*
X165798000Y-109046752D01*
X165854153Y-109039359D01*
X165899086Y-109073838D01*
X165906479Y-109091685D01*
X165925898Y-109164158D01*
X166018334Y-109362388D01*
X166143785Y-109541551D01*
X166298448Y-109696214D01*
X166477611Y-109821665D01*
X166675846Y-109914104D01*
X166887106Y-109970711D01*
X166887113Y-109970712D01*
X166905000Y-109972277D01*
X166905000Y-109196879D01*
X166912007Y-109200925D01*
X167039174Y-109235000D01*
X167170826Y-109235000D01*
X167297993Y-109200925D01*
X167305000Y-109196879D01*
X167305000Y-109972276D01*
X167322886Y-109970712D01*
X167322893Y-109970711D01*
X167534153Y-109914104D01*
X167732388Y-109821665D01*
X167911551Y-109696214D01*
X168066214Y-109541551D01*
X168191665Y-109362388D01*
X168284101Y-109164158D01*
X168303521Y-109091685D01*
X168338000Y-109046752D01*
X168394153Y-109039359D01*
X168439086Y-109073838D01*
X168446479Y-109091685D01*
X168465898Y-109164158D01*
X168558334Y-109362388D01*
X168683785Y-109541551D01*
X168838448Y-109696214D01*
X169017611Y-109821665D01*
X169215846Y-109914104D01*
X169427106Y-109970711D01*
X169427113Y-109970712D01*
X169445000Y-109972277D01*
X169445000Y-109196879D01*
X169452007Y-109200925D01*
X169579174Y-109235000D01*
X169710826Y-109235000D01*
X169837993Y-109200925D01*
X169845000Y-109196879D01*
X169845000Y-109972277D01*
X169862886Y-109970712D01*
X169862893Y-109970711D01*
X170074153Y-109914104D01*
X170272388Y-109821665D01*
X170451551Y-109696214D01*
X170606214Y-109541551D01*
X170731665Y-109362388D01*
X170824101Y-109164158D01*
X170843521Y-109091685D01*
X170878000Y-109046752D01*
X170934153Y-109039359D01*
X170979086Y-109073838D01*
X170986479Y-109091685D01*
X171005898Y-109164158D01*
X171098334Y-109362388D01*
X171223785Y-109541551D01*
X171378448Y-109696214D01*
X171557611Y-109821665D01*
X171755846Y-109914104D01*
X171967106Y-109970711D01*
X171967113Y-109970712D01*
X171985000Y-109972277D01*
X171985000Y-109196879D01*
X171992007Y-109200925D01*
X172119174Y-109235000D01*
X172250826Y-109235000D01*
X172377993Y-109200925D01*
X172385000Y-109196879D01*
X172385000Y-109972277D01*
X172402886Y-109970712D01*
X172402893Y-109970711D01*
X172614153Y-109914104D01*
X172812388Y-109821665D01*
X172991551Y-109696214D01*
X173146214Y-109541551D01*
X173271665Y-109362388D01*
X173364101Y-109164158D01*
X173383521Y-109091685D01*
X173418000Y-109046752D01*
X173474153Y-109039359D01*
X173519086Y-109073838D01*
X173526479Y-109091685D01*
X173545898Y-109164158D01*
X173638334Y-109362388D01*
X173763785Y-109541551D01*
X173918448Y-109696214D01*
X174097611Y-109821665D01*
X174295846Y-109914104D01*
X174507106Y-109970711D01*
X174507113Y-109970712D01*
X174525000Y-109972277D01*
X174525000Y-109196879D01*
X174532007Y-109200925D01*
X174659174Y-109235000D01*
X174790826Y-109235000D01*
X174917993Y-109200925D01*
X174925000Y-109196879D01*
X174925000Y-109972276D01*
X174942886Y-109970712D01*
X174942893Y-109970711D01*
X175154153Y-109914104D01*
X175352388Y-109821665D01*
X175531551Y-109696214D01*
X175686214Y-109541551D01*
X175811665Y-109362388D01*
X175904101Y-109164158D01*
X175923521Y-109091685D01*
X175958000Y-109046752D01*
X176014153Y-109039359D01*
X176059086Y-109073838D01*
X176066479Y-109091685D01*
X176085898Y-109164158D01*
X176178334Y-109362388D01*
X176303785Y-109541551D01*
X176458448Y-109696214D01*
X176637611Y-109821665D01*
X176835846Y-109914104D01*
X177047106Y-109970711D01*
X177047113Y-109970712D01*
X177065000Y-109972277D01*
X177065000Y-109196879D01*
X177072007Y-109200925D01*
X177199174Y-109235000D01*
X177330826Y-109235000D01*
X177457993Y-109200925D01*
X177465000Y-109196879D01*
X177465000Y-109972276D01*
X177482886Y-109970712D01*
X177482893Y-109970711D01*
X177694153Y-109914104D01*
X177892388Y-109821665D01*
X178071551Y-109696214D01*
X178226214Y-109541551D01*
X178351665Y-109362388D01*
X178444101Y-109164158D01*
X178463521Y-109091685D01*
X178498000Y-109046752D01*
X178554153Y-109039359D01*
X178599086Y-109073838D01*
X178606479Y-109091685D01*
X178625898Y-109164158D01*
X178718334Y-109362388D01*
X178843785Y-109541551D01*
X178998448Y-109696214D01*
X179177611Y-109821665D01*
X179375846Y-109914104D01*
X179587106Y-109970711D01*
X179587113Y-109970712D01*
X179605000Y-109972277D01*
X179605000Y-109196879D01*
X179612007Y-109200925D01*
X179739174Y-109235000D01*
X179870826Y-109235000D01*
X179997993Y-109200925D01*
X180005000Y-109196879D01*
X180005000Y-109972276D01*
X180022886Y-109970712D01*
X180022893Y-109970711D01*
X180234153Y-109914104D01*
X180432388Y-109821665D01*
X180611551Y-109696214D01*
X180766214Y-109541551D01*
X180891665Y-109362388D01*
X180984101Y-109164158D01*
X181003521Y-109091685D01*
X181038000Y-109046752D01*
X181094153Y-109039359D01*
X181139086Y-109073838D01*
X181146479Y-109091685D01*
X181165898Y-109164158D01*
X181258334Y-109362388D01*
X181383785Y-109541551D01*
X181538448Y-109696214D01*
X181717611Y-109821665D01*
X181915846Y-109914104D01*
X182127106Y-109970711D01*
X182127113Y-109970712D01*
X182145000Y-109972277D01*
X182145000Y-109196879D01*
X182152007Y-109200925D01*
X182279174Y-109235000D01*
X182410826Y-109235000D01*
X182537993Y-109200925D01*
X182545000Y-109196879D01*
X182545000Y-109972276D01*
X182562886Y-109970712D01*
X182562893Y-109970711D01*
X182774153Y-109914104D01*
X182972388Y-109821665D01*
X183151551Y-109696214D01*
X183306214Y-109541551D01*
X183431665Y-109362388D01*
X183524101Y-109164158D01*
X183543521Y-109091685D01*
X183578000Y-109046752D01*
X183634153Y-109039359D01*
X183679086Y-109073838D01*
X183686479Y-109091685D01*
X183705898Y-109164158D01*
X183798334Y-109362388D01*
X183923785Y-109541551D01*
X184078448Y-109696214D01*
X184257611Y-109821665D01*
X184455846Y-109914104D01*
X184667106Y-109970711D01*
X184667113Y-109970712D01*
X184685000Y-109972277D01*
X184685000Y-109196879D01*
X184692007Y-109200925D01*
X184819174Y-109235000D01*
X184950826Y-109235000D01*
X185077993Y-109200925D01*
X185085000Y-109196879D01*
X185085000Y-109972276D01*
X185102886Y-109970712D01*
X185102893Y-109970711D01*
X185314153Y-109914104D01*
X185332566Y-109905518D01*
X187099500Y-109905518D01*
X187099500Y-110094481D01*
X187129059Y-110281115D01*
X187129062Y-110281128D01*
X187187449Y-110460824D01*
X187273239Y-110629198D01*
X187347060Y-110730804D01*
X187384310Y-110782073D01*
X187517927Y-110915690D01*
X187670801Y-111026760D01*
X187839168Y-111112547D01*
X187839171Y-111112547D01*
X187839175Y-111112550D01*
X188018871Y-111170937D01*
X188018877Y-111170938D01*
X188018882Y-111170940D01*
X188143306Y-111190646D01*
X188205518Y-111200500D01*
X188205519Y-111200500D01*
X188394482Y-111200500D01*
X188441140Y-111193110D01*
X188581118Y-111170940D01*
X188581125Y-111170937D01*
X188581128Y-111170937D01*
X188760824Y-111112550D01*
X188760826Y-111112548D01*
X188760832Y-111112547D01*
X188929199Y-111026760D01*
X189082073Y-110915690D01*
X189215690Y-110782073D01*
X189326760Y-110629199D01*
X189412547Y-110460832D01*
X189415589Y-110451472D01*
X189470937Y-110281128D01*
X189470937Y-110281125D01*
X189470940Y-110281118D01*
X189500500Y-110094481D01*
X189500500Y-109905519D01*
X189498086Y-109890280D01*
X189487219Y-109821665D01*
X189470940Y-109718882D01*
X189470938Y-109718877D01*
X189470937Y-109718871D01*
X189412550Y-109539175D01*
X189412547Y-109539171D01*
X189412547Y-109539168D01*
X189326760Y-109370801D01*
X189215690Y-109217927D01*
X189082073Y-109084310D01*
X189082070Y-109084307D01*
X189082068Y-109084306D01*
X188929198Y-108973239D01*
X188760824Y-108887449D01*
X188581128Y-108829062D01*
X188581115Y-108829059D01*
X188394482Y-108799500D01*
X188394481Y-108799500D01*
X188205519Y-108799500D01*
X188205518Y-108799500D01*
X188018884Y-108829059D01*
X188018871Y-108829062D01*
X187839175Y-108887449D01*
X187670801Y-108973239D01*
X187517931Y-109084306D01*
X187384306Y-109217931D01*
X187273239Y-109370801D01*
X187187449Y-109539175D01*
X187129062Y-109718871D01*
X187129059Y-109718884D01*
X187099500Y-109905518D01*
X185332566Y-109905518D01*
X185512388Y-109821665D01*
X185691551Y-109696214D01*
X185846214Y-109541551D01*
X185971665Y-109362388D01*
X186064104Y-109164153D01*
X186120711Y-108952893D01*
X186120712Y-108952886D01*
X186122277Y-108935000D01*
X185346880Y-108935000D01*
X185350925Y-108927993D01*
X185385000Y-108800826D01*
X185385000Y-108669174D01*
X185350925Y-108542007D01*
X185346880Y-108535000D01*
X186122277Y-108535000D01*
X186120712Y-108517113D01*
X186120711Y-108517106D01*
X186064105Y-108305849D01*
X186064100Y-108305838D01*
X185971665Y-108107612D01*
X185846212Y-107928445D01*
X185691551Y-107773785D01*
X185691552Y-107773785D01*
X185512388Y-107648334D01*
X185314153Y-107555895D01*
X185102896Y-107499288D01*
X185085000Y-107497722D01*
X185085000Y-108273120D01*
X185077993Y-108269075D01*
X184950826Y-108235000D01*
X184819174Y-108235000D01*
X184692007Y-108269075D01*
X184685000Y-108273120D01*
X184685000Y-107497722D01*
X184667103Y-107499288D01*
X184455849Y-107555894D01*
X184455838Y-107555899D01*
X184257612Y-107648334D01*
X184078445Y-107773787D01*
X183923787Y-107928445D01*
X183798334Y-108107612D01*
X183705899Y-108305838D01*
X183705894Y-108305849D01*
X183686478Y-108378314D01*
X183652000Y-108423247D01*
X183595847Y-108430639D01*
X183550914Y-108396161D01*
X183543522Y-108378314D01*
X183524105Y-108305849D01*
X183524100Y-108305838D01*
X183431665Y-108107612D01*
X183306212Y-107928445D01*
X183151551Y-107773785D01*
X183151552Y-107773785D01*
X182972388Y-107648334D01*
X182774153Y-107555895D01*
X182562896Y-107499288D01*
X182545000Y-107497722D01*
X182545000Y-108273120D01*
X182537993Y-108269075D01*
X182410826Y-108235000D01*
X182279174Y-108235000D01*
X182152007Y-108269075D01*
X182145000Y-108273120D01*
X182145000Y-107497722D01*
X182127103Y-107499288D01*
X181915849Y-107555894D01*
X181915838Y-107555899D01*
X181717612Y-107648334D01*
X181538445Y-107773787D01*
X181383787Y-107928445D01*
X181258334Y-108107612D01*
X181165899Y-108305838D01*
X181165894Y-108305849D01*
X181146478Y-108378314D01*
X181112000Y-108423247D01*
X181055847Y-108430639D01*
X181010914Y-108396161D01*
X181003522Y-108378314D01*
X180984105Y-108305849D01*
X180984100Y-108305838D01*
X180891665Y-108107612D01*
X180766212Y-107928445D01*
X180611551Y-107773785D01*
X180611552Y-107773785D01*
X180432388Y-107648334D01*
X180234153Y-107555895D01*
X180022896Y-107499288D01*
X180005000Y-107497722D01*
X180005000Y-108273120D01*
X179997993Y-108269075D01*
X179870826Y-108235000D01*
X179739174Y-108235000D01*
X179612007Y-108269075D01*
X179605000Y-108273120D01*
X179605000Y-107497722D01*
X179587103Y-107499288D01*
X179375849Y-107555894D01*
X179375838Y-107555899D01*
X179177612Y-107648334D01*
X178998445Y-107773787D01*
X178843787Y-107928445D01*
X178718334Y-108107612D01*
X178625899Y-108305838D01*
X178625894Y-108305849D01*
X178606478Y-108378314D01*
X178572000Y-108423247D01*
X178515847Y-108430639D01*
X178470914Y-108396161D01*
X178463522Y-108378314D01*
X178444105Y-108305849D01*
X178444100Y-108305838D01*
X178351665Y-108107612D01*
X178226212Y-107928445D01*
X178071551Y-107773785D01*
X178071552Y-107773785D01*
X177892388Y-107648334D01*
X177694153Y-107555895D01*
X177482896Y-107499288D01*
X177465000Y-107497722D01*
X177465000Y-108273120D01*
X177457993Y-108269075D01*
X177330826Y-108235000D01*
X177199174Y-108235000D01*
X177072007Y-108269075D01*
X177065000Y-108273120D01*
X177065000Y-107497722D01*
X177047103Y-107499288D01*
X176835849Y-107555894D01*
X176835838Y-107555899D01*
X176637612Y-107648334D01*
X176458445Y-107773787D01*
X176303787Y-107928445D01*
X176178334Y-108107612D01*
X176085899Y-108305838D01*
X176085894Y-108305849D01*
X176066478Y-108378314D01*
X176032000Y-108423247D01*
X175975847Y-108430639D01*
X175930914Y-108396161D01*
X175923522Y-108378314D01*
X175904105Y-108305849D01*
X175904100Y-108305838D01*
X175811665Y-108107612D01*
X175686212Y-107928445D01*
X175531551Y-107773785D01*
X175531552Y-107773785D01*
X175352388Y-107648334D01*
X175154153Y-107555895D01*
X174942896Y-107499288D01*
X174925000Y-107497722D01*
X174925000Y-108273120D01*
X174917993Y-108269075D01*
X174790826Y-108235000D01*
X174659174Y-108235000D01*
X174532007Y-108269075D01*
X174525000Y-108273120D01*
X174525000Y-107497722D01*
X174507103Y-107499288D01*
X174295849Y-107555894D01*
X174295838Y-107555899D01*
X174097612Y-107648334D01*
X173918445Y-107773787D01*
X173763787Y-107928445D01*
X173638334Y-108107612D01*
X173545899Y-108305838D01*
X173545894Y-108305849D01*
X173526478Y-108378314D01*
X173492000Y-108423247D01*
X173435847Y-108430639D01*
X173390914Y-108396161D01*
X173383522Y-108378314D01*
X173364105Y-108305849D01*
X173364100Y-108305838D01*
X173271665Y-108107612D01*
X173146212Y-107928445D01*
X172991551Y-107773785D01*
X172991552Y-107773785D01*
X172812388Y-107648334D01*
X172614153Y-107555895D01*
X172402896Y-107499288D01*
X172385000Y-107497722D01*
X172385000Y-108273120D01*
X172377993Y-108269075D01*
X172250826Y-108235000D01*
X172119174Y-108235000D01*
X171992007Y-108269075D01*
X171985000Y-108273120D01*
X171985000Y-107497722D01*
X171967103Y-107499288D01*
X171755849Y-107555894D01*
X171755838Y-107555899D01*
X171557612Y-107648334D01*
X171378445Y-107773787D01*
X171223787Y-107928445D01*
X171098334Y-108107612D01*
X171005899Y-108305838D01*
X171005894Y-108305849D01*
X170986478Y-108378314D01*
X170952000Y-108423247D01*
X170895847Y-108430639D01*
X170850914Y-108396161D01*
X170843522Y-108378314D01*
X170824105Y-108305849D01*
X170824100Y-108305838D01*
X170731665Y-108107612D01*
X170606212Y-107928445D01*
X170451551Y-107773785D01*
X170451552Y-107773785D01*
X170272388Y-107648334D01*
X170074153Y-107555895D01*
X169862896Y-107499288D01*
X169845000Y-107497722D01*
X169845000Y-108273120D01*
X169837993Y-108269075D01*
X169710826Y-108235000D01*
X169579174Y-108235000D01*
X169452007Y-108269075D01*
X169445000Y-108273120D01*
X169445000Y-107497722D01*
X169427103Y-107499288D01*
X169215849Y-107555894D01*
X169215838Y-107555899D01*
X169017612Y-107648334D01*
X168838445Y-107773787D01*
X168683787Y-107928445D01*
X168558334Y-108107612D01*
X168465899Y-108305838D01*
X168465894Y-108305849D01*
X168446478Y-108378314D01*
X168412000Y-108423247D01*
X168355847Y-108430639D01*
X168310914Y-108396161D01*
X168303522Y-108378314D01*
X168284105Y-108305849D01*
X168284100Y-108305838D01*
X168191665Y-108107612D01*
X168066212Y-107928445D01*
X167911551Y-107773785D01*
X167911552Y-107773785D01*
X167732388Y-107648334D01*
X167534153Y-107555895D01*
X167322896Y-107499288D01*
X167305000Y-107497722D01*
X167305000Y-108273120D01*
X167297993Y-108269075D01*
X167170826Y-108235000D01*
X167039174Y-108235000D01*
X166912007Y-108269075D01*
X166905000Y-108273120D01*
X166905000Y-107497722D01*
X166887103Y-107499288D01*
X166675849Y-107555894D01*
X166675838Y-107555899D01*
X166477612Y-107648334D01*
X166298445Y-107773787D01*
X166143787Y-107928445D01*
X166018334Y-108107612D01*
X165925899Y-108305838D01*
X165925894Y-108305849D01*
X165906478Y-108378314D01*
X165872000Y-108423247D01*
X165815847Y-108430639D01*
X165770914Y-108396161D01*
X165763522Y-108378314D01*
X165744105Y-108305849D01*
X165744100Y-108305838D01*
X165651665Y-108107612D01*
X165526212Y-107928445D01*
X165371551Y-107773785D01*
X165371552Y-107773785D01*
X165192388Y-107648334D01*
X164994153Y-107555895D01*
X164782896Y-107499288D01*
X164765000Y-107497722D01*
X164765000Y-108273120D01*
X164757993Y-108269075D01*
X164630826Y-108235000D01*
X164499174Y-108235000D01*
X164372007Y-108269075D01*
X164365000Y-108273120D01*
X164365000Y-107497722D01*
X164347103Y-107499288D01*
X164135849Y-107555894D01*
X164135838Y-107555899D01*
X163937612Y-107648334D01*
X163758445Y-107773787D01*
X163603787Y-107928445D01*
X163478334Y-108107612D01*
X163385899Y-108305838D01*
X163385894Y-108305849D01*
X163366478Y-108378314D01*
X163332000Y-108423247D01*
X163275847Y-108430639D01*
X163230914Y-108396161D01*
X163223522Y-108378314D01*
X163204105Y-108305849D01*
X163204100Y-108305838D01*
X163111665Y-108107612D01*
X162986212Y-107928445D01*
X162831551Y-107773785D01*
X162831552Y-107773785D01*
X162652388Y-107648334D01*
X162454153Y-107555895D01*
X162242896Y-107499288D01*
X162225000Y-107497722D01*
X162225000Y-108273120D01*
X162217993Y-108269075D01*
X162090826Y-108235000D01*
X161959174Y-108235000D01*
X161832007Y-108269075D01*
X161825000Y-108273120D01*
X161825000Y-107497722D01*
X161807103Y-107499288D01*
X161595849Y-107555894D01*
X161595838Y-107555899D01*
X161397612Y-107648334D01*
X161218445Y-107773787D01*
X161063787Y-107928445D01*
X160938334Y-108107612D01*
X160845899Y-108305838D01*
X160845894Y-108305849D01*
X160826478Y-108378314D01*
X160792000Y-108423247D01*
X160735847Y-108430639D01*
X160690914Y-108396161D01*
X160683522Y-108378314D01*
X160664105Y-108305849D01*
X160664100Y-108305838D01*
X160571665Y-108107612D01*
X160446212Y-107928445D01*
X160291551Y-107773785D01*
X160291552Y-107773785D01*
X160112388Y-107648334D01*
X159914153Y-107555895D01*
X159702896Y-107499288D01*
X159685000Y-107497722D01*
X159685000Y-108273120D01*
X159677993Y-108269075D01*
X159550826Y-108235000D01*
X159419174Y-108235000D01*
X159292007Y-108269075D01*
X159285000Y-108273120D01*
X159285000Y-107497722D01*
X159267103Y-107499288D01*
X159055849Y-107555894D01*
X159055838Y-107555899D01*
X158857612Y-107648334D01*
X158678445Y-107773787D01*
X158523787Y-107928445D01*
X158398334Y-108107612D01*
X158305899Y-108305838D01*
X158305894Y-108305849D01*
X158286478Y-108378314D01*
X158252000Y-108423247D01*
X158195847Y-108430639D01*
X158150914Y-108396161D01*
X158143522Y-108378314D01*
X158124105Y-108305849D01*
X158124100Y-108305838D01*
X158031665Y-108107612D01*
X157906212Y-107928445D01*
X157751551Y-107773785D01*
X157751552Y-107773785D01*
X157572388Y-107648334D01*
X157374153Y-107555895D01*
X157162896Y-107499288D01*
X157145000Y-107497722D01*
X157145000Y-108273120D01*
X157137993Y-108269075D01*
X157010826Y-108235000D01*
X156879174Y-108235000D01*
X156752007Y-108269075D01*
X156745000Y-108273120D01*
X156745000Y-107497722D01*
X156727103Y-107499288D01*
X156515849Y-107555894D01*
X156515838Y-107555899D01*
X156317612Y-107648334D01*
X156138445Y-107773787D01*
X155983787Y-107928445D01*
X155858334Y-108107612D01*
X155765899Y-108305838D01*
X155765894Y-108305849D01*
X155746478Y-108378314D01*
X155712000Y-108423247D01*
X155655847Y-108430639D01*
X155610914Y-108396161D01*
X155603522Y-108378314D01*
X155584105Y-108305849D01*
X155584100Y-108305838D01*
X155491665Y-108107612D01*
X155366212Y-107928445D01*
X155211551Y-107773785D01*
X155211552Y-107773785D01*
X155032388Y-107648334D01*
X154834153Y-107555895D01*
X154622896Y-107499288D01*
X154605000Y-107497722D01*
X154605000Y-108273120D01*
X154597993Y-108269075D01*
X154470826Y-108235000D01*
X154339174Y-108235000D01*
X154212007Y-108269075D01*
X154205000Y-108273120D01*
X154205000Y-107497722D01*
X154187103Y-107499288D01*
X153975849Y-107555894D01*
X153975838Y-107555899D01*
X153777612Y-107648334D01*
X153598445Y-107773787D01*
X153443787Y-107928445D01*
X153318334Y-108107612D01*
X153225899Y-108305838D01*
X153225894Y-108305849D01*
X153206478Y-108378314D01*
X153172000Y-108423247D01*
X153115847Y-108430639D01*
X153070914Y-108396161D01*
X153063522Y-108378314D01*
X153044105Y-108305849D01*
X153044100Y-108305838D01*
X152951665Y-108107612D01*
X152826212Y-107928445D01*
X152671551Y-107773785D01*
X152671552Y-107773785D01*
X152492388Y-107648334D01*
X152294153Y-107555895D01*
X152082896Y-107499288D01*
X152065000Y-107497722D01*
X152065000Y-108273120D01*
X152057993Y-108269075D01*
X151930826Y-108235000D01*
X151799174Y-108235000D01*
X151672007Y-108269075D01*
X151665000Y-108273120D01*
X151665000Y-107497722D01*
X151647103Y-107499288D01*
X151435849Y-107555894D01*
X151435838Y-107555899D01*
X151237612Y-107648334D01*
X151058445Y-107773787D01*
X150903787Y-107928445D01*
X150778334Y-108107612D01*
X150685899Y-108305838D01*
X150685894Y-108305849D01*
X150666478Y-108378314D01*
X150632000Y-108423247D01*
X150575847Y-108430639D01*
X150530914Y-108396161D01*
X150523522Y-108378314D01*
X150504105Y-108305849D01*
X150504100Y-108305838D01*
X150411665Y-108107612D01*
X150286212Y-107928445D01*
X150131551Y-107773785D01*
X150131552Y-107773785D01*
X149952388Y-107648334D01*
X149754153Y-107555895D01*
X149542896Y-107499288D01*
X149525000Y-107497722D01*
X149525000Y-108273120D01*
X149517993Y-108269075D01*
X149390826Y-108235000D01*
X149259174Y-108235000D01*
X149132007Y-108269075D01*
X149125000Y-108273120D01*
X149125000Y-107497722D01*
X149107103Y-107499288D01*
X148895849Y-107555894D01*
X148895838Y-107555899D01*
X148697612Y-107648334D01*
X148518445Y-107773787D01*
X148363787Y-107928445D01*
X148238334Y-108107612D01*
X148145899Y-108305838D01*
X148145894Y-108305849D01*
X148089288Y-108517106D01*
X148089287Y-108517113D01*
X148087723Y-108535000D01*
X109950500Y-108535000D01*
X109950500Y-107320000D01*
X114199196Y-107320000D01*
X114220280Y-107453126D01*
X114281471Y-107573219D01*
X114281472Y-107573220D01*
X114376780Y-107668528D01*
X114496873Y-107729718D01*
X114496873Y-107729719D01*
X114515075Y-107732601D01*
X114630000Y-107750804D01*
X114763126Y-107729719D01*
X114883220Y-107668528D01*
X114978528Y-107573220D01*
X115039719Y-107453126D01*
X115060804Y-107320000D01*
X115039719Y-107186874D01*
X115039719Y-107186873D01*
X114978528Y-107066780D01*
X114883219Y-106971471D01*
X114763126Y-106910281D01*
X114763126Y-106910280D01*
X114630000Y-106889196D01*
X114496873Y-106910280D01*
X114496873Y-106910281D01*
X114376780Y-106971471D01*
X114281471Y-107066780D01*
X114220281Y-107186873D01*
X114220280Y-107186873D01*
X114199196Y-107320000D01*
X109950500Y-107320000D01*
X109950500Y-106520000D01*
X113569196Y-106520000D01*
X113590280Y-106653126D01*
X113651471Y-106773219D01*
X113651472Y-106773220D01*
X113746780Y-106868528D01*
X113866873Y-106929718D01*
X113866873Y-106929719D01*
X113885075Y-106932601D01*
X114000000Y-106950804D01*
X114133126Y-106929719D01*
X114253220Y-106868528D01*
X114348528Y-106773220D01*
X114409719Y-106653126D01*
X114430804Y-106520000D01*
X114409719Y-106386874D01*
X114409719Y-106386873D01*
X114348528Y-106266780D01*
X114253219Y-106171471D01*
X114133126Y-106110281D01*
X114133126Y-106110280D01*
X114000000Y-106089196D01*
X113866873Y-106110280D01*
X113866873Y-106110281D01*
X113746780Y-106171471D01*
X113651471Y-106266780D01*
X113590281Y-106386873D01*
X113590280Y-106386873D01*
X113569196Y-106520000D01*
X109950500Y-106520000D01*
X109950500Y-104500000D01*
X114669196Y-104500000D01*
X114690280Y-104633126D01*
X114751473Y-104753222D01*
X114753862Y-104756511D01*
X114767078Y-104811585D01*
X114753862Y-104843489D01*
X114751473Y-104846777D01*
X114690281Y-104966873D01*
X114690280Y-104966873D01*
X114669196Y-105100000D01*
X114690280Y-105233126D01*
X114751473Y-105353222D01*
X114753862Y-105356511D01*
X114767078Y-105411585D01*
X114753862Y-105443489D01*
X114751473Y-105446777D01*
X114690281Y-105566873D01*
X114690280Y-105566873D01*
X114669196Y-105700000D01*
X114690280Y-105833126D01*
X114751471Y-105953219D01*
X114751472Y-105953220D01*
X114846780Y-106048528D01*
X114966873Y-106109718D01*
X114966873Y-106109719D01*
X114970422Y-106110281D01*
X115100000Y-106130804D01*
X115176491Y-106118688D01*
X115231561Y-106131909D01*
X115246637Y-106149539D01*
X115248052Y-106148512D01*
X115251471Y-106153218D01*
X115251472Y-106153220D01*
X115346780Y-106248528D01*
X115466873Y-106309718D01*
X115466873Y-106309719D01*
X115485075Y-106312601D01*
X115600000Y-106330804D01*
X115733126Y-106309719D01*
X115853220Y-106248528D01*
X115948528Y-106153220D01*
X116009719Y-106033126D01*
X116030804Y-105900000D01*
X116009719Y-105766874D01*
X116009719Y-105766873D01*
X115967286Y-105683595D01*
X115962842Y-105627133D01*
X115967286Y-105616405D01*
X115992523Y-105566874D01*
X116009719Y-105533126D01*
X116030804Y-105400000D01*
X116009719Y-105266874D01*
X116009719Y-105266873D01*
X115979685Y-105207929D01*
X115948528Y-105146780D01*
X115948523Y-105146775D01*
X115946140Y-105143494D01*
X115932920Y-105088421D01*
X115946140Y-105056506D01*
X115948521Y-105053226D01*
X115948528Y-105053220D01*
X116009719Y-104933126D01*
X116030804Y-104800000D01*
X116009719Y-104666874D01*
X116009719Y-104666873D01*
X115967286Y-104583595D01*
X115962842Y-104527133D01*
X115967286Y-104516405D01*
X115976692Y-104497944D01*
X116009719Y-104433126D01*
X116030804Y-104300000D01*
X117569196Y-104300000D01*
X117590281Y-104433126D01*
X117632713Y-104516405D01*
X117637156Y-104572868D01*
X117632713Y-104583595D01*
X117590281Y-104666873D01*
X117569196Y-104800000D01*
X117590280Y-104933126D01*
X117651473Y-105053222D01*
X117653862Y-105056511D01*
X117667078Y-105111585D01*
X117653862Y-105143489D01*
X117651473Y-105146777D01*
X117590281Y-105266873D01*
X117590280Y-105266873D01*
X117569196Y-105400000D01*
X117590281Y-105533126D01*
X117632713Y-105616405D01*
X117637156Y-105672868D01*
X117632713Y-105683595D01*
X117590281Y-105766873D01*
X117569196Y-105900000D01*
X117590280Y-106033126D01*
X117651471Y-106153219D01*
X117651472Y-106153220D01*
X117746780Y-106248528D01*
X117866873Y-106309718D01*
X117866873Y-106309719D01*
X117885075Y-106312601D01*
X118000000Y-106330804D01*
X118133126Y-106309719D01*
X118253220Y-106248528D01*
X118348528Y-106153220D01*
X118348529Y-106153217D01*
X118351952Y-106148508D01*
X118354888Y-106150641D01*
X118388904Y-106121452D01*
X118423506Y-106118688D01*
X118500000Y-106130804D01*
X118633126Y-106109719D01*
X118753220Y-106048528D01*
X118848528Y-105953220D01*
X118909719Y-105833126D01*
X118930804Y-105700000D01*
X118909719Y-105566874D01*
X118909719Y-105566873D01*
X118879685Y-105507929D01*
X118848528Y-105446780D01*
X118848523Y-105446775D01*
X118846140Y-105443494D01*
X118832920Y-105388421D01*
X118846140Y-105356506D01*
X118848521Y-105353226D01*
X118848528Y-105353220D01*
X118909719Y-105233126D01*
X118930804Y-105100000D01*
X118909719Y-104966874D01*
X118909719Y-104966873D01*
X118853125Y-104855803D01*
X118848528Y-104846780D01*
X118848523Y-104846775D01*
X118846140Y-104843494D01*
X118832920Y-104788421D01*
X118846140Y-104756506D01*
X118848521Y-104753226D01*
X118848528Y-104753220D01*
X118909719Y-104633126D01*
X118930804Y-104500000D01*
X118918925Y-104425000D01*
X119669196Y-104425000D01*
X119690280Y-104558126D01*
X119751471Y-104678219D01*
X119751472Y-104678220D01*
X119846780Y-104773528D01*
X119966873Y-104834718D01*
X119966873Y-104834719D01*
X119985075Y-104837601D01*
X120100000Y-104855804D01*
X120233126Y-104834719D01*
X120353220Y-104773528D01*
X120448528Y-104678220D01*
X120509719Y-104558126D01*
X120530804Y-104425000D01*
X120509719Y-104291874D01*
X120509719Y-104291873D01*
X120448528Y-104171780D01*
X120353219Y-104076471D01*
X120233126Y-104015281D01*
X120233126Y-104015280D01*
X120100000Y-103994196D01*
X119966873Y-104015280D01*
X119966873Y-104015281D01*
X119846780Y-104076471D01*
X119751471Y-104171780D01*
X119690281Y-104291873D01*
X119690280Y-104291873D01*
X119669196Y-104425000D01*
X118918925Y-104425000D01*
X118909719Y-104366874D01*
X118909719Y-104366873D01*
X118848528Y-104246780D01*
X118753219Y-104151471D01*
X118633126Y-104090281D01*
X118633126Y-104090280D01*
X118500000Y-104069196D01*
X118499999Y-104069196D01*
X118423508Y-104081310D01*
X118368436Y-104068088D01*
X118353398Y-104050440D01*
X118351952Y-104051492D01*
X118348529Y-104046781D01*
X118253219Y-103951471D01*
X118133126Y-103890281D01*
X118133126Y-103890280D01*
X118000000Y-103869196D01*
X117866873Y-103890280D01*
X117866873Y-103890281D01*
X117746780Y-103951471D01*
X117651471Y-104046780D01*
X117590281Y-104166873D01*
X117590280Y-104166873D01*
X117569196Y-104300000D01*
X116030804Y-104300000D01*
X116009719Y-104166874D01*
X116009719Y-104166873D01*
X115948528Y-104046780D01*
X115853219Y-103951471D01*
X115733126Y-103890281D01*
X115733126Y-103890280D01*
X115600000Y-103869196D01*
X115466873Y-103890280D01*
X115466873Y-103890281D01*
X115346780Y-103951471D01*
X115251471Y-104046780D01*
X115248050Y-104051490D01*
X115245186Y-104049409D01*
X115210724Y-104078667D01*
X115176491Y-104081310D01*
X115100001Y-104069196D01*
X115100000Y-104069196D01*
X114966873Y-104090280D01*
X114966873Y-104090281D01*
X114846780Y-104151471D01*
X114751471Y-104246780D01*
X114690281Y-104366873D01*
X114690280Y-104366873D01*
X114669196Y-104500000D01*
X109950500Y-104500000D01*
X109950500Y-101950000D01*
X120369196Y-101950000D01*
X120390280Y-102083126D01*
X120451471Y-102203219D01*
X120451472Y-102203220D01*
X120546780Y-102298528D01*
X120666873Y-102359718D01*
X120666873Y-102359719D01*
X120685075Y-102362601D01*
X120800000Y-102380804D01*
X120933126Y-102359719D01*
X121053220Y-102298528D01*
X121148528Y-102203220D01*
X121209719Y-102083126D01*
X121230804Y-101950000D01*
X121209719Y-101816874D01*
X121209719Y-101816873D01*
X121148528Y-101696780D01*
X121053219Y-101601471D01*
X120933126Y-101540281D01*
X120933126Y-101540280D01*
X120800000Y-101519196D01*
X120666873Y-101540280D01*
X120666873Y-101540281D01*
X120546780Y-101601471D01*
X120451471Y-101696780D01*
X120390281Y-101816873D01*
X120390280Y-101816873D01*
X120369196Y-101950000D01*
X109950500Y-101950000D01*
X109950500Y-101480000D01*
X112289196Y-101480000D01*
X112310280Y-101613126D01*
X112371471Y-101733219D01*
X112371472Y-101733220D01*
X112466780Y-101828528D01*
X112586873Y-101889718D01*
X112586873Y-101889719D01*
X112605075Y-101892601D01*
X112720000Y-101910804D01*
X112853126Y-101889719D01*
X112973220Y-101828528D01*
X113068528Y-101733220D01*
X113129719Y-101613126D01*
X113150804Y-101480000D01*
X113129719Y-101346874D01*
X113129719Y-101346873D01*
X113068528Y-101226780D01*
X112973219Y-101131471D01*
X112950706Y-101120000D01*
X113289196Y-101120000D01*
X113310280Y-101253126D01*
X113371471Y-101373219D01*
X113371472Y-101373220D01*
X113466780Y-101468528D01*
X113586873Y-101529718D01*
X113586873Y-101529719D01*
X113605075Y-101532601D01*
X113720000Y-101550804D01*
X113853126Y-101529719D01*
X113973220Y-101468528D01*
X114068528Y-101373220D01*
X114129719Y-101253126D01*
X114150804Y-101120000D01*
X114129719Y-100986874D01*
X114129719Y-100986873D01*
X114068528Y-100866780D01*
X113973219Y-100771471D01*
X113853126Y-100710281D01*
X113853126Y-100710280D01*
X113720000Y-100689196D01*
X113586873Y-100710280D01*
X113586873Y-100710281D01*
X113466780Y-100771471D01*
X113371471Y-100866780D01*
X113310281Y-100986873D01*
X113310280Y-100986873D01*
X113289196Y-101120000D01*
X112950706Y-101120000D01*
X112853126Y-101070281D01*
X112853126Y-101070280D01*
X112720000Y-101049196D01*
X112586873Y-101070280D01*
X112586873Y-101070281D01*
X112466780Y-101131471D01*
X112371471Y-101226780D01*
X112310281Y-101346873D01*
X112310280Y-101346873D01*
X112289196Y-101480000D01*
X109950500Y-101480000D01*
X109950500Y-100317616D01*
X146294859Y-100317616D01*
X146294859Y-100317623D01*
X146315377Y-100539052D01*
X146315379Y-100539065D01*
X146376237Y-100752962D01*
X146376239Y-100752966D01*
X146475368Y-100952046D01*
X146475370Y-100952049D01*
X146521560Y-101013214D01*
X147113629Y-100421145D01*
X147127259Y-100472014D01*
X147179920Y-100563226D01*
X147254394Y-100637700D01*
X147345606Y-100690361D01*
X147396472Y-100703990D01*
X146803000Y-101297461D01*
X146962817Y-101396414D01*
X146962827Y-101396419D01*
X147170194Y-101476754D01*
X147388800Y-101517619D01*
X147388806Y-101517620D01*
X147611194Y-101517620D01*
X147611199Y-101517619D01*
X147829805Y-101476754D01*
X148037172Y-101396419D01*
X148037182Y-101396414D01*
X148196997Y-101297460D01*
X147603527Y-100703990D01*
X147654394Y-100690361D01*
X147745606Y-100637700D01*
X147820080Y-100563226D01*
X147872741Y-100472014D01*
X147886370Y-100421147D01*
X148478438Y-101013215D01*
X148524629Y-100952048D01*
X148524631Y-100952046D01*
X148623760Y-100752966D01*
X148623762Y-100752962D01*
X148684620Y-100539065D01*
X148684622Y-100539052D01*
X148705141Y-100317623D01*
X148705141Y-100317616D01*
X148684622Y-100096187D01*
X148684620Y-100096174D01*
X148630375Y-99905518D01*
X157399500Y-99905518D01*
X157399500Y-100094481D01*
X157429059Y-100281115D01*
X157429062Y-100281128D01*
X157487449Y-100460824D01*
X157487452Y-100460831D01*
X157487453Y-100460832D01*
X157498983Y-100483462D01*
X157573239Y-100629198D01*
X157663159Y-100752962D01*
X157684310Y-100782073D01*
X157817927Y-100915690D01*
X157817930Y-100915692D01*
X157817931Y-100915693D01*
X157915903Y-100986874D01*
X157970801Y-101026760D01*
X158139168Y-101112547D01*
X158139171Y-101112547D01*
X158139175Y-101112550D01*
X158318871Y-101170937D01*
X158318877Y-101170938D01*
X158318882Y-101170940D01*
X158443306Y-101190646D01*
X158505518Y-101200500D01*
X158505519Y-101200500D01*
X158694482Y-101200500D01*
X158741140Y-101193110D01*
X158881118Y-101170940D01*
X158881125Y-101170937D01*
X158881128Y-101170937D01*
X159060824Y-101112550D01*
X159060826Y-101112548D01*
X159060832Y-101112547D01*
X159229199Y-101026760D01*
X159382073Y-100915690D01*
X159515690Y-100782073D01*
X159626760Y-100629199D01*
X159712547Y-100460832D01*
X159730607Y-100405253D01*
X160974500Y-100405253D01*
X160974500Y-102144746D01*
X160986133Y-102203232D01*
X161015608Y-102247343D01*
X161030448Y-102269552D01*
X161073813Y-102298528D01*
X161096767Y-102313866D01*
X161096768Y-102313866D01*
X161096769Y-102313867D01*
X161155252Y-102325500D01*
X161155254Y-102325500D01*
X162894746Y-102325500D01*
X162894748Y-102325500D01*
X162953231Y-102313867D01*
X163019552Y-102269552D01*
X163063867Y-102203231D01*
X163075500Y-102144748D01*
X163075500Y-101275000D01*
X163509417Y-101275000D01*
X163529700Y-101480935D01*
X163589769Y-101678956D01*
X163687315Y-101861450D01*
X163727818Y-101910804D01*
X163818590Y-102021410D01*
X163978550Y-102152685D01*
X164161046Y-102250232D01*
X164359066Y-102310300D01*
X164565000Y-102330583D01*
X164770934Y-102310300D01*
X164968954Y-102250232D01*
X165151450Y-102152685D01*
X165311410Y-102021410D01*
X165442685Y-101861450D01*
X165540232Y-101678954D01*
X165600300Y-101480934D01*
X165620583Y-101275000D01*
X166049417Y-101275000D01*
X166069700Y-101480935D01*
X166129769Y-101678956D01*
X166227315Y-101861450D01*
X166267818Y-101910804D01*
X166358590Y-102021410D01*
X166518550Y-102152685D01*
X166701046Y-102250232D01*
X166899066Y-102310300D01*
X167105000Y-102330583D01*
X167310934Y-102310300D01*
X167508954Y-102250232D01*
X167691450Y-102152685D01*
X167851410Y-102021410D01*
X167982685Y-101861450D01*
X168080232Y-101678954D01*
X168140300Y-101480934D01*
X168160583Y-101275000D01*
X168589417Y-101275000D01*
X168609700Y-101480935D01*
X168669769Y-101678956D01*
X168767315Y-101861450D01*
X168807818Y-101910804D01*
X168898590Y-102021410D01*
X169058550Y-102152685D01*
X169241046Y-102250232D01*
X169439066Y-102310300D01*
X169645000Y-102330583D01*
X169850934Y-102310300D01*
X170048954Y-102250232D01*
X170231450Y-102152685D01*
X170391410Y-102021410D01*
X170522685Y-101861450D01*
X170620232Y-101678954D01*
X170680300Y-101480934D01*
X170700583Y-101275000D01*
X171129417Y-101275000D01*
X171149700Y-101480935D01*
X171209769Y-101678956D01*
X171307315Y-101861450D01*
X171347818Y-101910804D01*
X171438590Y-102021410D01*
X171598550Y-102152685D01*
X171781046Y-102250232D01*
X171979066Y-102310300D01*
X172185000Y-102330583D01*
X172390934Y-102310300D01*
X172588954Y-102250232D01*
X172771450Y-102152685D01*
X172931410Y-102021410D01*
X173062685Y-101861450D01*
X173160232Y-101678954D01*
X173220300Y-101480934D01*
X173240583Y-101275000D01*
X173669417Y-101275000D01*
X173689700Y-101480935D01*
X173749769Y-101678956D01*
X173847315Y-101861450D01*
X173887818Y-101910804D01*
X173978590Y-102021410D01*
X174138550Y-102152685D01*
X174321046Y-102250232D01*
X174519066Y-102310300D01*
X174725000Y-102330583D01*
X174930934Y-102310300D01*
X175128954Y-102250232D01*
X175311450Y-102152685D01*
X175471410Y-102021410D01*
X175602685Y-101861450D01*
X175700232Y-101678954D01*
X175760300Y-101480934D01*
X175780583Y-101275000D01*
X176209417Y-101275000D01*
X176229700Y-101480935D01*
X176289769Y-101678956D01*
X176387315Y-101861450D01*
X176427818Y-101910804D01*
X176518590Y-102021410D01*
X176678550Y-102152685D01*
X176861046Y-102250232D01*
X177059066Y-102310300D01*
X177265000Y-102330583D01*
X177470934Y-102310300D01*
X177668954Y-102250232D01*
X177851450Y-102152685D01*
X178011410Y-102021410D01*
X178142685Y-101861450D01*
X178240232Y-101678954D01*
X178300300Y-101480934D01*
X178320583Y-101275000D01*
X178749417Y-101275000D01*
X178769700Y-101480935D01*
X178829769Y-101678956D01*
X178927315Y-101861450D01*
X178967818Y-101910804D01*
X179058590Y-102021410D01*
X179218550Y-102152685D01*
X179401046Y-102250232D01*
X179599066Y-102310300D01*
X179805000Y-102330583D01*
X180010934Y-102310300D01*
X180208954Y-102250232D01*
X180391450Y-102152685D01*
X180551410Y-102021410D01*
X180682685Y-101861450D01*
X180780232Y-101678954D01*
X180840300Y-101480934D01*
X180860583Y-101275000D01*
X181289417Y-101275000D01*
X181309700Y-101480935D01*
X181369769Y-101678956D01*
X181467315Y-101861450D01*
X181507818Y-101910804D01*
X181598590Y-102021410D01*
X181758550Y-102152685D01*
X181941046Y-102250232D01*
X182139066Y-102310300D01*
X182345000Y-102330583D01*
X182550934Y-102310300D01*
X182748954Y-102250232D01*
X182931450Y-102152685D01*
X183091410Y-102021410D01*
X183222685Y-101861450D01*
X183320232Y-101678954D01*
X183380300Y-101480934D01*
X183400583Y-101275000D01*
X183829417Y-101275000D01*
X183849700Y-101480935D01*
X183909769Y-101678956D01*
X184007315Y-101861450D01*
X184047818Y-101910804D01*
X184138590Y-102021410D01*
X184298550Y-102152685D01*
X184481046Y-102250232D01*
X184679066Y-102310300D01*
X184885000Y-102330583D01*
X185090934Y-102310300D01*
X185288954Y-102250232D01*
X185471450Y-102152685D01*
X185631410Y-102021410D01*
X185762685Y-101861450D01*
X185860232Y-101678954D01*
X185920300Y-101480934D01*
X185940583Y-101275000D01*
X185920300Y-101069066D01*
X185860232Y-100871046D01*
X185762685Y-100688550D01*
X185631410Y-100528590D01*
X185548836Y-100460824D01*
X185471450Y-100397315D01*
X185288956Y-100299769D01*
X185288955Y-100299768D01*
X185288954Y-100299768D01*
X185174203Y-100264959D01*
X185090935Y-100239700D01*
X184885000Y-100219417D01*
X184679064Y-100239700D01*
X184481043Y-100299769D01*
X184298549Y-100397315D01*
X184138590Y-100528589D01*
X184138589Y-100528590D01*
X184007315Y-100688549D01*
X183909769Y-100871043D01*
X183849700Y-101069064D01*
X183829417Y-101275000D01*
X183400583Y-101275000D01*
X183380300Y-101069066D01*
X183320232Y-100871046D01*
X183222685Y-100688550D01*
X183091410Y-100528590D01*
X183008836Y-100460824D01*
X182931450Y-100397315D01*
X182748956Y-100299769D01*
X182748955Y-100299768D01*
X182748954Y-100299768D01*
X182634203Y-100264959D01*
X182550935Y-100239700D01*
X182345000Y-100219417D01*
X182139064Y-100239700D01*
X181941043Y-100299769D01*
X181758549Y-100397315D01*
X181598590Y-100528589D01*
X181598589Y-100528590D01*
X181467315Y-100688549D01*
X181369769Y-100871043D01*
X181309700Y-101069064D01*
X181289417Y-101275000D01*
X180860583Y-101275000D01*
X180840300Y-101069066D01*
X180780232Y-100871046D01*
X180682685Y-100688550D01*
X180551410Y-100528590D01*
X180468836Y-100460824D01*
X180391450Y-100397315D01*
X180208956Y-100299769D01*
X180208955Y-100299768D01*
X180208954Y-100299768D01*
X180094203Y-100264959D01*
X180010935Y-100239700D01*
X179805000Y-100219417D01*
X179599064Y-100239700D01*
X179401043Y-100299769D01*
X179218549Y-100397315D01*
X179058590Y-100528589D01*
X179058589Y-100528590D01*
X178927315Y-100688549D01*
X178829769Y-100871043D01*
X178769700Y-101069064D01*
X178749417Y-101275000D01*
X178320583Y-101275000D01*
X178300300Y-101069066D01*
X178240232Y-100871046D01*
X178142685Y-100688550D01*
X178011410Y-100528590D01*
X177928836Y-100460824D01*
X177851450Y-100397315D01*
X177668956Y-100299769D01*
X177668955Y-100299768D01*
X177668954Y-100299768D01*
X177554203Y-100264959D01*
X177470935Y-100239700D01*
X177265000Y-100219417D01*
X177059064Y-100239700D01*
X176861043Y-100299769D01*
X176678549Y-100397315D01*
X176518590Y-100528589D01*
X176518589Y-100528590D01*
X176387315Y-100688549D01*
X176289769Y-100871043D01*
X176229700Y-101069064D01*
X176209417Y-101275000D01*
X175780583Y-101275000D01*
X175760300Y-101069066D01*
X175700232Y-100871046D01*
X175602685Y-100688550D01*
X175471410Y-100528590D01*
X175388836Y-100460824D01*
X175311450Y-100397315D01*
X175128956Y-100299769D01*
X175128955Y-100299768D01*
X175128954Y-100299768D01*
X175014203Y-100264959D01*
X174930935Y-100239700D01*
X174725000Y-100219417D01*
X174519064Y-100239700D01*
X174321043Y-100299769D01*
X174138549Y-100397315D01*
X173978590Y-100528589D01*
X173978589Y-100528590D01*
X173847315Y-100688549D01*
X173749769Y-100871043D01*
X173689700Y-101069064D01*
X173669417Y-101275000D01*
X173240583Y-101275000D01*
X173220300Y-101069066D01*
X173160232Y-100871046D01*
X173062685Y-100688550D01*
X172931410Y-100528590D01*
X172848836Y-100460824D01*
X172771450Y-100397315D01*
X172588956Y-100299769D01*
X172588955Y-100299768D01*
X172588954Y-100299768D01*
X172474203Y-100264959D01*
X172390935Y-100239700D01*
X172185000Y-100219417D01*
X171979064Y-100239700D01*
X171781043Y-100299769D01*
X171598549Y-100397315D01*
X171438590Y-100528589D01*
X171438589Y-100528590D01*
X171307315Y-100688549D01*
X171209769Y-100871043D01*
X171149700Y-101069064D01*
X171129417Y-101275000D01*
X170700583Y-101275000D01*
X170680300Y-101069066D01*
X170620232Y-100871046D01*
X170522685Y-100688550D01*
X170391410Y-100528590D01*
X170308836Y-100460824D01*
X170231450Y-100397315D01*
X170048956Y-100299769D01*
X170048955Y-100299768D01*
X170048954Y-100299768D01*
X169934203Y-100264959D01*
X169850935Y-100239700D01*
X169645000Y-100219417D01*
X169439064Y-100239700D01*
X169241043Y-100299769D01*
X169058549Y-100397315D01*
X168898590Y-100528589D01*
X168898589Y-100528590D01*
X168767315Y-100688549D01*
X168669769Y-100871043D01*
X168609700Y-101069064D01*
X168589417Y-101275000D01*
X168160583Y-101275000D01*
X168140300Y-101069066D01*
X168080232Y-100871046D01*
X167982685Y-100688550D01*
X167851410Y-100528590D01*
X167768836Y-100460824D01*
X167691450Y-100397315D01*
X167508956Y-100299769D01*
X167508955Y-100299768D01*
X167508954Y-100299768D01*
X167394203Y-100264959D01*
X167310935Y-100239700D01*
X167105000Y-100219417D01*
X166899064Y-100239700D01*
X166701043Y-100299769D01*
X166518549Y-100397315D01*
X166358590Y-100528589D01*
X166358589Y-100528590D01*
X166227315Y-100688549D01*
X166129769Y-100871043D01*
X166069700Y-101069064D01*
X166049417Y-101275000D01*
X165620583Y-101275000D01*
X165600300Y-101069066D01*
X165540232Y-100871046D01*
X165442685Y-100688550D01*
X165311410Y-100528590D01*
X165228836Y-100460824D01*
X165151450Y-100397315D01*
X164968956Y-100299769D01*
X164968955Y-100299768D01*
X164968954Y-100299768D01*
X164854203Y-100264959D01*
X164770935Y-100239700D01*
X164565000Y-100219417D01*
X164359064Y-100239700D01*
X164161043Y-100299769D01*
X163978549Y-100397315D01*
X163818590Y-100528589D01*
X163818589Y-100528590D01*
X163687315Y-100688549D01*
X163589769Y-100871043D01*
X163529700Y-101069064D01*
X163509417Y-101275000D01*
X163075500Y-101275000D01*
X163075500Y-100405252D01*
X163063867Y-100346769D01*
X163019552Y-100280448D01*
X162996371Y-100264959D01*
X162953232Y-100236133D01*
X162953233Y-100236133D01*
X162923989Y-100230316D01*
X162894748Y-100224500D01*
X161155252Y-100224500D01*
X161126010Y-100230316D01*
X161096767Y-100236133D01*
X161030449Y-100280447D01*
X161030447Y-100280449D01*
X160986133Y-100346767D01*
X160974500Y-100405253D01*
X159730607Y-100405253D01*
X159730607Y-100405252D01*
X159770937Y-100281128D01*
X159770937Y-100281125D01*
X159770940Y-100281118D01*
X159800500Y-100094481D01*
X159800500Y-99905519D01*
X159770940Y-99718882D01*
X159770938Y-99718877D01*
X159770937Y-99718871D01*
X159712550Y-99539175D01*
X159712547Y-99539171D01*
X159712547Y-99539168D01*
X159626760Y-99370801D01*
X159515690Y-99217927D01*
X159382073Y-99084310D01*
X159382070Y-99084307D01*
X159382068Y-99084306D01*
X159229198Y-98973239D01*
X159060824Y-98887449D01*
X158881128Y-98829062D01*
X158881115Y-98829059D01*
X158694482Y-98799500D01*
X158694481Y-98799500D01*
X158505519Y-98799500D01*
X158505518Y-98799500D01*
X158318884Y-98829059D01*
X158318871Y-98829062D01*
X158139175Y-98887449D01*
X157970801Y-98973239D01*
X157817931Y-99084306D01*
X157684306Y-99217931D01*
X157573239Y-99370801D01*
X157487449Y-99539175D01*
X157429062Y-99718871D01*
X157429059Y-99718884D01*
X157399500Y-99905518D01*
X148630375Y-99905518D01*
X148623762Y-99882277D01*
X148623760Y-99882273D01*
X148524631Y-99683193D01*
X148524629Y-99683190D01*
X148478437Y-99622023D01*
X147886370Y-100214091D01*
X147872741Y-100163226D01*
X147820080Y-100072014D01*
X147745606Y-99997540D01*
X147654394Y-99944879D01*
X147603525Y-99931249D01*
X148196998Y-99337777D01*
X148037182Y-99238825D01*
X148037172Y-99238820D01*
X147829805Y-99158485D01*
X147611199Y-99117620D01*
X147388800Y-99117620D01*
X147170194Y-99158485D01*
X146962827Y-99238820D01*
X146962817Y-99238825D01*
X146803000Y-99337777D01*
X147396472Y-99931249D01*
X147345606Y-99944879D01*
X147254394Y-99997540D01*
X147179920Y-100072014D01*
X147127259Y-100163226D01*
X147113629Y-100214092D01*
X146521560Y-99622023D01*
X146475368Y-99683194D01*
X146475367Y-99683197D01*
X146376239Y-99882273D01*
X146376237Y-99882277D01*
X146315379Y-100096174D01*
X146315377Y-100096187D01*
X146294859Y-100317616D01*
X109950500Y-100317616D01*
X109950500Y-97100000D01*
X114744196Y-97100000D01*
X114765280Y-97233126D01*
X114826471Y-97353219D01*
X114826472Y-97353220D01*
X114921780Y-97448528D01*
X115041873Y-97509718D01*
X115041873Y-97509719D01*
X115060075Y-97512601D01*
X115175000Y-97530804D01*
X115308126Y-97509719D01*
X115428220Y-97448528D01*
X115523528Y-97353220D01*
X115584719Y-97233126D01*
X115605804Y-97100000D01*
X115589629Y-96997873D01*
X146499500Y-96997873D01*
X146499500Y-98637366D01*
X146511133Y-98695852D01*
X146540608Y-98739963D01*
X146555448Y-98762172D01*
X146599560Y-98791647D01*
X146621767Y-98806486D01*
X146621768Y-98806486D01*
X146621769Y-98806487D01*
X146680252Y-98818120D01*
X146680254Y-98818120D01*
X148319746Y-98818120D01*
X148319748Y-98818120D01*
X148378231Y-98806487D01*
X148444552Y-98762172D01*
X148488867Y-98695851D01*
X148500500Y-98637368D01*
X148500500Y-98535000D01*
X160787723Y-98535000D01*
X161563120Y-98535000D01*
X161559075Y-98542007D01*
X161525000Y-98669174D01*
X161525000Y-98800826D01*
X161559075Y-98927993D01*
X161563120Y-98935000D01*
X160787723Y-98935000D01*
X160789287Y-98952886D01*
X160789288Y-98952893D01*
X160845895Y-99164153D01*
X160938334Y-99362388D01*
X161063785Y-99541551D01*
X161218448Y-99696214D01*
X161397611Y-99821665D01*
X161595846Y-99914104D01*
X161807106Y-99970711D01*
X161807113Y-99970712D01*
X161825000Y-99972277D01*
X161825000Y-99196879D01*
X161832007Y-99200925D01*
X161959174Y-99235000D01*
X162090826Y-99235000D01*
X162217993Y-99200925D01*
X162225000Y-99196879D01*
X162225000Y-99972276D01*
X162242886Y-99970712D01*
X162242893Y-99970711D01*
X162454153Y-99914104D01*
X162652388Y-99821665D01*
X162831551Y-99696214D01*
X162986214Y-99541551D01*
X163111665Y-99362388D01*
X163204101Y-99164158D01*
X163223521Y-99091685D01*
X163258000Y-99046752D01*
X163314153Y-99039359D01*
X163359086Y-99073838D01*
X163366479Y-99091685D01*
X163385898Y-99164158D01*
X163478334Y-99362388D01*
X163603785Y-99541551D01*
X163758448Y-99696214D01*
X163937611Y-99821665D01*
X164135846Y-99914104D01*
X164347106Y-99970711D01*
X164347113Y-99970712D01*
X164365000Y-99972277D01*
X164365000Y-99196879D01*
X164372007Y-99200925D01*
X164499174Y-99235000D01*
X164630826Y-99235000D01*
X164757993Y-99200925D01*
X164765000Y-99196879D01*
X164765000Y-99972276D01*
X164782886Y-99970712D01*
X164782893Y-99970711D01*
X164994153Y-99914104D01*
X165192388Y-99821665D01*
X165371551Y-99696214D01*
X165526214Y-99541551D01*
X165651665Y-99362388D01*
X165744101Y-99164158D01*
X165763521Y-99091685D01*
X165798000Y-99046752D01*
X165854153Y-99039359D01*
X165899086Y-99073838D01*
X165906479Y-99091685D01*
X165925898Y-99164158D01*
X166018334Y-99362388D01*
X166143785Y-99541551D01*
X166298448Y-99696214D01*
X166477611Y-99821665D01*
X166675846Y-99914104D01*
X166887106Y-99970711D01*
X166887113Y-99970712D01*
X166905000Y-99972277D01*
X166905000Y-99196879D01*
X166912007Y-99200925D01*
X167039174Y-99235000D01*
X167170826Y-99235000D01*
X167297993Y-99200925D01*
X167305000Y-99196879D01*
X167305000Y-99972276D01*
X167322886Y-99970712D01*
X167322893Y-99970711D01*
X167534153Y-99914104D01*
X167732388Y-99821665D01*
X167911551Y-99696214D01*
X168066214Y-99541551D01*
X168191665Y-99362388D01*
X168284101Y-99164158D01*
X168303521Y-99091685D01*
X168338000Y-99046752D01*
X168394153Y-99039359D01*
X168439086Y-99073838D01*
X168446479Y-99091685D01*
X168465898Y-99164158D01*
X168558334Y-99362388D01*
X168683785Y-99541551D01*
X168838448Y-99696214D01*
X169017611Y-99821665D01*
X169215846Y-99914104D01*
X169427106Y-99970711D01*
X169427113Y-99970712D01*
X169445000Y-99972277D01*
X169445000Y-99196879D01*
X169452007Y-99200925D01*
X169579174Y-99235000D01*
X169710826Y-99235000D01*
X169837993Y-99200925D01*
X169845000Y-99196879D01*
X169845000Y-99972276D01*
X169862886Y-99970712D01*
X169862893Y-99970711D01*
X170074153Y-99914104D01*
X170272388Y-99821665D01*
X170451551Y-99696214D01*
X170606214Y-99541551D01*
X170731665Y-99362388D01*
X170824101Y-99164158D01*
X170843521Y-99091685D01*
X170878000Y-99046752D01*
X170934153Y-99039359D01*
X170979086Y-99073838D01*
X170986479Y-99091685D01*
X171005898Y-99164158D01*
X171098334Y-99362388D01*
X171223785Y-99541551D01*
X171378448Y-99696214D01*
X171557611Y-99821665D01*
X171755846Y-99914104D01*
X171967106Y-99970711D01*
X171967113Y-99970712D01*
X171985000Y-99972277D01*
X171985000Y-99196879D01*
X171992007Y-99200925D01*
X172119174Y-99235000D01*
X172250826Y-99235000D01*
X172377993Y-99200925D01*
X172385000Y-99196879D01*
X172385000Y-99972276D01*
X172402886Y-99970712D01*
X172402893Y-99970711D01*
X172614153Y-99914104D01*
X172812388Y-99821665D01*
X172991551Y-99696214D01*
X173146214Y-99541551D01*
X173271665Y-99362388D01*
X173364101Y-99164158D01*
X173383521Y-99091685D01*
X173418000Y-99046752D01*
X173474153Y-99039359D01*
X173519086Y-99073838D01*
X173526479Y-99091685D01*
X173545898Y-99164158D01*
X173638334Y-99362388D01*
X173763785Y-99541551D01*
X173918448Y-99696214D01*
X174097611Y-99821665D01*
X174295846Y-99914104D01*
X174507106Y-99970711D01*
X174507113Y-99970712D01*
X174525000Y-99972277D01*
X174525000Y-99196879D01*
X174532007Y-99200925D01*
X174659174Y-99235000D01*
X174790826Y-99235000D01*
X174917993Y-99200925D01*
X174925000Y-99196879D01*
X174925000Y-99972277D01*
X174942886Y-99970712D01*
X174942893Y-99970711D01*
X175154153Y-99914104D01*
X175352388Y-99821665D01*
X175531551Y-99696214D01*
X175686214Y-99541551D01*
X175811665Y-99362388D01*
X175904101Y-99164158D01*
X175923521Y-99091685D01*
X175958000Y-99046752D01*
X176014153Y-99039359D01*
X176059086Y-99073838D01*
X176066479Y-99091685D01*
X176085898Y-99164158D01*
X176178334Y-99362388D01*
X176303785Y-99541551D01*
X176458448Y-99696214D01*
X176637611Y-99821665D01*
X176835846Y-99914104D01*
X177047106Y-99970711D01*
X177047113Y-99970712D01*
X177065000Y-99972277D01*
X177065000Y-99196879D01*
X177072007Y-99200925D01*
X177199174Y-99235000D01*
X177330826Y-99235000D01*
X177457993Y-99200925D01*
X177465000Y-99196879D01*
X177465000Y-99972277D01*
X177482886Y-99970712D01*
X177482893Y-99970711D01*
X177694153Y-99914104D01*
X177892388Y-99821665D01*
X178071551Y-99696214D01*
X178226214Y-99541551D01*
X178351665Y-99362388D01*
X178444101Y-99164158D01*
X178463521Y-99091685D01*
X178498000Y-99046752D01*
X178554153Y-99039359D01*
X178599086Y-99073838D01*
X178606479Y-99091685D01*
X178625898Y-99164158D01*
X178718334Y-99362388D01*
X178843785Y-99541551D01*
X178998448Y-99696214D01*
X179177611Y-99821665D01*
X179375846Y-99914104D01*
X179587106Y-99970711D01*
X179587113Y-99970712D01*
X179605000Y-99972277D01*
X179605000Y-99196879D01*
X179612007Y-99200925D01*
X179739174Y-99235000D01*
X179870826Y-99235000D01*
X179997993Y-99200925D01*
X180005000Y-99196879D01*
X180005000Y-99972276D01*
X180022886Y-99970712D01*
X180022893Y-99970711D01*
X180234153Y-99914104D01*
X180432388Y-99821665D01*
X180611551Y-99696214D01*
X180766214Y-99541551D01*
X180891665Y-99362388D01*
X180984101Y-99164158D01*
X181003521Y-99091685D01*
X181038000Y-99046752D01*
X181094153Y-99039359D01*
X181139086Y-99073838D01*
X181146479Y-99091685D01*
X181165898Y-99164158D01*
X181258334Y-99362388D01*
X181383785Y-99541551D01*
X181538448Y-99696214D01*
X181717611Y-99821665D01*
X181915846Y-99914104D01*
X182127106Y-99970711D01*
X182127113Y-99970712D01*
X182145000Y-99972277D01*
X182145000Y-99196879D01*
X182152007Y-99200925D01*
X182279174Y-99235000D01*
X182410826Y-99235000D01*
X182537993Y-99200925D01*
X182545000Y-99196879D01*
X182545000Y-99972276D01*
X182562886Y-99970712D01*
X182562893Y-99970711D01*
X182774153Y-99914104D01*
X182972388Y-99821665D01*
X183151551Y-99696214D01*
X183306214Y-99541551D01*
X183431665Y-99362388D01*
X183524101Y-99164158D01*
X183543521Y-99091685D01*
X183578000Y-99046752D01*
X183634153Y-99039359D01*
X183679086Y-99073838D01*
X183686479Y-99091685D01*
X183705898Y-99164158D01*
X183798334Y-99362388D01*
X183923785Y-99541551D01*
X184078448Y-99696214D01*
X184257611Y-99821665D01*
X184455846Y-99914104D01*
X184667106Y-99970711D01*
X184667113Y-99970712D01*
X184685000Y-99972277D01*
X184685000Y-99196879D01*
X184692007Y-99200925D01*
X184819174Y-99235000D01*
X184950826Y-99235000D01*
X185077993Y-99200925D01*
X185085000Y-99196879D01*
X185085000Y-99972276D01*
X185102886Y-99970712D01*
X185102893Y-99970711D01*
X185314153Y-99914104D01*
X185332566Y-99905518D01*
X187099500Y-99905518D01*
X187099500Y-100094481D01*
X187129059Y-100281115D01*
X187129062Y-100281128D01*
X187187449Y-100460824D01*
X187187452Y-100460831D01*
X187187453Y-100460832D01*
X187198983Y-100483462D01*
X187273239Y-100629198D01*
X187363159Y-100752962D01*
X187384310Y-100782073D01*
X187517927Y-100915690D01*
X187517930Y-100915692D01*
X187517931Y-100915693D01*
X187615903Y-100986874D01*
X187670801Y-101026760D01*
X187839168Y-101112547D01*
X187839171Y-101112547D01*
X187839175Y-101112550D01*
X188018871Y-101170937D01*
X188018877Y-101170938D01*
X188018882Y-101170940D01*
X188143306Y-101190646D01*
X188205518Y-101200500D01*
X188205519Y-101200500D01*
X188394482Y-101200500D01*
X188441140Y-101193110D01*
X188581118Y-101170940D01*
X188581125Y-101170937D01*
X188581128Y-101170937D01*
X188760824Y-101112550D01*
X188760826Y-101112548D01*
X188760832Y-101112547D01*
X188929199Y-101026760D01*
X189082073Y-100915690D01*
X189215690Y-100782073D01*
X189326760Y-100629199D01*
X189412547Y-100460832D01*
X189430607Y-100405252D01*
X189470937Y-100281128D01*
X189470937Y-100281125D01*
X189470940Y-100281118D01*
X189500500Y-100094481D01*
X189500500Y-99905519D01*
X189470940Y-99718882D01*
X189470938Y-99718877D01*
X189470937Y-99718871D01*
X189412550Y-99539175D01*
X189412547Y-99539171D01*
X189412547Y-99539168D01*
X189326760Y-99370801D01*
X189215690Y-99217927D01*
X189082073Y-99084310D01*
X189082070Y-99084307D01*
X189082068Y-99084306D01*
X188929198Y-98973239D01*
X188760824Y-98887449D01*
X188581128Y-98829062D01*
X188581115Y-98829059D01*
X188394482Y-98799500D01*
X188394481Y-98799500D01*
X188205519Y-98799500D01*
X188205518Y-98799500D01*
X188018884Y-98829059D01*
X188018871Y-98829062D01*
X187839175Y-98887449D01*
X187670801Y-98973239D01*
X187517931Y-99084306D01*
X187384306Y-99217931D01*
X187273239Y-99370801D01*
X187187449Y-99539175D01*
X187129062Y-99718871D01*
X187129059Y-99718884D01*
X187099500Y-99905518D01*
X185332566Y-99905518D01*
X185512388Y-99821665D01*
X185691551Y-99696214D01*
X185846214Y-99541551D01*
X185971665Y-99362388D01*
X186064104Y-99164153D01*
X186120711Y-98952893D01*
X186120712Y-98952886D01*
X186122277Y-98935000D01*
X185346880Y-98935000D01*
X185350925Y-98927993D01*
X185385000Y-98800826D01*
X185385000Y-98669174D01*
X185350925Y-98542007D01*
X185346880Y-98535000D01*
X186122277Y-98535000D01*
X186120712Y-98517113D01*
X186120711Y-98517106D01*
X186064105Y-98305849D01*
X186064100Y-98305838D01*
X185971665Y-98107612D01*
X185846212Y-97928445D01*
X185691551Y-97773785D01*
X185691552Y-97773785D01*
X185512388Y-97648334D01*
X185314153Y-97555895D01*
X185102896Y-97499288D01*
X185085000Y-97497722D01*
X185085000Y-98273120D01*
X185077993Y-98269075D01*
X184950826Y-98235000D01*
X184819174Y-98235000D01*
X184692007Y-98269075D01*
X184685000Y-98273120D01*
X184685000Y-97497722D01*
X184667103Y-97499288D01*
X184455849Y-97555894D01*
X184455838Y-97555899D01*
X184257612Y-97648334D01*
X184078445Y-97773787D01*
X183923787Y-97928445D01*
X183798334Y-98107612D01*
X183705899Y-98305838D01*
X183705894Y-98305849D01*
X183686478Y-98378314D01*
X183652000Y-98423247D01*
X183595847Y-98430639D01*
X183550914Y-98396161D01*
X183543522Y-98378314D01*
X183524105Y-98305849D01*
X183524100Y-98305838D01*
X183431665Y-98107612D01*
X183306212Y-97928445D01*
X183151551Y-97773785D01*
X183151552Y-97773785D01*
X182972388Y-97648334D01*
X182774153Y-97555895D01*
X182562896Y-97499288D01*
X182545000Y-97497722D01*
X182545000Y-98273120D01*
X182537993Y-98269075D01*
X182410826Y-98235000D01*
X182279174Y-98235000D01*
X182152007Y-98269075D01*
X182145000Y-98273120D01*
X182145000Y-97497722D01*
X182127103Y-97499288D01*
X181915849Y-97555894D01*
X181915838Y-97555899D01*
X181717612Y-97648334D01*
X181538445Y-97773787D01*
X181383787Y-97928445D01*
X181258334Y-98107612D01*
X181165899Y-98305838D01*
X181165894Y-98305849D01*
X181146478Y-98378314D01*
X181112000Y-98423247D01*
X181055847Y-98430639D01*
X181010914Y-98396161D01*
X181003522Y-98378314D01*
X180984105Y-98305849D01*
X180984100Y-98305838D01*
X180891665Y-98107612D01*
X180766212Y-97928445D01*
X180611551Y-97773785D01*
X180611552Y-97773785D01*
X180432388Y-97648334D01*
X180234153Y-97555895D01*
X180022896Y-97499288D01*
X180005000Y-97497722D01*
X180005000Y-98273120D01*
X179997993Y-98269075D01*
X179870826Y-98235000D01*
X179739174Y-98235000D01*
X179612007Y-98269075D01*
X179605000Y-98273120D01*
X179605000Y-97497722D01*
X179587103Y-97499288D01*
X179375849Y-97555894D01*
X179375838Y-97555899D01*
X179177612Y-97648334D01*
X178998445Y-97773787D01*
X178843787Y-97928445D01*
X178718334Y-98107612D01*
X178625899Y-98305838D01*
X178625894Y-98305849D01*
X178606478Y-98378314D01*
X178572000Y-98423247D01*
X178515847Y-98430639D01*
X178470914Y-98396161D01*
X178463522Y-98378314D01*
X178444105Y-98305849D01*
X178444100Y-98305838D01*
X178351665Y-98107612D01*
X178226212Y-97928445D01*
X178071551Y-97773785D01*
X178071552Y-97773785D01*
X177892388Y-97648334D01*
X177694153Y-97555895D01*
X177482896Y-97499288D01*
X177465000Y-97497722D01*
X177465000Y-98273120D01*
X177457993Y-98269075D01*
X177330826Y-98235000D01*
X177199174Y-98235000D01*
X177072007Y-98269075D01*
X177065000Y-98273120D01*
X177065000Y-97497722D01*
X177047103Y-97499288D01*
X176835849Y-97555894D01*
X176835838Y-97555899D01*
X176637612Y-97648334D01*
X176458445Y-97773787D01*
X176303787Y-97928445D01*
X176178334Y-98107612D01*
X176085899Y-98305838D01*
X176085894Y-98305849D01*
X176066478Y-98378314D01*
X176032000Y-98423247D01*
X175975847Y-98430639D01*
X175930914Y-98396161D01*
X175923522Y-98378314D01*
X175904105Y-98305849D01*
X175904100Y-98305838D01*
X175811665Y-98107612D01*
X175686212Y-97928445D01*
X175531551Y-97773785D01*
X175531552Y-97773785D01*
X175352388Y-97648334D01*
X175154153Y-97555895D01*
X174942896Y-97499288D01*
X174925000Y-97497722D01*
X174925000Y-98273120D01*
X174917993Y-98269075D01*
X174790826Y-98235000D01*
X174659174Y-98235000D01*
X174532007Y-98269075D01*
X174525000Y-98273120D01*
X174525000Y-97497722D01*
X174507103Y-97499288D01*
X174295849Y-97555894D01*
X174295838Y-97555899D01*
X174097612Y-97648334D01*
X173918445Y-97773787D01*
X173763787Y-97928445D01*
X173638334Y-98107612D01*
X173545899Y-98305838D01*
X173545894Y-98305849D01*
X173526478Y-98378314D01*
X173492000Y-98423247D01*
X173435847Y-98430639D01*
X173390914Y-98396161D01*
X173383522Y-98378314D01*
X173364105Y-98305849D01*
X173364100Y-98305838D01*
X173271665Y-98107612D01*
X173146212Y-97928445D01*
X172991551Y-97773785D01*
X172991552Y-97773785D01*
X172812388Y-97648334D01*
X172614153Y-97555895D01*
X172402896Y-97499288D01*
X172385000Y-97497722D01*
X172385000Y-98273120D01*
X172377993Y-98269075D01*
X172250826Y-98235000D01*
X172119174Y-98235000D01*
X171992007Y-98269075D01*
X171985000Y-98273120D01*
X171985000Y-97497722D01*
X171967103Y-97499288D01*
X171755849Y-97555894D01*
X171755838Y-97555899D01*
X171557612Y-97648334D01*
X171378445Y-97773787D01*
X171223787Y-97928445D01*
X171098334Y-98107612D01*
X171005899Y-98305838D01*
X171005894Y-98305849D01*
X170986478Y-98378314D01*
X170952000Y-98423247D01*
X170895847Y-98430639D01*
X170850914Y-98396161D01*
X170843522Y-98378314D01*
X170824105Y-98305849D01*
X170824100Y-98305838D01*
X170731665Y-98107612D01*
X170606212Y-97928445D01*
X170451551Y-97773785D01*
X170451552Y-97773785D01*
X170272388Y-97648334D01*
X170074153Y-97555895D01*
X169862896Y-97499288D01*
X169845000Y-97497722D01*
X169845000Y-98273120D01*
X169837993Y-98269075D01*
X169710826Y-98235000D01*
X169579174Y-98235000D01*
X169452007Y-98269075D01*
X169445000Y-98273120D01*
X169445000Y-97497722D01*
X169427103Y-97499288D01*
X169215849Y-97555894D01*
X169215838Y-97555899D01*
X169017612Y-97648334D01*
X168838445Y-97773787D01*
X168683787Y-97928445D01*
X168558334Y-98107612D01*
X168465899Y-98305838D01*
X168465894Y-98305849D01*
X168446478Y-98378314D01*
X168412000Y-98423247D01*
X168355847Y-98430639D01*
X168310914Y-98396161D01*
X168303522Y-98378314D01*
X168284105Y-98305849D01*
X168284100Y-98305838D01*
X168191665Y-98107612D01*
X168066212Y-97928445D01*
X167911551Y-97773785D01*
X167911552Y-97773785D01*
X167732388Y-97648334D01*
X167534153Y-97555895D01*
X167322896Y-97499288D01*
X167305000Y-97497722D01*
X167305000Y-98273120D01*
X167297993Y-98269075D01*
X167170826Y-98235000D01*
X167039174Y-98235000D01*
X166912007Y-98269075D01*
X166905000Y-98273120D01*
X166905000Y-97497722D01*
X166887103Y-97499288D01*
X166675849Y-97555894D01*
X166675838Y-97555899D01*
X166477612Y-97648334D01*
X166298445Y-97773787D01*
X166143787Y-97928445D01*
X166018334Y-98107612D01*
X165925899Y-98305838D01*
X165925894Y-98305849D01*
X165906478Y-98378314D01*
X165872000Y-98423247D01*
X165815847Y-98430639D01*
X165770914Y-98396161D01*
X165763522Y-98378314D01*
X165744105Y-98305849D01*
X165744100Y-98305838D01*
X165651665Y-98107612D01*
X165526212Y-97928445D01*
X165371551Y-97773785D01*
X165371552Y-97773785D01*
X165192388Y-97648334D01*
X164994153Y-97555895D01*
X164782896Y-97499288D01*
X164765000Y-97497722D01*
X164765000Y-98273120D01*
X164757993Y-98269075D01*
X164630826Y-98235000D01*
X164499174Y-98235000D01*
X164372007Y-98269075D01*
X164365000Y-98273120D01*
X164365000Y-97497722D01*
X164347103Y-97499288D01*
X164135849Y-97555894D01*
X164135838Y-97555899D01*
X163937612Y-97648334D01*
X163758445Y-97773787D01*
X163603787Y-97928445D01*
X163478334Y-98107612D01*
X163385899Y-98305838D01*
X163385894Y-98305849D01*
X163366478Y-98378314D01*
X163332000Y-98423247D01*
X163275847Y-98430639D01*
X163230914Y-98396161D01*
X163223522Y-98378314D01*
X163204105Y-98305849D01*
X163204100Y-98305838D01*
X163111665Y-98107612D01*
X162986212Y-97928445D01*
X162831551Y-97773785D01*
X162831552Y-97773785D01*
X162652388Y-97648334D01*
X162454153Y-97555895D01*
X162242896Y-97499288D01*
X162225000Y-97497722D01*
X162225000Y-98273120D01*
X162217993Y-98269075D01*
X162090826Y-98235000D01*
X161959174Y-98235000D01*
X161832007Y-98269075D01*
X161825000Y-98273120D01*
X161825000Y-97497722D01*
X161807103Y-97499288D01*
X161595849Y-97555894D01*
X161595838Y-97555899D01*
X161397612Y-97648334D01*
X161218445Y-97773787D01*
X161063787Y-97928445D01*
X160938334Y-98107612D01*
X160845899Y-98305838D01*
X160845894Y-98305849D01*
X160789288Y-98517106D01*
X160789287Y-98517113D01*
X160787723Y-98535000D01*
X148500500Y-98535000D01*
X148500500Y-96997872D01*
X148488867Y-96939389D01*
X148444552Y-96873068D01*
X148394643Y-96839719D01*
X148378232Y-96828753D01*
X148378233Y-96828753D01*
X148348989Y-96822936D01*
X148319748Y-96817120D01*
X146680252Y-96817120D01*
X146651010Y-96822936D01*
X146621767Y-96828753D01*
X146555449Y-96873067D01*
X146555447Y-96873069D01*
X146511133Y-96939387D01*
X146499500Y-96997873D01*
X115589629Y-96997873D01*
X115584719Y-96966874D01*
X115584719Y-96966873D01*
X115523528Y-96846780D01*
X115428219Y-96751471D01*
X115308126Y-96690281D01*
X115308126Y-96690280D01*
X115175000Y-96669196D01*
X115041873Y-96690280D01*
X115041873Y-96690281D01*
X114921780Y-96751471D01*
X114826471Y-96846780D01*
X114765281Y-96966873D01*
X114765280Y-96966873D01*
X114744196Y-97100000D01*
X109950500Y-97100000D01*
X109950500Y-96430000D01*
X119779196Y-96430000D01*
X119800280Y-96563126D01*
X119854326Y-96669196D01*
X119861472Y-96683220D01*
X119956780Y-96778528D01*
X120076873Y-96839718D01*
X120076873Y-96839719D01*
X120095075Y-96842601D01*
X120210000Y-96860804D01*
X120343126Y-96839719D01*
X120463220Y-96778528D01*
X120558528Y-96683220D01*
X120619719Y-96563126D01*
X120640804Y-96430000D01*
X120619719Y-96296874D01*
X120619719Y-96296873D01*
X120558528Y-96176780D01*
X120471748Y-96090000D01*
X134679196Y-96090000D01*
X134700280Y-96223126D01*
X134761471Y-96343219D01*
X134761472Y-96343220D01*
X134856780Y-96438528D01*
X134976873Y-96499718D01*
X134976873Y-96499719D01*
X134995075Y-96502601D01*
X135110000Y-96520804D01*
X135243126Y-96499719D01*
X135363220Y-96438528D01*
X135458528Y-96343220D01*
X135519719Y-96223126D01*
X135540804Y-96090000D01*
X135779196Y-96090000D01*
X135800280Y-96223126D01*
X135861471Y-96343219D01*
X135861472Y-96343220D01*
X135956780Y-96438528D01*
X136076873Y-96499718D01*
X136076873Y-96499719D01*
X136095075Y-96502601D01*
X136210000Y-96520804D01*
X136343126Y-96499719D01*
X136463220Y-96438528D01*
X136558528Y-96343220D01*
X136619719Y-96223126D01*
X136640804Y-96090000D01*
X136619719Y-95956874D01*
X136619719Y-95956873D01*
X136558528Y-95836780D01*
X136463219Y-95741471D01*
X136343126Y-95680281D01*
X136343126Y-95680280D01*
X136210000Y-95659196D01*
X136076873Y-95680280D01*
X136076873Y-95680281D01*
X135956780Y-95741471D01*
X135861471Y-95836780D01*
X135800281Y-95956873D01*
X135800280Y-95956873D01*
X135779196Y-96090000D01*
X135540804Y-96090000D01*
X135519719Y-95956874D01*
X135519719Y-95956873D01*
X135458528Y-95836780D01*
X135363219Y-95741471D01*
X135243126Y-95680281D01*
X135243126Y-95680280D01*
X135110000Y-95659196D01*
X134976873Y-95680280D01*
X134976873Y-95680281D01*
X134856780Y-95741471D01*
X134761471Y-95836780D01*
X134700281Y-95956873D01*
X134700280Y-95956873D01*
X134679196Y-96090000D01*
X120471748Y-96090000D01*
X120463219Y-96081471D01*
X120343126Y-96020281D01*
X120343126Y-96020280D01*
X120210000Y-95999196D01*
X120076873Y-96020280D01*
X120076873Y-96020281D01*
X119956780Y-96081471D01*
X119861471Y-96176780D01*
X119800281Y-96296873D01*
X119800280Y-96296873D01*
X119779196Y-96430000D01*
X109950500Y-96430000D01*
X109950500Y-95320000D01*
X133099196Y-95320000D01*
X133120280Y-95453126D01*
X133181471Y-95573219D01*
X133181472Y-95573220D01*
X133276780Y-95668528D01*
X133396873Y-95729718D01*
X133396873Y-95729719D01*
X133415075Y-95732601D01*
X133530000Y-95750804D01*
X133663126Y-95729719D01*
X133783220Y-95668528D01*
X133878528Y-95573220D01*
X133939719Y-95453126D01*
X133960804Y-95320000D01*
X133939719Y-95186874D01*
X133939719Y-95186873D01*
X133878528Y-95066780D01*
X133783219Y-94971471D01*
X133663126Y-94910281D01*
X133663126Y-94910280D01*
X133530000Y-94889196D01*
X133396873Y-94910280D01*
X133396873Y-94910281D01*
X133276780Y-94971471D01*
X133181471Y-95066780D01*
X133120281Y-95186873D01*
X133120280Y-95186873D01*
X133099196Y-95320000D01*
X109950500Y-95320000D01*
X109950500Y-87916233D01*
X113239500Y-87916233D01*
X113239500Y-88083766D01*
X113272182Y-88248075D01*
X113272184Y-88248082D01*
X113336296Y-88402862D01*
X113429270Y-88542007D01*
X113429374Y-88542162D01*
X113547838Y-88660626D01*
X113687137Y-88753703D01*
X113841918Y-88817816D01*
X114006233Y-88850500D01*
X114006234Y-88850500D01*
X114094747Y-88850500D01*
X114147073Y-88872174D01*
X114168747Y-88924500D01*
X114166226Y-88943653D01*
X114144858Y-89023398D01*
X114144857Y-89023400D01*
X114142530Y-89049999D01*
X114142530Y-89050000D01*
X114862424Y-89050000D01*
X114830000Y-89171009D01*
X114830000Y-89328991D01*
X114862424Y-89450000D01*
X114142530Y-89450000D01*
X114144857Y-89476599D01*
X114144860Y-89476611D01*
X114203730Y-89696317D01*
X114203735Y-89696328D01*
X114299867Y-89902483D01*
X114430336Y-90088813D01*
X114591186Y-90249663D01*
X114777516Y-90380132D01*
X114983671Y-90476264D01*
X114983682Y-90476269D01*
X115203390Y-90535140D01*
X115230000Y-90537467D01*
X115230000Y-89817575D01*
X115351009Y-89850000D01*
X115508991Y-89850000D01*
X115630000Y-89817575D01*
X115630000Y-90537467D01*
X115656609Y-90535140D01*
X115876317Y-90476269D01*
X115876328Y-90476264D01*
X116082483Y-90380132D01*
X116268813Y-90249663D01*
X116429663Y-90088813D01*
X116560132Y-89902483D01*
X116656264Y-89696328D01*
X116656269Y-89696317D01*
X116715139Y-89476611D01*
X116715142Y-89476599D01*
X116715282Y-89475000D01*
X130969196Y-89475000D01*
X130990280Y-89608126D01*
X131035222Y-89696328D01*
X131051472Y-89728220D01*
X131146780Y-89823528D01*
X131266873Y-89884718D01*
X131266873Y-89884719D01*
X131285075Y-89887601D01*
X131400000Y-89905804D01*
X131401806Y-89905518D01*
X144699500Y-89905518D01*
X144699500Y-90094481D01*
X144729059Y-90281115D01*
X144729062Y-90281128D01*
X144787449Y-90460824D01*
X144873239Y-90629198D01*
X144916360Y-90688549D01*
X144984310Y-90782073D01*
X145117927Y-90915690D01*
X145270801Y-91026760D01*
X145439168Y-91112547D01*
X145439171Y-91112547D01*
X145439175Y-91112550D01*
X145618871Y-91170937D01*
X145618877Y-91170938D01*
X145618882Y-91170940D01*
X145743306Y-91190646D01*
X145805518Y-91200500D01*
X145805519Y-91200500D01*
X145994482Y-91200500D01*
X146041140Y-91193110D01*
X146181118Y-91170940D01*
X146181125Y-91170937D01*
X146181128Y-91170937D01*
X146360824Y-91112550D01*
X146360826Y-91112548D01*
X146360832Y-91112547D01*
X146529199Y-91026760D01*
X146682073Y-90915690D01*
X146815690Y-90782073D01*
X146926760Y-90629199D01*
X147012547Y-90460832D01*
X147030607Y-90405253D01*
X148274500Y-90405253D01*
X148274500Y-92144746D01*
X148286133Y-92203232D01*
X148315608Y-92247343D01*
X148330448Y-92269552D01*
X148374560Y-92299027D01*
X148396767Y-92313866D01*
X148396768Y-92313866D01*
X148396769Y-92313867D01*
X148455252Y-92325500D01*
X148455254Y-92325500D01*
X150194746Y-92325500D01*
X150194748Y-92325500D01*
X150253231Y-92313867D01*
X150319552Y-92269552D01*
X150363867Y-92203231D01*
X150375500Y-92144748D01*
X150375500Y-91275000D01*
X150809417Y-91275000D01*
X150829700Y-91480934D01*
X150889768Y-91678954D01*
X150987315Y-91861450D01*
X151118590Y-92021410D01*
X151278550Y-92152685D01*
X151461046Y-92250232D01*
X151659066Y-92310300D01*
X151865000Y-92330583D01*
X152070934Y-92310300D01*
X152268954Y-92250232D01*
X152451450Y-92152685D01*
X152611410Y-92021410D01*
X152742685Y-91861450D01*
X152840232Y-91678954D01*
X152900300Y-91480934D01*
X152920583Y-91275000D01*
X153349417Y-91275000D01*
X153369700Y-91480934D01*
X153429768Y-91678954D01*
X153527315Y-91861450D01*
X153658590Y-92021410D01*
X153818550Y-92152685D01*
X154001046Y-92250232D01*
X154199066Y-92310300D01*
X154405000Y-92330583D01*
X154610934Y-92310300D01*
X154808954Y-92250232D01*
X154991450Y-92152685D01*
X155151410Y-92021410D01*
X155282685Y-91861450D01*
X155380232Y-91678954D01*
X155440300Y-91480934D01*
X155460583Y-91275000D01*
X155889417Y-91275000D01*
X155909700Y-91480934D01*
X155969768Y-91678954D01*
X156067315Y-91861450D01*
X156198590Y-92021410D01*
X156358550Y-92152685D01*
X156541046Y-92250232D01*
X156739066Y-92310300D01*
X156945000Y-92330583D01*
X157150934Y-92310300D01*
X157348954Y-92250232D01*
X157531450Y-92152685D01*
X157691410Y-92021410D01*
X157822685Y-91861450D01*
X157920232Y-91678954D01*
X157980300Y-91480934D01*
X158000583Y-91275000D01*
X158429417Y-91275000D01*
X158449700Y-91480934D01*
X158509768Y-91678954D01*
X158607315Y-91861450D01*
X158738590Y-92021410D01*
X158898550Y-92152685D01*
X159081046Y-92250232D01*
X159279066Y-92310300D01*
X159485000Y-92330583D01*
X159690934Y-92310300D01*
X159888954Y-92250232D01*
X160071450Y-92152685D01*
X160231410Y-92021410D01*
X160362685Y-91861450D01*
X160460232Y-91678954D01*
X160520300Y-91480934D01*
X160540583Y-91275000D01*
X160969417Y-91275000D01*
X160989700Y-91480934D01*
X161049768Y-91678954D01*
X161147315Y-91861450D01*
X161278590Y-92021410D01*
X161438550Y-92152685D01*
X161621046Y-92250232D01*
X161819066Y-92310300D01*
X162025000Y-92330583D01*
X162230934Y-92310300D01*
X162428954Y-92250232D01*
X162611450Y-92152685D01*
X162771410Y-92021410D01*
X162902685Y-91861450D01*
X163000232Y-91678954D01*
X163060300Y-91480934D01*
X163080583Y-91275000D01*
X163509417Y-91275000D01*
X163529700Y-91480934D01*
X163589768Y-91678954D01*
X163687315Y-91861450D01*
X163818590Y-92021410D01*
X163978550Y-92152685D01*
X164161046Y-92250232D01*
X164359066Y-92310300D01*
X164565000Y-92330583D01*
X164770934Y-92310300D01*
X164968954Y-92250232D01*
X165151450Y-92152685D01*
X165311410Y-92021410D01*
X165442685Y-91861450D01*
X165540232Y-91678954D01*
X165600300Y-91480934D01*
X165620583Y-91275000D01*
X166049417Y-91275000D01*
X166069700Y-91480934D01*
X166129768Y-91678954D01*
X166227315Y-91861450D01*
X166358590Y-92021410D01*
X166518550Y-92152685D01*
X166701046Y-92250232D01*
X166899066Y-92310300D01*
X167105000Y-92330583D01*
X167310934Y-92310300D01*
X167508954Y-92250232D01*
X167691450Y-92152685D01*
X167851410Y-92021410D01*
X167982685Y-91861450D01*
X168080232Y-91678954D01*
X168140300Y-91480934D01*
X168160583Y-91275000D01*
X168589417Y-91275000D01*
X168609700Y-91480934D01*
X168669768Y-91678954D01*
X168767315Y-91861450D01*
X168898590Y-92021410D01*
X169058550Y-92152685D01*
X169241046Y-92250232D01*
X169439066Y-92310300D01*
X169645000Y-92330583D01*
X169850934Y-92310300D01*
X170048954Y-92250232D01*
X170231450Y-92152685D01*
X170391410Y-92021410D01*
X170522685Y-91861450D01*
X170620232Y-91678954D01*
X170680300Y-91480934D01*
X170700583Y-91275000D01*
X171129417Y-91275000D01*
X171149700Y-91480934D01*
X171209768Y-91678954D01*
X171307315Y-91861450D01*
X171438590Y-92021410D01*
X171598550Y-92152685D01*
X171781046Y-92250232D01*
X171979066Y-92310300D01*
X172185000Y-92330583D01*
X172390934Y-92310300D01*
X172588954Y-92250232D01*
X172771450Y-92152685D01*
X172931410Y-92021410D01*
X173062685Y-91861450D01*
X173160232Y-91678954D01*
X173220300Y-91480934D01*
X173240583Y-91275000D01*
X173669417Y-91275000D01*
X173689700Y-91480934D01*
X173749768Y-91678954D01*
X173847315Y-91861450D01*
X173978590Y-92021410D01*
X174138550Y-92152685D01*
X174321046Y-92250232D01*
X174519066Y-92310300D01*
X174725000Y-92330583D01*
X174930934Y-92310300D01*
X175128954Y-92250232D01*
X175311450Y-92152685D01*
X175471410Y-92021410D01*
X175602685Y-91861450D01*
X175700232Y-91678954D01*
X175760300Y-91480934D01*
X175780583Y-91275000D01*
X176209417Y-91275000D01*
X176229700Y-91480934D01*
X176289768Y-91678954D01*
X176387315Y-91861450D01*
X176518590Y-92021410D01*
X176678550Y-92152685D01*
X176861046Y-92250232D01*
X177059066Y-92310300D01*
X177265000Y-92330583D01*
X177470934Y-92310300D01*
X177668954Y-92250232D01*
X177851450Y-92152685D01*
X178011410Y-92021410D01*
X178142685Y-91861450D01*
X178240232Y-91678954D01*
X178300300Y-91480934D01*
X178320583Y-91275000D01*
X178749417Y-91275000D01*
X178769700Y-91480934D01*
X178829768Y-91678954D01*
X178927315Y-91861450D01*
X179058590Y-92021410D01*
X179218550Y-92152685D01*
X179401046Y-92250232D01*
X179599066Y-92310300D01*
X179805000Y-92330583D01*
X180010934Y-92310300D01*
X180208954Y-92250232D01*
X180391450Y-92152685D01*
X180551410Y-92021410D01*
X180682685Y-91861450D01*
X180780232Y-91678954D01*
X180840300Y-91480934D01*
X180860583Y-91275000D01*
X181289417Y-91275000D01*
X181309700Y-91480934D01*
X181369768Y-91678954D01*
X181467315Y-91861450D01*
X181598590Y-92021410D01*
X181758550Y-92152685D01*
X181941046Y-92250232D01*
X182139066Y-92310300D01*
X182345000Y-92330583D01*
X182550934Y-92310300D01*
X182748954Y-92250232D01*
X182931450Y-92152685D01*
X183091410Y-92021410D01*
X183222685Y-91861450D01*
X183320232Y-91678954D01*
X183380300Y-91480934D01*
X183400583Y-91275000D01*
X183829417Y-91275000D01*
X183849700Y-91480934D01*
X183909768Y-91678954D01*
X184007315Y-91861450D01*
X184138590Y-92021410D01*
X184298550Y-92152685D01*
X184481046Y-92250232D01*
X184679066Y-92310300D01*
X184885000Y-92330583D01*
X185090934Y-92310300D01*
X185288954Y-92250232D01*
X185471450Y-92152685D01*
X185631410Y-92021410D01*
X185762685Y-91861450D01*
X185860232Y-91678954D01*
X185920300Y-91480934D01*
X185940583Y-91275000D01*
X185920300Y-91069066D01*
X185860232Y-90871046D01*
X185762685Y-90688550D01*
X185631410Y-90528590D01*
X185548836Y-90460824D01*
X185471450Y-90397315D01*
X185288956Y-90299769D01*
X185288955Y-90299768D01*
X185288954Y-90299768D01*
X185177158Y-90265855D01*
X185090935Y-90239700D01*
X184885000Y-90219417D01*
X184679064Y-90239700D01*
X184481043Y-90299769D01*
X184298549Y-90397315D01*
X184138590Y-90528589D01*
X184138589Y-90528590D01*
X184007315Y-90688549D01*
X183909769Y-90871043D01*
X183849700Y-91069064D01*
X183849700Y-91069066D01*
X183829417Y-91275000D01*
X183400583Y-91275000D01*
X183380300Y-91069066D01*
X183320232Y-90871046D01*
X183222685Y-90688550D01*
X183091410Y-90528590D01*
X183008836Y-90460824D01*
X182931450Y-90397315D01*
X182748956Y-90299769D01*
X182748955Y-90299768D01*
X182748954Y-90299768D01*
X182637158Y-90265855D01*
X182550935Y-90239700D01*
X182345000Y-90219417D01*
X182139064Y-90239700D01*
X181941043Y-90299769D01*
X181758549Y-90397315D01*
X181598590Y-90528589D01*
X181598589Y-90528590D01*
X181467315Y-90688549D01*
X181369769Y-90871043D01*
X181309700Y-91069064D01*
X181309700Y-91069066D01*
X181289417Y-91275000D01*
X180860583Y-91275000D01*
X180840300Y-91069066D01*
X180780232Y-90871046D01*
X180682685Y-90688550D01*
X180551410Y-90528590D01*
X180468836Y-90460824D01*
X180391450Y-90397315D01*
X180208956Y-90299769D01*
X180208955Y-90299768D01*
X180208954Y-90299768D01*
X180097158Y-90265855D01*
X180010935Y-90239700D01*
X179805000Y-90219417D01*
X179599064Y-90239700D01*
X179401043Y-90299769D01*
X179218549Y-90397315D01*
X179058590Y-90528589D01*
X179058589Y-90528590D01*
X178927315Y-90688549D01*
X178829769Y-90871043D01*
X178769700Y-91069064D01*
X178769700Y-91069066D01*
X178749417Y-91275000D01*
X178320583Y-91275000D01*
X178300300Y-91069066D01*
X178240232Y-90871046D01*
X178142685Y-90688550D01*
X178011410Y-90528590D01*
X177928836Y-90460824D01*
X177851450Y-90397315D01*
X177668956Y-90299769D01*
X177668955Y-90299768D01*
X177668954Y-90299768D01*
X177557158Y-90265855D01*
X177470935Y-90239700D01*
X177265000Y-90219417D01*
X177059064Y-90239700D01*
X176861043Y-90299769D01*
X176678549Y-90397315D01*
X176518590Y-90528589D01*
X176518589Y-90528590D01*
X176387315Y-90688549D01*
X176289769Y-90871043D01*
X176229700Y-91069064D01*
X176229700Y-91069066D01*
X176209417Y-91275000D01*
X175780583Y-91275000D01*
X175760300Y-91069066D01*
X175700232Y-90871046D01*
X175602685Y-90688550D01*
X175471410Y-90528590D01*
X175388836Y-90460824D01*
X175311450Y-90397315D01*
X175128956Y-90299769D01*
X175128955Y-90299768D01*
X175128954Y-90299768D01*
X175017158Y-90265855D01*
X174930935Y-90239700D01*
X174725000Y-90219417D01*
X174519064Y-90239700D01*
X174321043Y-90299769D01*
X174138549Y-90397315D01*
X173978590Y-90528589D01*
X173978589Y-90528590D01*
X173847315Y-90688549D01*
X173749769Y-90871043D01*
X173689700Y-91069064D01*
X173689700Y-91069066D01*
X173669417Y-91275000D01*
X173240583Y-91275000D01*
X173220300Y-91069066D01*
X173160232Y-90871046D01*
X173062685Y-90688550D01*
X172931410Y-90528590D01*
X172848836Y-90460824D01*
X172771450Y-90397315D01*
X172588956Y-90299769D01*
X172588955Y-90299768D01*
X172588954Y-90299768D01*
X172477158Y-90265855D01*
X172390935Y-90239700D01*
X172185000Y-90219417D01*
X171979064Y-90239700D01*
X171781043Y-90299769D01*
X171598549Y-90397315D01*
X171438590Y-90528589D01*
X171438589Y-90528590D01*
X171307315Y-90688549D01*
X171209769Y-90871043D01*
X171149700Y-91069064D01*
X171149700Y-91069066D01*
X171129417Y-91275000D01*
X170700583Y-91275000D01*
X170680300Y-91069066D01*
X170620232Y-90871046D01*
X170522685Y-90688550D01*
X170391410Y-90528590D01*
X170308836Y-90460824D01*
X170231450Y-90397315D01*
X170048956Y-90299769D01*
X170048955Y-90299768D01*
X170048954Y-90299768D01*
X169937158Y-90265855D01*
X169850935Y-90239700D01*
X169645000Y-90219417D01*
X169439064Y-90239700D01*
X169241043Y-90299769D01*
X169058549Y-90397315D01*
X168898590Y-90528589D01*
X168898589Y-90528590D01*
X168767315Y-90688549D01*
X168669769Y-90871043D01*
X168609700Y-91069064D01*
X168609700Y-91069066D01*
X168589417Y-91275000D01*
X168160583Y-91275000D01*
X168140300Y-91069066D01*
X168080232Y-90871046D01*
X167982685Y-90688550D01*
X167851410Y-90528590D01*
X167768836Y-90460824D01*
X167691450Y-90397315D01*
X167508956Y-90299769D01*
X167508955Y-90299768D01*
X167508954Y-90299768D01*
X167397158Y-90265855D01*
X167310935Y-90239700D01*
X167105000Y-90219417D01*
X166899064Y-90239700D01*
X166701043Y-90299769D01*
X166518549Y-90397315D01*
X166358590Y-90528589D01*
X166358589Y-90528590D01*
X166227315Y-90688549D01*
X166129769Y-90871043D01*
X166069700Y-91069064D01*
X166069700Y-91069066D01*
X166049417Y-91275000D01*
X165620583Y-91275000D01*
X165600300Y-91069066D01*
X165540232Y-90871046D01*
X165442685Y-90688550D01*
X165311410Y-90528590D01*
X165228836Y-90460824D01*
X165151450Y-90397315D01*
X164968956Y-90299769D01*
X164968955Y-90299768D01*
X164968954Y-90299768D01*
X164857158Y-90265855D01*
X164770935Y-90239700D01*
X164565000Y-90219417D01*
X164359064Y-90239700D01*
X164161043Y-90299769D01*
X163978549Y-90397315D01*
X163818590Y-90528589D01*
X163818589Y-90528590D01*
X163687315Y-90688549D01*
X163589769Y-90871043D01*
X163529700Y-91069064D01*
X163529700Y-91069066D01*
X163509417Y-91275000D01*
X163080583Y-91275000D01*
X163060300Y-91069066D01*
X163000232Y-90871046D01*
X162902685Y-90688550D01*
X162771410Y-90528590D01*
X162688836Y-90460824D01*
X162611450Y-90397315D01*
X162428956Y-90299769D01*
X162428955Y-90299768D01*
X162428954Y-90299768D01*
X162317158Y-90265855D01*
X162230935Y-90239700D01*
X162025000Y-90219417D01*
X161819064Y-90239700D01*
X161621043Y-90299769D01*
X161438549Y-90397315D01*
X161278590Y-90528589D01*
X161278589Y-90528590D01*
X161147315Y-90688549D01*
X161049769Y-90871043D01*
X160989700Y-91069064D01*
X160989700Y-91069066D01*
X160969417Y-91275000D01*
X160540583Y-91275000D01*
X160520300Y-91069066D01*
X160460232Y-90871046D01*
X160362685Y-90688550D01*
X160231410Y-90528590D01*
X160148836Y-90460824D01*
X160071450Y-90397315D01*
X159888956Y-90299769D01*
X159888955Y-90299768D01*
X159888954Y-90299768D01*
X159777158Y-90265855D01*
X159690935Y-90239700D01*
X159485000Y-90219417D01*
X159279064Y-90239700D01*
X159081043Y-90299769D01*
X158898549Y-90397315D01*
X158738590Y-90528589D01*
X158738589Y-90528590D01*
X158607315Y-90688549D01*
X158509769Y-90871043D01*
X158449700Y-91069064D01*
X158449700Y-91069066D01*
X158429417Y-91275000D01*
X158000583Y-91275000D01*
X157980300Y-91069066D01*
X157920232Y-90871046D01*
X157822685Y-90688550D01*
X157691410Y-90528590D01*
X157608836Y-90460824D01*
X157531450Y-90397315D01*
X157348956Y-90299769D01*
X157348955Y-90299768D01*
X157348954Y-90299768D01*
X157237158Y-90265855D01*
X157150935Y-90239700D01*
X156945000Y-90219417D01*
X156739064Y-90239700D01*
X156541043Y-90299769D01*
X156358549Y-90397315D01*
X156198590Y-90528589D01*
X156198589Y-90528590D01*
X156067315Y-90688549D01*
X155969769Y-90871043D01*
X155909700Y-91069064D01*
X155909700Y-91069066D01*
X155889417Y-91275000D01*
X155460583Y-91275000D01*
X155440300Y-91069066D01*
X155380232Y-90871046D01*
X155282685Y-90688550D01*
X155151410Y-90528590D01*
X155068836Y-90460824D01*
X154991450Y-90397315D01*
X154808956Y-90299769D01*
X154808955Y-90299768D01*
X154808954Y-90299768D01*
X154697158Y-90265855D01*
X154610935Y-90239700D01*
X154405000Y-90219417D01*
X154199064Y-90239700D01*
X154001043Y-90299769D01*
X153818549Y-90397315D01*
X153658590Y-90528589D01*
X153658589Y-90528590D01*
X153527315Y-90688549D01*
X153429769Y-90871043D01*
X153369700Y-91069064D01*
X153369700Y-91069066D01*
X153349417Y-91275000D01*
X152920583Y-91275000D01*
X152900300Y-91069066D01*
X152840232Y-90871046D01*
X152742685Y-90688550D01*
X152611410Y-90528590D01*
X152528836Y-90460824D01*
X152451450Y-90397315D01*
X152268956Y-90299769D01*
X152268955Y-90299768D01*
X152268954Y-90299768D01*
X152157158Y-90265855D01*
X152070935Y-90239700D01*
X151865000Y-90219417D01*
X151659064Y-90239700D01*
X151461043Y-90299769D01*
X151278549Y-90397315D01*
X151118590Y-90528589D01*
X151118589Y-90528590D01*
X150987315Y-90688549D01*
X150889769Y-90871043D01*
X150829700Y-91069064D01*
X150829700Y-91069066D01*
X150809417Y-91275000D01*
X150375500Y-91275000D01*
X150375500Y-90405252D01*
X150363867Y-90346769D01*
X150319552Y-90280448D01*
X150273480Y-90249663D01*
X150253232Y-90236133D01*
X150253233Y-90236133D01*
X150223989Y-90230316D01*
X150194748Y-90224500D01*
X148455252Y-90224500D01*
X148426010Y-90230316D01*
X148396767Y-90236133D01*
X148330449Y-90280447D01*
X148330447Y-90280449D01*
X148286133Y-90346767D01*
X148274500Y-90405253D01*
X147030607Y-90405253D01*
X147030607Y-90405252D01*
X147070937Y-90281128D01*
X147070937Y-90281125D01*
X147070940Y-90281118D01*
X147100500Y-90094481D01*
X147100500Y-89905519D01*
X147097205Y-89884718D01*
X147085231Y-89809111D01*
X147070940Y-89718882D01*
X147070938Y-89718877D01*
X147070937Y-89718871D01*
X147012550Y-89539175D01*
X147012547Y-89539171D01*
X147012547Y-89539168D01*
X146926760Y-89370801D01*
X146815690Y-89217927D01*
X146682073Y-89084310D01*
X146682070Y-89084307D01*
X146682068Y-89084306D01*
X146529198Y-88973239D01*
X146360824Y-88887449D01*
X146181128Y-88829062D01*
X146181115Y-88829059D01*
X145994482Y-88799500D01*
X145994481Y-88799500D01*
X145805519Y-88799500D01*
X145805518Y-88799500D01*
X145618884Y-88829059D01*
X145618871Y-88829062D01*
X145439175Y-88887449D01*
X145270801Y-88973239D01*
X145117931Y-89084306D01*
X144984306Y-89217931D01*
X144873239Y-89370801D01*
X144787449Y-89539175D01*
X144729062Y-89718871D01*
X144729059Y-89718884D01*
X144699500Y-89905518D01*
X131401806Y-89905518D01*
X131533126Y-89884719D01*
X131653220Y-89823528D01*
X131748528Y-89728220D01*
X131809719Y-89608126D01*
X131830804Y-89475000D01*
X131809719Y-89341874D01*
X131809719Y-89341873D01*
X131748528Y-89221780D01*
X131653219Y-89126471D01*
X131533126Y-89065281D01*
X131533126Y-89065280D01*
X131400000Y-89044196D01*
X131266873Y-89065280D01*
X131266873Y-89065281D01*
X131146780Y-89126471D01*
X131051471Y-89221780D01*
X130990281Y-89341873D01*
X130990280Y-89341873D01*
X130969196Y-89475000D01*
X116715282Y-89475000D01*
X116717470Y-89450000D01*
X115997576Y-89450000D01*
X116030000Y-89328991D01*
X116030000Y-89171009D01*
X115997576Y-89050000D01*
X116717470Y-89050000D01*
X116717469Y-89049999D01*
X116715142Y-89023400D01*
X116715139Y-89023388D01*
X116656269Y-88803682D01*
X116656264Y-88803671D01*
X116560132Y-88597516D01*
X116516358Y-88535000D01*
X148087723Y-88535000D01*
X148863120Y-88535000D01*
X148859075Y-88542007D01*
X148825000Y-88669174D01*
X148825000Y-88800826D01*
X148859075Y-88927993D01*
X148863120Y-88935000D01*
X148087723Y-88935000D01*
X148089287Y-88952886D01*
X148089288Y-88952893D01*
X148145895Y-89164153D01*
X148238334Y-89362388D01*
X148363785Y-89541551D01*
X148518448Y-89696214D01*
X148697611Y-89821665D01*
X148895846Y-89914104D01*
X149107106Y-89970711D01*
X149107113Y-89970712D01*
X149125000Y-89972277D01*
X149125000Y-89196879D01*
X149132007Y-89200925D01*
X149259174Y-89235000D01*
X149390826Y-89235000D01*
X149517993Y-89200925D01*
X149525000Y-89196879D01*
X149525000Y-89972276D01*
X149542886Y-89970712D01*
X149542893Y-89970711D01*
X149754153Y-89914104D01*
X149952388Y-89821665D01*
X150131551Y-89696214D01*
X150286214Y-89541551D01*
X150411665Y-89362388D01*
X150504101Y-89164158D01*
X150523521Y-89091685D01*
X150558000Y-89046752D01*
X150614153Y-89039359D01*
X150659086Y-89073838D01*
X150666479Y-89091685D01*
X150685898Y-89164158D01*
X150778334Y-89362388D01*
X150903785Y-89541551D01*
X151058448Y-89696214D01*
X151237611Y-89821665D01*
X151435846Y-89914104D01*
X151647106Y-89970711D01*
X151647113Y-89970712D01*
X151665000Y-89972277D01*
X151665000Y-89196879D01*
X151672007Y-89200925D01*
X151799174Y-89235000D01*
X151930826Y-89235000D01*
X152057993Y-89200925D01*
X152065000Y-89196879D01*
X152065000Y-89972276D01*
X152082886Y-89970712D01*
X152082893Y-89970711D01*
X152294153Y-89914104D01*
X152492388Y-89821665D01*
X152671551Y-89696214D01*
X152826214Y-89541551D01*
X152951665Y-89362388D01*
X153044101Y-89164158D01*
X153063521Y-89091685D01*
X153098000Y-89046752D01*
X153154153Y-89039359D01*
X153199086Y-89073838D01*
X153206479Y-89091685D01*
X153225898Y-89164158D01*
X153318334Y-89362388D01*
X153443785Y-89541551D01*
X153598448Y-89696214D01*
X153777611Y-89821665D01*
X153975846Y-89914104D01*
X154187106Y-89970711D01*
X154187113Y-89970712D01*
X154205000Y-89972277D01*
X154205000Y-89196879D01*
X154212007Y-89200925D01*
X154339174Y-89235000D01*
X154470826Y-89235000D01*
X154597993Y-89200925D01*
X154605000Y-89196879D01*
X154605000Y-89972276D01*
X154622886Y-89970712D01*
X154622893Y-89970711D01*
X154834153Y-89914104D01*
X155032388Y-89821665D01*
X155211551Y-89696214D01*
X155366214Y-89541551D01*
X155491665Y-89362388D01*
X155584101Y-89164158D01*
X155603521Y-89091685D01*
X155638000Y-89046752D01*
X155694153Y-89039359D01*
X155739086Y-89073838D01*
X155746479Y-89091685D01*
X155765898Y-89164158D01*
X155858334Y-89362388D01*
X155983785Y-89541551D01*
X156138448Y-89696214D01*
X156317611Y-89821665D01*
X156515846Y-89914104D01*
X156727106Y-89970711D01*
X156727113Y-89970712D01*
X156745000Y-89972277D01*
X156745000Y-89196879D01*
X156752007Y-89200925D01*
X156879174Y-89235000D01*
X157010826Y-89235000D01*
X157137993Y-89200925D01*
X157145000Y-89196879D01*
X157145000Y-89972276D01*
X157162886Y-89970712D01*
X157162893Y-89970711D01*
X157374153Y-89914104D01*
X157572388Y-89821665D01*
X157751551Y-89696214D01*
X157906214Y-89541551D01*
X158031665Y-89362388D01*
X158124101Y-89164158D01*
X158143521Y-89091685D01*
X158178000Y-89046752D01*
X158234153Y-89039359D01*
X158279086Y-89073838D01*
X158286479Y-89091685D01*
X158305898Y-89164158D01*
X158398334Y-89362388D01*
X158523785Y-89541551D01*
X158678448Y-89696214D01*
X158857611Y-89821665D01*
X159055846Y-89914104D01*
X159267106Y-89970711D01*
X159267113Y-89970712D01*
X159285000Y-89972277D01*
X159285000Y-89196879D01*
X159292007Y-89200925D01*
X159419174Y-89235000D01*
X159550826Y-89235000D01*
X159677993Y-89200925D01*
X159685000Y-89196879D01*
X159685000Y-89972276D01*
X159702886Y-89970712D01*
X159702893Y-89970711D01*
X159914153Y-89914104D01*
X160112388Y-89821665D01*
X160291551Y-89696214D01*
X160446214Y-89541551D01*
X160571665Y-89362388D01*
X160664101Y-89164158D01*
X160683521Y-89091685D01*
X160718000Y-89046752D01*
X160774153Y-89039359D01*
X160819086Y-89073838D01*
X160826479Y-89091685D01*
X160845898Y-89164158D01*
X160938334Y-89362388D01*
X161063785Y-89541551D01*
X161218448Y-89696214D01*
X161397611Y-89821665D01*
X161595846Y-89914104D01*
X161807106Y-89970711D01*
X161807113Y-89970712D01*
X161825000Y-89972277D01*
X161825000Y-89196879D01*
X161832007Y-89200925D01*
X161959174Y-89235000D01*
X162090826Y-89235000D01*
X162217993Y-89200925D01*
X162225000Y-89196879D01*
X162225000Y-89972276D01*
X162242886Y-89970712D01*
X162242893Y-89970711D01*
X162454153Y-89914104D01*
X162652388Y-89821665D01*
X162831551Y-89696214D01*
X162986214Y-89541551D01*
X163111665Y-89362388D01*
X163204101Y-89164158D01*
X163223521Y-89091685D01*
X163258000Y-89046752D01*
X163314153Y-89039359D01*
X163359086Y-89073838D01*
X163366479Y-89091685D01*
X163385898Y-89164158D01*
X163478334Y-89362388D01*
X163603785Y-89541551D01*
X163758448Y-89696214D01*
X163937611Y-89821665D01*
X164135846Y-89914104D01*
X164347106Y-89970711D01*
X164347113Y-89970712D01*
X164365000Y-89972277D01*
X164365000Y-89196879D01*
X164372007Y-89200925D01*
X164499174Y-89235000D01*
X164630826Y-89235000D01*
X164757993Y-89200925D01*
X164765000Y-89196879D01*
X164765000Y-89972276D01*
X164782886Y-89970712D01*
X164782893Y-89970711D01*
X164994153Y-89914104D01*
X165192388Y-89821665D01*
X165371551Y-89696214D01*
X165526214Y-89541551D01*
X165651665Y-89362388D01*
X165744101Y-89164158D01*
X165763521Y-89091685D01*
X165798000Y-89046752D01*
X165854153Y-89039359D01*
X165899086Y-89073838D01*
X165906479Y-89091685D01*
X165925898Y-89164158D01*
X166018334Y-89362388D01*
X166143785Y-89541551D01*
X166298448Y-89696214D01*
X166477611Y-89821665D01*
X166675846Y-89914104D01*
X166887106Y-89970711D01*
X166887113Y-89970712D01*
X166905000Y-89972277D01*
X166905000Y-89196879D01*
X166912007Y-89200925D01*
X167039174Y-89235000D01*
X167170826Y-89235000D01*
X167297993Y-89200925D01*
X167305000Y-89196879D01*
X167305000Y-89972276D01*
X167322886Y-89970712D01*
X167322893Y-89970711D01*
X167534153Y-89914104D01*
X167732388Y-89821665D01*
X167911551Y-89696214D01*
X168066214Y-89541551D01*
X168191665Y-89362388D01*
X168284101Y-89164158D01*
X168303521Y-89091685D01*
X168338000Y-89046752D01*
X168394153Y-89039359D01*
X168439086Y-89073838D01*
X168446479Y-89091685D01*
X168465898Y-89164158D01*
X168558334Y-89362388D01*
X168683785Y-89541551D01*
X168838448Y-89696214D01*
X169017611Y-89821665D01*
X169215846Y-89914104D01*
X169427106Y-89970711D01*
X169427113Y-89970712D01*
X169445000Y-89972277D01*
X169445000Y-89196879D01*
X169452007Y-89200925D01*
X169579174Y-89235000D01*
X169710826Y-89235000D01*
X169837993Y-89200925D01*
X169845000Y-89196879D01*
X169845000Y-89972277D01*
X169862886Y-89970712D01*
X169862893Y-89970711D01*
X170074153Y-89914104D01*
X170272388Y-89821665D01*
X170451551Y-89696214D01*
X170606214Y-89541551D01*
X170731665Y-89362388D01*
X170824101Y-89164158D01*
X170843521Y-89091685D01*
X170878000Y-89046752D01*
X170934153Y-89039359D01*
X170979086Y-89073838D01*
X170986479Y-89091685D01*
X171005898Y-89164158D01*
X171098334Y-89362388D01*
X171223785Y-89541551D01*
X171378448Y-89696214D01*
X171557611Y-89821665D01*
X171755846Y-89914104D01*
X171967106Y-89970711D01*
X171967113Y-89970712D01*
X171985000Y-89972277D01*
X171985000Y-89196879D01*
X171992007Y-89200925D01*
X172119174Y-89235000D01*
X172250826Y-89235000D01*
X172377993Y-89200925D01*
X172385000Y-89196879D01*
X172385000Y-89972277D01*
X172402886Y-89970712D01*
X172402893Y-89970711D01*
X172614153Y-89914104D01*
X172812388Y-89821665D01*
X172991551Y-89696214D01*
X173146214Y-89541551D01*
X173271665Y-89362388D01*
X173364101Y-89164158D01*
X173383521Y-89091685D01*
X173418000Y-89046752D01*
X173474153Y-89039359D01*
X173519086Y-89073838D01*
X173526479Y-89091685D01*
X173545898Y-89164158D01*
X173638334Y-89362388D01*
X173763785Y-89541551D01*
X173918448Y-89696214D01*
X174097611Y-89821665D01*
X174295846Y-89914104D01*
X174507106Y-89970711D01*
X174507113Y-89970712D01*
X174525000Y-89972277D01*
X174525000Y-89196879D01*
X174532007Y-89200925D01*
X174659174Y-89235000D01*
X174790826Y-89235000D01*
X174917993Y-89200925D01*
X174925000Y-89196879D01*
X174925000Y-89972277D01*
X174942886Y-89970712D01*
X174942893Y-89970711D01*
X175154153Y-89914104D01*
X175352388Y-89821665D01*
X175531551Y-89696214D01*
X175686214Y-89541551D01*
X175811665Y-89362388D01*
X175904101Y-89164158D01*
X175923521Y-89091685D01*
X175958000Y-89046752D01*
X176014153Y-89039359D01*
X176059086Y-89073838D01*
X176066479Y-89091685D01*
X176085898Y-89164158D01*
X176178334Y-89362388D01*
X176303785Y-89541551D01*
X176458448Y-89696214D01*
X176637611Y-89821665D01*
X176835846Y-89914104D01*
X177047106Y-89970711D01*
X177047113Y-89970712D01*
X177065000Y-89972277D01*
X177065000Y-89196879D01*
X177072007Y-89200925D01*
X177199174Y-89235000D01*
X177330826Y-89235000D01*
X177457993Y-89200925D01*
X177465000Y-89196879D01*
X177465000Y-89972276D01*
X177482886Y-89970712D01*
X177482893Y-89970711D01*
X177694153Y-89914104D01*
X177892388Y-89821665D01*
X178071551Y-89696214D01*
X178226214Y-89541551D01*
X178351665Y-89362388D01*
X178444101Y-89164158D01*
X178463521Y-89091685D01*
X178498000Y-89046752D01*
X178554153Y-89039359D01*
X178599086Y-89073838D01*
X178606479Y-89091685D01*
X178625898Y-89164158D01*
X178718334Y-89362388D01*
X178843785Y-89541551D01*
X178998448Y-89696214D01*
X179177611Y-89821665D01*
X179375846Y-89914104D01*
X179587106Y-89970711D01*
X179587113Y-89970712D01*
X179605000Y-89972277D01*
X179605000Y-89196879D01*
X179612007Y-89200925D01*
X179739174Y-89235000D01*
X179870826Y-89235000D01*
X179997993Y-89200925D01*
X180005000Y-89196879D01*
X180005000Y-89972276D01*
X180022886Y-89970712D01*
X180022893Y-89970711D01*
X180234153Y-89914104D01*
X180432388Y-89821665D01*
X180611551Y-89696214D01*
X180766214Y-89541551D01*
X180891665Y-89362388D01*
X180984101Y-89164158D01*
X181003521Y-89091685D01*
X181038000Y-89046752D01*
X181094153Y-89039359D01*
X181139086Y-89073838D01*
X181146479Y-89091685D01*
X181165898Y-89164158D01*
X181258334Y-89362388D01*
X181383785Y-89541551D01*
X181538448Y-89696214D01*
X181717611Y-89821665D01*
X181915846Y-89914104D01*
X182127106Y-89970711D01*
X182127113Y-89970712D01*
X182145000Y-89972277D01*
X182145000Y-89196879D01*
X182152007Y-89200925D01*
X182279174Y-89235000D01*
X182410826Y-89235000D01*
X182537993Y-89200925D01*
X182545000Y-89196879D01*
X182545000Y-89972276D01*
X182562886Y-89970712D01*
X182562893Y-89970711D01*
X182774153Y-89914104D01*
X182972388Y-89821665D01*
X183151551Y-89696214D01*
X183306214Y-89541551D01*
X183431665Y-89362388D01*
X183524101Y-89164158D01*
X183543521Y-89091685D01*
X183578000Y-89046752D01*
X183634153Y-89039359D01*
X183679086Y-89073838D01*
X183686479Y-89091685D01*
X183705898Y-89164158D01*
X183798334Y-89362388D01*
X183923785Y-89541551D01*
X184078448Y-89696214D01*
X184257611Y-89821665D01*
X184455846Y-89914104D01*
X184667106Y-89970711D01*
X184667113Y-89970712D01*
X184685000Y-89972277D01*
X184685000Y-89196879D01*
X184692007Y-89200925D01*
X184819174Y-89235000D01*
X184950826Y-89235000D01*
X185077993Y-89200925D01*
X185085000Y-89196879D01*
X185085000Y-89972276D01*
X185102886Y-89970712D01*
X185102893Y-89970711D01*
X185314153Y-89914104D01*
X185332566Y-89905518D01*
X187099500Y-89905518D01*
X187099500Y-90094481D01*
X187129059Y-90281115D01*
X187129062Y-90281128D01*
X187187449Y-90460824D01*
X187273239Y-90629198D01*
X187316360Y-90688549D01*
X187384310Y-90782073D01*
X187517927Y-90915690D01*
X187670801Y-91026760D01*
X187839168Y-91112547D01*
X187839171Y-91112547D01*
X187839175Y-91112550D01*
X188018871Y-91170937D01*
X188018877Y-91170938D01*
X188018882Y-91170940D01*
X188143306Y-91190646D01*
X188205518Y-91200500D01*
X188205519Y-91200500D01*
X188394482Y-91200500D01*
X188441140Y-91193110D01*
X188581118Y-91170940D01*
X188581125Y-91170937D01*
X188581128Y-91170937D01*
X188760824Y-91112550D01*
X188760826Y-91112548D01*
X188760832Y-91112547D01*
X188929199Y-91026760D01*
X189082073Y-90915690D01*
X189215690Y-90782073D01*
X189326760Y-90629199D01*
X189412547Y-90460832D01*
X189430607Y-90405252D01*
X189470937Y-90281128D01*
X189470937Y-90281125D01*
X189470940Y-90281118D01*
X189500500Y-90094481D01*
X189500500Y-89905519D01*
X189497205Y-89884718D01*
X189485231Y-89809111D01*
X189470940Y-89718882D01*
X189470938Y-89718877D01*
X189470937Y-89718871D01*
X189412550Y-89539175D01*
X189412547Y-89539171D01*
X189412547Y-89539168D01*
X189326760Y-89370801D01*
X189215690Y-89217927D01*
X189082073Y-89084310D01*
X189082070Y-89084307D01*
X189082068Y-89084306D01*
X188929198Y-88973239D01*
X188760824Y-88887449D01*
X188581128Y-88829062D01*
X188581115Y-88829059D01*
X188394482Y-88799500D01*
X188394481Y-88799500D01*
X188205519Y-88799500D01*
X188205518Y-88799500D01*
X188018884Y-88829059D01*
X188018871Y-88829062D01*
X187839175Y-88887449D01*
X187670801Y-88973239D01*
X187517931Y-89084306D01*
X187384306Y-89217931D01*
X187273239Y-89370801D01*
X187187449Y-89539175D01*
X187129062Y-89718871D01*
X187129059Y-89718884D01*
X187099500Y-89905518D01*
X185332566Y-89905518D01*
X185512388Y-89821665D01*
X185691551Y-89696214D01*
X185846214Y-89541551D01*
X185971665Y-89362388D01*
X186064104Y-89164153D01*
X186120711Y-88952893D01*
X186120712Y-88952886D01*
X186122277Y-88935000D01*
X185346880Y-88935000D01*
X185350925Y-88927993D01*
X185385000Y-88800826D01*
X185385000Y-88669174D01*
X185350925Y-88542007D01*
X185346880Y-88535000D01*
X186122277Y-88535000D01*
X186120712Y-88517113D01*
X186120711Y-88517106D01*
X186064105Y-88305849D01*
X186064100Y-88305838D01*
X185971665Y-88107612D01*
X185846212Y-87928445D01*
X185691551Y-87773785D01*
X185691552Y-87773785D01*
X185512388Y-87648334D01*
X185314153Y-87555895D01*
X185102896Y-87499288D01*
X185085000Y-87497722D01*
X185085000Y-88273120D01*
X185077993Y-88269075D01*
X184950826Y-88235000D01*
X184819174Y-88235000D01*
X184692007Y-88269075D01*
X184685000Y-88273120D01*
X184685000Y-87497722D01*
X184667103Y-87499288D01*
X184455849Y-87555894D01*
X184455838Y-87555899D01*
X184257612Y-87648334D01*
X184078445Y-87773787D01*
X183923787Y-87928445D01*
X183798334Y-88107612D01*
X183705899Y-88305838D01*
X183705894Y-88305849D01*
X183686478Y-88378314D01*
X183652000Y-88423247D01*
X183595847Y-88430639D01*
X183550914Y-88396161D01*
X183543522Y-88378314D01*
X183524105Y-88305849D01*
X183524100Y-88305838D01*
X183431665Y-88107612D01*
X183306212Y-87928445D01*
X183151551Y-87773785D01*
X183151552Y-87773785D01*
X182972388Y-87648334D01*
X182774153Y-87555895D01*
X182562896Y-87499288D01*
X182545000Y-87497722D01*
X182545000Y-88273120D01*
X182537993Y-88269075D01*
X182410826Y-88235000D01*
X182279174Y-88235000D01*
X182152007Y-88269075D01*
X182145000Y-88273120D01*
X182145000Y-87497722D01*
X182127103Y-87499288D01*
X181915849Y-87555894D01*
X181915838Y-87555899D01*
X181717612Y-87648334D01*
X181538445Y-87773787D01*
X181383787Y-87928445D01*
X181258334Y-88107612D01*
X181165899Y-88305838D01*
X181165894Y-88305849D01*
X181146478Y-88378314D01*
X181112000Y-88423247D01*
X181055847Y-88430639D01*
X181010914Y-88396161D01*
X181003522Y-88378314D01*
X180984105Y-88305849D01*
X180984100Y-88305838D01*
X180891665Y-88107612D01*
X180766212Y-87928445D01*
X180611551Y-87773785D01*
X180611552Y-87773785D01*
X180432388Y-87648334D01*
X180234153Y-87555895D01*
X180022896Y-87499288D01*
X180005000Y-87497722D01*
X180005000Y-88273120D01*
X179997993Y-88269075D01*
X179870826Y-88235000D01*
X179739174Y-88235000D01*
X179612007Y-88269075D01*
X179605000Y-88273120D01*
X179605000Y-87497722D01*
X179587103Y-87499288D01*
X179375849Y-87555894D01*
X179375838Y-87555899D01*
X179177612Y-87648334D01*
X178998445Y-87773787D01*
X178843787Y-87928445D01*
X178718334Y-88107612D01*
X178625899Y-88305838D01*
X178625894Y-88305849D01*
X178606478Y-88378314D01*
X178572000Y-88423247D01*
X178515847Y-88430639D01*
X178470914Y-88396161D01*
X178463522Y-88378314D01*
X178444105Y-88305849D01*
X178444100Y-88305838D01*
X178351665Y-88107612D01*
X178226212Y-87928445D01*
X178071551Y-87773785D01*
X178071552Y-87773785D01*
X177892388Y-87648334D01*
X177694153Y-87555895D01*
X177482896Y-87499288D01*
X177465000Y-87497722D01*
X177465000Y-88273120D01*
X177457993Y-88269075D01*
X177330826Y-88235000D01*
X177199174Y-88235000D01*
X177072007Y-88269075D01*
X177065000Y-88273120D01*
X177065000Y-87497722D01*
X177047103Y-87499288D01*
X176835849Y-87555894D01*
X176835838Y-87555899D01*
X176637612Y-87648334D01*
X176458445Y-87773787D01*
X176303787Y-87928445D01*
X176178334Y-88107612D01*
X176085899Y-88305838D01*
X176085894Y-88305849D01*
X176066478Y-88378314D01*
X176032000Y-88423247D01*
X175975847Y-88430639D01*
X175930914Y-88396161D01*
X175923522Y-88378314D01*
X175904105Y-88305849D01*
X175904100Y-88305838D01*
X175811665Y-88107612D01*
X175686212Y-87928445D01*
X175531551Y-87773785D01*
X175531552Y-87773785D01*
X175352388Y-87648334D01*
X175154153Y-87555895D01*
X174942896Y-87499288D01*
X174925000Y-87497722D01*
X174925000Y-88273120D01*
X174917993Y-88269075D01*
X174790826Y-88235000D01*
X174659174Y-88235000D01*
X174532007Y-88269075D01*
X174525000Y-88273120D01*
X174525000Y-87497722D01*
X174507103Y-87499288D01*
X174295849Y-87555894D01*
X174295838Y-87555899D01*
X174097612Y-87648334D01*
X173918445Y-87773787D01*
X173763787Y-87928445D01*
X173638334Y-88107612D01*
X173545899Y-88305838D01*
X173545894Y-88305849D01*
X173526478Y-88378314D01*
X173492000Y-88423247D01*
X173435847Y-88430639D01*
X173390914Y-88396161D01*
X173383522Y-88378314D01*
X173364105Y-88305849D01*
X173364100Y-88305838D01*
X173271665Y-88107612D01*
X173146212Y-87928445D01*
X172991551Y-87773785D01*
X172991552Y-87773785D01*
X172812388Y-87648334D01*
X172614153Y-87555895D01*
X172402896Y-87499288D01*
X172385000Y-87497722D01*
X172385000Y-88273120D01*
X172377993Y-88269075D01*
X172250826Y-88235000D01*
X172119174Y-88235000D01*
X171992007Y-88269075D01*
X171985000Y-88273120D01*
X171985000Y-87497722D01*
X171967103Y-87499288D01*
X171755849Y-87555894D01*
X171755838Y-87555899D01*
X171557612Y-87648334D01*
X171378445Y-87773787D01*
X171223787Y-87928445D01*
X171098334Y-88107612D01*
X171005899Y-88305838D01*
X171005894Y-88305849D01*
X170986478Y-88378314D01*
X170952000Y-88423247D01*
X170895847Y-88430639D01*
X170850914Y-88396161D01*
X170843522Y-88378314D01*
X170824105Y-88305849D01*
X170824100Y-88305838D01*
X170731665Y-88107612D01*
X170606212Y-87928445D01*
X170451551Y-87773785D01*
X170451552Y-87773785D01*
X170272388Y-87648334D01*
X170074153Y-87555895D01*
X169862896Y-87499288D01*
X169845000Y-87497722D01*
X169845000Y-88273120D01*
X169837993Y-88269075D01*
X169710826Y-88235000D01*
X169579174Y-88235000D01*
X169452007Y-88269075D01*
X169445000Y-88273120D01*
X169445000Y-87497722D01*
X169427103Y-87499288D01*
X169215849Y-87555894D01*
X169215838Y-87555899D01*
X169017612Y-87648334D01*
X168838445Y-87773787D01*
X168683787Y-87928445D01*
X168558334Y-88107612D01*
X168465899Y-88305838D01*
X168465894Y-88305849D01*
X168446478Y-88378314D01*
X168412000Y-88423247D01*
X168355847Y-88430639D01*
X168310914Y-88396161D01*
X168303522Y-88378314D01*
X168284105Y-88305849D01*
X168284100Y-88305838D01*
X168191665Y-88107612D01*
X168066212Y-87928445D01*
X167911551Y-87773785D01*
X167911552Y-87773785D01*
X167732388Y-87648334D01*
X167534153Y-87555895D01*
X167322896Y-87499288D01*
X167305000Y-87497722D01*
X167305000Y-88273120D01*
X167297993Y-88269075D01*
X167170826Y-88235000D01*
X167039174Y-88235000D01*
X166912007Y-88269075D01*
X166905000Y-88273120D01*
X166905000Y-87497722D01*
X166887103Y-87499288D01*
X166675849Y-87555894D01*
X166675838Y-87555899D01*
X166477612Y-87648334D01*
X166298445Y-87773787D01*
X166143787Y-87928445D01*
X166018334Y-88107612D01*
X165925899Y-88305838D01*
X165925894Y-88305849D01*
X165906478Y-88378314D01*
X165872000Y-88423247D01*
X165815847Y-88430639D01*
X165770914Y-88396161D01*
X165763522Y-88378314D01*
X165744105Y-88305849D01*
X165744100Y-88305838D01*
X165651665Y-88107612D01*
X165526212Y-87928445D01*
X165371551Y-87773785D01*
X165371552Y-87773785D01*
X165192388Y-87648334D01*
X164994153Y-87555895D01*
X164782896Y-87499288D01*
X164765000Y-87497722D01*
X164765000Y-88273120D01*
X164757993Y-88269075D01*
X164630826Y-88235000D01*
X164499174Y-88235000D01*
X164372007Y-88269075D01*
X164365000Y-88273120D01*
X164365000Y-87497722D01*
X164347103Y-87499288D01*
X164135849Y-87555894D01*
X164135838Y-87555899D01*
X163937612Y-87648334D01*
X163758445Y-87773787D01*
X163603787Y-87928445D01*
X163478334Y-88107612D01*
X163385899Y-88305838D01*
X163385894Y-88305849D01*
X163366478Y-88378314D01*
X163332000Y-88423247D01*
X163275847Y-88430639D01*
X163230914Y-88396161D01*
X163223522Y-88378314D01*
X163204105Y-88305849D01*
X163204100Y-88305838D01*
X163111665Y-88107612D01*
X162986212Y-87928445D01*
X162831551Y-87773785D01*
X162831552Y-87773785D01*
X162652388Y-87648334D01*
X162454153Y-87555895D01*
X162242896Y-87499288D01*
X162225000Y-87497722D01*
X162225000Y-88273120D01*
X162217993Y-88269075D01*
X162090826Y-88235000D01*
X161959174Y-88235000D01*
X161832007Y-88269075D01*
X161825000Y-88273120D01*
X161825000Y-87497722D01*
X161807103Y-87499288D01*
X161595849Y-87555894D01*
X161595838Y-87555899D01*
X161397612Y-87648334D01*
X161218445Y-87773787D01*
X161063787Y-87928445D01*
X160938334Y-88107612D01*
X160845899Y-88305838D01*
X160845894Y-88305849D01*
X160826478Y-88378314D01*
X160792000Y-88423247D01*
X160735847Y-88430639D01*
X160690914Y-88396161D01*
X160683522Y-88378314D01*
X160664105Y-88305849D01*
X160664100Y-88305838D01*
X160571665Y-88107612D01*
X160446212Y-87928445D01*
X160291551Y-87773785D01*
X160291552Y-87773785D01*
X160112388Y-87648334D01*
X159914153Y-87555895D01*
X159702896Y-87499288D01*
X159685000Y-87497722D01*
X159685000Y-88273120D01*
X159677993Y-88269075D01*
X159550826Y-88235000D01*
X159419174Y-88235000D01*
X159292007Y-88269075D01*
X159285000Y-88273120D01*
X159285000Y-87497722D01*
X159267103Y-87499288D01*
X159055849Y-87555894D01*
X159055838Y-87555899D01*
X158857612Y-87648334D01*
X158678445Y-87773787D01*
X158523787Y-87928445D01*
X158398334Y-88107612D01*
X158305899Y-88305838D01*
X158305894Y-88305849D01*
X158286478Y-88378314D01*
X158252000Y-88423247D01*
X158195847Y-88430639D01*
X158150914Y-88396161D01*
X158143522Y-88378314D01*
X158124105Y-88305849D01*
X158124100Y-88305838D01*
X158031665Y-88107612D01*
X157906212Y-87928445D01*
X157751551Y-87773785D01*
X157751552Y-87773785D01*
X157572388Y-87648334D01*
X157374153Y-87555895D01*
X157162896Y-87499288D01*
X157145000Y-87497722D01*
X157145000Y-88273120D01*
X157137993Y-88269075D01*
X157010826Y-88235000D01*
X156879174Y-88235000D01*
X156752007Y-88269075D01*
X156745000Y-88273120D01*
X156745000Y-87497722D01*
X156727103Y-87499288D01*
X156515849Y-87555894D01*
X156515838Y-87555899D01*
X156317612Y-87648334D01*
X156138445Y-87773787D01*
X155983787Y-87928445D01*
X155858334Y-88107612D01*
X155765899Y-88305838D01*
X155765894Y-88305849D01*
X155746478Y-88378314D01*
X155712000Y-88423247D01*
X155655847Y-88430639D01*
X155610914Y-88396161D01*
X155603522Y-88378314D01*
X155584105Y-88305849D01*
X155584100Y-88305838D01*
X155491665Y-88107612D01*
X155366212Y-87928445D01*
X155211551Y-87773785D01*
X155211552Y-87773785D01*
X155032388Y-87648334D01*
X154834153Y-87555895D01*
X154622896Y-87499288D01*
X154605000Y-87497722D01*
X154605000Y-88273120D01*
X154597993Y-88269075D01*
X154470826Y-88235000D01*
X154339174Y-88235000D01*
X154212007Y-88269075D01*
X154205000Y-88273120D01*
X154205000Y-87497722D01*
X154187103Y-87499288D01*
X153975849Y-87555894D01*
X153975838Y-87555899D01*
X153777612Y-87648334D01*
X153598445Y-87773787D01*
X153443787Y-87928445D01*
X153318334Y-88107612D01*
X153225899Y-88305838D01*
X153225894Y-88305849D01*
X153206478Y-88378314D01*
X153172000Y-88423247D01*
X153115847Y-88430639D01*
X153070914Y-88396161D01*
X153063522Y-88378314D01*
X153044105Y-88305849D01*
X153044100Y-88305838D01*
X152951665Y-88107612D01*
X152826212Y-87928445D01*
X152671551Y-87773785D01*
X152671552Y-87773785D01*
X152492388Y-87648334D01*
X152294153Y-87555895D01*
X152082896Y-87499288D01*
X152065000Y-87497722D01*
X152065000Y-88273120D01*
X152057993Y-88269075D01*
X151930826Y-88235000D01*
X151799174Y-88235000D01*
X151672007Y-88269075D01*
X151665000Y-88273120D01*
X151665000Y-87497722D01*
X151647103Y-87499288D01*
X151435849Y-87555894D01*
X151435838Y-87555899D01*
X151237612Y-87648334D01*
X151058445Y-87773787D01*
X150903787Y-87928445D01*
X150778334Y-88107612D01*
X150685899Y-88305838D01*
X150685894Y-88305849D01*
X150666478Y-88378314D01*
X150632000Y-88423247D01*
X150575847Y-88430639D01*
X150530914Y-88396161D01*
X150523522Y-88378314D01*
X150504105Y-88305849D01*
X150504100Y-88305838D01*
X150411665Y-88107612D01*
X150286212Y-87928445D01*
X150131551Y-87773785D01*
X150131552Y-87773785D01*
X149952388Y-87648334D01*
X149754153Y-87555895D01*
X149542896Y-87499288D01*
X149525000Y-87497722D01*
X149525000Y-88273120D01*
X149517993Y-88269075D01*
X149390826Y-88235000D01*
X149259174Y-88235000D01*
X149132007Y-88269075D01*
X149125000Y-88273120D01*
X149125000Y-87497722D01*
X149107103Y-87499288D01*
X148895849Y-87555894D01*
X148895838Y-87555899D01*
X148697612Y-87648334D01*
X148518445Y-87773787D01*
X148363787Y-87928445D01*
X148238334Y-88107612D01*
X148145899Y-88305838D01*
X148145894Y-88305849D01*
X148089288Y-88517106D01*
X148089287Y-88517113D01*
X148087723Y-88535000D01*
X116516358Y-88535000D01*
X116429663Y-88411186D01*
X116268813Y-88250336D01*
X116268814Y-88250336D01*
X116082483Y-88119867D01*
X115876328Y-88023735D01*
X115876317Y-88023730D01*
X115668748Y-87968112D01*
X115623815Y-87933634D01*
X115616423Y-87877481D01*
X115650901Y-87832548D01*
X115674301Y-87823894D01*
X115732456Y-87813024D01*
X115922637Y-87739348D01*
X116096041Y-87631981D01*
X116246764Y-87494579D01*
X116247791Y-87493220D01*
X116369670Y-87331825D01*
X116369670Y-87331824D01*
X116369673Y-87331821D01*
X116460582Y-87149250D01*
X116516397Y-86953083D01*
X116518821Y-86926932D01*
X116535215Y-86750003D01*
X116535215Y-86749996D01*
X116525703Y-86647345D01*
X120994859Y-86647345D01*
X120994859Y-86647352D01*
X121015377Y-86868781D01*
X121015379Y-86868794D01*
X121076237Y-87082691D01*
X121076239Y-87082695D01*
X121175368Y-87281775D01*
X121175370Y-87281778D01*
X121221560Y-87342943D01*
X121813629Y-86750874D01*
X121827259Y-86801743D01*
X121879920Y-86892955D01*
X121954394Y-86967429D01*
X122045606Y-87020090D01*
X122096472Y-87033719D01*
X121503000Y-87627190D01*
X121662817Y-87726143D01*
X121662827Y-87726148D01*
X121870194Y-87806483D01*
X122088800Y-87847348D01*
X122088806Y-87847349D01*
X122311194Y-87847349D01*
X122311199Y-87847348D01*
X122529805Y-87806483D01*
X122737172Y-87726148D01*
X122737182Y-87726143D01*
X122896997Y-87627189D01*
X122689808Y-87420000D01*
X130149196Y-87420000D01*
X130170280Y-87553126D01*
X130231471Y-87673219D01*
X130231472Y-87673220D01*
X130326780Y-87768528D01*
X130446873Y-87829718D01*
X130446873Y-87829719D01*
X130464736Y-87832548D01*
X130580000Y-87850804D01*
X130713126Y-87829719D01*
X130833220Y-87768528D01*
X130928528Y-87673220D01*
X130989719Y-87553126D01*
X131010804Y-87420000D01*
X130989719Y-87286874D01*
X130989719Y-87286873D01*
X130965836Y-87240000D01*
X131839196Y-87240000D01*
X131860280Y-87373126D01*
X131903445Y-87457841D01*
X131921472Y-87493220D01*
X132016780Y-87588528D01*
X132136873Y-87649718D01*
X132136873Y-87649719D01*
X132155075Y-87652601D01*
X132270000Y-87670804D01*
X132403126Y-87649719D01*
X132523220Y-87588528D01*
X132618528Y-87493220D01*
X132679719Y-87373126D01*
X132700804Y-87240000D01*
X132679719Y-87106874D01*
X132679719Y-87106873D01*
X132618528Y-86986780D01*
X132523219Y-86891471D01*
X132403126Y-86830281D01*
X132403126Y-86830280D01*
X132270000Y-86809196D01*
X132136873Y-86830280D01*
X132136873Y-86830281D01*
X132016780Y-86891471D01*
X131921471Y-86986780D01*
X131860281Y-87106873D01*
X131860280Y-87106873D01*
X131839196Y-87240000D01*
X130965836Y-87240000D01*
X130928528Y-87166780D01*
X130833219Y-87071471D01*
X130713126Y-87010281D01*
X130713126Y-87010280D01*
X130580000Y-86989196D01*
X130446873Y-87010280D01*
X130446873Y-87010281D01*
X130326780Y-87071471D01*
X130231471Y-87166780D01*
X130170281Y-87286873D01*
X130170280Y-87286873D01*
X130149196Y-87420000D01*
X122689808Y-87420000D01*
X122303527Y-87033719D01*
X122354394Y-87020090D01*
X122445606Y-86967429D01*
X122520080Y-86892955D01*
X122572741Y-86801743D01*
X122586370Y-86750876D01*
X123178438Y-87342944D01*
X123224629Y-87281777D01*
X123224631Y-87281775D01*
X123323760Y-87082695D01*
X123323762Y-87082691D01*
X123384620Y-86868794D01*
X123384622Y-86868781D01*
X123405141Y-86647352D01*
X123405141Y-86647345D01*
X123384622Y-86425916D01*
X123384620Y-86425903D01*
X123323762Y-86212006D01*
X123323760Y-86212002D01*
X123224631Y-86012922D01*
X123224629Y-86012919D01*
X123178437Y-85951752D01*
X122586370Y-86543820D01*
X122572741Y-86492955D01*
X122520080Y-86401743D01*
X122445606Y-86327269D01*
X122354394Y-86274608D01*
X122303525Y-86260978D01*
X122804504Y-85760000D01*
X130519196Y-85760000D01*
X130540280Y-85893126D01*
X130601322Y-86012926D01*
X130601472Y-86013220D01*
X130696780Y-86108528D01*
X130816873Y-86169718D01*
X130816873Y-86169719D01*
X130835075Y-86172601D01*
X130950000Y-86190804D01*
X131083126Y-86169719D01*
X131203220Y-86108528D01*
X131298528Y-86013220D01*
X131359719Y-85893126D01*
X131380804Y-85760000D01*
X131359719Y-85626874D01*
X131359719Y-85626873D01*
X131298528Y-85506780D01*
X131203219Y-85411471D01*
X131083126Y-85350281D01*
X131083126Y-85350280D01*
X130950000Y-85329196D01*
X130816873Y-85350280D01*
X130816873Y-85350281D01*
X130696780Y-85411471D01*
X130601471Y-85506780D01*
X130540281Y-85626873D01*
X130540280Y-85626873D01*
X130519196Y-85760000D01*
X122804504Y-85760000D01*
X122896998Y-85667506D01*
X122737182Y-85568554D01*
X122737172Y-85568549D01*
X122529805Y-85488214D01*
X122311199Y-85447349D01*
X122088800Y-85447349D01*
X121870194Y-85488214D01*
X121662827Y-85568549D01*
X121662817Y-85568554D01*
X121503000Y-85667506D01*
X122096472Y-86260978D01*
X122045606Y-86274608D01*
X121954394Y-86327269D01*
X121879920Y-86401743D01*
X121827259Y-86492955D01*
X121813629Y-86543821D01*
X121221560Y-85951752D01*
X121175368Y-86012923D01*
X121175367Y-86012926D01*
X121076239Y-86212002D01*
X121076237Y-86212006D01*
X121015379Y-86425903D01*
X121015377Y-86425916D01*
X120994859Y-86647345D01*
X116525703Y-86647345D01*
X116516398Y-86546923D01*
X116516397Y-86546917D01*
X116475091Y-86401743D01*
X116460582Y-86350750D01*
X116369673Y-86168179D01*
X116369670Y-86168175D01*
X116369670Y-86168174D01*
X116246765Y-86005421D01*
X116246764Y-86005420D01*
X116096041Y-85868019D01*
X115922637Y-85760652D01*
X115732456Y-85686976D01*
X115644407Y-85670516D01*
X115531979Y-85649500D01*
X115531976Y-85649500D01*
X115328024Y-85649500D01*
X115328020Y-85649500D01*
X115178116Y-85677522D01*
X115127544Y-85686976D01*
X115127542Y-85686976D01*
X115127540Y-85686977D01*
X114939046Y-85760000D01*
X114937363Y-85760652D01*
X114937358Y-85760654D01*
X114937358Y-85760655D01*
X114763958Y-85868019D01*
X114763957Y-85868019D01*
X114613235Y-86005420D01*
X114613234Y-86005421D01*
X114490329Y-86168174D01*
X114490328Y-86168177D01*
X114399418Y-86350750D01*
X114399416Y-86350755D01*
X114343602Y-86546917D01*
X114343601Y-86546923D01*
X114324785Y-86749996D01*
X114324785Y-86750003D01*
X114343601Y-86953076D01*
X114343602Y-86953082D01*
X114379897Y-87080643D01*
X114373370Y-87136903D01*
X114328973Y-87172069D01*
X114294286Y-87173472D01*
X114173767Y-87149500D01*
X114006233Y-87149500D01*
X113973728Y-87155965D01*
X113841924Y-87182182D01*
X113841917Y-87182184D01*
X113687137Y-87246296D01*
X113547841Y-87339371D01*
X113429371Y-87457841D01*
X113336296Y-87597137D01*
X113272184Y-87751917D01*
X113272182Y-87751924D01*
X113239500Y-87916233D01*
X109950500Y-87916233D01*
X109950500Y-85162633D01*
X142099500Y-85162633D01*
X142099500Y-86802126D01*
X142111133Y-86860612D01*
X142131753Y-86891471D01*
X142155448Y-86926932D01*
X142194575Y-86953076D01*
X142221767Y-86971246D01*
X142221768Y-86971246D01*
X142221769Y-86971247D01*
X142280252Y-86982880D01*
X142280254Y-86982880D01*
X143919746Y-86982880D01*
X143919748Y-86982880D01*
X143978231Y-86971247D01*
X144044552Y-86926932D01*
X144088867Y-86860611D01*
X144100500Y-86802128D01*
X144100500Y-85162632D01*
X144088867Y-85104149D01*
X144044552Y-85037828D01*
X144022343Y-85022988D01*
X143978232Y-84993513D01*
X143978233Y-84993513D01*
X143948989Y-84987696D01*
X143919748Y-84981880D01*
X142280252Y-84981880D01*
X142251010Y-84987696D01*
X142221767Y-84993513D01*
X142155449Y-85037827D01*
X142155447Y-85037829D01*
X142111133Y-85104147D01*
X142099500Y-85162633D01*
X109950500Y-85162633D01*
X109950500Y-82327602D01*
X121199500Y-82327602D01*
X121199500Y-83967095D01*
X121211133Y-84025581D01*
X121240608Y-84069692D01*
X121255448Y-84091901D01*
X121292725Y-84116809D01*
X121321767Y-84136215D01*
X121321768Y-84136215D01*
X121321769Y-84136216D01*
X121380252Y-84147849D01*
X121380254Y-84147849D01*
X123019746Y-84147849D01*
X123019748Y-84147849D01*
X123078231Y-84136216D01*
X123144552Y-84091901D01*
X123188867Y-84025580D01*
X123200500Y-83967097D01*
X123200500Y-83000000D01*
X127844196Y-83000000D01*
X127865280Y-83133126D01*
X127918092Y-83236774D01*
X127926472Y-83253220D01*
X128021780Y-83348528D01*
X128141873Y-83409718D01*
X128141873Y-83409719D01*
X128160075Y-83412601D01*
X128275000Y-83430804D01*
X128408126Y-83409719D01*
X128505705Y-83360000D01*
X130399196Y-83360000D01*
X130420280Y-83493126D01*
X130481471Y-83613219D01*
X130481472Y-83613220D01*
X130576780Y-83708528D01*
X130696873Y-83769718D01*
X130696873Y-83769719D01*
X130715075Y-83772601D01*
X130830000Y-83790804D01*
X130963126Y-83769719D01*
X131083220Y-83708528D01*
X131178528Y-83613220D01*
X131239719Y-83493126D01*
X131241422Y-83482376D01*
X141894859Y-83482376D01*
X141894859Y-83482383D01*
X141915377Y-83703812D01*
X141915379Y-83703825D01*
X141976237Y-83917722D01*
X141976239Y-83917726D01*
X142075368Y-84116806D01*
X142075370Y-84116809D01*
X142121560Y-84177974D01*
X142713629Y-83585905D01*
X142727259Y-83636774D01*
X142779920Y-83727986D01*
X142854394Y-83802460D01*
X142945606Y-83855121D01*
X142996472Y-83868750D01*
X142403000Y-84462221D01*
X142562817Y-84561174D01*
X142562827Y-84561179D01*
X142770194Y-84641514D01*
X142988800Y-84682379D01*
X142988806Y-84682380D01*
X143211194Y-84682380D01*
X143211199Y-84682379D01*
X143429805Y-84641514D01*
X143637172Y-84561179D01*
X143637182Y-84561174D01*
X143796997Y-84462220D01*
X143203527Y-83868750D01*
X143254394Y-83855121D01*
X143345606Y-83802460D01*
X143420080Y-83727986D01*
X143472741Y-83636774D01*
X143486370Y-83585907D01*
X144078438Y-84177975D01*
X144124629Y-84116808D01*
X144124631Y-84116806D01*
X144223760Y-83917726D01*
X144223762Y-83917722D01*
X144284620Y-83703825D01*
X144284622Y-83703812D01*
X144305141Y-83482383D01*
X144305141Y-83482376D01*
X144284622Y-83260947D01*
X144284620Y-83260934D01*
X144223762Y-83047037D01*
X144223760Y-83047033D01*
X144124631Y-82847953D01*
X144124629Y-82847950D01*
X144078437Y-82786783D01*
X143486370Y-83378851D01*
X143472741Y-83327986D01*
X143420080Y-83236774D01*
X143345606Y-83162300D01*
X143254394Y-83109639D01*
X143203525Y-83096009D01*
X143796998Y-82502537D01*
X143637182Y-82403585D01*
X143637172Y-82403580D01*
X143429805Y-82323245D01*
X143211199Y-82282380D01*
X142988800Y-82282380D01*
X142770194Y-82323245D01*
X142562827Y-82403580D01*
X142562817Y-82403585D01*
X142403000Y-82502537D01*
X142996472Y-83096009D01*
X142945606Y-83109639D01*
X142854394Y-83162300D01*
X142779920Y-83236774D01*
X142727259Y-83327986D01*
X142713629Y-83378852D01*
X142121560Y-82786783D01*
X142075368Y-82847954D01*
X142075367Y-82847957D01*
X141976239Y-83047033D01*
X141976237Y-83047037D01*
X141915379Y-83260934D01*
X141915377Y-83260947D01*
X141894859Y-83482376D01*
X131241422Y-83482376D01*
X131260804Y-83360000D01*
X131239719Y-83226874D01*
X131239719Y-83226873D01*
X131178528Y-83106780D01*
X131083219Y-83011471D01*
X130963126Y-82950281D01*
X130963126Y-82950280D01*
X130830000Y-82929196D01*
X130696873Y-82950280D01*
X130696873Y-82950281D01*
X130576780Y-83011471D01*
X130481471Y-83106780D01*
X130420281Y-83226873D01*
X130420280Y-83226873D01*
X130399196Y-83360000D01*
X128505705Y-83360000D01*
X128528220Y-83348528D01*
X128623528Y-83253220D01*
X128684719Y-83133126D01*
X128705804Y-83000000D01*
X128684719Y-82866874D01*
X128684719Y-82866873D01*
X128623528Y-82746780D01*
X128528219Y-82651471D01*
X128408126Y-82590281D01*
X128408126Y-82590280D01*
X128275000Y-82569196D01*
X128141873Y-82590280D01*
X128141873Y-82590281D01*
X128021780Y-82651471D01*
X127926471Y-82746780D01*
X127865281Y-82866873D01*
X127865280Y-82866873D01*
X127844196Y-83000000D01*
X123200500Y-83000000D01*
X123200500Y-82327601D01*
X123188867Y-82269118D01*
X123144552Y-82202797D01*
X123122343Y-82187957D01*
X123078232Y-82158482D01*
X123078233Y-82158482D01*
X123048989Y-82152665D01*
X123019748Y-82146849D01*
X121380252Y-82146849D01*
X121351010Y-82152665D01*
X121321767Y-82158482D01*
X121255449Y-82202796D01*
X121255447Y-82202798D01*
X121211133Y-82269116D01*
X121211133Y-82269118D01*
X121200367Y-82323245D01*
X121199500Y-82327602D01*
X109950500Y-82327602D01*
X109950500Y-81854536D01*
X109972174Y-81802210D01*
X110014841Y-81781169D01*
X110102014Y-81769693D01*
X110329993Y-81708606D01*
X110548049Y-81618284D01*
X110752450Y-81500273D01*
X110939699Y-81356592D01*
X111106592Y-81189699D01*
X111250273Y-81002450D01*
X111368284Y-80798049D01*
X111458606Y-80579993D01*
X111519693Y-80352014D01*
X111520673Y-80344562D01*
X111531170Y-80264841D01*
X111559489Y-80215792D01*
X111604537Y-80200500D01*
X147994195Y-80200500D01*
X148046521Y-80222174D01*
G37*
%TD.AperFunction*%
%TD*%
M02*
