M48
; DRILL file {KiCad 8.0.5} date 2025-01-05T11:13:20+0100
; FORMAT={-:-/ absolute / inch / decimal}
; #@! TF.CreationDate,2025-01-05T11:13:20+01:00
; #@! TF.GenerationSoftware,Kicad,Pcbnew,8.0.5
; #@! TF.FileFunction,Plated,1,4,PTH
FMAT,2
INCH
; #@! TA.AperFunction,Plated,PTH,ViaDrill
T1C0.0118
; #@! TA.AperFunction,Plated,PTH,ComponentDrill
T2C0.0394
; #@! TA.AperFunction,Plated,PTH,ComponentDrill
T3C0.0472
%
G90
G05
T1
X4.3583Y-3.6142
X4.3622Y-3.9528
X4.4921Y-4.6102
X4.5906Y-3.3228
X4.6339Y-3.5906
X4.6417Y-3.9724
X4.7126Y-4.1457
X4.7165Y-3.8228
X4.7362Y-3.5906
X4.7461Y-3.4267
X4.752Y-3.9016
X4.8209Y-3.4267
X4.8268Y-3.7638
X4.8504Y-3.2165
X4.8583Y-4.126
X4.8839Y-3.4267
X4.8882Y-4.0311
X4.9043Y-4.0539
X4.9146Y-4.0287
X4.9567Y-3.5197
X4.9587Y-3.4267
X4.9606Y-4.2402
X4.9862Y-4.4222
X4.987Y-3.7709
X4.9961Y-3.7018
X4.9961Y-4.0207
X4.9961Y-4.0817
X4.998Y-4.1311
X5.0031Y-4.1543
X5.0059Y-3.7543
X5.0236Y-4.1772
X5.0512Y-3.6339
X5.063Y-4.4094
X5.063Y-4.437
X5.1252Y-3.9957
X5.1256Y-4.1067
X5.1272Y-3.7441
X5.1276Y-4.0591
X5.1283Y-4.1327
X5.1447Y-3.9016
X5.1457Y-3.4823
X5.1457Y-3.5433
X5.1457Y-4.1756
X5.1465Y-4.0185
X5.1547Y-3.9524
X5.163Y-4.3622
X5.1713Y-4.1575
X5.189Y-4.3661
X5.2008Y-4.4094
X5.2008Y-4.437
X5.2087Y-3.4813
X5.2087Y-3.5423
X5.2146Y-3.6673
X5.2362Y-3.8228
X5.2409Y-4.3803
X5.2638Y-3.4882
X5.2756Y-3.5384
X5.2835Y-4.176
X5.2953Y-4.2992
X5.2984Y-4.3835
X5.3425Y-4.4094
X5.3425Y-4.437
X5.378Y-4.2874
X5.3858Y-3.69
X5.3858Y-3.751
X5.3898Y-3.3976
X5.3898Y-3.4213
X5.3923Y-3.5408
X5.3976Y-4.1545
X5.4016Y-4.3835
X5.4213Y-3.4774
X5.4213Y-3.8661
X5.4272Y-4.3803
X5.4291Y-3.6811
X5.4331Y-3.9646
X5.4539Y-4.3803
X5.4567Y-3.4774
X5.4606Y-3.3701
X5.4606Y-3.6642
X5.4606Y-4.1545
X5.4626Y-3.5713
X5.4724Y-4.689
X5.485Y-4.3744
X5.5Y-4.5354
X5.5083Y-4.3669
X5.5232Y-3.2878
X5.5295Y-4.3543
X5.5394Y-4.5354
X5.5443Y-4.2992
X5.563Y-3.4577
X5.563Y-3.5167
X5.5787Y-4.1791
X5.5787Y-4.5354
X5.5945Y-3.7094
X5.5994Y-3.7756
X5.5994Y-3.8386
X5.5994Y-3.9016
X5.6053Y-4.2992
X5.6191Y-4.0551
X5.6191Y-4.1181
X5.626Y-3.4577
X5.626Y-3.5187
X5.637Y-3.7244
X5.637Y-3.8035
X5.6654Y-4.4449
X5.6663Y-4.2717
X5.7018Y-3.6339
X5.7018Y-4.2087
X5.7274Y-4.2717
X5.7283Y-3.6654
X5.7628Y-4.2087
X5.7648Y-3.7441
X5.7648Y-3.937
X5.7654Y-3.3571
X5.8031Y-3.6969
X5.8258Y-3.7441
X5.8258Y-3.937
X5.8504Y-3.4921
X5.878Y-3.6299
X5.9252Y-4.311
X5.9764Y-3.6969
X5.9882Y-4.2874
X6.0197Y-3.9252
X6.0197Y-4.5945
X6.0429Y-4.2815
X6.0512Y-3.7244
X6.0787Y-4.0512
X6.1024Y-4.2638
X6.1339Y-4.2638
X6.1496Y-4.0118
X6.1592Y-3.7426
X6.1654Y-4.2638
X6.1969Y-3.9685
X6.1992Y-4.1264
X6.2008Y-3.8031
X6.2217Y-4.0913
X6.2756Y-4.2638
X6.2992Y-3.9488
X6.3071Y-4.2638
X6.3386Y-4.2638
X6.3425Y-3.5394
X6.3858Y-3.8937
X6.4016Y-4.7047
X6.4055Y-3.7441
X6.4252Y-4.2638
X6.4535Y-3.724
X6.4567Y-4.2638
X6.4724Y-4.0079
X6.4882Y-4.2638
X6.5079Y-3.5118
X6.5157Y-3.6732
X6.5984Y-4.2638
X6.6299Y-4.2638
X6.6457Y-3.2677
X6.6614Y-4.2638
X6.6811Y-3.3189
X6.7598Y-4.2047
X6.7823Y-3.5906
X6.8189Y-4.5276
X6.8425Y-4.3189
X6.8543Y-4.5787
X6.8858Y-3.6811
X6.9173Y-3.5535
X6.9173Y-4.2402
X6.9289Y-4.4805
X6.9476Y-4.4539
X7.0354Y-4.4173
X7.0866Y-3.2677
X7.0906Y-4.2835
X7.123Y-3.2657
X7.1457Y-4.3898
X7.1575Y-3.8307
X7.1575Y-4.2717
X7.1722Y-3.2657
X7.1811Y-3.7638
X7.1811Y-3.9331
X7.1811Y-4.4094
X7.2323Y-3.9685
X7.2323Y-4.4449
X7.2874Y-3.9331
X7.2874Y-4.4094
X7.374Y-3.2756
T2
X4.4341Y-3.5012
X4.4341Y-3.6012
X4.4341Y-3.7012
X4.4341Y-3.8012
X4.4341Y-3.9012
X4.4341Y-4.0012
X4.4341Y-4.1012
X4.4341Y-4.2012
X4.4341Y-4.3012
X4.5341Y-3.5012
X4.5341Y-3.6012
X4.5341Y-3.7012
X4.5341Y-3.8012
X4.5341Y-3.9012
X4.5341Y-4.0012
X4.5341Y-4.1012
X4.5341Y-4.2012
X4.5341Y-4.3012
X4.6953Y-4.3661
X4.6959Y-4.5118
X4.7953Y-4.3661
X4.7959Y-4.5118
X4.8Y-3.248
X4.8959Y-4.5118
X4.9Y-3.248
X5.0Y-3.248
X5.0543Y-4.6181
X5.1543Y-4.6181
X5.1654Y-3.248
X5.2543Y-4.6181
X5.2654Y-3.248
X5.3543Y-4.6181
X5.3654Y-3.248
X5.8917Y-3.3632
X5.8917Y-3.4632
X5.9917Y-3.3632
X5.9917Y-3.4632
X6.0917Y-3.3632
X6.0917Y-3.4632
X6.1917Y-3.3632
X6.1917Y-3.4632
X6.2917Y-3.3632
X6.2917Y-3.4632
X6.3917Y-3.3632
X6.3917Y-3.4632
X6.5472Y-3.8567
X6.5472Y-3.9567
X6.5472Y-4.0567
X6.6472Y-3.8567
X6.6472Y-3.9567
X6.6472Y-4.0567
X6.7472Y-3.8567
X6.7472Y-3.9567
X6.7472Y-4.0567
X6.8472Y-3.8567
X6.8472Y-3.9567
X6.8472Y-4.0567
X6.9472Y-3.8567
X6.9472Y-3.9567
X6.9472Y-4.0567
T3
X6.2539Y-4.4988
X6.3524Y-4.4988
X6.4508Y-4.4988
X6.5492Y-4.4988
M30
