%TF.GenerationSoftware,KiCad,Pcbnew,8.0.4*%
%TF.CreationDate,2024-09-15T19:14:59+02:00*%
%TF.ProjectId,PowerAmpSupply,506f7765-7241-46d7-9053-7570706c792e,rev?*%
%TF.SameCoordinates,Original*%
%TF.FileFunction,Soldermask,Bot*%
%TF.FilePolarity,Negative*%
%FSLAX46Y46*%
G04 Gerber Fmt 4.6, Leading zero omitted, Abs format (unit mm)*
G04 Created by KiCad (PCBNEW 8.0.4) date 2024-09-15 19:14:59*
%MOMM*%
%LPD*%
G01*
G04 APERTURE LIST*
G04 Aperture macros list*
%AMRoundRect*
0 Rectangle with rounded corners*
0 $1 Rounding radius*
0 $2 $3 $4 $5 $6 $7 $8 $9 X,Y pos of 4 corners*
0 Add a 4 corners polygon primitive as box body*
4,1,4,$2,$3,$4,$5,$6,$7,$8,$9,$2,$3,0*
0 Add four circle primitives for the rounded corners*
1,1,$1+$1,$2,$3*
1,1,$1+$1,$4,$5*
1,1,$1+$1,$6,$7*
1,1,$1+$1,$8,$9*
0 Add four rect primitives between the rounded corners*
20,1,$1+$1,$2,$3,$4,$5,0*
20,1,$1+$1,$4,$5,$6,$7,0*
20,1,$1+$1,$6,$7,$8,$9,0*
20,1,$1+$1,$8,$9,$2,$3,0*%
%AMFreePoly0*
4,1,19,0.550000,-0.750000,0.000000,-0.750000,0.000000,-0.744911,-0.071157,-0.744911,-0.207708,-0.704816,-0.327430,-0.627875,-0.420627,-0.520320,-0.479746,-0.390866,-0.500000,-0.250000,-0.500000,0.250000,-0.479746,0.390866,-0.420627,0.520320,-0.327430,0.627875,-0.207708,0.704816,-0.071157,0.744911,0.000000,0.744911,0.000000,0.750000,0.550000,0.750000,0.550000,-0.750000,0.550000,-0.750000,
$1*%
%AMFreePoly1*
4,1,19,0.000000,0.744911,0.071157,0.744911,0.207708,0.704816,0.327430,0.627875,0.420627,0.520320,0.479746,0.390866,0.500000,0.250000,0.500000,-0.250000,0.479746,-0.390866,0.420627,-0.520320,0.327430,-0.627875,0.207708,-0.704816,0.071157,-0.744911,0.000000,-0.744911,0.000000,-0.750000,-0.550000,-0.750000,-0.550000,0.750000,0.000000,0.750000,0.000000,0.744911,0.000000,0.744911,
$1*%
G04 Aperture macros list end*
%ADD10C,3.000000*%
%ADD11C,0.100000*%
%ADD12C,3.800000*%
%ADD13C,2.500000*%
%ADD14C,1.200000*%
%ADD15C,2.800000*%
%ADD16C,0.150000*%
%ADD17C,0.000000*%
%ADD18RoundRect,0.160000X-0.197500X-0.160000X0.197500X-0.160000X0.197500X0.160000X-0.197500X0.160000X0*%
%ADD19RoundRect,0.160000X0.160000X-0.197500X0.160000X0.197500X-0.160000X0.197500X-0.160000X-0.197500X0*%
%ADD20RoundRect,0.160000X0.197500X0.160000X-0.197500X0.160000X-0.197500X-0.160000X0.197500X-0.160000X0*%
%ADD21R,1.050000X1.000000*%
%ADD22R,2.200000X1.050000*%
%ADD23R,1.000000X1.050000*%
%ADD24R,1.050000X2.200000*%
%ADD25C,2.200000*%
%ADD26C,3.500000*%
%ADD27C,2.600000*%
%ADD28R,1.700000X1.700000*%
%ADD29R,2.400000X2.400000*%
%ADD30C,2.400000*%
%ADD31R,2.000000X2.000000*%
%ADD32C,2.000000*%
%ADD33C,3.000000*%
%ADD34C,1.600000*%
%ADD35C,1.800000*%
%ADD36RoundRect,0.250000X-0.250000X-0.475000X0.250000X-0.475000X0.250000X0.475000X-0.250000X0.475000X0*%
%ADD37RoundRect,0.250000X-1.100000X0.325000X-1.100000X-0.325000X1.100000X-0.325000X1.100000X0.325000X0*%
%ADD38RoundRect,0.250000X-0.325000X-1.100000X0.325000X-1.100000X0.325000X1.100000X-0.325000X1.100000X0*%
%ADD39RoundRect,0.250000X1.100000X-0.325000X1.100000X0.325000X-1.100000X0.325000X-1.100000X-0.325000X0*%
%ADD40RoundRect,0.625000X-0.875000X-0.625000X0.875000X-0.625000X0.875000X0.625000X-0.875000X0.625000X0*%
%ADD41RoundRect,0.250000X-0.250000X0.250000X-0.250000X-0.250000X0.250000X-0.250000X0.250000X0.250000X0*%
%ADD42RoundRect,0.200000X-0.275000X0.200000X-0.275000X-0.200000X0.275000X-0.200000X0.275000X0.200000X0*%
%ADD43RoundRect,0.225000X-0.225000X-0.250000X0.225000X-0.250000X0.225000X0.250000X-0.225000X0.250000X0*%
%ADD44RoundRect,0.250000X-0.475000X0.250000X-0.475000X-0.250000X0.475000X-0.250000X0.475000X0.250000X0*%
%ADD45RoundRect,0.075000X-0.650000X-0.075000X0.650000X-0.075000X0.650000X0.075000X-0.650000X0.075000X0*%
%ADD46R,1.680000X1.880000*%
%ADD47RoundRect,0.225000X0.250000X-0.225000X0.250000X0.225000X-0.250000X0.225000X-0.250000X-0.225000X0*%
%ADD48RoundRect,0.225000X0.375000X-0.225000X0.375000X0.225000X-0.375000X0.225000X-0.375000X-0.225000X0*%
%ADD49RoundRect,0.250000X-0.325000X-0.650000X0.325000X-0.650000X0.325000X0.650000X-0.325000X0.650000X0*%
%ADD50RoundRect,0.150000X-0.512500X-0.150000X0.512500X-0.150000X0.512500X0.150000X-0.512500X0.150000X0*%
%ADD51RoundRect,0.775000X1.225000X0.775000X-1.225000X0.775000X-1.225000X-0.775000X1.225000X-0.775000X0*%
%ADD52RoundRect,0.150000X0.587500X0.150000X-0.587500X0.150000X-0.587500X-0.150000X0.587500X-0.150000X0*%
%ADD53R,1.270000X0.610000*%
%ADD54R,3.810000X3.910000*%
%ADD55R,1.020000X0.610000*%
%ADD56RoundRect,0.200000X0.275000X-0.200000X0.275000X0.200000X-0.275000X0.200000X-0.275000X-0.200000X0*%
%ADD57RoundRect,0.250000X0.475000X-0.250000X0.475000X0.250000X-0.475000X0.250000X-0.475000X-0.250000X0*%
%ADD58FreePoly0,270.000000*%
%ADD59R,1.500000X1.000000*%
%ADD60FreePoly1,270.000000*%
%ADD61RoundRect,0.200000X0.200000X0.275000X-0.200000X0.275000X-0.200000X-0.275000X0.200000X-0.275000X0*%
%ADD62RoundRect,0.225000X-0.250000X0.225000X-0.250000X-0.225000X0.250000X-0.225000X0.250000X0.225000X0*%
G04 APERTURE END LIST*
D10*
X144900000Y-96000000D02*
X156100000Y-96000000D01*
D11*
X128600000Y-85100000D02*
X127700000Y-85100000D01*
X125100000Y-84100000D01*
X125100000Y-81700000D01*
X127700000Y-80900000D01*
X128600000Y-80900000D01*
X128600000Y-85100000D01*
G36*
X128600000Y-85100000D02*
G01*
X127700000Y-85100000D01*
X125100000Y-84100000D01*
X125100000Y-81700000D01*
X127700000Y-80900000D01*
X128600000Y-80900000D01*
X128600000Y-85100000D01*
G37*
X133200000Y-80700000D02*
X136800000Y-80700000D01*
X136800000Y-84100000D01*
X133200000Y-84100000D01*
X133200000Y-80700000D01*
G36*
X133200000Y-80700000D02*
G01*
X136800000Y-80700000D01*
X136800000Y-84100000D01*
X133200000Y-84100000D01*
X133200000Y-80700000D01*
G37*
D12*
X115500000Y-86600000D02*
G75*
G02*
X118900000Y-82900000I4019900J-281800D01*
G01*
X115500000Y-91000000D02*
X115500000Y-86600000D01*
X115500000Y-96400000D02*
X122800000Y-94000000D01*
D13*
X144300000Y-85600000D02*
X155700000Y-85600000D01*
D12*
X115500000Y-98800000D02*
X115500000Y-96400000D01*
D14*
X178850000Y-100300000D02*
X180200000Y-104000000D01*
D15*
X180700000Y-104700000D02*
X180700000Y-107200000D01*
D16*
%TO.C,Logo*%
X138550000Y-110100000D02*
X138550000Y-113700000D01*
X137950000Y-114300000D01*
X131650000Y-114300000D01*
X131050000Y-113700000D01*
X131050000Y-110100000D01*
X131650000Y-109500000D01*
X137950000Y-109500000D01*
X138550000Y-110100000D01*
D17*
G36*
X137950000Y-111600000D02*
G01*
X137350000Y-111600000D01*
X137350000Y-110700000D01*
X136150000Y-110700000D01*
X135850000Y-111000000D01*
X135850000Y-111300000D01*
X136150000Y-111600000D01*
X135250000Y-111600000D01*
X135250000Y-110400000D01*
X135550000Y-110100000D01*
X137950000Y-110100000D01*
X137950000Y-111600000D01*
G37*
G36*
X137350000Y-111600000D02*
G01*
X137950000Y-111600000D01*
X137950000Y-113700000D01*
X135550000Y-113700000D01*
X135250000Y-113400000D01*
X135250000Y-112500000D01*
X135850000Y-112500000D01*
X135850000Y-112800000D01*
X136150000Y-113100000D01*
X137350000Y-113100000D01*
X137350000Y-112200000D01*
X136150000Y-112200000D01*
X135850000Y-112500000D01*
X135250000Y-112500000D01*
X135250000Y-112200000D01*
X135550000Y-111900000D01*
X135250000Y-111600000D01*
X137350000Y-111600000D01*
G37*
G36*
X132250000Y-112500000D02*
G01*
X132550000Y-112800000D01*
X132850000Y-112500000D01*
X132850000Y-110400000D01*
X133150000Y-110100000D01*
X133450000Y-110400000D01*
X133450000Y-112500000D01*
X133750000Y-112800000D01*
X134050000Y-112500000D01*
X134050000Y-110100000D01*
X134350000Y-110100000D01*
X134650000Y-110400000D01*
X134650000Y-113400000D01*
X134350000Y-113700000D01*
X133450000Y-113700000D01*
X133150000Y-113400000D01*
X132850000Y-113700000D01*
X131950000Y-113700000D01*
X131650000Y-113400000D01*
X131650000Y-110400000D01*
X131950000Y-110100000D01*
X132250000Y-110100000D01*
X132250000Y-112500000D01*
G37*
%TD*%
D18*
%TO.C,R34*%
X182302500Y-101500000D03*
X183497500Y-101500000D03*
%TD*%
D19*
%TO.C,R33*%
X185200000Y-107395000D03*
X185200000Y-106200000D03*
%TD*%
D20*
%TO.C,R32*%
X166700000Y-97000000D03*
X167895000Y-97000000D03*
%TD*%
D21*
%TO.C,J10*%
X186375000Y-107300000D03*
D22*
X187900000Y-108775000D03*
D21*
X189425000Y-107300000D03*
D22*
X187900000Y-105825000D03*
%TD*%
D23*
%TO.C,J9*%
X166100000Y-95900000D03*
D24*
X167575000Y-94375000D03*
D23*
X166100000Y-92850000D03*
D24*
X164625000Y-94375000D03*
%TD*%
D23*
%TO.C,J8*%
X182375000Y-100325000D03*
D24*
X183850000Y-98800000D03*
D23*
X182375000Y-97275000D03*
D24*
X180900000Y-98800000D03*
%TD*%
D25*
%TO.C,REF\u002A\u002A*%
X171000000Y-96300000D03*
X184900000Y-112400000D03*
%TD*%
D26*
%TO.C,J2*%
X159500000Y-85300000D03*
%TD*%
D27*
%TO.C,J6*%
X113375000Y-110281200D03*
X113375000Y-106318800D03*
%TD*%
D28*
%TO.C,J7*%
X144300000Y-81500000D03*
%TD*%
D29*
%TO.C,C28*%
X125700000Y-107187246D03*
D30*
X125700000Y-114687246D03*
%TD*%
D31*
%TO.C,C7*%
X145400000Y-88032323D03*
D32*
X145400000Y-93032323D03*
%TD*%
D33*
%TO.C,J5*%
X115500000Y-96450000D03*
X115500000Y-98750000D03*
X115500000Y-88650000D03*
X115500000Y-90950000D03*
D34*
X118875000Y-97350000D03*
X118875000Y-93700000D03*
X118875000Y-90050000D03*
X111700000Y-86450000D03*
D35*
X111700000Y-88400000D03*
X111700000Y-99000000D03*
D34*
X111700000Y-100950000D03*
X120150000Y-86450000D03*
D35*
X120150000Y-88400000D03*
X120150000Y-99000000D03*
D34*
X120150000Y-100950000D03*
%TD*%
D29*
%TO.C,C26*%
X142200000Y-105987246D03*
D30*
X142200000Y-113487246D03*
%TD*%
D26*
%TO.C,J3*%
X122800000Y-94000000D03*
%TD*%
D29*
%TO.C,C27*%
X132700000Y-99712755D03*
D30*
X132700000Y-92212755D03*
%TD*%
D26*
%TO.C,J1*%
X136800000Y-82500000D03*
%TD*%
%TO.C,J4*%
X177800000Y-100300000D03*
%TD*%
D36*
%TO.C,C6*%
X175950000Y-109100000D03*
X177850000Y-109100000D03*
%TD*%
D37*
%TO.C,C33*%
X160300000Y-112925000D03*
X160300000Y-115875000D03*
%TD*%
D38*
%TO.C,C45*%
X127825000Y-93400000D03*
X130775000Y-93400000D03*
%TD*%
D39*
%TO.C,C23*%
X158100000Y-101575000D03*
X158100000Y-98625000D03*
%TD*%
D40*
%TO.C,L2*%
X118850000Y-82900000D03*
X124350000Y-82900000D03*
%TD*%
D37*
%TO.C,C9*%
X151800000Y-89125000D03*
X151800000Y-92075000D03*
%TD*%
D41*
%TO.C,D6*%
X134900000Y-88350000D03*
X134900000Y-90850000D03*
%TD*%
D42*
%TO.C,R29*%
X124600000Y-90075000D03*
X124600000Y-91725000D03*
%TD*%
D43*
%TO.C,C46*%
X132825000Y-86500000D03*
X134375000Y-86500000D03*
%TD*%
D44*
%TO.C,C10*%
X154500000Y-89050000D03*
X154500000Y-90950000D03*
%TD*%
D45*
%TO.C,U5*%
X126850000Y-88600000D03*
X126850000Y-88100000D03*
X126850000Y-87600000D03*
X126850000Y-87100000D03*
X126850000Y-86600000D03*
X131150000Y-86600000D03*
X131150000Y-87100000D03*
X131150000Y-87600000D03*
X131150000Y-88100000D03*
X131150000Y-88600000D03*
D46*
X129000000Y-87600000D03*
%TD*%
D37*
%TO.C,C29*%
X173500000Y-112925000D03*
X173500000Y-115875000D03*
%TD*%
D39*
%TO.C,C24*%
X154800000Y-101575000D03*
X154800000Y-98625000D03*
%TD*%
D47*
%TO.C,C14*%
X176500000Y-91175000D03*
X176500000Y-89625000D03*
%TD*%
D42*
%TO.C,R15*%
X173400000Y-89575000D03*
X173400000Y-91225000D03*
%TD*%
D48*
%TO.C,D4*%
X138200000Y-90150000D03*
X138200000Y-86850000D03*
%TD*%
D42*
%TO.C,R16*%
X171900000Y-89575000D03*
X171900000Y-91225000D03*
%TD*%
D49*
%TO.C,C41*%
X127925000Y-90600000D03*
X130875000Y-90600000D03*
%TD*%
D37*
%TO.C,C34*%
X157000000Y-112925000D03*
X157000000Y-115875000D03*
%TD*%
D42*
%TO.C,R27*%
X132900000Y-88075000D03*
X132900000Y-89725000D03*
%TD*%
D50*
%TO.C,U3*%
X175962500Y-84050000D03*
X175962500Y-83100000D03*
X175962500Y-82150000D03*
X178237500Y-82150000D03*
X178237500Y-84050000D03*
%TD*%
D51*
%TO.C,F1*%
X124150000Y-110500000D03*
X117450000Y-110500000D03*
%TD*%
D37*
%TO.C,C30*%
X170200000Y-112925000D03*
X170200000Y-115875000D03*
%TD*%
D52*
%TO.C,U2*%
X174737500Y-86050000D03*
X174737500Y-87950000D03*
X172862500Y-87000000D03*
%TD*%
D38*
%TO.C,C25*%
X176025000Y-111800000D03*
X178975000Y-111800000D03*
%TD*%
D53*
%TO.C,Q5*%
X133775000Y-81095000D03*
X133775000Y-82365000D03*
X133775000Y-83635000D03*
X133775000Y-84905000D03*
D54*
X130415000Y-83000000D03*
D55*
X128310000Y-84905000D03*
X128310000Y-83635000D03*
X128310000Y-82365000D03*
X128310000Y-81095000D03*
%TD*%
D36*
%TO.C,C11*%
X176400000Y-97800000D03*
X178300000Y-97800000D03*
%TD*%
D56*
%TO.C,R17*%
X174900000Y-91225000D03*
X174900000Y-89575000D03*
%TD*%
D42*
%TO.C,R25*%
X135900000Y-85075000D03*
X135900000Y-86725000D03*
%TD*%
D39*
%TO.C,C22*%
X161400000Y-101875000D03*
X161400000Y-98925000D03*
%TD*%
D57*
%TO.C,C36*%
X180800000Y-84050000D03*
X180800000Y-82150000D03*
%TD*%
D42*
%TO.C,R26*%
X123000000Y-86875000D03*
X123000000Y-88525000D03*
%TD*%
D58*
%TO.C,JP1*%
X178800000Y-91600000D03*
D59*
X178800000Y-92900000D03*
D60*
X178800000Y-94200000D03*
%TD*%
D37*
%TO.C,C31*%
X166900000Y-112925000D03*
X166900000Y-115875000D03*
%TD*%
D39*
%TO.C,C21*%
X164700000Y-103175000D03*
X164700000Y-100225000D03*
%TD*%
D43*
%TO.C,C5*%
X176225000Y-102700000D03*
X177775000Y-102700000D03*
%TD*%
D37*
%TO.C,C8*%
X148500000Y-89125000D03*
X148500000Y-92075000D03*
%TD*%
D61*
%TO.C,R19*%
X181225000Y-85600000D03*
X179575000Y-85600000D03*
%TD*%
D62*
%TO.C,C44*%
X126200000Y-90125000D03*
X126200000Y-91675000D03*
%TD*%
D42*
%TO.C,R22*%
X182600000Y-82175000D03*
X182600000Y-83825000D03*
%TD*%
D37*
%TO.C,C32*%
X163600000Y-112925000D03*
X163600000Y-115875000D03*
%TD*%
D44*
%TO.C,C43*%
X124800000Y-86550000D03*
X124800000Y-88450000D03*
%TD*%
D39*
%TO.C,C20*%
X168000000Y-104375000D03*
X168000000Y-101425000D03*
%TD*%
D61*
%TO.C,R21*%
X178225000Y-85600000D03*
X176575000Y-85600000D03*
%TD*%
M02*
