%TF.GenerationSoftware,KiCad,Pcbnew,8.0.4*%
%TF.CreationDate,2024-09-15T19:14:59+02:00*%
%TF.ProjectId,PowerAmpSupply,506f7765-7241-46d7-9053-7570706c792e,rev?*%
%TF.SameCoordinates,Original*%
%TF.FileFunction,Paste,Bot*%
%TF.FilePolarity,Positive*%
%FSLAX46Y46*%
G04 Gerber Fmt 4.6, Leading zero omitted, Abs format (unit mm)*
G04 Created by KiCad (PCBNEW 8.0.4) date 2024-09-15 19:14:59*
%MOMM*%
%LPD*%
G01*
G04 APERTURE LIST*
G04 Aperture macros list*
%AMRoundRect*
0 Rectangle with rounded corners*
0 $1 Rounding radius*
0 $2 $3 $4 $5 $6 $7 $8 $9 X,Y pos of 4 corners*
0 Add a 4 corners polygon primitive as box body*
4,1,4,$2,$3,$4,$5,$6,$7,$8,$9,$2,$3,0*
0 Add four circle primitives for the rounded corners*
1,1,$1+$1,$2,$3*
1,1,$1+$1,$4,$5*
1,1,$1+$1,$6,$7*
1,1,$1+$1,$8,$9*
0 Add four rect primitives between the rounded corners*
20,1,$1+$1,$2,$3,$4,$5,0*
20,1,$1+$1,$4,$5,$6,$7,0*
20,1,$1+$1,$6,$7,$8,$9,0*
20,1,$1+$1,$8,$9,$2,$3,0*%
G04 Aperture macros list end*
%ADD10RoundRect,0.160000X-0.197500X-0.160000X0.197500X-0.160000X0.197500X0.160000X-0.197500X0.160000X0*%
%ADD11RoundRect,0.160000X0.160000X-0.197500X0.160000X0.197500X-0.160000X0.197500X-0.160000X-0.197500X0*%
%ADD12RoundRect,0.160000X0.197500X0.160000X-0.197500X0.160000X-0.197500X-0.160000X0.197500X-0.160000X0*%
%ADD13R,1.050000X1.000000*%
%ADD14R,2.200000X1.050000*%
%ADD15R,1.000000X1.050000*%
%ADD16R,1.050000X2.200000*%
%ADD17RoundRect,0.250000X-0.250000X-0.475000X0.250000X-0.475000X0.250000X0.475000X-0.250000X0.475000X0*%
%ADD18RoundRect,0.250000X-1.100000X0.325000X-1.100000X-0.325000X1.100000X-0.325000X1.100000X0.325000X0*%
%ADD19RoundRect,0.250000X-0.325000X-1.100000X0.325000X-1.100000X0.325000X1.100000X-0.325000X1.100000X0*%
%ADD20RoundRect,0.250000X1.100000X-0.325000X1.100000X0.325000X-1.100000X0.325000X-1.100000X-0.325000X0*%
%ADD21RoundRect,0.625000X-0.875000X-0.625000X0.875000X-0.625000X0.875000X0.625000X-0.875000X0.625000X0*%
%ADD22RoundRect,0.250000X-0.250000X0.250000X-0.250000X-0.250000X0.250000X-0.250000X0.250000X0.250000X0*%
%ADD23RoundRect,0.200000X-0.275000X0.200000X-0.275000X-0.200000X0.275000X-0.200000X0.275000X0.200000X0*%
%ADD24RoundRect,0.225000X-0.225000X-0.250000X0.225000X-0.250000X0.225000X0.250000X-0.225000X0.250000X0*%
%ADD25RoundRect,0.250000X-0.475000X0.250000X-0.475000X-0.250000X0.475000X-0.250000X0.475000X0.250000X0*%
%ADD26RoundRect,0.170000X-0.170000X-0.210000X0.170000X-0.210000X0.170000X0.210000X-0.170000X0.210000X0*%
%ADD27RoundRect,0.075000X-0.650000X-0.075000X0.650000X-0.075000X0.650000X0.075000X-0.650000X0.075000X0*%
%ADD28RoundRect,0.225000X0.250000X-0.225000X0.250000X0.225000X-0.250000X0.225000X-0.250000X-0.225000X0*%
%ADD29RoundRect,0.225000X0.375000X-0.225000X0.375000X0.225000X-0.375000X0.225000X-0.375000X-0.225000X0*%
%ADD30RoundRect,0.250000X-0.325000X-0.650000X0.325000X-0.650000X0.325000X0.650000X-0.325000X0.650000X0*%
%ADD31RoundRect,0.150000X-0.512500X-0.150000X0.512500X-0.150000X0.512500X0.150000X-0.512500X0.150000X0*%
%ADD32RoundRect,0.775000X1.225000X0.775000X-1.225000X0.775000X-1.225000X-0.775000X1.225000X-0.775000X0*%
%ADD33RoundRect,0.150000X0.587500X0.150000X-0.587500X0.150000X-0.587500X-0.150000X0.587500X-0.150000X0*%
%ADD34R,1.270000X0.610000*%
%ADD35R,3.810000X3.910000*%
%ADD36R,1.020000X0.610000*%
%ADD37RoundRect,0.200000X0.275000X-0.200000X0.275000X0.200000X-0.275000X0.200000X-0.275000X-0.200000X0*%
%ADD38RoundRect,0.250000X0.475000X-0.250000X0.475000X0.250000X-0.475000X0.250000X-0.475000X-0.250000X0*%
%ADD39RoundRect,0.200000X0.200000X0.275000X-0.200000X0.275000X-0.200000X-0.275000X0.200000X-0.275000X0*%
%ADD40RoundRect,0.225000X-0.250000X0.225000X-0.250000X-0.225000X0.250000X-0.225000X0.250000X0.225000X0*%
G04 APERTURE END LIST*
D10*
%TO.C,R34*%
X182302500Y-101500000D03*
X183497500Y-101500000D03*
%TD*%
D11*
%TO.C,R33*%
X185200000Y-107395000D03*
X185200000Y-106200000D03*
%TD*%
D12*
%TO.C,R32*%
X166700000Y-97000000D03*
X167895000Y-97000000D03*
%TD*%
D13*
%TO.C,J10*%
X186375000Y-107300000D03*
D14*
X187900000Y-108775000D03*
D13*
X189425000Y-107300000D03*
D14*
X187900000Y-105825000D03*
%TD*%
D15*
%TO.C,J9*%
X166100000Y-95900000D03*
D16*
X167575000Y-94375000D03*
D15*
X166100000Y-92850000D03*
D16*
X164625000Y-94375000D03*
%TD*%
D15*
%TO.C,J8*%
X182375000Y-100325000D03*
D16*
X183850000Y-98800000D03*
D15*
X182375000Y-97275000D03*
D16*
X180900000Y-98800000D03*
%TD*%
D17*
%TO.C,C6*%
X175950000Y-109100000D03*
X177850000Y-109100000D03*
%TD*%
D18*
%TO.C,C33*%
X160300000Y-112925000D03*
X160300000Y-115875000D03*
%TD*%
D19*
%TO.C,C45*%
X127825000Y-93400000D03*
X130775000Y-93400000D03*
%TD*%
D20*
%TO.C,C23*%
X158100000Y-101575000D03*
X158100000Y-98625000D03*
%TD*%
D21*
%TO.C,L2*%
X118850000Y-82900000D03*
X124350000Y-82900000D03*
%TD*%
D18*
%TO.C,C9*%
X151800000Y-89125000D03*
X151800000Y-92075000D03*
%TD*%
D22*
%TO.C,D6*%
X134900000Y-88350000D03*
X134900000Y-90850000D03*
%TD*%
D23*
%TO.C,R29*%
X124600000Y-90075000D03*
X124600000Y-91725000D03*
%TD*%
D24*
%TO.C,C46*%
X132825000Y-86500000D03*
X134375000Y-86500000D03*
%TD*%
D25*
%TO.C,C10*%
X154500000Y-89050000D03*
X154500000Y-90950000D03*
%TD*%
D26*
%TO.C,U5*%
X128580000Y-87130000D03*
X128580000Y-88070000D03*
X129420000Y-87130000D03*
X129420000Y-88070000D03*
D27*
X126850000Y-88600000D03*
X126850000Y-88100000D03*
X126850000Y-87600000D03*
X126850000Y-87100000D03*
X126850000Y-86600000D03*
X131150000Y-86600000D03*
X131150000Y-87100000D03*
X131150000Y-87600000D03*
X131150000Y-88100000D03*
X131150000Y-88600000D03*
%TD*%
D18*
%TO.C,C29*%
X173500000Y-112925000D03*
X173500000Y-115875000D03*
%TD*%
D20*
%TO.C,C24*%
X154800000Y-101575000D03*
X154800000Y-98625000D03*
%TD*%
D28*
%TO.C,C14*%
X176500000Y-91175000D03*
X176500000Y-89625000D03*
%TD*%
D23*
%TO.C,R15*%
X173400000Y-89575000D03*
X173400000Y-91225000D03*
%TD*%
D29*
%TO.C,D4*%
X138200000Y-90150000D03*
X138200000Y-86850000D03*
%TD*%
D23*
%TO.C,R16*%
X171900000Y-89575000D03*
X171900000Y-91225000D03*
%TD*%
D30*
%TO.C,C41*%
X127925000Y-90600000D03*
X130875000Y-90600000D03*
%TD*%
D18*
%TO.C,C34*%
X157000000Y-112925000D03*
X157000000Y-115875000D03*
%TD*%
D23*
%TO.C,R27*%
X132900000Y-88075000D03*
X132900000Y-89725000D03*
%TD*%
D31*
%TO.C,U3*%
X175962500Y-84050000D03*
X175962500Y-83100000D03*
X175962500Y-82150000D03*
X178237500Y-82150000D03*
X178237500Y-84050000D03*
%TD*%
D32*
%TO.C,F1*%
X124150000Y-110500000D03*
X117450000Y-110500000D03*
%TD*%
D18*
%TO.C,C30*%
X170200000Y-112925000D03*
X170200000Y-115875000D03*
%TD*%
D33*
%TO.C,U2*%
X174737500Y-86050000D03*
X174737500Y-87950000D03*
X172862500Y-87000000D03*
%TD*%
D19*
%TO.C,C25*%
X176025000Y-111800000D03*
X178975000Y-111800000D03*
%TD*%
D34*
%TO.C,Q5*%
X133775000Y-81095000D03*
X133775000Y-82365000D03*
X133775000Y-83635000D03*
X133775000Y-84905000D03*
D35*
X130415000Y-83000000D03*
D36*
X128310000Y-84905000D03*
X128310000Y-83635000D03*
X128310000Y-82365000D03*
X128310000Y-81095000D03*
%TD*%
D17*
%TO.C,C11*%
X176400000Y-97800000D03*
X178300000Y-97800000D03*
%TD*%
D37*
%TO.C,R17*%
X174900000Y-91225000D03*
X174900000Y-89575000D03*
%TD*%
D23*
%TO.C,R25*%
X135900000Y-85075000D03*
X135900000Y-86725000D03*
%TD*%
D20*
%TO.C,C22*%
X161400000Y-101875000D03*
X161400000Y-98925000D03*
%TD*%
D38*
%TO.C,C36*%
X180800000Y-84050000D03*
X180800000Y-82150000D03*
%TD*%
D23*
%TO.C,R26*%
X123000000Y-86875000D03*
X123000000Y-88525000D03*
%TD*%
D18*
%TO.C,C31*%
X166900000Y-112925000D03*
X166900000Y-115875000D03*
%TD*%
D20*
%TO.C,C21*%
X164700000Y-103175000D03*
X164700000Y-100225000D03*
%TD*%
D24*
%TO.C,C5*%
X176225000Y-102700000D03*
X177775000Y-102700000D03*
%TD*%
D18*
%TO.C,C8*%
X148500000Y-89125000D03*
X148500000Y-92075000D03*
%TD*%
D39*
%TO.C,R19*%
X181225000Y-85600000D03*
X179575000Y-85600000D03*
%TD*%
D40*
%TO.C,C44*%
X126200000Y-90125000D03*
X126200000Y-91675000D03*
%TD*%
D23*
%TO.C,R22*%
X182600000Y-82175000D03*
X182600000Y-83825000D03*
%TD*%
D18*
%TO.C,C32*%
X163600000Y-112925000D03*
X163600000Y-115875000D03*
%TD*%
D25*
%TO.C,C43*%
X124800000Y-86550000D03*
X124800000Y-88450000D03*
%TD*%
D20*
%TO.C,C20*%
X168000000Y-104375000D03*
X168000000Y-101425000D03*
%TD*%
D39*
%TO.C,R21*%
X178225000Y-85600000D03*
X176575000Y-85600000D03*
%TD*%
M02*
